<?xml version="1.0" encoding="UTF-8"?>
<!DOCTYPE svg PUBLIC '-//W3C//DTD SVG 1.0//EN' 'http://www.w3.org/TR/2001/REC-SVG-20010904/DTD/svg10.dtd'>
<svg xmlns:xlink="http://www.w3.org/1999/xlink" xmlns="http://www.w3.org/2000/svg" width="834.115427508248" height="734.422863579031">
<!--Gegenereerd door de SIMaD-toepassing (http://www.dlw.be).-->
<g style="stroke:none;fill-rule:evenodd;" transform="matrix(1,0,0,-1,0,734.422863579031)">
<path d=" M378.09 711.92 L6.02885800779754 67.5000020405242 A45 45 0 0 1 45.0000023561945 6.3948846218409E-14 L789.119997643806 6.3948846218409E-14 A45 45 0 0 1 828.091141992202 67.5000020405242 L828.09 67.5 L456.031144348397 711.919997959476 A45 45 0 0 1 378.088855651603 711.919997959476 Z" style="fill:rgb(255,0,0);" />
<path d=" M123.05 90 L711.34 90 L417.2 598.11 Z" style="fill:rgb(255,255,255);" />
<path d=" M529.613047257759 175.551225002361 A34 34 0 0 1 496.810763726405 175.850715615076 L496.803047257759 175.858774997639 A34 34 0 0 0 464.000763726405 175.559284384924 L464.003047257759 175.551225002361 A34 34 0 0 1 431.200763726405 175.850715615076 L431.203047257759 175.858774997639 A34 34 0 0 0 398.400763726405 175.559284384924 L398.403047257759 175.551225002361 A34 34 0 0 1 365.600763726405 175.850715615076 L365.593048809247 175.858775870638 A34 34 0 0 0 350.406104027416 171.522493544275 L350.41 171.52 L350.41 287.93 L306.23 287.93 L253.89 128.5 L584.21 128.5 L584.207739041451 179.454270822167 A34 34 0 0 1 562.410762159236 175.860714770551 L562.413047257759 175.858774997639 A34 34 0 0 0 529.610763726405 175.559284384924 Z" style="fill:rgb(0,0,0);" />
<path d=" M524.63826832831 190.288743681081 A19.2 19.2 0 0 1 495.016786267469 214.275746893522 L495.02 214.27 L425.35826832831 270.678743681081 A19.2 19.2 0 0 1 395.736786267469 294.665746893522 L395.74 294.67 L381.068689600502 306.549994336792 A1.75 1.75 0 0 0 380.550403307389 308.572877479843 L380.55 308.57 L382.01 312.14 L382.690366404689 314.031255447057 A3.09 3.09 0 0 1 381.458601977544 317.763467336631 L381.46 317.76 L385.16 322.34 L387.77 320.22 L393.793586886601 331.207010643747 A2.95 2.95 0 0 0 398.439364955927 332.492098740535 L398.43 332.5 L414.832734736052 322.465212110928 A15.91 15.91 0 0 1 425.230416690162 320.172487274205 L425.23 320.17 L449.033200691301 321.082891195867 A9.44 9.44 0 0 0 456.019197155272 319.029437441421 L456.02 319.03 L506.539833990194 278.132021344227 A12.79 12.79 0 0 0 512.181440447378 269.957226327494 L512.17 269.95 L513.45 258.06 L514.67 248.62 L515.32 244.6 L515.945428153008 241.667282672646 A9.97 9.97 0 0 1 518.462684757894 236.429836665831 L518.46 236.43 L546.4 213.39 L548.22 211.7 L549.33338008024 210.198351729489 A4.24 4.24 0 0 0 548.322528894913 204.632696107142 L548.32 204.63 L541.9 199.38 L544.84 197 L540.146413421471 191.421316987324 A13.1 13.1 0 0 1 529.935080769062 187.530549251937 L529.94 187.53 L529.19 186.6 L524.63 190.29 L529.19 186.6 Z M476.86 298.01 L462.66 280.48 L426.09 310.1 L448.587205047243 315.85285318647 A10.03 10.03 0 0 0 457.91444647652 313.347096319294 L457.91 313.35 Z M503.416340277033 276.50430921362 A7.64 7.64 0 0 0 506.769999267597 270.183345312962 L506.77 270.18 L506.1 245.31 L466.58 277.31 L480.78 294.84 Z" style="fill:rgb(0,0,0);" />
<path d=" M426.01 280.87 A16.92 16.92 0 0 1 392.17 280.87 A16.92 16.92 0 0 1 426.01 280.87 Z M416.04 280.77 A6.97 6.97 0 0 1 402.1 280.77 A6.97 6.97 0 0 1 416.04 280.77 Z" style="fill:rgb(0,0,0);" />
<path d=" M525.29 200.48 A16.92 16.92 0 0 1 491.45 200.48 A16.92 16.92 0 0 1 525.29 200.48 Z M515.32 200.38 A6.97 6.97 0 0 1 501.38 200.38 A6.97 6.97 0 0 1 515.32 200.38 Z" style="fill:rgb(0,0,0);" />
</g>
</svg>
