<?xml version="1.0" encoding="UTF-8"?>
<!DOCTYPE svg PUBLIC '-//W3C//DTD SVG 1.0//EN' 'http://www.w3.org/TR/2001/REC-SVG-20010904/DTD/svg10.dtd'>
<svg xmlns:xlink="http://www.w3.org/1999/xlink" xmlns="http://www.w3.org/2000/svg" width="1034.11542730566" height="907.627944162883">
<!--Gegenereerd door de SIMaD-toepassing (http://www.dlw.be).-->
<g style="stroke:none;fill-rule:evenodd;" transform="matrix(1,0,0,-1,0,907.627944162883)">
<path d=" M478.09 885.13 L6.02885800779754 67.5000020405242 A45 45 0 0 1 45.0000023561945 6.3948846218409E-14 L989.119997643806 6.3948846218409E-14 A45 45 0 0 1 1028.0911419922 67.5000020405242 L1028.09 67.5 L556.031144348397 885.129997959476 A45 45 0 0 1 478.088855651603 885.129997959476 Z" style="fill:rgb(255,0,0);" />
<path d=" M876.53 110 L517.06 732.63 L157.58 110 Z" style="fill:rgb(255,255,255);" />
<path d=" M309.63 220 L309.623514220438 282.144005447644 A67.57 67.57 0 0 1 333.194406056327 309.750792802271 L333.205597420622 309.749214685031 A67.57 67.57 0 0 0 455.774404069499 309.749211476188 L455.775596427208 309.750787454198 A67.57 67.57 0 0 1 578.344403572792 309.750787454198 L578.345596427208 309.749212545802 A67.57 67.57 0 0 0 700.914403076085 309.749213615417 L700.91559444038 309.750791732656 A67.57 67.57 0 0 1 724.486486758099 282.144004789419 L724.49 282.14 L724.49 220 Z" style="fill:rgb(0,0,0);" />
</g>
</svg>
