<svg xmlns:xlink="http://www.w3.org/1999/xlink" xmlns="http://www.w3.org/2000/svg" width="100%" height="100%"  viewBox="0 0 1034 908" preserveAspectRatio="xMidYMid meet"><rect id="svgEditorBackground" x="-6.961522102355957" y="-0.0021972658578306437" width="648.0430908203125" height="561.219970703125" style="fill: none; stroke: none;"/>
<!--Gegenereerd door de SIMaD-toepassing (http://www.dlw.be).-->
<g style="stroke:none;fill-rule:evenodd;" transform="matrix(1,0,0,-1,0,561.217782648159)">
<path d=" M278.09 538.72 L6.02885800779754 67.5000020405242 A45 45 0 0 1 45.0000023561945 6.3948846218409E-14 L589.119997643806 6.3948846218409E-14 A45 45 0 0 1 628.091141992202 67.5000020405242 L628.09 67.5 L356.031144348397 538.719997959476 A45 45 0 0 1 278.088855651603 538.719997959476 Z" style="fill:rgb(255,0,0);"/>
<path d=" M545.81 70 L317.06 466.22 L88.3 70 Z" style="fill:rgb(255,255,255);"/>
<path d=" M476.53 100 L476.53 130 L441.960002443461 130 A70 70 0 0 0 387.316265640575 156.250002339925 A90 90 0 0 1 246.803769127563 156.249995765323 A70 70 0 0 0 192.160003665191 130 L157.58 130 L157.58 100 Z" style="fill:rgb(0,0,0);"/>
</g>
</svg>