<?xml version="1.0" encoding="UTF-8"?>
<!DOCTYPE svg PUBLIC '-//W3C//DTD SVG 1.0//EN' 'http://www.w3.org/TR/2001/REC-SVG-20010904/DTD/svg10.dtd'>
<svg xmlns:xlink="http://www.w3.org/1999/xlink" xmlns="http://www.w3.org/2000/svg" width="1034.11542730566" height="907.627944162881">
<!--Gegenereerd door de SIMaD-toepassing (http://www.dlw.be).-->
<g style="stroke:none;fill-rule:evenodd;" transform="matrix(1,0,0,-1,0,907.627944162881)">
<path d=" M478.09 885.13 L6.02885800779754 67.5000020405242 A45 45 0 0 1 45.0000023561945 6.3948846218409E-14 L989.119997643806 6.3948846218409E-14 A45 45 0 0 1 1028.0911419922 67.5000020405242 L1028.09 67.5 L556.031144348397 885.129997959476 A45 45 0 0 1 478.088855651603 885.129997959476 Z" style="fill:rgb(255,0,0);" />
<path d=" M876.53 110 L517.06 732.63 L157.58 110 Z" style="fill:rgb(255,255,255);" />
<path d=" M618.158118133066 350.09755983111 A237.7 237.7 0 0 1 640.094667578556 395.225000130974 L640.09 395.23 L645.314428973464 417.746694357965 A27.04 27.04 0 0 1 645.129571698679 430.269808371058 L645.143916452258 430.271650845911 A11.82 11.82 0 0 1 638.002083673793 437.909209638074 L638 437.91 L619.11 523.85 L456.89 560.66 L402.769504499508 491.28681199075 A11.82 11.82 0 0 1 393.030787547183 487.47952005792 L393.027083271921 487.470330170401 A27.04 27.04 0 0 1 387.455505708816 476.253375135489 L387.46 476.26 L382.456327123108 453.688682622558 A237.7 237.7 0 0 1 382.768198683005 403.512987393522 L382.77 403.51 L391.43 401.55 L382.19 360.84 L406.98 355.22 L416.22 395.92 L584.71 357.69 L575.47 316.99 L600.26 311.36 L609.5 352.07 Z M610.87 515.66 L627.009309473394 442.198460746001 A938.17 938.17 0 0 1 414.527007487891 490.417715536886 L414.53 490.41 L460.79 549.71 Z" style="fill:rgb(0,0,0);" />
<path d=" M394.44 298.57 L355.355481704964 275.378489394037 A17.29 17.29 0 0 1 357.626593518335 244.510094891342 L357.63 244.52 L447.104240782076 207.876379709349 A9.43 9.43 0 0 0 449.43454660036 191.797365815969 L449.43 191.8 L363.23 122.57 L403.39 122.57 L475.285190346806 180.316454275886 A22 22 0 0 1 469.670657821601 217.900459219478 L469.67 217.9 L370.62679445465 257.458745692649 A6.29 6.29 0 0 0 369.702612111731 268.680847902084 L369.71 268.68 L419.09 298.57 Z" style="fill:rgb(0,0,0);" />
<path d=" M583.91 298.57 L544.011484793589 275.504499521701 A16.5 16.5 0 0 1 545.812359142915 246.036164036683 L545.82 246.04 L643.350639592867 204.557792311156 A9.43 9.43 0 0 0 646.418414414565 189.303622988225 L646.42 189.3 L581.48 122.57 L625.19 122.57 L676.619728799858 175.801611995948 A23.57 23.57 0 0 1 668.705015270528 213.949552109801 L668.71 213.95 L563.96705112031 257.420403658028 A7.86 7.86 0 0 0 562.986712737859 271.450026354603 L562.99 271.44 L608.98 298.57 Z" style="fill:rgb(0,0,0);" />
</g>
</svg>
