<?xml version="1.0" encoding="UTF-8"?>
<!DOCTYPE svg PUBLIC '-//W3C//DTD SVG 1.0//EN' 'http://www.w3.org/TR/2001/REC-SVG-20010904/DTD/svg10.dtd'>
<svg xmlns:xlink="http://www.w3.org/1999/xlink" xmlns="http://www.w3.org/2000/svg" width="1034.11542730566" height="907.627944162882">
<!--Gegenereerd door de SIMaD-toepassing (http://www.dlw.be).-->
<g style="stroke:none;fill-rule:evenodd;" transform="matrix(1,0,0,-1,0,907.627944162882)">
<path d=" M478.09 885.13 L6.02885800779754 67.5000020405242 A45 45 0 0 1 45.0000023561945 6.3948846218409E-14 L989.119997643806 6.3948846218409E-14 A45 45 0 0 1 1028.0911419922 67.5000020405242 L1028.09 67.5 L556.031144348397 885.129997959476 A45 45 0 0 1 478.088855651603 885.129997959476 Z" style="fill:rgb(255,0,0);" />
<path d=" M876.53 110 L517.06 732.63 L157.58 110 Z" style="fill:rgb(255,255,255);" />
<path d=" M303.47 342.41 L368.03 342.41 L368.03 348.02 L306.61 348.02 L343.51 412.53 L444.01 408.12 L395.33 503.3 L404.99 520.09 L465.995325791989 401.053060304239 A30.59 30.59 0 0 0 476.324414242345 388.670234933721 L476.323881812908 388.672023911787 A104.68 104.68 0 0 0 485.021011921864 349.29335213276 L485.018713307143 349.293932045282 A315.02 315.02 0 0 0 476.62377601068 261.479258723674 L476.623376449369 261.482015041764 A94.41 94.41 0 0 0 469.37612750825 240.766962156042 L469.38 240.76 L449.69 240.76 L449.69 174.63 L812.06 174.63 L812.06 164 L222.06 164 L222.06 174.63 L404.57 174.63 L404.57 240.76 L245.61 240.76 L263.19 271.44 L368.03 271.44 L368.03 277 L266.63 277 L283.78 307.38 L408.56 307.38 L408.56 312.99 L286.86 312.99 Z M448.08 361.37 A23.41 23.41 0 0 1 401.26 361.37 A23.41 23.41 0 0 1 448.08 361.37 Z" style="fill:rgb(0,0,0);" />
<path d=" M573.86348531137 549.197080833653 A11.54 11.54 0 0 0 570.662417818659 535.758636741767 L570.662318925221 535.765543537725 A7.82 7.82 0 0 1 571.749267269261 525.89242927303 L571.741148280081 525.878495299374 A7.82 7.82 0 0 0 574.095175397802 525.818135659059 L574.099185381135 525.823998864707 A1.54 1.54 0 0 1 575.848726473698 526.909920918917 L575.856526254212 526.918051841131 A2.93 2.93 0 0 1 579.0574315973 525.891346319388 L579.056177210812 525.890097892164 A14.24 14.24 0 0 1 591.891065859668 535.221816890274 L591.885472915345 535.221050715928 A152.12 152.12 0 0 1 598.438365338826 547.511498837856 L598.440449154266 547.503662918665 A9.07 9.07 0 0 1 598.017524165582 556.082997793839 L598.015280255814 556.087112827957 A12.08 12.08 0 0 1 595.055457724249 559.409362646292 L595.055987652602 559.41364281681 A6.88 6.88 0 0 1 587.684412122978 558.93026082398 L587.690781315527 558.928189696335 A30.07 30.07 0 0 1 581.560194631235 552.918402761206 L581.560913527241 552.915134876363 A9.45 9.45 0 0 0 573.86265494529 549.201857228509 Z" style="fill:rgb(0,0,0);" />
<path d=" M749.25 259.06 L462.01 180.19 L742.97 276.7 Z" style="fill:rgb(0,0,0);" />
<path d=" M709.088040217616 275.546920020639 A11.46 11.46 0 0 1 716.486039592058 290.010763468368 L716.482861292363 290.010241070553 A80.73 80.73 0 0 1 711.560714310974 294.690810251977 L711.56625090149 294.702361143582 A6.59 6.59 0 0 1 704.617423598872 295.790003681674 L704.615695627495 295.789888951919 A87.05 87.05 0 0 0 695.617225522921 289.629862480542 L695.613543507255 289.622434021945 A12.53 12.53 0 0 1 690.057821731342 282.557005207391 L690.052522810762 282.561267668808 A7.02 7.02 0 0 1 690.415012475619 277.486413258211 L690.417738025329 277.476492914876 A14.73 14.73 0 0 1 699.598853546142 275.362420174841 L699.6 275.37 Z" style="fill:rgb(0,0,0);" />
<path d=" M688.488295743726 333.646327108276 A14.06 14.06 0 0 0 687.461923522408 329.238964145378 L687.463281926285 329.238098554859 A1.23 1.23 0 0 1 688.065694533399 327.792308301479 L688.061491621146 327.787250815488 A4.73 4.73 0 0 1 690.448523534949 327.243370191408 L690.455815637946 327.256522953988 A4.88 4.88 0 0 0 693.99189761469 325.926714307727 L693.986797738034 325.926928378857 A6.76 6.76 0 0 1 699.328494578131 324.116183723188 L699.332439060436 324.111344180902 A22.67 22.67 0 0 1 708.451193880265 327.100604947009 L708.455870688633 327.09407928508 A26.79 26.79 0 0 0 716.819124655182 330.264265838358 L716.818907916966 330.271511852327 A9.98 9.98 0 0 0 717.603833843876 336.973572260034 L717.605291514118 336.971923956319 A3.55 3.55 0 0 1 713.494726989517 341.626533891285 L713.491468279961 341.624199351033 A18.46 18.46 0 0 0 705.276478355736 345.731694371021 L705.272893537109 345.729903785951 A12.33 12.33 0 0 1 694.464374465602 348.356555099642 L694.468236121463 348.359021264455 A6.75 6.75 0 0 1 688.400117140231 343.045643400482 L688.4 343.04 Z" style="fill:rgb(0,0,0);" />
<path d=" M627.61 355.94 L459.47 185.44 L615.05 368.08 Z" style="fill:rgb(0,0,0);" />
<path d=" M615.35 501.61 L457.84 190.69 L598.68 516.1 Z" style="fill:rgb(0,0,0);" />
<path d=" M635.16 300.55 L461.16 182.72 L641.86 286.72 Z" style="fill:rgb(0,0,0);" />
<path d=" M534.239086637352 499.553440127554 A6.54 6.54 0 0 1 538.256736140121 497.740966717914 L538.257852953517 497.737768335379 A14.9 14.9 0 0 1 545.96064588476 499.187705787319 L545.951951954853 499.198503209225 A165.33 165.33 0 0 1 552.534938972506 502.580588331265 L552.537051310663 502.575810957488 A43.38 43.38 0 0 0 553.684582550671 508.192673918508 L553.683337002105 508.195424634461 A8.36 8.36 0 0 1 551.509212654288 516.771137276123 L551.515495731156 516.764678568186 A12.77 12.77 0 0 0 544.447204481077 515.798074693686 L544.444498300844 515.804904437721 A9.77 9.77 0 0 1 536.473444938814 511.21551014084 L536.469231504429 511.209434787478 A16.46 16.46 0 0 1 534.234356988727 499.55184625123 Z" style="fill:rgb(0,0,0);" />
<path d=" M624.53 412.34 L626.825583905086 412.562801422518 A687.91 687.91 0 0 0 632.079999433307 414.102888693703 L632.08426626955 414.095804807019 A6.22 6.22 0 0 0 636.945391125591 413.491938429428 L636.941450738138 413.490532703268 A4.03 4.03 0 0 0 638.721906080292 411.317773694119 L638.728702952694 411.324454568176 A4.34 4.34 0 0 0 640.118799660198 408.242066197453 L640.119206236329 408.237494988022 A2.87 2.87 0 0 0 637.701009292747 405.335658697712 L637.694887784777 405.336393774284 A20.38 20.38 0 0 1 633.135144745553 404.249302707397 L633.138302506164 404.250952966842 A84.77 84.77 0 0 1 626.163013294596 401.352131487439 L626.161482012426 401.360179052065 A8.46 8.46 0 0 0 618.042787367549 401.873256281314 L618.04079108136 401.865088435617 A5.2 5.2 0 0 0 619.278993930886 409.445305329739 L619.28 409.45 L620.304352606417 410.235078311204 A12.57 12.57 0 0 0 624.533326073154 412.349564982103 Z" style="fill:rgb(0,0,0);" />
<path d=" M646.815013422158 368.805470004932 A18.63 18.63 0 0 0 640.957868010484 360.955687548171 L640.958061278146 360.950125839559 A20.71 20.71 0 0 1 634.677300034927 352.555646805358 L634.676052356987 352.557429794395 A5.57 5.57 0 0 1 639.504425580426 347.457460569479 L639.507255522971 347.45304309493 A27.35 27.35 0 0 1 647.812076565628 347.63423920054 L647.809693704505 347.635659921727 A15.56 15.56 0 0 0 653.941544771721 347.484629141572 L653.94 347.48 L656.513271907907 352.067203052862 A22.08 22.08 0 0 1 659.443096895675 362.517918996769 L659.438327379824 362.516230652896 A5.35 5.35 0 0 1 655.996504129471 367.648774050136 L655.997090781264 367.654120209957 A19.13 19.13 0 0 1 647.148043113852 368.801778339914 L647.145700559674 368.798825179252 A1.56 1.56 0 0 0 646.814299440326 368.798825179252 Z" style="fill:rgb(0,0,0);" />
<path d=" M624.837529149254 468.096337441091 A7.62 7.62 0 0 1 616.105635788388 465.135349294385 L616.111075558627 465.128925429031 A20.9 20.9 0 0 1 614.390081641525 462.049252224098 L614.387400123532 462.048177397421 A4.51 4.51 0 0 0 612.907011681867 456.670439633351 L612.904875585157 456.674974129784 A154.16 154.16 0 0 1 609.794572138206 454.319598678697 L609.79 454.32 L609.4 450.85 L610.345447618151 449.852072473276 A5.47 5.47 0 0 1 612.095994582427 443.966612884814 L612.094057156575 443.965910913629 A140.6 140.6 0 0 1 621.213536463062 437.835929741213 L621.207584879015 437.83429805746 A36.02 36.02 0 0 1 638.206890539721 445.141282039004 L638.21 445.14 L640.717902150885 449.849544480389 A43.84 43.84 0 0 1 636.127560439538 461.506596396428 L636.131400043131 461.504736893025 A10.26 10.26 0 0 1 630.635310925836 466.094877326347 L630.626985590369 466.094942203457 A371.3 371.3 0 0 1 624.829025343571 468.087991059964 Z" style="fill:rgb(0,0,0);" />
<path d=" M750.791097440834 247.13725222802 A15.79 15.79 0 0 0 758.97600344041 244.116991777 L758.96781508593 244.115897181995 A27.61 27.61 0 0 1 764.403687900551 241.005369973339 L764.406770660686 241.002952403575 A18.54 18.54 0 0 0 760.178156231876 233.935125455696 L760.183093955888 233.932209202142 A11.91 11.91 0 0 1 757.164425458828 228.287299091264 L757.166542560688 228.287865087406 A8.23 8.23 0 0 1 757.408010826226 223.850886050812 L757.398552838914 223.850760702858 A18.72 18.72 0 0 1 751.360293321295 223.971525962986 L751.362778407354 223.969740240343 A44.67 44.67 0 0 0 746.591186778447 223.54694096975 L746.595013404755 223.541522435582 A10.78 10.78 0 0 0 735.055948026929 228.857950357402 L735.058594562076 228.865529121262 A19.52 19.52 0 0 0 741.610296891825 239.915865794324 L741.613587782886 239.911866072002 A171.52 171.52 0 0 0 750.793431931037 247.128914533871 Z" style="fill:rgb(0,0,0);" />
</g>
</svg>
