<?xml version="1.0" encoding="UTF-8"?>
<!DOCTYPE svg PUBLIC '-//W3C//DTD SVG 1.0//EN' 'http://www.w3.org/TR/2001/REC-SVG-20010904/DTD/svg10.dtd'>
<svg xmlns:xlink="http://www.w3.org/1999/xlink" xmlns="http://www.w3.org/2000/svg" width="1034.11542730566" height="907.627944162882">
<!--Gegenereerd door de SIMaD-toepassing (http://www.dlw.be).-->
<g style="stroke:none;fill-rule:evenodd;" transform="matrix(1,0,0,-1,0,907.627944162882)">
<path d=" M478.09 885.13 L6.02885800779754 67.5000020405242 A45 45 0 0 1 45.0000023561945 6.3948846218409E-14 L989.119997643806 6.3948846218409E-14 A45 45 0 0 1 1028.0911419922 67.5000020405242 L1028.09 67.5 L556.031144348397 885.129997959476 A45 45 0 0 1 478.088855651603 885.129997959476 Z" style="fill:rgb(255,0,0);" />
<path d=" M876.53 110 L517.06 732.63 L157.58 110 Z" style="fill:rgb(255,255,255);" />
<path d=" M578.424038091747 511.74061821357 A165.28 165.28 0 0 1 609.004161935578 573.371777196057 L609 573.37 L876.53 110 L488.482099278166 109.99646355188 A195.88 195.88 0 0 1 544.618551955829 216.41862120486 L544.622292627842 216.424014973107 A246.72 246.72 0 0 0 553.306259744315 251.060675236652 L553.298303285477 251.061211490381 A67.92 67.92 0 0 0 570.666648333105 282.35302484817 L570.66938150205 282.349083183117 A143.32 143.32 0 0 1 596.721995165835 319.217790207304 L596.726155338814 319.21528019175 A18.93 18.93 0 0 1 598.897764162205 338.429105097742 L598.884360143119 338.422663515309 A74.99 74.99 0 0 0 588.958979570241 363.73656945609 L588.970589191217 363.745096198195 A9.28 9.28 0 0 1 587.1092917101 367.77363182312 L587.107432088158 367.772509549014 A7.3 7.3 0 0 0 585.867315306638 374.585909849386 L585.87 374.58 L583.074557451362 385.734171365398 A40.96 40.96 0 0 1 580.28338398147 393.479205182756 L580.284998687185 393.487419732404 A39.18 39.18 0 0 1 580.284998687185 403.712580267596 L580.28267891329 403.703326661082 A68.69 68.69 0 0 1 576.250840475974 419.503753768407 L576.25396994432 419.507228500586 A27.94 27.94 0 0 0 573.773126971288 429.729839068582 L573.766459933074 429.735942258847 A11.42 11.42 0 0 1 572.525980795796 434.382810246347 L572.53450606405 434.382492680392 A105.77 105.77 0 0 0 561.679341737969 469.918733210666 L561.674256925252 469.914286413827 A34.23 34.23 0 0 1 559.193392574042 479.207649395088 L559.18741597093 479.206685539935 A7.5 7.5 0 0 0 559.49774177122 485.716608930968 L559.500650270905 485.713312699004 A122.7 122.7 0 0 0 578.41963491242 511.73803975365 Z" style="fill:rgb(0,0,0);" />
<path d=" M407.59271134984 290.02334051913 A15.07 15.07 0 0 0 401.21773524339 291.587463481722 L401.21382360358 291.582086364349 A7.06 7.06 0 0 0 399.199482630138 297.730485428937 L399.200537029413 297.740149402254 A59.92 59.92 0 0 1 399.87164059826 303.997126912913 L399.873286529537 303.993682109339 A68.87 68.87 0 0 1 401.215552300895 313.044367785299 L401.206207486975 313.046225071325 A11.11 11.11 0 0 0 405.122722312584 320.647380543745 L405.13176657537 320.644011562196 A13.88 13.88 0 0 1 408.151975504868 324.219720032489 L408.153484860537 324.219851096281 A6.9 6.9 0 0 0 412.178414587159 327.34702870834 L412.177853823367 327.345955284102 A1313.84 1313.84 0 0 1 417.882524538806 330.921559423757 L417.88100278328 330.922981279393 A4.33 4.33 0 0 0 424.037887711887 329.245613294855 L424.032352506329 329.249373496633 A133.98 133.98 0 0 0 428.283021967654 320.198348067151 L428.279678599782 320.187658192584 A25.26 25.26 0 0 0 431.299213125812 308.010620299844 L431.304932425872 308.012645395108 A18.82 18.82 0 0 0 430.186184976779 298.401607454783 L430.181469689395 298.409853139926 A9.29 9.29 0 0 0 422.689547625173 292.601397055006 L422.689286912638 292.590456367069 A10.35 10.35 0 0 1 418.551069453597 291.138032191666 L418.557572157 291.142787085502 A4.14 4.14 0 0 0 414.415905264648 291.030968538765 L414.413804262284 291.032574728754 A2.21 2.21 0 0 1 411.84360952072 290.697687753996 L411.839085080817 290.700297433736 A132.47 132.47 0 0 1 407.588390971543 290.029846951771 L407.59 290.02 Z" style="fill:rgb(0,0,0);" />
<path d=" M440.741893547597 224.460954096769 A8.89 8.89 0 0 0 435.013629017163 229.015347753897 L435.004858587905 229.013272376573 A5.65 5.65 0 0 1 431.265005506892 231.931932464803 L431.261611008483 231.939996850008 A18.73 18.73 0 0 1 418.515582745872 231.823184644074 L418.521030695334 231.823332422776 A19.79 19.79 0 0 1 412.323750744309 222.595678959092 L412.324661774195 222.593489487062 A12.54 12.54 0 0 0 408.932277574033 217.218176887474 L408.925205588718 217.22552401417 A6.29 6.29 0 0 1 408.223134237222 208.809603090152 L408.228328095413 208.806156519076 A9.92 9.92 0 0 0 412.204948819728 202.497047380036 L412.202517283614 202.498258434104 A3.36 3.36 0 0 1 414.775393646143 199.811287828297 L414.772812832395 199.817701332012 A17.82 17.82 0 0 1 427.284783270145 197.948738703568 L427.291906366825 197.942008783122 A52.21 52.21 0 0 0 434.308093633175 197.942008783122 L434.309071101662 197.946938455561 A11.92 11.92 0 0 1 441.909271265533 200.049376411193 L441.906947030967 200.046862162156 A17 17 0 0 1 449.156440166432 212.661606257234 L449.162356729698 212.665822847955 A5.6 5.6 0 0 1 448.928311143871 214.76999033381 L448.918767113444 214.771187611838 A5.09 5.09 0 0 0 448.801828909162 217.341090283787 L448.80269252031 217.337692238905 A6.99 6.99 0 0 1 446.580669677715 221.543374583481 L446.580169064074 221.535735698088 A12.06 12.06 0 0 1 440.734426920984 224.45550424083 Z" style="fill:rgb(0,0,0);" />
<path d=" M406.070024755654 144.200182729548 A13.89 13.89 0 0 0 395.794630500013 146.587273755465 L395.793121530189 146.580049538572 A36.52 36.52 0 0 1 386.83265008794 151.234550597401 L386.829208719229 151.232529335227 A11.11 11.11 0 0 1 382.169626197303 151.829276834335 L382.17310696887 151.831686701114 A12.97 12.97 0 0 0 377.035640172317 151.115591242893 L377.027939833458 151.11698266727 A12.94 12.94 0 0 1 366.874544585947 141.570985407411 L366.874589610362 141.571740427992 A30.98 30.98 0 0 1 366.157606163726 130.231577219856 L366.154794041018 130.228947277695 A11.37 11.37 0 0 0 369.738748043761 123.426660797748 L369.749829720596 123.425656284158 A18.72 18.72 0 0 1 377.633738376147 117.936642240913 L377.631391235935 117.941139058774 A13.81 13.81 0 0 1 387.068608764065 117.941139058774 L387.065081025217 117.937061273587 A18.16 18.16 0 0 0 399.136136379195 118.056449429149 L399.133557003186 118.055938480446 A15.22 15.22 0 0 1 413.235286077343 120.324147344444 L413.232659535106 120.328145606655 A35.01 35.01 0 0 0 416.937129714101 128.326080942014 L416.940622616549 128.327509654375 A7.46 7.46 0 0 1 417.179466079633 135.843168269326 L417.179577304545 135.841907722786 A14.63 14.63 0 0 1 412.401260272048 143.001781543667 L412.393739359967 143.002879386176 A6.75 6.75 0 0 1 406.063707100852 144.195957800587 Z" style="fill:rgb(0,0,0);" />
<path d=" M521.869733681057 222.16260514258 A28.02 28.02 0 0 1 529.328625737944 231.585899893116 L529.328214090541 231.590570404474 A8.3 8.3 0 0 1 534.593185139125 241.89019948946 L534.596276076326 241.88472057117 A5.12 5.12 0 0 0 535.25419094477 246.266164398575 L535.253044356706 246.272176181483 A11.51 11.51 0 0 0 536.569544724344 252.190142491626 L536.561126703652 252.188689497964 A27.7 27.7 0 0 1 533.490046743471 270.59561553056 L533.493887143979 270.597609530168 A108.07 108.07 0 0 0 523.401854480893 295.581760594527 L523.405715096917 295.578314580381 A10.93 10.93 0 0 1 513.532022396827 303.688070636106 L513.53229646847 303.699614153771 A45.05 45.05 0 0 1 507.82770353153 303.699614153771 L507.831260723689 303.692798022954 A9.29 9.29 0 0 0 498.182106997881 304.788128680705 L498.172186647578 304.784383437275 A6.21 6.21 0 0 1 494.224928760381 306.098740386344 L494.231083148531 306.09942717394 A9.91 9.91 0 0 1 480.406516653722 307.63386035595 L480.402626938956 307.635903201912 A24.07 24.07 0 0 1 472.504654931096 296.458980734198 L472.501879184424 296.463537347179 A15.52 15.52 0 0 1 471.843730342392 289.231582289072 L471.843242865984 289.229413490872 A5.38 5.38 0 0 0 470.308512833887 284.630108573863 L470.318939681823 284.622448391517 A49.96 49.96 0 0 1 459.130920755169 267.74865828458 L459.118693859102 267.749325390606 A6.66 6.66 0 0 1 460.875116457336 260.292449836128 L460.876520581759 260.29452372142 A271.84 271.84 0 0 1 468.555329924723 246.049010047119 L468.552996804399 246.055499567748 A7.96 7.96 0 0 1 476.674230888203 240.354742266804 L476.676038462208 240.352736819318 A20.12 20.12 0 0 0 494.230086495596 232.023411208936 L494.228146720999 232.022182279412 A18.16 18.16 0 0 1 506.294266198054 227.420006815875 L506.29231798312 227.419990332056 A25.76 25.76 0 0 0 521.868411680036 222.160418363051 Z" style="fill:rgb(0,0,0);" />
<path d=" M468.903480809071 175.581973988277 A12.25 12.25 0 0 0 469.391759576606 164.973132684013 L469.393843855172 164.976524236044 A9.44 9.44 0 0 1 470.370221034243 155.832715511452 L470.370777172769 155.833733423782 A21.95 21.95 0 0 1 486.476124151452 156.19937644468 L486.478499146033 156.195594414813 A5.89 5.89 0 0 1 491.23592112781 157.170439311807 L491.232149989352 157.167077363904 A17.49 17.49 0 0 1 498.188697979651 168.261361884227 L498.186314747322 168.270589115425 A49.17 49.17 0 0 0 498.552395951328 176.437714182087 L498.558769699937 176.430763606218 A6.26 6.26 0 0 1 495.874161777603 182.403768816374 L495.8686873329 182.409099234529 A18.59 18.59 0 0 1 488.302848883317 185.57850471981 L488.302975366157 185.573164392789 A12.03 12.03 0 0 0 482.689404679512 188.620780329242 L482.692139460067 188.625925353427 A7.46 7.46 0 0 1 473.415641499871 189.479433465606 L473.422321991538 189.475156391323 A14.7 14.7 0 0 1 467.809228154517 182.52718038347 L467.805142829987 182.533127721678 A6.99 6.99 0 0 1 468.904007120532 175.581049770641 Z" style="fill:rgb(0,0,0);" />
<path d=" M481.176946031926 349.069836440113 A13.46 13.46 0 0 1 496.440553960854 352.040111849333 L496.443936062993 352.046653582791 A517.64 517.64 0 0 0 512.70387929838 378.985748673786 L512.706514673859 378.977552704491 A14.4 14.4 0 0 1 514.888251238903 384.921433287579 L514.88922833096 384.921541524435 A548.71 548.71 0 0 0 516.277262740707 394.825553328743 L516.274844178177 394.822816602463 A25.96 25.96 0 0 1 511.515771159539 414.036999603362 L511.509708807618 414.044282824726 A36.49 36.49 0 0 1 501.793701006672 423.155754908219 L501.79809861222 423.155463856701 A162.91 162.91 0 0 1 496.642382303664 426.324845170766 L496.643452934965 426.324393780471 A4.3 4.3 0 0 1 492.276547065035 426.324393780471 L492.271486756297 426.32962615225 A4.69 4.69 0 0 0 486.327900261528 427.319172988651 L486.325046804724 427.305610108496 A27.99 27.99 0 0 1 455.989389753062 418.590887379539 L455.985090100668 418.600654402223 A63.13 63.13 0 0 1 441.509586174824 393.443962335516 L441.518433002836 393.44067064842 A15.03 15.03 0 0 1 444.492837265078 379.376760177604 L444.485399376482 379.381332559975 A91.63 91.63 0 0 0 453.804952251264 366.308188531584 L453.806746454182 366.304633435838 A64.32 64.32 0 0 1 464.911734385256 357.984730614399 L464.912348776401 357.987534765836 A108.76 108.76 0 0 0 474.4306274466 351.648748023482 L474.428065900067 351.63904598478 A13.28 13.28 0 0 1 481.171913731455 349.063252439904 Z" style="fill:rgb(0,0,0);" />
<path d=" M544.441675342113 442.787785007637 A11.63 11.63 0 0 0 550.817930812388 447.14585691404 L550.819275378109 447.152922932403 A12.08 12.08 0 0 1 555.740936907885 458.661859416614 L555.734967579048 458.65840345669 A28.86 28.86 0 0 1 551.819839738755 474.861010279769 L551.822224519864 474.85678679818 A7.49 7.49 0 0 1 543.989678197187 478.433580525582 L543.994164625469 478.434693643559 A578.53 578.53 0 0 0 539.072509322563 477.540796605517 L539.074053273325 477.537141500688 A3.05 3.05 0 0 1 534.60272306411 474.968853699959 L534.597593261423 474.96993038759 A30.94 30.94 0 0 1 520.953116478822 466.143948717658 L520.948157189758 466.144420448391 A17.13 17.13 0 0 1 520.053272130931 453.629317626076 L520.056668529631 453.624347064613 A24.64 24.64 0 0 1 522.965414078825 447.477759659594 L522.959139429655 447.482947383231 A24.21 24.21 0 0 1 536.047361846248 440.778160747142 L536.053514515062 440.780051260056 A11.07 11.07 0 0 1 544.440438842835 442.790778181425 Z" style="fill:rgb(0,0,0);" />
</g>
</svg>
