<?xml version="1.0" encoding="UTF-8"?>
<!DOCTYPE svg PUBLIC '-//W3C//DTD SVG 1.0//EN' 'http://www.w3.org/TR/2001/REC-SVG-20010904/DTD/svg10.dtd'>
<svg xmlns:xlink="http://www.w3.org/1999/xlink" xmlns="http://www.w3.org/2000/svg" width="1034.49995468755" height="905.766101466145">
<!--Gegenereerd door de SIMaD-toepassing (http://www.dlw.be).-->
<g style="stroke:none;fill-rule:evenodd;" transform="matrix(1,0,0,-1,0,905.766101466145)">
<path d=" M478.31 883.31 L6.05507704654133 67.5453537596811 A45 45 0 0 1 45.0000015707963 2.8421709430404E-14 L989.500001570796 2.8421709430404E-14 A45 45 0 0 1 1028.44492177299 67.5453557988325 L1028.44 67.55 L556.194922559968 883.315354439398 A45 45 0 0 1 478.305077440032 883.315354439398 Z" style="fill:rgb(255,0,0);" />
<path d=" M876.77 110 L517.25 731.03 L157.73 110 Z" style="fill:rgb(255,255,255);" />
<path d=" M529.383820698778 281.683177585681 A85.56 85.56 0 0 0 401.13 355.830005973215 L401.14 355.83 L401.14 465.83 L437.81 490.27 L474.47 465.83 L474.470000000004 355.830010024124 A12.22 12.22 0 0 1 492.787680459328 345.240066430051 L492.79 345.24 L572.336178007116 391.046821669172 A85.56 85.56 0 0 0 700.59 316.899995520089 L700.58 316.9 L700.58 158.89 L663.92 183.33 L627.25 158.89 L627.25 316.899999360162 A12.22 12.22 0 0 1 608.932308266093 327.489927078042 L608.93 327.49 Z" style="fill:rgb(0,0,0);" />
</g>
</svg>
