<?xml version="1.0" encoding="UTF-8"?>
<!DOCTYPE svg PUBLIC '-//W3C//DTD SVG 1.0//EN' 'http://www.w3.org/TR/2001/REC-SVG-20010904/DTD/svg10.dtd'>
<svg xmlns:xlink="http://www.w3.org/1999/xlink" xmlns="http://www.w3.org/2000/svg" width="1034.4999553581" height="905.766101466146">
<!--Gegenereerd door de SIMaD-toepassing (http://www.dlw.be).-->
<g style="stroke:none;fill-rule:evenodd;" transform="matrix(1,0,0,-1,0,905.766101466146)">
<path d=" M478.31 883.31 L6.05507704654133 67.5453537596811 A45 45 0 0 1 45.0000015707963 2.8421709430404E-14 L989.500001570796 2.8421709430404E-14 A45 45 0 0 1 1028.44492177299 67.5453557988325 L1028.44 67.55 L556.194922559968 883.315354439398 A45 45 0 0 1 478.305077440032 883.315354439398 Z" style="fill:rgb(255,0,0);" />
<path d=" M876.77 110 L517.25 731.03 L157.73 110 Z" style="fill:rgb(255,255,255);" />
<path d=" M505.116179301222 281.683177585681 A85.56 85.56 0 0 1 633.37 355.830005973215 L633.36 355.83 L633.36 465.83 L596.69 490.27 L560.03 465.83 L560.029999999996 355.830010024124 A12.22 12.22 0 0 0 541.712319540672 345.240066430051 L541.71 345.24 L462.163821992884 391.046821669172 A85.56 85.56 0 0 1 333.91 316.899995520089 L333.92 316.9 L333.92 158.89 L370.58 183.33 L407.25 158.89 L407.25 316.899999360162 A12.22 12.22 0 0 0 425.567691733907 327.489927078042 L425.57 327.49 Z" style="fill:rgb(0,0,0);" />
</g>
</svg>
