<?xml version="1.0" encoding="UTF-8"?>
<!DOCTYPE svg PUBLIC '-//W3C//DTD SVG 1.0//EN' 'http://www.w3.org/TR/2001/REC-SVG-20010904/DTD/svg10.dtd'>
<svg xmlns:xlink="http://www.w3.org/1999/xlink" xmlns="http://www.w3.org/2000/svg" width="1034.11542730567" height="907.627944162883">
<!--Gegenereerd door de SIMaD-toepassing (http://www.dlw.be).-->
<g style="stroke:none;fill-rule:evenodd;" transform="matrix(1,0,0,-1,0,907.627944162883)">
<path d=" M478.09 885.13 L6.02885800779754 67.5000020405242 A45 45 0 0 1 45.0000023561945 6.3948846218409E-14 L989.119997643806 6.3948846218409E-14 A45 45 0 0 1 1028.0911419922 67.5000020405242 L1028.09 67.5 L556.031144348397 885.129997959476 A45 45 0 0 1 478.088855651603 885.129997959476 Z" style="fill:rgb(255,0,0);" />
<path d=" M876.53 110 L517.06 732.63 L157.58 110 Z" style="fill:rgb(255,255,255);" />
<path d=" M434.96 197.33 L421 199.74 L412.33 186.74 L459.52 165.07 L500.47 242 L503.81 242 L510.18 253 L506.32 253 L535.13 307.13 L604 191.07 L594.37 174.7 L601.11 166.51 L640.6 185.29 L614.68 244.35 L619.69 253 L610.89 253 L569.8 346.62 L572.21 433.79 L600.14 402.01 L613.63 339.4 L634.34 343.73 L620.85 425.6 L576.07 478.58 L542.84 487.25 L542.83560927898 545.038608943185 A12.02 12.02 0 0 1 531.758460628579 556.115620521538 L531.76 556.11 L511.053402371908 556.109299499557 A11.44 11.44 0 0 1 499.740700648491 544.796611004873 L499.73 544.79 L499.491677555634 506.50708813486 A15.57 15.57 0 0 1 513.937506334172 491.579795305808 L513.94 491.58 L513.94 480.98 L487.45 473.76 L458.08 413.56 L402.21 376.96 L415.7 362.52 L477.82 394.3 L495.16 420.79 L502.38 346.62 Z" style="fill:rgb(0,0,0);" />
<path d=" M202.07 143 L195.7 132 L221.12 132 L227.49 143 Z" style="fill:rgb(0,0,0);" />
<path d=" M475.84 143 L469.47 132 L494.89 132 L501.26 143 Z" style="fill:rgb(0,0,0);" />
<path d=" M256.82 143 L250.45 132 L275.87 132 L282.24 143 Z" style="fill:rgb(0,0,0);" />
<path d=" M311.57 143 L305.21 132 L330.63 132 L337 143 Z" style="fill:rgb(0,0,0);" />
<path d=" M265.75 253 L259.38 242 L284.8 242 L291.17 253 Z" style="fill:rgb(0,0,0);" />
<path d=" M320.5 253 L314.13 242 L339.55 242 L345.92 253 Z" style="fill:rgb(0,0,0);" />
<path d=" M421.08 143 L414.71 132 L440.13 132 L446.5 143 Z" style="fill:rgb(0,0,0);" />
<path d=" M366.33 143 L359.96 132 L385.38 132 L391.75 143 Z" style="fill:rgb(0,0,0);" />
<path d=" M375.25 253 L368.89 242 L394.31 242 L400.67 253 Z" style="fill:rgb(0,0,0);" />
<path d=" M640.1 143 L633.73 132 L659.15 132 L665.52 143 Z" style="fill:rgb(0,0,0);" />
<path d=" M649.02 253 L642.66 242 L668.08 242 L674.44 253 Z" style="fill:rgb(0,0,0);" />
<path d=" M585.34 143 L578.98 132 L604.4 132 L610.76 143 Z" style="fill:rgb(0,0,0);" />
<path d=" M530.59 143 L524.22 132 L549.64 132 L556.01 143 Z" style="fill:rgb(0,0,0);" />
<path d=" M694.85 143 L688.48 132 L713.9 132 L720.27 143 Z" style="fill:rgb(0,0,0);" />
<path d=" M703.78 253 L697.41 242 L722.83 242 L729.2 253 Z" style="fill:rgb(0,0,0);" />
<path d=" M749.61 143 L743.24 132 L768.66 132 L775.03 143 Z" style="fill:rgb(0,0,0);" />
<path d=" M758.53 253 L752.16 242 L777.58 242 L783.95 253 Z" style="fill:rgb(0,0,0);" />
<path d=" M804.36 143 L797.99 132 L823.41 132 L829.78 143 Z" style="fill:rgb(0,0,0);" />
<path d=" M430.01 253 L423.64 242 L449.06 242 L455.43 253 Z" style="fill:rgb(0,0,0);" />
<path d=" M539.52 253 L533.15 242 L558.57 242 L564.94 253 Z" style="fill:rgb(0,0,0);" />
</g>
</svg>
