<?xml version="1.0" encoding="UTF-8"?>
<!DOCTYPE svg PUBLIC '-//W3C//DTD SVG 1.0//EN' 'http://www.w3.org/TR/2001/REC-SVG-20010904/DTD/svg10.dtd'>
<svg xmlns:xlink="http://www.w3.org/1999/xlink" xmlns="http://www.w3.org/2000/svg" width="1034.11542730566" height="907.627944162883">
<!--Gegenereerd door de SIMaD-toepassing (http://www.dlw.be).-->
<g style="stroke:none;fill-rule:evenodd;" transform="matrix(1,0,0,-1,0,907.627944162883)">
<path d=" M478.09 885.13 L6.02885800779754 67.5000020405242 A45 45 0 0 1 45.0000023561945 6.3948846218409E-14 L989.119997643806 6.3948846218409E-14 A45 45 0 0 1 1028.0911419922 67.5000020405242 L1028.09 67.5 L556.031144348397 885.129997959476 A45 45 0 0 1 478.088855651603 885.129997959476 Z" style="fill:rgb(255,0,0);" />
<path d=" M876.53 110 L517.06 732.63 L157.58 110 Z" style="fill:rgb(255,255,255);" />
<path d=" M386.65 312.28 L354.613851088395 295.473881703199 A3.73 3.73 0 1 1 347.696194617494 292.767085874416 L347.695709755232 292.765021184429 A13.42 13.42 0 0 0 343.889530374666 280.313771253969 L343.895899710112 280.31468160903 A2.55 2.55 0 0 0 339.392485750918 280.032998984536 L339.394636106146 280.037779188463 A21.56 21.56 0 0 0 332.185723753324 293.999166914299 L332.182157674763 293.997512237597 A12.65 12.65 0 0 0 334.465359300499 302.587361927436 L334.462490885438 302.587143418992 A19.02 19.02 0 0 0 343.66923486146 309.374592879744 L343.67 309.37 L343.6 311.05 L390.224525941794 344.425498736589 A51.3 51.3 0 0 0 403.684967778937 373.97723958877 L403.683570287725 373.980409918458 A17.68 17.68 0 0 0 399.250309004172 385.794528905255 L399.246469807705 385.80082364559 A7.75 7.75 0 0 0 392.259367700516 385.666544512373 L392.260674328222 385.666104914397 A4.88 4.88 0 0 0 390.525753197711 390.316511916258 L390.522908093497 390.312916173083 A38.2 38.2 0 0 0 390.261062246322 403.853321498494 L390.268706960323 403.852066784712 A71.63 71.63 0 0 0 387.544103418869 430.168525138144 L387.534716468387 430.16337549192 A9.46 9.46 0 0 0 387.985551691269 443.56536540524 L387.990322364707 443.559467470975 A23.93 23.93 0 0 0 403.750924326565 448.533732525573 L403.75395213996 448.543749566604 A46.01 46.01 0 0 0 427.857631760504 442.827014583093 L427.851779824995 442.818368216795 A21.76 21.76 0 0 0 439.343415006422 423.094709837223 L439.357225421353 423.093091239539 A4.64 4.64 0 0 1 440.548190935976 418.360584109233 L440.542595581486 418.36248822749 A24.85 24.85 0 0 1 445.859766214627 414.936957370564 L445.857539207764 414.941369533722 A30.2 30.2 0 0 1 447.167852595249 422.136025959841 L447.165988992963 422.135663714913 A5.46 5.46 0 0 0 457.516698054282 424.295356736632 L457.515245276552 424.289215311536 A11.93 11.93 0 0 0 457.742559510894 417.701592442942 L457.745435228274 417.697104540678 A10.54 10.54 0 0 0 455.130703720245 411.562268265073 L455.130523484334 411.567587348753 A104.16 104.16 0 0 0 474.910903468703 392.822871100684 L474.91 392.82 L473.315305326658 390.213359861483 A39.99 39.99 0 0 1 458.53643837512 396.007345432298 L458.54 396 L458.423478382564 392.597081406367 A6.14 6.14 0 0 0 446.15233642494 392.710631055431 L446.143124683551 392.709385141222 A15.26 15.26 0 0 0 446.825272654722 399.071842326193 L446.83 399.07 L444.44629380246 399.864244920099 A5.54 5.54 0 0 1 437.167374842857 396.568184641201 L437.160246425967 396.573084943877 A19.64 19.64 0 0 1 435.371517555912 383.609000980951 L435.387509781895 383.616426035153 A60.22 60.22 0 0 0 442.76633251432 374.662417695061 L442.756893063895 374.648551343477 A3.67 3.67 0 0 0 446.091771648109 372.719123921542 L446.1 372.72 L464.65330258346 345.836292387406 A6.36 6.36 0 0 1 475.432619829499 344.638347779681 L475.43 344.64 L479.12 351.48 L478.25 353.76 L494.410379043819 377.282738308856 A127.02 127.02 0 0 1 516.5968517333 418.279117606431 L516.595290580564 418.286673410854 A87.89 87.89 0 0 0 539.067491007919 449.958435101813 L539.067141553865 449.949487848245 A24.74 24.74 0 0 0 546.865611358786 456.729055791631 L546.862537093433 456.736424468874 A8.39 8.39 0 0 1 545.002681524485 467.330536538739 L545.005489266506 467.329966593108 A17.96 17.96 0 0 1 540.91267308931 468.073612867136 L540.91382062237 468.08146323015 A2.3 2.3 0 0 0 538.315369280357 471.234619765174 L538.307981434436 471.232262618548 A11.23 11.23 0 0 0 540.327272922797 476.904551293447 L540.33396805326 476.910163598105 A5.41 5.41 0 0 1 538.738573541109 477.879128715685 L538.73 477.88 L539.3 484.24 L537.367055625012 485.021020522263 A2.34 2.34 0 0 0 535.342513238032 487.448423418246 L535.3531548111 487.456616069096 A22.22 22.22 0 0 0 536.852739367764 496.779602180992 L536.843045547036 496.782983298454 A20.44 20.44 0 0 1 537.85554720591 503.576626763113 L537.859683571174 503.574124153095 A66.74 66.74 0 0 1 539.740415968841 516.730474113918 L539.745956031901 516.728431470154 A22.49 22.49 0 0 0 536.950361663774 533.947372864607 L536.95131556378 533.943407620407 A14.67 14.67 0 0 0 548.546347381793 542.122084839971 L548.545368168979 542.126970981021 A49.95 49.95 0 0 0 564.828916370335 542.035397298583 L564.827667859609 542.040226498428 A167.17 167.17 0 0 0 591.622109764782 533.108735379107 L591.620775437086 533.109006550155 A17.52 17.52 0 0 0 603.883892716282 510.230210445138 L603.889489776057 510.224693153674 A97.47 97.47 0 0 0 589.930683067402 485.489681165899 L589.92 485.49 L586.70963066583 480.409534739574 A9.91 9.91 0 0 1 586.243257799379 473.551794730381 L586.241215804284 473.546687038614 A84.18 84.18 0 0 0 590.280237013789 458.079605955983 L590.280082298125 458.087227287331 A42.84 42.84 0 0 0 609.536127295355 442.311614114644 L609.533050312151 442.308930595763 A159.13 159.13 0 0 0 636.304049568496 395.981862697868 L636.312231211216 395.976074729982 A45.32 45.32 0 0 0 639.409403634011 376.801389558206 L639.405593648036 376.807786568586 A73.62 73.62 0 0 1 653.248729103451 376.361279345913 L653.250783814905 376.356057383556 A70.93 70.93 0 0 0 664.423448971862 331.330697262655 L664.414781843906 331.339191649491 A37.9 37.9 0 0 0 661.622037722308 318.800298447868 L661.628106060359 318.801254094648 A10.94 10.94 0 0 0 652.789249698534 314.041637025971 L652.787680202124 314.034284721711 A112.71 112.71 0 0 0 619.756755368347 314.285455211897 L619.754942369335 314.282266827349 A16.15 16.15 0 0 1 622.109710973513 303.317568409826 L622.115449501379 303.324668476395 A27.3 27.3 0 0 0 625.594366036791 282.633177876637 L625.587332099445 282.63582812483 A23.34 23.34 0 0 0 609.03345691483 270.523550288434 L609.04 270.52 L629.13 227.65 L633.25 222.73 L642.805019492165 211.857126837957 A43.85 43.85 0 0 0 650.971034293182 199.328034402999 L650.97 199.33 L642.81 190.04 L641.47 190.57 L625.56 171.16 L737.04 171.16 L737.04 158.71 L297.08 158.71 L297.08 171.16 L353 171.16 L344.63 174.42 L345.471714096544 177.856476635374 A5.74 5.74 0 0 0 351.049483952914 181.758304995979 L351.052913131012 181.757686188537 A61.35 61.35 0 0 1 365.462993529436 183.922052931731 L365.463057810971 183.932469930369 A12.1 12.1 0 0 1 375.974870360705 194.425705569362 L375.97537928133 194.41815860345 A238.27 238.27 0 0 1 375.60678364329 228.919336458218 L375.608276216789 228.919322920254 A163.23 163.23 0 0 0 375.911471811473 244.646029995729 L375.91566658627 244.646241153488 A18.11 18.11 0 0 0 379.95535141236 257.794429559942 L379.95 257.8 L362.15 257.92 L362.358812052987 261.737564428986 A117.72 117.72 0 0 1 386.653357978154 312.281214422052 Z M569.38 268.46 L560.35 279.64 L553.48 270.23 L545.82 271.01 L524.06 205.47 L525.121912835328 205.182461606267 A200.47 200.47 0 0 1 518.807227432766 187.987251718709 L518.804239654034 187.99460239043 A41.67 41.67 0 0 0 519.746543692682 171.169304604762 L519.75 171.16 L599.658104525227 171.157817851841 A3.72 3.72 0 0 0 602.56280938324 178.000651020036 L602.567275596324 178.002938919455 A13.12 13.12 0 0 0 610.976320143319 183.056682656032 L610.973510282297 183.051927503306 A33.54 33.54 0 0 0 620.201340994624 201.970416152655 L620.199933776407 201.973734366501 A9.93 9.93 0 0 1 618.708174062035 207.244703286606 L618.711325340709 207.245017438851 A252.08 252.08 0 0 1 594.739993816593 241.803084745529 L594.739962296972 241.808973506143 A366.38 366.38 0 0 0 570.758757855091 269.248869750372 L570.76 269.24 Z M408.014972550205 256.957805600419 A52.84 52.84 0 0 1 423.053899474152 218.763890201451 L423.048978311919 218.756076108503 A36.99 36.99 0 0 0 429.827327564151 201.376116708837 L429.830472743224 201.380431552365 A16.24 16.24 0 0 0 421.479509781741 182.028255784241 L421.482008041907 182.014123514861 A14.35 14.35 0 0 1 412.720775161162 171.16047361887 L412.72 171.16 L394.229483651015 171.165328503779 A24.2 24.2 0 0 1 395.347779404428 184.626967872045 L395.35 184.63 L397.985000579292 237.856336995357 A30.95 30.95 0 0 0 405.021220543944 256.95382316298 L405.02 256.95 Z M453.97 237.81 L439.53799295484 255.890916709785 A8.37 8.37 0 0 1 435.645108572145 244.684906686182 L435.640675860627 244.689391411808 A57.4 57.4 0 0 1 441.271663011776 227.009545593683 L441.273966967762 227.00990572569 A91.63 91.63 0 0 0 449.963849905686 196.765377726652 L449.965843894384 196.759802833311 A16.68 16.68 0 0 0 454.459995501026 185.382250949422 L454.46 185.38 L449.37 179.99 L447.27 181.19 L438.45 171.16 L470.83 171.16 L461.32 176.69 L462.96796484195 181.400924927632 A5.55 5.55 0 0 0 469.092942360397 184.696779982234 L469.101923996265 184.693683134595 A27.5 27.5 0 0 1 499.494573471626 207.531787548365 L499.481202066486 207.534029709553 A2.76 2.76 0 0 0 501.839676566539 208.476793503243 L501.84 208.47 L518.147769083908 278.336700480349 A3.44 3.44 0 0 0 514.281339047607 281.654026803301 L514.28590405608 281.659237826751 A45.1 45.1 0 0 0 519.619772792192 301.202892166151 L519.620738884218 301.203314588428 A271.72 271.72 0 0 1 532.837537961118 340.087549743487 L532.838986940778 340.082239729271 A38.07 38.07 0 0 1 531.987433007506 361.065426323434 L531.98 361.07 L526.42 371.45 L501.33 341.93 L499.84 342.31 L478.632124754187 325.395686787939 A133.27 133.27 0 0 0 486.676924325947 292.63263155937 L486.68 292.63 L491.328712661541 294.634662949539 A31.14 31.14 0 0 0 506.086621183248 268.608717005236 L506.092929502829 268.612521086358 A7.21 7.21 0 0 0 501.16126743494 260.933940954617 L501.16 260.93 L463.460027796202 237.475374629737 A6.53 6.53 0 0 0 453.963941630899 237.810534687578 Z M447.075138230042 307.760072583733 A27.11 27.11 0 0 0 448.235997232433 322.558250014176 L448.236392751355 322.564366176725 A37.71 37.71 0 0 0 463.690169301359 286.208638892748 L463.69 286.2 L457.368527409135 284.095174655747 A54.53 54.53 0 0 0 447.201083147561 302.309989510015 L447.202810112518 302.31334386821 A12.23 12.23 0 0 0 447.078835385664 307.764504936681 Z M593.184881647551 377.248959735826 A73.24 73.24 0 0 0 609.707606818724 376.802366610319 L609.705208709056 376.808011350333 A41.79 41.79 0 0 1 599.211967988626 399.803944071286 L599.215017626542 399.803630432666 A27.39 27.39 0 0 1 593.187247623633 377.255449832214 Z" style="fill:rgb(0,0,0);" />
</g>
</svg>
