<?xml version="1.0" encoding="UTF-8"?>
<!DOCTYPE svg PUBLIC '-//W3C//DTD SVG 1.0//EN' 'http://www.w3.org/TR/2001/REC-SVG-20010904/DTD/svg10.dtd'>
<svg xmlns:xlink="http://www.w3.org/1999/xlink" xmlns="http://www.w3.org/2000/svg" width="1034.11542730566" height="907.627944162884">
<!--Gegenereerd door de SIMaD-toepassing (http://www.dlw.be).-->
<g style="stroke:none;fill-rule:evenodd;" transform="matrix(1,0,0,-1,0,907.627944162884)">
<path d=" M478.09 885.13 L6.02885800779754 67.5000020405242 A45 45 0 0 1 45.0000023561945 6.3948846218409E-14 L989.119997643806 6.3948846218409E-14 A45 45 0 0 1 1028.0911419922 67.5000020405242 L1028.09 67.5 L556.031144348397 885.129997959476 A45 45 0 0 1 478.088855651603 885.129997959476 Z" style="fill:rgb(255,0,0);" />
<path d=" M876.53 110 L517.06 732.63 L157.58 110 Z" style="fill:rgb(255,255,255);" />
<path d=" M445.27 279.59 L451.51 299.82 L508.37 241.65 L508.37 203.29 L521.24911541479 203.292789602468 A5.59 5.59 0 0 0 516.77833541028 196.981099731335 L516.78 196.98 L506.670583508495 195.039694143041 A2.54 2.54 0 0 1 504.233322012429 193.063618794825 L504.23 193.06 L503.83 189.63 L517.823130432009 189.625597132044 A10.8 10.8 0 0 1 522.288424596186 190.938905283962 L522.29 190.94 L522.29 188.05 L529.13 188.05 L529.13 189.1 L536.749289080186 189.094765976392 A13.68 13.68 0 0 1 536.761601651591 194.645810112168 L536.757423978582 194.646140451358 A9.02 9.02 0 0 0 535.343736679913 201.706279379023 L535.34 201.71 L535.963275275268 203.81072141531 A18.5 18.5 0 0 1 547.849532886355 219.111317206278 L547.84 219.11 L554.977670395661 219.191567462584 A69.32 69.32 0 0 1 555.210360504775 215.14761774047 L555.21 215.15 L557.820557095854 215.147505707737 A66.72 66.72 0 0 0 557.577893853138 219.2209127299 L557.58 219.22 L560.728208719733 219.256415860083 A63.57 63.57 0 1 1 679.850602241805 252.003550110778 L679.85 252 L682.56890614541 253.596817135871 A66.72 66.72 0 0 0 686.377129178778 245.527508182146 L686.38 245.53 L688.596782421039 246.982682078258 A69.32 69.32 0 0 1 599.151899003183 285.759158811377 L599.15 285.76 L584.88 319.05 L590.06606963128 328.577679646955 A2.78 2.78 0 0 0 592.730193770224 330.529981310557 L592.73 330.53 L596.771983430297 330.815197965021 A2.89 2.89 0 0 1 594.81576253516 336.242925774494 L594.816837695208 336.248258859331 A9.62 9.62 0 0 1 596.130052339202 342.814399403205 L596.126379236754 342.81226217927 A207.63 207.63 0 0 1 581.148912945232 388.270077925111 L581.151113198014 388.278362421752 A151.41 151.41 0 0 1 531.433683496182 452.556526560753 L531.44 452.55 L534.123147727709 452.909781293391 A19.84 19.84 0 0 1 529.632043474937 460.398337420779 L529.628558657588 460.401467322753 A28.14 28.14 0 0 1 521.213043477209 482.390184331332 L521.21522457254 482.38694126373 A13.75 13.75 0 0 1 509.715451919321 486.706006828231 L509.720080906834 486.7036736141 A7.97 7.97 0 0 1 503.321167568486 484.402447852338 L503.324010017271 484.402351419916 A167.42 167.42 0 0 1 490.046328656374 468.18564935827 L490.034877241951 468.184568869109 A5.65 5.65 0 0 1 491.809720050899 461.315276958326 L491.817298959313 461.324199049096 A4.84 4.84 0 0 0 494.293930445627 460.030435628524 L494.294882329727 460.026026709686 A10.49 10.49 0 0 1 498.913007181095 455.276555936377 L498.909984979512 455.279992677848 A22.16 22.16 0 0 1 498.909984979512 447.660007322152 L498.908084170797 447.654618826723 A1.56 1.56 0 0 1 501.219320615439 446.954669282549 L501.21 446.96 L502.06 447.39 L503.64 444.77 L505.74 444.77 L505.736175977127 442.393170926193 A5.69 5.69 0 0 0 509.441546002358 437.61832812985 L509.447752213825 437.623224979606 A1.43 1.43 0 0 1 509.360078451721 437.115021155965 L509.360054861527 437.119525266439 A1 1 0 0 1 510.738998496212 436.204602712415 L510.741606272516 436.203221093685 A2.59 2.59 0 0 1 511.819596855377 437.029598524796 L511.815135622909 437.027756262671 A424.48 424.48 0 0 0 515.737557209329 441.24764245444 L515.735629681053 441.251490426869 A2.33 2.33 0 1 0 518.317138483814 437.377083373321 L518.32 437.38 L513.889149209714 432.152306345209 A110.58 110.58 0 0 1 522.034683662778 381.965289134778 L522.026155919529 381.962503560217 A111.72 111.72 0 0 0 496.326334058777 352.522137833681 L496.329312999834 352.524818784714 A2.57 2.57 0 0 0 494.428752118602 351.781620389401 L494.43 351.78 L488.320615698726 352.07314684317 A7.97 7.97 0 0 1 481.140014348859 349.800302497505 L481.132199622724 349.804649538263 A118.24 118.24 0 0 0 474.525169757993 343.284569026077 L474.5296189754 343.285777367273 A3.39 3.39 0 0 1 474.777334883791 340.975246177257 L474.772125970376 340.972826562503 A139.45 139.45 0 0 0 460.39011509948 341.808553448408 L460.39 341.81 L441.762186373266 281.489940693744 A69.27 69.27 0 0 1 377.265362923661 280.294307041774 L377.27 280.29 L378.746246824137 278.129532146546 A66.66 66.66 0 0 0 440.979901926634 278.960362609411 L440.98 278.96 L440.054068257811 275.960852281437 A63.57 63.57 0 1 1 474.217683152261 219.057267419619 L474.22 219.05 L477.307790723959 219.057288473649 A66.66 66.66 0 0 0 477.198364023226 215.74372643187 L477.2 215.74 L479.812557685661 215.743380446873 A69.27 69.27 0 0 1 445.266826407028 279.600068579175 Z M415.41 228.04 L420.253480637398 232.762554622811 A63.61 63.61 0 0 1 433.985645982207 256.303683419924 L433.99 256.3 L438.355964302294 270.463601347919 A57.92 57.92 0 1 1 468.567457311015 219.057285870107 L468.57 219.05 L420.324782052881 219.057144375306 A9.69 9.69 0 1 0 415.40340018847 228.044008920427 Z M535.071500849994 260.704588131984 A25.96 25.96 0 0 0 539.636091642385 280.013442743887 L539.64 280.02 L573.53 316.54 L579.12 316.81 L536.22 237.97 Z M554.96 222.46 L547.914532987273 222.426230003376 A18.5 18.5 0 0 1 539.905397089043 236.399043180639 L539.9 236.4 L582.13 314 L594.997793127624 283.986297669586 A69.32 69.32 0 0 1 554.962350566822 222.458483873676 Z M596.03 281.6 L597.264880154206 278.698834932727 A63.57 63.57 0 0 1 560.714038290051 222.485900865881 L560.72 222.49 L557.563075319792 222.470832960301 A66.72 66.72 0 0 0 596.022940608677 281.595529493446 Z M617.19 232.23 L599.489183159235 273.512162070568 A57.93 57.93 0 0 1 566.3560248293 222.512490340368 L566.36 222.51 L611.214656976153 222.724966199536 A13.15 13.15 0 0 0 617.190744631882 232.231815890592 Z M418.35990956271 225.469701400824 A9.69 9.69 0 0 0 419.981613463226 222.210955796819 L419.98 222.21 L468.511151288944 222.210281884764 A57.92 57.92 0 0 1 441.813350446907 268.421839261986 L441.82 268.42 L437.714844831547 255.129736465369 A67.51 67.51 0 0 0 423.059461454052 230.041599116694 L423.06 230.04 Z M477.27 222.21 L474.16638267102 222.210370163132 A63.57 63.57 0 0 1 443.537196983998 274.001996052863 L443.54 274 L444.474947500489 277.040652212428 A66.66 66.66 0 0 0 477.258874506097 222.210256123637 Z M508.37 259.78 L472.230753013009 303.632436516726 A10.47 10.47 0 0 0 471.303307044688 315.745489565724 L471.3 315.75 L456.43 315.75 L453 304.64 L508.37 247.7 Z M672.92 252.62 L634.329410317959 229.619401635 A13.15 13.15 0 0 1 621.358347617639 233.973602473731 L621.36 233.98 L603.644004772877 275.283660700997 A57.93 57.93 0 0 0 672.910363314318 252.614264756246 Z M680.47 257.12 L677.758000196173 255.50372956484 A63.57 63.57 0 0 1 601.41970292086 280.47123416952 L601.42 280.47 L600.177255062238 283.368148810166 A66.72 66.72 0 0 0 680.465381816659 257.117172011154 Z M611.186753019714 219.826690341289 A13.15 13.15 0 1 1 636.293206135919 226.475881543293 L636.3 226.48 L674.983186884964 249.151028123458 A57.93 57.93 0 1 0 566.368904031187 219.320249850299 L566.37 219.32 Z M532.044461948125 346.902070886483 A5 5 0 0 1 534.623787273562 350.05429625697 L534.621631128452 350.051495199706 A4.87 4.87 0 0 0 535.188933682363 351.348990321673 L535.191731836234 351.349566919606 A1 1 0 0 0 535.524564976433 351.676928664756 L535.531376735139 351.676415476099 A16.61 16.61 0 0 1 538.738526264428 354.18848603791 L538.732602482273 354.191548830919 A5 5 0 0 1 539.950757447189 356.191867633667 L539.9537553725 356.1858542323 A43.34 43.34 0 0 0 541.045202261301 359.198573942834 L541.048511922238 359.194696121405 A5.13 5.13 0 0 1 541.878782758801 363.702673721042 L541.879870512485 363.709571711185 A17.14 17.14 0 0 0 540.69318392221 371.459190988623 L540.690912374422 371.454236960145 A9.32 9.32 0 0 0 537.741277889015 365.35987593566 L537.74 365.36 L515.386632786973 346.484738182046 A20.93 20.93 0 0 0 506.778795688297 340.76664164696 L506.781436176992 340.763935330546 A68.99 68.99 0 0 0 498.911387187366 338.879630977582 L498.91 338.87 L498.91 340.98 L493.92 340.45 L492.34 335.86 L486.9 337.78 L486.013818191097 335.872527976236 A1.63 1.63 0 0 0 483.480457934488 336.344528471159 L483.484666743924 336.343080940634 A1.87 1.87 0 0 0 481.035421022251 333.937813963769 L481.039937964642 333.937368190866 A13.5 13.5 0 0 1 477.627506551321 335.455195370778 L477.627999017534 335.456905130822 A54.71 54.71 0 0 0 462.823183180359 336.424308717697 L462.82 336.43 L457.65 319.69 L475.78 319.69 Z M520.98 309.44 L511.78 294.99 L506 301.82 Z M580.98 320.22 L585.22 328.01 L576.42 320.22 Z" style="fill:rgb(0,0,0);" />
</g>
</svg>
