<?xml version="1.0" encoding="UTF-8"?>
<!DOCTYPE svg PUBLIC '-//W3C//DTD SVG 1.0//EN' 'http://www.w3.org/TR/2001/REC-SVG-20010904/DTD/svg10.dtd'>
<svg xmlns:xlink="http://www.w3.org/1999/xlink" xmlns="http://www.w3.org/2000/svg" width="1034.11542730566" height="907.627944162882">
<!--Gegenereerd door de SIMaD-toepassing (http://www.dlw.be).-->
<g style="stroke:none;fill-rule:evenodd;" transform="matrix(1,0,0,-1,0,907.627944162882)">
<path d=" M478.09 885.13 L6.02885800779754 67.5000020405242 A45 45 0 0 1 45.0000023561945 6.3948846218409E-14 L989.119997643806 6.3948846218409E-14 A45 45 0 0 1 1028.0911419922 67.5000020405242 L1028.09 67.5 L556.031144348397 885.129997959476 A45 45 0 0 1 478.088855651603 885.129997959476 Z" style="fill:rgb(255,0,0);" />
<path d=" M876.53 110 L517.06 732.63 L157.58 110 Z" style="fill:rgb(255,255,255);" />
<path d=" M771.797745255584 197.777833562189 A9.57 9.57 0 0 1 774.182489264083 194.419724565317 L774.18 194.42 L776.788251073583 191.92914392897 A4.94 4.94 0 0 0 777.445677839909 184.429609629166 L777.45 184.43 L780.397254322378 178.980659831391 A9.22 9.22 0 0 1 786.189399438797 174.308004889602 L786.185833344991 174.313108310723 A172.31 172.31 0 0 1 793.172639630766 172.584664932488 L793.168228992928 172.578841470526 A23.28 23.28 0 0 0 801.324415352426 169.486794663442 L801.330115022718 169.484623739487 A9.84 9.84 0 0 0 805.832732570152 163.010589942695 L805.830016990518 163.013916037375 A5.26 5.26 0 0 0 802.593511859794 157.830640989753 L802.594145636982 157.825101520069 A11.95 11.95 0 0 0 794.55773066748 155.998643508331 L794.554685336586 155.994032803665 A10.18 10.18 0 0 0 788.685783717667 158.86760284017 L788.696586675572 158.869732357025 A238.2 238.2 0 0 0 779.494344447275 169.435269644976 L779.490463584081 169.439791609171 A33.25 33.25 0 0 0 758.725020969615 179.907717154228 L758.728728293595 179.909929157429 A70.49 70.49 0 0 0 747.530322307372 200.480913668105 L747.524788815861 200.479539478569 A93.98 93.98 0 0 1 733.136683578232 228.50104364221 L733.135431523278 228.499414711737 A20.77 20.77 0 0 1 725.97950250969 234.53570859391 L725.980636377591 234.531944711591 A563.37 563.37 0 0 0 709.572154334716 234.945808520685 L709.5743451985 234.950500477948 A70.66 70.66 0 0 0 669.967322088539 249.288875763762 L669.96 249.29 L648.466835142596 266.335389794071 A62.73 62.73 0 0 1 626.50727447959 277.777732771184 L626.507584229067 277.76395458749 A35.93 35.93 0 0 1 603.139440352279 276.595547281665 L603.134566043195 276.606576985273 A14.35 14.35 0 0 1 598.411207809462 284.056822337778 L598.416436508401 284.052480681241 A35.45 35.45 0 0 1 568.326880838843 289.943801439104 L568.319917678601 289.948509487908 A327.34 327.34 0 0 1 549.988355848617 284.617019424841 L549.989011371956 284.612982820224 A65.37 65.37 0 0 0 518.559337675516 281.740247388257 L518.562096649554 281.742338339603 A47.53 47.53 0 0 0 502.642134563289 288.485196913778 L502.639123811967 288.479475363044 A14.99 14.99 0 0 1 493.196305624103 290.913191346713 L493.197757984041 290.916580060063 A7.5 7.5 0 0 1 488.669994344223 288.92046914824 L488.670208112764 288.923365954054 A11.1 11.1 0 0 0 482.681950222067 284.736453966038 L482.679703922712 284.742201083293 A24.58 24.58 0 0 0 465.250226183059 286.30014327177 L465.24693240556 286.28727461136 A102.99 102.99 0 0 1 441.827971605817 297.923723014554 L441.825903730054 297.930156406519 A172.72 172.72 0 0 1 417.334651985472 305.136329817784 L417.333316313961 305.143983540561 A23.9 23.9 0 0 1 412.17140122347 305.679654021652 L412.172066236148 305.670516429731 A251.95 251.95 0 0 0 430.284590801253 277.844420198959 L430.287111515575 277.842988445867 A131.65 131.65 0 0 0 434.790749655177 269.054808126037 L434.788351996347 269.0530559482 A6.86 6.86 0 0 1 440.582975849301 264.329707088307 L440.581061207008 264.33195584355 A16.74 16.74 0 0 0 448.15265776489 260.923520122864 L448.164587404712 260.924768430285 A156.04 156.04 0 0 1 463.963951662635 248.606619959349 L463.952921856251 248.607569689412 A22.98 22.98 0 0 1 470.453880347203 245.539701638126 L470.458437770621 245.545872298388 A5.85 5.85 0 0 0 474.257529139049 242.087724927322 L474.256410434742 242.086713904869 A10.97 10.97 0 0 0 476.009505300416 234.416924138933 L476.000789893836 234.419432849039 A2.9 2.9 0 0 0 473.349394807872 231.938310888377 L473.358113292966 231.9310226013 A29.33 29.33 0 0 0 458.385297347627 231.444101744288 L458.379399797567 231.438813908034 A127.24 127.24 0 0 1 445.087427804505 241.298243631453 L445.090728472955 241.303231108087 A8.2 8.2 0 0 1 437.857301546457 242.71581949855 L437.85640872588 242.713905831801 A61.24 61.24 0 0 0 422.34865335381 266.620680818992 L422.356360368361 266.629122821018 A130.77 130.77 0 0 1 394.237343216018 310.03709498093 L394.232533712589 310.024410576207 A54.75 54.75 0 0 0 385.565034964394 321.637885274466 L385.567566319298 321.639518323382 A6.78 6.78 0 0 0 391.188439003647 331.713290261422 L391.192410485372 331.716894806243 A115.68 115.68 0 0 0 421.817161423064 327.821854777888 L421.81497123505 327.82281560154 A399.58 399.58 0 0 1 450.322826054622 320.860179960839 L450.32485649604 320.86080264256 A11.34 11.34 0 0 1 459.747188618562 321.250356430748 L459.745757270714 321.250309023803 A55.92 55.92 0 0 0 456.970519734564 362.343302551313 L456.970774731683 362.346870010558 A19.34 19.34 0 0 1 458.43179200734 380.171280160339 L458.428826418958 380.165933094475 A51.02 51.02 0 0 0 457.406327798042 401.10280619993 L457.403917530027 401.098185042259 A89.58 89.58 0 0 0 442.309939500113 445.455003734234 L442.314221167047 445.459827725703 A10.98 10.98 0 0 1 433.355714858554 458.605461999431 L433.358375868444 458.600989916587 A58.38 58.38 0 0 0 404.533024214685 469.70264564873 L404.523979577463 469.707750063454 A17.77 17.77 0 0 0 397.876376665301 479.520877967297 L397.888229797906 479.515509515037 A4.57 4.57 0 0 0 400.686616511234 484.94194640046 L400.684299135106 484.945742361888 A35.66 35.66 0 0 0 414.269890048346 488.403007420953 L414.266778416317 488.404983303644 A22.41 22.41 0 0 1 428.316371444747 496.318532253859 L428.315161372523 496.311547171169 A47.39 47.39 0 0 1 432.186038519268 501.74051335675 L432.185157815008 501.742594494274 A14.87 14.87 0 0 1 448.251246705429 503.4222310041 L448.257391591262 503.422674897418 A145.29 145.29 0 0 0 456.899555585937 509.873867733788 L456.896983453926 509.877787698113 A17.19 17.19 0 0 0 471.67656396797 513.578769931977 L471.672270017516 513.576307160788 A14.28 14.28 0 0 1 480.336707463878 525.745460909625 L480.335595653238 525.749489353208 A405.59 405.59 0 0 0 481.065941251303 534.903154157011 L481.080000399955 534.904807218588 A33.71 33.71 0 0 0 487.408940837407 554.573206735795 L487.400607501706 554.566102431804 A78.46 78.46 0 0 0 496.066826863803 564.692920519268 L496.062288747362 564.707157842096 A3.73 3.73 0 0 0 498.743061293942 565.779466888606 L498.746001017594 565.775680504612 A220.96 220.96 0 0 1 488.47240004618 547.151735438131 L488.476292849858 547.150156337168 A29.82 29.82 0 0 1 486.13939665318 527.554308019699 L486.131018673379 527.55218541153 A246.84 246.84 0 0 1 539.008321923591 571.616604642424 L539.01473406137 571.619545321385 A2.86 2.86 0 0 0 539.282604825769 567.820651720666 L539.275614393117 567.815581871823 A194.2 194.2 0 0 0 537.40110823252 565.429846793703 L537.406678685311 565.43155064625 A0.9 0.9 0 0 1 537.30940767273 564.458840754066 L537.31 564.46 L519.54 547.42 L536.97 547.66 L533.653345045445 545.666758042801 A36.49 36.49 0 0 1 510.670801285431 539.434203951588 L510.676644837469 539.426868000418 A73.22 73.22 0 0 1 500.452315287613 531.028311633322 L500.452303553316 531.032975073166 A41.43 41.43 0 0 0 486.576820439924 522.001739633088 L486.573901077168 521.996333674964 A83.79 83.79 0 0 0 480.146618552112 514.351762904162 L480.149537691828 514.355961535599 A14.18 14.18 0 0 1 476.668070223235 507.977328859299 L476.661802691281 507.980844032252 A4.58 4.58 0 0 1 476.832244014871 505.253783714879 L476.834478344934 505.257635922878 A186.03 186.03 0 0 0 495.775124017182 505.355017052686 L495.775656513361 505.352392372641 A26.34 26.34 0 0 0 507.535038199 501.968222445242 L507.531444129148 501.961742902745 A6.24 6.24 0 0 0 510.525982681517 497.993370803158 L510.528760976901 498.000809691839 A30.02 30.02 0 0 0 504.102045164324 485.731625029725 L504.096894857836 485.729605346474 A14.15 14.15 0 0 0 494.433209078717 480.350072407235 L494.436813249441 480.343008615373 A54.25 54.25 0 0 1 484.479510582211 478.32233346514 L484.486075333603 478.322278225426 A70.76 70.76 0 0 1 496.974297527543 424.157960951165 L496.968463945312 424.160095754455 A1356.88 1356.88 0 0 0 511.307572485944 404.124295357141 L511.30741839874 404.122362448378 A17.53 17.53 0 0 0 514.277766479831 396.769533811162 L514.283495172747 396.771471955922 A24.83 24.83 0 0 1 518.519324232971 383.698827084352 L518.517765356934 383.699390203458 A4.72 4.72 0 0 1 522.997592839429 381.654251567932 L522.992724464954 381.651888157757 A6.63 6.63 0 0 0 528.734932967816 379.486394224229 L528.73821335048 379.490018736098 A86.39 86.39 0 0 1 541.519226668044 365.735213844709 L541.523175608085 365.735166020336 A37.62 37.62 0 0 1 558.199557735737 359.332409115156 L558.198799300301 359.331026211716 A283.29 283.29 0 0 1 589.408361214375 355.922805864266 L589.403741966724 355.913211671881 A110.16 110.16 0 0 0 616.20646253279 351.26351162365 L616.204767760985 351.265945289407 A42.76 42.76 0 0 0 621.535825343071 349.245498799241 L621.537863870965 349.249215401072 A78.42 78.42 0 0 0 675.166747903788 351.367106013453 L675.167988670263 351.363375741169 A56.02 56.02 0 0 0 703.965594103268 330.160742847906 L703.965862751003 330.159667975749 A6.76 6.76 0 0 0 704.111841232808 322.617448948457 L704.124686260286 322.611410564123 A75.21 75.21 0 0 0 701.543991031434 318.862098570832 L701.537412515915 318.871762110341 A31.22 31.22 0 0 0 709.620329851424 301.439928001953 L709.627779762646 301.437335640205 A180.49 180.49 0 0 1 713.303796390865 281.085350459302 L713.293226201731 281.082553267614 A27.53 27.53 0 0 1 728.556487452872 262.508600617357 L728.560819124769 262.510080031098 A69.52 69.52 0 0 1 741.755640574953 257.981967917353 L741.754451583881 257.977805893161 A26.86 26.86 0 0 1 746.233992334276 257.320481937111 L746.239106275132 257.322239178589 A9.45 9.45 0 0 0 754.807108747385 250.263373456395 L754.8 250.26 Z" style="fill:rgb(0,0,0);" />
</g>
</svg>
