<?xml version="1.0" encoding="UTF-8"?>
<!DOCTYPE svg PUBLIC '-//W3C//DTD SVG 1.0//EN' 'http://www.w3.org/TR/2001/REC-SVG-20010904/DTD/svg10.dtd'>
<svg xmlns:xlink="http://www.w3.org/1999/xlink" xmlns="http://www.w3.org/2000/svg" width="1034.11542730566" height="907.627944162883">
<!--Gegenereerd door de SIMaD-toepassing (http://www.dlw.be).-->
<g style="stroke:none;fill-rule:evenodd;" transform="matrix(1,0,0,-1,0,907.627944162883)">
<path d=" M478.09 885.13 L6.02885800779754 67.5000020405242 A45 45 0 0 1 45.0000023561945 6.3948846218409E-14 L989.119997643806 6.3948846218409E-14 A45 45 0 0 1 1028.0911419922 67.5000020405242 L1028.09 67.5 L556.031144348397 885.129997959476 A45 45 0 0 1 478.088855651603 885.129997959476 Z" style="fill:rgb(255,0,0);" />
<path d=" M876.53 110 L517.06 732.63 L157.58 110 Z" style="fill:rgb(255,255,255);" />
<path d=" M648.822552911974 176.255168874622 A7.32 7.32 0 0 1 643.964210483663 169.111758680607 L643.974905670872 169.115419876062 A25.99 25.99 0 0 0 635.042953510704 166.57372376022 L635.037970876538 166.567662275576 A11.68 11.68 0 0 0 627.679841522848 167.843757525784 L627.688435318193 167.854310618115 A4.91 4.91 0 0 0 625.765941857622 169.735681171576 L625.758010299643 169.736539540091 A92.66 92.66 0 0 1 637.282344845237 199.11330259145 L637.287065544321 199.110959140756 A32.09 32.09 0 0 1 634.755713359157 219.557286608271 L634.748140417637 219.551819011787 A25.9 25.9 0 0 1 631.476605016444 233.882789525217 L631.477364159621 233.88298685983 A49.04 49.04 0 0 1 625.57151067689 242.217030927236 L625.57826828713 242.221257229661 A2.08 2.08 0 0 1 623.114312655185 243.066631128079 L623.116516454679 243.060725690132 A7.55 7.55 0 0 1 618.023783712951 239.428938561146 L618.018976214557 239.436278150171 A2.45 2.45 0 0 1 618.018976214557 236.983721849829 L618.020388214121 236.986467331646 A4.57 4.57 0 0 0 617.752679257818 233.290023720232 L617.75302004401 233.290664385712 A11.59 11.59 0 0 1 616.970714655845 231.633412388244 L616.966330053529 231.63139798237 A2.99 2.99 0 0 0 616.195518458522 230.49059667769 L616.192590604462 230.497395710106 A0.86 0.86 0 0 0 614.909703438994 230.630815939114 L614.908002775975 230.626297214798 A272.06 272.06 0 0 1 614.25976597499 231.531770823506 L614.262522234717 231.531912958427 A13.76 13.76 0 0 0 612.924679629603 235.144088152832 L612.932202725193 235.147209055453 A6.9 6.9 0 0 1 611.6767031214 237.864027827061 L611.667941190252 237.852656010318 A1.67 1.67 0 0 1 608.712999486018 237.216522678602 L608.708911156463 237.223907168553 A24.51 24.51 0 0 0 607.103739510206 232.521577431906 L607.101576816624 232.513565828383 A3.49 3.49 0 0 0 605.711315526672 230.968831061996 L605.717793538561 230.972704000771 A1.18 1.18 0 0 0 604.236609765084 231.589863892793 L604.232787216912 231.590533957096 A4.11 4.11 0 0 0 603.450044367049 234.917191177136 L603.449169144518 234.914572870945 A10.44 10.44 0 0 1 602.029737758191 240.664298581672 L602.029231054436 240.665301815445 A29.86 29.86 0 0 1 596.79176474023 247.261010969322 L596.7985608352 247.271483959175 A20.45 20.45 0 0 0 592.158975674982 253.845086756039 L592.149051945088 253.840634226205 A30.83 30.83 0 0 0 575.099628498037 248.315262801214 L575.106334330221 248.313328861209 A117.01 117.01 0 0 0 549.680997456951 250.021384927208 L549.680817744965 250.021414301029 A57.4 57.4 0 0 1 543.280394199463 250.793169555329 L543.273589913341 250.788992794749 A8.59 8.59 0 0 1 537.308206800134 249.750193246234 L537.310485648802 249.748223511484 A82.1 82.1 0 0 0 511.101492654352 243.388915396944 L511.102237489951 243.400791081338 A41.55 41.55 0 0 0 502.552167709185 243.658013321229 L502.548518679756 243.651357503072 A19.93 19.93 0 0 1 498.57642705893 230.880980395356 L498.571204286202 230.880813532312 A195.58 195.58 0 0 1 499.95004309718 214.324459076158 L499.952558244361 214.328245724832 A138.18 138.18 0 0 1 492.811538391826 175.700883637051 L492.813347964166 175.698814896546 A6.54 6.54 0 0 1 489.046989810924 167.733893641962 L489.050382469027 167.734669392666 A4.95 4.95 0 0 0 486.211383866759 166.43860475209 L486.212280110509 166.438861120528 A20.17 20.17 0 0 0 476.373660429702 167.118096380648 L476.37237650429 167.117163915523 A5.2 5.2 0 0 0 472.56585749788 170.471015813 L472.561257145777 170.478107844155 A50.28 50.28 0 0 1 480.555807169882 189.697952717799 L480.564792128866 189.695566703461 A41.03 41.03 0 0 1 481.048401268949 201.528554434596 L481.044410535473 201.526915200089 A16.01 16.01 0 0 1 478.677370817489 208.89561257025 L478.674287540114 208.891723404807 A26.01 26.01 0 0 0 476.750235384916 218.820655627662 L476.759280276479 218.821652980975 A79.53 79.53 0 0 1 475.90520813271 230.788952028225 L475.896071899522 230.795594220279 A6.48 6.48 0 0 1 470.772051499402 236.907377749745 L470.775442138644 236.898726259009 A16.28 16.28 0 0 0 460.197670268025 238.38043750316 L460.194120457145 238.380959797616 A43.15 43.15 0 0 0 445.448891299424 253.630387433064 L445.456297071841 253.630475643427 A61.78 61.78 0 0 1 439.827786802314 261.841721102126 L439.828836936854 261.842300899812 A122.78 122.78 0 0 0 430.732848469706 283.049124449607 L430.72856811079 283.053070335514 A45.61 45.61 0 0 1 416.075521337911 304.71364860632 L416.076306391628 304.709507659281 A19.05 19.05 0 0 1 410.315433713853 307.939711186626 L410.310083411995 307.939334656978 A10.83 10.83 0 0 1 405.907215714229 306.046513030141 L405.906694155979 306.043050001326 A35.16 35.16 0 0 0 396.593956600531 302.184180772517 L396.59504125413 302.198741315073 A18.12 18.12 0 0 0 388.046349964437 302.106156158302 L388.04648544679 302.095686801319 A12.94 12.94 0 0 0 373.883144058574 299.728267923014 L373.882029893441 299.730630771518 A98.1 98.1 0 0 1 366.82353802959 302.580779755152 L366.831505781613 302.580867465562 A8.28 8.28 0 0 1 360.593353618079 302.982332696998 L360.592830917132 302.984606548602 A5.09 5.09 0 0 0 354.601182858944 306.330458134049 L354.599250951241 306.329862089756 A8.95 8.95 0 0 0 355.299096868727 313.565034437904 L355.3 313.56 L368.046764969597 333.096840392596 A5.93 5.93 0 0 1 369.529674212406 337.082158947277 L369.51637540153 337.07965426618 A51.93 51.93 0 0 0 378.211775631577 357.948615277948 L378.211929998839 357.954327821298 A1.31 1.31 0 0 1 376.68395235922 360.005304533085 L376.690279987882 360.005396174842 A144.43 144.43 0 0 0 370.321012817187 357.33009821782 L370.319425208124 357.330562404262 A3.34 3.34 0 0 0 368.301926517988 357.196748742803 L368.29583479327 357.198387339325 A0.98 0.98 0 0 0 367.553250659849 358.229754162995 L367.556906893617 358.226228638718 A8.99 8.99 0 0 0 370.581610925137 365.798276627739 L370.588198638631 365.803154450317 A28.48 28.48 0 0 0 378.746706387035 371.080978525825 L378.742853828042 371.078346052541 A380.47 380.47 0 0 0 387.458218949827 375.904209274818 L387.455701616075 375.910978576937 A15.72 15.72 0 0 0 391.160774834466 377.331256649823 L391.163831934395 377.324478929657 A8.09 8.09 0 0 0 398.866468341103 375.751043169704 L398.87 375.75 L406.360383049258 371.477069236887 A5.8 5.8 0 0 1 412.162078804418 371.559362733512 L412.158493894939 371.55806023474 A259.04 259.04 0 0 1 421.583627685319 377.402466398894 L421.592055084495 377.400176563226 A7.61 7.61 0 0 0 429.516894266138 377.62660046487 L429.51492095333 377.62578951434 A4.69 4.69 0 0 0 430.574983100952 372.346062590601 L430.571135889963 372.347542962343 A122.35 122.35 0 0 1 428.338287477294 363.817444571439 L428.343437011327 363.820110440608 A24.87 24.87 0 0 1 445.996980082953 358.460264421742 L445.993090902735 358.460040588476 A85.05 85.05 0 0 1 462.970174062587 360.188616424388 L462.977173453659 360.181547844559 A262.45 262.45 0 0 0 533.995910032186 360.829791561927 L533.993645339713 360.832901057754 A146.33 146.33 0 0 1 579.30955813487 363.323012494625 L579.312765751085 363.32507944253 A168.46 168.46 0 0 0 635.741687870832 364.158548281891 L635.741602674093 364.153799577771 A60.04 60.04 0 0 0 667.617332411114 348.627499988966 L667.614273435799 348.625469371598 A31.9 31.9 0 0 0 677.359296364818 329.999818594049 L677.361286327937 330.002453596572 A139.67 139.67 0 0 0 671.01251544658 275.014070904274 L671.014533054626 275.016057278785 A18.45 18.45 0 0 1 671.261500989481 262.894048629932 L671.262605817915 262.8933410667 A29.6 29.6 0 0 0 671.242025517199 242.251340148918 L671.238833087901 242.258524595052 A3.98 3.98 0 0 0 669.22290165849 240.057456624014 L669.220752889919 240.051609145238 A2.79 2.79 0 0 0 666.399712770288 240.298707572057 L666.400887610108 240.295238500541 A11.62 11.62 0 0 0 662.448228512301 248.118209573883 L662.453377756305 248.118705621463 A52.7 52.7 0 0 0 663.420517982528 263.294577666741 L663.422423489442 263.294032133282 A863.26 863.26 0 0 0 668.793607991608 287.032198081204 L668.790565307958 287.037189691993 A69.46 69.46 0 0 1 666.012492176568 331.939085203335 L666.009393988664 331.938017518769 A101.82 101.82 0 0 1 668.643521016078 316.421363085649 L668.638661202865 316.422971445722 A60.44 60.44 0 0 0 666.066434792892 285.659144107499 L666.071850685276 285.657885618402 A82.72 82.72 0 0 1 659.363273492741 248.225670560856 L659.367327832124 248.218385800465 A25.69 25.69 0 0 1 657.453553142954 238.052743800328 L657.450437661605 238.052414027377 A147.77 147.77 0 0 1 657.964919061945 227.948000112871 L657.966946743194 227.949159275793 A130.68 130.68 0 0 0 658.399126560526 220.108181681441 L658.39474592762 220.105875805329 A60.21 60.21 0 0 1 651.665383077704 198.847674023689 L651.666655573654 198.853884438388 A2424.72 2424.72 0 0 0 648.826719847706 176.257874206053 Z" style="fill:rgb(0,0,0);" />
</g>
</svg>
