<svg xmlns:xlink="http://www.w3.org/1999/xlink" xmlns="http://www.w3.org/2000/svg" width="1034px" height="907px"  viewBox="-2.0096182823181152 -0.0020751953125 1038.139404296875 907.6300659179688"><rect id="svgEditorBackground" x="-2.0096182823181152" y="-0.0020751953125" width="1038.139404296875" height="907.6300659179688" style="fill: none; stroke: none;"/>
<!--Gegenereerd door de SIMaD-toepassing (http://www.dlw.be).-->
<g style="stroke:none;fill-rule:evenodd;" transform="matrix(1,0,0,-1,0,907.627944162883)">
<path d=" M478.09 885.13 L6.02885800779754 67.5000020405242 A45 45 0 0 1 45.0000023561945 6.3948846218409E-14 L989.119997643806 6.3948846218409E-14 A45 45 0 0 1 1028.0911419922 67.5000020405242 L1028.09 67.5 L556.031144348397 885.129997959476 A45 45 0 0 1 478.088855651603 885.129997959476 Z" style="fill:rgb(255,0,0);"/>
<path d=" M876.53 110 L517.06 732.63 L157.58 110 Z" style="fill:rgb(255,255,255);"/>
<path d=" M337.32 421.31 L876.53 110 L157.58 110 Z" style="fill:rgb(0,0,0);"/>

<path d=" M641.85 429.95 A30.5 30.5 0 0 1 580.85 429.95 A30.5 30.5 0 0 1 641.85 429.95 Z M623.6 429.95 A12.25 12.25 0 0 1 599.1 429.95 A12.25 12.25 0 0 1 623.6 429.95 Z" style="fill:rgb(0,0,0);"/>
<path d=" M655.13 318.95 A30.5 30.5 0 0 1 594.13 318.95 A30.5 30.5 0 0 1 655.13 318.95 Z M636.88 318.95 A12.25 12.25 0 0 1 612.38 318.95 A12.25 12.25 0 0 1 636.88 318.95 Z" style="fill:rgb(0,0,0);"/>
<path d=" M653.38 405.69 L669.38 396.45 L549.38 327.17 L533.38 336.41 Z" style="fill:rgb(0,0,0);"/>
</g>
</svg>