<?xml version="1.0" encoding="UTF-8"?>
<!DOCTYPE svg PUBLIC '-//W3C//DTD SVG 1.0//EN' 'http://www.w3.org/TR/2001/REC-SVG-20010904/DTD/svg10.dtd'>
<svg xmlns:xlink="http://www.w3.org/1999/xlink" xmlns="http://www.w3.org/2000/svg" width="1034.11542730566" height="907.627944162883">
<!--Gegenereerd door de SIMaD-toepassing (http://www.dlw.be).-->
<g style="stroke:none;fill-rule:evenodd;" transform="matrix(1,0,0,-1,0,907.627944162883)">
<path d=" M478.09 885.13 L6.02885800779754 67.5000020405242 A45 45 0 0 1 45.0000023561945 6.3948846218409E-14 L989.119997643806 6.3948846218409E-14 A45 45 0 0 1 1028.0911419922 67.5000020405242 L1028.09 67.5 L556.031144348397 885.129997959476 A45 45 0 0 1 478.088855651603 885.129997959476 Z" style="fill:rgb(255,0,0);" />
<path d=" M876.53 110 L517.06 732.63 L157.58 110 Z" style="fill:rgb(255,255,255);" />
<path d=" M521.824839273883 524.123218891484 A18.64 18.64 0 0 0 510.006803992142 503.66880596837 L510.01 503.66 L501.036444734185 509.096793081033 A64.68 64.68 0 0 0 458.285149823471 500.503011132026 L458.283456641699 500.511824857319 A22.41 22.41 0 0 1 443.933687229493 491.976738239522 L443.934860124487 491.971884681855 A56.1 56.1 0 0 0 411.983566015837 479.009551232595 L411.984887573701 479.014371166379 A15.21 15.21 0 0 0 401.750352700104 471.341953393979 L401.757143064718 471.339944100066 A12.34 12.34 0 0 1 389.611824035577 456.619312113156 L389.60540887342 456.615404579562 A14.29 14.29 0 0 0 386.760125591719 445.042638791995 L386.765957099591 445.041799499523 A245.64 245.64 0 0 1 375.632855342754 403.129161043601 L375.627226249372 403.132418529002 A5.1 5.1 0 0 1 379.421914024707 402.373465956515 L379.423069442481 402.372628722665 A132.4 132.4 0 0 1 377.76857533044 391.362572591883 L377.775738698933 391.366389233718 A10.36 10.36 0 0 1 382.514565902862 381.120188900545 L382.51 381.11 L399.019460581686 371.8950353446 A73.95 73.95 0 0 1 394.457309612037 308.072238623304 L394.459450408598 308.068259973157 A79.54 79.54 0 0 1 389.764799075847 288.132593833808 L389.766819225142 288.136312162 A74.09 74.09 0 0 0 391.820549210698 244.332613929983 L391.823304114539 244.329720464923 A192.28 192.28 0 0 1 393.405427190252 176.538399126846 L393.400593304484 176.542938609976 A6.66 6.66 0 0 1 390.999769120772 169.33368731013 L391 169.33 L391 161.54 L372.58822677952 161.348261961102 A187.15 187.15 0 0 1 348.770498829536 184.381210465113 L348.770151375159 184.380982406956 A8.22 8.22 0 0 0 343.534729367359 190.772031132253 L343.538586866789 190.773257636067 A11.33 11.33 0 0 1 336.695397592058 198.045918443644 L336.696946909314 198.042463652935 A18.6 18.6 0 0 0 330.652898831351 205.491445143354 L330.649407438185 205.489425841526 A9.91 9.91 0 0 1 325.884887993736 211.158720921699 L325.890632251783 211.160970706685 A7.66 7.66 0 0 0 320.638305190571 216.142085010113 L320.633999966081 216.144009030502 A7.51 7.51 0 0 1 316.42563269152 220.426241827576 L316.431759501344 220.422132333272 A17.39 17.39 0 0 1 297.80829704192 220.764619066736 L297.803392107656 220.757962704715 A29.27 29.27 0 0 1 288.536807348616 210.12031681295 L288.54 210.12 L249.246665556742 165.692216580295 A90.88 90.88 0 0 1 231.141657779256 165.32658183999 L231.134561241561 165.330688670363 A60.22 60.22 0 0 0 222.292722083469 165.815245775999 L222.297161528427 165.821243789438 A23.9 23.9 0 0 1 208.049353187227 166.473540065042 L208.05 166.47 L208.05 136.86 L801.51 136.86 L801.512578858574 157.162988397099 A9.73 9.73 0 0 0 791.42155113279 168.533646975897 L791.421699312689 168.531124449217 A23.44 23.44 0 0 1 789.36776816411 183.047235730179 L789.370599241652 183.04897479524 A6.25 6.25 0 0 0 786.366884913401 187.94089618035 L786.360111985165 187.946596154625 A9.07 9.07 0 0 1 784.126014177771 194.342472724497 L784.132650341632 194.337379619531 A17.07 17.07 0 0 0 778.077437041675 199.811087249597 L778.073207291167 199.814871641813 A57.45 57.45 0 0 0 771.825476007754 225.086801850594 L771.825307298101 225.083470548232 A10.49 10.49 0 0 1 769.760755215967 233.843749231708 L769.760062788404 233.847692852425 A23.81 23.81 0 0 0 765.298588854058 241.111131513823 L765.294915155764 241.109069192783 A33.65 33.65 0 0 1 758.661961209539 259.903693788418 L758.664813196255 259.90055538631 A382.14 382.14 0 0 0 752.457399271737 268.26411521163 L752.459438924672 268.262951398462 A10.52 10.52 0 0 0 747.501089807658 275.020802355862 L747.495083103505 275.021123112576 A15.28 15.28 0 0 1 739.421589295559 284.51511336764 L739.423361600573 284.520865706065 A75.21 75.21 0 0 0 726.283613123645 300.604697831587 L726.286530646523 300.605702048311 A16.88 16.88 0 0 1 710.363388666385 303.404092225378 L710.360010711363 303.403619712274 A59.62 59.62 0 0 1 700.348504608919 297.804712989197 L700.35 297.8 L665.811749089886 268.580262522465 A24.38 24.38 0 0 0 638.864666971898 278.068641878742 L638.86 278.06 L570.164604468823 309.950310235729 A242.15 242.15 0 0 0 550.323554996665 322.532044320472 L550.32 322.53 L544.307551444808 337.558006238215 A151.12 151.12 0 0 0 549.314755437563 394.67674725518 L549.313632269578 394.681973959123 A106.84 106.84 0 0 0 556.324045808844 427.752267804894 L556.333634851868 427.744370795104 A19.52 19.52 0 0 1 553.906328067612 451.744373047715 L553.9 451.74 L540.95477420437 468.590490510492 A5.21 5.21 0 0 0 547.011641086691 476.741701747225 L547.018272012133 476.730893277714 A7.12 7.12 0 0 1 553.645488789815 479.071111452329 L553.635701328303 479.078423030828 A45 45 0 0 0 556.369146824718 481.958409854151 L556.37 481.96 L572.242274051816 497.266188911953 A9.3 9.3 0 0 1 575.795234345242 493.664325719035 L575.802028372028 493.659593717752 A2.34 2.34 0 0 1 578.047855152762 497.750277074436 L578.042543131826 497.75718077052 A13.59 13.59 0 0 0 579.335867302718 511.894405995149 L579.329226801992 511.889699800874 A9.67 9.67 0 0 1 578.780082808272 520.944307054161 L578.787386475155 520.946683544579 A67.14 67.14 0 0 1 539.894857974168 547.817612774193 L539.903181472341 547.823507330388 A11.72 11.72 0 0 1 525.976095414877 543.647396573067 L525.973608705932 543.642487483617 A31.44 31.44 0 0 1 521.822592447754 524.116578973109 Z M406.547590760261 402.160951658886 A89.06 89.06 0 0 1 413.774518935581 439.000496170115 L413.774476662985 438.998560430943 A239.34 239.34 0 0 1 446.797377552324 453.042837110271 L446.801562333906 453.047051178165 A427.04 427.04 0 0 0 413.398998873979 396.490379683689 L413.396396494861 396.492666277539 A6.25 6.25 0 0 1 406.545890707025 402.168760936909 Z M430.089044300089 194.958865421116 A15.43 15.43 0 0 1 427.860522047297 184.326635988625 L427.857033583186 184.332159267738 A27.81 27.81 0 0 1 441.47350699212 183.066562693596 L441.474815477093 183.058525537341 A5.56 5.56 0 0 0 445.679906488843 175.037445996215 L445.679872268168 175.042153160312 A759.5 759.5 0 0 1 440.437246322626 160.017008427218 L440.44 160.02 L501.072109535856 160.01433260832 A54.08 54.08 0 0 0 485.319501618176 180.701497712932 L485.32 180.7 L479.63 175.77 L465.393649765431 190.004016998562 A35.89 35.89 0 0 0 479.660244467718 204.825897439704 L479.661495639655 204.82278721624 A180.28 180.28 0 0 0 504.237864091669 280.804603258234 L504.24 280.81 L457.856446549754 321.220501570081 A147.4 147.4 0 0 1 438.029387039333 244.959409416483 L438.036328707929 244.952980212766 A37.7 37.7 0 0 1 434.564922571387 226.61438460796 L434.571200924925 226.620071204094 A11.07 11.07 0 0 0 433.562177845433 214.942906846386 L433.562383704015 214.939339850762 A10.45 10.45 0 0 1 431.047275475633 206.153810124742 L431.036087514669 206.154133867929 A14.25 14.25 0 0 0 430.083023054561 194.963168313617 Z M624.685956957426 222.508576376464 A15.85 15.85 0 0 1 612.465280672152 214.835535572217 L612.463485336618 214.836527586743 A111.21 111.21 0 0 1 593.708538099108 189.591271870836 L593.702146643627 189.588257549561 A135.08 135.08 0 0 1 576.55473921338 177.796633469043 L576.559870727162 177.799527732313 A8.96 8.96 0 0 0 570.176890734478 174.805257229987 L570.177124272235 174.797928031943 A5.47 5.47 0 0 1 564.207456947987 170.751986990745 L564.201111519178 170.748666720208 A4.84 4.84 0 0 1 560.968665496496 166.780562843173 L560.966597438273 166.785805104657 A8.56 8.56 0 0 0 556.00478420085 162.368792168897 L556.01222683665 162.363538601055 A4.67 4.67 0 0 1 553.274254993122 158.309307628545 L553.270530960749 158.310047714133 A9.34 9.34 0 0 0 547.655023380654 157.750521622381 L547.655640440661 157.754245804131 A31.82 31.82 0 0 1 541.884281363738 158.693559089514 L541.878795182979 158.691489266791 A6.55 6.55 0 0 1 544.887124270709 163.160888471255 L544.891614860257 163.16317934738 A1.56 1.56 0 0 1 544.794229250276 164.319803399303 L544.791700055023 164.316543109681 A42.35 42.35 0 0 0 527.788846679694 185.327512929034 L527.793988036516 185.324548951929 A18.75 18.75 0 0 1 524.015486684686 194.220476290985 L524.01 194.22 L521.28 193.43 L512.303662177319 201.150154265821 A41.71 41.71 0 0 1 523.341075382285 205.508221730121 L523.34 205.51 L560.184179028043 272.03081092252 A26.87 26.87 0 0 1 558.893466376993 300.202844440017 L558.9 300.2 L555.431501305668 308.129932947551 A1.77 1.77 0 0 0 557.639325843902 310.551812870317 L557.64 310.55 L635.070653690524 274.652436124652 A27.04 27.04 0 0 1 660.248242272318 262.138700521091 L660.252208332192 262.133536279233 A48.8 48.8 0 0 1 643.766209535173 242.259981041761 L643.760459681391 242.259366678532 A65.14 65.14 0 0 0 624.686316083283 222.509243973611 Z M505.86438947644 409.169933026959 A31.56 31.56 0 0 1 504.551288962678 354.634403271552 L504.54761071225 354.636680629676 A161.64 161.64 0 0 0 505.860739174062 409.173371120076 Z" style="fill:rgb(0,0,0);" />
</g>
</svg>
