<?xml version="1.0" encoding="UTF-8"?>
<!DOCTYPE svg PUBLIC '-//W3C//DTD SVG 1.0//EN' 'http://www.w3.org/TR/2001/REC-SVG-20010904/DTD/svg10.dtd'>
<svg xmlns:xlink="http://www.w3.org/1999/xlink" xmlns="http://www.w3.org/2000/svg" width="1034.11542730567" height="907.627944162879">
<!--Gegenereerd door de SIMaD-toepassing (http://www.dlw.be).-->
<g style="stroke:none;fill-rule:evenodd;" transform="matrix(1,0,0,-1,0,907.627944162879)">
<path d=" M478.09 885.13 L6.02885800779754 67.5000020405242 A45 45 0 0 1 45.0000023561945 6.3948846218409E-14 L989.119997643806 6.3948846218409E-14 A45 45 0 0 1 1028.0911419922 67.5000020405242 L1028.09 67.5 L556.031144348397 885.129997959476 A45 45 0 0 1 478.088855651603 885.129997959476 Z" style="fill:rgb(255,0,0);" />
<path d=" M876.53 110 L517.06 732.63 L157.58 110 Z" style="fill:rgb(255,255,255);" />
<path d=" M657.59 295.5 L673.51 335.2 L656.33 339.19 L625.270033014692 307.971150463831 A210.67 210.67 0 0 1 583.780699813532 322.575082818235 L583.78 322.58 L535.32 333.85 L541.33 359.73 L607.98 453.35 L590.8 457.34 L463.27 350.54 L418.976863882521 360.842840282083 A118.12 118.12 0 0 1 359.52030644715 363.028093485922 L359.51925454507 363.031327420504 A0.79 0.79 0 0 1 359.196321444435 361.643249253122 L359.195675861668 361.644058037663 A118.12 118.12 0 0 1 413.553898045334 337.353371447245 L413.55 337.35 L457.85 327.05 L525.18 175.01 L542.35 171.02 L523.83 284.44 L529.85 310.32 L578.306242419013 299.044984794323 A211.65 211.65 0 0 1 621.984838851595 293.851478048801 L621.99 293.86 L636.1 252.14 L653.27 248.15 L656.49 290.8 L663.39 291.68 Z" style="fill:rgb(0,0,0);" />
</g>
</svg>
