<?xml version="1.0" encoding="UTF-8"?>
<!DOCTYPE svg PUBLIC '-//W3C//DTD SVG 1.0//EN' 'http://www.w3.org/TR/2001/REC-SVG-20010904/DTD/svg10.dtd'>
<svg xmlns:xlink="http://www.w3.org/1999/xlink" xmlns="http://www.w3.org/2000/svg" width="1034.11544766998" height="907.627933411054">
<!--Gegenereerd door de SIMaD-toepassing (http://www.dlw.be).-->
<g style="stroke:none;fill-rule:evenodd;" transform="matrix(1,0,0,-1,0,907.627933411054)">
<path d=" M478.09 885.13 L6.02882973349189 67.4999530679251 A45 45 0 0 1 45.0000180641578 3.62376795237651E-12 L989.120018064158 3.62376795237651E-12 A45 45 0 0 1 1028.09115220238 67.4999843559787 L1028.09 67.5 L556.031134138218 885.130015644018 A45 45 0 0 1 478.088865861782 885.130015644018 Z" style="fill:rgb(255,0,0);" />
<path d=" M876.53 110 L517.06 732.63 L157.58 110 Z" style="fill:rgb(255,255,255);" />
<path d=" M460.59 384.82 L623.871810530996 289.935186366913 A32.28 32.28 0 0 0 610.554661481174 259.638672169545 L610.56 259.64 L430.78 329.89 L418.12 355.19 L418.12 175.74 L409.8 175.74 L409.8 363.51 L413.96 363.51 Z M457.56604429763 321.209732388546 A38.98 38.98 0 0 0 479.687600100683 371.800104310007 L479.68 371.8 L462.493216331523 381.785785079604 A56.7 56.7 0 0 1 432.932797216784 341.894529105283 L432.930176866237 341.89319075365 A19.78 19.78 0 0 1 434.303364751601 333.707535105171 L434.304431504179 333.713211920994 A10 10 0 0 1 439.960557903668 328.085792506743 L439.96 328.08 Z M431.489955489804 353.749837913844 A30.1 30.1 0 0 1 429.291603740007 335.817803106936 L429.3 335.82 L418.12 358.17 L418.12 363.95 L449.40794242626 378.236248205809 A58.12 58.12 0 0 1 431.503894367252 353.743710688196 Z M622.35 288.89 L600.418490404334 301.638545533809 A26.32 26.32 0 0 1 588.515045813043 270.032615385053 L588.52 270.04 L610.249633342078 261.548316715672 A25.13 25.13 0 0 0 622.348829358352 288.895627019865 Z M559.885513537376 281.223929351218 A26.72 26.72 0 0 0 576.150353458252 315.742925190535 L576.15 315.74 L553.76106419784 328.751599074786 A30.06 30.06 0 0 1 536.988796403067 290.173882130632 L536.99 290.17 Z M505.503504020453 356.793764142459 A35.56 35.56 0 0 1 486.87272047624 309.745608368862 L486.88 309.75 L510.93614496226 300.350287335361 A34.02 34.02 0 0 0 529.245556598682 342.997575870001 L529.24 343 Z" style="fill:rgb(0,0,0);" />
</g>
</svg>
