<?xml version="1.0" encoding="UTF-8"?>
<!DOCTYPE svg PUBLIC '-//W3C//DTD SVG 1.0//EN' 'http://www.w3.org/TR/2001/REC-SVG-20010904/DTD/svg10.dtd'>
<svg xmlns:xlink="http://www.w3.org/1999/xlink" xmlns="http://www.w3.org/2000/svg" width="1034.11544866948" height="907.627933699729">
<!--Gegenereerd door de SIMaD-toepassing (http://www.dlw.be).-->
<g style="stroke:none;fill-rule:evenodd;" transform="matrix(1,0,0,-1,0,907.627933699729)">
<path d=" M478.09 885.13 L6.02882934079363 67.4999523877499 A45 45 0 0 1 45.0000180641578 3.62376795237651E-12 L989.120018064158 3.62376795237651E-12 A45 45 0 0 1 1028.09115259507 67.4999836758038 L1028.09 67.5 L556.031134138218 885.130015644018 A45 45 0 0 1 478.088865861782 885.130015644018 Z" style="fill:rgb(255,0,0);" />
<path d=" M876.53 110 L517.06 732.63 L157.58 110 Z" style="fill:rgb(255,255,255);" />
<path d=" M605.06 498.67 L678.39 376.44 L629.5 376.44 L629.5 132 L580.61 132 L580.61 376.44 L531.72 376.44 Z" style="fill:rgb(0,0,0);" />
<path d=" M404.61 498.67 L404.61 254.22 L355.72 254.22 L429.06 132 L502.39 254.22 L453.5 254.22 L453.5 498.67 Z" style="fill:rgb(0,0,0);" />
</g>
</svg>
