<?xml version="1.0" encoding="UTF-8"?>
<!DOCTYPE svg PUBLIC '-//W3C//DTD SVG 1.0//EN' 'http://www.w3.org/TR/2001/REC-SVG-20010904/DTD/svg10.dtd'>
<svg xmlns:xlink="http://www.w3.org/1999/xlink" xmlns="http://www.w3.org/2000/svg" width="1034.11544786849" height="907.627934699729">
<!--Gegenereerd door de SIMaD-toepassing (http://www.dlw.be).-->
<g style="stroke:none;fill-rule:evenodd;" transform="matrix(1,0,0,-1,0,907.627934699729)">
<path d=" M478.09 885.13 L6.02882934079363 67.4999523877499 A45 45 0 0 1 45.0000180641578 3.62376795237651E-12 L989.120018064158 3.62376795237651E-12 A45 45 0 0 1 1028.09115220238 67.4999843559787 L1028.09 67.5 L556.031134138218 885.130015644018 A45 45 0 0 1 478.088865861782 885.130015644018 Z" style="fill:rgb(255,0,0);" />
<path d=" M876.53 110 L517.06 732.63 L157.58 110 Z" style="fill:rgb(255,255,255);" />
<path d=" M644.17 410.67 L660.06 394.78 L660.06 361.78 L691.84 361.78 L691.84 330 L660.06 330 L660.06 205.33 L691.84 205.33 L691.84 173.56 L660.06 173.56 L660.06 141.78 L628.28 141.78 L628.28 173.56 L596.5 173.56 L596.5 141.78 L564.72 141.78 L564.72 173.56 L532.95 173.56 L532.95 141.78 L501.17 141.78 L501.17 173.56 L469.39 173.56 L469.39 141.78 L437.61 141.78 L437.61 173.56 L405.84 173.56 L405.84 141.78 L374.06 141.78 L374.06 173.56 L342.28 173.56 L342.28 205.33 L374.06 205.33 L374.06 330 L342.28 330 L342.28 361.78 L374.06 361.78 L374.06 394.78 L389.95 410.67 L405.84 394.78 L405.84 361.78 L437.61 361.78 L437.61 394.78 L453.5 410.67 L469.39 394.78 L469.39 361.78 L501.17 361.78 L501.17 394.78 L517.06 410.67 L532.95 394.78 L532.95 361.78 L564.72 361.78 L564.72 394.78 L580.61 410.67 L596.5 394.78 L596.5 361.78 L628.28 361.78 L628.28 394.78 Z M437.61 330 L437.61 205.33 L405.84 205.33 L405.84 330 Z M501.17 330 L501.17 205.33 L469.39 205.33 L469.39 330 Z M564.72 330 L564.72 205.33 L532.95 205.33 L532.95 330 Z M628.28 330 L628.28 205.33 L596.5 205.33 L596.5 330 Z" style="fill:rgb(0,0,0);" />
</g>
</svg>
