<?xml version="1.0" encoding="UTF-8"?>
<!DOCTYPE svg PUBLIC '-//W3C//DTD SVG 1.0//EN' 'http://www.w3.org/TR/2001/REC-SVG-20010904/DTD/svg10.dtd'>
<svg xmlns:xlink="http://www.w3.org/1999/xlink" xmlns="http://www.w3.org/2000/svg" width="1034.11544888081" height="907.627933411053">
<!--Gegenereerd door de SIMaD-toepassing (http://www.dlw.be).-->
<g style="stroke:none;fill-rule:evenodd;" transform="matrix(1,0,0,-1,0,907.627933411053)">
<path d=" M478.09 885.13 L6.02882934079363 67.4999523877499 A45 45 0 0 1 45.0000180641578 3.62376795237651E-12 L989.120018064158 3.62376795237651E-12 A45 45 0 0 1 1028.09115220238 67.4999843559787 L1028.09 67.5 L556.031134138218 885.130015644018 A45 45 0 0 1 478.088865861782 885.130015644018 Z" style="fill:rgb(255,0,0);" />
<path d=" M876.53 110 L517.06 732.63 L157.58 110 Z" style="fill:rgb(255,255,255);" />
<path d=" M289.31 245.08 L289.31 228.14 L269.56 228.14 L269.56 204.29 L302.954884757941 204.289982510085 A38.5 38.5 0 0 1 379.165115242059 204.289982510085 L379.16 204.29 L401.954884757941 204.289982510085 A38.5 38.5 0 0 1 478.165115242059 204.289982510085 L478.16 204.29 L500.954884757941 204.289982510085 A38.5 38.5 0 0 1 577.165115242059 204.289982510085 L577.16 204.29 L599.954884757941 204.289982510085 A38.5 38.5 0 0 1 676.165115242059 204.289982510085 L676.16 204.29 L709.47 204.29 L709.47 228.88 L691.08 228.88 L691.08 347.29 L709.56 347.29 L709.56 360.77 L610.56 360.77 L596.41 328.89 L552.74 328.89 L552.74 340.83 L509.32 340.83 L509.32 328.89 L475.087173892689 328.893073967485 A25.14 25.14 0 1 1 427.032826107311 328.893073967485 L427.03 328.89 L382.24 328.89 L382.246943184159 347.360991420559 A7.17 7.17 0 0 1 381.16634962507 360.776379451058 L381.16 360.77 L380.822896411143 379.423369860678 A53.33 53.33 0 0 1 406.764657713367 421.335399141967 L406.764087982289 421.337080427569 A79 79 0 0 1 452.9801321459 449.123574194775 L452.974076714575 449.12284708348 A89.13 89.13 0 0 1 496.984182505146 486.645889300294 L496.985851833836 486.641967346397 A25.5 25.5 0 0 1 515.980064713558 516.126265106233 L515.981592139891 516.130963915773 A51.08 51.08 0 0 1 519.704320766364 550.525298983656 L519.706742435123 550.516644924466 A30.28 30.28 0 1 1 469.583411313018 556.665071900727 L469.576966940801 556.66586346334 A54.42 54.42 0 0 1 445.552532585078 507.952088769398 L445.554469222722 507.961418701276 A128.9 128.9 0 0 1 401.55396582888 462.073705436883 L401.555363401682 462.064851271588 A69.8 69.8 0 0 1 371.63905166755 418.072935980919 L371.636840075254 418.082937856141 A49.07 49.07 0 0 1 350.720237307751 402.905485492223 L350.721286794487 402.902064949767 A18.61 18.61 0 0 1 346.670015507688 391.334024901997 L346.67 391.33 L346.677716174303 360.780758965343 A7.72 7.72 0 0 1 345.597773023799 347.36663381449 L345.6 347.36 L345.6 328.89 L312.129997312193 328.889999999999 A5.5 5.5 0 0 1 306.85452089453 324.945416409761 L306.85 324.94 L293.724306458341 280.423881361242 A8.74 8.74 0 0 1 295.196642400962 270.845784556115 L295.2 270.85 L307.71 265.7 L301.82 245.08 Z M609.57 310.63 L648.27 310.63 L646.19 347.29 L616.02 347.29 Z M654.56 310.63 L678.5 310.63 L678.5 347.29 L654.56 347.29 Z" style="fill:rgb(0,0,0);" />
<path d=" M720.56 160.29 L720.56 171.29 L258.56 171.29 L258.56 160.29 Z" style="fill:rgb(0,0,0);" />
</g>
</svg>
