<?xml version="1.0" encoding="UTF-8"?>
<!DOCTYPE svg PUBLIC '-//W3C//DTD SVG 1.0//EN' 'http://www.w3.org/TR/2001/REC-SVG-20010904/DTD/svg10.dtd'>
<svg xmlns:xlink="http://www.w3.org/1999/xlink" xmlns="http://www.w3.org/2000/svg" width="834.391931533628" height="732.932444880663">
<!--Gegenereerd door de SIMaD-toepassing (http://www.dlw.be).-->
<g style="stroke:none;fill-rule:evenodd;" transform="matrix(1,0,0,-1,0,732.932444880663)">
<path d=" M378.25 710.48 L6.05503651706689 67.5452837487801 A45 45 0 0 1 45.0000282743339 8.88178419700125E-12 L789.390028274334 8.88178419700125E-12 A45 45 0 0 1 828.334935151663 67.5453326884467 L828.34 67.55 L456.144908787787 710.475378229493 A45 45 0 0 1 378.255091212213 710.475378229493 Z" style="fill:rgb(255,0,0);" />
<path d=" M711.34 90 L417.2 598.11 L123.05 90 Z" style="fill:rgb(255,255,255);" />
<path d=" M192.2 118.5 L192.2 110 L642.2 110 L642.2 118.5 Z" style="fill:rgb(0,0,0);" />
<path d=" M204.99 132.64 L204.99 127.42 L263.06 127.42 L271.92 142.48 L325.07 142.48 L333.93 127.42 L500.46 127.42 L509.32 142.48 L562.47 142.48 L571.33 127.42 L629.4 127.42 L629.4 132.64 L633.14 132.64 L633.14 141.1 L629.4 141.1 L629.4 180.08 L628.22 180.08 L608.82 230.08 L555.58 230.08 L555.58 235.39 L316.7 235.39 L357.536998479179 259.897293504549 A3.15 3.15 0 1 1 357.550723173028 265.231332041311 L357.55 265.23 L317.333039670782 289.713673248155 A3.15 3.15 0 1 1 311.146960329218 289.713673248155 L311.15 289.72 L270.929276826972 265.231332041311 A3.15 3.15 0 1 1 270.943001520821 259.897293504549 L270.95 259.9 L311.78 235.39 L277.83 235.39 L277.28 232.58 L264.05 232.58 L261.81 232.73 L259.93 232.79 L258.64 232.99 L257.28 233.38 L255.66 233.83 L254.43 234.22 L253.13 234.48 L251.77 234.74 L250.54 234.93 L249.44 235.13 L248.27 235.25 L247.43 235.38 L246.33 235.39 L231.670005363746 235.399999999998 A5.91 5.91 0 0 1 226.160012813412 231.627321034294 L226.17 231.62 L206.17 180.08 L204.99 180.08 L204.99 141.1 L201.25 141.1 L201.25 132.64 Z M494.66 221.22 L494.66 180.08 L563.26 180.08 L563.26 221.22 Z M240.62 221.22 L240.62 180.08 L249.48 180.08 L249.48 221.22 Z M227.41 221.22 L211.45 180.08 L236.49 180.08 L236.49 221.22 Z M420.15 221.22 L420.15 180.08 L488.75 180.08 L488.75 221.22 Z M253.61 221.22 L253.61 180.08 L262.47 180.08 L262.47 221.22 Z M271.13 221.22 L271.13 180.08 L339.74 180.08 L339.74 221.22 Z M345.64 221.22 L345.64 180.08 L414.24 180.08 L414.24 221.22 Z M311.96 288.14 L272.119398135929 263.881492451831 A3.15 3.15 0 0 0 272.126340018996 261.253632939981 L272.13 261.25 L314.24 235.98 L356.353659479396 261.253634040576 A3.15 3.15 0 0 0 356.360602348424 263.881493499855 L356.36 263.88 L316.518630364492 288.13506467636 A3.15 3.15 0 0 0 311.961369635508 288.13506467636 Z M584.91 221.22 L584.91 180.08 L593.77 180.08 L593.77 221.22 Z M571.92 221.22 L571.92 180.08 L580.78 180.08 L580.78 221.22 Z M597.9 221.22 L597.9 180.08 L622.94 180.08 L606.98 221.22 Z" style="fill:rgb(0,0,0);" />
<path d=" M323.1 128.84 A10.43 10.43 0 0 1 302.24 128.84 A10.43 10.43 0 0 1 323.1 128.84 Z" style="fill:rgb(0,0,0);" />
<path d=" M294.75 128.84 A10.43 10.43 0 0 1 273.89 128.84 A10.43 10.43 0 0 1 294.75 128.84 Z" style="fill:rgb(0,0,0);" />
<path d=" M532.15 128.84 A10.43 10.43 0 0 1 511.29 128.84 A10.43 10.43 0 0 1 532.15 128.84 Z" style="fill:rgb(0,0,0);" />
<path d=" M560.5 128.84 A10.43 10.43 0 0 1 539.64 128.84 A10.43 10.43 0 0 1 560.5 128.84 Z" style="fill:rgb(0,0,0);" />
</g>
</svg>
