<svg xmlns:xlink="http://www.w3.org/1999/xlink" xmlns="http://www.w3.org/2000/svg" width="1034px" height="907px"  viewBox="-2.0096182823181152 -0.0020751953125 1038.139404296875 907.6300659179688"><rect id="svgEditorBackground" x="-2.0096182823181152" y="-0.0020751953125" width="1038.139404296875" height="907.6300659179688" style="fill: none; stroke: none;"/>
<!--Gegenereerd door de SIMaD-toepassing (http://www.dlw.be).-->
<g style="stroke:none;fill-rule:evenodd;" transform="matrix(1,0,0,-1,0,907.627943902123)">
<path d=" M478.09 885.13 L6.02885800779754 67.5000020405242 A45 45 0 0 1 45.0000023561945 6.3948846218409E-14 L989.119997643806 6.3948846218409E-14 A45 45 0 0 1 1028.0911419922 67.5000020405242 L1028.09 67.5 L556.031144348397 885.129997959476 A45 45 0 0 1 478.088855651603 885.129997959476 Z" style="fill:rgb(255,0,0);"/>
<path d=" M876.53 110 L517.06 732.63 L157.58 110 Z" style="fill:rgb(255,255,255);"/>
<path d=" M696.79 421.31 L157.58 110 L876.53 110 Z" style="fill:rgb(0,0,0);"/>

<path d=" M639.09 433.9 A30.5 30.5 0 0 1 578.09 433.9 A30.5 30.5 0 0 1 639.09 433.9 Z M620.84 433.9 A12.25 12.25 0 0 1 596.34 433.9 A12.25 12.25 0 0 1 620.84 433.9 Z" style="fill:rgb(0,0,0);"/>
<path d=" M547.83 502.16 L563.83 511.4 L563.85 372.83 L547.85 363.59 Z" style="fill:rgb(0,0,0);"/>
<path d=" M536.31 477.88 A30.5 30.5 0 0 1 475.31 477.88 A30.5 30.5 0 0 1 536.31 477.88 Z M518.06 477.88 A12.25 12.25 0 0 1 493.56 477.88 A12.25 12.25 0 0 1 518.06 477.88 Z" style="fill:rgb(0,0,0);"/>
</g>
</svg>