<?xml version="1.0" encoding="UTF-8"?>
<!DOCTYPE svg PUBLIC '-//W3C//DTD SVG 1.0//EN' 'http://www.w3.org/TR/2001/REC-SVG-20010904/DTD/svg10.dtd'>
<svg xmlns:xlink="http://www.w3.org/1999/xlink" xmlns="http://www.w3.org/2000/svg" width="1034.11544865716" height="907.627933699728">
<!--Gegenereerd door de SIMaD-toepassing (http://www.dlw.be).-->
<g style="stroke:none;fill-rule:evenodd;" transform="matrix(1,0,0,-1,0,907.627933699728)">
<path d=" M478.09 885.13 L6.02882934079363 67.4999523877499 A45 45 0 0 1 45.0000180641578 3.62376795237651E-12 L989.120018064158 3.62376795237651E-12 A45 45 0 0 1 1028.09115259507 67.4999836758038 L1028.09 67.5 L556.031134138218 885.130015644018 A45 45 0 0 1 478.088865861782 885.130015644018 Z" style="fill:rgb(255,0,0);" />
<path d=" M876.53 110 L517.06 732.63 L157.58 110 Z" style="fill:rgb(255,255,255);" />
<path d=" M477.09 556.02 L508.949088003799 218.891672194239 A30.56 30.56 0 1 1 524.6709119962 218.891672194239 L524.67 218.89 L556.53 556.02 A39.72 39.72 0 0 1 477.09 556.02 Z" style="fill:rgb(0,0,0);" />
</g>
</svg>
