<?xml version="1.0" encoding="UTF-8"?>
<!DOCTYPE svg PUBLIC '-//W3C//DTD SVG 1.0//EN' 'http://www.w3.org/TR/2001/REC-SVG-20010904/DTD/svg10.dtd'>
<svg xmlns:xlink="http://www.w3.org/1999/xlink" xmlns="http://www.w3.org/2000/svg" width="834.115428178802" height="734.422863579027">
<!--Gegenereerd door de SIMaD-toepassing (http://www.dlw.be).-->
<g style="stroke:none;fill-rule:evenodd;" transform="matrix(1,0,0,-1,0,734.422863579027)">
<path d=" M378.09 711.92 L6.02885800779754 67.5000020405242 A45 45 0 0 1 45.0000023561945 6.3948846218409E-14 L789.119997643806 6.3948846218409E-14 A45 45 0 0 1 828.091141992202 67.5000020405242 L828.09 67.5 L456.031144348397 711.919997959476 A45 45 0 0 1 378.088855651603 711.919997959476 Z" style="fill:rgb(255,0,0);" />
<path d=" M711.17 90 L417.06 599.42 L122.94 90 Z" style="fill:rgb(255,255,255);" />
<path d=" M302.05 230 L485.9 413.85 L459.03 440.72 L275.18 256.87 Z" style="fill:rgb(0,0,0);" />
<path d=" M302.05 156 L302.05 230 L243.79 230 L186.05 130 L646.05 130 L588.32 230 L530.05 230 L530.049998219764 156 A34 34 0 0 0 512.14737426937 161.095052465902 L512.15 161.1 L510.329643189703 162.286535825923 A34.1 34.1 0 0 1 492.050000595157 167.6 A34.1 34.1 0 0 1 473.770358317556 162.286536783043 L473.77 162.29 L471.952626235116 161.095052778361 A34 34 0 0 0 454.050002373648 156 A34 34 0 0 0 436.14737426937 161.095052465902 L436.15 161.1 L434.329643189703 162.286535825923 A34.1 34.1 0 0 1 416.050000595157 167.6 A34.1 34.1 0 0 1 397.770358317556 162.286536783043 L397.77 162.29 L395.952626235116 161.095052778361 A34 34 0 0 0 378.050002373648 156 A34 34 0 0 0 360.14737426937 161.095052465902 L360.15 161.1 L358.329643189703 162.286535825923 A34.1 34.1 0 0 1 340.050000595157 167.6 A34.1 34.1 0 0 1 321.770358317556 162.286536783043 L321.77 162.29 L319.952626235116 161.095052778361 A34 34 0 0 0 302.050002373648 156 Z" style="fill:rgb(0,0,0);" />
</g>
</svg>
