<?xml version="1.0" encoding="UTF-8"?>
<!DOCTYPE svg PUBLIC '-//W3C//DTD SVG 1.0//EN' 'http://www.w3.org/TR/2001/REC-SVG-20010904/DTD/svg10.dtd'>
<svg xmlns:xlink="http://www.w3.org/1999/xlink" xmlns="http://www.w3.org/2000/svg" width="1034.11544866948" height="907.627933699728">
<!--Gegenereerd door de SIMaD-toepassing (http://www.dlw.be).-->
<g style="stroke:none;fill-rule:evenodd;" transform="matrix(1,0,0,-1,0,907.627933699728)">
<path d=" M478.09 885.13 L6.02882934079363 67.4999523877499 A45 45 0 0 1 45.0000180641578 3.62376795237651E-12 L989.120018064158 3.62376795237651E-12 A45 45 0 0 1 1028.09115259507 67.4999836758038 L1028.09 67.5 L556.031134138218 885.130015644018 A45 45 0 0 1 478.088865861782 885.130015644018 Z" style="fill:rgb(255,0,0);" />
<path d=" M876.53 110 L517.06 732.63 L157.58 110 Z" style="fill:rgb(255,255,255);" />
<path d=" M425.13 458.86 L425.13 348.86 L333.2 348.86 L333.2 293.86 L425.13 293.86 L425.13 135.14 L517.06 209 L608.99 135.14 L608.99 293.86 L700.91 293.86 L700.91 348.86 L608.99 348.86 L608.99 458.86 L517.06 568.86 Z" style="fill:rgb(0,0,0);" />
</g>
</svg>
