<?xml version="1.0" encoding="UTF-8"?><!DOCTYPE svg PUBLIC '-//W3C//DTD SVG 1.0//EN' 'http://www.w3.org/TR/2001/REC-SVG-20010904/DTD/svg10.dtd'><svg xmlns:xlink="http://www.w3.org/1999/xlink" xmlns="http://www.w3.org/2000/svg"><!--Gegenereerd door de SIMaD (http://www.dlw.be).-->
<g style="stroke:none;fill-rule:evenodd;" transform="matrix(1,0,0,-1,0,734)">
<path d=" M357.54 692.64 L7.75 86.79 L7.75174085148039 86.7899492758767 A57.86 57.86 0 0 1 57.8600121181701 1.27187149701058E-12 L757.44 0 L757.440769503799 5.11697351157636E-9 A57.86 57.86 0 0 1 807.547868333648 86.790626178114 L807.54 86.79 L457.75 692.64 L457.758212190627 692.64003060937 A57.86 57.86 0 0 1 357.541776196118 692.640010494643 Z" style="fill:rgb(255,0,0);" />
<path d=" M701.76 90 L407.65 599.43 L113.53 90 L701.76 90 Z" style="fill:rgb(255,255,255);" />
<path d=" M332.43 285.43 L257.22 285.43 L257.22 240.43 L332.43 240.43 L332.43 110.57 L407.65 171 L482.86 110.57 L482.86 198 L533.34 110.57 L572.31 133.07 L482.86 288 L482.86 375.43 L407.65 465.43 L332.43 375.43 Z" style="fill:rgb(0,0,0);" />
</g>
</svg>
