<?xml version="1.0" encoding="UTF-8"?>
<!DOCTYPE svg PUBLIC '-//W3C//DTD SVG 1.0//EN' 'http://www.w3.org/TR/2001/REC-SVG-20010904/DTD/svg10.dtd'>
<svg xmlns:xlink="http://www.w3.org/1999/xlink" xmlns="http://www.w3.org/2000/svg" width="834.11544888081" height="734.422852411053">
<!--Gegenereerd door de SIMaD-toepassing (http://www.dlw.be).-->
<g style="stroke:none;fill-rule:evenodd;" transform="matrix(1,0,0,-1,0,734.422852411053)">
<path d=" M378.09 711.92 L6.02882934079363 67.4999523877499 A45 45 0 0 1 45.0000180641578 3.62376795237651E-12 L789.120018064158 3.62376795237651E-12 A45 45 0 0 1 828.091152202376 67.4999843559787 L828.09 67.5 L456.031134138218 711.920015644018 A45 45 0 0 1 378.088865861782 711.920015644018 Z" style="fill:rgb(255,0,0);" />
<path d=" M711.17 90 L417.06 599.42 L122.94 90 Z" style="fill:rgb(255,255,255);" />
<path d=" M535.25 326.11 L453.42 244.29 L535.25 162.46 L498.88 126.1 L417.06 207.92 L335.24 126.1 L298.87 162.46 L380.69 244.29 L298.87 326.11 L335.24 362.47 L417.06 280.65 L498.88 362.47 Z" style="fill:rgb(0,0,0);" />
</g>
</svg>
