<?xml version="1.0" encoding="UTF-8"?>
<!DOCTYPE svg PUBLIC '-//W3C//DTD SVG 1.0//EN' 'http://www.w3.org/TR/2001/REC-SVG-20010904/DTD/svg10.dtd'>
<svg xmlns:xlink="http://www.w3.org/1999/xlink" xmlns="http://www.w3.org/2000/svg" width="700" height="700">
<!--Gegenereerd door de SIMaD-toepassing (http://www.dlw.be).-->
<g style="stroke:none;fill-rule:evenodd;" transform="matrix(1,0,0,-1,0,700)">
<path d=" M700 350 A350 350 0 0 1 0 350 A350 350 0 0 1 700 350 Z" style="fill:rgb(255,0,0);" />
<path d=" M600 350 A250 250 0 0 1 100 350 A250 250 0 0 1 600 350 Z" style="fill:rgb(255,255,255);" />
<path d=" M270 275 L310 275 L250 175 L190 275 L230 275 L230 525 L270 525 Z" style="fill:rgb(0,0,0);" />
<path d=" M470 425 L510 425 L450 525 L390 425 L430 425 L430 175 L470 175 Z" style="fill:rgb(255,0,0);" />
</g>
</svg>
