<?xml version="1.0" encoding="UTF-8"?>
<!DOCTYPE svg PUBLIC '-//W3C//DTD SVG 1.0//EN' 'http://www.w3.org/TR/2001/REC-SVG-20010904/DTD/svg10.dtd'>
<svg xmlns:xlink="http://www.w3.org/1999/xlink" xmlns="http://www.w3.org/2000/svg" width="834.10518283735" height="734.423451612018">
<!--Gegenereerd door de SIMaD-toepassing (http://www.dlw.be).-->
<g style="stroke:none;fill-rule:evenodd;" transform="matrix(1,0,0,-1,0,734.423451612018)">
<path d=" M456.03 22.5 L828.081465179556 666.920557745609 A45 45 0 0 1 789.11 734.42 L45 734.42 A45 45 0 0 1 6.02889295806601 666.919937423951 L6.03 666.92 L378.088892958066 22.4999374239509 A45 45 0 0 1 456.031465179556 22.5005577456088 Z" style="fill:rgb(255,0,0);" />
<path d=" M417.06 135 L711.16 644.42 L122.94 644.42 Z" style="fill:rgb(255,255,255);" />
<path d=" M449.2 390.8 L449.2 410.09 L481.34 365.09 L449.2 320.09 L449.2 339.37 L352.77 339.37 L352.77 390.8 Z" style="fill:rgb(0,0,0);" />
<path d=" M487.63 616.97 L524.262789646213 616.970819826272 A4.19 4.19 0 0 0 525.70935756525 616.813518719304 L525.709170948281 616.811872023902 A4.21 4.21 0 0 0 526.919606008012 616.002744300486 L526.919058859417 616.003277045017 A15.11 15.11 0 0 0 530.835948717764 600.285832600167 L530.835316923824 600.279156628929 A24.78 24.78 0 0 0 529.374462713676 597.00094667288 L529.37 597.01 L528.236328384778 595.133393974655 A5.8 5.8 0 0 0 527.019076688859 593.809673419903 L527.015751215601 593.813776125451 A1.6 1.6 0 0 0 526.298927173668 593.478172227996 L526.306111371115 593.471624411154 A7.46 7.46 0 0 0 524.956823208108 593.435021576686 L524.95 593.44 L482.38 594.45 L397.28 532.93 L374.22 587.77 L388.857406187722 587.777912279738 A7.06 7.06 0 0 1 391.275013060039 588.024683599723 L391.272415543477 588.024114104061 A6.55 6.55 0 0 1 395.007467778744 590.601706088995 L395.006261123255 590.593728582545 A7.54 7.54 0 0 1 396.326320680991 594.292904178113 L396.328743323402 594.290722781448 A15.14 15.14 0 0 1 395.750318821958 600.860993199803 L395.745896370021 600.868994071336 A6.67 6.67 0 0 1 391.139349992275 604.922935393032 L391.141168955346 604.924245484545 A6.82 6.82 0 0 1 388.434332763674 605.295422890201 L388.44 605.29 L341.932258434659 605.289437033761 A10.12 10.12 0 0 1 339.28505331218 605.061316105225 L339.280200492834 605.05694780169 A6.31 6.31 0 0 1 334.255871962442 601.009815800327 L334.264090417668 601.016782040351 A15.79 15.79 0 0 1 333.769787376837 593.60599494748 L333.769805985638 593.605546409747 A6.56 6.56 0 0 1 335.765895969533 589.781231438609 L335.764436153884 589.777435652446 A7.19 7.19 0 0 1 339.739307750312 587.773208148787 L339.740748346407 587.767784891122 A74.86 74.86 0 0 1 349.759251653593 587.767784891122 L349.76 587.77 L369.631695208937 540.64374327343 A198.5 198.5 0 0 1 357.953493644544 550.862075655612 L357.95568057219 550.862552308986 A63.21 63.21 0 0 1 303.947452043127 559.829250685043 L303.940150277826 559.828150206136 A64 64 0 0 1 272.204349199996 539.016971086781 L272.210549127466 539.015008769135 A63.87 63.87 0 0 1 258.273872716161 502.701141472284 L258.273817588813 502.709178420519 A65.23 65.23 0 0 1 281.211749353955 450.352021944542 L281.215182083185 450.342948010603 A63.2 63.2 0 0 1 322.493825280085 435.796899345369 L322.492323879501 435.805069798069 A65.52 65.52 0 0 1 363.375590485776 451.601338518317 L363.37249316565 451.603373559828 A36.47 36.47 0 0 1 369.211113961665 457.650534479329 L369.218196682841 457.644419240813 A212.44 212.44 0 0 1 379.262719285205 472.567946135588 L379.255301645483 472.569571694215 A63.97 63.97 0 0 1 385.060376610498 469.532924394987 L385.062475665718 469.531117007521 A20.05 20.05 0 0 1 400.729507483919 470.30980546699 L400.732824445364 470.302129961252 A23.92 23.92 0 0 1 412.388296960552 480.577286470133 L412.39142256795 480.584210761325 A25.17 25.17 0 0 1 414.923689790219 491.03642556693 L414.916873950676 491.033321698361 A18.17 18.17 0 0 1 412.384325361301 501.438809269646 L412.387475795254 501.437553954703 A16.12 16.12 0 0 1 410.952216410901 503.244351310038 L410.950497406936 503.248115823598 A26.73 26.73 0 0 0 406.598627721446 508.889353996912 L406.599826587837 508.884074186659 A25.77 25.77 0 0 0 405.505120046764 514.114505780088 L405.5 514.12 L484.54 571.61 L492.797299163103 559.173471534369 A202.37 202.37 0 0 1 480.993161456363 553.777236964902 L480.995100678449 553.774728762652 A63.58 63.58 0 0 1 450.340832415569 509.774623119088 L450.346744037136 509.783298165397 A62.23 62.23 0 0 1 462.459133863861 460.483804036053 L462.450597591834 460.478932149289 A63.9 63.9 0 0 1 508.499779533305 435.96099244495 L508.504337356783 435.955296646132 A61.12 61.12 0 0 1 551.9179349873 449.548491125465 L551.919216038801 449.545031238538 A65.65 65.65 0 0 1 575.048948607155 488.506874522043 L575.050614529594 488.507000862335 A60.86 60.86 0 0 1 568.254043037578 529.650648049345 L568.251964205446 529.653556267344 A65.37 65.37 0 0 1 536.466579535781 557.74718709883 L536.461479479716 557.746740121657 A46.92 46.92 0 0 1 526.642914668321 560.750136674372 L526.65 560.75 L514.6 562.54 L513.772854910711 562.69267571227 A2.01 2.01 0 0 0 513.20956274357 562.918293383483 L513.206550948249 562.910645083187 A2.01 2.01 0 0 0 512.748245612906 563.308528333917 L512.75 563.31 L512.24 563.98 L502.53 577.76 L522.317413445405 577.762461995491 A6.19 6.19 0 0 1 525.228480380847 578.285501209542 L525.226180072245 578.284501308089 A44.88 44.88 0 0 1 536.663453250452 584.053399383959 L536.667042687118 584.055282051165 A24.98 24.98 0 0 1 544.18359017567 593.196161694055 L544.17455914435 593.200461365987 A25.47 25.47 0 0 1 544.70889370186 615.417451717052 L544.712690006361 615.41378087457 A29.73 29.73 0 0 1 527.285967799662 630.939406208431 L527.288653903163 630.93967847521 A8.67 8.67 0 0 1 525.003043178739 631.47988638757 L525 631.48 L522.33 631.57 L489.29 631.57 L486.619801324425 631.48288881595 A6.34 6.34 0 0 1 483.164234287645 630.257819878764 L483.164407686477 630.25923928221 A6.03 6.03 0 0 1 481.176830387763 627.468253398838 L481.179114978093 627.4679478586 A12.11 12.11 0 0 1 480.710016394521 624.14992674128 L480.74918705776 622.331370973085 A5.53 5.53 0 0 1 480.993031472668 620.99636667863 L480.997311465493 620.998509620083 A5.09 5.09 0 0 1 482.280329850397 619.190813649619 L482.279444226399 619.194202128905 A8.77 8.77 0 0 1 484.917437545318 617.490242365455 L484.915278300714 617.486763339885 A6.08 6.08 0 0 1 486.176072331171 617.055893872898 L486.182205621517 617.048631199974 A7.87 7.87 0 0 1 487.637394613426 616.964890196034 L487.63 616.97 Z" style="fill:rgb(0,0,0);" />
<path d=" M451.77 388.23 L451.77 402.06 L478.18 365.09 L451.77 328.11 L451.77 341.94 L355.34 341.94 L355.34 388.23 Z" style="fill:rgb(255,255,0);" />
<path d=" M520.65 581.1 L498.098249692209 581.098582499112 A12.84 12.84 0 0 1 498.098249692209 577.621417500888 L498.099621342707 577.619428183176 A3.03 3.03 0 0 1 498.542326530259 576.660150090919 L498.54 576.66 L499.42 575.49 L501.637994022836 573.17399726982 A17.87 17.87 0 0 0 504.209640150073 569.92722508554 L504.21 569.93 L507.27 564.83 L510.88 558.58 L517.279773674778 558.576849031822 A62.99 62.99 0 0 0 552.313497317119 543.770979714203 L552.313531065642 543.778457562546 A59.91 59.91 0 0 0 572.106899655784 498.670513632823 L572.109854896666 498.670685275767 A58.85 58.85 0 0 0 552.31643618508 454.518217976543 L552.313993581556 454.514769340638 A60.24 60.24 0 0 0 512.613030909392 439.640037224938 L512.614247615331 439.650254973937 A59.54 59.54 0 0 0 473.070949057433 454.523576056712 L473.067482003887 454.515311585992 A58.63 58.63 0 0 0 453.275187678774 493.943734035013 L453.269532583803 493.943795825277 A61.25 61.25 0 0 0 466.180098393584 536.474238362799 L466.19251091978 536.467310861351 A60.72 60.72 0 0 0 490.381807128465 554.400616394596 L490.38 554.41 L497.76 556.87 L495.803544552728 561.495059724977 A75.46 75.46 0 0 1 489.544626498251 570.964778310817 L489.54 570.97 L485.05 576.81 L404.422294982083 517.759363177748 A5.91 5.91 0 0 1 402.40196444454 515.600616023993 L402.402809543914 515.601510265503 A12.74 12.74 0 0 1 400.681939179485 511.73487876765 L400.677748844841 511.727573367722 A4.93 4.93 0 0 1 400.912799223152 508.382491262302 L400.91441890271 508.38834580619 A5.72 5.72 0 0 1 402.107778079897 506.873533803846 L402.104027051147 506.872528130876 A46.45 46.45 0 0 0 407.58339045389 502.273512644773 L407.588046820908 502.269214888365 A16.56 16.56 0 0 0 411.055232123012 488.64940134628 L411.058217424734 488.657719200397 A19.88 19.88 0 0 0 404.254646035824 476.209153903009 L404.252032802777 476.207512299284 A20.93 20.93 0 0 0 386.319775158284 472.871091716071 L386.318059712482 472.865977851327 A18.84 18.84 0 0 0 383.450609122108 474.213729731048 L383.45 474.22 L380.755812594634 475.580787598877 A5.16 5.16 0 0 1 377.523883181906 476.006832931668 L377.524874734056 476.004717045521 A3.96 3.96 0 0 1 375.370587124502 474.379420793171 L375.371032770083 474.384195062807 A19.6 19.6 0 0 1 373.596649970069 471.167844248997 L373.6 471.16 L371.508840829007 466.824567395268 A48.68 48.68 0 0 0 354.160205691763 449.416023515065 L354.165828899849 449.404435291043 A63.64 63.64 0 0 0 331.264862232536 440.327776015972 L331.263044380519 440.332862492593 A60.39 60.39 0 0 0 291.722397221141 447.624614346125 L291.718249059542 447.62451282723 A58.41 58.41 0 0 0 265.985093686747 477.662779681914 L265.987778337296 477.660209692365 A60.02 60.02 0 0 0 265.903047902128 520.880241849355 L265.899753046979 520.880112178302 A60.16 60.16 0 0 0 295.598585594434 552.739019448502 L295.605779351003 552.736919551687 A58.58 58.58 0 0 0 356.498558740474 547.314875864994 L356.49933869051 547.315860935403 A38.14 38.14 0 0 0 363.872636979566 541.13505500728 L363.87 541.14 L370.809714537108 532.244435116697 A6.98 6.98 0 0 1 371.340978238113 531.603410331086 L371.344003198889 531.60702402241 A1.74 1.74 0 0 1 371.817592177802 531.246062926517 L371.815031560481 531.247542679714 A1.74 1.74 0 0 1 372.38902658244 531.088420348212 L372.385933779895 531.07662118034 A6.98 6.98 0 0 1 373.218231829226 531.041001416066 L373.22 531.05 L377.98 531.05 L353.51 591.11 L337.517888797025 592.244008758521 A45.76 45.76 0 0 0 337.517888797025 599.595991241479 L337.522681849164 599.588540946707 A1.21 1.21 0 0 0 337.753563398786 600.036280948417 L337.750839122025 600.044061450986 A3.04 3.04 0 0 0 338.279954295052 600.578938707314 L338.282065163143 600.574942874985 A4.16 4.16 0 0 0 340.135757865653 601.406470838519 L340.128284219508 601.406117672191 A9.9 9.9 0 0 0 342.345732909239 601.5354939305 L342.35 601.54 L388.02 601.54 L389.375047638337 601.504453640042 A3.2 3.2 0 0 0 390.148742799698 601.329092739698 L390.153490029601 601.327724327009 A4.49 4.49 0 0 0 392.969536403101 597.976220248944 L392.965115741888 597.97721782665 A6.81 6.81 0 0 0 392.573537954688 593.470691037862 L392.57200292173 593.468876561529 A3.29 3.29 0 0 0 391.509996687798 592.279409576004 L391.511285546217 592.28459935497 A5.34 5.34 0 0 0 389.938410523681 591.531624612707 L389.934532070315 591.523437408737 A9.2 9.2 0 0 0 388.238569317073 591.280942073978 L388.24 591.28 L378.67 591.21 L369.53 591.53 L394.94 527.26 L483.08 591.11 L486.13 590.28 L523.784671174162 589.871863008743 A12.54 12.54 0 0 1 526.6791122041 590.081993998518 L526.680227018867 590.081639842326 A7.05 7.05 0 0 1 531.025150089088 592.392897099957 L531.017556721186 592.393539192145 A16.16 16.16 0 0 1 533.748632566003 597.36396204041 L533.754345820329 597.368503289385 A19.74 19.74 0 0 1 530.835172231564 617.38444095564 L530.830013945978 617.386820677807 A7.36 7.36 0 0 1 529.007967613205 619.227410614993 L529.011226514544 619.229419946042 A8.9 8.9 0 0 1 526.222650207789 620.356428875749 L526.221259574707 620.352717926405 A8.68 8.68 0 0 1 523.292608090521 620.720898435011 L523.29 620.72 L488.744970409445 620.731698139781 A13.17 13.17 0 0 0 486.675499331467 620.807370764062 L486.678251431462 620.800511034143 A3.07 3.07 0 0 0 484.259412664856 622.700240444342 L484.251175658471 622.702264822714 A3.76 3.76 0 0 0 484.331115738029 625.869796044265 L484.332393700015 625.87298378615 A4.42 4.42 0 0 0 485.554880868966 627.243362447254 L485.554873754331 627.240720176749 A2.17 2.17 0 0 0 486.401587957957 627.720015996635 L486.396339206826 627.719454143988 A5.89 5.89 0 0 0 487.771890889509 627.812762931533 L487.78 627.81 L523.567321045099 627.817532131716 A6.19 6.19 0 0 0 526.47839580356 627.294536459924 L526.473131903326 627.281711611986 A32.47 32.47 0 0 0 534.036828867146 623.921544471322 L534.043656521875 623.931987942971 A21.92 21.92 0 0 0 539.384029080641 617.38868430677 L539.382466216522 617.385902002502 A24.7 24.7 0 0 0 543.349725328196 604.07648481297 L543.349342153394 604.074493806984 A20.82 20.82 0 0 0 538.339882921242 590.693044548068 L538.343636155729 590.685715679513 A27.04 27.04 0 0 0 523.614453808856 581.433282083223 L523.616383652875 581.439906161955 A9.66 9.66 0 0 0 520.649404743065 581.097899951551 L520.65 581.1 Z" style="fill:rgb(255,255,0);" />
</g>
</svg>
