<?xml version="1.0" encoding="UTF-8"?>
<!DOCTYPE svg PUBLIC '-//W3C//DTD SVG 1.0//EN' 'http://www.w3.org/TR/2001/REC-SVG-20010904/DTD/svg10.dtd'>
<svg xmlns:xlink="http://www.w3.org/1999/xlink" xmlns="http://www.w3.org/2000/svg" width="634.10909078959" height="561.21966478064">
<!--Gegenereerd door de SIMaD-toepassing (http://www.dlw.be).-->
<g style="stroke:none;fill-rule:evenodd;" transform="matrix(1,0,0,-1,0,561.21966478064)">
<path d=" M356.03 22.5 L628.08 493.72 L628.08115691476 493.720023806121 A45 45 0 0 1 589.110009424778 561.219999999999 L45 561.22 L44.9994015265995 561.21999999602 A45 45 0 0 1 6.0291380052857 493.719512996628 L6.03 493.72 L278.09 22.5 L278.088870574175 22.4999761938875 A45 45 0 0 1 356.03113845791 22.4999918379034 Z" style="fill:rgb(255,0,0);" />
<path d=" M317.06 95 L545.81 491.22 L88.3 491.22 Z" style="fill:rgb(255,255,255);" />
<path d=" M297.06 283.96 L282.06 283.96 L317.06 308.96 L352.06 283.96 L337.06 283.96 L337.06 208.96 L297.06 208.96 Z" style="fill:rgb(0,0,0);" />
<path d=" M371.95 469.87 L400.434318265636 469.872857419172 A3.26 3.26 0 0 0 401.559810311421 469.750470443437 L401.563819803298 469.750983360233 A3.28 3.28 0 0 0 402.506866521295 469.120594055217 L402.502180119004 469.109828277892 A11.75 11.75 0 0 0 405.548073888462 456.887460629517 L405.553222644152 456.891587903126 A19.27 19.27 0 0 0 404.417199212774 454.342310023664 L404.41 454.34 L403.532886250995 452.888811325171 A4.51 4.51 0 0 0 402.586368129651 451.85950457855 L402.577207258977 451.861926552182 A1.24 1.24 0 0 0 402.021668644637 451.601833492871 L402.031158773805 451.590136917871 A5.8 5.8 0 0 0 400.982114356532 451.561678986672 L400.98 451.57 L367.86 452.35 L301.68 404.5 L283.74 447.16 L295.119172609216 447.163928967717 A5.49 5.49 0 0 1 296.99915303079 447.355823313809 L297.000778052489 447.358616958463 A5.09 5.09 0 0 1 299.90328422341 449.361661823644 L299.905661769611 449.360987912465 A5.86 5.86 0 0 1 300.931596693431 452.235943892077 L300.927959664801 452.233514545628 A11.77 11.77 0 0 1 300.478286102602 457.341313931706 L300.486656995564 457.342245761654 A5.19 5.19 0 0 1 296.902252842565 460.496661872539 L296.897213323775 460.490220128629 A5.3 5.3 0 0 1 294.793660266562 460.778671741472 L294.8 460.78 L258.629483859484 460.78178550679 A7.87 7.87 0 0 1 256.570837181956 460.604383236004 L256.567620266953 460.610937183843 A4.91 4.91 0 0 1 252.658039801438 457.461742483802 L252.66313054731 457.456053621566 A12.28 12.28 0 0 1 252.278707309202 451.692629594048 L252.274269897371 451.697970531968 A5.1 5.1 0 0 1 253.826108082203 448.724798892825 L253.831682628681 448.722915896686 A5.59 5.59 0 0 1 256.922020907405 447.164691731811 L256.924212780227 447.160489398358 A58.22 58.22 0 0 1 264.715787219773 447.160489398358 L264.71 447.16 L280.169860067042 410.498162841233 A154.39 154.39 0 0 1 271.086749036681 418.445811891536 L271.094917160807 418.454106898162 A49.17 49.17 0 0 1 229.08282102453 425.429151339718 L229.084484051991 425.41997399624 A49.77 49.77 0 0 1 204.404939995059 409.236030484205 L204.391159866173 409.238203157204 A49.68 49.68 0 0 1 193.550795311396 380.992188951669 L193.551862708208 380.990697731981 A50.74 50.74 0 0 1 211.394429897588 340.264005725373 L211.39785998749 340.269982977868 A49.16 49.16 0 0 1 243.506374221028 328.955366642696 L243.509585239612 328.959498731832 A50.96 50.96 0 0 1 275.307681488937 341.245485514247 L275.312537184247 341.24363333952 A28.37 28.37 0 0 1 279.854398220248 345.947717663245 L279.844369412097 345.949651624739 A165.23 165.23 0 0 1 287.656723345389 357.556761156012 L287.66304919279 357.555716613838 A49.75 49.75 0 0 1 292.177704968643 355.194090440184 L292.171236689703 355.197262550985 A15.59 15.59 0 0 1 304.353233001212 355.802736520218 L304.361610981763 355.799097712345 A18.6 18.6 0 0 1 313.424812853941 363.788976937478 L313.416223118483 363.795081321777 A19.57 19.57 0 0 1 315.385093722769 371.921813259828 L315.394239346343 371.917162113255 A14.13 14.13 0 0 1 313.424789067429 380.009046504133 L313.42209320659 380.007129802545 A12.54 12.54 0 0 1 312.305582445382 381.412665671507 L312.308164133946 381.410757262086 A20.79 20.79 0 0 0 308.923376935313 385.798386756318 L308.916849945135 385.800022795596 A20.05 20.05 0 0 0 308.065128325092 389.869489363243 L308.07 389.87 L369.55 434.59 L375.963028121941 424.915948185584 A157.4 157.4 0 0 1 366.781964783473 420.71884616433 L366.791192647834 420.721606437766 A49.45 49.45 0 0 1 342.949519706667 386.500070985198 L342.945227565441 386.497922725457 A48.4 48.4 0 0 1 352.365758942807 348.154751974047 L352.369353682538 348.146947227224 A49.7 49.7 0 0 1 388.18538408146 329.077438568295 L388.180978369461 329.074126350738 A47.54 47.54 0 0 1 421.948688306549 339.647105171869 L421.954244797276 339.64477524813 A51.06 51.06 0 0 1 439.943645329495 369.947771715088 L439.943734666957 369.94684556068 A47.34 47.34 0 0 1 434.657016059792 401.950464650937 L434.647518130716 401.947786456047 A50.84 50.84 0 0 1 409.927173070202 423.796955669336 L409.927609948162 423.796625295272 A36.49 36.49 0 0 1 402.291646552579 426.132386769988 L402.29 426.14 L392.92 427.53 L392.285200640629 427.650882685705 A1.56 1.56 0 0 0 391.848018681554 427.825988991402 L391.846875454897 427.821097618341 A1.56 1.56 0 0 0 391.491175770087 428.129902504522 L391.49 428.13 L391.09 428.65 L383.54 439.37 L398.92493686446 439.379683710073 A4.81 4.81 0 0 1 401.187009871821 439.786116482928 L401.189350681953 439.785376268946 A34.9 34.9 0 0 1 410.08330923442 444.271440251786 L410.087255380733 444.265441563416 A19.43 19.43 0 0 1 415.933793319186 451.375421205584 L415.93243489005 451.381469951324 A19.81 19.81 0 0 1 416.34802843478 468.661351335485 L416.3412981146 468.660410824758 A23.12 23.12 0 0 1 402.789134730178 480.734156459432 L402.798017634753 480.738192626883 A6.75 6.75 0 0 1 401.018562911165 481.158769690223 L401.02 481.15 L398.93 481.22 L373.24 481.22 L371.156564752273 481.154470325336 A4.93 4.93 0 0 1 368.469507034478 480.201853577152 L368.47009486726 480.203852775052 A4.69 4.69 0 0 1 366.924201412705 478.033085976874 L366.924910247203 478.026487929646 A9.42 9.42 0 0 1 366.560012752798 475.44550040486 L366.56 475.45 L366.59714364779 474.042241368885 A4.3 4.3 0 0 1 366.786751438802 473.004172933468 L366.789106759008 472.996188230949 A3.96 3.96 0 0 1 367.787290021134 471.589807868859 L367.78366121582 471.596300938813 A6.82 6.82 0 0 1 369.835099554726 470.271214747167 L369.839188770612 470.26869900617 A4.73 4.73 0 0 1 370.8200366951 469.933499638193 L370.814103356636 469.928922960441 A6.12 6.12 0 0 1 371.945711562076 469.863802772802 L371.95 469.87 Z" style="fill:rgb(0,0,0);" />
<path d=" M299.06 285.96 L288.3 285.96 L317.06 306.5 L345.82 285.96 L335.06 285.96 L335.06 210.96 L299.06 210.96 Z" style="fill:rgb(255,255,0);" />
<path d=" M397.63 441.97 L380.082002681088 441.972682178047 A9.99 9.99 0 0 1 380.082002681088 439.267317821953 L380.087592860987 439.259818650922 A2.36 2.36 0 0 1 380.432406118865 438.512658190441 L380.43 438.52 L381.12 437.6 L382.842558305396 435.805006270313 A13.9 13.9 0 0 0 384.842887413879 433.279537139843 L384.84 433.28 L387.22 429.32 L390.03 424.45 L395.007395871608 424.447558803916 A48.99 48.99 0 0 0 422.254611438821 412.932404528233 L422.254949296416 412.934959736923 A46.59 46.59 0 0 0 437.647588966166 377.856022870192 L437.649887147331 377.851639168596 A45.77 45.77 0 0 0 422.255753342245 343.512498501043 L422.254246336254 343.518441958979 A46.85 46.85 0 0 0 391.37791663521 331.950028950669 L391.375529174772 331.950198317821 A46.31 46.31 0 0 0 360.618892355554 343.518614497587 L360.617662960553 343.51274447077 A45.6 45.6 0 0 0 345.224031351733 374.178548047017 L345.229639710896 374.175089520265 A47.64 47.64 0 0 0 355.271425101557 407.255094132306 L355.272699122879 407.261121409447 A47.23 47.23 0 0 0 374.08792408889 421.210232416284 L374.08 421.21 L379.83 423.12 L378.297342531792 426.716726580329 A58.69 58.69 0 0 1 373.429387444102 434.081923906253 L373.43 434.09 L369.94 438.63 L307.224442794853 392.703429884541 A4.6 4.6 0 0 1 305.651935100658 391.023186753024 L305.661259324812 391.027344471547 A9.91 9.91 0 0 1 304.322654416695 388.019627047678 L304.316238432834 388.019631118504 A3.84 3.84 0 0 1 304.499320287404 385.414131125201 L304.500238444912 385.414849515362 A4.45 4.45 0 0 1 305.42863842586 384.236368185733 L305.427758823637 384.24044007252 A36.13 36.13 0 0 0 309.689748053801 380.663208005504 L309.694036416262 380.653833802062 A12.88 12.88 0 0 0 312.390736095676 370.060645491551 L312.388633872554 370.06408143049 A15.46 15.46 0 0 0 307.097727957573 360.383255675043 L307.094462208753 360.381614917933 A16.28 16.28 0 0 0 293.146198737547 357.786444010398 L293.145205428414 357.79444146482 A14.65 14.65 0 0 0 290.915473432429 358.842454509995 L290.92 358.84 L288.823063600714 359.896503571585 A4.01 4.01 0 0 1 286.311428528067 360.227596896836 L286.313791562575 360.223668844816 A3.08 3.08 0 0 1 284.638234488796 358.95954959592 L284.634476351077 358.959649410635 A15.24 15.24 0 0 1 283.254803237979 356.458772529286 L283.26 356.46 L281.634957144334 353.080228463124 A37.86 37.86 0 0 0 268.142366217957 339.541044582588 L268.134767005869 339.551099977274 A49.49 49.49 0 0 0 250.3257020401 332.492585245911 L250.324590073737 332.487781938683 A46.97 46.97 0 0 0 219.570753394221 338.15914449143 L219.574193712977 338.157954421178 A45.43 45.43 0 0 0 199.559517311914 361.521050863711 L199.563676692593 361.517634688854 A46.68 46.68 0 0 0 199.497778674964 395.131614287369 L199.4963953635 395.131897420591 A46.79 46.79 0 0 0 222.594938829182 419.910459108966 L222.597704117987 419.911168569049 A45.56 45.56 0 0 0 269.956444797132 415.694229163693 L269.954860659689 415.691930659257 A29.66 29.66 0 0 0 275.68878900928 410.88535740734 L275.69 410.89 L281.089992995623 403.970570355716 A5.43 5.43 0 0 1 281.503282691714 403.471893502589 L281.500002481897 403.47217381049 A1.35 1.35 0 0 1 281.867442206916 403.192117787815 L281.872007074855 403.189990090826 A1.35 1.35 0 0 1 282.317348046379 403.066533044991 L282.3145019649 403.05848892133 A5.43 5.43 0 0 1 282.961977383918 403.030779046599 L282.96 403.04 L286.66 403.04 L267.63 449.75 L255.19502102898 450.630984958824 A35.59 35.59 0 0 0 255.19502102898 456.349015041176 L255.193157813134 456.347461609387 A0.94 0.94 0 0 0 255.372520367889 456.695292688401 L255.37180524746 456.7054357376 A2.37 2.37 0 0 0 255.78430614839 457.122428933772 L255.788382458924 457.115039885141 A3.23 3.23 0 0 0 257.227667876906 457.760673290883 L257.221998837395 457.768091522815 A7.7 7.7 0 0 0 258.94668115163 457.8687175015 L258.95 457.86 L294.47 457.86 L295.525146270591 457.837903005772 A2.49 2.49 0 0 0 296.127177827551 457.701450347222 L296.128592529844 457.702819110066 A3.49 3.49 0 0 0 298.317457037499 455.097752427666 L298.322762641557 455.100888967868 A5.3 5.3 0 0 0 298.018010449316 451.593606828292 L298.015874593075 451.588609078239 A2.56 2.56 0 0 0 297.189511063588 450.663066392678 L297.189089013804 450.669641862333 A4.15 4.15 0 0 0 295.966723603882 450.084464840925 L295.96667425938 450.07696491357 A7.15 7.15 0 0 0 294.648616246778 449.888503888366 L294.65 449.89 L287.2 449.83 L280.09 450.08 L299.85 400.1 L368.41 449.75 L370.78 449.1 L400.066000314839 448.789223631199 A9.75 9.75 0 0 1 402.316462838116 448.952602989278 L402.323070174721 448.957912968073 A5.48 5.48 0 0 1 405.700400416389 450.754464767702 L405.693408772234 450.75761045086 A12.57 12.57 0 0 1 407.817766791748 454.623836809898 L407.828427245561 454.616282442415 A15.36 15.36 0 0 1 405.556972921825 470.190993570346 L405.557918466094 470.191791098347 A5.73 5.73 0 0 1 404.139395981476 471.624750383683 L404.129785212905 471.615436568677 A6.92 6.92 0 0 1 401.961588700888 472.491717732605 L401.968433199653 472.496606751112 A6.75 6.75 0 0 1 399.690968155472 472.78292216469 L399.69 472.79 L372.811924399608 472.779104467234 A10.25 10.25 0 0 0 371.201288038472 472.837999307025 L371.203882994921 472.843752895639 A2.39 2.39 0 0 0 369.320813101453 474.322695368366 L369.312485287054 474.322881896423 A2.93 2.93 0 0 0 369.374778996551 476.791197403568 L369.38326568508 476.786756611845 A3.44 3.44 0 0 0 370.334703662724 477.853295660306 L370.328956913905 477.856643764544 A1.69 1.69 0 0 0 370.988379476908 478.229920267092 L370.987357377864 478.231816679004 A4.58 4.58 0 0 0 372.056971423546 478.304372522313 L372.06 478.3 L399.904864896336 478.300311715765 A4.81 4.81 0 0 0 402.166944073525 477.893912822655 L402.159581517647 477.893321075416 A25.26 25.26 0 0 0 408.043751068189 475.279282825549 L408.04466440228 475.28351251951 A17.05 17.05 0 0 0 412.198558063474 470.193944944517 L412.194319049425 470.191763988539 A19.21 19.21 0 0 0 415.279786380312 459.84059372372 L415.289488130883 459.841219965088 A16.2 16.2 0 0 0 411.391638007883 449.429141291004 L411.389743652181 449.426257423823 A21.03 21.03 0 0 0 399.934318180482 442.230300377595 L399.932964930962 442.23202849651 A7.51 7.51 0 0 0 397.626338470023 441.966141680761 L397.63 441.97 Z" style="fill:rgb(255,255,0);" />
</g>
</svg>
