<?xml version="1.0" encoding="UTF-8"?>
<!DOCTYPE svg PUBLIC '-//W3C//DTD SVG 1.0//EN' 'http://www.w3.org/TR/2001/REC-SVG-20010904/DTD/svg10.dtd'>
<svg xmlns:xlink="http://www.w3.org/1999/xlink" xmlns="http://www.w3.org/2000/svg" width="900" height="900.000000000017">
<!--Gegenereerd door de SIMaD-toepassing (http://www.dlw.be).-->
<g style="stroke:none;fill-rule:evenodd;" transform="matrix(1,0,0,-1,0,900.000000000017)">
<path d=" M19.04 655.14 L244.858157089817 880.962038643859 A65 65 0 0 0 290.820046513025 899.999999999983 L609.180047647489 899.999999999982 A65 65 0 0 0 655.141909491814 880.961972062416 L655.14 880.96 L880.961973666789 655.141907887439 A65 65 0 0 0 899.999999999984 609.180045378561 L899.999999999984 290.819954621439 A65 65 0 0 0 880.961973666789 244.858092112561 L880.96 244.86 L655.141908689626 19.0380271353977 A65 65 0 0 0 609.180046513025 1.66409108715015E-11 L290.819954621439 1.58451030074502E-11 A65 65 0 0 0 244.858092112561 19.0380263332111 L244.86 19.04 L19.0380263332111 244.858092112561 A65 65 0 0 0 1.58451030074502E-11 290.819954621439 L1.58451030074502E-11 609.180045378561 A65 65 0 0 0 19.0380263332111 655.141907887439 Z" style="fill:rgb(255,255,255);stroke:rgb(0,0,0);" />
<path d=" M32.5 622.64 L277.36 867.5 L622.64 867.5 L867.5 622.64 L867.5 277.36 L622.64 32.5 L277.36 32.5 L32.5 277.36 Z" style="fill:rgb(255,0,0);" />
<path d=" M324.43 300 L324.43 561.43 L268.71 561.43 L268.71 600 L423 600 L423 561.43 L367.29 561.43 L367.29 300 Z" style="fill:rgb(255,255,255);" />
<path d=" M87.43 385.71 L87.4300000000062 372.860030965981 A77.14 77.14 0 1 1 219.116222812796 427.406211388663 L219.12 427.41 L143.356801747768 510.216791381041 A30 30 0 1 0 194.57 531.429998429204 L237.43 531.429996185059 A72.86 72.86 0 1 1 113.050212511412 479.910187334088 L113.05 479.91 L188.81669364281 397.106689410964 A34.29 34.29 0 1 0 130.280000000003 372.860013166415 L130.29 372.86 L130.29 385.71 Z" style="fill:rgb(255,255,255);" />
<path d=" M450 372.86 L450.000000000001 527.13998653653 A77.14 77.14 0 0 0 604.279999999999 527.14001346347 L604.29 527.14 L604.28 372.86 A77.14 77.14 0 0 0 450 372.86 Z M492.86 368.57 L492.850000000001 531.429994015266 A34.29 34.29 0 0 0 561.429999999999 531.430005984734 L561.43 368.57 A34.29 34.29 0 0 0 492.85 368.57 Z" style="fill:rgb(255,255,255);" />
<path d=" M658.29 300 L658.29 600 L744.000077790198 599.999999999956 A68.57 68.57 0 0 0 812.569999999979 531.430053854752 L812.569999999978 501.429944948476 A68.57 68.57 0 0 0 744.000076593425 432.860000000043 L701.14 432.86 L701.14 300 Z M701.14 561.43 L739.710034033921 561.429999999981 A30 30 0 0 0 769.709999999991 531.430023561945 L769.709999999991 501.429976438055 A30 30 0 0 0 739.710034033921 471.430000000019 L701.14 471.43 Z" style="fill:rgb(255,255,255);" />
</g>
</svg>
