<?xml version="1.0" encoding="UTF-8"?>
<!DOCTYPE svg PUBLIC '-//W3C//DTD SVG 1.0//EN' 'http://www.w3.org/TR/2001/REC-SVG-20010904/DTD/svg10.dtd'>
<svg xmlns:xlink="http://www.w3.org/1999/xlink" xmlns="http://www.w3.org/2000/svg" width="1046.15227785875" height="1046.15227644453">
<!--Gegenereerd door de SIMaD-toepassing (http://www.dlw.be).-->
<g style="stroke:none;fill-rule:evenodd;" transform="matrix(1,0,0,-1,0,1046.15227644453)">
<path d=" M19.04 477.11 L477.118024728838 19.0380937169368 A65 65 0 0 1 569.041975271162 19.0380937169368 L569.04 19.04 L1027.11190628306 477.118024728838 A65 65 0 0 1 1027.11190628306 569.041975271162 L1027.11 569.04 L569.041975271162 1027.11190628306 A65 65 0 0 1 477.118024728838 1027.11190628306 L477.11 1027.11 L19.0380937169368 569.041975271162 A65 65 0 0 1 19.0380937169368 477.118024728838 Z" style="fill:rgb(255,255,255);stroke:rgb(0,0,0);" />
<path d=" M143.33 523.08 L523.08 143.33 L902.82 523.08 L523.08 902.82 Z" style="fill:rgb(0,0,0);" />
<path d=" M178.14 523.08 L523.08 178.14 L868.02 523.08 L523.08 868.02 Z" style="fill:rgb(255,128,0);" />
</g>
</svg>
