<?xml version="1.0" encoding="UTF-8"?>
<!DOCTYPE svg PUBLIC '-//W3C//DTD SVG 1.0//EN' 'http://www.w3.org/TR/2001/REC-SVG-20010904/DTD/svg10.dtd'>
<svg xmlns:xlink="http://www.w3.org/1999/xlink" xmlns="http://www.w3.org/2000/svg" width="700" height="700">
<!--Gegenereerd door de SIMaD-toepassing (http://www.dlw.be).-->
<g style="stroke:none;fill-rule:evenodd;" transform="matrix(1,0,0,-1,0,700)">
<path d=" M700 350 A350 350 0 0 1 0 350 A350 350 0 0 1 700 350 Z" style="fill:rgb(255,0,0);" />
<path d=" M600 350 A250 250 0 0 1 100 350 A250 250 0 0 1 600 350 Z" style="fill:rgb(255,255,255);" />
<path d=" M285.429124942259 466.935768131415 A27.21 27.21 0 0 0 297.290875057741 466.935768131415 L297.291591122179 466.939589057512 A4.16 4.16 0 0 1 299.246389767352 474.241436147092 L299.251671886031 474.23962805891 A18.6 18.6 0 0 1 288.694659385212 475.282857759664 L288.693863786654 475.29147310582 A89.85 89.85 0 0 0 262.404475236687 474.00055550031 L262.4 474 L247.095871861088 415.224630355036 A88 88 0 0 1 196.716808670356 416.363967627652 L196.72 416.36 L197.510550967998 413.470877037134 A85 85 0 0 0 246.338509547745 412.316353015979 L246.34 412.32 L245.076009224258 407.468373428585 A80 80 0 1 1 207.390481918767 252.499999659753 L207.39 252.5 L150 252.5 L150 245 L550 245 L550 252.5 L492.609513944803 252.49999899952 A80 80 0 0 1 550.305351690728 369.672732724329 L550.31 369.67 L554.594717445659 372.250805258329 A85 85 0 0 0 557.387048220973 366.660272576372 L557.39 366.66 L560.118353899279 367.901227568172 A88 88 0 0 1 442.934037414097 411.312996545553 L442.93 411.31 L424.19 447.81 L428.467302471982 456.802438681138 A3.22 3.22 0 0 0 431.115291187041 458.504107726595 L431.11627405718 458.511659325656 A7.9 7.9 0 0 1 435.036894015412 460.473651189634 L435.037584981162 460.466638925697 A4.35 4.35 0 0 1 432.315189012548 467.82108783842 L432.316824623558 467.819245233317 A119.77 119.77 0 0 1 395.159768604984 467.27536504235 L395.157565587825 467.278978033025 A3.94 3.94 0 0 1 395.76238803223 459.651934802687 L395.76 459.65 L416.145275642511 458.817219048621 A3.26 3.26 0 0 0 419.409892603787 454.052315938862 L419.41 454.06 L416.77 448.5 L262.99 448.5 L267.295436028298 465.02100477881 A53.81 53.81 0 0 1 285.431132305002 466.951472357783 Z M355.5 384 L374.5 384 L374.5 377 L368 377 L367.999999675231 355.311761840498 A24 24 0 0 0 372.036475685465 354.445326537835 L372.04 354.45 L413.44 441.5 L261.17 441.5 L258.91 432.82 L349.799424049455 350.072627460102 A24 24 0 0 0 362.000000740363 355.311761892858 L362 355.31 L362 377 L355.5 377 Z M374.5 286 L374.5 279 L355.5 279 L355.5 286 L362 286 L361.999999077988 307.688238316581 A24 24 0 0 0 345.086872204585 344.896542143533 L345.09 344.9 L256.92 425.17 L253.696130160436 412.793116634873 A88 88 0 0 0 307.138550269597 319.216960599553 L307.14 319.22 L304.167917252829 319.635696172092 A85 85 0 0 1 304.998323039534 330.966070728482 L305 330.97 L299.996861849908 330.791413966622 A80 80 0 0 0 232.609524975283 252.500000760141 L232.61 252.5 L467.390473645906 252.500000980219 A80 80 0 0 0 400.07659943391 327.99999400682 L400.08 328 L395.072089260788 328.000003218218 A85 85 0 0 1 396.341586167701 316.457733047716 L396.34 316.46 L393.388934908722 315.926837066465 A88 88 0 0 0 392.069629964291 327.999996373828 L392.07 328 L388.743420058522 327.999999439349 A24 24 0 0 0 368.000000506418 307.688238264221 L368 307.69 L368 286 Z M224.063161915657 341.722070007937 A11 11 0 1 1 230.544122420103 328.366075560917 L230.54 328.37 L291.993219870054 330.51192472857 A72 72 0 1 0 243.055307777113 399.708890793669 L243.06 399.71 L233.124633444125 361.576368761234 A42.57 42.57 0 0 0 224.061540511256 341.7171598682 Z M304.75 337.96 L299.752565600695 337.787151986936 A80 80 0 0 1 251.658655084602 404.969242259834 L251.66 404.97 L252.932552876511 409.861004083892 A85 85 0 0 0 304.754026598961 337.961808977576 Z M229.425440494503 337.171073221586 A11 11 0 0 0 230.299826286989 335.361810256583 L230.3 335.36 L291.748923777502 337.50765651233 A72 72 0 0 1 249.616341016086 397.126765460587 L249.62 397.13 L240.019356981477 360.290479337193 A49.27 49.27 0 0 0 229.422271237276 337.175103645931 Z M450.480949408693 396.622005898067 A71.5 71.5 0 0 0 539.406141109145 371.288948195703 L539.41 371.29 L492.017290851582 342.80640175248 A16.5 16.5 0 0 1 475.745246260674 347.441990798445 L475.75 347.44 Z M436.707567192532 408.114393305768 A88 88 0 0 1 392.069629719945 334.999997487474 L392.07 335 L388.743420486128 334.999997659845 A24 24 0 0 1 378.358018709595 351.438990349416 L378.36 351.44 L420.4 439.85 Z M440.366299847332 400.992228430296 A80 80 0 0 1 400.07659906739 334.999997623621 L400.08 335 L395.072089199702 334.99999529951 A85 85 0 0 0 438.079523093908 405.443719246233 L438.08 405.44 Z M550.99 378.25 L546.699302967217 375.672423339538 A80 80 0 0 1 446.592764919235 404.190829161996 L446.59 404.19 L444.305987936879 408.642319791654 A85 85 0 0 0 550.988666774827 378.250499350623 Z M543.012193123707 365.289251511992 A71.5 71.5 0 1 0 408.585715786734 327.99999852759 L408.59 328 L463.875484458974 328.000000204684 A16.5 16.5 0 1 1 495.623344995314 336.806702474926 L495.62 336.81 Z M444.254484009809 393.423404998393 A71.5 71.5 0 0 1 408.585715542388 334.999996486752 L408.59 335 L463.875484825493 335.000001483871 A16.5 16.5 0 0 0 469.518773108551 344.243385847175 L469.52 344.24 Z" style="fill:rgb(0,0,0);" />
</g>
</svg>
