<?xml version="1.0" encoding="UTF-8"?><!DOCTYPE svg PUBLIC '-//W3C//DTD SVG 1.0//EN' 'http://www.w3.org/TR/2001/REC-SVG-20010904/DTD/svg10.dtd'><svg xmlns:xlink="http://www.w3.org/1999/xlink" xmlns="http://www.w3.org/2000/svg"><!--Gegenereerd door de SIMaD (http://www.dlw.be).-->
<g style="stroke:none;fill-rule:evenodd;" transform="matrix(1,0,0,-1,0,700)">
<path d=" M700 350 A350 350 0 0 1 0 350 A350 350 0 0 1 700 350 Z" style="fill:rgb(255,0,0);" />
<path d=" M600 350 A250 250 0 0 1 100 350 A250 250 0 0 1 600 350 Z" style="fill:rgb(255,255,255);" />
<path d=" M330.32 178.1 L333.611319494369 190.334117124141 A1.15 1.15 0 0 0 334.989797639641 190.915509749524 L334.981368766559 190.916491835743 A34.23 34.23 0 0 1 340.360557215602 207.413587449141 L340.371232541232 207.416844233479 A29.31 29.31 0 0 1 350.088977148372 227.240805228288 L350.078623432443 227.238658181334 A77.69 77.69 0 0 1 360.840265531619 204.810447619721 L360.843775906404 204.809202819508 A1188.23 1188.23 0 0 0 363.932928304374 194.334502272121 L363.93 194.34 L367.04 190.62 L366.57 189.13 L367.104866141023 187.226623327589 A3.09 3.09 0 0 0 365.529839876444 183.450425876513 L365.529844489571 183.446516688194 A21.35 21.35 0 0 0 360.150811629294 181.53638199746 L360.150563341602 181.540501481277 A4.07 4.07 0 0 1 358.157864572014 178.410917935072 L358.16 178.41 L357.62 178.14 L357.717475159667 177.02032505256 A21.3 21.3 0 0 1 366.742990683491 176.499227848506 L366.749309418683 176.500479159408 A15.2 15.2 0 0 1 377.681104433267 181.015430709056 L377.68 181.02 L379.07 179.28 L384.45 181.54 L384.1 183.1 L384.79 183.8 L380.13 192.09 L380.109705276199 193.699738344515 A334.95 334.95 0 0 0 365.07981202584 242.303666091416 L365.08 242.3 L364.97 246.84 L366.460781549963 246.980757196616 A1.6 1.6 0 0 1 368.109852332859 248.558262634807 L368.11 248.56 L368.27 251.13 L369.281878857341 251.180995952049 A111.97 111.97 0 0 1 367.402142291194 292.133584980144 L367.397236030285 292.129631394595 A63.44 63.44 0 0 1 357.533288208643 318.849541907918 L357.54 318.85 L358.26 319.82 L356.57 322.95 L355.37 321.98 L355.127024529237 322.702032464278 A7.74 7.74 0 0 0 354.886389664545 328.480530500601 L354.893414433121 328.484856283664 A77.75 77.75 0 0 1 356.662059131541 336.548883278998 L356.656641334786 336.551530407569 A9.1 9.1 0 0 1 354.378454100304 343.390271522635 L354.372821660637 343.382300115104 A4.26 4.26 0 0 0 352.092560591032 345.127095489399 L352.100161288284 345.12603076568 A18.8 18.8 0 0 1 342.594242942524 345.009584708563 L342.592030343022 345.012866226411 A7.88 7.88 0 0 0 338.134241727663 342.534325303054 L338.137027918655 342.539193936411 A1.68 1.68 0 0 1 338.300076149412 340.843588766994 L338.300687126234 340.837830632767 A14.14 14.14 0 0 1 338.434713744559 334.371657438292 L338.427594897569 334.375828257172 A14.05 14.05 0 0 1 337.221335399937 329.547839448382 L337.226050499009 329.549904719096 A3.94 3.94 0 0 0 338.675852708294 329.071628518909 L338.67 329.07 L339.237873931299 323.777151137753 A2.65 2.65 0 0 1 342.181020383956 322.036955602954 L342.178403571443 322.036907191998 A3.3 3.3 0 0 0 344.381030751336 317.512079370037 L344.386490036566 317.506447641838 A49.77 49.77 0 0 1 335.400708331842 289.245531259614 L335.395452026714 289.2501517673 A3.49 3.49 0 0 0 333.472354216424 286.604399490463 L333.470631944251 286.597030736082 A69.3 69.3 0 0 1 316.147332598938 272.393534993254 L316.15 272.39 L316.875364676113 271.197468960434 A8.28 8.28 0 0 1 309.931080111036 268.073181765659 L309.935839776249 268.065244504686 A7.46 7.46 0 0 1 311.039446232438 261.684105979716 L311.036774794096 261.691327615184 A6.16 6.16 0 0 1 315.711332488394 261.793103296361 L315.711757367465 261.791425055072 A3.04 3.04 0 0 0 321.488760052883 263.560131136467 L321.491174014053 263.550876858813 A78.86 78.86 0 0 0 333.989658423957 271.216064085766 L333.99 271.22 L329.511879972107 250.821523424607 A2.78 2.78 0 0 1 332.105633192406 246.930374555493 L332.101455372138 246.929544626696 A27.6 27.6 0 0 0 334.813696121048 246.811605413828 L334.813081542425 246.814097866034 A38.87 38.87 0 0 0 328.738448009757 220.790900816859 L328.740707496853 220.783643684022 A87.77 87.77 0 0 0 320.41091651587 189.870605433909 L320.41 189.87 L319.021782680807 189.874524270161 A3.9 3.9 0 0 0 313.943458375206 187.3835269972 L313.934912942391 187.374037501241 A20.81 20.81 0 0 1 310.688540515772 187.609645542241 L310.687168774233 187.617242186087 A4.73 4.73 0 0 1 305.827213112129 184.316917253993 L305.83 184.32 L308.085775103734 182.061461471118 A19.2 19.2 0 0 1 323.70118708753 179.109649538077 L323.71 179.11 L323.36 177.02 L329.43 176.33 L329.78 178.06 Z" style="fill:rgb(0,0,0);" />
<path d=" M317.713472637418 518.472763846694 A13.61 13.61 0 0 0 323.646527362582 518.472763846694 L323.65079556109 518.469794528756 A2.08 2.08 0 0 1 324.628194883676 522.120718073546 L324.625836093285 522.119813968092 A9.3 9.3 0 0 1 319.347329851979 522.641428910596 L319.340957833016 522.650640755853 A44.92 44.92 0 0 0 306.19772729813 522.005253713812 L306.2 522 L298.547935930544 492.612315177518 A44 44 0 0 1 273.358404335178 493.181983813826 L273.36 493.18 L273.75527619933 491.735438714825 A42.5 42.5 0 0 0 298.169254773872 491.15817650799 L298.17 491.16 L297.538004612129 488.734186714292 A40 40 0 1 1 278.695240959384 411.249999829876 L278.7 411.25 L250 411.25 L250 407.5 L450 407.5 L450 411.25 L421.304756972401 411.24999949976 A40 40 0 0 1 450.152675845364 469.836366362165 L450.15 469.84 L452.297359078447 471.125401978203 A42.5 42.5 0 0 0 453.693524417318 468.330135612857 L453.69 468.33 L455.05917694964 468.950613784086 A44 44 0 0 1 396.467018707049 490.656498272777 L396.47 490.66 L387.09 508.9 L389.22865124919 513.406219365376 A1.61 1.61 0 0 0 390.552645621569 514.257053864996 L390.558137096381 514.255829675362 A3.95 3.95 0 0 1 392.518447058376 515.236825641565 L392.510197565315 515.24179459052 A2.17 2.17 0 0 1 391.152128771777 518.910565657327 L391.154115610795 518.914572906599 A59.89 59.89 0 0 1 372.574036417738 518.642610105923 L372.578782793913 518.639489016512 A1.97 1.97 0 0 1 372.881194016115 514.825967401343 L372.88 514.83 L383.077637793005 514.408609520953 A1.63 1.63 0 0 0 384.709946315225 512.026157994563 L384.7 512.03 L383.38 509.25 L306.5 509.25 L308.642397486382 517.505512673765 A26.91 26.91 0 0 1 317.711930768289 518.470925999688 Z M397.127242004904 481.711702499196 A35.75 35.75 0 0 1 379.292857771194 452.499998243376 L379.29 452.5 L406.937742412747 452.500000741936 A8.25 8.25 0 0 0 409.759386554276 457.121692923587 L409.76 457.12 Z M395.183149923666 485.496114215148 A40 40 0 0 1 375.038299533695 452.499998811811 L375.04 452.5 L372.536044599851 452.499997649755 A42.5 42.5 0 0 0 394.039761546954 487.721859623117 L394.04 487.72 Z M393.353783596266 489.057196652884 A44 44 0 0 1 371.034814859972 452.499998743737 L371.03 452.5 L369.371710243064 452.499998829922 A12 12 0 0 1 364.179009180797 460.719495291279 L364.18 460.72 L385.2 504.93 Z M362.25 428 L362.25 424.5 L352.75 424.5 L352.75 428 L356 428 L355.999999538994 438.844119158291 A12 12 0 0 0 347.543436102292 457.448271071767 L347.54 457.45 L303.46 497.58 L301.848065080218 491.396558317436 A44 44 0 0 0 328.569275134798 444.608480299777 L328.57 444.61 L327.08395872995 444.81784882055 A42.5 42.5 0 0 1 327.499161519767 450.483035364241 L327.5 450.48 L324.998430924954 450.395706983311 A40 40 0 0 0 291.304762487642 411.250000380071 L291.3 411.25 L408.695236822953 411.250000490109 A40 40 0 0 0 375.038299716955 448.99999700341 L375.04 449 L372.536044630394 449.000001609109 A42.5 42.5 0 0 1 373.17079308385 443.228866523858 L373.17 443.23 L371.694467454361 442.963418533232 A44 44 0 0 0 371.034814951602 448.999998954251 L371.03 449 L369.371710029261 448.999999719675 A12 12 0 0 0 359.000000253209 438.844119132111 L359 438.84 L359 428 Z M352.75 477 L362.25 477 L362.25 473.5 L359 473.5 L358.999999422022 462.655880972609 A12 12 0 0 0 361.018237442261 462.222663391727 L361.02 462.22 L381.72 505.75 L305.59 505.75 L304.46 501.41 L349.899712186804 460.036313862701 A12 12 0 0 0 356.000000370181 462.655880946429 L356 462.66 L356 473.5 L352.75 473.5 Z M289.712720296741 453.58553652854 A5.5 5.5 0 0 0 290.149913177195 452.680905038409 L290.15 452.68 L320.874461888751 453.753828256165 A36 36 0 0 1 299.808170508043 483.563382730294 L299.81 483.56 L295.009749593135 465.141079887864 A24.63 24.63 0 0 0 289.712282130589 453.585737828279 Z M327.38 453.98 L324.876282800348 453.893575993468 A40 40 0 0 1 300.829327542301 487.484621129917 L300.83 487.48 L301.466276438255 489.930502041946 A42.5 42.5 0 0 0 327.37701329948 453.980904488788 Z M287.031581047033 455.861034968511 A5.5 5.5 0 1 1 290.272061182703 449.183037688444 L290.27 449.18 L320.996609935027 450.255962364285 A36 36 0 1 0 296.527653888556 484.854445396834 L296.53 484.85 L291.557387824547 465.794024600401 A21.28 21.28 0 0 0 287.026905851058 455.866752689577 Z M450.49 474.13 L448.349651483609 472.836211669769 A40 40 0 0 1 398.296382459617 487.095414580998 L398.3 487.1 L397.152993295246 489.321159584338 A42.5 42.5 0 0 0 450.494333387414 474.125249675311 Z M446.506096561854 467.644625755996 A35.75 35.75 0 1 0 379.292857893367 448.999999263795 L379.29 449 L406.937742229487 449.000000102342 A8.25 8.25 0 1 1 422.811672497657 453.403351237463 L422.81 453.4 Z M400.240474704346 483.311002949033 A35.75 35.75 0 0 0 444.703070554572 470.644474097852 L444.7 470.64 L421.008645327124 456.403200981111 A8.25 8.25 0 0 1 412.872623130337 458.720995399222 L412.87 458.72 Z" style="fill:rgb(0,0,0);" />
</g>
</svg>
