<?xml version="1.0" encoding="UTF-8"?>
<!DOCTYPE svg PUBLIC '-//W3C//DTD SVG 1.0//EN' 'http://www.w3.org/TR/2001/REC-SVG-20010904/DTD/svg10.dtd'>
<svg xmlns:xlink="http://www.w3.org/1999/xlink" xmlns="http://www.w3.org/2000/svg" width="700" height="700">
<!--Gegenereerd door de SIMaD-toepassing (http://www.dlw.be).-->
<g style="stroke:none;fill-rule:evenodd;" transform="matrix(1,0,0,-1,0,700)">
<path d=" M700 350 A350 350 0 0 1 0 350 A350 350 0 0 1 700 350 Z" style="fill:rgb(255,0,0);" />
<path d=" M600 350 A250 250 0 0 1 100 350 A250 250 0 0 1 600 350 Z" style="fill:rgb(255,255,255);" />
<path d=" M164.24 263.75 L165.463854279615 265.6303273691 A96.87 96.87 0 0 1 164.37222937195 283.42328205083 L164.38599421909 283.430499546045 A12.43 12.43 0 0 0 165.568761549008 290.921726464537 L165.56 290.92 L171.335893743698 309.050472009466 A39.65 39.65 0 0 0 159.585590834105 332.023063358469 L159.58551580945 332.020393575404 A22.5 22.5 0 0 1 156.546213580667 340.521250450529 L156.55 340.53 L130.97 338.43 L129.265740291224 337.016519403617 A4.34 4.34 0 0 0 122.865423779747 336.960664631745 L122.865234411929 336.962690249225 A4.06 4.06 0 0 0 120.051472779796 337.405952893621 L120.05507385269 337.406553494712 A16.23 16.23 0 0 0 121.682772729285 347.551364154454 L121.68 347.55 L131.97 367.44 L131.456922195126 371.797559670312 A69.3 69.3 0 0 1 141.928120317588 387.946135597548 L141.929415517198 387.951225685193 A11.07 11.07 0 0 0 144.772507722747 384.07838392789 L144.774273569519 384.077253199128 A21.82 21.82 0 0 0 163.946365760744 373.956806443647 L163.941817902018 373.948137542173 A81.09 81.09 0 0 1 177.191064047088 358.005319087096 L177.201171167984 358.009236456898 A51.83 51.83 0 0 1 212.710616482848 351.927536133422 L212.711032486388 351.929313526974 A1138.13 1138.13 0 0 1 243.402012654512 358.121366996477 L243.396917887409 358.116466108243 A463.51 463.51 0 0 1 321.999004975457 382.343429673319 L321.998256568909 382.355708780319 A8.81 8.81 0 0 0 330.704534727617 381.180721772255 L330.702319410872 381.169251851052 A8.79 8.79 0 0 0 338.930082779615 386.073418679706 L338.935956918687 386.083678262072 A68.37 68.37 0 0 0 349.539257283988 405.040474489894 L349.533356441978 405.034269109175 A3.04 3.04 0 0 1 348.085269051574 410.161757303858 L348.087852559145 410.164417702971 A2.37 2.37 0 0 0 344.630528941115 412.320068963514 L344.63 412.32 L344.772978972326 414.814478031811 A1.06 1.06 0 0 0 343.047021027674 416.045521968189 L343.046311038294 416.051873223202 A4.05 4.05 0 0 1 344.400197675082 421.830878498365 L344.393769082102 421.832569526468 A2.62 2.62 0 0 0 341.112515613016 422.893443677277 L341.104406379658 422.895572635119 A2.6 2.6 0 0 0 344.376962867905 424.017086936817 L344.377373327267 424.012906505485 A18.51 18.51 0 0 0 356.379646311124 425.676614399023 L356.375946053668 425.67695152003 A4.35 4.35 0 0 0 358.471763212874 418.205545413119 L358.46807023456 418.205760853715 A18.52 18.52 0 0 0 358.541522003412 409.789013394222 L358.542461253575 409.78390093957 A20.29 20.29 0 0 0 366.169227409701 394.107062467604 L366.17 394.11 L366.35 373.53 L362.949523179473 369.280933135989 A65.89 65.89 0 0 1 398.250911927536 377.394226817846 L398.246575359744 377.405148585172 A12.67 12.67 0 0 0 407.874323410953 383.102377258204 L407.879079230022 383.094174295681 A30.7 30.7 0 0 0 431.085722224987 388.597500621663 L431.088764841613 388.599966836722 A5.36 5.36 0 0 1 436.083011195251 388.331889403682 L436.084662613799 388.337512480691 A7.11 7.11 0 0 0 441.546315744456 388.541106065727 L441.543745863174 388.534432253753 A8.94 8.94 0 0 1 447.941951805629 388.590268551111 L447.937111186454 388.59539099323 A19.38 19.38 0 0 0 456.042402221354 389.913538222821 L456.045680387922 389.909253687512 A4.76 4.76 0 0 0 460.888652939722 389.32793551912 L460.886549032513 389.336152017669 A8.81 8.81 0 0 1 470.875987794641 388.799941648987 L470.877898252554 388.79081212591 A15.09 15.09 0 0 0 480.552635030033 388.875242274678 L480.551755031954 388.874367212735 A21.48 21.48 0 0 1 491.328223666634 388.188770633312 L491.328905279668 388.191227623916 A17.06 17.06 0 0 0 501.481455042228 387.0328528531 L501.480884804077 387.040605971777 A5.92 5.92 0 0 1 507.880878393618 386.473211814895 L507.883883482249 386.465961877661 A8.44 8.44 0 0 0 517.255659503231 385.456562999378 L517.254963539886 385.454651190557 A18.79 18.79 0 0 0 528.830672883024 378.541543394094 L528.841151468638 378.544642266032 A19.44 19.44 0 0 0 543.545719870801 374.930636620038 L543.544914262225 374.926598721455 A15.23 15.23 0 0 0 558.113067232156 368.196347330672 L558.113396808078 368.194946234135 A19 19 0 0 0 567.522551522654 362.976638670582 L567.52 362.98 L567.51 292.84 L530.714513340411 292.673390523277 A31.23 31.23 0 1 0 468.288069004423 292.752197499215 L468.28 292.75 L362.5 292.76 L362.33 312.87 L341.26 312.69 L341.29 308.95 L357.52 309.09 L357.57 303.17 L340.721529905787 303.012902352113 A22.08 22.08 0 1 0 325.117966016418 302.876731976808 L325.11 302.88 L307.482188631214 302.734273599384 A28.54 28.54 0 0 0 299.977895510656 304.383398286342 L299.97 304.38 L298.88 304.37 L298.07 289.71 L292.177418553592 289.80969833169 A1348.35 1348.35 0 0 0 289.859339769246 305.067710124225 L289.857345034357 305.062555045173 A139.3 139.3 0 0 1 278.430238559896 309.016168167279 L278.430831751071 309.024850047779 A67.94 67.94 0 0 1 286.082043488932 290.6951649849 L286.072887001128 290.695118957904 A31.92 31.92 0 0 1 289.224499737831 269.362868301291 L289.23 269.36 L291.42 268.29 L287.276116517484 260.76897793371 A4.35 4.35 0 0 0 283.792078337639 266.20015512834 L283.794539077939 266.200369982783 A93.19 93.19 0 0 1 279.890195201986 284.406056947073 L279.897301784637 284.400146926578 A7.97 7.97 0 0 1 275.460984795255 289.97666459759 L275.46 289.98 L266.34 298 L251.457611047076 266.850435817384 A5.62 5.62 0 0 0 249.79846243555 260.127990464373 L249.8 260.13 L243.55 260.39 L243.364152753974 263.510217629179 A5.41 5.41 0 0 1 247.537662249704 267.752707565639 L247.547640175482 267.755659822413 A46.6 46.6 0 0 1 246.387812070749 311.241920728899 L246.381332434193 311.229570294955 A133.63 133.63 0 0 0 198.349051586505 306.912756987417 L198.353042690966 306.916734329725 A34.93 34.93 0 0 1 211.444690678972 273.353003124416 L211.44 273.36 L215.811807687523 273.861877192545 A5.12 5.12 0 0 0 217.863582937691 271.229549434549 L217.86322716701 271.231420515473 A3.83 3.83 0 0 0 213.688115697726 266.199970486012 L213.688365340511 266.214794910747 A90.8 90.8 0 0 0 182.366229945494 296.653206043911 L182.365220560793 296.650779992629 A180.18 180.18 0 0 0 170.04290392826 277.991283134891 L170.05 277.99 L169.81 269.72 L171.55 266.15 L170.63 264.59 L170.344204421839 261.307480757072 A7.16 7.16 0 0 0 164.260872845992 260.786592071743 L164.27 260.79 Z M133.3648916793 340.984743191449 A41.42 41.42 0 0 1 147.671391696466 354.706541173714 L147.67979837142 354.702217900759 A39.43 39.43 0 0 0 155.704403586618 342.982651939794 L155.692587659812 342.986034803252 A119.81 119.81 0 0 0 133.361580217048 340.981036738815 Z M285.148952541123 336.317176216211 A5.27 5.27 0 0 1 279.679131408013 339.960677814603 L279.690743052356 339.953977691648 A102.93 102.93 0 0 1 276.595783709883 315.971146674435 L276.59 315.98 L290.202575322376 311.41989875406 A116.14 116.14 0 0 1 285.147432195968 336.31885857865 Z M335.52 323.05 L305.24 322.94 L304.99 334.01 L307.17 334.34 L310.81 328.92 L317.3 336.77 L321.06 334.78 L329.7 345.61 L335.31 347.03 Z M327.68 308.84 L309.269011685498 308.370985974278 A30.38 30.38 0 0 0 297.858964123016 310.142507957217 L297.863571748852 310.145023470334 A67.97 67.97 0 0 1 290.592833545224 338.5784658172 L290.590153556192 338.580534163538 A15.35 15.35 0 0 1 280.06496039129 346.284850091977 L280.066819767601 346.27818720285 A2.91 2.91 0 0 1 278.489693938777 348.443631246069 L278.49028553565 348.444857191746 A50.96 50.96 0 0 1 258.624891421101 353.727708317691 L258.620595291394 353.734093548469 A152.28 152.28 0 0 1 227.917883160688 352.374823852246 L227.925091004212 352.374115440632 A2383.33 2383.33 0 0 0 247.678779306073 356.444023255082 L247.67992452446 356.446022885666 A353.49 353.49 0 0 1 320.514908362699 379.843188433591 L320.510567223832 379.843223387432 A9.31 9.31 0 0 0 324.719475234354 380.503686465867 L324.709950217232 380.497779965263 A5.89 5.89 0 0 1 327.972015573385 375.563802738524 L327.971795367512 375.57511245742 A94.69 94.69 0 0 1 327.200168877405 363.688835048334 L327.21049702432 363.685311143566 A6.33 6.33 0 0 1 322.868606220094 360.529714852077 L322.864288188401 360.529047210506 A11270.33 11270.33 0 0 1 313.799993886025 344.080497531415 L313.800145752633 344.079625587648 A3.46 3.46 0 0 1 313.526392661852 339.716243871091 L313.526979727119 339.71595822266 A9.62 9.62 0 0 0 304.781535281774 340.730553469512 L304.775246202462 340.729813985436 A3.6 3.6 0 0 1 299.783121003975 339.749615352027 L299.79 339.75 L302.95 334.82 L303.77 313.47 L327.65 312.9 Z M332.864427460759 376.519044237186 A14.16 14.16 0 0 1 335.248226318572 367.995440413894 L335.246643772311 367.995133157778 A8.49 8.49 0 0 1 338.015209879379 376.24820160852 L338.017519121807 376.254673865644 A24.67 24.67 0 0 0 332.864687897517 376.521527031131 Z M332.952539335695 366.856881005393 A43.13 43.13 0 0 0 330.838219693042 376.659728861796 L330.833665735967 376.661663260636 A13.65 13.65 0 0 1 330.317274280292 364.449640248632 L330.317490966243 364.453082872796 A5.01 5.01 0 0 1 332.945654236242 366.858640597859 Z" style="fill:rgb(0,0,0);" />
</g>
</svg>
