<?xml version="1.0" encoding="UTF-8"?>
<!DOCTYPE svg PUBLIC '-//W3C//DTD SVG 1.0//EN' 'http://www.w3.org/TR/2001/REC-SVG-20010904/DTD/svg10.dtd'>
<svg xmlns:xlink="http://www.w3.org/1999/xlink" xmlns="http://www.w3.org/2000/svg" width="700" height="700">
<!--Gegenereerd door de SIMaD-toepassing (http://www.dlw.be).-->
<g style="stroke:none;fill-rule:evenodd;" transform="matrix(1,0,0,-1,0,700)">
<path d=" M700 350 A350 350 0 0 1 0 350 A350 350 0 0 1 700 350 Z" style="fill:rgb(255,0,0);" />
<path d=" M600 350 A250 250 0 0 1 100 350 A250 250 0 0 1 600 350 Z" style="fill:rgb(255,255,255);" />
<path d=" M510.233980755099 191.53299105457 A1.74 1.74 0 0 1 508.679675903262 190.119986693659 L508.675001818891 190.125289788213 A29.61 29.61 0 0 1 508.227860401831 182.82982563785 L508.223726601475 182.826837416915 A85.09 85.09 0 0 0 508.388429880821 178.026914322338 L508.4 178.03 L493.331440519829 178.023961438589 A16.48 16.48 0 0 0 494.155155297289 182.589694414543 L494.160294784378 182.587987475788 A36.5 36.5 0 0 1 495.336866992891 187.082493176375 L495.333992014599 187.089809449306 A7.48 7.48 0 0 1 494.510572630559 192.90079707566 L494.517722077128 192.896416239899 A69.57 69.57 0 0 1 498.329790803309 215.439390551711 L498.329812366985 215.437845631956 A155.65 155.65 0 0 1 498.282752379775 231.720628483569 L498.272321523705 231.724950297839 A27.09 27.09 0 0 1 490.955364811462 249.605616153581 L490.967268927873 249.603194724944 A739.52 739.52 0 0 1 472.119656741966 268.239036003625 L472.111988539764 268.239208596087 A109.44 109.44 0 0 0 457.946685875093 284.851673284456 L457.949544914513 284.852934308565 A35.4 35.4 0 0 1 456.208438801579 271.88875154712 L456.204459205654 271.887307123676 A17.26 17.26 0 0 0 452.250937484465 260.45033354895 L452.254146756707 260.447992715464 A145.07 145.07 0 0 0 437.100658144779 244.706247438478 L437.102398761324 244.712014940013 A250.94 250.94 0 0 1 411.030780658183 217.652122567493 L411.03 217.65 L410.658442487353 212.234875806846 A7.01 7.01 0 0 0 407.692211811732 209.974890512017 L407.68727082561 209.984049347473 A15.36 15.36 0 0 0 412.157305541631 203.443682802001 L412.158267799026 203.437727405001 A16.59 16.59 0 0 0 402.042954661766 197.08625169949 L402.046324582185 197.089626810994 A11.9 11.9 0 0 0 397.011589266258 202.359630113617 L397.009789456394 202.360988178565 A12.57 12.57 0 0 0 397.033313449091 211.55885055503 L397.02916009599 211.560283945687 A41.87 41.87 0 0 0 402.181696841067 223.206428434504 L402.18780488218 223.199564883175 A3664.79 3664.79 0 0 1 426.659053493417 261.977081953578 L426.652208578031 261.988907201331 A64.69 64.69 0 0 1 431.663851357282 271.823962098871 L431.669204423709 271.821334880397 A11.98 11.98 0 0 1 431.833914468706 280.409783185622 L431.833820870154 280.406887337096 A38.04 38.04 0 0 1 424.633786929929 293.983421702118 L424.628631510169 293.97948886164 A82.15 82.15 0 0 0 409.945406070912 325.793144080478 L409.94236091253 325.800558647402 A133 133 0 0 0 363.165498088311 311.871029704649 L363.174147660768 311.870396264255 A391.85 391.85 0 0 0 323.361565481538 309.235048143048 L323.36 309.23 L313.937108392844 302.126534164477 A99.52 99.52 0 0 0 315.113551179902 267.162653350663 L315.119652907349 267.155022218247 A92.98 92.98 0 0 1 314.201999878322 251.460804767854 L314.198123519054 251.468536802938 A52.66 52.66 0 0 1 317.657303157844 234.031447150947 L317.659500421507 234.030455785055 A149.02 149.02 0 0 1 331.589504769609 201.982033698423 L331.589575476724 201.984908941798 A35.23 35.23 0 0 1 337.143006693445 194.78427333805 L337.142405840776 194.779470882857 A5.9 5.9 0 0 0 335.167393889053 191.205639756393 L335.170874214368 191.210063147419 A2.91 2.91 0 0 1 337.569438874778 189.32883598831 L337.572263515886 189.323071442775 A61.29 61.29 0 0 0 337.525202207457 178.02835585389 L337.526042596878 178.026316422361 A41.06 41.06 0 0 0 325.053957403122 178.026316422361 L325.052407988425 178.024183975983 A8.9 8.9 0 0 0 324.675799221882 185.132674717293 L324.677971620271 185.132328239024 A11.29 11.29 0 0 0 325.948342755692 192.095844121999 L325.948138947464 192.101612755066 A210.24 210.24 0 0 1 304.676954563372 229.090884572296 L304.670062105507 229.085194846204 A40.08 40.08 0 0 0 297.445938145865 241.533278271356 L297.452094763732 241.529904137157 A162.19 162.19 0 0 1 286.016594553485 269.836297181727 L286.013215520621 269.838980300503 A119.13 119.13 0 0 0 277.001207540456 292.757246176406 L277.000261533214 292.755782938087 A24.18 24.18 0 0 1 270.154294690447 289.791549754282 L270.155293432736 289.786709069302 A525.95 525.95 0 0 0 238.88365083659 271.503739807138 L238.883100620672 271.509998565231 A26.2 26.2 0 0 1 225.684241211018 243.041869887556 L225.678916561526 243.036316543582 A182.9 182.9 0 0 1 234.032221977008 214.870381690596 L234.039451870487 214.869810768747 A4.07 4.07 0 0 1 231.310669135424 213.223131520932 L231.309483292302 213.23206012816 A39.81 39.81 0 0 0 233.921509657172 208.784555901247 L233.914506961675 208.778204606689 A5.58 5.58 0 0 0 234.314198405989 204.804801199513 L234.318058922214 204.808216002236 A25.04 25.04 0 0 0 223.446958351434 197.090205138832 L223.449307326841 197.085179459296 A27.77 27.77 0 0 0 220.437971586329 204.660570792713 L220.445595268336 204.667156191429 A14.51 14.51 0 0 0 220.916053765129 212.900178430084 L220.91 212.9 L221.9 217.13 L212.012391422544 251.062069456314 A30.71 30.71 0 0 0 213.330046318167 272.709259949096 L213.328329380628 272.711370171397 A106.42 106.42 0 0 0 242.459155908134 305.136474812654 L242.461403796206 305.14331354098 A165.33 165.33 0 0 1 257.567347625675 317.661011480407 L257.563027378015 317.65080487498 A65.78 65.78 0 0 0 244.668271985148 343.299131743754 L244.668788071663 343.298920787407 A708.45 708.45 0 0 1 235.750904096135 376.946873368429 L235.756513245831 376.946237218063 A81.17 81.17 0 0 1 219.449971310619 407.065102305934 L219.45 407.07 L173.137728765669 386.40998801106 A2.19 2.19 0 0 1 171.841016191292 384.476707459954 L171.847554653105 384.479475931536 A5.27 5.27 0 0 0 171.212522068577 382.127503376291 L171.213639291843 382.121951284993 A2.45 2.45 0 0 0 169.282321807825 380.850107991372 L169.281359856367 380.860103185405 A41.23 41.23 0 0 0 161.798640143633 380.860103185405 L161.8 380.86 L160.573898027646 382.313465110835 A22.39 22.39 0 0 0 154.409592152032 383.066357374032 L154.415228131711 383.071465036955 A7.74 7.74 0 0 0 152.087118012849 384.129696944445 L152.078613292241 384.128560701048 A3.1 3.1 0 0 0 150.760730819401 387.258531524847 L150.769135643722 387.261272591748 A67.24 67.24 0 0 0 153.992698488169 404.81439586885 L153.985076769905 404.808953151968 A8500.43 8500.43 0 0 1 162.244114550387 430.315497136849 L162.247158638671 430.32163865195 A47.4 47.4 0 0 1 164.694029748474 443.050074446989 L164.692852985866 443.046007965832 A16.42 16.42 0 0 0 165.869334099503 448.34017285029 L165.866335381671 448.345633584993 A518.8 518.8 0 0 1 173.937056652035 469.616572288408 L173.945563932415 469.61064793226 A31.39 31.39 0 0 1 174.557358240443 488.670394115696 L174.552697875304 488.667116076734 A23.06 23.06 0 0 0 182.457109680994 478.457250685152 L182.460761829756 478.459370176459 A37.22 37.22 0 0 0 188.672678913705 488.812565329512 L188.67826308389 488.813570230803 A5.85 5.85 0 0 0 191.876511326765 490.741925802442 L191.870025306127 490.744927036999 A217.53 217.53 0 0 1 192.058266785478 481.59169058289 L192.05656222098 481.589396065944 A21.91 21.91 0 0 1 208.150609662956 466.718872538575 L208.159054527999 466.72343900037 A53.53 53.53 0 0 0 224.395589424838 460.111169125385 L224.386651961308 460.105260216385 A228.98 228.98 0 0 0 265.611473600929 430.457271681997 L265.61 430.46 L273.467218335173 434.362481814486 A8.57 8.57 0 0 0 274.032030145329 436.809999520441 L274.034872492633 436.810586791514 A24.13 24.13 0 0 0 281.870835474657 439.399043015223 L281.872015883695 439.402177060984 A3.9 3.9 0 0 1 284.813376319078 441.567018357884 L284.81 441.56 L284.77 444.15 L298.787364648144 450.786537033716 A22.49 22.49 0 0 1 311.353620671112 477.354520547451 L311.355359382067 477.355935040963 A24.13 24.13 0 0 0 310.696401556817 497.006998219484 L310.689376858184 496.999805038876 A5.94 5.94 0 0 1 309.466537003405 502.667197211406 L309.477844159207 502.669321917125 A1.33 1.33 0 0 1 308.042209459197 503.045881938075 L308.038118411104 503.047315695013 A1317.06 1317.06 0 0 1 302.532072179758 501.917870255169 L302.53627788141 501.919367907582 A1.41 1.41 0 0 0 300.988723474711 502.66969727372 L300.97251437335 502.673916256388 A30.16 30.16 0 0 0 298.831086388718 510.510130701008 L298.834943904618 510.507190812328 A9.27 9.27 0 0 0 295.634265162343 511.213222857435 L295.632287317109 511.211546951693 A0.54 0.54 0 0 0 295.300487747198 511.732946221409 L295.307717973424 511.734906249038 A52.83 52.83 0 0 0 296.319471859403 520.017170372119 L296.320076257771 520.01602174443 A35.4 35.4 0 0 1 296.978932554072 525.169219295213 L296.988693032024 525.166933894855 A14.77 14.77 0 0 1 296.894541198233 527.803182646754 L296.892182897173 527.804792221539 A1 1 0 0 1 296.207031157146 528.63169946335 L296.2 528.62 L288.058838010487 528.619270510397 A2.61 2.61 0 0 0 290.29605169076 532.316560540339 L290.300373711233 532.319795553399 A22.61 22.61 0 0 1 293.75890709045 532.766816828802 L293.754310144207 532.766919494602 A6.94 6.94 0 0 1 297.426069026731 534.132060611607 L297.422829742003 534.129611245529 A15.76 15.76 0 0 0 313.684429460942 537.236023965351 L313.686946605715 537.238024914074 A57.89 57.89 0 0 1 332.345686276554 533.473335979372 L332.35 533.47 L324.887303721523 512.669982609116 A7.11 7.11 0 0 1 324.48713242496 510.763284464526 L324.483517797932 510.767136861218 A9.76 9.76 0 0 1 324.577615699504 508.579362716746 L324.581207241199 508.576056030435 A0.93 0.93 0 0 1 326.154618547946 508.059413475247 L326.153172546999 508.06410681284 A4.29 4.29 0 0 0 329.660742999498 509.759040184941 L329.66 509.75 L329.66 504.29 L345.098022621254 487.265416381094 A62.37 62.37 0 0 0 360.628900295676 460.93351911721 L360.630933927509 460.932402680881 A27.19 27.19 0 0 0 361.689822806941 451.802427141666 L361.689261102978 451.803881427971 A26.57 26.57 0 0 1 366.912651201162 434.486695770424 L366.909135913696 434.477642943008 A20.25 20.25 0 0 0 370.884784622243 421.186273617485 L370.88631269747 421.183986760069 A3.63 3.63 0 0 1 371.686859879487 418.68816305141 L371.691915983063 418.68617744707 A2.57 2.57 0 0 1 373.293201256544 419.110047153937 L373.281721065046 419.121859380125 A4.71 4.71 0 0 0 374.317480194268 419.639738895541 L374.315321224121 419.634163389522 A14.56 14.56 0 0 1 378.972775393474 424.950247402631 L378.97887543501 424.948789061921 A6.15 6.15 0 0 0 384.390225514785 428.289709506222 L384.397170331356 428.299937649892 A1.32 1.32 0 0 0 385.624290142636 427.497590039991 L385.614201462647 427.489297609604 A7.19 7.19 0 0 0 385.473119312855 421.540331269679 L385.474768255509 421.541948701617 A224.71 224.71 0 0 1 382.74523960721 415.682874510105 L382.740185142662 415.681483135993 A1.03 1.03 0 0 1 383.847923219227 414.243780637636 L383.853293558762 414.23797244341 A41.26 41.26 0 0 0 388.39421653342 414.73206245611 L388.397654624876 414.740186973419 A2.22 2.22 0 0 1 389.386078216429 411.916119534333 L389.38 411.92 L416.249523804875 415.254290130768 A131.97 131.97 0 0 0 447.262199363917 416.242554575033 L447.270852199851 416.250057448644 A46.01 46.01 0 0 0 472.143095999774 406.272922872903 L472.132865277328 406.273307241945 A560.51 560.51 0 0 1 487.262594038982 403.779137363015 L487.262126840974 403.775147422042 A47.82 47.82 0 0 0 497.615291114366 400.998617083054 L497.622045180381 401.002741335375 A20.9 20.9 0 0 0 508.940023819 390.343605448446 L508.940288734157 390.344321869679 A1295.83 1295.83 0 0 1 525.85832268357 346.390375213936 L525.857228481988 346.38289554625 A51.23 51.23 0 0 0 532.186734540553 322.288418803026 L532.186789761646 322.292126978758 A7.1 7.1 0 0 0 524.70694142808 321.045485617742 L524.704278499572 321.048939073971 A17.78 17.78 0 0 1 520.561937445894 322.225740527911 L520.558126719164 322.219450189624 A14.07 14.07 0 0 1 515.946625314758 319.325497776098 L515.945371651699 319.325658411013 A2.78 2.78 0 0 0 511.450940095142 320.337493798016 L511.449662116686 320.337340013739 A48.09 48.09 0 0 0 505.943371949518 335.11490500848 L505.949680327278 335.108900963823 A258.6 258.6 0 0 0 500.678926857462 362.780356332377 L500.678304798156 362.780437810555 A1062.22 1062.22 0 0 0 499.031199456932 379.345610730396 L499.032097699786 379.344697186914 A23.1 23.1 0 0 1 485.458028522399 395.506543981649 L485.45710385052 395.520097548318 A57.51 57.51 0 0 1 476.633372524007 398.414281429079 L476.63308815509 398.412166793137 A59.05 59.05 0 0 0 486.703631228164 371.306405924129 L486.710079869715 371.305034930082 A64.77 64.77 0 0 0 485.227607236122 348.87969352361 L485.216541898534 348.884334788321 A134.47 134.47 0 0 1 481.357548030389 318.294749213051 L481.363917934096 318.293073455397 A55.83 55.83 0 0 1 493.858592614977 280.573745949255 L493.850948713505 280.565202838522 A232.47 232.47 0 0 1 513.757699962967 259.058381781355 L513.762002954134 259.061425730463 A8.08 8.08 0 0 0 515.784881226899 250.452432385364 L515.79 250.45 L512.539326849007 232.524074405407 A114.8 114.8 0 0 1 510.421676031678 204.947555399099 L510.427730567805 204.949344350087 A115.41 115.41 0 0 0 510.239485460198 191.53687215715 Z M293.619874437112 411.917963412809 A28.68 28.68 0 0 1 292.396157408007 421.001709171491 L292.389274192375 421.003088540935 A18.38 18.38 0 0 1 289.306978376441 426.955919474525 L289.310916904891 426.953345075952 A4.75 4.75 0 0 0 290.603955343789 433.935752654392 L290.6 433.94 L294.27 429.66 L320.069135410527 443.82211248832 A58.44 58.44 0 0 0 312.539134469374 415.443421326242 L312.529308148013 415.446514552377 A28.64 28.64 0 0 0 305.377115661239 407.070920826814 L305.38 407.07 Z M174.040558051779 389.747997533851 A40.93 40.93 0 0 0 184.651334383938 401.888043001807 L184.646295683474 401.894342594363 A81.65 81.65 0 0 1 201.328865620407 423.682861351511 L201.330054029778 423.684074002743 A86.74 86.74 0 0 0 217.659533786446 409.425191247507 L217.66 409.42 Z M273.465823406997 430.929756199691 A13.89 13.89 0 0 1 279.350089474656 423.821562676842 L279.35987869471 423.823154597942 A5.77 5.77 0 0 1 285.660516649524 424.058253100256 L285.66 424.06 L282.46 417.85 L268.25 428.39 Z M289.098303258235 422.698514449035 A13.97 13.97 0 0 1 286.815501987956 417.568095061756 L286.815305660948 417.561244952694 A2.4 2.4 0 0 1 288.251053394261 414.313160073778 L288.25 414.32 L291.074613264393 413.375257989338 A37.53 37.53 0 0 1 289.097897367807 422.694061857732 Z" style="fill:rgb(0,0,0);" />
</g>
</svg>
