<?xml version="1.0" encoding="UTF-8"?>
<!DOCTYPE svg PUBLIC '-//W3C//DTD SVG 1.0//EN' 'http://www.w3.org/TR/2001/REC-SVG-20010904/DTD/svg10.dtd'>
<svg xmlns:xlink="http://www.w3.org/1999/xlink" xmlns="http://www.w3.org/2000/svg" width="700" height="700">
<!--Gegenereerd door de SIMaD-toepassing (http://www.dlw.be).-->
<g style="stroke:none;fill-rule:evenodd;" transform="matrix(1,0,0,-1,0,700)">
<path d=" M700 350 A350 350 0 0 1 0 350 A350 350 0 0 1 700 350 Z" style="fill:rgb(255,0,0);" />
<path d=" M600 350 A250 250 0 0 1 100 350 A250 250 0 0 1 600 350 Z" style="fill:rgb(255,255,255);" />
<path d=" M550.26 250.99 L559.2 253.77 L557.35 259.92 L557.349446298215 259.927026503015 A10.22 10.22 0 0 1 557.96559314354 264.850991375177 L557.97 264.85 L538.866489491893 323.34312606214 A34.32 34.32 0 0 0 538.558293590557 343.662562442864 L538.548968278236 343.667991772242 A21.78 21.78 0 0 1 535.159213175383 362.753603899262 L535.162118497596 362.756288290112 A39.16 39.16 0 0 1 529.306209917103 395.421767862189 L529.307151808462 395.423561049134 A27.21 27.21 0 0 1 509.89007565922 419.160705667768 L509.887484200863 419.154945650583 A11.65 11.65 0 0 0 503.723439208546 423.525886685429 L503.725568427537 423.529905175942 A26.14 26.14 0 0 1 500.027015024255 435.845335153961 L500.029057201499 435.843678877153 A14.68 14.68 0 0 1 479.996319978448 432.149250326387 L479.991366650224 432.150760371649 A13.32 13.32 0 0 1 482.148688223543 421.683443610349 L482.15 421.68 L481.84 414.91 L483.993573001167 414.91211974991 A6.83 6.83 0 0 1 493.244255819591 410.907742430332 L493.25 410.91 L495.705742156011 384.74059493499 A7.4 7.4 0 0 0 485.539564343357 384.432856709942 L485.536364467684 384.429894477732 A6.85 6.85 0 0 1 477.218686384848 382.583481356074 L477.209530855986 382.584204437365 A5.35 5.35 0 0 0 471.050498479204 379.507957521364 L471.058301234609 379.502203321205 A1358.98 1358.98 0 0 1 377.054265711465 347.482380478524 L377.0459892854 347.485425660849 A170.7 170.7 0 0 0 334.393414454944 337.228749531074 L334.4 337.23 L339.91 341.2 L338.06 345.82 L330.36 343.36 L323.267214537673 366.145692023275 A11.8 11.8 0 0 1 309.399209087268 374.149816967626 L309.4 374.15 L287.82 367.68 L285.671699739612 371.075993611292 A8.61 8.61 0 0 1 274.57034030724 374.15643325046 L274.57 374.15 L130.642023498309 335.65932675372 A8.22 8.22 0 0 1 126.636258258688 324.578206149738 L126.63 324.58 L134.33 293.79 L170.395295530844 295.634278105683 A49.95 49.95 0 0 1 256.389914705573 265.15243652858 L256.384610068661 265.155439292533 A49.68 49.68 0 0 1 319.882152392278 326.738124212448 L319.88 326.73 L328.816242498911 333.194361576991 A122.51 122.51 0 0 1 377.268729943872 342.739103444997 L377.269388633783 342.741994001888 A723.3 723.3 0 0 0 473.430611661328 375.377485019158 L473.429653564375 375.378617292665 A18.93 18.93 0 0 0 477.774681810511 375.994280144368 L477.77648875953 375.992918786292 A75.7 75.7 0 0 0 484.5572417137 374.14558469976 L484.550606271543 374.15044657201 A3.99 3.99 0 0 1 491.338900458246 371.376365666119 L491.33 371.38 L499.038979866049 373.219272354745 A63.19 63.19 0 0 1 507.977600240487 350.742492014058 L507.98 350.75 L491.64579729414 314.72318951964 A27.79 27.79 0 0 1 491.029450815538 294.713105818726 L491.023137751424 294.71287762375 A203.75 203.75 0 0 0 498.420015842655 267.927644508794 L498.430124180959 267.924820497507 A7.43 7.43 0 0 0 495.654574282102 260.531217508063 L495.648414125525 260.544077558177 A9.8 9.8 0 0 1 487.942898694166 257.465143020409 L487.941889502304 257.457856849095 A3.11 3.11 0 0 1 490.100145628533 252.221940795759 L490.09775269892 252.220393629595 A38.22 38.22 0 0 1 507.358684541042 257.454760982093 L507.36 257.46 L508.29 254.38 L513.533734221871 256.229363558135 A6.16 6.16 0 0 1 512.608421743666 263.932107975666 L512.6 263.93 L516.3 266.08 L509.517256830253 293.794281231257 A30.61 30.61 0 0 0 511.705481834917 314.421839538183 L511.71 314.42 L518.8 325.19 L537.592131926181 262.998885253934 A5.56 5.56 0 0 0 533.280221399372 255.922546047359 L533.283194739149 255.917081991787 A3.78 3.78 0 0 1 531.742658025645 249.145929318225 L531.739722541311 249.145091095393 A49.34 49.34 0 0 1 549.339482946013 254.071487525873 L549.34 254.07 Z M226.153654774222 262.18185323325 A39.56 39.56 0 0 0 207.68331701988 263.429196436529 L207.69 263.43 L213.733935380583 282.979492106026 A17.98 17.98 0 0 1 222.022504022543 281.737151782589 L222.02 281.74 Z M202.336887871683 265.541848815795 A39.56 39.56 0 0 0 188.295842412044 276.876297276459 L188.3 276.87 L204.554419990392 291.284911060976 A17.98 17.98 0 0 1 209.348412053407 285.522343380936 L209.35 285.53 Z M203.09 295.08 L185.191460037653 281.501803567074 A39.56 39.56 0 0 0 180.092010308107 297.831016773735 L180.09 297.83 L202.569341551248 297.962745691628 A17.98 17.98 0 0 1 203.081769291842 295.075086575695 Z M306.75 326.54 L287.325927025078 319.220729473646 A18.05 18.05 0 0 0 289.188159146282 313.577277329526 L289.19 313.57 L309.515132366069 318.123512888281 A37.77 37.77 0 0 1 306.749921445606 326.532178901451 Z M310.159897752801 313.49183990682 A37.77 37.77 0 0 0 306.220916679993 293.596103378092 L306.22 293.6 L288.375477122277 304.825366670193 A18.05 18.05 0 0 1 289.279890734311 308.741173827449 L289.28 308.74 Z M286.81 301.51 L303.556015277185 289.113562734647 A37.77 37.77 0 0 0 294.172813798631 279.676813257443 L294.17 279.68 L283.151281625678 297.162318937996 A18.05 18.05 0 0 1 286.811876428674 301.506951234724 Z M279.6 294.77 L289.587380785236 276.9262603338 A37.77 37.77 0 0 0 274.791201902685 272.909558439706 L274.79 272.91 L274.402456732198 293.029974482928 A18.05 18.05 0 0 1 279.599667989625 294.765546472677 Z M270.466262472126 272.894793363052 A37.77 37.77 0 0 0 263.110317889112 274.025757902391 L263.111453291784 274.021001050506 A49.95 49.95 0 0 1 269.685313110865 292.845679955754 L269.67617851521 292.847776385849 A18.05 18.05 0 0 1 270.083272333074 292.814503588686 L270.09 292.82 Z M243.621638527302 286.266353217889 A37.77 37.77 0 0 1 252.063265053651 278.846612826516 L252.064778552321 278.848050326601 A34.79 34.79 0 0 1 257.110801654591 291.532557609587 L257.1 291.53 Z M238.258857715443 294.668950001688 A37.77 37.77 0 0 0 235.667842440816 302.24548748967 L235.66 302.25 L253.690044997484 307.087910865333 A18.05 18.05 0 0 1 255.52368473265 302.140700197686 L255.53 302.14 Z M230.87 263.28 L225.996563440388 282.540426757532 A17.98 17.98 0 0 1 230.829904334456 284.954668013927 L230.827776045503 284.95922541617 A49.68 49.68 0 0 1 244.877932800775 270.816835995185 L244.874329731497 270.82140356881 A39.56 39.56 0 0 0 230.868213933224 263.285612866189 Z" style="fill:rgb(0,0,0);" />
</g>
</svg>
