<?xml version="1.0" encoding="UTF-8"?>
<!DOCTYPE svg PUBLIC '-//W3C//DTD SVG 1.0//EN' 'http://www.w3.org/TR/2001/REC-SVG-20010904/DTD/svg10.dtd'>
<svg xmlns:xlink="http://www.w3.org/1999/xlink" xmlns="http://www.w3.org/2000/svg" width="700" height="700">
<!--Gegenereerd door de SIMaD-toepassing (http://www.dlw.be).-->
<g style="stroke:none;fill-rule:evenodd;" transform="matrix(1,0,0,-1,0,700)">
<path d=" M700 350 A350 350 0 0 1 0 350 A350 350 0 0 1 700 350 Z" style="fill:rgb(255,0,0);" />
<path d=" M600 350 A250 250 0 0 1 100 350 A250 250 0 0 1 600 350 Z" style="fill:rgb(255,255,255);" />
<path d=" M310.63 190.2 L317.231584000877 214.67376359309 A2.29 2.29 0 0 0 319.976553484528 215.831493351627 L319.971148683795 215.827575109358 A68.47 68.47 0 0 1 330.731097065506 248.826585820703 L330.742465082464 248.823688466959 A58.62 58.62 0 0 1 350.177954296744 288.471610456575 L350.16724609829 288.477318963954 A155.38 155.38 0 0 1 371.690531063238 243.620895239442 L371.697551812808 243.618405639015 A2376.46 2376.46 0 0 0 377.875856608748 222.669004544242 L377.87 222.67 L384.08 215.24 L383.13 212.25 L384.219197868263 208.456471973391 A6.19 6.19 0 0 0 381.064048069546 200.891856320318 L381.064265681519 200.894142156231 A42.71 42.71 0 0 0 370.303679844831 197.07297775698 L370.301126683205 197.071002962554 A8.14 8.14 0 0 1 366.315729144028 190.811835870144 L366.32 190.81 L365.23 190.27 L365.447632255878 188.050283755331 A42.59 42.59 0 0 1 383.494425972295 187.008333993796 L383.488618837366 187.000958318817 A30.4 30.4 0 0 1 405.352208866534 196.030861418111 L405.36 196.03 L408.14 192.56 L418.9 197.07 L418.2 200.2 L419.59 201.59 L410.26 218.18 L410.219410552398 221.38947668903 A669.9 669.9 0 0 0 380.15962405168 318.597332182833 L380.16 318.6 L379.95 327.67 L382.931563044103 327.96151439495 A3.2 3.2 0 0 1 386.229704664959 331.116525213769 L386.23 331.12 L386.55 336.26 L388.553853108193 336.363369862841 A223.93 223.93 0 0 1 384.794547854489 418.264890458191 L384.794472060569 418.26926278919 A126.88 126.88 0 0 1 365.066576417287 471.709083815836 L365.07 471.71 L366.51 473.64 L363.15 479.89 L360.74 477.97 L360.254049169756 479.41406468236 A15.48 15.48 0 0 0 359.772779238663 490.971060746607 L359.776828866242 490.969712567328 A155.5 155.5 0 0 1 363.31411782322 507.097763879892 L363.313282669573 507.093060815138 A18.2 18.2 0 0 1 358.756908200609 520.77054304527 L358.75868834085 520.774125347308 A8.51 8.51 0 0 0 354.203518927155 524.259620332108 L354.202732236827 524.261766866873 A37.61 37.61 0 0 1 335.185839205762 524.028812813248 L335.191486936165 524.029035378147 A15.77 15.77 0 0 0 326.270252526725 519.068808330637 L326.264055763043 519.068387713338 A3.36 3.36 0 0 1 326.59015240212 515.677177391577 L326.591374252467 515.675661265534 A28.28 28.28 0 0 1 326.859427489118 502.743314876583 L326.855189996404 502.751656961582 A28.1 28.1 0 0 1 324.442670799874 493.095678896765 L324.450867503619 493.08988580521 A7.87 7.87 0 0 0 327.346792084842 492.134547320765 L327.34 492.14 L328.466305877433 481.561008506214 A5.31 5.31 0 0 1 334.363704995777 478.074050661013 L334.366807142887 478.063814383996 A6.6 6.6 0 0 0 338.772061502672 469.014158740073 L338.774785676918 469.018626938818 A99.55 99.55 0 0 1 320.801416806005 412.491115870898 L320.800805079224 412.488900078792 A6.99 6.99 0 0 0 316.949099242218 407.189814505811 L316.95627101232 407.195405334973 A138.59 138.59 0 0 1 282.312173674321 378.790465231604 L282.31 378.79 L283.750179683303 376.374953039089 A16.55 16.55 0 0 1 269.869997081841 370.130151959137 L269.861679552498 370.140489009371 A14.92 14.92 0 0 1 272.068892313524 357.378212171334 L272.073549588191 357.372655230367 A12.32 12.32 0 0 1 281.422664976789 357.576206592721 L281.42351473493 357.582850110144 A6.08 6.08 0 0 0 292.977520105765 361.120262272933 L292.976350205892 361.119755350502 A157.73 157.73 0 0 0 317.974903921009 376.451101803803 L317.98 376.45 L309.013759944214 335.643046849215 A5.56 5.56 0 0 1 314.201266481839 327.860749112579 L314.202911707683 327.859089258926 A55.2 55.2 0 0 0 319.627393201385 327.623210738515 L319.626163084851 327.618195732069 A77.74 77.74 0 0 0 307.476896019514 275.571801633719 L307.481383172753 275.576490244162 A175.55 175.55 0 0 0 290.820852163164 213.746891693321 L290.82 213.75 L288.043108353394 213.746060010934 A7.81 7.81 0 0 0 277.873438310755 208.757678470012 L277.88132752483 208.767961613487 A41.63 41.63 0 0 1 271.387022665623 209.239290914151 L271.384337548466 209.234484372174 A9.46 9.46 0 0 1 261.664426224259 202.633834507986 L261.66 202.63 L266.175792798669 198.114746620086 A38.41 38.41 0 0 1 297.414749793335 192.209585351955 L297.41 192.21 L296.72 188.04 L308.87 186.65 L309.56 190.13 Z" style="fill:rgb(0,0,0);" />
</g>
</svg>
