<svg xmlns:xlink="http://www.w3.org/1999/xlink" xmlns="http://www.w3.org/2000/svg" width="100%" height="100%"  viewBox="-0.00002172702079406008 0 900 900"><rect id="svgEditorBackground" x="-0.00002172702079406008" y="0" width="900" height="900" style="fill: none; stroke: none;"/>
<!--Gegenereerd door de SIMaD-toepassing (http://www.dlw.be).-->
<g style="stroke:none;fill-rule:evenodd;" transform="matrix(1,0,0,-1,0,900)">
<path d=" M900 450 A450 450 0 0 1 0 450 A450 450 0 0 1 900 450 Z" style="fill:rgb(255,0,0);"/>
<path d=" M775 450 A325 325 0 0 1 125 450 A325 325 0 0 1 775 450 Z" style="fill:rgb(255,255,255);"/>

<path d=" M546 584.29 L556.83 584.29 L556.840000000007 534.140018116867 A24.14 24.14 0 0 1 580.980018116867 510.000000000007 L600.17 510 L600.17 528.57 L584.070004180238 528.570000000002 A5.57 5.57 0 0 0 578.500000000002 534.140004180238 L578.5 584.29 L600.17 584.29 L600.17 602.86 L578.5 602.86 L578.5 640 L556.83 627.49 L556.83 602.86 L546 602.86 Z" style="fill:rgb(0,0,0);"/>
</g>
</svg>