<?xml version="1.0" encoding="UTF-8"?>
<!DOCTYPE svg PUBLIC '-//W3C//DTD SVG 1.0//EN' 'http://www.w3.org/TR/2001/REC-SVG-20010904/DTD/svg10.dtd'>
<svg xmlns:xlink="http://www.w3.org/1999/xlink" xmlns="http://www.w3.org/2000/svg" width="900" height="900">
<!--Gegenereerd door de SIMaD-toepassing (http://www.dlw.be).-->
<g style="stroke:none;fill-rule:evenodd;" transform="matrix(1,0,0,-1,0,900)">
<path d=" M900 450 A450 450 0 0 1 0 450 A450 450 0 0 1 900 450 Z" style="fill:rgb(255,0,0);" />
<path d=" M775 450 A325 325 0 0 1 125 450 A325 325 0 0 1 775 450 Z" style="fill:rgb(255,255,255);" />
<path d=" M665.66 387.02 A36.48 36.48 0 0 1 592.7 387.02 A36.48 36.48 0 0 1 665.66 387.02 Z M641.96 386.87 A12.75 12.75 0 0 1 616.46 386.87 A12.75 12.75 0 0 1 641.96 386.87 Z" style="fill:rgb(0,0,0);" />
<path d=" M298.58 387.02 A36.48 36.48 0 0 1 225.62 387.02 A36.48 36.48 0 0 1 298.58 387.02 Z M274.88 386.87 A12.75 12.75 0 0 1 249.38 386.87 A12.75 12.75 0 0 1 274.88 386.87 Z" style="fill:rgb(0,0,0);" />
<path d=" M174.63 343.98 L175.01 350.54 L724.99 350.54 L724.63 343.98 Z" style="fill:rgb(0,0,0);" />
<path d=" M219.454849613322 549.457273616118 A22.06 22.06 0 0 1 201.471471031775 535.090439896316 L201.47 535.09 L187.38 494.92 L176.97 464.55 L175.99 461 L175.32 457.8 L175.01 454.75 L175.99 435.16 L182.13029324516 402.412537085001 A11.11 11.11 0 0 1 193.050005623276 393.350000000001 L219.338415913181 393.349751758488 A43.36 43.36 0 0 0 305.081584086819 393.349751758488 L305.08 393.35 L586.428415913181 393.349751758488 A43.36 43.36 0 0 0 672.171584086819 393.349751758488 L672.17 393.35 L712.019990047434 393.350000000004 A12.96 12.96 0 0 1 724.979999999997 406.310009273982 L724.99 406.31 L724.979999999967 536.499970594693 A12.96 12.96 0 0 1 712.020009952566 549.459999999996 L219.46 549.46 Z M364.840005651202 535.739999999998 A7.53 7.53 0 0 1 357.310000000002 528.209994348798 L357.310000000002 479.270005519778 A7.53 7.53 0 0 1 364.840005651202 471.740000000002 L442.359994348798 471.740000000002 A7.53 7.53 0 0 1 449.889999999998 479.270005651202 L449.889999999981 528.209983177819 A7.53 7.53 0 0 1 442.360005519778 535.739999999998 L442.36 535.73 Z M217.080002497043 535.74 A7.53 7.53 0 0 1 209.989745591761 530.745585223661 L209.99 530.74 L192.489747052155 481.805589307354 A7.53 7.53 0 0 1 199.580001839926 471.74 L248.419994348798 471.740000000002 A7.53 7.53 0 0 1 255.949999999998 479.270005519778 L255.949999999981 528.209983177819 A7.53 7.53 0 0 1 248.420005651202 535.739999999998 L248.42 535.73 Z M267.930005519778 535.739999999998 A7.53 7.53 0 0 1 260.400000000002 528.209994348798 L260.400000000002 479.270005651202 A7.53 7.53 0 0 1 267.930005651202 471.740000000002 L345.449994348798 471.740000000002 A7.53 7.53 0 0 1 352.979999999998 479.270005651202 L352.979999999981 528.209983177819 A7.53 7.53 0 0 1 345.450005519778 535.739999999998 L345.45 535.73 Z M558.530005519778 535.739999999998 A7.53 7.53 0 0 1 551.000000000002 528.209994348798 L551.000000000002 479.270005651202 A7.53 7.53 0 0 1 558.530005651202 471.740000000002 L636.049994348798 471.740000000002 A7.53 7.53 0 0 1 643.579999999998 479.270005651202 L643.579999999981 528.209983177819 A7.53 7.53 0 0 1 636.050005519778 535.739999999998 L636.05 535.73 Z M461.740005519778 535.739999999998 A7.53 7.53 0 0 1 454.210000000002 528.209994348798 L454.22 528.21 L454.210000000002 479.270005651202 A7.53 7.53 0 0 1 461.740005651202 471.740000000002 L539.269994348798 471.740000000002 A7.53 7.53 0 0 1 546.799999999998 479.270005651202 L546.79 479.27 L546.799999999981 528.209983177819 A7.53 7.53 0 0 1 539.270005519778 535.739999999998 L539.27 535.73 Z M655.440005651202 535.739999999998 A7.53 7.53 0 0 1 647.910000000002 528.209994348798 L647.910000000002 479.270005519778 A7.53 7.53 0 0 1 655.440005651202 471.740000000002 L713.011405154426 471.740978762915 A7.53 7.53 0 0 1 720.419022141655 479.148650956029 L720.41 479.15 L720.419999999981 528.209983177819 A7.53 7.53 0 0 1 712.890005519778 535.739999999998 L712.89 535.73 Z" style="fill:rgb(0,0,0);" />
</g>
</svg>
