<?xml version="1.0" encoding="UTF-8"?>
<!DOCTYPE svg PUBLIC '-//W3C//DTD SVG 1.0//EN' 'http://www.w3.org/TR/2001/REC-SVG-20010904/DTD/svg10.dtd'>
<svg xmlns:xlink="http://www.w3.org/1999/xlink" xmlns="http://www.w3.org/2000/svg" width="900" height="900">
<!--Gegenereerd door de SIMaD-toepassing (http://www.dlw.be).-->
<g style="stroke:none;fill-rule:evenodd;" transform="matrix(1,0,0,-1,0,900)">
<path d=" M900 450 A450 450 0 0 1 0 450 A450 450 0 0 1 900 450 Z" style="fill:rgb(255,0,0);" />
<path d=" M775 450 A325 325 0 0 1 125 450 A325 325 0 0 1 775 450 Z" style="fill:rgb(255,255,255);" />
<path d=" M206.08 353.28 L287.48700768857 353.279420782719 A34.06 34.06 0 0 0 263.452624740538 379.631313556263 L263.46 379.63 L233.27 379.63 L233.27 393.71 L244.1 393.71 L248.84310952961 464.015998469478 A47.54 47.54 0 0 0 273.922973703866 498.139177975794 L273.93 498.13 L299.618371980619 547.511447966695 A17.08 17.08 0 0 0 312.091226053099 553.965270576408 L312.09 553.97 L369.12 553.97 L369.12 561.759998913009 A15.57 15.57 0 0 0 384.690001086991 577.33 L659.35 577.33 L659.35 379.63 L617.477375259462 379.631313556263 A34.06 34.06 0 0 0 593.44299231143 353.279420782719 L593.45 353.28 L720 353.28 L720 347.14 L205.71 347.14 Z M312.408062814538 548.083798442104 A11.19 11.19 0 0 1 302.153814909494 539.622811324195 L302.16 539.62 L281.27 499.48 L368.64 499.48 L368.64 548.1 L312.09 548.1 Z M574.597008259826 353.279420618256 A34.06 34.06 0 0 0 550.562624740538 379.631313556263 L550.57 379.63 L330.367375259462 379.631313556263 A34.06 34.06 0 0 0 306.332991740174 353.279420618256 L306.34 353.28 Z" style="fill:rgb(0,0,0);" />
</g>
</svg>
