<?xml version="1.0" encoding="UTF-8" standalone="no"?>
<!DOCTYPE svg  PUBLIC '-//W3C//DTD SVG 1.0//EN'  'http://www.w3.org/TR/2001/REC-SVG-20010904/DTD/svg10.dtd'>
<svg style="color-interpolation:auto;image-rendering:auto;text-rendering:auto;color-rendering:auto;shape-rendering:auto" xmlns:xlink="http://www.w3.org/1999/xlink" stroke-linecap="square" font-size="12" stroke="black" xmlns="http://www.w3.org/2000/svg" stroke-miterlimit="10" font-family="&apos;Dialog&apos;" viewBox="0 0 700 700" fill="black"><!--Generated by the Batik Graphics2D SVG Generator-->
 <g transform="matrix(1,0,0,-1,0,700)" stroke="#404545" fill="#404545">
  <circle cx="350" r="350" cy="350"/>
 </g>
 <g transform="matrix(1,0,0,-1,0,700)" stroke="#fcffff" fill="#fcffff">
  <circle cx="350" r="250" cy="350"/>
  <path d="m204.91 295.27h-23.48v10.95h8.42l3.7 54.68c1.98 11.41 9.2 21.23 19.5 26.54l19.99 38.4c2.36 2.99 5.89 4.82 9.7 5.02h44.35v6.07c0 3.21 1.28 6.29 3.55 8.56s5.35 3.55 8.56 3.55h213.63v-153.77h-32.57c-1.87-9.81-9.09-17.73-18.69-20.5h98.43v-4.77h-400l0.28 4.77h63.32c-9.59 2.77-16.82 10.69-18.69 20.5z" fill="#404545"/>
  <path d="m446.91 274.77c-9.59 2.77-16.82 10.69-18.69 20.5h-171.26c-1.88-9.81-9.1-17.73-18.7-20.5h208.65z"/>
  <path d="m242.99 426.28c-3.82-0.2-7.05-2.87-7.98-6.58l-16.24-31.22h67.95v37.82h-43.98l0.25-0.02z"/>
 </g>
</svg>
