<?xml version="1.0" encoding="UTF-8"?>
<!DOCTYPE svg PUBLIC '-//W3C//DTD SVG 1.0//EN' 'http://www.w3.org/TR/2001/REC-SVG-20010904/DTD/svg10.dtd'>
<svg xmlns:xlink="http://www.w3.org/1999/xlink" xmlns="http://www.w3.org/2000/svg" width="900" height="900">
<!--Gegenereerd door de SIMaD-toepassing (http://www.dlw.be).-->
<g style="stroke:none;fill-rule:evenodd;" transform="matrix(1,0,0,-1,0,900)">
<path d=" M900 450 A450 450 0 0 1 0 450 A450 450 0 0 1 900 450 Z" style="fill:rgb(255,0,0);" />
<path d=" M775 450 A325 325 0 0 1 125 450 A325 325 0 0 1 775 450 Z" style="fill:rgb(255,255,255);" />
<path d=" M611.54 355.13 L288.46 355.13 L288.46 673.4 L611.54 673.4 Z" style="fill:rgb(0,0,0);" />
<path d=" M607.56 226.7 L607.560547905162 243.507278000455 A37.84 37.84 0 0 1 607.560547905162 279.112721999545 L607.56 279.11 L607.552859836228 303.932262528308 A18.75 18.75 0 0 1 571.654624212345 303.625828544595 L571.65 303.63 L571.65 283.09 L567.66 283.09 L567.66 270.83 L489.106163617777 270.828282889423 A38.35 38.35 0 0 0 467.929885138085 279.104166316968 L467.924529944982 279.104751662525 A31.96 31.96 0 0 1 434.475470055018 279.104751662525 L434.480114861915 279.104166316968 A38.35 38.35 0 0 0 413.303835714605 270.828282841534 L413.3 270.83 L334.75 270.83 L334.75 283.09 L330.76 283.09 L330.755375787655 303.625828544595 A18.75 18.75 0 0 1 294.857140163772 303.932262528308 L294.85 303.93 L294.849452094838 279.112721999545 A37.84 37.84 0 0 1 294.849452094838 243.507278000455 L294.85 243.51 L294.857140358281 226.697736846765 A18.75 18.75 0 0 1 330.755375879561 227.004171769483 L330.76 227 L330.76 247.54 L334.75 247.54 L334.75 259.8 L413.303837049842 259.801717062688 A38.35 38.35 0 0 0 434.480115908269 251.525832848062 L434.475470055018 251.525248337475 A31.96 31.96 0 0 1 467.924529944982 251.525248337475 L467.929883568554 251.525832430577 A38.35 38.35 0 0 0 489.10616228254 259.801717014799 L489.1 259.8 L567.66 259.8 L567.66 247.54 L571.65 247.54 L571.654624120439 227.004171769483 A18.75 18.75 0 0 1 607.552859641719 226.697736846765 Z" style="fill:rgb(0,0,0);" />
<path d=" M288.46 340.85 L288.46 327.63 L611.54 327.63 L611.54 340.85 Z" style="fill:rgb(0,0,0);" />
<path d=" M598.32 368.36 L301.68 368.36 L301.68 660.18 L598.32 660.18 Z" style="fill:rgb(255,128,0);" />
</g>
</svg>
