<?xml version="1.0" encoding="UTF-8"?>
<!DOCTYPE svg PUBLIC '-//W3C//DTD SVG 1.0//EN' 'http://www.w3.org/TR/2001/REC-SVG-20010904/DTD/svg10.dtd'>
<svg xmlns:xlink="http://www.w3.org/1999/xlink" xmlns="http://www.w3.org/2000/svg" width="900" height="900">
<!--Gegenereerd door de SIMaD-toepassing (http://www.dlw.be).-->
<g style="stroke:none;fill-rule:evenodd;" transform="matrix(1,0,0,-1,0,900)">
<path d=" M900 450 A450 450 0 0 1 0 450 A450 450 0 0 1 900 450 Z" style="fill:rgb(255,0,0);" />
<path d=" M775 450 A325 325 0 0 1 125 450 A325 325 0 0 1 775 450 Z" style="fill:rgb(255,255,255);" />
<path d=" M326.41 521.64 L320.13 508.18 L284.907633802449 525.00865527242 A8.37 8.37 0 0 0 290.301563688702 540.721038912479 L290.3 540.72 L320.85 533.54 L217.977291109022 629.781678954692 A8.34 8.34 0 0 0 226.961972904628 643.241650042102 L226.960842551243 643.243864027218 A1524.84 1524.84 0 0 1 324.00044154805 591.644647690162 L324 591.64 L276.83 683.8 L358.59 642.07 L353.65 669.89 L368.03 679.32 L395.88 645.66 L433.17 702.65 L436.31 683.35 L450.24 730.47 L464.6193900749 730.917285279209 A298.23 298.23 0 0 0 473.155352939581 667.202937347765 L473.15 667.2 L509.54 725.53 L514.03 646.11 L594 709.38 L591.31 605.73 L619.166073893794 625.031019671346 A18.63 18.63 0 0 0 619.615396841355 599.900698756559 L619.61 599.9 L603.887931785863 577.008793299483 A339.28 339.28 0 0 1 680.935072966781 555.022806614645 L680.928322575976 555.036856579276 A186.43 186.43 0 0 0 625.670935135809 535.071698881528 L625.677768769141 535.067248300806 A759.81 759.81 0 0 1 738.890083186667 496.928879946299 L738.882630845271 496.924859709162 A8.79 8.79 0 0 0 740.229675557676 480.332394128234 L740.229737693675 480.319097548402 A2356.85 2356.85 0 0 1 605.748103455252 463.279746293251 L605.75 463.28 L578.54 521.64 L486.077347025781 521.640879065232 A83.26 83.26 0 0 1 462.458972916658 610.229025692297 L462.451769895533 610.232002369783 A59.59 59.59 0 0 1 447.650673725334 521.634667094867 L447.66 521.64 Z" style="fill:rgb(255,128,0);" />
<path d=" M326.41 521.64 L282.955554072558 428.45106130317 A1345.47 1345.47 0 0 0 276.603937199622 413.818374228747 L276.610628948163 413.817844157805 A29.51 29.51 0 0 0 271.071372024842 405.28550574899 L271.064775686459 405.278821563686 A126.31 126.31 0 0 0 258.752575191681 392.77373519514 L258.758491470167 392.779873245498 A3.24 3.24 0 0 1 257.771059421904 390.532848847683 L257.761493680226 390.529446886956 A918.82 918.82 0 0 1 257.071805964189 337.826591073341 L257.070922100621 337.825085235032 A84.64 84.64 0 0 1 258.366325242643 322.673256526597 L258.366804428535 322.675432327013 A217.44 217.44 0 0 1 272.088723682688 281.509690555662 L272.09 281.51 L280.53 281.51 L280.53 232.91 L258.37 232.91 L258.37 224.91 L646.58 224.91 L646.58 232.91 L624.42 232.91 L624.42 281.51 L632.861276317312 281.509690555662 A217.44 217.44 0 0 1 646.583195571465 322.675432327013 L646.583674757357 322.673256526597 A84.64 84.64 0 0 1 647.879077899378 337.825085235032 L647.878194035811 337.826591073341 A918.82 918.82 0 0 1 647.188506319774 390.529446886956 L647.178940578096 390.532848847683 A3.24 3.24 0 0 1 646.191508529833 392.779873245498 L646.197424808319 392.77373519514 A126.31 126.31 0 0 0 633.885224313541 405.278821563686 L633.878627975158 405.28550574899 A29.51 29.51 0 0 0 628.339371051837 413.817844157805 L628.346062800378 413.818374228747 A1345.47 1345.47 0 0 0 621.994445927442 428.451061303169 L622 428.45 L578.54 521.64 Z M616.85 403.86 L569.4 506.78 L335.56 506.78 L286.388734516357 403.863066576362 A1566.78 1566.78 0 0 0 616.851265483642 403.863066576362 Z M543.97 359.84 L543.97 352.98 L360.99 352.98 L360.99 359.84 Z M536.96 302.09 L367.99 302.09 L367.99 307.81 L536.96 307.81 Z M318.98 232.91 L585.98 232.91 L585.98 281.51 L318.98 281.51 Z M556.57 328.39 L348.38 328.39 L348.38 333.54 L556.57 333.54 Z M318.91 366.16 A19.39 19.39 0 0 1 280.13 366.16 A19.39 19.39 0 0 1 318.91 366.16 Z M624.8 365.53 A19.38 19.38 0 0 1 586.04 365.53 A19.38 19.38 0 0 1 624.8 365.53 Z" style="fill:rgb(0,0,0);" />
<path d=" M273.21 407.88 L232.35 405.21 L292.29 448.47 L282.955554072558 428.45106130317 A1345.47 1345.47 0 0 0 276.603937199622 413.818374228747 L276.610641056009 413.817872589884 A29.51 29.51 0 0 0 273.219247004154 407.877477844734 Z" style="fill:rgb(255,128,0);" />
<path d=" M622 428.45 L608.14 458.17 L665.661938570134 403.372972738632 A9.16 9.16 0 0 0 661.617299358599 387.214875522146 L661.61941648036 387.218603541774 A245.67 245.67 0 0 1 646.966284072983 391.63250379794 L646.96 391.64 L646.95474063177 391.636987330662 A3.24 3.24 0 0 1 646.191508570497 392.779873206202 L646.197424808319 392.77373519514 A126.31 126.31 0 0 0 633.885224313541 405.278821563686 L633.878627975158 405.28550574899 A29.51 29.51 0 0 0 628.339371051837 413.817844157805 L628.350482976957 413.811863408116 A1149.94 1149.94 0 0 1 621.998857623417 428.444569670321 Z" style="fill:rgb(255,128,0);" />
<path d=" M447.66 521.64 L486.077347025781 521.640879065232 A83.26 83.26 0 0 1 462.458972916658 610.229025692297 L462.451769895533 610.232002369783 A59.59 59.59 0 0 1 447.650673725334 521.634667094867 Z" style="fill:rgb(255,0,0);" />
<path d=" M420.95 620.28 L448.619578146248 619.656731306684 A97.61 97.61 0 0 1 435.412109245328 647.922632907937 L435.41 647.92 L416.55 648.55 Z" style="fill:rgb(0,0,0);" />
<path d=" M385.81 544.6 L405.53 548.72 L393.61 555.86 Z" style="fill:rgb(0,0,0);" />
<path d=" M360.88 590.28 L365.22 596.99 L366.515729588417 606.080015179181 A53.96 53.96 0 0 0 404.01373412665 583.782868543815 L404.01 583.79 L403.15 578.81 L365.22 577.94 Z" style="fill:rgb(0,0,0);" />
<path d=" M348.530321679496 548.285621457504 A69.42 69.42 0 0 1 319.702860198066 578.37544618675 L319.69559996932 578.373203393891 A5.81 5.81 0 0 1 311.462689668824 571.232622076293 L311.460210354558 571.232382833885 A78.32 78.32 0 0 1 348.523895760007 548.286309568272 L348.53 548.28 Z" style="fill:rgb(0,0,0);" />
<path d=" M342.96 607.09 L343.59 629.7 L328.5 642.89 L315.29 632.84 Z" style="fill:rgb(0,0,0);" />
<path d=" M474.413163672335 620.911089462983 A16.93 16.93 0 0 1 497.679898375378 618.398949462808 L497.68 618.4 L495.16 657.34 L480.06789850327 644.777556038992 A23.18 23.18 0 0 0 474.406909937083 620.905866083346 L474.41 620.91 Z" style="fill:rgb(0,0,0);" />
<path d=" M571.26 550.56 L590.76 565.01 L608.996673749872 565.632429255449 A16.1 16.1 0 0 0 607.738947462025 541.137726822442 L607.739658183257 541.141254074271 A23.93 23.93 0 0 0 571.259624389099 550.563804222719 L571.26 550.56 Z" style="fill:rgb(0,0,0);" />
<path d=" M525.98 550.56 L539.81 566.26 L554.91 565.01 L540.44 546.79 Z" style="fill:rgb(0,0,0);" />
<path d=" M612.77 521.67 L609 492.77 L633.523939474094 485.237194680663 A12.52 12.52 0 0 1 639.811189652839 509.098504124563 L639.81 509.1 Z" style="fill:rgb(0,0,0);" />
<path d=" M546.73 647.29 L542.33 635.36 L565.6 610.23 L566.860340214612 643.523316309219 A7.33 7.33 0 0 0 553.644794017972 649.808467875346 L553.65 649.8 Z" style="fill:rgb(0,0,0);" />
<path d=" M460.566236658952 529.208306474217 A40.16 40.16 0 0 0 460.566236658952 568.151693525783 L460.570389533142 568.148897773653 A32.65 32.65 0 0 0 460.570389533142 529.211102226347 L460.57 529.2 Z" style="fill:rgb(255,255,255);" />
<path d=" M299.53 463.99 L298.843937132903 463.989684220934 A7.8 7.8 0 0 0 292.106748573738 477.895594196124 L292.1 477.9 L313.78 494.56 Z" style="fill:rgb(255,128,0);" />
</g>
</svg>
