<?xml version="1.0" encoding="UTF-8"?>
<!DOCTYPE svg PUBLIC '-//W3C//DTD SVG 1.0//EN' 'http://www.w3.org/TR/2001/REC-SVG-20010904/DTD/svg10.dtd'>
<svg xmlns:xlink="http://www.w3.org/1999/xlink" xmlns="http://www.w3.org/2000/svg" width="899.999999999999" height="900">
<!--Gegenereerd door de SIMaD-toepassing (http://www.dlw.be).-->
<g style="stroke:none;fill-rule:evenodd;" transform="matrix(1,0,0,-1,0,900)">
<path d=" M900 450 A450 450 0 0 1 0 450 A450 450 0 0 1 900 450 Z" style="fill:rgb(255,0,0);" />
<path d=" M775 450 A325 325 0 0 1 125 450 A325 325 0 0 1 775 450 Z" style="fill:rgb(255,255,255);" />
<path d=" M605.55 347.03 L605.550547905162 363.827278000455 A37.84 37.84 0 0 1 605.550547905162 399.432721999545 L605.55 399.44 L605.552859836228 424.262262528307 A18.75 18.75 0 0 1 569.654624212345 423.955828544595 L569.65 423.95 L569.65 403.42 L565.66 403.42 L565.66 391.16 L487.096164953014 391.158282793645 A38.35 38.35 0 0 0 465.919885661262 399.434165899484 L465.924529944982 399.434751662525 A31.96 31.96 0 0 1 432.475470055018 399.434751662525 L432.480114338738 399.434165899484 A38.35 38.35 0 0 0 411.303835046986 391.158282793645 L411.3 391.16 L332.74 391.16 L332.74 403.42 L328.75 403.42 L328.745375787655 423.955828544595 A18.75 18.75 0 0 1 292.847140163772 424.262262528307 L292.85 424.26 L292.839452094838 399.432721999545 A37.84 37.84 0 0 1 292.839452094838 363.827278000455 L292.85 363.83 L292.847140163772 347.027737471693 A18.75 18.75 0 0 1 328.745375787655 347.334171455405 L328.75 347.33 L328.75 367.87 L332.74 367.87 L332.74 380.13 L411.303837049842 380.131717062688 A38.35 38.35 0 0 0 432.480115908269 371.855832848062 L432.475470055018 371.855248337475 A31.96 31.96 0 0 1 465.924529944982 371.855248337475 L465.91988409173 371.855832848062 A38.35 38.35 0 0 0 487.096162950158 380.131717062688 L487.1 380.13 L565.66 380.13 L565.66 367.87 L569.65 367.87 L569.654624212345 347.334171455405 A18.75 18.75 0 0 1 605.552859836228 347.027737471693 Z" style="fill:rgb(0,0,0);" />
<path d=" M210.39 300.83 L216.287309503333 316.508863683425 A141.77 141.77 0 0 1 304.995148726936 316.206629054611 L304.99695100959 316.204867352081 A111.91 111.91 0 0 0 398.146942407847 317.274200545199 L398.148425436294 317.269696974582 A147.74 147.74 0 0 1 497.185982863835 316.200377220593 L497.185818236671 316.209057541089 A118.4 118.4 0 0 0 590.874181763329 316.209057541089 L590.872404658966 316.20727437403 A151.12 151.12 0 0 1 686.009721847846 315.524798068912 L686.01 315.52 L690.042589502701 299.239409000869 A167.86 167.86 0 0 0 584.819877514252 300.585338697735 L584.821466187862 300.587194364116 A101.66 101.66 0 0 1 503.264831200681 300.598709927514 L503.264819081091 300.589961216177 A164.48 164.48 0 0 0 391.821094547592 301.761725997562 L391.819450274545 301.766295531898 A95.17 95.17 0 0 1 311.25131608386 300.640557539964 L311.249154326036 300.642176246434 A158.51 158.51 0 0 0 210.388814758089 300.830787752231 Z" style="fill:rgb(255,0,0);" />
<path d=" M208.81 269.42 L214.707309503333 285.098863683425 A141.77 141.77 0 0 1 303.415148726936 284.796629054611 L303.41695100959 284.794867352081 A111.91 111.91 0 0 0 396.566942407847 285.864200545199 L396.568425436294 285.869696974582 A147.74 147.74 0 0 1 495.605982863835 284.800377220593 L495.605818236671 284.799057541089 A118.4 118.4 0 0 0 589.294181763329 284.799057541089 L589.292404658966 284.79727437403 A151.12 151.12 0 0 1 684.429721847846 284.114798068912 L684.43 284.11 L688.462589502701 267.829409000869 A167.86 167.86 0 0 0 583.239877514252 269.175338697735 L583.241466187862 269.177194364116 A101.66 101.66 0 0 1 501.684831200681 269.188709927514 L501.68481908109 269.189961216177 A164.48 164.48 0 0 0 390.241094547592 270.361725997562 L390.239450274545 270.356295531898 A95.17 95.17 0 0 1 309.67131608386 269.230557539964 L309.669154326036 269.232176246434 A158.51 158.51 0 0 0 208.808814758088 269.420787752231 Z" style="fill:rgb(255,0,0);" />
<path d=" M402.965718866782 464.342238238409 A183.01 183.01 0 0 0 294.305603454395 520.872632875156 L294.306226447449 520.875752422019 A80.78 80.78 0 0 0 295.584574010015 632.325672711272 L295.58948310339 632.323583110569 A170.01 170.01 0 0 0 377.362543950172 681.293334423396 L377.364234513205 681.290392982887 A264.2 264.2 0 0 0 525.293572904456 680.614470516174 L525.286678890828 680.611569428912 A172.45 172.45 0 0 0 602.837917884126 634.555407117718 L602.84108839865 634.560085452644 A84.34 84.34 0 0 0 602.68946226551 516.944041261708 L602.696055634539 516.948148454443 A179.25 179.25 0 0 0 497.43122934142 464.339649524247 L497.43 464.34 L611.75 464.34 L611.75 450.61 L288.4 450.61 L288.4 464.34 Z" style="fill:rgb(255,128,0);" />
</g>
</svg>
