<?xml version="1.0" encoding="UTF-8"?>
<!DOCTYPE svg PUBLIC '-//W3C//DTD SVG 1.0//EN' 'http://www.w3.org/TR/2001/REC-SVG-20010904/DTD/svg10.dtd'>
<svg xmlns:xlink="http://www.w3.org/1999/xlink" xmlns="http://www.w3.org/2000/svg" width="900" height="900">
<!--Gegenereerd door de SIMaD-toepassing (http://www.dlw.be).-->
<g style="stroke:none;fill-rule:evenodd;" transform="matrix(1,0,0,-1,0,900)">
<path d=" M900 450 A450 450 0 0 1 0 450 A450 450 0 0 1 900 450 Z" style="fill:rgb(255,0,0);" />
<path d=" M775 450 A325 325 0 0 1 125 450 A325 325 0 0 1 775 450 Z" style="fill:rgb(255,255,255);" />
<path d=" M281.47 304.69 L313.61 304.69 L313.61 288.62 L281.47 288.62 L281.47 264.51 L249.33 296.65 L281.47 328.79 Z" style="fill:rgb(0,0,0);" />
<path d=" M618.53 304.69 L586.39 304.69 L586.39 288.62 L618.53 288.62 L618.53 264.51 L650.67 296.65 L618.53 328.79 Z" style="fill:rgb(0,0,0);" />
<path d=" M369.76 514.48 A36.41 36.41 0 0 1 296.94 514.48 L296.93 514.48 L273.25 514.48 L273.25 524.67 L280.32 524.67 L287.39 560.88 L293.75 568.97 L298.7 568.97 L311.43 611.51 L370.11 611.51 L370.11 535.57 L507.97 535.57 L507.97 540.49 L374.7 540.49 L374.7 642.8 L626.75 642.8 L626.75 540.49 L581.15 540.49 L581.15 535.57 L625.34 535.57 L625.34 523.27 L601.3 520.1 L601.3 514.48 L588.57 514.48 A36.41 36.41 0 0 1 515.75 514.48 Z M323.8 598.85 L325.57 598.85 L352.43 598.85 L352.43 568.97 L317.79 568.97 Z M317.79 598.85 L311.43 568.97 L304.71 568.97 L311.43 598.85 Z" style="fill:rgb(0,0,0);" />
<path d=" M365.94 514.5 A32.51 32.51 0 0 1 300.92 514.5 A32.51 32.51 0 0 1 365.94 514.5 Z M344.37 514.58 A10.89 10.89 0 0 1 322.59 514.58 A10.89 10.89 0 0 1 344.37 514.58 Z" style="fill:rgb(0,0,0);" />
<path d=" M584.69 514.52 A32.53 32.53 0 0 1 519.63 514.52 A32.53 32.53 0 0 1 584.69 514.52 Z M563.19 514.49 A10.93 10.93 0 0 1 541.33 514.49 A10.93 10.93 0 0 1 563.19 514.49 Z" style="fill:rgb(0,0,0);" />
</g>
</svg>
