<?xml version="1.0" encoding="UTF-8"?>
<!DOCTYPE svg PUBLIC '-//W3C//DTD SVG 1.0//EN' 'http://www.w3.org/TR/2001/REC-SVG-20010904/DTD/svg10.dtd'>
<svg xmlns:xlink="http://www.w3.org/1999/xlink" xmlns="http://www.w3.org/2000/svg" width="700" height="700">
<!--Gegenereerd door de SIMaD-toepassing (http://www.dlw.be).-->
<g style="stroke:none;fill-rule:evenodd;" transform="matrix(1,0,0,-1,0,700)">
<path d=" M700 350 A350 350 0 0 1 0 350 A350 350 0 0 1 700 350 Z" style="fill:rgb(255,0,0);" />
<path d=" M600 350 A250 250 0 0 1 100 350 A250 250 0 0 1 600 350 Z" style="fill:rgb(255,255,255);" />
<path d=" M361 390 L375.4 390 L375.4 449.199998827139 A9.6 9.6 0 1 0 394.6 449.200001172861 L394.6 390 L409 390 L409 449.199998827139 A9.6 9.6 0 1 0 428.2 449.200001172861 L428.2 390 L442.6 390 L442.599999999996 451.700011808898 A19.9 19.9 0 0 1 405.901284932457 462.36832564555 L405.898716370925 462.3683235932 A19.9 19.9 0 0 1 375.402565029855 466.135729120437 L375.4 466.14 L375.4 470 L361 470 Z" style="fill:rgb(0,0,0);" />
<path d=" M203 350 L116.218398546268 436.784559235664 A249.37 249.37 0 0 1 116.218398546268 263.215440764336 L116.21 263.21 Z" style="fill:rgb(0,0,0);" />
<path d=" M497 350 L583.781601453732 436.784559235664 A249.37 249.37 0 0 0 583.781601453732 263.215440764336 L583.79 263.21 Z" style="fill:rgb(0,0,0);" />
</g>
</svg>
