<?xml version="1.0" encoding="UTF-8"?>
<!DOCTYPE svg PUBLIC '-//W3C//DTD SVG 1.0//EN' 'http://www.w3.org/TR/2001/REC-SVG-20010904/DTD/svg10.dtd'>
<svg xmlns:xlink="http://www.w3.org/1999/xlink" xmlns="http://www.w3.org/2000/svg" width="900" height="900">
<!--Gegenereerd door de SIMaD-toepassing (http://www.dlw.be).-->
<g style="stroke:none;fill-rule:evenodd;" transform="matrix(1,0,0,-1,0,900)">
<path d=" M900 450 A450 450 0 0 1 0 450 A450 450 0 0 1 900 450 Z" style="fill:rgb(255,0,0);" />
<path d=" M775 450 A325 325 0 0 1 125 450 A325 325 0 0 1 775 450 Z" style="fill:rgb(255,255,255);" />
<path d=" M450 639 L335.239258315397 753.758658883398 A320.63 320.63 0 0 0 564.760741684603 753.758658883398 L564.76 753.76 Z" style="fill:rgb(0,0,0);" />
<path d=" M450 261 L335.239258315397 146.241341116602 A320.63 320.63 0 0 1 564.760741684603 146.241341116602 L564.76 146.24 Z" style="fill:rgb(0,0,0);" />
<path d=" M464 488 L482.51 488 L482.52 564.109998492385 A12.34 12.34 0 1 0 507.2 564.110001507615 L507.2 488 L525.71 488 L525.72 564.109998492385 A12.34 12.34 0 1 0 550.4 564.110001507615 L550.4 488 L568.91 488 L568.919999999996 567.330015185412 A25.59 25.59 0 0 1 521.72803424229 581.048716244705 L521.731967433767 581.048713605527 A25.59 25.59 0 0 1 482.516062591026 585.893332377371 L482.51 585.89 L482.51 590.86 L464 590.86 Z" style="fill:rgb(0,0,0);" />
</g>
</svg>
