<?xml version="1.0" encoding="UTF-8"?>
<!DOCTYPE svg PUBLIC '-//W3C//DTD SVG 1.0//EN' 'http://www.w3.org/TR/2001/REC-SVG-20010904/DTD/svg10.dtd'>
<svg xmlns:xlink="http://www.w3.org/1999/xlink" xmlns="http://www.w3.org/2000/svg" width="900" height="900">
<!--Gegenereerd door de SIMaD-toepassing (http://www.dlw.be).-->
<g style="stroke:none;fill-rule:evenodd;" transform="matrix(1,0,0,-1,0,900)">
<path d=" M900 450 A450 450 0 0 1 0 450 A450 450 0 0 1 900 450 Z" style="fill:rgb(255,0,0);" />
<path d=" M701.638747735904 244.323213176825 A325 325 0 0 1 244.323213176825 701.638747735904 L244.32 701.64 Z" style="fill:rgb(255,255,255);" />
<path d=" M655.68 198.36 L198.361252264096 655.676786823175 A325 325 0 0 1 655.676786823175 198.361252264096 Z" style="fill:rgb(255,255,255);" />
<path d=" M348 506.04 L348 360 L445.5 360 L315.5 230 L185.5 360 L283 360 L283 507.9999912559 A167 167 0 0 0 291.988476424395 562.049592203051 L291.99 562.05 Z" style="fill:rgb(0,0,0);" />
<path d=" M617 328.96 L552 393.96 L552 508 A102 102 0 0 1 372.107670244923 573.854270668852 L372.11 573.85 L326.047629874275 619.914297300279 A167 167 0 0 0 617 507.9999912559 Z" style="fill:rgb(0,0,0);" />
<path d=" M584.5 235.5 L552 203 L552 302.04 L617 237.04 L617 203 Z" style="fill:rgb(0,0,0);" />
</g>
</svg>
