<?xml version="1.0" encoding="UTF-8"?>
<!DOCTYPE svg PUBLIC '-//W3C//DTD SVG 1.0//EN' 'http://www.w3.org/TR/2001/REC-SVG-20010904/DTD/svg10.dtd'>
<svg xmlns:xlink="http://www.w3.org/1999/xlink" xmlns="http://www.w3.org/2000/svg" width="900" height="900">
<!--Gegenereerd door de SIMaD-toepassing (http://www.dlw.be).-->
<g style="stroke:none;fill-rule:evenodd;" transform="matrix(1,0,0,-1,0,900)">
<path d=" M900 450 A450 450 0 0 1 0 450 A450 450 0 0 1 900 450 Z" style="fill:rgb(255,0,0);" />
<path d=" M775 450 A325 325 0 0 1 125 450 A325 325 0 0 1 775 450 Z" style="fill:rgb(255,255,255);" />
<path d=" M736.1 330.28 L736.1 377.08 L746.058475649853 377.084970108527 A266.49 266.49 0 0 1 758.847062833047 431.866050196092 L758.85 431.86 L758.979736032354 457.776518490277 A30.32 30.32 0 0 1 755.670347558561 471.424742275837 L755.669551448521 471.426940844768 A13.25 13.25 0 0 1 745.967655001908 478.004733532306 L745.97 478 L704 567.28 L517.5 567.28 L475.532344998092 478.004733532306 A13.25 13.25 0 0 1 465.830448551479 471.426940844768 L465.829652441439 471.424742275837 A30.32 30.32 0 0 1 462.520263967646 457.776518490277 L462.52 457.78 L462.652937166953 431.866050196092 A266.49 266.49 0 0 1 475.441524350147 377.084970108526 L475.44 377.08 L485.4 377.08 L485.4 330.28 L157.63 330.28 L157.63 322.28 L742.38 322.28 L742.38 330.28 Z M697.02 556.28 L732.888442198866 479.961002263663 A1051.82 1051.82 0 0 1 488.60897518954 479.96771511449 L488.61 479.97 L524.48 556.28 Z M707.6 330.28 L513.9 330.28 L513.9 377.08 L707.6 377.08 Z" style="fill:rgb(0,0,0);" />
<path d=" M437.35 431.86 L437.479736032354 457.776518490277 A30.32 30.32 0 0 1 434.170347558561 471.424742275837 L434.169551448521 471.426940844768 A13.25 13.25 0 0 1 424.467655001908 478.004733532306 L424.47 478 L382.5 567.28 L196 567.28 L154.032344998092 478.004733532306 A13.25 13.25 0 0 1 144.330448551479 471.426940844768 L144.329652441439 471.424742275837 A30.32 30.32 0 0 1 141.020263967646 457.776518490277 L141.02 457.78 L141.152937166953 431.866050196092 A266.49 266.49 0 0 1 153.941524350147 377.084970108526 L153.94 377.08 L163.9 377.08 L163.9 330.28 L192.4 330.28 L192.4 377.08 L386.1 377.08 L386.1 330.28 L414.6 330.28 L414.6 377.08 L424.558475649853 377.084970108527 A266.49 266.49 0 0 1 437.347062833047 431.866050196092 Z M375.52 556.28 L411.388442198866 479.961002263663 A1051.82 1051.82 0 0 1 167.10897518954 479.96771511449 L167.11 479.97 L202.98 556.28 Z" style="fill:rgb(255,0,0);" />
</g>
</svg>
