<?xml version="1.0" encoding="UTF-8"?>
<!DOCTYPE svg PUBLIC '-//W3C//DTD SVG 1.0//EN' 'http://www.w3.org/TR/2001/REC-SVG-20010904/DTD/svg10.dtd'>
<svg xmlns:xlink="http://www.w3.org/1999/xlink" xmlns="http://www.w3.org/2000/svg" width="900" height="900">
<!--Gegenereerd door de SIMaD-toepassing (http://www.dlw.be).-->
<g style="stroke:none;fill-rule:evenodd;" transform="matrix(1,0,0,-1,0,900)">
<path d=" M900 450 A450 450 0 0 1 0 450 A450 450 0 0 1 900 450 Z" style="fill:rgb(255,255,255);stroke:rgb(0,0,0);" />
<path d=" M197.634050984293 77.4259432308772 A450 450 0 0 0 77.4259432308771 197.634050984293 L77.43 197.63 L702.365949015707 822.574056769123 A450 450 0 0 0 822.574056769123 702.365949015707 L822.57 702.37 Z" style="fill:rgb(0,0,0);" />
<path d=" M516.253733158707 396.045232927741 A293.69 293.69 0 0 1 522.604323747981 375.390266355797 L522.61 375.39 L533.58 375.39 L533.58 323.82 L444.02 323.82 L435.21 315 L832.25 315 L832.25 323.82 L809.86 323.82 L809.86 375.39 L820.835677937654 375.390271196567 A293.69 293.69 0 0 1 834.929565775217 435.762725738641 L834.93 435.76 L835.069709130638 464.319412360164 A33.41 33.41 0 0 1 831.423051185077 479.35856660408 L831.423241596106 479.36398764782 A14.6 14.6 0 0 1 820.732850292247 486.611970498754 L820.74 486.61 L774.48 585 L705.21 585 L693.09 572.88 L766.79 572.88 L806.324835980305 488.774557204807 A1159.15 1159.15 0 0 1 615.463079171858 495.255496486368 L615.46 495.25 Z M778.45 323.82 L564.99 323.82 L564.99 375.39 L778.45 375.39 Z" style="fill:rgb(178,178,178);" />
<path d=" M255.18 375.39 L373.81 494.02 L331.05 585 L125.52 585 L79.2671497077528 486.611970498754 A14.6 14.6 0 0 1 68.5767584038943 479.36398764782 L68.5769488149233 479.35856660408 A33.41 33.41 0 0 1 64.930290869362 464.319412360164 L64.93 464.32 L65.0704342247827 435.762725738641 A293.69 293.69 0 0 1 79.1643220623466 375.390271196567 L79.17 375.39 L90.14 375.39 L90.14 323.82 L65.18 323.82 L65.18 315 L194.79 315 L203.61 323.82 L121.55 323.82 L121.55 375.39 Z M323.35 572.88 L362.884775698138 488.774564254269 A1159.15 1159.15 0 0 1 93.6785006854359 488.781962098992 L93.68 488.78 L133.21 572.88 Z" style="fill:rgb(178,178,178);" />
</g>
</svg>
