<?xml version="1.0" encoding="UTF-8"?>
<!DOCTYPE svg PUBLIC '-//W3C//DTD SVG 1.0//EN' 'http://www.w3.org/TR/2001/REC-SVG-20010904/DTD/svg10.dtd'>
<svg xmlns:xlink="http://www.w3.org/1999/xlink" xmlns="http://www.w3.org/2000/svg" width="900" height="900">
<!--Gegenereerd door de SIMaD-toepassing (http://www.dlw.be).-->
<g style="stroke:none;fill-rule:evenodd;" transform="matrix(1,0,0,-1,0,900)">
<path d=" M900 450 A450 450 0 0 1 0 450 A450 450 0 0 1 900 450 Z" style="fill:rgb(255,0,0);" />
<path d=" M775 450 A325 325 0 0 1 125 450 A325 325 0 0 1 775 450 Z" style="fill:rgb(255,255,255);" />
<path d=" M438.82 613.72 L438.82 307.28 L420.92 307.28 L420.92 268.13 L389.61 268.13 L389.61 307.28 L235.27 307.28 L235.27 268.13 L203.95 268.13 L203.95 307.28 L186.06 307.28 L186.06 613.719998751042 A17.89 17.89 0 0 0 203.950001248958 631.61 L420.919998751042 631.61 A17.89 17.89 0 0 0 438.81 613.719998751042 Z" style="fill:rgb(255,0,0);" />
<path d=" M700.41 268.13 L694.96 268.13 L694.96 308.73 L703.601219446306 308.730059248345 A231.2 231.2 0 0 1 714.696275008445 356.256742111661 L714.69 356.26 L714.809770943642 378.739785668839 A26.31 26.31 0 0 1 711.938068742274 390.582950833683 L711.939407256113 390.577309457085 A11.49 11.49 0 0 1 703.526215545051 396.281372700845 L703.52 396.29 L667.11 473.74 L505.31 473.74 L468.903784454949 396.281372700845 A11.49 11.49 0 0 1 460.490592743887 390.577309457085 L460.481931257726 390.582950833683 A26.31 26.31 0 0 1 457.610229056358 378.739785668839 L457.61 378.74 L457.733724991555 356.256742111661 A231.2 231.2 0 0 1 468.828780553694 308.730059248344 L468.82 308.73 L477.46 308.73 L477.46 268.13 L199.31 268.13 L199.31 260.3 L700.41 260.3 Z M670.24 268.13 L502.19 268.13 L502.19 308.73 L670.24 308.73 Z M661.05 464.2 L692.178806901665 397.99382174292 A912.52 912.52 0 0 1 480.251006293814 397.99964556319 L480.25 398 L511.37 464.2 Z" style="fill:rgb(0,0,0);" />
</g>
</svg>
