<?xml version="1.0" encoding="UTF-8"?>
<!DOCTYPE svg PUBLIC '-//W3C//DTD SVG 1.0//EN' 'http://www.w3.org/TR/2001/REC-SVG-20010904/DTD/svg10.dtd'>
<svg xmlns:xlink="http://www.w3.org/1999/xlink" xmlns="http://www.w3.org/2000/svg" width="900" height="900">
<!--Gegenereerd door de SIMaD-toepassing (http://www.dlw.be).-->
<g style="stroke:none;fill-rule:evenodd;" transform="matrix(1,0,0,-1,0,900)">
<path d=" M900 450 A450 450 0 0 1 0 450 A450 450 0 0 1 900 450 Z" style="fill:rgb(255,255,255);stroke:rgb(0,0,0);" />
<path d=" M140.64 281.93 L168.79 281.93 L387.33 500.46 L387.33 653.309995835819 A21.69 21.69 0 0 1 365.640001514248 675 L102.690001514248 675 A21.69 21.69 0 0 1 81.0000000000001 653.309998485752 L81 281.93 L102.69 281.93 L102.69 234.49 L72.97 234.49 L72.97 225 L111.86 225 L140.64 253.78 Z" style="fill:rgb(178,178,178);" />
<path d=" M201.87 74.59 L825.408781511136 698.129495957905 A450 450 0 0 1 706.560787099861 819.697934160714 L706.56 819.7 L80.3020658392855 193.439212900139 A450 450 0 0 1 201.870504042095 74.5912184888639 Z" style="fill:rgb(0,0,0);" />
<path d=" M521.1 283.69 L531.57 283.69 L531.57 234.49 L365.64 234.49 L365.64 238.36 L352.28 225 L821.03 225 L821.03 234.49 L795.16 234.49 L795.16 283.69 L805.635958861829 283.696447237829 A280.2 280.2 0 0 1 819.082475161619 341.295826728752 L819.08 341.29 L819.219722450905 368.543028016822 A31.88 31.88 0 0 1 815.740062010783 382.893469121164 L815.74074352286 382.892934790009 A13.93 13.93 0 0 1 805.540938428421 389.808304762643 L805.54 389.81 L761.41 483.68 L610.95 483.68 L599.39 472.11 L754.07 472.11 L791.790972516351 391.864906745838 A1105.91 1105.91 0 0 1 534.949397569797 391.871964806018 L534.95 391.88 L548.96 421.68 L524.84 397.56 L521.199061571579 389.808304762643 A13.93 13.93 0 0 1 510.99925647714 382.892934790009 L510.999937989217 382.893469121164 A31.88 31.88 0 0 1 507.520277549095 368.543028016822 L507.52 368.54 L507.657524838381 341.295826728752 A280.2 280.2 0 0 1 521.104041138171 283.696447237829 Z M765.2 234.49 L561.54 234.49 L561.54 283.69 L765.2 283.69 Z" style="fill:rgb(178,178,178);" />
</g>
</svg>
