<?xml version="1.0" encoding="UTF-8"?>
<!DOCTYPE svg PUBLIC '-//W3C//DTD SVG 1.0//EN' 'http://www.w3.org/TR/2001/REC-SVG-20010904/DTD/svg10.dtd'>
<svg xmlns:xlink="http://www.w3.org/1999/xlink" xmlns="http://www.w3.org/2000/svg" width="900" height="900">
<!--Gegenereerd door de SIMaD-toepassing (http://www.dlw.be).-->
<g style="stroke:none;fill-rule:evenodd;" transform="matrix(1,0,0,-1,0,900)">
<path d=" M900 450 A450 450 0 0 1 0 450 A450 450 0 0 1 900 450 Z" style="fill:rgb(255,0,0);" />
<path d=" M190.58406774091 645.776336900421 A325 325 0 0 1 645.776336900421 190.58406774091 L645.78 190.58 Z" style="fill:rgb(255,255,255);" />
<path d=" M709.42 254.22 L254.223663099579 709.41593225909 A325 325 0 0 0 709.41593225909 254.223663099579 Z" style="fill:rgb(255,255,255);" />
<path d=" M664.69 320 L664.69 440 L681.83 440 L681.83 335.43 L716.11 335.43 L716.11 320 Z" style="fill:rgb(0,0,0);" />
<path d=" M245.71 349.14 L228.57 349.14 L228.57 347.429997607154 A13.71 13.71 0 0 0 201.15 347.430002392846 L201.14 347.43 L201.15 412.569997607154 A13.71 13.71 0 0 0 228.57 412.570002392846 L228.57 410.86 L245.72 410.860005386086 A30.86 30.86 0 0 1 184 410.859994613914 L184 349.140004847477 A30.86 30.86 0 0 1 245.72 349.139995152523 Z" style="fill:rgb(0,0,0);" />
<path d=" M605.37 500 L605.37 620 L661.94 620 L661.94 604.57 L622.51 604.57 L622.51 567.71 L648.23 567.71 L648.23 552.29 L622.51 552.29 L622.51 515.43 L661.94 515.43 L661.94 500 Z" style="fill:rgb(0,0,0);" />
<path d=" M238.887350075458 597.475153477169 A30.86 30.86 0 0 1 238.170000000001 590.859993536697 L238.17 529.140004847478 A30.86 30.86 0 0 1 299.89 529.139995152522 L282.74 529.14 L282.74 527.429997607153 A13.71 13.71 0 0 0 255.32 527.430002392846 L255.31 527.43 L255.31 581.05 Z" style="fill:rgb(0,0,0);" />
<path d=" M623.708474711821 339.932752619121 A13.71 13.71 0 0 1 625.94 347.430000239285 L625.94 412.570002392846 A13.71 13.71 0 0 1 598.52 412.569997607154 L598.51 412.57 L598.51 365.13 L581.37 382.27 L581.370000000001 410.859994613914 A30.86 30.86 0 0 0 643.09 410.860005386086 L643.09 349.140000538609 A30.86 30.86 0 0 0 635.156017473099 328.482378577795 L635.15 328.49 Z" style="fill:rgb(0,0,0);" />
<path d=" M546.543830175607 417.095790409173 A12 12 0 0 1 539.955790409173 423.683830175607 L539.95 423.69 L523.64 440 L537.140031118348 439.999999999982 A27.43 27.43 0 0 0 564.569999999991 412.570022022215 L564.569999999991 400.570022500959 A27.43 27.43 0 0 0 564.530893110338 399.105802397879 L564.53 399.11 Z" style="fill:rgb(0,0,0);" />
<path d=" M464.97 371.39 L464.97 320 L447.83 320 L447.83 388.53 Z" style="fill:rgb(0,0,0);" />
<path d=" M409.94 426.42 L409.94 320 L391.94 320 L363.66 397.19 L363.66 320 L348.23 320 L348.23 440 L366.23 440 L394.51 362.81 L394.51 440 L396.36 440 Z" style="fill:rgb(0,0,0);" />
<path d=" M264.91 349.14 L264.91 410.859994613914 A30.86 30.86 0 0 0 326.63 410.860005386086 L326.63 349.14 A30.86 30.86 0 0 0 264.91 349.14 Z M282.06 347.43 L282.06 412.569997607154 A13.71 13.71 0 0 0 309.48 412.570002392846 L309.49 412.57 L309.48 347.43 A13.71 13.71 0 0 0 282.06 347.43 Z" style="fill:rgb(0,0,0);" />
<path d=" M522.06 534.29 L522.050000000002 529.140012387998 A30.86 30.86 0 1 1 574.73131755254 550.961312982294 L574.73 550.96 L544.424720699107 584.084716552416 A12 12 0 1 0 564.91 592.569999371682 L582.05 592.569998474233 A29.14 29.14 0 1 1 532.304913430998 571.964903361451 L532.31 571.96 L562.604434985266 538.834432954869 A13.71 13.71 0 1 0 539.200000000001 529.140005503547 L539.2 534.29 Z" style="fill:rgb(0,0,0);" />
<path d=" M483.31 500 L500.46 500 L500.46 620 L483.31 620 Z" style="fill:rgb(0,0,0);" />
<path d=" M398.8 564.84 L398.8 620 L415.94 620 L415.94 547.7 Z" style="fill:rgb(0,0,0);" />
<path d=" M336.36 500 L321.49 500 L321.49 514.87 Z" style="fill:rgb(0,0,0);" />
<path d=" M442.06008769952 521.581758807623 A13.71 13.71 0 0 1 443.37 527.429998325007 L443.37 620 L460.51 620 L460.52 529.139994613914 A30.86 30.86 0 0 0 453.766734815278 509.873320562539 L453.76 509.88 Z" style="fill:rgb(0,0,0);" />
<path d=" M516.36 320 L502.86 320 L502.86 333.5 Z" style="fill:rgb(0,0,0);" />
<path d=" M383.2 580.44 L383.199999999991 592.570022022216 A27.43 27.43 0 0 1 355.770030639604 619.999999999983 L343.64 620 Z" style="fill:rgb(0,0,0);" />
</g>
</svg>
