<?xml version="1.0" encoding="UTF-8"?>
<!DOCTYPE svg PUBLIC '-//W3C//DTD SVG 1.0//EN' 'http://www.w3.org/TR/2001/REC-SVG-20010904/DTD/svg10.dtd'>
<svg xmlns:xlink="http://www.w3.org/1999/xlink" xmlns="http://www.w3.org/2000/svg" width="900" height="900">
<!--Gegenereerd door de SIMaD-toepassing (http://www.dlw.be).-->
<g style="stroke:none;fill-rule:evenodd;" transform="matrix(1,0,0,-1,0,900)">
<path d=" M900 450 A450 450 0 0 1 0 450 A450 450 0 0 1 900 450 Z" style="fill:rgb(255,255,255);stroke:rgb(0,0,0);" />
<path d=" M772.03 260 L772.03 440 L797.74 440 L797.74 283.14 L849.17 283.14 L849.17 260 Z" style="fill:rgb(178,178,178);" />
<path d=" M143.57 303.71 L117.86 303.71 L117.86 301.139996409858 A20.57 20.57 0 0 0 76.7200000000003 301.140003590142 L76.71 301.14 L76.7200000000003 398.859996409858 A20.57 20.57 0 0 0 117.86 398.860003590142 L117.86 396.29 L143.579999999999 396.290007271216 A46.29 46.29 0 0 1 51.0000000000006 396.289992728784 L51.0000000000006 303.710007271216 A46.29 46.29 0 0 1 143.579999999999 303.709992728784 Z" style="fill:rgb(178,178,178);" />
<path d=" M197.63 77.43 L822.573955462908 702.366098576499 A450 450 0 0 1 702.366098576499 822.573955462908 L702.37 822.57 L77.426044537092 197.633901423501 A450 450 0 0 1 197.633901423502 77.4260445370919 Z" style="fill:rgb(0,0,0);" />
<path d=" M647.06 303.71 L647.050000000001 396.289991112958 A46.29 46.29 0 0 0 739.629999999999 396.290008887042 L739.63 303.71 A46.29 46.29 0 0 0 647.05 303.71 Z M672.77 301.14 L672.77 398.859996409858 A20.57 20.57 0 0 0 713.91 398.860003590142 L713.91 301.14 A20.57 20.57 0 0 0 672.77 301.14 Z" style="fill:rgb(178,178,178);" />
<path d=" M560.21 440 L580.710045953821 439.999999999974 A41.14 41.14 0 0 0 621.849999999987 398.860033029309 L621.86 398.86 L621.84999999999 380.860028721138 A41.14 41.14 0 0 0 588.446106018997 340.453908087235 L588.45 340.45 L625.46 260 L597.15 260 L560.48 339.71 L555 339.71 L555 260 L529.29 260 L529.29 409.08 Z M555 416.86 L578.140020106193 416.859999999989 A18 18 0 0 0 596.139999999994 398.860014451326 L596.139999999994 380.859985548674 A18 18 0 0 0 578.140020106193 362.860000000011 L555 362.86 Z" style="fill:rgb(178,178,178);" />
<path d=" M472.46 352.25 L472.46 260 L446.74 260 L446.74 326.53 Z" style="fill:rgb(178,178,178);" />
<path d=" M389.91 269.71 L389.91 260 L380.21 260 Z" style="fill:rgb(178,178,178);" />
<path d=" M239.23 359.44 L239.23 398.860003590142 A20.57 20.57 0 0 1 198.09 398.859996409858 L198.09 318.29 L173.470797277592 293.675058180879 A46.29 46.29 0 0 0 172.37 303.710000807913 L172.370000000001 396.289991112958 A46.29 46.29 0 0 0 264.949999999999 396.290008887042 L264.94 396.29 L264.94 385.15 Z" style="fill:rgb(178,178,178);" />
<path d=" M747.34 627.13 L747.34 608.43 L728.64 608.43 Z" style="fill:rgb(178,178,178);" />
<path d=" M589.897585605616 710.104555053937 A43.71 43.71 0 0 1 563.125444946063 683.332414394384 L563.12 683.33 Z" style="fill:rgb(178,178,178);" />
<path d=" M525.69 645.89 L525.69 710 L499.97 710 L499.97 620.18 Z" style="fill:rgb(178,178,178);" />
<path d=" M408.537863776167 528.734286418839 A46.29 46.29 0 0 0 373.2 573.710006463303 L373.2 710 L398.91 710 L398.92 571.140003231128 A20.57 20.57 0 0 1 440.06 571.139996768872 L440.06 710 L465.77 710 L465.77 585.98 Z" style="fill:rgb(178,178,178);" />
<path d=" M257.23 530 L257.23 710 L308.660045953821 709.999999999974 A41.14 41.14 0 0 0 349.799999999987 668.860033029309 L349.79999999999 650.860028721138 A41.14 41.14 0 0 0 316.396106018997 610.453908087235 L316.39 610.45 L353.4 530 L325.1 530 L288.43 609.71 L282.94 609.71 L282.94 530 Z M282.94 686.86 L306.090020420352 686.859999999988 A18 18 0 0 0 324.089999999994 668.860014137167 L324.089999999994 650.859985862833 A18 18 0 0 0 306.090020420352 632.860000000012 L282.94 632.86 Z" style="fill:rgb(178,178,178);" />
<path d=" M224.83 573.71 L199.11 573.71 L199.11 571.139996050843 A20.57 20.57 0 1 0 157.97 571.140003949156 L157.97 668.859996050844 A20.57 20.57 0 0 0 199.11 668.860003949156 L199.11 666.29 L224.829999999999 666.290007271216 A46.29 46.29 0 0 1 132.250000000001 666.289992728784 L132.26 666.29 L132.250000000001 573.710007271216 A46.29 46.29 0 0 1 224.829999999999 573.709992728784 Z" style="fill:rgb(178,178,178);" />
<path d=" M297.34 417.55 L297.34 440 L319.79 440 Z" style="fill:rgb(178,178,178);" />
<path d=" M708.77 588.56 L708.77 553.14 L767.91 553.14 L767.91 530 L683.06 530 L683.06 562.85 Z" style="fill:rgb(178,178,178);" />
</g>
</svg>
