<?xml version="1.0" encoding="UTF-8"?>
<!DOCTYPE svg PUBLIC '-//W3C//DTD SVG 1.0//EN' 'http://www.w3.org/TR/2001/REC-SVG-20010904/DTD/svg10.dtd'>
<svg xmlns:xlink="http://www.w3.org/1999/xlink" xmlns="http://www.w3.org/2000/svg" width="700" height="700">
<!--Gegenereerd door de SIMaD-toepassing (http://www.dlw.be).-->
<g style="stroke:none;fill-rule:evenodd;" transform="matrix(1,0,0,-1,0,700)">
<path d=" M700 350 A350 350 0 0 1 0 350 A350 350 0 0 1 700 350 Z" style="fill:rgb(255,0,0);" />
<path d=" M600 350 A250 250 0 0 1 100 350 A250 250 0 0 1 600 350 Z" style="fill:rgb(255,255,255);" />
<path d=" M405.907993615279 150.26766368758 A0.58 0.58 0 0 1 405.389891973339 149.796662261071 L405.387310633006 149.79406257421 A9.81 9.81 0 0 1 405.23916956632 147.377024128588 L405.244914273258 147.381447937474 A28.19 28.19 0 0 0 405.299479828354 145.791251297244 L405.3 145.79 L400.303790359299 145.793411791016 A5.46 5.46 0 0 0 400.576695839175 147.306087986197 L400.587316754039 147.300092089608 A12.09 12.09 0 0 1 400.97703613697 148.788819928293 L400.975120358314 148.786728308418 A2.48 2.48 0 0 1 400.702114967412 150.71336591239 L400.697460351546 150.717778211402 A23.04 23.04 0 0 1 401.959930717833 158.183497633114 L401.966999245511 158.181928433541 A51.56 51.56 0 0 1 401.951410296828 163.575697427644 L401.947457518221 163.573554814755 A8.97 8.97 0 0 1 399.524677934998 169.494174005287 L399.518268638958 169.497259232847 A244.95 244.95 0 0 1 393.275404882822 175.669978457767 L393.279918079399 175.675681282452 A36.25 36.25 0 0 0 388.58792089704 181.178256182031 L388.582976323368 181.172336707329 A11.73 11.73 0 0 1 388.006050484252 176.876577843156 L388.018163769197 176.884924492899 A5.72 5.72 0 0 0 386.707958424747 173.094687595597 L386.69839147763 173.098100571986 A48.05 48.05 0 0 0 381.679261900163 167.884128968214 L381.678313481475 167.88121495901 A83.12 83.12 0 0 1 373.042492581128 158.918043467801 L373.05 158.92 L372.926217745901 157.125051590015 A2.32 2.32 0 0 0 371.944526591044 156.377096431937 L371.939525293122 156.378607498609 A5.09 5.09 0 0 0 373.420806299056 154.211259553984 L373.425393182317 154.20720317827 A5.5 5.5 0 0 0 370.071913842056 152.101530099288 L370.071488979312 152.106649549186 A3.94 3.94 0 0 0 368.404526194038 153.851507785517 L368.404544481989 153.847900622341 A4.16 4.16 0 0 0 368.412329669707 156.891902808984 L368.410053687314 156.897490531209 A13.87 13.87 0 0 0 370.116900638232 160.755432382348 L370.121235002423 160.756026077166 A1213.91 1213.91 0 0 1 378.226990967066 173.600531696023 L378.22420203783 173.596753459956 A21.43 21.43 0 0 1 379.884420073992 176.854833943095 L379.888116965753 176.855893047255 A3.97 3.97 0 0 1 379.942699559553 179.701981508051 L379.934483253521 179.70319612112 A12.6 12.6 0 0 1 377.549613827174 184.200155622848 L377.55447887845 184.201025234892 A27.21 27.21 0 0 0 372.691051724766 194.738451009492 L372.689368585008 194.736723413568 A44.06 44.06 0 0 0 357.193213877977 190.122174201405 L357.196024923741 190.117879124921 A129.8 129.8 0 0 0 344.008138827367 189.244922161459 L344.01 189.25 L340.893516516399 186.893062011684 A32.97 32.97 0 0 0 341.28326047429 175.309871191432 L341.274576278995 175.31077903689 A30.8 30.8 0 0 1 340.970600102856 170.112006204395 L340.976002168103 170.112485412898 A17.44 17.44 0 0 1 342.121617301041 164.337649797047 L342.116524901393 164.337167477857 A49.36 49.36 0 0 1 346.730570094134 153.72174596265 L346.736555271107 153.725219799912 A11.67 11.67 0 0 1 348.576139172115 151.339996449731 L348.57754498601 151.334163174726 A1.96 1.96 0 0 0 347.92143929997 150.146924371284 L347.91966982647 150.156825002991 A0.96 0.96 0 0 1 348.710948857203 149.536213939998 L348.711258728368 149.526251785271 A20.3 20.3 0 0 0 348.695671510888 145.785303401015 L348.695518249331 145.787766764348 A13.6 13.6 0 0 0 344.564481750669 145.787766764348 L344.562371164116 145.788858779648 A2.95 2.95 0 0 0 344.437540191523 148.145043866968 L344.445767401372 148.143995295309 A3.74 3.74 0 0 0 344.866598897557 150.450775586297 L344.86099503568 150.451030785116 A69.64 69.64 0 0 1 337.815117559899 162.703375197939 L337.817545527972 162.700324040858 A13.28 13.28 0 0 0 335.423923617193 166.824838708673 L335.421670184778 166.825228410998 A53.72 53.72 0 0 1 331.634044388762 176.200771222655 L331.636361826943 176.201371297388 A39.46 39.46 0 0 0 328.651271296452 183.792698179476 L328.649304999216 183.793528591153 A8.01 8.01 0 0 1 326.381472310607 182.811580377659 L326.383973702666 182.814468841074 A174.21 174.21 0 0 0 316.025895084622 176.758616923497 L316.029683850416 176.759724787417 A8.68 8.68 0 0 1 311.656931821055 167.328298878778 L311.654645189803 167.325252416572 A60.58 60.58 0 0 1 314.421420488612 157.996153760614 L314.420751872262 157.996669422912 A1.35 1.35 0 0 1 313.515627354502 157.450473600309 L313.516947875211 157.452455612155 A13.19 13.19 0 0 0 314.382374189841 155.978891840012 L314.382569526897 155.981573183052 A1.85 1.85 0 0 0 314.51508370091 154.66422620414 L314.515431556547 154.661877310321 A8.29 8.29 0 0 0 310.916333256126 152.106673346682 L310.912118299223 152.103494954358 A9.2 9.2 0 0 0 309.91448457155 154.61316744595 L309.917823104114 154.6084921627 A4.81 4.81 0 0 0 310.073777959894 157.3377020746 L310.07 157.34 L310.4 158.74 L307.12448455771 169.983729937177 A10.17 10.17 0 0 0 307.560842430992 177.152467394409 L307.559290016173 177.148388979276 A35.25 35.25 0 0 0 317.208431672286 187.888709602112 L317.206864448774 187.896709265888 A54.76 54.76 0 0 1 322.210200032987 192.042775639809 L322.21677486658 192.040154417545 A21.79 21.79 0 0 0 317.945313872855 200.536308615026 L317.937045957931 200.536749879276 A234.66 234.66 0 0 1 314.983173908108 211.681966270923 L314.995497612177 211.685435737264 A26.89 26.89 0 0 1 309.593466223224 221.663213897833 L309.59 221.66 L294.256650553097 214.807530305006 A0.72 0.72 0 0 1 293.830334090288 214.171931219711 L293.829187979647 214.176695104737 A1.75 1.75 0 0 0 293.618313809011 213.395679542978 L293.612019507497 213.393828767327 A0.81 0.81 0 0 0 292.973502283817 212.973341823153 L292.969557982973 212.966357252307 A13.66 13.66 0 0 0 290.490442017027 212.966357252307 L290.49 212.97 L290.090536738136 213.451148326055 A7.42 7.42 0 0 0 288.047698444163 213.700655346578 L288.047653398559 213.706817167513 A2.57 2.57 0 0 0 287.274624605291 214.058193846462 L287.274732803551 214.055618555509 A1.03 1.03 0 0 0 286.836855727104 215.0955766211 L286.836209857015 215.090138914608 A22.27 22.27 0 0 0 287.903859120186 220.903762212192 L287.900637486243 220.904631464801 A2815.65 2815.65 0 0 1 290.636329648476 229.353321774706 L290.637687565973 229.356006895266 A15.7 15.7 0 0 1 291.448149079452 233.571965313237 L291.447571259358 233.576911097469 A5.44 5.44 0 0 0 291.837343260142 235.330885348069 L291.847906197649 235.328304031575 A171.85 171.85 0 0 1 294.521292724894 242.37419714948 L294.522161990988 242.374712917984 A10.4 10.4 0 0 1 294.724859053858 248.689506174044 L294.720139278722 248.691282169395 A7.64 7.64 0 0 0 297.338947006192 245.308655474179 L297.338188967246 245.30486389779 A12.33 12.33 0 0 0 299.396032536432 248.734603184118 L299.390381262008 248.734722435514 A1.94 1.94 0 0 0 300.450996918619 249.37421129175 L300.460008382469 249.374755052461 A72.05 72.05 0 0 1 300.522357424334 246.343032132609 L300.516902862817 246.335988837917 A7.26 7.26 0 0 1 305.849754730856 241.408558403928 L305.8480373021 241.413933746993 A17.73 17.73 0 0 0 311.22583946182 239.223843401244 L311.225199804635 239.229631790605 A75.85 75.85 0 0 0 324.880989486551 229.408687034149 L324.88 229.4 L327.479019829239 230.696166471338 A2.84 2.84 0 0 0 327.666191947742 231.507245864208 L327.673432829828 231.506493578553 A7.99 7.99 0 0 0 330.26810106801 232.363591139046 L330.269205276109 232.36395087732 A1.29 1.29 0 0 1 331.242116792238 233.080013784814 L331.24 233.08 L331.22 233.94 L335.866890468149 236.138181454032 A7.45 7.45 0 0 1 340.02956754112 244.939047491263 L340.036403707531 244.941994238595 A7.99 7.99 0 0 0 339.81820756067 251.448914868366 L339.813564388966 251.44286466698 A1.97 1.97 0 0 1 339.408009724189 253.322454319815 L339.410113831795 253.320903520187 A0.44 0.44 0 0 1 338.935166995624 253.445479723745 L338.92820823503 253.447557852419 A436.26 436.26 0 0 1 337.104405287983 253.073444424408 L337.105425920309 253.0697892942 A0.47 0.47 0 0 0 336.589574473236 253.319899127929 L336.59579305669 253.322742818346 A9.99 9.99 0 0 0 335.886480515015 255.918359115259 L335.889102188874 255.922381425394 A3.07 3.07 0 0 0 334.829114734618 256.156202196697 L334.820762381039 256.153849008066 A0.18 0.18 0 0 0 334.710162585069 256.327648803245 L334.71580662217 256.323627545651 A17.5 17.5 0 0 0 335.050951245963 259.06713734052 L335.0547625566 259.062622459383 A11.73 11.73 0 0 1 335.273078498849 260.770165037651 L335.272945768062 260.777434529762 A4.89 4.89 0 0 1 335.241774292623 261.650234556083 L335.237420363255 261.651181375962 A0.33 0.33 0 0 1 335.011320336672 261.924060805222 L335.01 261.92 L332.318697594545 261.920602516383 A0.86 0.86 0 0 0 333.055863745519 263.138866689912 L333.054396244898 263.139870353603 A7.49 7.49 0 0 1 334.200102476817 263.287954827578 L334.200506283802 263.285607328102 A2.3 2.3 0 0 1 335.417371643761 263.738031662877 L335.413462642973 263.748627582593 A5.22 5.22 0 0 0 340.799601636175 264.777528242331 L340.807210846392 264.768354082776 A19.18 19.18 0 0 1 346.989187472522 263.521044810578 L346.98 263.53 L344.517927348843 256.633243081282 A2.35 2.35 0 0 1 344.385662607308 256.003040452727 L344.387783069112 256.004093842616 A3.23 3.23 0 0 1 344.418923987016 255.280066125016 L344.413735745391 255.282018687502 A0.31 0.31 0 0 1 344.938206174962 255.109804484132 L344.939022103465 255.108655342701 A1.42 1.42 0 0 0 346.100036070022 255.669682300551 L346.1 255.67 L346.1 253.86 L351.210300582894 248.217000199349 A20.66 20.66 0 0 0 356.354888249297 239.494585617469 L356.355800378084 239.495790965816 A9.01 9.01 0 0 0 356.706686418643 236.470374138133 L356.703003300949 236.468214398425 A8.8 8.8 0 0 1 358.432993246904 230.732752080532 L358.430967999057 230.738651069016 A6.71 6.71 0 0 0 359.748331101988 226.334449183868 L359.752086844608 226.330739466631 A1.2 1.2 0 0 1 360.016730512342 225.505673768581 L360.011100557768 225.512043128629 A0.85 0.85 0 0 1 360.540708537383 225.652233461631 L360.546111231516 225.648959658992 A1.56 1.56 0 0 0 360.889165209343 225.820486695228 L360.886115885552 225.818782063163 A4.82 4.82 0 0 1 362.427937969583 227.578639518615 L362.425187932913 227.58169585228 A2.04 2.04 0 0 0 364.220172330277 228.689903640742 L364.225723382353 228.689979216034 A0.44 0.44 0 0 0 364.634763353778 228.42253007691 L364.629401907555 228.423230564863 A2.38 2.38 0 0 0 364.582701488816 226.454031694585 L364.581061132716 226.447947649204 A74.43 74.43 0 0 1 363.676967847724 224.507264550251 L363.679769865059 224.509130382643 A0.34 0.34 0 0 1 364.045430936296 224.034548943508 L364.041350061161 224.037105673573 A13.67 13.67 0 0 0 365.545819688593 224.200804477267 L365.549218193104 224.200062288827 A0.74 0.74 0 0 1 365.878692772911 223.25870649305 L365.88 223.26 L374.78159797729 224.361227829278 A43.71 43.71 0 0 0 385.053356324898 224.688552401869 L385.048650022294 224.693709530913 A15.24 15.24 0 0 0 393.287141764305 221.38895972433 L393.288210856878 221.392705790333 A185.66 185.66 0 0 1 398.29969546525 220.566551304937 L398.302461359964 220.562834236583 A15.84 15.84 0 0 0 401.73186582092 219.643130275232 L401.730284703292 219.640812007836 A6.92 6.92 0 0 0 405.477672907436 216.111567081013 L405.472956817918 216.109927904218 A429.23 429.23 0 0 1 411.076876863067 201.550647348092 L411.082261851396 201.552926490769 A16.97 16.97 0 0 0 413.178918312574 193.571601934167 L413.174500805996 193.576478620593 A2.35 2.35 0 0 0 410.698776388167 193.163857915732 L410.703875255751 193.159181689368 A5.89 5.89 0 0 1 409.331637421939 193.549022014988 L409.333437847285 193.551800844609 A4.66 4.66 0 0 1 407.806103278854 192.593320458585 L407.80055467071 192.590074028533 A0.92 0.92 0 0 0 406.313188820161 192.92492597519 L406.306600489058 192.925587989579 A15.93 15.93 0 0 0 404.482620402492 197.820714010919 L404.480732470358 197.822748865279 A85.66 85.66 0 0 0 402.734820860828 206.988784700044 L402.750008909591 206.985200923393 A351.84 351.84 0 0 0 402.204436955068 212.472096717326 L402.198616770708 212.470451665796 A7.65 7.65 0 0 1 397.703308147028 217.822751578338 L397.699218020386 217.832734451321 A19.05 19.05 0 0 1 394.776385786512 218.791423425908 L394.779453078976 218.784103005483 A19.56 19.56 0 0 0 398.115267177356 209.805463164707 L398.114181151851 209.809870298753 A21.45 21.45 0 0 0 397.623227963792 202.383228749134 L397.62070053579 202.383990280352 A44.54 44.54 0 0 1 396.342500106147 192.251914404323 L396.347856768638 192.25241888214 A18.49 18.49 0 0 1 400.485892281392 179.760382886784 L400.486848414591 179.76125357494 A77 77 0 0 1 407.080472736906 172.637645275366 L407.078139593698 172.630819425451 A2.68 2.68 0 0 0 407.749094268328 169.77536123673 L407.75 169.78 L406.668513066792 163.838277435868 A38.03 38.03 0 0 1 405.966995146733 154.702954317975 L405.972810324991 154.705864608819 A38.23 38.23 0 0 0 405.91045341949 150.262932350471 Z M332.65445560075 226.833988748544 A4.63 4.63 0 0 1 331.897879344775 225.133642178849 L331.907579768902 225.129701438378 A0.79 0.79 0 0 1 332.380180101772 224.060540182232 L332.38 224.06 L333.318471699345 223.745218673261 A12.43 12.43 0 0 1 332.663780023497 226.831622405851 Z M327.48342606606 229.560286355085 A4.6 4.6 0 0 1 329.432139131713 227.206241017958 L329.436822930138 227.212482717863 A1.91 1.91 0 0 1 331.522476048629 227.290305618976 L331.52 227.28 L330.46 225.23 L325.75 228.72 Z M294.542503591386 215.917924626565 A13.56 13.56 0 0 0 298.05782541525 219.939889154764 L298.068674810018 219.940232298561 A27.05 27.05 0 0 1 303.595478444973 227.158596442846 L303.584301963057 227.152609477736 A28.73 28.73 0 0 0 308.992947955783 222.429786079558 L309 222.44 Z M334.156645995557 223.257582023071 A9.5 9.5 0 0 1 333.751300444765 226.266493465077 L333.748002167114 226.267057084565 A6.09 6.09 0 0 1 332.726719168255 228.239458628937 L332.730829393811 228.245968771898 A1.57 1.57 0 0 0 333.158212608368 230.553838245768 L333.16 230.56 L334.37 229.14 L342.919713578847 233.834690242537 A19.36 19.36 0 0 0 340.425175279382 224.433398988296 L340.427071810545 224.429997459304 A9.49 9.49 0 0 0 338.057158915565 221.654704664603 L338.05 221.66 Z" style="fill:rgb(0,0,0);" />
<path d=" M308.83 546.58 L294.641963450347 516.145031226344 A439.32 439.32 0 0 0 292.5680469477 511.367197430842 L292.570066242884 511.366920863311 A9.63 9.63 0 0 0 290.762440163397 508.582562410384 L290.755806884412 508.587781168581 A41.24 41.24 0 0 0 286.735893983343 504.504891138026 L286.743395384131 504.502242507264 A1.06 1.06 0 0 1 286.420346601466 503.767104888415 L286.421701006731 503.768262075875 A300.01 300.01 0 0 1 286.196506505427 486.559903776488 L286.190301111753 486.559016925492 A27.64 27.64 0 0 1 286.613327719539 481.611042646174 L286.609344713144 481.610728914726 A71 71 0 0 1 291.0899193855 468.169009728179 L291.1 468.17 L293.85 468.17 L293.85 452.3 L286.62 452.3 L286.62 449.69 L413.37 449.69 L413.37 452.3 L406.14 452.3 L406.14 468.17 L408.90007960008 468.169007466928 A71 71 0 0 1 413.380654741641 481.610726497073 L413.376672785101 481.611045496298 A27.64 27.64 0 0 1 413.799698874736 486.559019819915 L413.793493494573 486.559903776489 A300.01 300.01 0 0 1 413.568298993269 503.768262075875 L413.569653398534 503.767104888415 A1.06 1.06 0 0 1 413.246604615869 504.502242507264 L413.254106556053 504.504890661449 A41.24 41.24 0 0 0 409.234193583724 508.587780621843 L409.237559607705 508.582562656561 A9.63 9.63 0 0 0 407.429933691264 511.366921017949 L407.421956146992 511.367190415525 A439.32 439.32 0 0 0 405.348039560957 516.14502417483 L405.35 516.15 L391.16 546.58 Z M403.67 508.12 L388.17 541.72 L311.82 541.72 L295.769215080533 508.117244411554 A511.58 511.58 0 0 0 403.670784919467 508.117244411554 Z M395.83 483.48 L303.98 483.48 L303.98 485.16 L395.83 485.16 Z M306.41 452.3 L393.59 452.3 L393.59 468.17 L306.41 468.17 Z M306.38 495.81 A6.33 6.33 0 0 1 293.72 495.81 A6.33 6.33 0 0 1 306.38 495.81 Z M383.69 493.74 L383.69 491.5 L317.23 491.5 L317.23 493.74 Z M382.57 474.89 L317.42 474.89 L317.42 476.76 L382.57 476.76 Z M406.27 495.6 A6.33 6.33 0 0 1 393.61 495.6 A6.33 6.33 0 0 1 406.27 495.6 Z" style="fill:rgb(0,0,0);" />
<path d=" M433.85 299.69 L433.85 303.5 L411.908166551073 303.505038900058 A26.35 26.35 0 0 1 421.898342626924 350.526416592911 L421.9 350.53 L423.149970440455 352.269302454422 A28.26 28.26 0 0 0 425.369074423061 350.395250627235 L425.37 350.39 L426.736665337093 351.827186521203 A30.24 30.24 0 0 1 415.009135859854 358.652373251599 L415.01 358.65 L415.01 363.74 L400.82 363.74 L400.822927942704 359.554816899015 A30.24 30.24 0 0 1 396.78071972217 358.55433676726 L396.78 358.55 L393.29 367.93 L394.641716485848 367.474559986988 A11.25 11.25 0 0 1 399.282862184743 366.914788380472 L399.284561587371 366.911385286763 A1.11 1.11 0 0 1 400.449953224034 368.030190213721 L400.445392525789 368.03393547583 A15.74 15.74 0 0 1 400.746324103807 374.201770549438 L400.751746533181 374.201086037532 A1.21 1.21 0 0 1 399.302423673172 375.244401098612 L399.303980576597 375.239942916218 A5.93 5.93 0 0 1 395.858573402123 374.117712280862 L395.867995294901 374.114686446292 A45.09 45.09 0 0 1 392.117345135267 371.086001424856 L392.11 371.09 L390.75 374.75 L381.97 372.89 L380.111381197495 374.936469264067 A1.78 1.78 0 0 1 379.201409496661 375.169770373705 L379.198402390456 375.169433406698 A20.2 20.2 0 0 1 372.636872254167 374.556913767148 L372.637712174514 374.565084009674 A20.91 20.91 0 0 0 357.78555920891 375.111334828176 L357.788285785045 375.108521723019 A22.26 22.26 0 0 0 345.942852904702 390.774229506426 L345.93 390.78 L345.945937204526 391.922244601976 A2.8 2.8 0 0 0 348.557755398024 394.534062795474 L348.564210061302 394.540167964296 A5.88 5.88 0 0 1 350.615789938698 394.540167964296 L350.62 394.54 L350.62 397.9 L352.860369985539 397.708365260794 A24.28 24.28 0 0 1 352.740756398527 402.121787184767 L352.73719576516 402.126558981195 A10.76 10.76 0 0 1 353.772912094886 405.181134374814 L353.76830998611 405.183361092511 A5.76 5.76 0 0 1 354.375644626686 405.989085943241 L354.377317641316 405.988642100679 A10.86 10.86 0 0 1 332.690938867476 407.049167252795 L332.7 407.04 L333.438239831189 406.862404747352 A10.77 10.77 0 0 1 334.640030703292 397.539715831217 L334.64962997006 397.538671101688 A13.37 13.37 0 0 0 335.431403749432 394.901789490271 L335.419527477779 394.903982308036 A1.89 1.89 0 0 0 334.371294840907 392.493050157423 L334.377429251332 392.485997273022 A6.19 6.19 0 0 1 331.257341336368 391.509868813938 L331.253118871072 391.506548034036 A31.04 31.04 0 0 1 320.819413150705 375.521315684159 L320.821995558387 375.528350403375 A65.77 65.77 0 0 1 318.32552380748 354.97334325683 L318.33 354.97 L314.97 354.97 L314.97 361.5 L313.1 361.5 L313.1 365.61 L311.05 365.61 L311.05 361.5 L269.05 361.5 L269.05 359.08 L271.44 359.08 L278.132549298456 351.210547617813 A30.41 30.41 0 0 1 268.300006136153 328.839318405561 L268.3 328.84 L270.920415582678 328.842471381962 A27.97 27.97 0 0 0 279.860934406576 349.189160047211 L279.86 349.19 L280.908519464627 347.948099506975 A26.13 26.13 0 0 1 292.261393596734 303.498223295832 L292.27 303.5 L266.15 303.5 L266.15 299.69 Z M295.65 359.08 L274.63 359.08 L279.983214944922 352.779875239678 A30.41 30.41 0 0 0 295.649816787091 359.075633834105 Z M315.57 351.2 L314.344374190733 349.756648338837 A26.13 26.13 0 0 1 282.759568950705 349.516875352132 L282.76 349.52 L281.709076624293 350.761175137679 A27.97 27.97 0 0 0 315.535658969286 351.167609692274 L315.538097503529 351.163927334454 A0.02 0.02 0 0 1 315.563812679385 351.194464089608 Z M293.825294515499 332.766904144984 A6.28 6.28 0 1 1 304.923090347075 327.90571976994 L304.93 327.91 L317.6479622882 327.906115778283 A18.96 18.96 0 1 0 285.561355103196 342.479968425211 L285.56 342.48 Z M417.735650297669 344.738823504891 A18.99 18.99 0 1 0 387.151571155221 327.907344047112 L387.15 327.91 L399.87480204187 327.907359353522 A6.45 6.45 0 1 1 410.398254565631 334.533946077829 L410.4 334.53 Z M335.455421127417 315.250770415791 A19.41 19.41 0 0 1 338.566547069419 311.007437185098 L338.573603182037 311.020417093058 A15.31 15.31 0 0 1 351.209037131711 307.231281463592 L351.21 307.22 L355.276439213342 307.512718010713 A7.1 7.1 0 0 1 362.093210658841 313.503258722772 L362.1 313.5 L363.018453922675 316.760140185543 A5.09 5.09 0 0 0 368.278771131484 320.579370979078 L368.28 320.58 L370.442599336071 320.607422588561 A6.58 6.58 0 0 1 377.843807676764 327.908304081358 L377.85 327.91 L380.024632435818 327.909470488285 A26.35 26.35 0 0 1 400.771833448927 303.505038900058 L400.77 303.5 L305.158594028711 303.498220144451 A26.13 26.13 0 0 1 324.824011197349 327.906042022442 L324.83 327.91 L326.692713571977 327.903588780238 A7.4 7.4 0 0 1 331.323194314825 320.602684482697 L331.331549101554 320.601252576188 A2.81 2.81 0 0 0 333.803303940318 318.601382483628 L333.81 318.61 Z M421.18 353.69 L419.904080772712 351.913144445701 A26.12 26.12 0 0 1 398.220935852277 354.689072104933 L398.22 354.68 L397.472561316969 356.696848045006 A28.26 28.26 0 0 0 421.156073419714 353.653763226054 L421.159309286652 353.653097081669 A0.02 0.02 0 0 1 421.182618898542 353.685516552439 Z M400.72 347.99 L405.126554644159 336.153552982061 A6.45 6.45 0 0 0 408.323248299772 335.806128077467 L408.32 335.8 L415.730040494281 346.107592112336 A18.99 18.99 0 0 1 400.714763269628 347.995129602581 Z M382.533303835293 362.628782504377 A11.28 11.28 0 0 1 391.48539720108 363.44495714236 L391.49 363.44 L388.51 371.43 L362.203117654097 366.02887545015 A8.99 8.99 0 0 0 352.829246406283 368.227621809779 L352.83 368.23 L347.631507326047 371.951492283719 A26.69 26.69 0 0 0 345.467649049652 358.273246721675 L345.467645873684 358.282142231342 A20.21 20.21 0 0 1 364.054746968926 359.269056869886 L364.05 359.26 L369.980797280246 362.649229420844 A11.97 11.97 0 0 0 382.534694706871 362.615054036866 Z M303.401527125725 332.994682410506 A6.28 6.28 0 0 0 304.805036582911 330.332920702804 L304.81 330.33 L317.609592246384 330.332287314114 A18.96 18.96 0 0 1 311.59686868537 342.727200131085 L311.6 342.73 Z M317.421371949545 349.640158798148 A27.97 27.97 0 0 0 326.811554849155 330.335501384265 L326.81 330.33 L324.796193457027 330.332418897839 A26.13 26.13 0 0 1 316.219158057199 348.216037846118 L316.22 348.22 Z M309.72 344.26 L301.465104611589 334.463385382836 A6.28 6.28 0 0 1 295.686952990604 334.324506043142 L295.69 334.32 L287.413410701004 344.047234489881 A18.96 18.96 0 0 0 309.715107680074 344.259209984645 Z M402.123463240068 334.887109445078 A6.45 6.45 0 0 1 399.62477317762 330.334765686787 L399.63 330.33 L387.068400303769 330.334776922365 A18.99 18.99 0 0 0 397.679256619545 346.815549426714 L397.68 346.81 Z M377.795642852872 330.334714266291 A28.26 28.26 0 0 0 394.432208712122 355.531493077679 L394.43 355.53 L395.180809233863 353.521107176073 A26.12 26.12 0 0 1 379.936107156132 330.334801326999 L379.94 330.33 Z" style="fill:rgb(0,0,0);" />
</g>
</svg>
