<?xml version="1.0" encoding="UTF-8"?>
<!DOCTYPE svg PUBLIC '-//W3C//DTD SVG 1.0//EN' 'http://www.w3.org/TR/2001/REC-SVG-20010904/DTD/svg10.dtd'>
<svg xmlns:xlink="http://www.w3.org/1999/xlink" xmlns="http://www.w3.org/2000/svg" width="700" height="700">
<!--Gegenereerd door de SIMaD-toepassing (http://www.dlw.be).-->
<g style="stroke:none;fill-rule:evenodd;" transform="matrix(1,0,0,-1,0,700)">
<path d=" M700 350 A350 350 0 0 1 0 350 A350 350 0 0 1 700 350 Z" style="fill:rgb(255,0,0);" />
<path d=" M599.38 350 A249.38 249.38 0 0 1 100.62 350 A249.38 249.38 0 0 1 599.38 350 Z" style="fill:rgb(255,255,255);" />
<path d=" M251.2 461.78 L217.143635451998 388.749065330717 A1054.26 1054.26 0 0 0 212.166240061109 377.282274206948 L212.171527117191 377.281493826098 A23.12 23.12 0 0 0 207.831703576662 370.596689865468 L207.824983901744 370.604083729282 A98.98 98.98 0 0 0 198.176775921908 360.804725131877 L198.184928020039 360.796505106907 A2.54 2.54 0 0 1 197.41083056733 359.034950690472 L197.408088046236 359.037671239184 A720.01 720.01 0 0 1 196.867620770825 317.737547685225 L196.870722337226 317.739532369796 A66.32 66.32 0 0 1 197.885733604198 305.867336357651 L197.884212427595 305.865815846078 A170.39 170.39 0 0 1 208.636875704803 273.607838545282 L208.63 273.61 L215.24 273.61 L215.24 235.52 L197.88 235.52 L197.88 229.25 L502.1 229.25 L502.1 235.52 L484.74 235.52 L484.74 273.61 L491.343124295197 273.607838545282 A170.39 170.39 0 0 1 502.095787572405 305.865815846078 L502.094266395802 305.867336357651 A66.32 66.32 0 0 1 503.109277662774 317.739532369796 L503.112379229175 317.737547685225 A720.01 720.01 0 0 1 502.571911953764 359.037671239183 L502.56916943267 359.034950690472 A2.54 2.54 0 0 1 501.795071979961 360.796505106907 L501.803224078092 360.804725131877 A98.98 98.98 0 0 0 492.155016098256 370.604083729282 L492.148296423338 370.596689865468 A23.12 23.12 0 0 0 487.808472882809 377.281493826098 L487.813759938892 377.282274206948 A1054.26 1054.26 0 0 0 482.836364548002 388.749065330717 L482.83 388.75 L448.78 461.78 Z M245.37 235.52 L454.61 235.52 L454.61 273.61 L245.37 273.61 Z M459.98 310.35 L239.55 310.35 L239.55 314.38 L459.98 314.38 Z M428.17 289.74 L271.81 289.74 L271.81 294.22 L428.17 294.22 Z M430.86 334.99 L430.86 329.61 L271.36 329.61 L271.36 334.99 Z M478.8 369.49 L441.61 450.13 L258.37 450.13 L219.83734687541 369.483293785513 A1227.79 1227.79 0 0 0 478.80265312459 369.483293785513 Z M245.32 339.94 A15.19 15.19 0 0 1 214.94 339.94 A15.19 15.19 0 0 1 245.32 339.94 Z M485.03 339.45 A15.18 15.18 0 0 1 454.67 339.45 A15.18 15.18 0 0 1 485.03 339.45 Z" style="fill:rgb(0,0,0);" />
</g>
</svg>
