<?xml version="1.0" encoding="UTF-8"?><!DOCTYPE svg PUBLIC '-//W3C//DTD SVG 1.0//EN' 'http://www.w3.org/TR/2001/REC-SVG-20010904/DTD/svg10.dtd'><svg xmlns:xlink="http://www.w3.org/1999/xlink" xmlns="http://www.w3.org/2000/svg"><!--Gegenereerd door de SIMaD (http://www.dlw.be).-->
<g style="stroke:none;fill-rule:evenodd;" transform="matrix(1,0,0,-1,0,700)">
<path d=" M700 350 A350 350 0 0 1 0 350 A350 350 0 0 1 700 350 Z" style="fill:rgb(255,0,0);" />
<path d=" M600 350 A250 250 0 0 1 100 350 A250 250 0 0 1 600 350 Z" style="fill:rgb(255,255,255);" />
<path d=" M308.83 546.58 L294.641963450347 516.145031226344 A439.32 439.32 0 0 0 292.5680469477 511.367197430842 L292.570066242884 511.366920863311 A9.63 9.63 0 0 0 290.762440163397 508.582562410384 L290.755806884412 508.587781168581 A41.24 41.24 0 0 0 286.735893983343 504.504891138026 L286.743395384131 504.502242507264 A1.06 1.06 0 0 1 286.420346601466 503.767104888415 L286.421701006731 503.768262075875 A300.01 300.01 0 0 1 286.196506505427 486.559903776488 L286.190301111753 486.559016925492 A27.64 27.64 0 0 1 286.613327719539 481.611042646174 L286.609344713144 481.610728914726 A71 71 0 0 1 291.0899193855 468.169009728179 L291.1 468.17 L293.85 468.17 L293.85 452.3 L286.62 452.3 L286.62 449.69 L413.37 449.69 L413.37 452.3 L406.14 452.3 L406.14 468.17 L408.90007960008 468.169007466928 A71 71 0 0 1 413.380654741641 481.610726497073 L413.376672785101 481.611045496298 A27.64 27.64 0 0 1 413.799698874736 486.559019819915 L413.793493494573 486.559903776489 A300.01 300.01 0 0 1 413.568298993269 503.768262075875 L413.569653398534 503.767104888415 A1.06 1.06 0 0 1 413.246604615869 504.502242507264 L413.254106556053 504.504890661449 A41.24 41.24 0 0 0 409.234193583724 508.587780621843 L409.237559607705 508.582562656561 A9.63 9.63 0 0 0 407.429933691264 511.366921017949 L407.421956146992 511.367190415525 A439.32 439.32 0 0 0 405.348039560957 516.14502417483 L405.35 516.15 L391.16 546.58 Z M403.67 508.12 L388.17 541.72 L311.82 541.72 L295.769215080533 508.117244411554 A511.58 511.58 0 0 0 403.670784919467 508.117244411554 Z M395.83 483.48 L303.98 483.48 L303.98 485.16 L395.83 485.16 Z M306.41 452.3 L393.59 452.3 L393.59 468.17 L306.41 468.17 Z M306.38 495.81 A6.33 6.33 0 0 1 293.72 495.81 A6.33 6.33 0 0 1 306.38 495.81 Z M383.69 493.74 L383.69 491.5 L317.23 491.5 L317.23 493.74 Z M382.57 474.89 L317.42 474.89 L317.42 476.76 L382.57 476.76 Z M406.27 495.6 A6.33 6.33 0 0 1 393.61 495.6 A6.33 6.33 0 0 1 406.27 495.6 Z" style="fill:rgb(0,0,0);" />
<path d=" M433.85 299.69 L433.85 303.5 L411.908166551073 303.505038900058 A26.35 26.35 0 0 1 421.898342626924 350.526416592911 L421.9 350.53 L423.149970440455 352.269302454422 A28.26 28.26 0 0 0 425.369074423061 350.395250627235 L425.37 350.39 L426.736665722063 351.827186160152 A30.24 30.24 0 0 1 415.009136363946 358.652373095233 L415.01 358.65 L415.01 363.74 L400.82 363.74 L400.822927942704 359.554816899015 A30.24 30.24 0 0 1 396.78071972217 358.55433676726 L396.78 358.55 L393.29 367.93 L394.641716485848 367.474559986988 A11.25 11.25 0 0 1 399.282862184743 366.914788380472 L399.284561587371 366.911385286763 A1.11 1.11 0 0 1 400.449953224034 368.030190213721 L400.445392525789 368.03393547583 A15.74 15.74 0 0 1 400.746324103807 374.201770549438 L400.751746533181 374.201086037532 A1.21 1.21 0 0 1 399.302423673172 375.244401098612 L399.303980576597 375.239942916218 A5.93 5.93 0 0 1 395.858573402123 374.117712280862 L395.867995294901 374.114686446292 A45.09 45.09 0 0 1 392.117345135267 371.086001424856 L392.11 371.09 L390.75 374.75 L381.97 372.89 L380.111381197495 374.936469264067 A1.78 1.78 0 0 1 379.201409496661 375.169770373705 L379.198402390456 375.169433406698 A20.2 20.2 0 0 1 372.636872254167 374.556913767148 L372.637712174514 374.565084009674 A20.91 20.91 0 0 0 357.78555920891 375.111334828176 L357.788285785045 375.108521723019 A22.26 22.26 0 0 0 345.942852904702 390.774229506426 L345.93 390.78 L345.945937204526 391.922244601976 A2.8 2.8 0 0 0 348.557755398024 394.534062795474 L348.564210061302 394.540167964296 A5.88 5.88 0 0 1 350.615789938698 394.540167964296 L350.62 394.54 L350.62 397.9 L352.860369985539 397.708365260794 A24.28 24.28 0 0 1 352.740756398527 402.121787184767 L352.73719576516 402.126558981195 A10.76 10.76 0 0 1 353.772912094886 405.181134374814 L353.76830998611 405.183361092511 A5.76 5.76 0 0 1 354.375644626686 405.989085943241 L354.377317641316 405.988642100679 A10.86 10.86 0 0 1 332.690938867476 407.049167252795 L332.7 407.04 L333.438239831189 406.862404747352 A10.77 10.77 0 0 1 334.640030703292 397.539715831217 L334.64962997006 397.538671101688 A13.37 13.37 0 0 0 335.431403749432 394.901789490271 L335.419527477779 394.903982308036 A1.89 1.89 0 0 0 334.371294840907 392.493050157423 L334.377429251332 392.485997273022 A6.19 6.19 0 0 1 331.257341336368 391.509868813938 L331.253118871072 391.506548034036 A31.04 31.04 0 0 1 320.819413150705 375.521315684159 L320.821995558387 375.528350403375 A65.77 65.77 0 0 1 318.32552380748 354.97334325683 L318.33 354.97 L314.97 354.97 L314.97 361.5 L313.1 361.5 L313.1 365.61 L311.05 365.61 L311.05 361.5 L269.05 361.5 L269.05 359.08 L271.44 359.08 L278.132549298456 351.210547617813 A30.41 30.41 0 0 1 268.300006136153 328.839318405561 L268.3 328.84 L270.920415582678 328.842471381962 A27.97 27.97 0 0 0 279.860934406576 349.189160047211 L279.86 349.19 L280.908519464627 347.948099506975 A26.13 26.13 0 0 1 292.261393596734 303.498223295832 L292.27 303.5 L266.15 303.5 L266.15 299.69 Z M295.65 359.08 L274.63 359.08 L279.983214944922 352.779875239678 A30.41 30.41 0 0 0 295.649816787091 359.075633834105 Z M315.57 351.2 L314.344374190733 349.756648338837 A26.13 26.13 0 0 1 282.759568950705 349.516875352132 L282.76 349.52 L281.709076624293 350.761175137679 A27.97 27.97 0 0 0 315.535658969286 351.167609692274 L315.538097503529 351.163927334454 A0.02 0.02 0 0 1 315.563812679385 351.194464089608 Z M293.825294515499 332.766904144984 A6.28 6.28 0 1 1 304.923090347075 327.90571976994 L304.93 327.91 L317.6479622882 327.906115778283 A18.96 18.96 0 1 0 285.561355103196 342.479968425211 L285.56 342.48 Z M417.735650297669 344.738823504891 A18.99 18.99 0 1 0 387.151571155221 327.907344047112 L387.15 327.91 L399.87480204187 327.907359353522 A6.45 6.45 0 1 1 410.398254565631 334.533946077829 L410.4 334.53 Z M335.455421127417 315.250770415791 A19.41 19.41 0 0 1 338.566547069419 311.007437185098 L338.573603182037 311.020417093058 A15.31 15.31 0 0 1 351.209037131711 307.231281463592 L351.21 307.22 L355.276439213342 307.512718010713 A7.1 7.1 0 0 1 362.093210658841 313.503258722772 L362.1 313.5 L363.018453922675 316.760140185543 A5.09 5.09 0 0 0 368.278771131484 320.579370979078 L368.28 320.58 L370.442599336071 320.607422588561 A6.58 6.58 0 0 1 377.843807676764 327.908304081358 L377.85 327.91 L380.024632435818 327.909470488285 A26.35 26.35 0 0 1 400.771833448927 303.505038900058 L400.77 303.5 L305.158594028711 303.498220144451 A26.13 26.13 0 0 1 324.824011197349 327.906042022442 L324.83 327.91 L326.692713571977 327.903588780238 A7.4 7.4 0 0 1 331.323194314825 320.602684482697 L331.331549101554 320.601252576188 A2.81 2.81 0 0 0 333.803303940318 318.601382483628 L333.81 318.61 Z M421.18 353.69 L419.904080772712 351.913144445701 A26.12 26.12 0 0 1 398.220935852277 354.689072104933 L398.22 354.68 L397.472561316969 356.696848045006 A28.26 28.26 0 0 0 421.156073419714 353.653763226054 L421.159309286652 353.653097081669 A0.02 0.02 0 0 1 421.182618898542 353.685516552439 Z M400.72 347.99 L405.126554644159 336.153552982061 A6.45 6.45 0 0 0 408.323248299772 335.806128077467 L408.32 335.8 L415.730040494281 346.107592112336 A18.99 18.99 0 0 1 400.714763269628 347.995129602581 Z M382.533303835293 362.628782504377 A11.28 11.28 0 0 1 391.48539720108 363.44495714236 L391.49 363.44 L388.51 371.43 L362.203117654097 366.02887545015 A8.99 8.99 0 0 0 352.829246406283 368.227621809779 L352.83 368.23 L347.631507326047 371.951492283719 A26.69 26.69 0 0 0 345.467649049652 358.273246721675 L345.467645873684 358.282142231342 A20.21 20.21 0 0 1 364.054746968926 359.269056869886 L364.05 359.26 L369.980797280246 362.649229420844 A11.97 11.97 0 0 0 382.534694706871 362.615054036866 Z M303.401527125725 332.994682410506 A6.28 6.28 0 0 0 304.805036582911 330.332920702804 L304.81 330.33 L317.609592246384 330.332287314114 A18.96 18.96 0 0 1 311.59686868537 342.727200131085 L311.6 342.73 Z M317.421371949545 349.640158798148 A27.97 27.97 0 0 0 326.811554849155 330.335501384265 L326.81 330.33 L324.796193457027 330.332418897839 A26.13 26.13 0 0 1 316.219158057199 348.216037846118 L316.22 348.22 Z M309.72 344.26 L301.465104611589 334.463385382836 A6.28 6.28 0 0 1 295.686952990604 334.324506043142 L295.69 334.32 L287.413410701004 344.047234489881 A18.96 18.96 0 0 0 309.715107680074 344.259209984645 Z M402.123463240068 334.887109445078 A6.45 6.45 0 0 1 399.62477317762 330.334765686787 L399.63 330.33 L387.068400303769 330.334776922365 A18.99 18.99 0 0 0 397.679256619545 346.815549426714 L397.68 346.81 Z M377.795642852872 330.334714266291 A28.26 28.26 0 0 0 394.432208712122 355.531493077679 L394.43 355.53 L395.180809233863 353.521107176073 A26.12 26.12 0 0 1 379.936107156132 330.334801326999 L379.94 330.33 Z" style="fill:rgb(0,0,0);" />
<path d=" M335.3 195.97 L330.82050296385 195.871613514641 A7.02 7.02 0 0 0 325.951303387728 197.692471521835 L325.943160575318 197.687233071351 A16.36 16.36 0 0 0 320.845819840089 206.862830447464 L320.85 206.87 L316.03794200547 197.939816345409 A24.7 24.7 0 0 0 326.077718409315 166.842472376282 L326.08 166.84 L324.635660163102 167.488356441599 A23.12 23.12 0 1 0 295.371472282626 198.370129926429 L295.37 198.37 L295.37331335476 200.049085641635 A24.7 24.7 0 0 0 313.456701926496 199.273330469321 L313.46 199.27 L323.26032099518 220.53136061699 A4.24 4.24 0 0 0 325.054242989502 222.356247335035 L325.05 222.36 L325.755416265037 222.829526952201 A5.19 5.19 0 0 1 326.827501287373 223.765696302703 L326.830490816145 223.762232953835 A1.14 1.14 0 0 1 325.904430581902 225.648112758654 L325.908558817581 225.643626386985 A3.85 3.85 0 0 1 324.256274790827 225.163280220337 L324.253475811345 225.169474700846 A26.02 26.02 0 0 0 321.70337072983 223.925844488679 L321.700553445651 223.921146962783 A7.9 7.9 0 0 0 320.031558698574 223.425321021775 L320.029672078915 223.424277228917 A0.9 0.9 0 0 0 319.005128132675 224.061008728847 L319 224.06 L317.198711871873 228.827818320356 A35.29 35.29 0 0 1 320.471322391218 230.209063461114 L320.476179089533 230.21281634494 A8.52 8.52 0 0 0 323.883168849583 231.054827729798 L323.884579580228 231.057814575309 A3.6 3.6 0 0 0 326.231358718248 230.292942894741 L326.233902447166 230.296646641811 A24.53 24.53 0 0 1 328.307342281217 228.837344261345 L328.297092412883 228.828344467169 A6.24 6.24 0 0 1 330.608059875189 227.95259980318 L330.61 227.96 L330.612783708392 236.393733145656 A2.06 2.06 0 0 0 330.703559531543 239.694030586066 L330.703559355191 239.704030461822 A2.06 2.06 0 0 0 333.18440063167 239.622537676541 L333.174351567376 239.614274967403 A6.15 6.15 0 0 0 334.518105339989 238.10080093671 L334.52 238.1 L338.2 238.1 L338.2 236.9 L332.38 236.9 L332.379999999999 228.140003873758 A9.65 9.65 0 0 0 331.93750215021 225.25133176812 L331.933921115094 225.252776077277 A87.1 87.1 0 0 1 331.115676858243 222.484891872695 L331.12 222.48 L331.755749781981 222.037655843987 A0.47 0.47 0 0 0 331.909137297201 221.437340821748 L331.91 221.44 L326.36 209.96 L327.834426638368 208.091039121671 A0.58 0.58 0 0 1 328.514535473944 207.915225448492 L328.51 207.91 L328.85290468905 208.128659975575 A0.91 0.91 0 0 0 329.970799288157 208.015890431444 L329.964555112078 208.015143396649 A2.56 2.56 0 0 0 330.551529930183 207.158319983026 L330.558674291742 207.165178752934 A0.92 0.92 0 0 0 330.551020240846 206.437059046915 L330.548724283992 206.436175255597 A1.15 1.15 0 0 1 330.58735314468 205.424980416489 L330.59 205.42 L346.49 189.31 L364.049999943451 189.3 A3.24 3.24 0 0 1 367.239912324555 191.972497258465 L367.24 191.98 L372.59 214.43 L358.3 218.83 L358.3 220.17 L378.419999605556 220.17 A2.26 2.26 0 0 0 380.268327516522 216.609505712559 L380.270784816753 216.605470408904 A5.76 5.76 0 0 0 379.30386554932 215.542663966678 L379.3 215.54 L377.029261460667 213.702723945653 A2.15 2.15 0 0 1 376.355465920901 212.753713867884 L376.35 212.75 L375.01 206.48 L408.960519100846 206.486263535912 A1.44 1.44 0 0 1 410.770816137226 205.271267099249 L410.77 205.27 L413.36 205.27 L413.39 198.88 L412.15 198.88 L418.74 181.16 L417.062915167382 181.163431672472 A23.13 23.13 0 0 0 373.569012634171 166.351067060831 L373.57 166.35 L358.07 166.35 L358.07 161.43 L359.41 161.43 L359.41 159.66 L355.03 159.66 L355.03 161.43 L356.73 161.43 L356.732912305472 165.852558127683 A20.89 20.89 0 0 1 352.213464484554 164.952144010179 L352.21408131975 164.949807766772 A412.09 412.09 0 0 0 347.379660266556 163.448850395242 L347.381419722864 163.453111646129 A9.57 9.57 0 0 0 340.059400524714 164.185757814199 L340.054696110857 164.184888607415 A5.47 5.47 0 0 0 337.737612980496 166.593892402528 L337.734254565543 166.586995724498 A20.74 20.74 0 0 0 336.072920553368 180.020685273369 L336.070875888427 180.026438332535 A125.51 125.51 0 0 0 339.186860646182 191.833090963602 L339.19 191.83 Z M403.61 166.35 L377.344319903439 166.348125380909 A19.79 19.79 0 1 1 393.534827892402 196.068827987857 L393.53 196.06 L395.114805076231 181.063836081418 A4.81 4.81 0 0 0 396.442064148813 171.921897622598 L396.44 171.92 L403.532981828287 172.55137893869 A1.19 1.19 0 0 0 404.576653376005 171.459183884289 L404.58 171.46 L404.862644760655 167.703763539341 A1.22 1.22 0 0 0 403.612253569778 166.350584071366 Z M337.93 174.39 L342.087055806911 173.177708835066 A10.36 10.36 0 0 1 343.747869116392 167.922938646579 L343.748800723821 167.909697305538 A7.26 7.26 0 0 1 346.248899981273 165.550356534994 L346.24273112822 165.555213370369 A3.74 3.74 0 0 0 342.779132045293 165.658785114037 L342.788070560951 165.666931950116 A12.24 12.24 0 0 0 338.792590122051 169.264037596917 L338.788691235585 169.258731983497 A5.97 5.97 0 0 0 337.929527560466 174.384092476459 Z M308.14 177.62 L323.058249633118 177.624292345532 A19.65 19.65 0 0 1 313.662522456691 193.475517404042 L313.66 193.47 L306.921523424403 179.99382212283 A4.8 4.8 0 0 0 308.139452572089 177.627931285841 Z M305.42 181.06 L311.328162329396 194.692818895841 A19.65 19.65 0 1 1 323.051753309833 175.646768283769 L323.05 175.64 L308.112850857836 175.646003869427 A4.8 4.8 0 1 0 305.421325383364 181.067450425314 Z M374.67 175.65 L389.683150264811 175.657159738249 A4.81 4.81 0 0 1 393.277804366682 171.63501796389 L393.27 171.63 L375.673999706773 170.046527925324 A19.79 19.79 0 0 0 374.670449048335 175.656988219023 Z M370.33 188.18 L374.56 204.68 L377.23687417753 204.671137635307 A13.26 13.26 0 0 1 380.308955503025 199.512289288029 L380.311857256652 199.519579629022 A2.05 2.05 0 0 1 381.791768246079 198.890000762608 L381.79 198.89 L384.331404831459 198.887087723192 A24.75 24.75 0 0 1 369.735960155936 177.633692088167 L369.73 177.63 L368.75 177.63 L368.751415375597 185.510402438832 A0.57 0.57 0 0 1 369.193224305883 185.747850572123 L369.184396404529 185.751985494139 A7.29 7.29 0 0 1 370.321174056865 188.187840807583 Z M389.828489431465 177.633319190937 A4.81 4.81 0 0 0 392.101816782184 180.497872744089 L392.1 180.5 L390.462081787966 195.684029723825 A19.79 19.79 0 0 1 374.705027566105 177.634227710966 L374.71 177.63 Z M368.79 175.65 L369.708352621285 175.65704977852 A24.75 24.75 0 0 1 369.987834425518 172.536364070922 L369.98 172.53 L368.79 172.86 Z M358.08 169.68 L364.25 172.29 L364.26 168.72 L358.08 168.05 Z M356.723088594734 167.858554765821 A23.52 23.52 0 0 1 350.488925629784 166.372173513985 L350.49 166.37 L356.71 169.12 Z M413.693954818661 191.863826744645 A24.75 24.75 0 0 1 404.568080315834 198.887318360583 L404.57 198.89 L411.02 198.89 Z" style="fill:rgb(0,0,0);" />
</g>
</svg>
