<?xml version="1.0" encoding="UTF-8"?><!DOCTYPE svg PUBLIC '-//W3C//DTD SVG 1.0//EN' 'http://www.w3.org/TR/2001/REC-SVG-20010904/DTD/svg10.dtd'><svg xmlns:xlink="http://www.w3.org/1999/xlink" xmlns="http://www.w3.org/2000/svg"><!--Gegenereerd door de SIMaD (http://www.dlw.be).-->
<g style="stroke:none;fill-rule:evenodd;" transform="matrix(1,0,0,-1,0,700)">
<path d=" M700 350 A350 350 0 0 1 0 350 A350 350 0 0 1 700 350 Z" style="fill:rgb(255,0,0);" />
<path d=" M600 350 A250 250 0 0 1 100 350 A250 250 0 0 1 600 350 Z" style="fill:rgb(255,255,255);" />
<path d=" M454.82 195.86 L454.82 200.62 L427.380736477888 200.623855080376 A32.94 32.94 0 0 1 439.869404407244 259.405038427722 L439.87 259.41 L441.437988523046 261.588108836332 A35.33 35.33 0 0 0 444.212261124088 259.24521247913 L444.21 259.24 L445.918332152579 261.03148270019 A37.8 37.8 0 0 1 431.258920454933 269.562966369041 L431.26 269.56 L431.26 275.93 L413.53 275.93 L413.526160578184 270.691021237805 A37.8 37.8 0 0 1 408.473400280689 269.440421161299 L408.48 269.44 L404.11 281.17 L405.799720084967 280.596103023726 A14.07 14.07 0 0 1 411.604246305718 279.89601533451 L411.610577098694 279.891734729681 A1.39 1.39 0 0 1 413.069941425137 281.292760669564 L413.066589892473 281.29370077283 A19.68 19.68 0 0 1 413.44285001041 289.005453562021 L413.439700222167 289.006066020663 A1.51 1.51 0 0 1 411.631041138598 290.30805426895 L411.63744294204 290.309928573644 A7.42 7.42 0 0 1 407.326326351833 288.905721007346 L407.32060090427 288.906936681692 A56.37 56.37 0 0 1 402.631664344089 285.120576631607 L402.64 285.12 L400.93 289.69 L389.97 287.36 L387.629250639662 289.918742603668 A2.22 2.22 0 0 1 386.494342103746 290.209713610905 L386.49550298807 290.216791758372 A25.25 25.25 0 0 1 378.293590317709 289.451142208934 L378.295442192339 289.451487135958 A26.14 26.14 0 0 0 359.728475261641 290.134365968843 L359.73310841859 290.133686412921 A27.83 27.83 0 0 0 344.923656618951 309.719339944466 L344.92 309.72 L344.937421505658 311.15780575247 A3.5 3.5 0 0 0 348.20219424753 314.422578494342 L348.206018035915 314.422863302248 A7.36 7.36 0 0 1 350.773981964085 314.422863302248 L350.77 314.42 L350.77 318.62 L353.567982922621 318.391095634782 A30.34 30.34 0 0 1 353.418515203102 323.906055320668 L353.426494814299 323.900698935 A13.45 13.45 0 0 1 354.721140159817 327.718918199619 L354.707887398498 327.729201272301 A7.2 7.2 0 0 1 355.467055716797 328.736357322462 L355.476648286617 328.72841374827 A13.57 13.57 0 0 1 328.378659339931 330.053581917167 L328.37 330.06 L329.307670206853 329.827211504118 A13.46 13.46 0 0 1 330.809629701041 318.176014596548 L330.807226164975 318.172386037281 A16.71 16.71 0 0 0 331.784297323641 314.876777116505 L331.788931310723 314.872612658018 A2.37 2.37 0 0 0 330.474480755781 311.849380324561 L330.471696537909 311.85499496981 A7.74 7.74 0 0 1 326.570326419371 310.634440018865 L326.573898588841 310.640685042545 A38.8 38.8 0 0 1 313.531766438381 290.659144605199 L313.527397823552 290.65474968316 A82.21 82.21 0 0 1 310.406903028933 264.961772071522 L310.41 264.96 L306.21 264.96 L306.21 273.13 L303.87 273.13 L303.87 278.26 L301.31 278.26 L301.31 273.13 L248.81 273.13 L248.81 270.09 L251.8 270.09 L260.169878291165 260.256343799837 A38.01 38.01 0 0 1 247.880007669687 232.294146418789 L247.88 232.3 L251.140519589784 232.300630111806 A34.97 34.97 0 0 0 262.318565470073 257.739446794814 L262.32 257.73 L263.63985249578 256.178294293831 A32.66 32.66 0 0 1 277.829858969358 200.620201792647 L277.83 200.62 L245.18 200.62 L245.18 195.86 Z M415.153351075161 239.85440351623 A8.06 8.06 0 0 1 412.030956870018 234.165738207054 L412.03 234.17 L396.330501485596 234.166045504841 A23.74 23.74 0 0 0 409.595468780831 254.769180799905 L409.6 254.77 Z M438.98 263.36 L437.377600482802 261.138930859375 A32.65 32.65 0 0 1 410.273669815346 264.608840131166 L410.28 264.6 L409.336684052672 267.123324183654 A35.33 35.33 0 0 0 438.945264469869 263.318929751468 L438.949309315268 263.32309706357 A0.02 0.02 0 0 1 438.972618872273 263.355516573802 Z M331.821474319997 215.319654316697 A24.26 24.26 0 0 1 335.709981035761 210.016034317902 L335.720324291587 210.023669703536 A19.14 19.14 0 0 1 351.51667966343 205.286631380042 L351.52 205.28 L356.595687354152 205.633399427483 A8.88 8.88 0 0 1 365.121452204297 213.125794008199 L365.12 213.12 L366.277989604733 217.204556410112 A6.36 6.36 0 0 0 372.850802546181 221.976718937219 L372.85 221.98 L375.555090051044 222.001821869887 A8.23 8.23 0 0 1 384.812224495406 231.133471518173 L384.81 231.13 L387.523293830583 231.131709976627 A32.94 32.94 0 0 1 413.459263522112 200.623855080376 L413.46 200.62 L293.950125563632 200.620197853723 A32.66 32.66 0 0 1 318.53001554636 231.127640541087 L318.54 231.13 L320.885874775019 231.131399883522 A9.24 9.24 0 0 1 326.667718456279 222.015135699397 L326.657527700168 222.009042373019 A3.52 3.52 0 0 0 329.753818459046 219.503867025755 L329.76 219.51 Z M434.668601267334 252.173000000322 A23.74 23.74 0 1 0 396.434475999207 231.13143484352 L396.44 231.13 L412.343396039919 231.132421145642 A8.06 8.06 0 1 1 425.493632837053 239.413086106559 L425.5 239.41 Z M384.737054564472 234.165992746924 A35.33 35.33 0 0 0 405.535705371524 265.666424289965 L405.54 265.66 L406.473511542328 263.148883970091 A32.65 32.65 0 0 1 387.417633945165 234.166001658748 L387.43 234.17 Z M299.65 251.58 L289.333880887606 239.324231668437 A7.85 7.85 0 0 1 282.111191238255 239.150632553927 L282.12 239.15 L271.769263376256 251.304043112351 A23.7 23.7 0 0 0 299.646384600093 251.569012480806 Z M309.279184021294 258.303316166294 A34.97 34.97 0 0 0 321.019430607053 234.167317353094 L321.02 234.16 L318.495246045489 234.160378351843 A32.66 32.66 0 0 1 307.774772797716 256.513191200672 L307.78 256.52 Z M291.754408907156 237.488353013132 A7.85 7.85 0 0 0 293.508795728639 234.161150878506 L293.51 234.16 L309.51449030798 234.160359142643 A23.7 23.7 0 0 1 301.998585856712 249.654000163856 L302 249.66 Z M390.669129794116 274.530978130471 A14.1 14.1 0 0 1 401.85924650135 275.55119642795 L401.86 275.55 L398.13 285.54 L365.262218475839 278.793733107788 A11.24 11.24 0 0 0 353.54227248127 281.542777435141 L353.54 281.54 L347.034398066576 286.194102007676 A33.36 33.36 0 0 0 344.329777905448 269.097576269579 L344.328961466007 269.093346570312 A25.27 25.27 0 0 1 367.569735571735 270.327356115884 L367.57 270.33 L374.964581059756 274.567933536343 A14.97 14.97 0 0 0 390.664818693556 274.525192893224 Z M279.784118230482 237.203630287797 A7.85 7.85 0 1 1 293.656362933844 231.127149712424 L293.66 231.13 L309.56245286025 231.127644722853 A23.7 23.7 0 1 0 269.454193878995 249.344960531514 L269.46 249.35 Z M306.96 260.25 L305.431471912336 258.438807299901 A32.66 32.66 0 0 1 265.95348725335 258.139114006913 L265.95 258.15 L264.629238811281 259.704887185006 A34.97 34.97 0 0 0 306.921537152518 260.213039361417 L306.922146249823 260.205891005732 A0.03 0.03 0 0 1 306.960719024001 260.251696129712 Z M282.07 270.09 L255.79 270.09 L262.483058206396 262.21787431306 A38.01 38.01 0 0 0 282.065022560912 270.087054983043 Z M413.4 256.24 L418.90605136898 241.436967002374 A8.06 8.06 0 0 0 422.900679270723 241.002820512307 L422.91 241 L432.161324978106 253.884140955601 A23.74 23.74 0 0 1 413.390251712531 256.243811309388 Z" style="fill:rgb(0,0,0);" />
<path d=" M298.54 504.47 L280.807454312934 466.431289032929 A549.15 549.15 0 0 0 278.215058684625 460.458996788552 L278.207383006977 460.462671760758 A12.04 12.04 0 0 0 275.947381198885 456.981500820666 L275.947258020345 456.982225777303 A51.55 51.55 0 0 0 270.922366804934 451.878613326811 L270.932718747105 451.869207618536 A1.32 1.32 0 0 1 270.530431615742 450.95375321121 L270.527124077645 450.96022319614 A375.01 375.01 0 0 1 270.245632827573 429.449918720112 L270.250376283565 429.451225082082 A34.54 34.54 0 0 1 270.77900638668 423.268047373591 L270.76418089143 423.265911143407 A88.75 88.75 0 0 1 276.364899231875 406.463762160224 L276.37 406.46 L279.81 406.46 L279.81 386.63 L270.77 386.63 L270.77 383.36 L429.22 383.36 L429.22 386.63 L420.18 386.63 L420.18 406.46 L423.6250995001 406.46375933366 A88.75 88.75 0 0 1 429.225818427051 423.265908121341 L429.210994138834 423.268050341611 A34.54 34.54 0 0 1 429.739623702365 429.451228096232 L429.744367172427 429.449918720112 A375.01 375.01 0 0 1 429.462875922355 450.96022319614 L429.459568380723 450.953753349395 A1.32 1.32 0 0 1 429.057281170061 451.869207698584 L429.067632520821 451.878613922533 A51.55 51.55 0 0 0 424.042741394485 456.982226460727 L424.042618801115 456.981500820666 A12.04 12.04 0 0 0 421.782616993023 460.462671760758 L421.774941315375 460.458996788552 A549.15 549.15 0 0 0 419.182545687067 466.431289032929 L419.18 466.43 L401.45 504.47 Z M420.33 440.75 A7.91 7.91 0 0 1 404.51 440.75 A7.91 7.91 0 0 1 420.33 440.75 Z M417.08 456.4 L397.72 498.4 L302.27 498.4 L282.200991554985 456.40402763263 A639.48 639.48 0 0 0 417.079008445014 456.40402763263 Z M390.71 414.86 L309.27 414.86 L309.27 417.2 L390.71 417.2 Z M295.51 386.63 L404.48 386.63 L404.48 406.46 L295.51 406.46 Z M392.11 438.43 L392.11 435.63 L309.04 435.63 L309.04 438.43 Z M295.48 441.01 A7.91 7.91 0 0 1 279.66 441.01 A7.91 7.91 0 0 1 295.48 441.01 Z M407.28 425.6 L292.47 425.6 L292.47 427.7 L407.28 427.7 Z" style="fill:rgb(0,0,0);" />
</g>
</svg>
