<?xml version="1.0" encoding="UTF-8"?>
<!DOCTYPE svg PUBLIC '-//W3C//DTD SVG 1.0//EN' 'http://www.w3.org/TR/2001/REC-SVG-20010904/DTD/svg10.dtd'>
<svg xmlns:xlink="http://www.w3.org/1999/xlink" xmlns="http://www.w3.org/2000/svg" width="700" height="700">
<!--Gegenereerd door de SIMaD-toepassing (http://www.dlw.be).-->
<g style="stroke:none;fill-rule:evenodd;" transform="matrix(1,0,0,-1,0,700)">
<path d=" M700 350 A350 350 0 0 1 0 350 A350 350 0 0 1 700 350 Z" style="fill:rgb(255,0,0);" />
<path d=" M599.38 350 A249.38 249.38 0 0 1 100.62 350 A249.38 249.38 0 0 1 599.38 350 Z" style="fill:rgb(255,255,255);" />
<path d=" M476.18 412.64 L526.481061421367 412.650113151035 A70.01 70.01 0 0 1 500.499600623763 368.635218652657 L500.5 368.63 L500.49942340939 368.627404794768 A72.41 72.41 0 0 1 417.882242077663 289.958188850135 L417.88 289.96 L291.115021114801 289.957669751991 A76.25 76.25 0 0 1 276.818744045516 341.88944774017 L276.82 341.89 L276.819992317241 362.450086124237 A76.04 76.04 0 0 1 254.286149377035 379.289560967203 L254.29 379.29 L247.52940658527 363.101642322571 A58.54 58.54 0 0 1 239.466642774265 366.500848914474 L239.47 366.5 L246.220579957295 382.682115483171 A76.04 76.04 0 0 1 157.891015060058 353.69517839284 L157.894528492538 353.697302773416 A127.36 127.36 0 0 0 262.710355876664 427.891895740568 L262.71 427.89 L279.67 470.51 L286.76 469.09 L286.76 460.87 L314.26 460.87 L314.26 450.1 L286.76 450.1 L278 428.1 L304.18 428.1 L318.62 417.18 L318.617445495425 403.491401303084 A99.68 99.68 0 0 1 468.289172185326 391.709236849014 L468.282134529141 391.721365040997 A26.25 26.25 0 0 1 476.18 410.49 Z M286.52 343.47 L302.68 298.65 L395.14 298.65 L421.93 349.63 L416.82 349.63 L392.3 302.95 L307.14 302.95 L292.07 344.77 Z" style="fill:rgb(0,0,0);" />
<path d=" M551.2 296.99 A61.25 61.25 0 0 1 428.7 296.99 A61.25 61.25 0 0 1 551.2 296.99 Z M516.2 296.99 A26.25 26.25 0 0 1 463.7 296.99 A26.25 26.25 0 0 1 516.2 296.99 Z" style="fill:rgb(0,0,0);" />
<path d=" M276.44 296.99 A61.25 61.25 0 0 1 153.94 296.99 A61.25 61.25 0 0 1 276.44 296.99 Z M241.44 296.99 A26.25 26.25 0 0 1 188.94 296.99 A26.25 26.25 0 0 1 241.44 296.99 Z" style="fill:rgb(0,0,0);" />
<path d=" M462.485131666247 408.59018790635 A81.57 81.57 0 0 0 335.781475648455 403.938312092554 L335.788325279309 403.936580746376 A134.15 134.15 0 0 1 462.487157526876 408.588278350165 L462.48 408.59 Z" style="fill:rgb(0,0,0);" />
</g>
</svg>
