<?xml version="1.0" encoding="UTF-8"?>
<!DOCTYPE svg PUBLIC '-//W3C//DTD SVG 1.0//EN' 'http://www.w3.org/TR/2001/REC-SVG-20010904/DTD/svg10.dtd'>
<svg xmlns:xlink="http://www.w3.org/1999/xlink" xmlns="http://www.w3.org/2000/svg" width="700" height="700">
<!--Gegenereerd door de SIMaD-toepassing (http://www.dlw.be).-->
<g style="stroke:none;fill-rule:evenodd;" transform="matrix(1,0,0,-1,0,700)">
<path d=" M700 350 A350 350 0 0 1 0 350 A350 350 0 0 1 700 350 Z" style="fill:rgb(255,0,0);" />
<path d=" M600 350 A250 250 0 0 1 100 350 A250 250 0 0 1 600 350 Z" style="fill:rgb(255,255,255);" />
<path d=" M454.81 371.76 L454.81 376.52 L427.380736477888 376.523855080376 A32.94 32.94 0 0 1 439.869404407244 435.305038427722 L439.87 435.31 L441.437989013974 437.488108463215 A35.33 35.33 0 0 0 444.212261574125 435.145212057593 L444.21 435.14 L445.918332152579 436.931482700191 A37.8 37.8 0 0 1 431.258920454933 445.462966369041 L431.26 445.46 L431.26 451.83 L413.53 451.83 L413.526160578184 446.591021237806 A37.8 37.8 0 0 1 408.473400280689 445.340421161299 L408.47 445.34 L404.1 457.06 L405.799720084967 456.486103023726 A14.07 14.07 0 0 1 411.604246305718 455.78601533451 L411.600577147154 455.791734727257 A1.39 1.39 0 0 1 413.059941424692 457.192760718082 L413.056589892473 457.19370077283 A19.68 19.68 0 0 1 413.43285001041 464.905453562021 L413.439700222167 464.906066020663 A1.51 1.51 0 0 1 411.631041138598 466.20805426895 L411.627442812538 466.209928573076 A7.42 7.42 0 0 1 407.316326246839 464.805720931534 L407.32060090427 464.796936681692 A56.37 56.37 0 0 1 402.631665075392 461.010577289742 L402.63 461.01 L400.93 465.59 L389.96 463.26 L387.629250639662 465.818742603667 A2.22 2.22 0 0 1 386.494342103746 466.109713610904 L386.48550298807 466.116791758372 A25.25 25.25 0 0 1 378.283590317709 465.351142208934 L378.285442192339 465.341487135958 A26.14 26.14 0 0 0 359.718475261641 466.024365968843 L359.72310841859 466.033686412921 A27.83 27.83 0 0 0 344.913656618951 485.619339944466 L344.91 485.62 L344.937421505658 487.05780575247 A3.5 3.5 0 0 0 348.20219424753 490.322578494342 L348.196018035915 490.312863302248 A7.36 7.36 0 0 1 350.763981964085 490.312863302248 L350.76 490.32 L350.76 494.52 L353.557982888781 494.291095106331 A30.34 30.34 0 0 1 353.408515265515 499.806054794826 L353.416494814299 499.800698935 A13.45 13.45 0 0 1 354.711140159817 503.618918199619 L354.707887398498 503.619201272301 A7.2 7.2 0 0 1 355.467055716797 504.626357322462 L355.466648286617 504.62841374827 A13.57 13.57 0 0 1 328.36865933993 505.953581917167 L328.37 505.95 L329.297670281505 505.717211726863 A13.46 13.46 0 0 1 330.799629701041 494.066014596548 L330.807226164975 494.07238603728 A16.71 16.71 0 0 0 331.784297323641 490.776777116505 L331.77893128166 490.772612735474 A2.37 2.37 0 0 0 330.464480832248 487.749380356133 L330.461696537909 487.75499496981 A7.74 7.74 0 0 1 326.560326533069 486.534440091814 L326.563898588841 486.530685042545 A38.8 38.8 0 0 1 313.521766438381 466.549144605199 L313.527397823552 466.55474968316 A82.21 82.21 0 0 1 310.406903028933 440.861772071522 L310.4 440.86 L306.2 440.86 L306.2 449.03 L303.87 449.03 L303.87 454.16 L301.3 454.16 L301.3 449.03 L248.81 449.03 L248.81 445.99 L251.8 445.99 L260.169878291165 436.156343799837 A38.01 38.01 0 0 1 247.880007669687 408.194146418789 L247.87 408.2 L251.140519589784 408.200630111806 A34.97 34.97 0 0 0 262.318565470073 433.639446794814 L262.32 433.63 L263.63985249578 432.078294293831 A32.66 32.66 0 0 1 277.829858969358 376.520201792647 L277.83 376.52 L245.18 376.52 L245.18 371.76 Z M413.39 432.14 L418.906051508204 417.336967022514 A8.06 8.06 0 0 0 422.90067940237 416.902820462728 L422.9 416.9 L432.161324978106 429.784140955601 A23.74 23.74 0 0 1 413.390251712531 432.143811309388 Z M282.06 445.99 L255.78 445.99 L262.483058206396 438.11787431306 A38.01 38.01 0 0 0 282.065022560912 445.987054983043 Z M306.95 436.15 L305.431471912336 434.338807299902 A32.66 32.66 0 0 1 265.95348725335 434.039114006913 L265.95 434.04 L264.629238811281 435.604887185007 A34.97 34.97 0 0 0 306.921537152518 436.113039361417 L306.912146249823 436.105891005732 A0.03 0.03 0 0 1 306.950719024001 436.151696129712 Z M279.784118230482 413.103630287797 A7.85 7.85 0 1 1 293.656362933844 407.027149712425 L293.65 407.03 L309.56245286025 407.027644722853 A23.7 23.7 0 1 0 269.454193878995 425.244960531514 L269.45 425.25 Z M390.659129794116 450.430978130471 A14.1 14.1 0 0 1 401.84924650135 451.45119642795 L401.85 451.45 L398.13 461.44 L365.252218475839 454.683733107788 A11.24 11.24 0 0 0 353.53227248127 457.432777435141 L353.53 457.43 L347.024398066576 462.094102007676 A33.36 33.36 0 0 0 344.319777905448 444.997576269579 L344.328961466007 444.983346570312 A25.27 25.27 0 0 1 367.569735571735 446.217356115884 L367.56 446.23 L374.964581059756 450.467933536343 A14.97 14.97 0 0 0 390.664818693556 450.425192893224 Z M291.754408907156 413.388353013133 A7.85 7.85 0 0 0 293.508795728639 410.061150878506 L293.5 410.06 L309.51449030798 410.060359142643 A23.7 23.7 0 0 1 301.998585856712 425.554000163856 L302 425.56 Z M309.279184021294 434.203316166294 A34.97 34.97 0 0 0 321.019430607053 410.067317353095 L321.01 410.06 L318.495246012496 410.060378920912 A32.66 32.66 0 0 1 307.774772374593 432.413191582633 L307.77 432.42 Z M299.65 427.47 L289.333880764486 415.224231728544 A7.85 7.85 0 0 1 282.111191118166 415.050632487975 L282.11 415.05 L271.769263376256 427.204043112351 A23.7 23.7 0 0 0 299.646384600093 427.469012480806 Z M384.73705455215 410.065992130422 A35.33 35.33 0 0 0 405.535705371524 441.566424289965 L405.54 441.56 L406.473511542328 439.048883970092 A32.65 32.65 0 0 1 387.417633945165 410.066001658749 L387.42 410.06 Z M434.668601267334 428.073000000322 A23.74 23.74 0 1 0 396.434475999207 407.03143484352 L396.44 407.03 L412.343396039919 407.032421145642 A8.06 8.06 0 1 1 425.493632837053 415.313086106559 L425.49 415.31 Z M331.821474521763 391.219653944444 A24.26 24.26 0 0 1 335.709981035761 385.916034317902 L335.710324291587 385.923669703536 A19.14 19.14 0 0 1 351.50667966343 381.186631380042 L351.51 381.18 L356.595687354152 381.523399427483 A8.88 8.88 0 0 1 365.121452204297 389.015794008199 L365.11 389.02 L366.267989577252 393.094556302564 A6.36 6.36 0 0 0 372.840802546181 397.866718937219 L372.84 397.88 L375.555090051044 397.901821869887 A8.23 8.23 0 0 1 384.812224495406 407.033471518173 L384.81 407.03 L387.523293801116 407.031710550782 A32.94 32.94 0 0 1 413.459263522112 376.523855080376 L413.46 376.52 L293.950125563632 376.520197853723 A32.66 32.66 0 0 1 318.530015526422 407.027639971411 L318.53 407.03 L320.875874775019 407.031399883522 A9.24 9.24 0 0 1 326.657718456279 397.915135699397 L326.657527700168 397.909042373019 A3.52 3.52 0 0 0 329.753818459046 395.403867025755 L329.75 395.4 Z M438.97 439.26 L437.377600482802 437.038930859375 A32.65 32.65 0 0 1 410.273669815346 440.508840131166 L410.27 440.5 L409.336684052672 443.023324183654 A35.33 35.33 0 0 0 438.945264469869 439.218929751468 L438.949309315268 439.22309706357 A0.02 0.02 0 0 1 438.972618872273 439.255516573802 Z M415.153351075161 415.754403516231 A8.06 8.06 0 0 1 412.030956870018 410.065738207055 L412.03 410.06 L396.330501485596 410.066045504842 A23.74 23.74 0 0 0 409.595468780831 430.669180799905 L409.6 430.66 Z" style="fill:rgb(0,0,0);" />
<path d=" M325.93 253.61 L318.344688409648 253.442730372094 A11.88 11.88 0 0 0 310.104520333608 256.524176303629 L310.104100175614 256.526027917339 A27.68 27.68 0 0 0 301.479748884762 272.050510669989 L301.48 272.05 L293.336491518815 256.934319852621 A41.8 41.8 0 0 0 310.326896431082 204.308003418021 L310.33 204.31 L307.89003059457 205.399534839497 A39.13 39.13 0 1 0 258.361153530163 257.666133479038 L258.36 257.67 L258.365583767768 260.503829148872 A41.8 41.8 0 0 0 288.968286134158 259.191011317363 L288.97 259.19 L305.55950856193 295.183630180458 A7.18 7.18 0 0 0 308.597321921539 298.273878635396 L308.59 298.28 L309.78363701181 299.057160037252 A8.78 8.78 0 0 1 311.597289218874 300.640882219524 L311.596795921689 300.644043585841 A1.93 1.93 0 0 1 310.028991520177 303.836804898636 L310.034986442752 303.829206159885 A6.52 6.52 0 0 1 307.236835085902 303.015737391062 L307.233468993983 303.007568222376 A44.04 44.04 0 0 0 302.91735030943 300.90269207569 L302.916615683461 300.911230360202 A13.37 13.37 0 0 0 300.092010779186 300.072094966773 L300.091441745759 300.074271147032 A1.53 1.53 0 0 0 298.349717892037 301.156714608089 L298.35 301.15 L295.303468372326 309.220838035083 A59.72 59.72 0 0 1 300.841545623781 311.558250783149 L300.841320234881 311.556148543829 A14.42 14.42 0 0 0 306.607621540803 312.981246159987 L306.607830137875 312.986302978788 A6.09 6.09 0 0 0 310.577800171231 311.692393751884 L310.570319755186 311.696732882164 A41.52 41.52 0 0 1 314.079868797713 309.226686294294 L314.086614029476 309.221816167335 A10.56 10.56 0 0 1 317.997489761835 307.739783654636 L318 307.74 L318.002374718009 322.029605680032 A3.48 3.48 0 0 0 318.155724111774 327.60486874282 L318.145724111774 327.60486874282 A3.48 3.48 0 0 0 322.336654920795 327.467201554625 L322.341113864906 327.46826706193 A10.41 10.41 0 0 0 324.615676497971 324.906420132462 L324.61 324.91 L330.83 324.91 L330.83 322.87 L320.98 322.87 L320.98 308.05 A16.33 16.33 0 0 0 320.231194634783 303.16172077792 L320.228967298491 303.16323560952 A147.4 147.4 0 0 1 318.844196906892 298.478956068306 L318.85 298.48 L319.932339639846 297.72984001866 A0.8 0.8 0 0 0 320.19342490875 296.708026382763 L320.2 296.71 L310.8 277.28 L313.290237679087 274.123480446067 A0.98 0.98 0 0 1 314.43938752494 273.826415412969 L314.44 273.82 L315.015684699469 274.190809088725 A1.54 1.54 0 0 0 316.907506758867 273.999968161603 L316.901496167616 274.000884611098 A4.33 4.33 0 0 0 317.894304557868 272.5516551974 L317.909056702056 272.552258921285 A1.56 1.56 0 0 0 317.896077965251 271.317622235506 L317.886544068855 271.316418501998 A1.94 1.94 0 0 1 317.951708911575 269.610575420599 L317.95 269.61 L344.87 242.34 L374.589999808712 242.33 A5.48 5.48 0 0 1 379.985283791446 246.850149589905 L379.98 246.85 L389.04 284.85 L364.85 292.3 L364.85 294.57 L398.899999866308 294.57 A3.83 3.83 0 0 0 402.032342957409 288.53606542811 L402.042159338834 288.533708315136 A9.76 9.76 0 0 0 400.403776064403 286.732850598464 L400.4 286.73 L396.543167548407 283.621959981769 A3.64 3.64 0 0 1 395.40241738483 282.015266263384 L395.4 282.01 L393.14 271.39 L450.587824037127 271.415613171353 A2.44 2.44 0 0 1 453.655271829147 269.356869262767 L453.65 269.35 L458.04 269.35 L458.08 258.54 L455.98 258.54 L467.13 228.55 L464.304783044574 228.551857803122 A39.15 39.15 0 0 0 390.686703941468 203.480346686497 L390.69 203.48 L364.46 203.48 L364.46 195.16 L366.73 195.16 L366.73 192.16 L359.32 192.16 L359.32 195.16 L362.2 195.16 L362.198098788866 202.638914786319 A35.36 35.36 0 0 1 354.548165367463 201.114810816714 L354.547503336091 201.114142356677 A697.38 697.38 0 0 0 346.366211452411 198.574072000894 L346.365455984862 198.578880480271 A16.19 16.19 0 0 0 333.978460887235 199.818331435966 L333.976481550291 199.818644552464 A9.26 9.26 0 0 0 330.053969881901 203.896765035642 L330.058113970713 203.890417714309 A35.1 35.1 0 0 0 327.246508803699 226.625298641835 L327.248144898766 226.623842175277 A212.39 212.39 0 0 0 332.521086436956 246.603331653378 L332.52 246.61 Z M392.56 219.23 L417.96302335418 219.232117747271 A8.14 8.14 0 0 1 424.046285966284 212.425414600346 L424.04 212.42 L394.265439031776 209.740630146554 A33.48 33.48 0 0 0 392.567678154158 219.23215043077 Z M385.21 240.43 L392.38 268.34 L396.900870894629 268.341903587078 A22.44 22.44 0 0 1 402.099755925856 259.611582019346 L402.100764456304 259.608747838518 A3.48 3.48 0 0 1 404.612997757605 258.540001291171 L404.61 258.55 L408.904029496647 258.549219640457 A41.89 41.89 0 0 1 384.200863038636 222.577299507698 L384.19 222.58 L382.54 222.57 L382.536443810856 235.900684855864 A0.97 0.97 0 0 1 383.288293619342 236.304762731497 L383.288394614161 236.309248894401 A12.34 12.34 0 0 1 385.212662405679 240.432515457926 Z M418.208982429838 222.576387415144 A8.14 8.14 0 0 0 422.056149741686 227.424091365157 L422.05 227.43 L419.283367717564 253.113190647535 A33.48 33.48 0 0 1 392.626177175462 222.577215254887 L392.62 222.58 Z M441.53 203.48 L397.091233598858 203.483783109614 A33.48 33.48 0 1 1 424.481743465523 253.76418188121 L424.48 253.77 L427.155051648852 228.381876877466 A8.14 8.14 0 0 0 429.40118276703 212.910902433408 L429.4 212.91 L441.402709489702 213.985365827875 A2.02 2.02 0 0 0 443.174319131157 212.131388367631 L443.18 212.13 L443.647520315604 205.776958478314 A2.07 2.07 0 0 0 441.52595587463 203.480990973919 Z M382.61 219.23 L384.154136129799 219.231824864998 A41.89 41.89 0 0 1 384.627172036773 213.949918631018 L384.62 213.95 L382.61 214.5 Z M364.47 209.12 L374.93 213.54 L374.94 207.5 L364.47 206.37 Z M458.600884546372 246.662163538079 A41.89 41.89 0 0 1 443.155098434838 258.549610298787 L443.15 258.55 L454.07 258.55 Z M279.96 222.56 L305.21319621705 222.554000334957 A33.25 33.25 0 0 1 289.314567677483 249.376057248971 L289.31 249.37 L277.906498460975 226.562044142906 A8.12 8.12 0 0 0 279.966822783762 222.5597562652 Z M275.37 228.38 L285.364574402584 251.435864268202 A33.25 33.25 0 1 1 305.202203406652 219.207813437577 L305.2 219.21 L279.921822732292 219.206990017376 A8.12 8.12 0 1 0 275.368658644574 228.378270361616 Z M330.38 217.09 L337.411945699696 215.032765540473 A17.54 17.54 0 0 1 340.223787961774 206.136169362044 L340.226974255619 206.138229238396 A12.28 12.28 0 0 1 344.455805774098 202.147485558407 L344.453413497524 202.14505084819 A6.33 6.33 0 0 0 338.591236326619 202.320347502194 L338.596810852349 202.322512241183 A20.72 20.72 0 0 0 331.833201843304 208.411745699446 L331.830592722191 208.405397398897 A10.11 10.11 0 0 0 330.375630170149 217.085014321916 Z M362.18110475555 206.031461457722 A39.79 39.79 0 0 1 351.634465062734 203.516877092476 L351.63 203.52 L362.16 208.17 Z" style="fill:rgb(0,0,0);" />
</g>
</svg>
