<?xml version="1.0" encoding="UTF-8"?>
<!DOCTYPE svg PUBLIC '-//W3C//DTD SVG 1.0//EN' 'http://www.w3.org/TR/2001/REC-SVG-20010904/DTD/svg10.dtd'>
<svg xmlns:xlink="http://www.w3.org/1999/xlink" xmlns="http://www.w3.org/2000/svg" width="700" height="700">
<!--Gegenereerd door de SIMaD-toepassing (http://www.dlw.be).-->
<g style="stroke:none;fill-rule:evenodd;" transform="matrix(1,0,0,-1,0,700)">
<path d=" M700 350 A350 350 0 0 1 0 350 A350 350 0 0 1 700 350 Z" style="fill:rgb(255,0,0);" />
<path d=" M600 350 A250 250 0 0 1 100 350 A250 250 0 0 1 600 350 Z" style="fill:rgb(255,255,255);" />
<path d=" M551.25 229.25 L551.25 238.39 L498.575738774565 238.388324779976 A63.25 63.25 0 0 1 522.555948181684 351.257454925892 L522.56 351.26 L525.563600152927 355.443072009716 A67.83 67.83 0 0 0 530.889857865008 350.945001581446 L530.89 350.95 L534.163904322018 354.372859961146 A72.57 72.57 0 0 1 506.020136360107 370.751968926707 L506.02 370.76 L506.02 382.98 L471.98 382.98 L471.976099110532 372.917657001858 A72.57 72.57 0 0 1 462.275544775036 370.516690075195 L462.28 370.52 L453.89 393.04 L457.144869923435 391.941486691408 A27.01 27.01 0 0 1 468.287776171145 390.597533311801 L468.286647165211 390.593332225144 A2.67 2.67 0 0 1 471.089887477139 393.284512433936 L471.090514776735 393.280012671 A37.79 37.79 0 0 1 471.813019952655 408.088346150291 L471.80028711548 408.086974590603 A2.89 2.89 0 0 1 468.338682717538 410.578859111278 L468.337532199563 410.589862982975 A14.24 14.24 0 0 1 460.063881674999 407.89498727897 L460.063058465986 407.898645133933 A108.23 108.23 0 0 1 451.060199933659 400.628752944678 L451.06 400.62 L447.79 409.41 L426.73 404.93 L422.254322291854 409.859789919412 A4.27 4.27 0 0 1 420.071419014524 410.419449220735 L420.068872022799 410.418615202952 A48.49 48.49 0 0 1 404.317951439123 408.948264565583 L404.317235184844 408.951993315479 A50.18 50.18 0 0 0 368.674891227531 410.262891446215 L368.674671356475 410.250170993416 A53.44 53.44 0 0 0 340.23714024262 447.859101379704 L340.24 447.86 L340.284249367201 450.627388215116 A6.72 6.72 0 0 0 346.552611784884 456.895750632799 L346.546697594793 456.896527726481 A14.12 14.12 0 0 1 351.473302405207 456.896527726481 L351.48 456.89 L351.48 464.96 L356.850913208924 464.506854658707 A58.26 58.26 0 0 1 356.56390044059 475.096862734199 L356.564831925893 475.10216793973 A25.81 25.81 0 0 1 359.049207140047 482.429184122678 L359.052400862798 482.430049648406 A13.83 13.83 0 0 1 360.510642454085 484.364638055739 L360.513563509087 484.360838124535 A26.06 26.06 0 0 1 308.474242469646 486.905707397776 L308.47 486.91 L310.269362508471 486.4612339212 A25.84 25.84 0 0 1 313.15276904772 464.093696599897 L313.145710722597 464.093773806051 A32.08 32.08 0 0 0 315.021507739013 457.766811297527 L315.020611507278 457.764961383292 A4.54 4.54 0 0 0 312.502635632915 451.973623734274 L312.505698299847 451.960391297646 A14.86 14.86 0 0 1 305.015449564652 449.617045626788 L305.00693686282 449.630798681929 A74.5 74.5 0 0 1 279.964743559631 411.264250726834 L279.970900773591 411.260710808424 A157.85 157.85 0 0 1 273.979263236721 361.927822773623 L273.98 361.93 L265.92 361.93 L265.92 377.61 L261.44 377.61 L261.44 387.46 L256.51 387.46 L256.51 377.61 L155.72 377.61 L155.72 371.78 L161.47 371.78 L177.520100521541 352.911770807331 A72.99 72.99 0 0 1 153.920014692392 299.21631193265 L153.93 299.21 L160.200997147141 299.21589066783 A67.13 67.13 0 0 0 181.658918822728 348.049484185295 L181.66 348.05 L184.187802036209 345.075968034044 A62.71 62.71 0 0 1 211.433829725776 238.399676209163 L211.44 238.39 L148.75 238.39 L148.75 229.25 Z M315.107311259579 266.618534552558 A46.57 46.57 0 0 1 322.571790841061 256.437567105478 L322.571881965211 256.433164606594 A36.76 36.76 0 0 1 352.910164308571 247.33526811424 L352.91 247.34 L362.661447868926 248.016523052915 A17.04 17.04 0 0 1 379.021706508398 262.393826810026 L379.03 262.4 L381.240413408148 270.225324665888 A12.22 12.22 0 0 0 393.869311423046 279.394481845386 L393.87 279.4 L399.077191470053 279.437883009389 A15.8 15.8 0 0 1 416.849083176658 296.968868394488 L416.84 296.97 L422.043132743186 296.968182460401 A63.25 63.25 0 0 1 471.844254751484 238.388326179634 L471.85 238.39 L242.386164971013 238.399674858612 A62.71 62.71 0 0 1 289.581626910658 296.976536899934 L289.59 296.97 L294.080496299844 296.970042604971 A17.75 17.75 0 0 1 305.187407293427 279.457716682349 L305.192980391829 279.468956291736 A6.76 6.76 0 0 0 311.139264591439 274.657882349657 L311.13 274.65 Z M428.079430334415 380.285478290393 A27.08 27.08 0 0 1 449.570784453909 382.24487416192 L449.57 382.25 L442.42 401.44 L379.30207054105 388.468074258649 A21.59 21.59 0 0 0 356.790201129817 393.748484430637 L356.79 393.75 L344.313601923446 402.68794057318 A64.06 64.06 0 0 0 339.120037116918 369.858221752018 L339.115848718785 369.855687563718 A48.51 48.51 0 0 1 383.730457568026 372.224578244443 L383.73 372.23 L397.935666576229 380.372396425244 A28.74 28.74 0 0 0 428.077569457677 380.29034160453 Z M416.703542791171 302.795371404087 A67.83 67.83 0 0 0 456.63489148384 363.273078712304 L456.64 363.28 L458.437239330813 358.43536819667 A62.68 62.68 0 0 1 421.854656037549 302.795384103387 L421.86 302.8 Z M215.188261979971 308.64131235837 A15.07 15.07 0 1 1 241.819437988619 296.976017579028 L241.82 296.97 L272.367101943434 296.976376763369 A45.51 45.51 0 1 0 195.34908384468 331.95823983438 L195.35 331.95 Z M253.33 336.22 L233.521379318559 312.712324892947 A15.07 15.07 0 0 1 219.655645320443 312.379058943891 L219.66 312.37 L199.794623570801 335.72019098586 A45.51 45.51 0 0 0 253.325727478361 336.228999470965 Z M267.36 352.88 L264.431265441349 349.416380363961 A62.71 62.71 0 0 1 188.630221877439 348.840944090962 L188.63 348.84 L186.094565543186 351.822406450507 A67.13 67.13 0 0 0 267.280762361515 352.797877499803 L267.284292489546 352.791782018943 A0.06 0.06 0 0 1 267.361438084353 352.883392224708 Z M219.57 371.78 L169.11 371.78 L181.961975840231 356.678392640838 A72.99 72.99 0 0 0 219.56501353932 371.789496513625 Z M271.806568623327 349.131922631245 A67.13 67.13 0 0 0 294.343731964938 302.799256655552 L294.35 302.8 L289.514867649835 302.799689593705 A62.71 62.71 0 0 1 268.930639179753 345.719006250671 L268.94 345.72 Z M238.168178678019 309.187899622865 A15.07 15.07 0 0 0 241.536143789754 302.800539607473 L241.54 302.8 L272.275004365647 302.799941997444 A45.51 45.51 0 0 1 257.842543741415 332.551699143175 L257.85 332.55 Z M512.561861669582 337.360452309291 A45.57 45.57 0 1 0 439.169741059972 296.970222145071 L439.17 296.97 L469.699526304887 296.969657792465 A15.48 15.48 0 1 1 494.955814150342 312.873467672562 L494.96 312.88 Z M475.096316277409 313.721066122148 A15.48 15.48 0 0 1 469.099455058526 302.795431188946 L469.1 302.8 L438.970157317993 302.795260729319 A45.57 45.57 0 0 0 464.432883516614 342.343944203254 L464.43 342.35 Z M471.72 345.18 L482.303742643909 316.760528820232 A15.48 15.48 0 0 0 489.975783783096 315.926711956552 L489.98 315.93 L507.749075671551 340.645037220303 A45.57 45.57 0 0 1 471.717074800453 345.174540198049 Z M520.84 358.85 L517.765600724678 354.576733362668 A62.68 62.68 0 0 1 465.732586519074 361.238122835894 L465.74 361.24 L463.932288824187 366.070140403231 A67.83 67.83 0 0 0 520.777816459044 358.766081722217 L520.783273044786 358.76774281286 A0.05 0.05 0 0 1 520.841547420353 358.848791239592 Z" style="fill:rgb(0,0,0);" />
</g>
</svg>
