<?xml version="1.0" encoding="UTF-8"?>
<!DOCTYPE svg PUBLIC '-//W3C//DTD SVG 1.0//EN' 'http://www.w3.org/TR/2001/REC-SVG-20010904/DTD/svg10.dtd'>
<svg xmlns:xlink="http://www.w3.org/1999/xlink" xmlns="http://www.w3.org/2000/svg" width="700" height="700">
<!--Gegenereerd door de SIMaD-toepassing (http://www.dlw.be).-->
<g style="stroke:none;fill-rule:evenodd;" transform="matrix(1,0,0,-1,0,700)">
<path d=" M700 350 A350 350 0 0 1 0 350 A350 350 0 0 1 700 350 Z" style="fill:rgb(255,0,0);" />
<path d=" M600 350 A250 250 0 0 1 100 350 A250 250 0 0 1 600 350 Z" style="fill:rgb(255,255,255);" />
<path d=" M314.72 340.32 L303.961237348702 340.093872623718 A16.85 16.85 0 0 0 292.273793570816 344.464441979474 L292.276995371851 344.459725280186 A39.25 39.25 0 0 0 280.047740019036 366.473307218103 L280.04 366.48 L268.489024335774 345.045580881899 A59.28 59.28 0 0 0 292.584507665898 270.411895756467 L292.59 270.41 L289.125420334595 271.96126215803 A55.49 55.49 0 1 0 218.888840004824 346.080187752411 L218.89 346.08 L218.893919775969 350.107794403151 A59.28 59.28 0 0 0 262.294115826719 348.245979266445 L262.3 348.25 L285.816294104096 399.28761704743 A10.19 10.19 0 0 0 290.127619673012 403.673359707053 L290.13 403.67 L291.815715352738 404.787886385397 A12.45 12.45 0 0 1 294.387465919702 407.033597224724 L294.390649090969 407.029294741202 A2.73 2.73 0 0 1 292.172977690099 411.545480507029 L292.167963733832 411.544686643925 A9.25 9.25 0 0 1 288.198193948558 410.39060902873 L288.203281034081 410.394973027379 A62.45 62.45 0 0 0 282.082900245774 407.410198004697 L282.079321866747 407.41075000968 A18.96 18.96 0 0 0 278.073749018202 406.220771919971 L278.074985930877 406.224423770261 A2.17 2.17 0 0 0 275.604697904352 407.759654124786 L275.6 407.75 L271.282885740996 419.20641281298 A84.69 84.69 0 0 1 279.136532131247 422.52113963203 L279.13560416128 422.515561664822 A20.46 20.46 0 0 0 287.317193590752 424.537579490564 L287.319338931011 424.534761035623 A8.63 8.63 0 0 0 292.945092734956 422.701191895693 L292.9484303272 422.705655879138 A58.88 58.88 0 0 1 297.92536220362 419.202854328746 L297.922886410837 419.190644386027 A14.98 14.98 0 0 1 303.470700696654 417.088291543439 L303.47 417.1 L303.467164111196 437.354095419356 A4.94 4.94 0 0 0 303.684849815358 445.268405678833 L303.690609158346 445.270230718995 A4.93 4.93 0 0 0 309.627761137793 445.075202202385 L309.624432539117 445.072268986457 A14.76 14.76 0 0 0 312.849460625365 441.439909813173 L312.85 441.44 L321.67 441.44 L321.67 438.55 L307.7 438.55 L307.7 417.54 A23.16 23.16 0 0 0 306.638007943509 410.607205114196 L306.635444532406 410.604770500773 A209.04 209.04 0 0 1 304.671588340684 403.961610424144 L304.68 403.96 L306.224583953958 402.90027204909 A1.14 1.14 0 0 0 306.596630512974 401.444187630924 L306.59 401.45 L293.26 373.89 L296.798194274128 369.409732450366 A1.39 1.39 0 0 1 298.428110899579 368.98838513595 L298.43 368.99 L299.253112139179 369.511405094016 A2.18 2.18 0 0 0 301.931145958807 369.241253604986 L301.923095096034 369.242665135352 A6.15 6.15 0 0 0 303.33320397467 367.184290770271 L303.338663601682 367.183200280812 A2.21 2.21 0 0 0 303.320277195618 365.434131676604 L303.316080529431 365.434768538977 A2.75 2.75 0 0 1 303.408453308542 363.016692046717 L303.41 363.02 L341.58 324.34 L383.729999864388 324.34 A7.77 7.77 0 0 1 391.379882333887 330.749044351318 L391.38 330.75 L404.22 384.63 L369.92 395.2 L369.92 398.41 L418.209999905229 398.41 A5.43 5.43 0 0 0 422.650893540139 389.855361690507 L422.648963652608 389.845914250152 A13.84 13.84 0 0 0 420.325682451982 387.292238963396 L420.33 387.3 L414.861943947727 382.892316730604 A5.17 5.17 0 0 1 413.241702714168 380.610282027938 L413.24 380.61 L410.03 365.54 L491.505275061755 365.572549884898 A3.46 3.46 0 0 1 495.855016551945 362.653183446806 L495.86 362.65 L502.07 362.65 L502.13 347.31 L499.15 347.31 L514.97 304.79 L510.948823873173 304.783888767033 A55.52 55.52 0 0 0 406.548421528233 269.229091903814 L406.56 269.24 L369.37 269.24 L369.37 257.44 L372.58 257.44 L372.58 253.18 L362.07 253.18 L362.07 257.44 L366.16 257.44 L366.156625375389 268.044122946437 A50.14 50.14 0 0 1 355.309123629089 265.882964206732 L355.307980941169 265.885257782074 A989.01 989.01 0 0 0 343.705424285969 262.282976927362 L343.70599283337 262.271555567129 A22.97 22.97 0 0 0 326.131608453754 264.030060294237 L326.140313674222 264.041976454323 A13.13 13.13 0 0 0 320.578479972933 269.824451934987 L320.564601523136 269.823065350949 A49.78 49.78 0 0 0 316.577088554079 302.066437788904 L316.587784382302 302.064485623688 A301.21 301.21 0 0 0 324.065832881376 330.399256684938 L324.06 330.4 Z M366.122177743232 272.862568099368 A56.44 56.44 0 0 1 351.16232993568 269.295763837632 L351.17 269.29 L366.1 275.88 Z M321.03 288.54 L331.006937830755 285.612285005221 A24.87 24.87 0 0 1 334.993854424705 272.997784038429 L335.002859915309 273.006903434135 A17.41 17.41 0 0 1 340.998296032905 267.349016727816 L340.990292906847 267.340909486549 A8.98 8.98 0 0 0 332.673965731143 267.589592430337 L332.687427743341 267.591139461678 A29.38 29.38 0 0 0 323.096943540361 276.225390378847 L323.089060445005 276.220029340803 A14.34 14.34 0 0 0 321.025344800236 288.531177343963 Z M243.01 304.55 L257.181569415995 337.243609029947 A47.15 47.15 0 1 1 285.312222274396 291.542779055091 L285.32 291.54 L249.459086163631 291.542605307881 A11.51 11.51 0 1 0 243.00503214274 304.54278224904 Z M249.53 296.29 L285.327810575456 296.287823031375 A47.15 47.15 0 0 1 262.782838074988 334.322709753052 L262.79 334.32 L246.602388966155 301.968303805211 A11.51 11.51 0 0 0 249.522873221236 296.29510997685 Z M502.863274072571 330.469463733522 A59.41 59.41 0 0 1 480.957469515725 347.328695341392 L480.96 347.33 L496.44 347.33 Z M369.38 277.23 L384.21 283.5 L384.23 274.93 L369.38 273.33 Z M395.11 291.57 L397.28004839989 291.566708408439 A59.41 59.41 0 0 1 397.950926013481 284.075706991376 L397.95 284.08 L395.11 284.86 Z M478.66 269.24 L415.630196274605 269.233549045533 A47.48 47.48 0 1 1 454.474324365085 340.539204173233 L454.48 340.55 L458.266357069317 304.549149623431 A11.55 11.55 0 0 0 461.453434823788 282.59709120716 L461.46 282.6 L478.483638039726 284.129280348548 A2.86 2.86 0 0 0 480.991956778435 281.504342095577 L481 281.5 L481.672275236483 272.492346773269 A2.94 2.94 0 0 0 478.65903877846 269.231407470203 Z M445.5726102045 296.311630791758 A11.55 11.55 0 0 0 451.031428687527 303.190129639749 L451.04 303.19 L447.102195317502 339.615994383064 A47.48 47.48 0 0 1 409.298031430435 296.311092601614 L409.3 296.32 Z M398.79 321.64 L408.95 361.22 L415.374318710655 361.221914979538 A31.82 31.82 0 0 1 422.746356219284 348.842287872353 L422.74524976567 348.844059313816 A4.93 4.93 0 0 1 426.304246995363 347.330001829308 L426.31 347.33 L432.381293683356 347.328141294808 A59.41 59.41 0 0 1 397.34631828898 296.311388487762 L397.35 296.32 L395 296.3 L395.001472066996 315.220967266162 A1.37 1.37 0 0 1 396.063363083425 315.791675100935 L396.069918127549 315.786592231844 A17.51 17.51 0 0 1 398.8003823925 321.637353781871 Z M409.21 291.57 L445.22361421877 291.566383290046 A11.55 11.55 0 0 1 453.855270627835 281.908223419409 L453.86 281.91 L411.622767443121 278.106759051244 A47.48 47.48 0 0 0 409.215070479716 291.56725432268 Z" style="fill:rgb(0,0,0);" />
</g>
</svg>
