<?xml version="1.0" encoding="UTF-8"?><!DOCTYPE svg PUBLIC '-//W3C//DTD SVG 1.0//EN' 'http://www.w3.org/TR/2001/REC-SVG-20010904/DTD/svg10.dtd'><svg xmlns:xlink="http://www.w3.org/1999/xlink" xmlns="http://www.w3.org/2000/svg"><!--Gegenereerd door de SIMaD (http://www.dlw.be).-->
<g style="stroke:none;fill-rule:evenodd;" transform="matrix(1,0,0,-1,0,700)">
<path d=" M700 350 A350 350 0 0 1 0 350 A350 350 0 0 1 700 350 Z" style="fill:rgb(255,0,0);" />
<path d=" M600 350 A250 250 0 0 1 100 350 A250 250 0 0 1 600 350 Z" style="fill:rgb(255,255,255);" />
<path d=" M316.679746938233 310.382425011579 A14.04 14.04 0 0 0 322.800253061767 310.382425011579 L322.802601180934 310.390797229243 A2.15 2.15 0 0 1 323.812893721076 314.16458841729 L323.809250005694 314.157549965889 A9.6 9.6 0 0 1 318.360469360109 314.695991101762 L318.363435323173 314.688421902247 A46.37 46.37 0 0 0 304.79594645624 314.022202019356 L304.8 314.03 L296.902085695591 283.703812095707 A45.41 45.41 0 0 1 270.905344110464 284.291736022405 L270.9 284.29 L271.315444299487 282.796972551161 A43.86 43.86 0 0 0 296.510670926636 282.201238156245 L296.51 282.2 L295.859220759717 279.69968068915 A41.28 41.28 0 1 1 276.413488670084 199.735999824432 L276.41 199.73 L246.79 199.73 L246.79 195.86 L453.21 195.86 L453.21 199.73 L423.586509195518 199.735999483752 A41.28 41.28 0 0 1 453.357561472416 260.197130085754 L453.36 260.19 L455.57087420196 261.527415513298 A43.86 43.86 0 0 0 457.011716882022 258.642700649408 L457.02 258.64 L458.422891483708 259.283860725803 A45.41 45.41 0 0 1 397.953120897434 281.685320149245 L397.96 281.68 L388.28 300.51 L390.494509983637 305.159704438835 A1.66 1.66 0 0 0 391.859622164748 306.036962368369 L391.861771918138 306.037996208693 A4.08 4.08 0 0 1 393.886598428213 307.051278082748 L393.880526519035 307.053142803118 A2.24 2.24 0 0 1 392.478649054737 310.840261323692 L392.474182432847 310.845484243728 A61.81 61.81 0 0 1 373.298448672239 310.564802648974 L373.299862472915 310.556427768284 A2.03 2.03 0 0 1 373.611484189195 306.626758286664 L373.61 306.63 L384.131737111809 306.198260119755 A1.68 1.68 0 0 0 385.814116447594 303.7427272582 L385.82 303.74 L384.45 300.87 L305.1 300.87 L307.317186109135 309.397286768876 A27.77 27.77 0 0 1 316.676566513843 310.393553008281 Z M287.786954574743 243.428336245616 A5.68 5.68 0 0 0 288.238455651053 242.494098665509 L288.23 242.49 L319.940451643531 243.599783881015 A37.15 37.15 0 0 1 298.201209288161 274.361588011956 L298.2 274.36 L293.238515414434 255.348325243585 A25.42 25.42 0 0 0 287.77113324237 243.422348988828 Z M285.018069061903 245.778305240462 A5.68 5.68 0 1 1 288.364601395108 238.881755380546 L288.36 238.88 L320.066501641285 239.990180606477 A37.15 37.15 0 1 0 294.815898387774 275.693892958122 L294.81 275.69 L289.68757568164 256.018074270245 A21.97 21.97 0 0 0 285.010193681755 245.768912433741 Z M362.64 217.02 L362.64 213.4 L352.84 213.4 L352.84 217.02 L356.19 217.02 L356.192499524396 228.217099598303 A12.38 12.38 0 0 0 347.468144912198 247.410382989039 L347.46 247.41 L301.97 288.83 L300.307968983925 282.449095754427 A45.41 45.41 0 0 0 327.885472360709 234.161672509383 L327.88 234.16 L326.35064530246 234.3780192248 A43.86 43.86 0 0 1 326.7791346884 240.224492495897 L326.78 240.22 L324.198380714553 240.134369606777 A41.28 41.28 0 0 0 289.426514887246 199.736000392233 L289.42 199.73 L410.573484401288 199.736000505793 A41.28 41.28 0 0 0 375.839525307897 238.693996907519 L375.84 238.69 L373.257198058567 238.694001660601 A43.86 43.86 0 0 1 373.912258462534 232.738190252621 L373.91 232.73 L372.386721979603 232.463893990775 A45.41 45.41 0 0 0 371.705930612551 238.693919375285 L371.71 238.69 L369.987647513521 238.694583044131 A12.38 12.38 0 0 0 359.287500261227 228.217099571294 L359.29 228.21 L359.29 217.02 Z M326.65 243.83 L324.072323849959 243.744170425259 A41.28 41.28 0 0 1 299.255866023655 278.410129006074 L299.25 278.41 L299.913196578568 280.934278403876 A43.86 43.86 0 0 0 326.653077725064 243.834293432429 Z M352.84 267.59 L362.64 267.59 L362.64 263.98 L359.29 263.98 L359.28750004685 252.782900455715 A12.38 12.38 0 0 0 361.369648914329 252.335964209084 L361.37 252.34 L382.74 297.26 L304.16 297.26 L303 292.78 L349.899036238844 250.080380331502 A12.38 12.38 0 0 0 356.192500381904 252.782900509733 L356.19 252.78 L356.19 263.98 L352.84 263.98 Z M394.740120752419 280.034768181988 A45.41 45.41 0 0 1 371.705930517985 242.306078248934 L371.71 242.3 L369.987647734094 242.305415459537 A12.38 12.38 0 0 1 364.630511138189 250.785195975503 L364.63 250.79 L386.33 296.41 Z M453.72 264.62 L451.496840331084 263.292970443202 A41.28 41.28 0 0 1 399.841866698325 278.00846784759 L399.85 278.01 L398.661889080694 280.305436691037 A43.86 43.86 0 0 0 453.710152055811 264.623257664921 Z M401.845692771759 274.108419827114 A36.9 36.9 0 0 0 447.738553943041 261.034436201699 L447.74 261.03 L423.278008796785 246.3313623584 A8.51 8.51 0 0 1 414.88557852596 248.722202526955 L414.89 248.72 Z M449.599579388319 257.938089241853 A36.9 36.9 0 1 0 380.224236538888 238.693705533819 L380.23 238.69 L408.763658954295 238.694848590416 A8.51 8.51 0 1 1 425.137858540008 243.236972003735 L425.15 243.23 Z M396.629010721223 276.357989870033 A41.28 41.28 0 0 1 375.839525118773 242.305998773788 L375.84 242.3 L373.257198027046 242.305997574547 A43.86 43.86 0 0 0 395.449033916456 278.654959131056 L395.45 278.65 Z M398.632314125342 272.457673348821 A36.9 36.9 0 0 1 380.224236412785 242.306291893163 L380.23 242.3 L408.76365914333 242.305152280469 A8.51 8.51 0 0 0 411.674227827501 247.072497791482 L411.68 247.07 Z" style="fill:rgb(0,0,0);" />
<path d=" M331.29 441.78 L325.136451968427 441.652213256167 A9.63 9.63 0 0 0 318.456921785576 444.150052003699 L318.463037100398 444.143071032728 A22.43 22.43 0 0 0 311.474446079668 456.72306193381 L311.47 456.72 L304.873787862619 444.483817143703 A33.88 33.88 0 0 0 318.644958159929 401.828802770396 L318.64 401.83 L316.664407619571 402.715866336838 A31.71 31.71 0 1 0 276.527410642512 445.071446271922 L276.53 445.07 L276.528946843349 447.37699836277 A33.88 33.88 0 0 0 301.333242445581 446.312924962495 L301.33 446.31 L314.771857869072 475.477343593331 A5.82 5.82 0 0 0 317.234263730272 477.982252598608 L317.24 477.98 L318.203541527519 478.605441784403 A7.12 7.12 0 0 1 319.674293599891 479.889735735296 L319.667513801987 479.896739893218 A1.56 1.56 0 0 1 318.400272911407 482.477417429456 L318.405732865361 482.481242421133 A5.29 5.29 0 0 1 316.13545362031 481.821234785079 L316.139674941655 481.811954961524 A35.69 35.69 0 0 0 312.641893897993 480.106164158012 L312.64326242857 480.112306587204 A10.84 10.84 0 0 0 310.353156642824 479.43196041781 L310.349991896605 479.439670714345 A1.24 1.24 0 0 0 308.938398784525 480.316945276556 L308.94 480.31 L306.472174635308 486.848294723677 A48.4 48.4 0 0 1 310.96050248143 488.742647989022 L310.958109122452 488.747605858347 A11.69 11.69 0 0 0 315.632731821891 489.90290343327 L315.628243444946 489.897007173305 A4.93 4.93 0 0 0 318.842028642333 488.849556899857 L318.846458106283 488.849859743048 A33.65 33.65 0 0 1 321.690781897959 486.848003535365 L321.691649504076 486.844653855314 A8.56 8.56 0 0 1 324.861829116939 485.643309429166 L324.86 485.65 L324.861579551486 497.227439055028 A2.82 2.82 0 0 0 324.985845360685 501.745324642559 A2.82 2.82 0 0 0 328.381944466494 501.63376680795 L328.383266188262 501.645741979125 A8.44 8.44 0 0 0 330.22738805407 499.568701817289 L330.22 499.56 L335.26 499.56 L335.26 497.91 L327.28 497.91 L327.28 485.9 A13.24 13.24 0 0 0 326.672885300951 481.936692167768 L326.667332617237 481.936588059517 A119.45 119.45 0 0 1 325.545141809705 478.140540016649 L325.55 478.14 L326.437525910589 477.536120047233 A0.65 0.65 0 0 0 326.649657764024 476.70589648658 L326.65 476.71 L319.03 460.96 L321.041622595173 458.394881996789 A0.8 0.8 0 0 1 321.979704101992 458.152379928954 L321.98 458.16 L322.456265583889 458.457404709208 A1.24 1.24 0 0 0 323.979550881152 458.303740612656 L323.973083719232 458.299862370803 A3.51 3.51 0 0 0 324.777877461373 457.125082855449 L324.782314986134 457.126439999392 A1.26 1.26 0 0 0 324.77183225619 456.129233464683 L324.774780509331 456.126431468112 A1.57 1.57 0 0 1 324.827517005759 454.745929592959 L324.83 454.75 L346.64 432.65 L370.719999922507 432.64 A4.44 4.44 0 0 1 375.091361320077 436.302310981602 L375.09 436.31 L382.43 467.1 L362.83 473.14 L362.83 474.97 L390.41999994572 474.98 A3.11 3.11 0 0 0 392.963495195181 470.080382110032 L392.969147737796 470.0782720263 A7.91 7.91 0 0 0 391.641318721044 468.618765367361 L391.64 468.62 L388.516660513132 466.095132402807 A2.95 2.95 0 0 1 387.592151451992 464.793004251918 L387.59 464.8 L385.75 456.19 L432.304463763663 456.211112361878 A1.98 1.98 0 0 1 434.793622188685 454.540492261467 L434.8 454.54 L438.35 454.54 L438.38 445.77 L436.68 445.77 L445.72 421.47 L443.420884244543 421.46959206935 A31.72 31.72 0 0 0 383.774256680035 401.156224697208 L383.77 401.16 L362.52 401.16 L362.52 394.42 L364.35 394.42 L364.35 391.99 L358.35 391.99 L358.35 394.42 L360.68 394.42 L360.685337395391 400.473789836766 A28.65 28.65 0 0 1 354.487074032178 399.238903560488 L354.484983094427 399.244496906817 A565.15 565.15 0 0 0 347.854943362772 397.186048483331 L347.853192249622 397.186356510263 A13.12 13.12 0 0 0 337.81505889914 398.190778888132 L337.811534963412 398.187930128862 A7.5 7.5 0 0 0 334.634554497564 401.490943485826 L334.639189563057 401.489979927109 A28.44 28.44 0 0 0 332.361068774883 419.911062974813 L332.358733932744 419.913991784964 A172.12 172.12 0 0 0 336.631904503643 436.10528953425 L336.63 436.11 Z M371.01 404.41 L362.53 403.5 L362.53 405.96 L370.85 408.87 Z M334.89 412.19 L340.599677787496 410.51564414653 A14.21 14.21 0 0 1 342.8776868265 403.30808247632 L342.871864225004 403.306024650755 A9.95 9.95 0 0 1 346.298319825104 400.072482191054 L346.299543640174 400.074662061803 A5.13 5.13 0 0 0 341.548679677023 400.216727122631 L341.550687944544 400.219405430959 A16.79 16.79 0 0 0 336.069944929975 405.153682929232 L336.077245819009 405.155351485437 A8.19 8.19 0 0 0 334.898596507248 412.186613838707 Z M360.664240471638 403.227188540124 A32.25 32.25 0 0 1 352.116134663814 401.189104956833 L352.12 401.19 L360.65 404.96 Z M290.31 421.34 L298.408319831748 440.018017545425 A26.94 26.94 0 1 1 314.481273953 413.906026417953 L314.49 413.9 L293.999408076168 413.905147083046 A6.58 6.58 0 1 0 290.309775108534 421.337046672344 Z M294.04 416.62 L314.490180634205 416.617193053346 A26.94 26.94 0 0 1 301.608705360343 438.349109241723 L301.61 438.35 L292.366300555804 419.86527706675 A6.58 6.58 0 0 0 294.03587367952 416.622043644724 Z M424.97 401.16 L388.959918385216 401.157032131536 A27.13 27.13 0 1 1 411.155394271793 441.900975341614 L411.15 441.91 L413.32220403961 421.336656927675 A6.6 6.6 0 0 0 415.143391327879 408.792623546949 L415.14 408.8 L424.867051240451 409.668118794387 A1.64 1.64 0 0 0 426.305387807309 408.162909396322 L426.31 408.17 L426.68987156049 403.024198185299 A1.68 1.68 0 0 0 424.968022188428 401.16080426778 Z M438.807267375253 436.149163335349 A33.95 33.95 0 0 1 426.289138024893 445.783415365095 L426.28 445.79 L435.13 445.78 Z M379.33 431.1 L385.14 453.72 L388.809475617841 453.726248093275 A18.18 18.18 0 0 1 393.021406538862 446.653287037064 L393.016654058279 446.646054176471 A2.82 2.82 0 0 1 395.052429365024 445.780001046421 L395.05 445.78 L398.530155201985 445.783098753724 A33.95 33.95 0 0 1 378.509326812167 416.62944183066 L378.51 416.63 L377.16 416.62 L377.159680986718 427.430557767137 A0.79 0.79 0 0 1 377.772012297017 427.759652076708 L377.766737936921 427.76281109757 A10 10 0 0 1 379.326112160194 431.104194050183 Z M385.29 413.92 L405.869208125011 413.917933308598 A6.6 6.6 0 0 1 410.801583215906 408.398984811091 L410.8 408.4 L386.670079627883 406.227170873215 A27.13 27.13 0 0 0 385.294325234092 413.918477459442 Z M377.23 413.92 L378.471456725984 413.918081388245 A33.95 33.95 0 0 1 378.854831478836 409.637329613823 L378.85 409.64 L377.23 410.08 Z M406.068634402571 416.629503309576 A6.6 6.6 0 0 0 409.187959250015 420.560074079857 L409.18 420.56 L406.942970449513 441.373454572074 A27.13 27.13 0 0 1 385.341728995528 416.629099458336 L385.33 416.63 Z" style="fill:rgb(0,0,0);" />
</g>
</svg>
