<?xml version="1.0" encoding="UTF-8"?>
<!DOCTYPE svg PUBLIC '-//W3C//DTD SVG 1.0//EN' 'http://www.w3.org/TR/2001/REC-SVG-20010904/DTD/svg10.dtd'>
<svg xmlns:xlink="http://www.w3.org/1999/xlink" xmlns="http://www.w3.org/2000/svg" width="700" height="700">
<!--Gegenereerd door de SIMaD-toepassing (http://www.dlw.be).-->
<g style="stroke:none;fill-rule:evenodd;" transform="matrix(1,0,0,-1,0,700)">
<path d=" M700 350 A350 350 0 0 1 0 350 A350 350 0 0 1 700 350 Z" style="fill:rgb(0,0,255);" />
<path d=" M685 350 A335 335 0 0 1 15 350 A335 335 0 0 1 685 350 Z" style="fill:rgb(255,255,255);" />
<path d=" M670 350 A320 320 0 0 1 30 350 A320 320 0 0 1 670 350 Z" style="fill:rgb(0,0,255);" />
<path d=" M372.61 458.99 L371.291258356109 461.638286053994 A14.75 14.75 0 0 0 370.465596482942 466.926281830967 L370.466476092144 466.927444086456 A31.89 31.89 0 0 1 369.248008001389 471.72999768043 L369.24 471.73 L333.83 532.06 L330.73 537.44 L327.35 542.56 L322.91 547.16 L317.9 550.18 L312.87 551.86 L307.83 552.75 L305.08 553.26 L303.17 553.82 L302.13 554.43 L301.61 555.13 L301.33 556.35 L301.332657227942 566.764045115694 A18.12 18.12 0 0 1 313.009999999998 583.70000948761 L313.01 586.1 A18.12 18.12 0 0 1 276.77 586.1 L276.76 586.1 L276.770000000002 583.70000948761 A18.12 18.12 0 0 1 288.447342772057 566.764045115694 L288.44 566.77 L288.442456915563 556.262152851842 A2.27 2.27 0 0 0 286.360063213961 553.534325200719 L286.360733933677 553.527718310489 A37.88 37.88 0 0 1 267.782902685296 547.628624688195 L267.774488452452 547.629032769838 A52.8 52.8 0 0 1 250.037318423103 510.344857142316 L250.04 510.35 L250.040000000003 456.83000600882 A6.04 6.04 0 1 1 262.119999999997 456.83000600882 L262.120530432229 510.758699098594 A13.87 13.87 0 0 0 263.8843310011 517.649762040801 L263.887253402893 517.654394552226 A6.04 6.04 0 0 0 269.55622765988 520.273144234916 L269.553247684975 520.278792140322 A3.6 3.6 0 0 0 273.001000168263 516.030910015203 L272.99 516.03 L272.99 354.54 A8.46 8.46 0 0 1 289.91 354.54 L289.910000000003 441.730005809852 A5.84 5.84 0 0 0 301.589999999997 441.730005809852 L301.58 335.21 A8.46 8.46 0 0 1 318.5 335.21 L318.505051142279 513.925565978056 A8.65 8.65 0 0 0 320.407880213778 519.049070103646 L320.401243916109 519.053377603432 A6.01 6.01 0 0 0 328.085098732836 516.775291579766 L328.09 516.78 L358.469641609553 465.403389616977 A16.59 16.59 0 0 1 362.691777159373 462.456883734813 L362.694452312188 462.465553415477 A12.83 12.83 0 0 0 369.303878188009 452.048292946712 L369.303806764333 452.046388282649 A9.32 9.32 0 0 1 379.378833512142 444.342480127335 L379.38 444.35 L403.88 444.35 L388.57 389.58 L401.46 389.58 L401.460000000002 349.710003601312 A3.62 3.62 0 1 1 408.699999999998 349.710003601312 L408.71 349.71 L408.711976944121 389.573079484808 A38.33 38.33 0 0 0 419.988023055879 389.573079484808 L419.98 389.58 L419.99 358.57 A3.62 3.62 0 0 1 427.23 358.57 L427.23 389.58 L441.73 389.58 L424.628463481078 437.790328654134 A1.11 1.11 0 0 0 426.671286663692 438.617310168278 L426.67 438.61 L445.573414882313 420.626040156187 A2.94 2.94 0 1 1 450.366826637358 423.979594521546 L450.37 423.98 L426.842322370217 447.08875557141 A15.21 15.21 0 0 1 419.143014842797 451.88170701759 L419.140611288184 451.882453558122 A8.69 8.69 0 0 0 417.192293390087 460.725844665474 L417.204603450969 460.722679126409 A13.29 13.29 0 1 1 408.697301391143 460.776090466546 L408.700121236017 460.774839278649 A134.41 134.41 0 0 0 409.572554852804 456.143711075078 L409.566619379596 456.150711012338 A5.29 5.29 0 0 0 407.437126943525 450.792816328766 L407.44 450.79 L382.024716755747 450.790474731008 A4.46 4.46 0 0 0 376.577586790902 453.042186872786 L376.575368059925 453.041497209845 A6.83 6.83 0 0 1 372.611366008856 458.991732384049 Z" style="fill:rgb(255,255,255);" />
<path d=" M407.915276226264 255.590240198836 A2.51 2.51 0 0 1 410.295730374459 257.206888019149 L410.29 257.21 L410.629102825418 258.33952446502 A2.17 2.17 0 0 1 409.193243065546 260.912921175105 L409.185285505965 260.921003631523 A100.61 100.61 0 0 1 388.000833752157 261.790512057498 L388.010425532224 261.78643183581 A8.73 8.73 0 0 1 383.12844356118 260.122579451957 L383.12386633177 260.117553637406 A2.37 2.37 0 0 1 385.293783216567 256.040858203811 L385.296252505068 256.039847259402 A126.08 126.08 0 0 0 398.764263650998 255.297361943181 L398.767694820475 255.297634957658 A0.97 0.97 0 0 0 399.500458214507 253.782125336571 L399.5 253.79 L395.59 245.66 L296.03 245.66 L298.09 253.59 L290.802863129857 258.453827151301 A4.86 4.86 0 0 0 288.896260069125 264.125217708577 L288.896745157489 264.122878610583 A4.24 4.24 0 0 0 292.366149208759 265.675911763963 L292.37 265.67 L303.271325270959 265.698317402736 A1.02 1.02 0 0 1 304.479891310258 266.374229757123 L304.477567250712 266.373379161356 A3.51 3.51 0 0 1 304.500649847716 268.47298203392 L304.501393507812 268.472430846869 A1.86 1.86 0 0 1 302.923656803513 270.051218371069 L302.929938532163 270.05149142629 A79.03 79.03 0 0 1 286.988394297535 269.273860941494 L286.983811405594 269.277836458902 A4.94 4.94 0 0 1 282.516748271649 262.573220870944 L282.519650696915 262.566660813404 A11.86 11.86 0 0 1 286.065960144675 256.869891899099 L286.06 256.87 L293.02 252.1 L285.27 222.33 L285.164947905702 222.351578084922 A55.13 55.13 0 0 1 253.603609795417 223.065346992187 L253.6 223.07 L253.971382908312 221.724883289786 A53.74 53.74 0 1 1 321.403927788694 162.398967451103 L321.4 162.4 L322.780321188002 162.204954022826 A55.13 55.13 0 0 1 289.536885111548 220.729394999689 L289.54 220.73 L292.09 230.55 L349.178162404008 178.577287283365 A15.54 15.54 0 0 1 362.621892421655 154.457786962396 L362.62 154.45 L364.09 140.49 L359.91 140.05 L360.2 137.28 L370.69 138.38 L370.4 141.15 L366.22 140.71 L364.752188480962 154.593221601114 A15.54 15.54 0 0 1 377.443864369233 167.633748832005 L377.45 167.63 L381.356515200176 167.633746407048 A55.23 55.23 0 0 1 382.181714318148 160.126071530332 L382.18 160.13 L383.64819746138 160.389751621771 A53.74 53.74 0 1 1 485.466822416925 192.129566981447 L485.47 192.13 L486.823371828932 192.745905924551 A55.23 55.23 0 0 1 413.34009284634 220.021025608636 L413.34 220.02 L400.4 245.21 L404.664131476438 254.068350517375 A4.1 4.1 0 0 0 407.916719607632 255.599607650265 Z M294.85 241.13 L393.44 241.13 L366.626761886887 184.761289363269 A15.54 15.54 0 0 1 361.520662282586 185.349428443519 L361.53 185.35 L360.06 199.31 L364.24 199.75 L363.95 202.52 L353.46 201.42 L353.75 198.65 L357.93 199.09 L359.387813389113 185.206778726577 A15.54 15.54 0 0 1 352.227626862133 181.925776108634 L352.23 181.93 L293.38 235.51 Z M274.86 172.4 L314.647428145933 173.789957591734 A46.62 46.62 0 0 1 287.366580807916 212.39333063573 L287.36 212.39 L281.149261300887 188.53814160305 A66.12 66.12 0 0 0 275.979197185763 175.799749393663 L275.975773225671 175.80082541955 A8.8 8.8 0 0 0 274.285088135102 173.573422885825 L274.290830574624 173.570731030699 A7.12 7.12 0 0 0 274.856796607588 172.399644573346 Z M275.014922840153 167.871496062131 A7.12 7.12 0 1 0 271.671357987626 176.110841051097 L271.672946398072 176.112333245857 A54.63 54.63 0 0 1 275.914806738093 186.401958527736 L275.91 186.4 L283.118311785681 214.0652567889 A46.62 46.62 0 1 1 314.80560986586 169.260221261749 L314.8 169.26 Z M370.72 182.81 L397.95 240.06 L409.308451937996 217.949929137791 A55.23 55.23 0 0 1 381.356515081515 172.166250703551 L381.35 172.17 L377.443864725214 172.166248753074 A15.54 15.54 0 0 1 370.719316889132 182.810496402206 Z M475 195.66 L444.318464623933 177.218325497969 A10.68 10.68 0 0 1 433.786013943273 180.218815862266 L433.78 180.22 L417.424866540174 212.069914308818 A46.3 46.3 0 0 0 475.008592074873 195.665430789665 Z M413.392903631527 209.998652467491 A46.3 46.3 0 0 1 390.295505309267 172.166431291421 L390.3 172.17 L426.103041087047 172.165455505924 A10.68 10.68 0 0 0 429.755787684808 178.148446111989 L429.75 178.15 Z M426.1 167.63 L390.295505467494 167.633565480104 A46.3 46.3 0 1 1 477.343699882904 191.780312517556 L477.34 191.78 L446.65256512424 173.33488378377 A10.68 10.68 0 1 0 426.103040849809 167.634545587032 Z" style="fill:rgb(255,255,255);" />
</g>
</svg>
