<?xml version="1.0" encoding="UTF-8"?>
<!DOCTYPE svg PUBLIC '-//W3C//DTD SVG 1.0//EN' 'http://www.w3.org/TR/2001/REC-SVG-20010904/DTD/svg10.dtd'>
<svg xmlns:xlink="http://www.w3.org/1999/xlink" xmlns="http://www.w3.org/2000/svg" width="700" height="700">
<!--Gegenereerd door de SIMaD-toepassing (http://www.dlw.be).-->
<g style="stroke:none;fill-rule:evenodd;" transform="matrix(1,0,0,-1,0,700)">
<path d=" M700 350 A350 350 0 0 1 0 350 A350 350 0 0 1 700 350 Z" style="fill:rgb(0,0,255);" />
<path d=" M685 350 A335 335 0 0 1 15 350 A335 335 0 0 1 685 350 Z" style="fill:rgb(255,255,255);" />
<path d=" M670 350 A320 320 0 0 1 30 350 A320 320 0 0 1 670 350 Z" style="fill:rgb(0,0,255);" />
<path d=" M382.14 340.53 L380.212227169198 344.390974918632 A21.51 21.51 0 0 0 379.008161472599 352.10248623744 L379.004410282884 352.095973571211 A46.48 46.48 0 0 1 377.228481340228 359.095745395017 L377.23 359.1 L325.61 447.04 L321.09 454.88 L316.18 462.34 L309.69 469.05 L302.4 473.45 L295.07 475.9 L287.72 477.19 L283.71 477.93 L280.93 478.76 L279.41 479.65 L278.64 480.67 L278.24 482.45 L278.243764015576 497.616405737121 A26.42 26.42 0 0 1 295.269999999996 522.31001383348 L295.26 522.31 L295.27 525.81 A26.42 26.42 0 0 1 242.43 525.81 L242.430000000004 522.310014294596 A26.42 26.42 0 0 1 259.456235553439 497.616405901074 L259.46 497.62 L259.460465432246 482.315924902466 A3.32 3.32 0 0 0 256.414851030668 478.326325897854 L256.411677080719 478.338363387149 A55.22 55.22 0 0 1 229.3296326896 469.738892694882 L229.34223922918 469.731984128158 A76.96 76.96 0 0 1 203.488970243256 415.387474934286 L203.48 415.39 L203.470000000004 337.38000876452 A8.81 8.81 0 1 1 221.089999999996 337.38000876452 L221.090773266853 415.993165858502 A20.22 20.22 0 0 0 223.662082192466 426.039113286335 L223.661229348876 426.040904825213 A8.8 8.8 0 0 0 231.920661441853 429.85630301129 L231.915727734456 429.848241878923 A5.24 5.24 0 0 0 236.93412235171 423.665212836878 L236.94 423.67 L236.94 188.28 A12.33 12.33 0 0 1 261.6 188.28 L261.59 188.28 L261.590000000004 315.370008466069 A8.51 8.51 0 0 0 278.609999999996 315.370008466069 L278.62 315.37 L278.61 160.1 A12.33 12.33 0 0 1 303.27 160.1 L303.267363580253 420.610877327851 A12.61 12.61 0 0 0 306.041314530451 428.079939363101 L306.04585677159 428.079532276918 A8.76 8.76 0 0 0 317.245618440816 424.759060084949 L317.24 424.76 L361.532753744458 349.878608345197 A24.18 24.18 0 0 1 367.686536145272 345.58406377543 L367.688546731948 345.596060085046 A18.7 18.7 0 0 0 377.321926878308 330.412679834949 L377.315110896356 330.415431216746 A13.59 13.59 0 0 1 392.006056355094 319.181942566487 L392.01 319.18 L427.71 319.18 L405.41 239.35 L424.19 239.35 L424.200000000003 181.240005252743 A5.28 5.28 0 1 1 434.759999999997 181.240005252743 L434.761989352153 239.352294568647 A55.87 55.87 0 0 0 451.198010647847 239.352294568647 L451.19 239.35 L451.2 194.15 A5.28 5.28 0 0 1 461.76 194.15 L461.76 239.35 L482.89 239.35 L457.956135714216 309.617237069211 A1.62 1.62 0 0 0 460.937553851336 310.824181789232 L460.94 310.83 L488.494881118818 284.59758881531 A4.29 4.29 0 1 1 495.489348779556 289.491041325793 L495.48 289.49 L461.194865877625 323.182089695431 A22.17 22.17 0 0 1 449.972404552483 330.168266647226 L449.976460785608 330.173355178909 A12.66 12.66 0 0 0 447.138058969541 343.056822556684 L447.134433410967 343.06042224336 A19.37 19.37 0 1 1 434.73515266488 343.138265971402 L434.728173137029 343.127980530318 A195.91 195.91 0 0 0 435.999793901975 336.377851972739 L436.009326218671 336.386801608554 A7.71 7.71 0 0 0 432.905661166861 328.577847461629 L432.9 328.57 L395.868767319395 328.57100654387 A6.51 6.51 0 0 0 387.917912156972 331.857699591905 L387.923245421171 331.856750031943 A9.96 9.96 0 0 1 382.142651975804 340.533814211317 Z" style="fill:rgb(255,255,255);" />
</g>
</svg>
