<?xml version="1.0" encoding="UTF-8"?>
<!DOCTYPE svg PUBLIC '-//W3C//DTD SVG 1.0//EN' 'http://www.w3.org/TR/2001/REC-SVG-20010904/DTD/svg10.dtd'>
<svg xmlns:xlink="http://www.w3.org/1999/xlink" xmlns="http://www.w3.org/2000/svg" width="700" height="700">
<!--Gegenereerd door de SIMaD-toepassing (http://www.dlw.be).-->
<g style="stroke:none;fill-rule:evenodd;" transform="matrix(1,0,0,-1,0,700)">
<path d=" M700 350 A350 350 0 0 1 0 350 A350 350 0 0 1 700 350 Z" style="fill:rgb(0,0,255);" />
<path d=" M685 350 A335 335 0 0 1 15 350 A335 335 0 0 1 685 350 Z" style="fill:rgb(255,255,255);" />
<path d=" M670 350 A320 320 0 0 1 30 350 A320 320 0 0 1 670 350 Z" style="fill:rgb(0,0,255);" />
<path d=" M503.678326143866 198.743635446502 A1.58 1.58 0 0 1 502.266947175855 197.460563117781 L502.259808631916 197.457969085718 A26.96 26.96 0 0 1 501.85268313997 190.815393400842 L501.858573787401 190.812014511611 A77.49 77.49 0 0 0 502.008570497373 186.440682773945 L502.01 186.44 L488.300413084751 186.448823863311 A15 15 0 0 0 489.05015348661 190.60452768314 L489.045498050258 190.602601146689 A33.24 33.24 0 0 1 490.116988468044 194.695692523481 L490.106922902857 194.693595422936 A6.81 6.81 0 0 1 489.357258630124 199.984082413572 L489.36854372891 199.9870964102 A63.35 63.35 0 0 1 492.839809661345 220.514707143101 L492.836807674946 220.515246990443 A141.74 141.74 0 0 1 492.793952889739 235.342937968758 L492.79300802004 235.337312015418 A24.67 24.67 0 0 1 486.129671878337 251.620705743157 L486.131783396208 251.634484576943 A673.44 673.44 0 0 1 468.968304745953 268.605115759663 L468.963760941104 268.595517727011 A99.66 99.66 0 0 0 456.064429928622 283.723304153177 L456.059800580516 283.720933331439 A32.24 32.24 0 0 1 454.474114827105 271.914005357722 L454.484953471213 271.918293105138 A15.72 15.72 0 0 0 450.884178223075 261.501762331648 L450.886865353257 261.497279014491 A132.11 132.11 0 0 0 437.087167865092 247.161879626345 L437.08449366761 247.163634868664 A228.51 228.51 0 0 1 413.343258899344 222.522461655766 L413.34 222.53 L412.99710089164 217.596394619516 A6.38 6.38 0 0 0 410.297446678724 215.539514606907 L410.293810159287 215.545479158307 A13.99 13.99 0 0 0 414.365140927722 209.588478879974 L414.362809122039 209.583779167217 A15.11 15.11 0 0 0 405.149905081462 203.798932991179 L405.151702813206 203.801395475256 A10.84 10.84 0 0 0 400.565452982635 208.601954686551 L400.57318263413 208.598088506086 A11.45 11.45 0 0 0 400.594611220596 216.976420014105 L400.589714829839 216.974838143047 A38.13 38.13 0 0 0 405.282005505475 227.580701439359 L405.282001454749 227.589545425596 A3337.31 3337.31 0 0 1 427.566536913197 262.901963188749 L427.564922542296 262.902911747352 A58.91 58.91 0 0 1 432.128831895328 271.859316452994 L432.127870778923 271.854022854839 A10.91 10.91 0 0 1 432.277869819744 279.675401292079 L432.280230829079 279.67348288787 A34.64 34.64 0 0 1 425.723733908551 292.03655249398 L425.723795630071 292.035847763718 A74.81 74.81 0 0 0 412.352473754861 321.007044587013 L412.350309857517 321.001072464941 A121.12 121.12 0 0 0 369.751529822857 308.315721531562 L369.755415551838 308.320888927308 A356.83 356.83 0 0 0 333.50020728531 305.92101676603 L333.5 305.92 L324.92301191109 299.450520594546 A90.63 90.63 0 0 0 325.994359458361 267.610062145462 L326.004785945821 267.610418274991 A84.67 84.67 0 0 1 325.169141198641 253.318756796657 L325.166501269288 253.322144907866 A47.95 47.95 0 0 1 328.316304592864 237.444565203041 L328.313775243829 237.441142412361 A135.7 135.7 0 0 1 340.998573658505 208.257533927658 L341.001319708378 208.260660605126 A32.08 32.08 0 0 1 346.058228760332 201.703821891807 L346.058363277925 201.697958102053 A5.38 5.38 0 0 0 344.257420119306 198.439108733422 L344.254713503227 198.440298402221 A2.65 2.65 0 0 1 346.438973132193 196.727153095059 L346.443523714612 196.730826915383 A55.81 55.81 0 0 0 346.400670482694 186.446071369736 L346.39864158705 186.443740317426 A37.39 37.39 0 0 0 335.04135841295 186.443740317426 L335.047697917755 186.442458056823 A8.1 8.1 0 0 0 334.704941311277 192.911986046523 L334.708312536392 192.911676907962 A10.28 10.28 0 0 0 335.865036541948 199.252238777307 L335.852940269645 199.255893067631 A191.45 191.45 0 0 1 316.482885575184 232.939217456261 L316.483478800394 232.938856075068 A36.5 36.5 0 0 0 309.90460200787 244.275096651039 L309.905826806058 244.280862918285 A147.7 147.7 0 0 1 299.492014555629 270.058262877481 L299.498609034044 270.059799978339 A108.48 108.48 0 0 0 291.29219487852 290.929375005203 L291.292475141225 290.924944732174 A22.02 22.02 0 0 1 285.058050742515 288.225502938797 L285.055262439952 288.231368217124 A478.96 478.96 0 0 0 256.578354687968 271.582340653642 L256.573873831382 271.570439662363 A23.86 23.86 0 0 1 244.553846203106 245.644890570578 L244.547054718673 245.649006612236 A166.56 166.56 0 0 1 252.153994366392 219.99969187604 L252.159919711026 220.00336582619 A3.71 3.71 0 0 1 249.672500286398 218.502336408728 L249.672994056977 218.504110882931 A36.25 36.25 0 0 0 252.051425368688 214.454348440245 L252.056798163129 214.447952460993 A5.09 5.09 0 0 0 252.421391589677 210.82346243867 L252.421866188536 210.833572774123 A22.8 22.8 0 0 0 242.523281505639 203.806006096994 L242.524478738098 203.799622955954 A25.29 25.29 0 0 0 239.78206622118 210.698503089733 L239.771311110469 210.702584226694 A13.22 13.22 0 0 0 240.199942770258 218.203631200797 L240.21 218.2 L241.11 222.06 L232.099942523929 252.952023919033 A27.97 27.97 0 0 0 233.300033675023 272.667804102624 L233.304343959339 272.669286333986 A96.91 96.91 0 0 0 259.831930109217 302.196760979399 L259.838565551973 302.195090747124 A150.56 150.56 0 0 1 273.595136820098 313.594617239429 L273.593528347197 313.594692753282 A59.9 59.9 0 0 0 261.851442082089 336.950302888636 L261.842331525331 336.95275820276 A645.12 645.12 0 0 1 253.721372190716 367.593842578253 L253.726233919742 367.597195151794 A73.92 73.92 0 0 1 238.876116937926 395.025982997431 L238.88 395.02 L196.709214057052 376.207340406946 A1.99 1.99 0 0 1 195.530923388434 374.450615454479 L195.527772657412 374.443789440223 A4.8 4.8 0 0 0 194.949375458347 372.301578985087 L194.950250420238 372.306835718264 A2.23 2.23 0 0 0 193.192359806089 371.149200479809 L193.196545224635 371.15488197648 A37.54 37.54 0 0 0 186.383454775365 371.15488197648 L186.38 371.15 L185.268715699765 372.483155637845 A20.39 20.39 0 0 0 179.655032090112 373.168796679745 L179.653062338275 373.168154616156 A7.05 7.05 0 0 0 177.532486824417 374.13205249749 L177.534995342163 374.130820586661 A2.82 2.82 0 0 0 176.336148405975 376.978082015354 L176.332062913701 376.979786414596 A61.23 61.23 0 0 0 179.267494304284 392.963963451275 L179.264965094007 392.96433640496 A7745.77 7745.77 0 0 1 186.785984007 416.191643329368 L186.791399580354 416.19060677782 A43.17 43.17 0 0 1 189.019917722146 427.783183364915 L189.020807802371 427.77849243893 A14.95 14.95 0 0 0 190.091957779484 432.598668809476 L190.081197074257 432.601020930373 A472.46 472.46 0 0 1 197.430760266698 451.971298124476 L197.437093330159 451.969638597292 A28.58 28.58 0 0 1 197.994120786441 469.323186668317 L197.992014767002 469.330428820107 A21 21 0 0 0 205.190294394877 460.032652010949 L205.196287655167 460.031925732009 A33.89 33.89 0 0 0 210.852436932407 469.458840833101 L210.85486529017 469.457256850154 A5.33 5.33 0 0 0 213.76881634455 471.214197939301 L213.760023069617 471.215601884012 A198.09 198.09 0 0 1 213.931443101178 462.880283069924 L213.938310759449 462.880909100084 A19.95 19.95 0 0 1 228.592620933592 449.340669144436 L228.593292535772 449.331237525866 A48.74 48.74 0 0 0 243.376852558168 443.310686392129 L243.376099973241 443.322716179386 A208.52 208.52 0 0 0 280.917568791007 416.323714296417 L280.92 416.32 L288.074772705397 419.871160621146 A7.8 7.8 0 0 0 288.588836741251 422.098773092016 L288.593115087567 422.105650567416 A21.97 21.97 0 0 0 295.727649165414 424.462403343828 L295.72067842818 424.458391540273 A3.55 3.55 0 0 1 298.398074472626 426.428955007945 L298.4 426.43 L298.36 428.79 L311.133421127253 434.834360731713 A20.48 20.48 0 0 1 322.576585943925 459.027867525651 L322.577361572366 459.021571066586 A21.97 21.97 0 0 0 321.977389923749 476.913582240124 L321.972630447686 476.915072792943 A5.41 5.41 0 0 1 320.858897366299 482.076793559859 L320.857812730265 482.079985029091 A1.21 1.21 0 0 1 319.551710055571 482.42256952531 L319.553174029297 482.429895761513 A1199.26 1199.26 0 0 1 314.539146576738 481.401376799961 L314.541914159129 481.386868584332 A1.29 1.29 0 0 0 313.126065694743 482.073340985373 L313.1274312324 482.079940973768 A27.46 27.46 0 0 0 311.177714780582 489.214616881296 L311.177629028815 489.216546997966 A8.44 8.44 0 0 0 308.263526609262 489.859363920499 L308.261519783473 489.857700090672 A0.49 0.49 0 0 0 307.960442601411 490.330821947231 L307.96345501924 490.324346744696 A48.11 48.11 0 0 0 308.884812935905 497.866628014663 L308.883453139403 497.865724264294 A32.24 32.24 0 0 1 309.48348972721 502.558867658428 L309.48059772208 502.567819394023 A13.45 13.45 0 0 1 309.394862017592 504.968439075879 L309.402886450302 504.963560811292 A0.91 0.91 0 0 1 308.779397506543 505.716046784728 L308.77 505.71 L301.366875790862 505.719567700433 A2.37 2.37 0 0 0 303.398369024526 509.076876825229 L303.396695791768 509.077133127804 A20.59 20.59 0 0 1 306.546256701604 509.484219078383 L306.541041483141 509.485407831576 A6.32 6.32 0 0 1 309.884780207631 510.728593201498 L309.885396669049 510.730036212391 A14.35 14.35 0 0 0 324.692128654389 513.558528652353 L324.698766057619 513.558822064413 A52.72 52.72 0 0 1 341.691083498169 510.130359863162 L341.69 510.13 L334.899741203444 491.183952332577 A6.47 6.47 0 0 1 334.535590406772 489.448883952534 L334.531421738261 489.446781659438 A8.89 8.89 0 0 1 334.617132473793 487.454013801995 L334.610243280768 487.458437647843 A0.85 0.85 0 0 1 336.048307222316 486.986238070325 L336.053793348024 486.978279083404 A3.9 3.9 0 0 0 339.242492342907 488.519127468212 L339.24 488.53 L339.24 483.56 L353.29303942963 468.039183034575 A56.79 56.79 0 0 0 367.43446299087 444.063041116655 L367.439160244034 444.068493703686 A24.76 24.76 0 0 0 368.403413721408 435.754483757038 L368.40575983505 435.755103513271 A24.2 24.2 0 0 1 373.163240008201 419.982556705257 L373.157637262622 419.976323533245 A18.44 18.44 0 0 0 376.777932325271 407.872973087611 L376.785738697049 407.874531405895 A3.3 3.3 0 0 1 377.513507062485 405.605605148077 L377.507851874219 405.605624711983 A2.34 2.34 0 0 1 378.965832506598 405.991560081798 L378.964302644701 405.992136906114 A4.29 4.29 0 0 0 379.907705454947 406.463838811848 L379.914664310055 406.462539416801 A13.26 13.26 0 0 1 384.156278118973 411.30397634253 L384.158160899726 411.307592457563 A5.6 5.6 0 0 0 389.08557491434 414.349735521438 L389.088336225067 414.349943313809 A1.2 1.2 0 0 0 390.203900638837 413.620535205457 L390.195455950267 413.618341992686 A6.55 6.55 0 0 0 390.066932558395 408.19891487294 L390.073601354258 408.195692610538 A204.64 204.64 0 0 1 387.588033890139 402.860294793295 L387.58230485391 402.864654437612 A0.94 0.94 0 0 1 388.593250138523 401.552576474828 L388.593229862661 401.557204421102 A37.58 37.58 0 0 0 392.729189921214 402.007231115954 L392.731650035381 402.001792529013 A2.02 2.02 0 0 1 393.63102662133 399.432144533714 L393.63 399.43 L418.097700048413 402.476120621827 A120.18 120.18 0 0 0 446.339845894624 403.376098068674 L446.337960925107 403.375235382992 A41.9 41.9 0 0 0 468.988349102511 394.28936572245 L468.988712958217 394.289938111314 A510.4 510.4 0 0 1 482.766641451482 392.018614811691 L482.765309605369 392.022901123013 A43.55 43.55 0 0 0 492.193939861184 389.494314343496 L492.188283243189 389.492232900105 A19.03 19.03 0 0 0 502.493600635195 379.78680917148 L502.500635484852 379.783368475068 A1180.05 1180.05 0 0 1 517.906904090309 339.757067067907 L517.903387658552 339.757111820628 A46.65 46.65 0 0 0 523.667026364735 317.816717502722 L523.667369967126 317.812219561092 A6.47 6.47 0 0 0 516.851226386556 316.676196267776 L516.857753220817 316.683334563647 A16.19 16.19 0 0 1 513.085834265113 317.754902145239 L513.088732214934 317.752779170474 A12.81 12.81 0 0 1 508.890217945242 315.117996948486 L508.884026405538 315.117704577193 A2.53 2.53 0 0 0 504.793768338746 316.038548775841 L504.788339463893 316.039060173146 A43.79 43.79 0 0 0 499.774379689129 329.495327864622 L499.782271559285 329.493264172623 A235.49 235.49 0 0 0 494.982612933198 354.691470446363 L494.976040962565 354.69203770796 A967.3 967.3 0 0 0 493.476120986886 369.776946451311 L493.473632678028 369.776801722433 A21.04 21.04 0 0 1 481.110069191163 384.497370238753 L481.116073274865 384.501384933397 A52.37 52.37 0 0 1 473.080969786194 387.136899348819 L473.074512423591 387.127456605507 A53.77 53.77 0 0 0 482.244604385885 362.445339194622 L482.25404594546 362.448797383969 A58.98 58.98 0 0 0 480.904100642494 342.028197637744 L480.900919576675 342.032638468282 A122.45 122.45 0 0 1 477.38687330465 314.177391639554 L477.389099728339 314.173841891056 A50.84 50.84 0 0 1 488.7670303724 279.825775345902 L488.770321612081 279.831379159768 A211.69 211.69 0 0 1 506.897705713571 260.246947666165 L506.895490258091 260.240009253277 A7.36 7.36 0 0 0 508.738110377702 252.398158284857 L508.73 252.4 L505.780073092786 236.071865414585 A104.54 104.54 0 0 1 503.851692574392 210.960060512963 L503.857763972931 210.954604695618 A105.1 105.1 0 0 0 503.6863372183 198.740486467108 Z M306.410781492977 399.436238185076 A26.11 26.11 0 0 1 305.296718629212 407.706014265072 L305.299828871318 407.707229965081 A16.74 16.74 0 0 1 302.492558646016 413.128905293151 L302.492414546544 413.12123907274 A4.33 4.33 0 0 0 303.671120491993 419.48625397789 L303.67 419.49 L307.02 415.59 L330.49921306853 428.490613359439 A53.21 53.21 0 0 0 323.643071972137 402.651532407241 L323.639209767727 402.653598962627 A26.08 26.08 0 0 0 317.126299901317 395.026638957123 L317.13 395.02 Z M197.51805133184 379.254303424764 A37.28 37.28 0 0 0 207.182622604286 390.311773221097 L207.178346793154 390.313125990934 A74.35 74.35 0 0 1 222.369376802552 410.15359718545 L222.382031199534 410.145176866998 A78.99 78.99 0 0 0 237.252559645897 397.160248929922 L237.25 397.16 Z M288.069420918657 416.74828954829 A12.65 12.65 0 0 1 293.428384883652 410.274661435596 L293.432403831668 410.270396581823 A5.26 5.26 0 0 1 299.17613635399 410.484714673042 L299.17 410.49 L296.26 404.83 L283.32 414.43 Z M302.304924354836 409.251203273512 A12.72 12.72 0 0 1 300.226374564976 404.579822530905 L300.226486606661 404.572215591892 A2.18 2.18 0 0 1 301.530624799232 401.621869967201 L301.53 401.62 L304.095841663064 400.760797129906 A34.17 34.17 0 0 1 302.296083594651 409.245370110772 Z" style="fill:rgb(255,255,255);" />
</g>
</svg>
