<?xml version="1.0" encoding="UTF-8"?>
<!DOCTYPE svg PUBLIC '-//W3C//DTD SVG 1.0//EN' 'http://www.w3.org/TR/2001/REC-SVG-20010904/DTD/svg10.dtd'>
<svg xmlns:xlink="http://www.w3.org/1999/xlink" xmlns="http://www.w3.org/2000/svg" width="900" height="900">
<!--Gegenereerd door de SIMaD-toepassing (http://www.dlw.be).-->
<g style="stroke:none;fill-rule:evenodd;" transform="matrix(1,0,0,-1,0,900)">
<path d=" M900 450 A450 450 0 0 1 0 450 A450 450 0 0 1 900 450 Z" style="fill:rgb(0,0,255);" />
<path d=" M877.5 450 A427.5 427.5 0 0 1 22.5 450 A427.5 427.5 0 0 1 877.5 450 Z" style="fill:rgb(255,255,255);" />
<path d=" M850 450 A400 400 0 0 1 50 450 A400 400 0 0 1 850 450 Z" style="fill:rgb(0,0,255);" />
<path d=" M521 151 L520.999999999823 416.999841384478 A71 71 0 0 1 450.000053284902 487.99999999998 L335 488 L335 315.5 L105 545.5 L335 775.5 L335 603 L449.999860408566 602.999999999948 A186 186 0 0 0 635.999999999948 416.999860408566 L636 417 L636 151 Z" style="fill:rgb(255,255,255);" />
</g>
</svg>
