<?xml version="1.0" encoding="UTF-8"?>
<!DOCTYPE svg PUBLIC '-//W3C//DTD SVG 1.0//EN' 'http://www.w3.org/TR/2001/REC-SVG-20010904/DTD/svg10.dtd'>
<svg xmlns:xlink="http://www.w3.org/1999/xlink" xmlns="http://www.w3.org/2000/svg" width="1200" height="1800">
<!--Gegenereerd door de SIMaD-toepassing (http://www.dlw.be).-->
<g style="stroke:none;fill-rule:evenodd;" transform="matrix(1,0,0,-1,0,1800)">
<path d=" M65 0 L1134.99999546214 1.56319401867222E-13 A65 65 0 0 1 1200 65.0000045378561 L1200 1734.9999875209 A65 65 0 0 1 1135.00000453786 1800 L65.0000045378561 1800 A65 65 0 0 1 1.56319401867222E-13 1734.99999546214 L1.56319401867222E-13 65.0000045378561 A65 65 0 0 1 65.0000045378561 1.56319401867222E-13 Z" style="fill:rgb(255,255,255);stroke:rgb(0,0,0);" />
<path d=" M846.99 972.69 L846.983092599921 999.07954876729 A59.4 59.4 0 0 1 846.987696979178 1054.97181532039 L846.99 1054.97 L846.988633252449 1093.95319008587 A29.44 29.44 0 0 1 790.623685985991 1093.4640376537 L790.62 1093.46 L790.62 1061.23 L784.36 1061.23 L784.36 1041.98 L661.025826965714 1041.98409245717 A60.19 60.19 0 0 0 627.789348696634 1054.97177368148 L627.7925759002 1054.96873603237 A50.18 50.18 0 0 1 575.274621603134 1054.97315593168 L575.265281241706 1054.97065514955 A60.2 60.2 0 0 0 542.025598606499 1041.97488688771 L542.03 1041.98 L418.69 1041.98 L418.69 1061.23 L412.43 1061.23 L412.425257264162 1093.46765002501 A29.44 29.44 0 0 1 356.06024776975 1093.94959596518 L356.06 1093.95 L356.065731640787 1054.96574668417 A59.39 59.39 0 0 1 356.061127061338 999.082889603626 L356.06 999.08 L356.05981441536 972.691796390282 A29.44 29.44 0 0 1 412.424847712588 973.170950433182 L412.43 973.17 L412.43 1005.41 L418.69 1005.41 L418.69 1024.66 L542.025152026035 1024.65517099295 A60.21 60.21 0 0 0 575.270608007821 1011.65788803254 L575.270797057483 1011.66478692741 A50.17 50.17 0 0 1 627.778285330713 1011.6703643116 L627.783279404626 1011.66099061984 A60.21 60.21 0 0 0 661.029808932171 1024.65552724736 L661.03 1024.66 L784.36 1024.66 L784.36 1005.41 L790.62 1005.41 L790.624742735838 973.172349974992 A29.44 29.44 0 0 1 846.98975223025 972.690404034817 Z" style="fill:rgb(0,0,0);" />
<path d=" M346.02 1151.9 L346.02 1131.14 L853.25 1131.14 L853.25 1151.9 Z" style="fill:rgb(0,0,0);" />
<path d=" M853.25 1174.33 L346.02 1174.33 L346.02 1674 L853.25 1674 Z" style="fill:rgb(0,0,0);" />
<path d=" M832.49 1195.09 L366.78 1195.09 L366.78 1653.23 L832.49 1653.23 Z" style="fill:rgb(255,128,0);" />
<path d=" M950 476 A350 350 0 0 1 250 476 A350 350 0 0 1 950 476 Z" style="fill:rgb(0,0,255);" />
<path d=" M935 476 A335 335 0 0 1 265 476 A335 335 0 0 1 935 476 Z" style="fill:rgb(255,255,255);" />
<path d=" M920 476 A320 320 0 0 1 280 476 A320 320 0 0 1 920 476 Z" style="fill:rgb(0,0,255);" />
<path d=" M600 766 L850 516 L662.5 516 L662.5 186 L537.5 186 L537.5 516 L350 516 Z" style="fill:rgb(255,255,255);" />
</g>
</svg>
