<?xml version="1.0" encoding="UTF-8"?>
<!DOCTYPE svg PUBLIC '-//W3C//DTD SVG 1.0//EN' 'http://www.w3.org/TR/2001/REC-SVG-20010904/DTD/svg10.dtd'>
<svg xmlns:xlink="http://www.w3.org/1999/xlink" xmlns="http://www.w3.org/2000/svg" width="1200" height="1800">
<!--Gegenereerd door de SIMaD-toepassing (http://www.dlw.be).-->
<g style="stroke:none;fill-rule:evenodd;" transform="matrix(1,0,0,-1,0,1800)">
<path d=" M65 0 L1135 0 A65 65 0 0 1 1200 65 L1200 1735 A65 65 0 0 1 1135 1800 L65 1800 A65 65 0 0 1 0 1735 L0 65 A65 65 0 0 1 65 0 Z" style="fill:rgb(255,255,255);stroke:rgb(0,0,0);" />
<path d=" M950 476 A350 350 0 0 1 250 476 A350 350 0 0 1 950 476 Z" style="fill:rgb(0,0,255);" />
<path d=" M935 476 A335 335 0 0 1 265 476 A335 335 0 0 1 935 476 Z" style="fill:rgb(255,255,255);" />
<path d=" M920 476 A320 320 0 0 1 280 476 A320 320 0 0 1 920 476 Z" style="fill:rgb(0,0,255);" />
<path d=" M625 606 L527.5 606 L657.5 736 L787.5 606 L690 606 L690 226 L625 226 L625 426 L460 426 L460 328.5 L330 458.5 L460 588.5 L460 491 L625 491 Z" style="fill:rgb(255,255,255);" />
<path d=" M846.99 972.69 L846.985394967405 999.073866628621 A59.4 59.4 0 0 1 846.985394967405 1054.96613337138 L846.99 1054.97 L846.989876990856 1093.94919513778 A29.44 29.44 0 0 1 790.624860629943 1093.46805292549 L790.62 1093.46 L790.62 1061.23 L784.36 1061.23 L784.36 1041.98 L661.022858674613 1041.98427963957 A60.2 60.2 0 0 0 627.781345940233 1054.97536602735 L627.788977241528 1054.97094613346 A50.18 50.18 0 0 1 575.271022758472 1054.97094613346 L575.268654059767 1054.97536602735 A60.2 60.2 0 0 0 542.027141325387 1041.98427963957 L542.03 1041.98 L418.69 1041.98 L418.69 1061.23 L412.43 1061.23 L412.425139370057 1093.46805292549 A29.44 29.44 0 0 1 356.060123009144 1093.94919513778 L356.06 1093.95 L356.064605032594 1054.96613337138 A59.4 59.4 0 0 1 356.064605032594 999.073866628621 L356.06 999.08 L356.060123009144 972.69080486222 A29.44 29.44 0 0 1 412.425139370057 973.171947074513 L412.43 973.17 L412.43 1005.41 L418.69 1005.41 L418.69 1024.66 L542.027144469373 1024.65572013491 A60.2 60.2 0 0 0 575.268656523542 1011.66463200661 L575.271022758472 1011.65905386654 A50.18 50.18 0 0 1 627.788977241528 1011.65905386654 L627.781343476458 1011.66463200661 A60.2 60.2 0 0 0 661.022855530627 1024.65572013491 L661.03 1024.66 L784.36 1024.66 L784.36 1005.41 L790.62 1005.41 L790.624860629943 973.171947074513 A29.44 29.44 0 0 1 846.989876990856 972.69080486222 Z" style="fill:rgb(0,0,0);" />
<path d=" M346.02 1151.9 L346.02 1131.14 L853.25 1131.14 L853.25 1151.9 Z" style="fill:rgb(0,0,0);" />
<path d=" M853.25 1174.33 L346.02 1174.33 L346.02 1674 L853.25 1674 Z" style="fill:rgb(0,0,0);" />
<path d=" M832.49 1195.09 L366.78 1195.09 L366.78 1653.23 L832.49 1653.23 Z" style="fill:rgb(255,128,0);" />
</g>
</svg>
