<?xml version="1.0" encoding="UTF-8"?>
<!DOCTYPE svg PUBLIC '-//W3C//DTD SVG 1.0//EN' 'http://www.w3.org/TR/2001/REC-SVG-20010904/DTD/svg10.dtd'>
<svg xmlns:xlink="http://www.w3.org/1999/xlink" xmlns="http://www.w3.org/2000/svg" width="900" height="900">
<!--Gegenereerd door de SIMaD-toepassing (http://www.dlw.be).-->
<g style="stroke:none;fill-rule:evenodd;" transform="matrix(1,0,0,-1,0,900)">
<path d=" M900 450 A450 450 0 0 1 0 450 A450 450 0 0 1 900 450 Z" style="fill:rgb(0,0,255);" />
<path d=" M877.5 450 A427.5 427.5 0 0 1 22.5 450 A427.5 427.5 0 0 1 877.5 450 Z" style="fill:rgb(255,255,255);" />
<path d=" M850 450 A400 400 0 0 1 50 450 A400 400 0 0 1 850 450 Z" style="fill:rgb(0,0,255);" />
<path d=" M450 729.88 L558.7 778.71 L538.234359536435 715.734261617118 A280 280 0 0 0 724.054649804271 392.60619440516 L724.05 392.61 L680.851863106657 401.653780911171 A235.86 235.86 0 0 1 524.593889613754 673.75363959563 L524.59 673.75 L504.13 610.77 Z" style="fill:rgb(255,255,255);" />
<path d=" M562.17 322.73 L606.479391272166 273.522976829582 A235.86 235.86 0 0 0 292.705014538817 274.249531583082 L292.71 274.25 L263.268181432868 241.358614041673 A280 280 0 0 1 636.015441448107 240.719672346238 L636.02 240.72 L680.32 191.51 L692.39 310.06 Z" style="fill:rgb(255,255,255);" />
<path d=" M175.750199015458 393.546066036643 A280 280 0 0 0 362.677168762861 716.035191553167 L362.68 716.04 L376.443122354526 674.096687505748 A235.86 235.86 0 0 1 218.92671911408 402.723383574789 L218.93 402.72 L283.7 416.49 L207.61 310.06 L110.98 379.78 Z" style="fill:rgb(255,255,255);" />
</g>
</svg>
