<?xml version="1.0" encoding="UTF-8"?>
<!DOCTYPE svg PUBLIC '-//W3C//DTD SVG 1.0//EN' 'http://www.w3.org/TR/2001/REC-SVG-20010904/DTD/svg10.dtd'>
<svg xmlns:xlink="http://www.w3.org/1999/xlink" xmlns="http://www.w3.org/2000/svg" width="700" height="700">
<!--Gegenereerd door de SIMaD-toepassing (http://www.dlw.be).-->
<g style="stroke:none;fill-rule:evenodd;" transform="matrix(1,0,0,-1,0,700)">
<path d=" M700 350 A350 350 0 0 1 0 350 A350 350 0 0 1 700 350 Z" style="fill:rgb(0,0,255);" />
<path d=" M685 350 A335 335 0 0 1 15 350 A335 335 0 0 1 685 350 Z" style="fill:rgb(255,255,255);" />
<path d=" M670 350 A320 320 0 0 1 30 350 A320 320 0 0 1 670 350 Z" style="fill:rgb(0,0,255);" />
<path d=" M285.429151360941 466.93577403166 A27.21 27.21 0 0 0 297.290848639059 466.93577403166 L297.291592481927 466.939589290168 A4.16 4.16 0 0 1 299.246391387744 474.241434802572 L299.25168661245 474.239622045338 A18.6 18.6 0 0 1 288.694646316586 475.282855236979 L288.693828409594 475.291466079325 A89.85 89.85 0 0 0 262.404511131953 474.000551973581 L262.4 474 L247.095921544279 415.224614276008 A88 88 0 0 1 196.716758311068 416.363953811113 L196.72 416.36 L197.510583873218 413.470886064971 A85 85 0 0 0 246.338478516491 412.316363129235 L246.34 412.32 L245.076015853749 407.46837124029 A80 80 0 1 1 207.390488812818 252.499998559365 L207.39 252.5 L150 252.5 L150 245 L550 245 L550 252.5 L492.609551172675 252.500004941622 A80 80 0 0 1 550.305369679196 369.672699593708 L550.31 369.67 L554.594708910829 372.250820881409 A85 85 0 0 0 557.387054971259 366.660257719125 L557.39 366.66 L560.118329121731 367.901282102998 A88 88 0 0 1 442.934091741089 411.313021775535 L442.93 411.31 L424.19 447.81 L428.467302815144 456.802439326126 A3.22 3.22 0 0 0 431.11529068217 458.50410769601 L431.116275684177 458.511659626468 A7.9 7.9 0 0 1 435.036893002013 460.473650254679 L435.037582764922 460.466636633059 A4.35 4.35 0 0 1 432.315185988878 467.821088121294 L432.316849458737 467.819241704923 A119.77 119.77 0 0 1 395.159745943821 467.275361143064 L395.157565065765 467.278977859548 A3.94 3.94 0 0 1 395.762387625073 459.651934869458 L395.76 459.65 L416.145274908009 458.81721896133 A3.26 3.26 0 0 0 419.409892043861 454.052314883326 L419.41 454.06 L416.77 448.5 L262.99 448.5 L267.295470705597 465.021002547961 A53.81 53.81 0 0 1 285.431104295531 466.951464414533 Z M355.5 384 L374.5 384 L374.5 377 L368 377 L368.000008402697 355.311760740939 A24 24 0 0 0 372.036466074148 354.445329485265 L372.04 354.45 L413.44 441.5 L261.17 441.5 L258.91 432.82 L349.799414000699 350.072619235796 A24 24 0 0 0 362.000015701735 355.311763777809 L362 355.31 L362 377 L355.5 377 Z M436.707567192532 408.114393305768 A88 88 0 0 1 392.069629719945 334.999997487474 L392.07 335 L388.743421096992 334.999993515836 A24 24 0 0 1 378.358014185581 351.438993380254 L378.36 351.44 L420.4 439.85 Z M374.5 286 L374.5 279 L355.5 279 L355.5 286 L362 286 L361.99998785696 307.688239730301 A24 24 0 0 0 345.086866125429 344.896533107241 L345.09 344.9 L256.92 425.17 L253.696159955917 412.79310428459 A88 88 0 0 0 307.138554557181 319.216991016646 L307.14 319.22 L304.167926985146 319.635765215438 A85 85 0 0 1 304.998322620161 330.966003970956 L305 330.97 L299.996862220912 330.791455852881 A80 80 0 0 0 232.609482232169 252.499993937743 L232.61 252.5 L467.390488812818 252.499998559365 A80 80 0 0 0 400.076598823045 328.000007956085 L400.08 328 L395.072092742759 327.999918728735 A85 85 0 0 1 396.341570940593 316.45781773438 L396.34 316.46 L393.388932190694 315.926852182948 A88 88 0 0 0 392.069630758418 327.99997642306 L392.07 328 L388.743420730474 328.000003997759 A24 24 0 0 0 367.999996350482 307.688237740623 L368 307.69 L368 286 Z M224.063163521335 341.722069369697 A11 11 0 1 1 230.544122584195 328.366076113006 L230.54 328.37 L291.993219939035 330.511929754645 A72 72 0 1 0 243.055311348522 399.708889586495 L243.06 399.71 L233.124634692668 361.576376085444 A42.57 42.57 0 0 0 224.061534382236 341.717152403078 Z M229.425445740381 337.17106450282 A11 11 0 0 0 230.299822108102 335.361821402066 L230.3 335.36 L291.7489271328 337.50761644017 A72 72 0 0 1 249.616304363181 397.126782001462 L249.62 397.13 L240.019356836972 360.290478489498 A49.27 49.27 0 0 0 229.422270689332 337.17510298319 Z M304.75 337.96 L299.752562089275 337.78719652917 A80 80 0 0 1 251.658696117563 404.969224578294 L251.66 404.97 L252.932509111465 409.861022476888 A85 85 0 0 0 304.754030207902 337.961761641997 Z M543.012187816103 365.289261409924 A71.5 71.5 0 1 0 408.585715236956 328.00000974532 L408.59 328 L463.875483787023 328.000003300369 A16.5 16.5 0 1 1 495.6233439765 336.806705474393 L495.62 336.81 Z M444.254472121369 393.423398135745 A71.5 71.5 0 0 1 408.58571621434 335.00001019731 L408.59 335 L463.875483909196 334.999997262483 A16.5 16.5 0 0 0 469.518774665449 344.243387127698 L469.52 344.24 Z M450.480938042759 396.622000746019 A71.5 71.5 0 0 0 539.406148748074 371.288936790542 L539.41 371.29 L492.017282563553 342.806410561612 A16.5 16.5 0 0 1 475.745258503246 347.441994065856 L475.75 347.44 Z M440.366247694011 400.992198685518 A80 80 0 0 1 400.076601694132 335.000057605459 L400.08 335 L395.072091154481 335.000042732203 A85 85 0 0 0 438.079481795951 405.443695833411 L438.08 405.44 Z M550.99 378.25 L546.699279838581 375.672458263205 A80 80 0 0 1 446.592802980069 404.190846653973 L446.59 404.19 L444.305986590492 408.642319168676 A85 85 0 0 0 550.988666774827 378.250499350623 Z" style="fill:rgb(255,255,255);" />
</g>
</svg>
