<?xml version="1.0" encoding="UTF-8"?>
<!DOCTYPE svg PUBLIC '-//W3C//DTD SVG 1.0//EN' 'http://www.w3.org/TR/2001/REC-SVG-20010904/DTD/svg10.dtd'>
<svg xmlns:xlink="http://www.w3.org/1999/xlink" xmlns="http://www.w3.org/2000/svg" width="700" height="700">
<!--Gegenereerd door de SIMaD-toepassing (http://www.dlw.be).-->
<g style="stroke:none;fill-rule:evenodd;" transform="matrix(1,0,0,-1,0,700)">
<path d=" M700 350 A350 350 0 0 1 0 350 A350 350 0 0 1 700 350 Z" style="fill:rgb(0,0,255);" />
<path d=" M685 350 A335 335 0 0 1 15 350 A335 335 0 0 1 685 350 Z" style="fill:rgb(255,255,255);" />
<path d=" M342.500054752793 30.0879014146403 A320 320 0 0 0 342.500054752793 669.91209858536 L342.5 669.91 Z" style="fill:rgb(0,0,255);" />
<path d=" M357.5 30.09 L357.499945247207 669.91209858536 A320 320 0 0 0 357.499945247207 30.0879014146403 Z" style="fill:rgb(0,0,255);" />
<path d=" M245.995278942085 404.490240161263 A2.51 2.51 0 0 1 248.375729719773 406.106886299639 L248.38 406.11 L248.709103172887 407.249525900641 A2.17 2.17 0 0 1 247.273244505736 409.822920705092 L247.275207334493 409.821015173142 A100.61 100.61 0 0 1 226.090912606537 410.690517154047 L226.090420658465 410.68643169642 A8.73 8.73 0 0 1 221.208445163629 409.02258061627 L221.213865676598 409.027553067053 A2.37 2.37 0 0 1 223.383782377552 404.950857978847 L223.376248104051 404.939847266253 A126.08 126.08 0 0 0 236.844259275899 404.197362420154 L236.847695175132 404.207634932846 A0.97 0.97 0 0 0 237.580458338816 402.692125518189 L237.58 402.69 L233.68 394.56 L134.11 394.56 L136.18 402.5 L128.892860864463 407.353828646497 A4.86 4.86 0 0 0 126.9862592234 413.025215308537 L126.986743097187 413.022876089224 A4.24 4.24 0 0 0 130.456152313844 414.575911627507 L130.45 414.58 L141.361325582505 414.598317327754 A1.02 1.02 0 0 1 142.569891304746 415.274229740195 L142.567567212782 415.273379044853 A3.51 3.51 0 0 1 142.590649494119 417.372983207008 L142.591393365823 417.372431843159 A1.86 1.86 0 0 1 141.013657799708 418.951218228416 L141.009922002885 418.961492293355 A79.03 79.03 0 0 1 125.06840930008 418.183863207238 L125.073810974687 418.177836446145 A4.94 4.94 0 0 1 120.60674787078 411.473221917658 L120.599648985385 411.476666997818 A11.86 11.86 0 0 1 124.145965711647 405.779886945412 L124.15 405.78 L131.11 401 L123.35 371.23 L123.24497811564 371.251568308045 A55.13 55.13 0 0 1 91.6835782464678 371.965338336439 L91.68 371.97 L92.0513783857377 370.624882048978 A53.74 53.74 0 1 1 159.483927134106 311.298962807312 L159.49 311.3 L160.860319710658 311.104943542237 A55.13 55.13 0 0 1 127.616876240144 369.629398725422 L127.62 369.64 L130.18 379.45 L187.268163453143 327.477288865731 A15.54 15.54 0 0 1 200.711895132537 303.357787048248 L200.71 303.36 L202.18 289.39 L197.99 288.95 L198.28 286.18 L208.78 287.29 L208.49 290.05 L204.3 289.61 L202.842188748116 303.493221647927 A15.54 15.54 0 0 1 215.53386444834 316.533749368654 L215.53 316.54 L219.436517019659 316.533702102908 A55.23 55.23 0 0 1 220.26170664174 309.026114223232 L220.26 309.03 L221.728195801529 309.289760853132 A53.74 53.74 0 1 1 323.546818537133 341.029575520789 L323.55 341.03 L324.903356278205 341.645940151351 A55.23 55.23 0 0 1 251.420127837423 368.921041805215 L251.42 368.92 L238.48 394.11 L242.744132866049 402.968352246506 A4.1 4.1 0 0 0 245.996718749012 404.499607662144 Z M251.472896632992 358.89864842756 A46.3 46.3 0 0 1 228.375505783948 321.066440976846 L228.38 321.07 L264.183040612571 321.065453320012 A10.68 10.68 0 0 0 267.835789124433 327.048447296058 L267.84 327.05 Z M264.18 316.54 L228.375505071927 316.533573551291 A46.3 46.3 0 1 1 315.423696827836 340.680318214827 L315.42 340.68 L284.732564584689 322.234885372248 A10.68 10.68 0 1 0 264.183040375333 316.534547772944 Z M313.09 344.57 L282.398458876131 326.118331607159 A10.68 10.68 0 0 1 271.866021147166 329.118817784908 L271.87 329.13 L255.504858444132 360.969910638975 A46.3 46.3 0 0 0 313.088596571788 344.565424075629 Z M208.81 331.71 L236.03 388.96 L247.38846116292 366.849934365872 A55.23 55.23 0 0 1 219.436514685981 321.066241072216 L219.44 321.07 L215.533865199856 321.066245533179 A15.54 15.54 0 0 1 208.809314410494 331.710498062756 Z M112.94 321.3 L152.727430318488 322.68993164501 A46.62 46.62 0 0 1 125.446557816808 361.293341011253 L125.45 361.3 L119.229264505635 337.438152689253 A66.12 66.12 0 0 0 114.059190129338 324.699736154651 L114.06576939683 324.700818236021 A8.8 8.8 0 0 0 112.375092468692 322.473427021007 L112.370832816945 322.470727303913 A7.12 7.12 0 0 0 112.936793161046 321.29965376559 Z M113.094923017174 316.771496657718 A7.12 7.12 0 1 0 109.751358312825 325.010840868814 L109.752941433755 325.012324006915 A54.63 54.63 0 0 1 113.994810270368 335.301970408934 L114 335.31 L121.198314098168 362.965256007256 A46.62 46.62 0 1 1 152.885609910525 318.160224516133 L152.89 318.16 Z M132.93 390.03 L231.52 390.03 L204.716765535289 333.661288310928 A15.54 15.54 0 0 1 199.610653885767 334.249428011034 L199.61 334.25 L198.14 348.21 L202.33 348.65 L202.04 351.42 L191.54 350.32 L191.83 347.55 L196.02 347.99 L197.477798161355 334.106776058229 A15.54 15.54 0 0 1 190.317638615943 330.82578572841 L190.32 330.83 L131.47 384.41 Z" style="fill:rgb(255,255,255);" />
<path d=" M526.73 336.16 L525.293393933704 339.034654684651 A16.03 16.03 0 0 0 524.396082205485 344.781541067897 L524.396506042204 344.784603234759 A34.64 34.64 0 0 1 523.072965741388 350.001300791102 L523.07 350 L484.6 415.54 L481.23 421.38 L477.57 426.94 L472.74 431.94 L467.3 435.22 L461.83 437.05 L456.36 438.01 L453.37 438.57 L451.3 439.18 L450.16 439.84 L449.59 440.6 L449.29 441.93 L449.29087895355 453.236636343382 A19.69 19.69 0 0 1 461.979999999997 471.640010653315 L461.98 474.24 A19.69 19.69 0 0 1 422.6 474.24 L422.61 474.24 L422.600000000003 471.640010653315 A19.69 19.69 0 0 1 435.28912104645 453.236636343382 L435.29 453.24 L435.288267957123 441.832871840088 A2.47 2.47 0 0 0 433.022404273675 438.864706318232 L433.026275832787 438.86406836752 A41.15 41.15 0 0 1 412.844708776091 432.455734438937 L412.840422295378 432.452040809331 A57.36 57.36 0 0 1 393.571405056564 391.947868532103 L393.57 391.95 L393.580000000003 333.810006526135 A6.56 6.56 0 1 1 406.699999999997 333.810006526135 L406.700576312485 392.398205743016 A15.07 15.07 0 0 0 408.616977439764 399.885467186381 L408.616552851498 399.88576550999 A6.56 6.56 0 0 0 414.773583983927 402.729971335689 L414.771277960713 402.738688114275 A3.91 3.91 0 0 0 418.515919504153 398.125015484161 L418.51 398.12 L418.51 222.69 A9.19 9.19 0 0 1 436.89 222.69 L436.890000000003 317.400006307271 A6.34 6.34 0 0 0 449.569999999997 317.400006307271 L449.57 201.69 A9.19 9.19 0 0 1 467.95 201.69 L467.945489108198 395.841193249945 A9.4 9.4 0 0 0 470.013303559263 401.408931929076 L470.018989020079 401.413486911137 A6.53 6.53 0 0 0 478.367669850956 398.938294886351 L478.36 398.93 L511.369215836705 343.131906806411 A18.02 18.02 0 0 1 515.955285436154 339.931423458977 L515.955542674502 339.928851410418 A13.93 13.93 0 0 0 523.131638562827 328.618451050161 L523.135435803438 328.619626413696 A10.13 10.13 0 0 1 534.086081390252 320.246172019148 L534.09 320.25 L560.7 320.25 L544.07 260.75 L558.07 260.75 L558.070000000002 217.44000391966 A3.94 3.94 0 1 1 565.949999999998 217.44000391966 L565.945103573003 260.747076173948 A41.64 41.64 0 0 0 578.194896426997 260.747076173948 L578.2 260.75 L578.19 227.06 A3.94 3.94 0 0 1 586.07 227.06 L586.07 260.75 L601.82 260.75 L583.231928538307 313.124232584995 A1.21 1.21 0 0 0 585.458790201848 314.025716064719 L585.46 314.02 L605.995168011429 294.484104503692 A3.19 3.19 0 1 1 611.196182425824 298.122825601231 L611.2 298.12 L585.652287984062 323.230421847371 A16.53 16.53 0 0 1 577.284796340596 328.439330216236 L577.279525261938 328.433102123926 A9.44 9.44 0 0 0 575.163055029421 338.039731827417 L575.175839400366 338.040887667902 A14.44 14.44 0 1 1 565.932390049087 338.098919143523 L565.930207011847 338.101848261564 A146.01 146.01 0 0 0 566.877935135458 333.071036880164 L566.877629799917 333.071207425316 A5.75 5.75 0 0 0 564.562963905247 327.247408937013 L564.56 327.25 L536.961048009487 327.251502625926 A4.85 4.85 0 0 0 531.037599761534 329.700113983363 L531.034967983944 329.693221150508 A7.42 7.42 0 0 1 526.728542168963 336.157459876228 Z" style="fill:rgb(255,255,255);" />
</g>
</svg>
