<?xml version="1.0" encoding="UTF-8"?>
<!DOCTYPE svg PUBLIC '-//W3C//DTD SVG 1.0//EN' 'http://www.w3.org/TR/2001/REC-SVG-20010904/DTD/svg10.dtd'>
<svg xmlns:xlink="http://www.w3.org/1999/xlink" xmlns="http://www.w3.org/2000/svg" width="699.999999999999" height="700">
<!--Gegenereerd door de SIMaD-toepassing (http://www.dlw.be).-->
<g style="stroke:none;fill-rule:evenodd;" transform="matrix(1,0,0,-1,0,700)">
<path d=" M700 350 A350 350 0 0 1 0 350 A350 350 0 0 1 700 350 Z" style="fill:rgb(0,0,255);" />
<path d=" M685 350 A335 335 0 0 1 15 350 A335 335 0 0 1 685 350 Z" style="fill:rgb(255,255,255);" />
<path d=" M357.499945247207 30.0879014146403 A320 320 0 0 1 357.499945247207 669.91209858536 L357.5 669.91 Z" style="fill:rgb(0,0,255);" />
<path d=" M342.5 30.09 L342.500054752793 669.91209858536 A320 320 0 0 1 342.500054752793 30.0879014146403 Z" style="fill:rgb(0,0,255);" />
<path d=" M454.004721057915 404.490240161263 A2.51 2.51 0 0 0 451.624270280227 406.106886299639 L451.62 406.11 L451.290896827113 407.249525900641 A2.17 2.17 0 0 0 452.726755494264 409.822920705092 L452.724792665507 409.821015173142 A100.61 100.61 0 0 0 473.909087393463 410.690517154047 L473.909579341535 410.68643169642 A8.73 8.73 0 0 0 478.791554836371 409.02258061627 L478.786134323402 409.027553067053 A2.37 2.37 0 0 0 476.616217622448 404.950857978847 L476.623751895949 404.939847266253 A126.08 126.08 0 0 1 463.155740724101 404.197362420154 L463.152304824868 404.207634932846 A0.97 0.97 0 0 1 462.419541661184 402.692125518189 L462.42 402.69 L466.32 394.56 L565.89 394.56 L563.82 402.5 L571.107139135537 407.353828646497 A4.86 4.86 0 0 1 573.0137407766 413.025215308537 L573.013256902813 413.022876089224 A4.24 4.24 0 0 1 569.543847686156 414.575911627507 L569.55 414.58 L558.638674417495 414.598317327754 A1.02 1.02 0 0 0 557.430108695254 415.274229740195 L557.432432787218 415.273379044853 A3.51 3.51 0 0 0 557.409350505881 417.372983207008 L557.408606634177 417.372431843159 A1.86 1.86 0 0 0 558.986342200292 418.951218228416 L558.990077997115 418.961492293355 A79.03 79.03 0 0 0 574.93159069992 418.183863207238 L574.926189025313 418.177836446145 A4.94 4.94 0 0 0 579.39325212922 411.473221917658 L579.400351014615 411.476666997818 A11.86 11.86 0 0 0 575.854034288353 405.779886945412 L575.85 405.78 L568.89 401 L576.65 371.23 L576.75502188436 371.251568308045 A55.13 55.13 0 0 0 608.316421753532 371.965338336439 L608.32 371.97 L607.948621614262 370.624882048978 A53.74 53.74 0 1 0 540.516072865894 311.298962807312 L540.51 311.3 L539.139680289342 311.104943542237 A55.13 55.13 0 0 0 572.383123759856 369.629398725422 L572.38 369.64 L569.82 379.45 L512.731836546857 327.477288865731 A15.54 15.54 0 0 0 499.288104867463 303.357787048248 L499.29 303.36 L497.82 289.39 L502.01 288.95 L501.72 286.18 L491.22 287.29 L491.51 290.05 L495.7 289.61 L497.157811251884 303.493221647927 A15.54 15.54 0 0 0 484.46613555166 316.533749368654 L484.47 316.54 L480.563482980341 316.533702102908 A55.23 55.23 0 0 0 479.73829335826 309.026114223232 L479.74 309.03 L478.271804198471 309.289760853132 A53.74 53.74 0 1 0 376.453181462867 341.029575520789 L376.45 341.03 L375.096643721795 341.645940151351 A55.23 55.23 0 0 0 448.579872162577 368.921041805215 L448.58 368.92 L461.52 394.11 L457.255867133951 402.968352246506 A4.1 4.1 0 0 1 454.003281250988 404.499607662144 Z M587.06 321.3 L547.272569749404 322.689932455846 A46.62 46.62 0 0 0 574.55344292484 361.293341345947 L574.55 361.3 L580.770735494365 337.438152689253 A66.12 66.12 0 0 1 585.940809870662 324.699736154651 L585.93423060317 324.700818236021 A8.8 8.8 0 0 1 587.624907531308 322.473427021007 L587.629167183055 322.470727303913 A7.12 7.12 0 0 1 587.063206838954 321.29965376559 Z M586.905076982826 316.771496657718 A7.12 7.12 0 1 1 590.248641687176 325.010840868814 L590.247058566244 325.012324006915 A54.63 54.63 0 0 0 586.005189729631 335.301970408934 L586 335.31 L578.801685901832 362.965256007256 A46.62 46.62 0 1 0 547.114390089475 318.160224516133 L547.11 318.16 Z M491.19 331.71 L463.97 388.96 L452.61153883708 366.849934365872 A55.23 55.23 0 0 0 480.563485314019 321.066241072216 L480.56 321.07 L484.466134958358 321.066246606478 A15.54 15.54 0 0 0 491.190686265498 331.710498515633 Z M448.527103367008 358.89864842756 A46.3 46.3 0 0 0 471.624494216052 321.066440976845 L471.62 321.07 L435.816959110652 321.065454595127 A10.68 10.68 0 0 1 432.164209867829 327.048448124905 L432.16 327.05 Z M386.91 344.57 L417.601541123869 326.118331607159 A10.68 10.68 0 0 0 428.133978852834 329.118817784908 L428.13 329.13 L444.495141555868 360.969910638975 A46.3 46.3 0 0 1 386.911403428212 344.565424075629 Z M435.82 316.54 L471.624494928073 316.533573551291 A46.3 46.3 0 1 0 384.576303172164 340.680318214827 L384.58 340.68 L415.267435415311 322.234885372248 A10.68 10.68 0 1 1 435.816959664206 316.534547955103 Z M567.07 390.03 L468.48 390.03 L495.283234725311 333.661288386095 A15.54 15.54 0 0 0 500.389346655963 334.249427983131 L500.39 334.25 L501.86 348.21 L497.67 348.65 L497.96 351.42 L508.46 350.32 L508.17 347.55 L503.98 347.99 L502.522201838645 334.106776058229 A15.54 15.54 0 0 0 509.682361384057 330.82578572841 L509.68 330.83 L568.53 384.41 Z" style="fill:rgb(255,255,255);" />
<path d=" M173.27 336.16 L174.706606066296 339.034654684651 A16.03 16.03 0 0 1 175.603917794515 344.781541067897 L175.603493957796 344.784603234759 A34.64 34.64 0 0 0 176.927034258612 350.001300791102 L176.93 350 L215.4 415.54 L218.77 421.38 L222.43 426.94 L227.26 431.94 L232.7 435.22 L238.17 437.05 L243.64 438.01 L246.63 438.57 L248.7 439.18 L249.84 439.84 L250.41 440.6 L250.71 441.93 L250.70912104645 453.236636343382 A19.69 19.69 0 0 0 238.020000000003 471.640010653315 L238.02 474.24 A19.69 19.69 0 0 0 277.4 474.24 L277.39 474.24 L277.399999999997 471.640010653315 A19.69 19.69 0 0 0 264.71087895355 453.236636343382 L264.71 453.24 L264.711732042877 441.832871840088 A2.47 2.47 0 0 1 266.977595726325 438.864706318232 L266.973724167213 438.86406836752 A41.15 41.15 0 0 0 287.155291223909 432.455734438937 L287.159577704622 432.452040809331 A57.36 57.36 0 0 0 306.428594943436 391.947868532103 L306.43 391.95 L306.419999999997 333.810006526135 A6.56 6.56 0 1 0 293.300000000003 333.810006526135 L293.299423687515 392.398205743016 A15.07 15.07 0 0 1 291.383022560236 399.885467186381 L291.383447148502 399.88576550999 A6.56 6.56 0 0 1 285.226416016073 402.729971335689 L285.228722039287 402.738688114275 A3.91 3.91 0 0 1 281.484080495847 398.125015484161 L281.49 398.12 L281.49 222.69 A9.19 9.19 0 0 0 263.11 222.69 L263.109999999997 317.400006307271 A6.34 6.34 0 0 1 250.430000000003 317.400006307271 L250.43 201.69 A9.19 9.19 0 0 0 232.05 201.69 L232.054510891802 395.841193249945 A9.4 9.4 0 0 1 229.986696440737 401.408931929076 L229.981010979921 401.413486911137 A6.53 6.53 0 0 1 221.632330149044 398.938294886351 L221.64 398.93 L188.630784163295 343.131906806411 A18.02 18.02 0 0 0 184.044714563846 339.931423458977 L184.044457325498 339.928851410418 A13.93 13.93 0 0 1 176.868361437173 328.618451050161 L176.864564196562 328.619626413696 A10.13 10.13 0 0 0 165.913918609747 320.246172019148 L165.91 320.25 L139.3 320.25 L155.93 260.75 L141.93 260.75 L141.929999999998 217.44000391966 A3.94 3.94 0 1 0 134.050000000002 217.44000391966 L134.054896426997 260.747076173948 A41.64 41.64 0 0 1 121.805103573003 260.747076173948 L121.8 260.75 L121.81 227.06 A3.94 3.94 0 0 0 113.93 227.06 L113.93 260.75 L98.18 260.75 L116.768071461693 313.124232584995 A1.21 1.21 0 0 1 114.541209798152 314.025716064719 L114.54 314.02 L94.004831988571 294.484104503692 A3.19 3.19 0 1 0 88.8038175741764 298.122825601231 L88.8 298.12 L114.347712015938 323.230421847371 A16.53 16.53 0 0 0 122.715203659404 328.439330216236 L122.720474738062 328.433102123926 A9.44 9.44 0 0 1 124.836944970579 338.039731827417 L124.824160599634 338.040887667902 A14.44 14.44 0 1 0 134.067609950913 338.098919143523 L134.069792988153 338.101848261564 A146.01 146.01 0 0 1 133.122064864542 333.071036880164 L133.122370200083 333.071207425316 A5.75 5.75 0 0 1 135.437036094753 327.247408937013 L135.44 327.25 L163.038951990513 327.251502625926 A4.85 4.85 0 0 1 168.962400238466 329.700113983363 L168.965032016056 329.693221150508 A7.42 7.42 0 0 0 173.271457831037 336.157459876228 Z" style="fill:rgb(255,255,255);" />
</g>
</svg>
