<?xml version="1.0" encoding="UTF-8"?>
<!DOCTYPE svg PUBLIC '-//W3C//DTD SVG 1.0//EN' 'http://www.w3.org/TR/2001/REC-SVG-20010904/DTD/svg10.dtd'>
<svg xmlns:xlink="http://www.w3.org/1999/xlink" xmlns="http://www.w3.org/2000/svg" width="700" height="700">
<!--Gegenereerd door de SIMaD-toepassing (http://www.dlw.be).-->
<g style="stroke:none;fill-rule:evenodd;" transform="matrix(1,0,0,-1,0,700)">
<path d=" M700 350 A350 350 0 0 1 0 350 A350 350 0 0 1 700 350 Z" style="fill:rgb(255,0,0);" />
<path d=" M500.29 150.22 L150.215560534034 500.286984623652 A250 250 0 0 1 500.286984623652 150.215560534034 Z" style="fill:rgb(0,0,255);" />
<path d=" M549.78 199.71 L199.713015376348 549.784439465966 A250 250 0 0 0 549.784439465966 199.713015376348 Z" style="fill:rgb(0,0,255);" />
<path d=" M495.44 446.86 L500.010009215338 446.860000000005 A8 8 0 0 1 508.009999999998 454.859993856441 L508.01 462.86000153589 A8 8 0 0 1 492.01 462.85999846411 L492.01 459.43 L480.58 459.43 L480.58 461.709996269708 A19.43 19.43 0 0 0 519.44 461.710003730292 L519.439999999996 454.860012007865 A16 16 0 0 0 512.225716904258 441.487970293249 L512.222874977968 441.486545168396 A16 16 0 0 0 520.579999999999 427.430005585054 L520.58 419.429996409858 A20.57 20.57 0 0 0 479.44 419.430003590142 L479.44 422.86 L490.87 422.86 L490.87 418.290001435708 A9.14 9.14 0 0 1 509.15 418.289998564292 L509.149999999997 427.430007338062 A9.14 9.14 0 0 1 500.010010209478 436.569999999994 L495.44 436.57 Z" style="fill:rgb(255,255,255);" />
<path d=" M195.52 254.29 L195.52 265.71 L230.27 265.71 L230.27 254.29 Z" style="fill:rgb(255,255,255);" />
<path d=" M172.02 220 L172.02 281.33 L165.36 281.33 L165.36 288 L172.02 300 L183.45 300 L183.45 220 Z" style="fill:rgb(255,255,255);" />
<path d=" M538.69 400 L538.69 461.33 L532.02 461.33 L532.02 468 L538.69 480 L550.12 480 L550.12 400 Z" style="fill:rgb(255,255,255);" />
<path d=" M389.85 419.43 L389.85 460.569996409858 A20.57 20.57 0 0 0 430.99 460.570003590142 L430.99 459.43 L419.56 459.43 L419.56 461.710001435708 A9.14 9.14 0 0 1 401.28 461.709998564292 L401.277965599629 443.065523558271 A18.97 18.97 0 0 0 430.989999999999 427.430005297423 L430.99 419.43 A20.57 20.57 0 0 0 389.85 419.43 Z M401.28 418.29 L401.28 427.429998564292 A9.14 9.14 0 0 0 419.56 427.430001435708 L419.56 418.29 A9.14 9.14 0 0 0 401.28 418.29 Z" style="fill:rgb(255,255,255);" />
<path d=" M363.54 400 L363.54 461.33 L356.87 461.33 L356.87 468 L363.54 480 L374.97 480 L374.97 400 Z" style="fill:rgb(255,255,255);" />
<path d=" M439.93 434.29 L439.93 445.71 L474.68 445.71 L474.68 434.29 Z" style="fill:rgb(255,255,255);" />
<path d=" M244 220 L244 281.33 L237.34 281.33 L237.34 288 L244 300 L255.43 300 L255.43 220 Z" style="fill:rgb(255,255,255);" />
<path d=" M269.75 242.86 L269.75 239.430003231128 A20.57 20.57 0 0 1 310.89 239.429996768872 L310.9 239.43 L310.889999999995 254.290013905736 A18.97 18.97 0 0 1 282.777856189899 270.911735966963 L282.78 270.91 L282.78 289.71 L309.3 289.71 L309.3 300 L271.35 300 L271.35 260 L283.185094128503 260.002505422744 A9.14 9.14 0 0 0 299.459999999998 254.290005423785 L299.47 254.29 L299.46 238.289998564292 A9.14 9.14 0 1 0 281.18 238.290001435708 L281.18 242.86 Z" style="fill:rgb(255,255,255);" />
</g>
</svg>
