<?xml version="1.0" encoding="UTF-8"?>
<!DOCTYPE svg PUBLIC '-//W3C//DTD SVG 1.0//EN' 'http://www.w3.org/TR/2001/REC-SVG-20010904/DTD/svg10.dtd'>
<svg xmlns:xlink="http://www.w3.org/1999/xlink" xmlns="http://www.w3.org/2000/svg" width="700" height="700">
<!--Gegenereerd door de SIMaD-toepassing (http://www.dlw.be).-->
<g style="stroke:none;fill-rule:evenodd;" transform="matrix(1,0,0,-1,0,700)">
<path d=" M700 350 A350 350 0 0 1 0 350 A350 350 0 0 1 700 350 Z" style="fill:rgb(255,0,0);" />
<path d=" M549.78 199.71 L199.713015376348 549.784439465966 A250 250 0 0 0 549.784439465966 199.713015376348 Z" style="fill:rgb(0,0,255);" />
<path d=" M500.29 150.22 L150.215560534034 500.286984623652 A250 250 0 0 1 500.286984623652 150.215560534034 Z" style="fill:rgb(0,0,255);" />
<path d=" M180 375.71 L192 375.71 L192 290 L214 290 L214 410 L192 410 L180 387.71 Z" style="fill:rgb(255,255,255);" />
<path d=" M501.96 341.43 L523.012622066026 341.427160779618 A19.14 19.14 0 0 0 558.81 332 L558.809999999999 326.000007015176 A19.14 19.14 0 0 0 521.233663521888 320.857909251497 L521.23 320.86 L499.343793012442 320.857725747887 A41.14 41.14 0 1 1 523.956830199162 367.020992817259 L523.96 367.02 L523.96 390 L572.24 390 L572.24 410 L501.96 410 Z" style="fill:rgb(255,255,255);" />
<path d=" M459.5 290 L468.53 290 L468.53 410 L446.53 410 L434.53 387.71 L434.53 375.71 L446.53 375.71 L446.53 302.97 Z" style="fill:rgb(255,255,255);" />
</g>
</svg>
