<?xml version="1.0" encoding="UTF-8"?>
<!DOCTYPE svg PUBLIC '-//W3C//DTD SVG 1.0//EN' 'http://www.w3.org/TR/2001/REC-SVG-20010904/DTD/svg10.dtd'>
<svg xmlns:xlink="http://www.w3.org/1999/xlink" xmlns="http://www.w3.org/2000/svg" width="700" height="700">
<!--Gegenereerd door de SIMaD-toepassing (http://www.dlw.be).-->
<g style="stroke:none;fill-rule:evenodd;" transform="matrix(1,0,0,-1,0,700)">
<path d=" M700 350 A350 350 0 0 1 0 350 A350 350 0 0 1 700 350 Z" style="fill:rgb(255,0,0);" />
<path d=" M500.29 150.22 L150.215560534034 500.286984623652 A250 250 0 0 1 500.286984623652 150.215560534034 Z" style="fill:rgb(0,0,255);" />
<path d=" M549.78 199.71 L199.713015376348 549.784439465966 A250 250 0 0 0 549.784439465966 199.713015376348 Z" style="fill:rgb(0,0,255);" />
<path d=" M266.1 384.4 L251.903200871488 384.401201848711 A19.14 19.14 0 0 1 217.200000000001 373.260004342728 L217.20059433762 360.256489694162 A36 36 0 0 0 265.435856118497 357.835832126929 L265.430370947123 357.830375008906 A41.14 41.14 0 1 0 195.200000000001 328.74000933437 L195.20000000002 371.259959790407 A41.14 41.14 0 0 0 238.138916844632 412.360650824362 L238.14 412.36 Z M217.2 326.74 L217.2 328.73999665944 A19.14 19.14 0 0 0 255.48 328.74000334056 L255.49 328.74 L255.48 326.74 A19.14 19.14 0 0 0 217.2 326.74 Z" style="fill:rgb(255,255,255);" />
<path d=" M130 375.71 L142 375.71 L142 290 L164 290 L164 410 L142 410 L130 387.71 Z" style="fill:rgb(255,255,255);" />
<path d=" M536 375.71 L548 375.71 L548 290 L570 290 L570 410 L548 410 L536 387.71 Z" style="fill:rgb(255,255,255);" />
<path d=" M429.765512251221 319.72391210751 A33.79 33.79 0 0 0 429.710000000016 321.659966974182 L452.286767262481 321.806729979985 A19.14 19.14 0 0 1 490 326.429998997832 A15 15 0 0 1 475.00001701696 341.42999999999 L461.71 341.43 L461.71 361.43 L472.75001701696 361.43000000001 A15 15 0 0 1 487.749999999995 376.429988219028 A16.89 16.89 0 0 1 454.118676942806 378.666113211503 L454.11 378.66 L432.120000000001 378.660007421664 A32.71 32.71 0 0 0 455.43083876103 409.990494218953 L455.432286848677 409.995691700944 A53.69 53.69 0 0 0 486.28773648756 409.995684700064 L486.289173269015 409.990490609932 A32.71 32.71 0 0 0 494.642660006191 351.186609916055 L494.638318137337 351.187520437355 A33.79 33.79 0 0 0 489.997305400964 289.992610916206 L490.004338534365 289.997435392724 A54.88 54.88 0 0 0 462.270547488019 287.22634970277 L462.27 287.23 Z" style="fill:rgb(255,255,255);" />
</g>
</svg>
