<?xml version="1.0" encoding="UTF-8"?>
<!DOCTYPE svg PUBLIC '-//W3C//DTD SVG 1.0//EN' 'http://www.w3.org/TR/2001/REC-SVG-20010904/DTD/svg10.dtd'>
<svg xmlns:xlink="http://www.w3.org/1999/xlink" xmlns="http://www.w3.org/2000/svg" width="400" height="600">
<!--Gegenereerd door de SIMaD-toepassing (http://www.dlw.be).-->
<g style="stroke:none;fill-rule:evenodd;" transform="matrix(1,0,0,-1,0,600)">
<path d=" M0 555 L1.06581410364015E-13 45.0000031415927 A45 45 0 0 1 45.0000031415927 1.06581410364015E-13 L354.999996858407 1.06581410364015E-13 A45 45 0 0 1 400 45.0000031415927 L399.999999999999 554.99999136062 A45 45 0 0 1 355.000003141593 600 L45.0000031415927 600 A45 45 0 0 1 1.06581410364015E-13 554.999996858407 Z" style="fill:rgb(0,0,255);" />
<path d=" M310.15 183.37 L344.33 183.37 L344.33 48.36 L242.49 48.36 L242.49 183.37 L276.671569295463 183.362296741282 A20.6 20.6 0 0 1 310.148430704537 183.362296741282 Z" style="fill:rgb(255,255,255);" />
<path d=" M62.86 100 L136.19 100 L136.19 273.33 L230.480119151534 273.330000000067 A106.67 106.67 0 0 1 337.149999999966 379.999914359835 L337.14 380 L337.149999999966 393.330085640165 A106.67 106.67 0 0 1 230.480119151534 499.999999999933 L230.48 500 L62.86 500 Z M136.19 340 L223.810044680429 340.000000000025 A40 40 0 0 1 263.809999999987 379.999967885942 L263.809999999987 393.330032114058 A40 40 0 0 1 223.810044680429 433.329999999975 L136.19 433.33 Z" style="fill:rgb(255,255,255);" />
<path d=" M312.54 178.37 L339.33 178.37 L339.33 53.36 L247.49 53.36 L247.49 178.37 L274.276320451269 178.362286840187 A25.6 25.6 0 0 1 312.543679548731 178.362286840187 Z" style="fill:rgb(0,0,255);" />
<path d=" M263.95 112.04 L282.359515513655 122.660000578602 A12.76 12.76 0 0 1 304.460484486345 122.660000578602 L304.46 122.67 L322.872185127388 112.030001542636 A34.02 34.02 0 0 0 263.947814872612 112.030001542636 Z" style="fill:rgb(255,255,255);" />
<path d=" M281.99 57.61 L304.83 57.61 L304.83 90.78 L281.99 90.78 L281.99 57.61 Z" style="fill:rgb(255,255,255);" />
<path d=" M315.23 153.02 L271.59 153.02 L271.59 148.77 L315.23 148.77 Z" style="fill:rgb(255,255,255);" />
<path d=" M271.59 155.15 L315.23 155.15 L315.23 159.4 L271.59 159.4 Z" style="fill:rgb(255,255,255);" />
<path d=" M315.23 165.78 L315.23 161.53 L271.59 161.53 L271.59 165.78 Z" style="fill:rgb(255,255,255);" />
<path d=" M284.54 60.16 L302.28 60.16 L302.28 88.23 L284.54 88.23 L284.54 60.16 Z" style="fill:rgb(0,0,255);" />
<path d=" M284.91 144.78 L301.91 144.78 L293.41 120.54 L284.91 144.78 Z" style="fill:rgb(255,255,255);" />
<path d=" M287.94 63.56 L287.94 84.82 L294.01 84.82 L294.015755372714 84.8199981464131 A4.86 4.86 0 0 0 298.879998138255 79.9642539578124 L298.88 79.97 L298.88 77.84 L298.86999814582 77.8442453058696 A4.86 4.86 0 0 0 294.014254721219 72.9800018624132 L294.01 72.98 L290.98 72.98 L290.98 63.56 L287.94 63.56 Z M290.98 82.09 L293.72 82.09 L293.72000323427 82.0999999999976 A2.13 2.13 0 0 0 295.85 79.9700008550368 L295.84 79.97 L295.84 77.84 L295.849999999998 77.83999710031 A2.13 2.13 0 0 0 293.720001189616 75.7100000000003 L293.72 75.72 L290.98 75.72 L290.98 82.09 Z" style="fill:rgb(255,255,255);" />
</g>
</svg>
