<?xml version="1.0" encoding="UTF-8"?>
<!DOCTYPE svg PUBLIC '-//W3C//DTD SVG 1.0//EN' 'http://www.w3.org/TR/2001/REC-SVG-20010904/DTD/svg10.dtd'>
<svg xmlns:xlink="http://www.w3.org/1999/xlink" xmlns="http://www.w3.org/2000/svg" width="400" height="600">
<!--Gegenereerd door de SIMaD-toepassing (http://www.dlw.be).-->
<g style="stroke:none;fill-rule:evenodd;" transform="matrix(1,0,0,-1,0,600)">
<path d=" M45 0 L355 0 A45 45 0 0 1 400 45.0000031415927 L400 555 A45 45 0 0 1 355.000003141593 600 L45 600 A45 45 0 0 1 1.06581410364015E-13 554.999996858407 L0 45 A45 45 0 0 1 45.0000031415927 1.06581410364015E-13 Z" style="fill:rgb(0,0,255);" />
<path d=" M62.86 100 L136.19 100 L136.19 273.33 L230.48 273.33 L230.475162612541 273.33000012493 A106.67 106.67 0 0 1 337.139999884785 380.004957820843 L337.14 380 L337.14 393.33 L337.149999999901 393.330145215932 A106.67 106.67 0 0 1 230.480059575767 499.999999999983 L62.86 500 L62.86 100 Z M136.19 340 L223.81 340 A40 40 0 0 1 263.809999999997 379.999983942971 L263.81 393.33 A40 40 0 0 1 223.810022340214 433.329999999994 L136.19 433.33 L136.19 340 Z" style="fill:rgb(255,255,255);" />
<path d=" M283.41 117.86 L317.72 117.86 L341.56 71.23 L355.3 79.24 L358.78 72.8 L336.83 61.54 L312.45 109.12 L275.99 109.29 L269.81 164.3 L269.805744200895 164.292844161436 A11.44 11.44 0 1 0 279.587856600982 155.560188899964 L279.59 155.56 L281.59 134.91 L303.28 134.91 L303.28 130.22 L282.09 130.22 L283.41 117.86 Z" style="fill:rgb(255,255,255);" />
<path d=" M266.56 133.74 L267.51 127.53 L267.517736110222 127.527967815461 A34.49 34.49 0 1 1 310.52306134317 93.02919399055 L310.52 93.03 L315.46 83.77 L315.4663924692 83.7702463900739 A40.75 40.75 0 1 0 266.560189736218 133.739610156516 Z" style="fill:rgb(255,255,255);" />
</g>
</svg>
