<?xml version="1.0" encoding="UTF-8"?>
<!DOCTYPE svg PUBLIC '-//W3C//DTD SVG 1.0//EN' 'http://www.w3.org/TR/2001/REC-SVG-20010904/DTD/svg10.dtd'>
<svg xmlns:xlink="http://www.w3.org/1999/xlink" xmlns="http://www.w3.org/2000/svg" width="400.000000002976" height="600.000000000025">
<!--Gegenereerd door de SIMaD-toepassing (http://www.dlw.be).-->
<g style="stroke:none;fill-rule:evenodd;" transform="matrix(1,0,0,-1,0,600.000000000025)">
<path d=" M0 555 L1.26760824059602E-11 45.000033772121 A45 45 0 0 1 45.000033772121 1.26760824059602E-11 L354.999966227879 1.26760824059602E-11 A45 45 0 0 1 399.999999999987 45.000033772121 L399.999999999888 554.999899469035 A45 45 0 0 1 355.000033772121 599.999999999987 L45.000033772121 599.999999999987 A45 45 0 0 1 1.26760824059602E-11 554.999966227879 Z" style="fill:rgb(0,0,255);" />
<path d=" M291.371608186357 81.603549387997 A179.95 179.95 0 0 1 300.007243393154 118.595080750604 L300 118.59 L300.089821858566 136.085399523273 A20.47 20.47 0 0 1 297.855541155328 145.299781651864 L297.861132985198 145.312269718896 A8.95 8.95 0 0 1 291.307768476246 149.755386882068 L291.3 149.75 L262.97 210.03 L137.03 210.03 L108.692231523754 149.755386882068 A8.95 8.95 0 0 1 102.138867014802 145.312269718896 L102.144458844672 145.299781651864 A20.47 20.47 0 0 1 99.910178141434 136.085399523273 L99.91 136.09 L99.992756606846 118.595080750604 A179.95 179.95 0 0 1 108.628391813643 81.6035493879969 L108.64 81.6 L115.36 81.6 L115.36 50 L134.6 50 L134.6 81.6 L265.4 81.6 L265.4 50 L284.64 50 L284.64 81.6 Z M258.25 202.6 L282.472626926506 151.073007423747 A710.23 710.23 0 0 1 117.526131229489 151.077538748506 L117.53 151.08 L141.75 202.6 Z" style="fill:rgb(255,255,255);" />
<path d=" M97.14 250 L152.14 250 L152.14 380 L222.860089360858 380.00000000005 A80 80 0 0 1 302.859999999974 459.999935771884 L302.859999999974 470.000064228116 A80 80 0 0 1 222.860089360858 549.99999999995 L97.14 550 Z M152.14 430 L217.860033510322 430.000000000019 A30 30 0 0 1 247.85999999999 459.999975914456 L247.85999999999 470.000024085544 A30 30 0 0 1 217.860033510322 499.999999999981 L152.14 500 Z" style="fill:rgb(255,255,255);" />
</g>
</svg>
