<?xml version="1.0" encoding="UTF-8"?>
<!DOCTYPE svg PUBLIC '-//W3C//DTD SVG 1.0//EN' 'http://www.w3.org/TR/2001/REC-SVG-20010904/DTD/svg10.dtd'>
<svg xmlns:xlink="http://www.w3.org/1999/xlink" xmlns="http://www.w3.org/2000/svg" width="400.000000002976" height="600.000000000025">
<!--Gegenereerd door de SIMaD-toepassing (http://www.dlw.be).-->
<g style="stroke:none;fill-rule:evenodd;" transform="matrix(1,0,0,-1,0,600.000000000025)">
<path d=" M0 555 L1.26760824059602E-11 45.000033772121 A45 45 0 0 1 45.000033772121 1.26760824059602E-11 L354.999966227879 1.26760824059602E-11 A45 45 0 0 1 399.999999999987 45.000033772121 L399.999999999888 554.999899469035 A45 45 0 0 1 355.000033772121 599.999999999987 L45.000033772121 599.999999999987 A45 45 0 0 1 1.26760824059602E-11 554.999966227879 Z" style="fill:rgb(0,0,255);" />
<path d=" M97.14 250 L152.14 250 L152.14 380 L222.860089360858 380.00000000005 A80 80 0 0 1 302.859999999974 459.999935771884 L302.859999999974 470.000064228116 A80 80 0 0 1 222.860089360858 549.99999999995 L97.14 550 Z M152.14 430 L217.860033510322 430.000000000019 A30 30 0 0 1 247.85999999999 459.999975914456 L247.85999999999 470.000024085544 A30 30 0 0 1 217.860033510322 499.999999999981 L152.14 500 Z" style="fill:rgb(255,255,255);" />
<path d=" M51.5965121978562 177.998816167998 A14.2 14.2 0 0 1 40.0206295852769 168.750899661273 L40.02 168.75 L30.96 142.91 L24.26 123.36 L23.63 121.08 L23.2 119.02 L23 117.06 L23.63 104.45 L27.5824659268576 83.3823259694363 A7.15 7.15 0 0 1 34.6100034941492 77.5500000000008 L51.5242713094499 77.5458319663704 A27.9 27.9 0 0 0 106.69572869055 77.5458319663704 L106.7 77.55 L287.73427130945 77.5458319663704 A27.9 27.9 0 0 0 342.90572869055 77.5458319663704 L342.9 77.55 L368.5499937409 77.5500000000023 A8.34 8.34 0 0 1 376.889999999998 85.8900062590998 L376.889999999979 169.659981368261 A8.34 8.34 0 0 1 368.5500062591 177.999999999998 L51.6 178 Z M145.150003632379 169.159999999999 A4.84 4.84 0 0 1 140.310000000001 164.319996367621 L140.3 164.32 L140.310000000001 132.840003632379 A4.84 4.84 0 0 1 145.150003632379 128.000000000001 L145.15 127.99 L195.029996367621 128.000000000001 A4.84 4.84 0 0 1 199.869999999999 132.840003632379 L199.869999999988 164.319989187336 A4.84 4.84 0 0 1 195.030003632379 169.159999999999 L195.03 169.17 Z M50.0700011826351 169.16 A4.84 4.84 0 0 1 45.5126517388007 165.949778152432 L45.51 165.95 L34.2526527912665 134.469781095439 A4.84 4.84 0 0 1 38.810001267109 128 L38.81 127.99 L70.2299963676208 128.000000000001 A4.84 4.84 0 0 1 75.0699999999986 132.840003632379 L75.08 132.84 L75.0699999999879 164.319989187336 A4.84 4.84 0 0 1 70.2300036323792 169.159999999999 L70.23 169.17 Z M82.7900041392229 169.159999999998 A4.84 4.84 0 0 1 77.950000000001 164.319996874464 L77.94 164.32 L77.950000000001 132.840003125536 A4.84 4.84 0 0 1 82.7900041392229 128.000000000002 L82.79 127.99 L132.669995860777 128.000000000002 A4.84 4.84 0 0 1 137.509999999999 132.840003125536 L137.509999999987 164.319988680493 A4.84 4.84 0 0 1 132.670004139223 169.159999999998 L132.67 169.17 Z M332.140004139223 169.159999999998 A4.84 4.84 0 0 1 327.300000000001 164.319996874464 L327.29 164.32 L327.300000000001 132.840003125536 A4.84 4.84 0 0 1 332.140004139223 128.000000000002 L332.14 127.99 L369.188034907761 128.000629115973 A4.84 4.84 0 0 1 373.94937147362 132.762001664701 L373.95 132.76 L373.939999999988 164.319989187336 A4.84 4.84 0 0 1 369.100003632379 169.159999999999 L369.1 169.17 Z M269.780003632379 169.159999999999 A4.84 4.84 0 0 1 264.940000000001 164.319996367621 L264.940000000001 132.840003632379 A4.84 4.84 0 0 1 269.780003632379 128.000000000001 L269.78 127.99 L319.659996367621 128.000000000001 A4.84 4.84 0 0 1 324.499999999999 132.840003632379 L324.51 132.84 L324.499999999988 164.319989187336 A4.84 4.84 0 0 1 319.660003632379 169.159999999999 L319.66 169.17 Z M207.500003632379 169.159999999999 A4.84 4.84 0 0 1 202.660000000001 164.319996367621 L202.660000000001 132.840003632379 A4.84 4.84 0 0 1 207.500003632379 128.000000000001 L207.5 127.99 L257.379995860777 128.000000000002 A4.84 4.84 0 0 1 262.219999999999 132.840003125536 L262.23 132.84 L262.219999999987 164.319988680493 A4.84 4.84 0 0 1 257.380004139223 169.159999999998 L257.38 169.17 Z" style="fill:rgb(255,255,255);" />
<path d=" M102.52 73.48 A23.48 23.48 0 0 1 55.56 73.48 A23.48 23.48 0 0 1 102.52 73.48 Z M87.26 73.38 A8.2 8.2 0 0 1 70.86 73.38 A8.2 8.2 0 0 1 87.26 73.38 Z" style="fill:rgb(255,255,255);" />
<path d=" M338.73 73.48 A23.48 23.48 0 0 1 291.77 73.48 A23.48 23.48 0 0 1 338.73 73.48 Z M323.46 73.38 A8.2 8.2 0 0 1 307.06 73.38 A8.2 8.2 0 0 1 323.46 73.38 Z" style="fill:rgb(255,255,255);" />
</g>
</svg>
