<?xml version="1.0" encoding="UTF-8"?>
<!DOCTYPE svg PUBLIC '-//W3C//DTD SVG 1.0//EN' 'http://www.w3.org/TR/2001/REC-SVG-20010904/DTD/svg10.dtd'>
<svg xmlns:xlink="http://www.w3.org/1999/xlink" xmlns="http://www.w3.org/2000/svg" width="400.000000002976" height="600.000000000025">
<!--Gegenereerd door de SIMaD-toepassing (http://www.dlw.be).-->
<g style="stroke:none;fill-rule:evenodd;" transform="matrix(1,0,0,-1,0,600.000000000025)">
<path d=" M0 555 L1.26760824059602E-11 45.000033772121 A45 45 0 0 1 45.000033772121 1.26760824059602E-11 L354.999966227879 1.26760824059602E-11 A45 45 0 0 1 399.999999999987 45.000033772121 L399.999999999888 554.999899469035 A45 45 0 0 1 355.000033772121 599.999999999987 L45.000033772121 599.999999999987 A45 45 0 0 1 1.26760824059602E-11 554.999966227879 Z" style="fill:rgb(0,0,255);" />
<path d=" M97.14 250 L152.14 250 L152.14 380 L222.860089360858 380.00000000005 A80 80 0 0 1 302.859999999974 459.999935771884 L302.859999999974 470.000064228116 A80 80 0 0 1 222.860089360858 549.99999999995 L97.14 550 Z M152.14 430 L217.860033510322 430.000000000019 A30 30 0 0 1 247.85999999999 459.999975914456 L247.85999999999 470.000024085544 A30 30 0 0 1 217.860033510322 499.999999999981 L152.14 500 Z" style="fill:rgb(255,255,255);" />
<path d=" M20 59.11 L91.49 59.11 L117.55 74 L380 74 L380 50 L20 50 Z" style="fill:rgb(255,255,255);" />
<path d=" M369.19729010722 83.0440386327426 A27.27 27.27 0 0 0 369.89568171637 96.6278683023444 L369.897515261249 96.6266833673954 A57.41 57.41 0 0 1 369.897515261249 130.933316632605 L369.899146384944 130.929775670698 A24.5 24.5 0 0 0 369.068305424531 141.997511945836 L369.065371121234 142.00009033832 A13.99 13.99 0 0 1 368.17220611265 149.476491830775 L368.16580145355 149.472014086014 A15.65 15.65 0 0 1 345.01419854645 149.472014086014 L345.020736511342 149.468080671278 A14.6 14.6 0 0 1 344.263292627445 140.971679463392 L344.26 140.97 L344.26 128.81 L340.45 128.81 L340.45 117.58 L270.676031586657 117.576148254703 A13.96 13.96 0 0 0 261.369021338925 122.089085110848 L261.362214181121 122.086220763226 A18.24 18.24 0 0 1 234.417785818878 122.086220763226 L234.420978661075 122.089085110848 A13.96 13.96 0 0 0 225.113968413344 117.576148254703 L225.12 117.58 L155.34 117.58 L155.34 128.81 L151.53 128.81 L151.526707372555 140.971679463392 A14.6 14.6 0 0 1 150.769263488658 149.468080671278 L150.76580145355 149.472014086014 A15.65 15.65 0 0 1 127.61419854645 149.472014086014 L127.61779388735 149.476491830775 A13.99 13.99 0 0 1 126.724628878766 142.00009033832 L126.721694575469 141.997511945836 A24.5 24.5 0 0 0 125.890853615056 130.929775670698 L125.892484738751 130.933316632605 A57.41 57.41 0 0 1 125.892484738751 96.6266833673954 L125.894318283629 96.6278683023444 A27.27 27.27 0 0 0 126.59270989278 83.0440386327425 L126.58450352302 83.0431993011265 A7.12 7.12 0 0 1 128.863499067565 77.5648053882604 L128.864884676408 77.5650910557495 A15.2 15.2 0 0 1 149.515115323592 77.5650910557495 L149.519727060765 77.5631886927804 A7.64 7.64 0 0 1 151.620438176798 85.4545374127554 L151.62 85.45 L151.53 98.74 L155.34 98.74 L155.34 109.98 L225.113969385412 109.973851675207 A13.96 13.96 0 0 0 234.420979482332 105.460913989349 L234.417785818878 105.463779236774 A18.24 18.24 0 0 1 261.362214181121 105.463779236774 L261.369020517668 105.460913989349 A13.96 13.96 0 0 0 270.676030614588 109.973851675207 L270.67 109.98 L340.45 109.98 L340.45 98.74 L344.26 98.74 L344.169561823201 85.4545374127554 A7.64 7.64 0 0 1 346.270272939235 77.5631886927804 L346.264884676408 77.5650910557495 A15.2 15.2 0 0 1 366.915115323592 77.5650910557495 L366.926500932435 77.5648053882604 A7.12 7.12 0 0 1 369.20549647698 83.0431993011265 Z" style="fill:rgb(255,255,255);" />
</g>
</svg>
