<?xml version="1.0" encoding="UTF-8"?>
<!DOCTYPE svg PUBLIC '-//W3C//DTD SVG 1.0//EN' 'http://www.w3.org/TR/2001/REC-SVG-20010904/DTD/svg10.dtd'>
<svg xmlns:xlink="http://www.w3.org/1999/xlink" xmlns="http://www.w3.org/2000/svg" width="400.000000002976" height="600.000000000025">
<!--Gegenereerd door de SIMaD-toepassing (http://www.dlw.be).-->
<g style="stroke:none;fill-rule:evenodd;" transform="matrix(1,0,0,-1,0,600.000000000025)">
<path d=" M0 555 L1.26760824059602E-11 45.000033772121 A45 45 0 0 1 45.000033772121 1.26760824059602E-11 L354.999966227879 1.26760824059602E-11 A45 45 0 0 1 399.999999999987 45.000033772121 L399.999999999888 554.999899469035 A45 45 0 0 1 355.000033772121 599.999999999987 L45.000033772121 599.999999999987 A45 45 0 0 1 1.26760824059602E-11 554.999966227879 Z" style="fill:rgb(0,0,255);" />
<path d=" M97.14 250 L152.14 250 L152.14 380 L222.860089360858 380.00000000005 A80 80 0 0 1 302.859999999974 459.999935771884 L302.859999999974 470.000064228116 A80 80 0 0 1 222.860089360858 549.99999999995 L97.14 550 Z M152.14 430 L217.860033510322 430.000000000019 A30 30 0 0 1 247.85999999999 459.999975914456 L247.85999999999 470.000024085544 A30 30 0 0 1 217.860033510322 499.999999999981 L152.14 500 Z" style="fill:rgb(255,255,255);" />
<path d=" M380 50 L20 50 L20 59.11 L188.09 59.11 L214.15 74 L380 74 Z" style="fill:rgb(255,255,255);" />
<path d=" M321.923924448542 83.853673464073 A27.27 27.27 0 0 0 321.725026352886 97.453990330971 L321.729417415201 97.44692197593 A57.41 57.41 0 0 1 319.46710440791 131.678882063838 L319.472762738407 131.683885061086 A24.5 24.5 0 0 0 317.913880724575 142.67274168152 L317.90639191272 142.666447608363 A13.99 13.99 0 0 1 316.522147686302 150.067676623234 L316.5260830714 150.07244251912 A15.65 15.65 0 0 1 293.424873464454 148.545736305096 L293.418279535459 148.543961797718 A14.6 14.6 0 0 1 293.222770645846 140.01610561948 L293.22 140.01 L294.02 127.88 L290.23 127.63 L290.97 116.42 L221.336409756174 111.810250264738 A13.96 13.96 0 0 0 211.752057008775 115.699623725082 L211.752029332615 115.707865896108 A18.24 18.24 0 0 1 184.866249983633 113.931046106176 L184.869127679652 113.929515899271 A13.96 13.96 0 0 0 175.879976455979 108.812661484997 L175.88 108.81 L106.25 104.21 L105.51 115.42 L101.71 115.17 L100.913990418516 127.310349305964 A14.6 14.6 0 0 1 99.5979091004066 135.738307818365 L99.5960830714 135.73244251912 A15.65 15.65 0 0 1 76.4948732943584 134.205736091378 L76.4840345397703 134.212077785235 A13.99 13.99 0 0 1 76.0858356882197 126.693051207043 L76.0918681028494 126.685968874716 A24.5 24.5 0 0 0 75.9926855112325 115.587534490937 L75.9905825847986 115.59307802407 A57.41 57.41 0 0 1 78.2528955920897 81.3611179361618 L78.2603699300505 81.3562777342905 A27.27 27.27 0 0 0 79.853011861747 67.8480701918411 L79.8432946165832 67.8534255655739 A7.12 7.12 0 0 1 82.4785954704189 62.5372417871146 L82.4829566222427 62.538493702829 A15.2 15.2 0 0 1 103.088238826647 63.9002495912152 L103.088165760153 63.8976237094186 A7.64 7.64 0 0 1 104.66391800324 71.9103246698743 L104.66 71.91 L103.7 85.16 L107.5 85.41 L106.75 96.62 L176.383590731113 101.229749732344 A13.96 13.96 0 0 0 185.967943342747 97.3403759374427 L185.967971126681 97.3321336629512 A18.24 18.24 0 0 1 212.853750413641 99.1089543913735 L212.850872320348 99.1104841007293 A13.96 13.96 0 0 0 221.840023544021 104.227338515003 L221.84 104.23 L291.47 108.83 L292.21 97.62 L296.01 97.87 L296.794779408165 84.6088049262198 A7.64 7.64 0 0 1 299.411304057144 76.8731621776266 L299.412957240692 76.8784932018998 A15.2 15.2 0 0 1 320.018239191412 78.2402499765224 L320.020544133831 78.2351176357239 A7.12 7.12 0 0 1 321.933311315069 83.8518731286186 Z" style="fill:rgb(255,255,255);" />
</g>
</svg>
