<?xml version="1.0" encoding="UTF-8"?>
<!DOCTYPE svg PUBLIC '-//W3C//DTD SVG 1.0//EN' 'http://www.w3.org/TR/2001/REC-SVG-20010904/DTD/svg10.dtd'>
<svg xmlns:xlink="http://www.w3.org/1999/xlink" xmlns="http://www.w3.org/2000/svg" width="400.000000002976" height="600.000000000025">
<!--Gegenereerd door de SIMaD-toepassing (http://www.dlw.be).-->
<g style="stroke:none;fill-rule:evenodd;" transform="matrix(1,0,0,-1,0,600.000000000025)">
<path d=" M0 555 L1.26760824059602E-11 45.000033772121 A45 45 0 0 1 45.000033772121 1.26760824059602E-11 L354.999966227879 1.26760824059602E-11 A45 45 0 0 1 399.999999999987 45.000033772121 L399.999999999888 554.999899469035 A45 45 0 0 1 355.000033772121 599.999999999987 L45.000033772121 599.999999999987 A45 45 0 0 1 1.26760824059602E-11 554.999966227879 Z" style="fill:rgb(0,0,255);" />
<path d=" M353.49 74 L373.49 50 L380 57.81 L366.51 74 L380 74 L380 50 L20 50 L20 59.11 L277.47 59.11 L284.36 63.04 L280 57.81 L286.51 50 L306.51 74 Z" style="fill:rgb(255,255,255);" />
<path d=" M270.985086643192 68.004881930215 A27.27 27.27 0 0 0 271.688989889888 81.5884271063381 L271.690550422344 81.5844535625505 A57.41 57.41 0 0 1 271.704470780364 115.8910849598 L271.706178481124 115.889261926908 A24.5 24.5 0 0 0 270.879827789322 126.957334364856 L270.884501968088 126.964482501977 A13.99 13.99 0 0 1 269.994369700378 134.441245675632 L269.980073725162 134.437316491861 A15.65 15.65 0 0 1 246.828472723697 134.446709946363 L246.832963861178 134.443568357544 A14.6 14.6 0 0 1 246.072073479433 125.947475105372 L246.07 125.95 L246.06 113.79 L242.26 113.79 L242.25 102.55 L172.470382251913 102.576556747602 A13.96 13.96 0 0 0 163.165203670091 107.093269607749 L163.167202529027 107.100753109212 A18.24 18.24 0 0 1 136.222776384992 107.11168639266 L136.227160116301 107.104903062796 A13.96 13.96 0 0 0 126.918319642397 102.595742106252 L126.92 102.6 L57.14 102.63 L57.14 113.86 L53.34 113.86 L53.3354855580066 126.025882820462 A14.6 14.6 0 0 1 52.5814891863701 134.522590664927 L52.5800737251622 134.527316491861 A15.65 15.65 0 0 1 29.4284727236974 134.536709946363 L29.4299606284476 134.531739590256 A13.99 13.99 0 0 1 28.5337615906535 127.055701181205 L28.5332130203979 127.057688487399 A24.5 24.5 0 0 0 27.6978817349627 115.990290211332 L27.699448978116 115.995544525248 A57.41 57.41 0 0 1 27.6855298176241 81.6889131275123 L27.687622172596 81.6873081569147 A27.27 27.27 0 0 0 28.3805020292207 68.1031962302273 L28.3746068632966 68.1060869191383 A7.12 7.12 0 0 1 30.6513790478977 62.6267685019831 L30.650359570558 62.6292812519355 A15.2 15.2 0 0 1 51.3005885179988 62.6209026959098 L51.307451940375 62.6110836727315 A7.64 7.64 0 0 1 53.4113644176975 70.501579481047 L53.41 70.51 L53.32 83.79 L57.13 83.79 L57.13 95.03 L126.919618477117 94.9934431995345 A13.96 13.96 0 0 0 136.224796658265 90.4767300321971 L136.222797900002 90.4792464203451 A18.24 18.24 0 0 1 163.167224044418 90.4683140774348 L163.162839883699 90.4650969372037 A13.96 13.96 0 0 0 172.471680357603 94.974257893748 L172.47 94.98 L242.25 94.95 L242.25 83.71 L246.05 83.71 L245.950489383835 70.4274953501207 A7.64 7.64 0 0 1 248.047998379581 62.5352949075291 L248.050359570558 62.5392812519355 A15.2 15.2 0 0 1 268.700588517999 62.5309026959098 L268.704380846147 62.522843810024 A7.12 7.12 0 0 1 270.985598601695 68.0003128833208 Z" style="fill:rgb(255,255,255);" />
<path d=" M97.14 250 L152.14 250 L152.14 380 L222.860089360858 380.00000000005 A80 80 0 0 1 302.859999999974 459.999935771884 L302.859999999974 470.000064228116 A80 80 0 0 1 222.860089360858 549.99999999995 L97.14 550 Z M152.14 430 L217.860033510322 430.000000000019 A30 30 0 0 1 247.85999999999 459.999975914456 L247.85999999999 470.000024085544 A30 30 0 0 1 217.860033510322 499.999999999981 L152.14 500 Z" style="fill:rgb(255,255,255);" />
<path d=" M323.49 110 L280 57.81 L286.51 50 L330 102.19 L373.49 50 L380 57.81 L336.51 110 L380 162.19 L373.49 170 L330 117.81 L286.51 170 L280 162.19 Z" style="fill:rgb(255,0,0);" />
</g>
</svg>
