<?xml version="1.0" encoding="UTF-8"?>
<!DOCTYPE svg PUBLIC '-//W3C//DTD SVG 1.0//EN' 'http://www.w3.org/TR/2001/REC-SVG-20010904/DTD/svg10.dtd'>
<svg xmlns:xlink="http://www.w3.org/1999/xlink" xmlns="http://www.w3.org/2000/svg" width="400.000000002976" height="600.000000000025">
<!--Gegenereerd door de SIMaD-toepassing (http://www.dlw.be).-->
<g style="stroke:none;fill-rule:evenodd;" transform="matrix(1,0,0,-1,0,600.000000000025)">
<path d=" M0 555 L1.26760824059602E-11 45.000033772121 A45 45 0 0 1 45.000033772121 1.26760824059602E-11 L354.999966227879 1.26760824059602E-11 A45 45 0 0 1 399.999999999987 45.000033772121 L399.999999999888 554.999899469035 A45 45 0 0 1 355.000033772121 599.999999999987 L45.000033772121 599.999999999987 A45 45 0 0 1 1.26760824059602E-11 554.999966227879 Z" style="fill:rgb(0,0,255);" />
<path d=" M54.45 77.7 L82.5961903715361 77.6988979703717 A28.19 28.19 0 0 0 137.803809628464 77.6988979703717 L137.8 77.7 L246.10626603266 77.6992631571132 A28.19 28.19 0 0 0 301.31373396734 77.6992631571132 L301.31 77.7 L320.66 77.7 L348.58 91.02 L348.58 196.19 L267.99 196.19 L253.49 203 L74.1 203 L55.8285884851564 185.775789866333 A16.36 16.36 0 0 1 52.3230719007819 169.56618645541 L52.3282027900125 169.564657896756 A7.92 7.92 0 0 1 60.1707405475406 164.554002065716 L60.17 164.56 L140.94 164.56 L140.94 158.12 L112.88 158.12 L87.86 121.85 L54.45 111.84 Z M178.2 164.56 L178.2 82.18 L223.23 82.18 L223.23 164.56 Z M115.56 152.45 L94.39 121.67 L140.94 121.67 L140.94 152.45 Z M100.91 196.9 L100.91 176.89 L140.94 176.89 L140.94 196.9 Z M296.05 164.56 L247.44 164.56 L247.44 137.4 L296.05 137.4 Z" style="fill:rgb(255,255,255);" />
<path d=" M97.14 250 L152.14 250 L152.14 380 L222.860089360858 380.00000000005 A80 80 0 0 1 302.859999999974 459.999935771884 L302.859999999974 470.000064228116 A80 80 0 0 1 222.860089360858 549.99999999995 L97.14 550 Z M152.14 430 L217.860033510322 430.000000000019 A30 30 0 0 1 247.85999999999 459.999975914456 L247.85999999999 470.000024085544 A30 30 0 0 1 217.860033510322 499.999999999981 L152.14 500 Z" style="fill:rgb(255,255,255);" />
<path d=" M132.19 71.99 A21.99 21.99 0 0 1 88.21 71.99 A21.99 21.99 0 0 1 132.19 71.99 Z" style="fill:rgb(255,255,255);" />
<path d=" M295.7 72 A21.99 21.99 0 0 1 251.72 72 A21.99 21.99 0 0 1 295.7 72 Z" style="fill:rgb(255,255,255);" />
</g>
</svg>
