<?xml version="1.0" encoding="UTF-8"?>
<!DOCTYPE svg PUBLIC '-//W3C//DTD SVG 1.0//EN' 'http://www.w3.org/TR/2001/REC-SVG-20010904/DTD/svg10.dtd'>
<svg xmlns:xlink="http://www.w3.org/1999/xlink" xmlns="http://www.w3.org/2000/svg" width="400.000000000002" height="600">
<!--Gegenereerd door de SIMaD-toepassing (http://www.dlw.be).-->
<g style="stroke:none;fill-rule:evenodd;" transform="matrix(1,0,0,-1,0,600)">
<path d=" M45 0 L355 0 A45 45 0 0 1 400 45.0000031415927 L400 555 A45 45 0 0 1 355.000003141593 600 L45 600 A45 45 0 0 1 1.06581410364015E-13 554.999996858407 L0 45 A45 45 0 0 1 45.0000031415927 1.06581410364015E-13 Z" style="fill:rgb(0,0,255);" />
<path d=" M328.57 35 L328.57 40.84 L294.92 40.84 L294.918888447156 40.8424623034925 A40.41 40.41 0 0 1 310.240399236853 112.953638991348 L310.24 112.95 L312.16 115.62 L312.158625368127 115.610207639311 A43.28 43.28 0 0 0 315.559615550632 112.743091093704 L315.56 112.75 L317.66 114.94 L317.653237476255 114.932264255145 A46.35 46.35 0 0 1 299.679844750693 125.396682349447 L299.68 125.4 L299.68 133.21 L277.93 133.21 L277.93 126.79 L277.928862575179 126.774181625664 A46.35 46.35 0 0 1 271.73282567691 125.242134368589 L271.73 125.25 L266.37 139.64 L268.45 138.94 L268.450646173045 138.926991333399 A17.25 17.25 0 0 1 275.568621186605 138.081468992579 L275.564611654879 138.082145815885 A1.7 1.7 0 0 1 277.349932718791 139.795124535786 L277.349764404011 139.797417327799 A24.14 24.14 0 0 1 277.815055320732 149.256697833006 L277.817255523273 149.256776710472 A1.85 1.85 0 0 1 275.600424150745 150.850641371079 L275.604819716853 150.849887718889 A9.09 9.09 0 0 1 270.324400085013 149.126551808376 L270.325241359108 149.130941783067 A69.15 69.15 0 0 1 264.574766558883 144.484095496273 L264.57 144.48 L262.47 150.1 L249.02 147.24 L246.16 150.38 L246.163135522053 150.379538992888 A2.72 2.72 0 0 1 244.773578222844 150.739756138728 L244.766230731828 150.742079686954 A30.99 30.99 0 0 1 234.69965719075 149.803952092857 L234.709681069079 149.796105923373 A32.06 32.06 0 0 0 211.937646989779 150.62977034752 L211.940480657354 150.646411694984 A34.13 34.13 0 0 0 193.777862263297 174.665208872962 L193.77 174.66 L193.79 176.43 L193.789077985012 176.429263784431 A4.3 4.3 0 0 0 197.799511089727 180.440842105137 L197.79468641676 180.442358003892 A9.01 9.01 0 0 1 200.938351705111 180.434037686128 L200.94 180.43 L200.94 185.58 L204.38 185.3 L204.371828601158 185.299638760221 A37.2 37.2 0 0 1 204.194589752495 192.061699440434 L204.192722652827 192.05885049841 A16.48 16.48 0 0 1 205.782152208243 196.736178770551 L205.788003774834 196.744454611277 A8.84 8.84 0 0 1 206.717588496187 197.982911510169 L206.715840730413 197.97786242099 A16.65 16.65 0 0 1 173.467593235115 199.608010180122 L173.47 199.61 L174.62 199.32 L174.614645840562 199.313089370072 A16.51 16.51 0 0 1 176.459985997746 185.022148693886 L176.458595677502 185.022891997047 A20.47 20.47 0 0 0 177.652671825652 180.984860662809 L177.654193309585 180.991349439811 A2.9 2.9 0 0 0 176.049258668768 177.2905326638 L176.049635272374 177.28390718874 A9.51 9.51 0 0 1 171.255829401222 175.785022939545 L171.257143881756 175.787732695457 A47.59 47.59 0 0 1 155.266940186551 151.275218354933 L155.266120749213 151.274399676804 A100.84 100.84 0 0 1 151.428637102978 119.7600510922 L151.43 119.76 L146.28 119.76 L146.28 129.78 L143.42 129.78 L143.42 136.07 L140.27 136.07 L140.27 129.78 L75.88 129.78 L75.88 126.06 L79.55 126.06 L89.81 114 L89.8171936604803 114.003326551629 A46.63 46.63 0 0 1 74.7400095252034 79.6998047039107 L74.74 79.7 L78.74 79.7 L78.7406189306973 79.6904427710981 A42.9 42.9 0 0 0 92.4510262151391 110.899049117089 L92.45 110.9 L94.07 109 L94.0720671897051 109.003049011049 A40.07 40.07 0 0 1 111.480614291514 40.8395357958627 L111.48 40.84 L71.43 40.84 L71.43 35 L328.57 35 Z M309.14 117.79 L307.18 115.07 L307.178427389857 115.063052337787 A40.04 40.04 0 0 1 273.939866208126 119.319455349221 L273.94 119.32 L272.79 122.41 L272.793049486399 122.404180422804 A43.33 43.33 0 0 0 309.10675367353 117.743130113406 L309.102764788891 117.745445010731 A0.03 0.03 0 0 1 309.14002429096 117.792338929507 Z M277.76 109.06 L284.53 90.91 L284.522609227978 90.9065583540316 A9.9 9.9 0 0 0 289.429689808541 90.3783201733827 L289.43 90.38 L300.78 106.17 L300.786327865714 106.177090323121 A29.12 29.12 0 0 1 277.760411533434 109.064678218729 Z M279.925571150864 88.9584338753783 A9.88 9.88 0 0 1 276.09796556888 81.9853081859347 L276.09 81.99 L256.84 81.99 L256.833000310229 81.9900396885439 A29.12 29.12 0 0 0 273.107589952603 107.260077512805 L273.11 107.26 L279.92 88.97 Z M303.853441897865 104.075603050951 A29.11 29.11 0 1 0 256.970323737695 78.2751870013507 L256.97 78.27 L276.47 78.27 L276.47182035333 78.2624356213071 A9.89 9.89 0 1 1 292.606158821407 88.425780353102 L292.61 88.43 L303.86 104.07 Z M128.564500588569 86.0662008487896 A9.62 9.62 0 0 0 130.70948178501 81.9861829908877 L130.71 81.99 L150.35 81.99 L150.347391469125 81.9885520578767 A29.07 29.07 0 0 1 141.128576280406 100.992841353145 L141.13 100.99 L128.56 86.07 Z M150.043225172437 111.583997257562 A42.88 42.88 0 0 0 164.445208981139 81.991498386525 L164.45 81.99 L161.36 81.99 L161.372012059567 81.9932233468419 A40.07 40.07 0 0 1 148.209682291648 109.412921780615 L148.21 109.41 L150.05 111.59 Z M116.67 126.06 L84.44 126.06 L92.65 116.4 L92.6512198370129 116.411870923672 A46.62 46.62 0 0 0 116.669025931653 126.063393173528 Z M147.2 113.98 L145.34 111.77 L145.349513856788 111.780236770682 A40.07 40.07 0 0 1 96.9147548085155 111.404156325961 L96.91 111.4 L95.29 113.31 L95.2842700059438 113.304565458583 A42.89 42.89 0 0 0 147.154909097348 113.927827253427 L147.162175210337 113.935869586132 A0.03 0.03 0 0 1 147.200692972193 113.981720978381 Z M138.24 103.34 L125.59 88.32 L125.598703531695 88.3278798164061 A9.64 9.64 0 0 1 116.729314342977 88.1039755399672 L116.73 88.1 L104.04 103.02 L104.050992643397 103.017738309779 A29.07 29.07 0 0 0 138.244575757853 103.340944066354 Z M113.879971448359 85.7227987159334 A9.63 9.63 0 1 1 130.897311774284 78.2674201072367 L130.89 78.27 L150.41 78.27 L150.406409721251 78.2729278831663 A29.07 29.07 0 1 0 101.207148885357 100.610972635691 L101.2 100.61 L113.88 85.72 Z M242.618690644494 81.9877878338346 A43.33 43.33 0 0 0 268.128710741232 120.619960442265 L268.13 120.62 L269.28 117.53 L269.279835036759 117.529346374215 A40.04 40.04 0 0 1 245.909398219645 81.9874797419181 L245.91 81.99 L242.62 81.99 Z M249.886564213784 131.499317523668 A17.29 17.29 0 0 1 263.60775213662 132.756710302956 L263.61 132.75 L259.04 145 L218.72 136.72 L218.718306878737 136.71469628715 A13.79 13.79 0 0 0 204.339890918358 140.089121745678 L204.34 140.09 L196.37 145.8 L196.373818057227 145.80646039494 A40.92 40.92 0 0 0 193.049097173405 124.836758670114 L193.05112505191 124.836447777376 A30.99 30.99 0 0 1 221.552962529495 126.343019111485 L221.55 126.34 L230.63 131.55 L230.62321588029 131.550050103369 A18.37 18.37 0 0 0 249.889269465121 131.493092026296 Z M177.715764038078 58.8719027634833 A29.75 29.75 0 0 1 182.48466360816 52.3683683572149 L182.485369579113 52.3682940720458 A23.48 23.48 0 0 1 201.863906851667 46.5582273219371 L201.86 46.56 L208.09 46.99 L208.094380662594 46.984250718182 A10.9 10.9 0 0 1 218.557198287517 56.1836978343212 L218.55 56.18 L219.96 61.18 L219.95319924577 61.1838113521725 A7.81 7.81 0 0 0 228.024747372992 67.0436724391943 L228.02 67.04 L231.35 67.07 L231.352450151926 67.0677146910879 A10.09 10.09 0 0 1 242.698863355547 78.2660255276871 L242.7 78.27 L246.03 78.27 L246.023020414181 78.2706284263633 A40.41 40.41 0 0 1 277.838950415509 40.8429295770526 L277.84 40.84 L131.25 40.84 L131.263092788806 40.8404801076286 A40.07 40.07 0 0 1 161.415633449384 78.272809376806 L161.41 78.27 L164.28 78.27 L164.279393554186 78.2626324983741 A11.33 11.33 0 0 1 171.37026660411 67.0851176864595 L171.372315577892 67.0864161486244 A4.32 4.32 0 0 0 175.171084758799 64.0103727160685 L175.17 64.01 L177.71 58.87 Z" style="fill:rgb(255,255,255);" />
<path d=" M97.14 250 L152.14 250 L152.14 380 L222.85 380 L222.850121474916 380.000000000092 A80 80 0 0 1 302.849999999994 459.999967885942 L302.85 470 L302.849999999926 470.000108908545 A80 80 0 0 1 222.850044680429 549.999999999988 L97.14 550 L97.14 250 Z M152.14 430 L217.85 430 A30 30 0 0 1 247.849999999998 459.999987957228 L247.85 470 A30 30 0 0 1 217.850016755161 499.999999999995 L152.14 500 L152.14 430 Z" style="fill:rgb(255,255,255);" />
</g>
</svg>
