<?xml version="1.0" encoding="UTF-8"?>
<!DOCTYPE svg PUBLIC '-//W3C//DTD SVG 1.0//EN' 'http://www.w3.org/TR/2001/REC-SVG-20010904/DTD/svg10.dtd'>
<svg xmlns:xlink="http://www.w3.org/1999/xlink" xmlns="http://www.w3.org/2000/svg" width="700" height="700.000000000002">
<!--Gegenereerd door de SIMaD-toepassing (http://www.dlw.be).-->
<g style="stroke:none;fill-rule:evenodd;" transform="matrix(1,0,0,-1,0,700.000000000002)">
<path d=" M0 65 L1.56319401867222E-13 634.999995462144 A65 65 0 0 0 65.0000045378561 700 L634.999995462144 700 A65 65 0 0 0 700 634.999995462144 L699.999999999999 65.0000124791042 A65 65 0 0 0 635.000004537856 1.56319401867222E-13 L65.0000045378561 1.56319401867222E-13 A65 65 0 0 0 1.56319401867222E-13 65.0000045378561 Z" style="fill:rgb(0,0,255);" />
<path d=" M15 65 L15.0000000000001 634.999996509341 A50 50 0 0 0 65.0000034906585 685 L634.999996509341 685 A50 50 0 0 0 685 634.999996509341 L684.999999999999 65.0000095993109 A50 50 0 0 0 635.000003490659 15.0000000000001 L65.0000034906585 15.0000000000001 A50 50 0 0 0 15.0000000000001 65.0000034906585 Z" style="fill:rgb(255,255,255);" />
<path d=" M357.5 670 L634.999997556539 670 A35 35 0 0 0 670 634.999997556539 L669.999999999999 65.0000067195176 A35 35 0 0 0 635.000002443461 30.0000000000001 L357.5 30 Z" style="fill:rgb(0,0,255);" />
<path d=" M30 65 L30.0000000000001 634.999997556539 A35 35 0 0 0 65.000002443461 670 L342.5 670 L342.5 30 L65.000002443461 30.0000000000001 A35 35 0 0 0 30.0000000000001 65.000002443461 Z" style="fill:rgb(0,0,255);" />
<path d=" M535.2 343.68 L533.919278658016 346.257363772401 A14.36 14.36 0 0 0 533.115448563367 351.405541468185 L533.118977462548 351.401341133432 A31.03 31.03 0 0 1 531.933369715798 356.074381164777 L531.93 356.07 L497.47 414.78 L494.45 420.01 L491.17 425 L486.84 429.48 L481.97 432.41 L477.08 434.05 L472.17 434.91 L469.5 435.41 L467.64 435.96 L466.62 436.55 L466.11 437.23 L465.84 438.42 L465.838435548557 448.552026345039 A17.63 17.63 0 0 1 477.199999999997 465.030009538748 L477.21 465.03 L477.2 467.37 A17.63 17.63 0 0 1 441.94 467.37 L441.940000000003 465.030009538748 A17.63 17.63 0 0 1 453.301564451443 448.552026345039 L453.3 448.55 L453.303713427467 438.329937999948 A2.21 2.21 0 0 0 451.276361718552 435.674210916313 L451.278914391167 435.668856865779 A36.86 36.86 0 0 1 433.201330874526 429.928609268997 L433.196194169047 429.936210892319 A51.38 51.38 0 0 1 415.936045882257 393.654753925723 L415.94 393.65 L415.930000000003 341.570005849646 A5.88 5.88 0 1 1 427.689999999997 341.570005849646 L427.690516271968 394.051936133425 A13.5 13.5 0 0 0 429.407265788773 400.759171003062 L429.408058667943 400.759137650455 A5.87 5.87 0 0 0 434.917475302691 403.304181667758 L434.92065814323 403.308825674575 A3.5 3.5 0 0 0 438.272638931323 399.178939631619 L438.27 399.18 L438.27 242.04 A8.23 8.23 0 0 1 454.73 242.04 L454.730000000003 326.880005650678 A5.68 5.68 0 0 0 466.089999999997 326.880005650678 L466.1 326.88 L466.09 223.23 A8.23 8.23 0 0 1 482.55 223.23 L482.554916844492 397.137707292034 A8.42 8.42 0 0 0 484.407150635 402.124979451364 L484.399630285982 402.128728702932 A5.85 5.85 0 0 0 491.878923220228 399.911290212121 L491.88 399.91 L521.451317625106 349.927978682323 A16.14 16.14 0 0 1 525.558929352915 347.061397038173 L525.555468430359 347.059049830371 A12.48 12.48 0 0 0 531.984590758369 336.925970502944 L531.990217446908 336.928599365471 A9.07 9.07 0 0 1 541.794990938755 329.43134059365 L541.8 329.43 L565.63 329.43 L550.74 276.13 L563.28 276.13 L563.280000000002 237.340003511777 A3.53 3.53 0 1 1 570.339999999998 237.340003511777 L570.33 237.34 L570.333481346614 276.134282931994 A37.3 37.3 0 0 0 581.306518653386 276.134282931994 L581.31 276.13 L581.3 245.96 A3.53 3.53 0 0 1 588.36 245.96 L588.36 276.13 L602.47 276.13 L585.827423814396 323.038158027944 A1.08 1.08 0 0 0 587.815035891766 323.842787875982 L587.81 323.85 L606.203254054866 306.345059253783 A2.86 2.86 0 1 1 610.866232552296 309.607360846054 L610.87 309.61 L587.981727898616 332.101115749612 A14.8 14.8 0 0 1 580.489962845784 336.764869159123 L580.493759371121 336.768645439319 A8.45 8.45 0 0 0 578.599249470191 345.367800205685 L578.591523784399 345.364458278807 A12.93 12.93 0 1 1 570.31466760762 345.416421439621 L570.324988528727 345.41242267057 A130.79 130.79 0 0 0 571.173926007578 340.906020228454 L571.169355386012 340.913168389631 A5.15 5.15 0 0 0 569.096219845569 335.69707061315 L569.1 335.7 L544.365845094586 335.70400443619 A4.34 4.34 0 0 0 539.065274838156 337.895132925319 L539.065490174289 337.884868012247 A6.65 6.65 0 0 1 535.205957709647 343.678289463089 Z" style="fill:rgb(255,255,255);" />
<path d=" M144.195449659179 419.563703380007 A17.73 17.73 0 0 0 151.924550340821 419.563703380007 L151.917046139689 419.558818833139 A2.71 2.71 0 0 1 153.190484680174 424.315550951591 L153.191928132188 424.320531831935 A12.12 12.12 0 0 1 146.312842567138 425.000313765975 L146.320401878631 425.001208749611 A58.52 58.52 0 0 0 129.197919764618 424.160424127748 L129.19 424.16 L119.219265625882 385.875179681258 A57.32 57.32 0 0 1 86.4041758293726 386.617302550193 L86.41 386.62 L86.9227541363334 384.727150032656 A55.36 55.36 0 0 0 118.724116336037 383.975215328995 L118.73 383.98 L117.903885508451 380.823899242044 A52.11 52.11 0 1 1 93.3564751598369 279.881374778371 L93.36 279.89 L55.98 279.89 L55.98 275 L316.52 275 L316.52 279.89 L279.143522145796 279.881374348312 A52.11 52.11 0 0 1 316.725148457548 356.20476377831 L316.72 356.21 L319.513101143126 357.880758906195 A55.36 55.36 0 0 0 321.331729688064 354.239677824182 L321.33 354.24 L323.116182335303 355.050435956905 A57.32 57.32 0 0 1 246.786579824728 383.32728365899 L246.78 383.33 L234.57 407.1 L237.356066846769 412.956373085273 A2.1 2.1 0 0 0 239.083016028133 414.066157215213 L239.086305328194 414.065828564079 A5.15 5.15 0 0 1 241.642152493832 415.344848621281 L241.634727700388 415.343077737868 A2.83 2.83 0 0 1 239.863605725405 420.127696225915 L239.862871243916 420.134423650756 A78.01 78.01 0 0 1 215.66130206959 419.780177230974 L215.659579583937 419.788876534232 A2.57 2.57 0 0 1 216.054095746911 414.813876254545 L216.06 414.81 L229.339811154025 414.265185393582 A2.12 2.12 0 0 0 231.462813595101 411.166536745518 L231.46 411.17 L229.74 407.55 L129.58 407.55 L132.379815380813 418.30230469028 A35.05 35.05 0 0 1 144.192789796675 419.559745681496 Z M202.21 301.71 L202.21 297.15 L189.83 297.15 L189.83 301.71 L194.07 301.71 L194.06624939954 315.832590203674 A15.63 15.63 0 0 0 183.051575523236 340.064498070976 L183.05 340.07 L125.62 392.35 L123.518433872684 384.291380062624 A57.32 57.32 0 0 0 158.32888297106 323.339274790527 L158.33 323.34 L156.388069401372 323.612848706906 A55.36 55.36 0 0 1 156.928907805513 330.992255006221 L156.94 330.99 L153.677955887484 330.878444772508 A52.11 52.11 0 0 0 109.783529330775 279.881375495137 L109.79 279.89 L262.716469771102 279.88137563849 A52.11 52.11 0 0 0 218.869894956263 329.060183596192 L218.87 329.06 L215.616951311497 329.060472684242 A55.36 55.36 0 0 1 216.44376717934 321.543060017901 L216.43 321.54 L214.51470186986 321.196206977296 A57.32 57.32 0 0 0 213.65535442674 329.060224910771 L213.65 329.06 L211.482902313113 329.060624634876 A15.63 15.63 0 0 0 197.973750329805 315.832590169574 L197.97 315.83 L197.97 301.71 Z M189.83 365.54 L202.21 365.54 L202.21 360.98 L197.97 360.98 L197.973749247183 346.847409966823 A15.63 15.63 0 0 0 200.602504529352 346.283143987745 L200.6 346.29 L227.57 402.99 L128.39 402.99 L126.92 397.34 L186.120625123313 343.435423806168 A15.63 15.63 0 0 0 194.066250482161 346.847409932724 L194.07 346.85 L194.07 360.98 L189.83 360.98 Z M107.705104774842 335.031353329297 A7.16 7.16 0 0 0 108.274250433369 333.85368775441 L108.28 333.86 L148.306451738401 335.253320700393 A46.9 46.9 0 0 1 120.861755467423 374.088545834743 L120.87 374.09 L114.613664817041 350.087472740624 A32.09 32.09 0 0 0 107.711686300065 335.032217901318 Z M156.78 335.55 L153.518827418153 335.43529362549 A52.11 52.11 0 0 1 122.191656455733 379.196027676999 L122.2 379.2 L123.018777967572 382.376061012756 A55.36 55.36 0 0 0 156.769798970805 335.548538176454 Z M104.214749144864 337.993638249916 A7.16 7.16 0 1 1 108.4332651033 329.300099972592 L108.44 329.3 L148.465583498688 330.696378746805 A46.9 46.9 0 1 0 116.587971315925 375.770513586431 L116.59 375.77 L110.125665619112 350.930141079376 A27.73 27.73 0 0 0 104.221987746703 337.993898124153 Z M251.70339599948 373.755829575846 A46.57 46.57 0 0 0 309.622922957383 357.255682761873 L309.62 357.26 L278.75944706997 338.706292050858 A10.75 10.75 0 0 1 268.157963472864 341.726448550502 L268.15 341.73 Z M317.16 361.79 L314.376258470271 360.112812252791 A52.11 52.11 0 0 1 249.169362249267 378.688988845395 L249.17 378.69 L247.682699908066 381.582339101952 A55.36 55.36 0 0 0 317.164501090052 361.788325224123 Z M311.97164802477 353.347908292496 A46.57 46.57 0 1 0 224.415829149485 329.060348691327 L224.41 329.06 L260.42463381418 329.059697103052 A10.75 10.75 0 1 1 281.108845981796 334.797397066997 L281.1 334.8 Z M247.647920564151 371.67248910175 A46.57 46.57 0 0 1 224.415828990336 333.619648061371 L224.41 333.62 L260.424634052973 333.620303997067 A10.75 10.75 0 0 0 264.101321873753 339.642508961038 L264.1 339.64 Z M245.113598563056 376.605500293784 A52.11 52.11 0 0 1 218.869894717521 333.619810952086 L218.87 333.62 L215.616951271712 333.619526350363 A55.36 55.36 0 0 0 243.627439982103 379.499109382017 L243.62 379.51 Z M242.7308835395 381.243829821439 A57.32 57.32 0 0 1 213.655354267582 333.619771090705 L213.65 333.62 L211.482902591591 333.619373475974 A15.63 15.63 0 0 1 204.719409457988 344.325267616891 L204.72 344.33 L232.11 401.92 Z" style="fill:rgb(255,255,255);" />
<path d=" M670 609.9 L90.1 30 L65.000002443461 30.0000000000001 A35 35 0 0 0 30.0000000000001 65.000002443461 L30 90.1 L609.9 670 L634.999997556539 670 A35 35 0 0 0 670 634.999997556539 Z" style="fill:rgb(255,0,0);" />
</g>
</svg>
