<?xml version="1.0" encoding="UTF-8"?>
<!DOCTYPE svg PUBLIC '-//W3C//DTD SVG 1.0//EN' 'http://www.w3.org/TR/2001/REC-SVG-20010904/DTD/svg10.dtd'>
<svg xmlns:xlink="http://www.w3.org/1999/xlink" xmlns="http://www.w3.org/2000/svg" width="699.999999999994" height="700">
<!--Gegenereerd door de SIMaD-toepassing (http://www.dlw.be).-->
<g style="stroke:none;fill-rule:evenodd;" transform="matrix(1,0,0,-1,0,700)">
<path d=" M0 65 L1.56319401867222E-13 634.999995462144 A65 65 0 0 0 65.0000045378561 700 L634.999995462144 700 A65 65 0 0 0 700 634.999995462144 L699.999999999999 65.0000124791042 A65 65 0 0 0 635.000004537856 1.56319401867222E-13 L65.0000045378561 1.56319401867222E-13 A65 65 0 0 0 1.56319401867222E-13 65.0000045378561 Z" style="fill:rgb(0,0,255);" />
<path d=" M15 65 L15.0000000000001 634.999996509341 A50 50 0 0 0 65.0000034906585 685 L634.999996509341 685 A50 50 0 0 0 685 634.999996509341 L684.999999999999 65.0000095993109 A50 50 0 0 0 635.000003490659 15.0000000000001 L65.0000034906585 15.0000000000001 A50 50 0 0 0 15.0000000000001 65.0000034906585 Z" style="fill:rgb(255,255,255);" />
<path d=" M30 65 L30.0000000000001 634.999997556539 A35 35 0 0 0 65.000002443461 670 L634.999997556539 670 A35 35 0 0 0 670 634.999997556539 L669.999999999999 65.0000067195176 A35 35 0 0 0 635.000002443461 30.0000000000001 L65.000002443461 30.0000000000001 A35 35 0 0 0 30.0000000000001 65.000002443461 Z" style="fill:rgb(0,0,255);" />
<path d=" M490.69 350 L500.77 350 L500.77 373.83 L513.73 373.83 A14.67 14.67 0 0 1 528.399999999999 388.499994111085 L528.4 390.33 A14.67 14.67 0 0 1 513.730008193274 404.999999999998 L490.69 405 L490.69 350 Z M500.77 383 L512.82 383 A5.5 5.5 0 0 1 518.32 388.499997792159 L518.32 390.33 A5.5 5.5 0 0 1 512.82000307178 395.829999999999 L500.77 395.83 L500.77 383 Z" style="fill:rgb(255,255,255);" />
<path d=" M483.34 491.86 L475.077413133068 491.682973991152 A12.94 12.94 0 0 0 466.102011205125 495.039363751596 L466.100541159429 495.034670571842 A30.14 30.14 0 0 0 456.709719342006 511.938858077799 L456.71 511.94 L447.840232751705 495.484593217531 A45.51 45.51 0 0 0 466.33863771719 438.187376448664 L466.35 438.19 L463.682714115223 439.376991672952 A42.6 42.6 0 1 0 409.761677495143 496.278527631153 L409.77 496.28 L409.765448532462 499.37091807165 A45.51 45.51 0 0 0 443.08432373944 497.94157922429 L443.09 497.95 L461.148991157412 537.133647233651 A7.82 7.82 0 0 0 464.457584599782 540.499349711532 L464.46 540.5 L465.751272330078 541.344834938417 A9.56 9.56 0 0 1 467.726046119867 543.069252166133 L467.735114685361 543.072534416309 A2.1 2.1 0 0 1 466.029213607769 546.546523466945 L466.021626341033 546.538245971654 A7.1 7.1 0 0 1 462.974559679433 545.652413416647 L462.976394324807 545.651872804849 A47.95 47.95 0 0 0 458.277078731543 543.360120005207 L458.279142154979 543.364795563625 A14.56 14.56 0 0 0 455.203132657615 542.450972619429 L455.206279437822 542.446492015619 A1.67 1.67 0 0 0 453.305182250124 543.627982695472 L453.3 543.63 L449.985999892308 552.420403366395 A65.02 65.02 0 0 1 456.01556656775 554.965255131594 L456.010529881413 554.9678775051 A15.71 15.71 0 0 0 462.292678949693 556.52046303992 L462.299017046652 556.515975164099 A6.63 6.63 0 0 0 466.621004036241 555.107335141187 L466.613425586481 555.102967577509 A45.21 45.21 0 0 1 470.434878145816 552.413400886593 L470.436047475282 552.4161823792 A11.5 11.5 0 0 1 474.695050403514 550.802226517833 L474.7 550.8 L474.700172465877 566.356380898656 A3.79 3.79 0 0 0 474.867182294144 572.428290958416 L474.857182240069 572.438290920319 A3.79 3.79 0 0 0 479.42144309504 572.288360355365 L479.419195013389 572.283964054915 A11.33 11.33 0 0 0 481.894775669741 569.495709904015 L481.9 569.49 L488.67 569.49 L488.67 567.28 L477.95 567.28 L477.95 551.14 A17.78 17.78 0 0 0 477.13470558012 545.817673010812 L477.138746239124 545.818651591166 A160.48 160.48 0 0 1 475.631093826885 540.718697880885 L475.63 540.72 L476.81191932076 539.907576046049 A0.87 0.87 0 0 0 477.095849602006 538.796353718337 L477.1 538.79 L466.86 517.63 L469.569545232602 514.197779656037 A1.07 1.07 0 0 1 470.824229253633 513.873433162206 L470.83 513.87 L471.456099592392 514.27061761696 A1.67 1.67 0 0 0 473.507620923769 514.063666813056 L473.511838837932 514.061980396563 A4.72 4.72 0 0 0 474.594068709731 512.482219984233 L474.598202816343 512.486307798836 A1.7 1.7 0 0 0 474.584059321107 511.140870384847 L474.581138121815 511.145331429848 A2.11 2.11 0 0 1 474.652013318187 509.290007254924 L474.65 509.29 L503.95 479.59 L536.319999895978 479.6 A5.96 5.96 0 0 1 542.187863393616 484.516075101429 L542.19 484.51 L552.05 525.88 L525.72 533.99 L525.72 536.46 L562.77999992722 536.46 A4.17 4.17 0 0 0 566.190409956239 529.89041588387 L566.195505452809 529.88883030597 A10.62 10.62 0 0 0 564.412756473234 527.929290423313 L564.41 527.93 L560.215844880055 524.538703650021 A3.97 3.97 0 0 1 558.971675028207 522.7863481602 L558.97 522.79 L556.51 511.22 L619.059431122442 511.249070096639 A2.66 2.66 0 0 1 622.403452076037 509.004701737279 L622.4 509.01 L627.17 509.01 L627.22 497.23 L624.93 497.23 L637.07 464.58 L633.987209536647 464.581475851062 A42.62 42.62 0 0 0 553.844105286983 437.287789930485 L553.84 437.29 L525.29 437.29 L525.29 428.23 L527.75 428.23 L527.75 424.96 L519.69 424.96 L519.69 428.23 L522.82 428.23 L522.827975208466 436.377274300715 A38.5 38.5 0 0 1 514.498720776225 434.717828519329 L514.497305941113 434.712134337723 A759.29 759.29 0 0 0 505.58971885703 431.946568751009 L505.58397708543 431.951041560666 A17.63 17.63 0 0 0 492.09523539572 433.300734130927 L492.097422990826 433.296818093191 A10.08 10.08 0 0 0 487.827561244726 437.73606804495 L487.83514884685 437.742409740325 A38.21 38.21 0 0 0 484.774424679616 462.491691851885 L484.760007099391 462.483767140792 A231.25 231.25 0 0 0 490.501180086379 484.23741346035 L490.51 484.24 Z M587.99 463.36 L584.97286102098 491.342058871241 A36.46 36.46 0 0 1 555.942957581164 458.088126290119 L555.94 458.08 L583.797588962244 458.088741569082 A8.87 8.87 0 0 0 587.989772507218 463.371190467929 Z M547.88 477.52 L555.68 507.91 L560.614949908904 507.907268477376 A24.43 24.43 0 0 1 566.27487688363 498.402733900741 L566.267240692066 498.40395229196 A3.79 3.79 0 0 1 569.003264865378 497.240001406246 L569 497.24 L573.673174632181 497.244127662956 A45.61 45.61 0 0 1 546.776267920558 458.07775675689 L546.77 458.08 L544.97 458.07 L544.9694493761 472.590741334691 A1.05 1.05 0 0 1 545.783307472698 473.028145150352 L545.782336060601 473.028258496395 A13.44 13.44 0 0 1 547.878134801611 477.519077030656 Z M609.2 437.29 L560.80544136841 437.285219001688 A36.46 36.46 0 1 1 590.633935685573 492.040993769083 L590.63 492.04 L593.545946944142 464.404870749769 A8.87 8.87 0 0 0 595.993512284589 447.54645013052 L595.99 447.55 L609.064337029874 448.724061797349 A2.2 2.2 0 0 0 610.993812912244 446.704878458481 L610.99 446.7 L611.51637484165 439.787790376731 A2.26 2.26 0 0 0 609.20007742834 437.281081932878 Z M555.88 454.43 L583.529572131644 454.434555825343 A8.87 8.87 0 0 1 590.158385321983 447.017423526421 L590.16 447.02 L557.728127452168 444.098977752191 A36.46 36.46 0 0 0 555.879251657724 454.435322721203 Z M536.7 441.66 L525.3 440.43 L525.3 443.74 L536.49 447.65 Z M545.05 454.43 L546.725391474819 454.435190548879 A45.61 45.61 0 0 1 547.240434867444 448.684229858217 L547.24 448.68 L545.05 449.28 Z M522.796900453832 440.074687734685 A43.33 43.33 0 0 1 511.311957053738 437.336388148203 L511.32 437.33 L522.78 442.39 Z M488.18 452.1 L495.843001334504 449.86556979291 A19.09 19.09 0 0 1 498.90332434495 440.182786660469 L498.902454869514 440.175140465583 A13.37 13.37 0 0 1 503.506646840366 435.830169537125 L503.507886097621 435.831232281837 A6.89 6.89 0 0 0 497.12709609643 436.022037012657 L497.126064325724 436.018063521289 A22.56 22.56 0 0 0 489.761825945219 442.648039719088 L489.75622423288 442.655106209361 A11.01 11.01 0 0 0 488.171739626959 452.107389299654 Z M627.783309719743 484.301453305604 A45.61 45.61 0 0 1 610.965875856122 497.244553013313 L610.96 497.24 L622.85 497.24 Z M433.29 458.06 L460.769930919014 458.052761266931 A36.2 36.2 0 0 1 443.460747366162 487.25451947106 L443.46 487.25 L431.040227494423 462.416116910344 A8.84 8.84 0 0 0 433.28324059737 458.058946324532 Z M428.28 464.4 L439.160303560106 489.497076285983 A36.2 36.2 0 1 1 460.757962806641 454.409694629784 L460.76 454.41 L433.234250363727 454.40889061005 A8.84 8.84 0 1 0 428.277357440645 464.393387930627 Z" style="fill:rgb(255,255,255);" />
<path d=" M621.985987129737 68.9953273660828 A1.16 1.16 0 0 1 620.949783924339 68.053324402738 L620.956326777053 68.0565151848552 A19.72 19.72 0 0 1 620.658534519558 63.197800120851 L620.659222779389 63.2022661786238 A56.69 56.69 0 0 0 620.768953936481 60.0043858120172 L620.77 60 L610.727622378038 59.9990590679438 A10.98 10.98 0 0 0 611.276432352198 63.0410342640582 L611.287538880989 63.0361823400316 A24.32 24.32 0 0 1 612.071490555263 66.0308776451904 L612.059556180843 66.0382688579604 A4.98 4.98 0 0 1 611.511343855164 69.9070814011318 L611.520125316586 69.9074053862196 A46.35 46.35 0 0 1 614.059860625749 84.9263339380742 L614.063289793629 84.9251935329363 A103.7 103.7 0 0 1 614.031936535706 95.7734061917512 L614.024883850235 95.7697287883347 A18.05 18.05 0 0 1 609.149613689438 107.683572224885 L609.146269006091 107.686004404323 A492.68 492.68 0 0 1 596.589689641432 120.101498618382 L596.595946495195 120.105547320364 A72.91 72.91 0 0 0 587.158883106296 131.172934020191 L587.152524551097 131.175484016306 A23.59 23.59 0 0 1 585.992278829578 122.536357727447 L585.996308277232 122.531369172786 A11.5 11.5 0 0 0 583.362154175629 114.911137648489 L583.360624030344 114.915689028527 A96.65 96.65 0 0 0 573.2649149355 104.428065864265 L573.260431278067 104.423485525111 A167.18 167.18 0 0 1 555.891127402706 86.3957784762634 L555.9 86.4 L555.646308947778 82.7919356788316 A4.67 4.67 0 0 0 553.670232329612 81.2863535632248 L553.671658889713 81.2851188036878 A10.23 10.23 0 0 0 556.648771795549 76.9291326595791 L556.648845199351 76.9284849366673 A11.06 11.06 0 0 0 549.905302918374 72.6941677627407 L549.909138864619 72.6993480165078 A7.93 7.93 0 0 0 546.554059005299 76.2112074187458 L546.553192970929 76.2039921190435 A8.38 8.38 0 0 0 546.568875632727 82.3359003700201 L546.565645124446 82.3367113064689 A27.9 27.9 0 0 0 549.999028681087 90.0970990243344 L549.999219800327 90.0974639869864 A2441.54 2441.54 0 0 1 566.302345582234 115.931647945159 L566.302165554385 115.93669501279 A43.1 43.1 0 0 1 569.641194829168 122.489344047942 L569.643293096928 122.486732249213 A7.98 7.98 0 0 1 569.753008135248 128.207585126984 L569.753349778321 128.205649552397 A25.34 25.34 0 0 1 564.95711253429 137.249534856248 L564.951670146702 137.255104387067 A54.73 54.73 0 0 0 555.169406868667 158.450008223062 L555.172377447063 158.447459411626 A88.61 88.61 0 0 0 524.00773068456 149.167041508216 L524.012525936762 149.165745179907 A261.06 261.06 0 0 0 497.488415425827 147.410012168493 L497.49 147.41 L491.218880200256 142.673367970724 A66.31 66.31 0 0 0 492.002741948747 119.376996017709 L492.002727288433 119.381453290108 A61.95 61.95 0 0 1 491.391320661426 108.924830661113 L491.392073168409 108.929724098881 A35.08 35.08 0 0 1 493.696441222506 97.3138276880976 L493.696835336513 97.3128603565982 A99.28 99.28 0 0 1 502.977273074264 75.9615830464331 L502.970784663739 75.9549957534692 A23.47 23.47 0 0 1 506.670444998852 71.1579785708089 L506.674975415975 71.1668170456995 A3.93 3.93 0 0 0 505.359416607454 68.7862820750213 L505.36058282133 68.7767087331913 A1.94 1.94 0 0 1 506.959625916519 67.52255732554 L506.951625376956 67.5227411814079 A40.83 40.83 0 0 0 506.92027420673 59.9984592839669 L506.923817949942 59.9972736033019 A27.35 27.35 0 0 0 498.616182050058 59.9972736033019 L498.61791903049 59.994282132312 A5.93 5.93 0 0 0 498.36698753512 64.7306135068512 L498.371917323688 64.7324719537167 A7.52 7.52 0 0 0 499.218081268627 69.3707039678858 L499.213256384947 69.3743578700632 A140.07 140.07 0 0 1 485.041572610785 94.0180379663314 L485.038589276872 94.0197780038337 A26.7 26.7 0 0 0 480.226111489386 102.312288668792 L480.227923742839 102.304704575733 A108.05 108.05 0 0 1 472.609662997127 121.162251128218 L472.603201677761 121.16566243978 A79.37 79.37 0 0 0 466.598978783564 136.434887341739 L466.606018191941 136.434175551663 A16.11 16.11 0 0 1 462.044871514091 134.459246078289 L462.040219537782 134.463517807382 A350.39 350.39 0 0 0 441.20693116756 122.283333240481 L441.211898620768 122.287464837362 A17.46 17.46 0 0 1 432.416017171616 103.315956337741 L432.414150154795 103.308077037954 A121.85 121.85 0 0 1 437.979214039904 84.543622247125 L437.980101812879 84.5432400875475 A2.71 2.71 0 0 1 436.163148189573 83.4468024839359 L436.159769084479 83.4534820233047 A26.52 26.52 0 0 0 437.899807488274 80.4907139538074 L437.903004641117 80.492136404459 A3.72 3.72 0 0 0 438.169465603993 77.8432007996756 L438.168371334524 77.840568580959 A16.68 16.68 0 0 0 430.926759522723 72.6993378286912 L430.927738046329 72.6968102267544 A18.5 18.5 0 0 0 428.921626658038 77.7434342237471 L428.916974930725 77.7455341399803 A9.67 9.67 0 0 0 429.230505794631 83.2323241291859 L429.23 83.23 L429.89 86.05 L423.304331765069 108.661987661224 A20.46 20.46 0 0 0 424.182196277099 123.084049448339 L424.182585539246 123.077496195753 A70.9 70.9 0 0 0 443.590362280462 144.680013758853 L443.59621501332 144.685329864749 A110.15 110.15 0 0 1 453.660449847216 153.025163198046 L453.657814832846 153.028313615409 A43.82 43.82 0 0 0 445.067845521271 170.114201170741 L445.071284203633 170.11159042027 A471.98 471.98 0 0 1 439.130056341723 192.528360353492 L439.129007469934 192.524829478291 A54.08 54.08 0 0 1 428.264675969918 212.591704234384 L428.26 212.59 L397.415152463904 198.833325319943 A1.46 1.46 0 0 1 396.550677459309 197.544471589029 L396.548371309847 197.543085303909 A3.51 3.51 0 0 0 396.125417836613 195.976591271233 L396.122829419973 195.972890063595 A1.63 1.63 0 0 0 394.837912116563 195.126724913709 L394.842727510415 195.123333361705 A27.47 27.47 0 0 0 389.857272489585 195.123333361705 L389.86 195.13 L389.042481401182 196.102309042146 A14.92 14.92 0 0 0 384.934779333401 196.604013109566 L384.930152261841 196.604309978216 A5.16 5.16 0 0 0 383.37807882464 197.309797862366 L383.389465636926 197.311237090938 A2.06 2.06 0 0 0 382.513711447731 199.391153206834 L382.502725749387 199.392889122901 A44.8 44.8 0 0 0 384.650489177126 211.088009145218 L384.647846027548 211.086163083927 A5663.13 5663.13 0 0 1 390.150156454878 228.079053377371 L390.155832696397 228.084184570223 A31.58 31.58 0 0 1 391.786047638795 236.56443723516 L391.785226045394 236.556987036918 A10.94 10.94 0 0 0 392.569069125978 240.084280814992 L392.574112878414 240.088792583494 A345.64 345.64 0 0 1 397.95106758136 254.260124991838 L397.948000695342 254.26266799183 A20.91 20.91 0 0 1 398.355538831966 266.959045235385 L398.353172868319 266.95538049 A15.37 15.37 0 0 0 403.62163815251 260.150279402896 L403.616235716764 260.151332089634 A24.8 24.8 0 0 0 407.755288195601 267.049753032904 L407.755508766617 267.052380205783 A3.9 3.9 0 0 0 409.887674284304 268.337950549663 L409.890016860338 268.339905651668 A144.92 144.92 0 0 1 410.015424537606 262.241955817596 L410.017407961036 262.238242015645 A14.6 14.6 0 0 1 420.741876153579 252.329084337407 L420.740159106394 252.332948391736 A35.66 35.66 0 0 0 431.556426655889 247.92806260062 L431.557106844827 247.930111122774 A152.55 152.55 0 0 0 459.021719791343 228.178163573625 L459.02 228.17 L464.258134978046 230.774722521829 A5.71 5.71 0 0 0 464.634456527626 232.405449014794 L464.634438497995 232.402359292981 A16.07 16.07 0 0 0 469.85300149514 234.126208920623 L469.851343967351 234.128118047311 A2.6 2.6 0 0 1 471.812250918783 235.571345653683 L471.81 235.57 L471.78 237.3 L481.126177075553 241.723215863275 A14.98 14.98 0 0 1 489.496231109527 259.419453881761 L489.491890811016 259.414586660103 A16.07 16.07 0 0 0 489.053040738419 272.501722394824 L489.056251238789 272.509870025917 A3.96 3.96 0 0 1 488.241024668937 276.288131474271 L488.237730271216 276.288418460707 A0.89 0.89 0 0 1 487.277042361393 276.540402178711 L487.28606912352 276.536659876232 A877.45 877.45 0 0 1 483.617853160824 275.784205313796 L483.610851904876 275.779578601723 A0.94 0.94 0 0 0 482.579148975807 276.279798197156 L482.580348599489 276.282462784842 A20.09 20.09 0 0 0 481.153913267933 281.502275738293 L481.157023073516 281.504786117806 A6.17 6.17 0 0 0 479.026689873808 281.974712558183 L479.021524907072 281.967697955711 A0.36 0.36 0 0 0 478.800325163464 282.315297449552 L478.801793917557 282.315754305625 A35.2 35.2 0 0 0 479.475913608147 287.834128883288 L479.47711859204 287.841333128069 A23.58 23.58 0 0 1 479.915983887712 291.273886750879 L479.915804962689 291.271647054328 A9.84 9.84 0 0 1 479.853079601026 293.027956311935 L479.844840709259 293.022362889074 A0.66 0.66 0 0 1 479.392640541791 293.568121652885 L479.4 293.57 L473.969225353016 293.572846979342 A1.74 1.74 0 0 0 475.460701127173 296.037707026893 L475.462897928175 296.039846118054 A15.06 15.06 0 0 1 477.766547322625 296.337596648726 L477.77240827442 296.331263415578 A4.62 4.62 0 0 1 480.21672043225 297.240046209779 L480.216390373797 297.241492263836 A10.5 10.5 0 0 0 491.0505780038 299.311120027677 L491.049610132708 299.310485764999 A38.57 38.57 0 0 1 503.481249260437 296.802210549738 L503.48 296.8 L498.507615500218 282.946612747694 A4.73 4.73 0 0 1 498.241397508947 281.678162355291 L498.245662475756 281.67096216214 A6.5 6.5 0 0 1 498.308330092626 280.213940558057 L498.307471500832 280.21403731086 A0.62 0.62 0 0 1 499.356412403728 279.869609021582 L499.352115061517 279.87940458165 A2.86 2.86 0 0 0 501.690495382904 281.009360122238 L501.69 281 L501.69 277.36 L511.974031423972 266.015835347674 A41.55 41.55 0 0 0 522.320479513954 248.473902827001 L522.317962980037 248.476911090502 A18.11 18.11 0 0 0 523.02323983206 242.395857136284 L523.026154366681 242.391863051377 A17.7 17.7 0 0 1 526.505793235249 230.855762707433 L526.498071282753 230.849121150675 A13.49 13.49 0 0 0 529.146540471806 221.994771906167 L529.154208460001 221.992657755719 A2.42 2.42 0 0 1 529.687906639426 220.328775301909 L529.691508270241 220.334110287862 A1.71 1.71 0 0 1 530.756954896818 220.616140307688 L530.751147559229 220.624573041478 A3.14 3.14 0 0 0 531.441653721139 220.969826021846 L531.436416064544 220.968254552386 A9.7 9.7 0 0 1 534.539252915006 224.509876510878 L534.542583590658 224.502525977621 A4.1 4.1 0 0 0 538.150150271635 226.729806336786 L538.151446872212 226.729958433112 A0.88 0.88 0 0 0 538.969526749712 226.195060054919 L538.966401285365 226.198224617114 A4.79 4.79 0 0 0 538.872411856318 222.235005040418 L538.875876942947 222.231535849015 A149.7 149.7 0 0 1 537.057486846154 218.328267607862 L537.0504152996 218.332352802399 A0.69 0.69 0 0 1 537.792492229893 217.369231685363 L537.788246715019 217.372204694541 A27.49 27.49 0 0 0 540.813694432189 217.701398399593 L540.818436396334 217.700124601419 A1.48 1.48 0 0 1 541.477385523088 215.817412998363 L541.48 215.82 L559.37863024115 218.046864350209 A87.92 87.92 0 0 0 580.039647405286 218.705257999825 L580.041897846673 218.70679114977 A30.65 30.65 0 0 0 596.610780099828 212.060427864692 L596.606525407042 212.058245229759 A373.42 373.42 0 0 1 606.686179490173 210.396591450817 L606.691768321904 210.393655308788 A31.86 31.86 0 0 0 613.58954778134 208.543796325096 L613.579821478991 208.546084181264 A13.92 13.92 0 0 0 621.117920170358 201.446793676668 L621.11871199701 201.440213309857 A863.31 863.31 0 0 1 632.38987248015 172.157142469261 L632.40103665997 172.157359457223 A34.13 34.13 0 0 0 636.617824514329 156.105349087396 L636.608974024308 156.110571916835 A4.73 4.73 0 0 0 631.625920210577 155.280062921781 L631.631015603765 155.273669214613 A11.84 11.84 0 0 1 628.872561268807 156.05732102646 L628.86899427913 156.060294889813 A9.37 9.37 0 0 1 625.797937398669 154.133050047053 L625.797963173024 154.132866230898 A1.85 1.85 0 0 0 622.807064463563 154.806209871486 L622.797117367823 154.811521606159 A32.04 32.04 0 0 0 619.128547143518 164.657086356203 L619.139602965133 164.654774393068 A172.28 172.28 0 0 0 615.628213143865 183.0895707229 L615.622813406367 183.08450379902 A707.67 707.67 0 0 0 614.525482310338 194.120518861986 L614.524981974013 194.120908645308 A15.39 15.39 0 0 1 605.481478742845 204.888476704657 L605.479781751233 204.889073849349 A38.31 38.31 0 0 1 599.601897085632 206.81702002344 L599.600096325508 206.822986310618 A39.34 39.34 0 0 0 606.309243903742 188.764719882392 L606.316895883561 188.766778712877 A43.15 43.15 0 0 0 605.329267442314 173.82693801982 L605.325777669895 173.827017999091 A89.58 89.58 0 0 1 602.755028278146 153.449126455753 L602.755916345357 153.444064804045 A37.19 37.19 0 0 1 611.078985480046 128.31811412955 L611.079241739839 128.322952482479 A154.87 154.87 0 0 1 624.340989776163 113.995248360986 L624.340071273916 113.986122577957 A5.38 5.38 0 0 0 625.686987747614 108.253896811047 L625.69 108.25 L623.525182207422 96.3089234366338 A76.48 76.48 0 0 1 622.114398864636 77.9373874898426 L622.115202410436 77.9306899952388 A76.89 76.89 0 0 0 621.989787071009 68.9948526617119 Z M398.004835525825 201.050383404547 A27.27 27.27 0 0 0 405.074365335744 209.138803342388 L405.081512372088 209.14065201633 A54.4 54.4 0 0 1 416.196415061239 223.657436099476 L416.192893647171 223.658965733925 A57.79 57.79 0 0 0 427.072309863024 214.159071964416 L427.07 214.16 Z M464.259932794436 228.483293365525 A9.25 9.25 0 0 1 468.17854050688 223.749615173563 L468.168203288498 223.749245268991 A3.85 3.85 0 0 1 472.372268474985 223.906113420448 L472.38 223.91 L470.24 219.77 L460.77 226.79 Z M477.673256685804 215.822507014806 A19.1 19.1 0 0 1 476.858298692222 221.872002969856 L476.862992802849 221.874425374706 A12.25 12.25 0 0 1 474.80868785084 225.841899709715 L474.797980334422 225.833516608583 A3.17 3.17 0 0 0 475.660913403107 230.49335495796 L475.67 230.49 L478.11 227.64 L495.289424050853 237.078238178821 A38.93 38.93 0 0 0 490.27328892698 218.173678854049 L490.271256964528 218.170890281402 A19.08 19.08 0 0 0 485.506458599471 212.591060590161 L485.51 212.59 Z M474.658246480613 223.007070116 A9.31 9.31 0 0 1 473.136923658402 219.588014676088 L473.146870451933 219.587496660666 A1.6 1.6 0 0 1 474.104035569682 217.422106724683 L474.1 217.42 L475.976475626761 216.791872263637 A25 25 0 0 1 474.659718326448 222.999442097033 Z" style="fill:rgb(255,255,255);" />
<path d=" M151.809189417351 194.722796381146 A16.52 16.52 0 0 0 159.010810582649 194.722796381146 L159.006688831518 194.726240460458 A2.53 2.53 0 0 1 160.195544704336 199.167027300346 L160.18814940787 199.162128999974 A11.29 11.29 0 0 1 153.780156153712 199.795358285302 L153.785049871164 199.794954292614 A54.54 54.54 0 0 0 137.827083799765 199.011352220221 L137.82 199.01 L128.53842585022 163.334656290523 A53.42 53.42 0 0 1 97.9560445360273 164.026285803059 L97.95 164.02 L98.4375815288079 162.271144177837 A51.6 51.6 0 0 0 128.079024619572 161.570280183818 L128.07 161.57 L127.311137599125 158.622802671151 A48.56 48.56 0 1 1 104.436022524692 64.5569997934699 L104.43 64.55 L69.59 64.55 L69.59 60 L312.41 60 L312.41 64.55 L277.563974964495 64.5569993927087 A48.56 48.56 0 0 1 312.585348476272 135.680848763668 L312.59 135.68 L315.193381845833 137.248135107653 A51.6 51.6 0 0 0 316.888490821967 133.854352885256 L316.89 133.85 L318.545482560222 134.607199735134 A53.42 53.42 0 0 1 247.409275893876 160.96011676663 L247.41 160.96 L236.03 183.11 L238.638490643429 188.565917864897 A1.95 1.95 0 0 0 240.242086277866 189.596431697783 L240.242672927248 189.59999555487 A4.8 4.8 0 0 1 242.624821741824 190.792091918863 L242.618120540292 190.795132589389 A2.64 2.64 0 0 1 240.965907814512 195.258522274351 L240.967374287208 195.267116313889 A72.71 72.71 0 0 1 218.410059908728 194.936937398591 L218.416340546929 194.928060278916 A2.39 2.39 0 0 1 218.783225227672 190.301503598584 L218.78 190.3 L231.156333058948 189.796163716647 A1.98 1.98 0 0 0 233.139137225613 186.902142809493 L233.13 186.91 L231.53 183.53 L138.18 183.53 L140.79260965738 193.557394985206 A32.67 32.67 0 0 1 151.803447722037 194.729451966176 Z M205.87 84.89 L205.87 80.64 L194.34 80.64 L194.34 84.89 L198.28 84.89 L198.288749440262 98.0542763446912 A14.57 14.57 0 0 0 188.021072000867 120.642817459636 L188.02 120.64 L134.5 169.37 L132.545082649664 161.858616939033 A53.42 53.42 0 0 0 164.987060856839 105.053636763956 L164.98 105.05 L163.184876826423 105.307669676235 A51.6 51.6 0 0 1 163.688981986353 112.185873524584 L163.68 112.18 L160.648095142894 112.079888277739 A48.56 48.56 0 0 0 119.743981659997 64.5570004614057 L119.74 64.55 L262.256017503065 64.5570005949929 A48.56 48.56 0 0 0 221.396495856383 110.38549636214 L221.4 110.38 L218.353762421843 110.385296071295 A51.6 51.6 0 0 1 219.124421720628 103.378459120731 L219.13 103.38 L217.333146622999 103.056382228302 A53.42 53.42 0 0 0 216.53226851624 110.385339639457 L216.54 110.38 L214.524234593861 110.385207992972 A14.57 14.57 0 0 0 201.931250307438 98.0542763129044 L201.93 98.05 L201.93 84.89 Z M194.34 144.38 L205.87 144.38 L205.87 140.13 L201.93 140.13 L201.931249298238 126.965723814243 A14.57 14.57 0 0 0 204.381726627812 126.439725468122 L204.38 126.44 L229.51 179.28 L137.08 179.28 L135.71 174.01 L190.881983880145 123.785132748296 A14.57 14.57 0 0 0 198.288750449462 126.965723782456 L198.28 126.96 L198.28 140.13 L194.34 140.13 Z M117.813813075058 115.953887902037 A6.68 6.68 0 0 0 118.344803681597 114.855171828391 L118.34 114.85 L155.647575809925 116.157148141027 A43.71 43.71 0 0 1 130.069587025182 152.350915531698 L130.06 152.35 L124.244665462066 129.983808341292 A29.91 29.91 0 0 0 117.811565510593 115.951316217776 Z M163.53 116.43 L160.499807319622 116.32630125607 A48.56 48.56 0 0 1 131.306803636354 157.105830051719 L131.3 157.11 L132.081996805035 160.079738949751 A51.6 51.6 0 0 0 163.540679676546 116.432698155799 Z M114.557447417871 118.717584332092 A6.68 6.68 0 1 1 118.493157978753 110.606853158811 L118.49 110.61 L155.795883896112 111.910155970636 A43.71 43.71 0 1 0 126.086493096356 153.91848078599 L126.08 153.91 L120.052542358379 130.76774415763 A25.84 25.84 0 0 0 114.551242819142 118.713199694487 Z M308.157960581383 133.019839379307 A43.4 43.4 0 1 0 226.562028883136 110.385523581782 L226.56 110.38 L260.11802147145 110.384545578845 A10.02 10.02 0 1 1 279.397631324427 115.732615684773 L279.4 115.73 Z M251.992142718004 152.038602181484 A43.4 43.4 0 0 0 305.969112225691 136.661613310399 L305.98 136.66 L277.207772870034 119.37606955524 A10.02 10.02 0 0 1 267.326204092846 122.191136230328 L267.33 122.19 Z M313.01 140.89 L310.396476901101 139.3226609671 A48.56 48.56 0 0 1 249.631808305976 156.633333301332 L249.64 156.63 L248.241634212581 159.339925518867 A51.6 51.6 0 0 0 313.004296536248 140.890303135202 Z M243.629525448012 159.018419209024 A53.42 53.42 0 0 1 216.532268404994 114.634657565692 L216.54 114.63 L214.524234853454 114.634790245997 A14.57 14.57 0 0 1 208.219430313684 124.614628866161 L208.21 124.61 L233.74 178.28 Z M248.212721762597 150.09707380322 A43.4 43.4 0 0 1 226.56202873482 114.634473391959 L226.56 114.63 L260.118021694027 114.635455446569 A10.02 10.02 0 0 0 263.545036760466 120.248710678102 L263.55 120.24 Z M245.852344007331 154.69178265719 A48.56 48.56 0 0 1 221.396495633906 114.634498557538 L221.4 114.63 L218.35376238476 114.634703028879 A51.6 51.6 0 0 0 244.461804607596 157.398187213008 L244.47 157.4 Z" style="fill:rgb(255,255,255);" />
<path d=" M214.04 488.21 L212.669016497674 490.976542435266 A15.42 15.42 0 0 0 211.80585075537 496.5047388189 L211.805546852295 496.50206251941 A33.33 33.33 0 0 1 210.532059704401 501.521476771577 L210.53 501.52 L173.51 564.58 L170.27 570.2 L166.75 575.55 L162.1 580.36 L156.87 583.51 L151.61 585.27 L146.34 586.2 L143.47 586.73 L141.47 587.32 L140.38 587.96 L139.83 588.69 L139.55 589.97 L139.544212665324 600.847627848839 A18.94 18.94 0 0 1 151.749999999997 618.550010247526 L151.75 621.06 A18.94 18.94 0 0 1 113.87 621.06 L113.870000000003 618.550010247526 A18.94 18.94 0 0 1 126.075787334676 600.847627848839 L126.08 600.85 L126.080152930345 589.87454857466 A2.38 2.38 0 0 0 123.896851081517 587.014534832952 L123.899962581289 587.015809639614 A39.59 39.59 0 0 1 104.483480448249 580.850416195322 L104.47950673783 580.857868414696 A55.19 55.19 0 0 1 85.9394603394659 541.886019251862 L85.94 541.89 L85.9400000000031 485.950006277426 A6.31 6.31 0 1 1 98.5599999999969 485.950006277426 L98.57 485.95 L98.5705545143357 542.313190661827 A14.5 14.5 0 0 0 100.414470662016 549.517257744029 L100.413620135387 549.525682891715 A6.31 6.31 0 0 0 106.336008374783 552.261496818323 L106.337392682554 552.258738440672 A3.76 3.76 0 0 0 109.938377835196 547.822060925945 L109.93 547.82 L109.93 379.04 A8.84 8.84 0 0 1 127.61 379.04 L127.610000000003 470.17000606851 A6.1 6.1 0 0 0 139.809999999997 470.17000606851 L139.82 470.17 L139.81 358.84 A8.84 8.84 0 0 1 157.49 358.84 L157.495278887033 545.628892231862 A9.04 9.04 0 0 0 159.483900345383 550.983398242857 L159.485842525752 550.98747291085 A6.28 6.28 0 0 0 167.514895354365 548.607043167884 L167.51 548.6 L199.277114897341 494.919614037464 A17.33 17.33 0 0 1 203.687580277944 491.841679719426 L203.684481497852 491.84347432977 A13.41 13.41 0 0 0 210.592697281228 480.955285612538 L210.58983659679 480.955474952556 A9.74 9.74 0 0 1 221.11888773357 472.904394419201 L221.12 472.9 L246.72 472.9 L230.73 415.66 L244.2 415.66 L244.200000000002 373.990003770435 A3.79 3.79 0 1 1 251.779999999998 373.990003770435 L251.77 373.99 L251.777508384594 415.664262044389 A40.06 40.06 0 0 0 263.562491615406 415.664262044389 L263.56 415.66 L263.56 383.25 A3.79 3.79 0 0 1 271.14 383.25 L271.14 415.66 L286.29 415.66 L268.410195948796 466.047280844829 A1.16 1.16 0 0 0 270.545038550415 466.911512903833 L270.55 466.91 L290.309926581532 448.112633487879 A3.07 3.07 0 1 1 295.315291550871 451.614474794915 L295.31 451.61 L270.735031999189 475.769171649921 A15.9 15.9 0 0 1 262.686446570809 480.779555380409 L262.679246756186 480.782390602251 A9.08 9.08 0 0 0 260.643489319986 490.022665633288 L260.653075434285 490.023049148695 A13.89 13.89 0 1 1 251.761696522287 490.078870284179 L251.764578512378 490.072979209461 A140.48 140.48 0 0 0 252.676412353483 485.232705388932 L252.671929181485 485.237926445565 A5.53 5.53 0 0 0 250.445824416698 479.636951551596 L250.45 479.64 L223.879501798806 479.641258193158 A4.66 4.66 0 0 0 218.188106162628 481.993944569582 L218.185157871342 481.992910918413 A7.14 7.14 0 0 1 214.041238690889 488.213216107313 Z" style="fill:rgb(255,255,255);" />
<path d=" M670 609.9 L90.1 30 L65.000002443461 30.0000000000001 A35 35 0 0 0 30.0000000000001 65.000002443461 L30 90.1 L609.9 670 L634.999997556539 670 A35 35 0 0 0 670 634.999997556539 Z" style="fill:rgb(255,0,0);" />
</g>
</svg>
