<?xml version="1.0" encoding="UTF-8"?>
<!DOCTYPE svg PUBLIC '-//W3C//DTD SVG 1.0//EN' 'http://www.w3.org/TR/2001/REC-SVG-20010904/DTD/svg10.dtd'>
<svg xmlns:xlink="http://www.w3.org/1999/xlink" xmlns="http://www.w3.org/2000/svg" width="700" height="700">
<!--Gegenereerd door de SIMaD-toepassing (http://www.dlw.be).-->
<g style="stroke:none;fill-rule:evenodd;" transform="matrix(1,0,0,-1,0,700)">
<path d=" M0 65 L1.56319401867222E-13 634.999995462144 A65 65 0 0 0 65.0000045378561 700 L634.999995462144 700 A65 65 0 0 0 700 634.999995462144 L699.999999999999 65.0000124791042 A65 65 0 0 0 635.000004537856 1.56319401867222E-13 L65.0000045378561 1.56319401867222E-13 A65 65 0 0 0 1.56319401867222E-13 65.0000045378561 Z" style="fill:rgb(0,0,255);" />
<path d=" M15 65 L15.0000000000001 634.999996509341 A50 50 0 0 0 65.0000034906585 685 L634.999996509341 685 A50 50 0 0 0 685 634.999996509341 L684.999999999999 65.0000095993109 A50 50 0 0 0 635.000003490659 15.0000000000001 L65.0000034906585 15.0000000000001 A50 50 0 0 0 15.0000000000001 65.0000034906585 Z" style="fill:rgb(255,255,255);" />
<path d=" M30 65 L30.0000000000001 634.999997556539 A35 35 0 0 0 65.000002443461 670 L634.999997556539 670 A35 35 0 0 0 670 634.999997556539 L669.999999999999 65.0000067195176 A35 35 0 0 0 635.000002443461 30.0000000000001 L65.000002443461 30.0000000000001 A35 35 0 0 0 30.0000000000001 65.000002443461 Z" style="fill:rgb(0,0,255);" />
<path d=" M485.71 399.52 L495.8 399.52 L495.8 423.35 L508.76 423.35 A14.67 14.67 0 0 1 523.429999999999 438.019994111085 L523.43 439.85 A14.67 14.67 0 0 1 508.760008193274 454.519999999998 L485.71 454.52 L485.71 399.52 Z M495.8 432.52 L507.84 432.52 A5.5 5.5 0 0 1 513.34 438.019997792159 L513.34 439.85 A5.5 5.5 0 0 1 507.840003071779 445.349999999999 L495.8 445.35 L495.8 432.52 Z" style="fill:rgb(255,255,255);" />
<path d=" M475.95 554.45 L466.92292485087 554.26324748802 A14.13 14.13 0 0 0 457.12211888164 557.928300603559 L457.128606820067 557.923792585246 A32.91 32.91 0 0 0 446.874726726789 576.38155007765 L446.87 576.38 L437.194090751204 558.416223441957 A49.71 49.71 0 0 0 457.399665588255 495.83119497392 L457.39 495.83 L454.497309572332 497.131171890668 A46.53 46.53 0 1 0 395.601867461245 559.282074898534 L395.6 559.28 L395.605482514252 562.6612068658 A49.71 49.71 0 0 0 431.999271217041 561.099958322115 L431.99 561.1 L451.717159141215 603.889916544166 A8.54 8.54 0 0 0 455.330380112805 607.565504672184 L455.33 607.57 L456.743732544562 608.498878321869 A10.44 10.44 0 0 1 458.900284794354 610.382028653691 L458.898529875993 610.377906638122 A2.29 2.29 0 0 1 457.038285235335 614.166208918881 L457.043664710761 614.177153335876 A7.76 7.76 0 0 1 453.713349734141 613.208975790589 L453.71266124811 613.209388113908 A52.36 52.36 0 0 0 448.581145826561 610.70686096919 L448.579969542676 610.700154388131 A15.9 15.9 0 0 0 445.220866020335 609.702229714898 L445.222891394635 609.698871543615 A1.82 1.82 0 0 0 443.151036943249 610.986484135185 L443.15 610.99 L439.524502496967 620.591572486123 A71.01 71.01 0 0 1 446.109547132363 623.370870531001 L446.114531347309 623.364691229311 A17.15 17.15 0 0 0 452.972510756667 625.059588869168 L452.967765221381 625.065604854914 A7.24 7.24 0 0 0 457.687401089349 623.527361451311 L457.686521150288 623.519345483336 A49.37 49.37 0 0 1 461.859604823246 620.582298203298 L461.861579178879 620.578978086769 A12.56 12.56 0 0 1 466.5131511342 618.816257760551 L466.51 618.82 L466.513169923148 635.811772274521 A4.14 4.14 0 0 0 466.695602822627 642.444412814734 A4.14 4.14 0 0 0 471.681365336808 642.280636332226 L471.678961709639 642.280792008966 A12.38 12.38 0 0 0 474.383965056786 639.234138264655 L474.38 639.24 L481.77 639.24 L481.77 636.81 L470.06 636.81 L470.06 619.19 A19.42 19.42 0 0 0 469.169503968615 613.376749388071 L469.166934860289 613.375939655906 A175.27 175.27 0 0 1 467.520335765746 607.805968996554 L467.53 607.81 L468.817153294965 606.923560040908 A0.95 0.95 0 0 0 469.127192094145 605.710156359104 L469.13 605.7 L457.96 582.6 L460.910998070717 578.845889888225 A1.17 1.17 0 0 1 462.282942286819 578.491230661906 L462.28 578.49 L462.970456493525 578.925766644394 A1.83 1.83 0 0 0 465.218530758914 578.698988140087 L465.219908966342 578.701906514452 A5.15 5.15 0 0 0 466.400731783666 576.978227230389 L466.396573578287 576.97421748921 A1.85 1.85 0 0 0 466.381182294003 575.510065037186 L466.378307661065 575.506405609596 A2.31 2.31 0 0 1 466.455900760068 573.475221354744 L466.46 573.48 L498.47 541.05 L533.809999886379 541.05 A6.51 6.51 0 0 1 540.219360874338 546.419739861915 L540.22 546.42 L550.99 591.61 L522.23 600.47 L522.23 603.16 L562.709999840826 603.16 A4.56 4.56 0 0 0 566.43936916078 595.975994347829 L566.436992540308 595.984899061427 A11.6 11.6 0 0 0 564.489733693178 593.844535415762 L564.49 593.84 L559.909674642479 590.138787608209 A4.33 4.33 0 0 1 558.552683368546 588.227528417174 L558.55 588.23 L555.86 575.6 L624.171184306422 575.620114015133 A2.9 2.9 0 0 1 627.816921436281 573.173246254928 L627.82 573.18 L633.03 573.18 L633.08 560.31 L630.59 560.31 L643.85 524.66 L640.479352508937 524.657815599881 A46.55 46.55 0 0 0 552.946234188387 494.847372624685 L552.95 494.85 L521.77 494.85 L521.77 484.96 L524.46 484.96 L524.46 481.39 L515.65 481.39 L515.65 484.96 L519.07 484.96 L519.073440980881 493.844150950702 A42.04 42.04 0 0 1 509.978327829416 492.032122362405 L509.9781600951 492.036472597049 A829.24 829.24 0 0 0 500.249956755658 489.016127791867 L500.247719720101 489.011404450279 A19.26 19.26 0 0 0 485.511862673759 490.485884092447 L485.516173157135 490.488161520343 A11.01 11.01 0 0 0 480.852366002424 495.336985037193 L480.853979622587 495.344052825537 A41.73 41.73 0 0 0 477.511293951331 522.373300208824 L477.515153699248 522.370829800679 A252.55 252.55 0 0 0 483.785135268389 546.128163327184 L483.78 546.13 Z M590.24 523.33 L586.947794768108 553.873336907956 A39.81 39.81 0 0 1 555.250579849318 517.563982655228 L555.25 517.56 L585.669330503937 517.563271683039 A9.68 9.68 0 0 0 590.244340380803 523.328108732935 Z M546.44 538.79 L554.96 571.98 L560.341320653686 571.973635815653 A26.68 26.68 0 0 1 566.522526207746 561.593734771665 L566.522085503492 561.598370175671 A4.13 4.13 0 0 1 569.503557827758 560.330001532463 L569.51 560.33 L574.606079636989 560.327087978102 A49.81 49.81 0 0 1 545.2323702066 517.55407945759 L545.23 517.55 L543.26 517.54 L543.253206459538 533.400811937995 A1.15 1.15 0 0 1 544.144574839354 533.879873243598 L544.150051440701 533.885686899451 A14.68 14.68 0 0 1 546.439212714855 538.790837113841 Z M613.4 494.85 L560.559836008678 494.850591564926 A39.81 39.81 0 1 1 593.129017543682 554.637409817532 L593.13 554.64 L596.307899258094 524.457096827256 A9.68 9.68 0 0 0 598.978974101333 506.059181272161 L598.98 506.06 L613.258367627369 507.332612874868 A2.4 2.4 0 0 0 615.363250446582 505.129867451022 L615.36 505.13 L615.925169070717 497.57971877133 A2.46 2.46 0 0 0 613.40388959014 494.85117767915 Z M555.18 513.58 L585.37683858335 513.576302185943 A9.68 9.68 0 0 1 592.610988716662 505.4818443896 L592.61 505.48 L557.19977405035 502.290408126159 A39.81 39.81 0 0 0 555.181020551759 513.576472084792 Z M534.22 499.62 L521.78 498.28 L521.78 501.9 L534 506.17 Z M543.35 513.58 L545.17680879984 513.576087288745 A49.81 49.81 0 0 1 545.739279866647 507.295549844938 L545.73 507.29 L543.35 507.95 Z M519.048941367997 497.885781758719 A47.32 47.32 0 0 1 506.506418365634 494.895328575421 L506.51 494.9 L519.03 500.42 Z M481.23 511.03 L489.604199990802 508.580624944064 A20.85 20.85 0 0 1 492.94666927041 498.005138608816 L492.950474139202 498.005875366937 A14.6 14.6 0 0 1 497.978237913866 493.261180024475 L497.977283473113 493.255439691951 A7.53 7.53 0 0 0 491.003793090814 493.463967817421 L491.007829121713 493.464338881407 A24.64 24.64 0 0 0 482.964618408254 500.705589480422 L482.962099480402 500.711224036014 A12.02 12.02 0 0 0 481.232262517352 511.030610298078 Z M633.698951044517 546.192586914101 A49.81 49.81 0 0 1 615.332882622088 560.327552852293 L615.33 560.33 L628.31 560.33 Z M421.29 517.54 L451.306245006315 517.529396488447 A39.53 39.53 0 0 1 432.404807828298 549.417393775994 L432.4 549.42 L418.83942243207 522.291949012198 A9.65 9.65 0 0 0 421.287960574298 517.535535462954 Z M415.82 524.45 L427.708770710801 551.866241038257 A39.53 39.53 0 1 1 451.293175959849 513.551207975562 L451.29 513.55 L421.234481449091 513.551028776807 A9.65 9.65 0 1 0 415.823393586224 524.450395195763 Z" style="fill:rgb(255,255,255);" />
<path d=" M288.145987109573 86.7653273642674 A1.16 1.16 0 0 1 287.109783920615 85.8233243828375 L287.125474021533 85.827320166638 A19.67 19.67 0 0 1 286.828436836852 80.9809240172601 L286.81949635164 80.9735182995444 A56.55 56.55 0 0 0 286.92895651981 77.7835353266815 L286.93 77.79 L276.927601551868 77.7879414202172 A10.95 10.95 0 0 0 277.474911985158 80.8216050272633 L277.471086260854 80.818183459941 A24.25 24.25 0 0 1 278.252781495277 83.8042591651261 L278.249898437508 83.810862695595 A4.97 4.97 0 0 1 277.702786939792 87.6719065388805 L277.706701043922 87.6665836247019 A46.23 46.23 0 0 1 280.239860986589 102.646628219141 L280.243607485564 102.64804261376 A103.44 103.44 0 0 1 280.212332837545 113.469056282302 L280.204898022395 113.46853840388 A18 18 0 0 1 275.343132765091 125.349379504041 L275.338762767625 125.350017870546 A491.44 491.44 0 0 1 262.813786387484 137.734264189774 L262.820581382466 137.735417043068 A72.73 72.73 0 0 0 253.406816188738 148.775480610183 L253.399491294873 148.776648143518 A23.53 23.53 0 0 1 252.242196751445 140.159495025529 L252.246317907813 140.160609079291 A11.47 11.47 0 0 0 249.619035512562 132.560256419841 L249.617969582591 132.56501342642 A96.4 96.4 0 0 0 239.548373510421 122.104516806157 L239.550220839397 122.100247913432 A166.76 166.76 0 0 1 222.224553210164 104.117831192138 L222.23 104.12 L221.978351211279 100.517991620528 A4.66 4.66 0 0 0 220.006506073002 99.0156333806642 L220.008615703413 99.0199571648851 A10.21 10.21 0 0 0 222.979908175784 94.6724870708611 L222.974815897246 94.6764458008006 A11.03 11.03 0 0 0 216.249565395978 90.4536139991181 L216.248674696571 90.4569283438384 A7.91 7.91 0 0 0 212.902056454845 93.959930480702 L212.901824968612 93.9512618275899 A8.36 8.36 0 0 0 212.917470201623 100.068535452669 L212.9232223589 100.068454324696 A27.83 27.83 0 0 0 216.347991691565 107.809371535743 L216.345744855261 107.811314239598 A2435.41 2435.41 0 0 1 232.607938208848 133.580636042055 L232.608774876636 133.584817136887 A42.99 42.99 0 0 1 235.939282266959 140.120742473805 L235.934763592579 140.114259364771 A7.96 7.96 0 0 1 236.044203556269 145.820774267314 L236.045757000629 145.818824809968 A25.28 25.28 0 0 1 231.260876277303 154.841296020755 L231.263348680951 154.849531308058 A54.59 54.59 0 0 0 221.506108550348 175.990218324447 L221.511967526756 175.983208863488 A88.39 88.39 0 0 0 190.424697564104 166.725832448075 L190.425461403251 166.731230540289 A260.4 260.4 0 0 0 163.968407940264 164.979936293096 L163.96 164.98 L157.712626096289 160.257877508425 A66.14 66.14 0 0 0 158.494478245968 137.021230834132 L158.491093125945 137.018644048358 A61.79 61.79 0 0 1 157.881265595956 126.58902803148 L157.882042193918 126.592085125993 A34.99 34.99 0 0 1 160.180498461551 115.005989475431 L160.176216794671 115.004947231204 A99.03 99.03 0 0 1 169.43328517873 93.7074352244991 L169.432627566175 93.7052002807292 A23.41 23.41 0 0 1 173.122829885945 88.9204464568656 L173.125089982346 88.9183264170844 A3.92 3.92 0 0 0 171.81287865171 86.5438487872986 L171.810582809579 86.5467087649461 A1.94 1.94 0 0 1 173.409625916519 85.2925573255399 L173.41201326484 85.2939419132683 A40.73 40.73 0 0 0 173.380738879258 77.7880883329897 L173.373186606012 77.7864615684854 A27.28 27.28 0 0 0 165.086813393988 77.7864615684854 L165.095801259729 77.7932390222536 A5.91 5.91 0 0 0 164.845716112508 82.5135963572138 L164.84172605421 82.5152313368186 A7.5 7.5 0 0 0 165.685639563126 87.1411276275457 L165.684578064832 87.1374886701401 A139.71 139.71 0 0 1 151.549317551602 111.717830972201 L151.551840166408 111.725213042775 A26.63 26.63 0 0 0 146.751979361886 119.995983043069 L146.749173725157 119.9875785208 A107.78 107.78 0 0 1 139.149949817958 138.798003022668 L139.150767000483 138.797698064223 A79.17 79.17 0 0 0 133.161673809938 154.028446904945 L133.156059115115 154.035456307587 A16.07 16.07 0 0 1 128.606237444534 152.065430445568 L128.610169042068 152.067461710831 A349.51 349.51 0 0 0 107.829203208921 139.917867521563 L107.8256331608 139.913457206098 A17.41 17.41 0 0 1 99.0549403755915 120.996277195881 L99.0574740239131 120.992066337242 A121.54 121.54 0 0 1 104.608379765367 102.275350413751 L104.61010185971 102.283240094178 A2.71 2.71 0 0 1 102.793148217268 101.186802522278 L102.791832547333 101.17419643226 A26.45 26.45 0 0 0 104.527278245513 98.2192481978092 L104.52407177473 98.2276415298074 A3.71 3.71 0 0 0 104.789816536912 95.5858267289367 L104.797368045952 95.585842996832 A16.64 16.64 0 0 0 97.573122482742 90.4569414341118 L97.5723375316342 90.4568819884263 A18.46 18.46 0 0 0 95.5705636814802 95.4925943659661 L95.566443480296 95.4901140501994 A9.65 9.65 0 0 0 95.8793258446936 100.965556137192 L95.88 100.96 L96.54 103.78 L89.9720972224152 126.326768090331 A20.41 20.41 0 0 0 90.8478166665983 140.71358533189 L90.8482827832926 140.707172510066 A70.72 70.72 0 0 0 110.206787312754 162.254845881891 L110.200664943381 162.261146547798 A109.87 109.87 0 0 1 120.23931520978 170.579778814204 L120.242943549606 170.577977821304 A43.71 43.71 0 0 0 111.674537374138 187.620975197925 L111.68358236169 187.617399825974 A470.8 470.8 0 0 1 105.757208198829 209.978125459604 L105.74460175533 209.975649076535 A53.94 53.94 0 0 1 94.9083953738422 229.990575562179 L94.91 230 L64.1392268545424 216.264192995981 A1.45 1.45 0 0 1 63.2806728214892 214.984167064991 L63.278375957433 214.983390148416 A3.5 3.5 0 0 0 62.856627588899 213.421359032258 L62.8628293792836 213.422889988572 A1.63 1.63 0 0 0 61.5779120032367 212.576724903383 L61.5763754563292 212.573044561729 A27.4 27.4 0 0 0 56.6036245436708 212.573044561729 L56.6 212.58 L55.791777697694 213.542302851685 A14.88 14.88 0 0 0 51.6950882359922 214.042661867986 L51.6927293992913 214.043972191346 A5.15 5.15 0 0 0 50.1436638686379 214.74809287795 L50.1394656667493 214.751237070858 A2.06 2.06 0 0 0 49.2637114412531 216.831153171469 L49.2725844818786 216.827068105284 A44.68 44.68 0 0 0 51.4145950096874 228.490862692151 L51.4063053299988 228.498019188404 A5648.91 5648.91 0 0 1 56.8947995718836 245.448240692685 L56.9000736022342 245.449885925283 A31.5 31.5 0 0 1 58.5261589810658 253.908656520188 L58.5251842920707 253.905404805556 A10.91 10.91 0 0 0 59.3068778943714 257.423025931587 L59.30766079554 257.425189639341 A344.77 344.77 0 0 1 64.6710790707829 271.560846237229 L64.6708749165394 271.559376102802 A20.86 20.86 0 0 1 65.077438547815 284.225393764234 L65.0796642857075 284.223017756129 A15.33 15.33 0 0 0 70.3344185346764 277.435626756434 L70.3313068256276 277.435529942607 A24.73 24.73 0 0 0 74.4586767742056 284.314479865632 L74.4631356233043 284.315912512448 A3.89 3.89 0 0 0 76.5898340275409 285.598186559231 L76.5800168184549 285.599731996999 A144.56 144.56 0 0 1 76.7051129668526 279.516930258016 L76.7156068433348 279.520109845739 A14.56 14.56 0 0 1 87.4106929312403 269.638100544701 L87.4103213520591 269.635161926362 A35.57 35.57 0 0 0 98.1992904136275 265.241393345599 L98.2008131666819 265.238909272714 A152.17 152.17 0 0 0 125.597012131424 245.536163559479 L125.59 245.54 L130.818071434257 248.133129501479 A5.69 5.69 0 0 0 131.193074784743 249.758144187484 L131.193294904969 249.757082729712 A16.03 16.03 0 0 0 136.398868047275 251.476641464726 L136.399877215069 251.478009894346 A2.59 2.59 0 0 1 138.353242222157 252.915686550492 L138.35 252.92 L138.32 254.64 L147.639979005926 259.04978938567 A14.94 14.94 0 0 1 155.987683095883 276.698774432144 L155.987853746148 276.702098578808 A16.03 16.03 0 0 0 155.550096019717 289.756658991228 L155.55668997809 289.762799581148 A3.95 3.95 0 0 1 154.743522126969 293.531519979431 L154.740227683899 293.521807017329 A0.88 0.88 0 0 1 153.790334020254 293.770959457602 L153.785550146167 293.770798285324 A875.24 875.24 0 0 1 150.126558208991 293.020235863977 L150.120851888811 293.029578598392 A0.94 0.94 0 0 0 149.089148961139 293.529798226507 L149.096365788056 293.53201830469 A20.04 20.04 0 0 0 147.673480478445 298.73884016075 L147.667416662429 298.734778369195 A6.16 6.16 0 0 0 145.540536306377 299.203943211275 L145.541524872273 299.197697970212 A0.36 0.36 0 0 0 145.320325164799 299.545297480939 L145.32171262629 299.55192993382 A35.11 35.11 0 0 0 145.994108593292 305.056194430534 L145.988321934419 305.053289425687 A23.52 23.52 0 0 1 146.426070464747 308.477108823 L146.435848221855 308.47325754454 A9.81 9.81 0 0 1 146.373314157171 310.224212202935 L146.374840715009 310.232362843358 A0.66 0.66 0 0 1 145.922640585642 310.778121638738 L145.92 310.77 L140.508310239544 310.777026074553 A1.73 1.73 0 0 0 141.99121436924 313.227720206449 L141.991358814823 313.22980661088 A15.03 15.03 0 0 1 144.290419255882 313.526964093257 L144.291710260485 313.531239024661 A4.61 4.61 0 0 1 146.730731731013 314.438054671399 L146.736657829872 314.429373714511 A10.47 10.47 0 0 0 157.539890638075 316.493088256169 L157.535234685125 316.503925003358 A38.47 38.47 0 0 1 169.934642443584 314.002152964699 L169.94 314 L164.987028658692 300.173237477689 A4.72 4.72 0 0 1 164.72137342988 298.907468812499 L164.715638395357 298.910268600196 A6.49 6.49 0 0 1 164.778209549727 297.455488565628 L164.777471502507 297.45403730017 A0.62 0.62 0 0 1 165.826412411415 297.109609029199 L165.820079694169 297.113357712483 A2.85 2.85 0 0 0 168.150283860586 298.239362359573 L168.15 298.23 L168.15 294.61 L178.40586912658 283.278436024251 A41.44 41.44 0 0 0 188.724925897913 265.782944239493 L188.729579848109 265.785653418298 A18.07 18.07 0 0 0 189.433298937897 259.718030836701 L189.436095244018 259.719689041796 A17.66 17.66 0 0 1 192.907870722811 248.20965904171 L192.904013443968 248.211198528295 A13.46 13.46 0 0 0 195.546592628887 239.376540155183 L195.55419106967 239.382068260861 A2.41 2.41 0 0 1 196.085683884717 237.725061354381 L196.081508151147 237.714110296134 A1.71 1.71 0 0 1 197.146954797414 237.996140241578 L197.146684987442 238.006246163977 A3.13 3.13 0 0 0 197.834992043096 238.350399696653 L197.835021253399 238.344691044683 A9.68 9.68 0 0 1 200.931460563793 241.879010635815 L200.931479728242 241.87795884109 A4.09 4.09 0 0 0 204.530247466094 244.099806809135 L204.521544051663 244.099958905315 A0.87 0.87 0 0 0 205.330327582102 243.571138917931 L205.337202117755 243.564303480126 A4.78 4.78 0 0 0 205.24340890881 239.609357848266 L205.238984863459 239.610479606356 A149.33 149.33 0 0 1 203.425089185563 235.716858689919 L203.429539710692 235.71826072197 A0.68 0.68 0 0 1 204.16086191943 234.769097894756 L204.169658019866 234.763141085291 A27.42 27.42 0 0 0 207.187401784497 235.09149664325 L207.178436426709 235.09012467271 A1.48 1.48 0 0 1 207.837385454885 233.207413035152 L207.84 233.22 L225.701438491229 235.439324425766 A87.7 87.7 0 0 0 246.31075611287 236.096070593547 L246.30502829275 236.087086637797 A30.57 30.57 0 0 0 262.83066428706 229.458070785616 L262.830340202944 229.463703974152 A372.49 372.49 0 0 1 272.884884575798 227.806189677882 L272.889836700254 227.804550085163 A31.78 31.78 0 0 0 279.770295935059 225.95933607067 L279.768852036148 225.958161586046 A13.89 13.89 0 0 0 287.290704825163 218.874171276503 L287.287707369433 218.872775005097 A861.14 861.14 0 0 1 298.530536872684 189.663309548111 L298.53216196617 189.664014530438 A34.04 34.04 0 0 0 302.737830251033 173.654332930998 L302.742316573939 173.658033709823 A4.72 4.72 0 0 0 297.7697977577 172.829280547739 L297.769382962877 172.826016336535 A11.81 11.81 0 0 1 295.017918158421 173.607682512226 L295.016146601278 173.611617516122 A9.35 9.35 0 0 1 291.951644990834 171.688486327848 L291.947963126 171.682866186638 A1.85 1.85 0 0 0 288.957064440043 172.356209931628 L288.956488139119 172.361367510467 A31.96 31.96 0 0 0 285.297077718997 182.182349013746 L285.30699947503 182.178119221319 A171.85 171.85 0 0 0 281.804373861001 200.566903463724 L281.802644531237 200.564497981673 A705.89 705.89 0 0 0 280.708073548468 211.572754192614 L280.705982670637 211.572017394768 A15.35 15.35 0 0 1 271.685984321162 222.311599572222 L271.684918688907 222.316100559155 A38.22 38.22 0 0 1 265.820842645959 224.239517391648 L265.817737158437 224.236267992594 A39.24 39.24 0 0 0 272.509830472365 206.223904631039 L272.517541108423 206.224881942114 A43.04 43.04 0 0 0 271.532430375833 191.323126590338 L271.529451803771 191.324640861786 A89.36 89.36 0 0 1 268.965015929171 170.996795491026 L268.965829399158 171.000109711539 A37.1 37.1 0 0 1 277.268756690232 145.934964619691 L277.271583676441 145.939304574762 A154.48 154.48 0 0 1 290.49993543373 131.647681066735 L290.49317529853 131.638880649796 A5.37 5.37 0 0 0 291.837588142135 125.917309642253 L291.84 125.92 L289.681492554971 114.001661466799 A76.29 76.29 0 0 1 288.274213976104 95.6757674337741 L288.275396967828 95.6718704088291 A76.69 76.69 0 0 0 288.150307848559 86.7592762469331 Z M64.7355821893081 218.485600608863 A27.2 27.2 0 0 0 71.7869650580216 226.553258192628 L71.7862364211306 226.553231220699 A54.26 54.26 0 0 1 82.8725345813018 241.032655933044 L82.8691259702879 241.034535125513 A57.64 57.64 0 0 0 93.7203035214519 231.559299325644 L93.72 231.56 Z M130.808700507313 245.850205163654 A9.23 9.23 0 0 1 134.718835554433 241.126761951566 L134.723350754964 241.127818692402 A3.84 3.84 0 0 1 138.916496294348 241.284279320931 L138.91 241.29 L136.79 237.16 L127.34 244.16 Z M144.203270807927 233.213569827341 A19.06 19.06 0 0 1 143.390019532658 239.250396680914 L143.38471370451 239.252818883831 A12.21 12.21 0 0 1 141.337116756058 243.207338236341 L141.335873140938 243.209656934739 A3.16 3.16 0 0 0 142.196083976079 247.85479545008 L142.2 247.85 L144.64 245.01 L161.769425530301 254.41878213418 A38.83 38.83 0 0 0 156.766175418306 235.562783198117 L156.776411398908 235.560531731366 A19.04 19.04 0 0 0 152.021602031773 229.992399879279 L152.02 230 Z M141.202645256723 240.379614465787 A9.28 9.28 0 0 1 139.68622465628 236.971576390343 L139.686015022839 236.963449831914 A1.59 1.59 0 0 1 140.637197821045 234.811593566429 L140.63 234.81 L142.516676085257 234.186971770204 A24.94 24.94 0 0 1 141.203079002465 240.379643436 Z" style="fill:rgb(255,255,255);" />
<path d=" M458.64452320409 235.26499285783 A19.34 19.34 0 0 0 467.07547679591 235.26499285783 L467.079209067705 235.262399906306 A2.96 2.96 0 0 1 468.470123448551 240.457944983804 L468.46777990895 240.458896844965 A13.22 13.22 0 0 1 460.964354681317 241.200375246385 L460.958750170037 241.193328411871 A63.85 63.85 0 0 0 442.27675396228 240.27596504067 L442.28 240.28 L431.403464403112 198.512058364778 A62.53 62.53 0 0 1 395.60570506997 199.321635179058 L395.6 199.32 L396.169262099612 197.267540859328 A60.4 60.4 0 0 0 430.865835019809 196.447149672531 L430.86 196.45 L429.969639054989 193.005025367688 A56.85 56.85 0 1 1 403.189361213524 82.8806247582118 L403.19 82.88 L362.41 82.88 L362.41 77.55 L646.65 77.55 L646.65 82.88 L605.860635847025 82.880624289034 A56.85 56.85 0 0 1 646.860740545224 166.146498192226 L646.86 166.15 L649.906128126579 167.977043720462 A60.4 60.4 0 0 0 651.890326029962 164.004476042504 L651.89 164.01 L653.829553060476 164.885554089066 A62.53 62.53 0 0 1 570.562106357994 195.732575840834 L570.56 195.74 L557.24 221.67 L560.278330018894 228.065616329132 A2.29 2.29 0 0 0 562.161526962212 229.275809532268 L562.161754455867 229.263661444327 A5.62 5.62 0 0 1 564.950853717293 230.659407555157 L564.951663814205 230.662371098944 A3.09 3.09 0 0 1 563.017823919258 235.886565843843 L563.021555846297 235.893835366182 A85.11 85.11 0 0 1 536.617305719046 235.507347572467 L536.617051733155 235.507141764768 A2.8 2.8 0 0 1 537.046874695492 230.086907989514 L537.04 230.08 L551.527388568773 229.483857669422 A2.31 2.31 0 0 0 553.840660096548 226.107499944408 L553.85 226.11 L551.97 222.16 L442.7 222.16 L445.755019690793 233.898885345402 A38.24 38.24 0 0 1 458.643126442935 235.270769610853 Z M521.94 106.69 L521.94 101.71 L508.43 101.71 L508.43 106.69 L513.05 106.69 L513.048749344987 122.103727637405 A17.05 17.05 0 0 0 501.033382128674 148.537126814468 L501.03 148.54 L438.38 205.58 L436.09339794241 196.784302081575 A62.53 62.53 0 0 0 474.06788123134 130.292063026024 L474.07 130.29 L471.958731789069 130.589365279934 A60.4 60.4 0 0 1 472.548808371622 138.64059614118 L472.55 138.64 L468.997769952091 138.51646105003 A56.85 56.85 0 0 0 421.110643685561 82.8806255401753 L421.11 82.88 L587.939355334622 82.8806256965681 A56.85 56.85 0 0 0 540.104433472722 136.532808241096 L540.11 136.53 L536.551225780607 136.532943463299 A60.4 60.4 0 0 1 537.453315347401 128.331142071553 L537.46 128.33 L535.356932952754 127.95420592916 A62.53 62.53 0 0 0 534.419476837126 136.533008786994 L534.42 136.53 L532.047721333242 136.533541268371 A17.05 17.05 0 0 0 517.311250359768 122.103727600207 L517.32 122.1 L517.32 106.69 Z M508.43 176.33 L521.94 176.33 L521.94 171.35 L517.32 171.35 L517.311249474034 155.936272511385 A17.05 17.05 0 0 0 520.178829601549 155.320742394587 L520.19 155.33 L549.6 217.19 L441.41 217.19 L439.8 211.02 L504.381257732085 152.214304279921 A17.05 17.05 0 0 0 513.048750525966 155.936272511385 L513.05 155.94 L513.05 171.35 L508.43 171.35 Z M418.850631474095 143.05161727454 A7.82 7.82 0 0 0 419.472240190121 141.765395890974 L419.47 141.76 L463.131596395236 143.288773710706 A51.16 51.16 0 0 1 433.194055644208 185.651462791162 L433.19 185.65 L426.372141017283 159.476784688353 A35.01 35.01 0 0 0 418.842123320825 143.05159079854 Z M472.37 143.61 L468.824166929994 143.487807380716 A56.85 56.85 0 0 1 434.647431769495 191.229080280895 L434.65 191.23 L435.55148463225 194.702407607848 A60.4 60.4 0 0 0 472.375214195026 143.611685438183 Z M415.038538743676 146.286962496551 A7.82 7.82 0 1 1 419.645912445225 136.792064495205 L419.64 136.79 L463.305182341 138.317917626578 A51.16 51.16 0 1 0 428.532077026071 187.486206291723 L428.53 187.49 L421.479829966755 160.39667030837 A30.25 30.25 0 0 0 415.039647650118 146.284829363708 Z M641.678315141476 163.031634536004 A50.81 50.81 0 1 0 546.15091215558 136.53279615646 L546.16 136.53 L585.446707749041 136.533939539327 A11.72 11.72 0 1 1 607.997309293641 142.789366848857 L608.01 142.79 Z M575.922895656723 185.297610065465 A50.81 50.81 0 0 0 639.115748667911 167.295195214317 L639.12 167.29 L605.435918107911 147.05097142661 A11.72 11.72 0 0 1 593.877835525764 150.343644373198 L593.88 150.35 Z M647.35 172.24 L644.298192171079 170.410028335659 A56.85 56.85 0 0 1 573.159983570731 190.675920473243 L573.16 190.67 L571.536254000773 193.836424444565 A60.4 60.4 0 0 0 647.343711449406 172.240354832678 Z M566.137774733512 193.459750152383 A62.53 62.53 0 0 1 534.419476663501 141.506986851043 L534.42 141.51 L532.047721593623 141.506456965245 A17.05 17.05 0 0 1 524.669758877715 153.184991226359 L524.68 153.19 L554.55 216.01 Z M571.498186469068 183.024590321236 A50.81 50.81 0 0 1 546.15091198194 141.507200300586 L546.16 141.51 L585.446708009381 141.506061660059 A11.72 11.72 0 0 0 589.45515277771 148.071665583569 L589.46 148.08 Z M568.73530182901 188.402914828279 A56.85 56.85 0 0 1 540.104433212264 141.507185811286 L540.11 141.51 L536.5512257372 141.507055483416 A60.4 60.4 0 0 0 567.111802292612 191.563536970265 L567.12 191.56 Z" style="fill:rgb(255,255,255);" />
<path d=" M364.32 347.29 L363.446657589328 349.029653801691 A9.7 9.7 0 0 0 362.903680436258 352.507183303718 L362.905345333117 352.500661338806 A20.96 20.96 0 0 1 362.10449647455 355.657184658925 L362.1 355.66 L338.82 395.32 L336.78 398.86 L334.57 402.22 L331.64 405.25 L328.35 407.23 L325.05 408.34 L321.73 408.92 L319.93 409.25 L318.67 409.63 L317.98 410.03 L317.64 410.49 L317.46 411.29 L317.454660657023 418.13825489333 A11.91 11.91 0 0 1 325.129999999998 429.27000644393 L325.14 429.27 L325.13 430.84 A11.91 11.91 0 0 1 301.31 430.84 L301.310000000002 429.27000644393 A11.91 11.91 0 0 1 308.985339342977 418.13825489333 L308.99 418.13 L308.988583779629 411.235387757138 A1.5 1.5 0 0 0 307.612553176507 409.43285808638 L307.613846129681 409.4322066185 A24.9 24.9 0 0 1 295.401913694403 405.554502734618 L295.401280646314 405.559273648743 A34.71 34.71 0 0 1 283.741106511739 381.049165215295 L283.74 381.05 L283.740000000002 345.870003949506 A3.97 3.97 0 1 1 291.679999999998 345.870003949506 L291.680348770396 381.320241299025 A9.12 9.12 0 0 0 292.840108443971 385.851351077624 L292.841770513072 385.854510472284 A3.97 3.97 0 0 0 296.5679006732 387.575775335775 L296.571129449688 387.569208170209 A2.36 2.36 0 0 0 298.831322258261 384.784485049264 L298.83 384.78 L298.83 278.62 A5.56 5.56 0 0 1 309.95 278.62 L309.950000000002 335.940003820177 A3.84 3.84 0 0 0 317.629999999998 335.940003820177 L317.63 265.92 A5.56 5.56 0 0 1 328.75 265.92 L328.743322665696 383.404424523952 A5.69 5.69 0 0 0 329.995010408195 386.774683340857 L330.001716176005 386.771021944715 A3.95 3.95 0 0 0 335.051837009943 385.273777210449 L335.05 385.27 L355.030580193832 351.507668247254 A10.9 10.9 0 0 1 357.804617887664 349.57174884578 L357.800088050315 349.572362986381 A8.43 8.43 0 0 0 362.142836555301 342.727662620782 L362.138008042949 342.724996043036 A6.13 6.13 0 0 1 368.764607988376 337.657940224815 L368.77 337.66 L384.87 337.66 L374.81 301.66 L383.28 301.66 L383.280000000001 275.450002367714 A2.38 2.38 0 1 1 388.039999999999 275.450002367714 L388.05 275.45 L388.043290346774 301.655896243599 A25.2 25.2 0 0 0 395.456709653226 301.655896243599 L395.46 301.66 L395.46 281.27 A2.38 2.38 0 0 1 400.22 281.27 L400.22 301.66 L409.75 301.66 L398.515295726398 333.349495704073 A0.73 0.73 0 0 0 399.858774260175 333.893365879136 L399.86 333.89 L412.28513299751 322.068658837657 A1.93 1.93 0 1 1 415.431828238821 324.270142134914 L415.43 324.27 L399.975491823389 339.4677809119 A10 10 0 0 1 394.913488409314 342.618965648056 L394.910528521787 342.61600774657 A5.71 5.71 0 0 0 393.630333041533 348.426797441198 L393.635376479169 348.42237937794 A8.74 8.74 0 1 1 388.040656990766 348.457503741863 L388.032736726914 348.455640667825 A88.35 88.35 0 0 0 388.606202788971 345.411519131309 L388.611991600645 345.414626406974 A3.48 3.48 0 0 0 387.211115546132 341.889962278401 L387.21 341.89 L370.509107354185 341.8979799369 A2.93 2.93 0 0 0 366.9306118147 343.377244117784 L366.916955019934 343.375331936089 A4.49 4.49 0 0 1 364.311045059116 347.286980437232 Z" style="fill:rgb(255,255,255);" />
<path d=" M285.51 513.13 A44.81 44.81 0 0 1 195.89 513.13 A44.81 44.81 0 0 1 285.51 513.13 Z M265.48 513.13 A24.78 24.78 0 0 1 215.92 513.13 A24.78 24.78 0 0 1 265.48 513.13 Z" style="fill:rgb(255,255,255);" />
<path d=" M161.37 637.05 L161.37 625.79 L167.21 625.79 L161.37 575.07 L125.49 571.32 L125.49 643.2 L116.78 643.2 L116.78 570.41 L66.4583187489876 565.142362453868 A517.7 517.7 0 0 0 82.4219657272885 515.652537791162 L82.43 515.66 L89.09 515.66 L89.0918615029875 512.527596670839 A21.97 21.97 0 1 1 98.3165265968095 510.834741950532 L98.32 510.84 L98.32 515.66 L188.031062122965 515.657385542238 A52.75 52.75 0 0 0 269.380953993462 557.404446662284 L269.374046251964 557.402491780448 A564.61 564.61 0 0 0 255.184987945719 589.192951916847 L255.186439164134 589.192218861963 A159.05 159.05 0 0 0 244.508583194241 625.786017512285 L244.51 625.79 L255.19 625.79 L255.19 637.05 Z M101.47 490.57 A11.64 11.64 0 0 1 78.19 490.57 A11.64 11.64 0 0 1 101.47 490.57 Z M175.85 625.79 L169.07 563.81 L189.569036481598 563.801014744825 A30.57 30.57 0 0 1 207.514143212142 574.042954693824 L207.52 574.05 L198.81 625.79 Z M206.39 625.79 L216.15 575.07 L245.03 575.07 L235.97 625.79 Z" style="fill:rgb(255,255,255);" />
<path d=" M670 609.9 L90.1 30 L65.000002443461 30.0000000000001 A35 35 0 0 0 30.0000000000001 65.000002443461 L30 90.1 L609.9 670 L634.999997556539 670 A35 35 0 0 0 670 634.999997556539 Z" style="fill:rgb(255,0,0);" />
</g>
</svg>
