<?xml version="1.0" encoding="UTF-8"?>
<!DOCTYPE svg PUBLIC '-//W3C//DTD SVG 1.0//EN' 'http://www.w3.org/TR/2001/REC-SVG-20010904/DTD/svg10.dtd'>
<svg xmlns:xlink="http://www.w3.org/1999/xlink" xmlns="http://www.w3.org/2000/svg" width="400" height="599.99">
<!--Gegenereerd door de SIMaD-toepassing (http://www.dlw.be).-->
<g style="stroke:none;fill-rule:evenodd;" transform="matrix(1,0,0,-1,0,599.99)">
<path d=" M0 555 L0 45 A45 45 0 0 1 45.0000015707963 2.8421709430404E-14 L355 0 L354.996559956048 1.31487801979802E-7 A45 45 0 0 1 399.999999868932 44.9965654538348 L400 45 L400 555 A45 45 0 0 1 355.000001570796 600 L355 599.99 L45 599.99 L45.000004712389 600 A45 45 0 0 1 2.8421709430404E-14 554.999998429204 Z" style="fill:rgb(255,255,255);stroke:rgb(0,0,0);" />
<path d=" M166.63153290919 150.428279251944 A14.81 14.81 0 0 0 173.087701869411 150.419516689752 L173.094802707093 150.42285296044 A2.27 2.27 0 0 1 174.157986792201 154.408208868989 L174.155171764369 154.403305948723 A10.12 10.12 0 0 1 168.410606720621 154.964376758181 L168.408219775937 154.969066472436 A48.91 48.91 0 0 0 154.097692731952 154.263381553981 L154.1 154.26 L145.77 122.28 L145.765996072348 122.269989902467 A47.89 47.89 0 0 1 118.349621750191 122.896220050701 L118.35 122.9 L118.79 121.32 L118.784434168232 121.319793963432 A46.26 46.26 0 0 0 145.358417030625 120.69504365573 L145.35 120.7 L144.67 118.05 L144.666554797549 118.045607436658 A43.53 43.53 0 1 1 124.156692029114 33.7244686702982 L124.16 33.72 L92.9299999999999 33.72 L92.9299999999999 29.64 L310.61 29.64 L310.61 33.72 L279.38 33.72 L279.38194028162 33.7242503197689 A43.53 43.53 0 0 1 310.774518476105 97.4814399154537 L310.78 97.48 L313.11 98.89 L313.113035770201 98.8842578310603 A46.19 46.19 0 0 0 314.626658326178 95.844420067324 L314.63 95.85 L316.12 96.52 L316.113256199338 96.5142457269881 A47.89 47.89 0 0 1 252.34398161879 120.147124705126 L252.35 120.15 L242.14 140.01 L244.47 144.91 L244.468508711715 144.908435035559 A1.75 1.75 0 0 0 245.911490214713 145.827225177876 L245.909439054188 145.831401327359 A4.29 4.29 0 0 1 248.038614001717 146.896578907121 L248.043241081256 146.892010370445 A2.37 2.37 0 0 1 246.561837285126 150.899594926874 L246.55746627679 150.890663352691 A65.18 65.18 0 0 1 226.33619238951 150.597580227329 L226.342749423294 150.600007797116 A2.14 2.14 0 0 1 226.676206107861 146.457795994766 L226.68 146.45 L237.76 146 L237.763808663198 145.99794912686 A1.77 1.77 0 0 0 239.532350211527 143.408157577096 L239.54 143.41 L238.11 140.39 L154.42 140.39 L156.76 149.37 L156.765864863084 149.370020227708 A29.29 29.29 0 0 1 166.637309166084 150.422932265722 Z" style="fill:rgb(0,0,0);" />
<path d=" M263.11 523.33 L295.88 523.33 L295.88 532.22 L272.89 532.22 L272.89 546.44 L288.26 546.44 L288.26 555.33 L272.89 555.33 L272.89 567.78 L295.88 567.78 L295.88 576.66 L263.11 576.66 L263.11 523.33 Z" style="fill:rgb(0,0,0);" />
<path d=" M318.03 221.94 L318.03 475.56 L318.02 475.559996160974 A24.44 24.44 0 0 1 293.580000853117 500 L106.41 500 A24.44 24.44 0 0 1 81.97 475.559999146883 L81.97 221.94 A24.44 24.44 0 0 1 106.410000853117 197.5 L293.58 197.5 A24.44 24.44 0 0 1 318.02 221.940000853117 Z" style="fill:rgb(0,0,255);" />
<path d=" M207.88 523.33 L216.77 523.33 L216.77 558.75 L233.02 523.33 L244.45 523.33 L244.45 576.66 L235.56 576.66 L235.56 541.24 L219.3 576.66 L207.88 576.66 L207.88 523.33 Z" style="fill:rgb(0,0,0);" />
<path d=" M154.88 559.44 L154.88 540.55 A18.29 18.29 0 0 1 191.46 540.549998403896 L191.45 540.55 L191.45 559.44 L191.46 559.44 A18.29 18.29 0 0 1 154.88 559.44 Z" style="fill:rgb(0,0,0);" />
<path d=" M104.12 523.33 L140.7 523.33 L140.7 532.22 L115.27 532.22 L139.62 567.78 L139.62 576.66 L105.19 576.66 L105.19 567.78 L128.48 567.78 L104.12 532.22 L104.12 523.33 Z" style="fill:rgb(0,0,0);" />
<path d=" M253.061563249611 110.410836903052 A38.91 38.91 0 0 1 233.646879362799 78.6194382258529 L233.65 78.62 L263.74 78.62 L263.742466018231 78.6161268941934 A8.98 8.98 0 0 0 266.808781818546 83.6498186761147 L266.81 83.65 L253.07 110.41 Z" style="fill:rgb(255,255,255);" />
<path d=" M248.966608672204 118.391763272693 A47.88 47.88 0 0 1 224.668417912682 78.6176609143558 L224.66 78.62 L222.85 78.62 L222.842110751047 78.6127899349064 A13.06 13.06 0 0 1 217.198887294063 87.5634957352474 L217.2 87.57 L240.08 135.68 L248.96 118.4 Z" style="fill:rgb(255,255,255);" />
<path d=" M133.227998384463 82.2674403401393 A5.98 5.98 0 1 1 136.75243936593 75.0071967477326 L136.76 75.01 L170.2 76.17 L170.1962682898 76.1692570983945 A39.18 39.18 0 1 0 143.568834093538 113.826022994023 L143.57 113.83 L138.17 93.08 L138.169816962314 93.0823518465597 A23.17 23.17 0 0 0 133.235030784451 82.2742605555569 Z" style="fill:rgb(255,255,255);" />
<path d=" M204.76 105.28 L215.11 105.28 L215.11 101.48 L211.57 101.48 L211.57 89.67 L211.559852571359 89.6654519715025 A13.08 13.08 0 0 0 213.762074268315 89.20429062719 L213.77 89.2 L236.3 136.57 L153.43 136.57 L152.2 131.85 L201.66 86.82 L201.66235675669 86.8064271368086 A13.07 13.07 0 0 0 208.303857347527 89.6659212695322 L208.3 89.67 L208.3 101.48 L204.76 101.48 L204.76 105.28 Z" style="fill:rgb(255,255,255);" />
<path d=" M215.11 51.95 L215.11 48.15 L204.76 48.15 L204.76 51.95 L208.3 51.95 L208.3 63.75 L208.299891085652 63.7521319296975 A13.06 13.06 0 0 0 199.092594313291 83.9979515627985 L199.09 84 L151.11 127.69 L149.36 120.96 L149.362133467868 120.952343772864 A47.89 47.89 0 0 0 178.452018911274 70.0313607389849 L178.45 70.03 L176.83 70.26 L176.826220950029 70.2543253236726 A46.29 46.29 0 0 1 177.279057884772 76.4246694390598 L177.28 76.42 L174.56 76.33 L174.548309697848 76.3263923251571 A43.53 43.53 0 0 0 137.883085149795 33.7244330940412 L137.89 33.72 L265.65 33.72 L265.659505287014 33.7138930565442 A43.54 43.54 0 0 0 229.021788508148 74.8028563215907 L229.02 74.81 L226.3 74.81 L226.299425451516 74.8017659069546 A46.2 46.2 0 0 1 226.990233880601 68.5282905791544 L226.99 68.53 L225.38 68.24 L225.38890441968 68.2319107749879 A47.9 47.9 0 0 0 224.66083864558 74.8024574716154 L224.66 74.81 L222.85 74.81 L222.850735594968 74.8078455149665 A13.06 13.06 0 0 0 211.564936358288 63.7527401390438 L211.57 63.75 L211.57 51.95 L215.11 51.95 Z" style="fill:rgb(255,255,255);" />
<path d=" M311.15 102.16 L308.82 100.75 L308.811889487872 100.749642668108 A43.54 43.54 0 0 1 254.329418027877 116.272583828094 L254.33 116.27 L253.1 118.69 L253.095548320415 118.693243583829 A46.25 46.25 0 0 0 311.144544441235 102.16026467447 Z" style="fill:rgb(255,255,255);" />
<path d=" M256.45324266295 112.157937421249 A38.91 38.91 0 0 0 304.846975953037 98.3753625167486 L304.84 98.37 L279.05 82.86 L279.058955934093 82.8648724838119 A8.98 8.98 0 0 1 270.202460161626 85.3857944361051 L270.2 85.39 L256.45 112.16 Z" style="fill:rgb(255,255,255);" />
<path d=" M306.81128658083 95.0973805810228 A38.91 38.91 0 1 0 233.65661346607 74.8059813251034 L233.65 74.81 L263.74 74.81 L263.744814551762 74.8030337315439 A8.98 8.98 0 1 1 281.022189873547 79.6001846574487 L281.02 79.6 L306.8 95.1 Z" style="fill:rgb(255,255,255);" />
<path d=" M164.66 560.34 L164.66 539.66 A8.51 8.51 0 1 1 181.68 539.65999940589 L181.67 539.66 L181.67 560.34 L181.68 560.34 A8.51 8.51 0 0 1 164.66 560.34 Z" style="fill:rgb(255,255,255);" />
<path d=" M218.69 343.25 L217.58 345.48 L217.567556318522 345.477600634988 A12.53 12.53 0 0 0 216.875498278949 349.971155815527 L216.885736201793 349.979103160961 A27.05 27.05 0 0 1 215.842436934286 354.0502762285 L215.84 354.05 L185.82 405.2 L183.18 409.76 L180.32 414.1 L176.55 418 L172.31 420.56 L168.05 421.99 L163.77 422.74 L161.44 423.17 L159.83 423.65 L158.94 424.16 L158.49 424.76 L158.26 425.8 L158.26 434.62 L158.261321573823 434.633692443135 A15.36 15.36 0 0 1 168.159999999999 448.990004021239 L168.16 451.02 A15.37 15.37 0 0 1 137.42 451.02 L137.42 448.99 L137.430001657052 448.987134749344 A15.36 15.36 0 0 1 147.322014240871 434.626229354697 L147.32 434.62 L147.32 425.72 L147.329577673013 425.722932841147 A1.93 1.93 0 0 0 145.559085725898 423.403677443966 L145.562165412572 423.394588743772 A32.12 32.12 0 0 1 129.807804937427 418.397100649972 L129.803026561821 418.406237387453 A44.78 44.78 0 0 1 114.760125087071 386.785255332534 L114.76 386.79 L114.76 341.4 L114.770000000006 341.400007685034 A5.12 5.12 0 1 1 125.009999999999 341.400002591465 L125.01 387.13 L125.010497762454 387.131800530776 A11.76 11.76 0 0 0 126.503317674288 392.975227460433 L126.501304748557 392.984976288661 A5.13 5.13 0 0 0 131.316430903688 395.208632760981 L131.311480969369 395.208911420758 A3.05 3.05 0 0 0 134.229565831455 391.60763705522 L134.23 391.6 L134.23 254.67 A7.17 7.17 0 0 1 148.57 254.67 L148.57 328.6 A4.95 4.95 0 0 0 158.469999999999 328.600002419026 L158.47 238.28 L158.48 238.28 A7.17 7.17 0 0 1 172.82 238.28 L172.82 389.83 L172.82400505723 389.82227690462 A7.33 7.33 0 0 0 174.431608251942 394.165727403121 L174.433864314302 394.161362132829 A5.09 5.09 0 0 0 180.941740078443 392.2328501441 L180.94 392.24 L206.71 348.69 L206.709166143251 348.68059532361 A14.06 14.06 0 0 1 210.284269992119 346.178928831261 L210.283616297987 346.181627388188 A10.87 10.87 0 0 0 215.887537758567 337.35844439754 L215.902859789024 337.359418422417 A7.9 7.9 0 0 1 224.44010403716 330.825691770191 L224.44 330.82 L245.2 330.82 L232.23 284.38 L243.16 284.38 L243.16 250.57 A3.07 3.07 0 1 1 249.3 250.570001553867 L249.3 284.38 L249.308030390038 284.379240199946 A32.5 32.5 0 0 0 258.868986805261 284.373735402764 L258.87 284.38 L258.87 258.09 A3.07 3.07 0 0 1 265.01 258.09 L265.01 284.38 L277.3 284.38 L262.8 325.26 L262.803493288526 325.251312280052 A0.94 0.94 0 0 0 264.530829397398 325.958081979963 L264.54 325.96 L280.56 310.7 L280.566828910778 310.704505278922 A2.49 2.49 0 1 1 284.625223744419 313.54666266739 L284.62 313.55 L264.69 333.15 L264.685251443282 333.147509086459 A12.9 12.9 0 0 1 258.15665168664 337.214760823726 L258.157579242837 337.216103093027 A7.36 7.36 0 0 0 256.511211910256 344.706845493985 L256.515894344554 344.699049052343 A11.27 11.27 0 1 1 249.301668924962 344.747170305388 L249.296179378077 344.746857763099 A113.81 113.81 0 0 0 250.03490048769 340.825507178754 L250.032832566927 340.830434771921 A4.49 4.49 0 0 0 248.222394866521 336.28399551882 L248.23 336.28 L226.68 336.28 L226.683420213327 336.272892114583 A3.79 3.79 0 0 0 222.056859887222 338.191846118369 L222.065912280781 338.197717324751 A5.8 5.8 0 0 1 218.696087882 343.248215787989 Z" style="fill:rgb(255,255,255);" />
<path d=" M250.951802461577 114.526729352157 A43.53 43.53 0 0 1 229.022057513082 78.6230494647212 L229.02 78.62 L226.3 78.62 L226.299159251718 78.6130187918081 A46.26 46.26 0 0 0 249.703828548716 116.951892603425 L249.7 116.95 L250.95 114.53 Z" style="fill:rgb(255,255,255);" />
<path d=" M177.14 80.23 L174.43 80.14 L174.425400230167 80.1309400548665 A43.54 43.54 0 0 1 148.250999070206 116.69530068716 L148.25 116.69 L148.94 119.36 L148.940497372503 119.357052828756 A46.25 46.25 0 0 0 177.136269942699 80.2345620740099 Z" style="fill:rgb(0,0,0);" />
<path d=" M136.153896299122 79.7969569851399 A5.97 5.97 0 0 0 136.632118526295 78.8168024845012 L136.63 78.82 L170.07 79.98 L170.063464308281 79.9780720322492 A39.18 39.18 0 0 1 147.137226567326 112.421446453168 L147.14 112.43 L141.92 92.38 L141.927434590104 92.3761931483529 A26.82 26.82 0 0 0 136.155667926632 79.7948963399989 Z" style="fill:rgb(255,255,255);" />
</g>
</svg>
