<?xml version="1.0" encoding="UTF-8" standalone="no"?>
<svg
   xmlns:dc="http://purl.org/dc/elements/1.1/"
   xmlns:cc="http://creativecommons.org/ns#"
   xmlns:rdf="http://www.w3.org/1999/02/22-rdf-syntax-ns#"
   xmlns:svg="http://www.w3.org/2000/svg"
   xmlns="http://www.w3.org/2000/svg"
   xmlns:sodipodi="http://sodipodi.sourceforge.net/DTD/sodipodi-0.dtd"
   xmlns:inkscape="http://www.inkscape.org/namespaces/inkscape"
   width="600.000000000048"
   height="900"
   version="1.1"
   id="svg92"
   sodipodi:docname="F103T.svg"
   inkscape:version="0.92.1 r15371">
  <metadata
     id="metadata98">
    <rdf:RDF>
      <cc:Work
         rdf:about="">
        <dc:format>image/svg+xml</dc:format>
        <dc:type
           rdf:resource="http://purl.org/dc/dcmitype/StillImage" />
      </cc:Work>
    </rdf:RDF>
  </metadata>
  <defs
     id="defs96" />
  <sodipodi:namedview
     pagecolor="#ffffff"
     bordercolor="#666666"
     borderopacity="1"
     objecttolerance="10"
     gridtolerance="10"
     guidetolerance="10"
     inkscape:pageopacity="0"
     inkscape:pageshadow="2"
     inkscape:window-width="1920"
     inkscape:window-height="1018"
     id="namedview94"
     showgrid="false"
     inkscape:zoom="0.26222222"
     inkscape:cx="300"
     inkscape:cy="450"
     inkscape:window-x="-8"
     inkscape:window-y="-8"
     inkscape:window-maximized="1"
     inkscape:current-layer="g90" />
  <!--Gegenereerd door de SIMaD-toepassing (http://www.dlw.be).-->
  <g
     style="stroke:none;fill-rule:evenodd;"
     transform="matrix(1,0,0,-1,0,900)"
     id="g90">
    <path
       d=" M0 835 L1.56319401867222E-13 65.0000045378561 A65 65 0 0 1 65.0000045378561 1.56319401867222E-13 L534.999995462144 1.56319401867222E-13 A65 65 0 0 1 600 65.0000045378561 L599.999999999999 834.999987520896 A65 65 0 0 1 535.000004537856 900 L65.0000045378561 900 A65 65 0 0 1 1.56319401867222E-13 834.999995462144 Z"
       style="fill:rgb(255,255,255);stroke:rgb(0,0,0);"
       id="path2" />
    <path
       d=" M428.76 446.67 L428.77 723.329994879728 A26.67 26.67 0 0 1 402.100001861917 750 L197.900001861917 750 A26.67 26.67 0 0 1 171.23 723.329998138083 L171.24 723.33 L171.23 446.670001861917 A26.67 26.67 0 0 1 197.900001861917 420 L402.099998138083 420 A26.67 26.67 0 0 1 428.77 446.670001861917 Z"
       style="fill:rgb(0,0,255);"
       id="path4" />
    <path
       d=" M260.809189417351 169.722796381146 A16.52 16.52 0 0 0 268.010810582649 169.722796381146 L268.006688831518 169.726240460458 A2.53 2.53 0 0 1 269.195544704336 174.167027300346 L269.18814940787 174.162128999974 A11.29 11.29 0 0 1 262.780156153712 174.795358285302 L262.785049871164 174.794954292614 A54.54 54.54 0 0 0 246.827083799765 174.011352220221 L246.82 174.01 L237.53842585022 138.334656290523 A53.42 53.42 0 0 1 206.956044536027 139.026285803059 L206.95 139.02 L207.437581528808 137.271144177837 A51.6 51.6 0 0 0 237.079024619572 136.570280183818 L237.07 136.57 L236.311137599125 133.622802671151 A48.56 48.56 0 1 1 213.436022524692 39.5569997934699 L213.43 39.55 L178.59 39.55 L178.59 35 L421.41 35 L421.41 39.55 L386.563974964495 39.5569993927087 A48.56 48.56 0 0 1 421.585348476272 110.680848763668 L421.59 110.68 L424.193381845833 112.248135107653 A51.6 51.6 0 0 0 425.888490821967 108.854352885256 L425.89 108.85 L427.545482560222 109.607199735134 A53.42 53.42 0 0 1 356.409275893876 135.96011676663 L356.41 135.96 L345.03 158.11 L347.638490643429 163.565917864897 A1.95 1.95 0 0 0 349.242086277866 164.596431697783 L349.242672927248 164.59999555487 A4.8 4.8 0 0 1 351.624821741824 165.792091918863 L351.618120540292 165.795132589389 A2.64 2.64 0 0 1 349.965907814512 170.258522274351 L349.967374287208 170.267116313889 A72.71 72.71 0 0 1 327.410059908728 169.936937398591 L327.416340546929 169.928060278916 A2.39 2.39 0 0 1 327.783225227672 165.301503598584 L327.78 165.3 L340.156333058948 164.796163716647 A1.98 1.98 0 0 0 342.139137225613 161.902142809493 L342.13 161.91 L340.53 158.53 L247.18 158.53 L249.79260965738 168.557394985206 A32.67 32.67 0 0 1 260.803447722037 169.729451966176 Z M360.992142718004 127.038602181484 A43.4 43.4 0 0 0 414.969112225691 111.661613310399 L414.98 111.66 L386.207772870034 94.3760695552401 A10.02 10.02 0 0 1 376.326204092846 97.1911362303282 L376.33 97.19 Z M422.01 115.89 L419.396476901101 114.3226609671 A48.56 48.56 0 0 1 358.631808305976 131.633333301332 L358.64 131.63 L357.241634212581 134.339925518867 A51.6 51.6 0 0 0 422.004296536248 115.890303135202 Z M417.157960581383 108.019839379307 A43.4 43.4 0 1 0 335.562028883136 85.3855235817822 L335.56 85.38 L369.11802147145 85.3845455788446 A10.02 10.02 0 1 1 388.397631324427 90.7326156847733 L388.4 90.73 Z M272.53 91.43 L269.499807319622 91.32630125607 A48.56 48.56 0 0 1 240.306803636354 132.105830051719 L240.3 132.11 L241.081996805035 135.079738949751 A51.6 51.6 0 0 0 272.540679676546 91.432698155799 Z M226.813813075058 90.9538879020369 A6.68 6.68 0 0 0 227.344803681597 89.8551718283912 L227.34 89.85 L264.647575809925 91.157148141027 A43.71 43.71 0 0 1 239.069587025182 127.350915531698 L239.06 127.35 L233.244665462066 104.983808341292 A29.91 29.91 0 0 0 226.811565510593 90.9513162177757 Z M223.557447417871 93.7175843320925 A6.68 6.68 0 1 1 227.493157978753 85.6068531588114 L227.49 85.61 L264.795883896112 86.910155970636 A43.71 43.71 0 1 0 235.086493096356 128.91848078599 L235.08 128.91 L229.052542358379 105.76774415763 A25.84 25.84 0 0 0 223.551242819142 93.7131996944867 Z M314.87 59.89 L314.87 55.64 L303.34 55.64 L303.34 59.89 L307.28 59.89 L307.288749440262 73.0542763446912 A14.57 14.57 0 0 0 297.021072000867 95.6428174596365 L297.02 95.64 L243.5 144.37 L241.545082649664 136.858616939033 A53.42 53.42 0 0 0 273.987060856839 80.0536367639561 L273.98 80.05 L272.184876826423 80.3076696762348 A51.6 51.6 0 0 1 272.688981986353 87.1858735245845 L272.68 87.18 L269.648095142894 87.0798882777393 A48.56 48.56 0 0 0 228.743981659997 39.5570004614057 L228.74 39.55 L371.256017503065 39.5570005949929 A48.56 48.56 0 0 0 330.396495856383 85.3854963621398 L330.4 85.38 L327.353762421843 85.385296071295 A51.6 51.6 0 0 1 328.124421720628 78.3784591207311 L328.13 78.38 L326.333146622999 78.0563822283017 A53.42 53.42 0 0 0 325.53226851624 85.3853396394569 L325.54 85.38 L323.524234593861 85.3852079929717 A14.57 14.57 0 0 0 310.931250307438 73.0542763129044 L310.93 73.05 L310.93 59.89 Z M303.34 119.38 L314.87 119.38 L314.87 115.13 L310.93 115.13 L310.931249298238 101.965723814243 A14.57 14.57 0 0 0 313.381726627812 101.439725468122 L313.38 101.44 L338.51 154.28 L246.08 154.28 L244.71 149.01 L299.881983880145 98.7851327482961 A14.57 14.57 0 0 0 307.288750449462 101.965723782456 L307.28 101.96 L307.28 115.13 L303.34 115.13 Z M354.852344007331 129.69178265719 A48.56 48.56 0 0 1 330.396495633906 89.634498557538 L330.4 89.63 L327.35376238476 89.634703028879 A51.6 51.6 0 0 0 353.461804607596 132.398187213008 L353.47 132.4 Z M357.212721762597 125.09707380322 A43.4 43.4 0 0 1 335.56202873482 89.6344733919585 L335.56 89.63 L369.118021694027 89.635455446569 A10.02 10.02 0 0 0 372.545036760466 95.2487106781024 L372.55 95.24 Z M352.629525448012 134.018419209024 A53.42 53.42 0 0 1 325.532268404994 89.6346575656916 L325.54 89.63 L323.524234853454 89.6347902459974 A14.57 14.57 0 0 1 317.219430313684 99.6146288661611 L317.21 99.61 L342.74 153.28 Z"
       style="fill:rgb(0,0,0);"
       id="path32" />
    <path
       d=" M232.32 839.17 L232.32 810.830004787438 A27.43 27.43 0 0 1 287.18 810.829995212562 L287.18 839.17 A27.43 27.43 0 0 1 232.32 839.17 Z M246.99 840.5 L246.99 809.500002004336 A12.76 12.76 0 0 1 272.51 809.499997995664 L272.51 840.5 A12.76 12.76 0 0 1 246.99 840.5 Z"
       style="fill:rgb(0,0,0);"
       id="path80" />
    <path
       d=" M156.18 785 L211.04 785 L211.04 798.33 L172.91 798.33 L209.44 851.67 L209.44 865 L157.78 865 L157.78 851.67 L192.72 851.67 L156.18 798.33 Z"
       style="fill:rgb(0,0,0);"
       id="path82" />
    <path
       d=" M311.82 785 L325.15 785 L325.15 838.13 L349.53 785 L366.67 785 L366.67 865 L353.34 865 L353.34 811.87 L328.96 865 L311.82 865 Z"
       style="fill:rgb(0,0,0);"
       id="path84" />
    <path
       d=" M394.67 785 L443.82 785 L443.82 798.33 L409.34 798.33 L409.34 819.67 L432.39 819.67 L432.39 833 L409.34 833 L409.34 851.67 L443.82 851.67 L443.82 865 L394.67 865 Z"
       style="fill:rgb(0,0,0);"
       id="path86" />
    <path
       d=" M320.4 578.99 L319.169265576735 581.442347875576 A13.65 13.65 0 0 0 318.40517917061 586.335984752139 L318.411216173355 586.331425964936 A29.5 29.5 0 0 1 317.284067410124 590.774051860364 L317.28 590.77 L284.52 646.58 L281.65 651.56 L278.53 656.29 L274.42 660.55 L269.79 663.34 L265.14 664.9 L260.47 665.72 L257.93 666.19 L256.17 666.71 L255.2 667.28 L254.72 667.92 L254.46 669.05 L254.459102654215 678.68517649137 A16.76 16.76 0 0 1 265.259999999998 694.350009068033 L265.26 696.57 A16.76 16.76 0 0 1 231.74 696.57 L231.740000000002 694.350009068033 A16.76 16.76 0 0 1 242.540897345785 678.68517649137 L242.54 678.68 L242.536017291481 668.967542859994 A2.1 2.1 0 0 0 240.609574483692 666.444001323193 L240.604882264419 666.440888349889 A35.04 35.04 0 0 1 223.419897825376 660.984071318113 L223.430652456525 660.985105877401 A48.84 48.84 0 0 1 207.023769577451 626.497243708297 L207.02 626.5 L207.010000000003 576.990005561143 A5.59 5.59 0 1 1 218.189999999997 576.990005561143 L218.190490647623 626.877795823313 A12.83 12.83 0 0 0 219.822038523701 633.252152886614 L219.828256846244 633.256642003925 A5.58 5.58 0 0 0 225.065487692879 635.675951216871 L225.066254689602 635.678882714744 A3.33 3.33 0 0 0 228.255425050852 631.749591192393 L228.25 631.75 L228.25 482.37 A7.82 7.82 0 0 1 243.89 482.37 L243.9 482.37 L243.900000000003 563.020005372123 A5.4 5.4 0 0 0 254.699999999997 563.020005372123 L254.7 464.49 A7.82 7.82 0 0 1 270.34 464.49 L270.344671581445 629.8133559574 A8 8 0 0 0 272.104513579985 634.551856852086 L272.103580325347 634.556552449734 A5.56 5.56 0 0 0 279.212104804183 632.4490382187 L279.21 632.44 L307.325403492511 584.925030544414 A15.34 15.34 0 0 1 311.229416126004 582.200534731448 L311.226126067451 582.196100339379 A11.86 11.86 0 0 0 317.335853076463 572.566427096548 L317.343756798451 572.574578597059 A8.62 8.62 0 0 1 326.662075031282 565.44928950244 L326.66 565.44 L349.32 565.44 L335.16 514.78 L347.08 514.78 L347.090000000002 477.900003332706 A3.35 3.35 0 1 1 353.789999999998 477.900003332706 L353.784129987961 514.784296857065 A35.46 35.46 0 0 0 364.215870012039 514.784296857065 L364.22 514.78 L364.22 486.1 A3.35 3.35 0 0 1 370.92 486.1 L370.92 514.78 L384.34 514.78 L368.505691249162 559.371206197975 A1.03 1.03 0 0 0 370.401284195302 560.138584796497 L370.41 560.14 L387.885472410999 543.503343025092 A2.72 2.72 0 1 1 392.320193165593 546.605951609827 L392.32 546.6 L370.568716835207 567.984587929073 A14.07 14.07 0 0 1 363.446478191904 572.418304666815 L363.446767684027 572.419482098476 A8.03 8.03 0 0 0 361.646422869306 580.591223154042 L361.640489554786 580.592064432926 A12.29 12.29 0 1 1 353.773315353413 580.64145542063 L353.778594436532 580.645388703817 A124.33 124.33 0 0 0 354.585601138301 576.361567205338 L354.574436473321 576.362018140834 A4.89 4.89 0 0 0 352.605964086375 571.409257339477 L352.61 571.4 L329.107820263749 571.402681617541 A4.13 4.13 0 0 0 324.063729281471 573.487787783771 L324.065713970152 573.482716667279 A6.32 6.32 0 0 1 320.397707176687 578.988645023568 Z"
       style="fill:rgb(255,255,255);"
       id="path88" />
  </g>
</svg>
