<?xml version="1.0" encoding="UTF-8"?>
<!DOCTYPE svg PUBLIC '-//W3C//DTD SVG 1.0//EN' 'http://www.w3.org/TR/2001/REC-SVG-20010904/DTD/svg10.dtd'>
<svg xmlns:xlink="http://www.w3.org/1999/xlink" xmlns="http://www.w3.org/2000/svg" width="400" height="599.99">
<!--Gegenereerd door de SIMaD-toepassing (http://www.dlw.be).-->
<g style="stroke:none;fill-rule:evenodd;" transform="matrix(1,0,0,-1,0,599.99)">
<path d=" M45 0 L355 0 L354.996513617556 1.35054030181436E-7 A45 45 0 0 1 399.999999870128 44.996581161798 L400 45 L400 555 A45 45 0 0 1 355.000016493361 599.999999999997 L355 599.99 L45 599.99 L45.0000502654825 599.999999999972 A45 45 0 0 1 3.01980662698043E-12 554.999983506639 L0 45 A45 45 0 0 1 45.0000164933614 3.01980662698043E-12 Z" style="fill:rgb(255,255,255);stroke:rgb(0,0,0);" />
<path d=" M164.072756149224 146.836595784839 A15.14 15.14 0 0 0 170.672788989608 146.835357352366 L170.670170206133 146.833044117119 A2.32 2.32 0 0 1 171.762308115469 150.904702398389 L171.763114821213 150.90255609293 A10.36 10.36 0 0 1 165.882763707392 151.481508313375 L165.883914165252 151.487032780303 A49.98 49.98 0 0 0 151.26012659547 150.769779472869 L151.26 150.76 L142.74 118.05 L142.734662682597 118.051500029582 A48.96 48.96 0 0 1 114.705577153184 118.685087934959 L114.71 118.69 L115.15 117.08 L115.147800422223 117.075072747129 A47.3 47.3 0 0 0 142.319086973586 116.431114830531 L142.32 116.44 L141.62 113.74 L141.614641230655 113.746451933952 A44.52 44.52 0 1 1 120.642967391718 27.5064736016967 L120.64 27.51 L88.71 27.51 L88.71 23.33 L311.29 23.33 L311.29 27.51 L279.36 27.51 L279.347036444823 27.5064742140485 A44.52 44.52 0 0 1 311.45500459271 92.7129850920356 L311.46 92.71 L313.85 94.14 L313.840342735212 94.1398160016873 A47.33 47.33 0 0 0 315.397337334945 91.027955225656 L315.4 91.03 L316.92 91.72 L316.924318478249 91.725849669418 A48.97 48.97 0 0 1 251.714237315374 115.884398720207 L251.71 115.88 L241.28 136.19 L243.66 141.19 L243.662375018101 141.195694635486 A1.79 1.79 0 0 0 245.13733940995 142.137053665465 L245.141035089934 142.135568162215 A4.39 4.39 0 0 1 247.316439302537 143.232348637241 L247.319937311606 143.228031465312 A2.42 2.42 0 0 1 245.805424832475 147.319477878069 L245.799472091002 147.313779067221 A66.64 66.64 0 0 1 225.125177592149 147.019281205502 L225.130720254382 147.01869993801 A2.19 2.19 0 0 1 225.464227247054 142.779091453055 L225.46 142.78 L236.81 142.31 L236.805534768743 142.307249193791 A1.81 1.81 0 0 0 238.619364734649 139.662573044114 L238.62 139.66 L237.15 136.57 L151.59 136.57 L153.98 145.76 L153.982245193395 145.750842187273 A29.94 29.94 0 0 1 164.072467866493 146.829812160095 Z" style="fill:rgb(178,178,178);" />
<path d=" M318.03 221.94 L318.03 475.55 L318.039999757959 475.546559678548 A24.45 24.45 0 0 1 293.593437334321 499.999999758379 L293.59 500 L106.41 500 L106.410002559351 499.99 A24.44 24.44 0 0 1 81.9700000000001 475.549999146883 L81.97 221.94 A24.44 24.44 0 0 1 106.410000853117 197.5 L293.59 197.5 A24.44 24.44 0 0 1 318.03 221.940000853117 Z" style="fill:rgb(178,178,178);" />
<path d=" M207.88 523.33 L216.77 523.33 L216.77 558.75 L233.02 523.33 L244.45 523.33 L244.45 576.66 L235.56 576.66 L235.56 541.24 L219.3 576.66 L207.88 576.66 L207.88 523.33 Z" style="fill:rgb(178,178,178);" />
<path d=" M104.12 523.33 L140.7 523.33 L140.7 532.22 L115.27 532.22 L139.62 567.78 L139.62 576.66 L105.19 576.66 L105.19 567.78 L128.48 567.78 L104.12 532.22 L104.12 523.33 Z" style="fill:rgb(178,178,178);" />
<path d=" M154.88 559.44 L154.88 540.55 A18.29 18.29 0 0 1 191.46 540.549998403896 L191.45 540.55 L191.45 559.44 L191.46 559.44 A18.29 18.29 0 0 1 154.88 559.44 Z" style="fill:rgb(178,178,178);" />
<path d=" M263.11 523.33 L295.88 523.33 L295.88 532.22 L272.89 532.22 L272.89 546.44 L288.26 546.44 L288.26 555.33 L272.89 555.33 L272.89 567.78 L295.88 567.78 L295.88 576.66 L263.11 576.66 L263.11 523.33 Z" style="fill:rgb(178,178,178);" />
<path d=" M248.245502314628 114.102336099369 A48.97 48.97 0 0 1 223.408599389596 73.4139481227977 L223.41 73.41 L221.56 73.41 L221.557709673057 73.4139406349558 A13.35 13.35 0 0 1 215.782860779565 82.5594129976119 L215.78 82.56 L239.18 131.76 L248.25 114.1 Z" style="fill:rgb(255,255,255);" />
<path d=" M203.06 100.68 L213.63 100.68 L213.63 96.78 L210.01 96.78 L210.01 84.72 L210.01227922444 84.7174346449259 A13.36 13.36 0 0 0 212.259893605086 84.2381230964882 L212.26 84.24 L235.3 132.68 L150.57 132.68 L149.31 127.84 L199.89 81.8 L199.889549502208 81.7997474521583 A13.36 13.36 0 0 0 206.6815430461 84.7154083827313 L206.68 84.72 L206.68 96.78 L203.06 96.78 L203.06 100.68 Z" style="fill:rgb(255,255,255);" />
<path d=" M213.63 46.14 L213.63 42.26 L203.06 42.26 L203.06 46.14 L206.68 46.14 L206.68 58.22 L206.670036524344 58.2248604390148 A13.35 13.35 0 0 0 197.264004999264 78.9228407163766 L197.26 78.92 L148.21 123.58 L146.41 116.7 L146.413128151465 116.706943801883 A48.97 48.97 0 0 0 176.15032093397 64.6326265481109 L176.15 64.63 L174.5 64.86 L174.495988265648 64.8637088891448 A47.26 47.26 0 0 1 174.959004805146 71.1633001023624 L174.96 71.17 L172.18 71.07 L172.178250844796 71.0753587454232 A44.52 44.52 0 0 0 134.676890656212 27.5064509449162 L134.68 27.51 L265.32 27.51 L265.313277006079 27.5065507789595 A44.51 44.51 0 0 0 227.862569388409 69.5137947684364 L227.87 69.52 L225.08 69.52 L225.070882560273 69.5238314370188 A47.3 47.3 0 0 1 225.779837656373 63.1011749462757 L225.78 63.1 L224.14 62.8 L224.139826910998 62.8037277063719 A48.94 48.94 0 0 0 223.408138799954 69.5182724903807 L223.41 69.52 L221.56 69.52 L221.547491431788 69.5245771464172 A13.35 13.35 0 0 0 210.010207129918 58.2248911615204 L210.01 58.22 L210.01 46.14 L213.63 46.14 Z" style="fill:rgb(255,255,255);" />
<path d=" M129.921224040034 77.1569381780334 A6.12 6.12 0 1 1 133.526173563268 69.7257500965713 L133.53 69.72 L167.72 70.92 L167.716218288517 70.9195670588904 A40.06 40.06 0 1 0 140.488360893184 109.420451338478 L140.49 109.42 L134.96 88.21 L134.962982853124 88.2091016693756 A23.68 23.68 0 0 0 129.92077884398 77.1625619713889 Z" style="fill:rgb(255,255,255);" />
<path d=" M252.440496093349 105.926550092387 A39.79 39.79 0 0 1 232.597306187065 73.4096877303608 L232.6 73.41 L263.37 73.41 L263.360190935903 73.4142592387802 A9.19 9.19 0 0 0 266.50611976457 78.5608408937718 L266.51 78.56 L252.45 105.92 Z" style="fill:rgb(255,255,255);" />
<path d=" M311.84 97.48 L309.45 96.05 L309.447890519186 96.0523636659639 A44.52 44.52 0 0 1 253.738426056699 111.922240708158 L253.75 111.92 L252.47 114.39 L252.469734157294 114.388543425757 A47.3 47.3 0 0 0 311.834561241927 97.4730667373697 Z" style="fill:rgb(255,255,255);" />
<path d=" M255.902408508657 107.710562051292 A39.79 39.79 0 0 0 305.389642151279 93.6128128481763 L305.39 93.61 L279.03 77.76 L279.017423679877 77.7589398570677 A9.18 9.18 0 0 1 269.964840502197 80.340085712661 L269.97 80.34 L255.91 107.7 Z" style="fill:rgb(255,255,255);" />
<path d=" M307.405114835379 90.2764303253353 A39.79 39.79 0 1 0 232.597845314035 69.5192973274133 L232.6 69.52 L263.37 69.52 L263.368235168254 69.525820017628 A9.18 9.18 0 1 1 281.033278287951 74.4194597146316 L281.03 74.42 L307.4 90.27 Z" style="fill:rgb(255,255,255);" />
<path d=" M311.61 221.94 L311.61 475.55 L311.619999671994 475.546560830999 A18.03 18.03 0 0 1 293.593436966221 493.579999672414 L293.59 493.58 L106.41 493.58 A18.03 18.03 0 0 1 88.3800000000001 475.549999370634 L88.3900000000001 475.55 L88.3900000000001 221.94 L88.3800000000002 221.940001888097 A18.03 18.03 0 0 1 106.410000629366 203.91 L106.41 203.92 L293.59 203.92 L293.589998111903 203.91 A18.03 18.03 0 0 1 311.62 221.940000629366 Z" style="fill:rgb(255,255,255);" />
<path d=" M164.66 560.34 L164.66 539.66 A8.51 8.51 0 1 1 181.68 539.65999940589 L181.67 539.66 L181.67 560.34 L181.68 560.34 A8.51 8.51 0 0 1 164.66 560.34 Z" style="fill:rgb(178,178,178);" />
<path d=" M250.278315458963 110.13927042513 A44.52 44.52 0 0 1 227.862349283864 73.4113878472305 L227.87 73.41 L225.08 73.41 L225.070364766508 73.4136830851703 A47.3 47.3 0 0 0 249.00774539264 112.610485295188 L249.01 112.61 L250.28 110.14 Z" style="fill:rgb(255,255,255);" />
<path d=" M174.82 75.06 L172.04 74.97 L172.0324685777 74.9663026643933 A44.51 44.51 0 0 1 145.275660886871 112.345770225388 L145.28 112.35 L145.99 115.07 L145.987304566165 115.075044517109 A47.3 47.3 0 0 0 174.823230897752 75.0643916432835 Z" style="fill:rgb(178,178,178);" />
<path d=" M132.911449919134 74.6309977390784 A6.15 6.15 0 0 0 133.396540409348 73.6176416227605 L133.39 73.61 L167.59 74.81 L167.580275275151 74.8129361280436 A40.06 40.06 0 0 1 144.137889523815 107.9841446133 L144.14 107.99 L138.8 87.49 L138.808211801486 87.4821724750649 A27.41 27.41 0 0 0 132.907226998694 74.6251373714802 Z" style="fill:rgb(255,255,255);" />
<path d=" M218.69 343.24 L217.57 345.49 L217.568397655056 345.476880065046 A12.52 12.52 0 0 0 216.875368800687 349.966614163898 L216.873518284151 349.963516385806 A27.04 27.04 0 0 1 215.837306996656 354.034896566973 L215.84 354.04 L185.82 405.2 L183.18 409.76 L180.32 414.1 L176.55 418 L172.31 420.56 L168.05 421.99 L163.76 422.74 L161.44 423.17 L159.82 423.65 L158.93 424.17 L158.49 424.76 L158.25 425.8 L158.25 434.63 L158.254877121723 434.624345888736 A15.37 15.37 0 0 1 168.159999999999 448.990004023857 L168.16 451.02 A15.37 15.37 0 0 1 137.42 451.02 L137.42 448.99 L137.420000002615 448.990283547761 A15.37 15.37 0 0 1 147.324861620643 434.624445277175 L147.33 434.63 L147.33 425.72 L147.329801094322 425.721856892116 A1.93 1.93 0 0 0 145.55798886588 423.403609949276 L145.552618971936 423.41366417969 A32.12 32.12 0 0 1 129.801306013084 418.406579069493 L129.80542583898 418.393862159991 A44.77 44.77 0 0 1 114.76044286955 386.78252960918 L114.76 386.79 L114.76 341.4 L114.770000000006 341.400007685034 A5.12 5.12 0 1 1 125.009999999999 341.400002591465 L125.01 387.14 L125.010426746712 387.139815667139 A11.76 11.76 0 0 0 126.507229009133 392.982223575325 L126.508427199373 392.977657611533 A5.12 5.12 0 0 0 131.313269671962 395.198922015186 L131.311386355651 395.198913947804 A3.05 3.05 0 0 0 134.229582961274 391.597730085523 L134.23 391.6 L134.23 254.67 A7.17 7.17 0 0 1 148.57 254.67 L148.57 328.6 A4.95 4.95 0 0 0 158.469999999999 328.600002419026 L158.47 238.28 A7.17 7.17 0 0 1 172.81 238.28 L172.81 389.82 L172.814694420145 389.822294036817 A7.33 7.33 0 0 0 174.43415994688 394.161335598303 L174.434153912574 394.161499082238 A5.09 5.09 0 0 0 180.941908243246 392.232577589537 L180.94 392.23 L206.71 348.68 L206.711866555832 348.682647303538 A14.05 14.05 0 0 1 210.288313971702 346.188323190913 L210.294823719035 346.186868723871 A10.88 10.88 0 0 0 215.897982982925 337.35181322805 L215.893425204746 337.356113588826 A7.9 7.9 0 0 1 224.433441674041 330.826010831402 L224.44 330.82 L245.21 330.82 L232.23 284.38 L243.16 284.38 L243.16 250.58 A3.07 3.07 0 1 1 249.3 250.580001553867 L249.31 250.58 L249.31 284.38 L249.303728129339 284.388493313392 A32.49 32.49 0 0 0 258.861743545474 284.384705441227 L258.86 284.38 L258.86 258.09 A3.08 3.08 0 0 1 265.02 258.09 L265.02 284.38 L277.31 284.38 L262.8 325.25 L262.80310448999 325.252733880356 A0.94 0.94 0 0 0 264.531546606521 325.956794454119 L264.53 325.96 L280.57 310.71 L280.566191166371 310.705646198657 A2.49 2.49 0 1 1 284.626077360914 313.545672841825 L284.63 313.55 L264.69 333.15 L264.681258564392 333.142143792871 A12.9 12.9 0 0 1 258.150730755932 337.20629905807 L258.148556520433 337.211064886295 A7.37 7.37 0 0 0 256.502606826669 344.71256786964 L256.510091096624 344.710436689864 A11.27 11.27 0 1 1 249.295847358256 344.755728445118 L249.287988375381 344.75522792565 A113.93 113.93 0 0 0 250.03185464111 340.830565738698 L250.032644411444 340.831375167781 A4.49 4.49 0 0 0 248.223177841719 336.284549320859 L248.23 336.28 L226.68 336.28 L226.677197043357 336.274182461868 A3.79 3.79 0 0 0 222.048618501415 338.188263208192 L222.055978173359 338.195769732388 A5.79 5.79 0 0 1 218.693334039959 343.238474315881 Z" style="fill:rgb(178,178,178);" />
<path d=" M0.0875521037238585 42.1942872626941 A45 45 0 0 1 29.806719108545 2.64242434046363 L29.8 2.65000000000001 L399.91 557.8 L399.902681860346 557.801965044638 A45 45 0 0 1 370.186815332212 597.356307721031 L370.19 597.35 L0.0899999999999181 42.19 Z" style="fill:rgb(0,0,0);" />
</g>
</svg>
