<?xml version="1.0" encoding="UTF-8"?>
<!DOCTYPE svg PUBLIC '-//W3C//DTD SVG 1.0//EN' 'http://www.w3.org/TR/2001/REC-SVG-20010904/DTD/svg10.dtd'>
<svg xmlns:xlink="http://www.w3.org/1999/xlink" xmlns="http://www.w3.org/2000/svg" width="600.000000969554" height="899.999999999998">
<!--Gegenereerd door de SIMaD-toepassing (http://www.dlw.be).-->
<g style="stroke:none;fill-rule:evenodd;" transform="matrix(1,0,0,-1,0,899.999999999998)">
<path d=" M65 0 L534.999995462144 1.56319401867222E-13 A65 65 0 0 1 600 65.0000045378561 L599.999999999999 834.999987520896 A65 65 0 0 1 535.000004537856 900 L65.0000045378561 900 A65 65 0 0 1 1.56319401867222E-13 834.999995462144 L1.56319401867222E-13 65.0000045378561 A65 65 0 0 1 65.0000045378561 1.56319401867222E-13 Z" style="fill:rgb(0,0,255);" />
<path d=" M65 15 L534.999996509342 15.0000000000001 A50 50 0 0 1 585 65.0000034906585 L584.999999999999 834.999990400689 A50 50 0 0 1 535.000003490658 885 L65.0000034906585 885 A50 50 0 0 1 15.0000000000001 834.999996509341 L15.0000000000001 65.0000034906585 A50 50 0 0 1 65.0000034906585 15.0000000000001 Z" style="fill:rgb(255,255,255);" />
<path d=" M65 30 L534.999997556539 30.0000000000001 A35 35 0 0 1 570 65.000002443461 L569.999999999999 834.999993280482 A35 35 0 0 1 535.000002443461 870 L65.000002443461 870 A35 35 0 0 1 30.0000000000001 834.999997556539 L30.0000000000001 65.000002443461 A35 35 0 0 1 65.000002443461 30.0000000000001 Z" style="fill:rgb(0,0,255);" />
<path d=" M84.77 328.61 L84.77 294.35 L80.7 294.35 L80.7 287.5 L519.3 287.5 L519.3 294.35 L514.53 294.35 L514.53 329.89 L522.08522996174 329.894070888819 A202.36 202.36 0 0 1 531.796282482871 371.492248803554 L531.81 371.49 L531.899799586569 391.166057244267 A23.02 23.02 0 0 1 529.387196596243 401.528264089372 L529.396165099782 401.530733954593 A10.06 10.06 0 0 1 522.030045986354 406.524892025283 L522.03 406.53 L490.16 474.32 L348.54 474.32 L316.669954013646 406.524892025283 A10.06 10.06 0 0 1 309.303834900218 401.530733954593 L309.302803403757 401.528264089372 A23.02 23.02 0 0 1 306.790200413431 391.166057244267 L306.79 391.17 L306.893717517129 371.492248803554 A202.36 202.36 0 0 1 316.60477003826 329.894070888819 L316.6 329.89 L324.16 329.89 L324.16 294.35 L274.67 294.35 L274.67 328.61 L290.34 328.61 L290.33 596.839996993496 A15.66 15.66 0 0 1 274.670001093274 612.5 L84.7700010932742 612.5 A15.66 15.66 0 0 1 69.11 596.839998906726 L69.1 596.84 L69.1 328.61 Z M492.89 294.35 L345.8 294.35 L345.8 329.89 L492.89 329.89 Z M484.86 465.97 L512.099824179666 408.014118117178 A798.71 798.71 0 0 1 326.603776286472 408.019215587358 L326.6 408.02 L353.84 465.97 Z M247.27 294.35 L112.17 294.35 L112.17 328.61 L247.27 328.61 Z" style="fill:rgb(255,255,255);" />
<path d=" M570 656.36 L30 116.36 L30 243.64 L570 783.64 Z" style="fill:rgb(255,0,0);" />
</g>
</svg>
