<?xml version="1.0" encoding="UTF-8"?><!DOCTYPE svg PUBLIC '-//W3C//DTD SVG 1.0//EN' 'http://www.w3.org/TR/2001/REC-SVG-20010904/DTD/svg10.dtd'><svg xmlns:xlink="http://www.w3.org/1999/xlink" xmlns="http://www.w3.org/2000/svg"><!--Gegenereerd door de SIMaD (http://www.dlw.be).-->
<g style="stroke:none;fill-rule:evenodd;" transform="matrix(1,0,0,-1,0,900)">
<path d=" M65 0 L534.999995462144 1.56319401867222E-13 A65 65 0 0 1 600 65.0000045378561 L599.999999999999 834.999987520896 A65 65 0 0 1 535.000004537856 900 L65.0000045378561 900 A65 65 0 0 1 1.56319401867222E-13 834.999995462144 L1.56319401867222E-13 65.0000045378561 A65 65 0 0 1 65.0000045378561 1.56319401867222E-13 Z" style="fill:rgb(0,0,255);" />
<path d=" M65 15 L534.999996509342 15.0000000000001 A50 50 0 0 1 585 65.0000034906585 L584.999999999999 834.999990400689 A50 50 0 0 1 535.000003490658 885 L65.0000034906585 885 A50 50 0 0 1 15.0000000000001 834.999996509341 L15.0000000000001 65.0000034906585 A50 50 0 0 1 65.0000034906585 15.0000000000001 Z" style="fill:rgb(255,255,255);" />
<path d=" M65 30 L534.999997556539 30.0000000000001 A35 35 0 0 1 570 65.000002443461 L569.999999999999 834.999993280482 A35 35 0 0 1 535.000002443461 870 L65.000002443461 870 A35 35 0 0 1 30.0000000000001 834.999997556539 L30.0000000000001 65.000002443461 A35 35 0 0 1 65.000002443461 30.0000000000001 Z" style="fill:rgb(0,0,255);" />
<path d=" M286 504.58 L354.77 504.58 L415.4 504.58 L464.8149897597 398.580369536696 A1530.18 1530.18 0 0 1 472.039309072992 381.937174839212 L472.043163925047 381.941061107433 A33.56 33.56 0 0 1 478.342665569516 372.237686500221 L478.346189257178 372.234516756402 A143.66 143.66 0 0 1 492.349640038984 358.011685314664 L492.344218742541 358.013466080507 A3.69 3.69 0 0 0 493.468793390054 355.454357434768 L493.468377756088 355.450948253213 A1045.04 1045.04 0 0 0 494.252825085287 295.506945921539 L494.248951565419 295.509269992711 A96.26 96.26 0 0 0 492.775715971953 278.277400449149 L492.781402221559 278.274145295461 A247.31 247.31 0 0 0 477.17461100678 231.453789838803 L477.17 231.46 L467.58 231.46 L467.58 167.08 L423.85 167.08 L423.85 231.46 L286 231.46 L148.16 231.46 L148.16 167.08 L104.43 167.08 L104.43 231.46 L94.8353889932199 231.453789838803 A247.31 247.31 0 0 0 79.2285977784407 278.274145295461 L79.2342840280469 278.277400449149 A96.26 96.26 0 0 0 77.7610484345812 295.509269992711 L77.7571749147135 295.506945921539 A1045.04 1045.04 0 0 0 78.5416222439119 355.450948253214 L78.5312066099463 355.454357434768 A3.69 3.69 0 0 0 79.6557812574588 358.013466080507 L79.660359961016 358.011685314664 A143.66 143.66 0 0 1 93.6638107428222 372.234516756402 L93.6673344304837 372.237686500221 A33.56 33.56 0 0 1 99.9668360749534 381.941061107433 L99.9706909270076 381.937174839212 A1530.18 1530.18 0 0 1 107.1950102403 398.580369536696 L107.19 398.58 L156.61 504.58 L217.23 504.58 Z" style="fill:rgb(255,0,0);" />
<path d=" M484.24 784.29 L489.24 784.29 L489.24 761.14 L489.250000000007 761.1400124435 A11.14 11.14 0 0 1 500.390004083023 750.000000000001 L509.24 750 L509.24 758.57 L501.81 758.57 A2.57 2.57 0 0 0 499.24 761.140000941954 L499.24 784.29 L509.24 784.29 L509.24 792.86 L499.24 792.86 L499.24 810 L489.24 804.23 L489.24 792.86 L484.24 792.86 L484.24 784.29 Z" style="fill:rgb(255,255,255);" />
<path d=" M451.48 750 L457.5 750 L457.497547288827 750.00000030079 A10 10 0 0 1 464.641144248248 752.999710089881 L464.64 753 L464.64 750 L474.64 750 L474.64 776.91 A17.14 17.14 0 0 1 440.63994359641 779.995141498824 L440.64 780 L450.55 780 L450.554397384449 779.994752037876 A7.14 7.14 0 0 0 463.174905939024 782.673017722468 L463.17478063883 782.673334612795 A5 5 0 0 0 459.200000349066 774.64 L451.48 774.64 A12.32 12.32 0 0 1 451.480001075123 750 Z M452.91 758.57 L459.64 758.57 A5 5 0 0 1 464.64 763.569997905605 L464.64 769.9 L464.64165755211 769.902740517093 A8.57 8.57 0 0 0 457.50000508554 766.070000000002 L452.91 766.07 A3.75 3.75 0 0 1 452.910000327249 758.57 Z" style="fill:rgb(255,255,255);" />
<path d=" M405.19 750 L411.21 750 L411.217547288827 750.00000030079 A10 10 0 0 1 418.361144248248 752.999710089881 L418.36 753 L418.36 750 L428.36 750 L428.36 776.91 L428.349999999826 776.910077180554 A17.14 17.14 0 0 1 394.34994359641 779.995141498824 L394.35 780 L404.27 780 L404.264397384449 779.994752037876 A7.14 7.14 0 0 0 416.884905939024 782.673017722468 L416.894780585889 782.673334682168 A5 5 0 0 0 412.920000436332 774.64 L405.19 774.64 A12.32 12.32 0 1 1 405.190001290147 750 Z M406.62 758.57 L413.36 758.57 A5 5 0 0 1 418.36 763.569997905605 L418.36 769.9 L418.35165755211 769.902740517093 A8.57 8.57 0 0 0 411.21000508554 766.070000000002 L406.62 766.07 A3.75 3.75 0 0 1 406.620000327249 758.57 Z" style="fill:rgb(255,255,255);" />
<path d=" M361.27 750 L371.27 750 L371.27 774.29 A10 10 0 0 0 381.270003665191 784.289999999999 L386.27 784.29 L386.27 792.86 L381.27 792.86 L381.273864333448 792.849999466676 A14 14 0 0 1 371.272699617191 788.650713497286 L371.27 788.66 L371.27 792.86 L361.27 792.86 L361.27 750 Z" style="fill:rgb(255,255,255);" />
<path d=" M326.67 784.29 L331.67 784.29 L331.67 761.14 A11.14 11.14 0 0 1 342.810004083023 750.000000000001 L351.67 750 L351.67 758.57 L344.24 758.57 A2.57 2.57 0 0 0 341.67 761.140000986809 L341.67 784.29 L351.67 784.29 L351.67 792.86 L341.67 792.86 L341.67 810 L331.67 804.23 L331.67 792.86 L326.67 792.86 L326.67 784.29 Z" style="fill:rgb(255,255,255);" />
<path d=" M292.18 762.39 L282.18 762.39 L282.180000018506 762.390678824868 A12.45 12.45 0 0 1 288.885567860113 751.344457940407 L288.889699574115 751.35222554621 A22.63 22.63 0 0 1 309.770526448233 751.352343077845 L309.768676604417 751.352736261649 A12.44 12.44 0 0 1 307.250321301658 774.405953175428 L307.25 774.41 L295.5 777.7 L295.508383707318 777.70163096583 A2.98 2.98 0 0 0 295.337967009274 783.40718479134 L295.332728411971 783.410764577085 A12.63 12.63 0 0 0 303.320657444713 783.41296929642 L303.325177178911 783.416135187932 A2.98 2.98 0 0 0 305.359998516535 780.587026542388 L305.36 780.58 L315.36 780.58 L315.359999902962 780.581587165417 A12.98 12.98 0 0 1 306.483122095868 792.894413874253 L306.47956652823 792.897592019783 A22.63 22.63 0 0 1 292.167069399373 792.899804000563 L292.175466075196 792.893943367587 A12.98 12.98 0 0 1 292.920439951928 768.042306580419 L292.92 768.04 L304.66 764.76 L304.652923441523 764.756834999988 A2.45 2.45 0 0 0 305.151402970489 760.216885341642 L305.153118253694 760.22249386333 A12.63 12.63 0 0 0 293.499347465052 760.226411690145 L293.502826888957 760.224688349284 A2.45 2.45 0 0 0 292.180002552371 762.396463531322 Z" style="fill:rgb(255,255,255);" />
<path d=" M247.7 762.39 L237.7 762.39 L237.690000018494 762.390678607575 A12.45 12.45 0 0 1 244.395568052894 751.344457840148 L244.399699574115 751.35222554621 A22.63 22.63 0 0 1 265.280526448233 751.352343077845 L265.278676604417 751.352736261649 A12.44 12.44 0 0 1 262.760321301659 774.405953175428 L262.76 774.41 L251.02 777.7 L251.018383707318 777.70163096583 A2.98 2.98 0 0 0 250.847967009274 783.40718479134 L250.852728411971 783.410764577085 A12.63 12.63 0 0 0 258.840657444713 783.41296929642 L258.835177178911 783.416135187932 A2.98 2.98 0 0 0 260.869998516535 780.587026542388 L260.87 780.58 L270.87 780.58 L270.869999902962 780.581587165417 A12.98 12.98 0 0 1 261.993122095868 792.894413874253 L261.99956652823 792.897592019783 A22.63 22.63 0 0 1 247.687069399373 792.899804000563 L247.685466075196 792.893943367587 A12.98 12.98 0 0 1 248.430439951928 768.042306580419 L248.43 768.04 L260.17 764.76 L260.172923441523 764.756834999988 A2.45 2.45 0 0 0 260.671402970489 760.216885341642 L260.673118253694 760.22249386333 A12.63 12.63 0 0 0 249.019347465052 760.226411690145 L249.012826888957 760.224688349284 A2.45 2.45 0 0 0 247.690002552371 762.396463531322 Z" style="fill:rgb(255,255,255);" />
<path d=" M203.7 784.29 L208.7 784.29 L208.7 761.14 A11.14 11.14 0 0 1 219.840004083023 750.000000000001 L228.7 750 L228.7 758.57 L221.27 758.57 A2.57 2.57 0 0 0 218.7 761.140000986809 L218.7 784.29 L228.7 784.29 L228.7 792.86 L218.7 792.86 L218.7 810 L208.7 804.23 L208.7 792.86 L203.7 792.86 L203.7 784.29 Z" style="fill:rgb(255,255,255);" />
<path d=" M159.21 776.57 L159.21 765.94 L159.220000000004 765.939987734873 A17.14 17.14 0 0 1 192.814399054187 761.140796757214 L192.81 761.14 L182.65 761.14 L182.654616537253 761.149925423831 A7.14 7.14 0 0 0 169.220000000001 764.52000286618 L169.21 764.52 L169.21 768 L193.5 768 L193.5 776.57 A17.14 17.14 0 0 1 159.22 776.57 Z M169.21 778.34 L169.21 776.57 L183.5 776.57 L183.5 778.34 A7.14 7.14 0 0 1 169.22 778.34 Z" style="fill:rgb(255,255,255);" />
<path d=" M137.93 808.29 L137.93 799.71 L146.5 799.71 L146.5 808.29 L137.93 808.29 Z" style="fill:rgb(255,255,255);" />
<path d=" M137.22 750 L147.21 750 L147.21 792.86 L137.22 792.86 L137.22 750 Z" style="fill:rgb(255,255,255);" />
<path d=" M90.76 750 L101.76 750 L101.76 776 L119.04 776 L119.04 786 L101.76 786 L101.76 800 L127.62 800 L127.62 810 L90.76 810 L90.76 750 Z" style="fill:rgb(255,255,255);" />
<path d=" M139.7 292.96 L431.65 292.96 L431.65 282.46 L139.7 282.46 Z" style="fill:rgb(0,0,255);" />
<path d=" M468.01 327.02 A22.04 22.04 0 0 1 423.93 327.02 A22.04 22.04 0 0 1 468.01 327.02 Z" style="fill:rgb(255,255,255);" />
<path d=" M148.08 327.74 A22.05 22.05 0 0 1 103.98 327.74 A22.05 22.05 0 0 1 148.08 327.74 Z" style="fill:rgb(255,255,255);" />
<path d=" M291.14 487.67 L194.75 487.67 L177.29 487.67 L123.317078068497 370.61258724094 A1782.03 1782.03 0 0 0 288.920103725941 380.41009106409 L288.920448544467 380.410093029695 A1782 1782 0 0 0 291.139961950596 380.436524549095 A1782 1782 0 0 0 293.359551455533 380.410093029695 L293.359896274059 380.41009106409 A1782.03 1782.03 0 0 0 458.962921931503 370.61258724094 L458.97 370.62 L404.99 487.67 L387.53 487.67 Z" style="fill:rgb(0,0,255);" />
<path d=" M186.52 263.37 L385.48 263.37 L385.48 252.87 L186.52 252.87 Z" style="fill:rgb(0,0,255);" />
<path d=" M185.87 321.89 L389.38 321.89 L389.38 311.39 L185.87 311.39 Z" style="fill:rgb(0,0,255);" />
<path d=" M325.82 188.52 L325.81 421.699999532252 A6.7 6.7 0 0 0 332.510000467748 428.4 L337.75 428.4 L342.989999532252 428.4 A6.7 6.7 0 0 0 349.69 421.699999532252 L349.68 421.7 L349.68 188.52 L369.42 188.52 L369.42 171.78 L325.82 171.78 Z" style="fill:rgb(255,255,255);" />
<path d=" M274.18 296.22 L274.19 421.699998713692 A6.7 6.7 0 0 1 267.490000467748 428.4 L262.25 428.4 L257.010000467748 428.4 A6.7 6.7 0 0 1 250.31 421.699999532252 L250.32 421.7 L250.32 296.22 L230.58 296.22 L230.58 279.48 L274.18 279.48 Z" style="fill:rgb(255,255,255);" />
<path d=" M282.96 574.26 L272.196365450691 572.02866311166 A240.77 240.77 0 0 1 252.395094425294 566.633719370385 L252.394028180521 566.632174513425 A21.65 21.65 0 0 1 249.220192561599 565.303698199282 L249.217411662311 565.307835480708 A18.05 18.05 0 0 1 246.966473851874 564.007005985312 L246.97 564 L232.674502324291 554.110139004371 A7.22 7.22 0 0 1 230.130649863393 550.348298414145 L230.13 550.35 L199.142697595544 440.379959648097 A13.07 13.07 0 0 1 198.647742259474 436.340197020835 L198.65 436.34 L178.72 436.34 L178.72 421.69 L232.05 421.69 L232.05 423.68 L275.17 440.08 L297.181164384711 440.088294992819 A1.76 1.76 0 0 1 296.373801766482 439.272610755224 L296.382144195115 439.270012680428 A31.11 31.11 0 0 1 293.367413984058 423.900819827941 L293.36 423.9 L293.360021937879 340.189572983618 A56.01 56.01 0 0 1 293.546201787811 335.576705886667 L293.55 335.57 L292.24 335.57 L292.239088315997 313.900306373756 A8.9 8.9 0 0 1 287.97 306.299999689331 L287.97 210.1 L287.97 113.900000621337 A8.9 8.9 0 0 1 296.870000621337 105 L300 105 L303.129999533997 105 A8.9 8.9 0 0 1 312.03 113.900000621337 L312.03 210.1 L312.03 306.299999533997 A8.9 8.9 0 0 1 307.760911684003 313.900306373756 L307.76 313.89 L307.76 335.57 L306.453798212189 335.576705886667 A56.01 56.01 0 0 1 306.639978062121 340.189572983618 L306.64 340.19 L306.632586015942 423.900819827941 A31.11 31.11 0 0 1 303.617855804885 439.270012680428 L303.626198233518 439.272610755224 A1.76 1.76 0 0 1 302.818835615289 440.088294992819 L302.82 440.08 L324.83 440.08 L367.95 423.68 L367.95 421.69 L421.28 421.69 L421.28 436.34 L401.352257748377 436.340197248815 A13.07 13.07 0 0 1 400.857302279142 440.379960086778 L400.86 440.38 L369.869350170786 550.348298292856 A7.22 7.22 0 0 1 367.325497775544 554.11013892748 L367.32 554.11 L353.033526148126 564.007005985312 A18.05 18.05 0 0 1 350.782588337689 565.307835480708 L350.779807774267 565.303698026148 A21.65 21.65 0 0 1 347.605971819479 566.632174513425 L347.604905574706 566.633719370385 A240.77 240.77 0 0 1 327.803634549309 572.02866311166 L327.81 572.03 L317.043818951387 574.250475831115 A39.74 39.74 0 1 1 282.956181048613 574.250475831115 Z M300 454.74 L344.69 454.74 L339.79 475.17 L351.55 547.54 L382.88 436.34 L367.95 436.34 L367.95 434.35 L328.5 449.36 L300 449.36 L271.5 449.36 L232.05 434.35 L232.05 436.34 L217.12 436.34 L248.45 547.54 L260.21 475.17 L255.31 454.74 Z" style="fill:rgb(255,255,255);" />
</g>
</svg>
