<?xml version="1.0" encoding="UTF-8"?>
<!DOCTYPE svg PUBLIC '-//W3C//DTD SVG 1.0//EN' 'http://www.w3.org/TR/2001/REC-SVG-20010904/DTD/svg10.dtd'>
<svg xmlns:xlink="http://www.w3.org/1999/xlink" xmlns="http://www.w3.org/2000/svg" width="600.000000000049" height="899.999999999999">
<!--Gegenereerd door de SIMaD-toepassing (http://www.dlw.be).-->
<g style="stroke:none;fill-rule:evenodd;" transform="matrix(1,0,0,-1,0,899.999999999999)">
<path d=" M65 0 L534.999995462144 1.56319401867222E-13 A65 65 0 0 1 600 65.0000045378561 L599.999999999999 834.999987520896 A65 65 0 0 1 535.000004537856 900 L65.0000045378561 900 A65 65 0 0 1 1.56319401867222E-13 834.999995462144 L1.56319401867222E-13 65.0000045378561 A65 65 0 0 1 65.0000045378561 1.56319401867222E-13 Z" style="fill:rgb(255,255,255);stroke:rgb(0,0,0);" />
<path d=" M525 345 A225 225 0 0 1 75 345 A225 225 0 0 1 525 345 Z" style="fill:rgb(255,0,0);" />
<path d=" M412.43 690 L470.78 690 L470.78 705.83 L429.84 705.83 L429.84 731.17 L457.21 731.17 L457.21 747 L429.84 747 L429.84 769.17 L470.78 769.17 L470.78 785 L412.43 785 Z" style="fill:rgb(0,0,0);" />
<path d=" M219.63 754.33 L219.63 720.670005116084 A32.57 32.57 0 0 1 284.77 720.669994883916 L284.77 754.33 A32.57 32.57 0 0 1 219.63 754.33 Z M237.05 755.91 L237.05 719.090002379756 A15.15 15.15 0 0 1 267.35 719.089997620244 L267.36 719.09 L267.35 755.91 A15.15 15.15 0 0 1 237.05 755.91 Z" style="fill:rgb(0,0,0);" />
<path d=" M314.03 690 L329.87 690 L329.87 753.1 L358.82 690 L379.18 690 L379.18 785 L363.34 785 L363.34 721.9 L334.39 785 L314.03 785 Z" style="fill:rgb(0,0,0);" />
<path d=" M129.22 690 L194.36 690 L194.36 705.83 L149.08 705.83 L192.46 769.17 L192.46 785 L131.12 785 L131.12 769.17 L172.6 769.17 L129.22 705.83 Z" style="fill:rgb(0,0,0);" />
<path d=" M460.31 345 A160.31 160.31 0 0 1 139.69 345 A160.31 160.31 0 0 1 460.31 345 Z" style="fill:rgb(255,255,255);" />
<path d=" M305.38 279.59 L431.43 279.59 L431.43 283.42 L428.42 283.42 L428.42 305.83 L433.193190911804 305.828815792767 A127.6 127.6 0 0 1 439.31659797929 332.058989727567 L439.31 332.06 L439.379873638807 344.470576506005 A14.52 14.52 0 0 1 437.795029566126 351.006621114135 L437.791998333354 351.002646544553 A6.34 6.34 0 0 1 433.149727044061 354.150061693075 L433.15 354.15 L413.05 396.9 L323.76 396.9 L303.660272955939 354.150061693075 A6.34 6.34 0 0 1 299.018001611971 351.002646448351 L299.014970549007 351.006621339894 A14.52 14.52 0 0 1 297.43012636225 344.470576759425 L297.43 344.47 L297.493402844384 332.058983097414 A127.6 127.6 0 0 1 303.616810552918 305.828811586412 L303.62 305.83 L308.39 305.83 L308.39 283.42 L305.38 283.42 Z M414.78 283.42 L322.03 283.42 L322.03 305.83 L414.78 305.83 Z M409.71 391.63 L426.883884863295 355.091456948697 A503.61 503.61 0 0 1 309.923597776048 355.09467002117 L309.93 355.09 L327.1 391.63 Z" style="fill:rgb(178,178,178);" />
<path d=" M281.477177368861 323.514467824301 A6.47 6.47 0 0 1 270.275800345178 324.779362740668 L270.277858922326 324.791314614766 A6.48 6.48 0 0 1 261.57145286131 319.095094682576 L261.57235173653 319.089673035216 A5.68 5.68 0 0 1 263.159563503193 307.980569573454 L263.155855838085 307.98945014169 A5.68 5.68 0 0 1 272.222494542947 306.619826533623 L272.220124151316 306.613170071397 A4.59 4.59 0 0 1 279.767517550117 306.91379201847 L279.769018507517 306.915831510838 A6.06 6.06 0 0 1 286.429702041748 317.039743704672 L286.429075327262 317.040576233258 A4.57 4.57 0 0 1 281.482029207359 323.514370296998 L281.48 323.52 Z" style="fill:rgb(0,0,0);" />
<path d=" M251.148002852803 356.890254071182 A11.38 11.38 0 0 1 231.446044502028 359.115061512952 L231.450067058036 359.109839554944 A11.38 11.38 0 0 1 216.160113203968 349.106292822178 L216.15987170358 349.110164996818 A9.98 9.98 0 0 1 218.948669502218 329.591000767091 L218.944795997198 329.588012748956 A9.98 9.98 0 0 1 234.875263176381 327.181526074501 L234.875729991199 327.189030670034 A8.06 8.06 0 0 1 248.12888710228 327.716920308133 L248.136641436479 327.712228645285 A10.65 10.65 0 0 1 259.842298142677 345.504252550289 L259.837675088693 345.511931669661 A8.03 8.03 0 0 1 251.145162780133 356.887110146357 L251.15 356.89 Z" style="fill:rgb(0,0,0);" />
<path d=" M221.363768630421 409.440174612749 A16.48 16.48 0 0 1 192.832285886944 412.662039871129 L192.834798399562 412.655444135415 A16.49 16.49 0 0 1 170.679144704167 398.159970882049 L170.674543570518 398.162724033466 A14.46 14.46 0 0 1 174.715226553314 369.881450009232 L174.714203418786 369.883212860712 A14.46 14.46 0 0 1 197.795822197441 366.396459622974 L197.801405247792 366.394798787345 A11.68 11.68 0 0 1 217.006972872784 367.159780297641 L217.012335902804 367.168280563075 A15.43 15.43 0 0 1 233.97179931573 392.94583241664 L233.971474225702 392.948316891015 A11.64 11.64 0 0 1 221.371120344346 409.437367671127 L221.37 409.44 Z" style="fill:rgb(0,0,0);" />
</g>
</svg>
