<?xml version="1.0" encoding="UTF-8"?>
<!DOCTYPE svg PUBLIC '-//W3C//DTD SVG 1.0//EN' 'http://www.w3.org/TR/2001/REC-SVG-20010904/DTD/svg10.dtd'>
<svg xmlns:xlink="http://www.w3.org/1999/xlink" xmlns="http://www.w3.org/2000/svg" width="599.999999999999" height="899.999999999999">
<!--Gegenereerd door de SIMaD-toepassing (http://www.dlw.be).-->
<g style="stroke:none;fill-rule:evenodd;" transform="matrix(1,0,0,-1,0,899.999999999999)">
<path d=" M65 0 L534.999995462144 1.56319401867222E-13 A65 65 0 0 1 600 65.0000045378561 L599.999999999999 834.999987520896 A65 65 0 0 1 535.000004537856 900 L65.0000045378561 900 A65 65 0 0 1 1.56319401867222E-13 834.999995462144 L1.56319401867222E-13 65.0000045378561 A65 65 0 0 1 65.0000045378561 1.56319401867222E-13 Z" style="fill:rgb(255,255,255);stroke:rgb(0,0,0);" />
<path d=" M412.43 755 L470.78 755 L470.78 770.83 L429.84 770.83 L429.84 796.17 L457.21 796.17 L457.21 812 L429.84 812 L429.84 834.17 L470.78 834.17 L470.78 850 L412.43 850 Z" style="fill:rgb(178,178,178);" />
<path d=" M314.03 755 L329.87 755 L329.87 818.1 L358.82 755 L379.18 755 L379.18 850 L363.34 850 L363.34 786.9 L334.39 850 L314.03 850 Z" style="fill:rgb(178,178,178);" />
<path d=" M219.63 819.33 L219.63 785.670005116084 A32.57 32.57 0 0 1 284.77 785.669994883916 L284.77 819.33 A32.57 32.57 0 0 1 219.63 819.33 Z M237.05 820.91 L237.05 784.090002379756 A15.15 15.15 0 0 1 267.35 784.089997620244 L267.36 784.09 L267.35 820.91 A15.15 15.15 0 0 1 237.05 820.91 Z" style="fill:rgb(178,178,178);" />
<path d=" M129.22 755 L194.36 755 L194.36 770.83 L149.08 770.83 L192.46 834.17 L192.46 850 L131.12 850 L131.12 834.17 L172.6 834.17 L129.22 770.83 Z" style="fill:rgb(178,178,178);" />
<path d=" M500 450 A200 200 0 0 1 100 450 A200 200 0 0 1 500 450 Z" style="fill:rgb(0,0,0);" />
<path d=" M490 450 A190 190 0 0 1 110 450 A190 190 0 0 1 490 450 Z" style="fill:rgb(255,255,255);" />
<path d=" M305.98 377.33 L446.03 377.33 L446.03 381.58 L442.69 381.58 L442.69 406.48 L447.985089150207 406.479019709566 A141.77 141.77 0 0 1 454.788501532319 435.622058571138 L454.79 435.62 L454.859859626508 449.407293603962 A16.13 16.13 0 0 1 453.099285599284 456.668064639876 L453.099272655458 456.673463321904 A7.05 7.05 0 0 1 447.937125498522 460.173349359019 L447.94 460.17 L425.61 507.67 L326.4 507.67 L304.072874501478 460.173349359019 A7.05 7.05 0 0 1 298.910727344542 456.673463321904 L298.910714400716 456.668064639876 A16.13 16.13 0 0 1 297.150140373492 449.407293603962 L297.15 449.41 L297.221499382824 435.622051204705 A141.77 141.77 0 0 1 304.024912477172 406.479015036094 L304.02 406.48 L309.32 406.48 L309.32 381.58 L305.98 381.58 Z M427.53 381.58 L324.48 381.58 L324.48 406.48 L427.53 406.48 Z M421.9 501.81 L440.98359256757 461.212707382265 A559.57 559.57 0 0 1 311.026943880271 461.216277484057 L311.03 461.22 L330.11 501.81 Z" style="fill:rgb(178,178,178);" />
<path d=" M279.420109008054 426.135397783111 A7.19 7.19 0 0 1 266.972210893636 427.541053802998 L266.976509913696 427.547016238629 A7.2 7.2 0 0 1 257.302725401456 421.21788298064 L257.307383812584 421.21190792885 A6.31 6.31 0 0 1 259.070641739378 408.870632749534 L259.067491256745 408.877681407406 A6.31 6.31 0 0 1 269.139760663027 407.356145321683 L269.132360168128 407.346855634885 A5.1 5.1 0 0 1 277.518352881096 407.680880095717 L277.519586560329 407.690403641574 A6.73 6.73 0 0 1 284.91668230049 418.933626259479 L284.918753317832 418.939677738501 A5.08 5.08 0 0 1 279.419629841003 426.135930220732 L279.42 426.13 Z" style="fill:rgb(178,178,178);" />
<path d=" M245.718133221391 463.211881499099 A12.64 12.64 0 0 1 223.834762961831 465.683020872031 L223.838659778924 465.68170214148 A12.65 12.65 0 0 1 206.842357823391 454.561766625708 L206.843975670612 454.571245472417 A11.09 11.09 0 0 1 209.942950378717 432.881112074854 L209.941010782457 432.883944026646 A11.09 11.09 0 0 1 227.643303469545 430.209802020662 L227.646146491457 430.208475782073 A8.96 8.96 0 0 1 242.379184669533 430.795310913259 L242.368247381024 430.787961235697 A11.84 11.84 0 0 1 255.381860094769 450.568014102857 L255.388871481936 450.56211067024 A8.93 8.93 0 0 1 245.72210521263 463.212215919516 L245.72 463.21 Z" style="fill:rgb(178,178,178);" />
<path d=" M212.628719880037 521.594204924723 A18.31 18.31 0 0 1 180.928996030943 525.173837987886 L180.926786636031 525.172852318977 A18.32 18.32 0 0 1 156.312379096039 509.068724792141 L156.304783522996 509.062209403698 A16.06 16.06 0 0 1 160.792568357277 477.651610452854 L160.797271710919 477.647581650874 A16.07 16.07 0 0 1 186.448835595635 473.772607616956 L186.442006859276 473.773997282512 A12.98 12.98 0 0 1 207.785180348697 474.624122091446 L207.779615083156 474.626734391234 A17.15 17.15 0 0 1 226.629569309568 503.277740022297 L226.634189055032 503.279573456461 A12.93 12.93 0 0 1 212.637404300034 521.596019242927 L212.63 521.6 Z" style="fill:rgb(178,178,178);" />
<path d=" M599.95 836.82 L44.2870563426967 3.33844661428261 A65 65 0 0 0 -0.00330172499838 63.0971895017681 L0 63.1 L555.652943657303 896.581553385717 A65 65 0 0 0 599.943301724998 836.822810498232 Z" style="fill:rgb(0,0,0);" />
</g>
</svg>
