<?xml version="1.0" encoding="UTF-8"?>
<!DOCTYPE svg PUBLIC '-//W3C//DTD SVG 1.0//EN' 'http://www.w3.org/TR/2001/REC-SVG-20010904/DTD/svg10.dtd'>
<svg xmlns:xlink="http://www.w3.org/1999/xlink" xmlns="http://www.w3.org/2000/svg" width="900" height="599.999937082195">
<!--Gegenereerd door de SIMaD-toepassing (http://www.dlw.be).-->
<g style="stroke:none;fill-rule:evenodd;" transform="matrix(1,0,0,-1,0,599.999937082195)">
<path d=" M900 535 L899.999999999999 65.0000124791042 A65 65 0 0 0 835.000004537856 1.56319401867222E-13 L65.0000045378561 1.56319401867222E-13 A65 65 0 0 0 1.56319401867222E-13 65.0000045378561 L1.56319401867222E-13 534.999995462144 A65 65 0 0 0 65.0000045378561 600 L834.999995462144 600 A65 65 0 0 0 900 534.999995462144 Z" style="fill:rgb(255,255,255);stroke:rgb(0,0,0);" />
<path d=" M850 550 L850 50 L50 50 L50 550 Z" style="fill:rgb(0,0,255);" />
<path d=" M268.07 133.07 L202.57 263.24 L210.14 339.79 L237.49 284.39 L284.954550861381 269.45615233532 A13.84 13.84 0 0 1 289.073894504623 296.778328197244 L289.08 296.77 L253.24 305.57 L231.061237759153 353.331594948592 A18.63 18.63 0 0 1 221.783571402208 363.551255345195 L221.79 363.56 L202.12 369.45 L203.2 384.93 L207.823216310462 385.383318016611 A12.95 12.95 0 0 1 220.853082302381 394.119000824258 L220.86 394.12 L226.579620625455 419.316307039918 A11.95 11.95 0 0 1 215.973473582443 432.583018745524 L215.98 432.59 L196.726883565736 435.089169292927 A12.07 12.07 0 0 1 183.146258954459 424.175723102796 L183.14 424.17 L173.589310006073 382.148007568094 A8.65 8.65 0 0 0 162.416549372363 373.155474006803 L162.42 373.15 L145.73 372.95 L101.22 321.24 L100.855647469439 271.861801762018 A13.17 13.17 0 1 1 126.763995737056 274.503975142896 L126.76 274.5 L126.52 312.8 L154.08 342.38 L127.78 204.98 L77.33 120.16 L113.75128199194 102.108361179683 A8.41 8.41 0 0 1 122.601569290631 116.28473862483 L122.6 116.28 L112.86 121.55 L157.58 186.55 L172.18 235.19 L183.46 220.4 L247.33 103.39 L285.072950531178 123.388056080425 A7.72 7.72 0 0 1 277.858021936584 136.770240259386 L277.86 136.76 Z" style="fill:rgb(255,255,255);" />
<path d=" M778.11 469.91 L778.11 340.81 L628.1 340.37 L628.1 469.91 L707.61 523.04 L732.78 504.07 L732.78 517.21 L751.95 517.21 L751.95 489.62 Z M724.04 403.59 L684.42 403.59 L684.42 355.1 L642.66 354.97 L642.66 462.13 L707.11 505.19 L763.55 462.65 L763.55 355.33 L724.04 355.21 Z M724.04 428.6 L684.42 428.6 L684.42 469.91 L724.04 469.91 Z" style="fill:rgb(255,255,255);" />
<path d=" M352.2 412.66 L352.2 386.09 L335.98 386.09 L335.98 412.66 L326.839808534357 412.659998722789 A278.65 278.65 0 0 1 321.292194129656 451.979942364637 L321.289346227733 451.97423869783 A16.13 16.13 0 0 0 326.262656510866 467.343082807761 L326.26 467.34 L344.78 519.63 L462.34 519.63 L480.857343489134 467.343082807761 A16.13 16.13 0 0 0 485.830653772267 451.97423869783 L485.827805870344 451.979942364637 A278.65 278.65 0 0 1 480.280191465643 412.659998722789 L480.28 412.66 L471.14 412.66 L471.14 386.09 L454.92 386.09 L454.92 412.66 Z M351.55 450 A6.73 6.73 0 0 1 338.09 450 A6.73 6.73 0 0 1 351.55 450 Z M469.03 450 A6.73 6.73 0 0 1 455.57 450 A6.73 6.73 0 0 1 469.03 450 Z M451.56 435.33 L451.56 439.08 L355.56 439.08 L355.56 435.33 Z M369.81 428.12 L369.81 424.37 L437.31 424.37 L437.31 428.12 Z M473.269116620039 469.447439062123 A1209.18 1209.18 0 0 1 334.198703271905 470.447875867179 L334.2 470.45 L349.34 513.18 L457.78 513.18 Z M437.31 446.87 L437.31 450.62 L369.81 450.62 L369.81 446.87 Z" style="fill:rgb(255,255,255);" />
<path d=" M809.64 312.93 L583.344997567717 313.055498650105 A53.32 53.32 0 0 0 522.28 365.810003722438 L522.28 391.41 L507.86 391.41 L507.86 365.810002364572 A67.74 67.74 0 0 1 584.330276561367 298.634931178584 L584.33 298.64 L809.71 298.51 Z" style="fill:rgb(255,255,255);" />
<path d=" M490.52 184.67 L428.456867517718 178.197068840697 A8.14 8.14 0 1 0 427.962354891309 194.459935697597 L427.96 194.46 L493.71 203.55 L493.346336633784 215.653592492129 A22.18 22.18 0 1 0 513.699525137575 219.611554211672 L513.7 219.61 L513.66 207.08 L548.26 209.81 L572.094355937706 250.608308010439 A8.58 8.58 0 0 0 585.774523728535 240.585834046531 L585.77 240.58 L560.88 193.49 L526.31 189.52 L530.47 149.15 L553.35 124.8 L590.02 142.2 L602.005210089465 118.771096815881 A7.17 7.17 0 0 0 591.420206251313 109.685989611181 L591.42 109.68 L584.87 119.08 L545.33 99.93 L513.02 131.92 L475.57 112.84 L449.17 74.05 L427.93761659954 85.0884422830586 A6.58 6.58 0 0 0 433.428664169186 96.9462167805533 L433.43 96.94 L439.81 93.38 L459.7 126.55 L494.99 147.66 L490.52 184.67 Z" style="fill:rgb(255,255,255);" />
<path d=" M422.3 131.41 A27.38 27.38 0 0 1 367.54 131.41 A27.38 27.38 0 0 1 422.3 131.41 Z" style="fill:rgb(255,255,255);" />
</g>
</svg>
