<?xml version="1.0" encoding="UTF-8"?>
<!DOCTYPE svg PUBLIC '-//W3C//DTD SVG 1.0//EN' 'http://www.w3.org/TR/2001/REC-SVG-20010904/DTD/svg10.dtd'>
<svg xmlns:xlink="http://www.w3.org/1999/xlink" xmlns="http://www.w3.org/2000/svg" width="700.000000004298" height="900.000000000036">
<!--Gegenereerd door de SIMaD-toepassing (http://www.dlw.be).-->
<g style="stroke:none;fill-rule:evenodd;" transform="matrix(1,0,0,-1,0,900.000000000036)">
<path d=" M0 65 L1.83035808731802E-11 834.999951218047 A65 65 0 0 0 65.0000487819526 899.999999999982 L634.999951218047 899.999999999982 A65 65 0 0 0 699.999999999982 834.999951218047 L699.999999999838 65.0001452113938 A65 65 0 0 0 635.000048781953 1.83035808731802E-11 L65.0000487819526 1.83035808731802E-11 A65 65 0 0 0 1.83035808731802E-11 65.0000487819526 Z" style="fill:rgb(0,0,255);" />
<path d=" M15 65 L15.0000000000141 834.999962475421 A50 50 0 0 0 65.0000375245789 884.999999999986 L634.999962475421 884.999999999986 A50 50 0 0 0 684.999999999986 834.999962475421 L684.999999999875 65.0001117010721 A50 50 0 0 0 635.000037524579 15.0000000000141 L65.0000375245789 15.0000000000141 A50 50 0 0 0 15.0000000000141 65.0000375245789 Z" style="fill:rgb(255,255,255);" />
<path d=" M30 65 L30.0000000000099 834.999973732795 A35 35 0 0 0 65.0000262672052 869.99999999999 L634.999973732795 869.99999999999 A35 35 0 0 0 669.99999999999 834.999973732795 L669.999999999913 65.0000781907505 A35 35 0 0 0 635.000026267205 30.0000000000099 L65.0000262672052 30.0000000000099 A35 35 0 0 0 30.0000000000099 65.0000262672052 Z" style="fill:rgb(0,0,255);" />
<path d=" M340 55 L340 845 L360 845 L360 55 Z" style="fill:rgb(255,255,255);" />
<path d=" M295 130 L295 590.36 L186.07 699.29 L221.42 734.64 L80 770 L115.36 628.58 L150.71 663.93 L245 569.64 L245 130 Z" style="fill:rgb(255,255,255);" />
<path d=" M645 577.01 L503.58 541.65 L538.93 506.3 L485 452.36 L485 645 L535 645 L460 770 L385 645 L435 645 L435 130 L485 130 L485 381.65 L574.29 470.94 L609.64 435.59 Z" style="fill:rgb(255,255,255);" />
</g>
</svg>
