<?xml version="1.0" encoding="UTF-8"?>
<!DOCTYPE svg PUBLIC '-//W3C//DTD SVG 1.0//EN' 'http://www.w3.org/TR/2001/REC-SVG-20010904/DTD/svg10.dtd'>
<svg xmlns:xlink="http://www.w3.org/1999/xlink" xmlns="http://www.w3.org/2000/svg" width="700.000000004298" height="700.000000000036">
<!--Gegenereerd door de SIMaD-toepassing (http://www.dlw.be).-->
<g style="stroke:none;fill-rule:evenodd;" transform="matrix(1,0,0,-1,0,700.000000000036)">
<path d=" M635 700 L65.0000487819526 699.999999999982 A65 65 0 0 1 1.83035808731802E-11 634.999951218047 L1.83035808731802E-11 65.0000487819526 A65 65 0 0 1 65.0000487819526 1.83035808731802E-11 L634.999951218047 1.83035808731802E-11 A65 65 0 0 1 699.999999999982 65.0000487819526 L699.999999999838 634.999854788606 A65 65 0 0 1 635.000048781953 699.999999999982 Z" style="fill:rgb(0,0,255);" />
<path d=" M635 685 L65.0000375245789 684.999999999986 A50 50 0 0 1 15.0000000000141 634.999962475421 L15.0000000000141 65.0000375245789 A50 50 0 0 1 65.0000375245789 15.0000000000141 L634.999962475421 15.0000000000141 A50 50 0 0 1 684.999999999986 65.0000375245789 L684.999999999875 634.999888298928 A50 50 0 0 1 635.000037524579 684.999999999986 Z" style="fill:rgb(255,255,255);" />
<path d=" M635 670 L65.0000262672052 669.99999999999 A35 35 0 0 1 30.0000000000099 634.999973732795 L30.0000000000099 65.0000262672052 A35 35 0 0 1 65.0000262672052 30.0000000000099 L634.999973732795 30.0000000000099 A35 35 0 0 1 669.99999999999 65.0000262672052 L669.999999999913 634.99992180925 A35 35 0 0 1 635.000026267205 669.99999999999 Z" style="fill:rgb(0,0,255);" />
<path d=" M126 80 L126 365 L493 365 L493 340 L501 340 L501 390 L126 390 L126 550 L552 550 L552 80 L562 80 L562 612 L620 612 L620 620 L552 620 L552 575 L116 575 L116 80 Z" style="fill:rgb(255,255,255);" />
<path d=" M536 120 L536 170 L544 170 L544 120 Z" style="fill:rgb(255,255,255);" />
<path d=" M493 120 L493 170 L501 170 L501 120 Z" style="fill:rgb(255,255,255);" />
<path d=" M435.32 292.8 L410.44 292.8 L410.44 80 L385.56 80 L385.56 292.8 L360.68 292.8 L398 355 Z" style="fill:rgb(255,255,255);" />
<path d=" M156.5 354.13 L174.1 283.73 L191.7 301.33 L230.63 262.39 L230.63 80 L255.52 80 L255.52 272.7 L209.3 318.93 L226.9 336.53 Z" style="fill:rgb(255,255,255);" />
<path d=" M304 80 L304 135 L314 135 L314 80 Z" style="fill:rgb(255,255,255);" />
<path d=" M304 300 L304 355 L314 355 L314 300 Z" style="fill:rgb(255,255,255);" />
<path d=" M304 190 L304 245 L314 245 L314 190 Z" style="fill:rgb(255,255,255);" />
<path d=" M536 340 L536 390 L544 390 L544 340 Z" style="fill:rgb(255,255,255);" />
<path d=" M536 230 L536 280 L544 280 L544 230 Z" style="fill:rgb(255,255,255);" />
<path d=" M493 230 L493 280 L501 280 L501 230 Z" style="fill:rgb(255,255,255);" />
<path d=" M300.039254618204 452.362712020335 A37.77 37.77 0 0 0 299.670265172478 447.32808715661 L299.67 447.33 L300.997244127111 447.14243578126 A39.1 39.1 0 0 1 277.251816525868 488.720004290085 L277.25 488.72 L278.68 494.22 L317.855249600192 458.550293300763 A10.66 10.66 0 0 1 325.367494791059 442.023609790286 L325.37 442.02 L325.37 432.39 L322.48 432.39 L322.48 429.28 L330.92 429.28 L330.92 432.39 L328.03 432.39 L328.032498379006 442.023608929793 A10.66 10.66 0 0 1 337.246036013986 451.045418258275 L337.25 451.05 L338.730938049127 451.044879979276 A39.1 39.1 0 0 1 339.317127221804 445.680570635006 L339.31 445.68 L340.626131809859 445.915957526915 A37.77 37.77 0 0 0 340.06203478515 451.044724640846 L340.06 451.05 L342.294029434203 451.045119239049 A35.54 35.54 0 1 1 409.033156336307 469.558229426205 L409.03 469.56 L410.946379564889 470.707744799956 A37.77 37.77 0 0 0 412.187166576195 468.223561529339 L412.18 468.22 L413.398030607963 468.773750858552 A39.1 39.1 0 0 1 361.330943653897 488.06237700816 L361.33 488.06 L353 504.28 L354.897560379604 508.271674180577 A1.43 1.43 0 0 0 356.073530634653 509.027383287298 L356.078142620211 509.038496849738 A3.51 3.51 0 0 1 357.820087813375 509.910216675644 L357.817640262912 509.90859979844 A1.93 1.93 0 0 1 356.609772073761 513.171609221849 L356.605925759322 513.180884558203 A53.22 53.22 0 0 1 340.09510460992 512.939210320062 L340.098156811493 512.930713429614 A1.75 1.75 0 0 1 340.366796805245 509.543067473675 L340.37 509.54 L349.428879441138 509.169867269694 A1.45 1.45 0 0 0 350.880933814978 507.050508600757 L350.88 507.06 L349.7 504.59 L281.38 504.59 L283.285012388329 511.919322871469 A23.91 23.91 0 0 1 291.343421515022 512.777107318049 L291.344793824101 512.779313048246 A12.09 12.09 0 0 0 296.6152061759 512.779313048246 L296.62200611288 512.776500017679 A1.85 1.85 0 0 1 297.491328025042 516.023714893246 L297.486454476122 516.026251198121 A8.27 8.27 0 0 1 292.792544640335 516.490097517608 L292.796886587945 516.494841527607 A39.92 39.92 0 0 0 281.11664686143 515.921292063854 L281.11 515.92 L274.319208647436 489.800369018916 A39.1 39.1 0 0 1 251.934831069732 490.306597298142 L251.93 490.31 L252.286763705879 489.024004837056 A37.77 37.77 0 0 0 273.983582275211 488.510988038863 L273.98 488.51 L273.420013563695 486.348951062228 A35.54 35.54 0 1 1 297.818605865833 452.28520941414 L297.82 452.29 Z M360.187751857994 483.480596098269 A35.55 35.55 0 0 1 342.284039904976 454.155338718297 L342.29 454.16 L340.062033889382 454.155253623646 A37.77 37.77 0 0 0 359.172493866924 485.457098399923 L359.17 485.46 Z M358.5643849685 486.641167934722 A39.1 39.1 0 0 1 338.730937750566 454.155112520003 L338.73 454.16 L337.246036258179 454.154580085158 A10.66 10.66 0 0 1 332.633185097807 461.456235915735 L332.64 461.46 L351.32 500.74 Z M299.93 455.47 L297.71007570816 455.393087058084 A35.54 35.54 0 0 1 276.344375750227 485.238703018907 L276.34 485.25 L276.913657284 487.419950811201 A37.77 37.77 0 0 0 299.940702599441 455.471302790803 Z M266.470037960937 455.121047775412 A4.89 4.89 0 0 0 266.85873838167 454.316757068492 L266.85 454.32 L294.158446930254 455.269217360015 A31.99 31.99 0 0 1 275.438688563586 481.758343836483 L275.43 481.76 L271.168713963413 465.39152155298 A21.89 21.89 0 0 0 266.460571409935 455.121669623131 Z M322.48 475.93 L330.92 475.93 L330.92 472.82 L328.03 472.82 L328.032500224934 463.176390837642 A10.66 10.66 0 0 0 329.825360301621 462.791551549448 L329.83 462.8 L348.22 501.48 L280.57 501.48 L279.56 497.62 L319.94840796907 460.849339673446 A10.66 10.66 0 0 0 325.367508820116 463.176391977207 L325.37 463.18 L325.37 472.82 L322.48 472.82 Z M405.798562596552 467.613773427323 A31.77 31.77 0 1 0 346.068086282471 451.044830612671 L346.07 451.05 L370.636805746399 451.045153356379 A7.33 7.33 0 1 1 384.740552367476 454.957463220143 L384.74 454.96 Z M409.34 473.37 L407.431154725793 472.22361510059 A35.54 35.54 0 0 1 362.958852160278 484.892908367001 L362.95 484.9 L361.939260757364 486.878416688597 A37.77 37.77 0 0 0 409.344022871591 473.373721887918 Z M364.683627994664 481.53602746435 A31.77 31.77 0 0 0 404.196270569599 470.279643662035 L404.19 470.28 L383.13858717716 457.622786771491 A7.33 7.33 0 0 1 375.909863817382 459.682110223031 L375.91 459.69 Z M361.916988083466 480.11477480299 A31.77 31.77 0 0 1 346.068086798186 454.15517991003 L346.07 454.16 L370.636805827811 454.154847018685 A7.33 7.33 0 0 0 373.143794949542 458.261153109402 L373.14 458.26 Z M264.086260477931 457.144174631973 A4.89 4.89 0 1 1 266.967341888551 451.206828790193 L266.96 451.21 L294.266987588908 452.160995458988 A31.99 31.99 0 1 0 272.523602388279 482.90558876034 L272.52 482.91 L268.101090956973 465.972292031378 A18.91 18.91 0 0 0 264.07517557161 457.150635724714 Z" style="fill:rgb(255,255,255);" />
</g>
</svg>
