<?xml version="1.0" encoding="UTF-8"?>
<!DOCTYPE svg PUBLIC '-//W3C//DTD SVG 1.0//EN' 'http://www.w3.org/TR/2001/REC-SVG-20010904/DTD/svg10.dtd'>
<svg xmlns:xlink="http://www.w3.org/1999/xlink" xmlns="http://www.w3.org/2000/svg" width="700.000000004298" height="700.000000000036">
<!--Gegenereerd door de SIMaD-toepassing (http://www.dlw.be).-->
<g style="stroke:none;fill-rule:evenodd;" transform="matrix(1,0,0,-1,0,700.000000000036)">
<path d=" M0 65 L1.83035808731802E-11 634.999951218047 A65 65 0 0 0 65.0000487819526 699.999999999982 L634.999951218047 699.999999999982 A65 65 0 0 0 699.999999999982 634.999951218047 L699.999999999838 65.0001452113938 A65 65 0 0 0 635.000048781953 1.83035808731802E-11 L65.0000487819526 1.83035808731802E-11 A65 65 0 0 0 1.83035808731802E-11 65.0000487819526 Z" style="fill:rgb(0,0,255);" />
<path d=" M15 65 L15.0000000000141 634.999962475421 A50 50 0 0 0 65.0000375245789 684.999999999986 L634.999962475421 684.999999999986 A50 50 0 0 0 684.999999999986 634.999962475421 L684.999999999875 65.0001117010721 A50 50 0 0 0 635.000037524579 15.0000000000141 L65.0000375245789 15.0000000000141 A50 50 0 0 0 15.0000000000141 65.0000375245789 Z" style="fill:rgb(255,255,255);" />
<path d=" M30 65 L30.0000000000099 634.999973732795 A35 35 0 0 0 65.0000262672052 669.99999999999 L634.999973732795 669.99999999999 A35 35 0 0 0 669.99999999999 634.999973732795 L669.999999999913 65.0000781907505 A35 35 0 0 0 635.000026267205 30.0000000000099 L65.0000262672052 30.0000000000099 A35 35 0 0 0 30.0000000000099 65.0000262672052 Z" style="fill:rgb(0,0,255);" />
<path d=" M521 425 L521.000000000001 323.430008976228 A51.43 51.43 0 0 1 623.859999999999 323.429991023772 L623.86 425 L596.36 425 L596.36 320.929995823427 A23.93 23.93 0 0 0 548.5 320.930004176573 L548.5 425 Z" style="fill:rgb(255,255,255);" />
<path d=" M230 300 L230 400 L245 400 L245 300 Z" style="fill:rgb(255,255,255);" />
<path d=" M521 97.64 L521 102.86 L548.5 102.86 L548.5 97.6399979038596 A12.01 12.01 0 0 1 556.859536845615 86.1982248423385 L556.86160737246 86.2033448790315 A51.22 51.22 0 0 1 587.99839262754 86.2033448790315 L588.000472140733 86.1982277094091 A12.01 12.01 0 0 1 589.425651972624 108.524753421773 L589.42 108.52 L546.615318252177 139.483768290768 A37.61 37.61 0 0 0 553.143603446509 209.99502869735 L553.144213611035 210.000080289018 A77.44 77.44 0 0 0 591.715821731918 210.000071200797 L591.716457584199 209.99501300375 A37.61 37.61 0 0 0 619.959999999999 173.570010502693 L592.459999999999 173.569995941586 A10.11 10.11 0 0 1 584.867818049475 183.361460170462 L584.867161758126 183.366523623289 A49.94 49.94 0 0 1 559.992857657442 183.366528615882 L559.992203824863 183.361465795297 A10.11 10.11 0 0 1 558.237328094437 164.407228869637 L558.24 164.41 L601.047677519994 133.448206677217 A39.51 39.51 0 0 0 596.359163339732 59.9993292318053 L596.357041451107 60.0044328816895 A78.72 78.72 0 0 0 548.502927134826 60.0044429042317 L548.500844543712 59.9993267166128 A39.51 39.51 0 0 0 521.000000000001 97.6400068957959 Z" style="fill:rgb(255,255,255);" />
<path d=" M230 60 L230 160 L245 160 L245 60 Z" style="fill:rgb(255,255,255);" />
<path d=" M445 60 L445 140 L475 140 L475 60 Z" style="fill:rgb(255,255,255);" />
<path d=" M445 185 L445 265 L475 265 L475 185 Z" style="fill:rgb(255,255,255);" />
<path d=" M445 310 L445 390 L475 390 L475 310 Z" style="fill:rgb(255,255,255);" />
<path d=" M519.5 490 L585.360044680429 490.000000000025 A40 40 0 0 1 625.359999999987 529.999967885942 L625.36 539.999998429204 A30 30 0 0 1 605.737766984243 568.147858753744 A30 30 0 0 1 622.359999999998 594.999987957228 L622.359999999987 600.000032114058 A40 40 0 0 1 582.360044680429 639.999999999975 L519.5 640 Z M547 515 L582.860015969763 515.000000000009 A15 15 0 0 1 597.859999999994 529.99998717183 L597.859999999995 540.000012304571 A15 15 0 0 1 582.860016493361 554.999999999991 L547 555 Z M547 580 L579.860016493361 580.000000000009 A15 15 0 0 1 594.859999999995 594.999987695429 L594.859999999995 600.000012304571 A15 15 0 0 1 579.860016493361 614.999999999991 L547 615 Z" style="fill:rgb(255,255,255);" />
<path d=" M230 540 L230 640 L245 640 L245 540 Z" style="fill:rgb(255,255,255);" />
<path d=" M445 560 L445 640 L475 640 L475 560 Z" style="fill:rgb(255,255,255);" />
<path d=" M445 435 L445 515 L475 515 L475 435 Z" style="fill:rgb(255,255,255);" />
</g>
</svg>
