<?xml version="1.0" encoding="UTF-8"?>
<!DOCTYPE svg PUBLIC '-//W3C//DTD SVG 1.0//EN' 'http://www.w3.org/TR/2001/REC-SVG-20010904/DTD/svg10.dtd'>
<svg xmlns:xlink="http://www.w3.org/1999/xlink" xmlns="http://www.w3.org/2000/svg" width="600.000000000005" height="400.000000000001">
<!--Gegenereerd door de SIMaD-toepassing (http://www.dlw.be).-->
<g style="stroke:none;fill-rule:evenodd;" transform="matrix(1,0,0,-1,0,400.000000000001)">
<path d=" M45 0 L554.999996858407 1.06581410364015E-13 A45 45 0 0 1 600 45.0000031415927 L599.999999999999 354.99999136062 A45 45 0 0 1 555.000003141593 400 L45.0000031415927 400 A45 45 0 0 1 1.06581410364015E-13 354.999996858407 L1.06581410364015E-13 45.0000031415927 A45 45 0 0 1 45.0000031415927 1.06581410364015E-13 Z" style="fill:rgb(0,0,255);" />
<path d=" M45 15 L554.999997905605 15.0000000000001 A30 30 0 0 1 585 45.0000020943951 L584.999999999999 354.999994240413 A30 30 0 0 1 555.000002094395 385 L45.0000020943951 385 A30 30 0 0 1 15.0000000000001 354.999997905605 L15.0000000000001 45.0000020943951 A30 30 0 0 1 45.0000020943951 15.0000000000001 Z" style="fill:rgb(255,255,255);" />
<path d=" M45 30 L554.999998952802 30 A15 15 0 0 1 570 45.0000010471975 L570 354.999997120207 A15 15 0 0 1 555.000001047198 370 L45.0000010471975 370 A15 15 0 0 1 30 354.999998952802 L30 45.0000010471975 A15 15 0 0 1 45.0000010471975 30 Z" style="fill:rgb(0,0,255);" />
<path d=" M150 45 L150 355 L165 355 L165 45 Z" style="fill:rgb(255,255,255);" />
<path d=" M435 45 L435 355 L450 355 L450 45 Z" style="fill:rgb(255,255,255);" />
<path d=" M222.86 247.5 L252.270019960982 247.500000000011 A17.87 17.87 0 0 1 270.139999999994 265.369985653044 L270.14 269.829999298378 A13.4 13.4 0 0 1 261.375402586295 282.402710243339 L261.375398308106 282.406059235619 A13.4 13.4 0 0 1 268.799999999999 294.399994620895 L268.799999999994 296.630014346956 A17.87 17.87 0 0 1 250.930019960982 314.499999999989 L222.86 314.5 Z M235.14 258.67 L251.160007483972 258.670000000004 A6.7 6.7 0 0 1 257.859999999998 265.369994620895 L257.859999999998 269.830005379105 A6.7 6.7 0 0 1 251.160007483972 276.529999999996 L235.14 276.53 Z M235.14 287.7 L249.820007483972 287.700000000004 A6.7 6.7 0 0 1 256.519999999998 294.399994620895 L256.519999999998 296.630005379105 A6.7 6.7 0 0 1 249.820007483972 303.329999999996 L235.14 303.33 Z" style="fill:rgb(255,255,255);" />
<path d=" M223.53 233.5 L223.53 188.130003608119 A22.97 22.97 0 0 1 269.47 188.129996391881 L269.47 233.5 L257.19 233.5 L257.19 187.009997947667 A10.69 10.69 0 1 0 235.81 187.010002052333 L235.81 233.5 Z" style="fill:rgb(255,255,255);" />
<path d=" M223.53 102.31 L223.53 104.64 L235.81 104.64 L235.82 102.309998970954 A5.36 5.36 0 0 1 239.550817443172 97.2035957664392 L239.545591490978 97.2025092662103 A22.88 22.88 0 0 1 253.45440888946 97.2025093875877 L253.449186567388 97.2035970459977 A5.36 5.36 0 0 1 254.085236850397 107.167808354763 L254.09 107.17 L234.970009216607 121.004031036557 A16.8 16.8 0 0 0 237.886127322035 152.500685585266 L237.88564887404 152.500164994798 A34.59 34.59 0 0 0 255.114366912539 152.500160935377 L255.113900223732 152.500678502074 A16.8 16.8 0 0 0 267.729999999999 136.23000498466 L255.45 136.229998185556 A4.52 4.52 0 0 1 252.055671373257 140.607586545053 L252.056128931193 140.607071326303 A22.31 22.31 0 0 1 240.943879742442 140.607073556675 L240.944338253562 140.607589020523 A4.52 4.52 0 0 1 240.159765027946 132.133489002634 L240.16 132.13 L259.279225999965 118.306326061988 A17.65 17.65 0 0 0 257.184761360441 85.4950710514283 L257.18692552618 85.5035043206326 A35.16 35.16 0 0 0 235.813060442841 85.5035087971645 L235.815241867793 85.4950700214684 A17.65 17.65 0 0 0 223.53 102.310002772456 Z" style="fill:rgb(255,255,255);" />
<path d=" M347.44 288 L359.72 288 L359.72 343.83 L376.55 343.83 L376.55 355 L330.61 355 L330.61 343.83 L347.44 343.83 Z" style="fill:rgb(255,255,255);" />
<path d=" M328.7 207 L340.98 207 L340.98 236.03 L347.45 236.03 L364.27 207 L378.47 207 L361.305209862968 236.61507097212 A17.87 17.87 0 0 1 374.639999999994 253.900014346956 L374.639999999994 256.130014346956 A17.87 17.87 0 0 1 356.770019960982 273.999999999989 L328.7 274 Z M340.98 247.2 L355.660007483972 247.200000000004 A6.7 6.7 0 0 1 362.359999999998 253.899994620895 L362.359999999998 256.130005379105 A6.7 6.7 0 0 1 355.660007483972 262.829999999996 L340.98 262.83 Z" style="fill:rgb(255,255,255);" />
<path d=" M326.78 126 L339.58 126 L342.38 135.57 L364.78 135.57 L367.58 126 L380.38 126 L360.76 193 L346.4 193 Z M345.65 146.74 L361.51 146.74 L353.58 173.81 Z" style="fill:rgb(255,255,255);" />
<path d=" M324.47 45 L335.64 45 L335.64 85.85 L347.6 45 L359.24 45 L370.41 83.16 L370.41 45 L382.7 45 L382.7 112 L368.34 112 L353.58 61.61 L338.83 112 L324.47 112 Z" style="fill:rgb(255,255,255);" />
<path d=" M67.5 167.5 L90 130 L112.5 167.5 L97.5 167.5 L97.5 270 L82.5 270 L82.5 167.5 Z" style="fill:rgb(255,255,255);" />
<path d=" M532.5 232.5 L510 270 L487.5 232.5 L502.5 232.5 L502.5 130 L517.5 130 L517.5 232.5 Z" style="fill:rgb(255,255,255);" />
</g>
</svg>
