<?xml version="1.0" encoding="UTF-8"?>
<!DOCTYPE svg PUBLIC '-//W3C//DTD SVG 1.0//EN' 'http://www.w3.org/TR/2001/REC-SVG-20010904/DTD/svg10.dtd'>
<svg xmlns:xlink="http://www.w3.org/1999/xlink" xmlns="http://www.w3.org/2000/svg" width="900" height="900.000000000002">
<!--Gegenereerd door de SIMaD-toepassing (http://www.dlw.be).-->
<g style="stroke:none;fill-rule:evenodd;" transform="matrix(1,0,0,-1,0,900.000000000002)">
<path d=" M0 65 L1.56319401867222E-13 834.999995462144 A65 65 0 0 0 65.0000045378561 900 L834.999995462144 900 A65 65 0 0 0 900 834.999995462144 L899.999999999999 65.0000124791042 A65 65 0 0 0 835.000004537856 1.56319401867222E-13 L65.0000045378561 1.56319401867222E-13 A65 65 0 0 0 1.56319401867222E-13 65.0000045378561 Z" style="fill:rgb(0,0,255);" />
<path d=" M15 65 L15.0000000000001 834.999996509341 A50 50 0 0 0 65.0000034906585 885 L834.999996509341 885 A50 50 0 0 0 885 834.999996509341 L884.999999999999 65.0000095993109 A50 50 0 0 0 835.000003490659 15.0000000000001 L65.0000034906585 15.0000000000001 A50 50 0 0 0 15.0000000000001 65.0000034906585 Z" style="fill:rgb(255,255,255);" />
<path d=" M30 65 L30.0000000000001 834.999997556539 A35 35 0 0 0 65.000002443461 870 L834.999997556539 870 A35 35 0 0 0 870 834.999997556539 L869.999999999999 65.0000067195176 A35 35 0 0 0 835.000002443461 30.0000000000001 L65.000002443461 30.0000000000001 A35 35 0 0 0 30.0000000000001 65.000002443461 Z" style="fill:rgb(0,0,255);" />
<path d=" M258 599 L450 791 L642 599 L514 599 L514 109 L386 109 L386 599 Z" style="fill:rgb(255,255,255);" />
</g>
</svg>
