<?xml version="1.0" encoding="UTF-8"?>
<!DOCTYPE svg PUBLIC '-//W3C//DTD SVG 1.0//EN' 'http://www.w3.org/TR/2001/REC-SVG-20010904/DTD/svg10.dtd'>
<svg xmlns:xlink="http://www.w3.org/1999/xlink" xmlns="http://www.w3.org/2000/svg" width="900.000000969549" height="700.000000001859">
<!--Gegenereerd door de SIMaD-toepassing (http://www.dlw.be).-->
<g style="stroke:none;fill-rule:evenodd;" transform="matrix(1,0,0,-1,0,700.000000001859)">
<path d=" M65 0 L834.999995462144 1.56319401867222E-13 A65 65 0 0 1 900 65.0000045378561 L899.999999999999 634.999987520896 A65 65 0 0 1 835.000004537856 700 L65.0000045378561 700 A65 65 0 0 1 1.56319401867222E-13 634.999995462144 L1.56319401867222E-13 65.0000045378561 A65 65 0 0 1 65.0000045378561 1.56319401867222E-13 Z" style="fill:rgb(255,255,255);stroke:rgb(0,0,0);" />
<path d=" M65 15 L834.999996509341 15.0000000000001 A50 50 0 0 1 885 65.0000034906585 L884.999999999999 634.999990400689 A50 50 0 0 1 835.000003490659 685 L65.0000034906585 685 A50 50 0 0 1 15.0000000000001 634.999996509341 L15.0000000000001 65.0000034906585 A50 50 0 0 1 65.0000034906585 15.0000000000001 Z" style="fill:rgb(0,0,0);" />
<path d=" M65 30 L834.999997556539 30.0000000000001 A35 35 0 0 1 870 65.000002443461 L869.999999999999 634.999993280482 A35 35 0 0 1 835.000002443461 670 L65.000002443461 670 A35 35 0 0 1 30.0000000000001 634.999997556539 L30.0000000000001 65.000002443461 A35 35 0 0 1 65.000002443461 30.0000000000001 Z" style="fill:rgb(255,255,255);" />
<path d=" M60 114.27 L60 397.88 L145.82 369.59 L145.82 314.62 L276.49 346.55 L276.49 500.42 L340.09 583.49 L413.98 502.53 L413.98 291.5 L476.35 353.51 L533.99 273.11 L573.48 273.11 L573.48 256.87 L617.75 256.87 L617.75 173.61 L644.44 173.61 L644.44 273.13 L840 374.59 L840 114.61 Z" style="fill:rgb(0,0,0);" />
</g>
</svg>
