<?xml version="1.0" encoding="UTF-8"?>
<!DOCTYPE svg PUBLIC '-//W3C//DTD SVG 1.0//EN' 'http://www.w3.org/TR/2001/REC-SVG-20010904/DTD/svg10.dtd'>
<svg xmlns:xlink="http://www.w3.org/1999/xlink" xmlns="http://www.w3.org/2000/svg" width="450" height="300">
<!--Gegenereerd door de SIMaD-toepassing (http://www.dlw.be).-->
<g style="stroke:none;fill-rule:evenodd;" transform="matrix(1,0,0,-1,0,300)">
<path d=" M45 0 L405 0 A45 45 0 0 1 450 45 L450 255 A45 45 0 0 1 405 300 L45 300 A45 45 0 0 1 0 255 L0 45 A45 45 0 0 1 45 0 Z" style="fill:rgb(255,255,255);stroke:rgb(0,0,0);" />
<path d=" M45 15 L405 15 A30 30 0 0 1 435 45 L435 255 A30 30 0 0 1 405 285 L45 285 A30 30 0 0 1 15 255 L15 45 A30 30 0 0 1 45 15 Z" style="fill:rgb(0,0,0);" />
<path d=" M45 30 L405 30 A15 15 0 0 1 420 45 L420 255 A15 15 0 0 1 405 270 L45 270 A15 15 0 0 1 30 255 L30 45 A15 15 0 0 1 45 30 Z" style="fill:rgb(255,255,255);" />
<path d=" M83.31 60 L83.31 240 L134.740045953821 239.999999999974 A41.14 41.14 0 0 0 175.879999999987 198.860033029309 L175.87999999999 180.860028721138 A41.14 41.14 0 0 0 142.476106018997 140.453908087235 L142.48 140.45 L179.48 60 L151.18 60 L114.51 139.71 L109.02 139.71 L109.02 60 Z M109.02 216.86 L132.170020106193 216.859999999989 A18 18 0 0 0 150.169999999994 198.860014451326 L150.169999999994 180.859985548674 A18 18 0 0 0 132.170020106193 162.860000000011 L109.02 162.86 Z" style="fill:rgb(0,0,0);" />
</g>
</svg>
