<?xml version="1.0" encoding="UTF-8"?>
<!DOCTYPE svg PUBLIC '-//W3C//DTD SVG 1.0//EN' 'http://www.w3.org/TR/2001/REC-SVG-20010904/DTD/svg10.dtd'>
<svg xmlns:xlink="http://www.w3.org/1999/xlink" xmlns="http://www.w3.org/2000/svg" width="1300" height="200">
<!--Gegenereerd door de SIMaD-toepassing (http://www.dlw.be).-->
<g style="stroke:none;fill-rule:evenodd;" transform="matrix(1,0,0,-1,0,200)">
<path d=" M11.5394871046555 80.3501359528625 A22.5 22.5 0 0 0 11.5394871046555 119.649864047138 L11.54 119.65 L140.826296080116 191.766273913953 A65 65 0 0 0 172.49 200 L1255 200 A45 45 0 0 0 1300 155 L1300 45 A45 45 0 0 0 1255 0 L172.49 0 A65 65 0 0 0 140.826296080116 8.23372608604723 L140.83 8.23000000000002 Z" style="fill:rgb(0,0,255);" />
<path d=" M16.4108261692531 89.0834088627014 A12.5 12.5 0 0 0 16.4108261692531 110.916591137299 L16.41 110.92 L145.697635144713 183.033001004114 A55 55 0 0 0 172.49 190 L1255 190 A35 35 0 0 0 1290 155 L1290 45 A35 35 0 0 0 1255 10 L172.49 10 A55 55 0 0 0 145.697635144713 16.9669989958861 L145.7 16.97 Z" style="fill:rgb(255,255,255);" />
<path d=" M92.8760660533377 94.500039534361 A9 9 0 0 0 92.8760660533377 105.499960465639 L92.88 105.5 L136.880330266688 162.499802328195 A45 45 0 0 0 172.5 180 L1255 180 A25 25 0 0 0 1280 155 L1280 45 A25 25 0 0 0 1255 20 L172.5 20 A45 45 0 0 0 136.880330266688 37.5001976718048 L136.88 37.5 Z" style="fill:rgb(0,0,255);" />
</g>
</svg>
