<?xml version="1.0" encoding="UTF-8"?>
<!DOCTYPE svg PUBLIC '-//W3C//DTD SVG 1.0//EN' 'http://www.w3.org/TR/2001/REC-SVG-20010904/DTD/svg10.dtd'>
<svg xmlns:xlink="http://www.w3.org/1999/xlink" xmlns="http://www.w3.org/2000/svg" width="1500" height="300">
<!--Gegenereerd door de SIMaD-toepassing (http://www.dlw.be).-->
<g style="stroke:none;fill-rule:evenodd;" transform="matrix(1,0,0,-1,0,300)">
<path d=" M1482.29837102828 119.573591079983 A35 35 0 0 1 1482.29837102828 180.426408920017 L1482.3 180.43 L1291.5103296401 288.892707377183 A85 85 0 0 1 1249.5 300 L65 300 A65 65 0 0 1 0 235 L0 65 A65 65 0 0 1 65 0 L1249.5 0 A85 85 0 0 1 1291.5103296401 11.1072926228168 L1291.52 11.1100000000001 Z" style="fill:rgb(0,0,255);" />
<path d=" M1474.88478344473 132.613480617133 A20 20 0 0 1 1474.88478344473 167.386519382867 L1474.88 167.39 L1284.09674205655 275.852817840033 A70 70 0 0 1 1249.5 285 L65 285 A50 50 0 0 1 15 235 L15 65 A50 50 0 0 1 65 15 L1249.5 15 A70 70 0 0 1 1284.09674205655 24.1471821599668 L1284.1 24.1500000000001 Z" style="fill:rgb(255,255,255);" />
<path d=" M1367.53165153259 141.731628483874 A13 13 0 0 1 1367.53165153259 158.268371516126 L1367.53 158.27 L1291.94160263788 249.981571798996 A55 55 0 0 1 1249.5 270 L65 270 A35 35 0 0 1 30 235 L30 65 A35 35 0 0 1 65 30 L1249.5 30 A55 55 0 0 1 1291.94160263788 50.0184282010035 L1291.94 50.02 Z" style="fill:rgb(0,0,255);" />
</g>
</svg>
