<?xml version="1.0" encoding="UTF-8"?>
<!DOCTYPE svg PUBLIC '-//W3C//DTD SVG 1.0//EN' 'http://www.w3.org/TR/2001/REC-SVG-20010904/DTD/svg10.dtd'>
<svg xmlns:xlink="http://www.w3.org/1999/xlink" xmlns="http://www.w3.org/2000/svg" width="1250" height="300">
<!--Gegenereerd door de SIMaD-toepassing (http://www.dlw.be).-->
<g style="stroke:none;fill-rule:evenodd;" transform="matrix(1,0,0,-1,0,300)">
<path d=" M1232.29837102828 119.573591079983 A35 35 0 0 1 1232.29837102828 180.426408920017 L1232.3 180.43 L1041.5103296401 288.892707377183 A85 85 0 0 1 999.5 300 L65 300 A65 65 0 0 1 0 235 L0 65 A65 65 0 0 1 65 0 L999.5 0 A85 85 0 0 1 1041.5103296401 11.1072926228168 L1041.52 11.11 Z" style="fill:rgb(0,255,0);" />
<path d=" M1224.88478344473 132.613480617133 A20 20 0 0 1 1224.88478344473 167.386519382867 L1224.88 167.39 L1034.09674205655 275.852817840033 A70 70 0 0 1 999.5 285 L65 285 A50 50 0 0 1 15 235 L15 65 A50 50 0 0 1 65 15 L999.5 15 A70 70 0 0 1 1034.09674205655 24.1471821599668 L1034.1 24.15 Z" style="fill:rgb(255,255,255);" />
<path d=" M240 150 L240 270 L65 270 A35 35 0 0 1 30 235 L30 65 A35 35 0 0 1 65 30 L240 30 Z" style="fill:rgb(0,255,0);" />
<path d=" M1117.53165153259 141.731628483874 A13 13 0 0 1 1117.53165153259 158.268371516126 L1117.53 158.27 L1041.94160263788 249.981571798996 A55 55 0 0 1 999.5 270 L255 270 L255 30 L999.5 30 A55 55 0 0 1 1041.94160263788 50.0184282010035 L1041.94 50.02 Z" style="fill:rgb(0,255,0);" />
<path d=" M64.17 45 L121.05 45 L124.02 157.5 L95.12 157.5 Z" style="fill:rgb(255,255,255);" />
<path d=" M148.95 45 L205.2 45 L174.89 157.5 L145.84 157.5 Z" style="fill:rgb(255,255,255);" />
<path d=" M225 165 L225 172.5 L45 172.5 L45 165 L66.59 165 L64.05 145.5 L78.6 145.5 L76.83 165 L193.17 165 L191.4 145.5 L206.55 145.5 L203.41 165 Z" style="fill:rgb(255,255,255);" />
<path d=" M168.66 182.25 L148.91 255 L140.49 255 L144.89 182.25 Z" style="fill:rgb(255,255,255);" />
<path d=" M125.12 182.25 L129.51 255 L121.09 255 L101.34 182.25 Z" style="fill:rgb(255,255,255);" />
</g>
</svg>
