<?xml version="1.0" encoding="UTF-8"?>
<!DOCTYPE svg PUBLIC '-//W3C//DTD SVG 1.0//EN' 'http://www.w3.org/TR/2001/REC-SVG-20010904/DTD/svg10.dtd'>
<svg xmlns:xlink="http://www.w3.org/1999/xlink" xmlns="http://www.w3.org/2000/svg" width="1500" height="300">
<!--Gegenereerd door de SIMaD-toepassing (http://www.dlw.be).-->
<g style="stroke:none;fill-rule:evenodd;" transform="matrix(1,0,0,-1,0,300)">
<path d=" M17.701628971723 119.573591079983 A35 35 0 0 0 17.701628971723 180.426408920017 L17.7 180.43 L208.489670359899 288.892707377183 A85 85 0 0 0 250.5 300 L1435 300 A65 65 0 0 0 1500 235 L1500 65 A65 65 0 0 0 1435 0 L250.5 0 A85 85 0 0 0 208.489670359899 11.1072926228168 L208.48 11.11 Z" style="fill:rgb(0,255,0);" />
<path d=" M25.1152165552703 132.613480617133 A20 20 0 0 0 25.1152165552703 167.386519382867 L25.12 167.39 L215.903257943446 275.852817840033 A70 70 0 0 0 250.5 285 L1435 285 A50 50 0 0 0 1485 235 L1485 65 A50 50 0 0 0 1435 15 L250.5 15 A70 70 0 0 0 215.903257943446 24.1471821599668 L215.9 24.15 Z" style="fill:rgb(255,255,255);" />
<path d=" M1260 150 L1260 270 L1435 270 A35 35 0 0 0 1470 235 L1470 65 A35 35 0 0 0 1435 30 L1260 30 Z" style="fill:rgb(0,255,0);" />
<path d=" M132.46834846741 141.731628483874 A13 13 0 0 0 132.46834846741 158.268371516126 L132.47 158.27 L208.058397362121 249.981571798997 A55 55 0 0 0 250.5 270 L1245 270 L1245 30 L250.5 30 A55 55 0 0 0 208.058397362121 50.0184282010035 L208.06 50.02 Z" style="fill:rgb(0,255,0);" />
<path d=" M1294.17 45 L1351.05 45 L1354.02 157.5 L1325.12 157.5 Z" style="fill:rgb(255,255,255);" />
<path d=" M1378.95 45 L1435.2 45 L1404.89 157.5 L1375.84 157.5 Z" style="fill:rgb(255,255,255);" />
<path d=" M1455 165 L1455 172.5 L1275 172.5 L1275 165 L1296.59 165 L1294.05 145.5 L1308.6 145.5 L1306.83 165 L1423.17 165 L1421.4 145.5 L1436.55 145.5 L1433.41 165 Z" style="fill:rgb(255,255,255);" />
<path d=" M1398.66 182.25 L1378.91 255 L1370.49 255 L1374.89 182.25 Z" style="fill:rgb(255,255,255);" />
<path d=" M1355.12 182.25 L1359.51 255 L1351.09 255 L1331.34 182.25 Z" style="fill:rgb(255,255,255);" />
</g>
</svg>
