<?xml version="1.0" encoding="UTF-8"?>
<!DOCTYPE svg PUBLIC '-//W3C//DTD SVG 1.0//EN' 'http://www.w3.org/TR/2001/REC-SVG-20010904/DTD/svg10.dtd'>
<svg xmlns:xlink="http://www.w3.org/1999/xlink" xmlns="http://www.w3.org/2000/svg" width="1150" height="200">
<!--Gegenereerd door de SIMaD-toepassing (http://www.dlw.be).-->
<g style="stroke:none;fill-rule:evenodd;" transform="matrix(1,0,0,-1,0,200)">
<path d=" M1138.46051289534 80.3501359528625 A22.5 22.5 0 0 1 1138.46051289534 119.649864047138 L1138.46 119.65 L1009.17370391988 191.766273913953 A65 65 0 0 1 977.51 200 L45 200 A45 45 0 0 1 0 155 L0 45 A45 45 0 0 1 45 0 L977.51 0 A65 65 0 0 1 1009.17370391988 8.23372608604722 L1009.17 8.23000000000002 Z" style="fill:rgb(0,255,0);" />
<path d=" M1133.58917383075 89.0834088627014 A12.5 12.5 0 0 1 1133.58917383075 110.916591137299 L1133.59 110.92 L1004.30236485529 183.033001004114 A55 55 0 0 1 977.51 190 L45 190 A35 35 0 0 1 10 155 L10 45 A35 35 0 0 1 45 10 L977.51 10 A55 55 0 0 1 1004.30236485529 16.9669989958861 L1004.3 16.9699999999998 Z" style="fill:rgb(255,255,255);" />
<path d=" M160 100 L160 180 L45 180 A25 25 0 0 1 20 155 L20 45 A25 25 0 0 1 45 20 L160 20 Z" style="fill:rgb(0,255,0);" />
<path d=" M1057.12393394666 94.500039534361 A9 9 0 0 1 1057.12393394666 105.499960465639 L1057.12 105.5 L1013.11966973331 162.499802328195 A45 45 0 0 1 977.5 180 L170 180 L170 20 L977.5 20 A45 45 0 0 1 1013.11966973331 37.5001976718048 L1013.12 37.5 Z" style="fill:rgb(0,255,0);" />
<path d=" M42.78 30 L80.7 30 L82.68 105 L63.41 105 Z" style="fill:rgb(255,255,255);" />
<path d=" M99.2999999999999 30 L136.8 30 L116.59 105 L97.23 105 Z" style="fill:rgb(255,255,255);" />
<path d=" M150 110 L150 115 L30 115 L30 110 L44.39 110 L42.7 97 L52.4 97 L51.22 110 L128.78 110 L127.6 97 L137.7 97 L135.61 110 Z" style="fill:rgb(255,255,255);" />
<path d=" M112.44 121.5 L99.27 170 L93.66 170 L96.59 121.5 Z" style="fill:rgb(255,255,255);" />
<path d=" M83.41 121.5 L86.34 170 L80.73 170 L67.56 121.5 Z" style="fill:rgb(255,255,255);" />
</g>
</svg>
