<?xml version="1.0" encoding="UTF-8"?>
<!DOCTYPE svg PUBLIC '-//W3C//DTD SVG 1.0//EN' 'http://www.w3.org/TR/2001/REC-SVG-20010904/DTD/svg10.dtd'>
<svg xmlns:xlink="http://www.w3.org/1999/xlink" xmlns="http://www.w3.org/2000/svg" width="1750" height="600">
<!--Gegenereerd door de SIMaD-toepassing (http://www.dlw.be).-->
<g style="stroke:none;fill-rule:evenodd;" transform="matrix(1,0,0,-1,0,600)">
<path d=" M20.7934725548166 259.417013976375 A50 50 0 0 0 20.7934725548165 340.582986023625 L20.79 340.58 L343.311070408968 572.690659468513 A145 145 0 0 0 428.01 600 L1685 600 A65 65 0 0 0 1750 535 L1750 65 A65 65 0 0 0 1685 0 L428.01 0 A145 145 0 0 0 343.311070408968 27.3093405314874 L343.31 27.3100000000004 Z" style="fill:rgb(0,255,0);" />
<path d=" M32.4760835328899 275.650208385825 A30 30 0 0 0 32.4760835328899 324.349791614175 L32.48 324.35 L354.993681387041 556.457465059063 A125 125 0 0 0 428.01 580 L1685 580 A45 45 0 0 0 1730 535 L1730 65 A45 45 0 0 0 1685 20 L428.01 20 A125 125 0 0 0 354.993681387041 43.5425349409374 L354.99 43.54 Z" style="fill:rgb(255,255,255);" />
<path d=" M1430 300 L1430 560 L1685 560 A25 25 0 0 0 1710 535 L1710 65 A25 25 0 0 0 1685 40 L1430 40 Z" style="fill:rgb(0,255,0);" />
<path d=" M180.351457936653 287.545156312034 A20 20 0 0 0 180.351457936653 312.454843687966 L180.35 312.45 L345.845154167431 520.387929361823 A105 105 0 0 0 428 560 L1410 560 L1410 40 L428 40 A105 105 0 0 0 345.845154167431 79.612070638177 L345.85 79.6099999999997 Z" style="fill:rgb(0,255,0);" />
<path d=" M1499.17 195 L1556.05 195 L1559.02 307.5 L1530.12 307.5 Z" style="fill:rgb(255,255,255);" />
<path d=" M1583.95 195 L1640.2 195 L1609.89 307.5 L1580.84 307.5 Z" style="fill:rgb(255,255,255);" />
<path d=" M1660 315 L1660 322.5 L1480 322.5 L1480 315 L1501.59 315 L1499.05 295.5 L1513.6 295.5 L1511.83 315 L1628.17 315 L1626.4 295.5 L1641.55 295.5 L1638.41 315 Z" style="fill:rgb(255,255,255);" />
<path d=" M1603.66 332.25 L1583.91 405 L1575.49 405 L1579.89 332.25 Z" style="fill:rgb(255,255,255);" />
<path d=" M1560.12 332.25 L1564.51 405 L1556.09 405 L1536.34 332.25 Z" style="fill:rgb(255,255,255);" />
</g>
</svg>
