<?xml version="1.0" encoding="UTF-8"?>
<!DOCTYPE svg PUBLIC '-//W3C//DTD SVG 1.0//EN' 'http://www.w3.org/TR/2001/REC-SVG-20010904/DTD/svg10.dtd'>
<svg xmlns:xlink="http://www.w3.org/1999/xlink" xmlns="http://www.w3.org/2000/svg" width="2000" height="600">
<!--Gegenereerd door de SIMaD-toepassing (http://www.dlw.be).-->
<g style="stroke:none;fill-rule:evenodd;" transform="matrix(1,0,0,-1,0,600)">
<path d=" M20.7934725548166 259.417013976375 A50 50 0 0 0 20.7934725548165 340.582986023625 L20.79 340.58 L343.311070408968 572.690659468513 A145 145 0 0 0 428.01 600 L1935 600 A65 65 0 0 0 2000 535 L2000 65 A65 65 0 0 0 1935 0 L428.01 0 A145 145 0 0 0 343.311070408968 27.3093405314874 L343.31 27.3100000000004 Z" style="fill:rgb(0,255,0);" />
<path d=" M32.4760835328899 275.650208385825 A30 30 0 0 0 32.4760835328899 324.349791614175 L32.48 324.35 L354.993681387041 556.457465059063 A125 125 0 0 0 428.01 580 L1935 580 A45 45 0 0 0 1980 535 L1980 65 A45 45 0 0 0 1935 20 L428.01 20 A125 125 0 0 0 354.993681387041 43.5425349409374 L354.99 43.54 Z" style="fill:rgb(255,255,255);" />
<path d=" M1680 300 L1680 560 L1935 560 A25 25 0 0 0 1960 535 L1960 65 A25 25 0 0 0 1935 40 L1680 40 Z" style="fill:rgb(0,255,0);" />
<path d=" M180.351457936653 287.545156312034 A20 20 0 0 0 180.351457936653 312.454843687966 L180.35 312.45 L345.845154167431 520.387929361823 A105 105 0 0 0 428 560 L1660 560 L1660 40 L428 40 A105 105 0 0 0 345.845154167431 79.612070638177 L345.85 79.6099999999997 Z" style="fill:rgb(0,255,0);" />
<path d=" M1749.17 195 L1806.05 195 L1809.02 307.5 L1780.12 307.5 Z" style="fill:rgb(255,255,255);" />
<path d=" M1833.95 195 L1890.2 195 L1859.89 307.5 L1830.84 307.5 Z" style="fill:rgb(255,255,255);" />
<path d=" M1910 315 L1910 322.5 L1730 322.5 L1730 315 L1751.59 315 L1749.05 295.5 L1763.6 295.5 L1761.83 315 L1878.17 315 L1876.4 295.5 L1891.55 295.5 L1888.41 315 Z" style="fill:rgb(255,255,255);" />
<path d=" M1853.66 332.25 L1833.91 405 L1825.49 405 L1829.89 332.25 Z" style="fill:rgb(255,255,255);" />
<path d=" M1810.12 332.25 L1814.51 405 L1806.09 405 L1786.34 332.25 Z" style="fill:rgb(255,255,255);" />
</g>
</svg>
