<?xml version="1.0" encoding="UTF-8"?>
<!DOCTYPE svg PUBLIC '-//W3C//DTD SVG 1.0//EN' 'http://www.w3.org/TR/2001/REC-SVG-20010904/DTD/svg10.dtd'>
<svg xmlns:xlink="http://www.w3.org/1999/xlink" xmlns="http://www.w3.org/2000/svg" width="1500" height="600">
<!--Gegenereerd door de SIMaD-toepassing (http://www.dlw.be).-->
<g style="stroke:none;fill-rule:evenodd;" transform="matrix(1,0,0,-1,0,600)">
<path d=" M1479.20652744518 259.417013976375 A50 50 0 0 1 1479.20652744518 340.582986023625 L1479.21 340.58 L1156.68892959103 572.690659468513 A145 145 0 0 1 1071.99 600 L65 600 A65 65 0 0 1 0 535 L0 65 A65 65 0 0 1 65 0 L1071.99 0 A145 145 0 0 1 1156.68892959103 27.3093405314874 L1156.69 27.3100000000004 Z" style="fill:rgb(0,255,0);" />
<path d=" M1467.52391646711 275.650208385825 A30 30 0 0 1 1467.52391646711 324.349791614175 L1467.52 324.35 L1145.00631861296 556.457465059063 A125 125 0 0 1 1071.99 580 L65 580 A45 45 0 0 1 20 535 L20 65 A45 45 0 0 1 65 20 L1071.99 20 A125 125 0 0 1 1145.00631861296 43.5425349409374 L1145.01 43.54 Z" style="fill:rgb(255,255,255);" />
<path d=" M320 300 L320 560 L65 560 A25 25 0 0 1 40 535 L40 65 A25 25 0 0 1 65 40 L320 40 Z" style="fill:rgb(0,255,0);" />
<path d=" M1319.64854206335 287.545156312034 A20 20 0 0 1 1319.64854206335 312.454843687966 L1319.65 312.45 L1154.15484583257 520.387929361823 A105 105 0 0 1 1072 560 L340 560 L340 40 L1072 40 A105 105 0 0 1 1154.15484583257 79.612070638177 L1154.15 79.6099999999997 Z" style="fill:rgb(0,255,0);" />
<path d=" M109.17 195 L166.05 195 L169.02 307.5 L140.12 307.5 Z" style="fill:rgb(255,255,255);" />
<path d=" M193.95 195 L250.2 195 L219.89 307.5 L190.84 307.5 Z" style="fill:rgb(255,255,255);" />
<path d=" M270 315 L270 322.5 L90 322.5 L90 315 L111.59 315 L109.05 295.5 L123.6 295.5 L121.83 315 L238.17 315 L236.4 295.5 L251.55 295.5 L248.41 315 Z" style="fill:rgb(255,255,255);" />
<path d=" M213.66 332.25 L193.91 405 L185.49 405 L189.89 332.25 Z" style="fill:rgb(255,255,255);" />
<path d=" M170.12 332.25 L174.51 405 L166.09 405 L146.34 332.25 Z" style="fill:rgb(255,255,255);" />
</g>
</svg>
