<?xml version="1.0" encoding="UTF-8"?>
<!DOCTYPE svg PUBLIC '-//W3C//DTD SVG 1.0//EN' 'http://www.w3.org/TR/2001/REC-SVG-20010904/DTD/svg10.dtd'>
<svg xmlns:xlink="http://www.w3.org/1999/xlink" xmlns="http://www.w3.org/2000/svg" width="1150" height="200">
<!--Gegenereerd door de SIMaD-toepassing (http://www.dlw.be).-->
<g style="stroke:none;fill-rule:evenodd;" transform="matrix(1,0,0,-1,0,200)">
<path d=" M11.5394871046555 80.3501359528625 A22.5 22.5 0 0 0 11.5394871046555 119.649864047138 L11.54 119.65 L140.826296080116 191.766273913953 A65 65 0 0 0 172.49 200 L1105 200 A45 45 0 0 0 1150 155 L1150 45 A45 45 0 0 0 1105 0 L172.49 0 A65 65 0 0 0 140.826296080116 8.23372608604723 L140.83 8.23000000000002 Z" style="fill:rgb(0,255,0);" />
<path d=" M16.4108261692531 89.0834088627014 A12.5 12.5 0 0 0 16.4108261692531 110.916591137299 L16.41 110.92 L145.697635144713 183.033001004114 A55 55 0 0 0 172.49 190 L1105 190 A35 35 0 0 0 1140 155 L1140 45 A35 35 0 0 0 1105 10 L172.49 10 A55 55 0 0 0 145.697635144713 16.9669989958861 L145.7 16.9699999999998 Z" style="fill:rgb(255,255,255);" />
<path d=" M990 100 L990 180 L1105 180 A25 25 0 0 0 1130 155 L1130 45 A25 25 0 0 0 1105 20 L990 20 Z" style="fill:rgb(0,255,0);" />
<path d=" M92.8760660533377 94.500039534361 A9 9 0 0 0 92.8760660533377 105.499960465639 L92.88 105.5 L136.880330266688 162.499802328195 A45 45 0 0 0 172.5 180 L980 180 L980 20 L172.5 20 A45 45 0 0 0 136.880330266688 37.5001976718048 L136.88 37.5 Z" style="fill:rgb(0,255,0);" />
<path d=" M1012.78 30 L1050.7 30 L1052.68 105 L1033.41 105 Z" style="fill:rgb(255,255,255);" />
<path d=" M1069.3 30 L1106.8 30 L1086.59 105 L1067.23 105 Z" style="fill:rgb(255,255,255);" />
<path d=" M1120 110 L1120 115 L1000 115 L1000 110 L1014.39 110 L1012.7 97 L1022.4 97 L1021.22 110 L1098.78 110 L1097.6 97 L1107.7 97 L1105.61 110 Z" style="fill:rgb(255,255,255);" />
<path d=" M1082.44 121.5 L1069.27 170 L1063.66 170 L1066.59 121.5 Z" style="fill:rgb(255,255,255);" />
<path d=" M1053.41 121.5 L1056.34 170 L1050.73 170 L1037.56 121.5 Z" style="fill:rgb(255,255,255);" />
</g>
</svg>
