<?xml version="1.0" encoding="UTF-8"?>
<!DOCTYPE svg PUBLIC '-//W3C//DTD SVG 1.0//EN' 'http://www.w3.org/TR/2001/REC-SVG-20010904/DTD/svg10.dtd'>
<svg xmlns:xlink="http://www.w3.org/1999/xlink" xmlns="http://www.w3.org/2000/svg" width="850" height="200">
<!--Gegenereerd door de SIMaD-toepassing (http://www.dlw.be).-->
<g style="stroke:none;fill-rule:evenodd;" transform="matrix(1,0,0,-1,0,200)">
<path d=" M838.460512895345 80.3501359528625 A22.5 22.5 0 0 1 838.460512895345 119.649864047138 L838.46 119.65 L709.173703919884 191.766273913953 A65 65 0 0 1 677.51 200 L45 200 A45 45 0 0 1 0 155 L0 45 A45 45 0 0 1 45 0 L677.51 0 A65 65 0 0 1 709.173703919884 8.23372608604722 L709.17 8.23000000000002 Z" style="fill:rgb(255,255,255);stroke:rgb(0,0,0);" />
<path d=" M833.589173830747 89.0834088627014 A12.5 12.5 0 0 1 833.589173830747 110.916591137299 L833.59 110.92 L704.302364855287 183.033001004114 A55 55 0 0 1 677.51 190 L45 190 A35 35 0 0 1 10 155 L10 45 A35 35 0 0 1 45 10 L677.51 10 A55 55 0 0 1 704.302364855287 16.9669989958861 L704.3 16.9699999999998 Z" style="fill:rgb(0,0,0);" />
<path d=" M757.123933946662 94.500039534361 A9 9 0 0 1 757.123933946662 105.499960465639 L757.12 105.5 L713.119669733311 162.499802328195 A45 45 0 0 1 677.5 180 L45 180 A25 25 0 0 1 20 155 L20 45 A25 25 0 0 1 45 20 L677.5 20 A45 45 0 0 1 713.119669733311 37.5001976718048 L713.12 37.5 Z" style="fill:rgb(255,255,255);" />
</g>
</svg>
