<?xml version="1.0" encoding="UTF-8"?>
<!DOCTYPE svg PUBLIC '-//W3C//DTD SVG 1.0//EN' 'http://www.w3.org/TR/2001/REC-SVG-20010904/DTD/svg10.dtd'>
<svg xmlns:xlink="http://www.w3.org/1999/xlink" xmlns="http://www.w3.org/2000/svg" width="1750" height="600">
<!--Gegenereerd door de SIMaD-toepassing (http://www.dlw.be).-->
<g style="stroke:none;fill-rule:evenodd;" transform="matrix(1,0,0,-1,0,600)">
<path d=" M1729.20652744518 259.417013976375 A50 50 0 0 1 1729.20652744518 340.582986023625 L1729.21 340.58 L1406.68892959103 572.690659468513 A145 145 0 0 1 1321.99 600 L65 600 A65 65 0 0 1 0 535 L0 65 A65 65 0 0 1 65 0 L1321.99 0 A145 145 0 0 1 1406.68892959103 27.3093405314874 L1406.69 27.3099999999999 Z" style="fill:rgb(255,255,255);stroke:rgb(0,0,0);" />
<path d=" M1717.52391646711 275.650208385825 A30 30 0 0 1 1717.52391646711 324.349791614175 L1717.52 324.35 L1395.00631861296 556.457465059063 A125 125 0 0 1 1321.99 580 L65 580 A45 45 0 0 1 20 535 L20 65 A45 45 0 0 1 65 20 L1321.99 20 A125 125 0 0 1 1395.00631861296 43.5425349409374 L1395.01 43.54 Z" style="fill:rgb(0,0,255);" />
<path d=" M1569.64854206335 287.545156312034 A20 20 0 0 1 1569.64854206335 312.454843687966 L1569.65 312.45 L1404.15484583257 520.387929361823 A105 105 0 0 1 1322 560 L65 560 A25 25 0 0 1 40 535 L40 65 A25 25 0 0 1 65 40 L1322 40 A105 105 0 0 1 1404.15484583257 79.612070638177 L1404.15 79.6099999999999 Z" style="fill:rgb(255,255,255);" />
</g>
</svg>
