<?xml version="1.0" encoding="UTF-8"?>
<!DOCTYPE svg PUBLIC '-//W3C//DTD SVG 1.0//EN' 'http://www.w3.org/TR/2001/REC-SVG-20010904/DTD/svg10.dtd'>
<svg xmlns:xlink="http://www.w3.org/1999/xlink" xmlns="http://www.w3.org/2000/svg" width="1750" height="300">
<!--Gegenereerd door de SIMaD-toepassing (http://www.dlw.be).-->
<g style="stroke:none;fill-rule:evenodd;" transform="matrix(1,0,0,-1,0,300)">
<path d=" M1732.29837102828 119.573591079983 A35 35 0 0 1 1732.29837102828 180.426408920017 L1732.3 180.43 L1541.5103296401 288.892707377183 A85 85 0 0 1 1499.5 300 L65 300 A65 65 0 0 1 0 235 L0 65 A65 65 0 0 1 65 0 L1499.5 0 A85 85 0 0 1 1541.5103296401 11.1072926228168 L1541.52 11.1099999999997 Z" style="fill:rgb(255,255,255);stroke:rgb(0,0,0);" />
<path d=" M1724.88478344473 132.613480617133 A20 20 0 0 1 1724.88478344473 167.386519382867 L1724.88 167.39 L1534.09674205655 275.852817840033 A70 70 0 0 1 1499.5 285 L65 285 A50 50 0 0 1 15 235 L15 65 A50 50 0 0 1 65 15 L1499.5 15 A70 70 0 0 1 1534.09674205655 24.1471821599668 L1534.1 24.1499999999996 Z" style="fill:rgb(0,0,255);" />
<path d=" M1617.53165153259 141.731628483874 A13 13 0 0 1 1617.53165153259 158.268371516126 L1617.53 158.27 L1541.94160263788 249.981571798996 A55 55 0 0 1 1499.5 270 L65 270 A35 35 0 0 1 30 235 L30 65 A35 35 0 0 1 65 30 L1499.5 30 A55 55 0 0 1 1541.94160263788 50.0184282010035 L1541.94 50.0200000000004 Z" style="fill:rgb(255,255,255);" />
</g>
</svg>
