<?xml version="1.0" encoding="UTF-8"?>
<!DOCTYPE svg PUBLIC '-//W3C//DTD SVG 1.0//EN' 'http://www.w3.org/TR/2001/REC-SVG-20010904/DTD/svg10.dtd'>
<svg xmlns:xlink="http://www.w3.org/1999/xlink" xmlns="http://www.w3.org/2000/svg" width="2000" height="300">
<!--Gegenereerd door de SIMaD-toepassing (http://www.dlw.be).-->
<g style="stroke:none;fill-rule:evenodd;" transform="matrix(1,0,0,-1,0,300)">
<path d=" M17.701628971723 119.573591079983 A35 35 0 0 0 17.701628971723 180.426408920017 L17.7 180.43 L208.489670359899 288.892707377183 A85 85 0 0 0 250.5 300 L1935 300 A65 65 0 0 0 2000 235 L2000 65 A65 65 0 0 0 1935 0 L250.5 0 A85 85 0 0 0 208.489670359899 11.1072926228168 L208.48 11.1099999999997 Z" style="fill:rgb(128,0,0);" />
<path d=" M25.1152165552703 132.613480617133 A20 20 0 0 0 25.1152165552703 167.386519382867 L25.12 167.39 L215.903257943446 275.852817840033 A70 70 0 0 0 250.5 285 L1935 285 A50 50 0 0 0 1985 235 L1985 65 A50 50 0 0 0 1935 15 L250.5 15 A70 70 0 0 0 215.903257943446 24.1471821599668 L215.9 24.1499999999996 Z" style="fill:rgb(255,255,255);" />
<path d=" M132.46834846741 141.731628483874 A13 13 0 0 0 132.46834846741 158.268371516126 L132.47 158.27 L208.058397362121 249.981571798997 A55 55 0 0 0 250.5 270 L1716.34 270 L1716.34 30 L250.5 30 A55 55 0 0 0 208.058397362121 50.0184282010035 L208.06 50.0200000000004 Z" style="fill:rgb(128,0,0);" />
</g>
</svg>
