<?xml version="1.0" encoding="UTF-8"?>
<!DOCTYPE svg PUBLIC '-//W3C//DTD SVG 1.0//EN' 'http://www.w3.org/TR/2001/REC-SVG-20010904/DTD/svg10.dtd'>
<svg xmlns:xlink="http://www.w3.org/1999/xlink" xmlns="http://www.w3.org/2000/svg" width="900" height="250">
<!--Gegenereerd door de SIMaD-toepassing (http://www.dlw.be).-->
<g style="stroke:none;fill-rule:evenodd;" transform="matrix(1,0,0,-1,0,250)">
<path d=" M900 125 L900 205 A45 45 0 0 1 855 250 L45 250 A45 45 0 0 1 0 205 L0 45 A45 45 0 0 1 45 0 L855 0 A45 45 0 0 1 900 45 Z" style="fill:rgb(255,255,255);stroke:rgb(0,0,0);" />
<path d=" M775 137.5 L775 112.5 L825 112.5 L825 75 L875 125 L825 175 L825 137.5 Z" style="fill:rgb(0,0,0);" />
</g>
</svg>
