<svg xmlns:xlink="http://www.w3.org/1999/xlink" xmlns="http://www.w3.org/2000/svg" width="400" height="600"  viewBox="-0.00001475214958190918 -0.00006103515625 400.00006103515625 600.0000610351562"><rect id="svgEditorBackground" x="-0.000014752151400898583" y="-0.00006103515625" width="400.00006103515625" height="600.0000610351562" style="fill:none;stroke:none;"/>
<!--Gegenereerd door de SIMaD-toepassing (http://www.dlw.be).-->
<g style="stroke:none;fill-rule:evenodd;" transform="matrix(1,0,0,-1,0,600.000000000026)">
<path d=" M45 0 L354.999966227879 1.26760824059602E-11 A45 45 0 0 1 399.999999999987 45.000033772121 L399.999999999888 554.999899469035 A45 45 0 0 1 355.000033772121 599.999999999987 L45.000033772121 599.999999999987 A45 45 0 0 1 1.26760824059602E-11 554.999966227879 L1.26760824059602E-11 45.000033772121 A45 45 0 0 1 45.000033772121 1.26760824059602E-11 Z" style="fill:rgb(128,0,0);"/>
<path d=" M45 15 L354.999977485253 15.0000000000084 A30 30 0 0 1 384.999999999992 45.0000225147473 L384.999999999925 554.999932979357 A30 30 0 0 1 355.000022514747 584.999999999992 L45.0000225147474 584.999999999992 A30 30 0 0 1 15.0000000000084 554.999977485253 L15.0000000000084 45.0000225147474 A30 30 0 0 1 45.0000225147474 15.0000000000084 Z" style="fill:rgb(255,255,255);"/>
<path d=" M45 30 L354.999988742626 30.0000000000042 A15 15 0 0 1 369.999999999996 45.0000112573737 L369.999999999963 554.999966489678 A15 15 0 0 1 355.000011257374 569.999999999996 L45.0000112573737 569.999999999996 A15 15 0 0 1 30.0000000000042 554.999988742626 L30.0000000000042 45.0000112573737 A15 15 0 0 1 45.0000112573737 30.0000000000042 Z" style="fill:rgb(128,0,0);"/>
<path d=" M349.67 155 L349.67 115 L149.67 115 L149.67 75 L49.67 135 L149.67 195 L149.67 155 Z" style="fill:rgb(255,255,255);"/>


















<path d=" M74.83 375 L324.83 375 L324.83 525.37 L74.83 525.37 Z" style="fill:rgb(255,255,255);"/>

</g>
</svg>