<?xml version="1.0" encoding="UTF-8"?>
<!DOCTYPE svg PUBLIC '-//W3C//DTD SVG 1.0//EN' 'http://www.w3.org/TR/2001/REC-SVG-20010904/DTD/svg10.dtd'>
<svg xmlns:xlink="http://www.w3.org/1999/xlink" xmlns="http://www.w3.org/2000/svg" width="1200" height="150">
<!--Gegenereerd door de SIMaD-toepassing (http://www.dlw.be).-->
<g style="stroke:none;fill-rule:evenodd;" transform="matrix(1,0,0,-1,0,150)">
<path d=" M0 75 L0 105 A45 45 0 0 0 45 150 L1155 150 A45 45 0 0 0 1200 105 L1200 45 A45 45 0 0 0 1155 0 L45 0 A45 45 0 0 0 0 45 Z" style="fill:rgb(255,255,0);" />
<path d=" M960 75 L960 140 L1155 140 A35 35 0 0 0 1190 105 L1190 45 A35 35 0 0 0 1155 10 L960 10 Z" style="fill:rgb(255,255,255);" />
<path d=" M125 62.5 L125 87.5 L75 87.5 L75 125 L25 75 L75 25 L75 62.5 Z" style="fill:rgb(128,0,0);" />
</g>
</svg>
