<?xml version="1.0" encoding="UTF-8"?>
<!DOCTYPE svg PUBLIC '-//W3C//DTD SVG 1.0//EN' 'http://www.w3.org/TR/2001/REC-SVG-20010904/DTD/svg10.dtd'>
<svg xmlns:xlink="http://www.w3.org/1999/xlink" xmlns="http://www.w3.org/2000/svg" width="1300" height="300">
<!--Gegenereerd door de SIMaD-toepassing (http://www.dlw.be).-->
<g style="stroke:none;fill-rule:evenodd;" transform="matrix(1,0,0,-1,0,300)">
<path d=" M0 150 L0 255 A45 45 0 0 0 45 300 L1255 300 A45 45 0 0 0 1300 255 L1300 45 A45 45 0 0 0 1255 0 L45 0 A45 45 0 0 0 0 45 Z" style="fill:rgb(255,255,0);" />
<path d=" M1060 150 L1060 290 L1255 290 A35 35 0 0 0 1290 255 L1290 45 A35 35 0 0 0 1255 10 L1060 10 Z" style="fill:rgb(255,255,255);" />
<path d=" M125 137.5 L125 162.5 L75 162.5 L75 200 L25 150 L75 100 L75 137.5 Z" style="fill:rgb(128,0,0);" />
</g>
</svg>
