<?xml version="1.0" encoding="UTF-8"?>
<!DOCTYPE svg PUBLIC '-//W3C//DTD SVG 1.0//EN' 'http://www.w3.org/TR/2001/REC-SVG-20010904/DTD/svg10.dtd'>
<svg xmlns:xlink="http://www.w3.org/1999/xlink" xmlns="http://www.w3.org/2000/svg" width="900.000000969553" height="700.000000001859">
<!--Gegenereerd door de SIMaD-toepassing (http://www.dlw.be).-->
<g style="stroke:none;fill-rule:evenodd;" transform="matrix(1,0,0,-1,0,700.000000001859)">
<path d=" M65 0 L834.999995462144 1.56319401867222E-13 A65 65 0 0 1 900 65.0000045378561 L899.999999999999 634.999987520896 A65 65 0 0 1 835.000004537856 700 L65.0000045378561 700 A65 65 0 0 1 1.56319401867222E-13 634.999995462144 L1.56319401867222E-13 65.0000045378561 A65 65 0 0 1 65.0000045378561 1.56319401867222E-13 Z" style="fill:rgb(255,255,255);stroke:rgb(0,0,0);" />
<path d=" M65 15 L834.999996509341 15.0000000000001 A50 50 0 0 1 885 65.0000034906585 L884.999999999999 634.999990400689 A50 50 0 0 1 835.000003490659 685 L65.0000034906585 685 A50 50 0 0 1 15.0000000000001 634.999996509341 L15.0000000000001 65.0000034906585 A50 50 0 0 1 65.0000034906585 15.0000000000001 Z" style="fill:rgb(0,0,0);" />
<path d=" M65 30 L834.999997556539 30.0000000000001 A35 35 0 0 1 870 65.000002443461 L869.999999999999 634.999993280482 A35 35 0 0 1 835.000002443461 670 L65.000002443461 670 A35 35 0 0 1 30.0000000000001 634.999997556539 L30.0000000000001 65.000002443461 A35 35 0 0 1 65.000002443461 30.0000000000001 Z" style="fill:rgb(255,255,255);" />
<path d=" M168.71 89.88 L168.71 295.44 L230.91 274.93 L230.91 235.09 L325.62 258.23 L325.62 369.76 L371.72 429.97 L425.28 371.29 L425.28 218.33 L470.48 263.28 L512.26 205 L540.88 205 L540.88 193.23 L572.97 193.23 L572.97 132.89 L592.31 132.89 L592.31 205.02 L734.05 278.56 L734.05 90.12 Z" style="fill:rgb(0,0,0);" />
<path d=" M30.1695919364072 61.5586813394263 A35 35 0 0 1 65.0000012217305 30 L71.25 30 L869.830408363904 638.441315621047 A35 35 0 0 1 835.000001832596 670 L828.75 670 L30.17 61.56 Z" style="fill:rgb(255,0,0);" />
</g>
</svg>
