<?xml version="1.0" encoding="UTF-8"?>
<!DOCTYPE svg PUBLIC '-//W3C//DTD SVG 1.0//EN' 'http://www.w3.org/TR/2001/REC-SVG-20010904/DTD/svg10.dtd'>
<svg xmlns:xlink="http://www.w3.org/1999/xlink" xmlns="http://www.w3.org/2000/svg" width="2000.00000000024" height="300">
<!--Gegenereerd door de SIMaD-toepassing (http://www.dlw.be).-->
<g style="stroke:none;fill-rule:evenodd;" transform="matrix(1,0,0,-1,0,300)">
<path d=" M1982.3 180.43 L1791.51034769549 288.892697112121 A85 85 0 0 1 1749.50000741765 300 L65.0000045378561 300 A65 65 0 0 1 1.56319401867222E-13 234.999995462144 L1.56319401867222E-13 65.0000045378561 A65 65 0 0 1 65.0000045378561 1.56319401867222E-13 L1749.49999258235 3.26849658449646E-13 A85 85 0 0 1 1791.51033608846 11.1072962889099 L1791.52 11.11 L1982.29837209036 119.57359168381 A35 35 0 0 1 1982.29837209036 180.42640831619 Z" style="fill:rgb(255,128,0);" />
<path d=" M1974.88 167.39 L1784.0967569257 275.852809386453 A70 70 0 0 1 1749.50000610865 285 L65.0000034906585 285 A50 50 0 0 1 15.0000000000001 234.999996509341 L15.0000000000001 65.0000034906585 A50 50 0 0 1 65.0000034906585 15.0000000000001 L1749.49999389135 15.0000000000003 A70 70 0 0 1 1784.09674736696 24.1471851791023 L1784.1 24.15 L1974.88478405163 132.613480962177 A20 20 0 0 1 1974.88478405163 167.386519037823 Z" style="fill:rgb(0,0,0);" />
<path d=" M1867.53 158.27 L1791.94161240658 249.981559947064 A55 55 0 0 1 1749.50000479966 270 L65.000002443461 270 A35 35 0 0 1 30.0000000000001 234.999997556539 L30.0000000000001 65.000002443461 A35 35 0 0 1 65.000002443461 30.0000000000001 L1749.49999520034 30.0000000000002 A55 55 0 0 1 1791.9416056906 50.0184319047322 L1791.94 50.02 L1867.53165109966 141.731627958618 A13 13 0 0 1 1867.53165109966 158.268372041382 Z" style="fill:rgb(255,128,0);" />
</g>
</svg>
