<?xml version="1.0" encoding="UTF-8"?>
<!DOCTYPE svg PUBLIC '-//W3C//DTD SVG 1.0//EN' 'http://www.w3.org/TR/2001/REC-SVG-20010904/DTD/svg10.dtd'>
<svg xmlns:xlink="http://www.w3.org/1999/xlink" xmlns="http://www.w3.org/2000/svg" width="1749.99999999933" height="300">
<!--Gegenereerd door de SIMaD-toepassing (http://www.dlw.be).-->
<g style="stroke:none;fill-rule:evenodd;" transform="matrix(1,0,0,-1,0,300)">
<path d=" M17.7 180.43 L208.489663911544 288.89270371109 A85 85 0 0 0 250.500007417649 300 L1684.99999546214 300 A65 65 0 0 0 1750 234.999995462144 L1750 65.0000124791042 A65 65 0 0 0 1685.00000453786 1.56319401867222E-13 L250.500007417649 3.26849658449646E-13 A85 85 0 0 0 208.489663911544 11.1072962889099 L208.48 11.1099999999999 L17.701627909641 119.57359168381 A35 35 0 0 0 17.701627909641 180.42640831619 Z" style="fill:rgb(255,128,0);" />
<path d=" M25.12 167.39 L215.903252633036 275.852814820898 A70 70 0 0 0 250.500006108652 285 L1684.99999650934 285 A50 50 0 0 0 1735 234.999996509341 L1735 65.0000095993109 A50 50 0 0 0 1685.00000349066 15.0000000000001 L250.500006108652 15.0000000000003 A70 70 0 0 0 215.903252633036 24.1471851791023 L215.9 24.1500000000001 L25.1152159483663 132.613480962177 A20 20 0 0 0 25.1152159483663 167.386519037823 Z" style="fill:rgb(0,0,0);" />
<path d=" M132.47 158.27 L208.058394309403 249.981568095268 A55 55 0 0 0 250.500004799655 270 L1684.99999755654 270 A35 35 0 0 0 1720 234.999997556539 L1720 65.0000067195176 A35 35 0 0 0 1685.00000244346 30.0000000000001 L250.500004799655 30.0000000000002 A55 55 0 0 0 208.058394309403 50.0184319047322 L208.06 50.02 L132.468348900341 141.731627958618 A13 13 0 0 0 132.468348900341 158.268372041382 Z" style="fill:rgb(255,128,0);" />
</g>
</svg>
