<?xml version="1.0" encoding="UTF-8"?>
<!DOCTYPE svg PUBLIC '-//W3C//DTD SVG 1.0//EN' 'http://www.w3.org/TR/2001/REC-SVG-20010904/DTD/svg10.dtd'>
<svg xmlns:xlink="http://www.w3.org/1999/xlink" xmlns="http://www.w3.org/2000/svg" width="900" height="700">
<!--Gegenereerd door de SIMaD-toepassing (http://www.dlw.be).-->
<g style="stroke:none;fill-rule:evenodd;" transform="matrix(1,0,0,-1,0,700)">
<path d=" M65 0 L835 0 A65 65 0 0 1 900 65 L900 635 A65 65 0 0 1 835 700 L65 700 A65 65 0 0 1 0 635 L0 65 A65 65 0 0 1 65 0 Z" style="fill:rgb(255,255,0);" />
<path d=" M65 0 L835 0 A65 65 0 0 1 900 65 L900 635 A65 65 0 0 1 835 700 L65 700 A65 65 0 0 1 0 635 L0 65 A65 65 0 0 1 65 0 Z" style="fill:rgb(255,0,0);" />
<path d=" M65 35 L835 35 A30 30 0 0 1 865 65 L865 635 A30 30 0 0 1 835 665 L65 665 A30 30 0 0 1 35 635 L35 65 A30 30 0 0 1 65 35 Z" style="fill:rgb(255,255,0);" />
</g>
</svg>
