<?xml version="1.0" encoding="UTF-8"?>
<!DOCTYPE svg PUBLIC '-//W3C//DTD SVG 1.0//EN' 'http://www.w3.org/TR/2001/REC-SVG-20010904/DTD/svg10.dtd'>
<svg xmlns:xlink="http://www.w3.org/1999/xlink" xmlns="http://www.w3.org/2000/svg" width="1500" height="900">
<!--Gegenereerd door de SIMaD-toepassing (http://www.dlw.be).-->
<g style="stroke:none;fill-rule:evenodd;" transform="matrix(1,0,0,-1,0,900)">
<path d=" M65 0 L1435 0 A65 65 0 0 1 1500 65 L1500 835 A65 65 0 0 1 1435 900 L65 900 A65 65 0 0 1 0 835 L0 65 A65 65 0 0 1 65 0 Z" style="fill:rgb(255,255,0);" />
<path d=" M65 0 L1435 0 A65 65 0 0 1 1500 65 L1500 835 A65 65 0 0 1 1435 900 L65 900 A65 65 0 0 1 0 835 L0 65 A65 65 0 0 1 65 0 Z" style="fill:rgb(255,0,0);" />
<path d=" M65 35 L1435 35 A30 30 0 0 1 1465 65 L1465 835 A30 30 0 0 1 1435 865 L65 865 A30 30 0 0 1 35 835 L35 65 A30 30 0 0 1 65 35 Z" style="fill:rgb(255,255,0);" />
</g>
</svg>
