<?xml version="1.0" encoding="UTF-8"?>
<!DOCTYPE svg PUBLIC '-//W3C//DTD SVG 1.0//EN' 'http://www.w3.org/TR/2001/REC-SVG-20010904/DTD/svg10.dtd'>
<svg xmlns:xlink="http://www.w3.org/1999/xlink" xmlns="http://www.w3.org/2000/svg" width="1100.00000000005" height="700.000000000001">
<!--Gegenereerd door de SIMaD-toepassing (http://www.dlw.be).-->
<g style="stroke:none;fill-rule:evenodd;" transform="matrix(1,0,0,-1,0,700.000000000001)">
<path d=" M65 0 L1034.99999546214 1.56319401867222E-13 A65 65 0 0 1 1100 65.0000045378561 L1100 634.999987520896 A65 65 0 0 1 1035.00000453786 700 L65.0000045378561 700 A65 65 0 0 1 1.56319401867222E-13 634.999995462144 L1.56319401867222E-13 65.0000045378561 A65 65 0 0 1 65.0000045378561 1.56319401867222E-13 Z" style="fill:rgb(255,0,0);" />
<path d=" M65 35 L1034.9999979056 35.0000000000001 A30 30 0 0 1 1065 65.0000020943951 L1065 634.999994240413 A30 30 0 0 1 1035.0000020944 665 L65.0000020943951 665 A30 30 0 0 1 35.0000000000001 634.999997905605 L35.0000000000001 65.0000020943951 A30 30 0 0 1 65.0000020943951 35.0000000000001 Z" style="fill:rgb(255,255,0);" />
</g>
</svg>
