<?xml version="1.0" encoding="UTF-8"?>
<!DOCTYPE svg PUBLIC '-//W3C//DTD SVG 1.0//EN' 'http://www.w3.org/TR/2001/REC-SVG-20010904/DTD/svg10.dtd'>
<svg xmlns:xlink="http://www.w3.org/1999/xlink" xmlns="http://www.w3.org/2000/svg" width="1300" height="700">
<!--Gegenereerd door de SIMaD-toepassing (http://www.dlw.be).-->
<g style="stroke:none;fill-rule:evenodd;" transform="matrix(1,0,0,-1,0,700)">
<path d=" M65 0 L1235 0 A65 65 0 0 1 1300 65 L1300 635 A65 65 0 0 1 1235 700 L65 700 A65 65 0 0 1 0 635 L0 65 A65 65 0 0 1 65 0 Z" style="fill:rgb(255,255,0);" />
<path d=" M65 0 L1235 0 A65 65 0 0 1 1300 65 L1300 635 A65 65 0 0 1 1235 700 L65 700 A65 65 0 0 1 0 635 L0 65 A65 65 0 0 1 65 0 Z" style="fill:rgb(255,0,0);" />
<path d=" M65 35 L1235 35 A30 30 0 0 1 1265 65 L1265 635 A30 30 0 0 1 1235 665 L65 665 A30 30 0 0 1 35 635 L35 65 A30 30 0 0 1 65 35 Z" style="fill:rgb(255,255,0);" />
</g>
</svg>
