<?xml version="1.0" encoding="UTF-8"?>
<!DOCTYPE svg PUBLIC '-//W3C//DTD SVG 1.0//EN' 'http://www.w3.org/TR/2001/REC-SVG-20010904/DTD/svg10.dtd'>
<svg xmlns:xlink="http://www.w3.org/1999/xlink" xmlns="http://www.w3.org/2000/svg" width="400" height="600">
<!--Gegenereerd door de SIMaD-toepassing (http://www.dlw.be).-->
<g style="stroke:none;fill-rule:evenodd;" transform="matrix(1,0,0,-1,0,600)">
<path d=" M0 45 L1.06581410364015E-13 554.999996858407 A45 45 0 0 0 45.0000031415927 600 L354.999996858407 600 A45 45 0 0 0 400 554.999996858407 L399.999999999999 45.0000086393798 A45 45 0 0 0 355.000003141593 1.06581410364015E-13 L45.0000031415927 1.06581410364015E-13 A45 45 0 0 0 1.06581410364015E-13 45.0000031415927 Z" style="fill:rgb(0,0,255);" />
<path d=" M15 45 L15.0000000000001 554.999997905605 A30 30 0 0 0 45.0000020943951 585 L354.999997905605 585 A30 30 0 0 0 385 554.999997905605 L384.999999999999 45.0000057595865 A30 30 0 0 0 355.000002094395 15.0000000000001 L45.0000020943951 15.0000000000001 A30 30 0 0 0 15.0000000000001 45.0000020943951 Z" style="fill:rgb(255,255,255);" />
<path d=" M30 45 L30 554.999998952802 A15 15 0 0 0 45.0000010471975 570 L354.999998952802 570 A15 15 0 0 0 370 554.999998952802 L370 45.0000028797933 A15 15 0 0 0 355.000001047198 30 L45.0000010471975 30 A15 15 0 0 0 30 45.0000010471975 Z" style="fill:rgb(0,0,255);" />
<path d=" M262.89 444.91 L261.426197445607 450.327999760135 A0.51 0.51 0 0 1 260.814872359595 450.585834761192 L260.827106867716 450.586028153624 A15.15 15.15 0 0 0 258.446309032534 457.887547468726 L258.441638141939 457.895311146647 A12.97 12.97 0 0 0 254.141428399373 466.66763370218 L254.137387737674 466.658665202538 A34.39 34.39 0 0 0 249.373674454468 456.730666670642 L249.37940213577 456.739603638093 A525.94 525.94 0 0 1 248.012066845306 452.103241985979 L248.01 452.1 L246.63 450.46 L246.84 449.8 L246.60321467286 448.951868549814 A1.37 1.37 0 0 1 247.301527368498 447.277632153396 L247.305642309673 447.287474750641 A9.45 9.45 0 0 1 249.686525677333 446.442005214257 L249.680807340253 446.432555953562 A1.8 1.8 0 0 0 250.56209920354 445.048464965708 L250.56 445.05 L250.8 444.93 L250.759066320261 444.435467896049 A9.43 9.43 0 0 0 246.763262810079 444.204766131991 L246.763437225455 444.2102121532 A6.73 6.73 0 0 0 241.92324117823 446.209266443541 L241.92 446.21 L241.31 445.44 L238.93 446.44 L239.08 447.13 L238.77 447.44 L240.84 451.11 L240.846939231977 451.819276032118 A148.26 148.26 0 0 1 247.499669410506 473.332989505041 L247.5 473.33 L247.55 475.34 L246.891840662432 475.400336005236 A0.71 0.71 0 0 0 246.160065526957 476.100354068977 L246.16 476.1 L246.09 477.24 L245.642770240513 477.26083646855 A49.56 49.56 0 0 0 246.47477652986 495.387212392747 L246.476961101349 495.392951600886 A28.08 28.08 0 0 0 250.842970792896 507.219797237931 L250.84 507.22 L250.52 507.64 L251.27 509.03 L251.8 508.6 L251.90554334406 508.917244251682 A3.43 3.43 0 0 1 252.012181364441 511.4779998377 L252.017691598291 511.484178259888 A34.41 34.41 0 0 0 251.234938300341 515.053093601975 L251.224773123166 515.045249180495 A4.03 4.03 0 0 0 252.233684612722 518.073834531453 L252.232463805298 518.079278025035 A1.88 1.88 0 0 1 253.238776148457 518.8492816877 L253.245162663908 518.844839147365 A8.32 8.32 0 0 0 257.452037165862 518.793305573151 L257.458174419327 518.792792230167 A3.49 3.49 0 0 1 259.4324996593 517.695062834747 L259.420832951497 517.692383020003 A0.74 0.74 0 0 0 259.349014061878 516.945509316933 L259.352453954162 516.945050795627 A6.26 6.26 0 0 0 259.293118216029 514.082374403634 L259.302110924217 514.082559042095 A6.22 6.22 0 0 0 259.836127666233 511.945185970875 L259.835348196509 511.946709183174 A1.74 1.74 0 0 1 259.195080249582 511.735490752313 L259.19 511.74 L258.944154235892 509.391335184712 A1.18 1.18 0 0 0 257.633621091742 508.616455705875 L257.637918419907 508.62438924252 A1.46 1.46 0 0 1 256.663422748246 506.622495744617 L256.662254862255 506.616836277872 A22.03 22.03 0 0 0 260.639686466737 494.107533728136 L260.635343644366 494.112445707665 A1.55 1.55 0 0 1 261.489441488508 492.93739807826 L261.486848285126 492.93837303391 A30.67 30.67 0 0 0 269.153595738571 486.652352757438 L269.16 486.65 L268.838715550399 486.11446091378 A3.66 3.66 0 0 0 271.908290635878 484.733435468215 L271.91355613115 484.734732823788 A3.3 3.3 0 0 0 271.425365607635 481.911977176014 L271.420861215264 481.912292937485 A2.73 2.73 0 0 0 269.349182236322 481.957398032758 L269.357015642737 481.95194862643 A1.35 1.35 0 0 1 266.791570371253 482.73739376126 L266.798396864347 482.743700734974 A34.91 34.91 0 0 1 261.265527280019 486.13695052546 L261.26 486.13 L263.247405623852 477.101789141103 A1.23 1.23 0 0 0 262.099809774583 475.380165720596 L262.100196421698 475.379798380595 A12.22 12.22 0 0 1 260.899342214613 475.327580407474 L260.897035416899 475.327204123346 A17.21 17.21 0 0 1 263.586627469825 463.805227760693 L263.583624401815 463.813173716808 A38.85 38.85 0 0 1 267.270674414475 450.130007076534 L267.27 450.13 L267.889055365901 450.123006948655 A1.73 1.73 0 0 1 270.141747923202 449.018026067743 L270.136989037918 449.015568663118 A9.21 9.21 0 0 0 271.573754532177 449.119843128429 L271.576599880323 449.124362829088 A2.09 2.09 0 0 0 273.724022124172 447.666079682078 L273.73 447.67 L272.723797480118 446.67012617211 A8.5 8.5 0 0 0 265.810724466458 445.36333443092 L265.81 445.36 L265.97 444.44 L263.28 444.13 L263.13 444.9 Z" style="fill:rgb(255,255,255);" />
<path d=" M118.999637289262 466.274530890817 A18.38 18.38 0 0 0 118.82007640213 463.824533384228 L118.82 463.83 L119.46371242299 463.73379930735 A19.03 19.03 0 0 1 107.906794590467 483.969633801543 L107.91 483.98 L108.61 486.65 L127.673784749062 469.287000209283 A5.19 5.19 0 0 1 131.33124746394 461.240706830355 L131.33 461.24 L131.33 456.55 L129.93 456.55 L129.93 455.04 L134.04 455.04 L134.04 456.55 L132.63 456.55 L132.62874912092 461.240706400087 A5.19 5.19 0 0 1 137.114514706545 465.633125685287 L137.12 465.64 L137.835057625088 465.633120565233 A19.03 19.03 0 0 1 138.12035652746 463.022307111456 L138.12 463.03 L138.760094986919 463.137349293622 A18.38 18.38 0 0 0 138.485588995434 465.633158896872 L138.49 465.64 L139.566564693633 465.633122195711 A17.3 17.3 0 1 1 172.053534176086 474.644850002064 L172.06 474.65 L172.980009282336 475.201764894262 A18.38 18.38 0 0 0 173.583812990695 473.992887792967 L173.59 474 L174.175588672574 474.261777254773 A19.03 19.03 0 0 1 148.834497339011 483.649565958959 L148.84 483.66 L144.78 491.55 L145.702022287995 493.49879103921 A0.7 0.7 0 0 0 146.277671753284 493.868719056224 L146.280889935766 493.858498454405 A1.71 1.71 0 0 1 147.129529894555 494.283182422293 L147.125845436833 494.286675466929 A0.94 0.94 0 0 1 146.537557481084 495.875913290592 L146.543093824653 495.87250119206 A25.9 25.9 0 0 1 138.507951628857 495.754888072341 L138.501961992495 495.756632274666 A0.85 0.85 0 0 1 138.63244403079 494.111204223106 L138.63 494.11 L143.047390269143 493.925108360162 A0.7 0.7 0 0 0 143.748381755835 492.901969507439 L143.75 492.9 L143.18 491.7 L109.92 491.7 L110.852727119221 495.264011740637 A11.64 11.64 0 0 1 114.775766807871 495.681602561883 L114.776181606613 495.688383279915 A5.89 5.89 0 0 0 117.343818393387 495.688383279915 L117.341786943413 495.682891932283 A0.9 0.9 0 0 1 117.764699975229 497.262618176538 L117.759751297915 497.261660381132 A4.02 4.02 0 0 1 115.478068375584 497.487133162146 L115.475190717845 497.492265842196 A19.43 19.43 0 0 0 109.790144143504 497.213106564793 L109.79 497.21 L106.47949303395 484.495447837187 A19.03 19.03 0 0 1 95.5849993050683 484.741830099531 L95.59 484.75 L95.7569944892912 484.114998657343 A18.38 18.38 0 0 0 106.315308648625 483.865350050769 L106.32 483.87 L106.042684987667 482.818161416438 A17.3 17.3 0 1 1 117.919321369694 466.236767666422 L117.92 466.24 Z M150.467276953022 480.470924916552 A15.46 15.46 0 0 0 169.695021663064 474.993314388968 L169.7 475 L159.45010295466 468.83629610333 A3.57 3.57 0 0 1 155.929428657975 469.839267806976 L155.93 469.84 Z M149.12096697897 479.779310981519 A15.46 15.46 0 0 1 141.408533883548 467.146785421684 L141.41 467.15 L153.361241143291 467.147272500316 A3.57 3.57 0 0 0 154.582244309926 469.147205855597 L154.59 469.15 Z M148.279200801547 481.417687816155 A17.3 17.3 0 0 1 139.566565103146 467.146887155528 L139.57 467.15 L138.485588651993 467.146832769622 A18.38 18.38 0 0 0 147.785304416583 482.379236816683 L147.79 482.39 Z M147.488011405385 482.957862552372 A19.03 19.03 0 0 1 137.835057426938 467.146874456666 L137.84 467.15 L137.114514812225 467.1468735978 A5.19 5.19 0 0 1 134.868670642887 470.701807268063 L134.87 470.71 L143.96 489.83 Z M172.21 476.5 L171.273719265093 475.942294099418 A17.3 17.3 0 0 1 149.62569364444 482.109395588922 L149.63 482.11 L149.131694512156 483.070892074356 A18.38 18.38 0 0 0 172.200255239074 476.499107977229 Z M102.659323993137 467.617011675175 A2.38 2.38 0 0 0 102.84850715479 467.225557215906 L102.85 467.23 L116.135705492468 467.689147055187 A15.57 15.57 0 0 1 107.024525818538 480.581791607816 L107.03 480.59 L104.958409752454 472.618652888316 A10.66 10.66 0 0 0 102.665636639546 467.617436816124 Z M118.95 467.79 L117.866491551806 467.749606249433 A17.3 17.3 0 0 1 107.466193035423 482.277719815056 L107.47 482.28 L107.74117079375 483.334418742649 A18.38 18.38 0 0 0 118.946812649662 467.787260929175 Z M129.93 477.75 L134.04 477.75 L134.04 476.23 L132.63 476.23 L132.628751367723 471.539293316842 A5.19 5.19 0 0 0 133.501635355525 471.351927633976 L133.5 471.36 L142.46 490.18 L109.53 490.18 L109.04 488.31 L128.692873277651 470.406328909741 A5.19 5.19 0 0 0 131.3312533955 471.539293916951 L131.33 471.54 L131.33 476.23 L129.93 476.23 Z M170.47473319772 473.696041697866 A15.46 15.46 0 1 0 141.408533672215 465.633218890387 L141.41 465.64 L153.361241037556 465.632727986807 A3.57 3.57 0 1 1 160.230323514916 467.53817809355 L160.23 467.54 Z M101.499120796015 468.601684115332 A2.38 2.38 0 1 1 102.901364716415 465.71193287154 L102.9 465.72 L116.188533808087 466.17632953772 A15.57 15.57 0 1 0 105.605711336557 481.140172286063 L105.61 481.15 L103.459029547082 472.902317059858 A9.21 9.21 0 0 0 101.498232096423 468.605783044629 Z" style="fill:rgb(255,255,255);" />
<path d=" M206.25 530 L193.75 530 L193.75 430 L206.25 430 Z" style="fill:rgb(255,255,255);" />
<path d=" M140 390 L260 390 L260 430 L140 430 Z" style="fill:rgb(255,0,0);" />
<path d=" M225 390 L175 390 L175 90 L225 90 Z" style="fill:rgb(255,255,255);" />
</g>
</svg>
