<?xml version="1.0" encoding="UTF-8"?>
<!DOCTYPE svg PUBLIC '-//W3C//DTD SVG 1.0//EN' 'http://www.w3.org/TR/2001/REC-SVG-20010904/DTD/svg10.dtd'>
<svg xmlns:xlink="http://www.w3.org/1999/xlink" xmlns="http://www.w3.org/2000/svg" width="400" height="600.000000000001">
<!--Gegenereerd door de SIMaD-toepassing (http://www.dlw.be).-->
<g style="stroke:none;fill-rule:evenodd;" transform="matrix(1,0,0,-1,0,600.000000000001)">
<path d=" M0 45 L1.06581410364015E-13 554.999996858407 A45 45 0 0 0 45.0000031415927 600 L354.999996858407 600 A45 45 0 0 0 400 554.999996858407 L399.999999999999 45.0000086393798 A45 45 0 0 0 355.000003141593 1.06581410364015E-13 L45.0000031415927 1.06581410364015E-13 A45 45 0 0 0 1.06581410364015E-13 45.0000031415927 Z" style="fill:rgb(0,0,255);" />
<path d=" M15 45 L15.0000000000001 554.999997905605 A30 30 0 0 0 45.0000020943951 585 L354.999997905605 585 A30 30 0 0 0 385 554.999997905605 L384.999999999999 45.0000057595865 A30 30 0 0 0 355.000002094395 15.0000000000001 L45.0000020943951 15.0000000000001 A30 30 0 0 0 15.0000000000001 45.0000020943951 Z" style="fill:rgb(255,255,255);" />
<path d=" M30 45 L30 554.999998952802 A15 15 0 0 0 45.0000010471975 570 L354.999998952802 570 A15 15 0 0 0 370 554.999998952802 L370 45.0000028797933 A15 15 0 0 0 355.000001047198 30 L45.0000010471975 30 A15 15 0 0 0 30 45.0000010471975 Z" style="fill:rgb(0,0,255);" />
<path d=" M260 390 L140 390 L140 430 L260 430 Z" style="fill:rgb(255,0,0);" />
<path d=" M80 200 L175 200 L175 90 L225 90 L225 390 L175 390 L175 250 L80 250 Z" style="fill:rgb(255,255,255);" />
</g>
</svg>
