<?xml version="1.0" encoding="UTF-8"?>
<!DOCTYPE svg PUBLIC '-//W3C//DTD SVG 1.0//EN' 'http://www.w3.org/TR/2001/REC-SVG-20010904/DTD/svg10.dtd'>
<svg xmlns:xlink="http://www.w3.org/1999/xlink" xmlns="http://www.w3.org/2000/svg" width="600" height="900.000000000001">
<!--Gegenereerd door de SIMaD-toepassing (http://www.dlw.be).-->
<g style="stroke:none;fill-rule:evenodd;" transform="matrix(1,0,0,-1,0,900.000000000001)">
<path d=" M0 65 L1.56319401867222E-13 834.999995462144 A65 65 0 0 0 65.0000045378561 900 L534.999995462144 900 A65 65 0 0 0 600 834.999995462144 L599.999999999999 65.0000124791042 A65 65 0 0 0 535.000004537856 1.56319401867222E-13 L65.0000045378561 1.56319401867222E-13 A65 65 0 0 0 1.56319401867222E-13 65.0000045378561 Z" style="fill:rgb(0,0,255);" />
<path d=" M15 65 L15.0000000000001 834.999996509341 A50 50 0 0 0 65.0000034906585 885 L534.999996509342 885 A50 50 0 0 0 585 834.999996509341 L584.999999999999 65.0000095993109 A50 50 0 0 0 535.000003490658 15.0000000000001 L65.0000034906585 15.0000000000001 A50 50 0 0 0 15.0000000000001 65.0000034906585 Z" style="fill:rgb(255,255,255);" />
<path d=" M30 65 L30.0000000000001 834.999997556539 A35 35 0 0 0 65.000002443461 870 L534.999997556539 870 A35 35 0 0 0 570 834.999997556539 L569.999999999999 65.0000067195176 A35 35 0 0 0 535.000002443461 30.0000000000001 L65.000002443461 30.0000000000001 A35 35 0 0 0 30.0000000000001 65.000002443461 Z" style="fill:rgb(0,0,255);" />
<path d=" M30 250.23 L30 132.73 L570 648.17 L570 765.67 Z" style="fill:rgb(255,0,0);" />
<path d=" M190.367579339453 260.34171137329 A18.46 18.46 0 0 1 191.602215724636 274.838920390169 L191.593780896354 274.839730780541 A13.54 13.54 0 0 0 194.85259094281 286.22308723247 L194.859051359549 286.225405765568 A14.33 14.33 0 0 1 197.566845879418 292.673758402027 L197.56 292.67 L142.207709124814 239.825131834807 A249 249 0 0 1 142.862726078493 236.486994916708 L142.856533796844 236.482392104833 A8.62 8.62 0 0 1 139.749160633793 227.151499191189 L139.75 227.15 L139.75 217.06 L118.11 216.83 L84.87 185.11 L537.47 185.11 L537.47 391.08 L495.620119719758 355.675253807802 A31.57 31.57 0 0 0 460.725969495604 367.961887781456 L460.72 367.96 L371.748172683784 409.243152123982 A313.59 313.59 0 0 0 346.053542479472 425.536796524702 L346.06 425.54 L343.49 431.96 L283.13 374.35 L286.390369152657 371.511183030105 A233.46 233.46 0 0 1 254.564326447935 273.115827066248 L254.56022737294 273.109812037421 A46.47 46.47 0 0 1 236.087988425734 253.918594871083 L236.09 253.92 L254.52 235.49 L261.898859066584 241.882667988843 A70.03 70.03 0 0 1 282.297437699629 215.094166282556 L282.29 215.09 L203.76267866775 215.095681722852 A983.54 983.54 0 0 0 210.55179298306 234.552996865429 L210.552900489149 234.546332944739 A7.2 7.2 0 0 1 205.107458766699 244.933342439516 L205.106929948082 244.925921906628 A36.02 36.02 0 0 0 187.470634651793 246.565144797695 L187.473871401521 246.571150577616 A19.99 19.99 0 0 0 190.360984806142 260.345503549456 Z M442.364340105909 296.02043990595 A20.53 20.53 0 0 1 426.535287835917 286.081794656001 L426.534450349126 286.073211381771 A144.01 144.01 0 0 1 402.247965755351 253.382182916276 L402.253792500024 253.376952995034 A174.92 174.92 0 0 1 380.048993959106 238.107552454499 L380.040993352129 238.113317153441 A11.6 11.6 0 0 0 371.777313897315 234.236806235252 L371.777661990886 234.235467960964 A7.09 7.09 0 0 1 364.040012753424 228.991277470637 L364.047576389731 228.991454650288 A6.27 6.27 0 0 1 359.860089393188 223.850956410475 L359.850276354025 223.856901706852 A11.09 11.09 0 0 0 353.421946069564 218.134393187875 L353.422563771066 218.130472963585 A6.05 6.05 0 0 1 349.875512357257 212.878203672954 L349.881094713604 212.874644254926 A12.1 12.1 0 0 0 342.60618681328 212.149776362343 L342.606725591006 212.15481839708 A41.2 41.2 0 0 1 335.134067096545 213.371025546918 L335.135005061323 213.370691447693 A8.48 8.48 0 0 1 339.029757809609 219.157027981765 L339.031450001034 219.158475787897 A2.02 2.02 0 0 1 338.905348131767 220.656155683713 L338.902083778466 220.653574724109 A54.85 54.85 0 0 0 316.880678972713 247.866128598609 L316.889126908085 247.871565256151 A24.28 24.28 0 0 1 311.996219557557 259.391198098406 L311.99 259.39 L308.46 258.36 L296.827513646536 268.353429199161 A54.01 54.01 0 0 1 311.119786994528 273.996662074776 L311.12 274 L358.837890963003 360.142624492136 A34.8 34.8 0 0 1 357.166257161122 396.628920227488 L357.17 396.63 L352.681885870045 406.886636412368 A2.29 2.29 0 0 0 355.538336788767 410.020029094565 L355.54 410.02 L455.801490097713 363.534597377415 A35.02 35.02 0 0 1 488.409446907418 347.327828855347 L488.416466528577 347.321956820646 A63.2 63.2 0 0 1 467.06574677506 321.584073808182 L467.06903866629 321.591028139407 A84.36 84.36 0 0 0 442.366939281329 296.013497415011 Z" style="fill:rgb(255,255,255);" />
<path d=" M284.62 493.27 L352.445521442149 558.015560772496 A138.35 138.35 0 0 0 353.841024706806 561.801100492925 L353.839213765713 561.794459528293 A25.27 25.27 0 0 1 350.696896017856 592.864134575603 L350.7 592.87 L333.94032209932 614.688043385934 A6.74 6.74 0 0 0 341.775885014261 625.232988440747 L341.779082577509 625.233600564681 A9.22 9.22 0 0 1 350.360955989058 628.264051627875 L350.367057475334 628.26012834343 A58.27 58.27 0 0 0 353.906565611938 631.989391342874 L353.9 631.99 L374.461761346891 651.825151912663 A12.04 12.04 0 0 1 379.061507872669 647.162094698027 L379.05660088885 647.151396971623 A3.03 3.03 0 0 1 381.964658595243 652.448307493821 L381.965359223169 652.457403494852 A17.59 17.59 0 0 0 383.639353079399 670.755695717381 L383.641686939604 670.753613281205 A12.53 12.53 0 0 1 382.930127982176 682.486211725816 L382.926588920911 682.481764482658 A86.94 86.94 0 0 1 332.564413945102 717.277096434142 L332.565790352851 717.280213839759 A15.17 15.17 0 0 1 314.539007461065 711.874787202511 L314.537258601097 711.878984270294 A40.71 40.71 0 0 1 309.162326289697 686.595913803921 L309.1625010768 686.592312448521 A24.14 24.14 0 0 0 293.857384569222 660.10253090539 L293.86 660.1 L282.242186316254 667.143360984343 A83.76 83.76 0 0 0 226.879655986611 656.014493080063 L226.883922379625 656.02272448053 A29.02 29.02 0 0 1 208.301579803654 644.970149206199 L208.298415116649 644.970007524719 A72.65 72.65 0 0 0 166.921204475054 628.18367017911 L166.929065430763 628.187265744751 A19.7 19.7 0 0 0 153.673290479425 618.249946210479 L153.668099086915 618.249927611783 A15.98 15.98 0 0 1 137.940206490156 599.187067063876 L137.940225209727 599.188435183184 A18.51 18.51 0 0 0 134.254697319995 584.198099652892 L134.25988663646 584.193184419469 A318.1 318.1 0 0 1 119.842692088137 529.916965998898 L119.841463729083 529.914801333795 A6.61 6.61 0 0 1 124.759676804572 528.931139210306 L124.754961379213 528.935984295983 A171.46 171.46 0 0 1 122.612366511761 514.677795291573 L122.616970399583 514.682465590395 A13.42 13.42 0 0 1 128.755489808534 501.409877900127 L128.75 501.41 L150.138960720788 489.468617776862 A95.76 95.76 0 0 1 144.231299100049 406.822627052976 L144.226462057902 406.820980352466 A103 103 0 0 1 138.147142378831 381.005370441064 L138.142367942941 381.002905998201 A95.94 95.94 0 0 0 143.339369819832 358.426494955217 L143.34 358.42 L272.614942560144 481.81104902956 A40.87 40.87 0 0 0 288.485878920554 537.736487016832 L288.491780591869 537.73810570994 A209.32 209.32 0 0 1 284.621986858189 493.267671838244 Z M159.881299600055 528.664198908818 A115.33 115.33 0 0 1 169.239952490911 576.370292199633 L169.236644509591 576.371404779672 A309.94 309.94 0 0 1 212.000569894574 594.558432079708 L212.003393524377 594.562786861945 A553 553 0 0 0 168.748387919891 521.324122248689 L168.749447610689 521.32242737031 A8.09 8.09 0 0 1 159.882152790681 528.669564142635 Z" style="fill:rgb(255,255,255);" />
</g>
</svg>
