<?xml version="1.0" encoding="UTF-8"?>
<!DOCTYPE svg PUBLIC '-//W3C//DTD SVG 1.0//EN' 'http://www.w3.org/TR/2001/REC-SVG-20010904/DTD/svg10.dtd'>
<svg xmlns:xlink="http://www.w3.org/1999/xlink" xmlns="http://www.w3.org/2000/svg" width="1100" height="1100">
<!--Gegenereerd door de SIMaD-toepassing (http://www.dlw.be).-->
<g style="stroke:none;fill-rule:evenodd;" transform="matrix(1,0,0,-1,0,1100)">
<path d=" M0 65 L1.56319401867222E-13 1034.99999546214 A65 65 0 0 0 65.0000045378561 1100 L1034.99999546214 1100 A65 65 0 0 0 1100 1034.99999546214 L1100 65.0000124791042 A65 65 0 0 0 1035.00000453786 1.56319401867222E-13 L65.0000045378561 1.56319401867222E-13 A65 65 0 0 0 1.56319401867222E-13 65.0000045378561 Z" style="fill:rgb(0,0,255);" />
<path d=" M15 65 L15.0000000000001 1034.99999650934 A50 50 0 0 0 65.0000034906585 1085 L1034.99999650934 1085 A50 50 0 0 0 1085 1034.99999650934 L1085 65.0000095993109 A50 50 0 0 0 1035.00000349066 15.0000000000001 L65.0000034906585 15.0000000000001 A50 50 0 0 0 15.0000000000001 65.0000034906585 Z" style="fill:rgb(255,255,255);" />
<path d=" M30 65 L30.0000000000001 1034.99999755654 A35 35 0 0 0 65.000002443461 1070 L1034.99999755654 1070 A35 35 0 0 0 1070 1034.99999755654 L1070 65.0000067195176 A35 35 0 0 0 1035.00000244346 30.0000000000001 L65.000002443461 30.0000000000001 A35 35 0 0 0 30.0000000000001 65.000002443461 Z" style="fill:rgb(0,0,255);" />
<path d=" M122.5 179.75 L977.5 179.75 L550 920.2 Z" style="fill:rgb(255,255,255);" />
<path d=" M955.3 218.2 L949.21 228.75 L919.82 228.75 L912.89 216.75 L954.46 216.75 Z" style="fill:rgb(0,0,0);" />
<path d=" M330.92 216.75 L372.49 216.75 L379.42 228.75 L337.85 228.75 Z" style="fill:rgb(0,0,0);" />
<path d=" M164.65 216.75 L206.22 216.75 L213.14 228.75 L171.57 228.75 Z" style="fill:rgb(0,0,0);" />
<path d=" M255.87 374.75 L297.44 374.75 L304.37 386.75 L262.8 386.75 Z" style="fill:rgb(0,0,0);" />
<path d=" M247.79 216.75 L289.35 216.75 L296.28 228.75 L254.71 228.75 Z" style="fill:rgb(0,0,0);" />
<path d=" M658.72 468.42 L684.7 473.86 L667.78 576.57 L611.6 643.03 L569.91 653.91 L569.906854236856 726.409918707424 A15.08 15.08 0 0 1 556.009732635522 740.306868341497 L556.01 740.3 L530.031088991311 740.299120700493 A14.36 14.36 0 0 1 515.830879488117 726.098928050437 L515.83 726.1 L515.524655069819 678.073359162182 A19.54 19.54 0 0 1 533.653845457272 659.339942214226 L533.66 659.34 L533.66 646.05 L500.43 636.99 L463.57 561.47 L393.49 515.55 L410.41 497.42 L488.34 537.3 L510.09 570.53 L519.16 477.49 L434.57 290.19 L417.05 293.21 L406.18 276.9 L465.39 249.71 L531.93 374.75 L546.85 374.75 L553.78 386.75 L538.32 386.75 L560.24 427.95 L590.09 377.64 L588.42 374.75 L591.81 374.75 L646.64 282.34 L634.55 261.8 L643.01 251.53 L692.55 275.09 L603.74 477.49 L606.76 586.84 L641.8 546.97 Z" style="fill:rgb(0,0,0);" />
<path d=" M580.34 216.75 L621.91 216.75 L628.84 228.75 L587.27 228.75 Z" style="fill:rgb(0,0,0);" />
<path d=" M339.01 374.75 L380.58 374.75 L387.5 386.75 L345.93 386.75 Z" style="fill:rgb(0,0,0);" />
<path d=" M414.06 216.75 L455.63 216.75 L462.56 228.75 L420.99 228.75 Z" style="fill:rgb(0,0,0);" />
<path d=" M497.2 216.75 L538.77 216.75 L545.7 228.75 L504.13 228.75 Z" style="fill:rgb(0,0,0);" />
<path d=" M754.7 374.75 L796.27 374.75 L803.2 386.75 L761.63 386.75 Z" style="fill:rgb(0,0,0);" />
<path d=" M746.62 216.75 L788.18 216.75 L795.11 228.75 L753.54 228.75 Z" style="fill:rgb(0,0,0);" />
<path d=" M671.56 374.75 L713.13 374.75 L720.06 386.75 L678.49 386.75 Z" style="fill:rgb(0,0,0);" />
<path d=" M663.48 216.75 L705.05 216.75 L711.97 228.75 L670.41 228.75 Z" style="fill:rgb(0,0,0);" />
<path d=" M864.92 374.75 L857.99 386.75 L844.77 386.75 L837.84 374.75 Z" style="fill:rgb(0,0,0);" />
<path d=" M829.75 216.75 L871.32 216.75 L878.25 228.75 L836.68 228.75 Z" style="fill:rgb(0,0,0);" />
<path d=" M422.14 374.75 L463.71 374.75 L470.64 386.75 L429.07 386.75 Z" style="fill:rgb(0,0,0);" />
</g>
</svg>
