<?xml version="1.0" encoding="UTF-8"?>
<!DOCTYPE svg PUBLIC '-//W3C//DTD SVG 1.0//EN' 'http://www.w3.org/TR/2001/REC-SVG-20010904/DTD/svg10.dtd'>
<svg xmlns:xlink="http://www.w3.org/1999/xlink" xmlns="http://www.w3.org/2000/svg" width="600" height="900">
<!--Gegenereerd door de SIMaD-toepassing (http://www.dlw.be).-->
<g style="stroke:none;fill-rule:evenodd;" transform="matrix(1,0,0,-1,0,900)">
<path d=" M65 0 L534.999995462144 1.56319401867222E-13 A65 65 0 0 1 600 65.0000045378561 L599.999999999999 834.999987520896 A65 65 0 0 1 535.000004537856 900 L65.0000045378561 900 A65 65 0 0 1 1.56319401867222E-13 834.999995462144 L1.56319401867222E-13 65.0000045378561 A65 65 0 0 1 65.0000045378561 1.56319401867222E-13 Z" style="fill:rgb(255,255,255);stroke:rgb(0,0,0);" />
<path d=" M65 15 L534.999996509342 15.0000000000001 A50 50 0 0 1 585 65.0000034906585 L584.999999999999 834.999990400689 A50 50 0 0 1 535.000003490658 885 L65.0000034906585 885 A50 50 0 0 1 15.0000000000001 834.999996509341 L15.0000000000001 65.0000034906585 A50 50 0 0 1 65.0000034906585 15.0000000000001 Z" style="fill:rgb(0,0,0);" />
<path d=" M65 30 L534.999997556539 30.0000000000001 A35 35 0 0 1 570 65.000002443461 L569.999999999999 834.999993280482 A35 35 0 0 1 535.000002443461 870 L65.000002443461 870 A35 35 0 0 1 30.0000000000001 834.999997556539 L30.0000000000001 65.000002443461 A35 35 0 0 1 65.000002443461 30.0000000000001 Z" style="fill:rgb(255,255,255);" />
<path d=" M525 450 A225 225 0 0 1 75 450 A225 225 0 0 1 525 450 Z" style="fill:rgb(255,0,0);" />
<path d=" M150 730 L211.71 730 L211.71 745 L168.82 745 L209.91 805 L209.91 820 L151.8 820 L151.8 805 L191.1 805 L150 745 Z" style="fill:rgb(0,0,0);" />
<path d=" M310.33 730 L325.33 730 L325.33 789.78 L352.76 730 L372.04 730 L372.04 820 L357.04 820 L357.04 760.22 L329.61 820 L310.33 820 Z" style="fill:rgb(0,0,0);" />
<path d=" M228.81 790.94 L228.81 759.060005386086 A30.86 30.86 0 0 1 290.529999999999 759.059994613914 L290.53 790.94 A30.86 30.86 0 0 1 228.81 790.94 Z M245.31 792.44 L245.31 757.560002005034 A14.36 14.36 0 0 1 274.03 757.559997994966 L274.03 792.44 A14.36 14.36 0 0 1 245.31 792.44 Z" style="fill:rgb(0,0,0);" />
<path d=" M394.54 730 L449.83 730 L449.83 745 L411.04 745 L411.04 769 L436.97 769 L436.97 784 L411.04 784 L411.04 805 L449.83 805 L449.83 820 L394.54 820 Z" style="fill:rgb(0,0,0);" />
<path d=" M460.31 450 A160.31 160.31 0 0 1 139.69 450 A160.31 160.31 0 0 1 460.31 450 Z" style="fill:rgb(255,255,255);" />
<path d=" M221.33 440.08 L221.33 466.45 L235.880022439698 466.450000000013 A19.78 19.78 0 0 1 255.659999999994 486.229984464824 L255.65 486.229997667891 A22.27 22.27 0 0 1 211.306035258513 489.178386099477 L211.3 489.18 L182.290000000001 489.180009788156 A43.14 43.14 0 0 0 213.033796519439 530.500621235269 L213.035762877377 530.494098946299 A70.8 70.8 0 0 0 253.724267895683 530.49408971437 L253.72622006772 530.50061625911 A43.14 43.14 0 0 0 264.743321063326 452.946369257476 L264.739708495396 452.940187873866 A44.55 44.55 0 0 0 258.62082510316 372.258529904769 L258.622061522351 372.26548879405 A72.36 72.36 0 0 0 208.13793137613 372.265491437393 L208.139118786907 372.258550790176 A44.55 44.55 0 0 0 179.130000000005 414.009979783851 L208.887398417191 414.203274017494 A25.24 25.24 0 0 1 258.62 420.299998678437 L258.629999999994 420.300015535176 A19.78 19.78 0 0 1 238.850022439698 440.079999999987 Z" style="fill:rgb(0,0,0);" />
<path d=" M312.36 478.03 L312.370000000001 421.970009468411 A54.25 54.25 0 0 1 420.869999999999 421.969990531589 L420.87 478.03 A54.25 54.25 0 0 1 312.37 478.03 Z M341.37 480.67 L341.38 419.330004405211 A25.24 25.24 0 0 1 391.86 419.329995594789 L391.86 480.67 A25.24 25.24 0 0 1 341.38 480.67 Z" style="fill:rgb(0,0,0);" />
</g>
</svg>
