<?xml version="1.0" encoding="UTF-8"?>
<!DOCTYPE svg PUBLIC '-//W3C//DTD SVG 1.0//EN' 'http://www.w3.org/TR/2001/REC-SVG-20010904/DTD/svg10.dtd'>
<svg xmlns:xlink="http://www.w3.org/1999/xlink" xmlns="http://www.w3.org/2000/svg" width="600" height="899.999999999999">
<!--Gegenereerd door de SIMaD-toepassing (http://www.dlw.be).-->
<g style="stroke:none;fill-rule:evenodd;" transform="matrix(1,0,0,-1,0,899.999999999999)">
<path d=" M65 0 L534.999995462144 1.56319401867222E-13 A65 65 0 0 1 600 65.0000045378561 L599.999999999999 834.999987520896 A65 65 0 0 1 535.000004537856 900 L65.0000045378561 900 A65 65 0 0 1 1.56319401867222E-13 834.999995462144 L1.56319401867222E-13 65.0000045378561 A65 65 0 0 1 65.0000045378561 1.56319401867222E-13 Z" style="fill:rgb(255,255,255);stroke:rgb(0,0,0);" />
<path d=" M65 15 L534.999996509342 15.0000000000001 A50 50 0 0 1 585 65.0000034906585 L584.999999999999 834.999990400689 A50 50 0 0 1 535.000003490658 885 L65.0000034906585 885 A50 50 0 0 1 15.0000000000001 834.999996509341 L15.0000000000001 65.0000034906585 A50 50 0 0 1 65.0000034906585 15.0000000000001 Z" style="fill:rgb(0,0,0);" />
<path d=" M64.9999987782695 30 A35 35 0 0 0 51.5527204141811 32.6863701862385 L51.55 32.69 L195.215030225045 248.068427160927 A227.5 227.5 0 0 1 446.179703755056 624.320808310666 L446.18 624.32 L570 809.96 L569.999999999999 65.0000067195176 A35 35 0 0 0 535.000002443461 30.0000000000001 Z M198.01 252.25 L443.388100230299 620.135542178422 A222.5 222.5 0 0 0 198.006657570695 252.253677404361 Z M156.81 279.7 L402.224200946263 647.627079978676 A222.5 222.5 0 0 1 156.810681750304 279.697125276209 Z" style="fill:rgb(255,255,255);" />
<path d=" M548.689660422477 867.211693490366 A35 35 0 0 1 535.00000122173 870 L65.000002443461 870 A35 35 0 0 1 30.0000000000001 834.999997556539 L30 89.58 L154.019414783754 275.512410928679 A227.5 227.5 0 0 0 405.015451670327 651.811805676668 L405.02 651.81 Z" style="fill:rgb(255,255,255);" />
<path d=" M394.54 730 L449.83 730 L449.83 745 L411.04 745 L411.04 769 L436.97 769 L436.97 784 L411.04 784 L411.04 805 L449.83 805 L449.83 820 L394.54 820 Z" style="fill:rgb(178,178,178);" />
<path d=" M228.81 790.94 L228.81 759.060005386086 A30.86 30.86 0 0 1 290.529999999999 759.059994613914 L290.53 790.94 A30.86 30.86 0 0 1 228.81 790.94 Z M245.31 792.44 L245.31 757.560002005034 A14.36 14.36 0 0 1 274.03 757.559997994966 L274.03 792.44 A14.36 14.36 0 0 1 245.31 792.44 Z" style="fill:rgb(178,178,178);" />
<path d=" M150 730 L211.71 730 L211.71 745 L168.82 745 L209.91 805 L209.91 820 L151.8 820 L151.8 805 L191.1 805 L150 745 Z" style="fill:rgb(178,178,178);" />
<path d=" M310.33 730 L325.33 730 L325.33 789.78 L352.76 730 L372.04 730 L372.04 820 L357.04 820 L357.04 760.22 L329.61 820 L310.33 820 Z" style="fill:rgb(178,178,178);" />
<path d=" M381.406009319275 527.211703896582 A33.88 33.88 0 0 0 420.53 493.740000591318 L420.529999999999 411.419994086825 A33.88 33.88 0 0 0 352.770000000001 411.420005913176 L352.77 484.28 L313.84 425.91 L313.840000000001 414.960011436968 A72.81 72.81 0 0 1 459.459999999999 414.959988563032 L459.46 490.200005083097 A72.81 72.81 0 0 1 403.90359923663 560.936195921054 L403.9 560.94 Z" style="fill:rgb(178,178,178);" />
<path d=" M248.232096167206 416.751735203497 A26.55 26.55 0 0 1 221.99003012002 439.269999999983 L221.99 439.26 L198.47 439.26 L198.47 474.66 L218.00003012002 474.650000000017 A26.55 26.55 0 0 1 244.549999999991 501.199978684294 L244.54 501.199996869927 A29.89 29.89 0 0 1 185.023111534663 505.157218702891 L185.02 505.16 L146.090000000002 505.160013137093 A57.9 57.9 0 0 0 187.352536357801 560.618135593928 L187.346194754355 560.612650873974 A95.02 95.02 0 0 0 241.953846545873 560.612638483891 L241.95748590452 560.618128915218 A57.9 57.9 0 0 0 256.743998367329 456.529327306626 L256.739221289339 456.527722186057 A59.79 59.79 0 0 0 268.831367527402 447.645722907316 L268.84 447.65 Z" style="fill:rgb(178,178,178);" />
<path d=" M199.276479581817 343.364487748635 A97.12 97.12 0 0 0 180.770650846459 348.240858601432 L180.772776930845 348.245900151394 A59.79 59.79 0 0 0 141.840000000006 404.279972868159 L181.773242771756 404.53628237565 A33.88 33.88 0 0 1 223.768697685995 380.090201463824 L223.77 380.09 Z" style="fill:rgb(178,178,178);" />
</g>
</svg>
