<?xml version="1.0" encoding="UTF-8"?>
<!DOCTYPE svg PUBLIC '-//W3C//DTD SVG 1.0//EN' 'http://www.w3.org/TR/2001/REC-SVG-20010904/DTD/svg10.dtd'>
<svg xmlns:xlink="http://www.w3.org/1999/xlink" xmlns="http://www.w3.org/2000/svg" width="1100" height="1100">
<!--Gegenereerd door de SIMaD-toepassing (http://www.dlw.be).-->
<g style="stroke:none;fill-rule:evenodd;" transform="matrix(1,0,0,-1,0,1100)">
<path d=" M0 65 L1.56319401867222E-13 1034.99999546214 A65 65 0 0 0 65.0000045378561 1100 L1034.99999546214 1100 A65 65 0 0 0 1100 1034.99999546214 L1100 65.0000124791042 A65 65 0 0 0 1035.00000453786 1.56319401867222E-13 L65.0000045378561 1.56319401867222E-13 A65 65 0 0 0 1.56319401867222E-13 65.0000045378561 Z" style="fill:rgb(0,0,255);" />
<path d=" M15 65 L15.0000000000001 1034.99999650934 A50 50 0 0 0 65.0000034906585 1085 L1034.99999650934 1085 A50 50 0 0 0 1085 1034.99999650934 L1085 65.0000095993109 A50 50 0 0 0 1035.00000349066 15.0000000000001 L65.0000034906585 15.0000000000001 A50 50 0 0 0 15.0000000000001 65.0000034906585 Z" style="fill:rgb(255,255,255);" />
<path d=" M30 65 L30.0000000000001 1034.99999755654 A35 35 0 0 0 65.000002443461 1070 L1034.99999755654 1070 A35 35 0 0 0 1070 1034.99999755654 L1070 65.0000067195176 A35 35 0 0 0 1035.00000244346 30.0000000000001 L65.000002443461 30.0000000000001 A35 35 0 0 0 30.0000000000001 65.000002443461 Z" style="fill:rgb(0,0,255);" />
<path d=" M122.5 179.75 L550 918.16 L977.5 179.75 Z" style="fill:rgb(255,255,255);" />
<path d=" M427.13 409.7 L437.33 442.74 L530.25 347.69 L530.25 285 L551.290558808056 284.993840620846 A9.13 9.13 0 0 0 543.988551394608 274.685123532574 L543.99 274.69 L527.475599039471 271.509500273079 A4.15 4.15 0 0 1 523.493459193535 268.280873227765 L523.49 268.29 L522.84 262.67 L545.705156180576 262.66185607231 A17.66 17.66 0 0 1 553.006739007851 264.809358233345 L553 264.81 L553 260.09 L564.17 260.09 L564.17 261.81 L576.624832151532 261.804836785975 A22.36 22.36 0 0 1 576.644957007164 270.878035039337 L576.643107477195 270.877839274171 A14.74 14.74 0 0 0 574.332935550102 282.415139473038 L574.33 282.42 L575.33670332818 285.849362615396 A30.23 30.23 0 0 1 594.759490765109 310.851363197069 L594.75 310.86 L606.415221856959 310.989324550435 A113.29 113.29 0 0 1 606.795508561084 304.380276648404 L606.8 304.38 L611.062169450419 304.380168201014 A109.04 109.04 0 0 0 610.665586716819 311.037307015411 L610.67 311.04 L615.82609598562 311.095686322879 A103.88 103.88 0 1 1 810.484492069823 364.607913882455 L810.49 364.61 L814.937467990794 367.217593696709 A109.04 109.04 0 0 0 821.161219509202 354.029980398399 L821.16 354.03 L824.789561172526 356.408473061827 A113.29 113.29 0 0 1 678.609370139506 419.781050227075 L678.61 419.78 L655.29 474.17 L663.765883498565 489.751678272366 A4.54 4.54 0 0 0 668.11664738015 492.939969478392 L668.11 492.94 L674.715107886159 493.414129548408 A4.72 4.72 0 0 1 671.520172642742 502.278792245167 L671.526585816914 502.279720333645 A15.73 15.73 0 0 1 673.67386940867 513.016247401692 L673.668710163308 513.00981690728 A339.31 339.31 0 0 1 649.192459911605 587.297204357605 L649.191774906444 587.298551707378 A247.43 247.43 0 0 1 567.944937635957 692.34013517553 L567.94 692.34 L572.331070857792 692.937233880738 A32.42 32.42 0 0 1 564.992280718622 705.174077579721 L564.989606505895 705.17320780029 A45.98 45.98 0 0 1 551.238881985858 741.102177525041 L551.23742137449 741.094138238791 A22.46 22.46 0 0 1 532.453065852289 748.149135557855 L532.452641683318 748.160610689049 A13.03 13.03 0 0 1 521.991181106321 744.39838086775 L521.992959507977 744.39560370328 A273.61 273.61 0 0 1 500.293602219988 717.893083985881 L500.29478175986 717.893817816261 A9.23 9.23 0 0 1 503.194215104298 706.67194811828 L503.192796439704 706.679775718668 A7.91 7.91 0 0 0 507.240349038673 704.565381464627 L507.238268060517 704.558404010592 A17.15 17.15 0 0 1 514.788395915708 696.793539972246 L514.789203795493 696.795624317007 A36.21 36.21 0 0 1 514.789203795493 684.344375682994 L514.792265235532 684.350597361409 A2.54 2.54 0 0 1 518.555432247302 683.21093585842 L518.55 683.2 L519.94 683.92 L522.52 679.62 L525.95 679.62 L525.950702697197 675.762516928445 A9.31 9.31 0 0 0 532.013443442814 667.949900845141 L532.012980837789 667.94364618093 A2.33 2.33 0 0 1 531.870127827783 667.115593830139 L531.870089424288 667.122926184296 A1.63 1.63 0 0 1 534.117767548825 665.631602421237 L534.126953897863 665.616315612827 A4.24 4.24 0 0 1 535.891695238146 666.969149708547 L535.882712566565 666.978862471382 A693.69 693.69 0 0 0 542.292778129804 673.875048045185 L542.29853773081 673.868525198821 A3.8 3.8 0 1 0 546.508723707508 667.549749707562 L546.51 667.55 L539.266186052517 659.012250675011 A180.71 180.71 0 0 1 552.577630536268 576.996552717902 L552.575490044644 576.987786430581 A182.58 182.58 0 0 0 510.575190408624 528.874449746451 L510.576854033809 528.877213681346 A4.2 4.2 0 0 0 507.470879095204 527.662648101987 L507.47 527.67 L497.474281374454 528.146261401067 A13.03 13.03 0 0 1 485.734854073479 524.430431812107 L485.750310051436 524.427369242711 A193.23 193.23 0 0 0 474.952981667261 513.772135258024 L474.942799128271 513.77315819957 A5.54 5.54 0 0 1 475.347621062162 509.997245878409 L475.348967433839 509.994619387553 A227.9 227.9 0 0 0 451.84477039205 511.360429049065 L451.85 511.36 L421.403070556571 412.789617244577 A113.2 113.2 0 0 1 316.003324425558 410.835730577866 L316.01 410.83 L318.420863021624 407.302673748046 A108.94 108.94 0 0 0 420.127049443257 408.660469586997 L420.13 408.66 L418.613935052761 403.758367838894 A103.89 103.89 0 1 1 474.446213665068 310.763033069439 L474.44 310.76 L479.496389476448 310.763068302729 A108.94 108.94 0 0 0 479.317557406093 305.347833145633 L479.32 305.35 L483.58441937371 305.347569894414 A113.2 113.2 0 0 1 427.130300985644 409.701216445252 Z M708.09 332.3 L679.162849468061 399.760962941838 A94.67 94.67 0 0 1 625.016187995682 316.416600388791 L625.02 316.41 L698.324690329034 316.763841728619 A21.49 21.49 0 0 0 708.090935207807 332.30013086187 Z M673.5 412.97 L675.530821935173 408.230789252977 A103.88 103.88 0 0 1 615.802940027851 316.373001131787 L615.8 316.37 L610.641368897933 316.348627487878 A109.04 109.04 0 0 0 673.496040826891 412.975679495884 Z M698.279089155411 312.027420185119 A21.49 21.49 0 1 1 739.308570331628 322.893664970751 L739.31 322.89 L802.536185092346 359.949663946966 A94.67 94.67 0 1 0 625.03723536393 311.199797226442 L625.04 311.2 Z M799.15 365.61 L736.099294884634 328.030870048376 A21.49 21.49 0 0 1 714.901717893769 335.146594460874 L714.9 335.14 L685.95271589588 402.655970284195 A94.67 94.67 0 0 0 799.148748402666 365.609332720073 Z M383.155239254664 321.238996199695 A15.83 15.83 0 0 0 385.804524367685 315.915369480252 L385.81 315.91 L465.123822185971 315.916044254347 A94.66 94.66 0 0 1 421.49098676285 391.440664788322 L421.49 391.44 L414.78017671848 369.703704995174 A110.33 110.33 0 0 0 390.829229480456 328.702754118573 L390.83 328.71 Z M479.42 315.91 L474.362375266513 315.916027312377 A103.89 103.89 0 0 1 424.306278034726 400.557084630045 L424.31 400.55 L425.838874598009 405.523157096039 A108.94 108.94 0 0 0 479.416447475161 315.915846116246 Z M378.33 325.44 L386.255172335443 333.153828848313 A103.95 103.95 0 0 1 408.695961324483 371.624200463781 L408.69 371.63 L415.840500360068 394.777563943267 A94.66 94.66 0 1 1 465.21584442439 310.763029704149 L465.21 310.76 L386.365139308266 310.763167746244 A15.83 15.83 0 1 0 378.325358615426 325.444495480946 Z M530.25 377.32 L471.182319393752 448.988547163436 A17.11 17.11 0 0 0 469.666693747336 468.783612843318 L469.67 468.78 L445.38 468.78 L439.77 450.62 L530.25 357.57 Z M573.881817452436 378.820927366721 A42.43 42.43 0 0 0 581.342356255255 410.380045285944 L581.35 410.38 L636.74 470.07 L645.88 470.51 L575.76 341.68 Z M606.39 316.33 L594.86570440656 316.26811041832 A30.23 30.23 0 0 1 581.778343024088 339.100442208748 L581.77 339.1 L650.79 465.92 L671.82029549089 416.883654976737 A113.29 113.29 0 0 1 606.390184589083 316.32846131057 Z M811.5 372.97 L807.064962409603 370.327571609181 A103.88 103.88 0 0 1 682.320235007376 411.127074178539 L682.32 411.13 L680.285406054952 415.872658067453 A109.04 109.04 0 0 0 811.499694743532 372.970881835975 Z M568.947450823237 519.689403828512 A8.17 8.17 0 0 1 573.162068405 524.840140083888 L573.160178271549 524.841969085282 A7.95 7.95 0 0 0 574.08626780414 526.960056540063 L574.087322893061 526.953194078957 A1.63 1.63 0 0 0 574.629840911586 527.486793723552 L574.628908569167 527.492957259284 A27.14 27.14 0 0 1 579.869247610872 531.597568396682 L579.868612556662 531.594510890752 A8.17 8.17 0 0 1 581.859077755868 534.863031984953 L581.858633029083 534.864471544335 A70.82 70.82 0 0 0 583.642118692785 539.787425164548 L583.645035069854 539.79006890787 A8.38 8.38 0 0 1 585.001305949075 547.153977735347 L585.006182791991 547.150490293482 A28.01 28.01 0 0 0 583.066912582328 559.814833115013 L583.062467324296 559.817674775001 A15.23 15.23 0 0 0 578.242410112629 549.858756491426 L578.24 549.86 L541.718218234225 518.999421557946 A34.21 34.21 0 0 0 527.64874345421 509.653215993431 L527.649214798606 509.647601225091 A112.75 112.75 0 0 0 514.787234459712 506.568092371682 L514.79 506.57 L514.79 510.01 L506.63 509.15 L504.05 501.64 L495.16 504.79 L493.725334057358 501.655735979168 A2.67 2.67 0 0 0 489.575596718003 502.428890236531 L489.575579429486 502.427805861928 A3.05 3.05 0 0 0 485.580820433194 498.504776765769 L485.582476688368 498.510675053492 A22.07 22.07 0 0 1 480.003782932419 500.992041617264 L480.001290297161 500.983737666729 A89.41 89.41 0 0 0 455.806470629792 502.564720205616 L455.81 502.57 L447.37 475.22 L477 475.22 Z M648.91 476.08 L655.84 488.82 L641.46 476.08 Z M550.86 458.48 L535.83 434.86 L526.38 446.02 Z" style="fill:rgb(0,0,0);" />
</g>
</svg>
