<?xml version="1.0" encoding="UTF-8"?>
<!DOCTYPE svg PUBLIC '-//W3C//DTD SVG 1.0//EN' 'http://www.w3.org/TR/2001/REC-SVG-20010904/DTD/svg10.dtd'>
<svg xmlns:xlink="http://www.w3.org/1999/xlink" xmlns="http://www.w3.org/2000/svg" width="799.999999999998" height="400.000000000001">
<!--Gegenereerd door de SIMaD-toepassing (http://www.dlw.be).-->
<g style="stroke:none;fill-rule:evenodd;" transform="matrix(1,0,0,-1,0,400.000000000001)">
<path d=" M0 45 L1.06581410364015E-13 354.999996858407 A45 45 0 0 0 45.0000031415927 400 L754.999996858407 400 A45 45 0 0 0 800 354.999996858407 L799.999999999999 45.0000086393798 A45 45 0 0 0 755.000003141593 1.06581410364015E-13 L45.0000031415927 1.06581410364015E-13 A45 45 0 0 0 1.06581410364015E-13 45.0000031415927 Z" style="fill:rgb(0,0,255);" />
<path d=" M15 45 L15.0000000000001 354.999997905605 A30 30 0 0 0 45.0000020943951 385 L754.999997905605 385 A30 30 0 0 0 785 354.999997905605 L784.999999999999 45.0000057595865 A30 30 0 0 0 755.000002094395 15.0000000000001 L45.0000020943951 15.0000000000001 A30 30 0 0 0 15.0000000000001 45.0000020943951 Z" style="fill:rgb(255,255,255);" />
<path d=" M30 45 L30 354.999998952802 A15 15 0 0 0 45.0000010471975 370 L754.999998952802 370 A15 15 0 0 0 770 354.999998952802 L770 45.0000028797933 A15 15 0 0 0 755.000001047198 30 L45.0000010471975 30 A15 15 0 0 0 30 45.0000010471975 Z" style="fill:rgb(0,0,255);" />
<path d=" M582.95 311.83 L458.888359015514 97.5151179198937 A15 15 0 0 1 471.870000523599 75 L720.000000523599 75 A15 15 0 0 1 732.981640590996 97.5151185996108 L732.98 97.52 L608.911640853323 311.825118146466 A15 15 0 0 1 582.948359146677 311.825118146466 Z" style="fill:rgb(255,0,0);" />
<path d=" M50 185 L50 60 L70 60 L70.0000000000002 184.999993018683 A100 100 0 0 0 170.000006981317 285 L195 285 L195 250 L240 295 L195 340 L195 305 L170.00000837758 305 A120 120 0 0 1 50.0000000000003 184.99999162242 Z" style="fill:rgb(255,255,255);" />
<path d=" M279.74 311.83 L155.678359015514 97.5151179198937 A15 15 0 0 1 168.660000523599 75 L416.790000523599 75 A15 15 0 0 1 429.771640590996 97.5151185996108 L429.77 97.52 L305.701640853323 311.825118146466 A15 15 0 0 1 279.738359146677 311.825118146466 Z" style="fill:rgb(255,0,0);" />
<path d=" M497.89 105 L693.98 105 L595.93 274.37 Z" style="fill:rgb(255,255,255);" />
<path d=" M194.67 105 L390.77 105 L292.72 274.37 Z" style="fill:rgb(255,255,255);" />
<path d=" M573.54 128.82 L569.74 129.47 L567.37 125.93 L580.24 120.02 L591.41 141 L592.32 141 L594.06 144 L593.01 144 L600.86 158.76 L619.65 127.11 L617.02 122.65 L618.86 120.41 L629.63 125.53 L622.56 141.64 L623.93 144 L621.52 144 L610.32 169.53 L610.98 193.31 L618.59 184.64 L622.27 167.56 L627.92 168.75 L624.24 191.07 L612.03 205.52 L602.97 207.89 L602.970615514731 223.647939820924 A3.28 3.28 0 0 1 599.947899463218 226.67061857393 L599.94 226.67 L594.295473428608 226.669808955027 A3.12 3.12 0 0 1 591.210191086555 223.584530328507 L591.21 223.58 L591.143187515186 213.135428681641 A4.25 4.25 0 0 1 595.086332814401 209.060862559389 L595.08 209.07 L595.08 206.18 L587.86 204.21 L579.85 187.79 L564.61 177.81 L568.29 173.87 L585.23 182.54 L589.96 189.76 L591.93 169.53 Z" style="fill:rgb(0,0,0);" />
<path d=" M273.12 151.29 L274.83 156.81 L290.36 140.92 L290.36 130.43 L293.883335696008 130.435200069243 A1.53 1.53 0 0 0 292.659669672786 128.707671314037 L292.66 128.71 L289.899292358377 128.179916912686 A0.69 0.69 0 0 1 289.237201646373 127.643109030946 L289.23 127.64 L289.12 126.7 L292.942984752701 126.706991812758 A2.95 2.95 0 0 1 294.162671578322 127.06571952369 L294.17 127.06 L294.17 126.27 L296.03 126.27 L296.03 126.56 L298.120522001227 126.553071920886 A3.74 3.74 0 0 1 298.12388817083 128.07068200435 L298.121115630522 128.07440194128 A2.46 2.46 0 0 0 297.735564549067 129.999894376097 L297.73 130 L297.895218385951 130.58230503499 A5.05 5.05 0 0 1 301.139845463573 134.758954156308 L301.15 134.76 L303.097560279697 134.784905394259 A18.94 18.94 0 0 1 303.161137217669 133.679994725145 L303.16 133.67 L303.873924726727 133.679929674904 A18.23 18.23 0 0 0 303.807621486158 134.792912437746 L303.81 134.79 L304.667707809686 134.802593101929 A17.37 17.37 0 1 1 337.216960216142 143.750488680576 L337.22 143.75 L337.959092456641 144.185490032016 A18.23 18.23 0 0 0 338.999618662663 141.980701347742 L339.01 141.98 L339.605725029638 142.378150585144 A18.94 18.94 0 0 1 315.167091274095 152.972877494049 L315.17 152.97 L311.27 162.07 L312.684465071157 164.666272108374 A0.76 0.76 0 0 0 313.412786759576 165.199994890753 L313.41 165.2 L314.522168493612 165.284292874779 A0.79 0.79 0 0 1 313.98742295028 166.767997003251 L313.988189491321 166.768910647011 A2.63 2.63 0 0 1 314.347207656143 168.564019795263 L314.347593593861 168.566228175368 A56.74 56.74 0 0 1 310.254632858992 180.988693452154 L310.245574618598 180.981078220645 A41.37 41.37 0 0 1 296.661200622396 198.54390531549 L296.66 198.55 L297.397674459254 198.646422017524 A5.42 5.42 0 0 1 296.170770071865 200.692186799663 L296.173209526541 200.692106741719 A7.69 7.69 0 0 1 293.873447204681 206.701105810517 L293.875115955836 206.698698120118 A3.76 3.76 0 0 1 290.730450917391 207.879766237646 L290.727901602657 207.880063806346 A2.18 2.18 0 0 1 288.977634237226 207.250619308532 L288.985162813822 207.251904058423 A45.75 45.75 0 0 1 285.356839768712 202.820450165298 L285.357612535771 202.816324917141 A1.54 1.54 0 0 1 285.841375044295 200.943986977918 L285.837445283871 200.936599719069 A1.32 1.32 0 0 0 286.512890187421 200.583755106986 L286.515873452329 200.591324707691 A2.87 2.87 0 0 1 287.779364214465 199.291898525968 L287.770239574722 199.291902329772 A6.06 6.06 0 0 1 287.770239574722 197.208097670228 L287.772548833358 197.205888543561 A0.43 0.43 0 0 1 288.409620413587 197.012953704133 L288.41 197.02 L288.64 197.14 L289.07 196.42 L289.64 196.42 L289.646315433265 195.774911518161 A1.56 1.56 0 0 0 290.662198909425 194.465815742403 L290.653932384388 194.464515801304 A0.39 0.39 0 0 1 290.630021396994 194.325914758622 L290.640014813254 194.327171760681 A0.27 0.27 0 0 1 291.012329646307 194.080142753784 L291.00908893231 194.072967925815 A0.71 0.71 0 0 1 291.30459988762 194.299503813142 L291.309058051401 194.299916090919 A115.99 115.99 0 0 0 292.380866143776 195.453006851419 L292.372490565189 195.466804244012 A0.64 0.64 0 1 0 293.081574509605 194.402589418644 L293.08 194.4 L291.866287657059 192.975927814724 A30.22 30.22 0 0 1 294.092350698943 179.260503143905 L294.09659032335 179.254725068884 A30.53 30.53 0 0 0 287.07353633024 171.209483244381 L287.072808996958 171.21286893829 A0.7 0.7 0 0 0 286.555146503658 171.010441350765 L286.55 171.01 L284.882251219978 171.092567141545 A2.18 2.18 0 0 1 282.918172055271 170.470885752141 L282.920014196901 170.471110700763 A32.31 32.31 0 0 0 281.114592232913 168.689448412524 L281.10732909554 168.69379731509 A0.93 0.93 0 0 1 281.175286568197 168.059934777422 L281.177354756049 168.050772465378 A38.11 38.11 0 0 0 277.246924965516 168.279166525054 L277.25 168.29 L272.162290862508 151.803188643462 A18.93 18.93 0 0 1 254.53669698415 151.476447542526 L254.54 151.47 L254.939832240261 150.887720907742 A18.22 18.22 0 0 0 271.949991195669 151.11480958211 L271.95 151.11 L271.694429221931 150.290157371851 A17.37 17.37 0 1 1 281.029366939669 134.741702612534 L281.03 134.74 L281.879396134117 134.741660834105 A18.22 18.22 0 0 0 281.84948674425 133.835973444001 L281.85 133.84 L282.56063832813 133.83606888782 A18.93 18.93 0 0 1 273.120033548218 151.286727273044 Z M264.96 137.2 L266.287996862301 138.490057933457 A17.38 17.38 0 0 1 270.040001906063 144.922141164526 L270.04 144.92 L271.232261997675 148.791429719226 A15.83 15.83 0 1 1 279.489305062731 134.74167188059 L279.49 134.74 L266.305838229116 134.741541031431 A2.65 2.65 0 1 0 264.959949483947 137.199249085566 Z M296.834982595153 169.67578743363 A1.37 1.37 0 0 1 297.541717719248 170.539497197478 L297.53687262799 170.53997735241 A1.33 1.33 0 0 0 297.691803366776 170.894324042457 L297.690967590792 170.892983060299 A0.27 0.27 0 0 0 297.780832535561 170.981370734626 L297.780075414402 170.97954410706 A4.54 4.54 0 0 1 298.656683333491 171.666166619183 L298.660673097017 171.663204396613 A1.37 1.37 0 0 1 298.994447547838 172.211291754392 L298.996526617683 172.218618230513 A11.84 11.84 0 0 0 299.294697618223 173.041659332791 L299.288502308364 173.038006777828 A1.4 1.4 0 0 1 299.515086899181 174.268254083884 L299.518541042919 174.272391884894 A4.68 4.68 0 0 0 299.194521637465 176.388390619745 L299.192041475834 176.388691442958 A2.55 2.55 0 0 0 298.385006289377 174.721242879392 L298.39 174.72 L292.283303437299 169.564276347414 A5.72 5.72 0 0 0 289.930851184 168.001566727284 L289.926755015006 167.997097664006 A18.85 18.85 0 0 0 287.776437219756 167.482253021667 L287.78 167.48 L287.78 168.06 L286.41 167.91 L285.98 166.66 L284.49 167.19 L284.259213611039 166.663888091599 A0.45 0.45 0 0 0 283.559819675165 166.7941949767 L283.565818215704 166.793567496045 A0.51 0.51 0 0 0 282.897842055752 166.137585643251 L282.891583098327 166.131680604775 A3.69 3.69 0 0 1 281.958851790694 166.546553401346 L281.956965291035 166.547410540971 A14.95 14.95 0 0 0 277.911416350692 166.811762298109 L277.91 166.81 L276.5 162.24 L281.46 162.24 Z M293.81 159.44 L291.29 155.49 L289.72 157.36 Z M310.2 162.39 L311.36 164.52 L308.96 162.39 Z M318.458223828196 134.958731431576 A3.59 3.59 0 1 1 325.312380990719 136.773985911819 L325.32 136.77 L335.887927643518 142.971584242954 A15.83 15.83 0 1 0 306.207898339611 134.82000095167 L306.21 134.82 Z M265.768489227313 136.495233060433 A2.65 2.65 0 0 0 266.211989246471 135.604038434466 L266.21 135.6 L279.473916175828 135.603410950204 A15.83 15.83 0 0 1 272.17719332829 148.233399784483 L272.18 148.23 L271.060389381455 144.600033147475 A18.45 18.45 0 0 0 267.055177956262 137.743624703052 L267.05 137.74 Z M314.31 151.83 L314.651064468752 151.044764240703 A17.37 17.37 0 0 1 304.663835851788 135.685024351744 L304.67 135.68 L303.803572594425 135.680893376659 A18.23 18.23 0 0 0 314.312015996645 151.835617545946 Z M320.1 138.34 L315.258373371495 149.628527974747 A15.83 15.83 0 0 1 306.204378958188 135.692315244054 L306.21 135.69 L318.465841706898 135.749971698732 A3.59 3.59 0 0 0 320.09733631438 138.345377840582 Z M281.86 135.6 L281.015349488684 135.603263012956 A17.37 17.37 0 0 1 272.646166613372 149.754915391509 L272.65 149.76 L272.905282680152 150.590100259683 A18.22 18.22 0 0 0 281.866026005117 135.603454344024 Z M290.36 145.87 L280.483987929055 157.857752477348 A2.86 2.86 0 0 0 280.230645477345 161.166571170771 L280.23 161.17 L276.17 161.17 L275.23 158.13 L290.36 142.57 Z M297.660536999797 146.12056752801 A7.09 7.09 0 0 0 298.90718373438 151.394056589143 L298.91 151.4 L308.17 161.38 L309.7 161.45 L297.97 139.91 Z M303.09 135.67 L301.157588728188 135.663835845601 A5.05 5.05 0 0 1 298.971310951787 139.478036211001 L298.98 139.48 L310.52 160.69 L314.032083119406 152.488486408857 A18.94 18.94 0 0 1 303.093374491281 135.677511318053 Z M337.39 145.14 L336.645173248506 144.706885048628 A17.37 17.37 0 0 1 315.786336947229 151.529058321922 L315.79 151.52 L315.447105212599 152.319952829876 A18.23 18.23 0 0 0 337.384343682819 145.147361297412 Z M335.33 143.91 L324.776257265511 137.632178849403 A3.59 3.59 0 0 1 321.235107828694 138.820892234273 L321.24 138.82 L316.393723382611 150.112609164454 A15.83 15.83 0 0 0 335.321506149934 143.917951166777 Z" style="fill:rgb(0,0,0);" />
<path d=" M557.26 144 L555.52 141 L562.46 141 L564.19 144 Z" style="fill:rgb(0,0,0);" />
<path d=" M554.83 114 L553.09 111 L560.02 111 L561.76 114 Z" style="fill:rgb(0,0,0);" />
<path d=" M542.33 144 L540.59 141 L547.52 141 L549.26 144 Z" style="fill:rgb(0,0,0);" />
<path d=" M539.89 114 L538.16 111 L545.09 111 L546.83 114 Z" style="fill:rgb(0,0,0);" />
<path d=" M527.4 144 L525.66 141 L532.59 141 L534.33 144 Z" style="fill:rgb(0,0,0);" />
<path d=" M524.96 114 L523.22 111 L530.16 111 L531.89 114 Z" style="fill:rgb(0,0,0);" />
<path d=" M510.03 114 L508.29 111 L515.22 111 L516.96 114 Z" style="fill:rgb(0,0,0);" />
<path d=" M674.29 114 L672.55 111 L679.49 111 L681.22 114 Z" style="fill:rgb(0,0,0);" />
<path d=" M661.79 144 L660.05 141 L666.99 141 L668.72 144 Z" style="fill:rgb(0,0,0);" />
<path d=" M659.36 114 L657.62 111 L664.55 111 L666.29 114 Z" style="fill:rgb(0,0,0);" />
<path d=" M631.93 144 L630.19 141 L637.12 141 L638.86 144 Z" style="fill:rgb(0,0,0);" />
<path d=" M644.42 114 L642.69 111 L649.62 111 L651.36 114 Z" style="fill:rgb(0,0,0);" />
<path d=" M599.63 114 L597.89 111 L604.82 111 L606.56 114 Z" style="fill:rgb(0,0,0);" />
<path d=" M614.56 114 L612.82 111 L619.75 111 L621.49 114 Z" style="fill:rgb(0,0,0);" />
<path d=" M629.49 114 L627.75 111 L634.69 111 L636.42 114 Z" style="fill:rgb(0,0,0);" />
<path d=" M584.69 114 L582.96 111 L589.89 111 L591.63 114 Z" style="fill:rgb(0,0,0);" />
<path d=" M569.76 114 L568.02 111 L574.96 111 L576.69 114 Z" style="fill:rgb(0,0,0);" />
<path d=" M646.86 144 L645.12 141 L652.05 141 L653.79 144 Z" style="fill:rgb(0,0,0);" />
<path d=" M602.06 144 L600.32 141 L607.26 141 L608.99 144 Z" style="fill:rgb(0,0,0);" />
<path d=" M572.19 144 L570.46 141 L577.39 141 L579.13 144 Z" style="fill:rgb(0,0,0);" />
</g>
</svg>
