<?xml version="1.0" encoding="UTF-8"?>
<!DOCTYPE svg PUBLIC '-//W3C//DTD SVG 1.0//EN' 'http://www.w3.org/TR/2001/REC-SVG-20010904/DTD/svg10.dtd'>
<svg xmlns:xlink="http://www.w3.org/1999/xlink" xmlns="http://www.w3.org/2000/svg" width="800" height="400.000000000001">
<!--Gegenereerd door de SIMaD-toepassing (http://www.dlw.be).-->
<g style="stroke:none;fill-rule:evenodd;" transform="matrix(1,0,0,-1,0,400.000000000001)">
<path d=" M0 45 L1.06581410364015E-13 354.999996858407 A45 45 0 0 0 45.0000031415927 400 L754.999996858407 400 A45 45 0 0 0 800 354.999996858407 L799.999999999999 45.0000086393798 A45 45 0 0 0 755.000003141593 1.06581410364015E-13 L45.0000031415927 1.06581410364015E-13 A45 45 0 0 0 1.06581410364015E-13 45.0000031415927 Z" style="fill:rgb(0,0,255);" />
<path d=" M15 45 L15.0000000000001 354.999997905605 A30 30 0 0 0 45.0000020943951 385 L754.999997905605 385 A30 30 0 0 0 785 354.999997905605 L784.999999999999 45.0000057595865 A30 30 0 0 0 755.000002094395 15.0000000000001 L45.0000020943951 15.0000000000001 A30 30 0 0 0 15.0000000000001 45.0000020943951 Z" style="fill:rgb(255,255,255);" />
<path d=" M30 45 L30 354.999998952802 A15 15 0 0 0 45.0000010471975 370 L754.999998952802 370 A15 15 0 0 0 770 354.999998952802 L770 45.0000028797933 A15 15 0 0 0 755.000001047198 30 L45.0000010471975 30 A15 15 0 0 0 30 45.0000010471975 Z" style="fill:rgb(0,0,255);" />
<path d=" M520.26 311.83 L644.321640590996 97.5151185996108 A15 15 0 0 0 631.340000523599 75 L383.209999476401 75 A15 15 0 0 0 370.228359409004 97.5151185996108 L370.23 97.52 L494.298359146677 311.825118146466 A15 15 0 0 0 520.261640853323 311.825118146466 Z" style="fill:rgb(255,0,0);" />
<path d=" M750 185 L750 60 L730 60 L729.999999999998 184.999980801378 A100 100 0 0 1 630.000006981317 285 L605 285 L605 250 L560 295 L605 340 L605 305 L629.99999162242 305 A120 120 0 0 0 750 184.99999162242 Z" style="fill:rgb(255,255,255);" />
<path d=" M217.05 311.83 L341.111640590996 97.5151185996108 A15 15 0 0 0 328.130000523599 75 L79.9999994764012 75 A15 15 0 0 0 67.0183594090044 97.5151185996108 L67.02 97.52 L191.088359146677 311.825118146466 A15 15 0 0 0 217.051640853323 311.825118146466 Z" style="fill:rgb(255,0,0);" />
<path d=" M605.33 105 L409.23 105 L507.28 274.37 Z" style="fill:rgb(255,255,255);" />
<path d=" M106.02 105 L302.11 105 L204.07 274.37 Z" style="fill:rgb(255,255,255);" />
<path d=" M558.2 144 L556.46 141 L563.4 141 L565.13 144 Z" style="fill:rgb(0,0,0);" />
<path d=" M481.1 114 L479.37 111 L486.3 111 L488.04 114 Z" style="fill:rgb(0,0,0);" />
<path d=" M496.04 114 L494.3 111 L501.23 111 L502.97 114 Z" style="fill:rgb(0,0,0);" />
<path d=" M540.83 114 L539.1 111 L546.03 111 L547.77 114 Z" style="fill:rgb(0,0,0);" />
<path d=" M525.9 114 L524.16 111 L531.1 111 L532.83 114 Z" style="fill:rgb(0,0,0);" />
<path d=" M510.97 114 L509.23 111 L516.16 111 L517.9 114 Z" style="fill:rgb(0,0,0);" />
<path d=" M555.77 114 L554.03 111 L560.96 111 L562.7 114 Z" style="fill:rgb(0,0,0);" />
<path d=" M543.27 144 L541.53 141 L548.46 141 L550.2 144 Z" style="fill:rgb(0,0,0);" />
<path d=" M421.37 114 L419.63 111 L426.57 111 L428.3 114 Z" style="fill:rgb(0,0,0);" />
<path d=" M436.3 114 L434.57 111 L441.5 111 L443.24 114 Z" style="fill:rgb(0,0,0);" />
<path d=" M438.74 144 L437 141 L443.93 141 L445.67 144 Z" style="fill:rgb(0,0,0);" />
<path d=" M451.24 114 L449.5 111 L456.43 111 L458.17 114 Z" style="fill:rgb(0,0,0);" />
<path d=" M453.67 144 L451.93 141 L458.87 141 L460.6 144 Z" style="fill:rgb(0,0,0);" />
<path d=" M466.17 114 L464.43 111 L471.37 111 L473.1 114 Z" style="fill:rgb(0,0,0);" />
<path d=" M468.6 144 L466.87 141 L473.8 141 L475.54 144 Z" style="fill:rgb(0,0,0);" />
<path d=" M484.89 128.82 L481.08 129.47 L478.72 125.93 L491.59 120.02 L502.75 141 L503.67 141 L505.4 144 L504.35 144 L512.21 158.76 L530.99 127.11 L528.36 122.65 L530.2 120.41 L540.97 125.53 L533.9 141.64 L535.27 144 L532.87 144 L521.66 169.53 L522.32 193.31 L529.94 184.64 L533.62 167.56 L539.26 168.75 L535.59 191.07 L523.37 205.52 L514.31 207.89 L514.310615514731 223.647939820924 A3.28 3.28 0 0 1 511.287899463218 226.67061857393 L511.29 226.67 L505.635473374157 226.669808954425 A3.12 3.12 0 0 1 502.550191085952 223.584530274056 L502.55 223.58 L502.483187515186 213.135428681641 A4.25 4.25 0 0 1 506.426332814401 209.060862559389 L506.43 209.07 L506.43 206.18 L499.2 204.21 L491.19 187.79 L475.96 177.81 L479.63 173.87 L496.58 182.54 L501.31 189.76 L503.28 169.53 Z" style="fill:rgb(0,0,0);" />
<path d=" M184.46 151.29 L186.17 156.81 L201.7 140.92 L201.7 130.43 L205.223335703869 130.435200016418 A1.53 1.53 0 0 0 203.999669620345 128.707671303925 L204 128.71 L201.239292358377 128.179916912686 A0.69 0.69 0 0 1 200.577201646373 127.643109030946 L200.57 127.64 L200.47 126.7 L204.292984701336 126.706991809216 A2.95 2.95 0 0 1 205.512671488113 127.06571947403 L205.51 127.06 L205.51 126.27 L207.38 126.27 L207.38 126.56 L209.460522001227 126.553071920886 A3.74 3.74 0 0 1 209.46388817083 128.07068200435 L209.461115630522 128.07440194128 A2.46 2.46 0 0 0 209.075564549067 129.999894376097 L209.08 130 L209.245218303438 130.582305004007 A5.05 5.05 0 0 1 212.489845463573 134.758954156308 L212.49 134.76 L214.447560279697 134.784905394259 A18.94 18.94 0 0 1 214.511137217669 133.679994725145 L214.5 133.67 L215.223924726727 133.679929674904 A18.23 18.23 0 0 0 215.157621486158 134.792912437746 L215.15 134.79 L216.017707809686 134.802593101929 A17.37 17.37 0 1 1 248.566960216142 143.750488680576 L248.56 143.75 L249.309092766105 144.185489475986 A18.23 18.23 0 0 0 250.349619011416 141.980700459215 L250.35 141.98 L250.955725029638 142.378150585144 A18.94 18.94 0 0 1 226.517091274095 152.972877494049 L226.51 152.97 L222.61 162.07 L224.024465071157 164.666272108374 A0.76 0.76 0 0 0 224.752786759576 165.199994890753 L224.76 165.2 L225.862168493612 165.284292874779 A0.79 0.79 0 0 1 225.32742295028 166.767997003251 L225.328189491321 166.768910647011 A2.63 2.63 0 0 1 225.687207656143 168.564019795263 L225.687593394436 168.56622914538 A56.74 56.74 0 0 1 221.594632858992 180.988693452154 L221.585574618598 180.981078220645 A41.37 41.37 0 0 1 208.001200622396 198.54390531549 L208.01 198.55 L208.737674459254 198.646422017524 A5.42 5.42 0 0 1 207.510770071865 200.692186799663 L207.513209535405 200.692106875642 A7.69 7.69 0 0 1 205.213447108669 206.701105904301 L205.215116000494 206.698698072032 A3.76 3.76 0 0 1 202.070450917391 207.879766237646 L202.077901602657 207.880063806346 A2.18 2.18 0 0 1 200.327634237226 207.250619308532 L200.325162813822 207.251904058423 A45.75 45.75 0 0 1 196.696839768712 202.820450165298 L196.697612569089 202.81632499057 A1.54 1.54 0 0 1 197.18137500115 200.943987009984 L197.177445193352 200.936599736344 A1.32 1.32 0 0 0 197.852890138006 200.583755155308 L197.855873386949 200.591324842996 A2.87 2.87 0 0 1 199.11936412552 199.291898572067 L199.110239574722 199.291902329772 A6.06 6.06 0 0 1 199.110239574722 197.208097670228 L199.112548833358 197.205888543561 A0.43 0.43 0 0 1 199.749620413587 197.012953704133 L199.75 197.02 L199.98 197.14 L200.41 196.42 L200.99 196.42 L200.986315356562 195.774911546243 A1.56 1.56 0 0 0 202.002198901266 194.465815823676 L202.003932384388 194.464515801304 A0.39 0.39 0 0 1 201.980021396994 194.325914758622 L201.980014812908 194.327171793666 A0.27 0.27 0 0 1 202.352329615781 194.080142741282 L202.349088829104 194.072967883546 A0.71 0.71 0 0 1 202.644599812485 194.299503714601 L202.649053946915 194.299911614623 A115.99 115.99 0 0 0 203.720861978914 195.453002431244 L203.712490565189 195.466804244012 A0.64 0.64 0 1 0 204.421574509605 194.402589418644 L204.42 194.4 L203.206287657059 192.975927814724 A30.22 30.22 0 0 1 205.432350698943 179.260503143905 L205.436590048543 179.254724612365 A30.53 30.53 0 0 0 198.41353633024 171.209483244381 L198.412808996958 171.21286893829 A0.7 0.7 0 0 0 197.895146503658 171.010441350765 L197.9 171.01 L196.222251257373 171.092567134524 A2.18 2.18 0 0 1 194.258172081816 170.4708857794 L194.260014967948 170.471111523861 A32.31 32.31 0 0 0 192.454592649533 168.689448792562 L192.45732909554 168.69379731509 A0.93 0.93 0 0 1 192.525286568197 168.059934777422 L192.527354756049 168.050772465378 A38.11 38.11 0 0 0 188.596924965516 168.279166525054 L188.6 168.29 L183.502290862508 151.803188643462 A18.93 18.93 0 0 1 165.87669698415 151.476447542526 L165.88 151.47 L166.279832240261 150.887720907742 A18.22 18.22 0 0 0 183.289991195669 151.11480958211 L183.29 151.11 L183.034429221931 150.290157371851 A17.37 17.37 0 1 1 192.369366939669 134.741702612534 L192.37 134.74 L193.21939614965 134.741662742036 A18.22 18.22 0 0 0 193.189486873024 133.835975666266 L193.19 133.84 L193.90063832813 133.83606888782 A18.93 18.93 0 0 1 184.460033548218 151.286727273044 Z M246.67 143.91 L236.126257305866 137.632178801472 A3.59 3.59 0 0 1 232.585107828694 138.820892234273 L232.58 138.82 L227.743723382611 150.112609164454 A15.83 15.83 0 0 0 246.671506149934 143.917951166777 Z M248.73 145.14 L247.995173248506 144.706885048628 A17.37 17.37 0 0 1 227.136336947229 151.529058321922 L227.13 151.52 L226.797105212599 152.319952829876 A18.23 18.23 0 0 0 248.734343682819 145.147361297412 Z M214.44 135.67 L212.507588734364 135.663835757678 A5.05 5.05 0 0 1 210.321311097279 139.478036111472 L210.32 139.48 L221.86 160.69 L225.382083119406 152.488486408857 A18.94 18.94 0 0 1 214.443374491281 135.677511318053 Z M209.010536999797 146.12056752801 A7.09 7.09 0 0 0 210.25718373438 151.394056589143 L210.25 151.4 L219.51 161.38 L221.04 161.45 L209.32 139.91 Z M201.7 145.87 L191.833987897076 157.857752515676 A2.86 2.86 0 0 0 191.580645503116 161.16657121352 L191.57 161.17 L187.51 161.17 L186.58 158.13 L201.7 142.57 Z M193.21 135.6 L192.355349488684 135.603263012956 A17.37 17.37 0 0 1 183.986166613372 149.754915391509 L183.99 149.76 L184.245282680152 150.590100259683 A18.22 18.22 0 0 0 193.206026005117 135.603454344024 Z M231.44 138.34 L226.608373371495 149.628527974747 A15.83 15.83 0 0 1 217.554378958188 135.692315244054 L217.55 135.69 L229.815841721907 135.749971823144 A3.59 3.59 0 0 0 231.447336419986 138.345377908045 Z M225.66 151.83 L226.001064468752 151.044764240703 A17.37 17.37 0 0 1 216.013835851788 135.685024351744 L216.01 135.68 L215.153572594425 135.680893376659 A18.23 18.23 0 0 0 225.662015996645 151.835617545946 Z M177.108489227313 136.495233060433 A2.65 2.65 0 0 0 177.551989246471 135.604038434466 L177.55 135.6 L190.813916175828 135.603410950204 A15.83 15.83 0 0 1 183.51719332829 148.233399784483 L183.52 148.23 L182.400389381455 144.600033147475 A18.45 18.45 0 0 0 178.395177956262 137.743624703052 L178.39 137.74 Z M229.808223828196 134.958731431576 A3.59 3.59 0 1 1 236.662380990719 136.773985911819 L236.66 136.77 L247.237927643518 142.971584242954 A15.83 15.83 0 1 0 217.557898339611 134.82000095167 L217.55 134.82 Z M221.55 162.39 L222.71 164.52 L220.3 162.39 Z M205.15 159.44 L202.64 155.49 L201.06 157.36 Z M208.174982595153 169.67578743363 A1.37 1.37 0 0 1 208.881717719248 170.539497197478 L208.876872548583 170.539977061277 A1.33 1.33 0 0 0 209.031803194678 170.894323766786 L209.040967670649 170.892983188215 A0.27 0.27 0 0 0 209.130832664782 170.981370812352 L209.130075618105 170.979544229586 A4.54 4.54 0 0 1 210.006683501244 171.666166787608 L210.000673097017 171.663204396613 A1.37 1.37 0 0 1 210.334447547838 172.211291754392 L210.336526617683 172.218618230513 A11.84 11.84 0 0 0 210.634697618223 173.041659332791 L210.628502234887 173.03800668022 A1.4 1.4 0 0 1 210.855086933062 174.268253966503 L210.868541103922 174.272391733349 A4.68 4.68 0 0 0 210.544521624606 176.388390456889 L210.542041475834 176.388691442958 A2.55 2.55 0 0 0 209.735006289377 174.721242879392 L209.73 174.72 L203.623303437299 169.564276347414 A5.72 5.72 0 0 0 201.270851184 168.001566727284 L201.266755015006 167.997097664006 A18.85 18.85 0 0 0 199.116437219756 167.482253021667 L199.12 167.48 L199.12 168.06 L197.76 167.91 L197.32 166.66 L195.84 167.19 L195.599213616905 166.663888096821 A0.45 0.45 0 0 0 194.899819678757 166.794194969716 L194.905818202888 166.793567529264 A0.51 0.51 0 0 0 194.237842096977 166.137585626482 L194.231582934353 166.13168070696 A3.69 3.69 0 0 1 193.298851604997 166.546553454693 L193.306965291036 166.547410540971 A14.95 14.95 0 0 0 189.261416350692 166.811762298109 L189.26 166.81 L187.85 162.24 L192.8 162.24 Z M176.3 137.2 L177.627996862301 138.490057933457 A17.38 17.38 0 0 1 181.380001906063 144.922141164526 L181.38 144.92 L182.572261997675 148.791429719226 A15.83 15.83 0 1 1 190.829305062731 134.74167188059 L190.83 134.74 L177.645838229116 134.741541031431 A2.65 2.65 0 1 0 176.299949483947 137.199249085566 Z" style="fill:rgb(0,0,0);" />
<path d=" M197.94 144 L199.68 141 L192.74 141 L191.01 144 Z" style="fill:rgb(0,0,0);" />
<path d=" M483.54 144 L481.8 141 L488.73 141 L490.47 144 Z" style="fill:rgb(0,0,0);" />
<path d=" M513.4 144 L511.67 141 L518.6 141 L520.34 144 Z" style="fill:rgb(0,0,0);" />
<path d=" M570.7 114 L568.96 111 L575.9 111 L577.63 114 Z" style="fill:rgb(0,0,0);" />
<path d=" M573.13 144 L571.4 141 L578.33 141 L580.07 144 Z" style="fill:rgb(0,0,0);" />
<path d=" M585.63 114 L583.9 111 L590.83 111 L592.57 114 Z" style="fill:rgb(0,0,0);" />
<path d=" M227.81 144 L229.54 141 L222.61 141 L220.87 144 Z" style="fill:rgb(0,0,0);" />
<path d=" M168.07 144 L169.81 141 L162.88 141 L161.14 144 Z" style="fill:rgb(0,0,0);" />
<path d=" M242.74 144 L244.48 141 L237.54 141 L235.81 144 Z" style="fill:rgb(0,0,0);" />
</g>
</svg>
