<?xml version="1.0" encoding="UTF-8"?>
<!DOCTYPE svg PUBLIC '-//W3C//DTD SVG 1.0//EN' 'http://www.w3.org/TR/2001/REC-SVG-20010904/DTD/svg10.dtd'>
<svg xmlns:xlink="http://www.w3.org/1999/xlink" xmlns="http://www.w3.org/2000/svg" width="600" height="400.000000000001">
<!--Gegenereerd door de SIMaD-toepassing (http://www.dlw.be).-->
<g style="stroke:none;fill-rule:evenodd;" transform="matrix(1,0,0,-1,0,400.000000000001)">
<path d=" M0 45 L1.06581410364015E-13 354.999996858407 A45 45 0 0 0 45.0000031415927 400 L554.999996858407 400 A45 45 0 0 0 600 354.999996858407 L599.999999999999 45.0000086393798 A45 45 0 0 0 555.000003141593 1.06581410364015E-13 L45.0000031415927 1.06581410364015E-13 A45 45 0 0 0 1.06581410364015E-13 45.0000031415927 Z" style="fill:rgb(0,0,255);" />
<path d=" M15 45 L15.0000000000001 354.999997905605 A30 30 0 0 0 45.0000020943951 385 L554.999997905605 385 A30 30 0 0 0 585 354.999997905605 L584.999999999999 45.0000057595865 A30 30 0 0 0 555.000002094395 15.0000000000001 L45.0000020943951 15.0000000000001 A30 30 0 0 0 15.0000000000001 45.0000020943951 Z" style="fill:rgb(255,255,255);" />
<path d=" M30 45 L30 354.999998952802 A15 15 0 0 0 45.0000010471975 370 L554.999998952802 370 A15 15 0 0 0 570 354.999998952802 L570 45.0000028797933 A15 15 0 0 0 555.000001047198 30 L45.0000010471975 30 A15 15 0 0 0 30 45.0000010471975 Z" style="fill:rgb(0,0,255);" />
<path d=" M310 240 L310 277.5 L359.999989178959 277.5 A155 155 0 0 0 515 122.499989178959 L515 60 L540 60 L539.999999999997 122.499965442481 A180 180 0 0 1 360.000012566371 302.5 L310 302.5 L310 340 L260 290 Z" style="fill:rgb(255,255,255);" />
<path d=" M200.09 296.83 L76.0183590155138 82.5151179198937 A15 15 0 0 1 89.0000005235988 60 L337.130000523599 60 A15 15 0 0 1 350.111640590996 82.5151185996108 L350.11 82.52 L226.051640853323 296.825118146466 A15 15 0 0 1 200.088359146677 296.825118146466 Z" style="fill:rgb(255,0,0);" />
<path d=" M115.02 90 L311.12 90 L213.07 259.37 Z" style="fill:rgb(255,255,255);" />
<path d=" M190.68 113.82 L186.87 114.47 L184.5 110.93 L197.38 105.02 L208.54 126 L209.45 126 L211.19 129 L210.14 129 L218 143.76 L236.78 112.11 L234.15 107.65 L235.99 105.41 L246.76 110.53 L239.69 126.64 L241.06 129 L238.66 129 L227.45 154.53 L228.11 178.31 L235.73 169.64 L239.4 152.56 L245.05 153.75 L241.37 176.07 L229.16 190.52 L220.1 192.89 L220.100615514731 208.647939820924 A3.28 3.28 0 0 1 217.077899463218 211.67061857393 L217.08 211.67 L211.425473428608 211.669808955027 A3.12 3.12 0 0 1 208.340191086555 208.584530328507 L208.34 208.58 L208.273187515186 198.135428681641 A4.25 4.25 0 0 1 212.216332814401 194.060862559389 L212.22 194.07 L212.22 191.18 L204.99 189.21 L196.98 172.79 L181.75 162.81 L185.42 158.87 L202.37 167.54 L207.09 174.76 L209.06 154.53 Z" style="fill:rgb(0,0,0);" />
<path d=" M186.89 99 L185.15 96 L192.09 96 L193.82 99 Z" style="fill:rgb(0,0,0);" />
<path d=" M171.96 99 L170.22 96 L177.15 96 L178.89 99 Z" style="fill:rgb(0,0,0);" />
<path d=" M142.09 99 L140.36 96 L147.29 96 L149.03 99 Z" style="fill:rgb(0,0,0);" />
<path d=" M157.03 99 L155.29 96 L162.22 96 L163.96 99 Z" style="fill:rgb(0,0,0);" />
<path d=" M127.16 99 L125.42 96 L132.36 96 L134.09 99 Z" style="fill:rgb(0,0,0);" />
<path d=" M261.56 99 L259.82 96 L266.75 96 L268.49 99 Z" style="fill:rgb(0,0,0);" />
<path d=" M246.62 99 L244.89 96 L251.82 96 L253.56 99 Z" style="fill:rgb(0,0,0);" />
<path d=" M231.69 99 L229.95 96 L236.89 96 L238.62 99 Z" style="fill:rgb(0,0,0);" />
<path d=" M201.82 99 L200.09 96 L207.02 96 L208.76 99 Z" style="fill:rgb(0,0,0);" />
<path d=" M216.76 99 L215.02 96 L221.95 96 L223.69 99 Z" style="fill:rgb(0,0,0);" />
<path d=" M174.39 129 L172.66 126 L179.59 126 L181.33 129 Z" style="fill:rgb(0,0,0);" />
<path d=" M144.53 129 L142.79 126 L149.72 126 L151.46 129 Z" style="fill:rgb(0,0,0);" />
<path d=" M159.46 129 L157.72 126 L164.66 126 L166.39 129 Z" style="fill:rgb(0,0,0);" />
<path d=" M249.06 129 L247.32 126 L254.25 126 L255.99 129 Z" style="fill:rgb(0,0,0);" />
<path d=" M291.42 99 L289.69 96 L296.62 96 L298.35 99 Z" style="fill:rgb(0,0,0);" />
<path d=" M276.49 99 L274.75 96 L281.69 96 L283.42 99 Z" style="fill:rgb(0,0,0);" />
<path d=" M189.33 129 L187.59 126 L194.52 126 L196.26 129 Z" style="fill:rgb(0,0,0);" />
<path d=" M278.92 129 L277.19 126 L284.12 126 L285.86 129 Z" style="fill:rgb(0,0,0);" />
<path d=" M263.99 129 L262.25 126 L269.19 126 L270.92 129 Z" style="fill:rgb(0,0,0);" />
<path d=" M219.19 129 L217.45 126 L224.39 126 L226.12 129 Z" style="fill:rgb(0,0,0);" />
</g>
</svg>
