<?xml version="1.0" encoding="UTF-8"?>
<!DOCTYPE svg PUBLIC '-//W3C//DTD SVG 1.0//EN' 'http://www.w3.org/TR/2001/REC-SVG-20010904/DTD/svg10.dtd'>
<svg xmlns:xlink="http://www.w3.org/1999/xlink" xmlns="http://www.w3.org/2000/svg" width="600.000000670554" height="400.000000000002">
<!--Gegenereerd door de SIMaD-toepassing (http://www.dlw.be).-->
<g style="stroke:none;fill-rule:evenodd;" transform="matrix(1,0,0,-1,0,400.000000000002)">
<path d=" M0 45 L1.06581410364015E-13 354.999996858407 A45 45 0 0 0 45.0000031415927 400 L554.999996858407 400 A45 45 0 0 0 600 354.999996858407 L599.999999999999 45.0000086393798 A45 45 0 0 0 555.000003141593 1.06581410364015E-13 L45.0000031415927 1.06581410364015E-13 A45 45 0 0 0 1.06581410364015E-13 45.0000031415927 Z" style="fill:rgb(0,0,255);" />
<path d=" M15 45 L15.0000000000001 354.999997905605 A30 30 0 0 0 45.0000020943951 385 L554.999997905605 385 A30 30 0 0 0 585 354.999997905605 L584.999999999999 45.0000057595865 A30 30 0 0 0 555.000002094395 15.0000000000001 L45.0000020943951 15.0000000000001 A30 30 0 0 0 15.0000000000001 45.0000020943951 Z" style="fill:rgb(255,255,255);" />
<path d=" M30 45 L30 354.999998952802 A15 15 0 0 0 45.0000010471975 370 L554.999998952802 370 A15 15 0 0 0 570 354.999998952802 L570 45.0000028797933 A15 15 0 0 0 555.000001047198 30 L45.0000010471975 30 A15 15 0 0 0 30 45.0000010471975 Z" style="fill:rgb(0,0,255);" />
<path d=" M373.95 296.83 L249.888359015514 82.5151179198937 A15 15 0 0 1 262.870000261799 60 L511.000000523599 60 A15 15 0 0 1 523.981640590996 82.5151185996108 L523.98 82.52 L399.911640853323 296.825118146466 A15 15 0 0 1 373.948359146677 296.825118146466 Z" style="fill:rgb(255,0,0);" />
<path d=" M290 240 L290 277.5 L240.000010821041 277.5 A155 155 0 0 1 85.0000000000004 122.499989178959 L85 60 L60 60 L60.0000000000004 122.499987433629 A180 180 0 0 0 240.000012566371 302.5 L290 302.5 L290 340 L340 290 Z" style="fill:rgb(255,255,255);" />
<path d=" M288.88 90 L484.98 90 L386.93 259.37 Z" style="fill:rgb(255,255,255);" />
<path d=" M367.33 136.29 L369.04 141.81 L384.57 125.92 L384.57 115.43 L388.093335703869 115.435200016418 A1.53 1.53 0 0 0 386.869669620345 113.707671303925 L386.87 113.71 L384.109292358377 113.179916912686 A0.69 0.69 0 0 1 383.447201646373 112.643109030946 L383.44 112.64 L383.33 111.7 L387.152984701336 111.706991809216 A2.95 2.95 0 0 1 388.372671488113 112.06571947403 L388.38 112.06 L388.38 111.27 L390.24 111.27 L390.24 111.56 L392.330522001227 111.553071920886 A3.74 3.74 0 0 1 392.33388817083 113.07068200435 L392.331115704119 113.074401835571 A2.46 2.46 0 0 0 391.945564521846 114.999894250201 L391.94 115 L392.105218385951 115.58230503499 A5.05 5.05 0 0 1 395.349845463573 119.758954156308 L395.36 119.76 L397.307560279697 119.784905394259 A18.94 18.94 0 0 1 397.371137217669 118.679994725145 L397.37 118.67 L398.083924583604 118.67993125932 A18.23 18.23 0 0 0 398.017621440161 119.792914027948 L398.02 119.79 L398.877707809686 119.802593101929 A17.37 17.37 0 1 1 431.426960216142 128.750488680576 L431.43 128.75 L432.169092456641 129.185490032016 A18.23 18.23 0 0 0 433.209618662663 126.980701347742 L433.22 126.98 L433.815725029638 127.378150585144 A18.94 18.94 0 0 1 409.377091274095 137.972877494049 L409.38 137.97 L405.48 147.07 L406.894465059309 149.666272070385 A0.76 0.76 0 0 0 407.622786706518 150.199994890948 L407.63 150.2 L408.732168442948 150.284292852986 A0.79 0.79 0 0 1 408.197423003198 151.76799701879 L408.198189491321 151.768910647011 A2.63 2.63 0 0 1 408.557207656143 153.564019795263 L408.557593394436 153.56622914538 A56.74 56.74 0 0 1 404.464632858992 165.988693452154 L404.455574618598 165.981078220645 A41.37 41.37 0 0 1 390.871200622396 183.54390531549 L390.88 183.55 L391.607674400038 183.646422197212 A5.42 5.42 0 0 1 390.380769941238 185.692186936523 L390.38320952654 185.692106741719 A7.69 7.69 0 0 1 388.083447204681 191.701105810517 L388.085115955836 191.698698120118 A3.76 3.76 0 0 1 384.940450917391 192.879766237646 L384.937901602657 192.880063806346 A2.18 2.18 0 0 1 383.187634237226 192.250619308532 L383.195162813822 192.251904058423 A45.75 45.75 0 0 1 379.566839768712 187.820450165298 L379.567612535771 187.816324917141 A1.54 1.54 0 0 1 380.051375044295 185.943986977918 L380.047445283871 185.936599719069 A1.32 1.32 0 0 0 380.722890187421 185.583755106986 L380.725873452329 185.591324707691 A2.87 2.87 0 0 1 381.989364214465 184.291898525968 L381.980239574722 184.291902329772 A6.06 6.06 0 0 1 381.980239574722 182.208097670228 L381.982548833358 182.205888543561 A0.43 0.43 0 0 1 382.619620413587 182.012953704133 L382.62 182.02 L382.85 182.14 L383.28 181.42 L383.85 181.42 L383.856315356562 180.774911546243 A1.56 1.56 0 0 0 384.872198901266 179.465815823676 L384.863932478298 179.464516056867 A0.39 0.39 0 0 1 384.840021394142 179.325915030878 L384.850014813254 179.327171760681 A0.27 0.27 0 0 1 385.222329646307 179.080142753784 L385.21908893231 179.072967925815 A0.71 0.71 0 0 1 385.51459988762 179.299503813142 L385.519058051401 179.299916090919 A115.99 115.99 0 0 0 386.590866143776 180.453006851419 L386.582490565189 180.466804244012 A0.64 0.64 0 1 0 387.291574509605 179.402589418644 L387.29 179.4 L386.076287657059 177.975927814724 A30.22 30.22 0 0 1 388.302350698943 164.260503143905 L388.306590048543 164.254724612365 A30.53 30.53 0 0 0 381.28353633024 156.209483244381 L381.282808996958 156.21286893829 A0.7 0.7 0 0 0 380.765146503658 156.010441350765 L380.76 156.01 L379.092251219978 156.092567141545 A2.18 2.18 0 0 1 377.128172055271 155.470885752141 L377.130014967948 155.471111523861 A32.31 32.31 0 0 0 375.324592649533 153.689448792562 L375.317329130694 153.693797456881 A0.93 0.93 0 0 1 375.385286503784 153.059934908539 L375.397354756049 153.050772465378 A38.11 38.11 0 0 0 371.466924965516 153.279166525054 L371.46 153.29 L366.372290862508 136.803188643462 A18.93 18.93 0 0 1 348.74669698415 136.476447542526 L348.75 136.47 L349.149832240261 135.887720907742 A18.22 18.22 0 0 0 366.159991195669 136.11480958211 L366.16 136.11 L365.904429221931 135.290157371851 A17.37 17.37 0 1 1 375.239366939669 119.741702612534 L375.24 119.74 L376.08939614965 119.741662742036 A18.22 18.22 0 0 0 376.059486873024 118.835975666266 L376.06 118.84 L376.77063832813 118.83606888782 A18.93 18.93 0 0 1 367.330033548218 136.286727273044 Z M391.044982509687 154.675787390696 A1.37 1.37 0 0 1 391.75171769408 155.539497105205 L391.746872548583 155.539977061277 A1.33 1.33 0 0 0 391.901803194678 155.894323766786 L391.900967590792 155.892983060299 A0.27 0.27 0 0 0 391.990832535561 155.981370734626 L391.990075414402 155.97954410706 A4.54 4.54 0 0 1 392.866683333491 156.666166619183 L392.870673097017 156.663204396613 A1.37 1.37 0 0 1 393.204447547838 157.211291754392 L393.206526617684 157.218618230513 A11.84 11.84 0 0 0 393.504697618223 158.041659332791 L393.498502234887 158.03800668022 A1.4 1.4 0 0 1 393.725086933062 159.268253966503 L393.728541103922 159.272391733349 A4.68 4.68 0 0 0 393.404521624606 161.388390456889 L393.412041475834 161.388691442958 A2.55 2.55 0 0 0 392.605006289377 159.721242879392 L392.6 159.72 L386.493303437299 154.564276347414 A5.72 5.72 0 0 0 384.140851184 153.001566727284 L384.136755015006 152.997097664006 A18.85 18.85 0 0 0 381.986437219756 152.482253021667 L381.99 152.48 L381.99 153.06 L380.62 152.91 L380.19 151.66 L378.71 152.19 L378.469213616905 151.663888096821 A0.45 0.45 0 0 0 377.769819678757 151.794194969716 L377.775818202888 151.793567529264 A0.51 0.51 0 0 0 377.107842096977 151.137585626482 L377.101582934353 151.13168070696 A3.69 3.69 0 0 1 376.168851604997 151.546553454693 L376.166965291036 151.547410540971 A14.95 14.95 0 0 0 372.121416350692 151.811762298109 L372.13 151.81 L370.71 147.24 L375.67 147.24 Z M397.3 120.67 L395.367588728188 120.663835845601 A5.05 5.05 0 0 1 393.181310951787 124.478036211001 L393.19 124.48 L404.73 145.69 L408.242083119406 137.488486408857 A18.94 18.94 0 0 1 397.303374491281 120.677511318053 Z M391.870537019509 131.120567405846 A7.09 7.09 0 0 0 393.117183662053 136.394056488738 L393.12 136.4 L402.38 146.38 L403.91 146.45 L392.18 124.91 Z M384.57 130.87 L374.693987929055 142.857752477348 A2.86 2.86 0 0 0 374.440645477345 146.166571170771 L374.44 146.17 L370.38 146.17 L369.44 143.13 L384.57 127.57 Z M429.54 128.91 L418.986257305866 122.632178801472 A3.59 3.59 0 0 1 415.445107828694 123.820892234273 L415.45 123.82 L410.603723382611 135.112609164453 A15.83 15.83 0 0 0 429.531505999871 128.917951398757 Z M431.6 130.14 L430.855173248506 129.706885048628 A17.37 17.37 0 0 1 409.996336947229 136.529058321922 L410 136.52 L409.657105212599 137.319952829876 A18.23 18.23 0 0 0 431.594343682819 130.147361297412 Z M412.668223828196 119.958731431576 A3.59 3.59 0 1 1 419.522380990719 121.773985911819 L419.53 121.77 L430.097927643518 127.971584242954 A15.83 15.83 0 1 0 400.417898339612 119.82000095167 L400.42 119.82 Z M359.17 122.2 L360.497996862301 123.490057933457 A17.38 17.38 0 0 1 364.250001906062 129.922141164526 L364.25 129.92 L365.442261997675 133.791429719226 A15.83 15.83 0 1 1 373.699305062731 119.74167188059 L373.7 119.74 L360.515838234298 119.741541123788 A2.65 2.65 0 1 0 359.169949403339 122.199249130943 Z M359.978489227313 121.495233060433 A2.65 2.65 0 0 0 360.421989246471 120.604038434466 L360.42 120.6 L373.683916175828 120.603410950204 A15.83 15.83 0 0 1 366.38719332829 133.233399784483 L366.39 133.23 L365.270389381455 129.600033147475 A18.45 18.45 0 0 0 361.265177956262 122.743624703052 L361.26 122.74 Z M388.02 144.44 L385.51 140.49 L383.93 142.36 Z M376.07 120.6 L375.225349488684 120.603263012956 A17.37 17.37 0 0 1 366.856166613372 134.754915391509 L366.86 134.76 L367.115282680152 135.590100259683 A18.22 18.22 0 0 0 376.076026005117 120.603454344024 Z M414.31 123.34 L409.468373371495 134.628527974747 A15.83 15.83 0 0 1 400.414378958188 120.692315244054 L400.42 120.69 L412.675841706898 120.749971698732 A3.59 3.59 0 0 0 414.30733631438 123.345377840582 Z M408.53 136.83 L408.861064468752 136.044764240703 A17.37 17.37 0 0 1 398.873835851788 120.685024351744 L398.88 120.68 L398.013572594425 120.680893376659 A18.23 18.23 0 0 0 408.522015996645 136.835617545946 Z M404.41 147.39 L405.57 149.52 L403.17 147.39 Z" style="fill:rgb(0,0,0);" />
</g>
</svg>
