<?xml version="1.0" encoding="UTF-8"?>
<!DOCTYPE svg PUBLIC '-//W3C//DTD SVG 1.0//EN' 'http://www.w3.org/TR/2001/REC-SVG-20010904/DTD/svg10.dtd'>
<svg xmlns:xlink="http://www.w3.org/1999/xlink" xmlns="http://www.w3.org/2000/svg" width="600" height="400.000000000001">
<!--Gegenereerd door de SIMaD-toepassing (http://www.dlw.be).-->
<g style="stroke:none;fill-rule:evenodd;" transform="matrix(1,0,0,-1,0,400.000000000001)">
<path d=" M0 45 L1.06581410364015E-13 354.999996858407 A45 45 0 0 0 45.0000031415927 400 L554.999996858407 400 A45 45 0 0 0 600 354.999996858407 L599.999999999999 45.0000086393798 A45 45 0 0 0 555.000003141593 1.06581410364015E-13 L45.0000031415927 1.06581410364015E-13 A45 45 0 0 0 1.06581410364015E-13 45.0000031415927 Z" style="fill:rgb(0,0,255);" />
<path d=" M15 45 L15.0000000000001 354.999997905605 A30 30 0 0 0 45.0000020943951 385 L554.999997905605 385 A30 30 0 0 0 585 354.999997905605 L584.999999999999 45.0000057595865 A30 30 0 0 0 555.000002094395 15.0000000000001 L45.0000020943951 15.0000000000001 A30 30 0 0 0 15.0000000000001 45.0000020943951 Z" style="fill:rgb(255,255,255);" />
<path d=" M30 45 L30 354.999998952802 A15 15 0 0 0 45.0000010471975 370 L554.999998952802 370 A15 15 0 0 0 570 354.999998952802 L570 45.0000028797933 A15 15 0 0 0 555.000001047198 30 L45.0000010471975 30 A15 15 0 0 0 30 45.0000010471975 Z" style="fill:rgb(0,0,255);" />
<path d=" M373.95 296.83 L249.888359015514 82.5151179198937 A15 15 0 0 1 262.870000523599 60 L511.000000523599 60 A15 15 0 0 1 523.981640590996 82.5151185996108 L523.98 82.52 L399.911640853323 296.825118146466 A15 15 0 0 1 373.948359146677 296.825118146466 Z" style="fill:rgb(255,0,0);" />
<path d=" M290 240 L290 277.5 L240.000010821041 277.5 A155 155 0 0 1 85.0000000000004 122.499989178959 L85 60 L60 60 L60.0000000000004 122.499987433629 A180 180 0 0 0 240.000012566371 302.5 L290 302.5 L290 340 L340 290 Z" style="fill:rgb(255,255,255);" />
<path d=" M288.88 90 L484.98 90 L386.93 259.37 Z" style="fill:rgb(255,255,255);" />
<path d=" M364.54 113.82 L360.73 114.47 L358.37 110.93 L371.24 105.02 L382.41 126 L383.32 126 L385.06 129 L384 129 L391.86 143.76 L410.64 112.11 L408.02 107.65 L409.86 105.41 L420.63 110.53 L413.56 126.64 L414.92 129 L412.52 129 L401.32 154.53 L401.98 178.31 L409.59 169.64 L413.27 152.56 L418.92 153.75 L415.24 176.07 L403.03 190.52 L393.96 192.89 L393.970615519058 208.647939763841 A3.28 3.28 0 0 1 390.947899520301 211.670618569603 L390.94 211.67 L385.295473374157 211.669808954425 A3.12 3.12 0 0 1 382.210191085952 208.584530274056 L382.21 208.58 L382.143187515186 198.135428681641 A4.25 4.25 0 0 1 386.086332814401 194.060862559389 L386.08 194.07 L386.08 191.18 L378.86 189.21 L370.85 172.79 L355.61 162.81 L359.29 158.87 L376.23 167.54 L380.96 174.76 L382.93 154.53 Z" style="fill:rgb(0,0,0);" />
<path d=" M422.92 129 L421.19 126 L428.12 126 L429.86 129 Z" style="fill:rgb(0,0,0);" />
<path d=" M333.33 129 L331.59 126 L338.52 126 L340.26 129 Z" style="fill:rgb(0,0,0);" />
<path d=" M348.26 129 L346.52 126 L353.46 126 L355.19 129 Z" style="fill:rgb(0,0,0);" />
<path d=" M390.62 99 L388.89 96 L395.82 96 L397.56 99 Z" style="fill:rgb(0,0,0);" />
<path d=" M375.69 99 L373.95 96 L380.89 96 L382.62 99 Z" style="fill:rgb(0,0,0);" />
<path d=" M405.56 99 L403.82 96 L410.75 96 L412.49 99 Z" style="fill:rgb(0,0,0);" />
<path d=" M345.83 99 L344.09 96 L351.02 96 L352.76 99 Z" style="fill:rgb(0,0,0);" />
<path d=" M360.76 99 L359.02 96 L365.95 96 L367.69 99 Z" style="fill:rgb(0,0,0);" />
<path d=" M420.49 99 L418.75 96 L425.69 96 L427.42 99 Z" style="fill:rgb(0,0,0);" />
<path d=" M437.86 129 L436.12 126 L443.05 126 L444.79 129 Z" style="fill:rgb(0,0,0);" />
<path d=" M435.42 99 L433.69 96 L440.62 96 L442.36 99 Z" style="fill:rgb(0,0,0);" />
<path d=" M452.79 129 L451.05 126 L457.99 126 L459.72 129 Z" style="fill:rgb(0,0,0);" />
<path d=" M450.36 99 L448.62 96 L455.55 96 L457.29 99 Z" style="fill:rgb(0,0,0);" />
<path d=" M465.29 99 L463.55 96 L470.48 96 L472.22 99 Z" style="fill:rgb(0,0,0);" />
<path d=" M301.03 99 L299.29 96 L306.22 96 L307.96 99 Z" style="fill:rgb(0,0,0);" />
<path d=" M363.19 129 L361.46 126 L368.39 126 L370.13 129 Z" style="fill:rgb(0,0,0);" />
<path d=" M393.06 129 L391.32 126 L398.25 126 L399.99 129 Z" style="fill:rgb(0,0,0);" />
<path d=" M318.39 129 L316.66 126 L323.59 126 L325.33 129 Z" style="fill:rgb(0,0,0);" />
<path d=" M330.89 99 L329.16 96 L336.09 96 L337.83 99 Z" style="fill:rgb(0,0,0);" />
<path d=" M315.96 99 L314.22 96 L321.16 96 L322.89 99 Z" style="fill:rgb(0,0,0);" />
</g>
</svg>
