<?xml version="1.0" encoding="UTF-8"?>
<!DOCTYPE svg PUBLIC '-//W3C//DTD SVG 1.0//EN' 'http://www.w3.org/TR/2001/REC-SVG-20010904/DTD/svg10.dtd'>
<svg xmlns:xlink="http://www.w3.org/1999/xlink" xmlns="http://www.w3.org/2000/svg" width="600" height="400.000000000001">
<!--Gegenereerd door de SIMaD-toepassing (http://www.dlw.be).-->
<g style="stroke:none;fill-rule:evenodd;" transform="matrix(1,0,0,-1,0,400.000000000001)">
<path d=" M0 45 L0 355 A45 45 0 0 0 45.0000015707963 400 L555 400 A45 45 0 0 0 600 354.999998429204 L600 45 A45 45 0 0 0 555.000001570796 2.8421709430404E-14 L45 0 A45 45 0 0 0 2.8421709430404E-14 45.0000015707963 Z" style="fill:rgb(0,0,255);" />
<path d=" M15 45 L15 355 A30 30 0 0 0 45.0000010471975 385 L555 385 A30 30 0 0 0 585 354.999998952802 L585 45 A30 30 0 0 0 555.000001047198 15 L45 15 A30 30 0 0 0 15 45.0000010471975 Z" style="fill:rgb(255,255,255);" />
<path d=" M30 45 L30 355 A15 15 0 0 0 45.0000005235988 370 L555 370 A15 15 0 0 0 570 354.999999476401 L570 45 A15 15 0 0 0 555.000000523599 30 L45 30 A15 15 0 0 0 30 45.0000005235988 Z" style="fill:rgb(0,0,255);" />
<path d=" M373.95 296.83 L249.89 82.52 L249.888347866626 82.5150986612334 A15 15 0 0 1 262.870004712389 60.0000000000007 L511 60 L510.999613845903 60.0000000049705 A15 15 0 0 1 523.981843233981 82.514768542566 L523.98 82.52 L399.92 296.83 L399.912082196298 296.824355717463 A15 15 0 0 1 373.948809585642 296.825896182504 Z" style="fill:rgb(255,0,0);" />
<path d=" M290 240 L290 277.5 L240 277.5 A155 155 0 0 1 85.0000000000001 122.499994589479 L85 60 L60 60 L60 122.5 A180 180 0 0 0 240.000006283185 302.5 L290 302.5 L290 340 L340 290 L290 240 Z" style="fill:rgb(255,255,255);" />
<path d=" M484.98 90 L386.94 259.37 L288.89 90 L484.98 90 Z" style="fill:rgb(255,255,255);" />
<path d=" M434.71 102.95 A3.48 3.48 0 0 1 427.75 102.95 A3.48 3.48 0 0 1 434.71 102.95 Z" style="fill:rgb(0,0,0);" />
<path d=" M425.26 102.95 A3.48 3.48 0 0 1 418.3 102.95 A3.48 3.48 0 0 1 425.26 102.95 Z" style="fill:rgb(0,0,0);" />
<path d=" M346.12 102.95 A3.48 3.48 0 0 1 339.16 102.95 A3.48 3.48 0 0 1 346.12 102.95 Z" style="fill:rgb(0,0,0);" />
<path d=" M355.57 102.95 A3.48 3.48 0 0 1 348.61 102.95 A3.48 3.48 0 0 1 355.57 102.95 Z" style="fill:rgb(0,0,0);" />
<path d=" M316.2 104.21 L316.2 102.47 L335.56 102.47 L338.51 107.49 L356.23 107.49 L359.18 102.47 L414.69 102.47 L417.64 107.49 L435.36 107.49 L438.31 102.47 L457.67 102.47 L457.67 104.21 L458.92 104.21 L458.92 107.03 L457.67 107.03 L457.67 120.03 L457.28 120.03 L450.81 136.69 L433.06 136.69 L433.06 138.46 L353.44 138.46 L367.05 146.63 L367.049119274568 146.632355469888 A1.05 1.05 0 1 1 367.053454247213 148.410368926376 L367.05 148.41 L353.65 156.57 L353.650809289918 156.570169552325 A1.05 1.05 0 1 1 351.588783922209 156.572279487898 L351.59 156.57 L338.18 148.41 L338.175255111263 148.41117437206 A1.05 1.05 0 1 1 338.182166262134 146.633169072642 L338.19 146.63 L351.8 138.46 L340.48 138.46 L340.3 137.53 L335.89 137.53 L335.14 137.58 L334.51 137.6 L334.08 137.66 L333.63 137.79 L333.09 137.94 L332.68 138.07 L332.25 138.16 L331.79 138.25 L331.38 138.31 L331.02 138.38 L330.63 138.42 L330.35 138.46 L329.98 138.46 L325.09 138.46 L325.096553141769 138.469996984558 A1.97 1.97 0 0 1 323.26209324601 137.209224057431 L323.26 137.21 L316.59 120.03 L316.2 120.03 L316.2 107.03 L314.95 107.03 L314.95 104.21 L316.2 104.21 Z" style="fill:rgb(0,0,0);" />
<path d=" M311.94 99.5 L311.94 96.67 L461.94 96.67 L461.94 99.5 L311.94 99.5 Z" style="fill:rgb(0,0,0);" />
<path d=" M447.17 133.74 L447.17 120.03 L455.52 120.03 L450.2 133.74 L447.17 133.74 Z" style="fill:rgb(255,255,255);" />
<path d=" M438.51 133.74 L438.51 120.03 L441.46 120.03 L441.46 133.74 L438.51 133.74 Z" style="fill:rgb(255,255,255);" />
<path d=" M442.84 133.74 L442.84 120.03 L445.79 120.03 L445.79 133.74 L442.84 133.74 Z" style="fill:rgb(255,255,255);" />
<path d=" M351.86 156.05 L338.58 147.96 L338.57252078099 147.961819150539 A1.05 1.05 0 0 0 338.57604977441 147.085870032305 L338.58 147.08 L352.62 138.66 L366.66 147.08 L366.654652411889 147.084326973649 A1.05 1.05 0 0 0 366.656767105582 147.960280647995 L366.66 147.96 L353.38 156.05 L353.378758128092 156.044199681005 A1.05 1.05 0 0 0 351.859672108679 156.045844286304 Z" style="fill:rgb(255,255,255);" />
<path d=" M363.08 133.74 L363.08 120.03 L385.95 120.03 L385.95 133.74 L363.08 133.74 Z" style="fill:rgb(255,255,255);" />
<path d=" M338.25 133.74 L338.25 120.03 L361.12 120.03 L361.12 133.74 L338.25 133.74 Z" style="fill:rgb(255,255,255);" />
<path d=" M387.92 133.74 L387.92 120.03 L410.79 120.03 L410.79 133.74 L387.92 133.74 Z" style="fill:rgb(255,255,255);" />
<path d=" M412.76 133.74 L412.76 120.03 L435.62 120.03 L435.62 133.74 L412.76 133.74 Z" style="fill:rgb(255,255,255);" />
<path d=" M332.41 133.74 L332.41 120.03 L335.36 120.03 L335.36 133.74 L332.41 133.74 Z" style="fill:rgb(255,255,255);" />
<path d=" M323.67 133.74 L318.35 120.03 L326.7 120.03 L326.7 133.74 L323.67 133.74 Z" style="fill:rgb(255,255,255);" />
<path d=" M328.08 133.74 L328.08 120.03 L331.03 120.03 L331.03 133.74 L328.08 133.74 Z" style="fill:rgb(255,255,255);" />
</g>
</svg>
