<?xml version="1.0" encoding="UTF-8"?>
<!DOCTYPE svg PUBLIC '-//W3C//DTD SVG 1.0//EN' 'http://www.w3.org/TR/2001/REC-SVG-20010904/DTD/svg10.dtd'>
<svg xmlns:xlink="http://www.w3.org/1999/xlink" xmlns="http://www.w3.org/2000/svg" width="600.000000000003" height="400.000000000002">
<!--Gegenereerd door de SIMaD-toepassing (http://www.dlw.be).-->
<g style="stroke:none;fill-rule:evenodd;" transform="matrix(1,0,0,-1,0,400.000000000002)">
<path d=" M0 45 L1.06581410364015E-13 354.999996858407 A45 45 0 0 0 45.0000031415927 400 L554.999996858407 400 A45 45 0 0 0 600 354.999996858407 L599.999999999999 45.0000086393798 A45 45 0 0 0 555.000003141593 1.06581410364015E-13 L45.0000031415927 1.06581410364015E-13 A45 45 0 0 0 1.06581410364015E-13 45.0000031415927 Z" style="fill:rgb(0,0,255);" />
<path d=" M15 45 L15.0000000000001 354.999997905605 A30 30 0 0 0 45.0000020943951 385 L554.999997905605 385 A30 30 0 0 0 585 354.999997905605 L584.999999999999 45.0000057595865 A30 30 0 0 0 555.000002094395 15.0000000000001 L45.0000020943951 15.0000000000001 A30 30 0 0 0 15.0000000000001 45.0000020943951 Z" style="fill:rgb(255,255,255);" />
<path d=" M30 45 L30 354.999998952802 A15 15 0 0 0 45.0000010471975 370 L554.999998952802 370 A15 15 0 0 0 570 354.999998952802 L570 45.0000028797933 A15 15 0 0 0 555.000001047198 30 L45.0000010471975 30 A15 15 0 0 0 30 45.0000010471975 Z" style="fill:rgb(0,0,255);" />
<path d=" M310 240 L310 277.5 L359.999989178959 277.5 A155 155 0 0 0 515 122.499989178959 L515 60 L540 60 L539.999999999997 122.499965442481 A180 180 0 0 1 360.000012566371 302.5 L310 302.5 L310 340 L260 290 Z" style="fill:rgb(255,255,255);" />
<path d=" M200.09 296.83 L76.0183590155138 82.5151179198937 A15 15 0 0 1 89.0000005235988 60 L337.130000523599 60 A15 15 0 0 1 350.111640590996 82.5151185996108 L350.11 82.52 L226.051640853323 296.825118146466 A15 15 0 0 1 200.088359146677 296.825118146466 Z" style="fill:rgb(255,0,0);" />
<path d=" M115.02 90 L311.12 90 L213.07 259.37 Z" style="fill:rgb(255,255,255);" />
<path d=" M193.46 136.29 L195.17 141.81 L210.71 125.92 L210.71 115.43 L214.223335696008 115.435200069243 A1.53 1.53 0 0 0 212.999669672786 113.707671314037 L213 113.71 L210.239292358377 113.179916912686 A0.69 0.69 0 0 1 209.577201646373 112.643109030946 L209.58 112.64 L209.47 111.7 L213.292984701336 111.706991809216 A2.95 2.95 0 0 1 214.512671488113 112.06571947403 L214.51 112.06 L214.51 111.27 L216.38 111.27 L216.38 111.56 L218.460522001227 111.553071920886 A3.74 3.74 0 0 1 218.46388817083 113.07068200435 L218.471115630522 113.07440194128 A2.46 2.46 0 0 0 218.085564549067 114.999894376097 L218.08 115 L218.245218385951 115.58230503499 A5.05 5.05 0 0 1 221.489845463573 119.758954156308 L221.49 119.76 L223.447560223662 119.78490737686 A18.94 18.94 0 0 1 223.511137074551 118.679996371764 L223.51 118.67 L224.223924726727 118.679929674904 A18.23 18.23 0 0 0 224.157621486158 119.792912437746 L224.15 119.79 L225.017707809686 119.802593101929 A17.37 17.37 0 1 1 257.566960216142 128.750488680576 L257.57 128.75 L258.309092456641 129.185490032016 A18.23 18.23 0 0 0 259.349618662663 126.980701347742 L259.35 126.98 L259.955725029638 127.378150585144 A18.94 18.94 0 0 1 235.517091274095 137.972877494049 L235.51 137.97 L231.61 147.07 L233.034465071156 149.666272108374 A0.76 0.76 0 0 0 233.762786759576 150.199994890753 L233.76 150.2 L234.862168493612 150.284292874779 A0.79 0.79 0 0 1 234.32742295028 151.767997003251 L234.328189491321 151.768910647011 A2.63 2.63 0 0 1 234.687207656143 153.564019795263 L234.687593593861 153.566228175368 A56.74 56.74 0 0 1 230.594632858992 165.988693452154 L230.595574618597 165.981078220645 A41.37 41.37 0 0 1 217.011200622396 183.54390531549 L217.01 183.55 L217.737674459254 183.646422017524 A5.42 5.42 0 0 1 216.510770071865 185.692186799663 L216.513209526541 185.692106741719 A7.69 7.69 0 0 1 214.213447204681 191.701105810517 L214.215115955836 191.698698120118 A3.76 3.76 0 0 1 211.070450917391 192.879766237646 L211.077901602657 192.880063806346 A2.18 2.18 0 0 1 209.327634237226 192.250619308532 L209.325162813822 192.251904058423 A45.75 45.75 0 0 1 205.696839768712 187.820450165298 L205.697612569089 187.81632499057 A1.54 1.54 0 0 1 206.18137500115 185.943987009984 L206.177445193352 185.936599736344 A1.32 1.32 0 0 0 206.852890138006 185.583755155308 L206.855873386949 185.591324842996 A2.87 2.87 0 0 1 208.11936412552 184.291898572067 L208.120239574722 184.291902329772 A6.06 6.06 0 0 1 208.120239574722 182.208097670228 L208.112548833358 182.205888543561 A0.43 0.43 0 0 1 208.749620413587 182.012953704133 L208.75 182.02 L208.98 182.14 L209.41 181.42 L209.99 181.42 L209.986315356562 180.774911546243 A1.56 1.56 0 0 0 211.002198901266 179.465815823676 L211.003932384388 179.464515801304 A0.39 0.39 0 0 1 210.980021396994 179.325914758622 L210.980014813254 179.327171760681 A0.27 0.27 0 0 1 211.352329646307 179.080142753784 L211.35908893231 179.072967925815 A0.71 0.71 0 0 1 211.65459988762 179.299503813142 L211.649058051401 179.299916090919 A115.99 115.99 0 0 0 212.720866143776 180.453006851419 L212.722490565189 180.466804244012 A0.64 0.64 0 1 0 213.431574509605 179.402589418644 L213.43 179.4 L212.206287657059 177.975927814724 A30.22 30.22 0 0 1 214.432350698943 164.260503143905 L214.43659032335 164.254725068884 A30.53 30.53 0 0 0 207.41353633024 156.209483244381 L207.412808962252 156.212868903885 A0.7 0.7 0 0 0 206.895146454819 156.0104413525 L206.9 156.01 L205.222251219978 156.092567141545 A2.18 2.18 0 0 1 203.258172055271 155.470885752141 L203.260014196901 155.471110700763 A32.31 32.31 0 0 0 201.454592232913 153.689448412524 L201.45732909554 153.69379731509 A0.93 0.93 0 0 1 201.525286568197 153.059934777422 L201.527354756049 153.050772465378 A38.11 38.11 0 0 0 197.596924965516 153.279166525054 L197.6 153.29 L192.502290862508 136.803188643462 A18.93 18.93 0 0 1 174.87669698415 136.476447542526 L174.88 136.47 L175.279832240261 135.887720907742 A18.22 18.22 0 0 0 192.289991195669 136.11480958211 L192.29 136.11 L192.034429221931 135.290157371851 A17.37 17.37 0 1 1 201.369366939669 119.741702612534 L201.38 119.74 L202.21939614965 119.741662742036 A18.22 18.22 0 0 0 202.189486873024 118.835975666266 L202.19 118.84 L202.90063832813 118.83606888782 A18.93 18.93 0 0 1 193.460033548218 136.286727273044 Z M186.108489227313 121.495233060433 A2.65 2.65 0 0 0 186.551989246471 120.604038434466 L186.55 120.6 L199.813916175828 120.603410950204 A15.83 15.83 0 0 1 192.51719332829 133.233399784483 L192.52 133.23 L191.400389381455 129.600033147475 A18.45 18.45 0 0 0 187.39517773781 122.743624466469 L187.39 122.74 Z M185.3 122.2 L186.627996862301 123.490057933457 A17.38 17.38 0 0 1 190.380001906063 129.922141164526 L190.38 129.92 L191.572261755049 133.791429851387 A15.83 15.83 0 1 1 199.829305062731 119.74167188059 L199.83 119.74 L186.645838229116 119.741541031431 A2.65 2.65 0 1 0 185.299949483947 122.199249085566 Z M230.55 147.39 L231.71 149.52 L229.3 147.39 Z M234.66 136.83 L235.001064468752 136.044764240703 A17.37 17.37 0 0 1 225.013835851788 120.685024351744 L225.01 120.68 L224.153572588127 120.680893058547 A18.23 18.23 0 0 0 234.662015996645 136.835617545946 Z M240.44 123.34 L235.608373371495 134.628527974747 A15.83 15.83 0 0 1 226.554378958188 120.692315244054 L226.55 120.69 L238.815841721907 120.749971823144 A3.59 3.59 0 0 0 240.447336419986 123.345377908045 Z M202.21 120.6 L201.355349488684 120.603263012956 A17.37 17.37 0 0 1 192.986166613372 134.754915391509 L192.99 134.76 L193.245282680152 135.590100259683 A18.22 18.22 0 0 0 202.206026005117 120.603454344024 Z M214.15 144.44 L211.64 140.49 L210.06 142.36 Z M238.808223828196 119.958731431576 A3.59 3.59 0 1 1 245.662380990719 121.773985911819 L245.66 121.77 L256.237927643518 127.971584242954 A15.83 15.83 0 1 0 226.557898339611 119.82000095167 L226.56 119.82 Z M257.73 130.14 L256.995173248506 129.706885048628 A17.37 17.37 0 0 1 236.136336947229 136.529058321922 L236.13 136.52 L235.797105212599 137.319952829876 A18.23 18.23 0 0 0 257.734343682819 130.147361297412 Z M255.67 128.91 L245.126257305866 122.632178801472 A3.59 3.59 0 0 1 241.585107828694 123.820892234273 L241.58 123.82 L236.743723382611 135.112609164453 A15.83 15.83 0 0 0 255.671506149934 128.917951166777 Z M210.71 130.87 L200.833987929055 142.857752477348 A2.86 2.86 0 0 0 200.580645477345 146.166571170771 L200.58 146.17 L196.51 146.17 L195.58 143.13 L210.71 127.57 Z M218.010536999797 131.12056752801 A7.09 7.09 0 0 0 219.25718373438 136.394056589143 L219.25 136.4 L228.51 146.38 L230.04 146.45 L218.32 124.91 Z M223.44 120.67 L221.507588734364 120.663835757678 A5.05 5.05 0 0 1 219.321311097279 124.478036111472 L219.32 124.48 L230.86 145.69 L234.382083119406 137.488486408857 A18.94 18.94 0 0 1 223.443374491281 120.677511318053 Z M217.174982595153 154.67578743363 A1.37 1.37 0 0 1 217.881717719248 155.539497197478 L217.876872548583 155.539977061277 A1.33 1.33 0 0 0 218.031803194678 155.894323766786 L218.040967670649 155.892983188215 A0.27 0.27 0 0 0 218.130832664782 155.981370812352 L218.130075618105 155.979544229586 A4.54 4.54 0 0 1 219.006683501244 156.666166787608 L219.010672962027 156.663204261082 A1.37 1.37 0 0 1 219.344447489375 157.211291572256 L219.336526238743 157.218617049958 A11.84 11.84 0 0 0 219.634697153094 158.04165818346 L219.638502234887 158.03800668022 A1.4 1.4 0 0 1 219.865086933062 159.268253966503 L219.868541042919 159.272391884894 A4.68 4.68 0 0 0 219.544521637465 161.388390619745 L219.542041475834 161.388691442958 A2.55 2.55 0 0 0 218.735006289377 159.721242879392 L218.73 159.72 L212.623303437299 154.564276347414 A5.72 5.72 0 0 0 210.270851184 153.001566727284 L210.266755015006 152.997097664006 A18.85 18.85 0 0 0 208.116437219756 152.482253021667 L208.12 152.48 L208.12 153.06 L206.76 152.91 L206.33 151.66 L204.84 152.19 L204.599213616905 151.663888096821 A0.45 0.45 0 0 0 203.899819678757 151.794194969716 L203.905818202888 151.793567529264 A0.51 0.51 0 0 0 203.237842096977 151.137585626482 L203.241583098327 151.131680604775 A3.69 3.69 0 0 1 202.308851790694 151.546553401346 L202.306965291036 151.547410540971 A14.95 14.95 0 0 0 198.261416350692 151.811762298109 L198.26 151.81 L196.85 147.24 L201.8 147.24 Z" style="fill:rgb(0,0,0);" />
</g>
</svg>
