<?xml version="1.0" encoding="UTF-8"?>
<!DOCTYPE svg PUBLIC '-//W3C//DTD SVG 1.0//EN' 'http://www.w3.org/TR/2001/REC-SVG-20010904/DTD/svg10.dtd'>
<svg xmlns:xlink="http://www.w3.org/1999/xlink" xmlns="http://www.w3.org/2000/svg" width="600.000000071713" height="400">
<!--Gegenereerd door de SIMaD-toepassing (http://www.dlw.be).-->
<g style="stroke:none;fill-rule:evenodd;" transform="matrix(1,0,0,-1,0,400)">
<path d=" M0 45 L0 355 A45 45 0 0 0 45.0000015707963 400 L555 400 A45 45 0 0 0 600 354.999998429204 L600 45 A45 45 0 0 0 555.000001570796 2.8421709430404E-14 L45 0 A45 45 0 0 0 2.8421709430404E-14 45.0000015707963 Z" style="fill:rgb(0,0,255);" />
<path d=" M15 45 L15 355 A30 30 0 0 0 45.0000010471975 385 L555 385 A30 30 0 0 0 585 354.999998952802 L585 45 A30 30 0 0 0 555.000001047198 15 L45 15 A30 30 0 0 0 15 45.0000010471975 Z" style="fill:rgb(255,255,255);" />
<path d=" M30 45 L30 355 A15 15 0 0 0 45.0000005235988 370 L555 370 A15 15 0 0 0 570 354.999999476401 L570 45 A15 15 0 0 0 555.000000523599 30 L45 30 A15 15 0 0 0 30 45.0000005235988 Z" style="fill:rgb(0,0,255);" />
<path d=" M369.97 294.52 L251.53 89.38 L251.534552424482 89.3849828260357 A19.59 19.59 0 0 1 268.50000410292 60.0000000000004 L505.37 60 L505.37026053542 60.0000000017325 A19.59 19.59 0 0 1 522.335315255032 89.3852120088015 L522.33 89.38 L403.9 294.52 L403.895431676709 294.515010363594 A19.59 19.59 0 0 1 369.964564391323 294.515003553233 Z" style="fill:rgb(255,0,0);" />
<path d=" M290 240 L290 277.5 L240 277.5 A155 155 0 0 1 85.0000000000001 122.499994589479 L85 60 L60 60 L60 122.5 A180 180 0 0 0 240.000006283185 302.5 L290 302.5 L290 340 L340 290 L290 240 Z" style="fill:rgb(255,255,255);" />
<path d=" M486.51 90.47 L386.93 262.96 L287.35 90.47 L486.51 90.47 Z" style="fill:rgb(255,255,255);" />
<path d=" M443.31 104.4 L443.31 107.45 L315.32 107.45 L315.32 104.4 L443.31 104.4 Z" style="fill:rgb(0,0,0);" />
<path d=" M323.84 127.89 L323.84 123.2 L318.37 123.2 L318.37 116.59 L327.62 116.59 L327.619439835909 116.595707042394 A10.67 10.67 0 0 1 348.740560855792 116.595711834624 L348.73 116.59 L355.04 116.59 L355.039439835909 116.595707042394 A10.67 10.67 0 0 1 376.160560855793 116.595711834624 L376.16 116.59 L382.47 116.59 L382.469439835909 116.595707042394 A10.67 10.67 0 0 1 403.590560855792 116.595711834624 L403.58 116.59 L409.9 116.59 L409.889439835909 116.595707042394 A10.67 10.67 0 0 1 431.010560855792 116.595711834624 L431.01 116.59 L440.23 116.59 L440.23 123.4 L435.14 123.4 L435.14 156.21 L440.26 156.21 L440.26 159.94 L412.83 159.94 L408.92 151.11 L396.81 151.11 L396.81 154.42 L384.79 154.42 L384.79 151.11 L375.3 151.11 L375.302070518594 151.112670564943 A6.96 6.96 0 1 1 361.998241576065 151.111656798873 L361.99 151.11 L349.59 151.11 L349.59 156.23 L349.579388224535 156.232080320759 A1.98 1.98 0 0 1 349.283003361376 159.93691043753 L349.29 159.94 L349.19 165.11 L349.187755071335 165.102530016437 A14.78 14.78 0 0 1 356.379512894123 176.716766427532 L356.378377417681 176.716573932912 A21.88 21.88 0 0 1 369.178011013486 184.413134551524 L369.178631375766 184.411070573284 A24.7 24.7 0 0 1 381.375608044611 194.80869932583 L381.371824092352 194.813246561062 A7.06 7.06 0 0 1 386.627737866713 202.978202313399 L386.638780621501 202.978780805185 A14.15 14.15 0 0 1 387.673504445671 212.506201356338 L387.669551364723 212.500832688854 A8.39 8.39 0 1 1 373.781572318134 214.206256720048 L373.785545168684 214.212212950658 A15.07 15.07 0 0 1 367.131044288071 200.723195420652 L367.131649310401 200.715681121313 A35.71 35.71 0 0 1 354.943588989082 188.001497340492 L354.930904383827 188.000704147805 A19.34 19.34 0 0 1 346.64029246358 175.812546225043 L346.640996331326 175.814466712688 A13.59 13.59 0 0 1 340.846725547166 171.612968716431 L340.852585630438 171.613235940365 A5.16 5.16 0 0 1 339.73000294407 168.405512059398 L339.73 168.41 L339.73 159.95 L339.73345833877 159.94314514375 A2.14 2.14 0 0 1 339.435140416075 156.224637903215 L339.43 156.23 L339.43 151.11 L330.16 151.11 L330.160678532329 151.099999848551 A1.52 1.52 0 0 1 328.702241657474 150.010512037921 L328.7 150.02 L325.06 137.68 L325.064608420217 137.688162959167 A2.42 2.42 0 0 1 325.47452650905 135.036450364049 L325.47 135.03 L328.94 133.6 L327.31 127.89 L323.84 127.89 Z" style="fill:rgb(0,0,0);" />
<path d=" M412.56 146.05 L423.28 146.05 L422.7 156.21 L414.34 156.21 L412.56 146.05 Z" style="fill:rgb(255,255,255);" />
<path d=" M425.02 146.05 L431.66 146.05 L431.66 156.21 L425.02 156.21 L425.02 146.05 Z" style="fill:rgb(255,255,255);" />
</g>
</svg>
