<?xml version="1.0" encoding="UTF-8"?>
<!DOCTYPE svg PUBLIC '-//W3C//DTD SVG 1.0//EN' 'http://www.w3.org/TR/2001/REC-SVG-20010904/DTD/svg10.dtd'>
<svg xmlns:xlink="http://www.w3.org/1999/xlink" xmlns="http://www.w3.org/2000/svg" width="400.000000002977" height="600.000000000025">
<!--Gegenereerd door de SIMaD-toepassing (http://www.dlw.be).-->
<g style="stroke:none;fill-rule:evenodd;" transform="matrix(1,0,0,-1,0,600.000000000025)">
<path d=" M45 0 L354.999966227879 1.26760824059602E-11 A45 45 0 0 1 399.999999999987 45.000033772121 L399.999999999888 554.999899469035 A45 45 0 0 1 355.000033772121 599.999999999987 L45.000033772121 599.999999999987 A45 45 0 0 1 1.26760824059602E-11 554.999966227879 L1.26760824059602E-11 45.000033772121 A45 45 0 0 1 45.000033772121 1.26760824059602E-11 Z" style="fill:rgb(0,0,255);" />
<path d=" M45 15 L354.999977485253 15.0000000000084 A30 30 0 0 1 384.999999999992 45.0000225147473 L384.999999999925 554.999932979357 A30 30 0 0 1 355.000022514747 584.999999999992 L45.0000225147474 584.999999999992 A30 30 0 0 1 15.0000000000084 554.999977485253 L15.0000000000084 45.0000225147474 A30 30 0 0 1 45.0000225147474 15.0000000000084 Z" style="fill:rgb(255,255,255);" />
<path d=" M45 30 L354.999988742626 30.0000000000042 A15 15 0 0 1 369.999999999996 45.0000112573737 L369.999999999963 554.999966489678 A15 15 0 0 1 355.000011257374 569.999999999996 L45.0000112573737 569.999999999996 A15 15 0 0 1 30.0000000000042 554.999988742626 L30.0000000000042 45.0000112573737 A15 15 0 0 1 45.0000112573737 30.0000000000042 Z" style="fill:rgb(0,0,255);" />
<path d=" M182.89 546.42 L178.078397591244 538.423329163243 A5.45 5.45 0 0 0 174.437283694587 535.454209153521 L174.437824771929 535.461064494386 A38.56 38.56 0 0 0 171.811371175656 534.918614499293 L171.813595569587 534.915914732719 A0.99 0.99 0 0 1 171.69590387118 532.991638576497 L171.6887755647 532.986229733933 A47.12 47.12 0 0 1 175.287225352372 531.411726288124 L175.29051996729 531.408798048467 A1.68 1.68 0 0 0 176.079957224966 530.324609791806 L176.082009106363 530.328633211992 A14.6 14.6 0 0 0 176.192096473557 524.535083832913 L176.19521903789 524.538539606527 A6.71 6.71 0 0 0 174.311488423097 521.458218897641 L174.309676301036 521.453002288432 A0.25 0.25 0 0 1 174.311386669165 521.085420627737 L174.312067753724 521.086917443567 A7.44 7.44 0 0 1 175.614014710388 520.134454768804 L175.609006333891 520.131628680821 A4.53 4.53 0 0 0 176.05835763623 516.887271391449 L176.056494453577 516.893109279774 A17 17 0 0 1 175.613070728453 513.646508757216 L175.612923315888 513.643248167209 A3.09 3.09 0 0 1 177.394877110123 510.310857564168 L177.39944062713 510.317549829215 A53.48 53.48 0 0 0 186.341559818989 509.300800647631 L186.340189194048 509.289636403133 A2.22 2.22 0 0 0 187.45561567503 505.566223011144 L187.46 505.57 L173.07 497.02 L170.47 463.51 L147.35 435.2 L157.18 426.53 L183.18 453.69 L182.6 422.2 L187.8 422.2 L181.73 392.73 L185.78 388.98 L191.84 329.76 L197.62 330.33 L195.546909535171 325.254598759778 A9.68 9.68 0 0 0 186.442309127075 319.70624627888 L186.444124771708 319.710828801489 A140.76 140.76 0 0 0 182.023792318618 319.939339619969 L182.021956471485 319.94127767884 A1.12 1.12 0 0 1 180.806128908597 318.226863200824 L180.805714080349 318.228540672797 A1.86 1.86 0 0 1 181.873398117922 317.479477108271 L181.88 317.48 L180.72 317.48 L180.72 298.41 L145.19 298.41 L145.19 279.35 L75 279.35 L75 260.28 L162.52 260.28 L162.52 279.35 L199.5 279.35 L199.5 298.41 L235.03 298.41 L235.03 317.48 L270.56 317.48 L270.56 336.55 L325 336.55 L325 355.47 L253.09 355.47 L253.09 336.4 L228.530903285083 336.405715667792 A72.85 72.85 0 0 0 232.033879271713 343.050451639613 L232.036217813571 343.040791075309 A3.6 3.6 0 0 0 233.626325887857 344.470927110847 L233.625641357606 344.47991932479 A2.08 2.08 0 0 0 236.62724763725 343.625735065988 L236.62 343.62 L242.69 349.69 L207.44 393.6 L221.31 423.93 L225.93 424.22 L220.73 474.78 L228.24 467.84 L232.58 434.91 L244.71 436.93 L239.8 476.22 L216.69 503.96 L203.980434367442 504.825540245378 A8.25 8.25 0 0 0 199.071996083949 513.487543998676 L199.07 513.49 L204.381954193658 527.689719108385 A5.08 5.08 0 0 0 205.424148258313 529.37393502159 L205.42 529.38 L208.89 529.37 A1.94 1.94 0 0 1 210.482916431274 530.202653061151 L210.477020313156 530.203457197129 A1.93 1.93 0 0 1 209.46572093213 531.684279787213 L209.466628206217 531.690209433939 A12.99 12.99 0 0 0 205.85667706381 533.31467060432 L205.851164469506 533.317980488766 A2.22 2.22 0 0 0 204.840095267108 535.159433598183 L204.84 535.15 L206.58 544.4 Z M210.04 331.49 L206.283729044655 331.200840532328 A20 20 0 0 0 207.72812303301 319.645607761178 L207.73 319.65 L203.106098849102 318.202489865234 A6.19 6.19 0 0 1 194.442004282218 317.48050074255 L194.44 317.48 L216.25 317.48 L216.257406036529 336.54909036378 A1.22 1.22 0 0 0 215.423619308474 338.043308627482 L215.414691925983 338.051258881706 A1.25 1.25 0 0 0 216.240446814458 338.910982526885 L216.238111176101 338.906580352664 A235.01 235.01 0 0 0 220.404644429178 339.367309955902 L220.409236419 339.360234129594 A11.77 11.77 0 0 1 223.623241916345 340.154673132419 L223.620724666681 340.156989940564 A10 10 0 0 0 228.818401325622 349.397276465037 L228.82 349.4 L227.09 350.85 L223.91 348.82 L206.87 365.29 Z" style="fill:rgb(255,255,255);" />
<path d=" M60 211.5 L256 211.5 L256 244 L340 194 L256 144 L256 176.5 L60 176.5 Z" style="fill:rgb(255,255,255);" />
</g>
</svg>
