<?xml version="1.0" encoding="UTF-8"?>
<!DOCTYPE svg PUBLIC '-//W3C//DTD SVG 1.0//EN' 'http://www.w3.org/TR/2001/REC-SVG-20010904/DTD/svg10.dtd'>
<svg xmlns:xlink="http://www.w3.org/1999/xlink" xmlns="http://www.w3.org/2000/svg" width="400.000000002978" height="600.000000000025">
<!--Gegenereerd door de SIMaD-toepassing (http://www.dlw.be).-->
<g style="stroke:none;fill-rule:evenodd;" transform="matrix(1,0,0,-1,0,600.000000000025)">
<path d=" M45 0 L354.999966227879 1.26760824059602E-11 A45 45 0 0 1 399.999999999987 45.000033772121 L399.999999999888 554.999899469035 A45 45 0 0 1 355.000033772121 599.999999999987 L45.000033772121 599.999999999987 A45 45 0 0 1 1.26760824059602E-11 554.999966227879 L1.26760824059602E-11 45.000033772121 A45 45 0 0 1 45.000033772121 1.26760824059602E-11 Z" style="fill:rgb(0,0,255);" />
<path d=" M45 15 L354.999977485253 15.0000000000084 A30 30 0 0 1 384.999999999992 45.0000225147473 L384.999999999925 554.999932979357 A30 30 0 0 1 355.000022514747 584.999999999992 L45.0000225147474 584.999999999992 A30 30 0 0 1 15.0000000000084 554.999977485253 L15.0000000000084 45.0000225147474 A30 30 0 0 1 45.0000225147474 15.0000000000084 Z" style="fill:rgb(255,255,255);" />
<path d=" M45 30 L354.999988742626 30.0000000000042 A15 15 0 0 1 369.999999999996 45.0000112573737 L369.999999999963 554.999966489678 A15 15 0 0 1 355.000011257374 569.999999999996 L45.0000112573737 569.999999999996 A15 15 0 0 1 30.0000000000042 554.999988742626 L30.0000000000042 45.0000112573737 A15 15 0 0 1 45.0000112573737 30.0000000000042 Z" style="fill:rgb(0,0,255);" />
<path d=" M166.68 521.74 L166.719986409204 512.497373126724 A2 2 0 0 0 166.177192536515 511.120113175651 L166.182287749702 511.123080592433 A5.85 5.85 0 0 0 163.111659207892 509.402657830001 L163.107595719582 509.412404616952 A2.27 2.27 0 0 1 161.302662653493 507.299915227047 L161.308887391542 507.288929465234 A3.94 3.94 0 0 1 164.413653733439 506.712685443606 L164.403787767655 506.719535502383 A2.32 2.32 0 0 0 167.177371523287 505.035952460119 L167.18 505.03 L172.502232418063 490.830003646151 A5.42 5.42 0 0 0 166.456645107958 483.860827051539 L166.447363847217 483.857195009597 A17.05 17.05 0 0 1 157.703491603691 482.990713864141 L157.71 483 L136.3 453 L124.59 414.84 L134.45 412.25 L143.89 443.49 L147.43 447.59 L144.5 402.7 L147.99 401.28 L147.69 312.03 L151.23277468808 310.474627411108 A17.69 17.69 0 0 1 150.686372851141 298.409920995069 L150.68 298.41 L145.19 298.41 L145.19 279.35 L75 279.35 L75 260.28 L162.52 260.28 L162.52 279.35 L199.5 279.35 L199.5 298.41 L235.03 298.41 L235.03 317.48 L270.56 317.48 L270.56 336.55 L325 336.55 L325 355.47 L253.09 355.47 L253.09 336.55 L216.25 336.55 L216.25 317.48 L207.268560191506 317.477391084498 A3.04 3.04 0 0 1 208.311266021935 318.793114805215 L208.313870284728 318.786862023729 A1.12 1.12 0 0 1 207.098044623083 320.501277974385 L207.102509372133 320.500105077942 A13.12 13.12 0 0 0 198.404261648323 323.751585317067 L198.40690615001 323.758017059837 A18.23 18.23 0 0 0 193.20468656386 331.472843732614 L193.2 331.47 L197.84 332.02 L200.03 379.14 L180.36 402.38 L185.56 402.38 L187.25 451.99 L194.28 433.4 L213.25 408.41 L220.81 414.24 L206.19 436.32 L196.23 474.36 L184.335858642085 482.744295528259 A2.16 2.16 0 0 0 185.216736040026 486.639234438803 L185.222023165304 486.628864652837 A45.43 45.43 0 0 0 194.162668761261 487.645529263754 L194.165008589531 487.650806273345 A3.09 3.09 0 0 1 195.947073217346 490.983268748445 L195.938776365656 490.984845065724 A50.3 50.3 0 0 0 195.438093464032 494.880295810133 L195.445222589681 494.877456447253 A2.53 2.53 0 0 0 196.677796810181 498.007492386071 L196.680307882156 498.013425720284 A2.26 2.26 0 0 1 197.255623906938 498.429504967953 L197.253567352126 498.43587225295 A0.26 0.26 0 0 1 197.255264929702 498.802419587277 L197.252026928682 498.804126924555 A6.45 6.45 0 0 0 195.262002716213 502.46447223004 L195.257729131743 502.462996824332 A12.46 12.46 0 0 0 195.475474214062 507.674292465461 L195.478083307437 507.667396146265 A1.83 1.83 0 0 0 196.270625332181 508.755873623565 L196.271533759423 508.755409381354 A54.72 54.72 0 0 0 199.555459525999 510.144510650219 L199.556237482957 510.141541466164 A1.52 1.52 0 0 1 200.528322069285 511.488599062168 L200.521691191373 511.485729751699 A1.46 1.46 0 0 1 199.361685139553 512.358651272759 L199.360999631784 512.356149088235 A8.51 8.51 0 0 0 198.047171372558 512.627498283586 L198.051945276361 512.631461116628 A4.77 4.77 0 0 0 194.399617376004 514.478165838267 L194.4 514.48 L188.67 523.76 Z M164.82 312.74 L159.155091417748 311.046170507239 A10.56 10.56 0 0 1 163.545125219442 305.310797859955 L163.552906196183 305.307434112176 A17.66 17.66 0 0 1 171.028554708924 302.647228553351 L171.018848726878 302.649435370575 A2.84 2.84 0 0 0 173.928226489661 301.042358320714 L173.933394847186 301.042429344098 A1.95 1.95 0 0 0 172.920889860295 298.410371033322 L172.92 298.41 L180.72 298.41 L180.72 317.48 L195.287841808842 317.480687445058 A17.5 17.5 0 0 1 190.971881597084 320.208600420441 L190.974543103825 320.206243649441 A4.62 4.62 0 0 1 186.581317649476 320.182388015414 L186.58 320.18 L183.660465681625 323.041209160532 A14.45 14.45 0 0 0 185.671225597312 331.197593812273 L185.67 331.2 L182.48 333.19 L182.26 368.12 L169.35 381.85 Z" style="fill:rgb(255,255,255);" />
<path d=" M340 211.5 L144 211.5 L144 244 L60 194 L144 144 L144 176.5 L340 176.5 Z" style="fill:rgb(255,255,255);" />
</g>
</svg>
