<?xml version="1.0" encoding="UTF-8"?>
<!DOCTYPE svg PUBLIC '-//W3C//DTD SVG 1.0//EN' 'http://www.w3.org/TR/2001/REC-SVG-20010904/DTD/svg10.dtd'>
<svg xmlns:xlink="http://www.w3.org/1999/xlink" xmlns="http://www.w3.org/2000/svg" width="900" height="900">
<!--Gegenereerd door de SIMaD-toepassing (http://www.dlw.be).-->
<g style="stroke:none;fill-rule:evenodd;" transform="matrix(1,0,0,-1,0,900)">
<path d=" M65 0 L834.999995462144 1.56319401867222E-13 A65 65 0 0 1 900 65.0000045378561 L899.999999999999 834.999987520896 A65 65 0 0 1 835.000004537856 900 L65.0000045378561 900 A65 65 0 0 1 1.56319401867222E-13 834.999995462144 L1.56319401867222E-13 65.0000045378561 A65 65 0 0 1 65.0000045378561 1.56319401867222E-13 Z" style="fill:rgb(0,255,0);" />
<path d=" M65 15 L834.999996509341 15.0000000000001 A50 50 0 0 1 885 65.0000034906585 L884.999999999999 834.999990400689 A50 50 0 0 1 835.000003490659 885 L65.0000034906585 885 A50 50 0 0 1 15.0000000000001 834.999996509341 L15.0000000000001 65.0000034906585 A50 50 0 0 1 65.0000034906585 15.0000000000001 Z" style="fill:rgb(255,255,255);" />
<path d=" M65 30 L834.999997556539 30.0000000000001 A35 35 0 0 1 870 65.000002443461 L869.999999999999 834.999993280482 A35 35 0 0 1 835.000002443461 870 L65.000002443461 870 A35 35 0 0 1 30.0000000000001 834.999997556539 L30.0000000000001 65.000002443461 A35 35 0 0 1 65.000002443461 30.0000000000001 Z" style="fill:rgb(0,255,0);" />
<path d=" M295.71 784.29 L77.14 784.29 L77.14 115.71 L295.71 115.71 Z" style="fill:rgb(255,255,255);" />
<path d=" M563.48 716.39 A55.04 55.04 0 0 1 453.4 716.39 A55.04 55.04 0 0 1 563.48 716.39 Z" style="fill:rgb(255,255,255);" />
<path d=" M470.979257883885 256.523249928698 A746.88 746.88 0 0 0 509.745312307979 370.10315235182 L509.73751554255 370.107306342433 A503.98 503.98 0 0 0 561.871458702851 462.307966021257 L561.87 462.3 L512.41 527.78 L454.26 462.97 L357.35 462.97 A31.5 31.5 0 0 0 357.35 525.97 L357.35 525.98 L424.22 525.98 L525.817467353669 636.216082869727 A47.45 47.45 0 0 0 553.22273866517 650.91555909072 L553.22 650.91 L664.0899949834 650.91 A95.81 95.81 0 0 0 740.093237565703 613.435786439641 L740.1 613.44 L776.464364231508 566.060840405557 A32.34 32.34 0 0 0 725.155635768492 526.679159594443 L725.15 526.68 L681.826056685337 583.147965139405 A38.33 38.33 0 0 1 651.420002006954 598.14 L651.42 598.13 L632.09 598.13 L663.498387922343 524.643171196834 A227.16 227.16 0 0 0 679.539692408563 467.184480621641 L679.54 467.18 L690.190287861417 359.422112594585 A22.76 22.76 0 0 1 712.840000794474 338.9 L796.51 338.9 A32.07 32.07 0 0 0 796.51 274.76 L686.719995819587 274.77 A59.88 59.88 0 0 0 627.490153249805 325.850019662045 L627.49 325.85 L616.72 398.36 L569.574466458204 332.005624713054 A119.77 119.77 0 0 1 550.878125905577 291.100329210703 L550.88 291.1 L517.538532159567 154.714707778409 A34.29 34.29 0 1 0 450.921467840433 171.005292221591 L450.917330339901 171.002853369087 A4610.09 4610.09 0 0 1 470.968823234962 256.52221197184 Z" style="fill:rgb(255,255,255);" />
</g>
</svg>
