<?xml version="1.0" encoding="UTF-8"?>
<!DOCTYPE svg PUBLIC '-//W3C//DTD SVG 1.0//EN' 'http://www.w3.org/TR/2001/REC-SVG-20010904/DTD/svg10.dtd'>
<svg xmlns:xlink="http://www.w3.org/1999/xlink" xmlns="http://www.w3.org/2000/svg" width="749.999999999999" height="250">
<!--Gegenereerd door de SIMaD-toepassing (http://www.dlw.be).-->
<g style="stroke:none;fill-rule:evenodd;" transform="matrix(1,0,0,-1,0,250)">
<path d=" M25 0 L725 0 A25 25 0 0 1 750 25.0000017453293 L750 225 A25 25 0 0 1 725.000001745329 250 L25 250 A25 25 0 0 1 6.03961325396085E-14 224.999998254671 L0 25 A25 25 0 0 1 25.0000017453293 6.03961325396085E-14 Z" style="fill:rgb(0,255,0);" />
<path d=" M141.61 207.89 A17.11 17.11 0 0 1 107.39 207.89 A17.11 17.11 0 0 1 141.61 207.89 Z" style="fill:rgb(255,255,255);" />
<path d=" M136.153051536128 64.9310596251583 A232.23 232.23 0 0 1 124.10287064144 100.248047330531 L124.110225436184 100.245816181396 A156.67 156.67 0 0 1 107.891587591855 128.901036696966 L107.89 128.9 L123.26 149.26 L141.35 129.11 L171.48 129.11 L171.48 129.12 A9.79 9.79 0 0 1 171.48 148.7 L150.69 148.7 L119.1 182.96 L119.094200071772 182.96962969277 A14.73 14.73 0 0 1 110.587841598679 187.534897850843 L110.59 187.54 L76.11 187.54 L76.1085415561028 187.539999964287 A29.78 29.78 0 0 1 52.4855187130646 175.89097581277 L52.49 175.89 L41.19 161.16 L41.1885598514223 161.150346555355 A10.05 10.05 0 0 1 57.1314401485777 148.909653444645 L57.14 148.91 L70.6 166.46 L70.6021493420968 166.46163553593 A11.91 11.91 0 0 0 80.0500002078687 171.12 L80.05 171.13 L86.06 171.13 L76.3 148.28 L76.3058100628763 148.279598655087 A70.64 70.64 0 0 1 71.3105125681557 130.413592986963 L71.31 130.41 L68 96.93 L68.0056925646209 96.9138561320778 A7.08 7.08 0 0 0 60.9600001235693 90.53 L60.96 90.54 L34.95 90.54 L34.95 90.55 A9.98 9.98 0 0 1 34.95 70.59 L34.95 70.6 L69.08 70.6 L69.0786782455779 70.6000000468877 A18.63 18.63 0 0 1 87.5075283308691 86.4908213612443 L87.5 86.49 L90.84 109.03 L105.5 88.4 L105.497580557852 88.3956853761634 A37.26 37.26 0 0 0 111.313694749412 75.6700881569849 L111.31 75.68 L121.68 33.29 L121.675134999432 33.2777340542473 A10.66 10.66 0 0 1 142.384865000568 38.3422659457527 L142.376802809249 38.3399058011909 A1432.9 1432.9 0 0 0 136.150409785654 64.9222817866647 Z" style="fill:rgb(255,255,255);" />
<path d=" M725.03 25 L650.03 25 L650.03 225 L725.03 225 L725.03 25 Z" style="fill:rgb(255,255,255);" />
<path d=" M228.14 184.38 L503.14 184.38 L503.14 225 L603.15 162.55 L503.14 100 L503.14 140.63 L228.15 140.59 L228.14 184.38 Z" style="fill:rgb(255,255,255);" />
</g>
</svg>
