<?xml version="1.0" encoding="UTF-8"?>
<!DOCTYPE svg PUBLIC '-//W3C//DTD SVG 1.0//EN' 'http://www.w3.org/TR/2001/REC-SVG-20010904/DTD/svg10.dtd'>
<svg xmlns:xlink="http://www.w3.org/1999/xlink" xmlns="http://www.w3.org/2000/svg" width="749.999999999999" height="250">
<!--Gegenereerd door de SIMaD-toepassing (http://www.dlw.be).-->
<g style="stroke:none;fill-rule:evenodd;" transform="matrix(1,0,0,-1,0,250)">
<path d=" M25 0 L725 0 A25 25 0 0 1 750 25.0000017453293 L750 225 A25 25 0 0 1 725.000001745329 250 L25 250 A25 25 0 0 1 6.03961325396085E-14 224.999998254671 L0 25 A25 25 0 0 1 25.0000017453293 6.03961325396085E-14 Z" style="fill:rgb(0,255,0);" />
<path d=" M608.39 207.89 A17.11 17.11 0 0 0 642.61 207.89 A17.11 17.11 0 0 0 608.39 207.89 Z" style="fill:rgb(255,255,255);" />
<path d=" M613.846948463872 64.9310596251583 A232.23 232.23 0 0 0 625.89712935856 100.248047330531 L625.889774563816 100.245816181396 A156.67 156.67 0 0 0 642.108412408145 128.901036696966 L642.11 128.9 L626.74 149.26 L608.65 129.11 L578.53 129.11 L578.53 129.12 A9.79 9.79 0 0 0 578.53 148.7 L599.31 148.7 L630.9 182.96 L630.905799928228 182.96962969277 A14.73 14.73 0 0 0 639.412158401321 187.534897850843 L639.41 187.54 L673.89 187.54 L673.891458443897 187.539999964287 A29.78 29.78 0 0 0 697.514481286935 175.89097581277 L697.51 175.89 L708.81 161.16 L708.811440041757 161.150346694483 A10.05 10.05 0 0 0 692.868559958243 148.909653305517 L692.86 148.91 L679.4 166.46 L679.397851037598 166.461635041241 A11.91 11.91 0 0 1 669.950000415737 171.12 L669.95 171.13 L663.94 171.13 L673.7 148.28 L673.694189937124 148.279598655087 A70.64 70.64 0 0 0 678.689487431844 130.413592986963 L678.69 130.41 L682 96.93 L681.994307459679 96.9138558861367 A7.08 7.08 0 0 1 689.040000123569 90.53 L689.04 90.54 L715.05 90.54 L715.05 90.55 A9.98 9.98 0 0 0 715.05 70.59 L715.05 70.6 L680.93 70.6 L680.921321754422 70.6000000468877 A18.63 18.63 0 0 0 662.492471669131 86.4908213612443 L662.5 86.49 L659.16 109.03 L644.5 88.4 L644.502419442148 88.3956853761634 A37.26 37.26 0 0 1 638.686305250588 75.6700881569849 L638.69 75.68 L628.33 33.29 L628.324865000568 33.2777340542473 A10.66 10.66 0 0 0 607.615134999432 38.3422659457527 L607.623197190751 38.3399058011907 A1432.9 1432.9 0 0 1 613.849590214346 64.9222817866643 Z" style="fill:rgb(255,255,255);" />
<path d=" M24.98 25 L99.98 25 L99.98 225 L24.98 225 L24.98 25 Z" style="fill:rgb(255,255,255);" />
<path d=" M521.86 184.38 L246.86 184.38 L246.86 225 L146.85 162.55 L246.86 100 L246.86 140.63 L521.85 140.59 L521.86 184.38 Z" style="fill:rgb(255,255,255);" />
</g>
</svg>
