<?xml version="1.0" encoding="UTF-8"?>
<!DOCTYPE svg PUBLIC '-//W3C//DTD SVG 1.0//EN' 'http://www.w3.org/TR/2001/REC-SVG-20010904/DTD/svg10.dtd'>
<svg xmlns:xlink="http://www.w3.org/1999/xlink" xmlns="http://www.w3.org/2000/svg" width="900.000000000011" height="899.999999999998">
<!--Gegenereerd door de SIMaD-toepassing (http://www.dlw.be).-->
<g style="stroke:none;fill-rule:evenodd;" transform="matrix(1,0,0,-1,0,899.999999999998)">
<path d=" M65 0 L834.999995462144 1.56319401867222E-13 A65 65 0 0 1 900 65.0000045378561 L899.999999999999 834.999987520896 A65 65 0 0 1 835.000004537856 900 L65.0000045378561 900 A65 65 0 0 1 1.56319401867222E-13 834.999995462144 L1.56319401867222E-13 65.0000045378561 A65 65 0 0 1 65.0000045378561 1.56319401867222E-13 Z" style="fill:rgb(0,255,0);" />
<path d=" M65 15 L834.999996509341 15.0000000000001 A50 50 0 0 1 885 65.0000034906585 L884.999999999999 834.999990400689 A50 50 0 0 1 835.000003490658 885 L65.0000034906585 885 A50 50 0 0 1 15.0000000000001 834.999996509341 L15.0000000000001 65.0000034906585 A50 50 0 0 1 65.0000034906585 15.0000000000001 Z" style="fill:rgb(255,255,255);" />
<path d=" M65 30 L834.999997556539 30.0000000000001 A35 35 0 0 1 870 65.000002443461 L869.999999999999 834.999993280482 A35 35 0 0 1 835.000002443461 870 L65.000002443461 870 A35 35 0 0 1 30.0000000000001 834.999997556539 L30.0000000000001 65.000002443461 A35 35 0 0 1 65.000002443461 30.0000000000001 Z" style="fill:rgb(0,255,0);" />
<path d=" M604.29 784.29 L822.86 784.29 L822.86 115.71 L604.29 115.71 Z" style="fill:rgb(255,255,255);" />
<path d=" M446.6 716.39 A55.04 55.04 0 0 1 336.52 716.39 A55.04 55.04 0 0 1 446.6 716.39 Z" style="fill:rgb(255,255,255);" />
<path d=" M429.020742116115 256.523249928698 A746.88 746.88 0 0 1 390.254687692021 370.10315235182 L390.26248445745 370.107306342433 A503.98 503.98 0 0 1 338.128541297149 462.307966021257 L338.13 462.3 L387.59 527.78 L445.74 462.97 L542.65 462.97 A31.5 31.5 0 0 1 542.65 525.97 L542.65 525.98 L475.78 525.98 L374.182532646331 636.216082869727 A47.45 47.45 0 0 1 346.77726133483 650.91555909072 L346.78 650.91 L235.9100050166 650.91 A95.81 95.81 0 0 1 159.906762434297 613.435786439641 L159.9 613.44 L123.535636112162 566.06084085331 A32.34 32.34 0 1 1 174.844363887838 526.67915914669 L174.85 526.68 L218.173945351285 583.147967792834 A38.33 38.33 0 0 0 248.580002006954 598.14 L248.58 598.13 L267.91 598.13 L236.501612077657 524.643171196834 A227.16 227.16 0 0 1 220.460307591436 467.184480621641 L220.46 467.18 L209.809712294817 359.422114175833 A22.76 22.76 0 0 0 187.160000794474 338.9 L103.49 338.9 A32.07 32.07 0 0 1 103.49 274.76 L213.280004180413 274.77 A59.88 59.88 0 0 1 272.509846750195 325.850019662045 L272.51 325.85 L283.28 398.36 L330.425533541796 332.005624713054 A119.77 119.77 0 0 0 349.121874094423 291.100329210703 L349.12 291.1 L382.461467840433 154.714707778409 A34.29 34.29 0 0 1 449.078532159567 171.005292221591 L449.0826696601 171.002853369086 A4610.09 4610.09 0 0 0 429.031176765037 256.522211971842 Z" style="fill:rgb(255,255,255);" />
</g>
</svg>
