<?xml version="1.0" encoding="UTF-8"?>
<!DOCTYPE svg PUBLIC '-//W3C//DTD SVG 1.0//EN' 'http://www.w3.org/TR/2001/REC-SVG-20010904/DTD/svg10.dtd'>
<svg xmlns:xlink="http://www.w3.org/1999/xlink" xmlns="http://www.w3.org/2000/svg" width="600.000000004298" height="900.000000000036">
<!--Gegenereerd door de SIMaD-toepassing (http://www.dlw.be).-->
<g style="stroke:none;fill-rule:evenodd;" transform="matrix(1,0,0,-1,0,900.000000000036)">
<path d=" M65 0 L534.999951218047 1.83035808731802E-11 A65 65 0 0 1 599.999999999982 65.0000487819526 L599.999999999838 834.999854788606 A65 65 0 0 1 535.000048781953 899.999999999982 L65.0000487819526 899.999999999982 A65 65 0 0 1 1.83035808731802E-11 834.999951218047 L1.83035808731802E-11 65.0000487819526 A65 65 0 0 1 65.0000487819526 1.83035808731802E-11 Z" style="fill:rgb(0,0,255);" />
<path d=" M65 15 L534.999962475421 15.0000000000141 A50 50 0 0 1 584.999999999986 65.0000375245789 L584.999999999875 834.999888298928 A50 50 0 0 1 535.000037524579 884.999999999986 L65.0000375245789 884.999999999986 A50 50 0 0 1 15.0000000000141 834.999962475421 L15.0000000000141 65.0000375245789 A50 50 0 0 1 65.0000375245789 15.0000000000141 Z" style="fill:rgb(255,255,255);" />
<path d=" M65 30 L534.999973732795 30.0000000000099 A35 35 0 0 1 569.99999999999 65.0000262672052 L569.999999999913 834.99992180925 A35 35 0 0 1 535.000026267205 869.99999999999 L65.0000262672052 869.99999999999 A35 35 0 0 1 30.0000000000099 834.999973732795 L30.0000000000099 65.0000262672052 A35 35 0 0 1 65.0000262672052 30.0000000000099 Z" style="fill:rgb(0,0,255);" />
<path d=" M152.5 695 L447.5 695 L447.5 205 L152.5 205 Z" style="fill:rgb(255,255,255);" />
<path d=" M375.77 624.11 L375.77 619.89 L346.01 619.89 L346.00474438843 591.414730016627 A55.35 55.35 0 0 0 375.91 542.259998067921 L375.91 247.09 L256.16 247.09 L256.17 542.26 A55.35 55.35 0 0 0 286.144220697358 591.450368211507 L286.14 591.45 L286.142240533799 620.12834757364 A127.59 127.59 0 0 1 249.626048577477 606.331155904207 L249.621509120066 606.335554220307 A77.72 77.72 0 0 1 234.228839112722 594.911688094806 L234.233616452534 594.907700444818 A36.16 36.16 0 0 1 223.972839782056 576.910440121665 L223.97 576.91 L217.58 549.33 L196.61 552.39 L203.423331273154 582.512491533372 A55.47 55.47 0 0 0 211.647827655786 601.462859364772 L211.642311997867 601.46579801623 A159.75 159.75 0 0 0 232.297393526525 626.108927428464 L232.302004384525 626.107412715426 A82.12 82.12 0 0 0 268.058257786185 646.531509371978 L268.052484721848 646.527309291805 A161.55 161.55 0 0 0 285.819627687593 650.301351803598 L285.82 650.3 L285.82 665.18 L339.34 665.18 L341.57 650.53 L375.77 650.53 L375.77 645.64 L420.41 645.64 L420.41 624.11 Z" style="fill:rgb(255,0,0);" />
</g>
</svg>
