<?xml version="1.0" encoding="UTF-8" standalone="no"?>
<svg
   xmlns:dc="http://purl.org/dc/elements/1.1/"
   xmlns:cc="http://creativecommons.org/ns#"
   xmlns:rdf="http://www.w3.org/1999/02/22-rdf-syntax-ns#"
   xmlns:svg="http://www.w3.org/2000/svg"
   xmlns="http://www.w3.org/2000/svg"
   xmlns:sodipodi="http://sodipodi.sourceforge.net/DTD/sodipodi-0.dtd"
   xmlns:inkscape="http://www.inkscape.org/namespaces/inkscape"
   width="1200"
   height="150"
   version="1.1"
   id="svg24"
   sodipodi:docname="F57-1200x150.svg"
   inkscape:version="0.92.4 (5da689c313, 2019-01-14)">
  <metadata
     id="metadata30">
    <rdf:RDF>
      <cc:Work
         rdf:about="">
        <dc:format>image/svg+xml</dc:format>
        <dc:type
           rdf:resource="http://purl.org/dc/dcmitype/StillImage" />
      </cc:Work>
    </rdf:RDF>
  </metadata>
  <defs
     id="defs28" />
  <sodipodi:namedview
     pagecolor="#ffffff"
     bordercolor="#666666"
     borderopacity="1"
     objecttolerance="10"
     gridtolerance="10"
     guidetolerance="10"
     inkscape:pageopacity="0"
     inkscape:pageshadow="2"
     inkscape:window-width="1920"
     inkscape:window-height="1014"
     id="namedview26"
     showgrid="false"
     inkscape:zoom="0.99230652"
     inkscape:cx="611.85349"
     inkscape:cy="224.42722"
     inkscape:window-x="-8"
     inkscape:window-y="-8"
     inkscape:window-maximized="1"
     inkscape:current-layer="g22" />
  <!--Gegenereerd door de SIMaD-toepassing (http://www.dlw.be).-->
  <g
     style="stroke:none;fill-rule:evenodd;"
     transform="matrix(1,0,0,-1,0,150)"
     id="g22">
    <path
       d=" M1200 75 L1200 104.99999136062 A45 45 0 0 1 1155.00000314159 150 L45.0000031415927 150 A45 45 0 0 1 1.06581410364015E-13 104.999996858407 L1.06581410364015E-13 45.0000031415927 A45 45 0 0 1 45.0000031415927 1.06581410364015E-13 L1154.99999685841 1.06581410364015E-13 A45 45 0 0 1 1200 45.0000031415927 L1200 75 Z"
       style="fill:rgb(255,255,255);stroke:rgb(0,0,0);"
       id="path2" />
    <path
       d=" M15 96.17 L14.9962344868379 82.78647238156 A101.44 101.44 0 0 1 31.8641175072238 79.522912334341 L31.8665790798347 79.5262145005901 A29.43 29.43 0 0 1 46.2946332710674 81.6177684647235 L46.3 81.61 L55.4554314545999 86.3146251719482 A48.12 48.12 0 0 0 102.182171650226 84.7597776916545 L102.19 84.76 L107.163560590178 81.5279468493053 A41.12 41.12 0 0 1 149.475863168571 80.0503686843001 L149.48 80.05 L154.678598492824 82.9260769174887 A45.3 45.3 0 0 0 199.227236391835 82.5613666019351 L199.22 82.56 L199.227236391835 95.9413666019351 A45.3 45.3 0 0 1 154.678598492824 96.3060769174887 L154.67 96.31 L149.475863168571 93.4303686843001 A41.12 41.12 0 0 0 107.163560590178 94.9079468493053 L107.16 94.91 L102.182171650226 98.1397776916545 A48.12 48.12 0 0 1 55.4554314545999 99.6946251719482 L55.46 99.69 L46.2946332710674 94.9977684647235 A29.43 29.43 0 0 0 31.8665790798347 92.9062145005901 L31.8641175072238 92.902912334341 A101.44 101.44 0 0 0 14.9962344868379 96.1664723815601 Z"
       style="fill:rgb(0,0,255);"
       id="path4" />
    <path
       d=" M15 66.27 L14.9962344868379 52.8864723815601 A101.44 101.44 0 0 1 31.8641175072238 49.622912334341 L31.8665790798347 49.6262145005901 A29.43 29.43 0 0 1 46.2946332710674 51.7177684647235 L46.3 51.72 L55.4554314545999 56.4146251719482 A48.12 48.12 0 0 0 102.182171650226 54.8597776916545 L102.19 54.86 L107.163560590178 51.6279468493053 A41.12 41.12 0 0 1 149.475863168571 50.1503686843001 L149.48 50.15 L154.678598492824 53.0260769174887 A45.3 45.3 0 0 0 199.227236391835 52.6613666019351 L199.22 52.66 L199.227236391835 66.0413666019351 A45.3 45.3 0 0 1 154.678598492824 66.4060769174887 L154.67 66.41 L149.475863168571 63.5303686843001 A41.12 41.12 0 0 0 107.163560590178 65.0079468493053 L107.16 65.01 L102.182171650226 68.2397776916545 A48.12 48.12 0 0 1 55.4554314545999 69.7946251719482 L55.46 69.8 L46.2946332710674 65.0977684647235 A29.43 29.43 0 0 0 31.8665790798347 63.0062145005901 L31.8641175072238 63.012912334341 A101.44 101.44 0 0 0 14.9962344868379 66.27647238156 Z"
       style="fill:rgb(0,0,255);"
       id="path6" />
  </g>
</svg>
