<?xml version="1.0" encoding="UTF-8"?>
<!DOCTYPE svg PUBLIC '-//W3C//DTD SVG 1.0//EN' 'http://www.w3.org/TR/2001/REC-SVG-20010904/DTD/svg10.dtd'>
<svg xmlns:xlink="http://www.w3.org/1999/xlink" xmlns="http://www.w3.org/2000/svg" width="600.000000004298" height="900.000000000036">
<!--Gegenereerd door de SIMaD-toepassing (http://www.dlw.be).-->
<g style="stroke:none;fill-rule:evenodd;" transform="matrix(1,0,0,-1,0,900.000000000036)">
<path d=" M65 0 L534.999951218047 1.83035808731802E-11 A65 65 0 0 1 599.999999999982 65.0000487819526 L599.999999999838 834.999854788606 A65 65 0 0 1 535.000048781953 899.999999999982 L65.0000487819526 899.999999999982 A65 65 0 0 1 1.83035808731802E-11 834.999951218047 L1.83035808731802E-11 65.0000487819526 A65 65 0 0 1 65.0000487819526 1.83035808731802E-11 Z" style="fill:rgb(0,0,255);" />
<path d=" M65 15 L534.999962475421 15.0000000000141 A50 50 0 0 1 584.999999999986 65.0000375245789 L584.999999999875 834.999888298928 A50 50 0 0 1 535.000037524579 884.999999999986 L65.0000375245789 884.999999999986 A50 50 0 0 1 15.0000000000141 834.999962475421 L15.0000000000141 65.0000375245789 A50 50 0 0 1 65.0000375245789 15.0000000000141 Z" style="fill:rgb(255,255,255);" />
<path d=" M65 30 L534.999973732795 30.0000000000099 A35 35 0 0 1 569.99999999999 65.0000262672052 L569.999999999913 834.99992180925 A35 35 0 0 1 535.000026267205 869.99999999999 L65.0000262672052 869.99999999999 A35 35 0 0 1 30.0000000000099 834.999973732795 L30.0000000000099 65.0000262672052 A35 35 0 0 1 65.0000262672052 30.0000000000099 Z" style="fill:rgb(0,0,255);" />
<path d=" M525 180 L375 90 L375 150 L75 150 L75 210 L375 210 L375 270 Z" style="fill:rgb(255,255,255);" />
<path d=" M105 330 L495.289977485253 330.000000000008 A30 30 0 0 1 525.289999999992 360.000022514747 L525.289999999925 779.999932979357 A30 30 0 0 1 495.290022514747 809.999999999992 L105.000022514747 809.999999999992 A30 30 0 0 1 75.0000000000084 779.999977485253 L75.0000000000084 360.000022514747 A30 30 0 0 1 105.000022514747 330.000000000008 Z" style="fill:rgb(255,255,255);" />
<path d=" M163 370 L236.33 370 L236.33 543.33 L330.620119151534 543.330000000067 A106.67 106.67 0 0 1 437.289999999966 649.999914359835 L437.289999999966 663.330085640165 A106.67 106.67 0 0 1 330.620119151534 769.999999999933 L330.62 770 L163 770 Z M236.33 610 L323.950044680429 610.000000000025 A40 40 0 0 1 363.949999999987 649.999967885942 L363.949999999987 663.330032114058 A40 40 0 0 1 323.950044680429 703.329999999975 L236.33 703.33 Z" style="fill:rgb(0,0,0);" />
</g>
</svg>
