<?xml version="1.0" encoding="UTF-8"?>
<!DOCTYPE svg PUBLIC '-//W3C//DTD SVG 1.0//EN' 'http://www.w3.org/TR/2001/REC-SVG-20010904/DTD/svg10.dtd'>
<svg xmlns:xlink="http://www.w3.org/1999/xlink" xmlns="http://www.w3.org/2000/svg" width="600.000000004299" height="900.000000000036">
<!--Gegenereerd door de SIMaD-toepassing (http://www.dlw.be).-->
<g style="stroke:none;fill-rule:evenodd;" transform="matrix(1,0,0,-1,0,900.000000000036)">
<path d=" M65 0 L534.999951218047 1.83035808731802E-11 A65 65 0 0 1 599.999999999982 65.0000487819526 L599.999999999838 834.999854788606 A65 65 0 0 1 535.000048781953 899.999999999982 L65.0000487819526 899.999999999982 A65 65 0 0 1 1.83035808731802E-11 834.999951218047 L1.83035808731802E-11 65.0000487819526 A65 65 0 0 1 65.0000487819526 1.83035808731802E-11 Z" style="fill:rgb(0,0,255);" />
<path d=" M65 15 L534.999962475421 15.0000000000141 A50 50 0 0 1 584.999999999986 65.0000375245789 L584.999999999875 834.999888298928 A50 50 0 0 1 535.000037524579 884.999999999986 L65.0000375245789 884.999999999986 A50 50 0 0 1 15.0000000000141 834.999962475421 L15.0000000000141 65.0000375245789 A50 50 0 0 1 65.0000375245789 15.0000000000141 Z" style="fill:rgb(255,255,255);" />
<path d=" M65 30 L534.999973732795 30.0000000000099 A35 35 0 0 1 569.99999999999 65.0000262672052 L569.999999999913 834.99992180925 A35 35 0 0 1 535.000026267205 869.99999999999 L65.0000262672052 869.99999999999 A35 35 0 0 1 30.0000000000099 834.999973732795 L30.0000000000099 65.0000262672052 A35 35 0 0 1 65.0000262672052 30.0000000000099 Z" style="fill:rgb(0,0,255);" />
<path d=" M105 330 L495.289977485253 330.000000000008 A30 30 0 0 1 525.289999999992 360.000022514747 L525.289999999925 779.999932979357 A30 30 0 0 1 495.290022514747 809.999999999992 L105.000022514747 809.999999999992 A30 30 0 0 1 75.0000000000084 779.999977485253 L75.0000000000084 360.000022514747 A30 30 0 0 1 105.000022514747 330.000000000008 Z" style="fill:rgb(255,255,255);" />
<path d=" M525 180 L375 90 L375 150 L75 150 L75 210 L375 210 L375 270 Z" style="fill:rgb(255,255,255);" />
<path d=" M353.418952920303 419.606660831752 A53.06 53.06 0 0 0 352.900590656845 412.533925909778 L352.91 412.54 L354.772183813563 412.271493214759 A54.94 54.94 0 0 1 321.407126203735 470.692762694144 L321.4 470.69 L323.41 478.42 L378.460885606622 428.301669414436 A14.98 14.98 0 0 1 389.017492420719 405.077492964996 L389.01 405.08 L389.01 391.54 L384.96 391.54 L384.96 387.17 L396.82 387.17 L396.82 391.54 L392.76 391.54 L392.762497722092 405.077491723105 A14.98 14.98 0 0 1 405.709851734476 417.755418903279 L405.71 417.76 L407.783471328981 417.754882183501 A54.94 54.94 0 0 1 408.607133753359 410.217411050917 L408.61 410.22 L410.457456586217 410.550135283428 A53.06 53.06 0 0 0 409.665002987013 417.755122037051 L409.66 417.76 L412.787817387285 417.755116904843 A49.94 49.94 0 1 1 506.568121199639 443.769318445264 L506.57 443.77 L509.244647836678 445.378104721974 A53.06 53.06 0 0 0 510.987729105534 441.888278034195 L510.99 441.89 L512.69932956759 442.665982258394 A54.94 54.94 0 0 1 439.539079548358 469.768720640317 L439.54 469.77 L427.84 492.55 L430.505521124765 498.164099953047 A2.01 2.01 0 0 0 432.158457427984 499.226321859321 L432.156307988249 499.232162132435 A4.93 4.93 0 0 1 434.602971899174 500.456543241415 L434.6156383217 500.449529488541 A2.72 2.72 0 0 1 432.913357155872 505.048174690002 L432.907145109779 505.046634117322 A74.77 74.77 0 0 1 409.710714671047 504.707099437737 L409.714266187187 504.704488606024 A2.46 2.46 0 0 1 410.091897138634 499.942426291176 L410.09 499.95 L422.820431780514 499.425814244471 A2.03 2.03 0 0 0 424.85330707532 496.458711540274 L424.85 496.45 L423.2 492.98 L327.21 492.98 L329.892919546566 503.289312504552 A33.6 33.6 0 0 1 341.217157970352 504.494727924631 L341.216761544373 504.501499478056 A16.99 16.99 0 0 0 348.623238455627 504.501499478056 L348.618495390662 504.497243321661 A2.6 2.6 0 0 1 349.840244547496 509.060896809561 L349.839133042582 509.048377139574 A11.61 11.61 0 0 1 343.24949677607 509.699556375643 L343.24698840336 509.714647375184 A56.09 56.09 0 0 0 326.835549298459 508.908777328848 L326.84 508.9 L317.286475560915 472.210799253474 A54.94 54.94 0 0 1 285.833848881932 472.922109345256 L285.83 472.92 L286.331312709564 471.109120171851 A53.06 53.06 0 0 0 316.811407002862 470.388426494453 L316.81 470.4 L316.023692964399 467.363259025254 A49.94 49.94 0 1 1 350.308041002085 419.49766429708 L350.31 419.5 Z M440.362792104866 458.600985913002 A44.64 44.64 0 0 1 418.093515651486 422.125180413538 L418.1 422.13 L452.614393214537 422.124847830042 A10.3 10.3 0 0 0 456.137175321171 427.894963558817 L456.14 427.9 Z M437.938630122986 463.320505029435 A49.94 49.94 0 0 1 412.787818607562 422.124910960208 L412.78 422.13 L409.665001843021 422.124850204361 A53.06 53.06 0 0 0 436.511732183718 466.098264259993 L436.51 466.1 Z M302.907630419749 426.324146916602 A6.87 6.87 0 1 1 306.955283797968 417.982721966552 L306.95 417.99 L345.315767159506 419.323141472094 A44.95 44.95 0 1 0 314.763559703162 462.52318845591 L314.76 462.52 L308.56202004815 438.723396660063 A26.58 26.58 0 0 0 302.903171457431 426.323627939874 Z M353.28 423.98 L350.15553688423 423.864782433335 A49.94 49.94 0 0 1 320.132941051389 465.803163443 L320.13 465.81 L320.927633657487 468.855716272018 A53.06 53.06 0 0 0 353.276456904085 423.973660602502 Z M306.256618428785 423.481838996043 A6.87 6.87 0 0 0 306.802706490907 422.351884574733 L306.8 422.35 L345.163253814157 423.690588319245 A44.95 44.95 0 0 1 318.859623348958 460.911164596746 L318.85 460.91 L312.862577874169 437.910970007344 A30.76 30.76 0 0 0 306.246657794786 423.479694487051 Z M384.96 452.72 L396.82 452.72 L396.82 448.35 L392.76 448.35 L392.762497462693 434.802508309576 A14.98 14.98 0 0 0 395.281920075784 434.261712119992 L395.28 434.27 L421.13 488.61 L326.07 488.61 L324.66 483.2 L381.402301310088 431.532410170859 A14.98 14.98 0 0 0 389.017510319299 434.802509290011 L389.01 434.81 L389.01 448.35 L384.96 448.35 Z M435.651747063156 467.77175872976 A54.94 54.94 0 0 1 407.783471138294 422.125113025873 L407.79 422.13 L405.709852115757 422.124578510169 A14.98 14.98 0 0 1 399.227627839132 432.385254598285 L399.23 432.39 L425.47 487.58 Z M502.02075614141 441.035840969776 A44.64 44.64 0 1 0 418.093515079409 417.754831259176 L418.1 417.76 L452.614392947608 417.755153399704 A10.3 10.3 0 1 1 472.432754118664 423.252670690076 L472.43 423.26 Z M444.250196132744 460.597987276973 A44.64 44.64 0 0 0 499.769376910683 444.781652931665 L499.77 444.78 L470.181697723463 426.997941007531 A10.3 10.3 0 0 1 460.024010027231 429.891669069284 L460.02 429.9 Z M507 449.13 L504.317024957966 447.514657797509 A49.94 49.94 0 0 1 441.825556468325 465.317260659764 L441.82 465.32 L440.398537881539 468.094958684061 A53.06 53.06 0 0 0 506.993631792549 449.123310938864 Z" style="fill:rgb(0,0,0);" />
<path d=" M163 370 L236.33 370 L236.33 543.33 L330.620119151534 543.330000000067 A106.67 106.67 0 0 1 437.289999999966 649.999914359835 L437.289999999966 663.330085640165 A106.67 106.67 0 0 1 330.620119151534 769.999999999933 L330.62 770 L163 770 Z M236.33 610 L323.950044680429 610.000000000025 A40 40 0 0 1 363.949999999987 649.999967885942 L363.949999999987 663.330032114058 A40 40 0 0 1 323.950044680429 703.329999999975 L236.33 703.33 Z" style="fill:rgb(0,0,0);" />
</g>
</svg>
