<?xml version="1.0" encoding="UTF-8"?>
<!DOCTYPE svg PUBLIC '-//W3C//DTD SVG 1.0//EN' 'http://www.w3.org/TR/2001/REC-SVG-20010904/DTD/svg10.dtd'>
<svg xmlns:xlink="http://www.w3.org/1999/xlink" xmlns="http://www.w3.org/2000/svg" width="400.000000000004" height="600">
<!--Gegenereerd door de SIMaD-toepassing (http://www.dlw.be).-->
<g style="stroke:none;fill-rule:evenodd;" transform="matrix(1,0,0,-1,0,600)">
<path d=" M0 45 L1.06581410364015E-13 554.999996858407 A45 45 0 0 0 45.0000031415927 600 L354.999996858407 600 A45 45 0 0 0 400 554.999996858407 L399.999999999999 45.0000086393798 A45 45 0 0 0 355.000003141593 1.06581410364015E-13 L45.0000031415927 1.06581410364015E-13 A45 45 0 0 0 1.06581410364015E-13 45.0000031415927 Z" style="fill:rgb(0,0,255);" />
<path d=" M15 45 L15.0000000000001 554.999997905605 A30 30 0 0 0 45.0000020943951 585 L354.999997905605 585 A30 30 0 0 0 385 554.999997905605 L384.999999999999 45.0000057595865 A30 30 0 0 0 355.000002094395 15.0000000000001 L45.0000020943951 15.0000000000001 A30 30 0 0 0 15.0000000000001 45.0000020943951 Z" style="fill:rgb(255,255,255);" />
<path d=" M30 45 L30 554.999998952802 A15 15 0 0 0 45.0000010471975 570 L354.999998952802 570 A15 15 0 0 0 370 554.999998952802 L370 45.0000028797933 A15 15 0 0 0 355.000001047198 30 L45.0000010471975 30 A15 15 0 0 0 30 45.0000010471975 Z" style="fill:rgb(0,0,255);" />
<path d=" M300 460.08 L100 460.08 L100 130.08 L300 130.08 Z" style="fill:rgb(255,255,255);" />
<path d=" M184.38 230.02 L183.38 234.35 L195.38 244.35 L196.71 241.02 L200.370029669245 245.016659291228 A3.31 3.31 0 0 0 205.059555098422 245.20808604855 L205.06 245.21 L244.366233164237 193.358697672503 A5.3 5.3 0 0 0 243.700144139666 185.36576138063 L243.707569941908 185.361162019439 A120.43 120.43 0 0 0 220.71083435321 169.030172069084 L220.7 169.03 L220.37 165.03 L205.71 160.7 L205.373492200554 163.363934963342 A27.94 27.94 0 0 0 181.711831060286 162.697405136663 L181.71884521033 162.700476973037 A14.54 14.54 0 0 1 191.740724095395 151.377062505929 L191.732864462175 151.367451021815 A36.23 36.23 0 0 1 211.875926594173 153.513028425353 L211.88 153.52 L222.706897117859 157.024899582003 A62.81 62.81 0 0 0 268.406311021233 156.457296902468 L268.402339447546 156.460605868464 A16.95 16.95 0 0 0 274.691745058509 152.029886833409 L274.7 152.03 L271.031399210867 147.698697952719 A33.8 33.8 0 0 1 245.210137287579 155.691346052786 L245.205738272761 155.687353049184 A77.33 77.33 0 0 1 216.373331138738 148.652083812664 L216.372509807402 148.657942079002 A82.35 82.35 0 0 0 199.666673949222 145.067649193655 L199.66956946787 145.067243696809 A20.03 20.03 0 0 0 178.32721979888 154.828318459723 L178.329365330893 154.825987309782 A13.67 13.67 0 0 0 176.716311040017 163.695860877861 L176.71348882423 163.69401144306 A41.83 41.83 0 0 0 163.396401972165 181.293278023565 L163.40191748264 181.295409418364 A214.75 214.75 0 0 0 150.284687350107 247.470503776627 L150.271442024605 247.47214785811 A516.17 516.17 0 0 0 160.447550888301 413.224010045855 L160.458054637672 413.225633056015 A41.25 41.25 0 0 0 178.814372818127 441.832128660947 L178.805772195338 441.824577946476 A41.25 41.25 0 0 0 203.144716142085 447.660420281099 L203.15268974452 447.666842291514 A114.12 114.12 0 0 0 216.041770420962 445.983221353071 L216.04 445.98 L216.04 448.65 L231.044017912967 447.981774657186 A129.03 129.03 0 0 0 220.045505415204 376.658011832252 L220.04 376.66 L204.71 381.33 L203.365762938407 383.998957555173 A16.7 16.7 0 0 0 182.926585486724 382.308914944516 L182.93 382.3 L177.71 386.33 L178.048829874819 370.666042800127 A142.22 142.22 0 0 0 187.389527322324 326.491335181153 L187.379490360103 326.488590276895 A322.18 322.18 0 0 0 177.372398731994 236.019218948336 L177.38 236.02 L176.38 222.69 Z M165.048342767222 361.333020090565 A969.57 969.57 0 0 1 167.381265285416 234.688389466188 L167.38786162787 234.689366533343 A415.79 415.79 0 0 0 165.054950088039 361.333401188158 L165.05 361.33 Z M195.380971229028 212.02053547697 A24.34 24.34 0 0 0 191.048983546603 220.684557974603 L191.04 220.69 L193.702757636496 221.686028364465 A14.66 14.66 0 0 1 197.70250653032 213.686559136529 L197.71 213.69 Z M199.37 179.03 L200.040840931109 175.024579924647 A20.35 20.35 0 0 0 189.708535378388 176.024450036802 L189.71 176.03 Z M187.71 216.69 L189.71 210.02 L187.373013107821 207.020347248679 A10.89 10.89 0 0 0 184.372328620213 214.021960085157 L184.38 214.02 Z M204.042352363248 180.364213115089 A46.48 46.48 0 0 1 214.707190256249 185.696627250641 L214.713411390974 185.693910437529 A23.97 23.97 0 0 0 205.713272731405 177.360453044828 L205.71 177.36 Z M168.373761424101 408.660870837369 A40.05 40.05 0 0 0 179.039214687956 418.992998177282 L179.04 418.99 L181.044445665507 416.318699459731 A28.18 28.18 0 0 1 168.380205032111 398.988705047602 L168.38 398.99 Z M201.37 401.32 L208.71 400.99 L212.04 397.99 L215.37 397.66 L215.37 393.99 L207.71 393.99 L205.71 398.32 L202.04 397.99 Z" style="fill:rgb(0,0,0);" />
</g>
</svg>
