<?xml version="1.0" encoding="UTF-8"?>
<!DOCTYPE svg PUBLIC '-//W3C//DTD SVG 1.0//EN' 'http://www.w3.org/TR/2001/REC-SVG-20010904/DTD/svg10.dtd'>
<svg xmlns:xlink="http://www.w3.org/1999/xlink" xmlns="http://www.w3.org/2000/svg" width="400.000000000003" height="600">
<!--Gegenereerd door de SIMaD-toepassing (http://www.dlw.be).-->
<g style="stroke:none;fill-rule:evenodd;" transform="matrix(1,0,0,-1,0,600)">
<path d=" M0 45 L1.06581410364015E-13 554.999996858407 A45 45 0 0 0 45.0000031415927 600 L354.999996858407 600 A45 45 0 0 0 400 554.999996858407 L399.999999999999 45.0000086393798 A45 45 0 0 0 355.000003141593 1.06581410364015E-13 L45.0000031415927 1.06581410364015E-13 A45 45 0 0 0 1.06581410364015E-13 45.0000031415927 Z" style="fill:rgb(0,0,255);" />
<path d=" M15 45 L15.0000000000001 554.999997905605 A30 30 0 0 0 45.0000020943951 585 L354.999997905605 585 A30 30 0 0 0 385 554.999997905605 L384.999999999999 45.0000057595865 A30 30 0 0 0 355.000002094395 15.0000000000001 L45.0000020943951 15.0000000000001 A30 30 0 0 0 15.0000000000001 45.0000020943951 Z" style="fill:rgb(255,255,255);" />
<path d=" M30 45 L30 554.999998952802 A15 15 0 0 0 45.0000010471975 570 L354.999998952802 570 A15 15 0 0 0 370 554.999998952802 L370 45.0000028797933 A15 15 0 0 0 355.000001047198 30 L45.0000010471975 30 A15 15 0 0 0 30 45.0000010471975 Z" style="fill:rgb(0,0,255);" />
<path d=" M300 460.08 L100 460.08 L100 130.08 L300 130.08 Z" style="fill:rgb(255,255,255);" />
<path d=" M229.71 208.48 L229.71 211.03 L243.16 211.03 L243.16 208.48 L243.150001398196 208.475948479913 A5.87 5.87 0 0 1 247.239661121769 202.886495420699 L247.245330191825 202.888589515364 A25.05 25.05 0 0 1 262.473295682486 202.88177017949 L262.47521613496 202.888050129742 A5.87 5.87 0 0 1 263.16980813793 213.800474753164 L263.17 213.8 L242.23 228.94 L242.239490411945 228.942328274712 A18.39 18.39 0 0 0 245.42860966608 263.420192660616 L245.428360771299 263.4167103413 A37.87 37.87 0 0 0 264.290793615318 263.416927785534 L264.289878981733 263.420581363692 A18.39 18.39 0 0 0 278.1 245.610002888694 L278.09 245.61 L264.65 245.61 L264.659995370191 245.606770161474 A4.95 4.95 0 0 1 260.936199649698 250.395720427535 L260.932097156441 250.387564431144 A24.41 24.41 0 0 1 248.773874271127 250.394242822334 L248.775095953576 250.393486413471 A4.95 4.95 0 0 1 247.920056102724 241.112836697173 L247.92 241.12 L268.85 225.99 L268.843506026165 225.979521975207 A19.31 19.31 0 0 0 266.546450054082 190.08269411672 L266.546777516022 190.080815670003 A38.48 38.48 0 0 0 243.154674892429 190.08035228445 L243.160682651682 190.083608672766 A19.31 19.31 0 0 0 229.72 208.480001685115 Z" style="fill:rgb(0,0,0);" />
<path d=" M229.71 329.74 L229.71 303.75 L229.72 303.750001755103 A25.14 25.14 0 1 1 280 303.749998244897 L280 329.74 L279.99 329.74 A25.14 25.14 0 0 1 229.71 329.74 Z M243.16 330.96 L243.16 302.53 L243.15 302.530000816814 A11.7 11.7 0 1 1 266.55 302.529999183186 L266.55 330.96 L266.56 330.96 A11.7 11.7 0 0 1 243.16 330.96 Z" style="fill:rgb(0,0,0);" />
<path d=" M229.71 388.48 L229.71 391.03 L243.16 391.03 L243.16 388.48 L243.150001398196 388.475948479914 A5.87 5.87 0 0 1 247.239661121769 382.886495420699 L247.245330191825 382.888589515364 A25.05 25.05 0 0 1 262.473295682486 382.88177017949 L262.47521613496 382.888050129742 A5.87 5.87 0 0 1 263.16980813793 393.800474753164 L263.17 393.8 L242.23 408.94 L242.239490411945 408.942328274712 A18.39 18.39 0 0 0 245.42860966608 443.420192660616 L245.428360771299 443.4167103413 A37.87 37.87 0 0 0 264.290793615318 443.416927785534 L264.289878981733 443.420581363692 A18.39 18.39 0 0 0 278.1 425.610002888694 L278.09 425.61 L264.65 425.61 L264.659995370191 425.606770161474 A4.95 4.95 0 0 1 260.936199649698 430.395720427535 L260.932097156441 430.387564431144 A24.41 24.41 0 0 1 248.773874271127 430.394242822334 L248.775095953576 430.393486413471 A4.95 4.95 0 0 1 247.920056102724 421.112836697173 L247.92 421.12 L268.85 405.99 L268.843506026165 405.979521975207 A19.31 19.31 0 0 0 266.546450054082 370.08269411672 L266.546777516022 370.080815670003 A38.48 38.48 0 0 0 243.154674892429 370.08035228445 L243.160682651682 370.083608672766 A19.31 19.31 0 0 0 229.72 388.480001685115 Z" style="fill:rgb(0,0,0);" />
<path d=" M155.36 230.02 L154.36 234.35 L166.36 244.35 L167.69 241.02 L171.350029669245 245.016659291228 A3.31 3.31 0 0 0 176.039555098422 245.20808604855 L176.04 245.21 L215.346233164237 193.358697672503 A5.3 5.3 0 0 0 214.680144139666 185.36576138063 L214.687569941908 185.361162019438 A120.43 120.43 0 0 0 191.69083435321 169.030172069084 L191.68 169.03 L191.35 165.03 L176.69 160.7 L176.353492200554 163.363934963342 A27.94 27.94 0 0 0 152.691831060286 162.697405136663 L152.69884521033 162.700476973037 A14.54 14.54 0 0 1 162.720724095395 151.377062505929 L162.712864462175 151.367451021815 A36.23 36.23 0 0 1 182.855926594173 153.513028425353 L182.86 153.52 L193.686897117859 157.024899582003 A62.81 62.81 0 0 0 239.386311021233 156.457296902468 L239.382339447546 156.460605868464 A16.95 16.95 0 0 0 245.671745058509 152.029886833409 L245.68 152.03 L242.011399210867 147.698697952719 A33.8 33.8 0 0 1 216.190137287579 155.691346052786 L216.18573692454 155.687352986801 A77.33 77.33 0 0 1 187.353329913306 148.652083247061 L187.352509807402 148.657942079002 A82.35 82.35 0 0 0 170.646673949222 145.067649193655 L170.64956946787 145.067243696809 A20.03 20.03 0 0 0 149.30721979888 154.828318459723 L149.309365330893 154.825987309782 A13.67 13.67 0 0 0 147.696311040017 163.695860877861 L147.69348882423 163.69401144306 A41.83 41.83 0 0 0 134.376401972165 181.293278023565 L134.38191748264 181.295409418364 A214.75 214.75 0 0 0 121.264687350107 247.470503776627 L121.261442024605 247.47214785811 A516.17 516.17 0 0 0 131.437550888301 413.224010045855 L131.438054637672 413.225633056015 A41.25 41.25 0 0 0 149.794372818127 441.832128660947 L149.785772195338 441.824577946476 A41.25 41.25 0 0 0 174.124716142085 447.660420281099 L174.13268974452 447.666842291514 A114.12 114.12 0 0 0 187.021770420962 445.983221353071 L187.02 445.98 L187.02 448.65 L202.024017912967 447.981774657186 A129.03 129.03 0 0 0 191.025505415204 376.658011832252 L191.02 376.66 L175.69 381.33 L174.355762938407 383.998957555173 A16.7 16.7 0 0 0 153.916585486724 382.308914944516 L153.91 382.3 L148.69 386.33 L149.028829874819 370.666042800127 A142.22 142.22 0 0 0 158.369527200826 326.491337660385 L158.369490360103 326.488590276895 A322.18 322.18 0 0 0 148.362398731994 236.019218948336 L148.36 236.02 L147.36 222.69 Z M172.35 401.32 L179.69 400.99 L183.02 397.99 L186.35 397.66 L186.35 393.99 L178.69 393.99 L176.69 398.32 L173.02 397.99 Z M139.353761424101 408.660870837369 A40.05 40.05 0 0 0 150.019214687956 418.992998177282 L150.03 418.99 L152.024445665507 416.318699459731 A28.18 28.18 0 0 1 139.360205032111 398.988705047602 L139.36 398.99 Z M175.022352363248 180.364213115089 A46.48 46.48 0 0 1 185.687190256249 185.696627250641 L185.693411390974 185.693910437529 A23.97 23.97 0 0 0 176.693272731405 177.360453044828 L176.69 177.36 Z M158.69 216.69 L160.69 210.02 L158.353013107821 207.020347248679 A10.89 10.89 0 0 0 155.352328620213 214.021960085157 L155.36 214.02 Z M170.36 179.03 L171.020840931109 175.024579924647 A20.35 20.35 0 0 0 160.688535378388 176.024450036802 L160.69 176.03 Z M166.360971229028 212.02053547697 A24.34 24.34 0 0 0 162.028983546603 220.684557974603 L162.02 220.69 L164.692757597331 221.686028617315 A14.66 14.66 0 0 1 168.692506351538 213.68655931957 L168.69 213.69 Z M136.028342767222 361.333020090565 A969.57 969.57 0 0 1 138.361266701605 234.688372603362 L138.36786162787 234.689366533343 A415.79 415.79 0 0 0 136.034950088039 361.333401188158 L136.03 361.33 Z" style="fill:rgb(0,0,0);" />
</g>
</svg>
