<?xml version="1.0" encoding="UTF-8"?>
<!DOCTYPE svg PUBLIC '-//W3C//DTD SVG 1.0//EN' 'http://www.w3.org/TR/2001/REC-SVG-20010904/DTD/svg10.dtd'>
<svg xmlns:xlink="http://www.w3.org/1999/xlink" xmlns="http://www.w3.org/2000/svg" width="400" height="600">
<!--Gegenereerd door de SIMaD-toepassing (http://www.dlw.be).-->
<g style="stroke:none;fill-rule:evenodd;" transform="matrix(1,0,0,-1,0,600)">
<path d=" M0 45 L1.06581410364015E-13 554.999996858407 A45 45 0 0 0 45.0000031415927 600 L354.999996858407 600 A45 45 0 0 0 400 554.999996858407 L399.999999999999 45.0000086393798 A45 45 0 0 0 355.000003141593 1.06581410364015E-13 L45.0000031415927 1.06581410364015E-13 A45 45 0 0 0 1.06581410364015E-13 45.0000031415927 Z" style="fill:rgb(0,0,255);" />
<path d=" M15 45 L15.0000000000001 554.999997905605 A30 30 0 0 0 45.0000020943951 585 L354.999997905605 585 A30 30 0 0 0 385 554.999997905605 L384.999999999999 45.0000057595865 A30 30 0 0 0 355.000002094395 15.0000000000001 L45.0000020943951 15.0000000000001 A30 30 0 0 0 15.0000000000001 45.0000020943951 Z" style="fill:rgb(255,255,255);" />
<path d=" M30 45 L30 554.999998952802 A15 15 0 0 0 45.0000010471975 570 L354.999998952802 570 A15 15 0 0 0 370 554.999998952802 L370 45.0000028797933 A15 15 0 0 0 355.000001047198 30 L45.0000010471975 30 A15 15 0 0 0 30 45.0000010471975 Z" style="fill:rgb(0,0,255);" />
<path d=" M349.39 149.65 L50.61 149.65 L50.61 450.35 L349.39 450.35 Z" style="fill:rgb(255,255,255);" />
<path d=" M84.92 404.24 L84.93 429.7 A5 5 0 0 1 74.93 429.7 L74.93 404.24 L68.47 404.24 L68.4718204672858 354.429555314685 A5.35 5.35 0 0 1 69.8060845479205 350.752913240595 L69.8043069398639 350.752315873345 A21.52 21.52 0 0 1 78.8851663031946 344.652714769638 L78.882797348428 344.649166620368 A44.19 44.19 0 0 1 90.5893295128108 342.288839643132 L90.59 342.29 L90.59 211.26 A23.08 23.08 0 0 1 136.75 211.26 L136.74 211.26 L136.74 331.44 L148.33 331.44 L148.2 200.94 L158.09 200.94 L158.09 187.87 L254.32 187.87 L254.32 200.94 L264.21 200.94 L264.21 371.059998406514 A8.3 8.3 0 0 1 255.910000579449 379.36 L156.500000579449 379.36 A8.3 8.3 0 0 1 148.2 371.059999420551 L148.203388270853 362.708082971579 A19.85 19.85 0 0 1 133.698989110607 354.570970302641 L133.690027233198 354.577988001979 A9.35 9.35 0 0 1 131.912509992027 349.306634602124 L131.92 349.3 L129.84 331.58 L129.84 211.26 A16.17 16.17 0 0 0 97.5 211.26 L97.5006704871892 342.288839643132 A44.19 44.19 0 0 1 109.207202651572 344.649166620368 L109.204833696805 344.652714769638 A21.52 21.52 0 0 1 118.285692811816 350.752315591549 L118.283915513813 350.752913310651 A5.35 5.35 0 0 1 119.618179530278 354.429555408029 L119.62 354.43 L119.62 404.24 L113.16 404.24 L113.16 429.7 A5 5 0 0 1 103.16 429.7 L103.17 429.7 L103.17 404.24 Z" style="fill:rgb(0,0,0);" />
<path d=" M331.53 233.71 L331.53 403.829998406514 A8.3 8.3 0 0 1 323.230000579449 412.13 L223.820000579449 412.13 A8.3 8.3 0 0 1 215.52 403.829999420551 L215.523388270853 395.478082971579 A19.85 19.85 0 0 1 201.01898890726 387.340970022149 L201.010027328981 387.3479881341 A9.35 9.35 0 0 1 199.232509995808 382.076634765269 L199.24 382.08 L198.92 379.36 L234.47 379.36 L234.47 387.379999420551 A8.3 8.3 0 0 0 242.770000579449 395.68 L304.289999565413 395.68 A8.3 8.3 0 0 0 312.59 387.379999420551 L312.59 347.770001593486 A8.3 8.3 0 0 0 304.290000434587 339.47 L264.21 339.47 L264.21 220.64 L321.64 220.64 L321.64 233.71 L331.53 233.71 Z" style="fill:rgb(0,0,255);" />
<path d=" M234.47 379.36 L234.47 387.379999420551 A8.3 8.3 0 0 0 242.770000579449 395.68 L304.289999565413 395.68 A8.3 8.3 0 0 0 312.59 387.379999420551 L312.59 347.770001593486 A8.3 8.3 0 0 0 304.290000434587 339.47 L264.21 339.47 L264.209999989036 371.059573380444 A8.3 8.3 0 0 1 255.910142254806 379.359999998781 L255.91 379.36 L234.47 379.36 Z" style="fill:rgb(255,255,255);" />
<path d=" M236.97 362.91 L175.450000579449 362.91 A8.3 8.3 0 0 1 167.15 354.609999420551 L167.15 315.000000579449 A8.3 8.3 0 0 1 175.450000579449 306.7 L236.969999420551 306.7 A8.3 8.3 0 0 1 245.27 315.000000579449 L245.27 354.609998406514 A8.3 8.3 0 0 1 236.970000579449 362.91 Z" style="fill:rgb(255,255,255);" />
</g>
</svg>
