<?xml version="1.0" encoding="UTF-8"?>
<!DOCTYPE svg PUBLIC '-//W3C//DTD SVG 1.0//EN' 'http://www.w3.org/TR/2001/REC-SVG-20010904/DTD/svg10.dtd'>
<svg xmlns:xlink="http://www.w3.org/1999/xlink" xmlns="http://www.w3.org/2000/svg" width="400" height="600.000000000001">
<!--Gegenereerd door de SIMaD-toepassing (http://www.dlw.be).-->
<g style="stroke:none;fill-rule:evenodd;" transform="matrix(1,0,0,-1,0,600.000000000001)">
<path d=" M0 45 L1.06581410364015E-13 554.999996858407 A45 45 0 0 0 45.0000031415927 600 L354.999996858407 600 A45 45 0 0 0 400 554.999996858407 L399.999999999999 45.0000086393798 A45 45 0 0 0 355.000003141593 1.06581410364015E-13 L45.0000031415927 1.06581410364015E-13 A45 45 0 0 0 1.06581410364015E-13 45.0000031415927 Z" style="fill:rgb(0,0,255);" />
<path d=" M15 45 L15.0000000000001 554.999997905605 A30 30 0 0 0 45.0000020943951 585 L354.999997905605 585 A30 30 0 0 0 385 554.999997905605 L384.999999999999 45.0000057595865 A30 30 0 0 0 355.000002094395 15.0000000000001 L45.0000020943951 15.0000000000001 A30 30 0 0 0 15.0000000000001 45.0000020943951 Z" style="fill:rgb(255,255,255);" />
<path d=" M30 45 L30 554.999998952802 A15 15 0 0 0 45.0000010471975 570 L354.999998952802 570 A15 15 0 0 0 370 554.999998952802 L370 45.0000028797933 A15 15 0 0 0 355.000001047198 30 L45.0000010471975 30 A15 15 0 0 0 30 45.0000010471975 Z" style="fill:rgb(0,0,255);" />
<path d=" M344.39 154.65 L55.61 154.65 L55.61 445.35 L344.39 445.35 Z" style="fill:rgb(255,255,255);" />
<path d=" M324.44 233.71 L324.45 403.829998406514 A8.3 8.3 0 0 1 316.150000579449 412.13 L216.740000434587 412.13 A8.3 8.3 0 0 1 208.44 403.829999420551 L208.443388270853 395.478082971579 A19.85 19.85 0 0 1 193.938989110607 387.340970302641 L193.930027233198 387.347988001979 A9.35 9.35 0 0 1 192.152509992027 382.076634602124 L192.15 382.08 L191.84 379.36 L227.38 379.36 L227.38 387.379999420551 A8.3 8.3 0 0 0 235.680000579449 395.68 L297.199999420551 395.68 A8.3 8.3 0 0 0 305.5 387.379999420551 L305.5 347.770001593486 A8.3 8.3 0 0 0 297.200000579449 339.47 L257.13 339.47 L257.13 220.64 L314.56 220.64 L314.56 233.71 L324.45 233.71 Z" style="fill:rgb(0,0,255);" />
<path d=" M257.12 200.94 L257.13 371.059998406514 A8.3 8.3 0 0 1 248.830000579449 379.36 L149.420000579449 379.36 A8.3 8.3 0 0 1 141.12 371.059999420551 L141.123388270853 362.708082971579 A19.85 19.85 0 0 1 126.61898890726 354.570970022149 L126.610027328981 354.5779881341 A9.35 9.35 0 0 1 124.832509995808 349.306634765269 L124.83 349.3 L121.543123427949 321.214369734446 A100.94 100.94 0 0 0 115.058576056484 295.602397128805 L115.061683655277 295.599328490109 A295.98 295.98 0 0 0 100.250820061816 263.993110469291 L100.246727209041 264.000036632457 A65.6 65.6 0 0 0 94.000551800543 254.543034915914 L94 254.54 L84.7099018607702 240.545388609633 A55.72 55.72 0 0 1 75.6650154198487 215.137990900432 L75.6543389063313 215.141867039545 A24.04 24.04 0 0 1 90.0990785277749 190.708514580556 L90.1062556528739 190.704455461754 A33.86 33.86 0 0 1 127.433057814156 197.907825296742 L127.433214366986 197.909401078652 A18.14 18.14 0 0 1 132.727331823835 210.408882157185 L132.72 210.41 L132.51 321.29 L141.24 321.29 L141.12 200.94 L151.01 200.94 L151.01 187.87 L247.24 187.87 L247.24 200.94 L257.13 200.94 Z M122.98 289.2 L121.65060330014 289.040793465121 A144.25 144.25 0 0 0 102.153228614852 248.547709217837 L102.16 248.54 L95.6999991454493 239.741050123968 A66.85 66.85 0 0 1 89.1077677957761 228.666168729119 L89.1026639080513 228.659411537975 A41.85 41.85 0 0 1 85.2911923253233 214.71011143424 L85.2830816070568 214.714333319566 A14.57 14.57 0 0 1 90.2341562571113 202.36132960938 L90.2334475794135 202.35905396598 A19.13 19.13 0 0 1 104.048390062498 197.712095802594 L104.047485744676 197.715673081335 A25.3 25.3 0 0 1 119.906977682345 204.724199667442 L119.902442174232 204.729127017031 A8.27 8.27 0 0 1 122.438948603557 210.821867326249 L122.45 210.82 L122.98 289.2 Z" style="fill:rgb(0,0,0);" />
<path d=" M101.56 372.85 L124.86 372.85 L124.86 378.68 L111.07 378.68 L120.87 388.79 L120.87092971523 388.787210449113 A11.65 11.65 0 1 1 100.860000000001 396.899996543375 L100.86 396.35 L107.28 396.35 L107.28 397.48 L107.280000529985 397.487645505191 A5.23 5.23 0 1 0 116.265085635811 393.84963849766 L116.27 393.84 L101.56 378.68 L101.56 372.85 Z" style="fill:rgb(0,0,0);" />
<path d=" M70.61 395.35 L77.03 395.35 L77.03 410.52 L88.19 410.52 L88.19 395.35 L94.61 395.35 L94.61 430.35 L88.19 430.35 L88.19 416.35 L77.03 416.35 L77.03 430.35 L70.61 430.35 L70.61 395.35 Z" style="fill:rgb(0,0,0);" />
<path d=" M227.38 379.36 L227.38 387.379999420551 A8.3 8.3 0 0 0 235.680000579449 395.68 L297.199999420551 395.68 A8.3 8.3 0 0 0 305.5 387.379999420551 L305.5 347.770001593486 A8.3 8.3 0 0 0 297.200000579449 339.47 L257.13 339.47 L257.129999989036 371.059573380444 A8.3 8.3 0 0 1 248.830142254806 379.359999998781 L248.83 379.36 L227.38 379.36 Z" style="fill:rgb(255,255,255);" />
<path d=" M229.88 362.91 L168.360000579449 362.91 A8.3 8.3 0 0 1 160.06 354.609999420551 L160.06 315.000000579449 A8.3 8.3 0 0 1 168.360000579449 306.7 L229.879999420551 306.7 A8.3 8.3 0 0 1 238.18 315.000000579449 L238.18 354.609998406514 A8.3 8.3 0 0 1 229.880000579449 362.91 Z" style="fill:rgb(255,255,255);" />
</g>
</svg>
