<?xml version="1.0" encoding="UTF-8"?>
<!DOCTYPE svg PUBLIC '-//W3C//DTD SVG 1.0//EN' 'http://www.w3.org/TR/2001/REC-SVG-20010904/DTD/svg10.dtd'>
<svg xmlns:xlink="http://www.w3.org/1999/xlink" xmlns="http://www.w3.org/2000/svg" width="399.999999999999" height="600.000000000001">
<!--Gegenereerd door de SIMaD-toepassing (http://www.dlw.be).-->
<g style="stroke:none;fill-rule:evenodd;" transform="matrix(1,0,0,-1,0,600.000000000001)">
<path d=" M0 45 L1.06581410364015E-13 554.999996858407 A45 45 0 0 0 45.0000031415927 600 L354.999996858407 600 A45 45 0 0 0 400 554.999996858407 L399.999999999999 45.0000086393798 A45 45 0 0 0 355.000003141593 1.06581410364015E-13 L45.0000031415927 1.06581410364015E-13 A45 45 0 0 0 1.06581410364015E-13 45.0000031415927 Z" style="fill:rgb(0,0,255);" />
<path d=" M15 45 L15.0000000000001 554.999997905605 A30 30 0 0 0 45.0000020943951 585 L354.999997905605 585 A30 30 0 0 0 385 554.999997905605 L384.999999999999 45.0000057595865 A30 30 0 0 0 355.000002094395 15.0000000000001 L45.0000020943951 15.0000000000001 A30 30 0 0 0 15.0000000000001 45.0000020943951 Z" style="fill:rgb(255,255,255);" />
<path d=" M30 45 L30 554.999998952802 A15 15 0 0 0 45.0000010471975 570 L354.999998952802 570 A15 15 0 0 0 370 554.999998952802 L370 45.0000028797933 A15 15 0 0 0 355.000001047198 30 L45.0000010471975 30 A15 15 0 0 0 30 45.0000010471975 Z" style="fill:rgb(0,0,255);" />
<path d=" M344.39 154.65 L55.61 154.65 L55.61 445.35 L344.39 445.35 Z" style="fill:rgb(255,255,255);" />
<path d=" M309.38 200.39 L309.39 405.349998080138 A10 10 0 0 1 299.390000698132 415.35 L179.620000698132 415.35 A10 10 0 0 1 169.62 405.349999301868 L169.622173674499 395.295387641319 A23.92 23.92 0 0 1 152.143824416204 385.489859089663 L152.143647769605 385.499063625913 A11.26 11.26 0 0 1 150.003022728366 379.150888301595 L150 379.15 L146.022468199652 345.297109207509 A121.61 121.61 0 0 0 138.210046901417 314.4404419936 L138.214850298912 314.448034798206 A356.6 356.6 0 0 0 120.370556909397 276.368511363434 L120.369324978699 276.359409991302 A79.04 79.04 0 0 0 112.843445340166 264.96487621576 L112.85 264.97 L101.647997324697 248.115204437379 A67.14 67.14 0 0 1 90.7493312147997 217.500475754757 L90.7477393813375 217.501150976091 A28.96 28.96 0 0 1 108.14872355093 188.067295434813 L108.153194568244 188.066152932219 A40.79 40.79 0 0 1 153.119534206717 196.743809623571 L153.11991366696 196.739372302566 A21.85 21.85 0 0 1 159.496786127386 211.795252212486 L159.5 211.8 L159.24 345.39 L169.76 345.39 L169.62 200.39 L181.54 200.39 L181.54 184.65 L297.47 184.65 L297.47 200.39 L309.39 200.39 Z M147.76 306.73 L146.167028447586 306.535229838739 A173.8 173.8 0 0 0 122.675564182054 257.747028506483 L122.68 257.74 L114.888024400388 247.140599663211 A80.55 80.55 0 0 1 106.944804126972 233.796070398129 L106.950277520763 233.792547903099 A50.42 50.42 0 0 1 102.358296703532 216.986724456736 L102.355983679056 216.991334918215 A17.55 17.55 0 0 1 108.319700913679 202.111773139645 L108.319045375679 202.107454173074 A23.04 23.04 0 0 1 124.957637587034 196.510699806156 L124.960939347736 196.507071759648 A30.48 30.48 0 0 1 144.067552176161 204.950545317564 L144.060816144418 204.953796536554 A9.97 9.97 0 0 1 147.118732473339 212.298974447591 L147.12 212.3 L147.76 306.73 Z" style="fill:rgb(0,0,0);" />
<path d=" M276.56 395.54 L202.440000698132 395.54 A10 10 0 0 1 192.44 385.539999301868 L192.44 337.820000698132 A10 10 0 0 1 202.440000698132 327.82 L276.559999301868 327.82 A10 10 0 0 1 286.56 337.820000698132 L286.56 385.539998080138 A10 10 0 0 1 276.560000698132 395.54 Z" style="fill:rgb(255,255,255);" />
</g>
</svg>
