<?xml version="1.0" encoding="UTF-8"?>
<!DOCTYPE svg PUBLIC '-//W3C//DTD SVG 1.0//EN' 'http://www.w3.org/TR/2001/REC-SVG-20010904/DTD/svg10.dtd'>
<svg xmlns:xlink="http://www.w3.org/1999/xlink" xmlns="http://www.w3.org/2000/svg" width="400.000000002976" height="600.000000000025">
<!--Gegenereerd door de SIMaD-toepassing (http://www.dlw.be).-->
<g style="stroke:none;fill-rule:evenodd;" transform="matrix(1,0,0,-1,0,600.000000000025)">
<path d=" M45 0 L354.999966227879 1.26760824059602E-11 A45 45 0 0 1 399.999999999987 45.000033772121 L399.999999999888 554.999899469035 A45 45 0 0 1 355.000033772121 599.999999999987 L45.000033772121 599.999999999987 A45 45 0 0 1 1.26760824059602E-11 554.999966227879 L1.26760824059602E-11 45.000033772121 A45 45 0 0 1 45.000033772121 1.26760824059602E-11 Z" style="fill:rgb(0,0,255);" />
<path d=" M45 15 L354.999977485253 15.0000000000084 A30 30 0 0 1 384.999999999992 45.0000225147473 L384.999999999925 554.999932979357 A30 30 0 0 1 355.000022514747 584.999999999992 L45.0000225147474 584.999999999992 A30 30 0 0 1 15.0000000000084 554.999977485253 L15.0000000000084 45.0000225147474 A30 30 0 0 1 45.0000225147474 15.0000000000084 Z" style="fill:rgb(255,255,255);" />
<path d=" M45 30 L354.999988742626 30.0000000000042 A15 15 0 0 1 369.999999999996 45.0000112573737 L369.999999999963 554.999966489678 A15 15 0 0 1 355.000011257374 569.999999999996 L45.0000112573737 569.999999999996 A15 15 0 0 1 30.0000000000042 554.999988742626 L30.0000000000042 45.0000112573737 A15 15 0 0 1 45.0000112573737 30.0000000000042 Z" style="fill:rgb(0,0,255);" />
<path d=" M329.999998603737 150 A20 20 0 0 1 350 170.000001396263 L350 429.999996160276 A20 20 0 0 1 330.000001396263 450 L70.0000013962634 450 A20 20 0 0 1 50.0000000000001 429.999998603737 L50.0000000000001 170.000001396263 A20 20 0 0 1 70.0000013962634 150 Z" style="fill:rgb(255,255,255);" />
<path d=" M261.84 221.73 L261.84 229.46 L322.83 266.44 L322.83 264.34 L330.22 262.01 L336.22 266 L336.219999999999 303.34999568031 A11.25 11.25 0 0 1 319.384861738622 313.11569150656 L319.38 313.12 L296.85 300.24 L157.47 353.8 L157.47 370.939998429204 A11.25 11.25 0 0 1 141.919506724327 381.335588371318 L141.92 381.34 L86.5290149001517 358.421177343099 A22.5 22.5 0 0 1 72.6300000000001 337.630001963495 L72.63 306.25 L72.63 298.37 L78.77 295.15 L83.47 298.24 L83.47 301.49 L248.39 229.15 L248.39 221.48 L255.95 218.16 Z M267.219745634903 283.291395685384 A22.5 22.5 0 0 1 255.890000000007 263.75998272124 L255.89 249.64 L105.397461646255 312.564764984585 A14.13 14.13 0 0 0 101.663791733732 337.824653748707 L101.666719850137 337.828326364334 A225.54 225.54 0 0 0 153.882639304147 353.178146146279 L153.88 353.18 L294.75 299.04 L267.22 283.29 Z M94.4757654249059 317.203820738739 A13.43 13.43 0 0 0 90.5238457356899 338.52884650516 L90.5287006441186 338.527889452517 A17.26 17.26 0 0 0 94.5384449440928 341.678314479531 L94.5354436659094 341.687998189591 A249.87 249.87 0 0 0 125.787674065383 356.716901818302 L125.787719767092 356.708615164012 A99.33 99.33 0 0 0 148.630725930134 362.774140562623 L148.633639544913 362.770630908746 A2.1 2.1 0 0 1 150.437367726375 364.744887582271 L150.43 364.75 L150.43 366.25999923031 A2.45 2.45 0 0 1 148.924078521567 368.520799802087 L148.922049010216 368.522477222412 A7.09 7.09 0 0 1 145.400799166904 369.025939401176 L145.408727731182 369.031210339586 A67.39 67.39 0 0 1 139.123465198542 368.024714493191 L139.123390728186 368.02178991819 A106.3 106.3 0 0 1 108.452466134796 356.447522368899 L108.453396108462 356.446972032573 A215.97 215.97 0 0 1 91.093819900526 345.485655435176 L91.0881897051366 345.480320104289 A16.15 16.15 0 0 1 94.4725249618612 317.207467394881 L94.48 317.2 Z" style="fill:rgb(0,0,0);" />
</g>
</svg>
