<?xml version="1.0" encoding="UTF-8"?>
<!DOCTYPE svg PUBLIC '-//W3C//DTD SVG 1.0//EN' 'http://www.w3.org/TR/2001/REC-SVG-20010904/DTD/svg10.dtd'>
<svg xmlns:xlink="http://www.w3.org/1999/xlink" xmlns="http://www.w3.org/2000/svg" width="400.000000002976" height="600.000000000025">
<!--Gegenereerd door de SIMaD-toepassing (http://www.dlw.be).-->
<g style="stroke:none;fill-rule:evenodd;" transform="matrix(1,0,0,-1,0,600.000000000025)">
<path d=" M45 0 L354.999966227879 1.26760824059602E-11 A45 45 0 0 1 399.999999999987 45.000033772121 L399.999999999888 554.999899469035 A45 45 0 0 1 355.000033772121 599.999999999987 L45.000033772121 599.999999999987 A45 45 0 0 1 1.26760824059602E-11 554.999966227879 L1.26760824059602E-11 45.000033772121 A45 45 0 0 1 45.000033772121 1.26760824059602E-11 Z" style="fill:rgb(0,0,255);" />
<path d=" M45 15 L354.999977485253 15.0000000000084 A30 30 0 0 1 384.999999999992 45.0000225147473 L384.999999999925 554.999932979357 A30 30 0 0 1 355.000022514747 584.999999999992 L45.0000225147474 584.999999999992 A30 30 0 0 1 15.0000000000084 554.999977485253 L15.0000000000084 45.0000225147474 A30 30 0 0 1 45.0000225147474 15.0000000000084 Z" style="fill:rgb(255,255,255);" />
<path d=" M45 30 L354.999988742626 30.0000000000042 A15 15 0 0 1 369.999999999996 45.0000112573737 L369.999999999963 554.999966489678 A15 15 0 0 1 355.000011257374 569.999999999996 L45.0000112573737 569.999999999996 A15 15 0 0 1 30.0000000000042 554.999988742626 L30.0000000000042 45.0000112573737 A15 15 0 0 1 45.0000112573737 30.0000000000042 Z" style="fill:rgb(0,0,255);" />
<path d=" M329.999998603737 150 A20 20 0 0 1 350 170.000001396263 L350 429.999996160276 A20 20 0 0 1 330.000001396263 450 L70.0000013962634 450 A20 20 0 0 1 50.0000000000001 429.999998603737 L50.0000000000001 170.000001396263 A20 20 0 0 1 70.0000013962634 150 Z" style="fill:rgb(255,255,255);" />
<path d=" M259.19 375.34 L298.21 415.7 L292.83 421.08 L253.14 380.72 L247.09 386.77 L287.44 426.46 L282.06 431.17 L240.354935373586 390.803542842569 A47.82 47.82 0 0 1 230.937605494865 378.022843816285 L230.939404746397 378.033470314016 A25.82 25.82 0 0 1 228.164256593893 366.848820210809 L228.168100363083 366.839393276384 A72.18 72.18 0 0 0 226.337925235958 351.947263394698 L226.332349108402 351.952703075823 A19.5 19.5 0 0 0 222.277167509404 343.806734313854 L222.275856125941 343.807899868606 A184.66 184.66 0 0 0 199.322038370352 320.854092128507 L199.331427299416 320.849628163119 A133.7 133.7 0 0 0 178.899623628445 344.21378235862 L178.894110260396 344.216856767119 A48.57 48.57 0 0 0 170.402597256397 373.989763486514 L170.402183996312 373.996001170799 A53.39 53.39 0 0 1 145.648825634935 421.577037877537 L145.653713923192 421.582528575138 A67.84 67.84 0 0 1 120.631388585853 431.173722753359 L120.622241480835 431.159608472499 A34.44 34.44 0 0 1 81.4286248032326 405.351685098258 L81.4237038107358 405.352542585444 A49.4 49.4 0 0 1 90.77425609676 362.888804407934 L90.780469764046 362.894430408087 A83.65 83.65 0 0 1 115.753192189876 341.78961845709 L115.754994623865 341.789022726621 A55.12 55.12 0 0 1 133.411874223464 335.651069613369 L133.411346201094 335.651073094474 A350.99 350.99 0 0 0 159.644333882827 330.269963833913 L159.640340256278 330.274048756553 A17.93 17.93 0 0 0 167.019594641766 326.489814550556 L167.014382952479 326.481400887441 A1208.98 1208.98 0 0 1 178.470391229292 316.812070874542 L178.467943460181 316.811775434112 A28.72 28.72 0 0 0 185.865818119224 307.39634270935 L185.87 307.4 L74.0759095718395 191.412369953845 A12.77 12.77 0 0 1 89.2600441459301 171.27204490478 L89.26 171.27 L199.33 292.6 L305.826862752746 174.346875297788 A14.35 14.35 0 0 1 327.683798115848 192.928941125859 L327.68 192.92 L212.11 308.74 L231.674255360536 329.708362045387 A33.54 33.54 0 0 0 255.161844908782 340.353929274573 L255.157665224911 340.352812151753 A26.74 26.74 0 0 1 270.547225874778 345.819022013877 L270.54 345.82 L321.08 393.5 L315.95 398.45 L274.66 359.19 L269.96 363.9 L309.64 404.26 L304.26 409.64 L263.9 370.63 Z" style="fill:rgb(0,0,0);" />
</g>
</svg>
