<?xml version="1.0" encoding="UTF-8"?>
<!DOCTYPE svg PUBLIC '-//W3C//DTD SVG 1.0//EN' 'http://www.w3.org/TR/2001/REC-SVG-20010904/DTD/svg10.dtd'>
<svg xmlns:xlink="http://www.w3.org/1999/xlink" xmlns="http://www.w3.org/2000/svg" width="400.000000002976" height="600.000000000025">
<!--Gegenereerd door de SIMaD-toepassing (http://www.dlw.be).-->
<g style="stroke:none;fill-rule:evenodd;" transform="matrix(1,0,0,-1,0,600.000000000025)">
<path d=" M45 0 L354.999966227879 1.26760824059602E-11 A45 45 0 0 1 399.999999999987 45.000033772121 L399.999999999888 554.999899469035 A45 45 0 0 1 355.000033772121 599.999999999987 L45.000033772121 599.999999999987 A45 45 0 0 1 1.26760824059602E-11 554.999966227879 L1.26760824059602E-11 45.000033772121 A45 45 0 0 1 45.000033772121 1.26760824059602E-11 Z" style="fill:rgb(0,0,255);" />
<path d=" M45 15 L354.999977485253 15.0000000000084 A30 30 0 0 1 384.999999999992 45.0000225147473 L384.999999999925 554.999932979357 A30 30 0 0 1 355.000022514747 584.999999999992 L45.0000225147474 584.999999999992 A30 30 0 0 1 15.0000000000084 554.999977485253 L15.0000000000084 45.0000225147474 A30 30 0 0 1 45.0000225147474 15.0000000000084 Z" style="fill:rgb(255,255,255);" />
<path d=" M45 30 L354.999988742626 30.0000000000042 A15 15 0 0 1 369.999999999996 45.0000112573737 L369.999999999963 554.999966489678 A15 15 0 0 1 355.000011257374 569.999999999996 L45.0000112573737 569.999999999996 A15 15 0 0 1 30.0000000000042 554.999988742626 L30.0000000000042 45.0000112573737 A15 15 0 0 1 45.0000112573737 30.0000000000042 Z" style="fill:rgb(0,0,255);" />
<path d=" M70.0000013962634 450 A20 20 0 0 1 50.0000000000001 429.999998603737 L50.0000000000001 170.000001396263 A20 20 0 0 1 70.0000013962634 150 L329.999998603737 150 A20 20 0 0 1 350 170.000001396263 L350 429.999996160276 A20 20 0 0 1 330.000001396263 450 Z" style="fill:rgb(255,255,255);" />
<path d=" M268.686907212602 262.332199835627 A201.82 201.82 0 0 0 258.569603707892 238.731613043249 L258.566896144699 238.733609919921 A1837.11 1837.11 0 0 1 333.609320504656 242.789972211219 L333.59834292073 242.787490154284 A12.52 12.52 0 0 0 332.608317058943 234.14145830881 L332.616931227922 234.145001590585 A39.74 39.74 0 0 0 310.284474465395 215.752456113819 L310.28 215.75 L86.657391090687 216.351130652421 A49.34 49.34 0 0 0 68.4003521495324 230.805038447799 L68.3946818802097 230.811742583562 A14.8 14.8 0 0 0 65.5417435505496 242.794061528219 L65.550679495344 242.789972211219 A1837.11 1837.11 0 0 1 140.593103855301 238.733609919921 L140.591155684817 238.729299259177 A215.11 215.11 0 0 0 126.188683620023 275.298802478201 L126.196504712646 275.307104238081 A427.23 427.23 0 0 0 109.669483187595 390.173438119128 L109.66 390.17 L289.490451649104 390.164966080081 A410.46 410.46 0 0 0 288.023753876309 360.074865909182 L288.03 360.08 L308.770924503216 360.235348938681 A21.47 21.47 0 0 0 325.734316224779 327.914901771287 L325.728775200229 327.917986376702 A126.33 126.33 0 0 0 306.180302851719 295.127547025995 L306.179259130236 295.126642031934 A96.02 96.02 0 0 0 268.677578123029 262.328171220523 Z M287.213381233319 350.966379329324 A420.52 420.52 0 0 0 273.11146955204 275.831578948864 L273.112698872029 275.838461407069 A97.32 97.32 0 0 1 305.537395182271 309.815777867972 L305.542518653619 309.809715947207 A91.11 91.11 0 0 1 318.228747108967 334.391869711625 L318.227873003548 334.395403322614 A11.33 11.33 0 0 1 308.254721372811 351.129989698299 L308.25 351.13 Z" style="fill:rgb(0,0,0);" />
</g>
</svg>
