<?xml version="1.0" encoding="UTF-8"?>
<!DOCTYPE svg PUBLIC '-//W3C//DTD SVG 1.0//EN' 'http://www.w3.org/TR/2001/REC-SVG-20010904/DTD/svg10.dtd'>
<svg xmlns:xlink="http://www.w3.org/1999/xlink" xmlns="http://www.w3.org/2000/svg" width="600.000000000001" height="899.999999999999">
<!--Gegenereerd door de SIMaD-toepassing (http://www.dlw.be).-->
<g style="stroke:none;fill-rule:evenodd;" transform="matrix(1,0,0,-1,0,899.999999999999)">
<path d=" M0 65 L1.56319401867222E-13 834.999995462144 A65 65 0 0 0 65.0000045378561 900 L534.999995462144 900 A65 65 0 0 0 600 834.999995462144 L599.999999999999 65.0000124791042 A65 65 0 0 0 535.000004537856 1.56319401867222E-13 L65.0000045378561 1.56319401867222E-13 A65 65 0 0 0 1.56319401867222E-13 65.0000045378561 Z" style="fill:rgb(0,0,255);" />
<path d=" M15 65 L15.0000000000001 834.999996509341 A50 50 0 0 0 65.0000034906585 885 L534.999996509342 885 A50 50 0 0 0 585 834.999996509341 L584.999999999999 65.0000095993109 A50 50 0 0 0 535.000003490658 15.0000000000001 L65.0000034906585 15.0000000000001 A50 50 0 0 0 15.0000000000001 65.0000034906585 Z" style="fill:rgb(255,255,255);" />
<path d=" M30 65 L30.0000000000001 834.999997556539 A35 35 0 0 0 65.000002443461 870 L534.999997556539 870 A35 35 0 0 0 570 834.999997556539 L569.999999999999 65.0000067195176 A35 35 0 0 0 535.000002443461 30.0000000000001 L65.000002443461 30.0000000000001 A35 35 0 0 0 30.0000000000001 65.000002443461 Z" style="fill:rgb(0,0,255);" />
<path d=" M30 65 L30 126.12 L525.92 870 L534.999997556539 870 A35 35 0 0 0 570 834.999997556539 L570 773.88 L74.08 30 L65.000002443461 30.0000000000001 A35 35 0 0 0 30.0000000000001 65.000002443461 Z" style="fill:rgb(255,0,0);" />
<path d=" M240 840 L212.44 625 L274.49 625 L280 840 Z" style="fill:rgb(255,255,255);" />
<path d=" M383.53 656.43 L360 840 L320 840 L325.51 625 L362.58 625 Z" style="fill:rgb(255,255,255);" />
<path d=" M340 60 L330.89 415.21 L397.42 515 L401.67 515 L460 60 Z" style="fill:rgb(255,255,255);" />
<path d=" M349.25 605 L309.25 545 L140 545 L150 420 L70 420 L80 545 L50 545 L50 605 Z" style="fill:rgb(255,255,255);" />
<path d=" M150.93 145.27 L266.64 318.83 L260 60 L140 60 Z" style="fill:rgb(255,255,255);" />
<path d=" M176.69 346.15 L198.33 515 L271.67 515 L270.96 487.57 Z" style="fill:rgb(255,255,255);" />
<path d=" M457.42 605 L550 605 L550 545 L520 545 L530 420 L450 420 L460 545 L417.42 545 Z" style="fill:rgb(255,255,255);" />
</g>
</svg>
