<?xml version="1.0" encoding="UTF-8"?>
<!DOCTYPE svg PUBLIC '-//W3C//DTD SVG 1.0//EN' 'http://www.w3.org/TR/2001/REC-SVG-20010904/DTD/svg10.dtd'>
<svg xmlns:xlink="http://www.w3.org/1999/xlink" xmlns="http://www.w3.org/2000/svg" width="400.000000002976" height="600.000000000025">
<!--Gegenereerd door de SIMaD-toepassing (http://www.dlw.be).-->
<g style="stroke:none;fill-rule:evenodd;" transform="matrix(1,0,0,-1,0,600.000000000025)">
<path d=" M45 0 L354.999966227879 1.26760824059602E-11 A45 45 0 0 1 399.999999999987 45.000033772121 L399.999999999888 554.999899469035 A45 45 0 0 1 355.000033772121 599.999999999987 L45.000033772121 599.999999999987 A45 45 0 0 1 1.26760824059602E-11 554.999966227879 L1.26760824059602E-11 45.000033772121 A45 45 0 0 1 45.000033772121 1.26760824059602E-11 Z" style="fill:rgb(0,0,255);" />
<path d=" M45 15 L354.999977485253 15.0000000000084 A30 30 0 0 1 384.999999999992 45.0000225147473 L384.999999999925 554.999932979357 A30 30 0 0 1 355.000022514747 584.999999999992 L45.0000225147474 584.999999999992 A30 30 0 0 1 15.0000000000084 554.999977485253 L15.0000000000084 45.0000225147474 A30 30 0 0 1 45.0000225147474 15.0000000000084 Z" style="fill:rgb(255,255,255);" />
<path d=" M45 30 L354.999988742626 30.0000000000042 A15 15 0 0 1 369.999999999996 45.0000112573737 L369.999999999963 554.999966489678 A15 15 0 0 1 355.000011257374 569.999999999996 L45.0000112573737 569.999999999996 A15 15 0 0 1 30.0000000000042 554.999988742626 L30.0000000000042 45.0000112573737 A15 15 0 0 1 45.0000112573737 30.0000000000042 Z" style="fill:rgb(0,0,255);" />
<path d=" M50 135 L50 465 L350 465 L350 135 Z" style="fill:rgb(255,255,255);" />
<path d=" M314.561294916543 358.992835051919 A33.69 33.69 0 0 1 310.623012802127 366.995861790272 A33.69 33.69 0 0 1 301.57799853098 376.106587222235 L301.581785097603 376.102444788581 A32.79 32.79 0 0 1 295.001389565145 379.559454322638 L294.998656579729 379.56769960348 A217.16 217.16 0 0 1 238.386994366097 400.82129488566 L238.386490638976 400.814009930054 A159.51 159.51 0 0 1 215.227530207423 404.220013341191 L215.23 404.22 L209.19 404.33 L188.9 404.33 L178.57259395632 404.028194882621 A154.1 154.1 0 0 1 143.799296144187 399.61075854903 L143.7963649144 399.608785257648 A205.66 205.66 0 0 1 89.1883606280237 377.542363926724 L89.1908146787154 377.539519180097 A39.39 39.39 0 0 1 79.3766595406506 367.538354144706 A39.39 39.39 0 0 1 73.6844519805097 354.734513618594 L73.68 354.73 L73.2949162013254 353.383435126698 A74.85 74.85 0 0 1 70.0000000000285 331.419934681053 L69.9963637914594 271.27610486621 A65.14 65.14 0 0 1 70.6839479171537 265.565426680638 L70.6902211812697 265.563720787053 A81.26 81.26 0 0 1 78.6942445679436 241.47640120523 L78.6919675851422 241.473396937336 A25 25 0 0 1 101.250007853982 227.250000000001 L116.25 227.25 L116.25 199.75 L70 199.75 L70 196 L320 196 L320 199.75 L273.75 199.75 L273.75 227.25 L288.750020071286 227.250000000008 A25 25 0 0 1 311.417142654854 241.704828409907 L311.413788226508 241.705525856119 A80.87 80.87 0 0 1 319.405294240371 265.769683523877 L319.405798056757 265.773484030226 A65.03 65.03 0 0 1 319.996954902244 270.38704344139 L320 270.38 L319.999999999973 331.420062139655 A72.66 72.66 0 0 1 315.173217980862 357.460931979498 L315.175936518405 357.457918446574 A67.35 67.35 0 0 1 314.565960066994 358.990463901836 Z M269.999999999973 362.669976175907 A10.42 10.42 0 0 1 259.580008365712 373.089999999997 L259.58 373.08 L230.420008365712 373.089999999997 A10.42 10.42 0 0 1 220.000000000003 362.669992725468 L220.000000000003 242.870007820122 A10.42 10.42 0 0 1 230.420007820122 232.450000000003 L230.42 232.46 L259.579992179878 232.450000000003 A10.42 10.42 0 0 1 269.999999999997 242.870007820122 L270 242.88 Z M167.69 227.25 L174.85 247.25 L215.15 247.25 L222.31 227.25 L270 227.25 L270 199.75 L120 199.75 L120 227.25 Z M103.330006251595 352.249999999998 A8.33 8.33 0 0 1 95.0000000000023 343.919993748405 L95.0000000000027 318.920006687753 A8.33 8.33 0 0 1 103.330005670051 310.590000000002 L103.33 310.58 L128.329993748405 310.590000000002 A8.33 8.33 0 0 1 136.659999999998 318.920006251595 L136.67 318.92 L136.659999999978 343.919980809058 A8.33 8.33 0 0 1 128.330006687753 352.249999999997 Z M161.670006687753 352.249999999997 A8.33 8.33 0 0 1 153.340000000002 343.919994329949 L153.33 343.92 L153.340000000002 318.920006251595 A8.33 8.33 0 0 1 161.670006251595 310.590000000002 L161.67 310.58 L186.669994329949 310.590000000002 A8.33 8.33 0 0 1 194.999999999997 318.920006687753 L194.999999999979 343.919981390601 A8.33 8.33 0 0 1 186.670006251595 352.249999999998 Z" style="fill:rgb(0,0,0);" />
<path d=" M176.47 244.96 L170.125314967809 227.250008909845 A25 25 0 1 1 219.874685032191 227.250008909845 L219.87 227.25 L213.53 244.96 Z" style="fill:rgb(0,0,0);" />
<path d=" M267.69999999998 362.669981859746 A8.12 8.12 0 0 1 259.580006093992 370.789999999998 L230.420006093992 370.789999999998 A8.12 8.12 0 0 1 222.300000000002 362.669993906008 L222.29 362.67 L222.300000000002 242.870006093992 A8.12 8.12 0 0 1 230.420006093992 234.750000000002 L259.579993906008 234.750000000002 A8.12 8.12 0 0 1 267.699999999998 242.870006093992 L267.71 242.88 Z" style="fill:rgb(0,0,0);" />
</g>
</svg>
