<?xml version="1.0" encoding="UTF-8"?>
<!DOCTYPE svg PUBLIC '-//W3C//DTD SVG 1.0//EN' 'http://www.w3.org/TR/2001/REC-SVG-20010904/DTD/svg10.dtd'>
<svg xmlns:xlink="http://www.w3.org/1999/xlink" xmlns="http://www.w3.org/2000/svg" width="400.000000002978" height="600.000000000025">
<!--Gegenereerd door de SIMaD-toepassing (http://www.dlw.be).-->
<g style="stroke:none;fill-rule:evenodd;" transform="matrix(1,0,0,-1,0,600.000000000025)">
<path d=" M45 0 L354.999966227879 1.26760824059602E-11 A45 45 0 0 1 399.999999999987 45.000033772121 L399.999999999888 554.999899469035 A45 45 0 0 1 355.000033772121 599.999999999987 L45.000033772121 599.999999999987 A45 45 0 0 1 1.26760824059602E-11 554.999966227879 L1.26760824059602E-11 45.000033772121 A45 45 0 0 1 45.000033772121 1.26760824059602E-11 Z" style="fill:rgb(0,0,255);" />
<path d=" M45 15 L354.999977485253 15.0000000000084 A30 30 0 0 1 384.999999999992 45.0000225147473 L384.999999999925 554.999932979357 A30 30 0 0 1 355.000022514747 584.999999999992 L45.0000225147474 584.999999999992 A30 30 0 0 1 15.0000000000084 554.999977485253 L15.0000000000084 45.0000225147474 A30 30 0 0 1 45.0000225147474 15.0000000000084 Z" style="fill:rgb(255,255,255);" />
<path d=" M45 30 L354.999988742626 30.0000000000042 A15 15 0 0 1 369.999999999996 45.0000112573737 L369.999999999963 554.999966489678 A15 15 0 0 1 355.000011257374 569.999999999996 L45.0000112573737 569.999999999996 A15 15 0 0 1 30.0000000000042 554.999988742626 L30.0000000000042 45.0000112573737 A15 15 0 0 1 45.0000112573737 30.0000000000042 Z" style="fill:rgb(0,0,255);" />
<path d=" M50 450 L50 150 L350 150 L350 450 Z" style="fill:rgb(255,255,255);" />
<path d=" M64.84 191.32 L64.84 197.34 L111.91 197.34 L111.91679182875 233.887683718103 A118.67 118.67 0 0 1 93.6423884848331 233.236963015675 L93.6369599769618 233.234605223266 A506.71 506.71 0 0 1 66.3077874776779 229.384662310467 L66.307060277947 229.387805872708 A774.83 774.83 0 0 0 87.7801744781702 277.70231276545 L87.7793644977462 277.700612183875 A97.42 97.42 0 0 0 78.7780954166794 273.416875727198 L78.7856033875635 273.414007875586 A1095.46 1095.46 0 0 0 106.60278268745 350.575500429467 L106.596445106426 350.570949099112 A1396.5 1396.5 0 0 0 97.9747120307167 346.070296042559 L97.9778239438201 346.074183097026 A10421 10421 0 0 0 114.895934774993 411.577639369875 L114.892192168937 411.575061551524 A4866.19 4866.19 0 0 0 131.864507484177 346.071684476445 L131.862405487055 346.080660443417 A2635.88 2635.88 0 0 0 123.186488492535 350.581292373283 L123.189527531207 350.579290306706 A1076.91 1076.91 0 0 0 151.060993389656 273.41762367907 L151.064731574863 273.413204365857 A64.44 64.44 0 0 0 141.63023175445 277.967790460811 L141.62838827953 277.968900392698 A582.25 582.25 0 0 0 163.480971823092 229.383503979669 L163.477767660041 229.374839130923 A283.99 283.99 0 0 1 132.244732897263 233.550088654733 L132.250458278183 233.557829737329 A131.04 131.04 0 0 1 117.935472751836 233.883170274333 L117.93 233.88 L117.93 197.34 L164.62 197.34 L164.62 318.96 L323.82 318.96 L323.82 197.34 L335.16 197.34 L335.16 191.32 Z M220.85 197.34 L220.85 271.9 L267.54 271.9 L267.54 197.34 Z" style="fill:rgb(0,0,0);" />
<path d=" M153.34 323.46 L244.38 412.34 L335.53 323.46 Z" style="fill:rgb(0,0,0);" />
</g>
</svg>
