<?xml version="1.0" encoding="UTF-8"?>
<!DOCTYPE svg PUBLIC '-//W3C//DTD SVG 1.0//EN' 'http://www.w3.org/TR/2001/REC-SVG-20010904/DTD/svg10.dtd'>
<svg xmlns:xlink="http://www.w3.org/1999/xlink" xmlns="http://www.w3.org/2000/svg" width="400.00000000298" height="600.000000000025">
<!--Gegenereerd door de SIMaD-toepassing (http://www.dlw.be).-->
<g style="stroke:none;fill-rule:evenodd;" transform="matrix(1,0,0,-1,0,600.000000000025)">
<path d=" M45 0 L354.999966227879 1.26760824059602E-11 A45 45 0 0 1 399.999999999987 45.000033772121 L399.999999999888 554.999899469035 A45 45 0 0 1 355.000033772121 599.999999999987 L45.000033772121 599.999999999987 A45 45 0 0 1 1.26760824059602E-11 554.999966227879 L1.26760824059602E-11 45.000033772121 A45 45 0 0 1 45.000033772121 1.26760824059602E-11 Z" style="fill:rgb(0,0,255);" />
<path d=" M45 15 L354.999977485253 15.0000000000084 A30 30 0 0 1 384.999999999992 45.0000225147473 L384.999999999925 554.999932979357 A30 30 0 0 1 355.000022514747 584.999999999992 L45.0000225147474 584.999999999992 A30 30 0 0 1 15.0000000000084 554.999977485253 L15.0000000000084 45.0000225147474 A30 30 0 0 1 45.0000225147474 15.0000000000084 Z" style="fill:rgb(255,255,255);" />
<path d=" M45 30 L354.999988742626 30.0000000000042 A15 15 0 0 1 369.999999999996 45.0000112573737 L369.999999999963 554.999966489678 A15 15 0 0 1 355.000011257374 569.999999999996 L45.0000112573737 569.999999999996 A15 15 0 0 1 30.0000000000042 554.999988742626 L30.0000000000042 45.0000112573737 A15 15 0 0 1 45.0000112573737 30.0000000000042 Z" style="fill:rgb(0,0,255);" />
<path d=" M100.06 135.04 L100.06 465.04 L300.02 465.04 L300.02 135.04 Z" style="fill:rgb(255,255,255);" />
<path d=" M127.7 357.23 L127.7 366.08 L229.24 366.08 L229.275964996684 182.168467137748 A24.73 24.73 0 0 1 232.838479597908 168.466488198784 L232.842587332293 168.468982235354 A15.73 15.73 0 0 1 246.227643166315 162.59834363493 L246.23 162.6 L271.87 162.6 L271.99 153.75 L127.7 153.75 L127.7 162.67 L156.116754172852 162.672411733991 A13.71 13.71 0 0 1 169.071091598773 170.460669018005 L169.076993265978 170.462869943945 A25.63 25.63 0 0 1 171.543653523429 182.87447767394 L171.54 182.87 L171.537414287154 337.735572857591 A20.52 20.52 0 0 1 165.743900515968 353.824316888321 L165.750054234855 353.824403270755 A17.45 17.45 0 0 1 154.789494258931 357.230005819086 L154.79 357.23 Z" style="fill:rgb(0,0,0);" />
<path d=" M231.64 414.53 A31.35 31.35 0 0 1 168.94 414.53 A31.35 31.35 0 0 1 231.64 414.53 Z" style="fill:rgb(0,0,0);" />
</g>
</svg>
