<svg xmlns:xlink="http://www.w3.org/1999/xlink" xmlns="http://www.w3.org/2000/svg" width="100%" height="100%"  viewBox="-0.000023245811462402344 0 2000.0001220703125 2500"><rect id="svgEditorBackground" x="-0.000023245813281391747" y="0" width="2000.0001220703125" height="2500" style="fill: none; stroke: none;"/>
<!--Gegenereerd door de SIMaD-toepassing (http://www.dlw.be).-->
<g style="stroke:none;fill-rule:evenodd;" transform="matrix(1,0,0,-1,0,2500.00000000004)">
<path d=" M65 0 L1934.99995121805 1.83035808731802E-11 A65 65 0 0 1 1999.99999999998 65.0000487819526 L1999.99999999984 2434.99985478861 A65 65 0 0 1 1935.00004878195 2499.99999999998 L65.0000487819526 2499.99999999998 A65 65 0 0 1 1.83035808731802E-11 2434.99995121805 L1.83035808731802E-11 65.0000487819526 A65 65 0 0 1 65.0000487819526 1.83035808731802E-11 Z" style="fill:rgb(255,128,0);"/>
<path d=" M65 15 L1934.99999650934 15.0000000000001 A50 50 0 0 1 1985 65.0000034906585 L1985 2434.99999040069 A50 50 0 0 1 1935.00000349066 2485 L65.0000034906585 2485 A50 50 0 0 1 15.0000000000001 2434.99999650934 L15.0000000000001 65.0000034906585 A50 50 0 0 1 65.0000034906585 15.0000000000001 Z" style="fill:rgb(0,0,0);"/>
<path d=" M65 30 L1934.99999755654 30.0000000000001 A35 35 0 0 1 1970 65.000002443461 L1970 444.999993280482 A35 35 0 0 1 1935.00000244346 480 L65.000002443461 480 A35 35 0 0 1 30.0000000000001 444.999997556539 L30.0000000000001 65.000002443461 A35 35 0 0 1 65.000002443461 30.0000000000001 Z" style="fill:rgb(255,128,0);"/>
<path d=" M65 500 L1934.99999755654 500 A35 35 0 0 1 1970 535.000002443461 L1970 2434.99999328048 A35 35 0 0 1 1935.00000244346 2470 L65.000002443461 2470 A35 35 0 0 1 30.0000000000001 2434.99999755654 L30.0000000000001 535.000002443461 A35 35 0 0 1 65.000002443461 500 Z" style="fill:rgb(255,128,0);"/>
<path d=" M1170 2160 L1070 2160 L1070 1700 L1710 1060 L1710 560 L1610 560 L1610 1018.58 L1070 1558.58 L1070 560 L970 560 L970 2160 L870 2160 L1020 2410 Z" style="fill:rgb(0,0,0);"/>
<path d=" M410 2410 L560 2160 L460 2160 L460 560 L360 560 L360 2160 L260 2160 Z" style="fill:rgb(0,0,0);"/>
<path d=" M1370 1660 L1930 1100 L1930 2430 L1370 2430 Z M1400 2238.11 L1400 2337.11 L1900 1837.11 L1900 1738.11 Z M1400 2195.69 L1900 1695.69 L1900 1596.69 L1400 2096.69 Z M1900 2400 L1803.8 2400 L1900 2303.8 Z M1400 2379.53 L1400 2400 L1478.53 2400 L1900 1978.53 L1900 1879.53 Z M1619.95 2400 L1900 2119.95 L1900 2020.95 L1520.95 2400 Z M1761.37 2400 L1900 2261.37 L1900 2162.38 L1662.38 2400 Z M1400 1813.85 L1400 1912.84 L1900 1412.84 L1900 1313.85 Z M1400 1955.27 L1400 2054.26 L1900 1554.26 L1900 1455.27 Z M1400 1672.43 L1400 1771.42 L1900 1271.42 L1900 1172.43 Z" style="fill:rgb(0,0,0);"/>





</g>
</svg>