<?xml version="1.0" encoding="UTF-8"?>
<!DOCTYPE svg PUBLIC '-//W3C//DTD SVG 1.0//EN' 'http://www.w3.org/TR/2001/REC-SVG-20010904/DTD/svg10.dtd'>
<svg xmlns:xlink="http://www.w3.org/1999/xlink" xmlns="http://www.w3.org/2000/svg" width="700.000000000003" height="1100">
<!--Gegenereerd door de SIMaD-toepassing (http://www.dlw.be).-->
<g style="stroke:none;fill-rule:evenodd;" transform="matrix(1,0,0,-1,0,1100)">
<path d=" M65 1100 L634.999995462144 1100 A65 65 0 0 0 700 1034.99999546214 L699.999999999999 65.0000124791042 A65 65 0 0 0 635.000004537856 1.56319401867222E-13 L65.0000045378561 1.56319401867222E-13 A65 65 0 0 0 1.56319401867222E-13 65.0000045378561 L1.56319401867222E-13 1034.99999546214 A65 65 0 0 0 65.0000045378561 1100 Z" style="fill:rgb(0,0,255);" />
<path d=" M65 1085 L634.999996509341 1085 A50 50 0 0 0 685 1034.99999650934 L684.999999999999 65.0000095993109 A50 50 0 0 0 635.000003490659 15.0000000000001 L65.0000034906585 15.0000000000001 A50 50 0 0 0 15.0000000000001 65.0000034906585 L15.0000000000001 1034.99999650934 A50 50 0 0 0 65.0000034906585 1085 Z" style="fill:rgb(255,255,255);" />
<path d=" M65 1070 L634.999997556539 1070 A35 35 0 0 0 670 1034.99999755654 L669.999999999999 65.0000067195176 A35 35 0 0 0 635.000002443461 30.0000000000001 L65.000002443461 30.0000000000001 A35 35 0 0 0 30.0000000000001 65.000002443461 L30.0000000000001 1034.99999755654 A35 35 0 0 0 65.000002443461 1070 Z" style="fill:rgb(0,0,255);" />
<path d=" M100 800 L600 800 L600 300 L100 300 Z" style="fill:rgb(255,255,255);" />
<path d=" M350 378.1 L160 378.1 L160 604.29 L236.9 693.86 L350 693.86 L463.1 693.86 L540 604.29 L540 378.1 Z" style="fill:rgb(0,0,0);" />
<path d=" M501.72 625.26 L449.874036197008 571.109068473179 A146.34 146.34 0 0 0 459.465330631065 554.001922689715 L459.46 554 L525.25 597.86 Z" style="fill:rgb(255,255,255);" />
<path d=" M440.02 583.56 L489.03 639.9 L466.38 666.42 L415.641788116275 603.973753463648 A100.29 100.29 0 0 0 440.021740797882 583.564864899751 Z" style="fill:rgb(255,255,255);" />
<path d=" M198.28 625.26 L250.125963802992 571.109068473179 A146.34 146.34 0 0 1 240.534669368935 554.001922689715 L240.54 554 L174.75 597.86 Z" style="fill:rgb(255,255,255);" />
<path d=" M259.98 583.56 L210.97 639.9 L233.62 666.42 L284.358211883725 603.973753463648 A100.29 100.29 0 0 1 259.978259202118 583.564864899751 Z" style="fill:rgb(255,255,255);" />
<path d=" M401.96 611.53 L456.36 678.48 L402.41 678.48 L382.377622631914 618.739765161196 A120 120 0 0 0 401.964394296454 611.528832520333 Z" style="fill:rgb(255,255,255);" />
<path d=" M467.62 513.81 L524.62 513.81 L524.62 578.95 L467.62 540.95 L467.62 513.81 Z" style="fill:rgb(255,255,255);" />
<path d=" M524.62 498.43 L467.62 498.43 L467.62 474 L524.62 474 Z" style="fill:rgb(255,255,255);" />
<path d=" M524.62 458.62 L467.62 458.62 L467.62 434.19 L524.62 434.19 Z" style="fill:rgb(255,255,255);" />
<path d=" M524.62 418.81 L467.62 418.81 L467.62 394.38 L524.62 394.38 Z" style="fill:rgb(255,255,255);" />
<path d=" M349.996674362584 622.936667883935 A119.75 119.75 0 0 0 367.186752608324 621.825906682686 L367.19 621.83 L386.19 678.48 L350 678.48 L313.81 678.48 L332.813247391676 621.825906682686 A119.75 119.75 0 0 0 350.003325637416 622.936667883935 Z" style="fill:rgb(255,255,255);" />
<path d=" M298.04 611.53 L243.64 678.48 L297.59 678.48 L317.622377368086 618.739765161196 A120 120 0 0 1 298.035605703546 611.528832520333 Z" style="fill:rgb(255,255,255);" />
<path d=" M232.38 513.81 L175.38 513.81 L175.38 578.95 L232.38 540.95 L232.38 513.81 Z" style="fill:rgb(255,255,255);" />
<path d=" M175.38 498.43 L232.38 498.43 L232.38 474 L175.38 474 Z" style="fill:rgb(255,255,255);" />
<path d=" M175.38 458.62 L232.38 458.62 L232.38 434.19 L175.38 434.19 Z" style="fill:rgb(255,255,255);" />
<path d=" M175.38 418.81 L232.38 418.81 L232.38 394.38 L175.38 394.38 Z" style="fill:rgb(255,255,255);" />
</g>
</svg>
