<svg xmlns:xlink="http://www.w3.org/1999/xlink" xmlns="http://www.w3.org/2000/svg" width="100%" height="100%"  viewBox="-0.000003138347892672755 0 1100 1300"><rect id="svgEditorBackground" x="-0.0000031383481200464303" y="0" width="1100" height="1300" style="fill: none; stroke: none;"/>
<!--Gegenereerd door de SIMaD-toepassing (http://www.dlw.be).-->
<g style="stroke:none;fill-rule:evenodd;" transform="matrix(1,0,0,-1,0,1300)">
<path d=" M0 65 L1.56319401867222E-13 1234.99999546214 A65 65 0 0 0 65.0000045378561 1300 L1034.99999546214 1300 A65 65 0 0 0 1100 1234.99999546214 L1100 65.0000124791042 A65 65 0 0 0 1035.00000453786 1.56319401867222E-13 L65.0000045378561 1.56319401867222E-13 A65 65 0 0 0 1.56319401867222E-13 65.0000045378561 Z" style="fill:rgb(255,128,0);"/>
<path d=" M15 65 L15.0000000000001 1234.99999650934 A50 50 0 0 0 65.0000034906585 1285 L1034.99999650934 1285 A50 50 0 0 0 1085 1234.99999650934 L1085 65.0000095993109 A50 50 0 0 0 1035.00000349066 15.0000000000001 L65.0000034906585 15.0000000000001 A50 50 0 0 0 15.0000000000001 65.0000034906585 Z" style="fill:rgb(0,0,0);"/>
<path d=" M30 365 L30.0000000000001 1234.99999755654 A35 35 0 0 0 65.000002443461 1270 L1034.99999755654 1270 A35 35 0 0 0 1070 1234.99999755654 L1070 365.000006719518 A35 35 0 0 0 1035.00000244346 330 L65.000002443461 330 A35 35 0 0 0 30.0000000000001 365.000002443461 Z" style="fill:rgb(255,128,0);"/>
<path d=" M30 65 L30.0000000000001 274.999997556539 A35 35 0 0 0 65.000002443461 310 L1034.99999755654 310 A35 35 0 0 0 1070 274.999997556539 L1070 65.0000067195176 A35 35 0 0 0 1035.00000244346 30.0000000000001 L65.000002443461 30.0000000000001 A35 35 0 0 0 30.0000000000001 65.000002443461 Z" style="fill:rgb(255,128,0);"/>
<path d=" M105 550 L485 930 L485 1040 L405 1040 L525 1240 L645 1040 L565 1040 L565 896.86 L185 516.86 L185 360 L105 360 Z" style="fill:rgb(0,0,0);"/>





<path d=" M470 550 L850 930 L850 1040 L770 1040 L890 1240 L1010 1040 L930 1040 L930 896.86 L550 516.86 L550 360 L470 360 Z" style="fill:rgb(0,0,0);"/>
<path d=" M60 667.13 L98.28 667.13 L300 868.85 L300 1240 L60 1240 Z M80 1220 L80 1136.75 L163.25 1220 Z M80 1044.83 L80 1108.47 L191.53 1220 L255.17 1220 Z M80 1016.54 L80 952.9 L280 1152.9 L280 1216.54 Z M80 687.13 L90 687.13 L280 877.13 L280 940.77 L80 740.77 Z M80 832.7 L80 769.06 L280 969.06 L280 1032.7 Z M80 924.62 L80 860.98 L280 1060.98 L280 1124.62 Z" style="fill:rgb(0,0,0);"/>
</g>
</svg>