<svg xmlns:xlink="http://www.w3.org/1999/xlink" xmlns="http://www.w3.org/2000/svg" width="100%" height="100%"  viewBox="-0.000028814991310355254 0 2000.0001220703125 2500"><rect id="svgEditorBackground" x="-0.00002881499494833406" y="0" width="2000.0001220703125" height="2500" style="fill: none; stroke: none;"/>
<!--Gegenereerd door de SIMaD-toepassing (http://www.dlw.be).-->
<g style="stroke:none;fill-rule:evenodd;" transform="matrix(1,0,0,-1,0,2500.00000000004)">
<path d=" M1935 0 L65.0000487819526 1.83035808731802E-11 A65 65 0 0 0 1.83035808731802E-11 65.0000487819526 L1.83035808731802E-11 2434.99995121805 A65 65 0 0 0 65.0000487819526 2499.99999999998 L1934.99995121805 2499.99999999998 A65 65 0 0 0 1999.99999999998 2434.99995121805 L1999.99999999984 65.0001452113938 A65 65 0 0 0 1935.00004878195 1.83035808731802E-11 Z" style="fill:rgb(255,128,0);"/>
<path d=" M1935 15 L65.0000034906585 15.0000000000001 A50 50 0 0 0 15.0000000000001 65.0000034906585 L15.0000000000001 2434.99999650934 A50 50 0 0 0 65.0000034906585 2485 L1934.99999650934 2485 A50 50 0 0 0 1985 2434.99999650934 L1985 65.0000095993109 A50 50 0 0 0 1935.00000349066 15.0000000000001 Z" style="fill:rgb(0,0,0);"/>
<path d=" M1935 30 L65.000002443461 30.0000000000001 A35 35 0 0 0 30.0000000000001 65.000002443461 L30.0000000000001 444.999997556539 A35 35 0 0 0 65.000002443461 480 L1934.99999755654 480 A35 35 0 0 0 1970 444.999997556539 L1970 65.0000067195176 A35 35 0 0 0 1935.00000244346 30.0000000000001 Z" style="fill:rgb(255,128,0);"/>
<path d=" M1935 500 L65.000002443461 500 A35 35 0 0 0 30.0000000000001 535.000002443461 L30.0000000000001 2434.99999755654 A35 35 0 0 0 65.000002443461 2470 L1934.99999755654 2470 A35 35 0 0 0 1970 2434.99999755654 L1970 535.000006719518 A35 35 0 0 0 1935.00000244346 500 Z" style="fill:rgb(255,128,0);"/>
<path d=" M260 798.58 L1420 1958.58 L1420 2180 L1520 2180 L1370 2430 L1220 2180 L1320 2180 L1320 2000 L160 840 L160 540 L260 540 Z" style="fill:rgb(0,0,0);"/>
<path d=" M655 540 L655 718.58 L1815 1878.58 L1815 2180 L1915 2180 L1765 2430 L1615 2180 L1715 2180 L1715 1920 L555 760 L555 540 Z" style="fill:rgb(0,0,0);"/>





<path d=" M850 540 L850 640 A150 150 0 0 0 1150 640 L1150 540 Z" style="fill:rgb(0,0,0);"/>
<path d=" M1150 2430 L1150 2230 A150 150 0 0 0 850 2230 L850 2430 Z" style="fill:rgb(0,0,0);"/>
</g>
</svg>