<?xml version="1.0" encoding="UTF-8"?>
<!DOCTYPE svg PUBLIC '-//W3C//DTD SVG 1.0//EN' 'http://www.w3.org/TR/2001/REC-SVG-20010904/DTD/svg10.dtd'>
<svg xmlns:xlink="http://www.w3.org/1999/xlink" xmlns="http://www.w3.org/2000/svg" width="2000" height="1750">
<!--Gegenereerd door de SIMaD-toepassing (http://www.dlw.be).-->
<g style="stroke:none;fill-rule:evenodd;" transform="matrix(1,0,0,-1,0,1750)">
<path d=" M0 65 L1.56319401867222E-13 1684.99999546214 A65 65 0 0 0 65.0000045378561 1750 L1934.99999546214 1750 A65 65 0 0 0 2000 1684.99999546214 L2000 65.0000124791042 A65 65 0 0 0 1935.00000453786 1.56319401867222E-13 L65.0000045378561 1.56319401867222E-13 A65 65 0 0 0 1.56319401867222E-13 65.0000045378561 Z" style="fill:rgb(255,128,0);" />
<path d=" M15 65 L15.0000000000001 1684.99999650934 A50 50 0 0 0 65.0000034906585 1735 L1934.99999650934 1735 A50 50 0 0 0 1985 1684.99999650934 L1985 65.0000095993109 A50 50 0 0 0 1935.00000349066 15.0000000000001 L65.0000034906585 15.0000000000001 A50 50 0 0 0 15.0000000000001 65.0000034906585 Z" style="fill:rgb(0,0,0);" />
<path d=" M30 65 L30.0000000000001 1684.99999755654 A35 35 0 0 0 65.000002443461 1720 L1934.99999755654 1720 A35 35 0 0 0 1970 1684.99999755654 L1970 65.0000067195176 A35 35 0 0 0 1935.00000244346 30.0000000000001 L65.000002443461 30.0000000000001 A35 35 0 0 0 30.0000000000001 65.000002443461 Z" style="fill:rgb(255,128,0);" />
<path d=" M342.5 380 L342.5 1180 L242.5 1180 L242.5 380 L142.5 380 L292.5 130 L442.5 380 Z" style="fill:rgb(0,0,0);" />
<path d=" M787.5 380 L787.5 1180 L687.5 1180 L687.5 380 L587.5 380 L737.5 130 L887.5 380 Z" style="fill:rgb(0,0,0);" />
<path d=" M1212.5 1370 L1212.5 130 L1312.5 130 L1312.5 1370 L1412.5 1370 L1262.5 1620 L1112.5 1370 Z" style="fill:rgb(0,0,0);" />
<path d=" M1657.5 1370 L1657.5 130 L1757.5 130 L1757.5 1370 L1857.5 1370 L1707.5 1620 L1557.5 1370 Z" style="fill:rgb(0,0,0);" />
</g>
</svg>
