<?xml version="1.0" encoding="UTF-8"?>
<!DOCTYPE svg PUBLIC '-//W3C//DTD SVG 1.0//EN' 'http://www.w3.org/TR/2001/REC-SVG-20010904/DTD/svg10.dtd'>
<svg xmlns:xlink="http://www.w3.org/1999/xlink" xmlns="http://www.w3.org/2000/svg" width="700" height="699.999999999999">
<!--Gegenereerd door de SIMaD-toepassing (http://www.dlw.be).-->
<g style="stroke:none;fill-rule:evenodd;" transform="matrix(1,0,0,-1,0,699.999999999999)">
<path d=" M0 65 L1.56319401867222E-13 634.999995462144 A65 65 0 0 0 65.0000045378561 700 L634.999995462144 700 A65 65 0 0 0 700 634.999995462144 L699.999999999999 65.0000124791042 A65 65 0 0 0 635.000004537856 1.56319401867222E-13 L65.0000045378561 1.56319401867222E-13 A65 65 0 0 0 1.56319401867222E-13 65.0000045378561 Z" style="fill:rgb(0,0,255);" />
<path d=" M15 65 L15.0000000000001 634.999996509341 A50 50 0 0 0 65.0000034906585 685 L634.999996509341 685 A50 50 0 0 0 685 634.999996509341 L684.999999999999 65.0000095993109 A50 50 0 0 0 635.000003490659 15.0000000000001 L65.0000034906585 15.0000000000001 A50 50 0 0 0 15.0000000000001 65.0000034906585 Z" style="fill:rgb(255,255,255);" />
<path d=" M30 65 L30.0000000000001 634.999997556539 A35 35 0 0 0 65.000002443461 670 L634.999997556539 670 A35 35 0 0 0 670 634.999997556539 L669.999999999999 65.0000067195176 A35 35 0 0 0 635.000002443461 30.0000000000001 L65.000002443461 30.0000000000001 A35 35 0 0 0 30.0000000000001 65.000002443461 Z" style="fill:rgb(0,0,255);" />
<path d=" M350 596.31 L625 120 L75 120 Z" style="fill:rgb(255,255,255);" />
<path d=" M267.751644563108 220.270269096478 A105 105 0 0 0 432.248355436892 220.270269096478 L432.244582862007 220.270275539459 A80 80 0 0 1 494.910006981317 190 L549.59 190 L549.59 155 L150.41 155 L150.41 190 L205.089993018683 190 A80 80 0 0 1 267.755417137993 220.270275539459 Z" style="fill:rgb(0,0,0);" />
</g>
</svg>
