<?xml version="1.0" encoding="UTF-8"?>
<!DOCTYPE svg PUBLIC '-//W3C//DTD SVG 1.0//EN' 'http://www.w3.org/TR/2001/REC-SVG-20010904/DTD/svg10.dtd'>
<svg xmlns:xlink="http://www.w3.org/1999/xlink" xmlns="http://www.w3.org/2000/svg" width="900" height="899.999999999999">
<!--Gegenereerd door de SIMaD-toepassing (http://www.dlw.be).-->
<g style="stroke:none;fill-rule:evenodd;" transform="matrix(1,0,0,-1,0,899.999999999999)">
<path d=" M0 65 L1.56319401867222E-13 834.999995462144 A65 65 0 0 0 65.0000045378561 900 L834.999995462144 900 A65 65 0 0 0 900 834.999995462144 L899.999999999999 65.0000124791042 A65 65 0 0 0 835.000004537856 1.56319401867222E-13 L65.0000045378561 1.56319401867222E-13 A65 65 0 0 0 1.56319401867222E-13 65.0000045378561 Z" style="fill:rgb(0,0,255);" />
<path d=" M15 65 L15.0000000000001 834.999996509341 A50 50 0 0 0 65.0000034906585 885 L834.999996509341 885 A50 50 0 0 0 885 834.999996509341 L884.999999999999 65.0000095993109 A50 50 0 0 0 835.000003490659 15.0000000000001 L65.0000034906585 15.0000000000001 A50 50 0 0 0 15.0000000000001 65.0000034906585 Z" style="fill:rgb(255,255,255);" />
<path d=" M30 65 L30.0000000000001 834.999997556539 A35 35 0 0 0 65.000002443461 870 L834.999997556539 870 A35 35 0 0 0 870 834.999997556539 L869.999999999999 65.0000067195176 A35 35 0 0 0 835.000002443461 30.0000000000001 L65.000002443461 30.0000000000001 A35 35 0 0 0 30.0000000000001 65.000002443461 Z" style="fill:rgb(0,0,255);" />
<path d=" M255.15 668.62 L187.995002936031 524.583740198964 A2079.3 2079.3 0 0 0 178.178166257909 501.967972946434 L178.174223033906 501.96374214836 A45.6 45.6 0 0 0 169.614709476462 488.779180703519 L169.618670007057 488.780244752783 A195.22 195.22 0 0 0 150.58933921474 469.452796931149 L150.588499756062 469.4526734589 A5.01 5.01 0 0 1 149.061638242773 465.978111313872 L149.06876433791 465.98181139139 A1420.06 1420.06 0 0 1 148.002812532906 384.52647958484 L148.001424742651 384.520523662441 A130.81 130.81 0 0 1 150.003439577278 361.103726914119 L150.002794344842 361.109986931352 A336.06 336.06 0 0 1 171.210259694559 297.487615596733 L171.21 297.48 L184.24 297.48 L184.24 222.37 L150 222.37 L150 210 L750 210 L750 222.37 L715.76 222.37 L715.76 297.48 L728.789740305441 297.487615596733 A336.06 336.06 0 0 1 749.997205655159 361.109986931352 L749.996560422722 361.103726914119 A130.81 130.81 0 0 1 751.998575257349 384.520523662441 L751.997187467094 384.52647958484 A1420.06 1420.06 0 0 1 750.93123566209 465.98181139139 L750.938361757227 465.978111313872 A5.01 5.01 0 0 1 749.411500243938 469.4526734589 L749.41066078526 469.452796931148 A195.22 195.22 0 0 0 730.381329992943 488.780244752783 L730.385290523538 488.779180703519 A45.6 45.6 0 0 0 721.825776966094 501.96374214836 L721.821833742091 501.967972946434 A2079.3 2079.3 0 0 0 712.004997063968 524.583740198965 L712 524.58 L644.85 668.62 Z M704.05 486.58 L630.71 645.64 L269.29 645.64 L193.294549925215 486.586409836674 A2421.54 2421.54 0 0 0 704.045450074785 486.586409836674 Z M666.94 369.94 L232.18 369.94 L232.18 377.89 L666.94 377.89 Z M243.67 222.37 L656.33 222.37 L656.33 297.48 L243.67 297.48 Z M243.56 428.32 A29.96 29.96 0 0 1 183.64 428.32 A29.96 29.96 0 0 1 243.56 428.32 Z M609.5 418.54 L609.5 407.94 L294.92 407.94 L294.92 418.54 Z M604.2 329.29 L295.8 329.29 L295.8 338.13 L604.2 338.13 Z M716.34 427.34 A29.95 29.95 0 0 1 656.44 427.34 A29.95 29.95 0 0 1 716.34 427.34 Z" style="fill:rgb(255,255,255);" />
</g>
</svg>
