<svg xmlns:xlink="http://www.w3.org/1999/xlink" xmlns="http://www.w3.org/2000/svg" width="100%" height="100%"  viewBox="-0.000007748603820800781 0 600 900"><rect id="svgEditorBackground" x="-0.000007748603820800781" y="0" width="600" height="900" style="fill: none; stroke: none;"/>
<!--Gegenereerd door de SIMaD-toepassing (http://www.dlw.be).-->
<g style="stroke:none;fill-rule:evenodd;" transform="matrix(1,0,0,-1,0,899.999999999999)">
<path d=" M65 0 L534.999995462144 1.56319401867222E-13 A65 65 0 0 1 600 65.0000045378561 L599.999999999999 834.999987520896 A65 65 0 0 1 535.000004537856 900 L65.0000045378561 900 A65 65 0 0 1 1.56319401867222E-13 834.999995462144 L1.56319401867222E-13 65.0000045378561 A65 65 0 0 1 65.0000045378561 1.56319401867222E-13 Z" style="fill:rgb(0,0,255);"/>
<path d=" M65 15 L534.999996509342 15.0000000000001 A50 50 0 0 1 585 65.0000034906585 L584.999999999999 834.999990400689 A50 50 0 0 1 535.000003490658 885 L65.0000034906585 885 A50 50 0 0 1 15.0000000000001 834.999996509341 L15.0000000000001 65.0000034906585 A50 50 0 0 1 65.0000034906585 15.0000000000001 Z" style="fill:rgb(255,255,255);"/>
<path d=" M65 30 L534.999997556539 30.0000000000001 A35 35 0 0 1 570 65.000002443461 L569.999999999999 834.999993280482 A35 35 0 0 1 535.000002443461 870 L65.000002443461 870 A35 35 0 0 1 30.0000000000001 834.999997556539 L30.0000000000001 65.000002443461 A35 35 0 0 1 65.000002443461 30.0000000000001 Z" style="fill:rgb(0,0,255);"/>







<path d=" M99.31 495 L500.69 495 L500.69 805 L99.31 805 Z" style="fill:rgb(255,255,255);"/>
<path d=" M413.55 719.86 L413.55 701.570004487765 A28.57 28.57 0 0 1 470.69 701.569995512235 L470.69 719.86 A28.57 28.57 0 0 1 413.55 719.86 Z M430.21 722.24 L430.22 699.190001869248 A11.9 11.9 0 0 1 454.02 699.189998130752 L454.02 722.24 A11.9 11.9 0 0 1 430.22 722.24 Z" style="fill:rgb(0,0,0);"/>
<path d=" M129.31 675 L147.64 675 L147.64 718.33 L157.3 718.33 L182.41 675 L203.6 675 L177.978553276181 719.203186503998 A26.67 26.67 0 0 1 197.879999999991 745.000021412048 L197.879999999991 748.330021412048 A26.67 26.67 0 0 1 171.210029790676 774.999999999983 L129.31 775 Z M147.64 735 L169.550011170107 735.000000000006 A10 10 0 0 1 179.549999999997 744.999991971485 L179.549999999997 748.330008028515 A10 10 0 0 1 169.550011170107 758.329999999994 L147.64 758.33 Z" style="fill:rgb(0,0,0);"/>
<path d=" M230.38 525 L247.05 525 L247.05 572.239997715364 A11.9 11.9 0 0 0 270.85 572.240002284636 L270.86 572.24 L270.86 525 L287.52 525 L287.519999999996 574.91001436755 A23.52 23.52 0 0 1 247.043290988222 591.209092597132 L247.05 591.21 L247.05 596.43 L230.38 596.43 Z" style="fill:rgb(0,0,0);"/>
<path d=" M190.9 622.14 L190.9 607.86 L205.19 607.86 L205.19 622.14 Z" style="fill:rgb(0,0,0);"/>
<path d=" M189.71 525 L206.38 525 L206.38 596.43 L189.71 596.43 Z" style="fill:rgb(0,0,0);"/>
<path d=" M353.14 569.86 L353.14 551.570004487765 A28.57 28.57 0 0 1 410.28 551.569995512235 L410.29 551.57 L410.28 569.86 A28.57 28.57 0 0 1 353.14 569.86 Z M369.81 572.24 L369.81 549.190001869248 A11.9 11.9 0 0 1 393.61 549.189998130752 L393.62 549.19 L393.61 572.24 A11.9 11.9 0 0 1 369.81 572.24 Z" style="fill:rgb(0,0,0);"/>
<path d=" M311.86 525 L328.52 525 L328.52 582.14 L336.86 582.14 L336.86 596.43 L328.52 596.43 L328.530000000002 602.379993748405 A8.33 8.33 0 0 0 336.860006106209 610.709999999998 L346.14 610.71 L346.14 625 L334.480016581326 624.999999999994 A22.62 22.62 0 0 1 311.860000000006 602.379983023881 L311.86 596.43 L303.52 596.43 L303.52 582.14 L311.86 582.14 Z" style="fill:rgb(0,0,0);"/>
<path d=" M239.13 675 L249.169996217697 675 A16.67 16.67 0 0 1 261.077146643904 680.003434147078 L261.07 680 L261.07 675 L277.74 675 L277.739999999998 719.860011967374 A28.57 28.57 0 0 1 221.066648105811 725.002617262774 L221.06 725 L237.59468379868 725.000806918179 A11.9 11.9 0 0 0 258.629977164409 729.459337369099 L258.631984103287 729.453536042794 A8.33 8.33 0 0 0 252.010001308473 716.07 L239.129996773584 716.08 A20.54 20.54 0 1 1 239.130003226416 675 Z M241.51 689.29 L252.740009304699 689.290000000005 A8.33 8.33 0 0 1 261.069999999997 697.619993312247 L261.078322822744 708.170889445683 A14.29 14.29 0 0 0 249.170017209121 701.78000000001 L249.17 701.79 L241.509999018252 701.79 A6.25 6.25 0 1 1 241.510000981748 689.29 Z" style="fill:rgb(0,0,0);"/>
<path d=" M378.07 772.14 L378.07 757.86 L392.36 757.86 L392.36 772.14 Z" style="fill:rgb(0,0,0);"/>
<path d=" M376.88 675 L393.55 675 L393.55 746.43 L376.88 746.43 Z" style="fill:rgb(0,0,0);"/>
<path d=" M336.21 675 L352.88 675 L352.88 775 L336.21 775 L336.21670332232 741.209098516139 A23.52 23.52 0 0 1 295.740000000001 724.910006157522 L295.740000000001 696.519993842478 A23.52 23.52 0 0 1 336.21670332232 680.220901483861 L336.21 680.22 Z M336.21 699.19 L336.21 722.240001869248 A11.9 11.9 0 0 1 312.41 722.239998130752 L312.4 722.24 L312.41 699.190001869248 A11.9 11.9 0 0 1 336.21 699.189998130752 Z" style="fill:rgb(0,0,0);"/>
</g>
</svg>