<?xml version="1.0" encoding="UTF-8"?>
<!DOCTYPE svg PUBLIC '-//W3C//DTD SVG 1.0//EN' 'http://www.w3.org/TR/2001/REC-SVG-20010904/DTD/svg10.dtd'>
<svg xmlns:xlink="http://www.w3.org/1999/xlink" xmlns="http://www.w3.org/2000/svg" width="480.000000031905" height="720.000000000035">
<!--Gegenereerd door de SIMaD-toepassing (http://www.dlw.be).-->
<g style="stroke:none;fill-rule:evenodd;" transform="matrix(1,0,0,-1,0,720.000000000035)">
<path d=" M54 0 L426 0 A54 54 0 0 1 479.999999999996 54.0000197920337 L480 666 L479.999999999906 665.999899154876 A54 54 0 0 1 426.000019792034 719.999999999996 L54 720 A54 54 0 0 1 3.62376795237651E-12 665.999980207966 L0 54 A54 54 0 0 1 54.0000197920337 3.62376795237651E-12 Z" style="fill:rgb(0,0,255);" />
<path d=" M54 18 L426 18 A36 36 0 0 1 461.999999999998 54.0000131946891 L462 666 A36 36 0 0 1 426.000013194689 701.999999999998 L54 702 A36 36 0 0 1 18.0000000000024 665.999986805311 L18 54 A36 36 0 0 1 54.0000131946891 18.0000000000024 Z" style="fill:rgb(255,255,255);" />
<path d=" M54 36 L426 36 A18 18 0 0 1 443.999999999999 54.0000065973446 L444 666 A18 18 0 0 1 426.000006597345 683.999999999999 L54 684 A18 18 0 0 1 36.0000000000012 665.999993402655 L36 54 A18 18 0 0 1 54.0000065973446 36.0000000000012 Z" style="fill:rgb(0,0,255);" />
<path d=" M353.25 66.95 L353.25 406.01 L391.55 406.01 L391.55 639.53 L267.39 639.53 L267.39 406.02 L305.73 406.02 L305.73 304.05 L116.32 596.3 L77.37 570.96 L208.734289739904 368.574262790765 A612.43 612.43 0 0 0 306.644190263638 66.7404298729406 L306.65 66.74 L353.25 66.95 Z" style="fill:rgb(255,255,255);" />
<path d=" M384.01 576.03 L385.58 579.72 L385.58 591.84 L383.91 595.41 L380.115286000089 596.414194846793 A10.84 10.84 0 0 1 380.824713999911 574.745805153207 L380.82 574.74 Z" style="fill:rgb(0,0,0);" />
<path d=" M275.32 574.17 L273.75 577.87 L273.75 589.99 L275.42 593.56 L279.214713999911 594.564194846793 A10.84 10.84 0 0 0 278.505286000089 572.895805153207 L278.5 572.89 Z" style="fill:rgb(0,0,0);" />
<path d=" M330.819082835057 593.249823792401 A10.53 10.53 0 1 1 330.940917164943 593.249823792401 A10.53 10.53 0 0 1 330.819082283716 593.249823789211 Z" style="fill:rgb(0,0,0);" />
<path d=" M359.889082835057 623.969823792401 A10.53 10.53 0 1 1 360.010917164943 623.969823792401 A10.53 10.53 0 0 1 359.889082283716 623.969823789211 Z" style="fill:rgb(0,0,0);" />
<path d=" M301.789082835057 623.969823792401 A10.53 10.53 0 1 1 301.910917164943 623.969823792401 A10.53 10.53 0 0 1 301.789082283716 623.969823789211 Z" style="fill:rgb(0,0,0);" />
<path d=" M384.01 505.09 L385.58 508.78 L385.58 520.9 L383.91 524.47 L380.115286000089 525.474194846793 A10.84 10.84 0 0 1 380.824713999911 503.805805153207 L380.82 503.8 Z" style="fill:rgb(0,0,0);" />
<path d=" M274.14 505.09 L272.57 508.78 L272.57 520.9 L274.24 524.47 L278.034713999911 525.474194846793 A10.84 10.84 0 0 0 277.325286000089 503.805805153207 L277.33 503.8 Z" style="fill:rgb(0,0,0);" />
<path d=" M330.819082835057 522.309823792401 A10.53 10.53 0 1 1 330.940917164943 522.309823792401 A10.53 10.53 0 0 1 330.819082283716 522.309823789211 Z" style="fill:rgb(0,0,0);" />
<path d=" M359.889082835057 553.029823792401 A10.53 10.53 0 1 1 360.010917164943 553.029823792401 A10.53 10.53 0 0 1 359.889082283716 553.029823789211 Z" style="fill:rgb(0,0,0);" />
<path d=" M301.789082835057 553.029823792401 A10.53 10.53 0 1 1 301.910917164943 553.029823792401 A10.53 10.53 0 0 1 301.789082283716 553.029823789211 Z" style="fill:rgb(0,0,0);" />
<path d=" M384.01 430.01 L385.58 433.7 L385.58 445.82 L383.91 449.39 L380.115286000089 450.394194846793 A10.84 10.84 0 0 1 380.824713999911 428.725805153207 L380.82 428.72 Z" style="fill:rgb(0,0,0);" />
<path d=" M274.1 430.01 L272.53 433.7 L272.53 445.82 L274.21 449.39 L277.994713999911 450.394194846793 A10.84 10.84 0 0 0 277.285286000089 428.725805153207 L277.29 428.72 Z" style="fill:rgb(0,0,0);" />
<path d=" M330.819082835057 447.229823792401 A10.53 10.53 0 1 1 330.940917164943 447.229823792401 A10.53 10.53 0 0 1 330.819082283716 447.229823789211 Z" style="fill:rgb(0,0,0);" />
<path d=" M359.889082835057 477.949823792401 A10.53 10.53 0 1 1 360.010917164943 477.949823792401 A10.53 10.53 0 0 1 359.889082283716 477.949823789211 Z" style="fill:rgb(0,0,0);" />
<path d=" M301.789082835057 477.949823792401 A10.53 10.53 0 1 1 301.910917164943 477.949823792401 A10.53 10.53 0 0 1 301.789082283716 477.949823789211 Z" style="fill:rgb(0,0,0);" />
</g>
</svg>
