<?xml version="1.0" encoding="UTF-8" standalone="no"?>
<!DOCTYPE svg  PUBLIC '-//W3C//DTD SVG 1.0//EN'  'http://www.w3.org/TR/2001/REC-SVG-20010904/DTD/svg10.dtd'>
<svg style="color-interpolation:auto;image-rendering:auto;text-rendering:auto;color-rendering:auto;shape-rendering:auto" xmlns:xlink="http://www.w3.org/1999/xlink" stroke-linecap="square" font-size="12" stroke="black" xmlns="http://www.w3.org/2000/svg" stroke-miterlimit="10" font-family="&apos;Dialog&apos;" fill="black"><!--Generated by the Batik Graphics2D SVG Generator-->
 <g transform="matrix(1,0,0,-1,0,601)" stroke="#003b80" fill="#003b80">
  <path d="m0 45v510c0 11.93 4.7411 23.38 13.18 31.82 8.439 8.44 19.885 13.18 31.82 13.18h310c11.93 0 23.38-4.74 31.82-13.18s13.18-19.89 13.18-31.82v-510c0-11.935-4.74-23.381-13.18-31.82-8.44-8.4389-19.89-13.18-31.82-13.18h-310c-11.935 0-23.381 4.7411-31.82 13.18-8.4389 8.439-13.18 19.885-13.18 31.82z"/>
 </g>
 <g transform="matrix(1,0,0,-1,0,601)" stroke="#fcffff" fill="#fcffff">
  <path d="m15 45v510c0 7.96 3.161 15.59 8.787 21.21 5.626 5.63 13.257 8.79 21.213 8.79h310c7.96 0 15.59-3.16 21.21-8.79 5.63-5.62 8.79-13.25 8.79-21.21v-510c0-7.956-3.16-15.587-8.79-21.213-5.62-5.626-13.25-8.787-21.21-8.787h-310c-7.956 0-15.587 3.161-21.213 8.787s-8.787 13.257-8.787 21.213z"/>
  <path d="m30 45v510c0 3.98 1.58 7.79 4.393 10.61 2.813 2.81 6.629 4.39 10.607 4.39h310c3.98 0 7.79-1.58 10.61-4.39 2.81-2.82 4.39-6.63 4.39-10.61v-510c0-3.978-1.58-7.794-4.39-10.607-2.82-2.813-6.63-4.393-10.61-4.393h-310c-3.978 0-7.794 1.58-10.607 4.393s-4.393 6.629-4.393 10.607z" fill="#003b80"/>
  <path d="m300.74 437.82v-388.98l-50.37 0.004v207.09l-151.11-88.15-0.001-118.94-50.37 0.004v147.87l201.48 117.53v123.58h-50.37l75.56 113.34 75.55-113.34h-50.37z"/>
 </g>
</svg>
