<?xml version="1.0" encoding="UTF-8"?>
<!DOCTYPE svg PUBLIC '-//W3C//DTD SVG 1.0//EN' 'http://www.w3.org/TR/2001/REC-SVG-20010904/DTD/svg10.dtd'>
<svg xmlns:xlink="http://www.w3.org/1999/xlink" xmlns="http://www.w3.org/2000/svg" width="600.000000004298" height="900.000000000036">
<!--Gegenereerd door de SIMaD-toepassing (http://www.dlw.be).-->
<g style="stroke:none;fill-rule:evenodd;" transform="matrix(1,0,0,-1,0,900.000000000036)">
<path d=" M65 0 L534.999951218047 1.83035808731802E-11 A65 65 0 0 1 599.999999999982 65.0000487819526 L599.999999999838 834.999854788606 A65 65 0 0 1 535.000048781953 899.999999999982 L65.0000487819526 899.999999999982 A65 65 0 0 1 1.83035808731802E-11 834.999951218047 L1.83035808731802E-11 65.0000487819526 A65 65 0 0 1 65.0000487819526 1.83035808731802E-11 Z" style="fill:rgb(0,0,255);" />
<path d=" M65 15 L534.999962475421 15.0000000000141 A50 50 0 0 1 584.999999999986 65.0000375245789 L584.999999999875 834.999888298928 A50 50 0 0 1 535.000037524579 884.999999999986 L65.0000375245789 884.999999999986 A50 50 0 0 1 15.0000000000141 834.999962475421 L15.0000000000141 65.0000375245789 A50 50 0 0 1 65.0000375245789 15.0000000000141 Z" style="fill:rgb(255,255,255);" />
<path d=" M300 30 L534.999973732795 30.0000000000099 A35 35 0 0 1 569.99999999999 65.0000262672052 L569.999999999913 834.99992180925 A35 35 0 0 1 535.000026267205 869.99999999999 L300 870 L300 752.5 L450 657.5 L450 242.5 L300 147.5 Z" style="fill:rgb(0,0,255);" />
<path d=" M295 204.75 L305 204.75 L305 159.75 L295 159.75 Z" style="fill:rgb(0,0,0);" />
<path d=" M295 264.25 L305 264.25 L305 219.25 L295 219.25 Z" style="fill:rgb(0,0,0);" />
<path d=" M295 323.75 L305 323.75 L305 278.75 L295 278.75 Z" style="fill:rgb(0,0,0);" />
<path d=" M295 383.25 L305 383.25 L305 338.25 L295 338.25 Z" style="fill:rgb(0,0,0);" />
<path d=" M295 442.75 L305 442.75 L305 397.75 L295 397.75 Z" style="fill:rgb(0,0,0);" />
<path d=" M295 740.25 L305 740.25 L305 695.25 L295 695.25 Z" style="fill:rgb(0,0,0);" />
<path d=" M295 680.75 L305 680.75 L305 635.75 L295 635.75 Z" style="fill:rgb(0,0,0);" />
<path d=" M295 621.25 L305 621.25 L305 576.25 L295 576.25 Z" style="fill:rgb(0,0,0);" />
<path d=" M295 561.75 L305 561.75 L305 516.75 L295 516.75 Z" style="fill:rgb(0,0,0);" />
<path d=" M295 502.25 L305 502.25 L305 457.25 L295 457.25 Z" style="fill:rgb(0,0,0);" />
<path d=" M150 870 L65.0000262672052 869.99999999999 A35 35 0 0 1 30.0000000000099 834.999973732795 L30.0000000000099 65.0000262672052 A35 35 0 0 1 65.0000262672052 30.0000000000099 L150 30 Z" style="fill:rgb(0,0,255);" />
<path d=" M337.29 288.07 L337.29 291.9 L357.46 291.9 L357.46 288.07 L357.450002096103 288.073926170909 A8.8 8.8 0 0 1 363.581008301648 279.694507568775 L363.581473397556 279.683121516462 A37.58 37.58 0 0 1 386.426461147617 279.672891151506 L386.429344829472 279.677312034587 A8.81 8.81 0 0 1 387.471824340216 296.055244115278 L387.47 296.05 L356.07 318.76 L356.076348317643 318.763024133582 A27.58 27.58 0 0 0 360.859160119113 370.470446632941 L360.853786422228 370.470223062737 A56.8 56.8 0 0 0 389.144945269344 370.470549200379 L389.148573263523 370.471029581872 A27.58 27.58 0 0 0 409.86 343.760004332256 L389.69 343.76 L389.699993059786 343.760148533167 A7.42 7.42 0 0 1 384.118060889042 350.938736479255 L384.119393603804 350.941188425584 A36.62 36.62 0 0 1 365.879568857381 350.951207380331 L365.878891308189 350.945387714738 A7.42 7.42 0 0 1 364.597195208528 337.033787533944 L364.6 337.03 L395.99 314.33 L395.987372841948 314.323814169951 A28.97 28.97 0 0 0 392.54119409978 260.469277501884 L392.54820597713 260.47169668995 A57.73 57.73 0 0 0 357.453973012992 260.471001491198 L357.454504216428 260.470649572762 A28.97 28.97 0 0 0 337.29 288.070002528109 Z" style="fill:rgb(0,0,0);" />
<path d=" M337.29 469.96 L337.29 430.98 L337.28 430.980002633353 A37.72 37.72 0 1 1 412.72 430.979997366647 L412.72 469.96 L412.71 469.96 A37.71 37.71 0 0 1 337.29 469.96 Z M357.46 471.79 L357.46 429.15 L357.45 429.150001225221 A17.55 17.55 0 1 1 392.55 429.149998774779 L392.55 471.79 A17.55 17.55 0 0 1 357.45 471.79 Z" style="fill:rgb(0,0,0);" />
<path d=" M337.29 558.07 L337.29 561.9 L357.46 561.9 L357.46 558.07 L357.450002096103 558.07392617091 A8.8 8.8 0 0 1 363.581008301648 549.694507568775 L363.581473397556 549.683121516462 A37.58 37.58 0 0 1 386.426461147617 549.672891151506 L386.429344829472 549.677312034587 A8.81 8.81 0 0 1 387.471824340216 566.055244115278 L387.47 566.05 L356.07 588.76 L356.076348317643 588.763024133582 A27.58 27.58 0 0 0 360.859160119113 640.470446632941 L360.853786422228 640.470223062737 A56.8 56.8 0 0 0 389.144945269344 640.470549200379 L389.148573263523 640.471029581872 A27.58 27.58 0 0 0 409.86 613.760004332256 L389.69 613.76 L389.699993059786 613.760148533167 A7.42 7.42 0 0 1 384.118060889042 620.938736479255 L384.119393603804 620.941188425584 A36.62 36.62 0 0 1 365.879568857381 620.951207380331 L365.878891308189 620.945387714738 A7.42 7.42 0 0 1 364.597195208528 607.033787533944 L364.6 607.03 L395.99 584.33 L395.987372841948 584.323814169951 A28.97 28.97 0 0 0 392.54119409978 530.469277501884 L392.54820597713 530.47169668995 A57.73 57.73 0 0 0 357.453973012992 530.471001491198 L357.454504216428 530.470649572762 A28.97 28.97 0 0 0 337.29 558.07000252811 Z" style="fill:rgb(0,0,0);" />
</g>
</svg>
