<svg xmlns:xlink="http://www.w3.org/1999/xlink" xmlns="http://www.w3.org/2000/svg" width="220" height="400"  viewBox="-1.01393e-11 0 220 400"><rect id="svgEditorBackground" x="-1.0139299989886386e-11" y="0" width="220" height="400" style="fill:none;stroke:none;"/>
<!--Gegenereerd door de SIMaD-toepassing (http://www.dlw.be).-->
<g style="stroke:none;fill-rule:evenodd;" transform="matrix(1,0,0,-1,0,400)">
<path d=" M20 0 L199.999924950842 1.40808253945579E-10 A20 20 0 0 1 214.142274833378 5.85800358728628 L214.141996412714 5.85772516662216 A20 20 0 0 1 219.999999999859 20.0000750491578 L219.999999999999 379.999994065881 A20 20 0 0 1 214.142116124398 394.142155123037 A20 20 0 0 1 200.000038048178 399.999999999964 L20.0000380481777 399.999999999964 A20 20 0 0 1 5.85792213386519 394.142193381091 A20 20 0 0 1 8.81072992342524E-13 379.999994065881 L1.40808253945579E-10 20.0000750491578 A20 20 0 0 1 5.85800358728628 5.85772516662216 L5.85772516662216 5.85800358728627 A20 20 0 0 1 20.0000750491578 1.40808253945579E-10 Z" style="fill:rgb(255,255,255);stroke:rgb(0,0,0);"/>
<path d=" M20 10 L200.00006562438 10.0000000002153 A10 10 0 0 1 207.07094365688 12.928808035329 L207.071191964671 12.9290563431199 A10 10 0 0 1 209.999999999785 19.9999343756201 L209.999999999785 380.00006562438 A10 10 0 0 1 207.071191964671 387.07094365688 L207.07094365688 387.071191964671 A10 10 0 0 1 200.00006562438 389.999999999785 L19.9999343756201 389.999999999785 A10 10 0 0 1 12.9290563431199 387.071191964671 L12.928808035329 387.07094365688 A10 10 0 0 1 10.0000000002153 380.00006562438 L10.0000000002153 19.9999343756201 A10 10 0 0 1 12.928808035329 12.9290563431199 L12.9291491522465 12.9287152306796 A10 10 0 0 1 20.0000656243799 10.0000000002153 Z" style="fill:rgb(0,255,0);"/>
<path d=" M195.38 327.66 A49.33 49.33 0 0 1 96.72 327.66 A49.33 49.33 0 0 1 195.38 327.66 Z" style="fill:rgb(255,255,255);"/>
<path d=" M15 152.66 L205 152.66 L205 265.33 L15 265.33 Z" style="fill:rgb(255,255,255);"/>
<path d=" M15 147.66 L205 147.66 L204.999999999785 44.9999343756201 A10 10 0 0 0 202.071191964671 37.9290563431199 L202.07094365688 37.928808035329 A10 10 0 0 0 195.00006562438 35.0000000002153 L24.9999343756201 35.0000000002153 A10 10 0 0 0 17.9290563431199 37.928808035329 L17.928808035329 37.9290563431199 A10 10 0 0 0 15.0000000002153 44.9999343756201 Z" style="fill:rgb(255,255,255);"/>
<path d=" M190.38 327.66 A44.33 44.33 0 0 1 101.72 327.66 A44.33 44.33 0 0 1 190.38 327.66 Z" style="fill:rgb(0,255,0);"/>
<path d=" M123.28 208.35 A49.33 49.33 0 0 1 24.62 208.35 A49.33 49.33 0 0 1 123.28 208.35 Z" style="fill:rgb(0,255,0);"/>
<path d=" M195.38 93.14 A49.33 49.33 0 0 1 96.72 93.14 A49.33 49.33 0 0 1 195.38 93.14 Z" style="fill:rgb(0,255,0);"/>
<path d=" M118.28 208.35 A44.33 44.33 0 0 1 29.62 208.35 A44.33 44.33 0 0 1 118.28 208.35 Z" style="fill:rgb(255,255,255);"/>
<path d=" M190.38 93.14 A44.33 44.33 0 0 1 101.72 93.14 A44.33 44.33 0 0 1 190.38 93.14 Z" style="fill:rgb(255,255,255);"/>
<path d=" M58.2 19.58 L60.0195502031617 19.4526402060628 A1.07 1.07 0 0 1 61.4703519642097 18.3137443380148 L61.47 18.31 L62.86 20 L60.04 21.89 L59.37 22.64 L59.1778937093922 24.1384953708169 A3.04 3.04 0 0 0 60.5388227840243 26.2189328529218 L60.544494409942 26.22076794322 A4.12 4.12 0 0 0 62.9354525588935 26.8770662493982 L62.94 26.87 L65 26.28 L65.62 25.39 L65.67 24.15 L63.69 24.78 L62.5962221503766 25.0274611526145 A1.35 1.35 0 0 1 60.986431879376 24.1677993324363 L60.98 24.17 L64.14 21.56 L64.9 20.64 L65.0166895036231 19.3237609553895 A3.25 3.25 0 0 0 63.7660644178901 17.3070529622326 L63.76 17.31 L62.31 16.62 L60.9372195526118 16.4648770500035 A2.78 2.78 0 0 0 58.4521821470437 17.5276496584937 L58.45 17.53 Z M71.51 19.95 L73.37 19.83 L72.75 18.39 L71.47 17.14 L69.3228944706791 16.4706892316171 A2.87 2.87 0 0 0 67.3259436769417 17.2195457705392 L67.3226971514562 17.2131675483736 A2.79 2.79 0 0 0 66.5413493036717 19.9480850367059 L66.54 19.95 L67.14 23.39 L68.17 25.47 L69.31 26.37 L71.1661207526988 26.8787697129836 A2.86 2.86 0 0 0 73.1822198275005 26.1285840126051 L73.1898043202927 26.1234432461852 A2.66 2.66 0 0 0 74.0816151626096 23.8077992109695 L74.08 23.81 L72.0297778770305 24.5335262517539 A1.2 1.2 0 0 1 70.8702702618974 25.2073483907627 L70.87 25.2 L69.01 23.65 L69.64 18.14 L71 18.76 Z M75.15 16.67 L76.9 26.67 L78.75 26.67 L78.04 22.69 L81.23 22.69 L81.94 26.67 L83.76 26.67 L82.01 16.67 L80.19 16.67 L80.95 21.01 L77.76 21.01 L77 16.67 Z M84.15 16.67 L85.9 26.67 L92.06 26.67 L91.76 25 L87.45 25 L87.06 22.7 L89.94 22.7 L89.64 21.05 L86.76 21.05 L86.29 18.33 L90.61 18.33 L90.31 16.67 Z M95.75 26.67 L94.29 18.33 L98.17 18.33 L97.87 16.67 L92.15 16.67 L93.9 26.67 Z M99.15 16.67 L100.9 26.67 L106.250841931946 26.468372425727 A2.13 2.13 0 0 0 107.315139282048 24.9344820537062 L107.31 24.94 L106.48 19.34 L105.44 17.48 L103.26 16.67 Z M101.29 18.33 L104.65 19.34 L104.61 25 L102.45 25 Z M108.15 16.67 L109.9 26.67 L116.06 26.67 L115.76 25 L111.45 25 L111.06 22.7 L113.94 22.7 L113.64 21.05 L110.76 21.05 L110.29 18.33 L114.61 18.33 L114.31 16.67 Z M119.75 26.67 L118.29 18.33 L122.17 18.33 L121.87 16.67 L116.15 16.67 L117.9 26.67 Z M124.92 18.11 L124.26 16.67 L122.29 16.67 L126.98 26.67 L129.11 26.67 L130.29 16.67 L128.37 16.67 L128.19 18.11 Z M125.7 19.76 L128.03 19.76 L127.53 23.73 Z M131.15 16.67 L132.9 26.67 L135.04 26.67 L136.94 19.95 L138.11 26.67 L139.76 26.67 L138.01 16.67 L135.84 16.67 L133.98 23.23 L132.83 16.67 Z M140.15 16.67 L141.9 26.67 L147.250841931946 26.468372425727 A2.13 2.13 0 0 0 148.315139282048 24.9344820537062 L148.31 24.94 L147.48 19.34 L146.44 17.48 L144.26 16.67 Z M142.29 18.33 L145.65 19.34 L145.61 25 L143.45 25 Z" style="fill:rgb(255,255,255);"/>
<path d=" M49.76 118.73 L24.17 93.13 L49.76 67.54 L56.38 74.16 L42.09 88.45 L87.54 88.45 L87.54 97.82 L42.09 97.82 L56.38 112.11 Z" style="fill:rgb(0,255,0);"/>


<path d=" M170.23 182.75 L195.83 208.35 L170.23 233.94 L163.61 227.32 L177.91 213.03 L132.46 213.03 L132.46 203.66 L177.91 203.66 L163.61 189.37 Z" style="fill:rgb(0,255,0);"/>
<path d=" M29.09 285 L29.09 295 L30.75 295 L30.75 289.81 L32.88 292.14 L35.09 292.14 L31.94 288.73 L35.09 285 L32.92 285 L30.75 287.59 L30.75 285 Z M36.09 285 L36.09 292.14 L37.75 291.66 L39.4042769988628 292.339857393723 A2.32 2.32 0 0 0 41.2922708723305 291.40359936328 L41.3 291.41 L41.8 289.92 L41.8 285 L40.14 285 L38.95 290.92 L37.75 289.66 L37.75 285 Z M43.81 287.7 L43.81 289.45 L44.4517637462999 291.262300687493 A2.72 2.72 0 0 0 46.6534211166985 292.339794666691 L46.66 292.34 L48.47 291.7 L49.53 289.45 L49.53 287.7 L49.02 286.06 L48.05 285.17 L46.64 284.8 L44.83 285.47 Z M47.86 287.5 L46.67 290.91 L45.47 289.66 L45.73 286.72 L47.44 286.52 Z M50.81 287.7 L50.81 289.45 L51.4517637462999 291.262300687493 A2.72 2.72 0 0 0 53.6534211166985 292.339794666691 L53.66 292.34 L55.47 291.7 L56.53 289.45 L56.53 287.7 L56.02 286.06 L55.05 285.17 L53.64 284.8 L51.83 285.47 Z M54.86 287.5 L53.67 290.91 L52.47 289.66 L52.73 286.72 L54.44 286.52 Z M58.09 282.14 L58.09 292.14 L60.3 292.03 L61.42 292.34 L63.0972020026467 291.674439812629 A2.37 2.37 0 0 0 63.7997694304295 289.95694176953 L63.8 289.95 L63.8 287.2 L62.7 285.19 L61.4092576236897 284.79035350596 A2.18 2.18 0 0 0 59.7512626330923 285.50983242846 L59.75 285.52 L59.75 282.14 Z M62.14 287.48 L60.95 290.91 L59.75 289.67 L60.94 286.23 Z M66.09 282.14 L66.09 292.14 L68.3 292.03 L69.42 292.34 L71.0972020026467 291.674439812629 A2.37 2.37 0 0 0 71.7997694304295 289.95694176953 L71.8 289.95 L71.8 287.2 L70.7 285.19 L69.4092576236898 284.79035350596 A2.18 2.18 0 0 0 67.7512626330923 285.50983242846 L67.75 285.52 L67.75 282.14 Z M70.14 287.48 L68.95 290.91 L67.75 289.67 L68.94 286.23 Z M79.67 292.14 L79.67 285 L78 285.52 L76.2787686726871 284.800334027012 A2.25 2.25 0 0 0 74.4351464023037 285.706495816574 L74.44 285.7 L73.95 287.2 L73.95 292.14 L75.61 292.14 L75.86 286.7 L76.81 286.22 L78 287.45 L78 292.14 Z M82.09 285 L82.09 292.14 L83.75 291.66 L85.4042769988628 292.339857393723 A2.32 2.32 0 0 0 87.2922708723305 291.40359936328 L87.3 291.41 L87.8 289.92 L87.8 285 L86.14 285 L84.95 290.92 L83.75 289.66 L83.75 285 Z M92.2 290.67 L92.64 286.42 L93.64 286.42 L93.64 285 L92.39 285 L91.13 285.47 L90.55 286.86 L89.7 290.67 L90.55 292.09 L90.55 293.98 L92.2 294.95 L92.2 292.09 L93.88 292.09 L93.88 290.67 Z" style="fill:rgb(255,255,255);"/>

<path d=" M47.4826984273431 318.564944357762 A10.12 10.12 0 0 0 47.7251057815422 317.23422363286 L47.7224023170068 317.228392120186 A9.97 9.97 0 0 1 41.6676206334111 327.830139667744 L41.67 327.83 L42.03 329.23 L52.0231808902698 320.138277809216 A2.72 2.72 0 0 1 51.803811220258 317.494438305965 A2.72 2.72 0 0 1 53.9399981056821 315.921333901376 L53.94 315.92 L53.2 312.68 L54.62 313.47 L54.6214793738431 315.923891719692 A2.95 2.95 0 0 1 57.3486951128788 318.225318336628 L57.348610317301 318.226240864968 A10.1 10.1 0 0 1 57.832440592074 316.918994127984 L57.8294481488071 316.916232246764 A10.06 10.06 0 0 0 58.2525732041595 318.223802990586 L58.2486750519245 318.223620529862 A9.06 9.06 0 0 1 64.3760331705977 310.04480216085 A9.06 9.06 0 0 1 74.2236481355584 312.776482523772 A9.06 9.06 0 0 1 75.2620778345511 322.943067956504 L75.27 322.95 L76.3770442427669 322.744095999713 A9.97 9.97 0 0 1 70.7634347813187 327.969091908606 A9.97 9.97 0 0 1 63.1005941315628 327.662449355796 L63.1 327.66 L60.98 331.8 L61.8987453217496 334.065088064345 A13.57 13.57 0 0 1 57.6888379769726 334.003464522844 L57.69 334 L60.14 331.88 L42.72 331.88 L43.2083817610665 333.742583868756 A6.1 6.1 0 0 1 45.2642751908209 333.961423674415 L45.2659456041001 333.959556188102 A4.06 4.06 0 0 0 46.830670045055 334.786648241476 L46.8276854534347 334.793406746527 A2.11 2.11 0 0 1 45.6300876434719 334.911755320277 L45.6332047428134 334.905046372262 A10.18 10.18 0 0 0 42.6545906311223 334.758782887118 L42.66 334.76 L40.9247894353166 328.10270863615 A9.81 9.81 0 0 1 35.3107469374748 327.904148170189 L35.3096117024532 327.91028370603 A9.45 9.45 0 0 0 40.6969391742837 327.230430345552 L40.6898607474907 327.223417398619 A9.06 9.06 0 0 1 30.5508470741147 323.98711901904 A9.06 9.06 0 0 1 30.4844740095333 313.344336356082 A9.06 9.06 0 0 1 40.5823210832027 309.981827652895 L40.58331939775 309.979593065317 A9.37 9.37 0 0 1 47.4786672131069 318.559296196763 Z" style="fill:rgb(255,255,255);"/>
<path d=" M38.3117207351241 319.781599742922 A1.25 1.25 0 0 1 36.9342660138308 319.470841504967 A1.25 1.25 0 0 1 36.7254082716968 318.074295460316 A1.25 1.25 0 0 1 37.9516817596798 317.374142536344 A1.25 1.25 0 0 1 39.0481947909971 318.263869065051 L39.05 318.27 L46.0092315969995 318.508018990337 A8.16 8.16 0 0 0 40.2686082897917 310.826673756312 A8.16 8.16 0 0 0 31.1877653624691 313.908288035705 A8.16 8.16 0 0 0 31.3077958830264 323.497003720714 A8.16 8.16 0 0 0 40.4629354210857 326.350340774199 L40.46 326.35 L39.3414563140067 322.030022903975 A4.82 4.82 0 0 0 38.3152922513688 319.781471327273 Z" style="fill:rgb(0,255,0);"/>
<path d=" M74.4384445900173 322.447872625265 A8.1 8.1 0 0 0 73.4809401009367 313.384927940455 A8.1 8.1 0 0 0 64.6991694297466 310.948906183286 A8.1 8.1 0 0 0 59.209710508198 318.223495348277 L59.21 318.23 L65.472555929981 318.223328636082 A1.87 1.87 0 0 1 66.7976838477438 316.818728648098 A1.87 1.87 0 0 1 68.658460406212 317.334898710313 A1.87 1.87 0 0 1 69.0706474456277 319.221421335914 L69.07 319.22 Z" style="fill:rgb(0,255,0);"/>
<path d=" M53.2 324.57 L54.62 323.78 L55.07 321.22 L59.76 331.08 L42.52 331.08 L42.26 330.1 L52.5572599032492 320.724891103845 A2.72 2.72 0 0 0 53.9400160510216 321.318668359476 L53.94 321.32 Z" style="fill:rgb(0,255,0);"/>
<path d=" M46.8847177351277 319.335587726583 A9.43 9.43 0 0 1 41.5792453247332 327.502730571854 L41.5811800141079 327.505270778667 A9.34 9.34 0 0 0 46.8864226131006 319.338481700677 Z" style="fill:rgb(0,255,0);"/>
<path d=" M38.92 319.26 L45.9815453602492 319.300859790419 A8.16 8.16 0 0 1 41.2065120280583 326.057703073228 L41.21 326.06 L40.1206504615737 321.882319617573 A5.58 5.58 0 0 0 38.9204842853048 319.264407937931 Z" style="fill:rgb(0,255,0);"/>
<path d=" M74.8634184816266 323.625296050925 A9.37 9.37 0 0 1 63.2586904315164 327.361933638325 L63.2581061499377 327.364937365366 A9.34 9.34 0 0 0 74.8604272547767 323.629074796747 Z" style="fill:rgb(0,255,0);"/>
<path d=" M62.4022370332303 327.300815516868 A10.18 10.18 0 0 1 56.9665617419987 319.014909205927 L56.9709220684269 319.01665907484 A2.72 2.72 0 0 1 55.7939010962559 320.879757392013 L55.79 320.88 L60.55 330.9 Z" style="fill:rgb(0,255,0);"/>
<path d=" M62.8143817138557 326.494341049316 A9.38 9.38 0 0 1 57.6842337387512 319.019872691825 L57.6817423931962 319.022046187859 A9.34 9.34 0 0 0 62.8138333349327 326.49934538818 Z" style="fill:rgb(0,255,0);"/>
<path d=" M63.2505034485811 325.635096412741 A8.1 8.1 0 0 1 59.2097106258437 319.01650705216 L59.21 319.02 L65.4725498654527 319.016643423925 A1.87 1.87 0 0 0 66.1121422642534 320.064262441396 L66.12 320.07 Z" style="fill:rgb(0,255,0);"/>
<path d=" M63.9558831353619 325.997457719001 A8.1 8.1 0 0 0 74.0299293074834 323.127554937688 L74.03 323.13 L68.661958064329 319.901393862561 A1.87 1.87 0 0 1 66.8177991170918 320.426760169066 L66.82 320.43 Z" style="fill:rgb(0,255,0);"/>
</g>
</svg>