<?xml version="1.0" encoding="UTF-8" standalone="no"?>
<svg
   xmlns:dc="http://purl.org/dc/elements/1.1/"
   xmlns:cc="http://creativecommons.org/ns#"
   xmlns:rdf="http://www.w3.org/1999/02/22-rdf-syntax-ns#"
   xmlns:svg="http://www.w3.org/2000/svg"
   xmlns="http://www.w3.org/2000/svg"
   xmlns:sodipodi="http://sodipodi.sourceforge.net/DTD/sodipodi-0.dtd"
   xmlns:inkscape="http://www.inkscape.org/namespaces/inkscape"
   width="220"
   height="280"
   version="1.1"
   id="svg46"
   sodipodi:docname="FtsRt-Doorverwijzingsbord-Rechtdoor.svg"
   inkscape:version="0.92.1 r15371">
  <metadata
     id="metadata52">
    <rdf:RDF>
      <cc:Work
         rdf:about="">
        <dc:format>image/svg+xml</dc:format>
        <dc:type
           rdf:resource="http://purl.org/dc/dcmitype/StillImage" />
        <dc:title></dc:title>
      </cc:Work>
    </rdf:RDF>
  </metadata>
  <defs
     id="defs50" />
  <sodipodi:namedview
     pagecolor="#ffffff"
     bordercolor="#666666"
     borderopacity="1"
     objecttolerance="10"
     gridtolerance="10"
     guidetolerance="10"
     inkscape:pageopacity="0"
     inkscape:pageshadow="2"
     inkscape:window-width="1920"
     inkscape:window-height="1018"
     id="namedview48"
     showgrid="false"
     inkscape:zoom="3.3714286"
     inkscape:cx="113.01053"
     inkscape:cy="209.70189"
     inkscape:window-x="-8"
     inkscape:window-y="-8"
     inkscape:window-maximized="1"
     inkscape:current-layer="g44" />
  <!--Gegenereerd door de SIMaD-toepassing (http://www.dlw.be).-->
  <g
     style="stroke:none;fill-rule:evenodd;"
     transform="matrix(1,0,0,-1,0,280)"
     id="g44">
    <path
       d=" M25.0000248709418 279.999999999988 A25 25 0 0 1 7.32238662352929 272.677725682678 L7.3222743173217 272.677613376471 A25 25 0 0 1 1.23705490295833E-11 254.999975129058 L1.23705490295833E-11 25.0000248709418 A25 25 0 0 1 7.3222743173217 7.3223866235293 L7.32238662352929 7.3222743173217 A25 25 0 0 1 25.0000248709418 1.23705490295833E-11 L194.999975129058 1.23705490295833E-11 A25 25 0 0 1 212.677613376471 7.32227431732169 L212.677725682678 7.3223866235293 A25 25 0 0 1 219.999999999988 25.0000248709418 L219.999999999988 254.999975129058 A25 25 0 0 1 212.677725682678 272.677613376471 A25 25 0 0 1 195.000024870942 279.999999999988 Z"
       style="fill:rgb(255,255,255);stroke:rgb(0,0,0);"
       id="path2" />
    <path
       d=" M24.9999172713935 269.999999999772 A15 15 0 0 1 14.3934527076574 265.606656142975 L14.3932929493752 265.606496383926 A15 15 0 0 1 10.0000000008007 255.000154985238 L10 255 L10.0000000002281 24.9999172713935 A15 15 0 0 1 14.3933438570254 14.3934527076574 L14.3935697048204 14.3932268623537 A15 15 0 0 1 25.0000827286065 10.0000000002281 L195.000082728607 10.0000000002281 A15 15 0 0 1 205.606547292343 14.3933438570254 L205.606656142975 14.3934527076574 A15 15 0 0 1 209.999999999772 24.9999172713935 L209.999999999199 255.000154985238 A15 15 0 0 1 205.606707050625 265.606496383926 L205.606547292343 265.606656142975 A15 15 0 0 1 195.000082728607 269.999999999772 Z"
       style="fill:rgb(0,255,0);"
       id="path4" />
    <path
       d=" M205 55 L204.999999999785 255.00006562438 A10 10 0 0 1 202.071191964671 262.07094365688 L202.07094365688 262.071191964671 A10 10 0 0 1 195.00006562438 264.999999999785 L24.9999343756201 264.999999999785 A10 10 0 0 1 17.9290563431199 262.071191964671 L17.928808035329 262.07094365688 A10 10 0 0 1 15.0000000002153 255.00006562438 L15.0000000000124 55.0000248709418 A25 25 0 0 1 22.3222743173217 37.3223866235293 L22.3223866235293 37.3222743173217 A25 25 0 0 1 40.0000248709418 30.0000000000124 L179.999975129058 30.0000000000124 A25 25 0 0 1 197.677613376471 37.3222743173217 L197.677725682678 37.3223866235293 A25 25 0 0 1 204.999999999988 55.0000248709418 Z"
       style="fill:rgb(0,255,0);"
       id="path6" />
    <path
       d=" M205 55 L204.999999999785 255.00006562438 A10 10 0 0 1 202.071191964671 262.07094365688 L202.07094365688 262.071191964671 A10 10 0 0 1 195.00006562438 264.999999999785 L24.9999343756201 264.999999999785 A10 10 0 0 1 17.9290563431199 262.071191964671 L17.928808035329 262.07094365688 A10 10 0 0 1 15.0000000002153 255.00006562438 L15.0000000000124 55.0000248709418 A25 25 0 0 1 22.3222743173217 37.3223866235293 L22.3223866235293 37.3222743173217 A25 25 0 0 1 40.0000248709418 30.0000000000124 L179.999975129058 30.0000000000124 A25 25 0 0 1 197.677613376471 37.3222743173217 L197.677725682678 37.3223866235293 A25 25 0 0 1 204.999999999988 55.0000248709418 Z"
       style="fill:rgb(255,255,255);"
       id="path8" />
    <path
       d=" M159.28 136.33 A49.28 49.28 0 0 1 60.72 136.33 A49.28 49.28 0 0 1 159.28 136.33 Z"
       style="fill:rgb(0,255,0);"
       id="path10" />
    <path
       d=" M156.78 136.33 A46.78 46.78 0 0 1 63.22 136.33 A46.78 46.78 0 0 1 156.78 136.33 Z"
       style="fill:rgb(0,255,0);"
       id="path12" />
    <path
       d=" M156.78 136.33 A46.78 46.78 0 0 1 63.22 136.33 A46.78 46.78 0 0 1 156.78 136.33 Z"
       style="fill:rgb(255,255,255);"
       id="path14" />
    <path
       d=" M134.25 230.9 L110 255.14 L85.76 230.9 L92.03 224.63 L105.57 238.17 L105.57 195.12 L114.44 195.12 L114.44 238.17 L127.98 224.63 Z"
       style="fill:rgb(0,255,0);"
       id="path16" />
    <path
       d=" M103.181683987387 50.3958044862333 A11.8 11.8 0 0 0 103.464332851566 48.8441735965331 L103.456250243091 48.8380859013608 A11.62 11.62 0 0 1 96.3994234463628 61.1943854502695 L96.4 61.2 L96.83 62.83 L108.469810112558 52.2294635220869 A3.17 3.17 0 0 1 108.214147612479 49.1482241054807 A3.17 3.17 0 0 1 110.703747737391 47.3148634140347 L110.7 47.32 L109.85 43.53 L111.5 44.46 L111.496640354583 47.3145381409288 A3.44 3.44 0 0 1 114.676851250272 49.9982356196616 L114.666577413516 50.0032187543699 A11.78 11.78 0 0 1 115.230886493903 48.4785290351842 L115.229157583421 48.4806558906359 A11.73 11.73 0 0 0 115.722523076727 50.005288792875 L115.730111326863 49.9979946056429 A10.56 10.56 0 0 1 122.871932702154 40.4650674192694 A10.56 10.56 0 0 1 134.349947614624 43.649012883787 A10.56 10.56 0 0 1 135.560302641596 55.4988076844019 L135.57 55.5 L136.859263199694 55.2666194098966 A11.62 11.62 0 0 1 130.31662107913 61.3563337991971 A11.62 11.62 0 0 1 121.385607202483 60.998942980376 L121.39 61 L118.91 65.82 L119.983821652884 68.462818188945 A15.81 15.81 0 0 1 115.078984600994 68.3910223165969 L115.08 68.39 L115.16 67.38 L117.93 65.91 L97.63 65.91 L98.193540052653 68.0846674273528 A7.11 7.11 0 0 1 100.589835509301 68.3397413647688 L100.591261687768 68.3394090030225 A4.73 4.73 0 0 0 102.414204184674 69.3029916487448 L102.420002985459 69.3174315460705 A2.46 2.46 0 0 1 101.023751512745 69.4554114241951 L101.020491969525 69.4572347716134 A11.86 11.86 0 0 0 97.5503187509932 69.2868335011022 L97.55 69.28 L95.5359929806342 61.5199884605057 A11.44 11.44 0 0 1 88.9891381207657 61.2884357866423 L88.9803727781644 61.2887329884194 A11.02 11.02 0 0 0 95.2627375344557 60.495930413543 L95.2600363679362 60.4878242526951 A10.56 10.56 0 0 1 83.4423780466503 56.7157148831194 A10.56 10.56 0 0 1 83.3650160640918 44.3108821104 A10.56 10.56 0 0 1 95.1346921234681 40.3916666682752 L95.1408053468965 40.3941148136366 A10.92 10.92 0 0 1 103.176792525841 50.3930858557792 Z"
       style="fill:rgb(0,255,0);"
       id="path20" />
    <path
       d=" M92.4855960057089 51.8074557204853 A1.45 1.45 0 0 1 90.8877485415918 51.4469761086823 A1.45 1.45 0 0 1 90.6454735730718 49.8269827795029 A1.45 1.45 0 0 1 92.0679508412286 49.0148053421585 A1.45 1.45 0 0 1 93.3399059359261 50.0468880426841 L93.35 50.05 L101.459104469225 50.3294925543912 A9.51 9.51 0 0 0 94.7687455321539 41.3773366447411 A9.51 9.51 0 0 0 84.1855574261128 44.9687768651412 A9.51 9.51 0 0 0 84.3254459372036 56.1438609539198 A9.51 9.51 0 0 0 94.9952225311918 59.4692574464004 L95 59.47 L93.6900797521305 54.4355867747467 A5.62 5.62 0 0 0 92.4935979569895 51.8138316377326 Z"
       style="fill:rgb(255,255,255);"
       id="path22" />
    <path
       d=" M134.599372460465 54.9211256274692 A9.44 9.44 0 0 0 133.483465994178 44.3588789824558 A9.44 9.44 0 0 0 123.248908569976 41.5198610333599 A9.44 9.44 0 0 0 116.851316937949 49.9979007515719 L116.85 50 L124.149610664412 49.9975702444534 A2.18 2.18 0 0 1 125.694412259439 48.3601221468606 A2.18 2.18 0 0 1 127.863659751036 48.9618605562406 A2.18 2.18 0 0 1 128.344177223843 51.161122235113 L128.35 51.16 Z"
       style="fill:rgb(255,255,255);"
       id="path24" />
    <path
       d=" M109.85 57.4 L111.5 56.47 L112.03 53.49 L117.5 64.99 L97.39 64.99 L97.09 63.84 L109.092247883335 52.9131268695335 A3.17 3.17 0 0 0 110.703768871201 53.6051392485183 L110.7 53.61 Z"
       style="fill:rgb(255,255,255);"
       id="path26" />
    <path
       d=" M102.483843892795 51.2977952402069 A10.99 10.99 0 0 1 96.3006899383688 60.8160242825741 L96.2958497808998 60.8044482695271 A10.88 10.88 0 0 0 102.475832765582 51.2911007391181 Z"
       style="fill:rgb(255,255,255);"
       id="path28" />
    <path
       d=" M93.2 51.21 L101.426837777324 51.2535022005594 A9.51 9.51 0 0 1 95.8618173268179 59.1282054199014 L95.86 59.13 L94.5974255575959 54.2660396658402 A6.51 6.51 0 0 0 93.1972316661889 51.2118092609197 Z"
       style="fill:rgb(255,255,255);"
       id="path30" />
    <path
       d=" M135.094048006335 56.2967377669268 A10.92 10.92 0 0 1 121.569647760102 60.6514957663294 L121.569271403782 60.6437386011977 A10.88 10.88 0 0 0 135.084609050532 56.2918986925699 Z"
       style="fill:rgb(255,255,255);"
       id="path32" />
    <path
       d=" M120.563666929945 60.5795158205798 A11.86 11.86 0 0 1 114.230945212191 50.9261908823471 L114.23611137315 50.9222828735751 A3.17 3.17 0 0 1 112.864362628715 53.0936143442791 L112.86 53.1 L118.42 64.77 Z"
       style="fill:rgb(255,255,255);"
       id="path34" />
    <path
       d=" M121.044940037365 59.6387517998439 A10.94 10.94 0 0 1 115.061590309375 50.9211948026186 L115.078624971946 50.9274799276127 A10.88 10.88 0 0 0 121.056906667178 59.6376529565864 Z"
       style="fill:rgb(255,255,255);"
       id="path36" />
    <path
       d=" M121.560586877828 58.6356186177115 A9.44 9.44 0 0 1 116.851317075057 50.9221020459747 L116.85 50.93 L124.149603594534 50.9223971837905 A2.18 2.18 0 0 0 124.895224701082 52.1436856510369 L124.9 52.15 Z"
       style="fill:rgb(255,255,255);"
       id="path38" />
    <path
       d=" M122.382658863928 59.0579260330082 A9.44 9.44 0 0 0 134.123275637363 55.7132492113303 L134.13 55.72 L127.867737208683 51.9538174440552 A2.18 2.18 0 0 1 125.717862072332 52.5662765607291 L125.72 52.57 Z"
       style="fill:rgb(255,255,255);"
       id="path40" />
  </g>
</svg>
