<?xml version="1.0" encoding="UTF-8" standalone="no"?>
<svg
   xmlns:dc="http://purl.org/dc/elements/1.1/"
   xmlns:cc="http://creativecommons.org/ns#"
   xmlns:rdf="http://www.w3.org/1999/02/22-rdf-syntax-ns#"
   xmlns:svg="http://www.w3.org/2000/svg"
   xmlns="http://www.w3.org/2000/svg"
   xmlns:sodipodi="http://sodipodi.sourceforge.net/DTD/sodipodi-0.dtd"
   xmlns:inkscape="http://www.inkscape.org/namespaces/inkscape"
   viewBox="0.0 0.0 221.0 281.0"
   version="1.1"
   id="svg74"
   sodipodi:docname="Aanlooproute-Links.svg"
   inkscape:version="0.92.1 r15371">
  <metadata
     id="metadata80">
    <rdf:RDF>
      <cc:Work
         rdf:about="">
        <dc:format>image/svg+xml</dc:format>
        <dc:type
           rdf:resource="http://purl.org/dc/dcmitype/StillImage" />
        <dc:title></dc:title>
      </cc:Work>
    </rdf:RDF>
  </metadata>
  <defs
     id="defs78" />
  <sodipodi:namedview
     pagecolor="#ffffff"
     bordercolor="#666666"
     borderopacity="1"
     objecttolerance="10"
     gridtolerance="10"
     guidetolerance="10"
     inkscape:pageopacity="0"
     inkscape:pageshadow="2"
     inkscape:window-width="1920"
     inkscape:window-height="1018"
     id="namedview76"
     showgrid="false"
     inkscape:zoom="2.3754762"
     inkscape:cx="88.588943"
     inkscape:cy="162.43727"
     inkscape:window-x="-8"
     inkscape:window-y="-8"
     inkscape:window-maximized="1"
     inkscape:current-layer="g72" />
  <!--Gegenereerd door de SIMaD (http://www.dlw.be).-->
  <g
     style="stroke:none;fill-rule:evenodd;"
     transform="matrix(1,0,0,-1,0,280)"
     id="g72">
    <path
       d=" M25.0000017453293 280 A25 25 0 0 1 6.03961325396085E-14 254.999998254671 L6.03961325396085E-14 25.0000017453293 A25 25 0 0 1 25.0000017453293 6.03961325396085E-14 L194.999998254671 6.03961325396085E-14 A25 25 0 0 1 220 25.0000017453293 L220 254.999995200345 A25 25 0 0 1 195.000001745329 280 Z"
       style="fill:rgb(255,255,255);stroke:rgb(0,0,0);"
       id="path2" />
    <path
       d=" M25.0000010471976 270 A15 15 0 0 1 10 254.999998952802 L10 25.0000010471976 A15 15 0 0 1 25.0000010471976 10 L194.999998952802 10 A15 15 0 0 1 210 25.0000010471975 L210 254.999997120207 A15 15 0 0 1 195.000001047198 270 Z"
       style="fill:rgb(0,255,0);"
       id="path4" />
    <path
       d=" M205 55 L205 254.999998080138 A10 10 0 0 1 195.000000698132 265 L25.0000006981317 265 A10 10 0 0 1 15 254.999999301868 L15.0000000000001 55.0000017453293 A25 25 0 0 1 40.0000017453293 30.0000000000001 L179.999998254671 30.0000000000001 A25 25 0 0 1 205 55.0000017453292 Z"
       style="fill:rgb(0,255,0);"
       id="path6" />
    <path
       d=" M205 55 L205 254.999998080138 A10 10 0 0 1 195.000000698132 265 L25.0000006981317 265 A10 10 0 0 1 15 254.999999301868 L15.0000000000001 55.0000017453293 A25 25 0 0 1 40.0000017453293 30.0000000000001 L179.999998254671 30.0000000000001 A25 25 0 0 1 205 55.0000017453292 Z"
       style="fill:rgb(255,255,255);"
       id="path32" />
    <path
       d=" M159.28 136.33 A49.28 49.28 0 0 1 60.72 136.33 A49.28 49.28 0 0 1 159.28 136.33 Z"
       style="fill:rgb(0,255,0);"
       id="path34" />
    <path
       d=" M103.869771677734 50.7373135150571 A11.57 11.57 0 0 0 103.756740150851 49.1950680770142 L103.75 49.19 L104.162725949944 49.1378358224934 A11.98 11.98 0 0 1 96.8872726849078 61.8769476060158 L96.88 61.87 L97.32 63.55 L109.316835477733 52.6352775885079 A3.27 3.27 0 0 1 111.621248402135 47.5656476561195 L111.62 47.57 L111.62 44.61 L110.74 44.61 L110.74 43.66 L113.32 43.66 L113.32 44.61 L112.44 44.61 L112.438749502753 47.5656473921599 A3.27 3.27 0 0 1 115.265041066204 50.3331254882325 L115.26 50.33 L115.7094792533 50.3335201443689 A11.98 11.98 0 0 1 115.889084103774 48.6899286973955 L115.89 48.69 L116.292611479796 48.7624935433739 A11.57 11.57 0 0 0 116.119813094514 50.3335771728408 L116.12 50.33 L116.800427139518 50.3335607347565 A10.89 10.89 0 1 1 137.250317177895 56.0062610706634 L137.25 56 L137.833656356792 56.3569056768783 A11.57 11.57 0 0 0 138.21374400256 55.5959311830121 L138.21 55.59 L138.587017987254 55.7655381772035 A11.98 11.98 0 0 1 122.633982034753 61.6754545553513 L122.63 61.67 L120.08 66.63 L120.661556888382 67.8566686938955 A0.44 0.44 0 0 0 121.023393719485 68.0891948381267 L121.026351501308 68.0879990169806 A1.08 1.08 0 0 1 121.562334656391 68.3562204644562 L121.55420088076 68.3599346237942 A0.59 0.59 0 0 1 121.18495626056 69.3574349405893 L121.192757889646 69.3579447656591 A16.3 16.3 0 0 1 116.135892337852 69.2839256980371 L116.129717057358 69.2924487481156 A0.54 0.54 0 0 1 116.212611483312 68.2471179800827 L116.21 68.25 L118.988073883461 68.1269252549592 A0.44 0.44 0 0 0 119.428697100069 67.4838093978919 L119.43 67.48 L119.07 66.73 L98.15 66.73 L98.7300655079637 68.9751001667925 A7.32 7.32 0 0 1 101.19713182683 69.2377088624325 L101.20352664592 69.2310387327137 A3.7 3.7 0 0 0 102.81647335408 69.2310387327137 L102.816131701411 69.2381648854122 A0.57 0.57 0 0 1 103.083976666291 70.2386581657692 L103.076460393961 70.2322389960855 A2.53 2.53 0 0 1 101.640475868216 70.3741410199577 L101.642546705057 70.3743186438525 A12.23 12.23 0 0 0 98.0641566070539 70.1986049041391 L98.07 70.2 L95.9887402284144 62.2079645343928 A11.98 11.98 0 0 1 89.1303041428022 62.3630700756493 L89.13 62.36 L89.2387935930957 61.9676841384908 A11.57 11.57 0 0 0 95.8851317227741 61.8105331930029 L95.88 61.8 L95.7134704922369 61.1511952500003 A10.89 10.89 0 1 1 103.189572815952 50.7135433460886 L103.18 50.71 Z M92.8540677042524 52.2039185697538 A1.5 1.5 0 1 1 93.7378349127622 50.3826467928726 L93.73 50.38 L102.099077156021 50.6755124900227 A9.8 9.8 0 1 0 95.4380842066961 60.0939876945031 L95.43 60.09 L94.07766350936 54.8970265862213 A5.79 5.79 0 0 0 92.8449797228781 52.1959482203118 Z M136.254945279031 55.4081750142455 A9.73 9.73 0 1 0 117.961664465113 50.3337076198876 L117.96 50.33 L125.481202334594 50.3327277227776 A2.25 2.25 0 1 1 129.810455996796 51.533641655599 L129.8 51.53 Z M110.74 57.95 L113.32 57.95 L113.32 57 L112.44 57 L112.438750861744 54.0543524366233 A3.27 3.27 0 0 0 112.988718229781 53.9363012260313 L112.99 53.93 L118.62 65.78 L97.9 65.78 L97.59 64.59 L109.958920157595 53.3405193708772 A3.27 3.27 0 0 0 111.621252082737 54.0543528075924 L111.62 54.05 L111.62 57 L110.74 57 Z M103.83 51.69 L103.156317514402 51.6658446275333 A10.89 10.89 0 0 1 96.6095400090032 60.8109981957203 L96.6 60.8 L96.7826956519959 61.4763180006775 A11.57 11.57 0 0 0 103.836519170652 51.6895597905636 Z M93.5852881634832 51.5833267981972 A1.5 1.5 0 0 0 93.7045212700883 51.3366118132644 L93.7 51.33 L102.065826193076 51.627703348801 A9.8 9.8 0 0 1 96.3311080938774 59.7425342168657 L96.33 59.74 L95.0147228078766 54.724106296707 A6.7 6.7 0 0 0 93.5736740605029 51.5807529707348 Z M137.34 57.17 L136.759439468027 56.8229758810788 A10.89 10.89 0 0 1 123.132445305662 60.7050415007721 L123.13 60.7 L122.821415063879 61.3104310586993 A11.57 11.57 0 0 0 137.342810289232 57.1735679704318 Z M121.78632562462 61.2400049068534 A11.98 11.98 0 0 1 115.709479136874 51.2864769306811 L115.71 51.28 L115.265041132788 51.2868740600705 A3.27 3.27 0 0 1 113.850029527616 53.5266877845286 L113.85 53.52 L119.57 65.55 Z M122.284855467347 60.2696255460662 A10.89 10.89 0 0 1 116.800427405614 51.2864453415432 L116.8 51.28 L116.119812878322 51.2864175813128 A11.57 11.57 0 0 0 121.973877698578 60.8750418916772 L121.97 60.87 Z M122.815608583789 59.2367785155357 A9.73 9.73 0 0 1 117.961664598119 51.2862950939836 L117.96 51.28 L125.481202384574 51.28727250748 A2.25 2.25 0 0 0 126.25074215148 52.5477347330487 L126.25 52.54 Z M123.662930449735 59.672056884738 A9.73 9.73 0 0 0 135.764221266598 56.2246344763687 L135.76 56.22 L129.318720349575 52.3517832584016 A2.25 2.25 0 0 1 127.099807977715 52.9839082817077 L127.1 52.98 Z"
       style="fill:rgb(0,255,0);"
       id="path36" />
    <path
       d="M 105.39,254.51 86,235.12 l 19.39,-19.39 5.01,5.01 -10.83,10.83 34.43,0 v 7.09 l -34.43,0 10.83,10.83 z"
       style="fill:#00ff00"
       id="path38"
       inkscape:connector-curvature="0" />
    <path
       d=" M156.78 136.33 A46.78 46.78 0 0 1 63.22 136.33 A46.78 46.78 0 0 1 156.78 136.33 Z"
       style="fill:rgb(0,255,0);"
       id="path40" />
    <path
       d=" M156.78 136.33 A46.78 46.78 0 0 1 63.22 136.33 A46.78 46.78 0 0 1 156.78 136.33 Z"
       style="fill:rgb(255,255,255);"
       id="path42" />
    <path
       d=" M20 190 L24.01 190 L24.89 193 L31.91 193 L32.79 190 L36.8 190 L30.65 211 L26.15 211 Z M25.92 196.5 L30.88 196.5 L28.4 204.98 Z"
       style="fill:rgb(0,255,0);"
       id="path48" />
    <path
       d=" M44.05 190 L46.1599992058752 190 A3.5 3.5 0 0 1 48.6600007950608 191.050511068673 L48.66 191.05 L48.66 190 L52.16 190 L52.1599999999995 199.420002513274 A6 6 0 0 1 40.2580010022704 200.500003625364 L40.26 200.5 L43.7282108820757 200.500001453399 A2.5 2.5 0 0 0 48.1473901605901 201.436667514517 L48.1511731309426 201.431667235881 A1.75 1.75 0 0 0 46.7600002748894 198.62 L46.76 198.63 L44.0499993229868 198.62 A4.31 4.31 0 1 1 44.0500006770132 190 Z M44.55 193 L46.9100019547688 193.000000000001 A1.75 1.75 0 0 1 48.6599999999994 194.74999859501 L48.6599977934382 196.97168427831 A3 3 0 0 0 46.1600036128316 195.630000000002 L44.5499997713619 195.62 A1.31 1.31 0 0 1 44.5500002286381 193 Z"
       style="fill:rgb(0,255,0);"
       id="path50" />
    <path
       d=" M56.78 190 L60.28 190 L60.28 199.919999520034 A2.5 2.5 0 0 0 65.28 199.920000479966 L65.28 190 L68.78 190 L68.7799999999991 200.480003017674 A4.94 4.94 0 0 1 60.2785143487167 203.903363836302 L60.28 203.9 L60.28 205 L56.78 205 Z"
       style="fill:rgb(0,255,0);"
       id="path52" />
    <path
       d=" M73.4 190 L76.9 190 L76.9 211 L73.4 211 Z"
       style="fill:rgb(0,255,0);"
       id="path54" />
    <path
       d=" M81.1 199.42 L81.1000000000001 195.580000942478 A6 6 0 0 1 93.0999999999999 195.579999057522 L93.1 199.42 A6 6 0 0 1 81.1 199.42 Z M84.6 199.92 L84.6 195.080000392699 A2.5 2.5 0 0 1 89.6 195.079999607301 L89.6 199.92 A2.5 2.5 0 0 1 84.6 199.92 Z"
       style="fill:rgb(0,255,0);"
       id="path56" />
    <path
       d=" M96.67 199.42 L96.6700000000001 195.580000942478 A6 6 0 0 1 108.67 195.579999057522 L108.67 199.42 A6 6 0 0 1 96.67 199.42 Z M100.17 199.92 L100.17 195.080000392699 A2.5 2.5 0 0 1 105.17 195.079999607301 L105.17 199.92 A2.5 2.5 0 0 1 100.17 199.92 Z"
       style="fill:rgb(0,255,0);"
       id="path58" />
    <path
       d=" M112.87 184 L116.37 184 L116.368514348717 191.096636163698 A4.94 4.94 0 0 1 124.869999999999 194.519996982326 L124.869999999999 200.480003017674 A4.94 4.94 0 0 1 116.368514348717 203.903363836302 L116.37 203.9 L116.37 205 L112.87 205 Z M121.37 195.08 L121.37 199.920000392699 A2.5 2.5 0 0 1 116.37 199.919999607301 L116.37 195.080000392699 A2.5 2.5 0 0 1 121.37 195.079999607301 Z"
       style="fill:rgb(0,255,0);"
       id="path60" />
    <path
       d=" M129.07 190 L132.57 190 L132.570000000001 198.499997373279 A3.5 3.5 0 0 0 136.070002565634 201.999999999999 L137.82 202 L137.82 205 L136.070002822197 204.999999999999 A4.9 4.9 0 0 1 132.570000083961 203.529285725589 L132.57 203.53 L132.57 205 L129.07 205 Z"
       style="fill:rgb(0,255,0);"
       id="path62" />
    <path
       d=" M140.13 199.42 L140.13 195.580000942478 A6 6 0 0 1 152.13 195.579999057522 L152.13 199.42 A6 6 0 0 1 140.13 199.42 Z M143.63 199.92 L143.63 195.080000392699 A2.5 2.5 0 0 1 148.63 195.079999607301 L148.63 199.92 A2.5 2.5 0 0 1 143.63 199.92 Z"
       style="fill:rgb(0,255,0);"
       id="path64" />
    <path
       d=" M164.41 190 L167.91 190 L167.91 205 L164.41 205 L164.41 195.079999520034 A2.5 2.5 0 1 0 159.41 195.080000479966 L159.41 205 L155.91 205 L155.91 194.519998706711 A4.94 4.94 0 0 1 164.411484456304 191.096634920505 L164.41 191.1 Z"
       style="fill:rgb(0,255,0);"
       id="path66" />
    <path
       d=" M171.27 202 L173.02 202 L173.020000000001 193.900002926917 A3.9 3.9 0 0 1 176.920002858849 190.000000000001 L180.02 190 L180.02 193 L177.420000659734 193 A0.9 0.9 0 0 0 176.52 193.900000675442 L176.52 202 L180.02 202 L180.02 205 L176.52 205 L176.52 211 L173.02 208.98 L173.02 205 L171.27 205 Z"
       style="fill:rgb(0,255,0);"
       id="path68" />
    <path
       d=" M183.17 199.3 L183.170000000001 195.579996858407 A6 6 0 0 1 194.929999346373 193.899997758995 L191.373996913311 193.900001014359 A2.5 2.5 0 0 0 186.670000000001 195.080002007129 L186.67 196.3 L195.17 196.3 L195.17 199.3 A6 6 0 0 1 183.17 199.3 Z M186.67 199.92 L186.67 199.3 L191.67 199.3 L191.67 199.92 A2.5 2.5 0 0 1 186.67 199.92 Z"
       style="fill:rgb(0,255,0);"
       id="path70" />
  </g>
</svg>
