<?xml version="1.0" encoding="UTF-8" standalone="no"?>
<svg
   xmlns:dc="http://purl.org/dc/elements/1.1/"
   xmlns:cc="http://creativecommons.org/ns#"
   xmlns:rdf="http://www.w3.org/1999/02/22-rdf-syntax-ns#"
   xmlns:svg="http://www.w3.org/2000/svg"
   xmlns="http://www.w3.org/2000/svg"
   xmlns:sodipodi="http://sodipodi.sourceforge.net/DTD/sodipodi-0.dtd"
   xmlns:inkscape="http://www.inkscape.org/namespaces/inkscape"
   width="221"
   height="567.34351"
   version="1.1"
   id="svg102"
   sodipodi:docname="FtsRt-Knooppuntenbord-RechtdoorRechtsLinks.svg"
   inkscape:version="0.92.1 r15371">
  <metadata
     id="metadata108">
    <rdf:RDF>
      <cc:Work
         rdf:about="">
        <dc:format>image/svg+xml</dc:format>
        <dc:type
           rdf:resource="http://purl.org/dc/dcmitype/StillImage" />
        <dc:title></dc:title>
      </cc:Work>
    </rdf:RDF>
  </metadata>
  <defs
     id="defs106" />
  <sodipodi:namedview
     pagecolor="#ffffff"
     bordercolor="#666666"
     borderopacity="1"
     objecttolerance="10"
     gridtolerance="10"
     guidetolerance="10"
     inkscape:pageopacity="0"
     inkscape:pageshadow="2"
     inkscape:window-width="1920"
     inkscape:window-height="1018"
     id="namedview104"
     showgrid="false"
     fit-margin-top="0"
     fit-margin-left="0"
     fit-margin-right="0"
     fit-margin-bottom="0"
     inkscape:zoom="1.8330097"
     inkscape:cx="197.24067"
     inkscape:cy="286.74647"
     inkscape:window-x="-8"
     inkscape:window-y="-8"
     inkscape:window-maximized="1"
     inkscape:current-layer="g100" />
  <!--Gegenereerd door de SIMaD-toepassing (http://www.dlw.be).-->
  <g
     style="fill-rule:evenodd;stroke:none"
     transform="matrix(1,0,0,-1,0.49999982,566.84351)"
     id="g100">
    <path
       d="M 219.95025,22.039819 A 21.99005,21.99005 0 0 0 197.96023,0.04975128 H 22.039816 A 21.99005,21.99005 0 0 0 0.04975128,22.039816 V 544.30368 A 21.99005,21.99005 0 0 0 22.039816,566.29376 H 197.96023 a 21.99005,21.99005 0 0 0 21.99002,-21.99008 z"
       style="fill:#ffffff;stroke:#000000;stroke-width:1.09950221"
       id="path2"
       inkscape:connector-curvature="0" />
    <path
       d="M 208.95528,22.039817 A 10.995012,10.995012 0 0 0 197.96023,11.044791 H 22.039816 A 10.995012,10.995012 0 0 0 11.044791,22.039816 V 544.30368 a 10.995012,10.995012 0 0 0 10.995025,10.99496 H 197.96023 a 10.995012,10.995012 0 0 0 10.99505,-10.99496 z"
       style="fill:#00ff00;stroke-width:1.09950221"
       id="path4"
       inkscape:connector-curvature="0" />
    <path
       d="m 198.37801,476.68426 a 54.238477,54.238477 0 0 1 -108.476887,0 54.238477,54.238477 0 0 1 108.476887,0 z"
       style="fill:#ffffff;stroke-width:1.09950221"
       id="path6"
       inkscape:connector-curvature="0" />
    <path
       d="m 49.856608,472.02276 a 11.610751,11.610751 0 0 0 -0.119769,-1.54723 l -5.63e-4,-0.003 0.406824,-0.0539 0.0037,0.002 a 11.984594,11.984594 0 0 1 -7.281724,12.74192 l -0.001,-4.5e-4 0.439801,1.68225 12.006574,-10.92899 -0.01279,0.005 a 3.2765177,3.2765177 0 0 1 2.30584,-5.08114 l 0.0043,0.006 v -2.94661 h -0.890512 v -0.95657 h 2.583834 v 0.95651 h -0.879576 v 2.94667 l 0.0022,0.003 a 3.2655237,3.2655237 0 0 1 2.821518,2.7647 l 0.0016,0.002 h 0.461814 l -0.02027,0.005 a 11.984594,11.984594 0 0 1 0.190497,-1.64294 l 0.005,-4.8e-4 0.395828,0.0655 -0.0056,0.006 a 11.544794,11.544794 0 0 0 -0.162697,1.56869 l 0.0036,-0.003 h 0.681708 l -0.01168,-0.003 a 10.896075,10.896075 0 1 1 20.461629,5.67463 l 7.09e-4,0.002 0.582744,0.35181 -0.0019,0.006 a 11.62175,11.62175 0 0 0 0.38747,-0.76153 l -5.08e-4,-0.004 0.362839,0.1649 0.0026,10e-4 a 11.984594,11.984594 0 0 1 -15.960527,5.9084 l 0.0035,0.005 -2.550846,4.95878 0.582736,1.23145 -0.002,10e-6 a 0.43980102,0.43980102 0 0 0 0.363069,0.23022 l -7.65e-4,-0.001 a 1.0665184,1.0665184 0 0 1 0.52615,0.27115 l -0.0036,-0.002 a 0.58273651,0.58273651 0 0 1 -0.368499,0.98374 l 8.22e-4,10e-4 a 16.283632,16.283632 0 0 1 -5.051908,-0.0652 l 0.0032,0.006 a 0.53875635,0.53875635 0 0 1 0.08039,-1.04313 l 4.34e-4,0.003 2.781742,-0.10995 -0.0067,-0.003 a 0.43980102,0.43980102 0 0 0 0.439543,-0.64347 l 0.0069,-0.002 -0.362833,-0.75861 H 44.128625 l 0.582741,2.24294 -0.0014,0.003 a 7.3336836,7.3336836 0 0 1 2.471413,0.26564 l 0.0045,0.005 a 3.7053245,3.7053245 0 0 0 1.61526,-0.002 l -0.0012,1e-5 a 0.56074643,0.56074643 0 0 1 0.258125,0.98558 l -0.0067,0.005 A 2.5178618,2.5178618 0 0 1 47.62235,491.663 l 0.0085,-0.006 a 12.248456,12.248456 0 0 0 -3.583861,-0.17434 l -0.0061,0.006 -2.07805,-8.00434 0.0022,0.0117 a 11.984594,11.984594 0 0 1 -6.861106,0.15239 l 0.008,-0.0104 0.09886,-0.39581 0.004,0.005 a 11.577766,11.577766 0 0 0 6.650804,-0.15727 l -0.0029,-0.002 -0.175915,-0.65976 0.0035,0.008 a 10.896075,10.896075 0 1 1 7.472308,-10.44913 l 5.01e-4,-0.005 0.681698,0.0204 z m 19.792695,8.93765 a 9.741595,9.741595 0 0 0 12.116213,-3.44982 l -7.1e-4,-0.002 -6.454087,-3.88117 -0.0065,2.9e-4 a 2.2429854,2.2429854 0 0 1 -2.213011,0.6265 l -8.7e-4,0.01 -3.441443,6.69596 z m -0.845667,-0.42989 a 9.741595,9.741595 0 0 1 -4.850638,-7.96543 l -1.39e-4,-0.004 h 7.531586 l -0.01091,0.009 a 2.2429854,2.2429854 0 0 0 0.777286,1.25024 l 0.0031,0.004 -3.452439,6.69597 z m -0.528878,1.0277 a 10.896075,10.896075 0 0 1 -5.477463,-8.99434 l 0.001,-0.003 h -0.681689 l -0.0121,0.006 a 11.566781,11.566781 0 0 0 5.854851,9.58445 l 0.006,0.007 0.318852,-0.61574 z m -0.498456,0.96872 a 11.984594,11.984594 0 0 1 -6.068452,-9.96381 l 0.0018,-0.002 h -0.461729 l 0.0077,0.007 a 3.2655237,3.2655237 0 0 1 -1.416116,2.23479 l 3.38e-4,3e-4 5.717414,12.03964 2.220996,-4.32117 z m 15.560792,-4.07251 -0.582746,-0.35191 0.001,0.004 a 10.896075,10.896075 0 0 1 -13.635543,3.88087 l 5.82e-4,-0.004 -0.307854,0.61576 -0.0022,0.006 a 11.577766,11.577766 0 0 0 14.531304,-4.13902 z m -43.782349,-5.59464 a 1.5173143,1.5173143 0 0 0 0.114338,-0.25242 l 0.0061,0.008 8.367209,0.29688 0.0085,-10e-4 a 9.8075645,9.8075645 0 0 1 -5.743405,8.11814 l -0.0049,-0.002 -1.308408,-5.01374 0.0044,0.002 a 6.7069671,6.7069671 0 0 0 -1.438905,-3.14836 z m 10.2585,0.10799 -0.68168,-0.0202 0.0091,10e-4 a 10.896075,10.896075 0 0 1 -6.552825,9.14857 l 7.27e-4,-0.002 0.164929,0.65976 2.88e-4,0.006 a 11.566781,11.566781 0 0 0 7.047434,-9.78725 z m 6.904887,6.26713 h 2.583828 v -0.94552 h -0.8796 v -2.95771 l 0.0047,0.002 a 3.2875129,3.2875129 0 0 0 0.551645,-0.12448 l -0.0064,7.8e-4 5.640452,11.85269 H 43.88694 l -0.307859,-1.17649 12.369401,-11.26994 -0.0066,0.002 a 3.2655237,3.2655237 0 0 0 1.661431,0.70961 l 0.0055,0.003 v 2.95769 h -0.89061 z m 25.528518,-2.54589 a 9.7306007,9.7306007 0 1 0 -18.292985,-5.0799 l -8.06e-4,0.006 h 7.531586 l -0.0039,-10e-4 a 2.2429854,2.2429854 0 1 1 4.316655,1.19393 l -0.0021,0.005 6.465081,3.88126 z m -43.420207,-3.20248 a 1.4953235,1.4953235 0 1 1 0.873641,-1.81907 l 0.0079,-0.007 8.367216,0.29682 0.0092,-5e-5 a 9.8075645,9.8075645 0 1 0 -6.668622,9.42405 l -0.0041,-10e-4 -1.352394,-5.18962 -0.005,-0.005 a 5.7833849,5.7833849 0 0 0 -1.231759,-2.69773 z"
       style="fill:#ffffff;stroke-width:1.09950221"
       id="path8"
       inkscape:connector-curvature="0" />
    <path
       d="M 16.542296,418.22371 V 293.4301 H 203.45777 v 124.79361 z"
       style="fill:#ffffff;stroke-width:1.09950221"
       id="path10"
       inkscape:connector-curvature="0" />
    <path
       d="M 16.542296,166.62439 H 203.45777 V 290.13155 H 16.542296 Z"
       style="fill:#ffffff;stroke-width:1.09950221"
       id="path12"
       inkscape:connector-curvature="0" />
    <path
       d="M 27.537322,38.532354 H 192.46271 a 10.995012,10.995012 0 0 1 10.99506,10.995027 V 163.32599 H 16.542296 V 49.527381 A 10.995012,10.995012 0 0 1 27.537322,38.532354 Z"
       style="fill:#ffffff;stroke-width:1.09950221"
       id="path14"
       inkscape:connector-curvature="0" />
    <path
       d="m 19.972742,437.10207 h 1.847174 v 2.85875 l 2.396911,-2.85875 h 2.40791 l -3.485415,4.15619 3.485415,3.76023 h -2.517866 l -2.286955,-2.46271 v 5.62924 h -1.847174 z"
       style="fill:#ffffff;stroke-width:1.09950221"
       id="path46"
       inkscape:connector-curvature="0" />
    <path
       d="m 28.284977,437.10207 h 1.847168 v 5.23373 a 1.3194052,1.3194052 0 0 0 2.63881,0 v -5.23373 h 1.847167 v 5.53047 a 2.6058219,2.6058219 0 0 1 -4.484492,1.80586 l -0.0014,-0.002 v 0.58264 h -1.84719 z"
       style="fill:#ffffff;stroke-width:1.09950221"
       id="path48"
       inkscape:connector-curvature="0" />
    <path
       d="m 36.619215,442.07186 v -2.0231 a 3.1665709,3.1665709 0 0 1 6.33314,0 v 2.0231 a 3.1665709,3.1665709 0 0 1 -6.33314,0 z m 1.847167,0.26394 v -2.55088 a 1.319403,1.319403 0 0 1 2.638803,0 v 2.55088 a 1.319403,1.319403 0 0 1 -2.638803,0 z"
       style="fill:#ffffff;stroke-width:1.09950221"
       id="path50"
       inkscape:connector-curvature="0" />
    <path
       d="m 44.832498,442.07186 v -2.0231 a 3.1665688,3.1665688 0 0 1 6.333137,0 v 2.0231 a 3.1665688,3.1665688 0 0 1 -6.333137,0 z m 1.847169,0.26394 v -2.55088 a 1.3194031,1.3194031 0 0 1 2.638804,0 v 2.55088 a 1.3194031,1.3194031 0 0 1 -2.638804,0 z"
       style="fill:#ffffff;stroke-width:1.09950221"
       id="path52"
       inkscape:connector-curvature="0" />
    <path
       d="m 53.386634,433.93556 h 1.847169 l 0.0014,3.74659 a 2.6058219,2.6058219 0 0 1 4.484478,1.80587 v 3.14452 a 2.6058219,2.6058219 0 0 1 -4.484478,1.80586 l -0.0014,-0.002 v 0.58264 h -1.847169 z m 4.485975,5.84936 v 2.55088 a 1.3194032,1.3194032 0 0 1 -2.638806,0 v -2.55088 a 1.3194032,1.3194032 0 0 1 2.638806,0 z"
       style="fill:#ffffff;stroke-width:1.09950221"
       id="path54"
       inkscape:connector-curvature="0" />
    <path
       d="m 61.929771,433.93556 h 1.847166 l 0.0014,3.74659 a 2.6058219,2.6058219 0 0 1 4.484483,1.80587 v 3.14452 a 2.6058219,2.6058219 0 0 1 -4.484483,1.80586 l -0.0014,-0.002 v 0.58264 h -1.847166 z m 4.485969,5.84936 v 2.55088 a 1.319403,1.319403 0 0 1 -2.638803,0 v -2.55088 a 1.319403,1.319403 0 0 1 2.638803,0 z"
       style="fill:#ffffff;stroke-width:1.09950221"
       id="path56"
       inkscape:connector-curvature="0" />
    <path
       d="m 74.749972,437.10207 h 1.847165 v 7.91642 h -1.847165 v -5.23357 a 1.3194041,1.3194041 0 1 0 -2.638808,0 v 5.23357 h -1.847155 v -5.53047 a 2.6058219,2.6058219 0 0 1 4.484469,-1.80587 l 0.0014,0.002 z"
       style="fill:#ffffff;stroke-width:1.09950221"
       id="path58"
       inkscape:connector-curvature="0" />
    <path
       d="m 79.257937,437.10207 h 1.847164 v 5.23373 a 1.3194041,1.3194041 0 0 0 2.638808,0 v -5.23373 h 1.847156 v 5.53047 a 2.6058219,2.6058219 0 0 1 -4.48448,1.80586 l -0.0014,-0.002 v 0.58264 h -1.847142 z"
       style="fill:#ffffff;stroke-width:1.09950221"
       id="path60"
       inkscape:connector-curvature="0" />
    <path
       d="m 87.361265,443.43532 h 0.923578 v -4.27706 a 2.0560699,2.0560699 0 0 1 2.056084,-2.05619 h 1.638256 v 1.58336 H 90.60481 a 0.47278626,0.47278626 0 0 0 -0.472786,0.47283 v 4.27706 h 1.847159 v 1.58317 h -1.847159 v 3.16653 l -1.847181,-1.06652 v -2.10001 h -0.923578 z"
       style="fill:#ffffff;stroke-width:1.09950221"
       id="path62"
       inkscape:connector-curvature="0" />
    <path
       d="m 130.09894,228.90024 a 54.238476,54.238476 0 0 1 -108.476944,0 54.238476,54.238476 0 0 1 108.476944,0 z"
       style="fill:#00ff00;stroke-width:1.09950221"
       id="path64"
       inkscape:connector-curvature="0" />
    <path
       d="m 192.88049,476.68426 a 48.740966,48.740966 0 0 1 -97.481855,0 48.740966,48.740966 0 0 1 97.481855,0 z"
       style="fill:#00ff00;stroke-width:1.09950221"
       id="path66"
       inkscape:connector-curvature="0" />
    <path
       d="m 198.37801,102.22655 a 54.238477,54.238477 0 0 1 -108.476887,0 54.238477,54.238477 0 0 1 108.476887,0 z"
       style="fill:#00ff00;stroke-width:1.09950221"
       id="path68"
       inkscape:connector-curvature="0" />
    <path
       d="m 198.37801,355.57398 a 54.238477,54.238477 0 0 1 -108.476887,0 54.238477,54.238477 0 0 1 108.476887,0 z"
       style="fill:#00ff00;stroke-width:1.09950221"
       id="path70"
       inkscape:connector-curvature="0" />
    <path
       d="m 74.343151,360.98359 -22.72672,22.72671 -22.726711,-22.72671 5.871334,-5.87138 12.699255,12.68828 v -40.35182 h 8.312251 v 40.35182 l 12.688258,-12.68828 z"
       style="fill:#00ff00;stroke-width:1.09950221"
       id="path72"
       inkscape:connector-curvature="0" />
    <path
       d="m 173.73815,206.39343 22.50685,22.50681 -22.50685,22.50698 -5.81623,-5.81651 12.56731,-12.5783 h -39.96712 v -8.22426 h 39.96712 l -12.56731,-12.57831 z"
       style="fill:#00ff00;stroke-width:1.09950221"
       id="path74"
       inkscape:connector-curvature="0" />
    <path
       d="M 46.261848,124.73339 23.755033,102.22655 46.261848,79.719729 52.078215,85.536098 39.510901,98.114415 h 39.966931 v 8.224325 H 39.510901 l 12.567314,12.57825 z"
       style="fill:#00ff00;stroke-width:1.09950221"
       id="path76"
       inkscape:connector-curvature="0" />
    <path
       d="m 124.60145,228.90024 a 48.740972,48.740972 0 0 1 -97.481928,0 48.740972,48.740972 0 0 1 97.481928,0 z"
       style="fill:#ffffff;stroke-width:1.09950221"
       id="path78"
       inkscape:connector-curvature="0" />
    <path
       d="m 192.88049,355.57398 a 48.740966,48.740966 0 0 1 -97.481855,0 48.740966,48.740966 0 0 1 97.481855,0 z"
       style="fill:#ffffff;stroke-width:1.09950221"
       id="path80"
       inkscape:connector-curvature="0" />
    <path
       d="m 192.88049,102.22655 a 48.740966,48.740966 0 0 1 -97.481855,0 48.740966,48.740966 0 0 1 97.481855,0 z"
       style="fill:#ffffff;stroke-width:1.09950221"
       id="path82"
       inkscape:connector-curvature="0" />
  </g>
</svg>
