<?xml version="1.0" encoding="UTF-8" standalone="no"?>
<svg
   xmlns:dc="http://purl.org/dc/elements/1.1/"
   xmlns:cc="http://creativecommons.org/ns#"
   xmlns:rdf="http://www.w3.org/1999/02/22-rdf-syntax-ns#"
   xmlns:svg="http://www.w3.org/2000/svg"
   xmlns="http://www.w3.org/2000/svg"
   xmlns:sodipodi="http://sodipodi.sourceforge.net/DTD/sodipodi-0.dtd"
   xmlns:inkscape="http://www.inkscape.org/namespaces/inkscape"
   width="220"
   height="280"
   version="1.1"
   id="svg46"
   sodipodi:docname="FtsRt-LandelijkeFietsroute-Rechts.svg"
   inkscape:version="0.92.1 r15371">
  <metadata
     id="metadata52">
    <rdf:RDF>
      <cc:Work
         rdf:about="">
        <dc:format>image/svg+xml</dc:format>
        <dc:type
           rdf:resource="http://purl.org/dc/dcmitype/StillImage" />
        <dc:title></dc:title>
      </cc:Work>
    </rdf:RDF>
  </metadata>
  <defs
     id="defs50" />
  <sodipodi:namedview
     pagecolor="#ffffff"
     bordercolor="#666666"
     borderopacity="1"
     objecttolerance="10"
     gridtolerance="10"
     guidetolerance="10"
     inkscape:pageopacity="0"
     inkscape:pageshadow="2"
     inkscape:window-width="1920"
     inkscape:window-height="1018"
     id="namedview48"
     showgrid="false"
     inkscape:zoom="2.38396"
     inkscape:cx="70.376882"
     inkscape:cy="217.6023"
     inkscape:window-x="-8"
     inkscape:window-y="-8"
     inkscape:window-maximized="1"
     inkscape:current-layer="g44" />
  <!--Gegenereerd door de SIMaD-toepassing (http://www.dlw.be).-->
  <g
     style="stroke:none;fill-rule:evenodd;"
     transform="matrix(1,0,0,-1,0,280)"
     id="g44">
    <path
       d=" M22.5 0 L197.499950912615 5.35465005668812E-11 A22.5 22.5 0 0 1 213.409943395632 6.59013824234204 A22.5 22.5 0 0 1 219.999999999946 22.5000490873852 L219.999999999946 257.499950912615 A22.5 22.5 0 0 1 213.409861757658 273.409943395632 L213.41001253767 273.409792614965 A22.5 22.5 0 0 1 197.500049087385 279.999999999946 L22.5000490873852 279.999999999946 A22.5 22.5 0 0 1 6.59005660436805 273.409861757658 A22.5 22.5 0 0 1 5.35465005668812E-11 257.499950912615 L5.35465005668812E-11 22.5000490873852 A22.5 22.5 0 0 1 6.59013824234203 6.59005660436805 A22.5 22.5 0 0 1 22.5000490873852 5.35465005668812E-11 Z"
       style="fill:rgb(255,255,255);stroke:rgb(0,0,0);"
       id="path2" />
    <path
       d=" M22.5 10 L197.50005846853 10.0000000001367 A12.5 12.5 0 0 1 206.338877342357 13.6612078128989 A12.5 12.5 0 0 1 209.999999999863 22.4999415314701 L209.999999999863 257.50005846853 A12.5 12.5 0 0 1 206.338792187101 266.338877342357 A12.5 12.5 0 0 1 197.50005846853 269.999999999863 L22.4999415314701 269.999999999863 A12.5 12.5 0 0 1 13.6611226576425 266.338792187101 A12.5 12.5 0 0 1 10.0000000001367 257.50005846853 L10.0000000001367 22.4999415314701 A12.5 12.5 0 0 1 13.6612078128989 13.6611226576425 A12.5 12.5 0 0 1 22.5000584685299 10.0000000001367 Z"
       style="fill:rgb(0,255,0);"
       id="path4" />
    <path
       d=" M204.999999999886 257.500041364303 A7.5 7.5 0 0 1 202.803328071487 262.803273646171 A7.5 7.5 0 0 1 197.500041364303 264.999999999886 L22.4999586356967 264.999999999886 A7.5 7.5 0 0 1 17.1967263538287 262.803328071487 A7.5 7.5 0 0 1 15.0000000001141 257.500041364303 L15 80 L205 80 Z"
       style="fill:rgb(255,255,255);"
       id="path6" />
    <path
       d=" M169.97 25 L139.97 25 L139.99 65 L169.99 65 Z"
       style="fill:rgb(255,255,255);"
       id="path8" />
    <path
       d=" M74.6800000001478 219.539897364168 A35.64 35.64 0 0 1 110.320034211944 183.900000000016 A35.64 35.64 0 0 1 145.959999999984 219.539965788056 A35.64 35.64 0 0 1 110.320034211944 255.179999999984 A35.64 35.64 0 0 1 74.6800000000164 219.540034211944 Z"
       style="fill:rgb(0,255,0);"
       id="path10" />
    <path
       d=" M164.98 40 L164.99 60 L144.99 60 L144.98 40 Z"
       style="fill:rgb(0,255,0);"
       id="path12" />
    <path
       d=" M142.209999999633 219.539846938988 A31.89 31.89 0 0 1 110.320051205866 251.429999999959 A31.89 31.89 0 0 1 78.4300000000411 219.539948794134 L78.4300000000411 219.540051205866 A31.89 31.89 0 0 1 110.320051205866 187.650000000041 L110.319948794134 187.650000000041 A31.89 31.89 0 0 1 142.209999999959 219.540051205866 Z"
       style="fill:rgb(255,255,255);"
       id="path14" />
    <path
       d=" M75.8293100944876 38.6013795504006 A15.83 15.83 0 0 0 76.2084906591117 36.519827250389 L76.2073873743366 36.5139551809135 A15.59 15.59 0 0 1 66.7395793054042 53.0918131815577 L66.74 53.1 L67.32 55.29 L82.9337201824511 41.0623091384446 A4.25 4.25 0 0 1 82.5909550009582 36.9313099205971 A4.25 4.25 0 0 1 85.9287468929389 34.4733342394449 L85.93 34.48 L85.93 30.63 L84.78 30.63 L84.78 29.39 L88.15 29.39 L88.15 30.63 L87 30.63 L86.9967186147175 34.4760816365354 A4.61 4.61 0 0 1 91.2585710069056 38.0725483158838 L91.2592124124712 38.071346301876 A15.8 15.8 0 0 1 92.0160955236473 36.0263464955305 L92.0182224694878 36.0293367676217 A15.73 15.73 0 0 0 92.6798284737355 38.0738783215621 L92.6835679344118 38.0700555086255 A14.17 14.17 0 0 1 102.266864241431 25.2782391411977 A14.17 14.17 0 0 1 117.668707955945 29.5506354704032 A14.17 14.17 0 0 1 119.292830343884 45.451354629543 L119.3 45.46 L121.033692941082 45.1388123475794 A15.59 15.59 0 0 1 112.255742050226 53.3090915601965 A15.59 15.59 0 0 1 100.273426530698 52.829597337699 L100.27 52.83 L96.95 59.3 L98.3947878225293 62.849032382632 A21.22 21.22 0 0 1 91.8115723594973 62.7526688520634 L91.81 62.75 L91.91 61.4 L96.1 60.41 L95.64 59.42 L68.39 59.42 L69.1581767513055 62.349659716269 A9.53 9.53 0 0 1 72.3700889456595 62.6915520683892 L72.3694114680575 62.6941113652369 A4.82 4.82 0 0 0 74.4705885319425 62.6941113652369 L74.47 62.69 L74.8175649804942 63.9850910983872 A3.3 3.3 0 0 1 72.9445447122189 64.1701860568471 L72.9414363732782 64.1650234575102 A15.92 15.92 0 0 0 68.2833286505394 63.9362891243948 L68.29 63.94 L65.5723769451691 53.5235247262905 A15.35 15.35 0 0 1 56.787916971482 53.2128312346993 L56.7895199329646 53.2171210135062 A14.78 14.78 0 0 0 65.2154138620013 52.1538159266938 L65.2115923611416 52.1458967481714 A14.17 14.17 0 0 1 49.3539959205525 47.0842689293374 A14.17 14.17 0 0 1 49.2501872753959 30.4387688924591 A14.17 14.17 0 0 1 65.0433986628385 25.179745973208 L65.0540301356473 25.1756706870378 A14.66 14.66 0 0 1 75.8422690868888 38.5991976781798 Z"
       style="fill:rgb(255,255,255);"
       id="path16" />
    <path
       d=" M61.4902843151666 40.5020956115296 A1.95 1.95 0 0 1 59.3414549584101 40.0173127228159 A1.95 1.95 0 0 1 59.0156369187049 37.8387008874733 A1.95 1.95 0 0 1 60.9286236129427 36.746462362233 A1.95 1.95 0 0 1 62.6391838351697 38.1344356109862 L62.64 38.14 L73.5287984255852 38.5148922180895 A12.76 12.76 0 0 0 64.5520392208501 26.5033770333225 A12.76 12.76 0 0 0 50.3520940042184 31.3221757171429 A12.76 12.76 0 0 0 50.5397885271187 46.31629485531 A12.76 12.76 0 0 0 64.855913722188 50.7781309165163 L64.86 50.78 L63.0927760375559 44.0229402636282 A7.54 7.54 0 0 0 61.4875317785944 40.5054965388797 Z"
       style="fill:rgb(0,255,0);"
       id="path18" />
    <path
       d=" M118.005937401916 44.677548908902 A12.67 12.67 0 0 0 116.508211101385 30.5013130418209 A12.67 12.67 0 0 0 102.771787243814 26.6908939928675 A12.67 12.67 0 0 0 94.1851891637715 38.0697881819302 L94.19 38.07 L103.986451003311 38.0705985764492 A2.92 2.92 0 0 1 106.055634867705 35.8773195454797 A2.92 2.92 0 0 1 108.961232292053 36.6833177722539 A2.92 2.92 0 0 1 109.604861219215 39.6291179044624 L109.61 39.63 Z"
       style="fill:rgb(0,255,0);"
       id="path20" />
    <path
       d=" M84.78 48 L88.15 48 L88.15 46.76 L87 46.76 L87.71 42.76 L95.05 58.18 L68.07 58.18 L67.67 56.65 L83.7682187136308 41.9788924437191 A4.25 4.25 0 0 0 85.9287752269108 42.9066693302245 L85.93 42.91 L85.93 46.76 L84.78 46.76 Z"
       style="fill:rgb(0,255,0);"
       id="path22" />
    <path
       d=" M74.9017433102632 39.8032940710327 A14.74 14.74 0 0 1 66.6087777204971 52.5693265841833 L66.6114160662809 52.5701235969757 A14.6 14.6 0 0 0 74.9044079391079 39.8040506241841 Z"
       style="fill:rgb(0,255,0);"
       id="path24" />
    <path
       d=" M62.44 39.7 L73.4855047545074 39.7546778095277 A12.76 12.76 0 0 1 66.0186634164245 50.3205258841158 L66.02 50.32 L64.3258563673008 43.7929839178156 A8.73 8.73 0 0 0 62.4481770270091 39.6972188706343 Z"
       style="fill:rgb(0,255,0);"
       id="path26" />
    <path
       d=" M118.662079056118 46.5194329931756 A14.65 14.65 0 0 1 100.518080321457 52.3616677561924 L100.512735523457 52.3609727552837 A14.6 14.6 0 0 0 118.649125982764 46.5211878012322 Z"
       style="fill:rgb(0,255,0);"
       id="path28" />
    <path
       d=" M99.1621228941587 52.277208420205 A15.92 15.92 0 0 1 90.6615385984892 39.3192882670292 L90.664565731917 39.309779804438 A4.25 4.25 0 0 1 88.8254704628998 42.2208709250196 L88.83 42.23 L96.28 57.89 Z"
       style="fill:rgb(0,255,0);"
       id="path30" />
    <path
       d=" M99.822556704583 51.0028234829717 A14.67 14.67 0 0 1 91.7991800583667 39.3130098495809 L91.7952504219128 39.3087874028627 A14.6 14.6 0 0 0 99.81757696147 50.9970710630662 Z"
       style="fill:rgb(0,255,0);"
       id="path32" />
    <path
       d=" M100.505787684542 49.6629965981361 A12.67 12.67 0 0 1 94.1851893369678 39.3102153519596 L94.19 39.31 L103.986441544374 39.3093578451314 A2.92 2.92 0 0 0 104.985163479165 40.9452120700675 L104.98 40.95 Z"
       style="fill:rgb(0,255,0);"
       id="path34" />
    <path
       d=" M101.609140858819 50.2298012394116 A12.67 12.67 0 0 0 117.366938928714 45.7407061200367 L117.36 45.74 L108.966693875851 40.6908930902023 A2.92 2.92 0 0 1 106.087044561406 41.5112511599451 L106.09 41.52 Z"
       style="fill:rgb(0,255,0);"
       id="path36" />
    <path
       d="m 85.06,170.39 v -16.67 h 7.77 v -3.33 H 81.4 v 20 z m 10.34,-20 v 20 h 12.28 v -3.33 h -8.62 v -4.62 h 5.77 v -3.33 h -5.77 v -8.72 z"
       style="fill:#00ff00"
       id="path40"
       inkscape:connector-curvature="0"
       sodipodi:nodetypes="cccccccccccccccccc" />
    <path
       d="m 115.18,199.06 20.47,20.47 -20.47,20.47 -5.29,-5.29 11.43,-11.44 -36.35,0 v -7.48 h 36.35 l -11.43,-11.44 z"
       style="fill:#00ff00"
       id="path42"
       inkscape:connector-curvature="0" />
  </g>
</svg>
