<?xml version="1.0" encoding="UTF-8" standalone="no"?>
<svg
   xmlns:dc="http://purl.org/dc/elements/1.1/"
   xmlns:cc="http://creativecommons.org/ns#"
   xmlns:rdf="http://www.w3.org/1999/02/22-rdf-syntax-ns#"
   xmlns:svg="http://www.w3.org/2000/svg"
   xmlns="http://www.w3.org/2000/svg"
   xmlns:sodipodi="http://sodipodi.sourceforge.net/DTD/sodipodi-0.dtd"
   xmlns:inkscape="http://www.inkscape.org/namespaces/inkscape"
   width="220"
   height="280"
   version="1.1"
   id="svg104"
   sodipodi:docname="FtsRt-Aankondigingsbord-.svg"
   inkscape:version="0.92.1 r15371">
  <metadata
     id="metadata110">
    <rdf:RDF>
      <cc:Work
         rdf:about="">
        <dc:format>image/svg+xml</dc:format>
        <dc:type
           rdf:resource="http://purl.org/dc/dcmitype/StillImage" />
      </cc:Work>
    </rdf:RDF>
  </metadata>
  <defs
     id="defs108" />
  <sodipodi:namedview
     pagecolor="#ffffff"
     bordercolor="#666666"
     borderopacity="1"
     objecttolerance="10"
     gridtolerance="10"
     guidetolerance="10"
     inkscape:pageopacity="0"
     inkscape:pageshadow="2"
     inkscape:window-width="1920"
     inkscape:window-height="1018"
     id="namedview106"
     showgrid="false"
     inkscape:zoom="3.3714286"
     inkscape:cx="102.32171"
     inkscape:cy="201.71599"
     inkscape:window-x="-8"
     inkscape:window-y="-8"
     inkscape:window-maximized="1"
     inkscape:current-layer="g102" />
  <!--Gegenereerd door de SIMaD-toepassing (http://www.dlw.be).-->
  <g
     style="stroke:none;fill-rule:evenodd;"
     transform="matrix(1,0,0,-1,0,280)"
     id="g102">
    <path
       d=" M25.0000248709418 279.999999999988 A25 25 0 0 1 7.32238662352929 272.677725682678 L7.3222743173217 272.677613376471 A25 25 0 0 1 1.23705490295833E-11 254.999975129058 L1.23705490295833E-11 25.0000248709418 A25 25 0 0 1 7.3222743173217 7.3223866235293 L7.32238662352929 7.3222743173217 A25 25 0 0 1 25.0000248709418 1.23705490295833E-11 L194.999975129058 1.23705490295833E-11 A25 25 0 0 1 212.677613376471 7.32227431732169 L212.677725682678 7.3223866235293 A25 25 0 0 1 219.999999999988 25.0000248709418 L219.999999999988 254.999975129058 A25 25 0 0 1 212.677725682678 272.677613376471 A25 25 0 0 1 195.000024870942 279.999999999988 Z"
       style="fill:rgb(255,255,255);stroke:rgb(0,0,0);"
       id="path2" />
    <path
       d=" M24.9999343756201 264.999999999785 A10 10 0 0 1 17.9290563431199 262.071191964671 L17.928808035329 262.07094365688 A10 10 0 0 1 15.0000000002153 255.00006562438 L15.0000000002153 24.9999343756201 A10 10 0 0 1 17.928808035329 17.9290563431199 L17.9291491522465 17.9287152306796 A10 10 0 0 1 25.0000656243799 15.0000000002153 L195.00006562438 15.0000000002153 A10 10 0 0 1 202.07094365688 17.928808035329 L202.071191964671 17.9290563431199 A10 10 0 0 1 204.999999999785 24.9999343756201 L204.999999999785 255.00006562438 A10 10 0 0 1 202.071191964671 262.07094365688 L202.07094365688 262.071191964671 A10 10 0 0 1 195.00006562438 264.999999999785 Z"
       style="fill:rgb(0,255,0);"
       id="path4" />
    <path
       d=" M159.28 79.49 A49.28 49.28 0 0 1 60.72 79.49 A49.28 49.28 0 0 1 159.28 79.49 Z"
       style="fill:rgb(255,255,255);"
       id="path6" />
    <path
       d=" M200 140 L199.99999999997 255.000017191493 A5 5 0 0 1 198.535464176666 258.535603633825 L198.535732410838 258.535335389882 A5 5 0 0 1 195.000054977871 259.999999999698 L25.0000549778714 259.999999999698 A5 5 0 0 1 21.4643453361031 258.535413143844 L21.4645358233343 258.535603633825 A5 5 0 0 1 20.0000000000296 255.000017191493 L20 140 Z"
       style="fill:rgb(0,255,0);"
       id="path8" />
    <path
       d=" M156.78 79.49 A46.78 46.78 0 0 1 63.22 79.49 A46.78 46.78 0 0 1 156.78 79.49 Z"
       style="fill:rgb(255,255,255);"
       id="path10" />
    <path
       d=" M200 140 L199.99999999997 255.000017191493 A5 5 0 0 1 198.535464176666 258.535603633825 L198.535732410838 258.535335389882 A5 5 0 0 1 195.000054977871 259.999999999698 L25.0000549778714 259.999999999698 A5 5 0 0 1 21.4643453361031 258.535413143844 L21.4645358233343 258.535603633825 A5 5 0 0 1 20.0000000000296 255.000017191493 L20 140 Z"
       style="fill:rgb(255,255,255);"
       id="path12" />
    <path
       d=" M156.78 79.49 A46.78 46.78 0 0 1 63.22 79.49 A46.78 46.78 0 0 1 156.78 79.49 Z"
       style="fill:rgb(0,255,0);"
       id="path14" />
    <path
       d=" M73.37 250.38 L70.73 250.38 L70.72 238.56 L70.66 237.23 L69.92 234.36 L67.64 232.71 L66.57 232.5 L64.34 232.49 L62 233.4 L61.28 234.11 L60.44 236.44 L60.33 237.54 L60.3 238.84 L60.3 250.38 L57.64 250.38 L57.64 238.83 L57.68 237.72 L57.76 236.58 L58.76 233.12 L59.36 232.29 L60.09 231.59 L62.31 230.46 L63.29 230.23 L64.38 230.09 L66.4 230.07 L67.51 230.19 L70.9 231.62 L72.24 233.14 L73.09 235.45 L73.24 236.46 L73.34 237.59 L73.37 238.83 Z"
       style="fill:rgb(0,255,0);"
       id="path16" />
    <path
       d=" M157.22 232.41 L157.65 231.29 L159.35 230.3 L161.27 230.23 L162.37 230.41 L161.97 232.58 L159.63 233.32 L159.54 234.49 L159.54 242.97 L162.01 242.97 L162.01 244.87 L159.54 244.87 L159.54 249.93 L157.1 248.46 L157.1 244.87 L155.3 244.87 L155.3 242.97 L157.1 242.97 L157.1 234.63 L157.12 233.49 Z"
       style="fill:rgb(0,255,0);"
       id="path18" />
    <path
       d=" M149.53 244.87 L147.32 244.87 L147.32 230.38 L149.77 230.38 L149.81 238.82 L149.94 239.86 L150.44 241.43 L151.54 242.45 L153.36 242.55 L154.35 242.13 L154.61 244.72 L152.03 245.13 L150.19 243.74 L149.53 242.68 Z"
       style="fill:rgb(0,255,0);"
       id="path20" />
    <path
       d=" M137.76 245.2 L136.34 245.07 L133.63 243.87 L131.48 240.76 L131.21 239.77 L131.05 238.69 L131.04 236.56 L131.18 235.46 L135.75 230.32 L136.78 230.12 L138.21 230.07 L139.32 230.16 L142.09 231.32 L143.42 232.79 L143.91 233.7 L144.27 234.74 L141.43 234.32 L138.98 232.21 L137.58 232.08 L135.68 232.7 L133.97 234.83 L133.68 235.84 L133.54 237 L144.34 237.66 L144.31 238.67 L144.17 239.76 L142.37 243.36 L139.85 244.91 L138.84 245.13 Z"
       style="fill:rgb(0,255,0);"
       id="path22" />
    <path
       d=" M87.44 242.81 L87.44 244.87 L85.22 244.87 L85.22 230.38 L87.68 230.38 L87.68 238.29 L87.74 239.57 L89.54 242.58 L90.49 242.95 L92.31 243 L93.69 242.29 L94.48 240.41 L94.53 239.19 L94.53 230.38 L96.99 230.38 L96.99 239.7 L96.57 242.61 L95.41 244.18 L94.11 244.87 L93.11 245.12 L91.62 245.18 L88.07 243.61 Z"
       style="fill:rgb(0,255,0);"
       id="path24" />
    <path
       d=" M112.63 232.18 L112.52 233.73 L112.49 234.95 L112.48 236.45 L112.48 239.97 L110.91 244.26 L109.09 245 L108.06 245.15 L106.64 245.19 L105.54 245.13 L103.01 244.45 L101.08 242.75 L100.65 241.83 L100.35 240.74 L102.9 240.95 L105.32 243.08 L106.52 243.16 L107.59 243.09 L109.88 241.38 L108.07 239.09 L106.93 238.91 L105.47 238.71 L102.57 238.05 L101.03 237 L100.05 235.24 L99.93 233.91 L100.54 232 L102.68 230.37 L103.7 230.13 L105.57 230.09 L106.6 230.24 L108.42 230.92 L109.3 231.47 L110.35 231.33 L110.69 230.38 L112.92 231.13 Z"
       style="fill:rgb(0,255,0);"
       id="path26" />
    <path
       d=" M121.52 245.2 L120.17 245.05 L119.2 244.74 L117.96 244.02 L117.22 243.34 L116.61 242.52 L115.84 240.74 L115.59 239.75 L115.45 238.71 L115.44 236.64 L115.58 235.58 L116.41 233.28 L116.98 232.39 L117.66 231.63 L118.68 230.87 L119.61 230.42 L120.6 230.14 L122.46 230.11 L125.05 231.4 L125.69 232.22 L125.69 230.38 L127.96 230.38 L127.96 250.38 L125.52 250.38 L125.43 243.32 L124.73 244.06 L123.56 244.8 L122.59 245.09 Z"
       style="fill:rgb(0,255,0);"
       id="path28" />
    <path
       d=" M172.77 157.24 L171.46 158.08 L171.37 159.25 L171.37 167.72 L173.84 167.72 L173.84 169.63 L171.37 169.63 L171.37 174.69 L168.94 173.21 L168.94 169.63 L167.14 169.63 L167.14 167.72 L168.94 167.72 L168.94 159.38 L168.96 158.25 L169.49 156.06 L171.19 155.05 L173.11 154.99 L174.2 155.17 L173.81 157.33 Z"
       style="fill:rgb(0,255,0);"
       id="path30" />
    <path
       d=" M159.25 167.83 L161.42 167.04 L162.2 165.17 L162.27 163.95 L162.27 155.14 L164.73 155.14 L164.73 164.46 L164.31 167.37 L163.14 168.95 L161.83 169.63 L160.84 169.87 L159.35 169.94 L155.81 168.38 L155.16 167.56 L155.16 169.63 L152.96 169.63 L152.96 155.14 L155.41 155.14 L155.41 163.06 L155.48 164.32 L157.28 167.34 L158.21 167.71 Z"
       style="fill:rgb(0,255,0);"
       id="path32" />
    <path
       d=" M138.28 156.54 L140.26 155.17 L141.26 154.9 L142.73 154.83 L146.24 156.44 L146.91 157.26 L146.91 155.14 L149.11 155.14 L149.11 169.63 L146.66 169.63 L146.63 160.93 L146.24 159 L145.69 158.15 L144.79 157.45 L143.83 157.05 L140.4 158.05 L139.85 160.25 L139.83 161.6 L139.83 169.63 L137.37 169.63 L137.37 160.38 L137.8 157.42 Z"
       style="fill:rgb(0,255,0);"
       id="path34" />
    <path
       d=" M66.07 167.83 L68.23 167.04 L69.02 165.17 L69.07 163.95 L69.07 155.14 L71.53 155.14 L71.53 164.46 L71.11 167.37 L69.95 168.95 L68.65 169.63 L67.65 169.87 L66.16 169.94 L62.61 168.38 L61.98 167.56 L61.98 169.63 L59.76 169.63 L59.76 155.14 L62.22 155.14 L62.22 163.06 L62.28 164.32 L64.08 167.34 L65.03 167.71 Z"
       style="fill:rgb(0,255,0);"
       id="path36" />
    <path
       d=" M48.27 175.14 L45.81 175.14 L45.81 155.14 L48.27 155.14 L48.27 160.88 L50 162.55 L54.78 155.14 L57.81 155.14 L51.72 164.25 L57.25 169.63 L54.08 169.63 L48.27 163.74 Z"
       style="fill:rgb(0,255,0);"
       id="path38" />
    <path
       d=" M91.79 156.76 L93.65 155.43 L94.59 155.09 L95.6 154.88 L97.25 154.83 L98.29 154.98 L99.27 155.27 L100.59 155.93 L101.4 156.56 L102.09 157.32 L103.31 160.26 L103.44 161.37 L103.45 163.46 L103.31 164.55 L99.74 169.33 L98.8 169.68 L97.79 169.89 L95.83 169.91 L94.8 169.72 L92.97 168.95 L90.4 165.68 L90.12 164.68 L89.97 163.58 L89.92 162.39 L89.96 161.28 L90.11 160.18 Z"
       style="fill:rgb(0,255,0);"
       id="path40" />
    <path
       d=" M76.26 156.76 L78.11 155.43 L79.06 155.09 L80.08 154.88 L81.72 154.83 L82.75 154.98 L83.74 155.27 L85.06 155.93 L85.87 156.56 L86.56 157.32 L87.78 160.26 L87.91 161.37 L87.92 163.46 L87.78 164.55 L83.28 169.68 L82.26 169.89 L80.3 169.91 L79.26 169.72 L77.43 168.95 L74.87 165.68 L74.59 164.68 L74.44 163.58 L74.38 162.39 L74.43 161.28 L74.58 160.18 Z"
       style="fill:rgb(0,255,0);"
       id="path42" />
    <path
       d=" M117 156.74 L117.62 157.55 L118.47 159.37 L118.73 160.35 L118.89 161.39 L118.91 163.31 L118.78 164.36 L118.55 165.36 L118.04 166.69 L117.5 167.59 L116.85 168.36 L115.77 169.19 L114.86 169.61 L113.86 169.87 L112.33 169.94 L110.08 169.22 L109.3 168.58 L108.6 167.74 L108.6 169.63 L106.36 169.63 L106.36 149.58 L108.82 149.58 L108.82 156.64 L109.53 155.91 L110.59 155.25 L111.55 154.92 L112.9 154.82 L113.89 154.96 L114.87 155.27 L116.25 156.06 Z"
       style="fill:rgb(0,255,0);"
       id="path44" />
    <path
       d=" M124.13 169.63 L121.89 169.63 L121.89 149.58 L124.35 149.58 L124.35 156.64 L125.06 155.91 L126.13 155.25 L127.08 154.92 L128.43 154.82 L129.43 154.96 L130.4 155.27 L131.79 156.06 L132.53 156.74 L133.16 157.55 L134 159.37 L134.26 160.35 L134.42 161.39 L134.44 163.31 L134.31 164.36 L134.08 165.36 L133.57 166.69 L133.04 167.59 L132.38 168.36 L131.3 169.19 L130.39 169.61 L129.39 169.87 L127.86 169.94 L125.61 169.22 L124.83 168.58 L124.13 167.74 Z"
       style="fill:rgb(0,255,0);"
       id="path46" />
    <path
       d=" M137.79 243.19 L140.09 242.47 L141.23 241.15 L141.57 240.19 L141.76 239.02 L133.7 239.34 L133.92 240.38 L135 242.1 L136.74 243.06 Z"
       style="fill:rgb(0,255,0);"
       id="path48" />
    <path
       d=" M110 237.66 L109.99 236.23 L109.45 234.03 L108.83 233.23 L107.5 232.37 L106.53 232.07 L105.14 231.99 L102.76 233.29 L102.55 234.48 L103.01 235.63 L104.75 236.51 L105.99 236.72 L107.19 236.92 Z"
       style="fill:rgb(0,255,0);"
       id="path50" />
    <path
       d=" M121.86 232.07 L119.88 232.72 L118.17 235.32 L117.99 236.4 L117.93 238.02 L118.03 239.23 L119.09 241.91 L120.75 243.03 L123.81 242.51 L125.49 239.75 L125.66 238.67 L125.72 237.24 L125.64 236.03 L124.53 233.32 L122.86 232.22 Z"
       style="fill:rgb(0,255,0);"
       id="path52" />
    <path
       d=" M81.17 167.93 L83.43 167.23 L85.16 164.72 L85.36 163.66 L85.42 161.98 L85.31 160.81 L83.93 157.92 L82.19 156.96 L80.75 156.85 L78.88 157.53 L77.17 160.1 L76.97 161.17 L76.91 162.77 L77.02 163.94 L78.41 166.85 L80.14 167.8 Z"
       style="fill:rgb(0,255,0);"
       id="path54" />
    <path
       d=" M96.71 156.84 L94.41 157.53 L92.7 160.1 L92.5 161.17 L92.44 162.77 L92.55 163.94 L93.94 166.85 L95.67 167.8 L98.97 167.23 L100.69 164.72 L100.9 163.66 L100.95 161.98 L100.84 160.81 L99.46 157.92 L97.73 156.96 Z"
       style="fill:rgb(0,255,0);"
       id="path56" />
    <path
       d=" M110.75 167.45 L114.51 167.4 L116.18 164.8 L116.36 163.74 L116.42 161.99 L116.31 160.82 L115.12 158.06 L110.49 157.45 L108.84 159.99 L108.64 161.07 L108.6 162.79 L108.71 163.94 L109.93 166.74 Z"
       style="fill:rgb(0,255,0);"
       id="path58" />
    <path
       d=" M126.27 167.45 L130.04 167.4 L131.71 164.8 L131.89 163.74 L131.95 161.99 L131.84 160.82 L130.66 158.06 L126.03 157.45 L124.36 159.99 L124.17 161.07 L124.12 162.79 L124.24 163.94 L125.47 166.74 Z"
       style="fill:rgb(0,255,0);"
       id="path60" />
    <path
       d=" M137.79 243.19 L140.09 242.47 L141.23 241.15 L141.57 240.19 L141.76 239.02 L133.7 239.34 L133.92 240.38 L135 242.1 L136.74 243.06 Z"
       style="fill:rgb(255,255,255);"
       id="path62" />
    <path
       d=" M110 237.66 L109.99 236.23 L109.45 234.03 L108.83 233.23 L107.5 232.37 L106.53 232.07 L105.14 231.99 L102.76 233.29 L102.55 234.48 L103.01 235.63 L104.75 236.51 L105.99 236.72 L107.19 236.92 Z"
       style="fill:rgb(255,255,255);"
       id="path64" />
    <path
       d=" M121.86 232.07 L119.88 232.72 L118.17 235.32 L117.99 236.4 L117.93 238.02 L118.03 239.23 L119.09 241.91 L120.75 243.03 L123.81 242.51 L125.49 239.75 L125.66 238.67 L125.72 237.24 L125.64 236.03 L124.53 233.32 L122.86 232.22 Z"
       style="fill:rgb(255,255,255);"
       id="path66" />
    <path
       d=" M81.17 167.93 L83.43 167.23 L85.16 164.72 L85.36 163.66 L85.42 161.98 L85.31 160.81 L83.93 157.92 L82.19 156.96 L80.75 156.85 L78.88 157.53 L77.17 160.1 L76.97 161.17 L76.91 162.77 L77.02 163.94 L78.41 166.85 L80.14 167.8 Z"
       style="fill:rgb(255,255,255);"
       id="path68" />
    <path
       d=" M96.71 156.84 L94.41 157.53 L92.7 160.1 L92.5 161.17 L92.44 162.77 L92.55 163.94 L93.94 166.85 L95.67 167.8 L98.97 167.23 L100.69 164.72 L100.9 163.66 L100.95 161.98 L100.84 160.81 L99.46 157.92 L97.73 156.96 Z"
       style="fill:rgb(255,255,255);"
       id="path70" />
    <path
       d=" M110.75 167.45 L114.51 167.4 L116.18 164.8 L116.36 163.74 L116.42 161.99 L116.31 160.82 L115.12 158.06 L110.49 157.45 L108.84 159.99 L108.64 161.07 L108.6 162.79 L108.71 163.94 L109.93 166.74 Z"
       style="fill:rgb(255,255,255);"
       id="path72" />
    <path
       d=" M126.27 167.45 L130.04 167.4 L131.71 164.8 L131.89 163.74 L131.95 161.99 L131.84 160.82 L130.66 158.06 L126.03 157.45 L124.36 159.99 L124.17 161.07 L124.12 162.79 L124.24 163.94 L125.47 166.74 Z"
       style="fill:rgb(255,255,255);"
       id="path74" />
    <path
       d=" M115.078305183833 197.855761551776 A11.8 11.8 0 0 1 114.795662165371 196.304129806087 L114.793750634451 196.298079675881 A11.62 11.62 0 0 0 121.850574492783 208.654384596041 L121.85 208.66 L121.43 210.29 L109.780189887442 199.689463522087 A3.17 3.17 0 0 0 110.035852387521 196.608224105481 A3.17 3.17 0 0 0 107.546258794874 194.774864237034 L107.55 194.78 L108.41 190.99 L106.76 191.92 L106.753354668727 194.774538396818 A3.44 3.44 0 0 0 103.573149825634 197.458230815438 L103.573845891205 197.466098223285 A11.77 11.77 0 0 0 103.00997034713 195.942579576911 L103.020825956227 195.940721836801 A11.73 11.73 0 0 1 102.527502217726 197.465225705392 L102.519888858597 197.45799884064 A10.56 10.56 0 0 0 95.3780711356248 187.925068727874 A10.56 10.56 0 0 0 83.900053336369 191.10901175701 A10.56 10.56 0 0 0 82.6896937527112 202.958801043555 L82.69 202.96 L81.3907395687216 202.726625503114 A11.62 11.62 0 0 0 87.9333726450332 208.816331474268 A11.62 11.62 0 0 0 96.8643927975166 208.458942980376 L96.86 208.46 L99.34 213.28 L98.2661813522418 215.922818615888 A15.81 15.81 0 0 0 103.171011863785 215.8510229249 L103.17 215.85 L103.09 214.84 L100.32 213.37 L120.62 213.37 L120.056459947347 215.544667427353 A7.11 7.11 0 0 0 117.660164490699 215.799741364769 L117.658738375054 215.799408949463 A4.73 4.73 0 0 1 115.835795894966 216.762991627002 L115.829997014541 216.77743154607 A2.46 2.46 0 0 0 117.226248487255 216.915411424195 L117.229510263805 216.917234328031 A11.86 11.86 0 0 1 120.699678776957 216.746833258219 L120.7 216.74 L122.724007212574 208.979988510876 A11.44 11.44 0 0 0 129.270862257567 208.748435658854 L129.269626083665 208.74873317897 A11.02 11.02 0 0 1 122.987261234537 207.955929868317 L122.989965032212 207.947824714863 A10.56 10.56 0 0 0 134.807622826812 204.175713695231 A10.56 10.56 0 0 0 134.884991341144 191.770892449105 A10.56 10.56 0 0 0 123.115309985239 187.851666001275 L123.119194653104 187.854114813637 A10.92 10.92 0 0 0 115.083207474159 197.853085855779 Z"
       style="fill:rgb(0,255,0);"
       id="path78" />
    <path
       d=" M83.6506308097135 202.381131725886 A9.44 9.44 0 0 1 84.7665318761293 191.81888149694 A9.44 9.44 0 0 1 95.0010914300237 188.97986103336 A9.44 9.44 0 0 1 101.39868339272 197.457907498596 L101.4 197.46 L94.1003893194457 197.457570170089 A2.18 2.18 0 0 0 92.555587667261 195.82012212642 A2.18 2.18 0 0 0 90.3863371897135 196.421863790133 A2.18 2.18 0 0 0 89.9058252847335 198.62112962058 L89.91 198.62 Z"
       style="fill:rgb(255,255,255);"
       id="path80" />
    <path
       d=" M96.6894161186924 206.095616887956 A9.44 9.44 0 0 0 101.398683263679 198.382095134389 L101.4 198.39 L94.1003916115617 198.38241927013 A2.18 2.18 0 0 1 93.3547925483437 199.603671463811 L93.35 199.61 Z"
       style="fill:rgb(255,255,255);"
       id="path82" />
    <path
       d=" M97.2050655947913 207.098748974731 A10.94 10.94 0 0 0 103.18840909794 198.381200883854 L103.181375028054 198.387479927613 A10.88 10.88 0 0 1 97.2030933328224 207.097652956586 Z"
       style="fill:rgb(255,255,255);"
       id="path84" />
    <path
       d=" M97.6863328866295 208.039515916509 A11.86 11.86 0 0 0 104.019054787809 198.386190882347 L104.013891176499 198.382300169976 A3.17 3.17 0 0 0 105.385622662435 200.553604490178 L105.39 200.56 L99.84 212.23 Z"
       style="fill:rgb(255,255,255);"
       id="path86" />
    <path
       d=" M83.1559519936646 203.756737766927 A10.92 10.92 0 0 0 96.6803522398977 208.111495766329 L96.6807285962182 208.103738601198 A10.88 10.88 0 0 1 83.1653909494678 203.75189869257 Z"
       style="fill:rgb(255,255,255);"
       id="path88" />
    <path
       d=" M95.8673409860099 206.51792610103 A9.44 9.44 0 0 1 84.1267242709502 203.173249074439 L84.12 203.18 L90.3822641992074 199.413818940462 A2.18 2.18 0 0 0 92.5321360160722 200.026277070908 L92.53 200.03 Z"
       style="fill:rgb(255,255,255);"
       id="path90" />
    <path
       d=" M125.764405617002 199.26745636549 A1.45 1.45 0 0 0 127.362248667795 198.906979112124 A1.45 1.45 0 0 0 127.604527023532 197.28698400899 A1.45 1.45 0 0 0 126.182049158771 196.474805342159 A1.45 1.45 0 0 0 124.91009534749 197.506883724685 L124.91 197.51 L116.790895608221 197.789486911575 A9.51 9.51 0 0 1 123.481256528637 188.837336005188 A9.51 9.51 0 0 1 134.064444490685 192.428779575443 A9.51 9.51 0 0 1 133.924551086733 203.603864946126 A9.51 9.51 0 0 1 123.254777311567 206.929257393251 L123.26 206.93 L124.569920247869 201.895586774747 A5.62 5.62 0 0 1 125.766402043011 199.273831637733 Z"
       style="fill:rgb(255,255,255);"
       id="path92" />
    <path
       d=" M108.41 204.86 L106.76 203.93 L106.22 200.95 L100.76 212.45 L120.86 212.45 L121.16 211.3 L109.157757297293 200.37312262946 A3.17 3.17 0 0 1 107.546232830483 201.065139034136 L107.55 201.07 Z"
       style="fill:rgb(255,255,255);"
       id="path94" />
    <path
       d=" M125.06 198.67 L116.823162208827 198.713502035157 A9.51 9.51 0 0 0 122.388182673182 206.588205419901 L122.39 206.59 L123.652575091574 201.726035857663 A6.51 6.51 0 0 1 125.052752840335 198.671828000332 Z"
       style="fill:rgb(255,255,255);"
       id="path96" />
    <path
       d=" M115.766156081528 198.75779447339 A10.99 10.99 0 0 0 121.949302124624 208.27602042833 L121.954145765445 208.264446138617 A10.88 10.88 0 0 1 115.774167097784 198.751095803822 Z"
       style="fill:rgb(255,255,255);"
       id="path98" />
  </g>
</svg>
