<?xml version="1.0" encoding="UTF-8" standalone="no"?>
<svg
   xmlns:dc="http://purl.org/dc/elements/1.1/"
   xmlns:cc="http://creativecommons.org/ns#"
   xmlns:rdf="http://www.w3.org/1999/02/22-rdf-syntax-ns#"
   xmlns:svg="http://www.w3.org/2000/svg"
   xmlns="http://www.w3.org/2000/svg"
   xmlns:sodipodi="http://sodipodi.sourceforge.net/DTD/sodipodi-0.dtd"
   xmlns:inkscape="http://www.inkscape.org/namespaces/inkscape"
   width="220"
   height="400"
   version="1.1"
   id="svg60"
   sodipodi:docname="FtsRt-Knooppuntenbord-RechtdoorLinks.svg"
   inkscape:version="0.92.1 r15371">
  <metadata
     id="metadata66">
    <rdf:RDF>
      <cc:Work
         rdf:about="">
        <dc:format>image/svg+xml</dc:format>
        <dc:type
           rdf:resource="http://purl.org/dc/dcmitype/StillImage" />
      </cc:Work>
    </rdf:RDF>
  </metadata>
  <defs
     id="defs64" />
  <sodipodi:namedview
     pagecolor="#ffffff"
     bordercolor="#666666"
     borderopacity="1"
     objecttolerance="10"
     gridtolerance="10"
     guidetolerance="10"
     inkscape:pageopacity="0"
     inkscape:pageshadow="2"
     inkscape:window-width="1920"
     inkscape:window-height="1018"
     id="namedview62"
     showgrid="false"
     inkscape:zoom="2.36"
     inkscape:cx="143.5149"
     inkscape:cy="197.83819"
     inkscape:window-x="-8"
     inkscape:window-y="-8"
     inkscape:window-maximized="1"
     inkscape:current-layer="g58" />
  <!--Gegenereerd door de SIMaD-toepassing (http://www.dlw.be).-->
  <g
     style="stroke:none;fill-rule:evenodd;"
     transform="matrix(1,0,0,-1,0,400)"
     id="g58">
    <path
       d=" M20 0 L199.999924950842 1.40808253945579E-10 A20 20 0 0 1 214.142274833378 5.85800358728628 L214.141996412714 5.85772516662216 A20 20 0 0 1 219.999999999859 20.0000750491578 L219.999999999999 379.999994065881 A20 20 0 0 1 214.142116124398 394.142155123037 A20 20 0 0 1 200.000038048178 399.999999999964 L20.0000380481777 399.999999999964 A20 20 0 0 1 5.85792213386519 394.142193381091 A20 20 0 0 1 8.81072992342524E-13 379.999994065881 L1.40808253945579E-10 20.0000750491578 A20 20 0 0 1 5.85800358728628 5.85772516662216 L5.85772516662216 5.85800358728627 A20 20 0 0 1 20.0000750491578 1.40808253945579E-10 Z"
       style="fill:rgb(255,255,255);stroke:rgb(0,0,0);"
       id="path2" />
    <path
       d=" M20 10 L200.00006562438 10.0000000002153 A10 10 0 0 1 207.07094365688 12.928808035329 L207.071191964671 12.9290563431199 A10 10 0 0 1 209.999999999785 19.9999343756201 L209.999999999785 380.00006562438 A10 10 0 0 1 207.071191964671 387.07094365688 L207.07094365688 387.071191964671 A10 10 0 0 1 200.00006562438 389.999999999785 L19.9999343756201 389.999999999785 A10 10 0 0 1 12.9290563431199 387.071191964671 L12.928808035329 387.07094365688 A10 10 0 0 1 10.0000000002153 380.00006562438 L10.0000000002153 19.9999343756201 A10 10 0 0 1 12.928808035329 12.9290563431199 L12.9291491522465 12.9287152306796 A10 10 0 0 1 20.0000656243799 10.0000000002153 Z"
       style="fill:rgb(0,255,0);"
       id="path4" />
    <path
       d=" M195.38 327.66 A49.33 49.33 0 0 1 96.72 327.66 A49.33 49.33 0 0 1 195.38 327.66 Z"
       style="fill:rgb(255,255,255);"
       id="path6" />
    <path
       d=" M15 152.66 L205 152.66 L205 265.33 L15 265.33 Z"
       style="fill:rgb(255,255,255);"
       id="path8" />
    <path
       d=" M15 147.66 L205 147.66 L204.999999999785 44.9999343756201 A10 10 0 0 0 202.071191964671 37.9290563431199 L202.07094365688 37.928808035329 A10 10 0 0 0 195.00006562438 35.0000000002153 L24.9999343756201 35.0000000002153 A10 10 0 0 0 17.9290563431199 37.928808035329 L17.928808035329 37.9290563431199 A10 10 0 0 0 15.0000000002153 44.9999343756201 Z"
       style="fill:rgb(255,255,255);"
       id="path10" />
    <path
       d=" M190.38 327.66 A44.33 44.33 0 0 1 101.72 327.66 A44.33 44.33 0 0 1 190.38 327.66 Z"
       style="fill:rgb(0,255,0);"
       id="path12" />
    <path
       d=" M195.38 93.14 A49.33 49.33 0 0 1 96.72 93.14 A49.33 49.33 0 0 1 195.38 93.14 Z"
       style="fill:rgb(0,255,0);"
       id="path14" />
    <path
       d=" M195.38 208.35 A49.33 49.33 0 0 1 96.72 208.35 A49.33 49.33 0 0 1 195.38 208.35 Z"
       style="fill:rgb(0,255,0);"
       id="path16" />
    <path
       d=" M190.38 93.14 A44.33 44.33 0 0 1 101.72 93.14 A44.33 44.33 0 0 1 190.38 93.14 Z"
       style="fill:rgb(255,255,255);"
       id="path18" />
    <path
       d=" M190.38 208.35 A44.33 44.33 0 0 1 101.72 208.35 A44.33 44.33 0 0 1 190.38 208.35 Z"
       style="fill:rgb(255,255,255);"
       id="path20" />
    <path
       d=" M49.76 118.73 L24.17 93.13 L49.76 67.54 L56.38 74.16 L42.09 88.45 L87.54 88.45 L87.54 97.82 L42.09 97.82 L56.38 112.11 Z"
       style="fill:rgb(0,255,0);"
       id="path26" />
    <path
       d=" M81.7 214.5 L55.85 240.34 L30 214.5 L36.68 207.81 L51.12 222.25 L51.12 176.35 L60.58 176.35 L60.58 222.25 L75.01 207.81 Z"
       style="fill:rgb(0,255,0);"
       id="path28" />
    <path
       d=" M19.39 275 L19.39 287.66 L21.72 287.66 L21.72 283.44 L25.05 287.66 L28.06 287.66 L23.22 281.56 L28.44 275 L25.45 275 L21.72 279.78 L21.72 275 Z M29.38 275 L29.38 284.05 L31.4914505534328 283.433003837064 A3.27 3.27 0 0 0 33.5830633050177 284.307131515805 L33.5824213270378 284.30987064627 A2.94 2.94 0 0 0 35.9692477904764 283.124294691074 L35.97 283.13 L36.63 281.23 L36.63 275 L34.52 275 L34.52 280.91 L34.13 281.98 L33.0106164837755 282.498267468943 A1.44 1.44 0 0 1 31.7316065477958 281.843189162763 L31.73 281.84 L31.48 275 Z M39.03 278.42 L39.0305448654573 280.628068134689 A3.52 3.52 0 0 0 39.8429120025463 282.939905458912 L39.8407208091416 282.940729380647 A3.46 3.46 0 0 0 42.6366087064637 284.299686059237 L42.6438656985436 284.299816612167 A3.56 3.56 0 0 0 44.9248229968072 283.503036321333 L44.92 283.5 L46.13 281.63 L46.27 280.63 L46.27 278.42 L45.63 276.34 L44.39 275.22 L42.6262809181194 274.750098110267 A3.52 3.52 0 0 0 40.312986739503 275.594187909006 L40.31 275.59 L39.2 277.39 Z M44.16 278.17 L44.16 280.91 L43.75 281.98 L42.64 282.48 L41.14 280.91 L41.14 278.17 L41.45 277.17 L43.61 276.91 Z M48.03 278.42 L48.0305448654573 280.628068134689 A3.52 3.52 0 0 0 48.8429120025463 282.939905458912 L48.8407208091416 282.940729380647 A3.46 3.46 0 0 0 51.6366087064637 284.299686059237 L51.6438656985436 284.299816612167 A3.56 3.56 0 0 0 53.9248229968072 283.503036321333 L53.92 283.5 L55.13 281.63 L55.27 280.63 L55.27 278.42 L54.63 276.34 L53.39 275.22 L51.6262809181194 274.750098110267 A3.52 3.52 0 0 0 49.312986739503 275.594187909006 L49.31 275.59 L48.2 277.39 Z M53.16 278.17 L53.16 280.91 L52.75 281.98 L51.64 282.48 L50.14 280.91 L50.14 278.17 L50.45 277.17 L52.61 276.91 Z M57.38 271.38 L57.38 284.05 L60.17 283.92 L61.5982787834878 284.299336245795 A2.87 2.87 0 0 0 63.7093992735804 283.439194519565 L63.6981403189485 283.439280457289 A2.92 2.92 0 0 0 64.6198784665058 281.283359038386 L64.63 281.28 L64.63 277.78 L64.06 276.05 L63.22 275.23 L61.5751124063085 274.750554322008 A2.74 2.74 0 0 0 59.4850445232252 275.655182241326 L59.48 275.66 L59.48 271.38 Z M62.52 278.14 L62.52 280.91 L62.11 281.98 L61.0174908753121 282.48974115917 A1.46 1.46 0 0 1 59.750469706494 281.801469151348 L59.75 281.8 L59.48 278.14 L59.84 277.11 L60.9804762601764 276.563299729167 A2.09 2.09 0 0 1 62.5111745710484 278.140882676235 Z M67.38 271.38 L67.38 284.05 L70.17 283.92 L71.5982787834878 284.299336245795 A2.87 2.87 0 0 0 73.7093992735804 283.439194519565 L73.6981403189485 283.439280457289 A2.92 2.92 0 0 0 74.6198784665058 281.283359038386 L74.63 281.28 L74.63 277.78 L74.06 276.05 L73.22 275.23 L71.5751124063085 274.750554322008 A2.74 2.74 0 0 0 69.4850445232252 275.655182241326 L69.48 275.66 L69.48 271.38 Z M72.52 278.14 L72.52 280.91 L72.11 281.98 L71.0174908753121 282.48974115917 A1.46 1.46 0 0 1 69.750469706494 281.801469151348 L69.75 281.8 L69.48 278.14 L69.84 277.11 L70.9804762601764 276.563299729167 A2.09 2.09 0 0 1 72.5111745710484 278.140882676235 Z M84.44 284.05 L84.44 275 L82.3407143374685 275.6609088528 A3.09 3.09 0 0 0 80.1553193226762 274.74003797461 L80.1516816937269 274.730308060017 A2.82 2.82 0 0 0 77.820448123303 275.90368526584 L77.83 275.91 L77.2 277.8 L77.2 284.05 L79.31 284.05 L79.31 278.11 L79.63 277.16 L80.8329816523436 276.551145212493 A1.42 1.42 0 0 1 82.1413457403201 277.298781825199 L82.14 277.3 L82.34 284.05 Z M87.38 275 L87.38 284.05 L89.4914505534328 283.433003837064 A3.27 3.27 0 0 0 91.5830633050177 284.307131515805 L91.5824213270378 284.30987064627 A2.94 2.94 0 0 0 93.9692477904764 283.124294691074 L93.97 283.13 L94.63 281.23 L94.63 275 L92.52 275 L92.52 280.91 L92.13 281.98 L91.0106164837755 282.498267468943 A1.44 1.44 0 0 1 89.7316065477958 281.843189162763 L89.73 281.84 L89.48 275 Z M100.06 282.19 L100.63 276.81 L101.88 276.81 L101.88 275 L100.28 275 L98.7003557660362 275.610411006113 A2.3 2.3 0 0 0 97.950542981027 277.359974172285 L97.95 277.36 L97.95 282.19 L96.91 282.19 L96.91 283.98 L97.95 283.98 L97.95 286.39 L100.06 287.61 L100.06 283.98 L102.17 283.98 L102.17 282.19 Z"
       style="fill:rgb(255,255,255);"
       id="path32" />
    <path
       d=" M47.4826984273431 318.564944357762 A10.12 10.12 0 0 0 47.7251057815422 317.23422363286 L47.7224023170068 317.228392120186 A9.97 9.97 0 0 1 41.6676206334111 327.830139667744 L41.67 327.83 L42.03 329.23 L52.0231808902698 320.138277809216 A2.72 2.72 0 0 1 51.803811220258 317.494438305965 A2.72 2.72 0 0 1 53.9399981056821 315.921333901376 L53.94 315.92 L53.2 312.68 L54.62 313.47 L54.6214793738431 315.923891719692 A2.95 2.95 0 0 1 57.3486951128788 318.225318336628 L57.348610317301 318.226240864968 A10.1 10.1 0 0 1 57.832440592074 316.918994127984 L57.8294481488071 316.916232246764 A10.06 10.06 0 0 0 58.2525732041595 318.223802990586 L58.2486750519245 318.223620529862 A9.06 9.06 0 0 1 64.3760331705977 310.04480216085 A9.06 9.06 0 0 1 74.2236481355584 312.776482523772 A9.06 9.06 0 0 1 75.2620778345511 322.943067956504 L75.27 322.95 L76.3770442427669 322.744095999713 A9.97 9.97 0 0 1 70.7634347813187 327.969091908606 A9.97 9.97 0 0 1 63.1005941315628 327.662449355796 L63.1 327.66 L60.98 331.8 L61.8987453217496 334.065088064345 A13.57 13.57 0 0 1 57.6888379769726 334.003464522844 L57.69 334 L60.14 331.88 L42.72 331.88 L43.2083817610665 333.742583868756 A6.1 6.1 0 0 1 45.2642751908209 333.961423674415 L45.2659456041001 333.959556188102 A4.06 4.06 0 0 0 46.830670045055 334.786648241476 L46.8276854534347 334.793406746527 A2.11 2.11 0 0 1 45.6300876434719 334.911755320277 L45.6332047428134 334.905046372262 A10.18 10.18 0 0 0 42.6545906311223 334.758782887118 L42.66 334.76 L40.9247894353166 328.10270863615 A9.81 9.81 0 0 1 35.3107469374748 327.904148170189 L35.3096117024532 327.91028370603 A9.45 9.45 0 0 0 40.6969391742837 327.230430345552 L40.6898607474907 327.223417398619 A9.06 9.06 0 0 1 30.5508470741147 323.98711901904 A9.06 9.06 0 0 1 30.4844740095333 313.344336356082 A9.06 9.06 0 0 1 40.5823210832027 309.981827652895 L40.58331939775 309.979593065317 A9.37 9.37 0 0 1 47.4786672131069 318.559296196763 Z"
       style="fill:rgb(255,255,255);"
       id="path36" />
    <path
       d=" M38.3117207351241 319.781599742922 A1.25 1.25 0 0 1 36.9342660138308 319.470841504967 A1.25 1.25 0 0 1 36.7254082716968 318.074295460316 A1.25 1.25 0 0 1 37.9516817596798 317.374142536344 A1.25 1.25 0 0 1 39.0481947909971 318.263869065051 L39.05 318.27 L46.0092315969995 318.508018990337 A8.16 8.16 0 0 0 40.2686082897917 310.826673756312 A8.16 8.16 0 0 0 31.1877653624691 313.908288035705 A8.16 8.16 0 0 0 31.3077958830264 323.497003720714 A8.16 8.16 0 0 0 40.4629354210857 326.350340774199 L40.46 326.35 L39.3414563140067 322.030022903975 A4.82 4.82 0 0 0 38.3152922513688 319.781471327273 Z"
       style="fill:rgb(0,255,0);"
       id="path38" />
    <path
       d=" M74.4384445900173 322.447872625265 A8.1 8.1 0 0 0 73.4809401009367 313.384927940455 A8.1 8.1 0 0 0 64.6991694297466 310.948906183286 A8.1 8.1 0 0 0 59.209710508198 318.223495348277 L59.21 318.23 L65.472555929981 318.223328636082 A1.87 1.87 0 0 1 66.7976838477438 316.818728648098 A1.87 1.87 0 0 1 68.658460406212 317.334898710313 A1.87 1.87 0 0 1 69.0706474456277 319.221421335914 L69.07 319.22 Z"
       style="fill:rgb(0,255,0);"
       id="path40" />
    <path
       d=" M53.2 324.57 L54.62 323.78 L55.07 321.22 L59.76 331.08 L42.52 331.08 L42.26 330.1 L52.5572599032492 320.724891103845 A2.72 2.72 0 0 0 53.9400160510216 321.318668359476 L53.94 321.32 Z"
       style="fill:rgb(0,255,0);"
       id="path42" />
    <path
       d=" M46.8847177351277 319.335587726583 A9.43 9.43 0 0 1 41.5792453247332 327.502730571854 L41.5811800141079 327.505270778667 A9.34 9.34 0 0 0 46.8864226131006 319.338481700677 Z"
       style="fill:rgb(0,255,0);"
       id="path44" />
    <path
       d=" M38.92 319.26 L45.9815453602492 319.300859790419 A8.16 8.16 0 0 1 41.2065120280583 326.057703073228 L41.21 326.06 L40.1206504615737 321.882319617573 A5.58 5.58 0 0 0 38.9204842853048 319.264407937931 Z"
       style="fill:rgb(0,255,0);"
       id="path46" />
    <path
       d=" M74.8634184816266 323.625296050925 A9.37 9.37 0 0 1 63.2586904315164 327.361933638325 L63.2581061499377 327.364937365366 A9.34 9.34 0 0 0 74.8604272547767 323.629074796747 Z"
       style="fill:rgb(0,255,0);"
       id="path48" />
    <path
       d=" M62.4022370332303 327.300815516868 A10.18 10.18 0 0 1 56.9665617419987 319.014909205927 L56.9709220684269 319.01665907484 A2.72 2.72 0 0 1 55.7939010962559 320.879757392013 L55.79 320.88 L60.55 330.9 Z"
       style="fill:rgb(0,255,0);"
       id="path50" />
    <path
       d=" M62.8143817138557 326.494341049316 A9.38 9.38 0 0 1 57.6842337387512 319.019872691825 L57.6817423931962 319.022046187859 A9.34 9.34 0 0 0 62.8138333349327 326.49934538818 Z"
       style="fill:rgb(0,255,0);"
       id="path52" />
    <path
       d=" M63.2505034485811 325.635096412741 A8.1 8.1 0 0 1 59.2097106258437 319.01650705216 L59.21 319.02 L65.4725498654527 319.016643423925 A1.87 1.87 0 0 0 66.1121422642534 320.064262441396 L66.12 320.07 Z"
       style="fill:rgb(0,255,0);"
       id="path54" />
    <path
       d=" M63.9558831353619 325.997457719001 A8.1 8.1 0 0 0 74.0299293074834 323.127554937688 L74.03 323.13 L68.661958064329 319.901393862561 A1.87 1.87 0 0 1 66.8177991170918 320.426760169066 L66.82 320.43 Z"
       style="fill:rgb(0,255,0);"
       id="path56" />
  </g>
</svg>
