<?xml version="1.0" encoding="UTF-8"?>
<!DOCTYPE svg PUBLIC '-//W3C//DTD SVG 1.0//EN' 'http://www.w3.org/TR/2001/REC-SVG-20010904/DTD/svg10.dtd'>
<svg xmlns:xlink="http://www.w3.org/1999/xlink" xmlns="http://www.w3.org/2000/svg" width="400" height="600">
<!--Gegenereerd door de SIMaD-toepassing (http://www.dlw.be).-->
<g style="stroke:none;fill-rule:evenodd;" transform="matrix(1,0,0,-1,0,600)">
<path d=" M45 0 L355 0 A45 45 0 0 1 400 45 L400 555 A45 45 0 0 1 355 600 L45 600 A45 45 0 0 1 0 555 L0 45 A45 45 0 0 1 45 0 Z" style="fill:rgb(255,255,255);stroke:rgb(0,0,0);" />
<path d=" M45 15 L355 15 A30 30 0 0 1 385 45 L385 555 A30 30 0 0 1 355 585 L45 585 A30 30 0 0 1 15 555 L15 45 A30 30 0 0 1 45 15 Z" style="fill:rgb(0,0,0);" />
<path d=" M45 30 L355 30 A15 15 0 0 1 370 45 L370 555 A15 15 0 0 1 355 570 L45 570 A15 15 0 0 1 30 555 L30 45 A15 15 0 0 1 45 30 Z" style="fill:rgb(255,255,255);" />
<path d=" M52.29 221.82 L52.29 222.25 L57.0999999999998 222.249998274044 A8.99 8.99 0 1 0 39.1200000000002 222.250001725956 L39.12 231.54000062762 A8.99 8.99 0 0 0 57.0470904239379 232.513917221512 L57.04 232.51 L52.2554226018925 232.506536533443 A4.18 4.18 0 0 1 43.9300000000001 231.969999124543 L43.9300000000001 221.820000729548 A4.18 4.18 0 0 1 52.2899999999999 221.819999270452 Z" style="fill:rgb(0,0,0);" />
<path d=" M60.24 213.79 L65.25 213.79 L66.34 217.53 L75.1 217.53 L76.2 213.79 L81.21 213.79 L73.53 240 L67.92 240 Z M67.62 221.9 L73.83 221.9 L70.72 232.49 Z" style="fill:rgb(0,0,0);" />
<path d=" M85.4 213.79 L89.77 213.79 L89.77 229.77 L94.45 213.79 L99 213.79 L103.37 228.72 L103.37 213.79 L108.18 213.79 L108.18 240 L102.56 240 L96.79 220.29 L91.02 240 L85.4 240 Z" style="fill:rgb(0,0,0);" />
<path d=" M114.73 213.79 L130.83 213.79 L130.83 218.16 L119.54 218.16 L119.54 225.15 L127.09 225.15 L127.09 229.52 L119.54 229.52 L119.54 235.63 L130.83 235.63 L130.83 240 L114.73 240 Z" style="fill:rgb(0,0,0);" />
<path d=" M136.07 213.79 L140.88 213.79 L140.88 225.15 L143.41 225.15 L149.99 213.79 L155.54 213.79 L148.823985279359 225.378855405435 A6.99 6.99 0 0 1 154.039999999998 232.140005611932 L154.039999999998 233.010005611932 A6.99 6.99 0 0 1 147.050007807905 239.999999999996 L136.07 240 Z M140.88 229.52 L146.620002926568 229.520000000002 A2.62 2.62 0 0 1 149.239999999999 232.139997896529 L149.239999999999 233.010002103471 A2.62 2.62 0 0 1 146.620002926568 235.629999999998 L140.88 235.63 Z" style="fill:rgb(0,0,0);" />
<path d=" M159.48 213.79 L164.49 213.79 L165.58 217.53 L174.34 217.53 L175.44 213.79 L180.45 213.79 L172.77 240 L167.16 240 Z M166.86 221.9 L173.07 221.9 L169.96 232.49 Z" style="fill:rgb(0,0,0);" />
<path d=" M184.64 213.79 L196.150007807905 213.790000000004 A6.99 6.99 0 0 1 203.139999999998 220.779994388068 L203.13 222.529999725634 A5.24 5.24 0 0 1 199.702649966581 227.446492662321 L199.706648375476 227.449832159785 A5.24 5.24 0 0 1 202.61 232.139997896529 L202.609999999998 233.010005611932 A6.99 6.99 0 0 1 195.620007807905 239.999999999996 L184.64 240 Z M189.45 218.16 L195.710002926568 218.160000000002 A2.62 2.62 0 0 1 198.329999999999 220.779997896529 L198.329999999999 222.530002103471 A2.62 2.62 0 0 1 195.710002926568 225.149999999998 L189.45 225.15 Z M189.45 229.52 L195.190002926568 229.520000000002 A2.62 2.62 0 0 1 197.809999999999 232.139997896529 L197.809999999999 233.010002103471 A2.62 2.62 0 0 1 195.190002926568 235.629999999998 L189.45 235.63 Z" style="fill:rgb(0,0,0);" />
<path d=" M208.9 213.79 L225 213.79 L225 218.16 L213.71 218.16 L213.71 225.15 L221.26 225.15 L221.26 229.52 L213.71 229.52 L213.71 235.63 L225 235.63 L225 240 L208.9 240 Z" style="fill:rgb(0,0,0);" />
<path d=" M234.78 213.79 L239.72 213.79 L243.84 230.75 L247.96 213.79 L252.9 213.79 L259.27 240 L254.77 240 L250.66 223.04 L246.54 240 L241.59 240 L237.47 223.04 L233.35 240 L228.41 240 Z" style="fill:rgb(0,0,0);" />
<path d=" M259.27 213.79 L264.28 213.79 L265.37 217.53 L274.13 217.53 L275.23 213.79 L280.24 213.79 L272.56 240 L266.95 240 Z M266.65 221.9 L272.86 221.9 L269.75 232.49 Z" style="fill:rgb(0,0,0);" />
<path d=" M284.43 213.79 L289.24 213.79 L289.24 223.61 L296.97 213.79 L303.09 213.79 L292.42 227.33 L302.4 240 L296.28 240 L289.24 231.05 L289.24 240 L284.43 240 Z" style="fill:rgb(0,0,0);" />
<path d=" M307.81 213.79 L312.62 213.79 L312.62 240 L307.81 240 Z" style="fill:rgb(0,0,0);" />
<path d=" M319.17 213.79 L323.54 213.79 L323.54 231.2 L331.53 213.79 L337.14 213.79 L337.14 240 L332.77 240 L332.77 222.59 L324.79 240 L319.17 240 Z" style="fill:rgb(0,0,0);" />
<path d=" M356.08 221.82 L356.08 225.15 L351.9 225.15 L351.9 229.52 L360.88 229.52 L360.89 222.249998274044 A8.99 8.99 0 1 0 342.91 222.250001725956 L342.91 231.540000784526 A8.99 8.99 0 0 0 360.578124814621 233.887392106542 L360.57 233.88 L355.618578846102 233.879076050168 A4.18 4.18 0 0 1 347.72 231.969998759769 L347.72 221.820000729548 A4.18 4.18 0 0 1 356.08 221.819999270452 Z" style="fill:rgb(0,0,0);" />
<path d=" M62.9 185.79 L66.3 185.79 L69.13 197.44 L71.96 185.79 L75.35 185.79 L79.72 203.79 L76.64 203.79 L73.81 192.14 L70.98 203.79 L67.58 203.79 L64.75 192.14 L61.93 203.79 L58.53 203.79 Z" style="fill:rgb(0,0,0);" />
<path d=" M80.81 193.76 L80.8100000000007 190.569997308702 A5.14 5.14 0 0 1 90.8843994400596 189.130798080206 L90.89 189.13 L87.8366213577946 189.129920868291 A2.14 2.14 0 0 0 83.8100000000007 190.140001718102 L83.81 191.19 L91.1 191.19 L91.09 193.76 A5.14 5.14 0 0 1 80.81 193.76 Z M83.81 194.29 L83.81 193.76 L88.1 193.76 L88.09 194.29 A2.14 2.14 0 0 1 83.81 194.29 Z" style="fill:rgb(0,0,0);" />
<path d=" M94.15 196.08 L95.65 196.08 L95.6500000000009 189.130002506642 A3.34 3.34 0 0 1 98.9900024483479 185.790000000001 L101.65 185.79 L101.65 188.36 L99.4200005644395 188.36 A0.77 0.77 0 0 0 98.6500000000002 189.130000577879 L98.65 196.08 L101.65 196.08 L101.65 198.65 L98.65 198.65 L98.65 203.79 L95.65 202.06 L95.65 198.65 L94.15 198.65 Z" style="fill:rgb(0,0,0);" />
<path d=" M118.24 185.79 L122.1 185.79 L125.82 198.65 L122.7 198.65 L120.17 189.91 L117.63 198.65 L114.51 198.65 Z" style="fill:rgb(0,0,0);" />
<path d=" M132.05 185.79 L133.849999319322 185.79 A3 3 0 0 1 135.992857824338 186.690438058862 L136 186.69 L136 185.79 L139 185.79 L138.99 193.860002153038 A5.14 5.14 0 0 1 128.793954191945 194.785203105728 L128.79 194.79 L131.768388515057 194.78648124411 A2.14 2.14 0 0 0 135.551205977465 195.588267392426 L135.552434112237 195.590000487898 A1.5 1.5 0 0 0 134.360000235619 193.18 L132.049999418805 193.19 A3.7 3.7 0 1 1 132.050000581195 185.79 Z M132.47 188.36 L134.500001675516 188.360000000001 A1.5 1.5 0 0 1 136 189.859998795723 L135.991664776379 191.759376198419 A2.57 2.57 0 0 0 133.850003094992 190.610000000002 L132.469999802778 190.62 A1.13 1.13 0 0 1 132.470000197222 188.36 Z" style="fill:rgb(0,0,0);" />
<path d=" M142.95 185.79 L145.95 185.79 L145.95 194.28999958915 A2.14 2.14 0 0 0 150.23 194.29000041085 L150.24 194.29 L150.24 185.79 L153.24 185.79 L153.229999999999 194.77000258396 A4.23 4.23 0 0 1 145.950387792525 197.701341908413 L145.95 197.71 L145.95 198.65 L142.95 198.65 Z" style="fill:rgb(0,0,0);" />
<path d=" M166.45 185.79 L178.43 185.79 L178.43 188.79 L171.34 188.79 L176.37888269638 193.988704330456 A5.99 5.99 0 1 1 166.090000000001 198.159996550008 L166.09 197.88 L169.39 197.88 L169.39 198.459998450671 A2.69 2.69 0 1 0 174.010549992198 196.586747019854 L174.01 196.58 L166.45 188.79 Z" style="fill:rgb(0,0,0);" />
<path d=" M182.4 198.65 L184.2 198.65 L184.2 185.79 L187.5 185.79 L187.5 203.79 L184.2 203.79 L182.4 200.45 Z" style="fill:rgb(0,0,0);" />
<path d=" M200.35 185.79 L203.35 185.79 L203.35 194.2899996265 A2.14 2.14 0 0 0 207.63 194.2900003735 L207.64 194.29 L207.64 185.79 L210.64 185.79 L210.64 194.2899996265 A2.14 2.14 0 0 0 214.92 194.2900003735 L214.92 185.79 L217.92 185.79 L217.92 194.77000029531 A4.23 4.23 0 0 1 210.050193110885 196.925157954757 L210.03980824324 196.925155667799 A4.23 4.23 0 0 1 203.350384722832 197.701338714865 L203.35 197.71 L203.35 198.65 L200.35 198.65 Z" style="fill:rgb(0,0,0);" />
<path d=" M224.87 185.79 L226.669999319322 185.79 A3 3 0 0 1 228.812857824338 186.690438058862 L228.82 186.69 L228.82 185.79 L231.82 185.79 L231.81 193.860002153038 A5.14 5.14 0 0 1 221.613954191945 194.785203105728 L221.61 194.79 L224.588388515057 194.78648124411 A2.14 2.14 0 0 0 228.371205977465 195.588267392426 L228.372434112237 195.590000487898 A1.5 1.5 0 0 0 227.180000235619 193.18 L224.869999418805 193.19 A3.7 3.7 0 1 1 224.870000581195 185.79 Z M225.29 188.36 L227.320001675516 188.360000000001 A1.5 1.5 0 0 1 228.82 189.859998795723 L228.811664776379 191.759376198419 A2.57 2.57 0 0 0 226.670003094992 190.610000000002 L225.289999802778 190.62 A1.13 1.13 0 0 1 225.290000197222 188.36 Z" style="fill:rgb(0,0,0);" />
<path d=" M238.75 185.79 L240.549999319322 185.79 A3 3 0 0 1 242.692857824338 186.690438058862 L242.7 186.69 L242.7 185.79 L245.7 185.79 L245.69 193.860002153038 A5.14 5.14 0 0 1 235.493954191945 194.785203105728 L235.49 194.79 L238.468388515057 194.78648124411 A2.14 2.14 0 0 0 242.251205977465 195.588267392426 L242.252434112237 195.590000487898 A1.5 1.5 0 0 0 241.060000235619 193.18 L238.749999418805 193.19 A3.7 3.7 0 1 1 238.750000581195 185.79 Z M239.17 188.36 L241.200001675516 188.360000000001 A1.5 1.5 0 0 1 242.7 189.859998795723 L242.691664776379 191.759376198419 A2.57 2.57 0 0 0 240.550003094992 190.610000000002 L239.169999802778 190.62 A1.13 1.13 0 0 1 239.170000197222 188.36 Z" style="fill:rgb(0,0,0);" />
<path d=" M249.66 185.79 L252.66 185.79 L252.660000000001 193.079997748525 A3 3 0 0 0 255.660002199115 196.079999999999 L257.16 196.08 L257.16 198.65 L255.660002419026 198.649999999999 A4.2 4.2 0 0 1 252.660000071967 197.389387764791 L252.66 197.39 L252.66 198.65 L249.66 198.65 Z" style="fill:rgb(0,0,0);" />
<path d=" M259.14 196.08 L260.64 196.08 L260.640000000001 189.130002506642 A3.34 3.34 0 0 1 263.980002448348 185.790000000001 L266.64 185.79 L266.64 188.36 L264.410000564439 188.36 A0.77 0.77 0 0 0 263.64 189.130000577879 L263.64 196.08 L266.64 196.08 L266.64 198.65 L263.64 198.65 L263.64 203.79 L260.64 202.06 L260.64 198.65 L259.14 198.65 Z" style="fill:rgb(0,0,0);" />
<path d=" M279.85 185.79 L291.83 185.79 L291.83 188.79 L284.74 188.79 L289.77888269638 193.988704330456 A5.99 5.99 0 1 1 279.490000000001 198.159996550008 L279.49 197.88 L282.79 197.88 L282.79 198.459998450671 A2.69 2.69 0 1 0 287.410549992198 196.586747019854 L287.41 196.58 L279.85 188.79 Z" style="fill:rgb(0,0,0);" />
<path d=" M296.16 197.98 L296.16 191.600000969181 A6.17 6.17 0 0 1 308.5 191.599999030819 L308.5 197.98 A6.17 6.17 0 0 1 296.16 197.98 Z M299.46 198.28 L299.46 191.300000500909 A2.87 2.87 0 0 1 305.2 191.29999949909 L305.2 198.28 A2.87 2.87 0 0 1 299.46 198.28 Z" style="fill:rgb(0,0,0);" />
<path d=" M313 197.98 L313 191.600000969181 A6.17 6.17 0 0 1 325.34 191.599999030819 L325.34 197.98 A6.17 6.17 0 0 1 313 197.98 Z M316.3 198.28 L316.3 191.300000500909 A2.87 2.87 0 0 1 322.04 191.29999949909 L322.04 198.28 A2.87 2.87 0 0 1 316.3 198.28 Z" style="fill:rgb(0,0,0);" />
<path d=" M329.12 185.79 L337.64 200.43 L332.78 200.43 L332.78 199.14 L329.48 199.14 L329.48 203.43 L341.46 203.43 L341.46 200.43 L332.94 185.79 Z" style="fill:rgb(0,0,0);" />
<path d=" M112.727130914405 396.579203906692 A42.82 42.82 0 0 0 83.8277428369546 410.931465114032 L83.8325168360089 410.929168720597 A37.16 37.16 0 0 0 94.8441404606399 469.496499179936 L94.841990460408 469.499955266831 A87.8 87.8 0 0 0 112.590625014366 475.908106664643 L112.59 475.91 L112.621881202031 484.45350641478 A18.6 18.6 0 0 0 126.354665749745 504.276545352162 L126.35 504.28 L220.747211164531 538.993682871186 A30.06 30.06 0 0 0 229.8275380128 539.968876765266 L229.83 539.97 L291.984207424595 538.68551149126 A22.14 22.14 0 0 0 313.579210829051 523.099082478358 L313.59 523.1 L313.600057544755 509.406812603216 A9.57 9.57 0 0 1 317.404833361014 501.801429870407 L317.41 501.8 L322.36524902887 497.457572954602 A10.66 10.66 0 0 0 325.901692018955 487.995610268402 L325.9 488 L324.938324679816 420.405233674962 A16.45 16.45 0 0 0 315.186671733913 405.61478493704 L315.19 405.61 L251.65 378.66 L251.652312741764 345.634738507372 A33.98 33.98 0 0 0 242.078938383218 326.603966992697 L242.075351056226 326.602730171764 A74.76 74.76 0 0 0 216.539611573012 310.557419030325 L216.54 310.55 L167.58 293.23 L167.262174692991 291.007969034994 A29.3 29.3 0 1 0 157.531151724531 322.125222546873 L157.53 322.13 L158.95 320.36 L207.208334702864 336.071814891096 A18.76 18.76 0 0 1 220.157936417177 354.18824695712 L220.15 354.19 L220.219844943635 362.764903843466 A2 2 0 0 1 217.359455501565 364.545398340038 L217.36 364.55 L196.862899528943 356.570498312541 A28.6 28.6 0 0 0 180.36255334619 354.545921161342 L180.36 354.54 L127.650825397985 363.670325657981 A20.3 20.3 0 0 0 113.018728340739 377.581555213515 L113.02 377.59 Z" style="fill:rgb(255,0,0);" />
<path d=" M124.964468177999 457.096271597948 A33.93 33.93 0 0 1 101.382213292942 462.729851439577 L101.383538478068 462.730511871083 A19.82 19.82 0 0 1 87.5043194134184 454.112396059817 L87.5052450461699 454.110043999711 A38.32 38.32 0 0 1 81.8390877970833 440.660608095137 L81.8398560630774 440.662699093572 A26.66 26.66 0 0 1 82.7418511825558 426.44428256236 L82.7366836470503 426.437080259982 A38.34 38.34 0 0 1 93.1180023852029 410.677804476404 L93.1154428873343 410.682493456854 A31.89 31.89 0 0 1 113.165074596942 402.382751365198 L113.167580893503 402.374761356886 A24.11 24.11 0 0 1 130.375139391275 408.52694720914 L130.381121235899 408.530831909262 A27.56 27.56 0 0 1 139.354962658685 426.018418865566 L139.347056702521 426.016716224605 A33.89 33.89 0 0 1 134.959333516581 446.751769006305 L134.960848604468 446.746907721907 A30.04 30.04 0 0 1 124.962619195116 457.091639806581 L124.96 457.09 Z" style="fill:rgb(178,178,178);" />
<path d=" M157.3 289.85 L147.382757471714 286.489905698509 A14.79 14.79 0 1 0 140.044729767083 315.101844878281 L140.05 315.11 L151.379111457203 318.648290179391 A22.91 22.91 0 1 1 158.830768444317 287.455581196315 L158.8329806895 287.460504682701 A1.57 1.57 0 0 1 157.298635031778 289.847033124109 Z" style="fill:rgb(178,178,178);" />
<path d=" M145.38 292.59 L145.381368888638 292.580471003397 A8.38 8.38 0 1 0 141.588508043478 308.868660088087 L141.59 308.87 L209.192951010777 329.976784283268 A25.17 25.17 0 0 1 226.568275905048 354.204597975893 L226.57 354.2 L226.58 355.96 L226.560009362192 364.859061593904 A6.39 6.39 0 0 0 230.318027886287 370.69278479704 L230.32 370.69 L240.309893432628 374.603884775394 A3.61 3.61 0 0 0 245.229904447113 371.266265618425 L245.24 371.26 L245.232360290257 346.133448780538 A27.56 27.56 0 0 0 237.584992327576 331.189434518908 L237.58838472447 331.181037373007 A68.35 68.35 0 0 0 214.346588348203 316.580888696429 L214.35 316.58 Z" style="fill:rgb(178,178,178);" />
<path d=" M318.65 429.65 L318.518978517978 420.496857113595 A10.03 10.03 0 0 0 312.619403810408 411.499489939254 L312.62 411.49 L245.34 383.87 L194.39225523129 362.487281334437 A22.19 22.19 0 0 0 181.461081159273 360.861089714079 L181.46 360.86 L128.983032222001 369.955140279288 A13.88 13.88 0 0 0 119.422725237281 378.654704732952 L119.42 378.66 L119.27 388.87 L183.301525326358 377.211251137029 A33.51 33.51 0 0 1 202.287464251201 379.289129628258 L202.28 379.29 L318.65 429.65 Z" style="fill:rgb(178,178,178);" />
<path d=" M121.16 480.02 L125.499884024895 480.683012650065 A34.33 34.33 0 0 0 157.170481223248 468.527208771728 L157.173328906607 468.525993580082 A47.17 47.17 0 0 0 167.657747658013 433.914880237611 L167.654986672119 433.913544465397 A25.39 25.39 0 0 0 155.253950314601 414.540027814009 L155.25 414.54 L120.584507758621 397.620072234037 A1.38 1.38 0 0 1 121.356078947253 395.010030006431 L121.36 395.01 L184.45074163733 383.527555584298 A27.09 27.09 0 0 1 199.770049648893 385.195081341943 L199.77 385.2 L318.75 436.69 L319.489252991857 488.567475152466 A4.24 4.24 0 0 1 318.134282637507 492.628978604777 L318.14 492.63 L313.33381524259 496.845958971875 A15.98 15.98 0 0 0 307.190072704208 509.391796045802 L307.19 509.39 L307.170421916894 522.041162145844 A15.73 15.73 0 0 1 291.99361051055 532.273945567621 L292 532.27 L229.610392439344 533.551992657027 A23.64 23.64 0 0 1 222.665986201207 532.858966034693 L222.66 532.86 L128.257592503559 498.142284279756 A11.03 11.03 0 0 1 120.78078483983 487.568421313774 L120.78 487.57 L121.16 480.02 Z" style="fill:rgb(178,178,178);" />
<path d=" M142.391503628732 418.671785376762 A38.25 38.25 0 0 1 112.028659074056 467.517801114502 L112.025471535062 467.5151397717 A32.74 32.74 0 0 0 142.390965501577 418.664860860233 Z" style="fill:rgb(178,178,178);" />
<path d=" M131.461514769489 442.014974936301 A25.6 25.6 0 0 1 115.729905973942 455.411183757264 L115.728271311759 455.400846121929 A24.65 24.65 0 0 1 98.2280310446247 454.104400214919 L98.2348787196491 454.099161519858 A16.12 16.12 0 0 1 90.6556618176767 446.716734356038 L90.6510291493873 446.724875914609 A28.48 28.48 0 0 1 87.6671327815833 429.711601648384 L87.6622797726169 429.704331510637 A26.48 26.48 0 0 1 97.5153247848213 411.973095084737 L97.5152026618353 411.979878649557 A24.71 24.71 0 0 1 116.965274948489 406.971725069339 L116.967220677944 406.973450088141 A19.05 19.05 0 0 1 126.811838578302 411.836828896269 L126.813065287426 411.836083665624 A26.07 26.07 0 0 1 134.398791696377 424.926625784683 L134.391580338803 424.925002743563 A17.29 17.29 0 0 1 134.412623887155 432.744345755505 L134.421888593891 432.747514119338 A25.65 25.65 0 0 1 131.466703933945 442.014972281249 Z" style="fill:rgb(255,0,0);" />
<path d=" M149.213585984239 419.153797928074 A42.41 42.41 0 0 1 124.206750099331 472.54819957349 L124.203857962219 472.553165908122 A30.65 30.65 0 0 0 149.212634148148 419.154621347045 Z" style="fill:rgb(178,178,178);" />
<path d=" M124.725588733124 438.553491010717 A18.03 18.03 0 0 1 113.565386601196 448.15723615027 L113.566610820202 448.15648114498 A17.09 17.09 0 0 1 101.433584200918 447.257647045556 L101.440432823078 447.25240879393 A8.56 8.56 0 0 1 97.3886388165764 443.277603786767 L97.3840320016934 443.285795633656 A20.92 20.92 0 0 1 95.16940768916 430.648428503757 L95.1744808533277 430.642366729407 A18.91 18.91 0 0 1 102.21932396255 417.904139827101 L102.212987683143 417.903088581137 A17.15 17.15 0 0 1 115.71232963847 414.427174623196 L115.714276408902 414.428899816942 A11.49 11.49 0 0 1 121.652053819669 417.362244830348 L121.646455996064 417.368808891985 A18.5 18.5 0 0 1 127.029499285883 426.658223130672 L127.032023176772 426.654314276747 A9.73 9.73 0 0 1 126.950559249815 431.427606126486 L126.949980012214 431.42915260053 A18.08 18.08 0 0 1 124.730946270414 438.553159004025 L124.73 438.55 Z" style="fill:rgb(178,178,178);" />
</g>
</svg>
