<?xml version="1.0" encoding="UTF-8"?>
<!DOCTYPE svg PUBLIC '-//W3C//DTD SVG 1.0//EN' 'http://www.w3.org/TR/2001/REC-SVG-20010904/DTD/svg10.dtd'>
<svg xmlns:xlink="http://www.w3.org/1999/xlink" xmlns="http://www.w3.org/2000/svg" width="699.999999999998" height="699.999999999995">
<!--Gegenereerd door de SIMaD-toepassing (http://www.dlw.be).-->
<g style="stroke:none;fill-rule:evenodd;" transform="matrix(1,0,0,-1,0,699.999999999995)">
<path d=" M45 0 L654.999996858407 1.06581410364015E-13 A45 45 0 0 1 700 45.0000031415927 L699.999999999999 654.99999136062 A45 45 0 0 1 655.000003141593 700 L45.0000031415927 700 A45 45 0 0 1 1.06581410364015E-13 654.999996858407 L1.06581410364015E-13 45.0000031415927 A45 45 0 0 1 45.0000031415927 1.06581410364015E-13 Z" style="fill:rgb(255,255,255);stroke:rgb(0,0,0);" />
<path d=" M554.97 329.5 L555.039997955584 264.363836637886 A3.6 3.6 0 0 0 553.63427404589 261.506027082901 L553.637778985708 261.508052652302 A220.76 220.76 0 0 0 404.069169064485 216.270930638458 L404.075214410129 216.268331861796 A3.6 3.6 0 0 0 400.72 219.860000188496 L400.72 282.529999769616 A1.2 1.2 0 0 1 399.520000083776 283.73 L374.71 283.73 A3.6 3.6 0 0 0 371.335137312072 288.583116849152 L371.34 288.58 L390.41 339.94 L309.59 339.94 L328.664862687928 288.583116849152 A3.6 3.6 0 0 0 325.29 283.73 L300.480000083776 283.73 A1.2 1.2 0 0 1 299.28 282.529999916224 L299.28 219.860000188496 A3.6 3.6 0 0 0 295.924785589871 216.268331861796 L295.930830935515 216.270930638458 A220.76 220.76 0 0 0 146.362221014292 261.508052652302 L146.36572595411 261.506027082901 A3.6 3.6 0 0 0 144.960002044416 264.363836637886 L144.96 264.36 L145.03 329.5 L50.7009185374807 329.50463867866 A300 300 0 0 1 649.299081462519 329.50463867866 L649.3 329.5 Z" style="fill:rgb(0,0,255);" />
<path d=" M50.84 372.41 L145.07 372.41 L145.03 329.5 L50.7009167489242 329.504664797433 A300 300 0 0 0 50.0000000000011 349.999973820061 A300 300 0 0 0 50.837988393041 372.407382963607 Z" style="fill:rgb(255,255,255);" />
<path d=" M630.44 372.41 L649.162011215876 372.407388184969 A300 300 0 0 1 50.8379887841237 372.407388184969 L50.84 372.41 L145.07 372.41 L144.960002044416 264.363836637886 A3.6 3.6 0 0 1 146.36572595411 261.506027082901 L146.362221014292 261.508052652302 A220.76 220.76 0 0 1 295.930830935515 216.270930638458 L295.924785589871 216.268331861796 A3.6 3.6 0 0 1 299.28 219.860000188496 L299.28 282.529999916224 A1.2 1.2 0 0 0 300.480000083776 283.73 L325.29 283.73 A3.6 3.6 0 0 1 328.664862687928 288.583116849152 L328.66 288.58 L309.59 339.94 L390.41 339.94 L371.335137312072 288.583116849152 A3.6 3.6 0 0 1 374.71 283.73 L399.519999916224 283.73 A1.2 1.2 0 0 0 400.72 282.529999916224 L400.72 219.860000188496 A3.6 3.6 0 0 1 404.075214410129 216.268331861796 L404.069169064485 216.270930638458 A220.76 220.76 0 0 1 553.637778985708 261.508052652302 L553.63427404589 261.506027082901 A3.6 3.6 0 0 1 555.039997955584 264.363836637886 L555.04 264.36 L554.93 372.41 Z" style="fill:rgb(255,0,0);" />
<path d=" M649.16 372.41 L554.93 372.41 L554.97 329.5 L649.299083251076 329.504664797433 A300 300 0 0 1 649.999999999999 349.999973820061 A300 300 0 0 1 649.162011606959 372.407382963607 Z" style="fill:rgb(255,255,255);" />
<path d=" M372.13 141.78 L376.53 141.78 L376.53 152.18 L378.85 152.18 L384.88 141.78 L389.96 141.78 L383.81 152.39 L383.814247162009 152.389537888275 A6.4 6.4 0 0 1 388.589999999999 158.580002569125 L388.59 159.38 A6.4 6.4 0 0 1 382.190003574434 165.779999999999 L372.13 165.78 L372.13 141.78 Z M376.53 156.18 L381.79 156.18 A2.4 2.4 0 0 1 384.19 158.57999899469 L384.19 159.38 A2.4 2.4 0 0 1 381.790001298525 161.78 L376.53 161.78 L376.53 156.18 Z" style="fill:rgb(255,255,255);" />
<path d=" M350.39 158.03 L350.39 149.53 A8.23 8.23 0 1 1 366.85 149.529999425438 L366.85 158.03 A8.23 8.23 0 0 1 350.39 158.03 Z M354.79 158.43 L354.79 149.13 A3.83 3.83 0 0 1 362.45 149.129999665769 L362.45 158.43 A3.83 3.83 0 0 1 354.79 158.43 Z" style="fill:rgb(255,255,255);" />
<path d=" M329.14 158.03 L329.14 149.53 A8.23 8.23 0 1 1 345.6 149.529999425438 L345.59 149.53 L345.59 158.03 L345.6 158.03 A8.23 8.23 0 0 1 329.14 158.03 Z M333.54 158.43 L333.54 149.13 A3.83 3.83 0 0 1 341.2 149.129999665769 L341.19 149.13 L341.19 158.43 L341.2 158.43 A3.83 3.83 0 0 1 333.54 158.43 Z" style="fill:rgb(255,255,255);" />
<path d=" M314.09 141.78 L319.23 141.78 L326.26 165.78 L321.67 165.78 L316.66 148.66 L311.64 165.78 L307.06 165.78 L314.09 141.78 Z" style="fill:rgb(255,255,255);" />
<path d=" M487.6 175.78 L502.35 175.78 L502.35 179.78 L492 179.78 L492 186.18 L498.92 186.18 L498.92 190.18 L492 190.18 L492 195.78 L502.35 195.78 L502.35 199.78 L487.6 199.78 L487.6 175.78 Z" style="fill:rgb(255,255,255);" />
<path d=" M460.85 175.78 L465.38 175.78 L469.15 191.31 L472.92 175.78 L477.45 175.78 L483.28 199.78 L479.16 199.78 L475.4 184.25 L471.62 199.78 L467.1 199.78 L463.32 184.25 L459.55 199.78 L455.02 199.78 L460.85 175.78 Z" style="fill:rgb(255,255,255);" />
<path d=" M421.42 175.78 L425.42 175.78 L425.42 191.72 L432.74 175.78 L437.88 175.78 L437.88 199.78 L433.88 199.78 L433.88 183.84 L426.57 199.78 L421.42 199.78 L421.42 175.78 Z" style="fill:rgb(255,255,255);" />
<path d=" M401.88 175.78 L416.62 175.78 L416.62 179.78 L406.28 179.78 L406.28 186.18 L413.2 186.18 L413.2 190.18 L406.28 190.18 L406.28 195.78 L416.62 195.78 L416.62 199.78 L401.88 199.78 L401.88 175.78 Z" style="fill:rgb(255,255,255);" />
<path d=" M392.2 183.13 L392.2 186.18 L388.37 186.18 L388.37 190.18 L396.6 190.18 L396.6 183.53 A8.23 8.23 0 0 0 380.14 183.530000718203 L380.14 192.03 L380.1400000058 192.030308970925 A8.23 8.23 0 0 0 396.314570756549 194.178649690896 L396.32 194.18 L391.78 194.18 L391.777214832891 194.179224708986 A3.83 3.83 0 0 1 384.54 192.429999465231 L384.54 183.13 A3.83 3.83 0 0 1 392.2 183.129999665769 Z" style="fill:rgb(255,255,255);" />
<path d=" M358.96 175.78 L363.36 175.78 L363.36 186.18 L365.67 186.18 L371.7 175.78 L376.78 175.78 L370.64 186.39 L370.634247270053 186.389537916623 A6.4 6.4 0 0 1 375.409999999999 192.580002569125 L375.41 193.38 A6.4 6.4 0 0 1 369.010003574434 199.779999999999 L358.96 199.78 L358.96 175.78 Z M363.36 190.18 L368.61 190.18 A2.4 2.4 0 0 1 371.01 192.579999036578 L371.01 193.38 A2.4 2.4 0 0 1 368.610001298525 195.78 L363.36 195.78 L363.36 190.18 Z" style="fill:rgb(255,255,255);" />
<path d=" M337.22 192.03 L337.22 183.53 A8.23 8.23 0 1 1 353.68 183.529999425438 L353.68 192.03 A8.23 8.23 0 0 1 337.22 192.03 Z M341.62 192.43 L341.62 183.13 A3.83 3.83 0 0 1 349.28 183.129999665769 L349.28 192.43 A3.83 3.83 0 0 1 341.62 192.43 Z" style="fill:rgb(255,255,255);" />
<path d=" M316.2 175.78 L332.66 175.78 L332.66 179.78 L321.22 179.78 L332.18 195.78 L332.18 199.78 L316.68 199.78 L316.68 195.78 L327.16 195.78 L316.2 179.78 L316.2 175.78 Z" style="fill:rgb(255,255,255);" />
<path d=" M282.6 175.78 L286.6 175.78 L286.6 191.72 L293.92 175.78 L299.06 175.78 L299.06 199.78 L295.06 199.78 L295.06 183.84 L287.74 199.78 L282.6 199.78 L282.6 175.78 Z" style="fill:rgb(255,255,255);" />
<path d=" M263.06 175.78 L277.8 175.78 L277.8 179.78 L267.46 179.78 L267.46 186.18 L274.38 186.18 L274.38 190.18 L267.46 190.18 L267.46 195.78 L277.8 195.78 L277.8 199.78 L263.06 199.78 L263.06 175.78 Z" style="fill:rgb(255,255,255);" />
<path d=" M236.2 175.78 L240.2 175.78 L240.2 190.42 L244.48 175.78 L248.65 175.78 L252.66 189.45 L252.66 175.78 L257.06 175.78 L257.06 199.78 L251.92 199.78 L246.63 181.73 L241.34 199.78 L236.2 199.78 L236.2 175.78 Z" style="fill:rgb(255,255,255);" />
<path d=" M213.16 175.78 L217.74 175.78 L218.75 179.21 L226.77 179.21 L227.78 175.78 L232.36 175.78 L225.33 199.78 L220.19 199.78 L213.16 175.78 Z M219.92 183.21 L225.6 183.21 L222.76 192.91 L219.92 183.21 Z" style="fill:rgb(255,255,255);" />
<path d=" M193.82 181.81 L193.82 182.64 L198.22 182.64 L198.22 181.81 L198.230000411343 181.811256804523 A1.92 1.92 0 0 1 199.565214682517 179.981222776701 L199.562408282126 179.966429276882 A8.2 8.2 0 0 1 204.54721091201 179.969498245251 L204.543293714127 179.980746479282 A1.92 1.92 0 0 1 204.771709225725 183.549979348404 L204.77 183.55 L197.92 188.5 L197.915276918677 188.494288823684 A6.02 6.02 0 0 0 198.961376999286 199.780482750316 L198.962886006312 199.779242775691 A12.39 12.39 0 0 0 205.134143815445 199.780006538567 L205.141730470565 199.789683146945 A6.02 6.02 0 0 0 209.659999447428 193.957420665593 L209.66 193.95 L205.26 193.95 L205.259999630823 193.951093679426 A1.62 1.62 0 0 1 204.042388674619 195.519230178953 L204.041332271514 195.517874112728 A7.99 7.99 0 0 1 200.061643057519 195.518639200098 L200.056236535925 195.518877007633 A1.62 1.62 0 0 1 199.775656169823 192.481642576857 L199.78 192.49 L206.63 187.53 L206.631056181196 187.537814493932 A6.32 6.32 0 0 0 205.880870520621 175.788982109061 L205.884976058996 175.774602957498 A12.6 12.6 0 0 0 198.225400449964 175.777673296779 L198.219021976107 175.789016406623 A6.32 6.32 0 0 0 193.82 181.810000441219 Z" style="fill:rgb(255,255,255);" />
<path d=" M576.85 455.03 A4.75 4.75 0 0 1 567.35 455.03 A4.75 4.75 0 0 1 576.85 455.03 Z" style="fill:rgb(255,255,255);" />
<path d=" M452.41 577.6 A4.75 4.75 0 0 1 442.91 577.6 A4.75 4.75 0 0 1 452.41 577.6 Z" style="fill:rgb(255,255,255);" />
<path d=" M218.02 556.09 A4.75 4.75 0 0 1 208.52 556.09 A4.75 4.75 0 0 1 218.02 556.09 Z" style="fill:rgb(255,255,255);" />
<path d=" M132.65 455.03 A4.75 4.75 0 0 1 123.15 455.03 A4.75 4.75 0 0 1 132.65 455.03 Z" style="fill:rgb(255,255,255);" />
<path d=" M544.9 472.49 L547.08 468.67 L554.89 473.12 L550.59 462.51 L553.36 457.65 L559.29 472.28 L573.9 470.09 L571.12 474.95 L560.81 476.5 L567.92 480.56 L565.74 484.38 L544.9 472.49 Z" style="fill:rgb(255,255,255);" />
<path d=" M532.86 490.37 L535.38 486.76 L543.9 492.72 L545.23 490.82 L540.16 479.92 L543.07 475.75 L548.25 486.87 L548.246221215317 486.872593170176 A6.4 6.4 0 0 1 556.056077301555 486.504060883023 L556.06 486.5 L556.71 486.96 L556.716082245734 486.964064338222 A6.4 6.4 0 0 1 558.295942700141 495.876072174254 L558.29 495.87 L552.53 504.11 L532.86 490.37 Z M547.18 495.01 L550.19 490.7 L550.192774366778 490.705218814504 A2.4 2.4 0 0 1 553.534777408691 490.112771727391 L553.54 490.11 L554.19 490.57 L554.19478091082 490.562774174822 A2.4 2.4 0 0 1 554.787228464564 493.904777134014 L554.78 493.91 L551.77 498.22 L547.18 495.01 Z" style="fill:rgb(255,255,255);" />
<path d=" M520.83 505.09 L530.35 493.82 L533.4 496.4 L526.73 504.31 L531.62 508.44 L536.08 503.15 L539.13 505.73 L534.67 511.02 L538.95 514.63 L545.63 506.73 L548.68 509.31 L539.17 520.57 L520.83 505.09 Z" style="fill:rgb(255,255,255);" />
<path d=" M504.08 522.26 L507.31 519.08 L520.89 527.5 L512.68 513.79 L515.91 510.61 L536.9 523.62 L533.97 526.51 L520.39 518.09 L528.6 531.8 L525.37 534.98 L511.79 526.56 L520 540.27 L516.77 543.45 L504.08 522.26 Z" style="fill:rgb(255,255,255);" />
<path d=" M471.65 546.97 L483.87 538.71 L486.11 542.02 L477.54 547.82 L481.13 553.12 L486.85 549.25 L489.1 552.56 L483.37 556.43 L486.51 561.07 L495.07 555.28 L497.31 558.59 L485.1 566.85 L471.65 546.97 Z" style="fill:rgb(255,255,255);" />
<path d=" M452.95 558.02 L456.36 555.93 L464.68 569.53 L462.6 552.12 L466.99 549.43 L479.51 569.91 L476.1 571.99 L467.78 558.4 L469.86 575.81 L465.48 578.49 L452.95 558.02 Z" style="fill:rgb(255,255,255);" />
<path d=" M412.7 573.42 L426.69 568.78 L427.95 572.57 L418.13 575.83 L420.15 581.9 L426.71 579.73 L427.97 583.52 L421.41 585.7 L423.17 591.02 L432.99 587.76 L434.25 591.56 L420.25 596.2 L412.7 573.42 Z" style="fill:rgb(255,255,255);" />
<path d=" M397.42 577.06 L401.71 576.06 L407.15 599.43 L402.86 600.43 L397.42 577.06 Z" style="fill:rgb(255,255,255);" />
<path d=" M381.2 579.86 L385.56 579.25 L388.29 599.07 L394.26 598.24 L394.81 602.2 L378.51 604.45 L377.96 600.49 L383.93 599.67 L381.2 579.86 Z" style="fill:rgb(255,255,255);" />
<path d=" M353.13 582.07 L357.71 581.88 L358.85 585.26 L366.87 584.92 L367.73 581.45 L372.31 581.26 L366.3 605.54 L361.16 605.75 L353.13 582.07 Z M360.19 589.21 L365.87 588.97 L363.44 598.77 L360.19 589.21 Z" style="fill:rgb(255,255,255);" />
<path d=" M329.21 581.29 L333.21 581.47 L332.54 596.09 L337.49 581.67 L341.65 581.86 L345.03 595.7 L345.65 582.04 L350.05 582.24 L348.95 606.22 L343.82 605.98 L339.36 587.71 L333.26 605.5 L328.12 605.26 L329.21 581.29 Z" style="fill:rgb(255,255,255);" />
<path d=" M307.79 578.33 L312.15 578.94 L310.73 589.24 L313.02 589.56 L320.42 580.08 L325.45 580.77 L317.91 590.44 L317.916032323327 590.4400164783 A6.4 6.4 0 0 1 321.799801617672 597.225737088723 L321.79 597.23 L321.69 598.02 L321.689800777022 598.025743174495 A6.4 6.4 0 0 1 314.47426899705 603.489802458316 L314.47 603.48 L304.51 602.11 L307.79 578.33 Z M310.18 593.2 L315.39 593.92 L315.388404063881 593.922574760202 A2.4 2.4 0 0 1 317.437425870284 596.628399499551 L317.44 596.63 L317.33 597.42 L317.327425291383 597.418403690436 A2.4 2.4 0 0 1 314.621600873894 599.467425921869 L314.62 599.47 L309.41 598.75 L310.18 593.2 Z" style="fill:rgb(255,255,255);" />
<path d=" M282.2 589.49 L284.13 581.21 L284.1244304022 581.213574533279 A8.23 8.23 0 1 1 300.1555695978 584.946425466721 L300.16 584.94 L298.23 593.22 L298.225569500074 593.226425886415 A8.23 8.23 0 1 1 282.194430499926 589.493574113585 Z M286.39 590.88 L288.5 581.82 L288.49978960394 581.821420469315 A3.83 3.83 0 1 1 295.96021039606 583.558579530685 L295.96 583.55 L293.85 592.62 L293.850210350581 592.618579725999 A3.83 3.83 0 1 1 286.389789649419 590.881420274001 Z" style="fill:rgb(255,255,255);" />
<path d=" M269.13 567.39 L273.31 568.78 L270.03 578.65 L276.6 580.83 L275.34 584.62 L268.77 582.44 L267.01 587.76 L276.83 591.02 L275.57 594.81 L261.58 590.17 L269.13 567.39 Z" style="fill:rgb(255,255,255);" />
<path d=" M249.37 558.84 L253.04 560.45 L246.65 575.05 L259.74 563.38 L264.45 565.43 L254.84 587.43 L251.17 585.82 L257.56 571.22 L244.47 582.9 L239.76 580.84 L249.37 558.84 Z" style="fill:rgb(255,255,255);" />
<path d=" M238.06 552.75 L242 554.7 L231.4 576.23 L227.46 574.29 L238.06 552.75 Z" style="fill:rgb(255,255,255);" />
<path d=" M152.28 511.74 L164.2 500.69 L164.196926407842 500.692581032204 A8.23 8.23 0 1 1 175.383073592158 512.767418967796 L175.39 512.76 L163.46 523.81 L160.47 520.58 L172.69 509.26 L172.69285203664 509.26963721419 A3.83 3.83 0 0 0 167.48714796336 503.65036278581 L167.49 503.65 L155.27 514.96 L152.28 511.74 Z" style="fill:rgb(255,255,255);" />
<path d=" M138.69 493.01 L151.57 483.1 L151.5720387714 483.096736621271 A8.23 8.23 0 0 1 161.6079612286 496.143263378729 L161.61 496.14 L148.73 506.05 L146.04 502.56 L159.24 492.41 L159.245211710528 492.415734880883 A3.83 3.83 0 0 0 154.574788289472 486.344265119117 L154.57 486.34 L141.38 496.5 L138.69 493.01 Z" style="fill:rgb(255,255,255);" />
<path d=" M148.24 460.85 L153.71 469.85 L153.709968032687 469.847433263066 A6.4 6.4 0 0 1 151.562577238513 478.639961653807 L151.56 478.64 L150.19 479.48 L150.191933000486 479.472471196863 A4.8 4.8 0 0 1 144.712830477565 479.127235452329 L144.71321583093 479.128943501812 A4.8 4.8 0 0 1 142.421932069665 483.632471762264 L142.42 483.63 L141.74 484.05 L141.732567596155 484.049967510779 A6.4 6.4 0 0 1 132.940038868103 481.902578097733 L132.94 481.9 L127.72 473.31 L148.24 460.85 Z M138.21 472.08 L140.94 476.58 L140.941237990511 476.574037437849 A2.4 2.4 0 0 1 140.135966500243 479.871235598431 L140.14 479.87 L139.45 480.29 L139.455962884359 480.291237794796 A2.4 2.4 0 0 1 136.158764597285 479.48596682245 L136.16 479.48 L133.43 474.99 L138.21 472.08 Z M147.1 466.68 L150.08 471.59 L150.081238034004 471.58403750945 A2.4 2.4 0 0 1 149.275966428642 474.881235641924 L149.27 474.88 L147.91 475.71 L147.905962848558 475.711237816542 A2.4 2.4 0 0 1 144.608764575538 474.90596678665 L144.61 474.91 L141.63 470.01 L147.1 466.68 Z" style="fill:rgb(255,255,255);" />
<path d=" M474.87 108.54 L487.97 116.02 L487.968850568426 116.022533882085 A9.6 9.6 0 0 1 491.547475254237 129.118834561632 L491.55 129.12 L483.22 143.71 L483.227466865434 143.70884925878 A9.6 9.6 0 0 1 470.131166748016 147.287476001753 L470.13 147.29 L457.02 139.81 L474.87 108.54 Z M477.63 117.02 L484.48 120.93 L484.47456896316 120.933450205782 A3.6 3.6 0 0 1 485.816553220339 125.844562960612 L485.82 125.85 L477.49 140.44 L477.486550074538 140.434568472043 A3.6 3.6 0 0 1 472.575437530506 141.776553500657 L472.58 141.78 L465.73 137.87 L477.63 117.02 Z" style="fill:rgb(255,255,255);" />
<path d=" M453.78 98.56 L459.85 101.15 L445.7 134.26 L439.63 131.66 L453.78 98.56 Z" style="fill:rgb(255,255,255);" />
<path d=" M419.4 87.05 L440.55 93.51 L438.79 99.25 L423.96 94.72 L421.15 103.9 L431.07 106.93 L429.32 112.67 L419.4 109.64 L416.95 117.67 L431.78 122.21 L430.03 127.94 L408.88 121.48 L419.4 87.05 Z" style="fill:rgb(255,255,255);" />
<path d=" M378.36 79.17 L384.87 80.25 L382.3 95.64 L393.63 97.53 L396.2 82.15 L402.71 83.24 L396.77 118.74 L390.26 117.66 L392.64 103.45 L381.31 101.56 L378.93 115.76 L372.42 114.67 L378.36 79.17 Z" style="fill:rgb(255,255,255);" />
<path d=" M355.74 89.74 L355.74 94.32 L350 94.32 L350 100.32 L362.34 100.32 L362.34 90.34 A12.34 12.34 0 0 0 337.660000000001 90.3400053843407 L337.66 103.1 L337.66000000182 103.099788072348 A12.34 12.34 0 0 0 361.911853191473 106.322321142405 L361.91 106.32 L355.11 106.32 L355.106375103291 106.321551697847 A5.74 5.74 0 0 1 344.26 103.700001202183 L344.26 89.74 A5.74 5.74 0 0 1 355.739999999999 89.7399975956344 Z" style="fill:rgb(255,255,255);" />
<path d=" M318.4 79.88 L324.96 79.19 L328.73 114.99 L322.17 115.68 L318.4 79.88 Z" style="fill:rgb(255,255,255);" />
<path d=" M288.16 85.03 L308.3 80.87 L309.51 86.75 L295.83 89.57 L301.9 118.95 L295.44 120.29 L288.16 85.03 Z" style="fill:rgb(255,255,255);" />
<path d=" M270.87 89.69 L277.23 87.92 L286.88 122.6 L280.52 124.37 L270.87 89.69 Z" style="fill:rgb(255,255,255);" />
<path d=" M238.79 101.8 L259.35 93.65 L261.56 99.23 L247.13 104.94 L250.67 113.87 L260.31 110.05 L262.52 115.63 L252.88 119.45 L255.98 127.26 L270.4 121.54 L272.61 127.12 L252.05 135.27 L238.79 101.8 Z" style="fill:rgb(255,255,255);" />
<path d=" M212.24 115.55 L218.85 111.56 L246.48 136.94 L240.59 140.49 L220.87 122.38 L227.71 148.26 L221.82 151.82 L212.24 115.55 Z" style="fill:rgb(255,255,255);" />
<path d=" M517.521071850366 402.691560265222 A161.93 161.93 0 0 1 524.167821347654 406.151257248008 L524.178446007782 406.139597323555 A94.04 94.04 0 0 1 537.859931831365 415.282215466524 L537.855758783516 415.282691520382 A53.98 53.98 0 0 1 546.169590998049 423.614332368884 L546.165319342589 423.614066838547 A32.87 32.87 0 0 1 550.045118672737 429.776674509036 L550.048867790835 429.779090059749 A25.73 25.73 0 0 1 551.637927052697 433.964434494393 L551.638023779684 433.967396736951 A22.07 22.07 0 0 1 552.45694318584 439.210949740373 L552.457627451516 439.212089667821 A23.22 23.22 0 0 1 552.300411670516 442.771235766542 L552.301644007566 442.761984780322 A20.86 20.86 0 0 1 551.244081673218 447.113543559126 L551.236687066188 447.112601700133 A24.29 24.29 0 0 1 549.835687899217 450.287864487818 L549.833782021436 450.293763068008 A32.28 32.28 0 0 1 544.459404506415 457.686448872782 L544.460363719245 457.687692341959 A80.67 80.67 0 0 1 539.907725782161 461.991214517433 L539.910692953337 461.991839796082 A79.87 79.87 0 0 1 528.143708600715 470.118794882291 L528.148783424823 470.114655201196 A147.92 147.92 0 0 1 520.408742325874 474.22288737137 L520.404088677419 474.230084161616 A177.31 177.31 0 0 1 500.675162914447 482.352515289166 L500.679510079818 482.355183613675 A258.7 258.7 0 0 1 487.766909008617 486.479981636972 L487.763373989013 486.471697084679 A345.83 345.83 0 0 1 459.628364423214 493.341104209262 L459.628555133602 493.35150048672 A483.3 483.3 0 0 1 442.97583507297 496.383976429927 L442.97687127332 496.380353364744 A521.46 521.46 0 0 1 409.243466676286 500.708752637021 L409.241778370025 500.702981092023 A586.72 586.72 0 0 1 396.218653305874 501.809751227672 L396.217583980158 501.818719461221 A604.29 604.29 0 0 1 391.446644377574 502.152091934421 L391.451828006432 502.145631624068 A624.1 624.1 0 0 1 364.773292916452 503.326990789278 L364.774545988043 503.330119622783 A640.82 640.82 0 0 1 356.105496257054 503.471104132466 L356.106683409153 503.460984077539 A642.62 642.62 0 0 1 349.366226923484 503.48968747595 L349.366511130991 503.499687527646 A642.15 642.15 0 0 1 347.444689110644 503.494915798808 L347.44 503.49 L354.72 478.99 L344.42 478.99 L344.42 412.09 L349.13 412.09 L349.13 426.08 L358.37 426.08 L358.37 439.36 L346.75 439.36 L360.75 460.21 L382.64 460.21 L382.64 468.22 L393.42 468.22 L393.42 460.11 L416.38 460.11 L424.05 449.29 L425.34 449.3 L425.341283559465 450.96838866584 A7.51 7.51 0 0 0 426.386813135914 464.622672074864 L426.391672538579 464.623797876896 A1.55 1.55 0 0 1 426.61762073488 466.911857307347 L426.617199133896 466.907233518092 A4.98 4.98 0 0 0 430.652166601103 474.849896114356 L430.643608110963 474.847438276991 A1.53 1.53 0 0 1 432.195845628104 477.268773066266 L432.194845657199 477.26630623802 A6.32 6.32 0 1 0 442.879062812865 477.319948393268 L442.889038713383 477.313640268037 A1.72 1.72 0 0 1 444.635579000884 474.695587696505 L444.628421377838 474.690950203816 A5.65 5.65 0 0 0 450.581796878764 465.154749461656 L450.590120984481 465.153151336768 A1.29 1.29 0 0 1 450.590120984481 462.706848663232 L450.586784417775 462.709229851863 A6.19 6.19 0 0 0 452.964753941097 452.431007689809 L452.960620074119 452.427852436526 A1.78 1.78 0 0 1 452.960620074119 449.892147563474 L452.965218792631 449.899346044006 A5.45 5.45 0 0 0 452.965218792631 439.400653955994 L452.962978996812 439.399834980773 A1.6 1.6 0 0 1 451.400344245158 437.364729789004 L451.403749591719 437.373049113747 A5.28 5.28 0 0 0 449.286686007287 430.1069080621 L449.287977740131 430.111484164453 A2.86 2.86 0 0 1 447.514212480886 427.744769022292 L447.522826422813 427.741103124976 A3.93 3.93 0 0 0 444.041396137121 421.88043697248 L444.040723375564 421.885803298721 A25.99 25.99 0 0 0 439.139276624436 421.885803298721 L439.13 421.88 L439.13 399.9 L440.97 399.9 L444.74 403.66 L449.2 399.19 L454.24 404.23 L456.47 399.9 L460.5 399.9 L460.5 424.64 L456.93 427.35 L456.93 438.73 L467.871613256007 438.732972302495 A14.92 14.92 0 0 0 478.379251871305 444.333205231442 L478.38 444.33 L493.52 444.33 L493.52 453.12 L492.93 453.12 L492.93 458.43 L499.88 458.43 L499.88 453.12 L499.06 453.12 L499.059383587318 443.168926205304 A33.6 33.6 0 0 0 504.808136121138 438.901311267822 L504.81 438.9 L513.46 438.9 L513.46 427.29 L511.99 427.29 L511.99 424.58 L527.74 410.95 L517.52 410.95 L517.520104794956 402.879779808368 A259.18 259.18 0 0 0 517.44845036761 402.846526259323 L517.452126103594 402.851642929706 A0.09 0.09 0 1 1 517.527873896406 402.688357070294 Z" style="fill:rgb(255,255,255);" />
<path d=" M221.9 446.67 L239.11 426.2 L231.08 426.2 L231.08 417.74 L241.76 417.74 L241.76 460.64 L232.5 460.64 L246.8 482.5 L306.56 482.5 L312.808251262825 502.80246202522 A595.65 595.65 0 0 1 295.772797703121 501.550313856994 L295.769913625569 501.552222053876 A523.68 523.68 0 0 1 255.600545544877 496.498140579307 L255.605764158972 496.495481837833 A376.89 376.89 0 0 1 213.481986522968 487.129673138486 L213.478129537541 487.13042375502 A211.89 211.89 0 0 1 180.150871774376 474.717507148312 L180.148414588762 474.72436124591 A110.6 110.6 0 0 1 165.786426965369 466.484922863996 L165.789192739594 466.481045027507 A73.27 73.27 0 0 1 160.733985352863 462.680540373214 L160.739444512529 462.671868658804 A52.69 52.69 0 0 1 155.129563889899 457.352813789024 L155.125706085843 457.358318521306 A39.92 39.92 0 0 1 153.09860547942 454.92684987627 L153.100566953 454.921629522509 A31.73 31.73 0 0 1 150.506345778542 450.997233964214 L150.50782712978 450.996952032836 A23.02 23.02 0 0 1 148.086229441976 444.88286416427 L148.077723687304 444.881162393936 A20.04 20.04 0 0 1 147.677191370054 437.929100890736 L147.688159559206 437.939233674068 A29.23 29.23 0 0 1 155.917079135985 421.155802769796 L155.915923938353 421.152779983627 A63.74 63.74 0 0 1 171.342424324924 408.996086639458 L171.336910062203 408.999132902351 A219.45 219.45 0 0 1 171.947605869676 408.655658329768 L171.95 408.65 L171.95 426.06 L165.09 426.06 L205.39 466.32 L219.21 449.88 L219.21 460.64 L221.9 460.64 Z" style="fill:rgb(255,255,255);" />
<path d=" M221.9 446.67 L239.11 426.2 L231.08 426.2 L231.08 417.74 L241.76 417.74 L241.76 460.64 L232.5 460.64 L246.8 482.5 L306.56 482.5 L330.54 560.4 L354.72 478.99 L344.42 478.99 L344.42 412.09 L349.13 412.09 L349.13 426.08 L358.37 426.08 L358.37 439.36 L346.75 439.36 L360.75 460.21 L382.64 460.21 L382.64 468.22 L393.42 468.22 L393.42 460.11 L416.38 460.11 L424.05 449.29 L425.34 449.3 L425.341283559465 450.96838866584 A7.51 7.51 0 0 0 426.386813135914 464.622672074864 L426.391672538579 464.623797876896 A1.55 1.55 0 0 1 426.61762073488 466.911857307347 L426.617199133896 466.907233518092 A4.98 4.98 0 0 0 430.652166601103 474.849896114356 L430.643608110963 474.847438276991 A1.53 1.53 0 0 1 432.195845628104 477.268773066266 L432.194845657199 477.26630623802 A6.32 6.32 0 1 0 442.879062812865 477.319948393268 L442.889038713383 477.313640268037 A1.72 1.72 0 0 1 444.635579000884 474.695587696505 L444.628421377838 474.690950203816 A5.65 5.65 0 0 0 450.581796878764 465.154749461656 L450.590120984481 465.153151336768 A1.29 1.29 0 0 1 450.590120984481 462.706848663232 L450.586784417775 462.709229851863 A6.19 6.19 0 0 0 452.964753941097 452.431007689809 L452.960620074119 452.427852436526 A1.78 1.78 0 0 1 452.960620074119 449.892147563474 L452.965218792631 449.899346044006 A5.45 5.45 0 0 0 452.965218792631 439.400653955994 L452.962978996812 439.399834980773 A1.6 1.6 0 0 1 451.400344245158 437.364729789004 L451.403749591719 437.373049113747 A5.28 5.28 0 0 0 449.286686007287 430.1069080621 L449.287977740131 430.111484164453 A2.86 2.86 0 0 1 447.514212480886 427.744769022292 L447.522826422813 427.741103124976 A3.93 3.93 0 0 0 444.041396137121 421.88043697248 L444.040723375564 421.885803298721 A25.99 25.99 0 0 0 439.139276624436 421.885803298721 L439.13 421.88 L439.13 399.9 L440.97 399.9 L444.74 403.66 L449.2 399.19 L454.24 404.23 L456.47 399.9 L460.5 399.9 L460.5 424.64 L456.93 427.35 L456.93 438.73 L467.871613256007 438.732972302495 A14.92 14.92 0 0 0 478.379251871305 444.333205231442 L478.38 444.33 L493.52 444.33 L493.52 453.12 L492.93 453.12 L492.93 458.43 L499.88 458.43 L499.88 453.12 L499.06 453.12 L499.059383587318 443.168926205304 A33.6 33.6 0 0 0 504.808136121138 438.901311267822 L504.81 438.9 L513.46 438.9 L513.46 427.29 L511.99 427.29 L511.99 424.58 L527.74 410.95 L517.52 410.95 L517.527353159578 402.874598276718 A259.34 259.34 0 0 0 461.71057935598 384.315284865237 L461.710635677054 384.320662990734 A480.19 480.19 0 0 0 403.50620775942 375.201312498011 L403.5 375.2 L392.52 345.63 L307.48 345.63 L296.494106958312 375.20411522234 A469.7 469.7 0 0 0 232.443365993094 385.688179759713 L232.445375587599 385.682824254693 A219.45 219.45 0 0 0 171.947615893679 408.645652712999 L171.95 408.65 L171.95 426.06 L165.09 426.06 L205.39 466.32 L219.21 449.88 L219.21 460.64 L221.9 460.64 Z" style="fill:rgb(0,0,255);" />
<path d=" M551.927616410366 263.725783762158 A0.8 0.8 0 0 1 552.239999545745 264.360852530346 L552.24 264.36 L552.073448725535 427.567561858118 A35.68 35.68 0 0 0 548.361233670651 421.870765308677 L548.357344332778 421.866835761121 A56.78 56.78 0 0 0 539.610340721955 413.100618601956 L539.610195960651 413.101879708639 A96.85 96.85 0 0 0 525.521898611925 403.687022557774 L525.515820719403 403.697097037706 A164.73 164.73 0 0 0 506.555476575949 394.78453330911 L506.563636754465 394.766326061159 A237.4 237.4 0 0 0 490.500015890389 389.036848682528 L490.496189287923 389.044393738486 A315.72 315.72 0 0 0 472.017100043038 383.802708050357 L472.016789946968 383.807373532367 A391.84 391.84 0 0 0 450.094557780481 378.973138175788 L450.09521749902 378.966877123587 A466.36 466.36 0 0 0 430.355003746714 375.632541383369 L430.355225984786 375.64223159737 A513.92 513.92 0 0 0 417.792551154597 373.950449278197 L417.795587131526 373.94797852581 A545.12 545.12 0 0 0 405.518645841893 372.588174124964 L405.52 372.58 L373.960030508933 287.608470397833 A0.8 0.8 0 0 1 374.710000013963 286.53 L399.519999720747 286.53 A4 4 0 0 0 403.52 282.529999720747 L403.52 219.859999986037 A0.8 0.8 0 0 1 404.265603257972 219.061851521046 L404.259558295412 219.064450271599 A217.96 217.96 0 0 1 551.931121162008 263.72780918688 Z" style="fill:rgb(255,255,255);" />
<path d=" M296.48 219.859999986037 A0.8 0.8 0 0 0 295.734396742028 219.061851521046 L295.740441704588 219.064450271599 A217.96 217.96 0 0 0 148.068878837992 263.727809186881 L148.072383589635 263.725783762158 A0.8 0.8 0 0 0 147.760000454255 264.360852530346 L147.76 264.36 L147.935858173636 427.588321883876 A32.03 32.03 0 0 1 153.896598622984 419.216832156171 L153.895434364842 419.213818879396 A66.54 66.54 0 0 1 169.967402278204 406.556964429473 L169.961890828437 406.55000909307 A222.25 222.25 0 0 1 225.936882945866 384.321670681271 L225.941530503137 384.320245617014 A482.82 482.82 0 0 1 294.487124304854 372.577242738358 L294.48 372.58 L326.039969486206 287.608470410923 A0.8 0.8 0 0 0 325.290000013963 286.53 L300.480000279253 286.53 A4 4 0 0 1 296.48 282.529999720747 Z" style="fill:rgb(255,255,255);" />
<path d=" M491.08 533.17 L494.48 530.38 L507.16 545.85 L511.82 542.03 L514.35 545.12 L501.62 555.55 L499.09 552.46 L503.75 548.64 L491.08 533.17 Z" style="fill:rgb(255,255,255);" />
<path d=" M202.07 527.64 L205.44 530.48 L192.55 545.77 L197.15 549.66 L194.58 552.72 L181.99 542.11 L184.57 539.05 L189.18 542.94 L202.07 527.64 Z" style="fill:rgb(255,255,255);" />
<path d=" M183.37 510.48 L186.65 513.42 L179.7 521.15 L181.42 522.7 L192.85 519 L196.63 522.39 L184.97 526.17 L184.965893151734 526.171274888508 A6.4 6.4 0 0 1 184.380246136568 533.967856556652 L184.38 533.97 L183.85 534.57 L183.850242030118 534.567861126158 A6.4 6.4 0 0 1 174.812148012858 535.050250243013 L174.81 535.05 L167.33 528.33 L183.37 510.48 Z M177.02 524.13 L180.93 527.64 L180.934198171555 527.644909462694 A2.4 2.4 0 0 1 181.115093617142 531.034194744424 L181.11 531.03 L180.58 531.63 L180.575090789293 531.624197891154 A2.4 2.4 0 0 1 177.185805535978 531.805093869128 L177.19 531.81 L173.28 528.29 L177.02 524.13 Z" style="fill:rgb(255,255,255);" />
<path d=" M334.58 492.62 A4.75 4.75 0 0 1 325.08 492.62 A4.75 4.75 0 0 1 334.58 492.62 Z" style="fill:rgb(255,255,255);" />
<path d=" M295.555242469343 324.171201601904 A15.34 15.34 0 0 1 269.924757530657 324.171201601904 L269.924757530657 324.168798398096 A15.34 15.34 0 0 1 295.555242469343 324.168798398096 Z" style="fill:rgb(255,0,0);" />
<path d=" M423.255242469343 324.171201601904 A15.34 15.34 0 0 1 397.624757530657 324.171201601904 L397.624757530657 324.168798398096 A15.34 15.34 0 0 1 423.255242469343 324.168798398096 Z" style="fill:rgb(255,0,0);" />
<path d=" M267.62 435.33 L267.623695876158 452.923656445058 A4.85 4.85 0 1 0 276.976304123842 452.923656445058 L276.98 452.93 L276.98 435.33 L276.84 435.33 Z" style="fill:rgb(255,255,255);" />
<path d=" M281.48 435.33 L281.483695876158 452.923656445058 A4.85 4.85 0 1 0 290.836304123842 452.923656445058 L290.84 452.93 L290.84 435.33 L290.7 435.33 Z" style="fill:rgb(255,255,255);" />
<path d=" M295.34 435.33 L295.343695876158 452.923656445058 A4.85 4.85 0 1 0 304.696304123842 452.923656445058 L304.7 452.93 L304.7 435.33 L304.56 435.33 Z" style="fill:rgb(255,255,255);" />
<path d=" M397.12 431.56 L397.12 421.97 L387.81 421.97 L387.81 431.56 Z" style="fill:rgb(255,255,255);" />
<path d=" M410.17 431.56 L410.17 421.97 L400.87 421.97 L400.87 431.56 Z" style="fill:rgb(255,255,255);" />
<path d=" M418.57 400.23 L420.49 400.23 L424.22 403.53 L427.96 399.3 L430.54 399.36 L431.58 400.73 L433.01 401.94 L433.478961113089 424.811114295899 A4.44 4.44 0 0 0 427.709456395801 425.693327003646 L427.71394677168 425.697801763271 A11.17 11.17 0 0 0 424.878700393822 428.528189130318 L424.876030908896 428.524749997574 A3.93 3.93 0 0 0 426.326688442931 433.967210623006 L426.331078588576 433.96939914949 A2.89 2.89 0 0 1 423.509290922857 438.004953797027 L423.51 438 L418.57 438.1 Z" style="fill:rgb(255,255,255);" />
<path d=" M197.41 424.11 L197.41 413.39 L183.55 413.39 L183.55 424.11 Z" style="fill:rgb(255,255,255);" />
<path d=" M218.19 424.11 L218.19 413.39 L204.33 413.39 L204.33 424.11 Z" style="fill:rgb(255,255,255);" />
<path d=" M410.17 418.37 L410.17 408.77 L400.87 408.77 L400.87 418.37 Z" style="fill:rgb(255,255,255);" />
<path d=" M397.12 418.37 L397.12 408.77 L387.81 408.77 L387.81 418.37 Z" style="fill:rgb(255,255,255);" />
<path d=" M474.47 423.45 L474.47 399.93 L468.61 399.93 L468.61 423.45 Z" style="fill:rgb(255,255,255);" />
<path d=" M486.37 423.45 L486.37 399.93 L480.51 399.93 L480.51 423.45 Z" style="fill:rgb(255,255,255);" />
</g>
</svg>
