<?xml version="1.0" encoding="UTF-8"?>
<!DOCTYPE svg PUBLIC '-//W3C//DTD SVG 1.0//EN' 'http://www.w3.org/TR/2001/REC-SVG-20010904/DTD/svg10.dtd'>
<svg xmlns:xlink="http://www.w3.org/1999/xlink" xmlns="http://www.w3.org/2000/svg" width="900" height="600">
<!--Gegenereerd door de SIMaD-toepassing (http://www.dlw.be).-->
<g style="stroke:none;fill-rule:evenodd;" transform="matrix(1,0,0,-1,0,600)">
<path d=" M65 0 L835 0 A65 65 0 0 1 900 65 L900 535 A65 65 0 0 1 835 600 L65 600 A65 65 0 0 1 0 535 L0 65 A65 65 0 0 1 65 0 Z" style="fill:rgb(255,255,0);" />
<path d=" M640.37 155.7 L631.96 155.7 L583.96 202.59 L610.27 242.98 L607.83 246.23 L628.44 275.23 L611.62 330.8 L544.64 398.83 L553.59 399.37 L609.73 351.94 L648.23 363.59 L711.96 287.7 L704.37 287.7 L660.44 323.75 L671.55 284.45 L685.66 248.13 L682.94 245.42 L710.06 158.14 L700.84 158.68 L660.16 237.83 L655.55 238.37 L649.32 251.38 L638.47 237.01 L633.59 237.01 L607.56 205.57 L640.37 155.7 L631.96 155.7 Z" style="fill:rgb(0,0,0);" />
<path d=" M415.97 177.66 L403.67 177.66 L430.33 237.62 L423.66 237.62 L443.66 278.62 L443.66 303.73 L399.57 356.51 L409.31 356.51 L444.68 324.74 L479.55 324.74 L515.44 356 L523.13 356 L481.09 305.26 L481.09 275.03 L498.52 237.11 L491.85 237.11 L514.93 180.22 L506.72 180.22 L475.45 236.08 L446.74 236.08 L415.97 177.66 Z" style="fill:rgb(0,0,0);" />
<path d=" M201.98 305.87 L269.2 360.88 L318.39 360.88 L390.48 406.16 L390.48 395.45 L317.42 338.97 L317.42 275.69 L341.28 233.33 L341.28 227.49 L337.36 227.49 L383.37 151.88 L373.36 151.88 L313.88 218.2 L309.19 216.33 L290.41 239.17 L267.56 214.14 L262.86 217.58 L200.88 150 L188.05 150 L240.01 230.09 L235.63 232.28 L267.24 275.15 L267.56 335.22 L201.51 297.05 L201.98 305.87 Z" style="fill:rgb(0,0,0);" />
<path d=" M318.2 387.48 A21.75 21.75 0 0 1 274.7 387.48 A21.75 21.75 0 0 1 318.2 387.48 Z" style="fill:rgb(0,0,0);" />
<path d=" M477.92 343.2 A14.9 14.9 0 0 1 448.12 343.2 A14.9 14.9 0 0 1 477.92 343.2 Z" style="fill:rgb(0,0,0);" />
<path d=" M484.23 426.86 A23.14 23.14 0 0 1 437.95 426.86 A23.14 23.14 0 0 1 484.23 426.86 Z" style="fill:rgb(0,0,0);" />
<path d=" M642.62 384.55 A21.32 21.32 0 0 1 599.98 384.55 A21.32 21.32 0 0 1 642.62 384.55 Z" style="fill:rgb(0,0,0);" />
<path d=" M281.84 534.07 L281.84 515.930002756748 A17.55 17.55 0 0 1 316.94 515.929997243252 L316.95 515.93 L316.94 534.07 A17.55 17.55 0 0 1 281.84 534.07 Z M291.23 534.92 L291.22 515.08000128334 A8.17 8.17 0 0 1 307.56 515.079998716659 L307.56 534.92 A8.17 8.17 0 0 1 291.22 534.92 Z" style="fill:rgb(0,0,0);" />
<path d=" M328.22 499.4 L337.61 499.4 L337.61 521.59 L349.680015247196 521.590000000009 A13.65 13.65 0 0 1 363.329999999996 535.239989041078 L363.329999999996 536.950010958922 A13.65 13.65 0 0 1 349.680015247196 550.599999999991 L328.22 550.6 Z M337.61 530.12 L348.820005719095 530.120000000003 A5.12 5.12 0 0 1 353.939999999998 535.239995889401 L353.939999999998 536.950004110599 A5.12 5.12 0 0 1 348.820005719095 542.069999999997 L337.61 542.07 Z" style="fill:rgb(0,0,0);" />
<path d=" M397.24 515.08 L397.24 521.59 L389.07 521.59 L389.07 530.12 L406.63 530.12 L406.62 515.929996630642 A17.55 17.55 0 1 0 371.52 515.930003369358 L371.52 534.070001531526 A17.55 17.55 0 0 0 406.011166907297 538.652506281403 L406.02 538.65 L396.338131381017 538.651375916237 A8.17 8.17 0 0 1 380.9 534.919997575912 L380.91 534.92 L380.9 515.08000128334 A8.17 8.17 0 0 1 397.24 515.079998716659 Z" style="fill:rgb(0,0,0);" />
<path d=" M417.89 499.4 L449.34 499.4 L449.34 507.93 L427.28 507.93 L427.28 521.59 L442.03 521.59 L442.03 530.12 L427.28 530.12 L427.28 542.07 L449.34 542.07 L449.34 550.6 L417.89 550.6 Z" style="fill:rgb(0,0,0);" />
<path d=" M459.58 499.4 L468.97 499.4 L468.97 521.59 L481.040015247196 521.590000000009 A13.65 13.65 0 0 1 494.689999999996 535.239989041078 L494.689999999996 536.950010958922 A13.65 13.65 0 0 1 481.040015247196 550.599999999991 L459.58 550.6 Z M468.97 530.12 L480.180005719095 530.120000000003 A5.12 5.12 0 0 1 485.299999999998 535.239995889401 L485.299999999998 536.950004110599 A5.12 5.12 0 0 1 480.180005719095 542.069999999997 L468.97 542.07 Z" style="fill:rgb(0,0,0);" />
<path d=" M494.69 499.4 L504.47 499.4 L506.61 506.71 L523.73 506.71 L525.87 499.4 L535.65 499.4 L520.66 550.6 L509.68 550.6 Z M509.11 515.25 L521.23 515.25 L515.17 535.93 Z" style="fill:rgb(0,0,0);" />
<path d=" M541.79 512.25 L541.79 514.03 L551.18 514.03 L551.18 512.249999212857 A4.1 4.1 0 0 1 554.033796924815 508.343981836269 L554.026928872913 508.347022032126 A17.48 17.48 0 0 1 564.653071127087 508.347022032126 L564.656206074792 508.343982793285 A4.1 4.1 0 0 1 565.142737207881 515.96586083814 L565.15 515.96 L550.533578472692 526.533009435083 A12.84 12.84 0 0 0 552.762325664801 550.605452498643 L552.757828844778 550.597263972608 A26.43 26.43 0 0 0 565.922183217647 550.59726087083 L565.927694953956 550.605447196681 A12.84 12.84 0 0 0 575.569999999999 538.170003809705 L566.18 538.169998554867 A3.45 3.45 0 0 1 563.589196128612 541.511299449702 L563.586167560593 541.51279991544 A17.05 17.05 0 0 1 555.093839068069 541.51280161996 L555.100811277608 541.51130135416 A3.45 3.45 0 0 1 554.501966669561 535.043238287408 L554.5 535.04 L569.111130806772 524.476087171457 A13.49 13.49 0 0 0 567.510319022796 499.398249772451 L567.507169763608 499.401284445262 A26.87 26.87 0 0 0 551.172819513628 499.40128786632 L551.179683444563 499.398248985247 A13.49 13.49 0 0 0 541.79 512.250002354449 Z" style="fill:rgb(0,0,0);" />
<path d=" M595.91 499.4 L605.3 499.4 L605.3 542.07 L618.16 542.07 L618.16 550.6 L583.05 550.6 L583.05 542.07 L595.91 542.07 Z" style="fill:rgb(0,0,0);" />
<path d=" M98.89 62.25 L98.89 64.03 L108.28 64.03 L108.28 62.2499992128565 A4.1 4.1 0 0 1 111.133796924815 58.3439818362688 L111.126928872913 58.3470220321255 A17.48 17.48 0 0 1 121.753071127087 58.3470220321255 L121.756206074792 58.3439827932852 A4.1 4.1 0 0 1 122.242737207881 65.9658608381401 L122.25 65.96 L107.633578472692 76.5330094350828 A12.84 12.84 0 0 0 109.862325664801 100.605452498643 L109.857828844779 100.597263972608 A26.43 26.43 0 0 0 123.022183217647 100.59726087083 L123.027694953955 100.605447196681 A12.84 12.84 0 0 0 132.669999999999 88.1700038097047 L123.28 88.1699985548674 A3.45 3.45 0 0 1 120.689196128612 91.5112994497018 L120.686167560594 91.5127999154402 A17.05 17.05 0 0 1 112.193839068069 91.5128016199598 L112.200811277608 91.5113013541604 A3.45 3.45 0 0 1 111.601966669561 85.0432382874084 L111.6 85.04 L126.211130806772 74.4760871714572 A13.49 13.49 0 0 0 124.610319022796 49.3982497724514 L124.607169763608 49.4012844452616 A26.87 26.87 0 0 0 108.272819513628 49.4012878663199 L108.279683444563 49.3982489852469 A13.49 13.49 0 0 0 98.8900000000002 62.2500023544492 Z" style="fill:rgb(0,0,0);" />
<path d=" M145.26 49.4 L154.65 49.4 L154.65 71.59 L166.720015247196 71.5900000000085 A13.65 13.65 0 0 1 180.369999999996 85.2399890410776 L180.369999999996 86.9500109589224 A13.65 13.65 0 0 1 166.720015247196 100.599999999991 L145.26 100.6 Z M154.65 80.12 L165.860005719095 80.1200000000032 A5.12 5.12 0 0 1 170.979999999998 85.2399958894006 L170.979999999998 86.9500041105994 A5.12 5.12 0 0 1 165.860005719095 92.0699999999968 L154.65 92.07 Z" style="fill:rgb(0,0,0);" />
<path d=" M189.59 49.4 L221.04 49.4 L221.04 57.93 L198.98 57.93 L198.98 71.59 L213.73 71.59 L213.73 80.12 L198.98 80.12 L198.98 92.07 L221.04 92.07 L221.04 100.6 L189.59 100.6 Z" style="fill:rgb(0,0,0);" />
<path d=" M231.28 49.4 L260.54 49.4 L260.54 57.93 L240.67 57.93 L240.67 100.6 L231.28 100.6 Z" style="fill:rgb(0,0,0);" />
<path d=" M269.24 49.4 L300.69 49.4 L300.69 57.93 L278.63 57.93 L278.63 71.59 L293.38 71.59 L293.38 80.12 L278.63 80.12 L278.63 92.07 L300.69 92.07 L300.69 100.6 L269.24 100.6 Z" style="fill:rgb(0,0,0);" />
<path d=" M310.93 49.4 L319.46 49.4 L319.46 83.41 L335.07 49.4 L346.04 49.4 L346.04 100.6 L337.51 100.6 L337.51 66.59 L321.9 100.6 L310.93 100.6 Z" style="fill:rgb(0,0,0);" />
<path d=" M358.84 49.4 L380.300015247196 49.4000000000085 A13.65 13.65 0 0 1 393.949999999996 63.0499890410776 L393.949999999996 86.9500109589224 A13.65 13.65 0 0 1 380.300015247196 100.599999999991 L358.84 100.6 Z M368.23 57.93 L379.440005719095 57.9300000000032 A5.12 5.12 0 0 1 384.559999999998 63.0499958894005 L384.559999999998 86.9500041105994 A5.12 5.12 0 0 1 379.440005719095 92.0699999999968 L368.23 92.07 Z" style="fill:rgb(0,0,0);" />
<path d=" M405.21 49.4 L436.66 49.4 L436.66 57.93 L414.6 57.93 L414.6 71.59 L429.35 71.59 L429.35 80.12 L414.6 80.12 L414.6 92.07 L436.66 92.07 L436.66 100.6 L405.21 100.6 Z" style="fill:rgb(0,0,0);" />
<path d=" M473.23 49.4 L482.62 49.4 L482.62 68.58 L497.73 49.4 L509.68 49.4 L488.84 75.85 L508.34 100.6 L496.39 100.6 L482.62 83.12 L482.62 100.6 L473.23 100.6 Z" style="fill:rgb(0,0,0);" />
<path d=" M518.9 49.4 L528.29 49.4 L528.29 100.6 L518.9 100.6 Z" style="fill:rgb(0,0,0);" />
<path d=" M541.09 49.4 L549.62 49.4 L549.62 83.41 L565.23 49.4 L576.2 49.4 L576.2 100.6 L567.67 100.6 L567.67 66.59 L552.06 100.6 L541.09 100.6 Z" style="fill:rgb(0,0,0);" />
<path d=" M589 49.4 L610.460015247196 49.4000000000085 A13.65 13.65 0 0 1 624.109999999996 63.0499890410776 L624.109999999996 86.9500109589224 A13.65 13.65 0 0 1 610.460015247196 100.599999999991 L589 100.6 Z M598.39 57.93 L609.600005719095 57.9300000000032 A5.12 5.12 0 0 1 614.719999999998 63.0499958894005 L614.719999999998 86.9500041105994 A5.12 5.12 0 0 1 609.600005719095 92.0699999999968 L598.39 92.07 Z" style="fill:rgb(0,0,0);" />
<path d=" M635.37 49.4 L666.82 49.4 L666.82 57.93 L644.76 57.93 L644.76 71.59 L659.51 71.59 L659.51 80.12 L644.76 80.12 L644.76 92.07 L666.82 92.07 L666.82 100.6 L635.37 100.6 Z" style="fill:rgb(0,0,0);" />
<path d=" M677.06 49.4 L686.45 49.4 L686.45 71.59 L691.39 71.59 L704.25 49.4 L715.09 49.4 L701.984220180723 72.0369064784243 A13.65 13.65 0 0 1 712.169999999996 85.2400109589224 L712.169999999996 86.9500109589224 A13.65 13.65 0 0 1 698.520015247196 100.599999999991 L677.06 100.6 Z M686.45 80.12 L697.660005719095 80.1200000000032 A5.12 5.12 0 0 1 702.779999999998 85.2399958894006 L702.779999999998 86.9500041105994 A5.12 5.12 0 0 1 697.660005719095 92.0699999999968 L686.45 92.07 Z" style="fill:rgb(0,0,0);" />
<path d=" M724.31 49.4 L755.76 49.4 L755.76 57.93 L733.7 57.93 L733.7 71.59 L748.45 71.59 L748.45 80.12 L733.7 80.12 L733.7 92.07 L755.76 92.07 L755.76 100.6 L724.31 100.6 Z" style="fill:rgb(0,0,0);" />
<path d=" M766 49.4 L774.53 49.4 L774.53 83.41 L790.14 49.4 L801.11 49.4 L801.11 100.6 L792.58 100.6 L792.58 66.59 L776.97 100.6 L766 100.6 Z" style="fill:rgb(0,0,0);" />
</g>
</svg>
