<?xml version="1.0" encoding="UTF-8"?>
<!DOCTYPE svg PUBLIC '-//W3C//DTD SVG 1.0//EN' 'http://www.w3.org/TR/2001/REC-SVG-20010904/DTD/svg10.dtd'>
<svg xmlns:xlink="http://www.w3.org/1999/xlink" xmlns="http://www.w3.org/2000/svg" width="1100.00000000098" height="300">
<!--Gegenereerd door de SIMaD-toepassing (http://www.dlw.be).-->
<g style="stroke:none;fill-rule:evenodd;" transform="matrix(1,0,0,-1,0,300)">
<path d=" M65 0 L1034.99999546214 1.56319401867222E-13 A65 65 0 0 1 1100 65.0000045378561 L1100 234.999987520896 A65 65 0 0 1 1035.00000453786 300 L65.0000045378561 300 A65 65 0 0 1 1.56319401867222E-13 234.999995462144 L1.56319401867222E-13 65.0000045378561 A65 65 0 0 1 65.0000045378561 1.56319401867222E-13 Z" style="fill:rgb(0,0,255);" />
<path d=" M61.53 111.43 L61.5300000000037 103.710018581997 A46.29 46.29 0 1 1 140.551976328809 136.441969473441 L140.54 136.44 L95.0920810486606 186.132074828625 A18 18 0 1 0 125.82 198.859999057522 L151.53 198.85999771135 A43.71 43.71 0 1 1 76.9123701464974 167.952355042177 L76.91 167.95 L122.365188012176 118.255184965839 A20.57 20.57 0 1 0 87.2500000000017 103.710008257327 L87.24 103.71 L87.24 111.43 Z" style="fill:rgb(255,255,255);" />
<path d=" M203.73 60 L203.73 216.86 L170.3 216.86 L170.3 240 L262.87 240 L262.87 216.86 L229.44 216.86 L229.44 60 Z" style="fill:rgb(255,255,255);" />
<path d=" M279.07 103.71 L279.070000000001 196.289991112958 A46.29 46.29 0 0 0 371.649999999999 196.290008887042 L371.64 196.29 L371.65 103.71 A46.29 46.29 0 0 0 279.07 103.71 Z M304.78 101.14 L304.79 198.859996409858 A20.57 20.57 0 0 0 345.93 198.860003590142 L345.93 101.14 A20.57 20.57 0 0 0 304.79 101.14 Z" style="fill:rgb(255,255,255);" />
<path d=" M404.04 60 L404.04 240 L455.470045953821 239.999999999974 A41.14 41.14 0 0 0 496.609999999987 198.860033029309 L496.609999999987 180.859966970691 A41.14 41.14 0 0 0 455.470045953821 139.720000000026 L455.47 139.71 L429.75 139.71 L429.75 60 Z M429.75 216.86 L452.900020106193 216.859999999989 A18 18 0 0 0 470.899999999994 198.860014451326 L470.899999999994 180.859985548674 A18 18 0 0 0 452.900020106193 162.860000000011 L429.75 162.86 Z" style="fill:rgb(255,255,255);" />
<path d=" M605.21 60 L605.21 198 L590.21 198 L590.21 213 L605.21 240 L630.92 240 L630.92 60 Z" style="fill:rgb(255,255,255);" />
<path d=" M663.15 111.43 L663.150000000001 103.710007271216 A46.29 46.29 0 0 1 755.729999999999 103.709992728784 L755.72 103.71 L755.729999999988 137.140031293404 A42.69 42.69 0 0 1 692.466561979272 174.545477513424 L692.46 174.54 L692.46 216.86 L752.12 216.86 L752.12 240 L666.75 240 L666.75 150 L693.382558443374 149.996261923885 A20.57 20.57 0 0 0 730.009999999996 137.140012565498 L730.01 101.139996409858 A20.57 20.57 0 0 0 688.87 101.140003590142 L688.86 101.14 L688.86 111.43 Z" style="fill:rgb(255,255,255);" />
<path d=" M785.24 103.71 L785.240000000001 196.289991112958 A46.29 46.29 0 0 0 877.819999999999 196.290008887042 L877.81 196.29 L877.82 103.71 A46.29 46.29 0 0 0 785.24 103.71 Z M810.95 101.14 L810.96 198.859996409858 A20.57 20.57 0 0 0 852.1 198.860003590142 L852.1 101.14 A20.57 20.57 0 0 0 810.96 101.14 Z" style="fill:rgb(255,255,255);" />
<path d=" M907.33 60 L930.47 60 L930.47 155.139997306957 A15.43 15.43 0 0 0 961.33 155.140002693043 L961.33 60 L984.47 60 L984.47 155.139997306957 A15.43 15.43 0 0 0 1015.33 155.140002693043 L1015.33 60 L1038.47 60 L1038.46999999999 159.16001953547 A31.98 31.98 0 0 1 979.493873677657 176.304374108963 L979.486128117698 176.304371281936 A31.98 31.98 0 0 1 930.477740183656 182.358724486009 L930.47 182.36 L930.47 188.57 L907.33 188.57 Z" style="fill:rgb(255,255,255);" />
</g>
</svg>
