<?xml version="1.0" encoding="UTF-8"?>
<!DOCTYPE svg PUBLIC '-//W3C//DTD SVG 1.0//EN' 'http://www.w3.org/TR/2001/REC-SVG-20010904/DTD/svg10.dtd'>
<svg xmlns:xlink="http://www.w3.org/1999/xlink" xmlns="http://www.w3.org/2000/svg" width="1100.00000000098" height="300">
<!--Gegenereerd door de SIMaD-toepassing (http://www.dlw.be).-->
<g style="stroke:none;fill-rule:evenodd;" transform="matrix(1,0,0,-1,0,300)">
<path d=" M65 0 L1034.99999546214 1.56319401867222E-13 A65 65 0 0 1 1100 65.0000045378561 L1100 234.999987520896 A65 65 0 0 1 1035.00000453786 300 L65.0000045378561 300 A65 65 0 0 1 1.56319401867222E-13 234.999995462144 L1.56319401867222E-13 65.0000045378561 A65 65 0 0 1 65.0000045378561 1.56319401867222E-13 Z" style="fill:rgb(0,0,255);" />
<path d=" M240.93 25 L240.93 216.67 L220.1 216.67 L220.1 237.5 L240.93 275 L276.65 275 L276.65 25 Z" style="fill:rgb(255,255,255);" />
<path d=" M323.15 85.71 L323.150000000001 214.289988779278 A64.29 64.29 0 0 0 451.729999999999 214.290011220722 L451.72 214.29 L451.73 85.71 A64.29 64.29 0 0 0 323.15 85.71 Z M358.86 82.1399999999999 L358.87 217.859995013594 A28.57 28.57 0 0 0 416.01 217.860004986406 L416.01 82.1399999999999 A28.57 28.57 0 0 0 358.87 82.1399999999999 Z" style="fill:rgb(255,255,255);" />
<path d=" M558.86 25 L558.86 275 L591 275 L591 144.29 L631.94 203.57 L671 203.57 L612.43 118.75 L671 25 L633.1 25 L591 92.3899999999999 L591 25 Z" style="fill:rgb(255,255,255);" />
<path d=" M697.76 25 L729.9 25 L729.9 157.139995885735 A21.43 21.43 0 0 0 772.76 157.140004114265 L772.76 25 L804.9 25 L804.9 157.139995885735 A21.43 21.43 0 0 0 847.76 157.140004114265 L847.76 25 L879.9 25 L879.899999999992 162.720027134634 A44.42 44.42 0 0 1 797.982566252706 186.533417696065 L797.977436241029 186.533413769343 A44.42 44.42 0 0 1 729.905122544028 194.942868720092 L729.9 194.94 L729.9 203.57 L697.76 203.57 Z" style="fill:rgb(255,255,255);" />
<path d=" M93.75 275 L150 181.25 L112.5 181.25 L112.5 25 L75 25 L75 181.25 L37.5 181.25 Z" style="fill:rgb(255,255,255);" />
<path d=" M1006.25 275 L950 181.25 L987.5 181.25 L987.5 25 L1025 25 L1025 181.25 L1062.5 181.25 Z" style="fill:rgb(255,255,255);" />
</g>
</svg>
