<?xml version="1.0" encoding="UTF-8"?>
<!DOCTYPE svg PUBLIC '-//W3C//DTD SVG 1.0//EN' 'http://www.w3.org/TR/2001/REC-SVG-20010904/DTD/svg10.dtd'>
<svg xmlns:xlink="http://www.w3.org/1999/xlink" xmlns="http://www.w3.org/2000/svg" width="700" height="200">
<!--Gegenereerd door de SIMaD-toepassing (http://www.dlw.be).-->
<g style="stroke:none;fill-rule:evenodd;" transform="matrix(1,0,0,-1,0,200)">
<path d=" M45 0 L655 0 A45 45 0 0 1 700 45 L700 155 A45 45 0 0 1 655 200 L45 200 A45 45 0 0 1 0 155 L0 45 A45 45 0 0 1 45 0 Z" style="fill:rgb(0,0,255);" />
<path d=" M152.94 153.96 L152.94 132.700003231128 A20.57 20.57 0 0 1 194.08 132.699996768872 L194.08 153.96 A20.57 20.57 0 0 1 152.94 153.96 Z M163.94 154.96 L163.94 131.70000167028 A9.57 9.57 0 0 1 183.08 131.69999832972 L183.08 154.96 A9.57 9.57 0 0 1 163.94 154.96 Z" style="fill:rgb(255,255,255);" />
<path d=" M207.29 113.33 L218.29 113.33 L218.29 139.33 L232.430017872172 139.33000000001 A16 16 0 0 1 248.429999999995 155.329987154377 L248.429999999995 157.330012845623 A16 16 0 0 1 232.430017872172 173.32999999999 L207.29 173.33 Z M218.29 149.33 L231.430006702064 149.330000000004 A6 6 0 0 1 237.429999999998 155.329995182891 L237.429999999998 157.330004817109 A6 6 0 0 1 231.430006702064 163.329999999996 L218.29 163.33 Z" style="fill:rgb(255,255,255);" />
<path d=" M288.17 131.7 L288.17 139.33 L278.6 139.33 L278.6 149.33 L299.17 149.33 L299.17 132.699996050844 A20.57 20.57 0 1 0 258.03 132.700003949156 L258.03 153.960001795071 A20.57 20.57 0 0 0 298.45639904747 159.331062917862 L298.46 159.33 L287.113588410812 159.330779378016 A9.57 9.57 0 0 1 269.03 154.959997160524 L269.03 131.70000167028 A9.57 9.57 0 0 1 288.17 131.69999832972 Z" style="fill:rgb(255,255,255);" />
<path d=" M312.37 113.33 L349.23 113.33 L349.23 123.33 L323.37 123.33 L323.37 139.33 L340.66 139.33 L340.66 149.33 L323.37 149.33 L323.37 163.33 L349.23 163.33 L349.23 173.33 L312.37 173.33 Z" style="fill:rgb(255,255,255);" />
<path d=" M361.23 113.33 L372.23 113.33 L372.23 139.33 L386.370017872172 139.33000000001 A16 16 0 0 1 402.369999999995 155.329987154377 L402.369999999995 157.330012845623 A16 16 0 0 1 386.370017872172 173.32999999999 L361.23 173.33 Z M372.23 149.33 L385.370006702064 149.330000000004 A6 6 0 0 1 391.369999999998 155.329995182891 L391.369999999998 157.330004817109 A6 6 0 0 1 385.370006702064 163.329999999996 L372.23 163.33 Z" style="fill:rgb(255,255,255);" />
<path d=" M402.37 113.33 L413.83 113.33 L416.34 121.9 L436.4 121.9 L438.91 113.33 L450.37 113.33 L432.8 173.33 L419.94 173.33 Z M419.27 131.9 L433.47 131.9 L426.37 156.14 Z" style="fill:rgb(255,255,255);" />
<path d=" M457.57 128.39 L457.57 130.47 L468.57 130.47 L468.57 128.389999078466 A4.8 4.8 0 0 1 471.911030546124 123.817100686363 L471.912035046109 123.809432576559 A20.49 20.49 0 0 1 484.367964953891 123.809432576559 L484.36897296561 123.817101806773 A4.8 4.8 0 0 1 484.938570389715 132.740276103188 L484.94 132.74 L467.809591589877 145.120069470249 A15.05 15.05 0 0 0 470.42194713826 173.335822438051 L470.424689277762 173.333906086697 A30.98 30.98 0 0 0 485.855324861245 173.333902450939 L485.858077029364 173.335816223524 A15.05 15.05 0 0 0 497.159999999999 158.760004465425 L497.15 158.76 L486.16 158.75999830354 A4.05 4.05 0 0 1 483.118621542284 162.682395006172 L483.115860871593 162.68048341997 A19.98 19.98 0 0 1 473.164146896189 162.680485417407 L473.161387151974 162.68239724184 A4.05 4.05 0 0 1 472.458395655571 155.08945364174 L472.46 155.09 L489.587380781839 142.709657324613 A15.8 15.8 0 0 0 487.712449263171 113.337542357653 L487.711424482919 113.329867777495 A31.49 31.49 0 0 0 468.568562950656 113.329871786766 L468.567553626693 113.337541435649 A15.8 15.8 0 0 0 457.57 128.39000275762 Z" style="fill:rgb(255,255,255);" />
<path d=" M520.98 113.33 L531.98 113.33 L531.98 163.33 L547.05 163.33 L547.05 173.33 L505.91 173.33 L505.91 163.33 L520.98 163.33 Z" style="fill:rgb(255,255,255);" />
<path d=" M168.61 26.67 L179.61 26.67 L179.61 52.67 L196.9 52.67 L196.9 62.67 L179.61 62.67 L179.61 76.67 L205.47 76.67 L205.47 86.67 L168.61 86.67 Z" style="fill:rgb(255,255,255);" />
<path d=" M215.07 26.67 L226.07 26.67 L226.07 86.67 L215.07 86.67 Z" style="fill:rgb(255,255,255);" />
<path d=" M241.07 26.67 L277.93 26.67 L277.93 36.67 L252.07 36.67 L252.07 52.67 L269.36 52.67 L269.36 62.67 L252.07 62.67 L252.07 76.67 L277.93 76.67 L277.93 86.67 L241.07 86.67 Z" style="fill:rgb(255,255,255);" />
<path d=" M300.8 26.67 L311.8 26.67 L311.8 76.67 L326.87 76.67 L326.87 86.67 L285.73 86.67 L285.73 76.67 L300.8 76.67 Z" style="fill:rgb(255,255,255);" />
<path d=" M334.07 41.73 L334.07 43.81 L345.07 43.81 L345.07 41.7299990784662 A4.8 4.8 0 0 1 348.411030546124 37.1571006863634 L348.412035046109 37.1494325765591 A20.49 20.49 0 0 1 360.867964953891 37.1494325765591 L360.86897296561 37.1571018067729 A4.8 4.8 0 0 1 361.438570389715 46.0802761031884 L361.44 46.08 L344.309591589877 58.460069470249 A15.05 15.05 0 0 0 346.92194713826 86.6758224380514 L346.924689277762 86.6739060866967 A30.98 30.98 0 0 0 362.355324861245 86.6739024509388 L362.358077029364 86.6758162235244 A15.05 15.05 0 0 0 373.659999999999 72.1000044654249 L373.65 72.1 L362.66 72.09999830354 A4.05 4.05 0 0 1 359.618621542284 76.0223950061717 L359.615860871593 76.0204834199704 A19.98 19.98 0 0 1 349.664146896189 76.0204854174074 L349.661387151974 76.0223972418405 A4.05 4.05 0 0 1 348.958395655571 68.4294536417403 L348.96 68.43 L366.087380781839 56.0496573246126 A15.8 15.8 0 0 0 364.212449263171 26.6775423576525 L364.211424482919 26.6698677774949 A31.49 31.49 0 0 0 345.068562950656 26.6698717867665 L345.067553626693 26.6775414356487 A15.8 15.8 0 0 0 334.07 41.7300027576202 Z" style="fill:rgb(255,255,255);" />
<path d=" M388.41 26.67 L425.27 26.67 L425.27 36.67 L399.41 36.67 L399.41 52.67 L416.7 52.67 L416.7 62.67 L399.41 62.67 L399.41 76.67 L425.27 76.67 L425.27 86.67 L388.41 86.67 Z" style="fill:rgb(255,255,255);" />
<path d=" M437.27 26.67 L448.27 26.67 L448.27 52.67 L454.06 52.67 L469.13 26.67 L481.84 26.67 L466.47062438766 53.1938464215962 A16 16 0 0 1 478.409999999995 68.6700128456233 L478.409999999995 70.6700128456233 A16 16 0 0 1 462.410017872172 86.66999999999 L437.27 86.67 Z M448.27 62.67 L461.410006702064 62.6700000000038 A6 6 0 0 1 467.409999999998 68.6699951828913 L467.409999999998 70.6700048171087 A6 6 0 0 1 461.410006702064 76.6699999999963 L448.27 76.67 Z" style="fill:rgb(255,255,255);" />
<path d=" M490.24 41.73 L490.24 43.81 L501.24 43.81 L501.24 41.7299990784662 A4.8 4.8 0 0 1 504.581030546124 37.1571006863634 L504.582035046109 37.1494325765591 A20.49 20.49 0 0 1 517.037964953891 37.1494325765591 L517.03897296561 37.1571018067729 A4.8 4.8 0 0 1 517.608570389715 46.0802761031884 L517.61 46.08 L500.479591589877 58.460069470249 A15.05 15.05 0 0 0 503.09194713826 86.6758224380514 L503.094689277762 86.6739060866967 A30.98 30.98 0 0 0 518.525324861245 86.6739024509388 L518.528077029364 86.6758162235244 A15.05 15.05 0 0 0 529.829999999999 72.1000044654249 L529.82 72.1 L518.83 72.09999830354 A4.05 4.05 0 0 1 515.788621542284 76.0223950061717 L515.785860871593 76.0204834199704 A19.98 19.98 0 0 1 505.834146896189 76.0204854174074 L505.831387151974 76.0223972418405 A4.05 4.05 0 0 1 505.128395655571 68.4294536417403 L505.13 68.43 L522.257380781839 56.0496573246126 A15.8 15.8 0 0 0 520.382449263171 26.6775423576525 L520.381424482919 26.6698677774949 A31.49 31.49 0 0 0 501.238562950656 26.6698717867665 L501.237553626693 26.6775414356487 A15.8 15.8 0 0 0 490.24 41.7300027576202 Z" style="fill:rgb(255,255,255);" />
</g>
</svg>
