<?xml version="1.0" encoding="UTF-8"?>
<!DOCTYPE svg PUBLIC '-//W3C//DTD SVG 1.0//EN' 'http://www.w3.org/TR/2001/REC-SVG-20010904/DTD/svg10.dtd'>
<svg xmlns:xlink="http://www.w3.org/1999/xlink" xmlns="http://www.w3.org/2000/svg" width="700" height="200">
<!--Gegenereerd door de SIMaD-toepassing (http://www.dlw.be).-->
<g style="stroke:none;fill-rule:evenodd;" transform="matrix(1,0,0,-1,0,200)">
<path d=" M45 0 L655 0 A45 45 0 0 1 700 45 L700 155 A45 45 0 0 1 655 200 L45 200 A45 45 0 0 1 0 155 L0 45 A45 45 0 0 1 45 0 Z" style="fill:rgb(0,0,255);" />
<path d=" M18.05 135 L33.05 65 L45.05 65 L60.05 135 L49.82 135 L39.05 86 L28.28 135 Z" style="fill:rgb(255,255,255);" />
<path d=" M69.15 65 L69.15 135 L102.15 135 L102.15 126 L79.15 126 L79.15 104.5 L94.15 104.5 L94.15 95.5 L79.15 95.5 L79.15 74 L102.15 74 L102.15 65 Z" style="fill:rgb(255,255,255);" />
<path d=" M112.65 65 L112.65 135 L132.650017872172 134.99999999999 A16 16 0 0 0 148.649999999995 119.000012845623 L148.649999999996 112.000011170107 A16 16 0 0 0 135.65869461118 96.2854285220164 L135.66 96.29 L150.05 65 L139.04 65 L124.78 96 L122.65 96 L122.65 65 Z M122.65 126 L131.650007819075 125.999999999996 A7 7 0 0 0 138.649999999998 119.00000561996 L138.649999999998 111.99999438004 A7 7 0 0 0 131.650007819075 105.000000000004 L122.65 105 Z" style="fill:rgb(255,255,255);" />
<path d=" M159.85 65 L159.85 135 L169.85 135 L169.85 109.92 L184.31 135 L195.85 135 L176.39 101.17 L197.25 65 L185.71 65 L169.85 92.5 L169.85 65 Z" style="fill:rgb(255,255,255);" />
<path d=" M206.35 65 L206.35 135 L239.35 135 L239.35 126 L216.35 126 L216.35 104.5 L231.35 104.5 L231.35 95.5 L216.35 95.5 L216.35 74 L239.35 74 L239.35 65 Z" style="fill:rgb(255,255,255);" />
<path d=" M249.85 65 L249.85 135 L282.85 135 L282.85 126 L259.85 126 L259.85 104.5 L274.85 104.5 L274.85 95.5 L259.85 95.5 L259.85 74 L282.85 74 L282.85 65 Z" style="fill:rgb(255,255,255);" />
<path d=" M293.35 65 L293.35 135 L313.350017872172 134.99999999999 A16 16 0 0 0 329.349999999995 119.000012845623 L329.349999999996 112.000011170107 A16 16 0 0 0 316.35869461118 96.2854285220164 L316.36 96.29 L330.75 65 L319.74 65 L305.48 96 L303.35 96 L303.35 65 Z M303.35 126 L312.350007819075 125.999999999996 A7 7 0 0 0 319.349999999998 119.00000561996 L319.349999999998 111.99999438004 A7 7 0 0 0 312.350007819075 105.000000000004 L303.35 105 Z" style="fill:rgb(255,255,255);" />
<path d=" M339.15 85 L339.150000000001 82.0000072256631 A18 18 0 1 1 369.877923394223 94.7279207284929 L369.88 94.73 L352.200253741146 114.050251322243 A7 7 0 1 0 364.15 118.999999633481 L374.15 118.999999109882 A17 17 0 1 1 345.129187657068 106.97918178259 L345.13 106.98 L362.806854841877 87.656853657108 A8 8 0 1 0 349.150000000001 82.0000032114058 L349.15 85 Z" style="fill:rgb(255,255,255);" />
<path d=" M387.75 65 L387.75 135 L407.750017872172 134.99999999999 A16 16 0 0 0 423.749999999995 119.000012845623 L423.749999999995 111.999987154377 A16 16 0 0 0 407.750017872172 96.00000000001 L397.75 96 L397.75 65 Z M397.75 126 L406.750007819075 125.999999999996 A7 7 0 0 0 413.749999999998 119.00000561996 L413.749999999998 111.99999438004 A7 7 0 0 0 406.750007819075 105.000000000004 L397.75 105 Z" style="fill:rgb(255,255,255);" />
<path d=" M433.55 65 L433.55 135 L443.55 135 L443.55 74 L463.55 74 L463.55 65 Z" style="fill:rgb(255,255,255);" />
<path d=" M471.25 65 L481.49 65 L483.26 73 L501.24 73 L503.01 65 L513.25 65 L497.75 135 L486.75 135 Z M485.26 82 L499.24 82 L492.25 113.58 Z" style="fill:rgb(255,255,255);" />
<path d=" M526.25 65 L526.25 126 L513.25 126 L513.25 135 L549.25 135 L549.25 126 L536.25 126 L536.25 65 Z" style="fill:rgb(255,255,255);" />
<path d=" M558.35 65 L558.35 135 L591.35 135 L591.35 126 L568.35 126 L568.35 104.5 L583.35 104.5 L583.35 95.5 L568.35 95.5 L568.35 74 L591.35 74 L591.35 65 Z" style="fill:rgb(255,255,255);" />
<path d=" M599.05 65 L609.29 65 L611.06 73 L629.04 73 L630.81 65 L641.05 65 L625.55 135 L614.55 135 Z M613.06 82 L627.04 82 L620.05 113.58 Z" style="fill:rgb(255,255,255);" />
<path d=" M655.95 135 L655.95 81.0000013962634 A8 8 0 0 1 671.95 80.9999986037366 L671.95 135 L681.95 135 L681.95 81.9999968584073 A18 18 0 0 0 645.95 82.0000031415927 L645.95 135 Z" style="fill:rgb(255,255,255);" />
</g>
</svg>
