<?xml version="1.0" encoding="UTF-8"?>
<!DOCTYPE svg PUBLIC '-//W3C//DTD SVG 1.0//EN' 'http://www.w3.org/TR/2001/REC-SVG-20010904/DTD/svg10.dtd'>
<svg xmlns:xlink="http://www.w3.org/1999/xlink" xmlns="http://www.w3.org/2000/svg" width="700" height="200">
<!--Gegenereerd door de SIMaD-toepassing (http://www.dlw.be).-->
<g style="stroke:none;fill-rule:evenodd;" transform="matrix(1,0,0,-1,0,200)">
<path d=" M45 0 L655 0 A45 45 0 0 1 700 45 L700 155 A45 45 0 0 1 655 200 L45 200 A45 45 0 0 1 0 155 L0 45 A45 45 0 0 1 45 0 Z" style="fill:rgb(0,0,255);" />
<path d=" M73.74 40 L73.74 160 L130.31 160 L130.31 144.57 L90.88 144.57 L90.88 107.71 L116.6 107.71 L116.6 92.29 L90.88 92.29 L90.88 40 Z" style="fill:rgb(255,255,255);" />
<path d=" M144.71 40 L161.85 40 L161.85 160 L144.71 160 Z" style="fill:rgb(255,255,255);" />
<path d=" M185.86 40 L185.86 160 L242.43 160 L242.43 144.57 L203 144.57 L203 107.71 L228.72 107.71 L228.72 92.29 L203 92.29 L203 55.43 L242.43 55.43 L242.43 40 Z" style="fill:rgb(255,255,255);" />
<path d=" M277.92 40 L277.92 144.57 L255.63 144.57 L255.63 160 L317.34 160 L317.34 144.57 L295.06 144.57 L295.06 40 Z" style="fill:rgb(255,255,255);" />
<path d=" M328.14 74.29 L328.140000000002 69.140012387998 A30.86 30.86 0 1 1 380.82131755254 90.961312982294 L380.82 90.96 L350.514720699107 124.084716552416 A12 12 0 1 0 371 132.569999371681 L388.14 132.569998474233 A29.14 29.14 0 1 1 338.394913430998 111.964903361451 L338.39 111.96 L368.694434985266 78.8344329548688 A13.71 13.71 0 1 0 345.290000000001 69.1400055035467 L345.28 69.14 L345.28 74.29 Z" style="fill:rgb(255,255,255);" />
<path d=" M411.46 40 L411.46 160 L468.03 160 L468.03 144.57 L428.6 144.57 L428.6 107.71 L454.32 107.71 L454.32 92.29 L428.6 92.29 L428.6 55.43 L468.03 55.43 L468.03 40 Z" style="fill:rgb(255,255,255);" />
<path d=" M486.03 40 L486.03 160 L520.320030639604 159.999999999983 A27.43 27.43 0 0 0 547.749999999991 132.570022022215 L547.74 132.57 L547.749999999993 120.570019149753 A27.43 27.43 0 0 0 525.478030824042 93.6293315224319 L525.47 93.63 L550.14 40 L531.27 40 L506.83 93.14 L503.17 93.14 L503.17 40 Z M503.17 144.57 L518.600013404129 144.569999999993 A12 12 0 0 0 530.599999999996 132.570009634217 L530.599999999996 120.569990365783 A12 12 0 0 0 518.600013404129 108.570000000007 L503.17 108.57 Z" style="fill:rgb(255,255,255);" />
<path d=" M564.54 74.29 L564.540000000002 69.140012387998 A30.86 30.86 0 1 1 617.22131755254 90.961312982294 L617.22 90.96 L586.914720699107 124.084716552416 A12 12 0 1 0 607.4 132.569999371681 L624.54 132.569998474233 A29.14 29.14 0 1 1 574.794913430998 111.964903361451 L574.79 111.96 L605.094434985266 78.8344329548688 A13.71 13.71 0 1 0 581.690000000001 69.1400055035467 L581.68 69.14 L581.68 74.29 Z" style="fill:rgb(255,255,255);" />
</g>
</svg>
