<?xml version="1.0" encoding="UTF-8"?>
<!DOCTYPE svg PUBLIC '-//W3C//DTD SVG 1.0//EN' 'http://www.w3.org/TR/2001/REC-SVG-20010904/DTD/svg10.dtd'>
<svg xmlns:xlink="http://www.w3.org/1999/xlink" xmlns="http://www.w3.org/2000/svg" width="1100" height="300">
<!--Gegenereerd door de SIMaD-toepassing (http://www.dlw.be).-->
<g style="stroke:none;fill-rule:evenodd;" transform="matrix(1,0,0,-1,0,300)">
<path d=" M65 0 L1035 0 A65 65 0 0 1 1100 65 L1100 235 A65 65 0 0 1 1035 300 L65 300 A65 65 0 0 1 0 235 L0 65 A65 65 0 0 1 65 0 Z" style="fill:rgb(0,0,255);" />
<path d=" M130.69 90 L130.69 105.43 L171.81 194.57 L132.4 194.57 L132.4 210 L190.69 210 L190.69 194.57 L149.57 105.43 L192.4 105.43 L192.4 90 Z" style="fill:rgb(255,255,255);" />
<path d=" M206.8 90 L224.36 90 L227.39 103.71 L258.21 103.71 L261.24 90 L278.8 90 L252.23 210 L233.37 210 Z M230.81 119.14 L254.79 119.14 L242.8 173.29 Z" style="fill:rgb(255,255,255);" />
<path d=" M351.31 119.14 L334.17 119.14 L334.17 117.429997367869 A13.71 13.71 0 1 0 306.75 117.430002632131 L306.74 117.43 L306.75 182.569997367869 A13.71 13.71 0 0 0 334.17 182.570002632131 L334.17 180.86 L351.32 180.860005386086 A30.86 30.86 0 0 1 289.6 180.859994613914 L289.6 119.140005386086 A30.86 30.86 0 0 1 351.32 119.139994613914 Z" style="fill:rgb(255,255,255);" />
<path d=" M372.91 90 L372.91 210 L390.05 210 L390.05 158.57 L417.48 158.57 L417.48 210 L434.62 210 L434.62 90 L417.48 90 L417.48 143.14 L390.05 143.14 L390.05 90 Z" style="fill:rgb(255,255,255);" />
<path d=" M472.52 90 L472.52 194.57 L450.23 194.57 L450.23 210 L511.94 210 L511.94 194.57 L489.66 194.57 L489.66 90 Z" style="fill:rgb(255,255,255);" />
<path d=" M527.54 90 L527.54 210 L584.11 210 L584.11 194.57 L544.68 194.57 L544.68 157.71 L570.4 157.71 L570.4 142.29 L544.68 142.29 L544.68 105.43 L584.11 105.43 L584.11 90 Z" style="fill:rgb(255,255,255);" />
<path d=" M646.51 90 L646.51 210 L680.800030639604 209.999999999983 A27.43 27.43 0 0 0 708.229999999991 182.570022022216 L708.22 182.57 L708.219999999999 169.710005445427 A24 24 0 0 0 698.724865593602 150.589098501599 L698.73 150.59 L698.748871023725 150.586128278506 A24 24 0 0 0 709.93999999999 130.290022200588 L709.939999999991 117.429977977784 A27.43 27.43 0 0 0 682.510030639604 90.0000000000169 Z M663.65 105.43 L680.800013404129 105.430000000007 A12 12 0 0 1 692.799999999996 117.429990365782 L692.799999999996 130.290009634217 A12 12 0 0 1 680.800013404129 142.289999999992 L663.65 142.29 Z M663.65 194.57 L679.080013404129 194.569999999993 A12 12 0 0 0 691.079999999996 182.570009634218 L691.079999999996 169.709990365783 A12 12 0 0 0 679.080013404129 157.710000000008 L663.65 157.71 Z" style="fill:rgb(255,255,255);" />
<path d=" M731.54 90 L731.54 210 L788.11 210 L788.11 194.57 L748.68 194.57 L748.68 157.71 L774.4 157.71 L774.4 142.29 L748.68 142.29 L748.68 105.43 L788.11 105.43 L788.11 90 Z" style="fill:rgb(255,255,255);" />
<path d=" M806.11 90 L806.11 210 L840.400030639604 209.999999999983 A27.43 27.43 0 0 0 867.829999999991 182.570022022216 L867.82 182.57 L867.829999999993 170.570019149753 A27.43 27.43 0 0 0 845.558030824042 143.629331522432 L845.55 143.63 L870.22 90 L851.35 90 L826.91 143.14 L823.25 143.14 L823.25 90 Z M823.25 194.57 L838.680013404129 194.569999999993 A12 12 0 0 0 850.679999999996 182.570009634218 L850.679999999996 170.569990365783 A12 12 0 0 0 838.680013404129 158.570000000008 L823.25 158.57 Z" style="fill:rgb(255,255,255);" />
<path d=" M887.03 90 L887.03 210 L907.6 210 L928.17 126.77 L948.74 210 L969.32 210 L969.32 90 L952.17 90 L952.17 159.36 L935.03 90 L919.6 90 L902.46 159.36 L902.46 90 Z" style="fill:rgb(255,255,255);" />
</g>
</svg>
