<?xml version="1.0" encoding="UTF-8"?>
<!DOCTYPE svg PUBLIC '-//W3C//DTD SVG 1.0//EN' 'http://www.w3.org/TR/2001/REC-SVG-20010904/DTD/svg10.dtd'>
<svg xmlns:xlink="http://www.w3.org/1999/xlink" xmlns="http://www.w3.org/2000/svg" width="1100" height="300">
<!--Gegenereerd door de SIMaD-toepassing (http://www.dlw.be).-->
<g style="stroke:none;fill-rule:evenodd;" transform="matrix(1,0,0,-1,0,300)">
<path d=" M65 0 L1035 0 A65 65 0 0 1 1100 65 L1100 235 A65 65 0 0 1 1035 300 L65 300 A65 65 0 0 1 0 235 L0 65 A65 65 0 0 1 65 0 Z" style="fill:rgb(0,0,255);" />
<path d=" M104.23 87.73 L104.23 96.4299999999999 L150.06 96.4299999999999 L150.07 87.7299961583558 A20.01 20.01 0 0 1 163.997921089156 68.6667259862776 L163.991665782641 68.6690658399632 A85.37 85.37 0 0 1 215.888334217359 68.6690658399632 L215.892093550386 68.6667306569845 A20.01 20.01 0 0 1 218.266602812124 105.865213505167 L218.27 105.87 L146.916046296968 157.473571766771 A62.69 62.69 0 0 0 157.797678810466 275.004837783484 L157.796192546181 275.003362124272 A129.07 129.07 0 0 0 222.083866360262 275.003346976845 L222.082421858526 275.004811897192 A62.69 62.69 0 0 0 269.159999999997 214.290018600497 L223.329999999998 214.2899929377 A16.86 16.86 0 0 1 210.668854124174 230.618785136804 L210.667772789924 230.607644396604 A83.23 83.23 0 0 1 169.21225956806 230.607652717258 L169.211182069701 230.61879444381 A16.86 16.86 0 0 1 166.284654506897 199.009651456726 L166.29 199.01 L237.639463574942 147.410343976313 A65.85 65.85 0 0 0 229.825271137964 24.995548370343 L229.821441930891 24.9978612602448 A131.21 131.21 0 0 0 150.05850570834 24.9978779657551 L150.064740906186 24.995544527688 A65.85 65.85 0 0 0 104.230000000001 87.7300114929931 Z" style="fill:rgb(255,255,255);" />
<path d=" M330.65 25 L372.32 25 L372.32 177.44 L416.96 25 L460.38 25 L502.08 167.4 L502.08 25 L547.91 25 L547.91 275 L494.34 275 L439.28 86.99 L384.22 275 L330.65 275 Z" style="fill:rgb(255,255,255);" />
<path d=" M602.92 194.29 L602.920000000001 105.710013463295 A85.71 85.71 0 0 1 774.339999999999 105.709986536705 L774.35 105.71 L774.34 194.29 A85.71 85.71 0 0 1 602.92 194.29 Z M648.75 198.45 L648.750000000001 101.550006264336 A39.88 39.88 0 0 1 728.509999999999 101.549993735664 L728.52 101.55 L728.51 198.45 A39.88 39.88 0 0 1 648.75 198.45 Z" style="fill:rgb(255,255,255);" />
<path d=" M949.95 101.55 L949.95 133.33 L910.06 133.33 L910.06 175 L995.78 175 L995.769999999998 105.709983544861 A85.71 85.71 0 1 0 824.350000000002 105.710016455139 L824.35 194.290007479608 A85.71 85.71 0 0 0 992.796604878885 216.669864010205 L992.81 216.67 L945.53773310587 216.663864325525 A39.88 39.88 0 0 1 870.180000000002 198.449988167366 L870.180000000001 101.550006264336 A39.88 39.88 0 0 1 949.94 101.549993735664 Z" style="fill:rgb(255,255,255);" />
</g>
</svg>
