<?xml version="1.0" encoding="UTF-8"?>
<!DOCTYPE svg PUBLIC '-//W3C//DTD SVG 1.0//EN' 'http://www.w3.org/TR/2001/REC-SVG-20010904/DTD/svg10.dtd'>
<svg xmlns:xlink="http://www.w3.org/1999/xlink" xmlns="http://www.w3.org/2000/svg" width="700" height="200">
<!--Gegenereerd door de SIMaD-toepassing (http://www.dlw.be).-->
<g style="stroke:none;fill-rule:evenodd;" transform="matrix(1,0,0,-1,0,200)">
<path d=" M45 0 L655 0 A45 45 0 0 1 700 45 L700 155 A45 45 0 0 1 655 200 L45 200 A45 45 0 0 1 0 155 L0 45 A45 45 0 0 1 45 0 Z" style="fill:rgb(0,0,255);" />
<path d=" M97.83 40 L97.83 160 L132.120030639604 159.999999999983 A27.43 27.43 0 0 0 159.549999999991 132.570022022216 L159.54 132.57 L159.549999999991 120.569977977785 A27.43 27.43 0 0 0 132.120030639604 93.1400000000173 L114.97 93.1399999999999 L114.97 40 Z M114.97 144.57 L130.400013404129 144.569999999993 A12 12 0 0 0 142.399999999996 132.570009634218 L142.399999999996 120.569990365783 A12 12 0 0 0 130.400013404129 108.570000000008 L114.97 108.57 Z" style="fill:rgb(255,255,255);" />
<path d=" M176.34 40 L176.34 160 L193.48 160 L193.48 55.4299999999998 L227.77 55.4299999999998 L227.77 40 Z" style="fill:rgb(255,255,255);" />
<path d=" M240.97 40 L258.53 40 L261.56 53.71 L292.38 53.71 L295.41 40 L312.97 40 L286.4 160 L267.54 160 Z M264.98 69.1399999999999 L288.96 69.1399999999999 L276.97 123.29 Z" style="fill:rgb(255,255,255);" />
<path d=" M335.26 40 L335.26 144.57 L312.97 144.57 L312.97 160 L374.68 160 L374.68 144.57 L352.4 144.57 L352.4 40 Z" style="fill:rgb(255,255,255);" />
<path d=" M390.29 40 L390.29 160 L446.86 160 L446.86 144.57 L407.43 144.57 L407.43 107.71 L433.15 107.71 L433.15 92.29 L407.43 92.29 L407.43 55.4299999999998 L446.86 55.4299999999998 L446.86 40 Z" style="fill:rgb(255,255,255);" />
<path d=" M460.06 40 L477.62 40 L480.65 53.71 L511.47 53.71 L514.5 40 L532.06 40 L505.49 160 L486.63 160 Z M484.07 69.1399999999999 L508.05 69.1399999999999 L496.06 123.29 Z" style="fill:rgb(255,255,255);" />
<path d=" M557.6 160 L557.61 67.4300021535616 A13.71 13.71 0 0 1 585.03 67.4299978464381 L585.03 160 L602.17 160 L602.18 69.1399946139138 A30.86 30.86 0 0 0 540.460000000001 69.140005386086 L540.46 160 Z" style="fill:rgb(255,255,255);" />
</g>
</svg>
