<svg xmlns:xlink="http://www.w3.org/1999/xlink" xmlns="http://www.w3.org/2000/svg" width="1100px" height="700px"  viewBox="-0.000001341104507446289 -0.00006103515625 1100 700.0000610351562"><rect id="svgEditorBackground" x="-0.0000013411046211331268" y="-0.00006103515625" width="1100" height="700.0000610351562" style="fill: none; stroke: none;"/>
<!--Gegenereerd door de SIMaD-toepassing (http://www.dlw.be).-->
<g style="stroke:none;fill-rule:evenodd;" transform="matrix(1,0,0,-1,0,700.000000000001)">
<path d=" M45 0 L1054.99999685841 1.06581410364015E-13 A45 45 0 0 1 1100 45.0000031415927 L1100 654.99999136062 A45 45 0 0 1 1055.00000314159 700 L45.0000031415927 700 A45 45 0 0 1 1.06581410364015E-13 654.999996858407 L1.06581410364015E-13 45.0000031415927 A45 45 0 0 1 45.0000031415927 1.06581410364015E-13 Z" style="fill:rgb(0,0,255);"/>

<path d=" M45 30 L1054.9999989528 30 A15 15 0 0 1 1070 45.0000010471975 L1070 654.999997120207 A15 15 0 0 1 1055.0000010472 670 L45.0000010471975 670 A15 15 0 0 1 30 654.999998952802 L30 45.0000010471975 A15 15 0 0 1 45.0000010471975 30 Z" style="fill:rgb(0,0,255);"/>
<path d=" M324.43 167.6 L324.43 255.71 L304.43 255.71 L304.425160193702 249.446146263837 A28.22 28.22 0 0 1 255.860000000001 229.890007387979 L255.860000000001 198.219992612021 A28.22 28.22 0 0 1 304.425160193702 178.663853736163 L304.43 178.66 L304.43 167.599999251777 A14.29 14.29 0 0 0 277.764496356402 160.455001079966 L277.77 160.46 L260.443987707285 150.455002073173 A34.29 34.29 0 0 1 324.43 167.599998803053 Z M304.43 201.43 L304.43 226.690002494075 A14.29 14.29 0 0 1 275.85 226.689997505925 L275.86 226.69 L275.85 201.430002494075 A14.29 14.29 0 0 1 304.43 201.429997505925 Z" style="fill:rgb(255,255,255);"/>
<path d=" M353.23 170 L373.23 170 L373.230000000006 218.569984990168 A20 20 0 0 0 393.230014660766 238.569999999995 L403.23 238.57 L403.23 255.71 L393.230016126842 255.709999999995 A28 28 0 0 1 373.230000479779 247.305918431937 L373.23 247.31 L373.23 255.71 L353.23 255.71 Z" style="fill:rgb(255,255,255);"/>
<path d=" M416.43 223.83 L416.42 201.890005386261 A34.29 34.29 0 0 1 485 201.889994613739 L485 223.83 A34.29 34.29 0 0 1 416.42 223.83 Z M436.43 226.69 L436.42 199.030002494075 A14.29 14.29 0 0 1 465 199.029997505925 L465 226.69 A14.29 14.29 0 0 1 436.42 226.69 Z" style="fill:rgb(255,255,255);"/>
<path d=" M505.4 223.14 L505.400000000005 201.889981447325 A34.29 34.29 0 0 1 572.608396264522 192.288787192658 L572.6 192.29 L552.288046474209 192.285126017954 A14.29 14.29 0 0 0 525.400000000005 199.030011472747 L525.4 206 L573.97 206 L573.98 223.14 A34.29 34.29 0 0 1 505.4 223.14 Z M525.4 226.69 L525.4 223.14 L553.97 223.14 L553.98 226.69 A14.29 14.29 0 0 1 525.4 226.69 Z" style="fill:rgb(255,255,255);"/>
<path d=" M615.63 170 L641.34 170 L666.2 255.71 L645.38 255.71 L628.49 197.47 L611.6 255.71 L590.77 255.71 Z" style="fill:rgb(255,255,255);"/>
<path d=" M683 223.14 L683.000000000005 201.889981447325 A34.29 34.29 0 0 1 750.208396264522 192.288787192658 L750.2 192.29 L729.888046474209 192.285126017954 A14.29 14.29 0 0 0 703.000000000005 199.030011472747 L703 206 L751.57 206 L751.58 223.14 A34.29 34.29 0 0 1 683 223.14 Z M703 226.69 L703 223.14 L731.57 223.14 L731.58 226.69 A14.29 14.29 0 0 1 703 226.69 Z" style="fill:rgb(255,255,255);"/>
<path d=" M775.57 170 L795.57 170 L795.57 226.689997505925 A14.29 14.29 0 0 0 824.15 226.690002494075 L824.14 226.69 L824.14 170 L844.14 170 L844.139999999995 229.890017238617 A28.22 28.22 0 0 1 795.574832979916 249.446139162035 L795.57 249.45 L795.57 255.71 L775.57 255.71 Z" style="fill:rgb(255,255,255);"/>
<path d=" M135.43 80 L135.43 620 L150.43 620 L150.43 80 Z" style="fill:rgb(255,255,255);"/>
<path d=" M90.43 80 L90.43 620 L105.43 620 L105.43 80 Z" style="fill:rgb(255,255,255);"/>
<path d=" M180.43 80 L180.43 620 L195.43 620 L195.43 80 Z" style="fill:rgb(255,255,255);"/>
<path d=" M904.57 80 L904.57 620 L919.57 620 L919.57 80 Z" style="fill:rgb(255,255,255);"/>
<path d=" M994.57 80 L994.57 620 L1009.57 620 L1009.57 80 Z" style="fill:rgb(255,255,255);"/>
<path d=" M949.57 80 L949.57 620 L964.57 620 L964.57 80 Z" style="fill:rgb(255,255,255);"/>
<path d=" M283.63 410 L352.2 410 L352.2 430 L305.63 430 L305.63 530 L283.63 530 Z" style="fill:rgb(255,255,255);"/>
<path d=" M390.04 410 L402.089995462144 410.000000000001 A20 20 0 0 1 416.375718584623 416.002920143082 L416.37 416 L416.37 410 L436.37 410 L436.379999999997 463.830014363362 A34.29 34.29 0 0 1 368.360075727975 470.002220718954 L368.36 470 L388.189893401945 470.005288307629 A14.29 14.29 0 0 0 413.449922157933 475.359271512977 L413.439560748244 475.35666991932 A10 10 0 0 0 405.490001570796 459.29 L390.039995699509 459.28 A24.64 24.64 0 0 1 390.040004300491 410 Z M392.9 427.14 L406.370011170107 427.140000000006 A10 10 0 0 1 416.369999999997 437.139991971485 L416.37332072651 449.815489510078 A17.14 17.14 0 0 0 402.090020342161 442.150000000012 L402.09 442.14 L392.899998821903 442.14 A7.5 7.5 0 1 1 392.900001178097 427.14 Z" style="fill:rgb(255,255,255);"/>
<path d=" M462.77 410 L482.77 410 L482.77 466.689997505924 A14.29 14.29 0 0 0 511.35 466.690002494075 L511.34 466.69 L511.34 410 L531.34 410 L531.339999999995 469.890017238617 A28.22 28.22 0 0 1 482.774832979916 489.446139162035 L482.77 489.45 L482.77 495.71 L462.77 495.71 Z" style="fill:rgb(255,255,255);"/>
<path d=" M621.51 407.6 L621.51 495.71 L601.51 495.71 L601.515160193702 489.446146263837 A28.22 28.22 0 0 1 552.950000000001 469.890007387979 L552.94 469.89 L552.950000000001 438.219992612021 A28.22 28.22 0 0 1 601.515160193702 418.663853736163 L601.51 418.66 L601.52 407.599999251777 A14.29 14.29 0 0 0 574.854496356402 400.455001079966 L574.86 400.46 L557.533987707285 390.455002073173 A34.29 34.29 0 0 1 621.52 407.599998803053 Z M601.51 441.43 L601.52 466.690002494075 A14.29 14.29 0 0 1 572.94 466.689997505924 L572.94 441.430002494076 A14.29 14.29 0 0 1 601.52 441.429997505925 Z" style="fill:rgb(255,255,255);"/>
<path d=" M665.51 434.79 L645.51 434.790001303237 A24.89 24.89 0 0 1 658.916952595193 412.707162267975 L658.919179082729 412.704565525687 A45.26 45.26 0 0 1 700.680833532472 412.704572085592 L700.683070529895 412.707174293006 A24.89 24.89 0 0 1 695.64202869155 458.831887744877 L695.64 458.83 L672.157434974488 465.403083017615 A5.96 5.96 0 0 0 671.815278352355 476.814151068985 L671.812071499492 476.82373506511 A25.26 25.26 0 0 0 687.787930173492 476.823734507447 L687.784717700302 476.814152384767 A5.96 5.96 0 0 0 691.859999999998 471.159995631092 L711.859999999986 471.159973267839 A25.96 25.96 0 0 1 694.109281048805 495.787815669721 L694.112514535962 495.797390787726 A45.26 45.26 0 0 1 665.48751993639 495.797402278535 L665.490738293839 495.787822117267 A25.96 25.96 0 0 1 666.981077283341 446.084560272498 L666.98 446.08 L690.46562900516 439.513376252354 A4.89 4.89 0 0 0 691.456015667687 430.451510250427 L691.453773011789 430.448905100605 A25.26 25.26 0 0 0 668.146230508537 430.448903270035 L668.143988648407 430.45150800606 A4.89 4.89 0 0 0 665.51 434.790001280199 Z" style="fill:rgb(255,255,255);"/>
<path d=" M734.09 441.86 L816.37 441.86 L816.37 463.86 L734.09 463.86 Z" style="fill:rgb(255,255,255);"/>
</g>
</svg>