<?xml version="1.0" encoding="UTF-8"?>
<!DOCTYPE svg PUBLIC '-//W3C//DTD SVG 1.0//EN' 'http://www.w3.org/TR/2001/REC-SVG-20010904/DTD/svg10.dtd'>
<svg xmlns:xlink="http://www.w3.org/1999/xlink" xmlns="http://www.w3.org/2000/svg" width="1100" height="300">
<!--Gegenereerd door de SIMaD-toepassing (http://www.dlw.be).-->
<g style="stroke:none;fill-rule:evenodd;" transform="matrix(1,0,0,-1,0,300)">
<path d=" M65 0 L1035 0 A65 65 0 0 1 1100 65 L1100 235 A65 65 0 0 1 1035 300 L65 300 A65 65 0 0 1 0 235 L0 65 A65 65 0 0 1 65 0 Z" style="fill:rgb(0,0,255);" />
<path d=" M46.43 90 L46.43 210 L80.7200306396041 209.999999999983 A27.43 27.43 0 0 0 108.149999999991 182.570022022215 L108.14 182.57 L108.139999999999 169.710005445427 A24 24 0 0 0 98.6448655936016 150.589098501599 L98.65 150.59 L98.6688710237252 150.586128278506 A24 24 0 0 0 109.85999999999 130.290022200588 L109.859999999991 117.429977977785 A27.43 27.43 0 0 0 82.4300306396041 90.0000000000171 Z M63.57 105.43 L80.7200134041287 105.430000000007 A12 12 0 0 1 92.7199999999961 117.429990365782 L92.7199999999961 130.290009634217 A12 12 0 0 1 80.7200134041287 142.289999999992 L63.57 142.29 Z M63.57 194.57 L79.0000134041287 194.569999999992 A12 12 0 0 0 90.9999999999961 182.570009634217 L90.9999999999961 169.709990365783 A12 12 0 0 0 79.0000134041287 157.710000000008 L63.57 157.71 Z" style="fill:rgb(255,255,255);" />
<path d=" M131.46 90 L148.6 90 L148.6 210 L131.46 210 Z" style="fill:rgb(255,255,255);" />
<path d=" M180.14 119.14 L163 119.140005386086 A30.86 30.86 0 0 1 224.72 119.139994613914 L224.71 119.14 L224.71 210 L207.57 210 L207.57 117.429997607154 A13.71 13.71 0 0 0 180.15 117.430002392846 L180.14 117.43 Z" style="fill:rgb(255,255,255);" />
<path d=" M287.11 90 L287.11 210 L305.11 210 L333.4 132.81 L333.4 210 L348.82 210 L348.82 90 L330.82 90 L302.54 167.19 L302.54 90 Z" style="fill:rgb(255,255,255);" />
<path d=" M365.63 90 L383.19 90 L386.22 103.71 L417.04 103.71 L420.07 90 L437.63 90 L411.06 210 L392.2 210 Z M389.64 119.14 L413.62 119.14 L401.63 173.29 Z" style="fill:rgb(255,255,255);" />
<path d=" M459.92 90 L459.92 194.57 L437.63 194.57 L437.63 210 L499.34 210 L499.34 194.57 L477.06 194.57 L477.06 90 Z" style="fill:rgb(255,255,255);" />
<path d=" M561.74 210 L582.31 90 L599.45 90 L612.31 165 L625.17 90 L642.31 90 L662.88 210 L647.23 210 L634.49 135.69 L621.75 210 L604.61 210 L591.87 135.69 L579.13 210 Z" style="fill:rgb(255,255,255);" />
<path d=" M678.49 90 L678.49 210 L735.06 210 L735.06 194.57 L695.63 194.57 L695.63 157.71 L721.35 157.71 L721.35 142.29 L695.63 142.29 L695.63 105.43 L735.06 105.43 L735.06 90 Z" style="fill:rgb(255,255,255);" />
<path d=" M792.83 143.14 L792.83 117.429997367869 A13.71 13.71 0 1 0 765.41 117.430002632131 L765.4 117.43 L765.41 182.569997367869 A13.71 13.71 0 0 0 792.83 182.570002632131 L792.83 180.86 L809.98 180.860005386086 A30.86 30.86 0 0 1 748.26 180.859994613914 L748.26 119.140005386086 A30.86 30.86 0 0 1 809.98 119.139994613914 L809.97 119.14 L809.97 158.57 L779.12 158.57 L779.12 143.14 Z" style="fill:rgb(255,255,255);" />
<path d=" M831.57 90 L865.860030639604 90.0000000000171 A27.43 27.43 0 0 1 893.289999999991 117.429977977785 L893.28 117.43 L893.289999999991 182.570022022215 A27.43 27.43 0 0 1 865.860030639604 209.999999999983 L831.57 210 Z M848.71 105.43 L864.140013404129 105.430000000007 A12 12 0 0 1 876.139999999996 117.429990365782 L876.139999999996 182.570009634217 A12 12 0 0 1 864.140013404129 194.569999999992 L848.71 194.57 Z" style="fill:rgb(255,255,255);" />
<path d=" M914.89 90 L914.89 210 L971.46 210 L971.46 194.57 L932.03 194.57 L932.03 157.71 L957.75 157.71 L957.75 142.29 L932.03 142.29 L932.03 105.43 L971.46 105.43 L971.46 90 Z" style="fill:rgb(255,255,255);" />
<path d=" M989.46 90 L989.46 210 L1006.6 210 L1006.6 167 L1031.4 210 L1051.17 210 L1017.81 152.01 L1053.57 90 L1033.79 90 L1006.6 137.14 L1006.6 90 Z" style="fill:rgb(255,255,255);" />
</g>
</svg>
