<?xml version="1.0" encoding="UTF-8"?>
<!DOCTYPE svg PUBLIC '-//W3C//DTD SVG 1.0//EN' 'http://www.w3.org/TR/2001/REC-SVG-20010904/DTD/svg10.dtd'>
<svg xmlns:xlink="http://www.w3.org/1999/xlink" xmlns="http://www.w3.org/2000/svg" width="1100" height="300">
<!--Gegenereerd door de SIMaD-toepassing (http://www.dlw.be).-->
<g style="stroke:none;fill-rule:evenodd;" transform="matrix(1,0,0,-1,0,300)">
<path d=" M65 0 L1035 0 A65 65 0 0 1 1100 65 L1100 235 A65 65 0 0 1 1035 300 L65 300 A65 65 0 0 1 0 235 L0 65 A65 65 0 0 1 65 0 Z" style="fill:rgb(0,0,255);" />
<path d=" M91.77 60 L91.77 240 L143.200045953821 239.999999999974 A41.14 41.14 0 0 0 184.339999999987 198.860033029309 L184.339999999999 179.570008168141 A36 36 0 0 0 170.097298390402 150.888647752399 L170.1 150.89 L170.123306535588 150.874192417759 A36 36 0 0 0 186.909999999985 120.430033300882 L186.909999999987 101.139966970691 A41.14 41.14 0 0 0 145.770045953821 60.0000000000255 Z M117.48 83.1399999999999 L143.200020106193 83.1400000000111 A18 18 0 0 1 161.199999999994 101.139985548674 L161.199999999994 120.430014451326 A18 18 0 0 1 143.200020106193 138.429999999989 L117.48 138.43 Z M117.48 216.86 L140.630020106193 216.859999999989 A18 18 0 0 0 158.629999999994 198.860014451326 L158.629999999994 179.569985548674 A18 18 0 0 0 140.630020106193 161.570000000011 L117.48 161.57 Z" style="fill:rgb(255,255,255);" />
<path d=" M219.31 60 L245.02 60 L245.02 240 L219.31 240 Z" style="fill:rgb(255,255,255);" />
<path d=" M292.34 103.71 L266.630000000001 103.710007271216 A46.29 46.29 0 0 1 359.209999999999 103.709992728784 L359.2 103.71 L359.2 240 L333.49 240 L333.49 101.139996409858 A20.57 20.57 0 0 0 292.35 101.140003590142 L292.34 101.14 Z" style="fill:rgb(255,255,255);" />
<path d=" M452.8 60 L452.8 240 L504.230045953821 239.999999999974 A41.14 41.14 0 0 0 545.369999999987 198.860033029309 L545.36999999999 180.860028721138 A41.14 41.14 0 0 0 511.966106018997 140.453908087235 L511.97 140.45 L548.97 60 L520.67 60 L484 139.71 L478.51 139.71 L478.51 60 Z M478.51 216.86 L501.660020106193 216.859999999989 A18 18 0 0 0 519.659999999994 198.860014451326 L519.659999999994 180.859985548674 A18 18 0 0 0 501.660020106193 162.860000000011 L478.51 162.86 Z" style="fill:rgb(255,255,255);" />
<path d=" M574.17 60 L574.17 240 L659.03 240 L659.03 216.86 L599.88 216.86 L599.88 161.57 L638.46 161.57 L638.46 138.43 L599.88 138.43 L599.88 83.1399999999999 L659.03 83.1399999999999 L659.03 60 Z" style="fill:rgb(255,255,255);" />
<path d=" M745.69 139.71 L745.69 101.139996409858 A20.57 20.57 0 0 0 704.55 101.140003590142 L704.54 101.14 L704.55 198.859996409858 A20.57 20.57 0 0 0 745.69 198.860003590142 L745.69 196.29 L771.409999999999 196.290007271216 A46.29 46.29 0 0 1 678.830000000001 196.289992728784 L678.830000000001 103.710007271216 A46.29 46.29 0 0 1 771.409999999999 103.709992728784 L771.4 103.71 L771.4 162.86 L725.12 162.86 L725.12 139.71 Z" style="fill:rgb(255,255,255);" />
<path d=" M803.8 60 L803.8 240 L888.66 240 L888.66 216.86 L829.51 216.86 L829.51 161.57 L868.09 161.57 L868.09 138.43 L829.51 138.43 L829.51 83.1399999999999 L888.66 83.1399999999999 L888.66 60 Z" style="fill:rgb(255,255,255);" />
<path d=" M915.66 60 L915.66 240 L942.66 240 L985.09 124.21 L985.09 240 L1008.23 240 L1008.23 60 L981.23 60 L938.8 175.79 L938.8 60 Z" style="fill:rgb(255,255,255);" />
</g>
</svg>
