<?xml version="1.0" encoding="UTF-8"?>
<!DOCTYPE svg PUBLIC '-//W3C//DTD SVG 1.0//EN' 'http://www.w3.org/TR/2001/REC-SVG-20010904/DTD/svg10.dtd'>
<svg xmlns:xlink="http://www.w3.org/1999/xlink" xmlns="http://www.w3.org/2000/svg" width="900.000000000001" height="599.999999999999">
<!--Gegenereerd door de SIMaD-toepassing (http://www.dlw.be).-->
<g style="stroke:none;fill-rule:evenodd;" transform="matrix(1,0,0,-1,0,599.999999999999)">
<path d=" M0 535 L1.56319401867222E-13 65.0000045378561 A65 65 0 0 1 65.0000045378561 1.56319401867222E-13 L834.999995462144 1.56319401867222E-13 A65 65 0 0 1 900 65.0000045378561 L899.999999999999 534.999987520896 A65 65 0 0 1 835.000004537856 600 L65.0000045378561 600 A65 65 0 0 1 1.56319401867222E-13 534.999995462144 Z" style="fill:rgb(0,0,255);" />
<path d=" M654.33 395.92 L676.84 408.908914787717 A19.1 19.1 0 1 1 657.74 441.991085212283 L657.74 441.99 L635.233793163944 428.993518573624 A15.24 15.24 0 1 1 625.641310458638 410.589142379211 L625.64 410.59 L516.77 347.74 L486.14 355.17 L464.25 319.87 L460.08 322.28 L479.71 358.88 L457.96 381.69 L457.952477250946 507.407435639377 A15.24 15.24 0 1 1 469.094893223461 524.916957444741 L469.1 524.91 L469.1 550.9 A19.1 19.1 0 0 1 430.9 550.9 L430.905106776539 524.916957444741 A15.24 15.24 0 1 1 442.047522749054 507.407435639377 L442.04 507.41 L442.04 381.69 L420.29 358.88 L439.92 322.28 L435.75 319.87 L413.86 355.17 L383.23 347.74 L274.358689541362 410.589142379211 A15.24 15.24 0 1 1 264.766206836056 428.993518573624 L264.77 428.99 L242.260000288696 441.991085045604 A19.1 19.1 0 0 1 223.159999711304 408.908914954396 L223.16 408.91 L245.671313612595 395.923438871117 A15.24 15.24 0 1 1 266.406212290416 396.818293260167 L266.4 396.81 L375.28 333.95 L384.16 303.71 L425.67 302.41 L425.67 297.59 L384.16 296.29 L375.28 266.05 L266.406212290416 203.181706739833 A15.24 15.24 0 1 1 245.671313612595 204.076561128883 L245.67 204.08 L223.16 191.091085212283 A19.1 19.1 0 1 1 242.26 158.008914787717 L242.26 158.01 L264.766206836056 171.006481426376 A15.24 15.24 0 1 1 274.358689541362 189.410857620789 L274.36 189.41 L383.23 252.26 L413.86 244.83 L435.75 280.13 L439.92 277.72 L420.29 241.12 L442.04 218.31 L442.047522749054 92.5925643606227 A15.24 15.24 0 1 1 430.905106776539 75.0830425552585 L430.9 75.0899999999999 L430.9 49.0999999999999 A19.1 19.1 0 0 1 469.1 49.0999999999999 L469.094893223461 75.0830425552585 A15.24 15.24 0 1 1 457.952477250946 92.5925643606226 L457.96 92.5899999999999 L457.96 218.31 L479.71 241.12 L460.08 277.72 L464.25 280.13 L486.14 244.83 L516.77 252.26 L625.641310458638 189.410857620789 A15.24 15.24 0 1 1 635.233793163944 171.006481426376 L635.23 171.01 L657.740000288696 158.008914621038 A19.1 19.1 0 0 1 676.839999711304 191.091085378962 L676.84 191.09 L654.328686387405 204.076561128883 A15.24 15.24 0 1 1 633.593787709584 203.181706739833 L633.6 203.19 L524.72 266.05 L515.84 296.29 L474.33 297.59 L474.33 302.41 L515.84 303.71 L524.72 333.95 L633.593787709584 396.818293260167 A15.24 15.24 0 1 1 654.328686387405 395.923438871117 Z" style="fill:rgb(255,255,255);" />
</g>
</svg>
