<?xml version="1.0" encoding="UTF-8"?>
<!DOCTYPE svg PUBLIC '-//W3C//DTD SVG 1.0//EN' 'http://www.w3.org/TR/2001/REC-SVG-20010904/DTD/svg10.dtd'>
<svg xmlns:xlink="http://www.w3.org/1999/xlink" xmlns="http://www.w3.org/2000/svg" width="1100" height="300">
<!--Gegenereerd door de SIMaD-toepassing (http://www.dlw.be).-->
<g style="stroke:none;fill-rule:evenodd;" transform="matrix(1,0,0,-1,0,300)">
<path d=" M65 0 L1035 0 A65 65 0 0 1 1100 65 L1100 235 A65 65 0 0 1 1035 300 L65 300 A65 65 0 0 1 0 235 L0 65 A65 65 0 0 1 65 0 Z" style="fill:rgb(0,0,255);" />
<path d=" M173.27 25 L214.94 25 L214.94 177.44 L259.58 25 L303 25 L344.7 167.4 L344.7 25 L390.53 25 L390.53 275 L336.96 275 L281.9 86.99 L226.84 275 L173.27 275 Z" style="fill:rgb(255,255,255);" />
<path d=" M453.04 25 L498.87 25 L498.87 275 L453.04 275 Z" style="fill:rgb(255,255,255);" />
<path d=" M553.87 87.73 L553.87 96.43 L599.7 96.43 L599.71 87.7299961583558 A20.01 20.01 0 0 1 613.637921089156 68.6667259862776 L613.631665782641 68.6690658399632 A85.37 85.37 0 0 1 665.528334217359 68.6690658399632 L665.532093550386 68.6667306569845 A20.01 20.01 0 0 1 667.906602812124 105.865213505167 L667.91 105.87 L596.556046296968 157.473571766771 A62.69 62.69 0 0 0 607.437678810466 275.004837783485 L607.436192546181 275.003362124272 A129.07 129.07 0 0 0 671.723866360262 275.003346976845 L671.722421858526 275.004811897192 A62.69 62.69 0 0 0 718.799999999997 214.290018600497 L672.969999999999 214.2899929377 A16.86 16.86 0 0 1 660.308854124174 230.618785136804 L660.307772789924 230.607644396604 A83.23 83.23 0 0 1 618.85225956806 230.607652717258 L618.851182069701 230.61879444381 A16.86 16.86 0 0 1 615.924654506897 199.009651456726 L615.93 199.01 L687.279463574942 147.410343976313 A65.85 65.85 0 0 0 679.465271137964 24.995548370343 L679.461441930891 24.9978612602448 A131.21 131.21 0 0 0 599.69850570834 24.9978779657551 L599.704740906186 24.995544527688 A65.85 65.85 0 0 0 553.870000000001 87.7300114929931 Z" style="fill:rgb(255,255,255);" />
<path d=" M818.1 25 L863.93 25 L863.93 233.33 L926.73 233.33 L926.73 275 L755.3 275 L755.3 233.33 L818.1 233.33 Z" style="fill:rgb(255,255,255);" />
</g>
</svg>
