<?xml version="1.0" encoding="UTF-8"?>
<!DOCTYPE svg PUBLIC '-//W3C//DTD SVG 1.0//EN' 'http://www.w3.org/TR/2001/REC-SVG-20010904/DTD/svg10.dtd'>
<svg xmlns:xlink="http://www.w3.org/1999/xlink" xmlns="http://www.w3.org/2000/svg" width="700" height="200">
<!--Gegenereerd door de SIMaD-toepassing (http://www.dlw.be).-->
<g style="stroke:none;fill-rule:evenodd;" transform="matrix(1,0,0,-1,0,200)">
<path d=" M45 0 L655 0 A45 45 0 0 1 700 45 L700 155 A45 45 0 0 1 655 200 L45 200 A45 45 0 0 1 0 155 L0 45 A45 45 0 0 1 45 0 Z" style="fill:rgb(0,0,255);" />
<path d=" M196.91 113.33 L196.91 173.33 L225.2 173.33 L225.2 165.62 L205.48 165.62 L205.48 147.19 L218.34 147.19 L218.34 139.47 L205.48 139.47 L205.48 113.33 Z" style="fill:rgb(255,255,255);" />
<path d=" M232.4 113.33 L240.97 113.33 L240.97 173.33 L232.4 173.33 Z" style="fill:rgb(255,255,255);" />
<path d=" M252.97 113.33 L252.97 173.33 L281.26 173.33 L281.26 165.62 L261.54 165.62 L261.54 147.19 L274.4 147.19 L274.4 139.47 L261.54 139.47 L261.54 121.04 L281.26 121.04 L281.26 113.33 Z" style="fill:rgb(255,255,255);" />
<path d=" M299 113.33 L299 165.62 L287.86 165.62 L287.86 173.33 L318.72 173.33 L318.72 165.62 L307.57 165.62 L307.57 113.33 Z" style="fill:rgb(255,255,255);" />
<path d=" M324.11 130.47 L324.110000000001 127.900006193999 A15.43 15.43 0 1 1 350.45065877627 138.810656491147 L350.45 138.81 L335.297360349554 155.377358276208 A6 6 0 1 0 345.54 159.619999685841 L354.11 159.619999237116 A14.57 14.57 0 1 1 329.237456715499 149.317451680725 L329.24 149.31 L344.390753026909 132.75075201097 A6.86 6.86 0 1 0 332.680000000001 127.900002753781 L332.68 130.47 Z" style="fill:rgb(255,255,255);" />
<path d=" M365.77 113.33 L365.77 173.33 L382.910015314217 173.329999999991 A13.71 13.71 0 0 0 396.619999999996 159.620011007093 L396.63 159.62 L396.619999999996 153.619988992906 A13.71 13.71 0 0 0 382.910015314217 139.910000000008 L382.91 139.9 L374.34 139.9 L374.34 113.33 Z M374.34 165.62 L382.060006702064 165.619999999996 A6 6 0 0 0 388.059999999998 159.620004817109 L388.059999999998 153.619995182891 A6 6 0 0 0 382.060006702064 147.620000000004 L374.34 147.62 Z" style="fill:rgb(255,255,255);" />
<path d=" M396.63 113.33 L405.41 113.33 L406.93 120.19 L422.33 120.19 L423.85 113.33 L432.63 113.33 L419.34 173.33 L409.92 173.33 Z M408.64 127.9 L420.62 127.9 L414.63 154.97 Z" style="fill:rgb(255,255,255);" />
<path d=" M441.03 113.33 L458.170015314217 113.330000000009 A13.71 13.71 0 0 1 471.879999999996 127.039988992906 L471.89 127.04 L471.879999999996 159.620011007093 A13.71 13.71 0 0 1 458.170015314217 173.329999999991 L441.03 173.33 Z M449.6 121.04 L457.320006702064 121.040000000004 A6 6 0 0 1 463.319999999998 127.039995182891 L463.319999999998 159.620004817109 A6 6 0 0 1 457.320006702064 165.619999999996 L449.6 165.62 Z" style="fill:rgb(255,255,255);" />
<path d=" M75.84 26.6700000000001 L84.41 26.6700000000001 L84.41 86.6700000000001 L75.84 86.6700000000001 Z" style="fill:rgb(255,255,255);" />
<path d=" M96.41 26.6700000000001 L96.41 86.6700000000001 L105.41 86.6700000000001 L119.55 48.0700000000002 L119.55 86.6700000000001 L127.27 86.6700000000001 L127.27 26.6700000000001 L118.27 26.6700000000001 L104.12 65.27 L104.12 26.6700000000001 Z" style="fill:rgb(255,255,255);" />
<path d=" M158.47 43.8099999999999 L158.470000000001 41.2400061939992 A15.43 15.43 0 1 1 184.81065877627 52.1506564911472 L184.81 52.1500000000001 L169.657360349554 68.7173582762082 A6 6 0 1 0 179.9 72.9599996858408 L188.47 72.9599992371166 A14.57 14.57 0 1 1 163.597456715499 62.6574516807255 L163.6 62.6500000000001 L178.750753026909 46.0907520109703 A6.86 6.86 0 1 0 167.040000000001 41.2400027537807 L167.04 43.8099999999999 Z" style="fill:rgb(255,255,255);" />
<path d=" M200.13 26.6700000000001 L200.13 86.6700000000001 L208.7 86.6700000000001 L208.7 34.3800000000001 L225.84 34.3800000000001 L225.84 26.6700000000001 Z" style="fill:rgb(255,255,255);" />
<path d=" M233.64 26.6700000000001 L233.64 86.6700000000001 L261.93 86.6700000000001 L261.93 78.96 L242.21 78.96 L242.21 60.5300000000002 L255.07 60.5300000000002 L255.07 52.8099999999999 L242.21 52.8099999999999 L242.21 34.3800000000001 L261.93 34.3800000000001 L261.93 26.6700000000001 Z" style="fill:rgb(255,255,255);" />
<path d=" M299.39 41.2400000000002 L290.82 41.2400000000002 L290.82 40.3799986829747 A6.86 6.86 0 1 0 277.1 40.3800013170256 L277.1 72.9599986829746 A6.86 6.86 0 0 0 290.82 72.9600013170255 L290.82 72.0999999999999 L299.39 72.1000026930429 A15.43 15.43 0 0 1 268.53 72.0999973069569 L268.53 41.2400026930433 A15.43 15.43 0 0 1 299.39 41.2399973069572 Z" style="fill:rgb(255,255,255);" />
<path d=" M310.19 26.6700000000001 L310.19 86.6700000000001 L318.76 86.6700000000001 L318.76 60.96 L332.48 60.96 L332.48 86.6700000000001 L341.05 86.6700000000001 L341.05 26.6700000000001 L332.48 26.6700000000001 L332.48 53.2400000000002 L318.76 53.2400000000002 L318.76 26.6700000000001 Z" style="fill:rgb(255,255,255);" />
<path d=" M359.98 26.6700000000001 L359.98 78.96 L348.84 78.96 L348.84 86.6700000000001 L379.7 86.6700000000001 L379.7 78.96 L368.55 78.96 L368.55 26.6700000000001 Z" style="fill:rgb(255,255,255);" />
<path d=" M387.5 26.6700000000001 L387.5 86.6700000000001 L415.79 86.6700000000001 L415.79 78.96 L396.07 78.96 L396.07 60.5300000000002 L408.93 60.5300000000002 L408.93 52.8099999999999 L396.07 52.8099999999999 L396.07 34.3800000000001 L415.79 34.3800000000001 L415.79 26.6700000000001 Z" style="fill:rgb(255,255,255);" />
<path d=" M446.99 43.8099999999999 L446.990000000001 41.2400061939992 A15.43 15.43 0 1 1 473.33065877627 52.1506564911472 L473.33 52.1500000000001 L458.177360349554 68.7173582762082 A6 6 0 1 0 468.42 72.9599996858408 L476.99 72.9599992371166 A14.57 14.57 0 1 1 452.117456715499 62.6574516807255 L452.12 62.6500000000001 L467.270753026909 46.0907520109703 A6.86 6.86 0 1 0 455.560000000001 41.2400027537807 L455.56 43.8099999999999 Z" style="fill:rgb(255,255,255);" />
<path d=" M494.38 26.6700000000001 L494.38 78.96 L483.24 78.96 L483.24 86.6700000000001 L514.1 86.6700000000001 L514.1 78.96 L502.95 78.96 L502.95 26.6700000000001 Z" style="fill:rgb(255,255,255);" />
<path d=" M514.1 26.6700000000001 L522.88 26.6700000000001 L524.4 33.5300000000002 L539.8 33.5300000000002 L541.32 26.6700000000001 L550.1 26.6700000000001 L536.81 86.6700000000001 L527.39 86.6700000000001 Z M526.11 41.2400000000002 L538.09 41.2400000000002 L532.1 68.3099999999999 Z" style="fill:rgb(255,255,255);" />
<path d=" M557.3 26.6700000000001 L566.08 26.6700000000001 L567.6 33.5300000000002 L583 33.5300000000002 L584.52 26.6700000000001 L593.3 26.6700000000001 L580.01 86.6700000000001 L570.59 86.6700000000001 Z M569.31 41.2400000000002 L581.29 41.2400000000002 L575.3 68.3099999999999 Z" style="fill:rgb(255,255,255);" />
<path d=" M604.44 26.6700000000001 L604.44 78.96 L593.3 78.96 L593.3 86.6700000000001 L624.16 86.6700000000001 L624.16 78.96 L613.01 78.96 L613.01 26.6700000000001 Z" style="fill:rgb(255,255,255);" />
</g>
</svg>
