<?xml version="1.0" encoding="UTF-8"?>
<!DOCTYPE svg PUBLIC '-//W3C//DTD SVG 1.0//EN' 'http://www.w3.org/TR/2001/REC-SVG-20010904/DTD/svg10.dtd'>
<svg xmlns:xlink="http://www.w3.org/1999/xlink" xmlns="http://www.w3.org/2000/svg" width="900" height="600">
<!--Gegenereerd door de SIMaD-toepassing (http://www.dlw.be).-->
<g style="stroke:none;fill-rule:evenodd;" transform="matrix(1,0,0,-1,0,600)">
<path d=" M65 0 L834.999995462144 1.56319401867222E-13 A65 65 0 0 1 900 65.0000045378561 L899.999999999999 534.999987520896 A65 65 0 0 1 835.000004537856 600 L65.0000045378561 600 A65 65 0 0 1 1.56319401867222E-13 534.999995462144 L1.56319401867222E-13 65.0000045378561 A65 65 0 0 1 65.0000045378561 1.56319401867222E-13 Z" style="fill:rgb(0,0,255);" />
<path d=" M370.79 400 L398.29 400 L398.29 525 L435.96 525 L435.96 550 L333.11 550 L333.11 525 L370.79 525 Z" style="fill:rgb(255,255,255);" />
<path d=" M278.61 400 L306.11 400 L306.11 550 L278.61 550 Z" style="fill:rgb(255,255,255);" />
<path d=" M141.25 550 L141.250000000001 448.430008078606 A51.43 51.43 0 0 1 244.109999999999 448.429991921395 L244.11 550 L216.61 550 L216.61 445.929995823427 A23.93 23.93 0 0 0 168.75 445.930004176573 L168.75 550 Z" style="fill:rgb(255,255,255);" />
<path d=" M693.57 400 L721.07 400 L721.07 525 L758.75 525 L758.75 550 L655.89 550 L655.89 525 L693.57 525 Z" style="fill:rgb(255,255,255);" />
<path d=" M601.39 400 L628.89 400 L628.89 550 L601.39 550 Z" style="fill:rgb(255,255,255);" />
<path d=" M462.96 400 L490.46 400 L490.46 465 L504.95 465 L542.61 400 L574.39 400 L535.97156096915 466.309616053991 A40 40 0 0 1 565.819999999987 505.000032114058 L565.819999999987 510.000032114058 A40 40 0 0 1 525.820044680429 549.999999999975 L462.96 550 Z M490.46 490 L523.320016755161 490.000000000009 A15 15 0 0 1 538.319999999995 504.999987957228 L538.319999999995 510.000012042772 A15 15 0 0 1 523.320016755161 524.999999999991 L490.46 525 Z" style="fill:rgb(255,255,255);" />
<path d=" M293.19 110.65 A60.65 60.65 0 0 1 171.89 110.65 A60.65 60.65 0 0 1 293.19 110.65 Z M252.94 110.8 A20.31 20.31 0 0 1 212.32 110.8 A20.31 20.31 0 0 1 252.94 110.8 Z" style="fill:rgb(255,255,255);" />
<path d=" M300.3 110.61 A67.92 67.92 0 0 1 164.46 110.61 L120.27 110.61 L120.27 129.63 L133.46 129.63 L146.65 197.18 L158.52 212.27 L167.75 212.27 L191.49 291.63 L300.96 291.63 L300.96 149.96 L558.15 149.96 L558.15 159.14 L309.54 159.14 L309.54 350 L779.73 350 L779.73 159.14 L694.66 159.14 L694.66 149.96 L777.09 149.96 L777.09 127.01 L732.25 121.11 L732.25 110.61 L708.5 110.61 A67.92 67.92 0 0 1 572.66 110.61 Z M203.36 268.02 L191.49 212.27 L178.96 212.27 L191.49 268.02 Z M214.57 268.02 L217.87 268.02 L267.99 268.02 L267.99 212.27 L203.36 212.27 Z" style="fill:rgb(255,255,255);" />
<path d=" M701.27 110.69 A60.68 60.68 0 0 1 579.91 110.69 A60.68 60.68 0 0 1 701.27 110.69 Z M661.14 110.64 A20.38 20.38 0 0 1 620.38 110.64 A20.38 20.38 0 0 1 661.14 110.64 Z" style="fill:rgb(255,255,255);" />
</g>
</svg>
