<?xml version="1.0" encoding="UTF-8"?>
<!DOCTYPE svg PUBLIC '-//W3C//DTD SVG 1.0//EN' 'http://www.w3.org/TR/2001/REC-SVG-20010904/DTD/svg10.dtd'>
<svg xmlns:xlink="http://www.w3.org/1999/xlink" xmlns="http://www.w3.org/2000/svg" width="1100" height="300">
<!--Gegenereerd door de SIMaD-toepassing (http://www.dlw.be).-->
<g style="stroke:none;fill-rule:evenodd;" transform="matrix(1,0,0,-1,0,300)">
<path d=" M65 0 L1035 0 A65 65 0 0 1 1100 65 L1100 235 A65 65 0 0 1 1035 300 L65 300 A65 65 0 0 1 0 235 L0 65 A65 65 0 0 1 65 0 Z" style="fill:rgb(0,0,255);" />
<path d=" M221.27 166.67 L242.69 166.67 L271.98 266.67 L252.88 266.67 L231.98 195.32 L211.08 266.67 L191.98 266.67 Z" style="fill:rgb(255,255,255);" />
<path d=" M289.98 166.67 L351.41 166.67 L351.41 183.34 L308.31 183.34 L308.31 210 L337.12 210 L337.12 226.67 L308.31 226.67 L308.31 250 L351.41 250 L351.41 266.67 L289.98 266.67 Z" style="fill:rgb(255,255,255);" />
<path d=" M371.4 166.67 L389.73 166.67 L389.73 210 L399.39 210 L424.5 166.67 L445.69 166.67 L420.068553276181 210.873186503998 A26.67 26.67 0 0 1 439.969999999991 236.670021412048 L439.969999999991 240.000021412048 A26.67 26.67 0 0 1 413.300029790676 266.669999999983 L371.4 266.67 Z M389.73 226.67 L411.640011170107 226.670000000006 A10 10 0 0 1 421.639999999997 236.669991971486 L421.639999999997 240.000008028515 A10 10 0 0 1 411.640011170107 249.999999999994 L389.73 250 Z" style="fill:rgb(255,255,255);" />
<path d=" M481.98 166.67 L503.4 166.67 L532.69 266.67 L513.59 266.67 L492.69 195.32 L471.79 266.67 L452.69 266.67 Z" style="fill:rgb(255,255,255);" />
<path d=" M544.69 234.38 L544.69 198.960005386261 A34.29 34.29 0 0 1 613.27 198.959994613739 L613.26 198.96 L613.27 234.38 A34.29 34.29 0 0 1 544.69 234.38 Z M563.02 236.05 L563.03 197.2900027838 A15.95 15.95 0 0 1 594.93 197.2899972162 L594.93 236.05 A15.95 15.95 0 0 1 563.03 236.05 Z" style="fill:rgb(255,255,255);" />
<path d=" M635.26 166.67 L653.59 166.67 L653.59 210 L663.25 210 L688.36 166.67 L709.55 166.67 L683.928553276181 210.873186503998 A26.67 26.67 0 0 1 703.829999999991 236.670021412048 L703.829999999991 240.000021412048 A26.67 26.67 0 0 1 677.160029790676 266.669999999983 L635.26 266.67 Z M653.59 226.67 L675.500011170107 226.670000000006 A10 10 0 0 1 685.499999999997 236.669991971486 L685.499999999997 240.000008028515 A10 10 0 0 1 675.500011170107 249.999999999994 L653.59 250 Z" style="fill:rgb(255,255,255);" />
<path d=" M727.55 166.67 L744.22 166.67 L744.22 227.65 L762.07 166.67 L779.44 166.67 L796.12 223.63 L796.12 166.67 L814.45 166.67 L814.45 266.67 L793.03 266.67 L771 191.47 L748.98 266.67 L727.55 266.67 Z" style="fill:rgb(255,255,255);" />
<path d=" M839.45 166.67 L881.350029790676 166.670000000017 A26.67 26.67 0 0 1 908.019999999991 193.339978587952 L908.019999999991 240.000021412048 A26.67 26.67 0 0 1 881.350029790676 266.669999999983 L839.45 266.67 Z M857.78 183.34 L879.690011170107 183.340000000006 A10 10 0 0 1 889.689999999997 193.339991971486 L889.689999999997 240.000008028515 A10 10 0 0 1 879.690011170107 249.999999999994 L857.78 250 Z" style="fill:rgb(255,255,255);" />
<path d=" M301.82 33.3299999999999 L320.69 33.3299999999999 L336.4 98.02 L352.11 33.3299999999999 L370.98 33.3299999999999 L395.27 133.33 L378.12 133.33 L362.41 68.6399999999999 L346.69 133.33 L327.82 133.33 L312.11 68.6399999999999 L296.4 133.33 L277.53 133.33 Z" style="fill:rgb(255,255,255);" />
<path d=" M413.27 33.3299999999999 L474.7 33.3299999999999 L474.7 50 L431.6 50 L431.6 76.6599999999999 L460.41 76.6599999999999 L460.41 93.3299999999999 L431.6 93.3299999999999 L431.6 116.66 L474.7 116.66 L474.7 133.33 L413.27 133.33 Z" style="fill:rgb(255,255,255);" />
<path d=" M538.94 63.9499999999998 L538.94 76.6599999999999 L522.99 76.6599999999999 L522.99 93.3299999999999 L557.27 93.3299999999999 L557.279999999999 65.6199934167925 A34.29 34.29 0 1 0 488.700000000001 65.6200065832073 L488.7 101.040002992367 A34.29 34.29 0 0 0 556.090433803488 109.993512272896 L556.08 110 L537.17931401802 109.994632296693 A15.95 15.95 0 0 1 507.040000000001 102.70999526754 L507.03 102.71 L507.04 63.95000250542 A15.95 15.95 0 0 1 538.94 63.9499974945797 Z" style="fill:rgb(255,255,255);" />
<path d=" M579.27 33.3299999999999 L621.170029790676 33.3300000000166 A26.67 26.67 0 0 1 647.839999999991 59.9999785879517 L647.839999999991 106.660021412048 A26.67 26.67 0 0 1 621.170029790676 133.329999999983 L579.27 133.33 Z M597.6 50 L619.510011170107 50.0000000000062 A10 10 0 0 1 629.509999999997 59.9999919714854 L629.509999999997 106.660008028514 A10 10 0 0 1 619.510011170107 116.659999999994 L597.6 116.66 Z" style="fill:rgb(255,255,255);" />
<path d=" M669.84 33.3299999999999 L731.27 33.3299999999999 L731.27 50 L688.17 50 L688.17 76.6599999999999 L716.98 76.6599999999999 L716.98 93.3299999999999 L688.17 93.3299999999999 L688.17 116.66 L731.27 116.66 L731.27 133.33 L669.84 133.33 Z" style="fill:rgb(255,255,255);" />
<path d=" M751.27 33.3299999999999 L769.6 33.3299999999999 L769.6 70.7999999999999 L799.13 33.3299999999999 L822.47 33.3299999999999 L781.75 85 L819.84 133.33 L796.5 133.33 L769.6 99.1999999999998 L769.6 133.33 L751.27 133.33 Z" style="fill:rgb(255,255,255);" />
</g>
</svg>
