<?xml version="1.0" encoding="UTF-8"?>
<!DOCTYPE svg PUBLIC '-//W3C//DTD SVG 1.0//EN' 'http://www.w3.org/TR/2001/REC-SVG-20010904/DTD/svg10.dtd'>
<svg xmlns:xlink="http://www.w3.org/1999/xlink" xmlns="http://www.w3.org/2000/svg" width="1100" height="300">
<!--Gegenereerd door de SIMaD-toepassing (http://www.dlw.be).-->
<g style="stroke:none;fill-rule:evenodd;" transform="matrix(1,0,0,-1,0,300)">
<path d=" M65 0 L1035 0 A65 65 0 0 1 1100 65 L1100 235 A65 65 0 0 1 1035 300 L65 300 A65 65 0 0 1 0 235 L0 65 A65 65 0 0 1 65 0 Z" style="fill:rgb(0,0,255);" />
<path d=" M345.07 266.67 L362.21 166.67 L376.5 166.67 L387.21 229.17 L397.93 166.67 L412.21 166.67 L429.36 266.67 L416.31 266.67 L405.7 204.75 L395.08 266.67 L380.79 266.67 L370.18 204.75 L359.56 266.67 Z" style="fill:rgb(255,255,255);" />
<path d=" M442.36 166.67 L442.36 266.67 L489.5 266.67 L489.5 253.81 L456.65 253.81 L456.65 223.1 L478.07 223.1 L478.07 210.24 L456.65 210.24 L456.65 179.53 L489.5 179.53 L489.5 166.67 Z" style="fill:rgb(255,255,255);" />
<path d=" M537.64 210.96 L537.64 189.529997805598 A11.43 11.43 0 1 0 514.78 189.530002194403 L514.79 189.53 L514.78 243.809997805597 A11.43 11.43 0 0 0 537.64 243.810002194402 L537.64 242.38 L551.92 242.380004038517 A25.71 25.71 0 0 1 500.5 242.379995961483 L500.5 190.960004038517 A25.71 25.71 0 0 1 551.92 190.959995961483 L551.93 190.96 L551.93 223.81 L526.21 223.81 L526.21 210.96 Z" style="fill:rgb(255,255,255);" />
<path d=" M569.93 166.67 L598.500025534865 166.670000000014 A22.86 22.86 0 0 1 621.359999999993 189.529981646816 L621.359999999993 243.810018353184 A22.86 22.86 0 0 1 598.500025534865 266.669999999986 L569.93 266.67 Z M584.22 179.53 L597.070011170107 179.530000000006 A10 10 0 0 1 607.069999999997 189.529991971486 L607.069999999997 243.810008028515 A10 10 0 0 1 597.070011170107 253.809999999994 L584.22 253.81 Z" style="fill:rgb(255,255,255);" />
<path d=" M639.36 166.67 L639.36 266.67 L686.5 266.67 L686.5 253.81 L653.65 253.81 L653.65 223.1 L675.07 223.1 L675.07 210.24 L653.65 210.24 L653.65 179.53 L686.5 179.53 L686.5 166.67 Z" style="fill:rgb(255,255,255);" />
<path d=" M701.5 166.67 L701.5 266.67 L715.79 266.67 L715.79 230.84 L736.45 266.67 L752.93 266.67 L725.13 218.35 L754.93 166.67 L738.44 166.67 L715.79 205.95 L715.79 166.67 Z" style="fill:rgb(255,255,255);" />
<path d=" M93.07 33.3299999999999 L107.36 33.3299999999999 L107.36 133.33 L93.07 133.33 Z" style="fill:rgb(255,255,255);" />
<path d=" M127.36 33.3299999999999 L127.36 133.33 L142.36 133.33 L165.93 69 L165.93 133.33 L178.79 133.33 L178.79 33.3299999999999 L163.79 33.3299999999999 L140.22 97.6599999999999 L140.22 33.3299999999999 Z" style="fill:rgb(255,255,255);" />
<path d=" M230.79 61.8999999999999 L230.790000000002 57.6200103206554 A25.71 25.71 0 1 1 274.679717248081 75.7997134405306 L274.69 75.7999999999999 L249.428933915923 103.398930460347 A10 10 0 1 0 266.5 110.469999476401 L280.79 110.469998728179 A24.29 24.29 0 1 1 239.324380481776 93.2943720881827 L239.33 93.2999999999999 L264.582231355331 65.7022296625929 A11.43 11.43 0 1 0 245.070000000001 57.620004588296 L245.08 57.6199999999999 L245.08 61.8999999999999 Z" style="fill:rgb(255,255,255);" />
<path d=" M300.21 33.3299999999999 L300.21 133.33 L314.5 133.33 L314.5 46.1899999999998 L343.07 46.1899999999998 L343.07 33.3299999999999 Z" style="fill:rgb(255,255,255);" />
<path d=" M356.07 33.3299999999999 L356.07 133.33 L403.21 133.33 L403.21 120.47 L370.36 120.47 L370.36 89.76 L391.78 89.76 L391.78 76.8999999999999 L370.36 76.8999999999999 L370.36 46.1899999999998 L403.21 46.1899999999998 L403.21 33.3299999999999 Z" style="fill:rgb(255,255,255);" />
<path d=" M465.64 57.6199999999999 L451.35 57.6199999999999 L451.35 56.1899978055974 A11.43 11.43 0 1 0 428.49 56.1900021944023 L428.5 56.1899999999998 L428.49 110.469997805598 A11.43 11.43 0 0 0 451.35 110.470002194402 L451.35 109.04 L465.63 109.040004038517 A25.71 25.71 0 0 1 414.21 109.039995961483 L414.21 57.6200040385173 A25.71 25.71 0 0 1 465.63 57.6199959614825 Z" style="fill:rgb(255,255,255);" />
<path d=" M483.64 33.3299999999999 L483.64 133.33 L497.93 133.33 L497.93 90.47 L520.78 90.47 L520.78 133.33 L535.07 133.33 L535.07 33.3299999999999 L520.78 33.3299999999999 L520.78 77.6199999999999 L497.93 77.6199999999999 L497.93 33.3299999999999 Z" style="fill:rgb(255,255,255);" />
<path d=" M566.64 33.3299999999999 L566.64 120.47 L548.07 120.47 L548.07 133.33 L599.5 133.33 L599.5 120.47 L580.93 120.47 L580.93 33.3299999999999 Z" style="fill:rgb(255,255,255);" />
<path d=" M612.5 33.3299999999999 L612.5 133.33 L659.64 133.33 L659.64 120.47 L626.79 120.47 L626.79 89.76 L648.21 89.76 L648.21 76.8999999999999 L626.79 76.8999999999999 L626.79 46.1899999999998 L659.64 46.1899999999998 L659.64 33.3299999999999 Z" style="fill:rgb(255,255,255);" />
<path d=" M711.64 61.8999999999999 L711.640000000002 57.6200103206554 A25.71 25.71 0 1 1 755.529717248081 75.7997134405306 L755.54 75.7999999999999 L730.278933915923 103.398930460347 A10 10 0 1 0 747.35 110.469999476401 L761.64 110.469998728179 A24.29 24.29 0 1 1 720.174380481776 93.2943720881827 L720.18 93.2999999999999 L745.432231355331 65.7022296625929 A11.43 11.43 0 1 0 725.920000000001 57.620004588296 L725.93 57.6199999999999 L725.93 61.8999999999999 Z" style="fill:rgb(255,255,255);" />
<path d=" M790.64 33.3299999999999 L790.64 120.47 L772.07 120.47 L772.07 133.33 L823.5 133.33 L823.5 120.47 L804.93 120.47 L804.93 33.3299999999999 Z" style="fill:rgb(255,255,255);" />
<path d=" M823.5 33.3299999999999 L838.13 33.3299999999999 L840.66 44.76 L866.34 44.76 L868.87 33.3299999999999 L883.5 33.3299999999999 L861.36 133.33 L845.64 133.33 Z M843.51 57.6199999999999 L863.49 57.6199999999999 L853.5 102.74 Z" style="fill:rgb(255,255,255);" />
<path d=" M895.5 33.3299999999999 L910.13 33.3299999999999 L912.66 44.76 L938.34 44.76 L940.87 33.3299999999999 L955.5 33.3299999999999 L933.36 133.33 L917.64 133.33 Z M915.51 57.6199999999999 L935.49 57.6199999999999 L925.5 102.74 Z" style="fill:rgb(255,255,255);" />
<path d=" M974.07 33.3299999999999 L974.07 120.47 L955.5 120.47 L955.5 133.33 L1006.93 133.33 L1006.93 120.47 L988.36 120.47 L988.36 33.3299999999999 Z" style="fill:rgb(255,255,255);" />
</g>
</svg>
