<?xml version="1.0" encoding="UTF-8"?>
<!DOCTYPE svg PUBLIC '-//W3C//DTD SVG 1.0//EN' 'http://www.w3.org/TR/2001/REC-SVG-20010904/DTD/svg10.dtd'>
<svg xmlns:xlink="http://www.w3.org/1999/xlink" xmlns="http://www.w3.org/2000/svg" width="900" height="600">
<!--Gegenereerd door de SIMaD-toepassing (http://www.dlw.be).-->
<g style="stroke:none;fill-rule:evenodd;" transform="matrix(1,0,0,-1,0,600)">
<path d=" M0 535 L1.56319401867222E-13 65.0000045378561 A65 65 0 0 1 65.0000045378561 1.56319401867222E-13 L834.999995462144 1.56319401867222E-13 A65 65 0 0 1 900 65.0000045378561 L899.999999999999 534.999987520896 A65 65 0 0 1 835.000004537856 600 L65.0000045378561 600 A65 65 0 0 1 1.56319401867222E-13 534.999995462144 Z" style="fill:rgb(0,0,255);" />
<path d=" M665.55 309.9 L540 228.45 L480.6 309.9 L360 228.45 L306.9 309.9 L225 255 L224.551312603844 445.792530444326 A180.01 180.01 0 0 1 266.853998169001 479.992565944305 L266.852031560893 479.999892544034 A112.48 112.48 0 0 1 371.211157744808 496.646834658785 L371.211633649929 496.650287816834 A112.5 112.5 0 0 1 428.455968466422 518.837460646473 L428.457943484892 518.830426178406 A31.52 31.52 0 0 1 423.194936759904 569.998448677596 L423.187981876877 569.993247271516 A103.5 103.5 0 0 1 346.928374959415 539.39810767677 L346.938050147778 539.400754768694 A153 153 0 0 1 251.09469539388 504.298994233913 L251.088461161984 504.302281858561 A74.09 74.09 0 0 1 191.248759335537 433.654153880054 L191.25 433.65 L180 30 L720 30 L720 228.45 Z" style="fill:rgb(255,255,255);" />
</g>
</svg>
