<?xml version="1.0" encoding="UTF-8"?>
<!DOCTYPE svg PUBLIC '-//W3C//DTD SVG 1.0//EN' 'http://www.w3.org/TR/2001/REC-SVG-20010904/DTD/svg10.dtd'>
<svg xmlns:xlink="http://www.w3.org/1999/xlink" xmlns="http://www.w3.org/2000/svg" width="900" height="600">
<!--Gegenereerd door de SIMaD-toepassing (http://www.dlw.be).-->
<g style="stroke:none;fill-rule:evenodd;" transform="matrix(1,0,0,-1,0,600)">
<path d=" M65 0 L835 0 A65 65 0 0 1 900 65 L900 535 A65 65 0 0 1 835 600 L65 600 A65 65 0 0 1 0 535 L0 65 A65 65 0 0 1 65 0 Z" style="fill:rgb(0,0,255);" />
<path d=" M207.458359037373 336.675886722464 A1144.6 1144.6 0 0 1 206.599332827845 271.021072376392 L206.60128500272 271.030458376992 A105.4 105.4 0 0 1 208.2092987221 252.161966638311 L208.207105864307 252.155247238742 A270.87 270.87 0 0 1 225.30182611753 200.874935580456 L225.3 200.88 L235.8 200.88 L235.8 140.34 L283.7 140.34 L283.7 200.88 L616.3 200.88 L616.3 140.34 L664.19 140.34 L664.19 200.88 L674.7 200.88 L674.692583965005 200.875620197801 A270.83 270.83 0 0 1 691.779735290683 252.150040527778 L691.785114817702 252.156879125374 A105.44 105.44 0 0 1 693.398851674134 271.032095153324 L693.389634447484 271.024152718721 A1144.71 1144.71 0 0 1 692.534839354028 336.671591982988 L692.538655252783 336.674229310499 A4.04 4.04 0 0 1 691.306774086075 339.47579063763 L691.312182213076 339.487441995392 A157.35 157.35 0 0 0 675.972035088642 355.063423158325 L675.972185794589 355.055013141625 A30.45 30.45 0 0 0 669.07707189703 365.681784573091 L669.076795279762 365.686532845265 A731.28 731.28 0 0 1 661.16551707625 383.914642898974 L661.16 383.91 L607.04 500 L292.96 500 L238.83 383.91 L238.836182772712 383.904335696631 A1955.43 1955.43 0 0 0 230.921438152153 365.675114733538 L230.922374531363 365.684616155118 A36.74 36.74 0 0 0 224.025800061259 355.061896093757 L224.020855693814 355.051083444959 A157.37 157.37 0 0 0 208.681452840122 339.47046966087 L208.686541690245 339.47508575097 A4.03 4.03 0 0 1 207.461214238845 336.678920628363 L207.46 336.68 Z M664.66 305.54 A24.14 24.14 0 0 1 616.38 305.54 A24.14 24.14 0 0 1 664.66 305.54 Z M283.62 306.33 A24.15 24.15 0 0 1 235.32 306.33 A24.15 24.15 0 0 1 283.62 306.33 Z M654.75 353.28 L595.64 481.48 L304.36 481.48 L243.11 353.28 L243.107972456603 353.288894233771 A1951.68 1951.68 0 0 0 654.75606282049 353.284224234322 Z" style="fill:rgb(255,255,255);" />
<path d=" M450 136.96 L552.01 136.96 L552.003102646332 136.968208839166 A69.17 69.17 0 0 0 569.092541830317 135.355643939663 L569.099330297889 135.357556152839 A133.24 133.24 0 0 0 581.061828583126 130.303788971371 L581.060530866731 130.300723424999 A379.78 379.78 0 0 1 624.259825408929 112.686582285547 L624.25988270761 112.689103162125 A69.6 69.6 0 0 1 649.97439733856 109.115281220636 L649.973877913486 109.10657028694 A135.39 135.39 0 0 1 669.771947717657 111.5611454888 L669.771979772943 111.562868961427 A21.79 21.79 0 0 1 679.103421319284 115.907925261296 L679.098271215841 115.906924304161 A163.57 163.57 0 0 1 698.037585170615 133.662076988239 L698.043081073914 133.66576629249 A107.77 107.77 0 0 1 714.208903904098 157.008651575826 L714.208173291829 157.01367287327 A178.5 178.5 0 0 0 739.795384123468 194.33761716719 L739.786915361886 194.340110380093 A218.08 218.08 0 0 0 870.113417905326 264.888227480422 L870.12 264.88 L863.63 239.37 L863.620806062109 239.372465916645 A187.64 187.64 0 0 1 732.335494827547 158.541394171031 L732.337846940668 158.539446818438 A201.82 201.82 0 0 0 858.792830308054 220.397777526151 L858.79 220.4 L853.18 198.37 L853.18287833464 198.374723126995 A177.19 177.19 0 0 1 729.820705613507 142.261062287902 L729.823408231556 142.26376128628 A205.76 205.76 0 0 0 848.817446513738 181.224586544482 L848.82 181.22 L843.39 159.9 L843.388984707717 159.898041434907 A189.92 189.92 0 0 1 748.170601631954 142.062306690945 L748.171974950529 142.057940588161 A216.98 216.98 0 0 1 701.348870431925 117.84774296497 L701.348617656526 117.846034917876 A102.57 102.57 0 0 0 643.975398095403 99.9910109605506 L643.98 100 L450 100 L256.02 100 L256.015784738323 100.001005813746 A102.56 102.56 0 0 0 198.647960571318 117.853652207713 L198.651418626882 117.852827075413 A216.99 216.99 0 0 1 151.826780985295 142.065357046802 L151.820364118593 142.072917123044 A189.93 189.93 0 0 1 56.5966255206338 159.907748107246 L56.6 159.9 L51.18 181.22 L51.1753437669292 181.224566284733 A205.76 205.76 0 0 0 170.168853682302 142.262127327176 L170.163893999913 142.252194715454 A177.18 177.18 0 0 1 46.80956775441 198.364632801693 L46.81 198.37 L41.2 220.4 L41.2009548201343 220.398392832247 A201.82 201.82 0 0 0 167.657852313696 158.543975264111 L167.659243358158 158.549158625792 A187.64 187.64 0 0 1 36.3698918470892 239.373667812691 L36.37 239.37 L29.88 264.88 L29.8797019036693 264.879263523637 A218.08 218.08 0 0 0 160.208457724122 194.335301635217 L160.204112987156 194.333359775762 A178.52 178.52 0 0 0 185.786469274654 156.999941300516 L185.787194442492 157.002081636854 A107.75 107.75 0 0 1 201.958704990606 133.669545072276 L201.958337692779 133.66440819338 A163.56 163.56 0 0 1 220.889801474131 115.903205044697 L220.889044680814 115.915954816627 A21.79 21.79 0 0 1 230.221115564213 111.57225033669 L230.222282325172 111.557713280135 A135.42 135.42 0 0 1 250.025110480358 109.105592107615 L250.028358740991 109.115156964106 A69.59 69.59 0 0 1 275.739063644651 112.689302260704 L275.733441554692 112.688664178137 A379.76 379.76 0 0 1 318.931456452686 130.299436466326 L318.932377919296 130.297289478718 A133.24 133.24 0 0 0 330.891680825799 135.358607648205 L330.897450151685 135.364995026524 A69.19 69.19 0 0 0 347.992885426928 136.966808356423 L347.99 136.96 L450 136.96 Z" style="fill:rgb(255,255,255);" />
</g>
</svg>
