<?xml version="1.0" encoding="UTF-8"?>
<!DOCTYPE svg PUBLIC '-//W3C//DTD SVG 1.0//EN' 'http://www.w3.org/TR/2001/REC-SVG-20010904/DTD/svg10.dtd'>
<svg xmlns:xlink="http://www.w3.org/1999/xlink" xmlns="http://www.w3.org/2000/svg" width="1100" height="300">
<!--Gegenereerd door de SIMaD-toepassing (http://www.dlw.be).-->
<g style="stroke:none;fill-rule:evenodd;" transform="matrix(1,0,0,-1,0,300)">
<path d=" M65 0 L1035 0 A65 65 0 0 1 1100 65 L1100 235 A65 65 0 0 1 1035 300 L65 300 A65 65 0 0 1 0 235 L0 65 A65 65 0 0 1 65 0 Z" style="fill:rgb(0,0,255);" />
<path d=" M137.67 60 L137.67 240 L189.100045953821 239.999999999974 A41.14 41.14 0 0 0 230.239999999987 198.860033029309 L230.239999999999 179.570008168141 A36 36 0 0 0 215.997298390402 150.888647752399 L216 150.89 L216.023306535588 150.874192417759 A36 36 0 0 0 232.809999999985 120.430033300882 L232.809999999987 101.139966970691 A41.14 41.14 0 0 0 191.670045953821 60.0000000000255 Z M163.38 83.1399999999999 L189.100020106193 83.1400000000111 A18 18 0 0 1 207.099999999994 101.139985548674 L207.099999999994 120.430014451326 A18 18 0 0 1 189.100020106193 138.429999999989 L163.38 138.43 Z M163.38 216.86 L186.530020106193 216.859999999989 A18 18 0 0 0 204.529999999994 198.860014451326 L204.529999999994 179.569985548674 A18 18 0 0 0 186.530020106193 161.570000000011 L163.38 161.57 Z" style="fill:rgb(255,255,255);" />
<path d=" M265.21 60 L265.21 240 L316.640045953821 239.999999999974 A41.14 41.14 0 0 0 357.779999999987 198.860033029309 L357.77999999999 180.860028721138 A41.14 41.14 0 0 0 324.376106018997 140.453908087235 L324.38 140.45 L361.38 60 L333.08 60 L296.41 139.71 L290.92 139.71 L290.92 60 Z M290.92 216.86 L314.070020106193 216.859999999989 A18 18 0 0 0 332.069999999994 198.860014451326 L332.069999999994 180.859985548674 A18 18 0 0 0 314.070020106193 162.860000000011 L290.92 162.86 Z" style="fill:rgb(255,255,255);" />
<path d=" M406.9 240 L406.91 101.140003590142 A20.57 20.57 0 0 1 448.05 101.139996409858 L448.05 240 L473.76 240 L473.769999999999 103.709991112958 A46.29 46.29 0 1 0 381.190000000001 103.710008887042 L381.19 240 Z" style="fill:rgb(255,255,255);" />
<path d=" M571.22 139.71 L571.22 101.139996409858 A20.57 20.57 0 0 0 530.08 101.140003590142 L530.07 101.14 L530.08 198.859996409858 A20.57 20.57 0 0 0 571.22 198.860003590142 L571.22 196.29 L596.939999999999 196.290007271216 A46.29 46.29 0 0 1 504.360000000001 196.289992728784 L504.360000000001 103.710007271216 A46.29 46.29 0 0 1 596.939999999999 103.709992728784 L596.93 103.71 L596.93 162.86 L550.65 162.86 L550.65 139.71 Z" style="fill:rgb(255,255,255);" />
<path d=" M629.33 60 L680.760045953821 60.0000000000255 A41.14 41.14 0 0 1 721.899999999987 101.139966970691 L721.899999999987 198.860033029309 A41.14 41.14 0 0 1 680.760045953821 239.999999999974 L629.33 240 Z M655.04 83.1399999999999 L678.190020106193 83.1400000000111 A18 18 0 0 1 696.189999999994 101.139985548674 L696.189999999994 198.860014451326 A18 18 0 0 1 678.190020106193 216.859999999989 L655.04 216.86 Z" style="fill:rgb(255,255,255);" />
<path d=" M754.3 60 L754.3 240 L839.16 240 L839.16 216.86 L780.01 216.86 L780.01 161.57 L818.59 161.57 L818.59 138.43 L780.01 138.43 L780.01 83.1399999999999 L839.16 83.1399999999999 L839.16 60 Z" style="fill:rgb(255,255,255);" />
<path d=" M866.16 60 L866.16 240 L891.87 240 L891.87 175.51 L929.07 240 L958.73 240 L908.69 153.02 L962.33 60 L932.65 60 L891.87 130.7 L891.87 60 Z" style="fill:rgb(255,255,255);" />
</g>
</svg>
