<?xml version="1.0" encoding="UTF-8"?>
<!DOCTYPE svg PUBLIC '-//W3C//DTD SVG 1.0//EN' 'http://www.w3.org/TR/2001/REC-SVG-20010904/DTD/svg10.dtd'>
<svg xmlns:xlink="http://www.w3.org/1999/xlink" xmlns="http://www.w3.org/2000/svg" width="700" height="200">
<!--Gegenereerd door de SIMaD-toepassing (http://www.dlw.be).-->
<g style="stroke:none;fill-rule:evenodd;" transform="matrix(1,0,0,-1,0,200)">
<path d=" M65 0 L635 0 A65 65 0 0 1 700 65 L700 135 A65 65 0 0 1 635 200 L65 200 A65 65 0 0 1 0 135 L0 65 A65 65 0 0 1 65 0 Z" style="fill:rgb(0,0,255);" />
<path d=" M69.54 82.86 L69.5400000000017 79.4300082573272 A20.57 20.57 0 1 1 104.655188012176 93.9751849658388 L104.66 93.97 L84.453147132738 116.053144368278 A8 8 0 1 0 98.11 121.709999581121 L109.54 121.709998982648 A19.43 19.43 0 1 1 76.3709185986375 107.970911884454 L76.37 107.98 L96.5729566568442 85.8929553032458 A9.14 9.14 0 1 0 80.9700000000008 79.4300036690312 L80.97 82.86 Z" style="fill:rgb(255,255,255);" />
<path d=" M132.75 60 L132.75 129.71 L117.89 129.71 L117.89 140 L159.03 140 L159.03 129.71 L144.18 129.71 L144.18 60 Z" style="fill:rgb(255,255,255);" />
<path d=" M169.43 60 L169.43 140 L207.14 140 L207.14 129.71 L180.86 129.71 L180.86 105.14 L198 105.14 L198 94.86 L180.86 94.86 L180.86 70.29 L207.14 70.29 L207.14 60 Z" style="fill:rgb(255,255,255);" />
<path d=" M219.14 60 L219.14 140 L256.85 140 L256.85 129.71 L230.57 129.71 L230.57 105.14 L247.71 105.14 L247.71 94.86 L230.57 94.86 L230.57 70.29 L256.85 70.29 L256.85 60 Z" style="fill:rgb(255,255,255);" />
<path d=" M268.86 60 L268.86 140 L280.86 140 L299.72 88.54 L299.72 140 L310 140 L310 60 L298 60 L279.15 111.46 L279.15 60 Z" style="fill:rgb(255,255,255);" />
<path d=" M354.11 95.43 L354.11 78.2899984047691 A9.14 9.14 0 0 0 335.83 78.290001595231 L335.83 121.709998404769 A9.14 9.14 0 0 0 354.11 121.710001595231 L354.11 120.57 L365.54 120.570003590142 A20.57 20.57 0 0 1 324.4 120.569996409858 L324.4 79.4300035901423 A20.57 20.57 0 0 1 365.54 79.4299964098577 L365.54 105.71 L344.97 105.71 L344.97 95.43 Z" style="fill:rgb(255,255,255);" />
<path d=" M379.94 60 L379.94 140 L402.800020430126 139.999999999989 A18.29 18.29 0 0 0 421.089999999994 121.710014684153 L421.08 121.71 L421.089999999996 113.710012768829 A18.29 18.29 0 0 0 406.239314027405 95.74628047923 L406.24 95.75 L422.68 60 L410.1 60 L393.81 95.43 L391.37 95.43 L391.37 60 Z M391.37 129.71 L401.650008936086 129.709999999995 A8 8 0 0 0 409.649999999998 121.710006422812 L409.649999999998 113.709993577188 A8 8 0 0 0 401.650008936086 105.710000000005 L391.37 105.71 Z" style="fill:rgb(255,255,255);" />
<path d=" M432.29 79.43 L432.29 120.569996409858 A20.57 20.57 0 0 0 473.43 120.570003590142 L473.43 79.43 A20.57 20.57 0 0 0 432.29 79.43 Z M443.72 78.29 L443.72 121.709998404769 A9.14 9.14 0 0 0 462 121.710001595231 L462 78.29 A9.14 9.14 0 0 0 443.72 78.29 Z" style="fill:rgb(255,255,255);" />
<path d=" M487.83 60 L487.83 140 L525.54 140 L525.54 129.71 L499.26 129.71 L499.26 105.14 L516.4 105.14 L516.4 94.86 L499.26 94.86 L499.26 70.29 L525.54 70.29 L525.54 60 Z" style="fill:rgb(255,255,255);" />
<path d=" M534.34 140 L551.48 60 L565.2 60 L582.34 140 L570.65 140 L558.34 84 L546.03 140 Z" style="fill:rgb(255,255,255);" />
<path d=" M592.74 60 L592.74 140 L630.45 140 L630.45 129.71 L604.17 129.71 L604.17 105.14 L621.31 105.14 L621.31 94.86 L604.17 94.86 L604.17 70.29 L630.45 70.29 L630.45 60 Z" style="fill:rgb(255,255,255);" />
</g>
</svg>
