<?xml version="1.0" encoding="UTF-8"?>
<!DOCTYPE svg PUBLIC '-//W3C//DTD SVG 1.0//EN' 'http://www.w3.org/TR/2001/REC-SVG-20010904/DTD/svg10.dtd'>
<svg xmlns:xlink="http://www.w3.org/1999/xlink" xmlns="http://www.w3.org/2000/svg" width="1100" height="300">
<!--Gegenereerd door de SIMaD-toepassing (http://www.dlw.be).-->
<g style="stroke:none;fill-rule:evenodd;" transform="matrix(1,0,0,-1,0,300)">
<path d=" M65 0 L1035 0 A65 65 0 0 1 1100 65 L1100 235 A65 65 0 0 1 1035 300 L65 300 A65 65 0 0 1 0 235 L0 65 A65 65 0 0 1 65 0 Z" style="fill:rgb(0,0,255);" />
<path d=" M82.77 124.29 L82.7700000000025 119.140012387998 A30.86 30.86 0 1 1 135.45131755254 140.961312982294 L135.45 140.96 L105.144720699107 174.084716552416 A12 12 0 1 0 125.63 182.569999371681 L142.77 182.569998474233 A29.14 29.14 0 1 1 93.0249134309983 161.964903361451 L93.02 161.96 L123.324434985266 128.834432954869 A13.71 13.71 0 1 0 99.9200000000011 119.140005503547 L99.91 119.14 L99.91 124.29 Z" style="fill:rgb(255,255,255);" />
<path d=" M166.09 90 L166.09 210 L200.380030639604 209.999999999983 A27.43 27.43 0 0 0 227.809999999991 182.570022022215 L227.8 182.57 L227.809999999991 170.569977977785 A27.43 27.43 0 0 0 200.380030639604 143.140000000017 L183.23 143.14 L183.23 90 Z M183.23 194.57 L198.660013404129 194.569999999992 A12 12 0 0 0 210.659999999996 182.570009634217 L210.659999999996 170.569990365782 A12 12 0 0 0 198.660013404129 158.570000000007 L183.23 158.57 Z" style="fill:rgb(255,255,255);" />
<path d=" M242.2 119.14 L242.2 180.859994613914 A30.86 30.86 0 0 0 303.919999999999 180.860005386086 L303.91 180.86 L303.92 119.14 A30.86 30.86 0 0 0 242.2 119.14 Z M259.34 117.43 L259.35 182.569997367869 A13.71 13.71 0 0 0 286.77 182.570002632131 L286.77 117.43 A13.71 13.71 0 0 0 259.35 117.43 Z" style="fill:rgb(255,255,255);" />
<path d=" M323.11 119.14 L323.11 180.859994613914 A30.86 30.86 0 0 0 384.83 180.860005386086 L384.82 180.86 L384.83 119.14 A30.86 30.86 0 0 0 323.11 119.14 Z M340.25 117.43 L340.26 182.569997367869 A13.71 13.71 0 0 0 367.68 182.570002632131 L367.68 117.43 A13.71 13.71 0 0 0 340.26 117.43 Z" style="fill:rgb(255,255,255);" />
<path d=" M406.43 90 L406.43 210 L440.720030639604 209.999999999983 A27.43 27.43 0 0 0 468.149999999991 182.570022022215 L468.14 182.57 L468.149999999993 170.570019149752 A27.43 27.43 0 0 0 445.878030824042 143.629331522432 L445.87 143.63 L470.54 90 L451.67 90 L427.23 143.14 L423.57 143.14 L423.57 90 Z M423.57 194.57 L439.000013404129 194.569999999992 A12 12 0 0 0 450.999999999996 182.570009634217 L450.999999999996 170.569990365782 A12 12 0 0 0 439.000013404129 158.570000000007 L423.57 158.57 Z" style="fill:rgb(255,255,255);" />
<path d=" M477.74 210 L503.45 90 L524.03 90 L549.74 210 L532.21 210 L513.74 126 L495.27 210 Z" style="fill:rgb(255,255,255);" />
<path d=" M560.54 119.14 L560.54 180.859994613914 A30.86 30.86 0 0 0 622.259999999999 180.860005386086 L622.25 180.86 L622.26 119.14 A30.86 30.86 0 0 0 560.54 119.14 Z M577.68 117.43 L577.69 182.569997367869 A13.71 13.71 0 0 0 605.11 182.570002632131 L605.11 117.43 A13.71 13.71 0 0 0 577.69 117.43 Z" style="fill:rgb(255,255,255);" />
<path d=" M643.86 90 L643.86 210 L678.150030639604 209.999999999983 A27.43 27.43 0 0 0 705.579999999991 182.570022022215 L705.57 182.57 L705.579999999993 170.570019149752 A27.43 27.43 0 0 0 683.308030824042 143.629331522432 L683.3 143.63 L707.97 90 L689.1 90 L664.66 143.14 L661 143.14 L661 90 Z M661 194.57 L676.430013404129 194.569999999992 A12 12 0 0 0 688.429999999996 182.570009634217 L688.429999999996 170.569990365782 A12 12 0 0 0 676.430013404129 158.570000000007 L661 158.57 Z" style="fill:rgb(255,255,255);" />
<path d=" M724.77 90 L724.77 210 L745.34 210 L765.91 126.77 L786.48 210 L807.06 210 L807.06 90 L789.91 90 L789.91 159.36 L772.77 90 L757.34 90 L740.2 159.36 L740.2 90 Z" style="fill:rgb(255,255,255);" />
<path d=" M831.06 90 L848.2 90 L848.2 210 L831.06 210 Z" style="fill:rgb(255,255,255);" />
<path d=" M872.2 90 L872.2 210 L890.2 210 L918.49 132.81 L918.49 210 L933.91 210 L933.91 90 L915.91 90 L887.63 167.19 L887.63 90 Z" style="fill:rgb(255,255,255);" />
<path d=" M1000.08 143.14 L1000.08 117.429997367869 A13.71 13.71 0 1 0 972.66 117.430002632131 L972.65 117.43 L972.66 182.569997367869 A13.71 13.71 0 0 0 1000.08 182.570002632131 L1000.08 180.86 L1017.23 180.860005386086 A30.86 30.86 0 0 1 955.51 180.859994613914 L955.51 119.140005386086 A30.86 30.86 0 0 1 1017.23 119.139994613914 L1017.22 119.14 L1017.22 158.57 L986.37 158.57 L986.37 143.14 Z" style="fill:rgb(255,255,255);" />
</g>
</svg>
