<?xml version="1.0" encoding="UTF-8"?>
<!DOCTYPE svg PUBLIC '-//W3C//DTD SVG 1.0//EN' 'http://www.w3.org/TR/2001/REC-SVG-20010904/DTD/svg10.dtd'>
<svg xmlns:xlink="http://www.w3.org/1999/xlink" xmlns="http://www.w3.org/2000/svg" width="700" height="200">
<!--Gegenereerd door de SIMaD-toepassing (http://www.dlw.be).-->
<g style="stroke:none;fill-rule:evenodd;" transform="matrix(1,0,0,-1,0,200)">
<path d=" M45 0 L655 0 A45 45 0 0 1 700 45 L700 155 A45 45 0 0 1 655 200 L45 200 A45 45 0 0 1 0 155 L0 45 A45 45 0 0 1 45 0 Z" style="fill:rgb(0,0,255);" />
<path d=" M153.42 170 L153.41 127.570000988031 A6.29 6.29 0 0 1 165.99 127.569999011969 L165.99 170 L173.85 170 L173.84 128.359997532104 A14.14 14.14 0 0 0 145.56 128.360002467896 L145.56 170 Z" style="fill:rgb(255,255,255);" />
<path d=" M184.29 115 L192.15 115 L192.15 170 L184.29 170 Z" style="fill:rgb(255,255,255);" />
<path d=" M209.51 115 L209.51 162.93 L199.3 162.93 L199.3 170 L227.59 170 L227.59 162.93 L217.37 162.93 L217.37 115 Z" style="fill:rgb(255,255,255);" />
<path d=" M252.97 139.36 L252.97 127.569998792407 A6.29 6.29 0 1 0 240.39 127.570001207593 L240.4 127.57 L240.39 157.429998792407 A6.29 6.29 0 0 0 252.97 157.430001207593 L252.97 156.64 L260.82 156.640002221106 A14.14 14.14 0 0 1 232.54 156.639997778894 L232.54 128.360002221106 A14.14 14.14 0 0 1 260.82 128.359997778894 L260.83 128.36 L260.83 146.43 L246.68 146.43 L246.68 139.36 Z" style="fill:rgb(255,255,255);" />
<path d=" M270.72 115 L270.72 170 L296.65 170 L296.65 162.93 L278.58 162.93 L278.58 146.04 L290.36 146.04 L290.36 138.96 L278.58 138.96 L278.58 122.07 L296.65 122.07 L296.65 115 Z" style="fill:rgb(255,255,255);" />
<path d=" M303.25 115 L303.25 122.07 L322.1 162.93 L304.04 162.93 L304.04 170 L330.75 170 L330.75 162.93 L311.9 122.07 L331.54 122.07 L331.54 115 Z" style="fill:rgb(255,255,255);" />
<path d=" M339.24 128.36 L339.24 156.639997532104 A14.14 14.14 0 0 0 367.52 156.640002467896 L367.53 156.64 L367.52 128.36 A14.14 14.14 0 0 0 339.24 128.36 Z M347.1 127.57 L347.09 157.429998792407 A6.29 6.29 0 0 0 359.67 157.430001207593 L359.67 127.57 A6.29 6.29 0 0 0 347.09 127.57 Z" style="fill:rgb(255,255,255);" />
<path d=" M377.42 115 L377.42 170 L385.67 170 L398.63 134.62 L398.63 170 L405.71 170 L405.71 115 L397.46 115 L384.49 150.38 L384.49 115 Z" style="fill:rgb(255,255,255);" />
<path d=" M416.71 115 L432.420014040825 115.000000000008 A12.57 12.57 0 0 1 444.989999999996 127.569989908157 L445 127.57 L444.989999999996 157.430010091843 A12.57 12.57 0 0 1 432.420014040825 169.999999999992 L416.71 170 Z M424.57 122.07 L431.640006143559 122.070000000003 A5.5 5.5 0 0 1 437.139999999998 127.569995584317 L437.139999999998 157.430004415683 A5.5 5.5 0 0 1 431.640006143559 162.929999999997 L424.57 162.93 Z" style="fill:rgb(255,255,255);" />
<path d=" M454.89 115 L454.89 170 L480.82 170 L480.82 162.93 L462.75 162.93 L462.75 146.04 L474.53 146.04 L474.53 138.96 L462.75 138.96 L462.75 122.07 L480.82 122.07 L480.82 115 Z" style="fill:rgb(255,255,255);" />
<path d=" M489.07 115 L489.07 170 L504.780014040825 169.999999999992 A12.57 12.57 0 0 0 517.349999999996 157.430010091843 L517.36 157.43 L517.349999999997 151.930008775515 A12.57 12.57 0 0 0 507.143705703908 139.584239782609 L507.15 139.58 L518.46 115 L509.81 115 L498.6 139.36 L496.93 139.36 L496.93 115 Z M496.93 162.93 L504.000006143559 162.929999999997 A5.5 5.5 0 0 0 509.499999999998 157.430004415683 L509.499999999998 151.929995584317 A5.5 5.5 0 0 0 504.000006143559 146.430000000003 L496.93 146.43 Z" style="fill:rgb(255,255,255);" />
<path d=" M526.16 115 L541.870014040825 115.000000000008 A12.57 12.57 0 0 1 554.439999999996 127.569989908157 L554.45 127.57 L554.439999999996 157.430010091843 A12.57 12.57 0 0 1 541.870014040825 169.999999999992 L526.16 170 Z M534.02 122.07 L541.090006143559 122.070000000003 A5.5 5.5 0 0 1 546.589999999998 127.569995584317 L546.589999999998 157.430004415683 A5.5 5.5 0 0 1 541.090006143559 162.929999999997 L534.02 162.93 Z" style="fill:rgb(255,255,255);" />
<path d=" M28.01 30 L28.01 85 L35.87 85 L35.87 37.07 L51.58 37.07 L51.58 30 Z" style="fill:rgb(255,255,255);" />
<path d=" M57.64 30 L65.69 30 L67.08 36.29 L81.2 36.29 L82.59 30 L90.64 30 L78.46 85 L69.82 85 Z M68.65 43.36 L79.63 43.36 L74.14 68.17 Z" style="fill:rgb(255,255,255);" />
<path d=" M98.34 30 L98.34 85 L106.59 85 L119.55 49.62 L119.55 85 L126.63 85 L126.63 30 L118.38 30 L105.41 65.38 L105.41 30 Z" style="fill:rgb(255,255,255);" />
<path d=" M137.62 30 L153.330014040825 30.0000000000078 A12.57 12.57 0 0 1 165.899999999996 42.5699899081572 L165.91 42.57 L165.899999999996 72.4300100918428 A12.57 12.57 0 0 1 153.330014040825 84.9999999999922 L137.62 85 Z M145.48 37.07 L152.550006143559 37.0700000000034 A5.5 5.5 0 0 1 158.049999999998 42.569995584317 L158.049999999998 72.430004415683 A5.5 5.5 0 0 1 152.550006143559 77.9299999999966 L145.48 77.93 Z" style="fill:rgb(255,255,255);" />
<path d=" M175.81 30 L175.81 85 L191.520014040825 84.9999999999922 A12.57 12.57 0 0 0 204.089999999996 72.4300100918428 L204.1 72.43 L204.1 66.5400024958209 A11 11 0 0 0 199.748063397067 57.7762534798996 L199.74 57.77 L199.750732552541 57.7623921276486 A11 11 0 0 0 204.879999999995 48.4600101752695 L204.879999999996 42.5699899081572 A12.57 12.57 0 0 0 192.310014040825 30.0000000000078 Z M183.67 37.07 L191.520006143559 37.0700000000034 A5.5 5.5 0 0 1 197.019999999998 42.569995584317 L197.019999999998 48.460004415683 A5.5 5.5 0 0 1 191.520006143559 53.9599999999966 L183.67 53.96 Z M183.67 77.93 L190.740006143559 77.9299999999966 A5.5 5.5 0 0 0 196.239999999998 72.430004415683 L196.239999999998 66.539995584317 A5.5 5.5 0 0 0 190.740006143559 61.0400000000035 L183.67 61.04 Z" style="fill:rgb(255,255,255);" />
<path d=" M213.68 43.36 L213.68 71.6399975321044 A14.14 14.14 0 0 0 241.96 71.6400024678955 L241.97 71.64 L241.96 43.36 A14.14 14.14 0 0 0 213.68 43.36 Z M221.54 42.57 L221.53 72.4299987924067 A6.29 6.29 0 0 0 234.11 72.4300012075933 L234.11 42.57 A6.29 6.29 0 0 0 221.53 42.57 Z" style="fill:rgb(255,255,255);" />
<path d=" M259.17 85 L259.16 42.5700009880309 A6.29 6.29 0 0 1 271.74 42.5699990119691 L271.74 85 L279.6 85 L279.59 43.3599975321044 A14.14 14.14 0 0 0 251.31 43.3600024678956 L251.31 85 Z" style="fill:rgb(255,255,255);" />
<path d=" M285.65 85 L295.08 30 L302.94 30 L308.83 64.38 L314.72 30 L322.58 30 L332.01 85 L324.83 85 L318.99 50.94 L313.16 85 L305.3 85 L299.46 50.94 L293.62 85 Z" style="fill:rgb(255,255,255);" />
<path d=" M337.51 85 L349.3 30 L358.72 30 L370.51 85 L362.47 85 L354.01 46.5 L345.55 85 Z" style="fill:rgb(255,255,255);" />
<path d=" M375.46 43.36 L375.46 71.6399975321044 A14.14 14.14 0 0 0 403.74 71.6400024678955 L403.75 71.64 L403.74 43.36 A14.14 14.14 0 0 0 375.46 43.36 Z M383.32 42.57 L383.31 72.4299987924067 A6.29 6.29 0 0 0 395.89 72.4300012075933 L395.89 42.57 A6.29 6.29 0 0 0 383.31 42.57 Z" style="fill:rgb(255,255,255);" />
<path d=" M413.64 30 L413.64 85 L439.57 85 L439.57 77.93 L421.5 77.93 L421.5 61.04 L433.28 61.04 L433.28 53.96 L421.5 53.96 L421.5 37.07 L439.57 37.07 L439.57 30 Z" style="fill:rgb(255,255,255);" />
<path d=" M447.82 30 L447.82 85 L463.530014040825 84.9999999999922 A12.57 12.57 0 0 0 476.099999999996 72.4300100918428 L476.11 72.43 L476.099999999997 66.9300087755155 A12.57 12.57 0 0 0 465.893705703908 54.5842397826091 L465.9 54.58 L477.21 30 L468.56 30 L457.35 54.36 L455.68 54.36 L455.68 30 Z M455.68 77.93 L462.750006143559 77.9299999999966 A5.5 5.5 0 0 0 468.249999999998 72.430004415683 L468.249999999998 66.929995584317 A5.5 5.5 0 0 0 462.750006143559 61.4300000000034 L455.68 61.43 Z" style="fill:rgb(255,255,255);" />
<path d=" M490.72 30 L490.72 77.93 L480.51 77.93 L480.51 85 L508.8 85 L508.8 77.93 L498.58 77.93 L498.58 30 Z" style="fill:rgb(255,255,255);" />
<path d=" M522.7 85 L522.69 42.5700009880309 A6.29 6.29 0 0 1 535.27 42.5699990119691 L535.27 85 L543.13 85 L543.12 43.3599975321044 A14.14 14.14 0 0 0 514.84 43.3600024678956 L514.84 85 Z" style="fill:rgb(255,255,255);" />
<path d=" M553.58 30 L561.44 30 L561.44 85 L553.58 85 Z" style="fill:rgb(255,255,255);" />
<path d=" M591.77 54.36 L591.77 42.5699987924067 A6.29 6.29 0 1 0 579.19 42.5700012075933 L579.2 42.57 L579.19 72.4299987924067 A6.29 6.29 0 0 0 591.77 72.4300012075933 L591.77 71.64 L599.62 71.640002221106 A14.14 14.14 0 0 1 571.34 71.639997778894 L571.34 43.360002221106 A14.14 14.14 0 0 1 599.62 43.359997778894 L599.63 43.36 L599.63 61.43 L585.48 61.43 L585.48 54.36 Z" style="fill:rgb(255,255,255);" />
<path d=" M609.52 30 L609.52 85 L635.45 85 L635.45 77.93 L617.38 77.93 L617.38 61.04 L629.16 61.04 L629.16 53.96 L617.38 53.96 L617.38 37.07 L635.45 37.07 L635.45 30 Z" style="fill:rgb(255,255,255);" />
<path d=" M643.7 30 L643.7 85 L651.95 85 L664.91 49.62 L664.91 85 L671.99 85 L671.99 30 L663.74 30 L650.77 65.38 L650.77 30 Z" style="fill:rgb(255,255,255);" />
</g>
</svg>
