<?xml version="1.0" encoding="UTF-8"?>
<!DOCTYPE svg PUBLIC '-//W3C//DTD SVG 1.0//EN' 'http://www.w3.org/TR/2001/REC-SVG-20010904/DTD/svg10.dtd'>
<svg xmlns:xlink="http://www.w3.org/1999/xlink" xmlns="http://www.w3.org/2000/svg" width="700" height="200">
<!--Gegenereerd door de SIMaD-toepassing (http://www.dlw.be).-->
<g style="stroke:none;fill-rule:evenodd;" transform="matrix(1,0,0,-1,0,200)">
<path d=" M45 0 L655 0 A45 45 0 0 1 700 45 L700 155 A45 45 0 0 1 655 200 L45 200 A45 45 0 0 1 0 155 L0 45 A45 45 0 0 1 45 0 Z" style="fill:rgb(0,0,255);" />
<path d=" M55.99 173.33 L55.9900000000002 132.700003231128 A20.57 20.57 0 0 1 97.1299999999998 132.699996768872 L97.13 173.33 L86.13 173.33 L86.1299999999999 131.69999832972 A9.57 9.57 0 0 0 66.9900000000002 131.70000167028 L66.99 173.33 Z" style="fill:rgb(255,255,255);" />
<path d=" M110.93 113.33 L121.93 113.33 L121.93 173.33 L110.93 173.33 Z" style="fill:rgb(255,255,255);" />
<path d=" M147.8 113.33 L158.8 113.33 L158.8 163.33 L173.87 163.33 L173.87 173.33 L132.73 173.33 L132.73 163.33 L147.8 163.33 Z" style="fill:rgb(255,255,255);" />
<path d=" M211.21 131.7 L211.21 139.33 L201.64 139.33 L201.64 149.33 L222.21 149.33 L222.21 132.699996050843 A20.57 20.57 0 1 0 181.07 132.700003949156 L181.07 153.960001795071 A20.57 20.57 0 0 0 221.49639904747 159.331062917862 L221.5 159.33 L210.153588410812 159.330779378016 A9.57 9.57 0 0 1 192.07 154.959997160524 L192.07 131.70000167028 A9.57 9.57 0 0 1 211.21 131.69999832972 Z" style="fill:rgb(255,255,255);" />
<path d=" M235.41 113.33 L272.27 113.33 L272.27 123.33 L246.41 123.33 L246.41 139.33 L263.7 139.33 L263.7 149.33 L246.41 149.33 L246.41 163.33 L272.27 163.33 L272.27 173.33 L235.41 173.33 Z" style="fill:rgb(255,255,255);" />
<path d=" M281.27 113.33 L322.41 113.33 L322.41 123.33 L293.81 123.33 L321.21 163.33 L321.21 173.33 L282.47 173.33 L282.47 163.33 L308.67 163.33 L281.27 123.33 Z" style="fill:rgb(255,255,255);" />
<path d=" M333.81 153.96 L333.81 132.700003231128 A20.57 20.57 0 0 1 374.95 132.699996768872 L374.95 153.96 A20.57 20.57 0 0 1 333.81 153.96 Z M344.81 154.96 L344.81 131.70000167028 A9.57 9.57 0 0 1 363.95 131.69999832972 L363.95 154.96 A9.57 9.57 0 0 1 344.81 154.96 Z" style="fill:rgb(255,255,255);" />
<path d=" M388.16 113.33 L398.16 113.33 L398.16 153.18 L416.45 113.33 L429.3 113.33 L429.3 173.33 L419.3 173.33 L419.3 133.48 L401.02 173.33 L388.16 173.33 Z" style="fill:rgb(255,255,255);" />
<path d=" M444.3 113.33 L469.440017872172 113.33000000001 A16 16 0 0 1 485.439999999995 129.329987154377 L485.439999999995 157.330012845623 A16 16 0 0 1 469.440017872172 173.32999999999 L444.3 173.33 Z M455.3 123.33 L468.440006702064 123.330000000004 A6 6 0 0 1 474.439999999998 129.329995182891 L474.439999999998 157.330004817109 A6 6 0 0 1 468.440006702064 163.329999999996 L455.3 163.33 Z" style="fill:rgb(255,255,255);" />
<path d=" M498.64 113.33 L535.5 113.33 L535.5 123.33 L509.64 123.33 L509.64 139.33 L526.93 139.33 L526.93 149.33 L509.64 149.33 L509.64 163.33 L535.5 163.33 L535.5 173.33 L498.64 173.33 Z" style="fill:rgb(255,255,255);" />
<path d=" M547.5 113.33 L558.5 113.33 L558.5 139.33 L564.29 139.33 L579.36 113.33 L592.07 113.33 L576.70062438766 139.853846421596 A16 16 0 0 1 588.639999999995 155.330012845623 L588.639999999995 157.330012845623 A16 16 0 0 1 572.640017872171 173.32999999999 L547.5 173.33 Z M558.5 149.33 L571.640006702064 149.330000000004 A6 6 0 0 1 577.639999999998 155.329995182891 L577.639999999998 157.330004817109 A6 6 0 0 1 571.640006702064 163.329999999996 L558.5 163.33 Z" style="fill:rgb(255,255,255);" />
<path d=" M602.87 113.33 L628.010017872172 113.33000000001 A16 16 0 0 1 644.009999999995 129.329987154377 L644.009999999995 157.330012845623 A16 16 0 0 1 628.010017872172 173.32999999999 L602.87 173.33 Z M613.87 123.33 L627.010006702064 123.330000000004 A6 6 0 0 1 633.009999999998 129.329995182891 L633.009999999998 157.330004817109 A6 6 0 0 1 627.010006702064 163.329999999996 L613.87 163.33 Z" style="fill:rgb(255,255,255);" />
<path d=" M134.25 26.6700000000001 L160.590017872172 26.6700000000101 A16 16 0 0 1 176.589999999995 42.6699871543768 L176.59 46.6699993716815 A12 12 0 0 1 168.741106793697 57.9291435014978 A12 12 0 0 1 175.389999999999 68.6699951828913 L175.389999999995 70.6700128456234 A16 16 0 0 1 159.390017872172 86.6699999999901 L134.25 86.6700000000001 Z M145.25 36.6700000000001 L159.590006702064 36.6700000000038 A6 6 0 0 1 165.589999999998 42.6699951828913 L165.589999999998 46.6700048171088 A6 6 0 0 1 159.590006702064 52.6699999999963 L145.25 52.6700000000001 Z M145.25 62.6700000000001 L158.390006702064 62.6700000000038 A6 6 0 0 1 164.389999999998 68.6699951828913 L164.389999999998 70.6700048171088 A6 6 0 0 1 158.390006702064 76.6699999999963 L145.25 76.6700000000001 Z" style="fill:rgb(255,255,255);" />
<path d=" M189.79 26.6700000000001 L226.65 26.6700000000001 L226.65 36.6700000000001 L200.79 36.6700000000001 L200.79 52.6700000000001 L218.08 52.6700000000001 L218.08 62.6700000000001 L200.79 62.6700000000001 L200.79 76.6700000000001 L226.65 76.6700000000001 L226.65 86.6700000000001 L189.79 86.6700000000001 Z" style="fill:rgb(255,255,255);" />
<path d=" M249.02 26.6700000000001 L260.34 26.6700000000001 L269.77 65.49 L279.2 26.6700000000001 L290.52 26.6700000000001 L305.09 86.6700000000001 L294.8 86.6700000000001 L285.38 47.8500000000001 L275.95 86.6700000000001 L264.63 86.6700000000001 L255.2 47.8500000000001 L245.77 86.6700000000001 L234.45 86.6700000000001 Z" style="fill:rgb(255,255,255);" />
<path d=" M312.29 67.3000000000002 L312.29 46.040003231128 A20.57 20.57 0 0 1 353.43 46.0399967688719 L353.43 67.3000000000002 A20.57 20.57 0 0 1 312.29 67.3000000000002 Z M323.29 68.3000000000002 L323.29 45.0400016702801 A9.57 9.57 0 0 1 342.43 45.0399983297199 L342.43 68.3000000000002 A9.57 9.57 0 0 1 323.29 68.3000000000002 Z" style="fill:rgb(255,255,255);" />
<path d=" M366.64 26.6700000000001 L376.64 26.6700000000001 L376.64 66.52 L394.93 26.6700000000001 L407.78 26.6700000000001 L407.78 86.6700000000001 L397.78 86.6700000000001 L397.78 46.8200000000002 L379.5 86.6700000000001 L366.64 86.6700000000001 Z" style="fill:rgb(255,255,255);" />
<path d=" M422.78 26.6700000000001 L459.64 26.6700000000001 L459.64 36.6700000000001 L433.78 36.6700000000001 L433.78 52.6700000000001 L451.07 52.6700000000001 L451.07 62.6700000000001 L433.78 62.6700000000001 L433.78 76.6700000000001 L459.64 76.6700000000001 L459.64 86.6700000000001 L422.78 86.6700000000001 Z" style="fill:rgb(255,255,255);" />
<path d=" M471.64 26.6700000000001 L482.64 26.6700000000001 L482.64 52.6700000000001 L488.43 52.6700000000001 L503.5 26.6700000000001 L516.21 26.6700000000001 L500.84062438766 53.1938464215963 A16 16 0 0 1 512.779999999995 68.6700128456234 L512.779999999995 70.6700128456234 A16 16 0 0 1 496.780017872172 86.6699999999901 L471.64 86.6700000000001 Z M482.64 62.6700000000001 L495.780006702064 62.6700000000038 A6 6 0 0 1 501.779999999998 68.6699951828913 L501.779999999998 70.6700048171088 A6 6 0 0 1 495.780006702064 76.6699999999963 L482.64 76.6700000000001 Z" style="fill:rgb(255,255,255);" />
<path d=" M524.61 41.73 L524.61 43.8100000000002 L535.61 43.8100000000002 L535.61 41.7299990784662 A4.8 4.8 0 0 1 538.951030546124 37.1571006863634 L538.952035046109 37.1494325765591 A20.49 20.49 0 0 1 551.407964953891 37.1494325765591 L551.40897296561 37.1571018067729 A4.8 4.8 0 0 1 551.978570389715 46.0802761031884 L551.98 46.0800000000002 L534.849591589877 58.4600694702491 A15.05 15.05 0 0 0 537.46194713826 86.6758224380515 L537.464689277762 86.6739060866967 A30.98 30.98 0 0 0 552.895324861245 86.6739024509389 L552.898077029364 86.6758162235245 A15.05 15.05 0 0 0 564.199999999999 72.100004465425 L564.19 72.1000000000001 L553.2 72.0999983035401 A4.05 4.05 0 0 1 550.158621542284 76.0223950061719 L550.155860871593 76.0204834199705 A19.98 19.98 0 0 1 540.204146896189 76.0204854174075 L540.201387151974 76.0223972418406 A4.05 4.05 0 0 1 539.498395655571 68.4294536417405 L539.5 68.4300000000001 L556.627380781839 56.0496573246126 A15.8 15.8 0 0 0 554.752449263171 26.6775423576526 L554.751424482919 26.669867777495 A31.49 31.49 0 0 0 535.608562950656 26.6698717867665 L535.607553626693 26.6775414356488 A15.8 15.8 0 0 0 524.61 41.7300027576202 Z" style="fill:rgb(255,255,255);" />
</g>
</svg>
