<?xml version="1.0" encoding="UTF-8"?>
<!DOCTYPE svg PUBLIC '-//W3C//DTD SVG 1.0//EN' 'http://www.w3.org/TR/2001/REC-SVG-20010904/DTD/svg10.dtd'>
<svg xmlns:xlink="http://www.w3.org/1999/xlink" xmlns="http://www.w3.org/2000/svg" width="700" height="200">
<!--Gegenereerd door de SIMaD-toepassing (http://www.dlw.be).-->
<g style="stroke:none;fill-rule:evenodd;" transform="matrix(1,0,0,-1,0,200)">
<path d=" M45 0 L655 0 A45 45 0 0 1 700 45 L700 155 A45 45 0 0 1 655 200 L45 200 A45 45 0 0 1 0 155 L0 45 A45 45 0 0 1 45 0 Z" style="fill:rgb(0,0,255);" />
<path d=" M71.43 139.99 L71.4300000000001 78.2800015952311 A9.14 9.14 0 0 1 89.7099999999998 78.2799984047693 L89.71 139.99 L101.14 139.99 L101.14 79.4299964098576 A20.57 20.57 0 0 0 60.0000000000003 79.4300035901421 L60 139.99 Z" style="fill:rgb(255,255,255);" />
<path d=" M116.33 60 L127.76 60 L127.76 139.99 L116.33 139.99 Z" style="fill:rgb(255,255,255);" />
<path d=" M153.02 60 L153.02 129.71 L138.16 129.71 L138.16 139.99 L179.3 139.99 L179.3 129.71 L164.44 129.71 L164.44 60 Z" style="fill:rgb(255,255,255);" />
<path d=" M216.21 95.4200000000001 L216.21 78.2799984047693 A9.14 9.14 0 0 0 197.93 78.2800015952311 L197.93 121.709998404769 A9.14 9.14 0 0 0 216.21 121.710001595231 L216.21 120.56 L227.64 120.560003590142 A20.57 20.57 0 0 1 186.5 120.559996409858 L186.5 79.4300035901421 A20.57 20.57 0 0 1 227.64 79.4299964098576 L227.64 105.71 L207.07 105.71 L207.07 95.4200000000001 Z" style="fill:rgb(255,255,255);" />
<path d=" M242.03 60 L242.03 139.99 L279.74 139.99 L279.74 129.71 L253.46 129.71 L253.46 105.14 L270.6 105.14 L270.6 94.8499999999999 L253.46 94.8499999999999 L253.46 70.2800000000002 L279.74 70.2800000000002 L279.74 60 Z" style="fill:rgb(255,255,255);" />
<path d=" M289.34 60 L289.34 70.2800000000002 L316.75 129.71 L290.48 129.71 L290.48 139.99 L329.34 139.99 L329.34 129.71 L301.92 70.2800000000002 L330.48 70.2800000000002 L330.48 60 Z" style="fill:rgb(255,255,255);" />
<path d=" M349.91 64.8600000000001 A4.86 4.86 0 0 1 340.19 64.8600000000001 A4.86 4.86 0 0 1 349.91 64.8600000000001 Z" style="fill:rgb(255,255,255);" />
<path d=" M367 76.5500000000002 L435.57 76.5500000000002 L435.57 94.8800000000001 L367 94.8800000000001 Z" style="fill:rgb(255,255,255);" />
<path d=" M478.91 92.8600000000001 L478.91 109.52 L488.100013962634 109.520000000008 A12.5 12.5 0 0 1 500.599999999996 122.019989964357 L500.61 122.019998771288 A14.08 14.08 0 0 1 472.573941433108 123.884089396324 L472.57 123.89 L454.240000000001 123.890006185098 A27.26 27.26 0 0 0 473.666886720443 150.000341559421 L473.674051287201 149.993146707026 A44.74 44.74 0 0 0 499.385968158939 149.993140873177 L499.383123305208 150.000338551719 A27.26 27.26 0 0 0 506.344787486933 100.994108158525 L506.34621311213 100.988985154867 A28.15 28.15 0 0 0 502.47984750036 50.0083189491327 L502.482451897342 50.0026531565128 A45.73 45.73 0 0 0 470.577542118643 50.0026553838957 L470.570116584768 50.0083323174735 A28.15 28.15 0 0 0 452.240000000003 76.3899872259351 L471.052306052068 76.5072749833211 A15.95 15.95 0 0 1 502.48 80.3599991648601 A12.5 12.5 0 0 1 489.980013962634 92.8599999999923 Z" style="fill:rgb(255,255,255);" />
<path d=" M535.8 120.57 L541.72 120.57 L541.710000000004 93.190009898984 A13.19 13.19 0 0 1 554.900009668775 80.0000000000036 L565.38 80 L565.38 90.1399999999999 L556.590002228436 90.1500000000009 A3.04 3.04 0 0 0 553.550000000001 93.1900022814945 L553.55 120.57 L565.38 120.57 L565.38 130.71 L553.55 130.71 L553.55 151 L541.72 144.17 L541.72 130.71 L535.8 130.71 Z" style="fill:rgb(255,255,255);" />
<path d=" M581.83 71.4299999999998 L590.595074472303 71.4304464650652 A7.98 7.98 0 0 0 605.52 67.4999998607227 L605.519999999999 65.0000030641 A7.98 7.98 0 0 0 589.853376954267 62.8561189042291 L589.86 62.8600000000001 L580.739047394203 62.8577158819238 A17.14 17.14 0 1 1 590.993482489393 82.0905400313032 L591 82.0900000000001 L591 91.6700000000001 L611.11 91.6700000000001 L611.11 100 L581.83 100 Z" style="fill:rgb(255,255,255);" />
</g>
</svg>
