<?xml version="1.0" encoding="UTF-8"?>
<!DOCTYPE svg PUBLIC '-//W3C//DTD SVG 1.0//EN' 'http://www.w3.org/TR/2001/REC-SVG-20010904/DTD/svg10.dtd'>
<svg xmlns:xlink="http://www.w3.org/1999/xlink" xmlns="http://www.w3.org/2000/svg" width="700.000000002976" height="200.000000000025">
<!--Gegenereerd door de SIMaD-toepassing (http://www.dlw.be).-->
<g style="stroke:none;fill-rule:evenodd;" transform="matrix(1,0,0,-1,0,200.000000000025)">
<path d=" M45 0 L654.999966227879 1.26760824059602E-11 A45 45 0 0 1 699.999999999987 45.000033772121 L699.999999999888 154.999899469035 A45 45 0 0 1 655.000033772121 199.999999999987 L45.000033772121 199.999999999987 A45 45 0 0 1 1.26760824059602E-11 154.999966227879 L1.26760824059602E-11 45.000033772121 A45 45 0 0 1 45.000033772121 1.26760824059602E-11 Z" style="fill:rgb(0,0,255);" />
<path d=" M107.43 140 L107.43 78.2900015952309 A9.14 9.14 0 0 1 125.71 78.289998404769 L125.71 140 L137.14 140 L137.14 79.4299964098576 A20.57 20.57 0 0 0 96.0000000000003 79.4300035901421 L96 140 Z" style="fill:rgb(255,255,255);" />
<path d=" M152.34 60 L163.77 60 L163.77 140 L152.34 140 Z" style="fill:rgb(255,255,255);" />
<path d=" M189.03 60 L189.03 129.71 L174.17 129.71 L174.17 140 L215.31 140 L215.31 129.71 L200.46 129.71 L200.46 60 Z" style="fill:rgb(255,255,255);" />
<path d=" M252.22 95.4299999999998 L252.22 78.289998404769 A9.14 9.14 0 0 0 233.94 78.2900015952309 L233.94 121.709998404769 A9.14 9.14 0 0 0 252.22 121.710001595231 L252.22 120.57 L263.65 120.570003590142 A20.57 20.57 0 0 1 222.51 120.569996409858 L222.51 79.4300035901421 A20.57 20.57 0 0 1 263.65 79.4299964098576 L263.65 105.71 L243.08 105.71 L243.08 95.4299999999998 Z" style="fill:rgb(255,255,255);" />
<path d=" M278.06 60 L278.06 140 L315.77 140 L315.77 129.71 L289.49 129.71 L289.49 105.14 L306.63 105.14 L306.63 94.8600000000001 L289.49 94.8600000000001 L289.49 70.29 L315.77 70.29 L315.77 60 Z" style="fill:rgb(255,255,255);" />
<path d=" M325.37 60 L325.37 70.29 L352.78 129.71 L326.51 129.71 L326.51 140 L365.37 140 L365.37 129.71 L337.96 70.29 L366.51 70.29 L366.51 60 Z" style="fill:rgb(255,255,255);" />
<path d=" M385.95 64.8600000000001 A4.86 4.86 0 0 1 376.23 64.8600000000001 A4.86 4.86 0 0 1 385.95 64.8600000000001 Z" style="fill:rgb(255,255,255);" />
<path d=" M403 76.5500000000002 L471.57 76.5500000000002 L471.57 94.8800000000001 L403 94.8800000000001 Z" style="fill:rgb(255,255,255);" />
<path d=" M491.1 92.8600000000001 L508.648851858801 92.8559675586202 A15.95 15.95 0 0 0 538.48 84.99999972162 L538.479999999999 80.0000061243603 A15.95 15.95 0 0 0 507.16638626824 75.7149243762473 L507.16 75.71 L488.91829259902 75.713452601585 A34.29 34.29 0 1 1 509.433145540332 114.190321917934 L509.43 114.19 L509.43 133.33 L549.67 133.33 L549.67 150 L491.1 150 Z" style="fill:rgb(255,255,255);" />
<path d=" M571 95.71 L577.67 95.71 L577.660000000004 64.860011152305 A14.86 14.86 0 0 1 592.520010892949 50.0000000000041 L604.33 50 L604.33 61.4299999999998 L594.430002514321 61.430000000001 A3.43 3.43 0 0 0 591.000000000001 64.8600025741862 L591 95.71 L604.33 95.71 L604.33 107.14 L591 107.14 L591 130 L577.67 122.3 L577.67 107.14 L571 107.14 Z" style="fill:rgb(255,255,255);" />
</g>
</svg>
