<?xml version="1.0" encoding="UTF-8"?>
<!DOCTYPE svg PUBLIC '-//W3C//DTD SVG 1.0//EN' 'http://www.w3.org/TR/2001/REC-SVG-20010904/DTD/svg10.dtd'>
<svg xmlns:xlink="http://www.w3.org/1999/xlink" xmlns="http://www.w3.org/2000/svg" width="700" height="200">
<!--Gegenereerd door de SIMaD-toepassing (http://www.dlw.be).-->
<g style="stroke:none;fill-rule:evenodd;" transform="matrix(1,0,0,-1,0,200)">
<path d=" M45 0 L655 0 A45 45 0 0 1 700 45 L700 155 A45 45 0 0 1 655 200 L45 200 A45 45 0 0 1 0 155 L0 45 A45 45 0 0 1 45 0 Z" style="fill:rgb(0,0,255);" />
<path d=" M55.99 173.33 L55.9900000000002 132.700003231128 A20.57 20.57 0 0 1 97.1299999999998 132.699996768872 L97.13 173.33 L86.13 173.33 L86.1299999999999 131.69999832972 A9.57 9.57 0 0 0 66.9900000000002 131.70000167028 L66.99 173.33 Z" style="fill:rgb(255,255,255);" />
<path d=" M110.93 113.33 L121.93 113.33 L121.93 173.33 L110.93 173.33 Z" style="fill:rgb(255,255,255);" />
<path d=" M147.8 113.33 L158.8 113.33 L158.8 163.33 L173.87 163.33 L173.87 173.33 L132.73 173.33 L132.73 163.33 L147.8 163.33 Z" style="fill:rgb(255,255,255);" />
<path d=" M211.21 131.7 L211.21 139.33 L201.64 139.33 L201.64 149.33 L222.21 149.33 L222.21 132.699996050844 A20.57 20.57 0 1 0 181.07 132.700003949156 L181.07 153.960001795071 A20.57 20.57 0 0 0 221.49639904747 159.331062917862 L221.5 159.33 L210.153588410812 159.330779378016 A9.57 9.57 0 0 1 192.07 154.959997160524 L192.07 131.70000167028 A9.57 9.57 0 0 1 211.21 131.69999832972 Z" style="fill:rgb(255,255,255);" />
<path d=" M235.41 113.33 L272.27 113.33 L272.27 123.33 L246.41 123.33 L246.41 139.33 L263.7 139.33 L263.7 149.33 L246.41 149.33 L246.41 163.33 L272.27 163.33 L272.27 173.33 L235.41 173.33 Z" style="fill:rgb(255,255,255);" />
<path d=" M281.27 113.33 L322.41 113.33 L322.41 123.33 L293.81 123.33 L321.21 163.33 L321.21 173.33 L282.47 173.33 L282.47 163.33 L308.67 163.33 L281.27 123.33 Z" style="fill:rgb(255,255,255);" />
<path d=" M333.81 153.96 L333.81 132.700003231128 A20.57 20.57 0 0 1 374.95 132.699996768872 L374.95 153.96 A20.57 20.57 0 0 1 333.81 153.96 Z M344.81 154.96 L344.81 131.70000167028 A9.57 9.57 0 0 1 363.95 131.69999832972 L363.95 154.96 A9.57 9.57 0 0 1 344.81 154.96 Z" style="fill:rgb(255,255,255);" />
<path d=" M388.16 113.33 L398.16 113.33 L398.16 153.18 L416.45 113.33 L429.3 113.33 L429.3 173.33 L419.3 173.33 L419.3 133.48 L401.02 173.33 L388.16 173.33 Z" style="fill:rgb(255,255,255);" />
<path d=" M444.3 113.33 L469.440017872172 113.33000000001 A16 16 0 0 1 485.439999999995 129.329987154377 L485.439999999995 157.330012845623 A16 16 0 0 1 469.440017872172 173.32999999999 L444.3 173.33 Z M455.3 123.33 L468.440006702064 123.330000000004 A6 6 0 0 1 474.439999999998 129.329995182891 L474.439999999998 157.330004817109 A6 6 0 0 1 468.440006702064 163.329999999996 L455.3 163.33 Z" style="fill:rgb(255,255,255);" />
<path d=" M498.64 113.33 L535.5 113.33 L535.5 123.33 L509.64 123.33 L509.64 139.33 L526.93 139.33 L526.93 149.33 L509.64 149.33 L509.64 163.33 L535.5 163.33 L535.5 173.33 L498.64 173.33 Z" style="fill:rgb(255,255,255);" />
<path d=" M547.5 113.33 L558.5 113.33 L558.5 139.33 L564.29 139.33 L579.36 113.33 L592.07 113.33 L576.70062438766 139.853846421596 A16 16 0 0 1 588.639999999995 155.330012845623 L588.639999999995 157.330012845623 A16 16 0 0 1 572.640017872171 173.32999999999 L547.5 173.33 Z M558.5 149.33 L571.640006702064 149.330000000004 A6 6 0 0 1 577.639999999998 155.329995182891 L577.639999999998 157.330004817109 A6 6 0 0 1 571.640006702064 163.329999999996 L558.5 163.33 Z" style="fill:rgb(255,255,255);" />
<path d=" M602.87 113.33 L628.010017872172 113.33000000001 A16 16 0 0 1 644.009999999995 129.329987154377 L644.009999999995 157.330012845623 A16 16 0 0 1 628.010017872172 173.32999999999 L602.87 173.33 Z M613.87 123.33 L627.010006702064 123.330000000004 A6 6 0 0 1 633.009999999998 129.329995182891 L633.009999999998 157.330004817109 A6 6 0 0 1 627.010006702064 163.329999999996 L613.87 163.33 Z" style="fill:rgb(255,255,255);" />
<path d=" M202.99 26.67 L228.130017872172 26.67000000001 A16 16 0 0 1 244.129999999995 42.6699871543767 L244.129999999995 70.6700128456233 A16 16 0 0 1 228.130017872172 86.66999999999 L202.99 86.67 Z M213.99 36.67 L227.130006702064 36.6700000000037 A6 6 0 0 1 233.129999999998 42.6699951828913 L233.129999999998 70.6700048171087 A6 6 0 0 1 227.130006702064 76.6699999999963 L213.99 76.67 Z" style="fill:rgb(255,255,255);" />
<path d=" M257.33 26.67 L294.19 26.67 L294.19 36.67 L268.33 36.67 L268.33 52.67 L285.62 52.67 L285.62 62.67 L268.33 62.67 L268.33 76.67 L294.19 76.67 L294.19 86.67 L257.33 86.67 Z" style="fill:rgb(255,255,255);" />
<path d=" M337.04 26.67 L371.33 26.67 L371.33 36.67 L348.04 36.67 L348.04 86.67 L337.04 86.67 Z" style="fill:rgb(255,255,255);" />
<path d=" M381.53 26.67 L392.53 26.67 L392.53 86.67 L381.53 86.67 Z" style="fill:rgb(255,255,255);" />
<path d=" M431.07 45.04 L431.07 86.67 L442.07 86.67 L442.07 46.0399960508435 A20.57 20.57 0 1 0 400.93 46.0400039491565 L411.93 46.04 L411.93 45.0400016702801 A9.57 9.57 0 0 1 431.07 45.0399983297199 Z" style="fill:rgb(255,255,255);" />
<path d=" M455.87 26.67 L465.87 26.67 L465.87 66.52 L484.16 26.67 L497.01 26.67 L497.01 86.67 L487.01 86.67 L487.01 46.82 L468.73 86.67 L455.87 86.67 Z" style="fill:rgb(255,255,255);" />
</g>
</svg>
