<?xml version="1.0" encoding="UTF-8"?>
<!DOCTYPE svg PUBLIC '-//W3C//DTD SVG 1.0//EN' 'http://www.w3.org/TR/2001/REC-SVG-20010904/DTD/svg10.dtd'>
<svg xmlns:xlink="http://www.w3.org/1999/xlink" xmlns="http://www.w3.org/2000/svg" width="700" height="200">
<!--Gegenereerd door de SIMaD-toepassing (http://www.dlw.be).-->
<g style="stroke:none;fill-rule:evenodd;" transform="matrix(1,0,0,-1,0,200)">
<path d=" M45 0 L655 0 A45 45 0 0 1 700 45 L700 155 A45 45 0 0 1 655 200 L45 200 A45 45 0 0 1 0 155 L0 45 A45 45 0 0 1 45 0 Z" style="fill:rgb(0,0,255);" />
<path d=" M135.54 173.33 L135.54 127.040001077566 A6.86 6.86 0 0 1 149.26 127.039998922434 L149.26 173.33 L157.83 173.33 L157.83 127.899997306957 A15.43 15.43 0 0 0 126.97 127.900002693043 L126.97 173.33 Z" style="fill:rgb(255,255,255);" />
<path d=" M169.23 113.33 L177.8 113.33 L177.8 173.33 L169.23 173.33 Z" style="fill:rgb(255,255,255);" />
<path d=" M196.74 113.33 L196.74 165.62 L185.6 165.62 L185.6 173.33 L216.46 173.33 L216.46 165.62 L205.31 165.62 L205.31 113.33 Z" style="fill:rgb(255,255,255);" />
<path d=" M244.15 139.9 L244.15 127.039998682975 A6.86 6.86 0 1 0 230.43 127.040001317025 L230.43 159.619998682974 A6.86 6.86 0 0 0 244.15 159.620001317025 L244.15 158.76 L252.72 158.760002693043 A15.43 15.43 0 0 1 221.86 158.759997306957 L221.86 127.900002693043 A15.43 15.43 0 0 1 252.72 127.899997306957 L252.72 147.62 L237.29 147.62 L237.29 139.9 Z" style="fill:rgb(255,255,255);" />
<path d=" M263.51 113.33 L263.51 173.33 L291.8 173.33 L291.8 165.62 L272.08 165.62 L272.08 147.19 L284.94 147.19 L284.94 139.47 L272.08 139.47 L272.08 121.04 L291.8 121.04 L291.8 113.33 Z" style="fill:rgb(255,255,255);" />
<path d=" M299 113.33 L299 121.04 L319.56 165.62 L299.86 165.62 L299.86 173.33 L329 173.33 L329 165.62 L308.44 121.04 L329.86 121.04 L329.86 113.33 Z" style="fill:rgb(255,255,255);" />
<path d=" M338.26 127.9 L338.26 158.759997306957 A15.43 15.43 0 0 0 369.12 158.760002693043 L369.12 127.9 A15.43 15.43 0 0 0 338.26 127.9 Z M346.83 127.04 L346.83 159.619998682974 A6.86 6.86 0 0 0 360.55 159.620001317025 L360.55 127.04 A6.86 6.86 0 0 0 346.83 127.04 Z" style="fill:rgb(255,255,255);" />
<path d=" M379.91 113.33 L379.91 173.33 L388.91 173.33 L403.05 134.73 L403.05 173.33 L410.77 173.33 L410.77 113.33 L401.77 113.33 L387.62 151.93 L387.62 113.33 Z" style="fill:rgb(255,255,255);" />
<path d=" M422.77 113.33 L439.910015314217 113.330000000009 A13.71 13.71 0 0 1 453.619999999996 127.039988992906 L453.63 127.04 L453.619999999996 159.620011007093 A13.71 13.71 0 0 1 439.910015314217 173.329999999991 L422.77 173.33 Z M431.34 121.04 L439.060006702064 121.040000000004 A6 6 0 0 1 445.059999999998 127.039995182891 L445.059999999998 159.620004817109 A6 6 0 0 1 439.060006702064 165.619999999996 L431.34 165.62 Z" style="fill:rgb(255,255,255);" />
<path d=" M464.43 113.33 L464.43 173.33 L492.72 173.33 L492.72 165.62 L473 165.62 L473 147.19 L485.86 147.19 L485.86 139.47 L473 139.47 L473 121.04 L492.72 121.04 L492.72 113.33 Z" style="fill:rgb(255,255,255);" />
<path d=" M501.71 113.33 L501.71 173.33 L518.850015314217 173.329999999991 A13.71 13.71 0 0 0 532.559999999996 159.620011007093 L532.57 159.62 L532.559999999997 153.620009571386 A13.71 13.71 0 0 0 521.428075194955 140.154576564803 L521.43 140.15 L533.77 113.33 L524.33 113.33 L512.11 139.9 L510.28 139.9 L510.28 113.33 Z M510.28 165.62 L518.000006702064 165.619999999996 A6 6 0 0 0 523.999999999998 159.620004817109 L523.999999999998 153.619995182891 A6 6 0 0 0 518.000006702064 147.620000000004 L510.28 147.62 Z" style="fill:rgb(255,255,255);" />
<path d=" M542.17 113.33 L559.310015314217 113.330000000009 A13.71 13.71 0 0 1 573.019999999996 127.039988992906 L573.03 127.04 L573.019999999996 159.620011007093 A13.71 13.71 0 0 1 559.310015314217 173.329999999991 L542.17 173.33 Z M550.74 121.04 L558.460006702064 121.040000000004 A6 6 0 0 1 564.459999999998 127.039995182891 L564.459999999998 159.620004817109 A6 6 0 0 1 558.460006702064 165.619999999996 L550.74 165.62 Z" style="fill:rgb(255,255,255);" />
<path d=" M60.41 26.6700000000001 L77.550015314217 26.6700000000087 A13.71 13.71 0 0 1 91.2599999999956 40.3799889929066 L91.27 40.3800000000001 L91.2599999999956 72.9600110070935 A13.71 13.71 0 0 1 77.550015314217 86.6699999999915 L60.41 86.6700000000001 Z M68.98 34.3800000000001 L76.7000067020643 34.3800000000039 A6 6 0 0 1 82.6999999999981 40.3799951828914 L82.6999999999981 72.9600048171088 A6 6 0 0 1 76.7000067020643 78.9599999999963 L68.98 78.96 Z" style="fill:rgb(255,255,255);" />
<path d=" M102.07 26.6700000000001 L110.64 26.6700000000001 L110.64 86.6700000000001 L102.07 86.6700000000001 Z" style="fill:rgb(255,255,255);" />
<path d=" M122.64 26.6700000000001 L122.64 86.6700000000001 L150.93 86.6700000000001 L150.93 78.96 L131.21 78.96 L131.21 60.53 L144.07 60.53 L144.07 52.8100000000002 L131.21 52.8100000000002 L131.21 34.3800000000001 L150.93 34.3800000000001 L150.93 26.6700000000001 Z" style="fill:rgb(255,255,255);" />
<path d=" M159.93 26.6700000000001 L159.93 86.6700000000001 L168.93 86.6700000000001 L183.07 48.0700000000002 L183.07 86.6700000000001 L190.79 86.6700000000001 L190.79 26.6700000000001 L181.79 26.6700000000001 L167.64 65.27 L167.64 26.6700000000001 Z" style="fill:rgb(255,255,255);" />
<path d=" M201.59 43.8100000000002 L201.590000000001 41.240006193999 A15.43 15.43 0 1 1 227.93065877627 52.150656491147 L227.93 52.1500000000001 L212.777360349554 68.7173582762082 A6 6 0 1 0 223.02 72.9599996858408 L231.59 72.9599992371166 A14.57 14.57 0 1 1 206.717456715499 62.6574516807255 L206.72 62.6500000000001 L221.870753026909 46.0907520109701 A6.86 6.86 0 1 0 210.160000000001 41.2400027537805 L210.16 43.8100000000002 Z" style="fill:rgb(255,255,255);" />
<path d=" M248.98 26.6700000000001 L248.98 78.96 L237.84 78.96 L237.84 86.6700000000001 L268.7 86.6700000000001 L268.7 78.96 L257.55 78.96 L257.55 26.6700000000001 Z" style="fill:rgb(255,255,255);" />
<path d=" M274.7 86.6700000000001 L287.56 26.6700000000001 L297.84 26.6700000000001 L310.7 86.6700000000001 L301.93 86.6700000000001 L292.7 44.6700000000001 L283.47 86.6700000000001 Z" style="fill:rgb(255,255,255);" />
<path d=" M316.1 41.24 L316.1 72.0999973069571 A15.43 15.43 0 0 0 346.96 72.1000026930432 L346.96 41.24 A15.43 15.43 0 0 0 316.1 41.24 Z M324.67 40.3800000000001 L324.67 72.9599986829746 A6.86 6.86 0 0 0 338.39 72.9600013170255 L338.39 40.3800000000001 A6.86 6.86 0 0 0 324.67 40.3800000000001 Z" style="fill:rgb(255,255,255);" />
<path d=" M357.76 26.6700000000001 L357.76 86.6700000000001 L386.05 86.6700000000001 L386.05 78.96 L366.33 78.96 L366.33 60.53 L379.19 60.53 L379.19 52.8100000000002 L366.33 52.8100000000002 L366.33 34.3800000000001 L386.05 34.3800000000001 L386.05 26.6700000000001 Z" style="fill:rgb(255,255,255);" />
<path d=" M395.04 26.6700000000001 L395.04 86.6700000000001 L412.180015314217 86.6699999999915 A13.71 13.71 0 0 0 425.889999999996 72.9600110070935 L425.9 72.96 L425.889999999997 66.9600095713857 A13.71 13.71 0 0 0 414.758075194955 53.4945765648028 L414.76 53.49 L427.1 26.6700000000001 L417.66 26.6700000000001 L405.44 53.24 L403.61 53.24 L403.61 26.6700000000001 Z M403.61 78.96 L411.330006702064 78.9599999999963 A6 6 0 0 0 417.329999999998 72.9600048171088 L417.329999999998 66.9599951828913 A6 6 0 0 0 411.330006702064 60.9600000000038 L403.61 60.96 Z" style="fill:rgb(255,255,255);" />
<path d=" M441.84 26.6700000000001 L441.84 78.96 L430.7 78.96 L430.7 86.6700000000001 L461.56 86.6700000000001 L461.56 78.96 L450.41 78.96 L450.41 26.6700000000001 Z" style="fill:rgb(255,255,255);" />
<path d=" M476.73 86.6700000000001 L476.73 40.3800010775664 A6.86 6.86 0 0 1 490.45 40.3799989224338 L490.45 86.6700000000001 L499.02 86.6700000000001 L499.02 41.239997306957 A15.43 15.43 0 0 0 468.16 41.240002693043 L468.16 86.6700000000001 Z" style="fill:rgb(255,255,255);" />
<path d=" M510.41 26.6700000000001 L518.98 26.6700000000001 L518.98 86.6700000000001 L510.41 86.6700000000001 Z" style="fill:rgb(255,255,255);" />
<path d=" M552.08 53.24 L552.08 40.3799986829747 A6.86 6.86 0 1 0 538.36 40.3800013170256 L538.36 72.9599986829746 A6.86 6.86 0 0 0 552.08 72.9600013170255 L552.08 72.1000000000001 L560.65 72.1000026930432 A15.43 15.43 0 0 1 529.79 72.0999973069571 L529.79 41.240002693043 A15.43 15.43 0 0 1 560.65 41.239997306957 L560.65 60.96 L545.22 60.96 L545.22 53.24 Z" style="fill:rgb(255,255,255);" />
<path d=" M571.44 26.6700000000001 L571.44 86.6700000000001 L599.73 86.6700000000001 L599.73 78.96 L580.01 78.96 L580.01 60.53 L592.87 60.53 L592.87 52.8100000000002 L580.01 52.8100000000002 L580.01 34.3800000000001 L599.73 34.3800000000001 L599.73 26.6700000000001 Z" style="fill:rgb(255,255,255);" />
<path d=" M608.73 26.6700000000001 L608.73 86.6700000000001 L617.73 86.6700000000001 L631.87 48.0700000000002 L631.87 86.6700000000001 L639.59 86.6700000000001 L639.59 26.6700000000001 L630.59 26.6700000000001 L616.44 65.27 L616.44 26.6700000000001 Z" style="fill:rgb(255,255,255);" />
</g>
</svg>
