<?xml version="1.0" encoding="UTF-8"?>
<!DOCTYPE svg PUBLIC '-//W3C//DTD SVG 1.0//EN' 'http://www.w3.org/TR/2001/REC-SVG-20010904/DTD/svg10.dtd'>
<svg xmlns:xlink="http://www.w3.org/1999/xlink" xmlns="http://www.w3.org/2000/svg" width="700" height="200">
<!--Gegenereerd door de SIMaD-toepassing (http://www.dlw.be).-->
<g style="stroke:none;fill-rule:evenodd;" transform="matrix(1,0,0,-1,0,200)">
<path d=" M45 0 L655 0 A45 45 0 0 1 700 45 L700 155 A45 45 0 0 1 655 200 L45 200 A45 45 0 0 1 0 155 L0 45 A45 45 0 0 1 45 0 Z" style="fill:rgb(0,0,255);" />
<path d=" M178.44 165.33 L178.43 128.300000862367 A5.49 5.49 0 0 1 189.41 128.299999137633 L189.41 165.33 L196.27 165.33 L196.26 128.989997846264 A12.34 12.34 0 0 0 171.58 128.990002153736 L171.58 165.33 Z" style="fill:rgb(255,255,255);" />
<path d=" M205.38 117.33 L212.24 117.33 L212.24 165.33 L205.38 165.33 Z" style="fill:rgb(255,255,255);" />
<path d=" M227.39 117.33 L227.39 159.16 L218.48 159.16 L218.48 165.33 L243.17 165.33 L243.17 159.16 L234.25 159.16 L234.25 117.33 Z" style="fill:rgb(255,255,255);" />
<path d=" M265.32 138.59 L265.32 128.299998945996 A5.49 5.49 0 1 0 254.34 128.300001054004 L254.35 128.3 L254.34 154.359998945996 A5.49 5.49 0 0 0 265.32 154.360001054004 L265.32 153.67 L272.17 153.670002153736 A12.34 12.34 0 0 1 247.49 153.669997846264 L247.49 128.990002153736 A12.34 12.34 0 0 1 272.17 128.989997846264 L272.18 128.99 L272.18 144.76 L259.83 144.76 L259.83 138.59 Z" style="fill:rgb(255,255,255);" />
<path d=" M280.81 117.33 L280.81 165.33 L303.44 165.33 L303.44 159.16 L287.67 159.16 L287.67 144.42 L297.95 144.42 L297.95 138.24 L287.67 138.24 L287.67 123.5 L303.44 123.5 L303.44 117.33 Z" style="fill:rgb(255,255,255);" />
<path d=" M309.2 117.33 L309.2 123.5 L325.65 159.16 L309.89 159.16 L309.89 165.33 L333.2 165.33 L333.2 159.16 L316.75 123.5 L333.89 123.5 L333.89 117.33 Z" style="fill:rgb(255,255,255);" />
<path d=" M340.61 128.99 L340.61 153.669997846264 A12.34 12.34 0 0 0 365.29 153.670002153736 L365.3 153.67 L365.29 128.99 A12.34 12.34 0 0 0 340.61 128.99 Z M347.47 128.3 L347.46 154.359998945996 A5.49 5.49 0 0 0 358.44 154.360001054004 L358.44 128.3 A5.49 5.49 0 0 0 347.46 128.3 Z" style="fill:rgb(255,255,255);" />
<path d=" M373.93 117.33 L373.93 165.33 L381.13 165.33 L392.44 134.45 L392.44 165.33 L398.62 165.33 L398.62 117.33 L391.42 117.33 L380.1 148.21 L380.1 117.33 Z" style="fill:rgb(255,255,255);" />
<path d=" M408.22 117.33 L421.930012253608 117.330000000007 A10.97 10.97 0 0 1 432.899999999996 128.29999119272 L432.91 128.3 L432.899999999996 154.36000880728 A10.97 10.97 0 0 1 421.930012253608 165.329999999993 L408.22 165.33 Z M415.08 123.5 L421.250005361651 123.500000000003 A4.8 4.8 0 0 1 426.049999999998 128.299996146313 L426.049999999998 154.360003853687 A4.8 4.8 0 0 1 421.250005361651 159.159999999997 L415.08 159.16 Z" style="fill:rgb(255,255,255);" />
<path d=" M441.54 117.33 L441.54 165.33 L464.17 165.33 L464.17 159.16 L448.4 159.16 L448.4 144.42 L458.68 144.42 L458.68 138.24 L448.4 138.24 L448.4 123.5 L464.17 123.5 L464.17 117.33 Z" style="fill:rgb(255,255,255);" />
<path d=" M471.37 117.33 L471.37 165.33 L485.080012253608 165.329999999993 A10.97 10.97 0 0 0 496.049999999996 154.36000880728 L496.06 154.36 L496.049999999997 149.560007658505 A10.97 10.97 0 0 0 487.14283624279 138.785696930408 L487.15 138.78 L497.02 117.33 L489.47 117.33 L479.69 138.59 L478.23 138.59 L478.23 117.33 Z M478.23 159.16 L484.400005361651 159.159999999997 A4.8 4.8 0 0 0 489.199999999998 154.360003853687 L489.199999999998 149.559996146313 A4.8 4.8 0 0 0 484.400005361651 144.760000000003 L478.23 144.76 Z" style="fill:rgb(255,255,255);" />
<path d=" M503.74 117.33 L517.450012253608 117.330000000007 A10.97 10.97 0 0 1 528.419999999997 128.29999119272 L528.43 128.3 L528.419999999997 154.36000880728 A10.97 10.97 0 0 1 517.450012253608 165.329999999993 L503.74 165.33 Z M510.6 123.5 L516.770005361651 123.500000000003 A4.8 4.8 0 0 1 521.569999999998 128.299996146313 L521.569999999998 154.360003853687 A4.8 4.8 0 0 1 516.770005361651 159.159999999997 L510.6 159.16 Z" style="fill:rgb(255,255,255);" />
<path d=" M41.15 34.67 L41.15 82.67 L54.8600122536076 82.6699999999931 A10.97 10.97 0 0 0 65.8299999999965 71.7000088072804 L65.84 71.6999999999999 L65.8299999999965 66.8999911927195 A10.97 10.97 0 0 0 54.8600122536076 55.9300000000068 L48.01 55.9299999999999 L48.01 34.67 Z M48.01 76.5 L54.1800053616515 76.4999999999969 A4.8 4.8 0 0 0 58.9799999999985 71.7000038536869 L58.9799999999985 66.899996146313 A4.8 4.8 0 0 0 54.1800053616515 62.100000000003 L48.01 62.0999999999999 Z" style="fill:rgb(255,255,255);" />
<path d=" M72.56 34.67 L72.56 82.67 L79.42 82.67 L79.42 40.8399999999999 L93.13 40.8399999999999 L93.13 34.67 Z" style="fill:rgb(255,255,255);" />
<path d=" M98.41 34.67 L105.43 34.67 L106.65 40.16 L118.97 40.16 L120.19 34.67 L127.21 34.67 L116.58 82.67 L109.04 82.67 Z M108.01 46.3299999999999 L117.61 46.3299999999999 L112.81 67.9799999999999 Z" style="fill:rgb(255,255,255);" />
<path d=" M132.97 34.67 L139.99 34.67 L141.21 40.16 L153.53 40.16 L154.75 34.67 L161.77 34.67 L151.14 82.67 L143.6 82.67 Z M142.57 46.3299999999999 L152.17 46.3299999999999 L147.37 67.9799999999999 Z" style="fill:rgb(255,255,255);" />
<path d=" M170.68 34.67 L170.68 76.5 L161.77 76.5 L161.77 82.67 L186.46 82.67 L186.46 76.5 L177.54 76.5 L177.54 34.67 Z" style="fill:rgb(255,255,255);" />
<path d=" M190.78 48.38 L190.780000000001 46.3300049535934 A12.34 12.34 0 1 1 211.845698593595 55.0556967660889 L211.85 55.05 L199.725888279643 68.3058866209665 A4.8 4.8 0 1 0 207.92 71.6999997486725 L214.78 71.6999993894838 A11.66 11.66 0 1 1 194.875136945966 63.4551329167645 L194.88 63.4599999999999 L207.002016635238 50.2120158221903 A5.49 5.49 0 1 0 197.63 46.3300022038272 L197.64 46.3299999999999 L197.64 48.38 Z" style="fill:rgb(255,255,255);" />
<path d=" M224.1 34.67 L224.1 82.67 L246.73 82.67 L246.73 76.5 L230.96 76.5 L230.96 61.76 L241.24 61.76 L241.24 55.5799999999999 L230.96 55.5799999999999 L230.96 40.8399999999999 L246.73 40.8399999999999 L246.73 34.67 Z" style="fill:rgb(255,255,255);" />
<path d=" M253.93 34.67 L253.93 82.67 L260.79 82.67 L260.79 40.8399999999999 L274.5 40.8399999999999 L274.5 34.67 Z" style="fill:rgb(255,255,255);" />
<path d=" M280.74 34.67 L287.6 34.67 L287.6 82.67 L280.74 82.67 Z" style="fill:rgb(255,255,255);" />
<path d=" M300.22 46.3299999999999 L293.36 46.3300021537362 A12.34 12.34 0 0 1 318.04 46.3299978462636 L318.05 46.3299999999999 L318.05 82.67 L311.19 82.67 L311.19 45.6399989459957 A5.49 5.49 0 1 0 300.21 45.6400010540043 L300.22 45.64 Z" style="fill:rgb(255,255,255);" />
<path d=" M327.17 34.67 L327.17 82.67 L334.03 82.67 L334.03 65.4699999999999 L343.94 82.67 L351.86 82.67 L338.51 59.4699999999999 L352.82 34.67 L344.9 34.67 L334.03 53.52 L334.03 34.67 Z" style="fill:rgb(255,255,255);" />
<path d=" M359.05 34.67 L359.05 82.67 L381.68 82.67 L381.68 76.5 L365.91 76.5 L365.91 61.76 L376.19 61.76 L376.19 55.5799999999999 L365.91 55.5799999999999 L365.91 40.8399999999999 L381.68 40.8399999999999 L381.68 34.67 Z" style="fill:rgb(255,255,255);" />
<path d=" M406.64 34.67 L406.64 82.67 L420.350012253608 82.6699999999931 A10.97 10.97 0 0 0 431.319999999996 71.7000088072804 L431.33 71.6999999999999 L431.33 66.5600021781708 A9.6 9.6 0 0 0 427.531946237441 58.9116394006396 L427.53 58.91 L427.53354840949 58.8984513114024 A9.6 9.6 0 0 0 432.009999999996 50.7800088802352 L432.009999999996 45.6399911927195 A10.97 10.97 0 0 0 421.040012253608 34.6700000000068 Z M413.5 40.8399999999999 L420.350005361651 40.840000000003 A4.8 4.8 0 0 1 425.149999999998 45.639996146313 L425.149999999998 50.780003853687 A4.8 4.8 0 0 1 420.350005361651 55.579999999997 L413.5 55.5799999999999 Z M413.5 76.5 L419.670005361651 76.4999999999969 A4.8 4.8 0 0 0 424.469999999998 71.7000038536869 L424.469999999998 66.559996146313 A4.8 4.8 0 0 0 419.670005361651 61.7600000000029 L413.5 61.76 Z" style="fill:rgb(255,255,255);" />
<path d=" M440.65 34.67 L440.65 82.67 L463.28 82.67 L463.28 76.5 L447.51 76.5 L447.51 61.76 L457.79 61.76 L457.79 55.5799999999999 L447.51 55.5799999999999 L447.51 40.8399999999999 L463.28 40.8399999999999 L463.28 34.67 Z" style="fill:rgb(255,255,255);" />
<path d=" M470.48 34.67 L484.190012253608 34.6700000000068 A10.97 10.97 0 0 1 495.159999999996 45.6399911927195 L495.17 45.64 L495.159999999996 71.7000088072804 A10.97 10.97 0 0 1 484.190012253608 82.6699999999931 L470.48 82.67 Z M477.34 40.8399999999999 L483.510005361651 40.840000000003 A4.8 4.8 0 0 1 488.309999999998 45.639996146313 L488.309999999998 71.7000038536869 A4.8 4.8 0 0 1 483.510005361651 76.4999999999969 L477.34 76.5 Z" style="fill:rgb(255,255,255);" />
<path d=" M503.81 34.67 L510.67 34.67 L510.67 82.67 L503.81 82.67 Z" style="fill:rgb(255,255,255);" />
<path d=" M520.26 34.67 L520.26 82.67 L542.89 82.67 L542.89 76.5 L527.12 76.5 L527.12 61.76 L537.4 61.76 L537.4 55.5799999999999 L527.12 55.5799999999999 L527.12 40.8399999999999 L542.89 40.8399999999999 L542.89 34.67 Z" style="fill:rgb(255,255,255);" />
<path d=" M550.09 34.67 L550.09 82.67 L557.29 82.67 L568.6 51.79 L568.6 82.67 L574.78 82.67 L574.78 34.67 L567.58 34.67 L556.26 65.5499999999999 L556.26 34.67 Z" style="fill:rgb(255,255,255);" />
<path d=" M584.38 34.67 L591.24 34.67 L591.24 82.67 L584.38 82.67 Z" style="fill:rgb(255,255,255);" />
<path d=" M600.83 34.67 L600.83 82.67 L608.03 82.67 L619.34 51.79 L619.34 82.67 L625.52 82.67 L625.52 34.67 L618.32 34.67 L607 65.5499999999999 L607 34.67 Z" style="fill:rgb(255,255,255);" />
<path d=" M651.99 55.9299999999999 L651.99 45.6399989459957 A5.49 5.49 0 1 0 641.01 45.6400010540043 L641.02 45.64 L641.01 71.6999989459956 A5.49 5.49 0 0 0 651.99 71.7000010540043 L651.99 71.01 L658.84 71.0100021537363 A12.34 12.34 0 0 1 634.16 71.0099978462637 L634.16 46.3300021537362 A12.34 12.34 0 0 1 658.84 46.3299978462636 L658.85 46.3299999999999 L658.85 62.0999999999999 L646.5 62.0999999999999 L646.5 55.9299999999999 Z" style="fill:rgb(255,255,255);" />
</g>
</svg>
