<?xml version="1.0" encoding="UTF-8"?>
<!DOCTYPE svg PUBLIC '-//W3C//DTD SVG 1.0//EN' 'http://www.w3.org/TR/2001/REC-SVG-20010904/DTD/svg10.dtd'>
<svg xmlns:xlink="http://www.w3.org/1999/xlink" xmlns="http://www.w3.org/2000/svg" width="700" height="200">
<!--Gegenereerd door de SIMaD-toepassing (http://www.dlw.be).-->
<g style="stroke:none;fill-rule:evenodd;" transform="matrix(1,0,0,-1,0,200)">
<path d=" M45 0 L654.999996858407 1.06581410364015E-13 A45 45 0 0 1 700 45.0000031415927 L699.999999999999 154.99999136062 A45 45 0 0 1 655.000003141593 200 L45.0000031415927 200 A45 45 0 0 1 1.06581410364015E-13 154.999996858407 L1.06581410364015E-13 45.0000031415927 A45 45 0 0 1 45.0000031415927 1.06581410364015E-13 Z" style="fill:rgb(0,0,255);" />
<path d=" M153.41 170 L153.41 127.570000988031 A6.29 6.29 0 0 1 165.99 127.569999011969 L165.99 170 L173.84 170 L173.84 128.359997532105 A14.14 14.14 0 0 0 145.56 128.360002467896 L145.56 170 Z" style="fill:rgb(255,255,255);" />
<path d=" M184.29 115 L192.15 115 L192.15 170 L184.29 170 Z" style="fill:rgb(255,255,255);" />
<path d=" M209.51 115 L209.51 162.93 L199.3 162.93 L199.3 170 L227.59 170 L227.59 162.93 L217.37 162.93 L217.37 115 Z" style="fill:rgb(255,255,255);" />
<path d=" M252.96 139.36 L252.97 127.569998792407 A6.29 6.29 0 1 0 240.39 127.570001207593 L240.39 157.429998792407 A6.29 6.29 0 0 0 252.97 157.430001207593 L252.96 157.43 L252.96 156.64 L260.82 156.640002467895 A14.14 14.14 0 0 1 232.54 156.639997532104 L232.54 128.360002467896 A14.14 14.14 0 0 1 260.82 128.359997532105 L260.82 146.43 L246.68 146.43 L246.68 139.36 Z" style="fill:rgb(255,255,255);" />
<path d=" M270.72 115 L270.72 170 L296.65 170 L296.65 162.93 L278.58 162.93 L278.58 146.04 L290.36 146.04 L290.36 138.96 L278.58 138.96 L278.58 122.07 L296.65 122.07 L296.65 115 Z" style="fill:rgb(255,255,255);" />
<path d=" M303.25 115 L303.25 122.07 L322.1 162.93 L304.04 162.93 L304.04 170 L330.75 170 L330.75 162.93 L311.9 122.07 L331.54 122.07 L331.54 115 Z" style="fill:rgb(255,255,255);" />
<path d=" M339.24 128.36 L339.24 156.639997532104 A14.14 14.14 0 0 0 367.52 156.640002467895 L367.52 128.36 A14.14 14.14 0 0 0 339.24 128.36 Z M347.09 127.57 L347.09 157.429998792407 A6.29 6.29 0 0 0 359.67 157.430001207593 L359.66 157.43 L359.67 127.57 A6.29 6.29 0 0 0 347.09 127.57 Z" style="fill:rgb(255,255,255);" />
<path d=" M377.42 115 L377.42 170 L385.67 170 L398.64 134.62 L398.64 170 L405.71 170 L405.71 115 L397.46 115 L384.49 150.38 L384.49 115 Z" style="fill:rgb(255,255,255);" />
<path d=" M416.71 115 L432.420014040825 115.000000000008 A12.57 12.57 0 0 1 444.989999999996 127.569989908157 L444.989999999996 157.430010091843 A12.57 12.57 0 0 1 432.420014040825 169.999999999992 L416.71 170 Z M424.56 122.07 L431.640006143559 122.070000000004 A5.5 5.5 0 0 1 437.139999999998 127.569995584317 L437.139999999998 157.430004415683 A5.5 5.5 0 0 1 431.640006143559 162.929999999996 L424.56 162.93 Z" style="fill:rgb(255,255,255);" />
<path d=" M454.89 115 L454.89 170 L480.82 170 L480.82 162.93 L462.75 162.93 L462.75 146.04 L474.54 146.04 L474.54 138.96 L462.75 138.96 L462.75 122.07 L480.82 122.07 L480.82 115 Z" style="fill:rgb(255,255,255);" />
<path d=" M489.07 115 L489.07 170 L504.790014040825 169.999999999992 A12.57 12.57 0 0 0 517.359999999996 157.430010091843 L517.359999999997 151.930008775515 A12.57 12.57 0 0 0 507.153705488434 139.584239741355 L507.15 139.58 L518.46 115 L509.81 115 L498.6 139.36 L496.93 139.36 L496.93 115 Z M496.93 162.93 L504.000006143559 162.929999999996 A5.5 5.5 0 0 0 509.499999999998 157.430004415683 L509.499999999998 151.929995584317 A5.5 5.5 0 0 0 504.000006143559 146.430000000003 L496.93 146.43 Z" style="fill:rgb(255,255,255);" />
<path d=" M526.16 115 L541.870014040825 115.000000000008 A12.57 12.57 0 0 1 554.439999999996 127.569989908157 L554.439999999996 157.430010091843 A12.57 12.57 0 0 1 541.870014040825 169.999999999992 L526.16 170 Z M534.01 122.07 L541.090006143559 122.070000000004 A5.5 5.5 0 0 1 546.589999999998 127.569995584317 L546.589999999998 157.430004415683 A5.5 5.5 0 0 1 541.090006143559 162.929999999996 L534.01 162.93 Z" style="fill:rgb(255,255,255);" />
<path d=" M34.3 30 L34.3 85 L50.0100140408248 84.999999999992 A12.57 12.57 0 0 0 62.5799999999959 72.4300100918426 L62.59 72.4299999999998 L62.5799999999959 66.929989908157 A12.57 12.57 0 0 0 50.0100140408248 54.3600000000077 L42.16 54.3600000000001 L42.16 30 Z M42.16 77.9299999999998 L49.230006143559 77.9299999999964 A5.5 5.5 0 0 0 54.7299999999982 72.4300044156828 L54.7299999999982 66.9299955843168 A5.5 5.5 0 0 0 49.230006143559 61.4300000000033 L42.16 61.4299999999998 Z" style="fill:rgb(255,255,255);" />
<path d=" M70.29 30 L70.29 85 L78.14 85 L78.14 37.0700000000002 L93.86 37.0700000000002 L93.86 30 Z" style="fill:rgb(255,255,255);" />
<path d=" M99.91 30 L107.95 30 L109.35 36.29 L123.47 36.29 L124.86 30 L132.91 30 L120.73 85 L112.09 85 Z M110.91 43.3600000000001 L121.9 43.3600000000001 L116.41 68.1700000000001 Z" style="fill:rgb(255,255,255);" />
<path d=" M139.51 30 L147.55 30 L148.95 36.29 L163.07 36.29 L164.46 30 L172.51 30 L160.33 85 L151.69 85 Z M150.51 43.3600000000001 L161.5 43.3600000000001 L156.01 68.1700000000001 Z" style="fill:rgb(255,255,255);" />
<path d=" M182.72 30 L182.72 77.9299999999998 L172.51 77.9299999999998 L172.51 85 L200.79 85 L200.79 77.9299999999998 L190.58 77.9299999999998 L190.58 30 Z" style="fill:rgb(255,255,255);" />
<path d=" M205.74 45.71 L205.750000000001 43.3600056761599 A14.14 14.14 0 1 1 229.888490933017 53.3584888389384 L229.89 53.3600000000001 L216.000913653757 68.5409117531906 A5.5 5.5 0 1 0 225.39 72.4299997120205 L233.25 72.4299993004719 A13.36 13.36 0 1 1 210.443055711673 62.9830510950233 L210.44 62.98 L224.337702119426 47.8077011879013 A6.29 6.29 0 1 0 213.600000000001 43.360002524968 L213.6 45.71 Z" style="fill:rgb(255,255,255);" />
<path d=" M243.93 30 L243.93 85 L269.86 85 L269.86 77.9299999999998 L251.79 77.9299999999998 L251.79 61.04 L263.57 61.04 L263.57 53.96 L251.79 53.96 L251.79 37.0700000000002 L269.86 37.0700000000002 L269.86 30 Z" style="fill:rgb(255,255,255);" />
<path d=" M278.11 30 L278.11 85 L285.96 85 L285.96 37.0700000000002 L301.68 37.0700000000002 L301.68 30 Z" style="fill:rgb(255,255,255);" />
<path d=" M308.83 30 L316.69 30 L316.69 85 L308.83 85 Z" style="fill:rgb(255,255,255);" />
<path d=" M331.14 43.3600000000001 L323.29 43.3600024678957 A14.14 14.14 0 0 1 351.57 43.3599975321046 L351.57 85 L343.71 85 L343.72 42.5699987924069 A6.29 6.29 0 1 0 331.14 42.5700012075935 Z" style="fill:rgb(255,255,255);" />
<path d=" M362.02 30 L362.02 85 L369.88 85 L369.88 65.29 L381.24 85 L390.31 85 L375.02 58.4200000000001 L391.41 30 L382.34 30 L369.88 51.5999999999999 L369.88 30 Z" style="fill:rgb(255,255,255);" />
<path d=" M420.01 85 L431.79 30 L441.22 30 L453.01 85 L444.97 85 L436.51 46.5 L428.04 85 Z" style="fill:rgb(255,255,255);" />
<path d=" M460.16 30 L460.16 85 L486.09 85 L486.09 77.9299999999998 L468.01 77.9299999999998 L468.01 61.04 L479.8 61.04 L479.8 53.96 L468.01 53.96 L468.01 37.0700000000002 L486.09 37.0700000000002 L486.09 30 Z" style="fill:rgb(255,255,255);" />
<path d=" M494.34 30 L494.34 85 L510.050014040825 84.999999999992 A12.57 12.57 0 0 0 522.619999999996 72.4300100918426 L522.619999999997 66.9300087755153 A12.57 12.57 0 0 0 512.413705488434 54.5842397413545 L512.41 54.5799999999999 L523.72 30 L515.07 30 L503.87 54.3600000000001 L502.19 54.3600000000001 L502.19 30 Z M502.19 77.9299999999998 L509.260006143559 77.9299999999964 A5.5 5.5 0 0 0 514.759999999998 72.4300044156828 L514.759999999998 66.9299955843168 A5.5 5.5 0 0 0 509.260006143559 61.4300000000033 L502.19 61.4299999999998 Z" style="fill:rgb(255,255,255);" />
<path d=" M531.42 30 L531.42 85 L539.28 85 L539.28 65.29 L550.64 85 L559.71 85 L544.42 58.4200000000001 L560.81 30 L551.74 30 L539.28 51.5999999999999 L539.28 30 Z" style="fill:rgb(255,255,255);" />
<path d=" M567.96 30 L567.96 85 L593.89 85 L593.89 77.9299999999998 L575.81 77.9299999999998 L575.81 61.04 L587.6 61.04 L587.6 53.96 L575.81 53.96 L575.81 37.0700000000002 L593.89 37.0700000000002 L593.89 30 Z" style="fill:rgb(255,255,255);" />
<path d=" M602.14 30 L602.14 85 L628.06 85 L628.06 77.9299999999998 L609.99 77.9299999999998 L609.99 61.04 L621.78 61.04 L621.78 53.96 L609.99 53.96 L609.99 37.0700000000002 L628.06 37.0700000000002 L628.06 30 Z" style="fill:rgb(255,255,255);" />
<path d=" M636.31 30 L636.31 85 L652.030014040825 84.999999999992 A12.57 12.57 0 0 0 664.599999999996 72.4300100918426 L664.599999999997 66.9300087755153 A12.57 12.57 0 0 0 654.393705488434 54.5842397413545 L654.39 54.5799999999999 L665.7 30 L657.05 30 L645.85 54.3600000000001 L644.17 54.3600000000001 L644.17 30 Z M644.17 77.9299999999998 L651.240006143559 77.9299999999964 A5.5 5.5 0 0 0 656.739999999998 72.4300044156828 L656.739999999998 66.9299955843168 A5.5 5.5 0 0 0 651.240006143559 61.4300000000033 L644.17 61.4299999999998 Z" style="fill:rgb(255,255,255);" />
</g>
</svg>
