<?xml version="1.0" encoding="UTF-8"?>
<!DOCTYPE svg PUBLIC '-//W3C//DTD SVG 1.0//EN' 'http://www.w3.org/TR/2001/REC-SVG-20010904/DTD/svg10.dtd'>
<svg xmlns:xlink="http://www.w3.org/1999/xlink" xmlns="http://www.w3.org/2000/svg" width="700" height="200">
<!--Gegenereerd door de SIMaD-toepassing (http://www.dlw.be).-->
<g style="stroke:none;fill-rule:evenodd;" transform="matrix(1,0,0,-1,0,200)">
<path d=" M45 0 L655 0 A45 45 0 0 1 700 45 L700 155 A45 45 0 0 1 655 200 L45 200 A45 45 0 0 1 0 155 L0 45 A45 45 0 0 1 45 0 Z" style="fill:rgb(0,0,255);" />
<path d=" M135.54 173.33 L135.54 127.040001077566 A6.86 6.86 0 0 1 149.26 127.039998922434 L149.26 173.33 L157.83 173.33 L157.83 127.899997306957 A15.43 15.43 0 0 0 126.97 127.900002693043 L126.97 173.33 Z" style="fill:rgb(255,255,255);" />
<path d=" M169.23 113.33 L177.8 113.33 L177.8 173.33 L169.23 173.33 Z" style="fill:rgb(255,255,255);" />
<path d=" M196.74 113.33 L196.74 165.62 L185.6 165.62 L185.6 173.33 L216.46 173.33 L216.46 165.62 L205.31 165.62 L205.31 113.33 Z" style="fill:rgb(255,255,255);" />
<path d=" M244.15 139.9 L244.15 127.039998682975 A6.86 6.86 0 1 0 230.43 127.040001317025 L230.43 159.619998682974 A6.86 6.86 0 0 0 244.15 159.620001317025 L244.15 158.76 L252.72 158.760002693043 A15.43 15.43 0 0 1 221.86 158.759997306957 L221.86 127.900002693043 A15.43 15.43 0 0 1 252.72 127.899997306957 L252.72 147.62 L237.29 147.62 L237.29 139.9 Z" style="fill:rgb(255,255,255);" />
<path d=" M263.51 113.33 L263.51 173.33 L291.8 173.33 L291.8 165.62 L272.08 165.62 L272.08 147.19 L284.94 147.19 L284.94 139.47 L272.08 139.47 L272.08 121.04 L291.8 121.04 L291.8 113.33 Z" style="fill:rgb(255,255,255);" />
<path d=" M299 113.33 L299 121.04 L319.56 165.62 L299.86 165.62 L299.86 173.33 L329 173.33 L329 165.62 L308.44 121.04 L329.86 121.04 L329.86 113.33 Z" style="fill:rgb(255,255,255);" />
<path d=" M338.26 127.9 L338.26 158.759997306957 A15.43 15.43 0 0 0 369.12 158.760002693043 L369.12 127.9 A15.43 15.43 0 0 0 338.26 127.9 Z M346.83 127.04 L346.83 159.619998682974 A6.86 6.86 0 0 0 360.55 159.620001317025 L360.55 127.04 A6.86 6.86 0 0 0 346.83 127.04 Z" style="fill:rgb(255,255,255);" />
<path d=" M379.91 113.33 L379.91 173.33 L388.91 173.33 L403.05 134.73 L403.05 173.33 L410.77 173.33 L410.77 113.33 L401.77 113.33 L387.62 151.93 L387.62 113.33 Z" style="fill:rgb(255,255,255);" />
<path d=" M422.77 113.33 L439.910015314217 113.330000000009 A13.71 13.71 0 0 1 453.619999999996 127.039988992906 L453.63 127.04 L453.619999999996 159.620011007093 A13.71 13.71 0 0 1 439.910015314217 173.329999999991 L422.77 173.33 Z M431.34 121.04 L439.060006702064 121.040000000004 A6 6 0 0 1 445.059999999998 127.039995182891 L445.059999999998 159.620004817109 A6 6 0 0 1 439.060006702064 165.619999999996 L431.34 165.62 Z" style="fill:rgb(255,255,255);" />
<path d=" M464.43 113.33 L464.43 173.33 L492.72 173.33 L492.72 165.62 L473 165.62 L473 147.19 L485.86 147.19 L485.86 139.47 L473 139.47 L473 121.04 L492.72 121.04 L492.72 113.33 Z" style="fill:rgb(255,255,255);" />
<path d=" M501.71 113.33 L501.71 173.33 L518.850015314217 173.329999999991 A13.71 13.71 0 0 0 532.559999999996 159.620011007093 L532.57 159.62 L532.559999999997 153.620009571386 A13.71 13.71 0 0 0 521.428075194955 140.154576564803 L521.43 140.15 L533.77 113.33 L524.33 113.33 L512.11 139.9 L510.28 139.9 L510.28 113.33 Z M510.28 165.62 L518.000006702064 165.619999999996 A6 6 0 0 0 523.999999999998 159.620004817109 L523.999999999998 153.619995182891 A6 6 0 0 0 518.000006702064 147.620000000004 L510.28 147.62 Z" style="fill:rgb(255,255,255);" />
<path d=" M542.17 113.33 L559.310015314217 113.330000000009 A13.71 13.71 0 0 1 573.019999999996 127.039988992906 L573.03 127.04 L573.019999999996 159.620011007093 A13.71 13.71 0 0 1 559.310015314217 173.329999999991 L542.17 173.33 Z M550.74 121.04 L558.460006702064 121.040000000004 A6 6 0 0 1 564.459999999998 127.039995182891 L564.459999999998 159.620004817109 A6 6 0 0 1 558.460006702064 165.619999999996 L550.74 165.62 Z" style="fill:rgb(255,255,255);" />
<path d=" M80.86 26.6700000000001 L80.86 86.6700000000001 L89.43 86.6700000000001 L89.43 34.3800000000001 L106.57 34.3800000000001 L106.57 26.6700000000001 Z" style="fill:rgb(255,255,255);" />
<path d=" M113.17 26.6700000000001 L121.95 26.6700000000001 L123.47 33.5300000000002 L138.87 33.5300000000002 L140.39 26.6700000000001 L149.17 26.6700000000001 L135.88 86.6700000000001 L126.46 86.6700000000001 Z M125.18 41.2400000000002 L137.16 41.2400000000002 L131.17 68.3099999999999 Z" style="fill:rgb(255,255,255);" />
<path d=" M157.57 26.6700000000001 L174.710015314217 26.6700000000087 A13.71 13.71 0 0 1 188.419999999996 40.3799889929066 L188.43 40.3800000000001 L188.419999999996 72.9600110070935 A13.71 13.71 0 0 1 174.710015314217 86.6699999999915 L157.57 86.6700000000001 Z M166.14 34.3800000000001 L173.860006702064 34.3800000000039 A6 6 0 0 1 179.859999999998 40.3799951828914 L179.859999999998 72.9600048171088 A6 6 0 0 1 173.860006702064 78.9599999999963 L166.14 78.96 Z" style="fill:rgb(255,255,255);" />
<path d=" M199.23 26.6700000000001 L199.23 86.6700000000001 L227.52 86.6700000000001 L227.52 78.96 L207.8 78.96 L207.8 60.5300000000002 L220.66 60.5300000000002 L220.66 52.8099999999999 L207.8 52.8099999999999 L207.8 34.3800000000001 L227.52 34.3800000000001 L227.52 26.6700000000001 Z" style="fill:rgb(255,255,255);" />
<path d=" M236.51 26.6700000000001 L236.51 86.6700000000001 L245.51 86.6700000000001 L259.65 48.0700000000002 L259.65 86.6700000000001 L267.37 86.6700000000001 L267.37 26.6700000000001 L258.37 26.6700000000001 L244.22 65.27 L244.22 26.6700000000001 Z" style="fill:rgb(255,255,255);" />
<path d=" M298.57 26.6700000000001 L298.57 86.6700000000001 L326.86 86.6700000000001 L326.86 78.96 L307.14 78.96 L307.14 60.5300000000002 L320 60.5300000000002 L320 52.8099999999999 L307.14 52.8099999999999 L307.14 34.3800000000001 L326.86 34.3800000000001 L326.86 26.6700000000001 Z" style="fill:rgb(255,255,255);" />
<path d=" M335.86 26.6700000000001 L335.86 86.6700000000001 L344.86 86.6700000000001 L359 48.0700000000002 L359 86.6700000000001 L366.72 86.6700000000001 L366.72 26.6700000000001 L357.72 26.6700000000001 L343.57 65.27 L343.57 26.6700000000001 Z" style="fill:rgb(255,255,255);" />
<path d=" M397.91 26.6700000000001 L397.91 86.6700000000001 L406.48 86.6700000000001 L406.48 34.3800000000001 L423.62 34.3800000000001 L423.62 26.6700000000001 Z" style="fill:rgb(255,255,255);" />
<path d=" M428.43 41.2400000000002 L428.43 72.0999973069569 A15.43 15.43 0 0 0 459.29 72.1000026930429 L459.29 41.2400000000002 A15.43 15.43 0 0 0 428.43 41.2400000000002 Z M437 40.3800000000001 L437 72.9599986829746 A6.86 6.86 0 0 0 450.72 72.9600013170255 L450.72 40.3800000000001 A6.86 6.86 0 0 0 437 40.3800000000001 Z" style="fill:rgb(255,255,255);" />
<path d=" M468.89 43.8099999999999 L468.890000000001 41.2400061939992 A15.43 15.43 0 1 1 495.23065877627 52.1506564911472 L495.23 52.1500000000001 L480.077360349554 68.7173582762082 A6 6 0 1 0 490.32 72.9599996858408 L498.89 72.9599992371166 A14.57 14.57 0 1 1 474.017456715499 62.6574516807255 L474.02 62.6500000000001 L489.170753026909 46.0907520109703 A6.86 6.86 0 1 0 477.460000000001 41.2400027537807 L477.46 43.8099999999999 Z" style="fill:rgb(255,255,255);" />
<path d=" M509.34 43.8099999999999 L509.340000000001 41.2400061939992 A15.43 15.43 0 1 1 535.68065877627 52.1506564911472 L535.68 52.1500000000001 L520.527360349554 68.7173582762082 A6 6 0 1 0 530.77 72.9599996858408 L539.34 72.9599992371166 A14.57 14.57 0 1 1 514.467456715499 62.6574516807255 L514.47 62.6500000000001 L529.620753026909 46.0907520109703 A6.86 6.86 0 1 0 517.910000000001 41.2400027537807 L517.91 43.8099999999999 Z" style="fill:rgb(255,255,255);" />
<path d=" M551 26.6700000000001 L551 86.6700000000001 L579.29 86.6700000000001 L579.29 78.96 L559.57 78.96 L559.57 60.5300000000002 L572.43 60.5300000000002 L572.43 52.8099999999999 L559.57 52.8099999999999 L559.57 34.3800000000001 L579.29 34.3800000000001 L579.29 26.6700000000001 Z" style="fill:rgb(255,255,255);" />
<path d=" M588.29 26.6700000000001 L588.29 86.6700000000001 L597.29 86.6700000000001 L611.43 48.0700000000002 L611.43 86.6700000000001 L619.15 86.6700000000001 L619.15 26.6700000000001 L610.15 26.6700000000001 L596 65.27 L596 26.6700000000001 Z" style="fill:rgb(255,255,255);" />
</g>
</svg>
