<?xml version="1.0" encoding="UTF-8"?>
<!DOCTYPE svg PUBLIC '-//W3C//DTD SVG 1.0//EN' 'http://www.w3.org/TR/2001/REC-SVG-20010904/DTD/svg10.dtd'>
<svg xmlns:xlink="http://www.w3.org/1999/xlink" xmlns="http://www.w3.org/2000/svg" width="700" height="200">
<!--Gegenereerd door de SIMaD-toepassing (http://www.dlw.be).-->
<g style="stroke:none;fill-rule:evenodd;" transform="matrix(1,0,0,-1,0,200)">
<path d=" M45 0 L655 0 A45 45 0 0 1 700 45 L700 155 A45 45 0 0 1 655 200 L45 200 A45 45 0 0 1 0 155 L0 45 A45 45 0 0 1 45 0 Z" style="fill:rgb(0,0,255);" />
<path d=" M135.54 173.33 L135.54 127.040001077566 A6.86 6.86 0 0 1 149.26 127.039998922434 L149.26 173.33 L157.83 173.33 L157.83 127.899997306957 A15.43 15.43 0 0 0 126.97 127.900002693043 L126.97 173.33 Z" style="fill:rgb(255,255,255);" />
<path d=" M169.23 113.33 L177.8 113.33 L177.8 173.33 L169.23 173.33 Z" style="fill:rgb(255,255,255);" />
<path d=" M196.74 113.33 L196.74 165.62 L185.6 165.62 L185.6 173.33 L216.46 173.33 L216.46 165.62 L205.31 165.62 L205.31 113.33 Z" style="fill:rgb(255,255,255);" />
<path d=" M244.15 139.9 L244.15 127.039998682975 A6.86 6.86 0 1 0 230.43 127.040001317026 L230.43 159.619998682975 A6.86 6.86 0 0 0 244.15 159.620001317025 L244.15 158.76 L252.72 158.760002693043 A15.43 15.43 0 0 1 221.86 158.759997306957 L221.86 127.900002693043 A15.43 15.43 0 0 1 252.72 127.899997306957 L252.72 147.62 L237.29 147.62 L237.29 139.9 Z" style="fill:rgb(255,255,255);" />
<path d=" M263.51 113.33 L263.51 173.33 L291.8 173.33 L291.8 165.62 L272.08 165.62 L272.08 147.19 L284.94 147.19 L284.94 139.47 L272.08 139.47 L272.08 121.04 L291.8 121.04 L291.8 113.33 Z" style="fill:rgb(255,255,255);" />
<path d=" M299 113.33 L299 121.04 L319.56 165.62 L299.86 165.62 L299.86 173.33 L329 173.33 L329 165.62 L308.44 121.04 L329.86 121.04 L329.86 113.33 Z" style="fill:rgb(255,255,255);" />
<path d=" M338.26 127.9 L338.26 158.759997306957 A15.43 15.43 0 0 0 369.12 158.760002693043 L369.12 127.9 A15.43 15.43 0 0 0 338.26 127.9 Z M346.83 127.04 L346.83 159.619998682975 A6.86 6.86 0 0 0 360.55 159.620001317025 L360.55 127.04 A6.86 6.86 0 0 0 346.83 127.04 Z" style="fill:rgb(255,255,255);" />
<path d=" M379.91 113.33 L379.91 173.33 L388.91 173.33 L403.05 134.73 L403.05 173.33 L410.77 173.33 L410.77 113.33 L401.77 113.33 L387.62 151.93 L387.62 113.33 Z" style="fill:rgb(255,255,255);" />
<path d=" M422.77 113.33 L439.910015314217 113.330000000009 A13.71 13.71 0 0 1 453.619999999996 127.039988992907 L453.63 127.04 L453.619999999996 159.620011007093 A13.71 13.71 0 0 1 439.910015314217 173.329999999991 L422.77 173.33 Z M431.34 121.04 L439.060006702064 121.040000000004 A6 6 0 0 1 445.059999999998 127.039995182891 L445.059999999998 159.620004817109 A6 6 0 0 1 439.060006702064 165.619999999996 L431.34 165.62 Z" style="fill:rgb(255,255,255);" />
<path d=" M464.43 113.33 L464.43 173.33 L492.72 173.33 L492.72 165.62 L473 165.62 L473 147.19 L485.86 147.19 L485.86 139.47 L473 139.47 L473 121.04 L492.72 121.04 L492.72 113.33 Z" style="fill:rgb(255,255,255);" />
<path d=" M501.71 113.33 L501.71 173.33 L518.850015314217 173.329999999991 A13.71 13.71 0 0 0 532.559999999996 159.620011007093 L532.57 159.62 L532.559999999997 153.620009571386 A13.71 13.71 0 0 0 521.428075194955 140.154576564803 L521.43 140.15 L533.77 113.33 L524.33 113.33 L512.11 139.9 L510.28 139.9 L510.28 113.33 Z M510.28 165.62 L518.000006702064 165.619999999996 A6 6 0 0 0 523.999999999998 159.620004817109 L523.999999999998 153.619995182891 A6 6 0 0 0 518.000006702064 147.620000000004 L510.28 147.62 Z" style="fill:rgb(255,255,255);" />
<path d=" M542.17 113.33 L559.310015314217 113.330000000009 A13.71 13.71 0 0 1 573.019999999996 127.039988992907 L573.03 127.04 L573.019999999996 159.620011007093 A13.71 13.71 0 0 1 559.310015314217 173.329999999991 L542.17 173.33 Z M550.74 121.04 L558.460006702064 121.040000000004 A6 6 0 0 1 564.459999999998 127.039995182891 L564.459999999998 159.620004817109 A6 6 0 0 1 558.460006702064 165.619999999996 L550.74 165.62 Z" style="fill:rgb(255,255,255);" />
<path d=" M129.24 26.67 L129.24 86.6700000000001 L137.81 86.6700000000001 L137.81 60.96 L151.53 60.96 L151.53 86.6700000000001 L160.1 86.6700000000001 L160.1 26.67 L151.53 26.67 L151.53 53.24 L137.81 53.24 L137.81 26.67 Z" style="fill:rgb(255,255,255);" />
<path d=" M180.07 86.6700000000001 L180.07 40.3800010775663 A6.86 6.86 0 0 1 193.79 40.3799989224337 L193.79 86.6700000000001 L202.36 86.6700000000001 L202.36 41.239997306957 A15.43 15.43 0 0 0 171.5 41.240002693043 L171.5 86.6700000000001 Z" style="fill:rgb(255,255,255);" />
<path d=" M213.76 26.67 L213.76 86.6700000000001 L222.33 86.6700000000001 L222.33 34.38 L239.47 34.38 L239.47 26.67 Z" style="fill:rgb(255,255,255);" />
<path d=" M247.27 26.67 L247.27 86.6700000000001 L264.410015314217 86.6699999999915 A13.71 13.71 0 0 0 278.119999999996 72.9600110070935 L278.13 72.96 L278.119999999996 66.9599889929066 A13.71 13.71 0 0 0 264.410015314217 53.2500000000086 L264.41 53.24 L255.84 53.24 L255.84 26.67 Z M255.84 78.96 L263.560006702064 78.9599999999963 A6 6 0 0 0 269.559999999998 72.9600048171088 L269.559999999998 66.9599951828913 A6 6 0 0 0 263.560006702064 60.9600000000038 L255.84 60.96 Z" style="fill:rgb(255,255,255);" />
<path d=" M286.53 26.67 L303.670015314217 26.6700000000086 A13.71 13.71 0 0 1 317.379999999996 40.3799889929065 L317.39 40.38 L317.379999999996 72.9600110070935 A13.71 13.71 0 0 1 303.670015314217 86.6699999999915 L286.53 86.6700000000001 Z M295.1 34.38 L302.820006702064 34.3800000000037 A6 6 0 0 1 308.819999999998 40.3799951828913 L308.819999999998 72.9600048171088 A6 6 0 0 1 302.820006702064 78.9599999999963 L295.1 78.96 Z" style="fill:rgb(255,255,255);" />
<path d=" M328.19 26.67 L336.76 26.67 L336.76 86.6700000000001 L328.19 86.6700000000001 Z" style="fill:rgb(255,255,255);" />
<path d=" M348.76 26.67 L348.76 86.6700000000001 L377.05 86.6700000000001 L377.05 78.96 L357.33 78.96 L357.33 60.53 L370.19 60.53 L370.19 52.8100000000001 L357.33 52.8100000000001 L357.33 34.38 L377.05 34.38 L377.05 26.67 Z" style="fill:rgb(255,255,255);" />
<path d=" M386.04 26.67 L386.04 86.6700000000001 L395.04 86.6700000000001 L409.18 48.07 L409.18 86.6700000000001 L416.9 86.6700000000001 L416.9 26.67 L407.9 26.67 L393.75 65.27 L393.75 26.67 Z" style="fill:rgb(255,255,255);" />
<path d=" M427.7 43.81 L427.700000000001 41.240006193999 A15.43 15.43 0 1 1 454.04065877627 52.150656491147 L454.04 52.15 L438.887360349554 68.7173582762082 A6 6 0 1 0 449.13 72.9599996858408 L457.7 72.9599992371166 A14.57 14.57 0 1 1 432.827456715499 62.6574516807255 L432.83 62.65 L447.980753026909 46.0907520109701 A6.86 6.86 0 1 0 436.270000000001 41.2400027537805 L436.27 43.81 Z" style="fill:rgb(255,255,255);" />
<path d=" M475.1 26.67 L475.1 78.96 L463.96 78.96 L463.96 86.6700000000001 L494.82 86.6700000000001 L494.82 78.96 L483.67 78.96 L483.67 26.67 Z" style="fill:rgb(255,255,255);" />
<path d=" M502.61 26.67 L502.61 86.6700000000001 L530.9 86.6700000000001 L530.9 78.96 L511.18 78.96 L511.18 60.53 L524.04 60.53 L524.04 52.8100000000001 L511.18 52.8100000000001 L511.18 34.38 L530.9 34.38 L530.9 26.67 Z" style="fill:rgb(255,255,255);" />
<path d=" M539.9 26.67 L539.9 86.6700000000001 L548.9 86.6700000000001 L563.04 48.07 L563.04 86.6700000000001 L570.76 86.6700000000001 L570.76 26.67 L561.76 26.67 L547.61 65.27 L547.61 26.67 Z" style="fill:rgb(255,255,255);" />
</g>
</svg>
