<?xml version="1.0" encoding="UTF-8"?>
<!DOCTYPE svg PUBLIC '-//W3C//DTD SVG 1.0//EN' 'http://www.w3.org/TR/2001/REC-SVG-20010904/DTD/svg10.dtd'>
<svg xmlns:xlink="http://www.w3.org/1999/xlink" xmlns="http://www.w3.org/2000/svg" width="700.000000000004" height="200">
<!--Gegenereerd door de SIMaD-toepassing (http://www.dlw.be).-->
<g style="stroke:none;fill-rule:evenodd;" transform="matrix(1,0,0,-1,0,200)">
<path d=" M45 0 L654.999996858407 1.06581410364015E-13 A45 45 0 0 1 700 45.0000031415927 L699.999999999999 154.99999136062 A45 45 0 0 1 655.000003141593 200 L45.0000031415927 200 A45 45 0 0 1 1.06581410364015E-13 154.999996858407 L1.06581410364015E-13 45.0000031415927 A45 45 0 0 1 45.0000031415927 1.06581410364015E-13 Z" style="fill:rgb(0,0,255);" />
<path d=" M55.99 173.33 L55.99 132.7 A20.57 20.57 0 1 1 97.1299999999999 132.699998563943 L97.13 173.33 L86.13 173.33 L86.13 131.7 A9.57 9.57 0 1 0 66.9900000000001 131.700001002168 L66.99 173.33 L55.99 173.33 Z" style="fill:rgb(255,255,255);" />
<path d=" M110.93 113.33 L121.93 113.33 L121.93 173.33 L110.93 173.33 L110.93 113.33 Z" style="fill:rgb(255,255,255);" />
<path d=" M147.8 113.33 L158.8 113.33 L158.8 163.33 L173.87 163.33 L173.87 173.33 L132.73 173.33 L132.73 163.33 L147.8 163.33 L147.8 113.33 Z" style="fill:rgb(255,255,255);" />
<path d=" M211.21 131.7 L211.21 139.33 L201.64 139.33 L201.64 149.33 L222.21 149.33 L222.21 132.7 A20.57 20.57 0 0 0 181.07 132.700001795071 L181.07 153.96 L181.070000014496 153.960772239602 A20.57 20.57 0 0 0 221.496600299175 159.330318850756 L221.5 159.33 L210.16 159.33 L210.153589021088 159.330778189295 A9.57 9.57 0 0 1 192.07 154.959998663776 L192.07 131.7 A9.57 9.57 0 1 1 211.21 131.699999331888 Z" style="fill:rgb(255,255,255);" />
<path d=" M235.41 113.33 L272.27 113.33 L272.27 123.33 L246.41 123.33 L246.41 139.33 L263.7 139.33 L263.7 149.33 L246.41 149.33 L246.41 163.33 L272.27 163.33 L272.27 173.33 L235.41 173.33 L235.41 113.33 Z" style="fill:rgb(255,255,255);" />
<path d=" M281.27 113.33 L322.41 113.33 L322.41 123.33 L293.81 123.33 L321.21 163.33 L321.21 173.33 L282.47 173.33 L282.47 163.33 L308.67 163.33 L281.27 123.33 L281.27 113.33 Z" style="fill:rgb(255,255,255);" />
<path d=" M333.81 153.96 L333.81 132.7 A20.57 20.57 0 1 1 374.95 132.699998563943 L374.95 153.96 A20.57 20.57 0 0 1 333.81 153.96 Z M344.81 154.96 L344.81 131.7 A9.57 9.57 0 1 1 363.95 131.699999331888 L363.95 154.96 A9.57 9.57 0 0 1 344.81 154.96 Z" style="fill:rgb(255,255,255);" />
<path d=" M388.16 113.33 L398.16 113.33 L398.16 153.18 L416.45 113.33 L429.3 113.33 L429.3 173.33 L419.3 173.33 L419.3 133.48 L401.02 173.33 L388.16 173.33 L388.16 113.33 Z" style="fill:rgb(255,255,255);" />
<path d=" M444.3 113.33 L469.44 113.33 A16 16 0 0 1 485.439999999999 129.329993577188 L485.44 157.33 A16 16 0 0 1 469.440008936086 173.329999999997 L444.3 173.33 L444.3 113.33 Z M455.3 123.33 L468.44 123.33 A6 6 0 0 1 474.439999999999 129.329997591446 L474.44 157.33 A6 6 0 0 1 468.440003351032 163.329999999999 L455.3 163.33 L455.3 123.33 Z" style="fill:rgb(255,255,255);" />
<path d=" M498.64 113.33 L535.5 113.33 L535.5 123.33 L509.64 123.33 L509.64 139.33 L526.93 139.33 L526.93 149.33 L509.64 149.33 L509.64 163.33 L535.5 163.33 L535.5 173.33 L498.64 173.33 L498.64 113.33 Z" style="fill:rgb(255,255,255);" />
<path d=" M547.5 113.33 L558.5 113.33 L558.5 139.33 L564.29 139.33 L579.36 113.33 L592.07 113.33 L576.7 139.85 L576.700618175134 139.853844791558 A16 16 0 0 1 588.639999999999 155.330006422812 L588.64 157.33 A16 16 0 0 1 572.640008936086 173.329999999997 L547.5 173.33 L547.5 113.33 Z M558.5 149.33 L571.64 149.33 A6 6 0 0 1 577.639999999999 155.329997591446 L577.64 157.33 A6 6 0 0 1 571.640003351032 163.329999999999 L558.5 163.33 L558.5 149.33 Z" style="fill:rgb(255,255,255);" />
<path d=" M602.87 113.33 L628.01 113.33 A16 16 0 0 1 644.009999999999 129.329993577188 L644.01 157.33 A16 16 0 0 1 628.010008936086 173.329999999997 L602.87 173.33 L602.87 113.33 Z M613.87 123.33 L627.01 123.33 A6 6 0 0 1 633.009999999999 129.329997591446 L633.01 157.33 A6 6 0 0 1 627.010003351032 163.329999999999 L613.87 163.33 L613.87 123.33 Z" style="fill:rgb(255,255,255);" />
<path d=" M63.54 26.6700000000001 L75 26.6700000000001 L77.51 35.2399999999998 L97.57 35.2399999999998 L100.08 26.6700000000001 L111.54 26.6700000000001 L93.97 86.6700000000001 L81.11 86.6700000000001 L63.54 26.6700000000001 Z M80.44 45.2399999999998 L94.64 45.2399999999998 L87.54 69.48 L80.44 45.2399999999998 Z" style="fill:rgb(255,255,255);" />
<path d=" M119.94 26.6700000000001 L131.4 26.6700000000001 L133.91 35.2399999999998 L153.97 35.2399999999998 L156.48 26.6700000000001 L167.94 26.6700000000001 L150.37 86.6700000000001 L137.51 86.6700000000001 L119.94 26.6700000000001 Z M136.84 45.2399999999998 L151.04 45.2399999999998 L143.94 69.48 L136.84 45.2399999999998 Z" style="fill:rgb(255,255,255);" />
<path d=" M177.54 26.6700000000001 L187.54 26.6700000000001 L187.54 66.52 L205.83 26.6700000000001 L218.68 26.6700000000001 L218.68 86.6700000000001 L208.68 86.6700000000001 L208.68 46.8200000000002 L190.4 86.6700000000001 L177.54 86.6700000000001 L177.54 26.6700000000001 Z" style="fill:rgb(255,255,255);" />
<path d=" M262.03 45.04 L262.03 52.6700000000001 L252.46 52.6700000000001 L252.46 62.6700000000001 L273.03 62.6700000000001 L273.03 46.04 A20.57 20.57 0 0 0 231.89 46.0400017950711 L231.89 67.3000000000002 L231.890000014496 67.3007722396026 A20.57 20.57 0 0 0 272.316600299175 72.6703188507565 L272.32 72.6700000000001 L260.98 72.6700000000001 L260.973589021088 72.6707781892949 A9.57 9.57 0 0 1 242.89 68.2999986637761 L242.89 45.04 A9.57 9.57 0 1 1 262.03 45.0399993318879 Z" style="fill:rgb(255,255,255);" />
<path d=" M286.23 26.6700000000001 L323.09 26.6700000000001 L323.09 36.6700000000001 L297.23 36.6700000000001 L297.23 52.6700000000001 L314.52 52.6700000000001 L314.52 62.6700000000001 L297.23 62.6700000000001 L297.23 76.6700000000001 L323.09 76.6700000000001 L323.09 86.6700000000001 L286.23 86.6700000000001 L286.23 26.6700000000001 Z" style="fill:rgb(255,255,255);" />
<path d=" M335.09 26.6700000000001 L369.38 26.6700000000001 L369.38 36.6700000000001 L346.09 36.6700000000001 L346.09 86.6700000000001 L335.09 86.6700000000001 L335.09 26.6700000000001 Z" style="fill:rgb(255,255,255);" />
<path d=" M378.37 26.6700000000001 L389.83 26.6700000000001 L392.34 35.2399999999998 L412.4 35.2399999999998 L414.91 26.6700000000001 L426.37 26.6700000000001 L408.8 86.6700000000001 L395.94 86.6700000000001 L378.37 26.6700000000001 Z M395.27 45.2399999999998 L409.47 45.2399999999998 L402.37 69.48 L395.27 45.2399999999998 Z" style="fill:rgb(255,255,255);" />
<path d=" M435.97 26.6700000000001 L445.97 26.6700000000001 L445.97 66.52 L464.26 26.6700000000001 L477.11 26.6700000000001 L477.11 86.6700000000001 L467.11 86.6700000000001 L467.11 46.8200000000002 L448.83 86.6700000000001 L435.97 86.6700000000001 L435.97 26.6700000000001 Z" style="fill:rgb(255,255,255);" />
<path d=" M492.11 26.6700000000001 L517.25 26.6700000000001 A16 16 0 0 1 533.249999999999 42.6699935771884 L533.25 70.6700000000001 A16 16 0 0 1 517.250008936086 86.6699999999976 L492.11 86.6700000000001 L492.11 26.6700000000001 Z M503.11 36.6700000000001 L516.25 36.6700000000001 A6 6 0 0 1 522.25 42.6699975914457 L522.25 70.6700000000001 A6 6 0 0 1 516.250003351032 76.6699999999991 L503.11 76.6700000000001 L503.11 36.6700000000001 Z" style="fill:rgb(255,255,255);" />
<path d=" M546.46 26.6700000000001 L583.32 26.6700000000001 L583.32 36.6700000000001 L557.46 36.6700000000001 L557.46 52.6700000000001 L574.75 52.6700000000001 L574.75 62.6700000000001 L557.46 62.6700000000001 L557.46 76.6700000000001 L583.32 76.6700000000001 L583.32 86.6700000000001 L546.46 86.6700000000001 L546.46 26.6700000000001 Z" style="fill:rgb(255,255,255);" />
<path d=" M595.31 26.6700000000001 L605.31 26.6700000000001 L605.31 66.52 L623.6 26.6700000000001 L636.45 26.6700000000001 L636.45 86.6700000000001 L626.45 86.6700000000001 L626.45 46.8200000000002 L608.17 86.6700000000001 L595.31 86.6700000000001 L595.31 26.6700000000001 Z" style="fill:rgb(255,255,255);" />
</g>
</svg>
