<?xml version="1.0" encoding="UTF-8"?>
<!DOCTYPE svg PUBLIC '-//W3C//DTD SVG 1.0//EN' 'http://www.w3.org/TR/2001/REC-SVG-20010904/DTD/svg10.dtd'>
<svg xmlns:xlink="http://www.w3.org/1999/xlink" xmlns="http://www.w3.org/2000/svg" width="700" height="200">
<!--Gegenereerd door de SIMaD-toepassing (http://www.dlw.be).-->
<g style="stroke:none;fill-rule:evenodd;" transform="matrix(1,0,0,-1,0,200)">
<path d=" M45 0 L655 0 A45 45 0 0 1 700 45 L700 155 A45 45 0 0 1 655 200 L45 200 A45 45 0 0 1 0 155 L0 45 A45 45 0 0 1 45 0 Z" style="fill:rgb(0,0,255);" />
<path d=" M55.99 173.33 L55.9900000000002 132.700003231128 A20.57 20.57 0 0 1 97.1299999999998 132.699996768872 L97.13 173.33 L86.13 173.33 L86.1299999999999 131.69999832972 A9.57 9.57 0 0 0 66.9900000000002 131.70000167028 L66.99 173.33 Z" style="fill:rgb(255,255,255);" />
<path d=" M110.93 113.33 L121.93 113.33 L121.93 173.33 L110.93 173.33 Z" style="fill:rgb(255,255,255);" />
<path d=" M147.8 113.33 L158.8 113.33 L158.8 163.33 L173.87 163.33 L173.87 173.33 L132.73 173.33 L132.73 163.33 L147.8 163.33 Z" style="fill:rgb(255,255,255);" />
<path d=" M211.21 131.7 L211.21 139.33 L201.64 139.33 L201.64 149.33 L222.21 149.33 L222.21 132.699996050843 A20.57 20.57 0 1 0 181.07 132.700003949156 L181.07 153.960001795071 A20.57 20.57 0 0 0 221.49639904747 159.331062917862 L221.5 159.33 L210.153588410812 159.330779378016 A9.57 9.57 0 0 1 192.07 154.959997160524 L192.07 131.70000167028 A9.57 9.57 0 0 1 211.21 131.69999832972 Z" style="fill:rgb(255,255,255);" />
<path d=" M235.41 113.33 L272.27 113.33 L272.27 123.33 L246.41 123.33 L246.41 139.33 L263.7 139.33 L263.7 149.33 L246.41 149.33 L246.41 163.33 L272.27 163.33 L272.27 173.33 L235.41 173.33 Z" style="fill:rgb(255,255,255);" />
<path d=" M281.27 113.33 L322.41 113.33 L322.41 123.33 L293.81 123.33 L321.21 163.33 L321.21 173.33 L282.47 173.33 L282.47 163.33 L308.67 163.33 L281.27 123.33 Z" style="fill:rgb(255,255,255);" />
<path d=" M333.81 153.96 L333.81 132.700003231128 A20.57 20.57 0 0 1 374.95 132.699996768872 L374.95 153.96 A20.57 20.57 0 0 1 333.81 153.96 Z M344.81 154.96 L344.81 131.70000167028 A9.57 9.57 0 0 1 363.95 131.69999832972 L363.95 154.96 A9.57 9.57 0 0 1 344.81 154.96 Z" style="fill:rgb(255,255,255);" />
<path d=" M388.16 113.33 L398.16 113.33 L398.16 153.18 L416.45 113.33 L429.3 113.33 L429.3 173.33 L419.3 173.33 L419.3 133.48 L401.02 173.33 L388.16 173.33 Z" style="fill:rgb(255,255,255);" />
<path d=" M444.3 113.33 L469.440017872172 113.33000000001 A16 16 0 0 1 485.439999999995 129.329987154377 L485.439999999995 157.330012845623 A16 16 0 0 1 469.440017872172 173.32999999999 L444.3 173.33 Z M455.3 123.33 L468.440006702064 123.330000000004 A6 6 0 0 1 474.439999999998 129.329995182891 L474.439999999998 157.330004817109 A6 6 0 0 1 468.440006702064 163.329999999996 L455.3 163.33 Z" style="fill:rgb(255,255,255);" />
<path d=" M498.64 113.33 L535.5 113.33 L535.5 123.33 L509.64 123.33 L509.64 139.33 L526.93 139.33 L526.93 149.33 L509.64 149.33 L509.64 163.33 L535.5 163.33 L535.5 173.33 L498.64 173.33 Z" style="fill:rgb(255,255,255);" />
<path d=" M547.5 113.33 L558.5 113.33 L558.5 139.33 L564.29 139.33 L579.36 113.33 L592.07 113.33 L576.70062438766 139.853846421596 A16 16 0 0 1 588.639999999995 155.330012845623 L588.639999999995 157.330012845623 A16 16 0 0 1 572.640017872171 173.32999999999 L547.5 173.33 Z M558.5 149.33 L571.640006702064 149.330000000004 A6 6 0 0 1 577.639999999998 155.329995182891 L577.639999999998 157.330004817109 A6 6 0 0 1 571.640006702064 163.329999999996 L558.5 163.33 Z" style="fill:rgb(255,255,255);" />
<path d=" M602.87 113.33 L628.010017872172 113.33000000001 A16 16 0 0 1 644.009999999995 129.329987154377 L644.009999999995 157.330012845623 A16 16 0 0 1 628.010017872172 173.32999999999 L602.87 173.33 Z M613.87 123.33 L627.010006702064 123.330000000004 A6 6 0 0 1 633.009999999998 129.329995182891 L633.009999999998 157.330004817109 A6 6 0 0 1 627.010006702064 163.329999999996 L613.87 163.33 Z" style="fill:rgb(255,255,255);" />
<path d=" M275.09 26.6700000000001 L301.430017872172 26.6700000000101 A16 16 0 0 1 317.429999999995 42.6699871543768 L317.43 46.6699993716815 A12 12 0 0 1 309.581106793697 57.9291435014978 A12 12 0 0 1 316.229999999999 68.6699951828913 L316.229999999995 70.6700128456234 A16 16 0 0 1 300.230017872172 86.6699999999901 L275.09 86.6700000000001 Z M286.09 36.6700000000001 L300.430006702064 36.6700000000038 A6 6 0 0 1 306.429999999998 42.6699951828913 L306.429999999998 46.6700048171088 A6 6 0 0 1 300.430006702064 52.6699999999963 L286.09 52.6700000000001 Z M286.09 62.6700000000001 L299.230006702064 62.6700000000038 A6 6 0 0 1 305.229999999998 68.6699951828913 L305.229999999998 70.6700048171088 A6 6 0 0 1 299.230006702064 76.6699999999963 L286.09 76.6700000000001 Z" style="fill:rgb(255,255,255);" />
<path d=" M330.03 86.6700000000001 L330.03 46.040003231128 A20.57 20.57 0 0 1 371.17 46.0399967688719 L371.17 86.6700000000001 L360.17 86.6700000000001 L360.17 45.0399983297199 A9.57 9.57 0 0 0 341.03 45.0400016702801 L341.03 86.6700000000001 Z" style="fill:rgb(255,255,255);" />
<path d=" M383.77 41.73 L383.77 43.8100000000002 L394.77 43.8100000000002 L394.77 41.7299990784662 A4.8 4.8 0 0 1 398.111030546124 37.1571006863634 L398.112035046109 37.1494325765591 A20.49 20.49 0 0 1 410.567964953891 37.1494325765591 L410.56897296561 37.1571018067729 A4.8 4.8 0 0 1 411.138570389715 46.0802761031884 L411.14 46.0800000000002 L394.009591589877 58.4600694702491 A15.05 15.05 0 0 0 396.62194713826 86.6758224380515 L396.624689277762 86.6739060866967 A30.98 30.98 0 0 0 412.055324861245 86.6739024509389 L412.058077029364 86.6758162235245 A15.05 15.05 0 0 0 423.359999999999 72.100004465425 L423.35 72.1000000000001 L412.36 72.0999983035401 A4.05 4.05 0 0 1 409.318621542284 76.0223950061719 L409.315860871593 76.0204834199705 A19.98 19.98 0 0 1 399.364146896189 76.0204854174075 L399.361387151974 76.0223972418406 A4.05 4.05 0 0 1 398.658395655571 68.4294536417405 L398.66 68.4300000000001 L415.787380781839 56.0496573246126 A15.8 15.8 0 0 0 413.912449263171 26.6775423576526 L413.911424482919 26.669867777495 A31.49 31.49 0 0 0 394.768562950656 26.6698717867665 L394.767553626693 26.6775414356488 A15.8 15.8 0 0 0 383.77 41.7300027576202 Z" style="fill:rgb(255,255,255);" />
</g>
</svg>
