<?xml version="1.0" encoding="UTF-8"?>
<!DOCTYPE svg PUBLIC '-//W3C//DTD SVG 1.0//EN' 'http://www.w3.org/TR/2001/REC-SVG-20010904/DTD/svg10.dtd'>
<svg xmlns:xlink="http://www.w3.org/1999/xlink" xmlns="http://www.w3.org/2000/svg" width="700" height="200">
<!--Gegenereerd door de SIMaD-toepassing (http://www.dlw.be).-->
<g style="stroke:none;fill-rule:evenodd;" transform="matrix(1,0,0,-1,0,200)">
<path d=" M45 0 L655 0 A45 45 0 0 1 700 45 L700 155 A45 45 0 0 1 655 200 L45 200 A45 45 0 0 1 0 155 L0 45 A45 45 0 0 1 45 0 Z" style="fill:rgb(0,0,255);" />
<path d=" M417.7 76.5499999999999 L486.27 76.5499999999999 L486.27 94.8800000000001 L417.7 94.8800000000001 Z" style="fill:rgb(255,255,255);" />
<path d=" M502.94 50 L550.3 131.33 L523.27 131.33 L523.27 124.19 L504.94 124.19 L504.94 148 L571.51 148 L571.51 131.33 L524.15 50 Z" style="fill:rgb(255,255,255);" />
<path d=" M586.5 119.57 L592.42 119.57 L592.410000000004 92.190009898984 A13.19 13.19 0 0 1 605.600009668775 79.0000000000036 L616.08 79 L616.08 89.1400000000001 L607.290002228436 89.1500000000009 A3.04 3.04 0 0 0 604.250000000001 92.1900022814945 L604.25 119.57 L616.08 119.57 L616.08 129.71 L604.25 129.71 L604.25 150 L592.42 143.17 L592.42 129.71 L586.5 129.71 Z" style="fill:rgb(255,255,255);" />
<path d=" M632.53 71.4300000000001 L641.295074472303 71.4304464650652 A7.98 7.98 0 0 0 656.22 67.4999998607227 L656.219999999999 65.0000030641 A7.98 7.98 0 0 0 640.553376954267 62.8561189042291 L640.56 62.8599999999999 L631.439047394203 62.8577158819238 A17.14 17.14 0 1 1 641.693482489393 82.0905400313032 L641.7 82.0899999999999 L641.7 91.6700000000001 L661.81 91.6700000000001 L661.81 100 L632.53 100 Z" style="fill:rgb(255,255,255);" />
<path d=" M122.23 140 L122.23 78.2900015952309 A9.14 9.14 0 0 1 140.51 78.289998404769 L140.51 140 L151.94 140 L151.94 79.4299964098578 A20.57 20.57 0 0 0 110.8 79.4300035901423 L110.8 140 Z" style="fill:rgb(255,255,255);" />
<path d=" M167.14 60 L178.57 60 L178.57 140 L167.14 140 Z" style="fill:rgb(255,255,255);" />
<path d=" M203.83 60 L203.83 129.71 L188.97 129.71 L188.97 140 L230.11 140 L230.11 129.71 L215.26 129.71 L215.26 60 Z" style="fill:rgb(255,255,255);" />
<path d=" M267.02 95.4300000000001 L267.02 78.289998404769 A9.14 9.14 0 0 0 248.74 78.2900015952309 L248.74 121.709998404769 A9.14 9.14 0 0 0 267.02 121.710001595231 L267.02 120.57 L278.45 120.570003590142 A20.57 20.57 0 0 1 237.31 120.569996409858 L237.31 79.4300035901423 A20.57 20.57 0 0 1 278.45 79.4299964098578 L278.45 105.71 L257.88 105.71 L257.88 95.4300000000001 Z" style="fill:rgb(255,255,255);" />
<path d=" M292.86 60 L292.86 140 L330.57 140 L330.57 129.71 L304.29 129.71 L304.29 105.14 L321.43 105.14 L321.43 94.8599999999999 L304.29 94.8599999999999 L304.29 70.29 L330.57 70.29 L330.57 60 Z" style="fill:rgb(255,255,255);" />
<path d=" M340.17 60 L340.17 70.29 L367.58 129.71 L341.31 129.71 L341.31 140 L380.17 140 L380.17 129.71 L352.76 70.29 L381.31 70.29 L381.31 60 Z" style="fill:rgb(255,255,255);" />
<path d=" M400.75 64.8599999999999 A4.86 4.86 0 0 1 391.03 64.8599999999999 A4.86 4.86 0 0 1 400.75 64.8599999999999 Z" style="fill:rgb(255,255,255);" />
</g>
</svg>
