<?xml version="1.0" encoding="UTF-8"?>
<!DOCTYPE svg PUBLIC '-//W3C//DTD SVG 1.0//EN' 'http://www.w3.org/TR/2001/REC-SVG-20010904/DTD/svg10.dtd'>
<svg xmlns:xlink="http://www.w3.org/1999/xlink" xmlns="http://www.w3.org/2000/svg" width="700.000000000002" height="200">
<!--Gegenereerd door de SIMaD-toepassing (http://www.dlw.be).-->
<g style="stroke:none;fill-rule:evenodd;" transform="matrix(1,0,0,-1,0,200)">
<path d=" M45 0 L654.999996858407 1.06581410364015E-13 A45 45 0 0 1 700 45.0000031415927 L699.999999999999 154.99999136062 A45 45 0 0 1 655.000003141593 200 L45.0000031415927 200 A45 45 0 0 1 1.06581410364015E-13 154.999996858407 L1.06581410364015E-13 45.0000031415927 A45 45 0 0 1 45.0000031415927 1.06581410364015E-13 Z" style="fill:rgb(0,0,255);" />
<path d=" M163.09 26.6700000000001 L188.23 26.6700000000001 A16 16 0 0 1 204.229999999999 42.6699935771884 L204.23 70.6700000000001 A16 16 0 0 1 188.230008936086 86.6699999999976 L163.09 86.6700000000001 L163.09 26.6700000000001 Z M174.09 36.6700000000001 L187.23 36.6700000000001 A6 6 0 0 1 193.23 42.6699975914457 L193.23 70.6700000000001 A6 6 0 0 1 187.230003351032 76.6699999999991 L174.09 76.6700000000001 L174.09 36.6700000000001 Z" style="fill:rgb(255,255,255);" />
<path d=" M217.43 26.6700000000001 L228.43 26.6700000000001 L228.43 86.6700000000001 L217.43 86.6700000000001 L217.43 26.6700000000001 Z" style="fill:rgb(255,255,255);" />
<path d=" M243.43 26.6700000000001 L280.29 26.6700000000001 L280.29 36.6700000000001 L254.43 36.6700000000001 L254.43 52.6700000000001 L271.72 52.6700000000001 L271.72 62.6700000000001 L254.43 62.6700000000001 L254.43 76.6700000000001 L280.29 76.6700000000001 L280.29 86.6700000000001 L243.43 86.6700000000001 L243.43 26.6700000000001 Z" style="fill:rgb(255,255,255);" />
<path d=" M292.29 26.6700000000001 L302.29 26.6700000000001 L302.29 66.52 L320.58 26.6700000000001 L333.43 26.6700000000001 L333.43 86.6700000000001 L323.43 86.6700000000001 L323.43 46.8200000000002 L305.15 86.6700000000001 L292.29 86.6700000000001 L292.29 26.6700000000001 Z" style="fill:rgb(255,255,255);" />
<path d=" M346.63 41.73 L346.63 43.8099999999999 L357.63 43.8099999999999 L357.63 41.73 L357.6300010305 41.7331485571651 A4.81 4.81 0 0 1 360.97499094943 37.1485320603819 L360.97405435375 37.1556019369898 A20.49 20.49 0 0 1 373.429981560233 37.163270506359 L373.428234285318 37.1568661982046 A4.8 4.8 0 0 1 373.999273064313 46.0799483710102 L374 46.0799999999999 L356.88 58.46 L356.868192296692 58.4607220592093 A15.05 15.05 0 0 0 359.483442752617 86.6762069411791 L359.488477589636 86.6826338675275 A30.99 30.99 0 0 0 374.924093368897 86.68454419937 L374.914326176412 86.6842078673633 A15.05 15.05 0 0 0 386.20999861857 72.1035516639824 L386.21 72.0999999999999 L375.21 72.0999999999999 L375.219999077056 72.1027341985645 A4.05 4.05 0 0 1 372.175971686548 76.0230754473835 L372.172069437702 76.0292118671685 A19.99 19.99 0 0 1 362.215374808486 76.03112610888 L362.220591339813 76.0221925190815 A4.05 4.05 0 0 1 361.519140488628 68.4291064122823 L361.52 68.4299999999998 L378.65 56.0500000000002 L378.64764045299 56.0495362348292 A15.8 15.8 0 0 0 376.772176301553 26.6774552726522 L376.769404975873 26.6760356534797 A31.49 31.49 0 0 0 357.626544981419 26.6837087307973 L357.627554940268 26.6775410165563 A15.8 15.8 0 0 0 346.63 41.7300013788101 Z" style="fill:rgb(255,255,255);" />
<path d=" M410.04 26.6700000000001 L421.04 26.6700000000001 L421.04 76.6700000000001 L436.11 76.6700000000001 L436.11 86.6700000000001 L394.97 86.6700000000001 L394.97 76.6700000000001 L410.04 76.6700000000001 L410.04 26.6700000000001 Z" style="fill:rgb(255,255,255);" />
<path d=" M446.91 26.6700000000001 L483.77 26.6700000000001 L483.77 36.6700000000001 L457.91 36.6700000000001 L457.91 52.6700000000001 L475.2 52.6700000000001 L475.2 62.6700000000001 L457.91 62.6700000000001 L457.91 76.6700000000001 L483.77 76.6700000000001 L483.77 86.6700000000001 L446.91 86.6700000000001 L446.91 26.6700000000001 Z" style="fill:rgb(255,255,255);" />
<path d=" M495.77 26.6700000000001 L505.77 26.6700000000001 L505.77 66.52 L524.06 26.6700000000001 L536.91 26.6700000000001 L536.91 86.6700000000001 L526.91 86.6700000000001 L526.91 46.8200000000002 L508.63 86.6700000000001 L495.77 86.6700000000001 L495.77 26.6700000000001 Z" style="fill:rgb(255,255,255);" />
<path d=" M602.87 113.33 L628.01 113.33 A16 16 0 0 1 644.009999999999 129.329993577188 L644.01 157.33 A16 16 0 0 1 628.010008936086 173.329999999997 L602.87 173.33 L602.87 113.33 Z M613.87 123.33 L627.01 123.33 A6 6 0 0 1 633.009999999999 129.329997591446 L633.01 157.33 A6 6 0 0 1 627.010003351032 163.329999999999 L613.87 163.33 L613.87 123.33 Z" style="fill:rgb(255,255,255);" />
<path d=" M547.5 113.33 L558.5 113.33 L558.5 139.33 L564.29 139.33 L579.36 113.33 L592.07 113.33 L576.7 139.85 L576.700618175134 139.853844791558 A16 16 0 0 1 588.639999999999 155.330006422812 L588.64 157.33 A16 16 0 0 1 572.640008936086 173.329999999997 L547.5 173.33 L547.5 113.33 Z M558.5 149.33 L571.64 149.33 A6 6 0 0 1 577.639999999999 155.329997591446 L577.64 157.33 A6 6 0 0 1 571.640003351032 163.329999999999 L558.5 163.33 L558.5 149.33 Z" style="fill:rgb(255,255,255);" />
<path d=" M498.64 113.33 L535.5 113.33 L535.5 123.33 L509.64 123.33 L509.64 139.33 L526.93 139.33 L526.93 149.33 L509.64 149.33 L509.64 163.33 L535.5 163.33 L535.5 173.33 L498.64 173.33 L498.64 113.33 Z" style="fill:rgb(255,255,255);" />
<path d=" M444.3 113.33 L469.44 113.33 A16 16 0 0 1 485.439999999999 129.329993577188 L485.44 157.33 A16 16 0 0 1 469.440008936086 173.329999999997 L444.3 173.33 L444.3 113.33 Z M455.3 123.33 L468.44 123.33 A6 6 0 0 1 474.439999999999 129.329997591446 L474.44 157.33 A6 6 0 0 1 468.440003351032 163.329999999999 L455.3 163.33 L455.3 123.33 Z" style="fill:rgb(255,255,255);" />
<path d=" M388.16 113.33 L398.16 113.33 L398.16 153.18 L416.45 113.33 L429.3 113.33 L429.3 173.33 L419.3 173.33 L419.3 133.48 L401.02 173.33 L388.16 173.33 L388.16 113.33 Z" style="fill:rgb(255,255,255);" />
<path d=" M333.81 153.96 L333.81 132.7 A20.57 20.57 0 1 1 374.95 132.699998563943 L374.95 153.96 A20.57 20.57 0 0 1 333.81 153.96 Z M344.81 154.96 L344.81 131.7 A9.57 9.57 0 1 1 363.95 131.699999331888 L363.95 154.96 A9.57 9.57 0 0 1 344.81 154.96 Z" style="fill:rgb(255,255,255);" />
<path d=" M281.27 113.33 L322.41 113.33 L322.41 123.33 L293.81 123.33 L321.21 163.33 L321.21 173.33 L282.47 173.33 L282.47 163.33 L308.67 163.33 L281.27 123.33 L281.27 113.33 Z" style="fill:rgb(255,255,255);" />
<path d=" M235.41 113.33 L272.27 113.33 L272.27 123.33 L246.41 123.33 L246.41 139.33 L263.7 139.33 L263.7 149.33 L246.41 149.33 L246.41 163.33 L272.27 163.33 L272.27 173.33 L235.41 173.33 L235.41 113.33 Z" style="fill:rgb(255,255,255);" />
<path d=" M211.21 131.7 L211.21 139.33 L201.64 139.33 L201.64 149.33 L222.21 149.33 L222.21 132.7 A20.57 20.57 0 0 0 181.07 132.700001795071 L181.07 153.96 L181.070000014496 153.960772239602 A20.57 20.57 0 0 0 221.496600299175 159.330318850756 L221.5 159.33 L210.16 159.33 L210.153589021088 159.330778189295 A9.57 9.57 0 0 1 192.07 154.959998663776 L192.07 131.7 A9.57 9.57 0 1 1 211.21 131.699999331888 Z" style="fill:rgb(255,255,255);" />
<path d=" M147.8 113.33 L158.8 113.33 L158.8 163.33 L173.87 163.33 L173.87 173.33 L132.73 173.33 L132.73 163.33 L147.8 163.33 L147.8 113.33 Z" style="fill:rgb(255,255,255);" />
<path d=" M110.93 113.33 L121.93 113.33 L121.93 173.33 L110.93 173.33 L110.93 113.33 Z" style="fill:rgb(255,255,255);" />
<path d=" M55.99 173.33 L55.99 132.7 A20.57 20.57 0 1 1 97.1299999999999 132.699998563943 L97.13 173.33 L86.13 173.33 L86.13 131.7 A9.57 9.57 0 1 0 66.9900000000001 131.700001002168 L66.99 173.33 L55.99 173.33 Z" style="fill:rgb(255,255,255);" />
</g>
</svg>
