<?xml version="1.0" encoding="UTF-8"?>
<!DOCTYPE svg PUBLIC '-//W3C//DTD SVG 1.0//EN' 'http://www.w3.org/TR/2001/REC-SVG-20010904/DTD/svg10.dtd'>
<svg xmlns:xlink="http://www.w3.org/1999/xlink" xmlns="http://www.w3.org/2000/svg" width="700" height="200">
<!--Gegenereerd door de SIMaD-toepassing (http://www.dlw.be).-->
<g style="stroke:none;fill-rule:evenodd;" transform="matrix(1,0,0,-1,0,200)">
<path d=" M45 0 L654.999996858407 1.06581410364015E-13 A45 45 0 0 1 700 45.0000031415927 L699.999999999999 154.99999136062 A45 45 0 0 1 655.000003141593 200 L45.0000031415927 200 A45 45 0 0 1 1.06581410364015E-13 154.999996858407 L1.06581410364015E-13 45.0000031415927 A45 45 0 0 1 45.0000031415927 1.06581410364015E-13 Z" style="fill:rgb(0,0,255);" />
<path d=" M119.77 140 L119.77 78.2900015952309 A9.14 9.14 0 0 1 138.05 78.289998404769 L138.05 140 L149.48 140 L149.48 79.4299964098576 A20.57 20.57 0 0 0 108.34 79.4300035901421 L108.34 140 Z" style="fill:rgb(255,255,255);" />
<path d=" M164.69 60 L176.12 60 L176.12 140 L164.69 140 Z" style="fill:rgb(255,255,255);" />
<path d=" M201.37 60 L201.37 129.71 L186.51 129.71 L186.51 140 L227.65 140 L227.65 129.71 L212.8 129.71 L212.8 60 Z" style="fill:rgb(255,255,255);" />
<path d=" M264.57 95.4299999999998 L264.57 78.289998404769 A9.14 9.14 0 0 0 246.29 78.2900015952309 L246.29 121.709998404769 A9.14 9.14 0 0 0 264.57 121.710001595231 L264.57 120.57 L276 120.570003590142 A20.57 20.57 0 0 1 234.86 120.569996409858 L234.86 79.4300035901421 A20.57 20.57 0 0 1 276 79.4299964098576 L276 105.71 L255.43 105.71 L255.43 95.4299999999998 Z" style="fill:rgb(255,255,255);" />
<path d=" M290.4 60 L290.4 140 L328.11 140 L328.11 129.71 L301.83 129.71 L301.83 105.14 L318.97 105.14 L318.97 94.8600000000001 L301.83 94.8600000000001 L301.83 70.29 L328.11 70.29 L328.11 60 Z" style="fill:rgb(255,255,255);" />
<path d=" M337.71 60 L337.71 70.29 L365.12 129.71 L338.85 129.71 L338.85 140 L377.71 140 L377.71 129.71 L350.3 70.29 L378.85 70.29 L378.85 60 Z" style="fill:rgb(255,255,255);" />
<path d=" M398.29 64.8600000000001 A4.86 4.86 0 0 1 388.57 64.8600000000001 A4.86 4.86 0 0 1 398.29 64.8600000000001 Z" style="fill:rgb(255,255,255);" />
<path d=" M439.89 60 L439.89 140 L462.750020430126 139.999999999989 A18.29 18.29 0 0 0 481.039999999994 121.710014684153 L481.03 121.71 L481.03 113.140003630285 A16 16 0 0 0 474.699910395734 100.392732334399 L474.7 100.4 L474.71924734915 100.390752185671 A16 16 0 0 0 482.179999999993 86.8600148003922 L482.179999999994 78.2899853158468 A18.29 18.29 0 0 0 463.890020430126 60.0000000000114 Z M451.32 70.29 L462.750008936086 70.290000000005 A8 8 0 0 1 470.749999999997 78.2899935771883 L470.749999999997 86.8600064228118 A8 8 0 0 1 462.750008936086 94.8599999999951 L451.32 94.8600000000001 Z M451.32 129.71 L461.600008936086 129.709999999995 A8 8 0 0 0 469.599999999997 121.710006422812 L469.599999999997 113.139993577188 A8 8 0 0 0 461.600008936086 105.140000000005 L451.32 105.14 Z" style="fill:rgb(255,255,255);" />
<path d=" M507.2 140 L507.2 78.2900015952309 A9.14 9.14 0 0 1 525.48 78.289998404769 L525.48 140 L536.91 140 L536.91 79.4299964098576 A20.57 20.57 0 0 0 495.77 79.4300035901421 L495.77 140 Z" style="fill:rgb(255,255,255);" />
<path d=" M550.51 82.8600000000001 L550.510000000002 79.4300082573271 A20.57 20.57 0 1 1 585.625188012176 93.9751849658387 L585.63 93.9699999999998 L565.423147132738 116.053144368278 A8 8 0 1 0 579.08 121.709999581121 L590.51 121.709998982648 A19.43 19.43 0 1 1 557.340918598638 107.970911884454 L557.34 107.98 L577.542956656844 85.8929553032457 A9.14 9.14 0 1 0 561.940000000001 79.430003669031 L561.94 82.8600000000001 Z" style="fill:rgb(255,255,255);" />
</g>
</svg>
