<?xml version="1.0" encoding="UTF-8"?>
<!DOCTYPE svg PUBLIC '-//W3C//DTD SVG 1.0//EN' 'http://www.w3.org/TR/2001/REC-SVG-20010904/DTD/svg10.dtd'>
<svg xmlns:xlink="http://www.w3.org/1999/xlink" xmlns="http://www.w3.org/2000/svg" width="700.000000670556" height="200">
<!--Gegenereerd door de SIMaD-toepassing (http://www.dlw.be).-->
<g style="stroke:none;fill-rule:evenodd;" transform="matrix(1,0,0,-1,0,200)">
<path d=" M45 0 L654.999996858407 1.06581410364015E-13 A45 45 0 0 1 700 45.0000031415927 L699.999999999999 154.99999136062 A45 45 0 0 1 655.000003141593 200 L45.0000031415927 200 A45 45 0 0 1 1.06581410364015E-13 154.999996858407 L1.06581410364015E-13 45.0000031415927 A45 45 0 0 1 45.0000031415927 1.06581410364015E-13 Z" style="fill:rgb(0,0,255);" />
<path d=" M55.99 173.33 L55.9900000000003 132.700003590142 A20.57 20.57 0 0 1 97.1299999999997 132.699996409858 L97.13 173.33 L86.13 173.33 L86.1299999999999 131.69999832972 A9.57 9.57 0 0 0 66.9900000000002 131.70000167028 L66.99 173.33 Z" style="fill:rgb(255,255,255);" />
<path d=" M110.93 113.33 L121.93 113.33 L121.93 173.33 L110.93 173.33 Z" style="fill:rgb(255,255,255);" />
<path d=" M147.8 113.33 L158.8 113.33 L158.8 163.33 L173.87 163.33 L173.87 173.33 L132.73 173.33 L132.73 163.33 L147.8 163.33 Z" style="fill:rgb(255,255,255);" />
<path d=" M211.21 131.7 L211.21 139.33 L201.64 139.33 L201.64 149.33 L222.21 149.33 L222.21 132.699996409858 A20.57 20.57 0 0 0 181.07 132.700003590142 L181.07 153.960001795071 A20.57 20.57 0 0 0 221.49639904747 159.331062917862 L221.5 159.33 L210.153588334527 159.330779526606 A9.57 9.57 0 0 1 192.07 154.959997160524 L192.07 131.70000167028 A9.57 9.57 0 0 1 211.21 131.69999832972 Z" style="fill:rgb(255,255,255);" />
<path d=" M235.41 113.33 L272.27 113.33 L272.27 123.33 L246.41 123.33 L246.41 139.33 L263.7 139.33 L263.7 149.33 L246.41 149.33 L246.41 163.33 L272.27 163.33 L272.27 173.33 L235.41 173.33 Z" style="fill:rgb(255,255,255);" />
<path d=" M281.27 113.33 L322.41 113.33 L322.41 123.33 L293.81 123.33 L321.21 163.33 L321.21 173.33 L282.47 173.33 L282.47 163.33 L308.67 163.33 L281.27 123.33 Z" style="fill:rgb(255,255,255);" />
<path d=" M333.81 153.96 L333.82 132.700003590142 A20.57 20.57 0 0 1 374.96 132.699996409858 L374.96 153.96 A20.57 20.57 0 0 1 333.82 153.96 Z M344.81 154.96 L344.82 131.70000167028 A9.57 9.57 0 0 1 363.96 131.69999832972 L363.96 154.96 A9.57 9.57 0 0 1 344.82 154.96 Z" style="fill:rgb(255,255,255);" />
<path d=" M388.16 113.33 L398.16 113.33 L398.16 153.18 L416.44 113.33 L429.3 113.33 L429.3 173.33 L419.3 173.33 L419.3 133.48 L401.01 173.33 L388.16 173.33 Z" style="fill:rgb(255,255,255);" />
<path d=" M444.3 113.33 L469.440017872172 113.33000000001 A16 16 0 0 1 485.439999999995 129.329987154377 L485.439999999995 157.330012845623 A16 16 0 0 1 469.440017872172 173.32999999999 L444.3 173.33 Z M455.3 123.33 L468.440006702064 123.330000000004 A6 6 0 0 1 474.439999999998 129.329995182891 L474.439999999998 157.330004817109 A6 6 0 0 1 468.440006702064 163.329999999996 L455.3 163.33 Z" style="fill:rgb(255,255,255);" />
<path d=" M498.64 113.33 L535.5 113.33 L535.5 123.33 L509.64 123.33 L509.64 139.33 L526.93 139.33 L526.93 149.33 L509.64 149.33 L509.64 163.33 L535.5 163.33 L535.5 173.33 L498.64 173.33 Z" style="fill:rgb(255,255,255);" />
<path d=" M547.5 113.33 L558.5 113.33 L558.5 139.33 L564.29 139.33 L579.36 113.33 L592.07 113.33 L576.70062438766 139.853846421596 A16 16 0 0 1 588.639999999995 155.330012845623 L588.639999999995 157.330012845623 A16 16 0 0 1 572.640017872171 173.32999999999 L547.5 173.33 Z M558.5 149.33 L571.640006702064 149.330000000004 A6 6 0 0 1 577.639999999998 155.329995182891 L577.639999999998 157.330004817109 A6 6 0 0 1 571.640006702064 163.329999999996 L558.5 163.33 Z" style="fill:rgb(255,255,255);" />
<path d=" M602.87 113.33 L628.010017872172 113.33000000001 A16 16 0 0 1 644.009999999995 129.329987154377 L644.009999999995 157.330012845623 A16 16 0 0 1 628.010017872172 173.32999999999 L602.87 173.33 Z M613.87 123.33 L627.010006702064 123.330000000004 A6 6 0 0 1 633.009999999998 129.329995182891 L633.009999999998 157.330004817109 A6 6 0 0 1 627.010006702064 163.329999999996 L613.87 163.33 Z" style="fill:rgb(255,255,255);" />
<path d=" M168.61 26.6700000000001 L179.61 26.6700000000001 L179.61 52.6700000000001 L196.9 52.6700000000001 L196.9 62.6700000000001 L179.61 62.6700000000001 L179.61 76.6700000000001 L205.47 76.6700000000001 L205.47 86.6700000000001 L168.61 86.6700000000001 Z" style="fill:rgb(255,255,255);" />
<path d=" M215.07 26.6700000000001 L226.07 26.6700000000001 L226.07 86.6700000000001 L215.07 86.6700000000001 Z" style="fill:rgb(255,255,255);" />
<path d=" M241.07 26.6700000000001 L277.93 26.6700000000001 L277.93 36.6700000000001 L252.07 36.6700000000001 L252.07 52.6700000000001 L269.36 52.6700000000001 L269.36 62.6700000000001 L252.07 62.6700000000001 L252.07 76.6700000000001 L277.93 76.6700000000001 L277.93 86.6700000000001 L241.07 86.6700000000001 Z" style="fill:rgb(255,255,255);" />
<path d=" M300.8 26.6700000000001 L311.8 26.6700000000001 L311.8 76.6700000000001 L326.87 76.6700000000001 L326.87 86.6700000000001 L285.73 86.6700000000001 L285.73 76.6700000000001 L300.8 76.6700000000001 Z" style="fill:rgb(255,255,255);" />
<path d=" M334.07 41.7199999999998 L334.07 43.8099999999999 L345.07 43.8099999999999 L345.07 41.7199991622418 A4.8 4.8 0 0 1 348.411030546124 37.1471006863632 L348.412035046109 37.1494325765591 A20.49 20.49 0 0 1 360.867964953891 37.1494325765591 L360.86897296561 37.1471018067727 A4.8 4.8 0 0 1 361.438570389715 46.0702761031882 L361.44 46.0799999999999 L344.319591589877 58.4600694702489 A15.05 15.05 0 0 0 346.93194713826 86.6758224380513 L346.924689277762 86.6739060866967 A30.98 30.98 0 0 0 362.355324861245 86.6739024509389 L362.358077029364 86.6758162235243 A15.05 15.05 0 0 0 373.659999999999 72.1000044654248 L362.66 72.0999983742257 A4.05 4.05 0 0 1 359.618621473825 76.0223950237754 L359.615860871593 76.0204834199705 A19.98 19.98 0 0 1 349.664146896189 76.0204854174075 L349.671387220433 76.022397259444 A4.05 4.05 0 0 1 348.968395655571 68.4294536417402 L348.97 68.4299999999998 L366.087380781839 56.0396573246124 A15.8 15.8 0 0 0 364.212449263171 26.6675423576523 L364.211424482919 26.669867777495 A31.49 31.49 0 0 0 345.068562950656 26.6698717867665 L345.067553626693 26.6675414356485 A15.8 15.8 0 0 0 334.07 41.72000275762 Z" style="fill:rgb(255,255,255);" />
<path d=" M388.41 26.6700000000001 L425.27 26.6700000000001 L425.27 36.6700000000001 L399.41 36.6700000000001 L399.41 52.6700000000001 L416.7 52.6700000000001 L416.7 62.6700000000001 L399.41 62.6700000000001 L399.41 76.6700000000001 L425.27 76.6700000000001 L425.27 86.6700000000001 L388.41 86.6700000000001 Z" style="fill:rgb(255,255,255);" />
<path d=" M437.27 26.6700000000001 L448.27 26.6700000000001 L448.27 52.6700000000001 L454.07 52.6700000000001 L469.13 26.6700000000001 L481.84 26.6700000000001 L466.47062438766 53.1938464215963 A16 16 0 0 1 478.409999999995 68.6700128456234 L478.409999999995 70.6700128456234 A16 16 0 0 1 462.410017872172 86.6699999999901 L437.27 86.6700000000001 Z M448.27 62.6700000000001 L461.410006702064 62.6700000000038 A6 6 0 0 1 467.409999999998 68.6699951828913 L467.409999999998 70.6700048171088 A6 6 0 0 1 461.410006702064 76.6699999999963 L448.27 76.6700000000001 Z" style="fill:rgb(255,255,255);" />
<path d=" M490.24 41.7199999999998 L490.24 43.8099999999999 L501.24 43.8099999999999 L501.25 41.7199991622418 A4.8 4.8 0 0 1 504.591030546124 37.1471006863632 L504.582035046109 37.1494325765591 A20.49 20.49 0 0 1 517.037964953891 37.1494325765591 L517.03897296561 37.1471018067727 A4.8 4.8 0 0 1 517.608570389715 46.0702761031882 L517.61 46.0799999999999 L500.489591589877 58.4600694702489 A15.05 15.05 0 0 0 503.10194713826 86.6758224380513 L503.094689277762 86.6739060866967 A30.98 30.98 0 0 0 518.525324861245 86.6739024509389 L518.528077029364 86.6758162235243 A15.05 15.05 0 0 0 529.829999999999 72.1000044654248 L518.83 72.0999983742257 A4.05 4.05 0 0 1 515.788621473825 76.0223950237754 L515.785860871593 76.0204834199705 A19.98 19.98 0 0 1 505.834146896189 76.0204854174075 L505.841387220433 76.022397259444 A4.05 4.05 0 0 1 505.138395655571 68.4294536417402 L505.14 68.4299999999998 L522.257380781839 56.0396573246124 A15.8 15.8 0 0 0 520.382449263171 26.6675423576523 L520.381424482919 26.669867777495 A31.49 31.49 0 0 0 501.238562950656 26.6698717867665 L501.247553626693 26.6675414356485 A15.8 15.8 0 0 0 490.25 41.72000275762 Z" style="fill:rgb(255,255,255);" />
</g>
</svg>
