<?xml version="1.0" encoding="UTF-8"?>
<!DOCTYPE svg PUBLIC '-//W3C//DTD SVG 1.0//EN' 'http://www.w3.org/TR/2001/REC-SVG-20010904/DTD/svg10.dtd'>
<svg xmlns:xlink="http://www.w3.org/1999/xlink" xmlns="http://www.w3.org/2000/svg" width="700.000000002975" height="200.000000000025">
<!--Gegenereerd door de SIMaD-toepassing (http://www.dlw.be).-->
<g style="stroke:none;fill-rule:evenodd;" transform="matrix(1,0,0,-1,0,200.000000000025)">
<path d=" M45 0 L654.999966227879 1.26760824059602E-11 A45 45 0 0 1 699.999999999987 45.000033772121 L699.999999999888 154.999899469035 A45 45 0 0 1 655.000033772121 199.999999999987 L45.000033772121 199.999999999987 A45 45 0 0 1 1.26760824059602E-11 154.999966227879 L1.26760824059602E-11 45.000033772121 A45 45 0 0 1 45.000033772121 1.26760824059602E-11 Z" style="fill:rgb(0,0,255);" />
<path d=" M38.18 115 L47.82 115 L61 160 L52.4 160 L43 127.89 L33.6 160 L25 160 Z" style="fill:rgb(255,255,255);" />
<path d=" M61 115 L69.6 115 L71.48 121.43 L86.52 121.43 L88.4 115 L97 115 L83.82 160 L74.18 160 Z M73.68 128.93 L84.32 128.93 L79 147.11 Z" style="fill:rgb(255,255,255);" />
<path d=" M104.2 115 L111.7 115 L111.7 144.89 L125.41 115 L135.06 115 L135.06 160 L127.56 160 L127.56 130.11 L113.84 160 L104.2 160 Z" style="fill:rgb(255,255,255);" />
<path d=" M583.3 115 L591.55 115 L591.55 152.5 L602.86 152.5 L602.86 160 L572 160 L572 152.5 L583.3 152.5 Z" style="fill:rgb(255,255,255);" />
<path d=" M608.26 145.47 L608.26 129.530002423739 A15.43 15.43 0 0 1 639.12 129.529997576261 L639.12 145.47 A15.43 15.43 0 0 1 608.26 145.47 Z M616.51 146.22 L616.51 128.780001127832 A7.18 7.18 0 0 1 630.87 128.779998872168 L630.87 146.22 A7.18 7.18 0 0 1 616.51 146.22 Z" style="fill:rgb(255,255,255);" />
<path d=" M655.81 115 L664.06 115 L664.06 152.5 L675.37 152.5 L675.37 160 L644.51 160 L644.51 152.5 L655.81 152.5 Z" style="fill:rgb(255,255,255);" />
<path d=" M165 115 L175 115 L175 151.59 L185.71 115 L196.13 115 L206.14 149.18 L206.14 115 L217.14 115 L217.14 175 L204.29 175 L191.07 129.88 L177.86 175 L165 175 Z" style="fill:rgb(255,255,255);" />
<path d=" M226.74 115 L238.2 115 L240.71 123.57 L260.77 123.57 L263.28 115 L274.74 115 L257.17 175 L244.31 175 Z M243.64 133.57 L257.84 133.57 L250.74 157.81 Z" style="fill:rgb(255,255,255);" />
<path d=" M283.14 115 L294.6 115 L297.11 123.57 L317.17 123.57 L319.68 115 L331.14 115 L313.57 175 L300.71 175 Z M300.04 133.57 L314.24 133.57 L307.14 157.81 Z" style="fill:rgb(255,255,255);" />
<path d=" M340.74 115 L350.74 115 L350.74 154.85 L369.03 115 L381.88 115 L381.88 175 L371.88 175 L371.88 135.15 L353.6 175 L340.74 175 Z" style="fill:rgb(255,255,255);" />
<path d=" M396.89 115 L422.030017872172 115.00000000001 A16 16 0 0 1 438.029999999995 130.999987154377 L438.029999999995 159.000012845623 A16 16 0 0 1 422.030017872172 174.99999999999 L396.89 175 Z M407.89 125 L421.030006702064 125.000000000004 A6 6 0 0 1 427.029999999998 130.999995182891 L427.029999999998 159.000004817109 A6 6 0 0 1 421.030006702064 164.999999999996 L407.89 165 Z" style="fill:rgb(255,255,255);" />
<path d=" M445.23 115 L456.69 115 L459.2 123.57 L479.26 123.57 L481.77 115 L493.23 115 L475.66 175 L462.8 175 Z M462.13 133.57 L476.33 133.57 L469.23 157.81 Z" style="fill:rgb(255,255,255);" />
<path d=" M530.57 133.37 L530.57 141 L521 141 L521 151 L541.57 151 L541.57 134.369996050843 A20.57 20.57 0 1 0 500.43 134.370003949156 L500.43 155.630001795071 A20.57 20.57 0 0 0 540.85639904747 161.001062917862 L540.86 161 L529.513588410812 161.000779378016 A9.57 9.57 0 0 1 511.43 156.629997160524 L511.43 133.37000167028 A9.57 9.57 0 0 1 530.57 133.36999832972 Z" style="fill:rgb(255,255,255);" />
<path d=" M200.57 25 L213.43 25 L231 85 L219.54 85 L207 42.1900000000001 L194.46 85 L183 85 Z" style="fill:rgb(255,255,255);" />
<path d=" M241.8 25 L252.8 25 L252.8 51 L258.59 51 L273.66 25 L286.37 25 L271.00062438766 51.5238464215962 A16 16 0 0 1 282.939999999995 67.0000128456233 L282.939999999995 69.0000128456233 A16 16 0 0 1 266.940017872172 84.99999999999 L241.8 85 Z M252.8 61 L265.940006702064 61.0000000000038 A6 6 0 0 1 271.939999999998 66.9999951828913 L271.939999999998 69.0000048171087 A6 6 0 0 1 265.940006702064 74.9999999999963 L252.8 75 Z" style="fill:rgb(255,255,255);" />
<path d=" M297.17 25 L308.17 25 L308.17 85 L297.17 85 Z" style="fill:rgb(255,255,255);" />
<path d=" M346.71 43.3699999999999 L346.71 85 L357.71 85 L357.71 44.3699960508434 A20.57 20.57 0 1 0 316.570000000001 44.3700039491564 L327.57 44.3699999999999 L327.57 43.37000167028 A9.57 9.57 0 0 1 346.71 43.3699983297198 Z" style="fill:rgb(255,255,255);" />
<path d=" M371.51 25 L396.650017872172 25.00000000001 A16 16 0 0 1 412.649999999995 40.9999871543767 L412.649999999995 69.0000128456233 A16 16 0 0 1 396.650017872172 84.99999999999 L371.51 85 Z M382.51 35 L395.650006702064 35.0000000000037 A6 6 0 0 1 401.649999999998 40.9999951828913 L401.649999999998 69.0000048171087 A6 6 0 0 1 395.650006702064 74.9999999999963 L382.51 75 Z" style="fill:rgb(255,255,255);" />
<path d=" M419.86 25 L431.32 25 L433.83 33.5699999999999 L453.89 33.5699999999999 L456.4 25 L467.86 25 L450.29 85 L437.43 85 Z M436.76 43.5699999999999 L450.96 43.5699999999999 L443.86 67.8099999999999 Z" style="fill:rgb(255,255,255);" />
<path d=" M505.2 43.3699999999999 L505.2 51 L495.63 51 L495.63 61 L516.2 61 L516.2 44.3699960508434 A20.57 20.57 0 1 0 475.06 44.3700039491564 L475.06 65.6300017950713 A20.57 20.57 0 0 0 515.48639904747 71.0010629178616 L515.49 71 L504.143588410812 71.0007793780161 A9.57 9.57 0 0 1 486.06 66.6299971605239 L486.06 43.37000167028 A9.57 9.57 0 0 1 505.2 43.3699983297198 Z" style="fill:rgb(255,255,255);" />
</g>
</svg>
