<?xml version="1.0" encoding="UTF-8"?>
<!DOCTYPE svg PUBLIC '-//W3C//DTD SVG 1.0//EN' 'http://www.w3.org/TR/2001/REC-SVG-20010904/DTD/svg10.dtd'>
<svg xmlns:xlink="http://www.w3.org/1999/xlink" xmlns="http://www.w3.org/2000/svg" width="1100.00000000098" height="299.999999999999">
<!--Gegenereerd door de SIMaD-toepassing (http://www.dlw.be).-->
<g style="stroke:none;fill-rule:evenodd;" transform="matrix(1,0,0,-1,0,299.999999999999)">
<path d=" M65 0 L1034.99999546214 1.56319401867222E-13 A65 65 0 0 1 1100 65.0000045378561 L1100 234.999987520896 A65 65 0 0 1 1035.00000453786 300 L65.0000045378561 300 A65 65 0 0 1 1.56319401867222E-13 234.999995462144 L1.56319401867222E-13 65.0000045378561 A65 65 0 0 1 65.0000045378561 1.56319401867222E-13 Z" style="fill:rgb(0,0,255);" />
<path d=" M53.71 60 L53.71 240 L79.42 240 L79.42 162.86 L120.57 162.86 L120.57 240 L146.28 240 L146.28 60 L120.57 60 L120.57 139.71 L79.42 139.71 L79.42 60 Z" style="fill:rgb(255,255,255);" />
<path d=" M182.29 60 L182.29 240 L267.15 240 L267.15 216.86 L208 216.86 L208 161.57 L246.58 161.57 L246.58 138.43 L208 138.43 L208 83.1399999999999 L267.15 83.1399999999999 L267.15 60 Z" style="fill:rgb(255,255,255);" />
<path d=" M294.14 60 L294.14 240 L345.570045953821 239.999999999974 A41.14 41.14 0 0 0 386.709999999987 198.860033029309 L386.70999999999 180.860028721138 A41.14 41.14 0 0 0 353.306106018997 140.453908087235 L353.31 140.45 L390.31 60 L362.01 60 L325.34 139.71 L319.85 139.71 L319.85 60 Z M319.85 216.86 L343.000020106193 216.859999999989 A18 18 0 0 0 360.999999999994 198.860014451326 L360.999999999994 180.859985548674 A18 18 0 0 0 343.000020106193 162.860000000011 L319.85 162.86 Z" style="fill:rgb(255,255,255);" />
<path d=" M415.51 60 L415.51 240 L441.22 240 L441.22 162.86 L482.37 162.86 L482.37 240 L508.08 240 L508.08 60 L482.37 60 L482.37 139.71 L441.22 139.71 L441.22 60 Z" style="fill:rgb(255,255,255);" />
<path d=" M533.29 60 L559.63 60 L564.18 80.5700000000002 L610.4 80.5700000000002 L614.95 60 L641.29 60 L601.43 240 L573.15 240 Z M569.31 103.71 L605.27 103.71 L587.29 184.93 Z" style="fill:rgb(255,255,255);" />
<path d=" M666.49 60 L666.49 240 L692.2 240 L692.2 83.1399999999999 L743.63 83.1399999999999 L743.63 60 Z" style="fill:rgb(255,255,255);" />
<path d=" M767.03 60 L792.74 60 L792.74 240 L767.03 240 Z" style="fill:rgb(255,255,255);" />
<path d=" M828.74 60 L828.74 240 L855.74 240 L898.17 124.21 L898.17 240 L921.31 240 L921.31 60 L894.31 60 L851.88 175.79 L851.88 60 Z" style="fill:rgb(255,255,255);" />
<path d=" M1020.57 139.71 L1020.57 101.139996409858 A20.57 20.57 0 0 0 979.43 101.140003590142 L979.42 101.14 L979.43 198.859996409858 A20.57 20.57 0 0 0 1020.57 198.860003590142 L1020.57 196.29 L1046.29 196.290007271216 A46.29 46.29 0 0 1 953.710000000001 196.289992728784 L953.710000000001 103.710007271216 A46.29 46.29 0 0 1 1046.29 103.709992728784 L1046.28 103.71 L1046.28 162.86 L1000 162.86 L1000 139.71 Z" style="fill:rgb(255,255,255);" />
</g>
</svg>
