<?xml version="1.0" encoding="UTF-8"?>
<!DOCTYPE svg PUBLIC '-//W3C//DTD SVG 1.0//EN' 'http://www.w3.org/TR/2001/REC-SVG-20010904/DTD/svg10.dtd'>
<svg xmlns:xlink="http://www.w3.org/1999/xlink" xmlns="http://www.w3.org/2000/svg" width="400" height="400">
<!--Gegenereerd door de SIMaD-toepassing (http://www.dlw.be).-->
<g style="stroke:none;fill-rule:evenodd;" transform="matrix(1,0,0,-1,0,400)">
<path d=" M0 37.14 L7.8159700933611E-14 362.859997407139 A37.14 37.14 0 0 0 37.1400025928611 400 L362.859997407139 400 A37.14 37.14 0 0 0 400 362.859997407139 L399.999999999999 37.1400071303681 A37.14 37.14 0 0 0 362.860002592861 7.8159700933611E-14 L37.1400025928611 7.8159700933611E-14 A37.14 37.14 0 0 0 7.8159700933611E-14 37.1400025928611 Z" style="fill:rgb(0,0,255);" />
<path d=" M185.71 242.86 L214.29 242.86 L214.29 371.43 L185.71 371.43 Z" style="fill:rgb(255,255,255);" />
<path d=" M28.57 214.29 L28.57 185.71 L157.14 185.71 L157.14 214.29 Z" style="fill:rgb(255,255,255);" />
<path d=" M371.43 177.14 L371.43 222.86 L325.710010372143 222.86 A148.57 148.57 0 0 1 177.14 74.2899896278573 L177.14 28.5700000000001 L222.86 28.5700000000001 L222.85 74.2899928190173 A102.86 102.86 0 0 0 325.710007180983 177.15 L325.71 177.14 Z" style="fill:rgb(255,255,255);" />
</g>
</svg>
