<?xml version="1.0" encoding="UTF-8"?>
<!DOCTYPE svg PUBLIC '-//W3C//DTD SVG 1.0//EN' 'http://www.w3.org/TR/2001/REC-SVG-20010904/DTD/svg10.dtd'>
<svg xmlns:xlink="http://www.w3.org/1999/xlink" xmlns="http://www.w3.org/2000/svg" width="700" height="200">
<!--Gegenereerd door de SIMaD-toepassing (http://www.dlw.be).-->
<g style="stroke:none;fill-rule:evenodd;" transform="matrix(1,0,0,-1,0,200)">
<path d=" M45 0 L655 0 A45 45 0 0 1 700 45 L700 155 A45 45 0 0 1 655 200 L45 200 A45 45 0 0 1 0 155 L0 45 A45 45 0 0 1 45 0 Z" style="fill:rgb(0,0,255);" />
<path d=" M78.93 50 L78.93 150 L107.500025534865 149.999999999986 A22.86 22.86 0 0 0 130.359999999993 127.140018353184 L130.36 116.430004537856 A20 20 0 0 0 122.447387994668 100.495915417999 L122.45 100.49 L122.464059186438 100.483440232088 A20 20 0 0 0 131.789999999991 83.5700185004901 L131.789999999993 72.8599816468157 A22.86 22.86 0 0 0 108.930025534865 50.0000000000143 Z M93.22 62.86 L107.500011170107 62.8600000000062 A10 10 0 0 1 117.499999999997 72.8599919714854 L117.499999999997 83.5700080285145 A10 10 0 0 1 107.500011170107 93.5699999999938 L93.22 93.57 Z M93.22 137.14 L106.070011170107 137.139999999994 A10 10 0 0 0 116.069999999997 127.140008028515 L116.069999999997 116.429991971485 A10 10 0 0 0 106.070011170107 106.430000000006 L93.22 106.43 Z" style="fill:rgb(255,255,255);" />
<path d=" M149.79 50 L149.79 150 L196.93 150 L196.93 137.14 L164.08 137.14 L164.08 106.43 L185.5 106.43 L185.5 93.57 L164.08 93.57 L164.08 62.86 L196.93 62.86 L196.93 50 Z" style="fill:rgb(255,255,255);" />
<path d=" M207.93 150 L225.07 50 L239.36 50 L250.07 112.5 L260.79 50 L275.07 50 L292.22 150 L279.17 150 L268.56 88.08 L257.94 150 L243.65 150 L233.04 88.08 L222.42 150 Z" style="fill:rgb(255,255,255);" />
<path d=" M301.21 74.29 L301.21 125.709995064034 A25.71 25.71 0 0 0 352.629999999999 125.710004935966 L352.64 125.71 L352.63 74.29 A25.71 25.71 0 0 0 301.21 74.29 Z M315.5 72.86 L315.49 127.139997805598 A11.43 11.43 0 0 0 338.35 127.140002194402 L338.35 72.86 A11.43 11.43 0 0 0 315.49 72.86 Z" style="fill:rgb(255,255,255);" />
<path d=" M370.64 50 L370.64 150 L385.64 150 L409.21 85.67 L409.21 150 L422.07 150 L422.07 50 L407.07 50 L383.5 114.33 L383.5 50 Z" style="fill:rgb(255,255,255);" />
<path d=" M442.07 50 L442.07 150 L489.21 150 L489.21 137.14 L456.36 137.14 L456.36 106.43 L477.78 106.43 L477.78 93.57 L456.36 93.57 L456.36 62.86 L489.21 62.86 L489.21 50 Z" style="fill:rgb(255,255,255);" />
<path d=" M504.21 50 L504.21 150 L532.780025534865 149.999999999986 A22.86 22.86 0 0 0 555.639999999993 127.140018353184 L555.639999999994 117.140015959291 A22.86 22.86 0 0 0 537.078672425724 94.687806000831 L537.08 94.69 L557.64 50 L541.91 50 L521.54 94.29 L518.5 94.29 L518.5 50 Z M518.5 137.14 L531.350011170107 137.139999999994 A10 10 0 0 0 541.349999999997 127.140008028515 L541.349999999997 117.139991971485 A10 10 0 0 0 531.350011170107 107.140000000006 L518.5 107.14 Z" style="fill:rgb(255,255,255);" />
<path d=" M569.64 78.57 L569.640000000002 74.2900103206555 A25.71 25.71 0 1 1 613.529717248081 92.4697134405307 L613.54 92.47 L588.278933915923 120.068930460347 A10 10 0 1 0 605.35 127.139999476401 L619.64 127.139998728179 A24.29 24.29 0 1 1 578.174380481776 109.964372088183 L578.18 109.97 L603.432231355331 82.372229662593 A11.43 11.43 0 1 0 583.920000000001 74.2900045882961 L583.93 74.29 L583.93 78.57 Z" style="fill:rgb(255,255,255);" />
</g>
</svg>
