<?xml version="1.0" encoding="UTF-8"?>
<!DOCTYPE svg PUBLIC '-//W3C//DTD SVG 1.0//EN' 'http://www.w3.org/TR/2001/REC-SVG-20010904/DTD/svg10.dtd'>
<svg xmlns:xlink="http://www.w3.org/1999/xlink" xmlns="http://www.w3.org/2000/svg" width="450" height="200">
<!--Gegenereerd door de SIMaD-toepassing (http://www.dlw.be).-->
<g style="stroke:none;fill-rule:evenodd;" transform="matrix(1,0,0,-1,0,200)">
<path d=" M405 200 L45.0000031415927 200 A45 45 0 0 1 1.06581410364015E-13 154.999996858407 L1.06581410364015E-13 45.0000031415927 A45 45 0 0 1 45.0000031415927 1.06581410364015E-13 L404.999996858407 1.06581410364015E-13 A45 45 0 0 1 450 45.0000031415927 L449.999999999999 154.99999136062 A45 45 0 0 1 405.000003141593 200 Z" style="fill:rgb(0,0,255);" />
<path d=" M272.75 34.77 L243.49 91.86 L199.74 92.0599999999999 L192.316328201115 158.079575258527 A13.73 13.73 0 1 0 204.054516722929 147.596559344173 L204.05 147.59 L206.46 122.81 L232.48 122.81 L232.48 117.18 L207.06 117.18 L208.64 102.35 L249.81 102.35 L278.42 46.4 L294.91 56 L299.09 48.27 Z" style="fill:rgb(255,255,255);" />
<path d=" M188.42 121.4 L189.568916241597 113.953021126261 A41.39 41.39 0 1 1 241.179733139638 72.5549015654551 L241.18 72.5599999999999 L247.109719471064 61.4424805880221 A48.9 48.9 0 1 0 188.422041763411 121.405487666532 Z" style="fill:rgb(255,255,255);" />
</g>
</svg>
