<?xml version="1.0" encoding="UTF-8"?>
<!DOCTYPE svg PUBLIC '-//W3C//DTD SVG 1.0//EN' 'http://www.w3.org/TR/2001/REC-SVG-20010904/DTD/svg10.dtd'>
<svg xmlns:xlink="http://www.w3.org/1999/xlink" xmlns="http://www.w3.org/2000/svg" width="450" height="200">
<!--Gegenereerd door de SIMaD-toepassing (http://www.dlw.be).-->
<g style="stroke:none;fill-rule:evenodd;" transform="matrix(1,0,0,-1,0,200)">
<path d=" M45 0 L405 0 A45 45 0 0 1 450 45.0000031415927 L450 155 A45 45 0 0 1 405.000003141593 200 L45 200 A45 45 0 0 1 1.06581410364015E-13 154.999996858407 L0 45 A45 45 0 0 1 45.0000031415927 1.06581410364015E-13 Z" style="fill:rgb(0,0,255);" />
<path d=" M244.84 175 L281.17 175 L281.17 25 L168.83 25 L168.83 175 L205.158949462584 174.998328620726 A25.05 25.05 0 0 1 244.841050537416 174.998328620726 Z" style="fill:rgb(255,255,255);" />
<path d=" M246.73 170.97 L277.15 170.97 L277.15 29.02 L172.85 29.02 L172.85 170.97 L203.272809981187 170.976944470478 A29.07 29.07 0 0 1 246.727190018813 170.976944470478 Z" style="fill:rgb(0,0,255);" />
<path d=" M191.55 107.6 L212.459951774116 119.680000656595 A14.48 14.48 0 0 1 237.540048225884 119.680000656595 L237.54 119.67 L258.454562359524 107.605001751677 A38.63 38.63 0 0 0 191.545437640476 107.605001751677 Z" style="fill:rgb(255,255,255);" />
<path d=" M212.03 39.83 L237.97 39.83 L237.97 77.49 L212.03 77.49 L212.03 39.83 Z" style="fill:rgb(255,255,255);" />
<path d=" M215.34 150.77 L234.66 150.77 L225 123.25 L215.34 150.77 Z" style="fill:rgb(255,255,255);" />
<path d=" M214.93 42.73 L235.07 42.73 L235.07 74.59 L214.93 74.59 L214.93 42.73 Z" style="fill:rgb(0,0,255);" />
<path d=" M218.79 46.59 L218.79 70.73 L225.69 70.73 L225.685178941848 70.7299978946915 A5.52 5.52 0 0 0 231.209997885426 65.214831655787 L231.21 65.22 L231.21 62.7999999999999 L231.199997893934 62.804821925231 A5.52 5.52 0 0 0 225.684832522866 57.2800021153334 L225.69 57.28 L222.24 57.28 L222.24 46.59 L218.79 46.59 Z M222.24 67.63 L225.35 67.63 A2.41 2.41 0 0 0 227.76 65.2200010094985 L227.76 62.7999999999999 A2.41 2.41 0 0 0 225.350001303935 60.3900000000003 L222.24 60.39 L222.24 67.63 Z" style="fill:rgb(255,255,255);" />
</g>
</svg>
