<?xml version="1.0" encoding="UTF-8"?>
<!DOCTYPE svg PUBLIC '-//W3C//DTD SVG 1.0//EN' 'http://www.w3.org/TR/2001/REC-SVG-20010904/DTD/svg10.dtd'>
<svg xmlns:xlink="http://www.w3.org/1999/xlink" xmlns="http://www.w3.org/2000/svg" width="700" height="200">
<!--Gegenereerd door de SIMaD-toepassing (http://www.dlw.be).-->
<g style="stroke:none;fill-rule:evenodd;" transform="matrix(1,0,0,-1,0,200)">
<path d=" M45 0 L655 0 A45 45 0 0 1 700 45 L700 155 A45 45 0 0 1 655 200 L45 200 A45 45 0 0 1 0 155 L0 45 A45 45 0 0 1 45 0 Z" style="fill:rgb(0,0,255);" />
<path d=" M69.86 50 L84.49 50 L87.02 61.4299999999998 L112.7 61.4299999999998 L115.23 50 L129.86 50 L107.72 150 L92 150 Z M89.87 74.29 L109.85 74.29 L99.86 119.41 Z" style="fill:rgb(255,255,255);" />
<path d=" M151.15 150 L151.14 72.8600017954203 A11.43 11.43 0 0 1 174 72.8599982045799 L174 150 L188.29 150 L188.28 74.2899950640343 A25.71 25.71 0 1 0 136.86 74.2900049359656 L136.86 150 Z" style="fill:rgb(255,255,255);" />
<path d=" M217.86 50 L217.86 137.14 L199.29 137.14 L199.29 150 L250.72 150 L250.72 137.14 L232.15 137.14 L232.15 50 Z" style="fill:rgb(255,255,255);" />
<path d=" M259.71 74.29 L259.71 125.709995064034 A25.71 25.71 0 0 0 311.129999999999 125.710004935966 L311.14 125.71 L311.13 74.29 A25.71 25.71 0 0 0 259.71 74.29 Z M274 72.8600000000001 L273.99 127.139997805597 A11.43 11.43 0 0 0 296.85 127.140002194402 L296.85 72.8600000000001 A11.43 11.43 0 0 0 273.99 72.8600000000001 Z" style="fill:rgb(255,255,255);" />
<path d=" M329.14 50 L357.710025534865 50.0000000000144 A22.86 22.86 0 0 1 380.569999999993 72.8599816468158 L380.569999999993 127.140018353184 A22.86 22.86 0 0 1 357.710025534865 149.999999999986 L329.14 150 Z M343.43 62.8600000000001 L356.280011170107 62.8600000000064 A10 10 0 0 1 366.279999999997 72.8599919714856 L366.279999999997 127.140008028514 A10 10 0 0 1 356.280011170107 137.139999999994 L343.43 137.14 Z" style="fill:rgb(255,255,255);" />
<path d=" M398.57 50 L398.57 150 L445.71 150 L445.71 137.14 L412.86 137.14 L412.86 106.43 L434.28 106.43 L434.28 93.5700000000002 L412.86 93.5700000000002 L412.86 62.8600000000001 L445.71 62.8600000000001 L445.71 50 Z" style="fill:rgb(255,255,255);" />
<path d=" M460.71 50 L460.71 150 L475 150 L475 62.8600000000001 L503.57 62.8600000000001 L503.57 50 Z" style="fill:rgb(255,255,255);" />
<path d=" M516.57 50 L516.57 150 L563.71 150 L563.71 137.14 L530.86 137.14 L530.86 106.43 L552.28 106.43 L552.28 93.5700000000002 L530.86 93.5700000000002 L530.86 62.8600000000001 L563.71 62.8600000000001 L563.71 50 Z" style="fill:rgb(255,255,255);" />
<path d=" M578.71 50 L578.71 150 L593.71 150 L617.28 85.6700000000001 L617.28 150 L630.14 150 L630.14 50 L615.14 50 L591.57 114.33 L591.57 50 Z" style="fill:rgb(255,255,255);" />
</g>
</svg>
