<?xml version="1.0" encoding="UTF-8"?>
<!DOCTYPE svg PUBLIC '-//W3C//DTD SVG 1.0//EN' 'http://www.w3.org/TR/2001/REC-SVG-20010904/DTD/svg10.dtd'>
<svg xmlns:xlink="http://www.w3.org/1999/xlink" xmlns="http://www.w3.org/2000/svg" width="700" height="200">
<!--Gegenereerd door de SIMaD-toepassing (http://www.dlw.be).-->
<g style="stroke:none;fill-rule:evenodd;" transform="matrix(1,0,0,-1,0,200)">
<path d=" M45 0 L655 0 A45 45 0 0 1 700 45 L700 155 A45 45 0 0 1 655 200 L45 200 A45 45 0 0 1 0 155 L0 45 A45 45 0 0 1 45 0 Z" style="fill:rgb(0,0,255);" />
<path d=" M228.29 40 L250.29 40 L250.29 92 L278.580035744343 92.00000000002 A32 32 0 0 1 310.57999999999 123.999974308753 L310.57999999999 128.000025691247 A32 32 0 0 1 278.580035744343 159.99999999998 L228.29 160 Z M250.29 112 L276.580013404129 112.000000000007 A12 12 0 0 1 288.579999999996 123.999990365783 L288.579999999996 128.000009634217 A12 12 0 0 1 276.580013404129 139.999999999993 L250.29 140 Z" style="fill:rgb(255,255,255);" />
<path d=" M322.57 92.7999999999999 L339.37 92.7999999999999 L339.37 76 L353.77 76 L353.77 92.7999999999999 L370.57 92.7999999999999 L370.57 107.2 L353.77 107.2 L353.77 124 L339.37 124 L339.37 107.2 L322.57 107.2 Z" style="fill:rgb(255,255,255);" />
<path d=" M382.57 40 L404.57 40 L404.57 92 L416.16 92 L446.29 40 L471.71 40 L440.98124877532 93.0476928431924 A32 32 0 0 1 464.85999999999 124.000025691247 L464.85999999999 128.000025691247 A32 32 0 0 1 432.860035744343 159.99999999998 L382.57 160 Z M404.57 112 L430.860013404129 112.000000000007 A12 12 0 0 1 442.859999999996 123.999990365783 L442.859999999996 128.000009634217 A12 12 0 0 1 430.860013404129 139.999999999993 L404.57 140 Z" style="fill:rgb(255,255,255);" />
</g>
</svg>
