<?xml version="1.0" encoding="UTF-8"?>
<!DOCTYPE svg PUBLIC '-//W3C//DTD SVG 1.0//EN' 'http://www.w3.org/TR/2001/REC-SVG-20010904/DTD/svg10.dtd'>
<svg xmlns:xlink="http://www.w3.org/1999/xlink" xmlns="http://www.w3.org/2000/svg" width="700" height="200">
<!--Gegenereerd door de SIMaD-toepassing (http://www.dlw.be).-->
<g style="stroke:none;fill-rule:evenodd;" transform="matrix(1,0,0,-1,0,200)">
<path d=" M45 0 L655 0 A45 45 0 0 1 700 45 L700 155 A45 45 0 0 1 655 200 L45 200 A45 45 0 0 1 0 155 L0 45 A45 45 0 0 1 45 0 Z" style="fill:rgb(0,0,255);" />
<path d=" M159.65 40 L181.65 40 L181.65 140 L211.8 140 L211.8 160 L129.51 160 L129.51 140 L159.65 140 Z" style="fill:rgb(255,255,255);" />
<path d=" M211.8 40 L234.72 40 L239.74 57.14 L279.86 57.14 L284.88 40 L307.8 40 L272.66 160 L246.94 160 Z M245.6 77.14 L274 77.14 L259.8 125.63 Z" style="fill:rgb(255,255,255);" />
<path d=" M322.2 40 L347.15 40 L370.2 83.09 L393.25 40 L418.2 40 L382.67 106.41 L414.77 160 L389.13 160 L370.2 128.4 L351.27 160 L325.63 160 L357.73 106.41 Z" style="fill:rgb(255,255,255);" />
<path d=" M439.8 40 L461.8 40 L461.8 160 L439.8 160 Z" style="fill:rgb(255,255,255);" />
<path d=" M488.2 70.11 L488.2 74.29 L510.2 74.29 L510.2 70.1099981550125 A9.61 9.61 0 0 1 516.889021572553 60.9546744991568 L516.884070092218 60.9588651531181 A40.98 40.98 0 0 1 541.795929907782 60.9588651531181 L541.800985458231 60.9546767423099 A9.61 9.61 0 0 1 542.941366967742 78.8196152815918 L542.94 78.82 L508.693409364744 103.589202017262 A30.09 30.09 0 0 0 513.916384677092 160.00195994425 L513.911868972154 159.99812724567 A61.95 61.95 0 0 0 544.768159301296 159.998119975328 L544.773663642097 160.001947519325 A30.09 30.09 0 0 0 567.369999999999 130.860008927883 L545.369999999999 130.859996611269 A8.09 8.09 0 0 1 539.294752661007 138.695105086402 L539.289231322329 138.691281913304 A39.95 39.95 0 0 1 519.390784209348 138.691285907179 L519.395264706043 138.69510955222 A8.09 8.09 0 0 1 517.991017494709 123.527970360908 L517.99 123.52 L552.238987754046 98.7583777234812 A31.61 31.61 0 0 0 548.487938051193 39.9955578433795 L548.482848965837 39.9997355549899 A62.98 62.98 0 0 0 510.197125901313 39.9997435735329 L510.202067730365 39.9955559987884 A31.61 31.61 0 0 0 488.2 70.1100055169858 Z" style="fill:rgb(255,255,255);" />
</g>
</svg>
