<?xml version="1.0" encoding="UTF-8"?>
<!DOCTYPE svg PUBLIC '-//W3C//DTD SVG 1.0//EN' 'http://www.w3.org/TR/2001/REC-SVG-20010904/DTD/svg10.dtd'>
<svg xmlns:xlink="http://www.w3.org/1999/xlink" xmlns="http://www.w3.org/2000/svg" width="700" height="200">
<!--Gegenereerd door de SIMaD-toepassing (http://www.dlw.be).-->
<g style="stroke:none;fill-rule:evenodd;" transform="matrix(1,0,0,-1,0,200)">
<path d=" M45 0 L655 0 A45 45 0 0 1 700 45 L700 155 A45 45 0 0 1 655 200 L45 200 A45 45 0 0 1 0 155 L0 45 A45 45 0 0 1 45 0 Z" style="fill:rgb(0,0,255);" />
<path d=" M52.83 40 L52.83 160 L87.1200306396041 159.999999999983 A27.43 27.43 0 0 0 114.549999999991 132.570022022216 L114.54 132.57 L114.539999999999 119.710005445427 A24 24 0 0 0 105.044865593602 100.589098501599 L105.05 100.59 L105.068871023725 100.586128278506 A24 24 0 0 0 116.25999999999 80.2900222005881 L116.259999999991 67.4299779777844 A27.43 27.43 0 0 0 88.8300306396041 40.000000000017 Z M69.97 55.4299999999998 L87.1200134041287 55.4300000000073 A12 12 0 0 1 99.1199999999961 67.4299903657824 L99.1199999999961 80.2900096342174 A12 12 0 0 1 87.1200134041287 92.2899999999925 L69.97 92.29 Z M69.97 144.57 L85.4000134041286 144.569999999993 A12 12 0 0 0 97.3999999999961 132.570009634218 L97.3999999999961 119.709990365783 A12 12 0 0 0 85.4000134041286 107.710000000008 L69.97 107.71 Z" style="fill:rgb(255,255,255);" />
<path d=" M137.86 40 L137.86 160 L194.43 160 L194.43 144.57 L155 144.57 L155 107.71 L180.72 107.71 L180.72 92.29 L155 92.29 L155 55.4299999999998 L194.43 55.4299999999998 L194.43 40 Z" style="fill:rgb(255,255,255);" />
<path d=" M229.92 40 L229.92 144.57 L207.63 144.57 L207.63 160 L269.34 160 L269.34 144.57 L247.06 144.57 L247.06 40 Z" style="fill:rgb(255,255,255);" />
<path d=" M269.34 40 L286.9 40 L289.93 53.71 L320.75 53.71 L323.78 40 L341.34 40 L314.77 160 L295.91 160 Z M293.35 69.1399999999999 L317.33 69.1399999999999 L305.34 123.29 Z" style="fill:rgb(255,255,255);" />
<path d=" M358.14 40 L358.14 160 L375.28 160 L375.28 55.4299999999998 L409.57 55.4299999999998 L409.57 40 Z" style="fill:rgb(255,255,255);" />
<path d=" M425.17 40 L425.17 160 L481.74 160 L481.74 144.57 L442.31 144.57 L442.31 107.71 L468.03 107.71 L468.03 92.29 L442.31 92.29 L442.31 55.4299999999998 L481.74 55.4299999999998 L481.74 40 Z" style="fill:rgb(255,255,255);" />
<path d=" M499.74 40 L499.74 160 L517.74 160 L546.03 82.8099999999999 L546.03 160 L561.45 160 L561.45 40 L543.45 40 L515.17 117.19 L515.17 40 Z" style="fill:rgb(255,255,255);" />
<path d=" M585.46 40 L619.750030639604 40.000000000017 A27.43 27.43 0 0 1 647.179999999991 67.4299779777844 L647.17 67.4299999999998 L647.179999999991 132.570022022216 A27.43 27.43 0 0 1 619.750030639604 159.999999999983 L585.46 160 Z M602.6 55.4299999999998 L618.030013404129 55.4300000000073 A12 12 0 0 1 630.029999999996 67.4299903657824 L630.029999999996 132.570009634218 A12 12 0 0 1 618.030013404129 144.569999999993 L602.6 144.57 Z" style="fill:rgb(255,255,255);" />
</g>
</svg>
