<?xml version="1.0" encoding="UTF-8"?>
<!DOCTYPE svg PUBLIC '-//W3C//DTD SVG 1.0//EN' 'http://www.w3.org/TR/2001/REC-SVG-20010904/DTD/svg10.dtd'>
<svg xmlns:xlink="http://www.w3.org/1999/xlink" xmlns="http://www.w3.org/2000/svg" width="700" height="200">
<!--Gegenereerd door de SIMaD-toepassing (http://www.dlw.be).-->
<g style="stroke:none;fill-rule:evenodd;" transform="matrix(1,0,0,-1,0,200)">
<path d=" M45 0 L655 0 A45 45 0 0 1 700 45 L700 155 A45 45 0 0 1 655 200 L45 200 A45 45 0 0 1 0 155 L0 45 A45 45 0 0 1 45 0 Z" style="fill:rgb(0,0,255);" />
<path d=" M121.25 25 L121.25 155.71 L93.39 155.71 L93.39 175 L170.53 175 L170.53 155.71 L142.68 155.71 L142.68 25 Z" style="fill:rgb(255,255,255);" />
<path d=" M190.04 25 L211.47 25 L211.47 175 L190.04 175 Z" style="fill:rgb(255,255,255);" />
<path d=" M315.6 61.43 L294.17 61.43 L294.17 59.2899970085057 A17.14 17.14 0 0 0 259.89 59.2900029914943 L259.89 140.709997008506 A17.14 17.14 0 0 0 294.17 140.710002991494 L294.17 138.57 L315.6 138.570006058561 A38.57 38.57 0 0 1 238.46 138.569993941439 L238.46 61.4300060585614 A38.57 38.57 0 0 1 315.6 61.4299939414386 Z" style="fill:rgb(255,255,255);" />
<path d=" M342.61 25 L342.61 175 L364.04 175 L364.04 121.26 L395.03 175 L419.75 175 L378.05 102.51 L422.75 25 L398.02 25 L364.04 83.92 L364.04 25 Z" style="fill:rgb(255,255,255);" />
<path d=" M442.25 25 L442.25 175 L512.96 175 L512.96 155.71 L463.68 155.71 L463.68 109.64 L495.82 109.64 L495.82 90.36 L463.68 90.36 L463.68 44.29 L512.96 44.29 L512.96 25 Z" style="fill:rgb(255,255,255);" />
<path d=" M557.32 25 L557.32 155.71 L529.46 155.71 L529.46 175 L606.6 175 L606.6 155.71 L578.75 155.71 L578.75 25 Z" style="fill:rgb(255,255,255);" />
</g>
</svg>
