<?xml version="1.0" encoding="UTF-8"?>
<!DOCTYPE svg PUBLIC '-//W3C//DTD SVG 1.0//EN' 'http://www.w3.org/TR/2001/REC-SVG-20010904/DTD/svg10.dtd'>
<svg xmlns:xlink="http://www.w3.org/1999/xlink" xmlns="http://www.w3.org/2000/svg" width="450" height="200">
<!--Gegenereerd door de SIMaD-toepassing (http://www.dlw.be).-->
<g style="stroke:none;fill-rule:evenodd;" transform="matrix(1,0,0,-1,0,200)">
<path d=" M45 0 L405 0 A45 45 0 0 1 450 45 L450 155 A45 45 0 0 1 405 200 L45 200 A45 45 0 0 1 0 155 L0 45 A45 45 0 0 1 45 0 Z" style="fill:rgb(0,0,255);" />
<path d=" M110.81 61.73 L132.889760683452 61.7254473061453 A22.11 22.11 0 0 0 176.190239316548 61.7254473061453 L176.19 61.73 L261.129822218147 61.7257443099397 A22.11 22.11 0 0 0 304.430177781853 61.7257443099397 L304.43 61.73 L319.61 61.73 L341.51 72.18 L341.51 154.66 L278.3 154.66 L266.93 160 L126.23 160 L111.894603351344 146.493801819833 A12.83 12.83 0 0 1 109.145475291671 133.781759385984 L109.1498418938 133.779785854302 A6.21 6.21 0 0 1 115.299099597101 129.850978666965 L115.3 129.85 L178.65 129.85 L178.65 124.8 L156.64 124.8 L137.02 96.35 L110.81 88.5 Z M158.74 120.35 L142.14 96.21 L178.65 96.21 L178.65 120.35 Z M207.87 129.85 L207.87 65.24 L243.19 65.24 L243.19 129.85 Z M300.3 129.85 L262.18 129.85 L262.18 108.55 L300.3 108.55 Z M147.25 155.22 L147.25 139.52 L178.65 139.52 L178.65 155.22 Z" style="fill:rgb(255,255,255);" />
<path d=" M171.79 57.25 A17.25 17.25 0 0 1 137.29 57.25 A17.25 17.25 0 0 1 171.79 57.25 Z" style="fill:rgb(255,255,255);" />
<path d=" M300.03 57.25 A17.25 17.25 0 0 1 265.53 57.25 A17.25 17.25 0 0 1 300.03 57.25 Z" style="fill:rgb(255,255,255);" />
</g>
</svg>
