<?xml version="1.0" encoding="UTF-8"?>
<!DOCTYPE svg PUBLIC '-//W3C//DTD SVG 1.0//EN' 'http://www.w3.org/TR/2001/REC-SVG-20010904/DTD/svg10.dtd'>
<svg xmlns:xlink="http://www.w3.org/1999/xlink" xmlns="http://www.w3.org/2000/svg" width="700.000000002976" height="200.000000000025">
<!--Gegenereerd door de SIMaD-toepassing (http://www.dlw.be).-->
<g style="stroke:none;fill-rule:evenodd;" transform="matrix(1,0,0,-1,0,200.000000000025)">
<path d=" M45 0 L654.999966227879 1.26760824059602E-11 A45 45 0 0 1 699.999999999987 45.000033772121 L699.999999999888 154.999899469035 A45 45 0 0 1 655.000033772121 199.999999999987 L45.000033772121 199.999999999987 A45 45 0 0 1 1.26760824059602E-11 154.999966227879 L1.26760824059602E-11 45.000033772121 A45 45 0 0 1 45.000033772121 1.26760824059602E-11 Z" style="fill:rgb(0,0,255);" />
<path d=" M369.9 40 L386.57 40 L386.57 100.98 L404.42 40 L421.79 40 L438.47 96.96 L438.47 40 L456.8 40 L456.8 140 L435.38 140 L413.35 64.8 L391.33 140 L369.9 140 Z" style="fill:rgb(255,255,255);" />
<path d=" M481.8 40 L500.13 40 L500.13 140 L481.8 140 Z" style="fill:rgb(255,255,255);" />
<path d=" M525.13 40 L541.8 40 L541.8 106.42 L572.27 40 L593.7 40 L593.7 140 L577.03 140 L577.03 73.58 L546.56 140 L525.13 140 Z" style="fill:rgb(255,255,255);" />
<path d=" M627.03 48.33 A8.33 8.33 0 0 1 610.37 48.33 A8.33 8.33 0 0 1 627.03 48.33 Z" style="fill:rgb(255,255,255);" />
</g>
</svg>
