<?xml version="1.0" encoding="UTF-8"?>
<!DOCTYPE svg PUBLIC '-//W3C//DTD SVG 1.0//EN' 'http://www.w3.org/TR/2001/REC-SVG-20010904/DTD/svg10.dtd'>
<svg xmlns:xlink="http://www.w3.org/1999/xlink" xmlns="http://www.w3.org/2000/svg" width="450.000000002976" height="200.000000000025">
<!--Gegenereerd door de SIMaD-toepassing (http://www.dlw.be).-->
<g style="stroke:none;fill-rule:evenodd;" transform="matrix(1,0,0,-1,0,200.000000000025)">
<path d=" M45 0 L404.999966227879 1.26760824059602E-11 A45 45 0 0 1 449.999999999987 45.000033772121 L449.999999999888 154.999899469035 A45 45 0 0 1 405.000033772121 199.999999999987 L45.000033772121 199.999999999987 A45 45 0 0 1 1.26760824059602E-11 154.999966227879 L1.26760824059602E-11 45.000033772121 A45 45 0 0 1 45.000033772121 1.26760824059602E-11 Z" style="fill:rgb(0,0,255);" />
<path d=" M119 92.8 L135.8 92.8 L135.8 76 L150.2 76 L150.2 92.8 L167 92.8 L167 107.19 L150.2 107.19 L150.2 123.99 L135.8 123.99 L135.8 107.19 L119 107.19 Z" style="fill:rgb(255,255,255);" />
<path d=" M298 85.71 L304.67 85.71 L304.660000000004 54.8600111523049 A14.86 14.86 0 0 1 319.520010892949 40.000000000004 L331.33 40 L331.33 51.43 L321.430002514321 51.4300000000009 A3.43 3.43 0 0 0 318.000000000001 54.8600025741861 L318 85.71 L331.33 85.71 L331.33 97.14 L318 97.14 L318 120 L304.67 112.3 L304.67 97.14 L298 97.14 Z" style="fill:rgb(255,255,255);" />
</g>
</svg>
