<?xml version="1.0" encoding="UTF-8"?>
<!DOCTYPE svg PUBLIC '-//W3C//DTD SVG 1.0//EN' 'http://www.w3.org/TR/2001/REC-SVG-20010904/DTD/svg10.dtd'>
<svg xmlns:xlink="http://www.w3.org/1999/xlink" xmlns="http://www.w3.org/2000/svg" width="700" height="200">
<!--Gegenereerd door de SIMaD-toepassing (http://www.dlw.be).-->
<g style="stroke:none;fill-rule:evenodd;" transform="matrix(1,0,0,-1,0,200)">
<path d=" M45 0 L655 0 A45 45 0 0 1 700 45 L700 155 A45 45 0 0 1 655 200 L45 200 A45 45 0 0 1 0 155 L0 45 A45 45 0 0 1 45 0 Z" style="fill:rgb(0,0,255);" />
<path d=" M41.09 60 L41.09 140 L63.9500204301261 139.999999999989 A18.29 18.29 0 0 0 82.2399999999941 121.710014684153 L82.23 121.71 L82.2399999999941 113.709985315847 A18.29 18.29 0 0 0 63.9500204301261 95.4200000000114 L63.95 95.4299999999998 L52.52 95.4299999999998 L52.52 60 Z M52.52 129.71 L62.8000089360858 129.709999999995 A8 8 0 0 0 70.7999999999974 121.710006422812 L70.7999999999974 113.709993577188 A8 8 0 0 0 62.8000089360858 105.710000000005 L52.52 105.71 Z" style="fill:rgb(255,255,255);" />
<path d=" M82.23 60 L93.94 60 L95.96 69.1399999999999 L116.5 69.1399999999999 L118.52 60 L130.23 60 L112.52 140 L99.94 140 Z M98.24 79.4299999999998 L114.22 79.4299999999998 L106.23 115.52 Z" style="fill:rgb(255,255,255);" />
<path d=" M141.43 60 L141.43 140 L164.290020430126 139.999999999989 A18.29 18.29 0 0 0 182.579999999994 121.710014684153 L182.57 121.71 L182.579999999996 113.710012768829 A18.29 18.29 0 0 0 167.729314027405 95.7462804792301 L167.73 95.75 L184.17 60 L171.59 60 L155.3 95.4299999999998 L152.86 95.4299999999998 L152.86 60 Z M152.86 129.71 L163.140008936086 129.709999999995 A8 8 0 0 0 171.139999999997 121.710006422812 L171.139999999997 113.709993577188 A8 8 0 0 0 163.140008936086 105.710000000005 L152.86 105.71 Z" style="fill:rgb(255,255,255);" />
<path d=" M195.37 60 L195.37 140 L206.8 140 L206.8 111.34 L223.33 140 L236.51 140 L214.27 101.34 L238.11 60 L224.92 60 L206.8 91.4200000000001 L206.8 60 Z" style="fill:rgb(255,255,255);" />
<path d=" M248.51 60 L248.51 140 L286.22 140 L286.22 129.71 L259.94 129.71 L259.94 105.14 L277.08 105.14 L277.08 94.8600000000001 L259.94 94.8600000000001 L259.94 70.29 L286.22 70.29 L286.22 60 Z" style="fill:rgb(255,255,255);" />
<path d=" M298.23 60 L298.23 140 L335.94 140 L335.94 129.71 L309.66 129.71 L309.66 105.14 L326.8 105.14 L326.8 94.8600000000001 L309.66 94.8600000000001 L309.66 70.29 L335.94 70.29 L335.94 60 Z" style="fill:rgb(255,255,255);" />
<path d=" M347.94 60 L347.94 140 L370.800020430126 139.999999999989 A18.29 18.29 0 0 0 389.089999999994 121.710014684153 L389.08 121.71 L389.089999999996 113.710012768829 A18.29 18.29 0 0 0 374.239314027405 95.7462804792301 L374.24 95.75 L390.68 60 L378.1 60 L361.81 95.4299999999998 L359.37 95.4299999999998 L359.37 60 Z M359.37 129.71 L369.650008936086 129.709999999995 A8 8 0 0 0 377.649999999997 121.710006422812 L377.649999999997 113.709993577188 A8 8 0 0 0 369.650008936086 105.710000000005 L359.37 105.71 Z" style="fill:rgb(255,255,255);" />
<path d=" M401.89 60 L401.89 140 L413.32 140 L413.32 111.34 L429.85 140 L443.03 140 L420.79 101.34 L444.63 60 L431.44 60 L413.32 91.4200000000001 L413.32 60 Z" style="fill:rgb(255,255,255);" />
<path d=" M453.43 60 L465.14 60 L467.16 69.1399999999999 L487.7 69.1399999999999 L489.72 60 L501.43 60 L483.72 140 L471.14 140 Z M469.44 79.4299999999998 L485.42 79.4299999999998 L477.43 115.52 Z" style="fill:rgb(255,255,255);" />
<path d=" M511.03 60 L522.74 60 L524.76 69.1399999999999 L545.3 69.1399999999999 L547.32 60 L559.03 60 L541.32 140 L528.74 140 Z M527.04 79.4299999999998 L543.02 79.4299999999998 L535.03 115.52 Z" style="fill:rgb(255,255,255);" />
<path d=" M570.23 60 L570.23 140 L593.090020430126 139.999999999989 A18.29 18.29 0 0 0 611.379999999994 121.710014684153 L611.37 121.71 L611.379999999996 113.710012768829 A18.29 18.29 0 0 0 596.529314027405 95.7462804792301 L596.53 95.75 L612.97 60 L600.39 60 L584.1 95.4299999999998 L581.66 95.4299999999998 L581.66 60 Z M581.66 129.71 L591.940008936086 129.709999999995 A8 8 0 0 0 599.939999999997 121.710006422812 L599.939999999997 113.709993577188 A8 8 0 0 0 591.940008936086 105.710000000005 L581.66 105.71 Z" style="fill:rgb(255,255,255);" />
<path d=" M632.63 60 L632.63 129.71 L617.77 129.71 L617.77 140 L658.91 140 L658.91 129.71 L644.06 129.71 L644.06 60 Z" style="fill:rgb(255,255,255);" />
</g>
</svg>
