<?xml version="1.0" encoding="UTF-8"?>
<!DOCTYPE svg PUBLIC '-//W3C//DTD SVG 1.0//EN' 'http://www.w3.org/TR/2001/REC-SVG-20010904/DTD/svg10.dtd'>
<svg xmlns:xlink="http://www.w3.org/1999/xlink" xmlns="http://www.w3.org/2000/svg" width="450" height="200">
<!--Gegenereerd door de SIMaD-toepassing (http://www.dlw.be).-->
<g style="stroke:none;fill-rule:evenodd;" transform="matrix(1,0,0,-1,0,200)">
<path d=" M45 0 L405 0 A45 45 0 0 1 450 45.0000031415927 L450 155 A45 45 0 0 1 405.000003141593 200 L45 200 A45 45 0 0 1 1.06581410364015E-13 154.999996858407 L0 45 A45 45 0 0 1 45.0000031415927 1.06581410364015E-13 Z" style="fill:rgb(0,0,255);" />
<path d=" M176.22 95.47 L182.94 95.47 L182.94 100.47 L156.32 100.47 L156.32 95.47 L163.040000008464 95.4710921809692 A70.47 70.47 0 1 1 233.510413257664 165.939999998788 L233.51 165.93 L233.510001000074 152.77 A57.3 57.3 0 1 0 176.21000000077 95.4697029781226 L176.219999999133 95.4702223462201 A28.5 28.5 0 0 0 176.219999999904 95.4700741154067 Z" style="fill:rgb(255,255,255);" />
<path d=" M178.924861851143 154.504853510479 A3.45 3.45 0 0 0 178.7 155.730000361283 L178.7 171.55 A3.45 3.45 0 0 0 185.6 171.55 L185.6 155.730000060214 A3.45 3.45 0 0 0 185.375138063326 154.504853285322 L185.38 154.51 L189.015263579636 154.505154834196 A8.4 8.4 0 0 0 191.186207067577 154.142872888399 L191.190863542242 154.141752230547 A5.68 5.68 0 0 0 192.653803199 153.453864835123 L192.656953493463 153.459151262552 A1.34 1.34 0 0 0 193.248441562892 152.51562179244 L193.24 152.52 L193.24 126.53 L179.41 103.55 L159.85 103.55 L146.02 126.53 L146.020394662057 152.506582247891 A1.34 1.34 0 0 0 146.613046604201 153.459151326863 L146.616196883797 153.453864889644 A5.68 5.68 0 0 0 148.07913655256 154.141752259535 L148.073050917396 154.147616903506 A6.72 6.72 0 0 0 150.244587363169 154.50999782019 L150.25 154.51 L153.884861936674 154.504853285322 A3.45 3.45 0 0 0 153.66 155.730000060214 L153.66 171.55 A3.45 3.45 0 0 0 160.56 171.55 L160.56 155.730000060214 A3.45 3.45 0 0 0 160.335138063326 154.504853285322 L160.33 154.51 Z" style="fill:rgb(255,255,255);" />
</g>
</svg>
