<?xml version="1.0" encoding="UTF-8"?>
<!DOCTYPE svg PUBLIC '-//W3C//DTD SVG 1.0//EN' 'http://www.w3.org/TR/2001/REC-SVG-20010904/DTD/svg10.dtd'>
<svg xmlns:xlink="http://www.w3.org/1999/xlink" xmlns="http://www.w3.org/2000/svg" width="450" height="200">
<!--Gegenereerd door de SIMaD-toepassing (http://www.dlw.be).-->
<g style="stroke:none;fill-rule:evenodd;" transform="matrix(1,0,0,-1,0,200)">
<path d=" M45 0 L405 0 A45 45 0 0 1 450 45.0000031415927 L450 155 A45 45 0 0 1 405.000003141593 200 L45 200 A45 45 0 0 1 1.06581410364015E-13 154.999996858407 L0 45 A45 45 0 0 1 45.0000031415927 1.06581410364015E-13 Z" style="fill:rgb(0,0,255);" />
<path d=" M167.7 95.47 L174.43 95.47 L174.43 100.47 L147.81 100.47 L147.81 95.47 L154.530000008464 95.4710921809692 A70.47 70.47 0 1 1 225.000413257664 165.939999998788 L225 165.93 L225.000001000074 152.77 A57.3 57.3 0 1 0 167.70000000077 95.4697029781226 L167.699999999133 95.4702223462201 A28.5 28.5 0 0 0 167.699999999904 95.4700741154067 Z" style="fill:rgb(255,255,255);" />
<path d=" M170.414861851143 154.504853510479 A3.45 3.45 0 0 0 170.19 155.730000361283 L170.19 171.55 A3.45 3.45 0 0 0 177.09 171.55 L177.09 155.730000060214 A3.45 3.45 0 0 0 176.865138063326 154.504853285322 L176.86 154.51 L180.505263726159 154.505154829218 A8.4 8.4 0 0 0 182.676207067577 154.1428728884 L182.67086344744 154.141752259535 A5.68 5.68 0 0 0 184.133803116203 153.453864889644 L184.136953493463 153.459151262552 A1.34 1.34 0 0 0 184.728441562892 152.51562179244 L184.73 152.52 L184.73 126.53 L170.9 103.55 L151.34 103.55 L137.51 126.53 L137.510394662057 152.506582247891 A1.34 1.34 0 0 0 138.103046604201 153.459151326863 L138.106196801 153.453864835123 A5.68 5.68 0 0 0 139.569136457758 154.141752230547 L139.563050917396 154.147616903506 A6.72 6.72 0 0 0 141.734587480455 154.509997820285 L141.74 154.51 L145.374861936674 154.504853285322 A3.45 3.45 0 0 0 145.15 155.730000060214 L145.15 171.55 A3.45 3.45 0 0 0 152.05 171.55 L152.05 155.730000060214 A3.45 3.45 0 0 0 151.825138063326 154.504853285322 L151.82 154.51 Z" style="fill:rgb(255,255,255);" />
<path d=" M262.538193571217 75.6181768176042 A73.93 73.93 0 0 1 266.086019945391 90.8156148110514 L266.08 90.8200000000001 L266.119926782061 98.005093024513 A8.41 8.41 0 0 1 265.20198624563 101.79076459564 L265.209392402306 101.788320174245 A3.68 3.68 0 0 1 262.514827955247 103.615209011237 L262.51 103.62 L250.87 128.38 L199.13 128.38 L187.485172044753 103.615209011237 A3.68 3.68 0 0 1 184.790607597694 101.788320174245 L184.79801375437 101.79076459564 A8.41 8.41 0 0 1 183.880073217939 98.005093024513 L183.88 98 L183.913980054609 90.8156148110514 A73.93 73.93 0 0 1 187.461806428783 75.6181768176042 L187.46 75.62 L190.22 75.62 L190.22 62.63 L198.13 62.63 L198.13 75.62 L251.87 75.62 L251.87 62.63 L259.77 62.63 L259.77 75.62 Z M248.93 125.33 L258.882444936994 104.155019927874 A291.8 291.8 0 0 1 191.113484018471 104.15688223309 L191.12 104.16 L201.07 125.33 Z" style="fill:rgb(255,255,255);" />
</g>
</svg>
