<?xml version="1.0" encoding="UTF-8"?>
<!DOCTYPE svg PUBLIC '-//W3C//DTD SVG 1.0//EN' 'http://www.w3.org/TR/2001/REC-SVG-20010904/DTD/svg10.dtd'>
<svg xmlns:xlink="http://www.w3.org/1999/xlink" xmlns="http://www.w3.org/2000/svg" width="700" height="200">
<!--Gegenereerd door de SIMaD-toepassing (http://www.dlw.be).-->
<g style="stroke:none;fill-rule:evenodd;" transform="matrix(1,0,0,-1,0,200)">
<path d=" M45 0 L655 0 A45 45 0 0 1 700 45 L700 155 A45 45 0 0 1 655 200 L45 200 A45 45 0 0 1 0 155 L0 45 A45 45 0 0 1 45 0 Z" style="fill:rgb(0,0,255);" />
<path d=" M144.71 69.1399999999999 L127.57 69.1399999999999 L127.57 67.4299973678688 A13.71 13.71 0 1 0 100.15 67.4300026321309 L100.14 67.4299999999998 L100.15 132.569997367869 A13.71 13.71 0 0 0 127.57 132.570002632131 L127.57 130.86 L144.72 130.860005386086 A30.86 30.86 0 0 1 83.0000000000005 130.859994613914 L83.0000000000005 69.1400053860859 A30.86 30.86 0 0 1 144.72 69.1399946139138 Z" style="fill:rgb(255,255,255);" />
<path d=" M155.51 40 L173.07 40 L176.1 53.71 L206.92 53.71 L209.95 40 L227.51 40 L200.94 160 L182.08 160 Z M179.52 69.1399999999999 L203.5 69.1399999999999 L191.51 123.29 Z" style="fill:rgb(255,255,255);" />
<path d=" M244.31 40 L244.31 160 L278.600030639604 159.999999999983 A27.43 27.43 0 0 0 306.029999999991 132.570022022216 L306.02 132.57 L306.029999999993 120.570019149753 A27.43 27.43 0 0 0 283.758030824042 93.629331522432 L283.75 93.6300000000001 L308.42 40 L289.55 40 L265.11 93.1399999999999 L261.45 93.1399999999999 L261.45 40 Z M261.45 144.57 L276.880013404129 144.569999999993 A12 12 0 0 0 288.879999999996 132.570009634218 L288.879999999996 120.569990365783 A12 12 0 0 0 276.880013404129 108.570000000008 L261.45 108.57 Z" style="fill:rgb(255,255,255);" />
<path d=" M325.23 40 L325.23 160 L359.520030639604 159.999999999983 A27.43 27.43 0 0 0 386.949999999991 132.570022022216 L386.94 132.57 L386.949999999991 120.569977977785 A27.43 27.43 0 0 0 359.520030639604 93.1400000000173 L342.37 93.1399999999999 L342.37 40 Z M342.37 144.57 L357.800013404129 144.569999999993 A12 12 0 0 0 369.799999999996 132.570009634218 L369.799999999996 120.569990365783 A12 12 0 0 0 357.800013404129 108.570000000008 L342.37 108.57 Z" style="fill:rgb(255,255,255);" />
<path d=" M401.34 69.1399999999999 L401.340000000001 130.859994613914 A30.86 30.86 0 0 0 463.059999999999 130.860005386086 L463.05 130.86 L463.06 69.1399999999999 A30.86 30.86 0 0 0 401.34 69.1399999999999 Z M418.48 67.4299999999998 L418.49 132.569997367869 A13.71 13.71 0 0 0 445.91 132.570002632131 L445.91 67.4299999999998 A13.71 13.71 0 0 0 418.49 67.4299999999998 Z" style="fill:rgb(255,255,255);" />
<path d=" M482.26 69.1399999999999 L482.26 130.859994613914 A30.86 30.86 0 0 0 543.98 130.860005386086 L543.97 130.86 L543.98 69.1399999999999 A30.86 30.86 0 0 0 482.26 69.1399999999999 Z M499.4 67.4299999999998 L499.41 132.569997367869 A13.71 13.71 0 0 0 526.83 132.570002632131 L526.83 67.4299999999998 A13.71 13.71 0 0 0 499.41 67.4299999999998 Z" style="fill:rgb(255,255,255);" />
<path d=" M565.57 40 L565.57 160 L582.71 160 L582.71 55.4299999999998 L617 55.4299999999998 L617 40 Z" style="fill:rgb(255,255,255);" />
</g>
</svg>
