<?xml version="1.0" encoding="UTF-8"?>
<!DOCTYPE svg PUBLIC '-//W3C//DTD SVG 1.0//EN' 'http://www.w3.org/TR/2001/REC-SVG-20010904/DTD/svg10.dtd'>
<svg xmlns:xlink="http://www.w3.org/1999/xlink" xmlns="http://www.w3.org/2000/svg" width="600" height="400">
<!--Gegenereerd door de SIMaD-toepassing (http://www.dlw.be).-->
<g style="stroke:none;fill-rule:evenodd;" transform="matrix(1,0,0,-1,0,400)">
<path d=" M65 0 L534.999995462144 1.56319401867222E-13 A65 65 0 0 1 600 65.0000045378561 L599.999999999999 334.999987520896 A65 65 0 0 1 535.000004537856 400 L65.0000045378561 400 A65 65 0 0 1 1.56319401867222E-13 334.999995462144 L1.56319401867222E-13 65.0000045378561 A65 65 0 0 1 65.0000045378561 1.56319401867222E-13 Z" style="fill:rgb(255,255,255);stroke:rgb(0,0,0);" />
<path d=" M65 15 L534.999996509342 15.0000000000001 A50 50 0 0 1 585 65.0000034906585 L584.999999999999 334.999990400689 A50 50 0 0 1 535.000003490658 385 L65.0000034906585 385 A50 50 0 0 1 15.0000000000001 334.999996509342 L15.0000000000001 65.0000034906585 A50 50 0 0 1 65.0000034906585 15.0000000000001 Z" style="fill:rgb(0,0,0);" />
<path d=" M65 30 L534.999997556539 30.0000000000001 A35 35 0 0 1 570 65.000002443461 L569.999999999999 334.999993280482 A35 35 0 0 1 535.000002443461 370 L65.000002443461 370 A35 35 0 0 1 30.0000000000001 334.999997556539 L30.0000000000001 65.000002443461 A35 35 0 0 1 65.000002443461 30.0000000000001 Z" style="fill:rgb(255,255,255);" />
<path d=" M197.14 50 L322.850121474916 50.0000000000922 A80 80 0 0 1 402.849999999994 129.999967885942 L402.849999999926 270.000108908545 A80 80 0 0 1 322.850044680429 349.999999999988 L197.14 350 Z M252.14 100 L317.850045553094 100.000000000035 A30 30 0 0 1 347.849999999998 129.999987957228 L347.849999999972 270.000040840705 A30 30 0 0 1 317.850016755161 299.999999999995 L252.14 300 Z" style="fill:rgb(0,0,0);" />
</g>
</svg>
