<?xml version="1.0" encoding="UTF-8"?>
<!DOCTYPE svg PUBLIC '-//W3C//DTD SVG 1.0//EN' 'http://www.w3.org/TR/2001/REC-SVG-20010904/DTD/svg10.dtd'>
<svg xmlns:xlink="http://www.w3.org/1999/xlink" xmlns="http://www.w3.org/2000/svg" width="600" height="900">
<!--Gegenereerd door de SIMaD-toepassing (http://www.dlw.be).-->
<g style="stroke:none;fill-rule:evenodd;" transform="matrix(1,0,0,-1,0,900)">
<path d=" M0 832.5 L1.70530256582424E-13 67.500004712389 A67.5 67.5 0 0 1 67.500004712389 1.70530256582424E-13 L532.499995287611 1.70530256582424E-13 A67.5 67.5 0 0 1 600 67.500004712389 L599.999999999999 832.49998704093 A67.5 67.5 0 0 1 532.500004712389 900 L67.500004712389 900 A67.5 67.5 0 0 1 1.70530256582424E-13 832.499995287611 Z" style="fill:rgb(0,0,255);" />
<path d=" M462.82 485.96 L501.389998653304 485.96 A19.29 19.29 0 0 0 520.68 466.669998653304 L520.683339021136 415.350297040052 A28.61 28.61 0 0 0 508.219506442516 393.49286825424 L508.214261118669 393.496820780329 A70.05 70.05 0 0 0 498.116305939901 387.790376723764 L498.120600115135 387.786034370131 A77.64 77.64 0 0 0 481.609797919988 382.328064973619 L481.602277824662 382.340635348811 A99.3 99.3 0 0 0 462.815366314697 380.233303084738 L462.824633685303 380.233303084738 A99.3 99.3 0 0 0 444.037722175338 382.340635348811 L444.030202080013 382.328064973619 A77.64 77.64 0 0 0 427.519399884865 387.786034370131 L427.523694060099 387.790376723764 A70.05 70.05 0 0 0 417.42573888133 393.496820780329 L417.420493557484 393.49286825424 A28.61 28.61 0 0 0 404.956660978864 415.350297040052 L404.96 415.35 L404.96 466.669998653304 A19.29 19.29 0 0 0 424.250001346696 485.96 Z M462.818306877504 456.399697744342 A12.9 12.9 0 0 0 475.625456101824 443.842362272951 L475.631069708005 443.840302298485 A14.55 14.55 0 0 0 470.695276033033 433.421085491723 L470.69 433.42 L470.69 416.91 L462.82 416.91 L454.95 416.91 L454.944723966967 433.421085491723 A14.55 14.55 0 0 0 450.008930291995 443.840302298485 L450.014543898176 443.842362272951 A12.9 12.9 0 0 0 462.821693122496 456.399697744342 Z" style="fill:rgb(255,255,255);" />
<path d=" M462.842979529148 534.50998970812 A35.47 35.47 0 0 0 487.353869953538 524.704391909769 L487.357299152927 524.702790847353 A53.07 53.07 0 0 0 502.226055341182 488.507047545876 L502.22 488.51 L502.29 488.34 L488.467078079633 488.339283675533 A39.31 39.31 0 0 1 477.66075515835 514.933659808083 L477.657413457823 514.935172324558 A21.71 21.71 0 0 1 462.842976454752 520.7499831812 L462.847023545248 520.7499831812 A21.71 21.71 0 0 1 448.032586542177 514.935172324558 L448.03924484165 514.933659808083 A39.31 39.31 0 0 1 437.232921920367 488.339283675533 L437.23 488.34 L423.41 488.34 L423.473944658818 488.507047545876 A53.07 53.07 0 0 0 438.342700847073 524.702790847353 L438.336130046462 524.704391909769 A35.47 35.47 0 0 0 462.847020470852 534.50998970812 Z" style="fill:rgb(255,255,255);" />
<path d=" M145.71 375 L228.21 375 L228.21 570 L334.29 570 L334.290182212374 570.000000000138 A120 120 0 0 1 454.28999999999 689.999951828913 L454.29 705 L454.289999999889 705.000163362818 A120 120 0 0 1 334.290067020643 824.999999999981 L145.71 825 L145.71 375 Z M228.21 648.74 L326.79 648.74 A45 45 0 0 1 371.789999999996 693.739981935842 L371.79 708.74 A45 45 0 0 1 326.790025132741 753.739999999993 L228.21 753.74 L228.21 648.74 Z" style="fill:rgb(255,255,255);" />
<path d=" M505.75 125.04 A49.69 49.69 0 0 1 406.37 125.04 A49.69 49.69 0 0 1 505.75 125.04 Z M472.9 125 A16.69 16.69 0 0 1 439.52 125 A16.69 16.69 0 0 1 472.9 125 Z" style="fill:rgb(255,255,255);" />
<path d=" M171.59 125.01 A49.66 49.66 0 0 1 72.27 125.01 A49.66 49.66 0 0 1 171.59 125.01 Z M138.64 125.13 A16.63 16.63 0 0 1 105.38 125.13 A16.63 16.63 0 0 1 138.64 125.13 Z" style="fill:rgb(255,255,255);" />
<path d=" M510.16 164.72 L510.16 157.2 L567.84 157.2 L567.84 136.44 L531.12 136.44 L531.12 124.98 L511.68 124.98 A55.62 55.62 0 0 1 400.44 124.98 L177.42 124.98 A55.62 55.62 0 0 1 66.18 124.98 L30 124.98 L30 140.55 L40.8 140.55 L51.370987814549 194.70086213468 A4.91 4.91 0 0 0 52.3314022727214 196.796333904405 L52.33 196.8 L61.32 208.22 L68.88 208.22 L87.2759768934003 269.697219461412 A4.91 4.91 0 0 0 91.9800003427827 273.2 L177.96 273.2 L177.96 157.2 L388.56 157.2 L388.56 164.72 L184.98 164.72 L184.98 321 L570 321 L570 164.72 Z M91.0837539232336 251.765478038486 A2.95 2.95 0 0 0 93.9100002059489 253.87 L101.98 253.87 L88.32 208.22 L78.06 208.22 Z M150.96 253.87 L150.96 208.22 L98.04 208.22 L111.7 253.87 Z" style="fill:rgb(255,255,255);" />
</g>
</svg>
