<?xml version="1.0" encoding="UTF-8"?>

<!DOCTYPE svg PUBLIC '-//W3C//DTD SVG 1.0//EN' 'http://www.w3.org/TR/2001/REC-SVG-20010904/DTD/svg10.dtd'>
<svg xmlns:xlink="http://www.w3.org/1999/xlink" style="fill-opacity:1; color-rendering:auto; color-interpolation:auto; stroke:black; text-rendering:auto; stroke-linecap:square; stroke-miterlimit:10; stroke-opacity:1; shape-rendering:auto; fill:black; stroke-dasharray:none; font-weight:normal; stroke-width:1; font-family:&apos;Dialog&apos;; font-style:normal; stroke-linejoin:miter; font-size:12; stroke-dashoffset:0; image-rendering:auto;" xmlns="http://www.w3.org/2000/svg">
  <!--Gegenereerd door de Verkeersbordendatabank (Vlaamse overheid MOW).-->
  <defs id="genericDefs" />
  <g>
    <g style="fill:rgb(0,59,128); stroke:rgb(0,59,128);" transform="matrix(1,0,0,-1,0,600)">
      <path d="M45 0 L355 0 C366.9348 -0 378.3807 4.7411 386.8198 13.1802 C395.2589 21.6193 400 33.0653 400 45 L400 555 C400 566.9348 395.2589 578.3807 386.8198 586.8198 C378.3807 595.259 366.9348 600 355 600 L45 600 C33.0653 600 21.6193 595.259 13.1802 586.8198 C4.7411 578.3807 -0 566.9348 0 555 L0 45 C-0 33.0653 4.7411 21.6193 13.1802 13.1802 C21.6193 4.7411 33.0653 -0 45 0 Z" style="stroke:none;" />
    </g>
    <g style="fill:rgb(252,255,255); stroke:rgb(252,255,255);" transform="matrix(1,0,0,-1,0,600)">
      <path d="M45 15 L355 15 C362.9565 15 370.5871 18.1607 376.2132 23.7868 C381.8393 29.4129 385 37.0435 385 45 L385 555 C385 562.9565 381.8393 570.5871 376.2132 576.2132 C370.5871 581.8393 362.9565 585 355 585 L45 585 C37.0435 585 29.4129 581.8393 23.7868 576.2132 C18.1607 570.5871 15 562.9565 15 555 L15 45 C15 37.0435 18.1607 29.4129 23.7868 23.7868 C29.4129 18.1607 37.0435 15 45 15 Z" style="stroke:none;" />
      <path d="M45 30 L355 30 C358.9782 30 362.7935 31.5804 365.6066 34.3934 C368.4196 37.2064 370 41.0218 370 45 L370 555 C370 558.9783 368.4196 562.7936 365.6066 565.6066 C362.7935 568.4197 358.9782 570 355 570 L45 570 C41.0218 570 37.2064 568.4197 34.3934 565.6066 C31.5804 562.7936 30 558.9783 30 555 L30 45 C30 41.0218 31.5804 37.2064 34.3934 34.3934 C37.2064 31.5804 41.0218 30 45 30 Z" style="fill:rgb(0,59,128); stroke:none;" />
      <path d="M183.3338 505.3772 L66.9911 303.8657 C63.5536 297.9116 63.5536 290.576 66.9912 284.6219 C70.4287 278.6678 76.7816 275 83.6568 275 L316.3422 275 C323.2173 275 329.5702 278.6678 333.0078 284.6219 C336.4453 290.576 336.4453 297.9116 333.0078 303.8657 L216.6651 505.3772 C213.2275 511.3312 206.8746 514.999 199.9995 514.999 C193.1243 514.999 186.7714 511.3312 183.3338 505.3772 Z" style="fill:rgb(199,23,18); stroke:none;" />
      <path d="M53.9107 190 L63.5536 190 L76.7321 235 L68.1356 235 L58.7321 202.8905 L49.3286 235 L40.7321 235 L53.9107 190 Z" style="stroke:none;" />
      <path d="M82.1321 220.4714 L82.1321 204.5286 C82.1321 196.0076 89.0397 189.1 97.5607 189.1 C106.0817 189.1 112.9893 196.0076 112.9893 204.5286 L112.9893 220.4714 C112.9893 228.9924 106.0817 235.9 97.5607 235.9 C89.0397 235.9 82.1321 228.9924 82.1321 220.4714 Z" style="stroke:none;" />
      <path d="M90.3821 221.2214 L90.3821 203.7786 C90.3821 199.814 93.5961 196.6 97.5607 196.6 C101.5253 196.6 104.7393 199.8139 104.7393 203.7786 L104.7393 221.2214 C104.7393 225.1861 101.5253 228.4 97.5607 228.4 C93.5961 228.4 90.3821 225.1861 90.3821 221.2214 Z" style="fill:rgb(0,59,128); stroke:none;" />
      <path d="M121.9893 220.4714 L121.9893 204.5286 C121.9893 196.0076 128.8969 189.1 137.4179 189.1 C145.9388 189.1 152.8464 196.0076 152.8464 204.5286 L152.8464 220.4714 C152.8464 228.9924 145.9388 235.9 137.4179 235.9 C128.8969 235.9 121.9893 228.9924 121.9893 220.4714 Z" style="stroke:none;" />
      <path d="M130.2393 221.2214 L130.2393 203.7786 C130.2393 199.814 133.4532 196.6 137.4179 196.6 C141.3825 196.6 144.5964 199.8139 144.5964 203.7786 L144.5964 221.2214 C144.5964 225.1861 141.3825 228.4 137.4179 228.4 C133.4532 228.4 130.2393 225.1861 130.2393 221.2214 Z" style="fill:rgb(0,59,128); stroke:none;" />
      <path d="M162.7464 190 L170.9964 190 L170.9964 209.5 L175.3419 209.5 L186.6403 190 L196.175 190 L184.649 209.8929 C189.925 211.2772 193.6036 216.0455 193.6036 221.5 L193.6036 223 C193.6036 229.6274 188.231 235 181.6036 235 L162.7464 235 L162.7464 190 Z" style="stroke:none;" />
      <path d="M170.9964 217 L180.8536 217 C183.3389 217 185.3536 219.0147 185.3536 221.5 L185.3536 223 C185.3536 225.4853 183.3389 227.5 180.8536 227.5 L170.9964 227.5 L170.9964 217 Z" style="fill:rgb(0,59,128); stroke:none;" />
      <path d="M204.275 190 L212.525 190 L212.525 209.5 L216.8705 209.5 L228.1688 190 L237.7036 190 L226.1776 209.8929 C231.4535 211.2772 235.1321 216.0455 235.1321 221.5 L235.1321 223 C235.1321 229.6274 229.7596 235 223.1321 235 L204.275 235 L204.275 190 Z" style="stroke:none;" />
      <path d="M212.525 217 L222.3821 217 C224.8674 217 226.8821 219.0147 226.8821 221.5 L226.8821 223 C226.8821 225.4853 224.8674 227.5 222.3821 227.5 L212.525 227.5 L212.525 217 Z" style="fill:rgb(0,59,128); stroke:none;" />
      <path d="M244.4536 190 L253.0501 190 L254.9327 196.4286 L269.9744 196.4286 L271.8571 190 L280.4536 190 L267.275 235 L257.6321 235 L244.4536 190 Z" style="stroke:none;" />
      <path d="M257.1292 203.9286 L267.778 203.9286 L262.4536 222.1095 L257.1292 203.9286 Z" style="fill:rgb(0,59,128); stroke:none;" />
      <path d="M287.6536 190 L295.1536 190 L295.1536 219.888 L308.8679 190 L318.5107 190 L318.5107 235 L311.0107 235 L311.0107 205.112 L297.2964 235 L287.6536 235 L287.6536 190 Z" style="stroke:none;" />
      <path d="M351.0179 203.7786 L351.0179 209.5 L343.8393 209.5 L343.8393 217 L359.2679 217 L359.2679 204.5286 C359.2679 196.0076 352.3603 189.1 343.8393 189.1 C335.3183 189.1 328.4107 196.0076 328.4107 204.5286 L328.4107 220.4714 C328.4107 228.207 334.1391 234.7468 341.8073 235.7656 C349.4755 236.7844 356.7128 231.9672 358.7326 224.5 L350.2254 224.5 C348.7114 227.4491 345.375 228.9779 342.1528 228.1991 C338.9306 227.4203 336.6607 224.5364 336.6607 221.2214 L336.6607 203.7786 C336.6607 199.814 339.8747 196.6 343.8393 196.6 C347.8039 196.6 351.0179 199.8139 351.0179 203.7786 Z" style="stroke:none;" />
      <path d="M76.5905 70 L91.2571 70 L91.2571 136.6667 L111.3524 136.6667 L111.3524 150 L56.4952 150 L56.4952 136.6667 L76.5905 136.6667 L76.5905 70 Z" style="stroke:none;" />
      <path d="M125.7524 70 L140.4191 70 L140.4191 104.6667 L148.1444 104.6667 L168.2303 70 L185.181 70 L164.6904 105.3651 C174.0698 107.8261 180.6095 116.3031 180.6095 126 L180.6095 128.6667 C180.6095 140.4487 171.0583 150 159.2762 150 L125.7524 150 L125.7524 70 Z" style="stroke:none;" />
      <path d="M140.4191 118 L157.9429 118 C162.3611 118 165.9429 121.5817 165.9429 126 L165.9429 128.6667 C165.9429 133.0849 162.3611 136.6667 157.9429 136.6667 L140.4191 136.6667 L140.4191 118 Z" style="fill:rgb(0,59,128); stroke:none;" />
      <path d="M197.181 70 L212.4636 70 L215.8106 81.4286 L242.5513 81.4286 L245.8983 70 L261.1809 70 L237.7524 150 L220.6095 150 L197.181 70 Z" style="stroke:none;" />
      <path d="M219.7153 94.7619 L238.6466 94.7619 L229.181 127.0835 L219.7153 94.7619 Z" style="fill:rgb(0,59,128); stroke:none;" />
      <path d="M273.981 70 L287.3143 70 L287.3143 118.7805 L301.6 70 L315.4933 70 L328.8381 115.5675 L328.8381 70 L343.5048 70 L343.5048 150 L326.3619 150 L308.7429 89.8374 L291.1238 150 L273.981 150 L273.981 70 Z" style="stroke:none;" />
      <path d="M297.8248 304.9348 L199.9995 474.3733 L102.1741 304.9348 L297.8248 304.9348 Z" style="stroke:none;" />
      <path d="M210.6681 426.1216 C210.859 429.0708 209.8206 431.9674 207.7995 434.1236 C205.7783 436.2798 202.9548 437.5031 199.9995 437.5031 C197.0441 437.5031 194.2206 436.2798 192.1995 434.1236 C190.1783 431.9674 189.1399 429.0708 189.3308 426.1216 L197.8613 334.598 C193.6911 333.5213 190.9722 329.5117 191.5148 325.2391 C192.0575 320.9665 195.6926 317.764 199.9995 317.764 C204.3064 317.764 207.9414 320.9665 208.4841 325.2391 C209.0268 329.5117 206.3078 333.5213 202.1377 334.598 L210.6681 426.1216 Z" style="fill:rgb(20,23,28); stroke:none;" />
    </g>
  </g>
</svg>
