<?xml version="1.0" encoding="UTF-8"?><!DOCTYPE svg PUBLIC '-//W3C//DTD SVG 1.0//EN' 'http://www.w3.org/TR/2001/REC-SVG-20010904/DTD/svg10.dtd'><svg xmlns:xlink="http://www.w3.org/1999/xlink" xmlns="http://www.w3.org/2000/svg"><!--Gegenereerd door de SIMaD (http://www.dlw.be).-->
<g style="stroke:none;fill-rule:evenodd;" transform="matrix(1,0,0,-1,0,2750)">
<path d=" M65 0 L2185 0 A65 65 0 0 1 2250 65 L2250 2685 A65 65 0 0 1 2185 2750 L65 2750 A65 65 0 0 1 0 2685 L0 65 A65 65 0 0 1 65 0 Z" style="fill:rgb(255,255,0);" />
<path d=" M195 45 L2055 45 A150 150 0 0 1 2205 195 L2205 2555 A150 150 0 0 1 2055 2705 L195 2705 A150 150 0 0 1 45 2555 L45 195 A150 150 0 0 1 195 45 Z" style="fill:rgb(0,0,0);" />
<path d=" M195 90 L2055 90 A105 105 0 0 1 2160 195 L2160 2555 A105 105 0 0 1 2055 2660 L195 2660 A105 105 0 0 1 90 2555 L90 195 A105 105 0 0 1 195 90 Z" style="fill:rgb(255,255,0);" />
<path d=" M2100.83 135 L1562.39 135 L1562.38684811412 1333.29334564889 A3827.59 3827.59 0 0 0 1672.92889463355 2075.55474341152 L1672.9287178759 2075.55420007885 A4099.11 4099.11 0 0 1 1779.02307239947 2614.99635861493 L1779.03 2615 L2100.83 2615 Z" style="fill:rgb(255,255,255);" />
<path d=" M1859.76006179998 428.985011840767 A992.69 992.69 0 0 0 2009.69993820002 428.985011840767 L2009.69833901939 428.976239514185 A8.32 8.32 0 0 0 2017.39 420.680003339862 L2017.4 420.68 L2017.38999999998 283.830018587058 A8.32 8.32 0 0 0 2009.07000624409 275.510000000002 L1973.04000390256 275.509999999999 A5.2 5.2 0 0 1 1967.84 270.309996097444 L1967.83 270.31 L1967.84 268.360003902556 A5.2 5.2 0 0 1 1973.04000390256 263.160000000002 L2017.4 263.16 L2017.39982743631 198.988698754511 A17.55 17.55 0 0 0 2022.80832037656 189.041521931381 L2022.8 189.04 L2022.8 135 L1846.66 135 L1846.65167962344 189.041521931381 A17.55 17.55 0 0 0 1852.06017256369 198.988698754511 L1852.06 198.99 L1852.06 263.16 L1896.4199949176 263.160000000002 A5.2 5.2 0 0 1 1901.62 268.360002631957 L1901.63 268.36 L1901.61999999998 270.309987112489 A5.2 5.2 0 0 1 1896.4200050824 275.509999999998 L1860.39000624409 275.510000000002 A8.32 8.32 0 0 0 1852.07 283.83000624409 L1852.06 283.83 L1852.07 420.68000203296 A8.32 8.32 0 0 0 1859.76165967744 428.976239415485 Z M2021.14 136.66 L2021.14 189.04 L2019.06 189.04 L2019.06 136.66 Z M1848.32 136.66 L1848.32 189.04 L1850.4 189.04 L1850.4 136.66 Z M1996.54 328.78 L2002.72 330.6 L2002.72 361.7 L1996.54 363.52 Z M1872.92 328.78 L1866.74 330.6 L1866.74 361.7 L1872.92 363.52 Z M1990.77 390.77 L1987.26563988677 377.425136110702 A778.41 778.41 0 0 1 1882.19436011323 377.425136110702 L1882.19 377.42 L1878.6892550248 390.774756690042 A791.97 791.97 0 0 0 1990.7707449752 390.774756690042 Z" style="fill:rgb(0,0,0);" />
<path d=" M2074.56 135 L2100.83 135 L2100.83 2615 L2074.56 2615 Z" style="fill:rgb(0,0,0);" />
<path d=" M1768.77765513723 523.453742137019 A5.2 5.2 0 0 1 1772.81429104755 527.921643216381 L1772.81945534673 527.919849424825 A1277.19 1277.19 0 0 1 1775.74361939487 799.4043171609 L1775.73191468148 799.405166151637 A8.32 8.32 0 0 1 1768.94520411505 806.794544254529 L1768.94665051084 806.807218215144 A314.65 314.65 0 0 1 1652.25873567737 806.128912618574 L1652.25973155818 806.11660555451 A8.32 8.32 0 0 1 1645.56767174831 798.740846844364 L1645.56275445132 798.739802579432 A1277.19 1277.19 0 0 1 1648.55056551627 527.91967232006 L1648.55570895245 527.921643216381 A5.2 5.2 0 0 1 1652.59234486277 523.453742137019 L1652.59842558451 523.454620739975 A267.88 267.88 0 0 1 1768.78157441549 523.454620739975 Z M1744.77 546.27 L1741.40835561693 563.053476319416 A157.65 157.65 0 0 1 1675.09164438307 563.053476319416 L1675.09 563.05 L1671.73113898944 546.272610227866 A286.45 286.45 0 0 0 1744.76886101056 546.272610227866 Z M1768.58 803.6 L1768.19723723506 801.545111470774 A310.48 310.48 0 0 1 1653.05576642577 800.875791317387 L1653.06 800.88 L1652.65821205568 802.91744518691 A312.56 312.56 0 0 0 1768.57105063934 803.591245273559 Z M1755.52 716.04 L1751.03440796997 691.821341244314 A228.55 228.55 0 0 1 1672.98570876061 692.715610549997 L1672.99 692.72 L1667.33786724671 716.744807319275 A253.18 253.18 0 0 0 1755.52811970937 716.039789358526 Z" style="fill:rgb(0,0,0);" />
<path d=" M1775.41686069267 551.920298420575 A16.77 16.77 0 1 0 1762.0029382788 522.042971512697 L1762.00054516113 522.040007691945 A267.88 267.88 0 0 1 1768.78164744157 523.454636962213 L1768.77765513723 523.453742137019 A5.2 5.2 0 0 1 1772.81429104755 527.921643216381 L1772.82012989861 527.92379328702 A1277.05 1277.05 0 0 1 1775.41770787661 551.924441421907 Z" style="fill:rgb(255,0,0);" />
<path d=" M1772.01 518.72 L1775.59 503.83 L1768.42 503.83 Z" style="fill:rgb(255,0,0);" />
<path d=" M1783.87 547.36 L1791.86 560.42 L1796.93 555.35 Z" style="fill:rgb(255,0,0);" />
<path d=" M1783.87 523.64 L1796.93 515.64 L1791.86 510.58 Z" style="fill:rgb(255,0,0);" />
<path d=" M1788.78 535.5 L1803.67 539.08 L1803.67 531.92 Z" style="fill:rgb(255,0,0);" />
<path d=" M1804.88 302.15 L1815.52 302.15 L1815.52 411.51 L1804.88 411.51 Z" style="fill:rgb(0,0,0);" />
<path d=" M1777.82312994905 775.311443794995 A16.77 16.77 0 1 1 1767.7914999563 807.004805340634 L1767.7934084817 807.008984690833 A314.52 314.52 0 0 0 1768.9534336404 806.799308094733 L1768.94520411505 806.794544254529 A8.32 8.32 0 0 0 1775.73191468148 799.405166151637 L1775.74362037615 799.402870055138 A1277.16 1277.16 0 0 0 1777.82732084642 775.303916117946 Z" style="fill:rgb(255,0,0);" />
<path d=" M1774.93 808.61 L1778.51 823.49 L1771.35 823.49 Z" style="fill:rgb(255,0,0);" />
<path d=" M1786.79 803.69 L1799.85 811.69 L1794.79 816.75 Z" style="fill:rgb(255,0,0);" />
<path d=" M1786.79 779.97 L1794.79 766.91 L1799.85 771.97 Z" style="fill:rgb(255,0,0);" />
<path d=" M1791.71 791.83 L1806.59 788.25 L1806.59 795.41 Z" style="fill:rgb(255,0,0);" />
<path d=" M1804.88 721.36 L1815.52 721.36 L1815.52 830.72 L1804.88 830.72 Z" style="fill:rgb(0,0,0);" />
<path d=" M1979.54765513723 872.993742137019 A5.2 5.2 0 0 1 1983.58429104755 877.461643216381 L1983.58945534673 877.459849424825 A1277.19 1277.19 0 0 1 1986.51362152529 1148.94429497177 L1986.50191468148 1148.94516615164 A8.32 8.32 0 0 1 1979.71520411505 1156.33454425453 L1979.71664510857 1156.33721920207 A314.65 314.65 0 0 1 1863.02873028694 1155.65891156891 L1863.02973440886 1155.65660610962 A8.32 8.32 0 0 1 1856.33767203817 1148.28084988 L1856.33275445132 1148.27980257943 A1277.19 1277.19 0 0 1 1859.32056812415 877.459650181965 L1859.32570895245 877.461643216381 A5.2 5.2 0 0 1 1863.36234486277 872.993742137019 L1863.36842558451 872.984620739975 A267.88 267.88 0 0 1 1979.55157441549 872.984620739975 Z M1979.35 1153.13 L1978.96723723506 1151.08511147077 A310.48 310.48 0 0 1 1863.82576642577 1150.41579131739 L1863.83 1150.42 L1863.42821205568 1152.45744518691 A312.56 312.56 0 0 0 1979.34105063934 1153.13124527356 Z M1966.29 1065.58 L1961.80441581457 1041.36133979205 A228.55 228.55 0 0 1 1883.75571663643 1042.25561182214 L1883.76 1042.26 L1878.09786724671 1066.28480731927 A253.18 253.18 0 0 0 1966.28811970937 1065.57978935853 Z M1955.54 895.8 L1952.17835561693 912.583476319416 A157.65 157.65 0 0 1 1885.86164438307 912.583476319416 L1885.86 912.59 L1882.50113898944 895.802610227866 A286.45 286.45 0 0 0 1955.53886101056 895.802610227866 Z" style="fill:rgb(0,0,0);" />
<path d=" M1796.23367458178 1302.93811555927 A5.2 5.2 0 0 1 1800.83529736762 1306.82162392983 L1800.84691652279 1306.82174755936 A1277.19 1277.19 0 0 1 1840.30985992099 1575.43865517254 L1840.30354999245 1575.4424537849 A8.32 8.32 0 0 1 1834.57393250515 1583.6785834894 L1834.57069031659 1583.68077081055 A314.65 314.65 0 0 1 1718.85465370932 1598.7249869274 L1718.85415940688 1598.71638162679 A8.32 8.32 0 0 1 1711.22965597327 1592.30916472395 L1711.22854131365 1592.31563681383 A1277.19 1277.19 0 0 1 1677.71318148188 1323.56072498806 L1677.7208272133 1323.55274876856 A5.2 5.2 0 0 1 1681.11891440714 1318.5818763149 L1681.1163741865 1318.58158539915 A267.88 267.88 0 0 1 1796.24088492362 1302.93322766359 Z M1833.77 1580.56 L1833.12562069041 1578.57697280064 A310.48 310.48 0 0 1 1718.94314280524 1593.42181230326 L1718.94 1593.42 L1718.8241896617 1595.49840811122 A312.56 312.56 0 0 0 1833.77160526602 1580.55411819946 Z M1809.04 1495.56 L1801.34370298372 1472.16006111496 A228.55 228.55 0 0 1 1724.12661466749 1483.55832579992 L1724.12 1483.56 L1721.75675071896 1508.13061097748 A253.18 253.18 0 0 0 1809.04847391488 1495.553936487 Z M1775.52 1328.78 L1774.45465172396 1345.86313359426 A157.65 157.65 0 0 1 1708.74220278506 1354.79513225667 L1708.74 1354.79 L1703.15016186465 1338.6124469708 A286.45 286.45 0 0 0 1775.52237846956 1328.77521658173 Z" style="fill:rgb(0,0,0);" />
<path d=" M1848.64 1554.69 L1854.8 1540.67 L1860.5 1545.01 Z" style="fill:rgb(255,0,0);" />
<path d=" M1840.74 1584.66 L1846.3 1598.93 L1839.2 1599.9 Z" style="fill:rgb(255,0,0);" />
<path d=" M1851.83 1578.2 L1865.85 1584.36 L1861.51 1590.06 Z" style="fill:rgb(255,0,0);" />
<path d=" M1855.1 1565.78 L1869.37 1560.23 L1870.34 1567.32 Z" style="fill:rgb(255,0,0);" />
<path d=" M1839.12193382485 1551.28229070056 A16.77 16.77 0 1 1 1833.45039331203 1584.03799851745 L1833.44932622175 1584.04113255991 A314.52 314.52 0 0 0 1834.57053543715 1583.67712761893 L1834.57393250515 1583.6785834894 A8.32 8.32 0 0 0 1840.30354999245 1575.4424537849 L1840.30994197372 1575.44132854994 A1277.16 1277.16 0 0 0 1839.12884205083 1551.28131216979 Z" style="fill:rgb(255,0,0);" />
<path d=" M1811.22 1301.09 L1823.08 1291.4 L1817.38 1287.07 Z" style="fill:rgb(255,0,0);" />
<path d=" M1798.8 1297.81 L1800.34 1282.58 L1793.25 1283.54 Z" style="fill:rgb(255,0,0);" />
<path d=" M1806.64741821574 1330.25182018878 A16.77 16.77 0 1 0 1789.33163431357 1302.45341006268 L1789.33109911379 1302.44481985322 A267.88 267.88 0 0 1 1796.24094549192 1302.93323273258 L1796.23367458178 1302.93811555927 A5.2 5.2 0 0 1 1800.83529736762 1306.82162392983 L1800.84073863759 1306.824329692 A1277.05 1277.05 0 0 1 1806.64722802595 1330.25645036679 Z" style="fill:rgb(255,0,0);" />
<path d=" M1995.33765513723 1787.08374213702 A5.2 5.2 0 0 1 1999.37429104755 1791.55164321638 L1999.37945534673 1791.54984942482 A1277.19 1277.19 0 0 1 2002.30361939487 2063.0343171609 L2002.30191482026 2063.03516470617 A8.32 8.32 0 0 1 1995.51520554352 2070.42454399357 L1995.51665051084 2070.43721821514 A314.65 314.65 0 0 1 1878.82873567737 2069.75891261857 L1878.82973298352 2069.74660583206 A8.32 8.32 0 0 1 1872.13767190014 2062.37084843446 L1872.13275445132 2062.36980257943 A1277.19 1277.19 0 0 1 1875.12056812415 1791.54965018196 L1875.12570895245 1791.55164321638 A5.2 5.2 0 0 1 1879.16234486277 1787.08374213702 L1879.15842558451 1787.08462073998 A267.88 267.88 0 0 1 1995.34157441549 1787.08462073998 Z M1971.34 1809.9 L1967.97835561693 1826.67347631942 A157.65 157.65 0 0 1 1901.66164438307 1826.67347631942 L1901.66 1826.68 L1898.30113898944 1809.90261022787 A286.45 286.45 0 0 0 1971.33886101056 1809.90261022787 Z M1995.14 2067.23 L1994.76723723506 2065.17511147077 A310.48 310.48 0 0 1 1879.62576642577 2064.50579131739 L1879.62 2064.51 L1879.22821205568 2066.54744518691 A312.56 312.56 0 0 0 1995.14105063934 2067.22124527356 Z M1982.09 1979.67 L1977.60440796997 1955.45134124431 A228.55 228.55 0 0 1 1899.55570876061 1956.34561055 L1899.55 1956.35 L1893.89787160401 1980.3748080541 A253.18 253.18 0 0 0 1982.08812839936 1979.66978774975 Z" style="fill:rgb(0,0,0);" />
<path d=" M1948.19216328765 2258.08193860688 A5.2 5.2 0 0 1 1952.85426512685 2261.8926310452 L1952.86115067995 2261.89013758079 A1277.19 1277.19 0 0 1 1996.54176913684 2529.85351293 L1996.53737391684 2529.85180942198 A8.32 8.32 0 0 1 1990.93793220115 2538.17698819079 L1990.9402040423 2538.18768452987 A314.65 314.65 0 0 1 1875.47495448045 2555.04905192058 L1875.47479064249 2555.03283528644 A8.32 8.32 0 0 1 1867.75051083044 2548.74626369023 L1867.7450098282 2548.75649206198 A1277.19 1277.19 0 0 1 1830.00907067937 2280.56163590011 L1830.01292758171 2280.55446569591 A5.2 5.2 0 0 1 1833.33245529086 2275.53079121246 L1833.32752729606 2275.53115773449 A267.88 267.88 0 0 1 1948.1918272107 2258.07502192495 Z M1927.89 2284.24 L1927.08850745655 2301.33201431398 A157.65 157.65 0 0 1 1861.52458820527 2311.29588310509 L1861.52 2311.3 L1855.68267136053 2295.21435453923 A286.45 286.45 0 0 0 1927.89130325789 2284.24067725211 Z M1990.08 2535.07 L1989.4029799811 2533.09473603316 A310.48 310.48 0 0 1 1875.46797065657 2549.73264274687 L1875.47 2549.74 L1875.38167002196 2551.81085163927 A312.56 312.56 0 0 0 1990.07996464472 2535.06148252552 Z M1964.02 2450.47 L1955.95728154049 2427.19938595255 A228.55 228.55 0 0 1 1878.92891040811 2439.81006422759 L1878.93 2439.81 L1876.94559259229 2464.41656634385 A253.18 253.18 0 0 0 1964.02883454741 2450.4692577201 Z" style="fill:rgb(0,0,0);" />
<path d=" M1814.41 1324.59 L1824.09 1336.46 L1828.43 1330.76 Z" style="fill:rgb(255,0,0);" />
<path d=" M1817.68 1312.18 L1832.92 1313.72 L1831.95 1306.62 Z" style="fill:rgb(255,0,0);" />
<path d=" M129.49 1875 L129.49 2275 L243.78010212829 2274.99999999994 A91.43 91.43 0 0 0 335.209999999971 2183.57007340471 L335.2 2183.57 L335.209999999978 2143.57006383018 A91.43 91.43 0 0 0 260.972809268763 2053.7710456105 L260.97 2053.77 L343.2 1875 L280.31 1875 L198.82 2052.14 L186.63 2052.14 L186.63 1875 Z M186.63 2223.57 L238.060044680429 2223.56999999998 A40 40 0 0 0 278.059999999987 2183.57003211406 L278.059999999987 2143.56996788594 A40 40 0 0 0 238.060044680429 2103.57000000003 L186.63 2103.57 Z" style="fill:rgb(0,0,0);" />
<path d=" M399.21 1875 L456.35 1875 L456.35 2275 L399.21 2275 Z" style="fill:rgb(0,0,0);" />
<path d=" M582.64 1875 L582.64 2223.57 L508.35 2223.57 L508.35 2275 L714.06 2275 L714.06 2223.57 L639.78 2223.57 L639.78 1875 Z" style="fill:rgb(0,0,0);" />
<path d=" M750.07 1989.29 L750.070000000008 1972.14004129065 A102.86 102.86 0 1 1 925.66301112943 2044.87299589627 L925.66 2044.87 L824.64573566369 2155.28572184139 A40 40 0 1 0 892.93 2183.5699979056 L950.07 2183.56999491376 A97.14 97.14 0 1 1 784.241664059272 2114.88163049181 L784.24 2114.88 L885.251854352773 2004.4618475833 A45.71 45.71 0 1 0 807.220000000004 1972.14001834917 L807.21 1972.14 L807.21 1989.29 Z" style="fill:rgb(0,0,0);" />
<path d=" M1027.78 1875 L1027.78 2275 L1216.35 2275 L1216.35 2223.57 L1084.92 2223.57 L1084.92 2100.71 L1170.64 2100.71 L1170.64 2049.29 L1084.92 2049.29 L1084.92 1926.43 L1216.35 1926.43 L1216.35 1875 Z" style="fill:rgb(0,0,0);" />
<path d=" M1276.35 1875 L1276.35 2275 L1336.35 2275 L1430.64 2017.69 L1430.64 2275 L1482.06 2275 L1482.06 1875 L1422.06 1875 L1327.78 2132.31 L1327.78 1875 Z" style="fill:rgb(0,0,0);" />
<path d=" M728.64 1460.71 L728.64 1503.57 L882.93 1503.57 L882.93 1460.71 Z" style="fill:rgb(0,0,0);" />
<path d=" M728.64 1560.71 L728.64 1603.57 L882.93 1603.57 L882.93 1560.71 Z" style="fill:rgb(0,0,0);" />
<path d=" M321.12 1175 L374.69 925 L417.55 925 L471.12 1175 L434.59 1175 L396.12 1000 L357.65 1175 Z" style="fill:rgb(0,0,0);" />
<path d=" M503.62 925 L503.62 1175 L539.33 1175 L539.33 957.14 L610.76 957.14 L610.76 925 Z" style="fill:rgb(0,0,0);" />
<path d=" M630.76 985.71 L630.760000000001 1114.28998877928 A64.29 64.29 0 0 0 759.339999999999 1114.29001122072 L759.33 1114.29 L759.34 985.71 A64.29 64.29 0 0 0 630.76 985.71 Z M666.47 982.14 L666.48 1117.85999501359 A28.57 28.57 0 0 0 723.619999999999 1117.86000498641 L723.62 982.14 A28.57 28.57 0 0 0 666.48 982.14 Z" style="fill:rgb(0,0,0);" />
<path d=" M828.26 925 L828.26 1142.86 L781.83 1142.86 L781.83 1175 L910.4 1175 L910.4 1142.86 L863.97 1142.86 L863.97 925 Z" style="fill:rgb(0,0,0);" />
<path d=" M1115.41 978.57 L1115.41 971.429995885735 A21.43 21.43 0 1 0 1072.55 971.430004114265 L1072.55 1010.71 L1147.55 1010.71 L1147.55 1053.57000841476 A53.57 53.57 0 0 1 1040.41 1053.56999158524 L1040.41 975.000008414756 A53.57 53.57 0 0 1 1147.55 974.999991585244 L1147.55 978.57 Z M1115.41 1039.29 L1115.41 1057.14000336622 A21.43 21.43 0 0 1 1072.55 1057.13999663378 L1072.55 1039.29 Z" style="fill:rgb(0,0,0);" />
<path d=" M1183.3 925 L1215.44 925 L1215.44 1057.13999588574 A21.43 21.43 0 0 0 1258.3 1057.14000411426 L1258.3 925 L1290.44 925 L1290.43999999999 1062.72002325826 A44.42 44.42 0 0 1 1215.44512873037 1094.94287459005 L1215.44 1094.94 L1215.44 1103.57 L1183.3 1103.57 Z" style="fill:rgb(0,0,0);" />
<path d=" M149.17 475 L149.17 725 L184.88 725 L184.88 617.86 L242.03 617.86 L242.03 725 L277.74 725 L277.74 475 L242.03 475 L242.03 585.71 L184.88 585.71 L184.88 475 Z" style="fill:rgb(0,0,0);" />
<path d=" M322.74 535.71 L322.740000000001 664.289988779278 A64.29 64.29 0 0 0 451.319999999999 664.290011220722 L451.31 664.29 L451.32 535.71 A64.29 64.29 0 0 0 322.74 535.71 Z M358.45 532.14 L358.460000000001 667.859995013594 A28.57 28.57 0 0 0 415.6 667.860004986406 L415.6 532.14 A28.57 28.57 0 0 0 358.46 532.14 Z" style="fill:rgb(0,0,0);" />
<path d=" M496.32 475 L496.32 725 L614.18 725 L614.18 692.86 L532.03 692.86 L532.03 616.07 L585.61 616.07 L585.61 583.93 L532.03 583.93 L532.03 475 Z" style="fill:rgb(0,0,0);" />
<path d=" M644.17 475 L644.17 725 L762.03 725 L762.03 692.86 L679.88 692.86 L679.88 616.07 L733.46 616.07 L733.46 583.93 L679.88 583.93 L679.88 475 Z" style="fill:rgb(0,0,0);" />
<path d=" M792.03 475 L792.03 725 L909.89 725 L909.89 692.86 L827.74 692.86 L827.74 616.07 L881.32 616.07 L881.32 583.93 L827.74 583.93 L827.74 507.14 L909.89 507.14 L909.89 475 Z" style="fill:rgb(0,0,0);" />
<path d=" M947.39 475 L947.39 725 L983.1 725 L983.1 507.14 L1054.53 507.14 L1054.53 475 Z" style="fill:rgb(0,0,0);" />
<path d=" M1087.03 475 L1122.74 475 L1122.74 725 L1087.03 725 Z" style="fill:rgb(0,0,0);" />
<path d=" M1188.45 535.71 L1152.74 535.710011220722 A64.29 64.29 0 0 1 1281.32 535.709988779278 L1281.31 535.71 L1281.31 725 L1245.6 725 L1245.6 532.139995013594 A28.57 28.57 0 0 0 1188.46 532.140004986406 L1188.45 532.14 Z" style="fill:rgb(0,0,0);" />
<path d=" M1328.82 475 L1328.82 725 L1364.53 725 L1364.53 635.43 L1416.19 725 L1457.39 725 L1387.89 604.19 L1462.39 475 L1421.16 475 L1364.53 573.2 L1364.53 475 Z" style="fill:rgb(0,0,0);" />
</g>
</svg>
