<?xml version="1.0" encoding="UTF-8"?>
<!DOCTYPE svg PUBLIC '-//W3C//DTD SVG 1.0//EN' 'http://www.w3.org/TR/2001/REC-SVG-20010904/DTD/svg10.dtd'>
<svg xmlns:xlink="http://www.w3.org/1999/xlink" xmlns="http://www.w3.org/2000/svg" width="400" height="400">
<!--Aangemaakt vanuit SIMaD (https://www.dlw.be).-->
<g style="stroke:none;fill-rule:evenodd;" transform="matrix(1,0,0,-1,0,400)">
<path d=" M400 0 L0 0 L0 400 L400 400 Z" style="fill:rgb(255,255,255);stroke:rgb(0,0,0);" />
<path d=" M390 10 L10 10 L10 390 L390 390 Z" style="fill:rgb(255,0,0);" />
<path d=" M206.33 242.42 L238.750068726919 242.417887546022 A44.96 44.96 0 1 1 238.750068726919 258.882112453978 L238.75 258.89 L206.33 258.89 L206.33 362.089999514275 A2.53 2.53 0 0 1 203.800000176627 364.62 L203.8 364.63 L191.140000176627 364.62 A2.53 2.53 0 0 1 188.61 362.089999823373 L188.6 362.09 L188.61 139.220000176627 A2.53 2.53 0 0 1 191.140000176627 136.69 L191.14 136.68 L203.799999823373 136.69 A2.53 2.53 0 0 1 206.33 139.220000176627 Z" style="fill:rgb(255,255,255);" />
<path d=" M129.08 349.429999514275 A2.53 2.53 0 0 1 126.550000176627 351.96 L115.150000176627 351.96 A2.53 2.53 0 0 1 112.62 349.429999823373 L112.62 151.880000176627 A2.53 2.53 0 0 1 115.150000176627 149.35 L126.549999823373 149.35 A2.53 2.53 0 0 1 129.08 151.880000176627 Z" style="fill:rgb(255,255,255);" />
<path d=" M148.08 151.88 L148.08 349.429999514275 A2.53 2.53 0 0 1 145.550000176627 351.96 L134.150000176627 351.96 A2.53 2.53 0 0 1 131.62 349.429999823373 L131.62 151.880000176627 A2.53 2.53 0 0 1 134.150000176627 149.35 L145.549999823373 149.35 A2.53 2.53 0 0 1 148.08 151.880000176627 Z" style="fill:rgb(255,255,255);" />
<path d=" M167.07 349.429999514275 A2.53 2.53 0 0 1 164.540000176627 351.96 L153.150000176627 351.96 A2.53 2.53 0 0 1 150.62 349.429999823373 L150.61 349.43 L150.62 151.880000176627 A2.53 2.53 0 0 1 153.150000176627 149.35 L164.539999823373 149.35 A2.53 2.53 0 0 1 167.07 151.880000176627 Z" style="fill:rgb(255,255,255);" />
<path d=" M183.54 351.96 L172.140000176627 351.96 A2.53 2.53 0 0 1 169.61 349.429999823373 L169.61 151.880000176627 A2.53 2.53 0 0 1 172.140000176627 149.35 L183.539999823373 149.35 A2.53 2.53 0 0 1 186.07 151.880000176627 L186.07 349.429999514275 A2.53 2.53 0 0 1 183.540000176627 351.96 Z" style="fill:rgb(255,255,255);" />
<path d=" M73.37 362.09 L73.37 139.220000176627 A2.53 2.53 0 0 1 75.9000001766273 136.69 L75.9 136.68 L88.5599998233727 136.69 A2.53 2.53 0 0 1 91.09 139.220000176627 L91.09 362.089999514275 A2.53 2.53 0 0 1 88.5600001766273 364.62 L88.56 364.63 L75.9000001766273 364.62 A2.53 2.53 0 0 1 73.37 362.089999823373 Z" style="fill:rgb(255,255,255);" />
<path d=" M93.63 75.9 L93.63 83.5 L110.09 83.5 L110.09 75.9 Z" style="fill:rgb(255,255,255);" />
<path d=" M96.5987392217735 37.6998950543736 A2.53 2.53 0 0 1 99.1200000883137 35.38 L99.12 35.37 L104.589999911686 35.38 A2.53 2.53 0 0 1 107.111260778227 37.6998950543736 L107.12 37.7 L110.09 73.37 L93.63 73.37 Z" style="fill:rgb(255,255,255);" />
<path d=" M107.559999823373 351.96 A2.53 2.53 0 0 0 110.09 349.429999823373 L110.09 86.03 L93.63 86.03 L93.63 349.429999823373 A2.53 2.53 0 0 0 96.1600001766273 351.96 Z" style="fill:rgb(255,255,255);" />
<path d=" M291.81 258.89 L291.815580333553 276.396347029226 A27.23 27.23 0 0 0 308.905764966088 258.8823243999 L308.9 258.89 Z" style="fill:rgb(255,0,0);" />
<path d=" M291.81 242.42 L308.905764966088 242.4176756001 A27.23 27.23 0 0 0 291.815580333553 224.903652970774 L291.81 224.91 Z" style="fill:rgb(255,0,0);" />
<path d=" M274.08 258.89 L274.084419666447 276.396347029226 A27.23 27.23 0 0 1 256.994235033912 258.8823243999 L256.99 258.89 Z" style="fill:rgb(255,0,0);" />
<path d=" M274.08 242.42 L256.994235033912 242.4176756001 A27.23 27.23 0 0 1 274.084419666447 224.903652970774 L274.08 224.91 Z" style="fill:rgb(255,0,0);" />
</g>
</svg>
