<?xml version="1.0" encoding="UTF-8"?>
<!DOCTYPE svg PUBLIC '-//W3C//DTD SVG 1.0//EN' 'http://www.w3.org/TR/2001/REC-SVG-20010904/DTD/svg10.dtd'>
<svg xmlns:xlink="http://www.w3.org/1999/xlink" xmlns="http://www.w3.org/2000/svg" width="225" height="225">
<!--Aangemaakt vanuit SIMaD (https://www.dlw.be).-->
<g style="stroke:none;fill-rule:evenodd;" transform="matrix(1,0,0,-1,0,225)">
<path d=" M0 0 L225 0 L225 225 L0 225 Z" style="fill:rgb(255,0,0);" />
<path d=" M212.41 112.49 A100 100 0 0 1 12.41 112.49 A100 100 0 0 1 212.41 112.49 Z" style="fill:rgb(255,255,255);" />
<path d=" M193.75 112.5 A81.25 81.25 0 0 1 31.25 112.5 A81.25 81.25 0 0 1 193.75 112.5 Z" style="fill:rgb(255,0,0);" />
<path d=" M75 62.5 L100 62.5 L100 100 L125 100 L125 62.5 L150 62.5 L150 162.5 L125 162.5 L125 125 L100 125 L100 162.5 L75 162.5 Z" style="fill:rgb(255,255,255);" />
</g>
</svg>
