<?xml version="1.0" encoding="UTF-8"?>
<!DOCTYPE svg PUBLIC '-//W3C//DTD SVG 1.0//EN' 'http://www.w3.org/TR/2001/REC-SVG-20010904/DTD/svg10.dtd'>
<svg xmlns:xlink="http://www.w3.org/1999/xlink" xmlns="http://www.w3.org/2000/svg" width="600.000000004299" height="900.000000000036">
<!--Gegenereerd door de SIMaD-toepassing (http://www.dlw.be).-->
<g style="stroke:none;fill-rule:evenodd;" transform="matrix(1,0,0,-1,0,900.000000000036)">
<path d=" M65 0 L534.999951218047 1.83035808731802E-11 A65 65 0 0 1 599.999999999982 65.0000487819526 L599.999999999838 834.999854788606 A65 65 0 0 1 535.000048781953 899.999999999982 L65.0000487819526 899.999999999982 A65 65 0 0 1 1.83035808731802E-11 834.999951218047 L1.83035808731802E-11 65.0000487819526 A65 65 0 0 1 65.0000487819526 1.83035808731802E-11 Z" style="fill:rgb(0,0,255);" />
<path d=" M65 15 L534.999962475421 15.0000000000141 A50 50 0 0 1 584.999999999986 65.0000375245789 L584.999999999875 834.999888298928 A50 50 0 0 1 535.000037524579 884.999999999986 L65.0000375245789 884.999999999986 A50 50 0 0 1 15.0000000000141 834.999962475421 L15.0000000000141 65.0000375245789 A50 50 0 0 1 65.0000375245789 15.0000000000141 Z" style="fill:rgb(255,255,255);" />
<path d=" M65 30 L534.999973732795 30.0000000000099 A35 35 0 0 1 569.99999999999 65.0000262672052 L569.999999999913 834.99992180925 A35 35 0 0 1 535.000026267205 869.99999999999 L65.0000262672052 869.99999999999 A35 35 0 0 1 30.0000000000099 834.999973732795 L30.0000000000099 65.0000262672052 A35 35 0 0 1 65.0000262672052 30.0000000000099 Z" style="fill:rgb(0,0,255);" />
<path d=" M75 180 L225 90 L225 150 L525 150 L525 210 L225 210 L225 270 Z" style="fill:rgb(255,255,255);" />
<path d=" M494.999997905605 330 A30 30 0 0 1 525 360.000002094395 L524.999999999999 779.999994240413 A30 30 0 0 1 495.000002094395 810 L105.000002094395 810 A30 30 0 0 1 75.0000000000001 779.999997905605 L75.0000000000001 360.000002094395 A30 30 0 0 1 105.000002094395 330 Z" style="fill:rgb(255,255,255);" />
<path d=" M419.35 381.34 A28.82 28.82 0 0 1 361.71 381.34 A28.82 28.82 0 0 1 419.35 381.34 Z M400.3 381.31 A9.68 9.68 0 0 1 380.94 381.31 A9.68 9.68 0 0 1 400.3 381.31 Z" style="fill:rgb(0,0,0);" />
<path d=" M225.51 381.32 A28.81 28.81 0 0 1 167.89 381.32 A28.81 28.81 0 0 1 225.51 381.32 Z M206.4 381.39 A9.65 9.65 0 0 1 187.1 381.39 A9.65 9.65 0 0 1 206.4 381.39 Z" style="fill:rgb(0,0,0);" />
<path d=" M228.89 381.3 A32.27 32.27 0 0 1 164.35 381.3 L164.36 381.3 L143.37 381.3 L143.37 390.33 L149.64 390.33 L155.9 422.42 L161.54 429.59 L165.93 429.59 L177.2 467.29 L229.2 467.29 L229.2 399.99 L351.37 399.99 L351.37 404.35 L233.28 404.35 L233.28 495.01 L456.63 495.01 L456.63 404.35 L416.22 404.35 L416.22 399.99 L455.38 399.99 L455.38 389.09 L434.07 386.28 L434.07 381.3 L422.8 381.3 A32.27 32.27 0 0 1 358.26 381.3 L358.27 381.3 Z M188.17 456.07 L189.73 456.07 L213.54 456.07 L213.54 429.59 L182.84 429.59 Z M182.84 456.07 L177.2 429.59 L171.25 429.59 L177.2 456.07 Z" style="fill:rgb(0,0,0);" />
<path d=" M394.19 589.73 L416.689999214602 589.73 A11.25 11.25 0 0 0 427.94 578.479999214602 L427.946946111946 548.540120852795 A16.69 16.69 0 0 0 420.676014069402 535.789317412208 L420.668579718898 535.79354599692 A40.86 40.86 0 0 0 414.778466248456 532.464990620029 L414.781183400495 532.461020049243 A45.29 45.29 0 0 0 405.149882893571 529.277204730433 L405.14818888346 529.277143858191 A57.93 57.93 0 0 0 394.188212191444 528.047760802607 L394.191787808556 528.047760802607 A57.93 57.93 0 0 0 383.23181111654 529.277143858191 L383.230117106429 529.277204730433 A45.29 45.29 0 0 0 373.598816599505 532.461020049243 L373.601533751544 532.464990620029 A40.86 40.86 0 0 0 367.711420281102 535.79354599692 L367.713985930598 535.789317412208 A16.69 16.69 0 0 0 360.443053888054 548.540120852795 L360.44 548.54 L360.44 578.479999214602 A11.25 11.25 0 0 0 371.690000785398 589.73 Z M394.191546572682 572.489823567046 A7.53 7.53 0 0 0 401.66734763153 565.159844024443 L401.66478913378 565.152588911946 A8.49 8.49 0 0 0 398.784728077007 559.072922049809 L398.78 559.08 L398.78 549.45 L394.19 549.45 L389.6 549.45 L389.595271922993 559.072922049809 A8.49 8.49 0 0 0 386.715210871411 565.152588763858 L386.71265236847 565.159844024443 A7.53 7.53 0 0 0 394.188453427318 572.489823567046 Z" style="fill:rgb(0,0,0);" />
<path d=" M394.20423869349 618.049993996645 A20.69 20.69 0 0 0 408.501682248061 612.330292320641 L408.503557222058 612.333363569513 A30.96 30.96 0 0 0 417.177698763199 591.217474882614 L417.18 591.21 L417.21 591.12 L409.148295608394 591.119571983718 A22.93 22.93 0 0 1 402.844836321062 606.632394286424 L402.843153288264 606.629133042906 A12.66 12.66 0 0 1 394.204241451735 610.019990192262 L394.205758548265 610.019990192262 A12.66 12.66 0 0 1 385.566846711736 606.629133042906 L385.565163678938 606.632394286424 A22.93 22.93 0 0 1 379.261704391606 591.119571983718 L379.26 591.12 L371.2 591.12 L371.232301236801 591.217474882614 A30.96 30.96 0 0 0 379.906442777942 612.333363569513 L379.908317751939 612.330292320641 A20.69 20.69 0 0 0 394.20576130651 618.049993996645 Z" style="fill:rgb(0,0,0);" />
<path d=" M209.21 525 L257.34 525 L257.34 638.75 L319.22 638.75 L319.220106290551 638.750000000081 A70 70 0 0 1 389.219999999994 708.749971900199 L389.22 717.5 A70 70 0 0 1 319.220039095375 787.499999999989 L209.21 787.5 L209.21 525 Z M257.34 684.68 L314.84 684.68 A26.25 26.25 0 0 1 341.089999999998 710.929989462575 L341.09 719.68 A26.25 26.25 0 0 1 314.840014660766 745.929999999996 L257.34 745.93 L257.34 684.68 Z" style="fill:rgb(0,0,0);" />
</g>
</svg>
