<?xml version="1.0" encoding="UTF-8"?><!DOCTYPE svg PUBLIC '-//W3C//DTD SVG 1.0//EN' 'http://www.w3.org/TR/2001/REC-SVG-20010904/DTD/svg10.dtd'><svg xmlns:xlink="http://www.w3.org/1999/xlink" xmlns="http://www.w3.org/2000/svg"><!--Gegenereerd door de SIMaD (http://www.dlw.be).-->
<g style="stroke:none;fill-rule:evenodd;" transform="matrix(1,0,0,-1,0,600)">
<path d=" M35 0 L865 0 A35 35 0 0 1 900 35 L900 565 A35 35 0 0 1 865 600 L35 600 A35 35 0 0 1 0 565 L0 35 A35 35 0 0 1 35 0 Z" style="fill:rgb(0,0,255);" />
<path d=" M50 15 L850 15 A35 35 0 0 1 885 50 L885 550 A35 35 0 0 1 850 585 L50 585 A35 35 0 0 1 15 550 L15 50 A35 35 0 0 1 50 15 Z" style="fill:rgb(255,255,255);" />
<path d=" M50 30 L850 30 A20 20 0 0 1 870 50 L870 550 A20 20 0 0 1 850 570 L50 570 A20 20 0 0 1 30 550 L30 50 A20 20 0 0 1 50 30 Z" style="fill:rgb(0,0,255);" />
<path d=" M332.7 409.59 A28.55 28.55 0 0 1 275.6 409.59 A28.55 28.55 0 0 1 332.7 409.59 Z" style="fill:rgb(255,255,255);" />
<path d=" M494.93 197.91 A45.29 45.29 0 0 1 404.35 197.91 A45.29 45.29 0 0 1 494.93 197.91 Z" style="fill:rgb(255,255,255);" />
<path d=" M229.27 264.68 L188.549463382278 307.713280720092 A399.43 399.43 0 0 0 251.532532225022 338.645643567826 L251.529974395894 338.645904354151 A75.77 75.77 0 0 1 326.140156425039 306.895194947158 L326.142672190488 306.894920834635 A15.64 15.64 0 0 1 319.924441723937 337.529799800958 L319.922356945354 337.523455089712 A42.32 42.32 0 0 0 283.795034136299 354.085929618776 L283.8 354.09 L242.46 418.99 L99.33 331.92 L99.9861253649303 169.409778133193 A26.5 26.5 0 0 1 151.54536313292 171.506957460661 L151.54 171.5 L151.54 276.53 L183.09 247.98 L183.091737870519 171.122441637223 A23.52 23.52 0 0 1 229.267503666791 171.427399831984 L229.27 171.43 Z" style="fill:rgb(255,255,255);" />
<path d=" M800.67 322.99 L748.99 322.99 L748.99 394.64 L800.67 394.64 L800.67 414.85 L636.8 414.85 L553.77 322.99 L395.093226851003 448.286989101683 A7.96 7.96 0 0 1 385.056902931611 435.930990234858 L385.06 435.93 L520.27 322.99 L374.906399815222 310.891472204988 A34.41 34.41 0 0 1 345.627077061319 264.290517337566 L345.63 264.29 L363.689249424987 217.144329433612 A9.66 9.66 0 0 1 380.572434436033 214.987716619853 L380.571349957102 214.98599978236 A77.16 77.16 0 0 0 521.589686513629 204.597774600576 L521.59 204.6 L800.67 204.6 Z M585.36 322.99 L728.69 322.99 L728.69 394.64 L642.73 394.64 Z" style="fill:rgb(255,255,255);" />
</g>
</svg>
