<?xml version="1.0" encoding="UTF-8"?><!DOCTYPE svg PUBLIC '-//W3C//DTD SVG 1.0//EN' 'http://www.w3.org/TR/2001/REC-SVG-20010904/DTD/svg10.dtd'><svg xmlns:xlink="http://www.w3.org/1999/xlink" xmlns="http://www.w3.org/2000/svg"><!--Gegenereerd door de SIMaD (http://www.dlw.be).-->
<g style="stroke:none;fill-rule:evenodd;" transform="matrix(1,0,0,-1,0,600)">
<path d=" M65 0 L835 0 A65 65 0 0 1 900 65 L900 535 A65 65 0 0 1 835 600 L65 600 A65 65 0 0 1 0 535 L0 65 A65 65 0 0 1 65 0 Z" style="fill:rgb(255,255,255);stroke:rgb(0,0,0);" />
<path d=" M291.21 553 L270 553 L270 531.79 L428.79 373 L270 214.21 L270 193 L291.21 193 L450 351.79 L608.79 193 L630 193 L630 214.21 L471.21 373 L630 531.79 L630 553 L608.79 553 L450 394.21 L291.21 553 Z" style="fill:rgb(255,255,0);" />
<path d=" M270 531.79 L270 497.85 L394.85 373 L270 248.15 L270 214.21 L428.79 373 L270 531.79 Z" style="fill:rgb(178,178,178);" />
<path d=" M325.15 553 L291.21 553 L450 394.21 L608.79 553 L574.85 553 L450 428.15 L325.15 553 Z" style="fill:rgb(178,178,178);" />
<path d=" M608.79 193 L574.85 193 L450 317.85 L325.15 193 L291.21 193 L450 351.79 L608.79 193 Z" style="fill:rgb(178,178,178);" />
<path d=" M630 248.15 L630 214.21 L471.21 373 L630 531.79 L630 497.85 L505.15 373 L630 248.15 Z" style="fill:rgb(178,178,178);" />
<path d=" M359.1 553 L325.15 553 L450 428.15 L574.85 553 L540.9 553 L450 462.1 L359.1 553 Z" style="fill:rgb(255,255,0);" />
<path d=" M270 497.85 L270 463.9 L360.9 373 L270 282.1 L270 248.15 L394.85 373 L270 497.85 Z" style="fill:rgb(255,255,0);" />
<path d=" M325.15 193 L450 317.85 L574.85 193 L540.9 193 L450 283.9 L359.1 193 L325.15 193 Z" style="fill:rgb(255,255,0);" />
<path d=" M630 463.9 L630 497.85 L505.15 373 L630 248.15 L630 282.1 L539.1 373 L630 463.9 Z" style="fill:rgb(255,255,0);" />
<path d=" M45.11 40 L854.9 40 L854.9 146 L45.11 146 Z" style="fill:rgb(0,0,0);" />
<path d=" M53.11 48 L846.9 48 L846.9 138 L53.11 138 Z" style="fill:rgb(255,255,255);" />
<path d=" M73.11 82.29 L73.110000000001 80.1400051623349 A12.86 12.86 0 1 1 95.0633941583169 89.233392253801 L95.06 89.23 L82.4344669579613 103.034465230173 A5 5 0 1 0 90.97 106.569999738201 L98.11 106.569999364351 A12.14 12.14 0 1 1 77.38572577393 97.9857215788612 L77.38 97.99 L90.0075801433895 84.1775792977608 A5.71 5.71 0 1 0 80.2600000000005 80.1400022921409 L80.25 80.14 L80.25 82.29 Z" style="fill:rgb(0,0,0);" />
<path d=" M103.32 68 L110.64 68 L111.9 73.71 L124.74 73.71 L126 68 L133.32 68 L122.25 118 L114.39 118 Z M113.32 80.14 L123.32 80.14 L118.32 102.7 Z" style="fill:rgb(0,0,0);" />
<path d=" M140.32 68 L140.32 118 L148.89 118 L157.46 83.32 L166.03 118 L174.61 118 L174.61 68 L167.46 68 L167.46 96.9 L160.32 68 L153.89 68 L146.75 96.9 L146.75 68 Z" style="fill:rgb(0,0,0);" />
<path d=" M184.61 68 L184.61 118 L208.18 118 L208.18 111.57 L191.75 111.57 L191.75 96.21 L202.47 96.21 L202.47 89.79 L191.75 89.79 L191.75 74.43 L208.18 74.43 L208.18 68 Z" style="fill:rgb(0,0,0);" />
<path d=" M215.68 68 L215.68 118 L223.18 118 L234.97 85.84 L234.97 118 L241.39 118 L241.39 68 L233.89 68 L222.11 100.16 L222.11 68 Z" style="fill:rgb(0,0,0);" />
<path d=" M267.39 118 L278.1 68 L286.68 68 L297.39 118 L290.08 118 L282.39 83 L274.7 118 Z" style="fill:rgb(0,0,0);" />
<path d=" M301.89 80.14 L301.89 105.859997531057 A12.86 12.86 0 0 0 327.61 105.860002468943 L327.6 105.86 L327.61 80.14 A12.86 12.86 0 0 0 301.89 80.14 Z M309.03 79.43 L309.04 106.569998903759 A5.71 5.71 0 0 0 320.46 106.570001096241 L320.46 79.43 A5.71 5.71 0 0 0 309.04 79.43 Z" style="fill:rgb(0,0,0);" />
<path d=" M335.61 80.14 L335.61 105.859997531057 A12.86 12.86 0 0 0 361.33 105.860002468943 L361.32 105.86 L361.33 80.14 A12.86 12.86 0 0 0 335.61 80.14 Z M342.75 79.43 L342.76 106.569998903759 A5.71 5.71 0 0 0 354.18 106.570001096241 L354.18 79.43 A5.71 5.71 0 0 0 342.76 79.43 Z" style="fill:rgb(0,0,0);" />
<path d=" M370.32 68 L370.32 118 L384.610012767433 117.999999999993 A11.43 11.43 0 0 0 396.039999999996 106.570009176592 L396.03 106.57 L396.039999999997 101.570007979645 A11.43 11.43 0 0 0 386.759336212862 90.3439030004155 L386.75 90.35 L397.03 68 L389.17 68 L378.99 90.14 L377.46 90.14 L377.46 68 Z M377.46 111.57 L383.890005585054 111.569999999997 A5 5 0 0 0 388.889999999998 106.570004014257 L388.889999999998 101.569995985743 A5 5 0 0 0 383.890005585054 96.5700000000031 L377.46 96.57 Z" style="fill:rgb(0,0,0);" />
<path d=" M423.04 118 L433.75 68 L442.33 68 L453.04 118 L445.73 118 L438.04 83 L430.35 118 Z" style="fill:rgb(0,0,0);" />
<path d=" M459.54 68 L459.54 118 L483.11 118 L483.11 111.57 L466.68 111.57 L466.68 96.21 L477.4 96.21 L477.4 89.79 L466.68 89.79 L466.68 74.43 L483.11 74.43 L483.11 68 Z" style="fill:rgb(0,0,0);" />
<path d=" M490.61 68 L497.75 68 L497.75 118 L490.61 118 Z" style="fill:rgb(0,0,0);" />
<path d=" M507.75 68 L507.75 118 L514.89 118 L514.89 74.43 L529.18 74.43 L529.18 68 Z" style="fill:rgb(0,0,0);" />
<path d=" M535.68 68 L542.82 68 L542.82 118 L535.68 118 Z" style="fill:rgb(0,0,0);" />
<path d=" M570.39 90.14 L570.39 79.4299989037587 A5.71 5.71 0 1 0 558.97 79.4300010962413 L558.96 79.43 L558.97 106.569998903759 A5.71 5.71 0 0 0 570.39 106.570001096241 L570.39 105.86 L577.54 105.860002020044 A12.86 12.86 0 0 1 551.82 105.859997979956 L551.82 80.1400020200441 A12.86 12.86 0 0 1 577.54 80.1399979799559 L577.53 80.14 L577.53 96.57 L564.68 96.57 L564.68 90.14 Z" style="fill:rgb(0,0,0);" />
<path d=" M603.54 118 L614.25 68 L622.83 68 L633.54 118 L626.23 118 L618.54 83 L610.85 118 Z" style="fill:rgb(0,0,0);" />
<path d=" M640.04 68 L640.04 118 L663.61 118 L663.61 111.57 L647.18 111.57 L647.18 96.21 L657.9 96.21 L657.9 89.79 L647.18 89.79 L647.18 74.43 L663.61 74.43 L663.61 68 Z" style="fill:rgb(0,0,0);" />
<path d=" M671.11 68 L671.11 118 L685.400012767432 117.999999999993 A11.43 11.43 0 0 0 696.829999999996 106.570009176592 L696.82 106.57 L696.829999999997 101.570007979645 A11.43 11.43 0 0 0 687.549336212862 90.3439030004155 L687.54 90.35 L697.82 68 L689.96 68 L679.78 90.14 L678.25 90.14 L678.25 68 Z M678.25 111.57 L684.680005585054 111.569999999997 A5 5 0 0 0 689.679999999998 106.570004014257 L689.679999999998 101.569995985743 A5 5 0 0 0 684.680005585054 96.5700000000031 L678.25 96.57 Z" style="fill:rgb(0,0,0);" />
<path d=" M704.82 68 L704.82 118 L711.96 118 L711.96 100.09 L722.29 118 L730.53 118 L716.63 93.84 L731.53 68 L723.29 68 L711.96 87.64 L711.96 68 Z" style="fill:rgb(0,0,0);" />
<path d=" M738.04 68 L738.04 118 L761.61 118 L761.61 111.57 L745.18 111.57 L745.18 96.21 L755.9 96.21 L755.9 89.79 L745.18 89.79 L745.18 74.43 L761.61 74.43 L761.61 68 Z" style="fill:rgb(0,0,0);" />
<path d=" M769.11 68 L769.11 118 L792.68 118 L792.68 111.57 L776.25 111.57 L776.25 96.21 L786.97 96.21 L786.97 89.79 L776.25 89.79 L776.25 74.43 L792.68 74.43 L792.68 68 Z" style="fill:rgb(0,0,0);" />
<path d=" M800.18 68 L800.18 118 L814.470012767432 117.999999999993 A11.43 11.43 0 0 0 825.899999999996 106.570009176592 L825.89 106.57 L825.899999999997 101.570007979645 A11.43 11.43 0 0 0 816.619336212862 90.3439030004155 L816.61 90.35 L826.89 68 L819.03 68 L808.85 90.14 L807.32 90.14 L807.32 68 Z M807.32 111.57 L813.750005585054 111.569999999997 A5 5 0 0 0 818.749999999998 106.570004014257 L818.749999999998 101.569995985743 A5 5 0 0 0 813.750005585054 96.5700000000031 L807.32 96.57 Z" style="fill:rgb(0,0,0);" />
<path d=" M54 513.07 L54 515.5 L66.83 515.5 L66.8400000000001 513.069998924877 A5.6 5.6 0 0 1 70.7378689704784 507.734950800757 L70.7355606443144 507.730768110286 A23.9 23.9 0 0 1 85.2644393556856 507.730768110286 L85.2621351265448 507.734952107902 A5.6 5.6 0 0 1 85.9266654546673 518.145322120386 L85.93 518.14 L65.953045342348 532.59430027926 A17.55 17.55 0 0 0 68.9993469951138 565.497055401183 L68.9996342962655 565.501328791905 A36.14 36.14 0 0 0 87.0003821977212 565.501324550579 L87.0006811870653 565.497048154342 A17.55 17.55 0 0 0 100.179999999999 548.50000520719 L87.3499999999996 548.499998022891 A4.72 4.72 0 0 1 83.8054799208839 553.07128504423 L83.8051710168585 553.075563989966 A23.31 23.31 0 0 1 72.1948380455542 553.075566320309 L72.1945302116838 553.07128764975 A4.72 4.72 0 0 1 71.3752413566166 544.222227454078 L71.38 544.22 L91.3530950390574 529.782308928219 A18.44 18.44 0 0 0 89.1648838236001 495.502448169311 L89.1671684821349 495.49825792776 A36.74 36.74 0 0 0 66.8328168563706 495.498262605456 L66.8351195491279 495.502447093251 A18.44 18.44 0 0 0 54.0000000000003 513.070003218387 Z" style="fill:rgb(0,0,0);" />
<path d=" M50 390.5 L63.37 390.5 L66.3 400.5 L89.7 400.5 L92.63 390.5 L106 390.5 L85.5 460.5 L70.5 460.5 Z M69.72 412.17 L86.28 412.17 L78 440.45 Z" style="fill:rgb(0,0,0);" />
<path d=" M70.5 285.5 L85.5 285.5 L106 355.5 L92.63 355.5 L78 305.55 L63.37 355.5 L50 355.5 Z" style="fill:rgb(0,0,0);" />
<path d=" M56.5 180.5 L99.5 180.5 L99.5 192.17 L69.33 192.17 L69.33 210.83 L89.5 210.83 L89.5 222.5 L69.33 222.5 L69.33 238.83 L99.5 238.83 L99.5 250.5 L56.5 250.5 Z" style="fill:rgb(0,0,0);" />
<path d=" M798 513.07 L798 515.5 L810.83 515.5 L810.84 513.069998924877 A5.6 5.6 0 0 1 814.737868970478 507.734950800757 L814.735560644314 507.730768110286 A23.9 23.9 0 0 1 829.264439355686 507.730768110286 L829.262135126545 507.734952107902 A5.6 5.6 0 0 1 829.926665454667 518.145322120386 L829.93 518.14 L809.953045342348 532.59430027926 A17.55 17.55 0 0 0 812.999346995114 565.497055401183 L812.999634296265 565.501328791905 A36.14 36.14 0 0 0 831.000382197721 565.501324550579 L831.000681187065 565.497048154342 A17.55 17.55 0 0 0 844.179999999999 548.50000520719 L831.35 548.499998022891 A4.72 4.72 0 0 1 827.805479920884 553.07128504423 L827.805171016858 553.075563989966 A23.31 23.31 0 0 1 816.194838045554 553.075566320309 L816.194530211684 553.07128764975 A4.72 4.72 0 0 1 815.375241356617 544.222227454078 L815.38 544.22 L835.353095039057 529.782308928219 A18.44 18.44 0 0 0 833.1648838236 495.502448169311 L833.167168482135 495.49825792776 A36.74 36.74 0 0 0 810.832816856371 495.498262605456 L810.835119549128 495.502447093251 A18.44 18.44 0 0 0 798 513.070003218387 Z" style="fill:rgb(0,0,0);" />
<path d=" M794 390.5 L807.37 390.5 L810.3 400.5 L833.7 400.5 L836.63 390.5 L850 390.5 L829.5 460.5 L814.5 460.5 Z M813.72 412.17 L830.28 412.17 L822 440.45 Z" style="fill:rgb(0,0,0);" />
<path d=" M814.5 285.5 L829.5 285.5 L850 355.5 L836.63 355.5 L822 305.55 L807.37 355.5 L794 355.5 Z" style="fill:rgb(0,0,0);" />
<path d=" M800.5 180.5 L843.5 180.5 L843.5 192.17 L813.33 192.17 L813.33 210.83 L833.5 210.83 L833.5 222.5 L813.33 222.5 L813.33 238.83 L843.5 238.83 L843.5 250.5 L800.5 250.5 Z" style="fill:rgb(0,0,0);" />
</g>
</svg>
