<?xml version="1.0" encoding="UTF-8"?><!DOCTYPE svg PUBLIC '-//W3C//DTD SVG 1.0//EN' 'http://www.w3.org/TR/2001/REC-SVG-20010904/DTD/svg10.dtd'><svg xmlns:xlink="http://www.w3.org/1999/xlink" xmlns="http://www.w3.org/2000/svg"><!--Gegenereerd door de SIMaD (http://www.dlw.be).-->
<g style="stroke:none;fill-rule:evenodd;" transform="matrix(1,0,0,-1,0,2000)">
<path d=" M65 0 L2935 0 A65 65 0 0 1 3000 65 L3000 1935 A65 65 0 0 1 2935 2000 L65 2000 A65 65 0 0 1 0 1935 L0 65 A65 65 0 0 1 65 0 Z" style="fill:rgb(255,255,255);stroke:rgb(0,0,0);" />
<path d=" M195 45 L2805 45 A150 150 0 0 1 2955 195 L2955 1805 A150 150 0 0 1 2805 1955 L195 1955 A150 150 0 0 1 45 1805 L45 195 A150 150 0 0 1 195 45 Z" style="fill:rgb(0,0,0);" />
<path d=" M195 90 L2805 90 A105 105 0 0 1 2910 195 L2910 1805 A105 105 0 0 1 2805 1910 L195 1910 A105 105 0 0 1 90 1805 L90 195 A105 105 0 0 1 195 90 Z" style="fill:rgb(255,255,255);" />
<path d=" M1381.36050981444 741.649094915597 A372.42 372.42 0 0 1 1381.36050981444 1268.3309050844 L1381.35565178764 1268.33565060904 A47.75 47.75 0 0 0 1448.88434821236 1335.86434939096 L1448.88208567551 1335.8525822943 A467.91 467.91 0 0 0 1448.88208567551 674.1274177057 L1448.88434821236 674.125650609043 A47.75 47.75 0 1 0 1381.35565178764 741.654349390957 Z" style="fill:rgb(0,0,0);" />
<path d=" M1394.95 1004.99 A276.93 276.93 0 0 1 841.09 1004.99 A276.93 276.93 0 0 1 1394.95 1004.99 Z" style="fill:rgb(0,0,0);" />
<path d=" M1786.50410710588 336.504889509981 A945.38 945.38 0 0 1 1786.50410710588 1673.47511049002 L1786.49565237694 1673.47565001974 A47.75 47.75 0 0 0 1854.02434762306 1741.00434998026 L1854.02568296695 1740.99678769992 A1040.87 1040.87 0 0 0 1854.02568296695 268.983212300084 L1854.02434880166 268.985651198342 A47.75 47.75 0 0 0 1786.49565119834 336.514348801658 Z" style="fill:rgb(0,0,0);" />
<path d=" M1651.45388432123 471.555315002892 A754.39 754.39 0 0 1 1651.45388432123 1538.42468499711 L1651.45565178764 1538.42565060904 A47.75 47.75 0 0 0 1718.98434821236 1605.95434939096 L1718.9754601823 1605.946362207 A849.88 849.88 0 0 0 1718.9754601823 404.033637792996 L1718.98434880166 404.025651198342 A47.75 47.75 0 0 0 1651.45565119834 471.554348801658 Z" style="fill:rgb(0,0,0);" />
<path d=" M1516.41073259909 606.598669422685 A563.41 563.41 0 0 1 1516.41073259909 1403.38133057731 L1516.40565119834 1403.37565119834 A47.75 47.75 0 0 0 1583.93434880166 1470.90434880166 L1583.93230846016 1470.90300778721 A658.9 658.9 0 0 0 1583.93230846016 539.076992212789 L1583.93434821236 539.075650609043 A47.75 47.75 0 1 0 1516.40565178764 606.604349390957 Z" style="fill:rgb(0,0,0);" />
</g>
</svg>
