<?xml version="1.0" encoding="UTF-8"?><!DOCTYPE svg PUBLIC '-//W3C//DTD SVG 1.0//EN' 'http://www.w3.org/TR/2001/REC-SVG-20010904/DTD/svg10.dtd'><svg xmlns:xlink="http://www.w3.org/1999/xlink" xmlns="http://www.w3.org/2000/svg"><!--Gegenereerd door de SIMaD (http://www.dlw.be).-->
<g style="stroke:none;fill-rule:evenodd;" transform="matrix(1,0,0,-1,0,2000)">
<path d=" M65 0 L2935 0 A65 65 0 0 1 3000 65 L3000 1935 A65 65 0 0 1 2935 2000 L65 2000 A65 65 0 0 1 0 1935 L0 65 A65 65 0 0 1 65 0 Z" style="fill:rgb(255,255,255);stroke:rgb(0,0,0);" />
<path d=" M195 45 L2805 45 A150 150 0 0 1 2955 195 L2955 1805 A150 150 0 0 1 2805 1955 L195 1955 A150 150 0 0 1 45 1805 L45 195 A150 150 0 0 1 195 45 Z" style="fill:rgb(0,0,0);" />
<path d=" M195 90 L2805 90 A105 105 0 0 1 2910 195 L2910 1805 A105 105 0 0 1 2805 1910 L195 1910 A105 105 0 0 1 90 1805 L90 195 A105 105 0 0 1 195 90 Z" style="fill:rgb(255,255,255);" />
<path d=" M650.64 341.86 L650.64 346.86 L705.649999999998 346.859980252298 A102.86 102.86 0 1 0 499.930000000002 346.860019747702 L499.93 453.140007180983 A102.86 102.86 0 0 0 705.044629700362 464.283173014986 L705.04 464.29 L650.254097063774 464.283214949896 A47.86 47.86 0 0 1 554.930000000001 458.139989976225 L554.930000000001 341.860008353146 A47.86 47.86 0 0 1 650.649999999999 341.859991646854 Z" style="fill:rgb(0,0,0);" />
<path d=" M765.64 453.14 L765.640000000001 346.860016157211 A102.86 102.86 0 0 1 971.359999999999 346.859983842789 L971.35 346.86 L971.36 453.14 A102.86 102.86 0 0 1 765.64 453.14 Z M820.64 458.14 L820.640000000001 341.860008353146 A47.86 47.86 0 0 1 916.359999999999 341.859991646854 L916.35 341.86 L916.36 458.14 A47.86 47.86 0 0 1 820.64 458.14 Z" style="fill:rgb(0,0,0);" />
<path d=" M1037.36 250 L1087.36 250 L1087.36 449.25 L1178.79 250 L1243.07 250 L1243.07 550 L1193.07 550 L1193.07 350.75 L1101.65 550 L1037.36 550 Z" style="fill:rgb(0,0,0);" />
<path d=" M1372.43 250 L1427.43 250 L1427.43 500 L1502.78 500 L1502.78 550 L1297.07 550 L1297.07 500 L1372.43 500 Z" style="fill:rgb(0,0,0);" />
<path d=" M1556.79 250 L1611.79 250 L1611.79 380 L1640.76 380 L1716.08 250 L1779.65 250 L1702.8031219383 382.619232107981 A80 80 0 0 1 1762.49999999997 460.000064228116 L1762.49999999997 470.000064228116 A80 80 0 0 1 1682.50008936086 549.99999999995 L1556.79 550 Z M1611.79 430 L1677.50003351032 430.000000000019 A30 30 0 0 1 1707.49999999999 459.999975914456 L1707.49999999999 470.000024085544 A30 30 0 0 1 1677.50003351032 499.999999999981 L1611.79 500 Z" style="fill:rgb(0,0,0);" />
<path d=" M1821.64 453.14 L1821.64 346.860016157211 A102.86 102.86 0 0 1 2027.36 346.859983842789 L2027.35 346.86 L2027.36 453.14 A102.86 102.86 0 0 1 1821.64 453.14 Z M1876.64 458.14 L1876.64 341.860008353146 A47.86 47.86 0 0 1 1972.36 341.859991646854 L1972.35 341.86 L1972.36 458.14 A47.86 47.86 0 0 1 1876.64 458.14 Z" style="fill:rgb(0,0,0);" />
<path d=" M2093.36 250 L2264.79 250 L2264.79 300 L2148.36 300 L2148.36 550 L2093.36 550 Z" style="fill:rgb(0,0,0);" />
<path d=" M2315.79 250 L2500.08 250 L2500.08 300 L2370.79 300 L2370.79 380 L2457.22 380 L2457.22 430 L2370.79 430 L2370.79 500 L2500.08 500 L2500.08 550 L2315.79 550 Z" style="fill:rgb(0,0,0);" />
<path d=" M1158.98535850696 893.444496564966 A136.55 136.55 0 0 1 1158.98535850696 1086.55550343503 L1158.98856026142 1086.54856026142 A17.51 17.51 0 0 0 1183.75143973858 1111.31143973858 L1183.74821939977 1111.31840149651 A171.57 171.57 0 0 0 1183.74821939977 868.681598503488 L1183.75143952248 868.678560045327 A17.51 17.51 0 1 0 1158.98856047752 893.441439954673 Z" style="fill:rgb(0,0,0);" />
<path d=" M1163.97 990 A101.54 101.54 0 0 1 960.89 990 A101.54 101.54 0 0 1 1163.97 990 Z" style="fill:rgb(0,0,0);" />
<path d=" M1307.54131067632 744.888321415452 A346.64 346.64 0 0 1 1307.54131067632 1235.11167858455 L1307.53856069362 1235.10855982923 A17.51 17.51 0 0 0 1332.30143930638 1259.87144017077 L1332.29710050663 1259.86750557291 A381.65 381.65 0 0 0 1332.29710050663 720.132494427092 L1332.30143952248 720.128560045327 A17.51 17.51 0 1 0 1307.53856047752 744.891439954673 Z" style="fill:rgb(0,0,0);" />
<path d=" M1258.0226599532 794.40704646529 A276.61 276.61 0 0 1 1258.0226599532 1185.59295353471 L1258.01856047752 1185.58856004533 A17.51 17.51 0 0 0 1282.78143952248 1210.35143995467 L1282.77844978351 1210.34878052307 A311.62 311.62 0 0 0 1282.77844978351 769.65121947693 L1282.78143973858 769.638560261423 A17.51 17.51 0 0 0 1258.01856026142 794.401439738576 Z" style="fill:rgb(0,0,0);" />
<path d=" M1208.50400923008 843.925771515128 A206.58 206.58 0 0 1 1208.50400923008 1136.07422848487 L1208.50856026142 1136.06856026142 A17.51 17.51 0 0 0 1233.27143973858 1160.83143973858 L1233.26687012289 1160.83712654635 A241.6 241.6 0 0 0 1233.26687012289 819.16287345365 L1233.27143952248 819.158560045327 A17.51 17.51 0 1 0 1208.50856047752 843.921439954673 Z" style="fill:rgb(0,0,0);" />
<path d=" M1589.16272173802 1294.77717285878 A99.31 99.31 0 0 1 1589.16272173802 1435.22282714122 L1589.1685308326 1435.22853051839 A12.73 12.73 0 0 0 1607.1714691674 1453.23146948161 L1607.17271793847 1453.23285037439 A124.78 124.78 0 0 0 1607.17271793847 1276.76714962561 L1607.1714693245 1276.7685306755 A12.73 12.73 0 0 0 1589.1685306755 1294.7714693245 Z" style="fill:rgb(0,0,0);" />
<path d=" M1592.79 1365 A73.85 73.85 0 0 1 1445.09 1365 A73.85 73.85 0 0 1 1592.79 1365 Z" style="fill:rgb(0,0,0);" />
<path d=" M1697.20148575323 1186.73824667908 A252.1 252.1 0 0 1 1697.20148575323 1543.26175332092 L1697.19853098971 1543.25853036128 A12.73 12.73 0 0 0 1715.20146901029 1561.26146963872 L1715.21148195369 1561.2717765541 A277.57 277.57 0 0 0 1715.21148195369 1168.7282234459 L1715.2014691674 1168.72853051839 A12.73 12.73 0 1 0 1697.1985308326 1186.73146948161 Z" style="fill:rgb(0,0,0);" />
<path d=" M1661.18856441483 1222.75122207231 A201.17 201.17 0 0 1 1661.18856441483 1507.24877792769 L1661.1885308326 1507.24853051839 A12.73 12.73 0 0 0 1679.1914691674 1525.25146948161 L1679.19856061528 1525.25880116086 A226.64 226.64 0 0 0 1679.19856061528 1204.74119883914 L1679.1914691674 1204.73853051839 A12.73 12.73 0 1 0 1661.1885308326 1222.74146948161 Z" style="fill:rgb(0,0,0);" />
<path d=" M1625.17564307642 1258.76419746555 A150.24 150.24 0 0 1 1625.17564307642 1471.23580253445 L1625.1785308326 1471.23853051839 A12.73 12.73 0 0 0 1643.1814691674 1489.24146948161 L1643.18563927688 1489.24582576763 A175.71 175.71 0 0 0 1643.18563927688 1240.75417423237 L1643.1814693245 1240.7585306755 A12.73 12.73 0 0 0 1625.1785306755 1258.7614693245 Z" style="fill:rgb(0,0,0);" />
<path d=" M1896.56121478473 1564.21871274592 A68.28 68.28 0 0 1 1896.56121478473 1660.78128725408 L1896.56281566462 1660.78281566462 A8.75 8.75 0 0 0 1908.93718433538 1673.15718433538 L1908.93557416863 1673.1556652117 A85.78 85.78 0 0 0 1908.93557416863 1551.8443347883 L1908.9371842274 1551.84281555663 A8.75 8.75 0 1 0 1896.5628157726 1564.21718444337 Z" style="fill:rgb(0,0,0);" />
<path d=" M1899.05 1612.5 A50.77 50.77 0 0 1 1797.51 1612.5 A50.77 50.77 0 0 1 1899.05 1612.5 Z" style="fill:rgb(0,0,0);" />
<path d=" M1970.83565533816 1489.94416070773 A173.32 173.32 0 0 1 1970.83565533816 1735.05583929227 L1970.84281588059 1735.05281544864 A8.75 8.75 0 0 0 1983.21718411941 1747.42718455136 L1983.21708578457 1747.43728832301 A190.83 190.83 0 0 0 1983.21708578457 1477.56271167699 L1983.2171842274 1477.56281555663 A8.75 8.75 0 1 0 1970.8428157726 1489.93718444337 Z" style="fill:rgb(0,0,0);" />
<path d=" M1946.07986550785 1514.69998769609 A138.31 138.31 0 0 1 1946.07986550785 1710.30001230391 L1946.0828157726 1710.29281555663 A8.75 8.75 0 0 0 1958.4571842274 1722.66718444337 L1958.45422489175 1722.67439026154 A155.81 155.81 0 0 0 1958.45422489175 1502.32560973846 L1958.45718433538 1502.32281566462 A8.75 8.75 0 0 0 1946.08281566462 1514.69718433538 Z" style="fill:rgb(0,0,0);" />
<path d=" M1921.31700461504 1539.46288575756 A103.29 103.29 0 0 1 1921.31700461504 1685.53711424244 L1921.32281566462 1685.54281566462 A8.75 8.75 0 0 0 1933.69718433538 1697.91718433538 L1933.69843506145 1697.91856327318 A120.8 120.8 0 0 0 1933.69843506145 1527.08143672682 L1933.6971842274 1527.08281555663 A8.75 8.75 0 1 0 1921.3228157726 1539.45718444337 Z" style="fill:rgb(0,0,0);" />
</g>
</svg>
