<?xml version="1.0" encoding="UTF-8"?>
<!DOCTYPE svg PUBLIC '-//W3C//DTD SVG 1.0//EN' 'http://www.w3.org/TR/2001/REC-SVG-20010904/DTD/svg10.dtd'>
<svg xmlns:xlink="http://www.w3.org/1999/xlink" xmlns="http://www.w3.org/2000/svg" width="1700" height="1100">
<!--Gegenereerd door de SIMaD-toepassing (http://www.dlw.be).-->
<g style="stroke:none;fill-rule:evenodd;" transform="matrix(1,0,0,-1,0,1100)">
<path d=" M65 0 L1635 0 A65 65 0 0 1 1700 65 L1700 1035 A65 65 0 0 1 1635 1100 L65 1100 A65 65 0 0 1 0 1035 L0 65 A65 65 0 0 1 65 0 Z" style="fill:rgb(255,255,255);stroke:rgb(0,0,0);" />
<path d=" M65 15 L1635 15 A50 50 0 0 1 1685 65 L1685 1035 A50 50 0 0 1 1635 1085 L65 1085 A50 50 0 0 1 15 1035 L15 65 A50 50 0 0 1 65 15 Z" style="fill:rgb(0,0,0);" />
<path d=" M65 30 L1635 30 A35 35 0 0 1 1670 65 L1670 1035 A35 35 0 0 1 1635 1070 L65 1070 A35 35 0 0 1 30 1035 L30 65 A35 35 0 0 1 65 30 Z" style="fill:rgb(255,255,255);" />
<path d=" M534.62 550 A92.31 92.31 0 0 1 350 550 A92.31 92.31 0 0 1 534.62 550 Z" style="fill:rgb(0,0,0);" />
<path d=" M530.090229688281 462.219758055286 A124.14 124.14 0 0 1 530.090229688281 637.780241944714 L530.082860239984 637.772859847036 A15.92 15.92 0 0 0 552.597139760016 660.287140152964 L552.597436962149 660.287452361182 A155.97 155.97 0 0 0 552.597436962149 439.712547638818 L552.59713995649 439.70286004351 A15.92 15.92 0 0 0 530.08286004351 462.21713995649 Z" style="fill:rgb(0,0,0);" />
<path d=" M575.104644236018 417.205337222351 A187.8 187.8 0 0 1 575.104644236018 682.794662777649 L575.10286004351 682.79286004351 A15.92 15.92 0 0 0 597.61713995649 705.30713995649 L597.611851509886 705.301873194116 A219.63 219.63 0 0 0 597.611851509886 394.698126805884 L597.61713995649 394.69286004351 A15.92 15.92 0 0 0 575.10286004351 417.20713995649 Z" style="fill:rgb(0,0,0);" />
<path d=" M620.119058783754 372.190916389416 A251.46 251.46 0 0 1 620.119058783754 727.809083610584 L620.12286004351 727.80286004351 A15.92 15.92 0 0 0 642.63713995649 750.31713995649 L642.63333712494 750.323365095357 A283.3 283.3 0 0 0 642.63333712494 349.676634904643 L642.63713995649 349.67286004351 A15.92 15.92 0 0 0 620.12286004351 372.18713995649 Z" style="fill:rgb(0,0,0);" />
<path d=" M665.140544398808 327.169424488176 A315.13 315.13 0 0 1 665.140544398808 772.830575511824 L665.132860239984 772.822859847036 A15.92 15.92 0 0 0 687.647139760016 795.337140152964 L687.647751672677 795.337785928291 A346.96 346.96 0 0 0 687.647751672677 304.662214071709 L687.64713995649 304.66286004351 A15.92 15.92 0 0 0 665.13286004351 327.17713995649 Z" style="fill:rgb(0,0,0);" />
<path d=" M1162.3 795 A46.15 46.15 0 0 1 1070 795 A46.15 46.15 0 0 1 1162.3 795 Z" style="fill:rgb(0,0,0);" />
<path d=" M1160.04011484414 751.109879027643 A62.07 62.07 0 0 1 1160.04011484414 838.890120972357 L1160.04143011999 838.891429923518 A7.96 7.96 0 0 0 1171.29856988001 850.148570076482 L1171.29725401473 850.147261714744 A77.99 77.99 0 0 0 1171.29725401473 739.852738285256 L1171.29856997825 739.851430021755 A7.96 7.96 0 0 0 1160.04143002176 751.108569978245 Z" style="fill:rgb(0,0,0);" />
<path d=" M1182.54732211801 728.602668611175 A93.9 93.9 0 0 1 1182.54732211801 861.397331388825 L1182.55143002176 861.391430021755 A7.96 7.96 0 0 0 1193.80856997824 872.648569978245 L1193.8044612886 872.654472131211 A109.82 109.82 0 0 0 1193.8044612886 717.345527868789 L1193.80856997824 717.341430021755 A7.96 7.96 0 0 0 1182.55143002176 728.598569978245 Z" style="fill:rgb(0,0,0);" />
<path d=" M1205.05452939188 706.095458194708 A125.73 125.73 0 0 1 1205.05452939188 883.904541805292 L1205.06143002176 883.901430021755 A7.96 7.96 0 0 0 1216.31856997824 895.158569978245 L1216.31166856247 895.161682547678 A141.65 141.65 0 0 0 1216.31166856247 694.838317452322 L1216.31856997824 694.841430021755 A7.96 7.96 0 0 0 1205.06143002176 706.098569978245 Z" style="fill:rgb(0,0,0);" />
<path d=" M1227.56173666575 683.588247778241 A157.56 157.56 0 0 1 1227.56173666575 906.411752221759 L1227.57143011999 906.411429923518 A7.96 7.96 0 0 0 1238.82856988001 917.668570076482 L1238.81887583634 917.668892964146 A173.48 173.48 0 0 0 1238.81887583634 672.331107035854 L1238.82856997824 672.331430021755 A7.96 7.96 0 0 0 1227.57143002176 683.588569978245 Z" style="fill:rgb(0,0,0);" />
<path d=" M257.14 130 L279.14 130 L279.14 230 L309.29 230 L309.29 250 L227 250 L227 230 L257.14 230 Z" style="fill:rgb(0,0,0);" />
<path d=" M324.41 130 L344.41 130 L344.410000000006 178.569984990168 A20 20 0 0 0 364.410014660766 198.569999999995 L374.41 198.57 L374.41 215.71 L364.410016126842 215.709999999995 A28 28 0 0 1 344.410000479779 207.305918431937 L344.41 207.31 L344.41 215.71 L324.41 215.71 Z" style="fill:rgb(0,0,0);" />
<path d=" M417.53 130 L429.579995462144 130.000000000001 A20 20 0 0 1 443.865718828919 136.002920392415 L443.86 136 L443.86 130 L463.86 130 L463.869999999997 183.830014363362 A34.29 34.29 0 0 1 395.850075727975 190.002220718954 L395.85 190 L415.679893401945 190.005288307629 A14.29 14.29 0 0 0 440.939922157933 195.359271512977 L440.929560748244 195.35666991932 A10 10 0 0 0 432.980001570796 179.29 L417.529995699509 179.28 A24.64 24.64 0 0 1 417.530004300491 130 Z M420.39 147.14 L433.860011170107 147.140000000006 A10 10 0 0 1 443.859999999997 157.139991971485 L443.86332072651 169.815489510078 A17.14 17.14 0 0 0 429.580020641311 162.150000000012 L429.58 162.14 L420.389998821903 162.14 A7.5 7.5 0 1 1 420.390001178097 147.14 Z" style="fill:rgb(0,0,0);" />
<path d=" M494.44 215.71 L494.439999999998 117.999995873344 A5.14 5.14 0 0 0 489.300005741435 112.860000000003 L477.3 112.86 L477.3 95.71 L492.160024898169 95.7100000000139 A22.29 22.29 0 0 1 514.449999999993 117.999982104441 L514.44 118 L514.44 215.71 Z" style="fill:rgb(0,0,0);" />
<path d=" M495.87 229.43 L513.01 229.43 L513.01 246.57 L495.87 246.57 Z" style="fill:rgb(0,0,0);" />
<path d=" M548.04 183.14 L548.040000000005 161.889982045798 A34.29 34.29 0 0 1 615.248396264522 152.288787192658 L615.24 152.29 L594.928046356488 152.285125798077 A14.29 14.29 0 0 0 568.040000000004 159.030011472747 L568.04 166 L616.61 166 L616.62 183.14 A34.29 34.29 0 0 1 548.04 183.14 Z M568.04 186.69 L568.04 183.14 L596.61 183.14 L596.62 186.69 A14.29 14.29 0 0 1 568.04 186.69 Z" style="fill:rgb(0,0,0);" />
<path d=" M713.74 159.14 L693.75 159.139997256517 A14.29 14.29 0 1 0 665.17 159.140002743483 L665.17 186.689997256517 A14.29 14.29 0 0 0 693.75 186.690002743483 L693.74 186.69 L713.63073136248 186.687484584943 A34.29 34.29 0 0 1 645.170000000009 183.829975462591 L645.170051721767 161.890399259168 A34.34 34.34 0 0 1 713.735474566866 159.1477704104 Z" style="fill:rgb(0,0,0);" />
<path d=" M742.3 198.57 L752.3 198.57 L752.300000000006 152.290016728457 A22.29 22.29 0 0 1 774.590016339423 130.000000000006 L792.3 130 L792.3 147.14 L777.440003767817 147.150000000001 A5.14 5.14 0 0 0 772.300000000001 152.290003857527 L772.3 198.57 L792.3 198.57 L792.3 215.71 L772.3 215.71 L772.3 250 L752.3 238.45 L752.3 215.71 L742.3 215.71 Z" style="fill:rgb(0,0,0);" />
<path d=" M886.07 159.14 L866.08 159.139997256517 A14.29 14.29 0 1 0 837.5 159.140002743483 L837.5 186.689997256517 A14.29 14.29 0 0 0 866.08 186.690002743483 L866.07 186.69 L885.960731362481 186.687484584943 A34.29 34.29 0 0 1 817.500000000009 183.829975462591 L817.500051721767 161.890399259168 A34.34 34.34 0 0 1 886.065474566866 159.1477704104 Z" style="fill:rgb(0,0,0);" />
<path d=" M914.63 183.83 L914.63 161.890005386261 A34.29 34.29 0 0 1 983.21 161.889994613739 L983.2 161.89 L983.21 183.83 A34.29 34.29 0 0 1 914.63 183.83 Z M934.63 186.69 L934.63 159.030002244668 A14.29 14.29 0 0 1 963.21 159.029997755332 L963.2 159.03 L963.21 186.69 A14.29 14.29 0 0 1 934.63 186.69 Z" style="fill:rgb(0,0,0);" />
<path d=" M1016.81 130 L1036.81 130 L1036.81 186.689997256517 A14.29 14.29 0 0 0 1065.39 186.690002743483 L1065.38 186.69 L1065.38 130 L1085.38 130 L1085.37999999999 189.890017238617 A28.22 28.22 0 0 1 1036.81483297992 209.446139162035 L1036.81 209.45 L1036.81 215.71 L1016.81 215.71 Z" style="fill:rgb(0,0,0);" />
<path d=" M1112.26 198.57 L1122.26 198.57 L1122.26000000001 152.290016728457 A22.29 22.29 0 0 1 1144.55001633942 130.000000000006 L1162.26 130 L1162.26 147.14 L1147.40000376782 147.150000000001 A5.14 5.14 0 0 0 1142.26 152.290003857527 L1142.26 198.57 L1162.26 198.57 L1162.26 215.71 L1142.26 215.71 L1142.26 250 L1122.26 238.45 L1122.26 215.71 L1112.26 215.71 Z" style="fill:rgb(0,0,0);" />
<path d=" M1189.14 130 L1209.14 130 L1209.14000000001 178.569984990168 A20 20 0 0 0 1229.14001466077 198.569999999995 L1239.14 198.57 L1239.14 215.71 L1229.14001612684 215.709999999995 A28 28 0 0 1 1209.14000047978 207.305918431937 L1209.14 207.31 L1209.14 215.71 L1189.14 215.71 Z" style="fill:rgb(0,0,0);" />
<path d=" M1257.62 183.83 L1257.62 161.890005386261 A34.29 34.29 0 0 1 1326.2 161.889994613739 L1326.19 161.89 L1326.2 183.83 A34.29 34.29 0 0 1 1257.62 183.83 Z M1277.62 186.69 L1277.62 159.030002244668 A14.29 14.29 0 0 1 1306.2 159.029997755332 L1306.19 159.03 L1306.2 186.69 A14.29 14.29 0 0 1 1277.62 186.69 Z" style="fill:rgb(0,0,0);" />
<path d=" M1359.79 130 L1379.79 130 L1379.79 250 L1359.79 250 Z" style="fill:rgb(0,0,0);" />
<path d=" M1413.39 183.14 L1413.39 161.889982045798 A34.29 34.29 0 0 1 1480.59839626452 152.288787192658 L1480.59 152.29 L1460.27804635649 152.285125798077 A14.29 14.29 0 0 0 1433.39 159.030011472747 L1433.39 166 L1481.96 166 L1481.97 183.14 A34.29 34.29 0 0 1 1413.39 183.14 Z M1433.39 186.69 L1433.39 183.14 L1461.96 183.14 L1461.97 186.69 A14.29 14.29 0 0 1 1433.39 186.69 Z" style="fill:rgb(0,0,0);" />
</g>
</svg>
