<?xml version="1.0" encoding="UTF-8"?>
<!DOCTYPE svg PUBLIC '-//W3C//DTD SVG 1.0//EN' 'http://www.w3.org/TR/2001/REC-SVG-20010904/DTD/svg10.dtd'>
<svg xmlns:xlink="http://www.w3.org/1999/xlink" xmlns="http://www.w3.org/2000/svg" width="2500" height="3000">
<!--Gegenereerd door de SIMaD-toepassing (http://www.dlw.be).-->
<g style="stroke:none;fill-rule:evenodd;" transform="matrix(1,0,0,-1,0,3000)">
<path d=" M65 0 L2435 0 A65 65 0 0 1 2500 65 L2500 2935 A65 65 0 0 1 2435 3000 L65 3000 A65 65 0 0 1 0 2935 L0 65 A65 65 0 0 1 65 0 Z" style="fill:rgb(0,0,255);" />
<path d=" M195 45 L2305 45 A150 150 0 0 1 2455 195 L2455 2805 A150 150 0 0 1 2305 2955 L195 2955 A150 150 0 0 1 45 2805 L45 195 A150 150 0 0 1 195 45 Z" style="fill:rgb(255,255,255);" />
<path d=" M195 90 L2305 90 A105 105 0 0 1 2410 195 L2410 2805 A105 105 0 0 1 2305 2910 L195 2910 A105 105 0 0 1 90 2805 L90 195 A105 105 0 0 1 195 90 Z" style="fill:rgb(0,0,255);" />
<path d=" M2434.99999546214 1.56319401867222E-13 A65 65 0 0 1 2500 65.0000045378561 L2500 2934.9999875209 A65 65 0 0 1 2435.00000453786 3000 L65.0000045378561 3000 A65 65 0 0 1 1.56319401867222E-13 2934.99999546214 L1.56319401867222E-13 65.0000045378561 A65 65 0 0 1 65.0000045378561 1.56319401867222E-13 Z" style="fill:rgb(0,0,255);" />
<path d=" M2305 2955 L195.000010471976 2955 A150 150 0 0 1 45.0000000000004 2804.99998952802 L45.0000000000004 195.000010471976 A150 150 0 0 1 195.000010471976 45.0000000000004 L2304.99998952802 45.0000000000004 A150 150 0 0 1 2455 195.000010471976 L2455 2804.99997120207 A150 150 0 0 1 2305.00001047198 2955 Z" style="fill:rgb(255,255,255);" />
<path d=" M1441.95 1224.34 L1473.95 1224.34 L1473.95 1256.34 L1441.95 1256.34 Z" style="fill:rgb(0,0,255);" />
<path d=" M1378 1224.34 L1410 1224.34 L1410 1256.34 L1378 1256.34 Z" style="fill:rgb(0,0,255);" />
<path d=" M1505.84 1224.34 L1537.84 1224.34 L1537.84 1256.34 L1505.84 1256.34 Z" style="fill:rgb(0,0,255);" />
<path d=" M2306.5 1224.34 L2338.5 1224.34 L2338.5 1256.34 L2306.5 1256.34 Z" style="fill:rgb(0,0,255);" />
<path d=" M1954 1224.34 L1986 1224.34 L1986 1256.34 L1954 1256.34 Z" style="fill:rgb(0,0,255);" />
<path d=" M1794 1224.34 L1826 1224.34 L1826 1256.34 L1794 1256.34 Z" style="fill:rgb(0,0,255);" />
<path d=" M1634 1224.34 L1666 1224.34 L1666 1256.34 L1634 1256.34 Z" style="fill:rgb(0,0,255);" />
<path d=" M323.24 1224.34 L355.24 1224.34 L355.24 1256.34 L323.24 1256.34 Z" style="fill:rgb(0,0,255);" />
<path d=" M98 1224.34 L130 1224.34 L130 1256.34 L98 1256.34 Z" style="fill:rgb(0,0,255);" />
<path d=" M90 195 L90 1224.34 L2410 1224.34 L2410 195.000020158553 A105 105 0 0 0 2305.00000733038 90.0000000000003 L195.000007330383 90.0000000000003 A105 105 0 0 0 90.0000000000003 195.000007330383 Z" style="fill:rgb(0,0,255);" />
<path d=" M2410 2399.45 L2410 2804.99997984145 A105 105 0 0 1 2305.00000733038 2910 L195.000007330383 2910 A105 105 0 0 1 90.0000000000003 2804.99999266962 L90.0000000000001 2399.45000418879 A60 60 0 0 1 150.00000418879 2339.45 L2349.99999581121 2339.45 A60 60 0 0 1 2410 2399.45000418879 Z" style="fill:rgb(0,0,255);" />
<path d=" M1918.08 1940.63 L1973.24 1940.63 L2136.55 2125.49 L2299.86 1940.63 L2355.02 1940.63 L2136.55 2183.22 Z" style="fill:rgb(0,0,0);" />
<path d=" M134.01 1940.63 L300.43 1940.63 L300.43 1982.3 L201.91 1982.3 L271.93786797426 2054.47450539853 A83.21 83.21 0 1 1 129.010000000014 2112.41995207448 L129.01 2108.49 L174.84 2108.49 L174.840000000006 2116.58997847067 A37.38 37.38 0 1 0 239.046750449199 2090.55944371827 L239.05 2090.55 L134.01 1982.3 Z" style="fill:rgb(0,0,0);" />
<path d=" M541.8 1940.63 L587.64 1940.63 L587.64 2148.97 L650.43 2148.97 L650.43 2190.63 L479.01 2190.63 L479.01 2148.97 L541.8 2148.97 Z" style="fill:rgb(0,0,0);" />
<path d=" M695.43 1940.63 L849.01 1940.63 L849.01 1982.3 L741.27 1982.3 L741.27 2048.97 L813.29 2048.97 L813.29 2090.63 L741.27 2090.63 L741.27 2148.97 L849.01 2148.97 L849.01 2190.63 L695.43 2190.63 Z" style="fill:rgb(0,0,0);" />
<path d=" M899.01 1940.63 L944.84 1940.63 L944.84 2034.3 L1018.65 1940.63 L1077 1940.63 L975.22 2069.8 L1070.43 2190.63 L1012.08 2190.63 L944.84 2105.3 L944.84 2190.63 L899.01 2190.63 Z" style="fill:rgb(0,0,0);" />
<path d=" M1122 1940.63 L1275.57 1940.63 L1275.57 1982.3 L1167.83 1982.3 L1167.83 2048.97 L1239.86 2048.97 L1239.86 2090.63 L1167.83 2090.63 L1167.83 2148.97 L1275.57 2148.97 L1275.57 2190.63 L1122 2190.63 Z" style="fill:rgb(0,0,0);" />
<path d=" M1325.57 1940.63 L1367.24 1940.63 L1367.24 2106.68 L1443.43 1940.63 L1497 1940.63 L1497 2190.63 L1455.33 2190.63 L1455.33 2024.59 L1379.14 2190.63 L1325.57 2190.63 Z" style="fill:rgb(0,0,0);" />
<path d=" M1552 2003.37 L1552 2012.06 L1597.83 2012.06 L1597.84 2003.36999615836 A20.01 20.01 0 0 1 1611.76792108916 1984.30672598628 L1611.77166578264 1984.29906583996 A85.37 85.37 0 0 1 1663.66833421736 1984.29906583996 L1663.66209355039 1984.30673065698 A20.01 20.01 0 0 1 1666.03660281212 2021.50521350517 L1666.04 2021.51 L1594.68604629697 2073.10357176677 A62.69 62.69 0 0 0 1605.56767881047 2190.63483778348 L1605.57619254618 2190.63336212427 A129.07 129.07 0 0 0 1669.86386636026 2190.63334697685 L1669.86242185853 2190.63481189719 A62.69 62.69 0 0 0 1716.94 2129.9200186005 L1671.11 2129.9199929377 A16.86 16.86 0 0 1 1658.44885412417 2146.2487851368 L1658.44777278992 2146.2376443966 A83.23 83.23 0 0 1 1616.99225956806 2146.23765271726 L1616.9811820697 2146.24879444381 A16.86 16.86 0 0 1 1614.0546545069 2114.63965145673 L1614.06 2114.64 L1685.40946357494 2063.05034397631 A65.85 65.85 0 0 0 1677.59527113796 1940.63554837034 L1677.60144193089 1940.62786126025 A131.21 131.21 0 0 0 1597.83850570834 1940.62787796576 L1597.83474090619 1940.63554452769 A65.85 65.85 0 0 0 1552 2003.37001034369 Z" style="fill:rgb(0,0,0);" />
<path d=" M155.56 1564.28 L197.23 1564.28 L197.23 1716.72 L241.87 1564.28 L285.29 1564.28 L326.99 1706.67 L326.99 1564.28 L372.82 1564.28 L372.82 1814.28 L319.25 1814.28 L264.19 1626.27 L209.13 1814.28 L155.56 1814.28 Z" style="fill:rgb(0,0,0);" />
<path d=" M481.66 1564.28 L506.749990545377 1564.27 A41.67 41.67 0 0 1 536.514295180052 1576.7770846376 L536.51 1576.78 L536.51 1564.28 L578.18 1564.28 L578.179999999994 1676.42002992053 A71.43 71.43 0 0 1 436.486701932029 1689.27744315996 L436.49 1689.28 L477.801982340229 1689.27433730126 A29.76 29.76 0 0 0 530.407892471664 1700.4244100928 L530.408934818036 1700.42687373095 A20.83 20.83 0 0 0 513.850003271969 1666.96 L513.85 1666.95 L481.65999103948 1666.96 A51.34 51.34 0 0 1 481.66000896052 1564.28 Z M487.61 1599.99 L515.680023267333 1599.99000000001 A20.83 20.83 0 0 1 536.509999999993 1620.8199832766 L536.508307067893 1647.21051519282 A35.71 35.71 0 0 0 506.750043004738 1631.24000000003 L487.60999727205 1631.25 A15.63 15.63 0 0 1 487.61000272795 1599.99 Z" style="fill:rgb(0,0,0);" />
<path d=" M618.18 1564.28 L666.16 1564.28 L696.75 1617.81 L727.34 1564.28 L775.32 1564.28 L720.74 1659.81 L775.32 1742.85 L725.46 1742.85 L696.75 1699.17 L668.04 1742.85 L618.18 1742.85 L672.76 1659.81 Z" style="fill:rgb(0,0,0);" />
<path d=" M858.65 1585.11 A20.83 20.83 0 0 1 816.99 1585.11 A20.83 20.83 0 0 1 858.65 1585.11 Z" style="fill:rgb(0,0,0);" />
<path d=" M1037.23 1644.99 L1037.23000000001 1733.55996708972 A85.71 85.71 0 0 0 1204.1592300957 1760.93956834325 L1204.16 1760.94 L1155.36740117605 1760.94374706865 A39.88 39.88 0 0 1 1083.06 1737.73000974452 L1083.06290487004 1710.64602019617 A75 75 0 0 0 1183.5530335802 1705.60298359777 L1183.54611798439 1705.5961264466 A85.71 85.71 0 1 0 1037.23 1644.99001944698 Z M1083.06 1640.82 L1083.06 1644.98999303963 A39.88 39.88 0 0 0 1162.82 1644.99000696037 L1162.82 1640.82 A39.88 39.88 0 0 0 1083.06 1640.82 Z" style="fill:rgb(0,0,0);" />
<path d=" M1266.16 1733.56 L1266.16 1644.9900134633 A85.71 85.71 0 0 1 1437.58 1644.9899865367 L1437.58 1733.56 A85.71 85.71 0 0 1 1266.16 1733.56 Z M1311.99 1737.73 L1311.99 1640.82000696037 A39.88 39.88 0 0 1 1391.75 1640.81999303963 L1391.75 1737.73 A39.88 39.88 0 0 1 1311.99 1737.73 Z" style="fill:rgb(0,0,0);" />
<path d=" M1500.91 1564.28 L1542.58 1564.28 L1542.58 1628.67 L1596.54 1564.28 L1650.91 1564.28 L1572.34 1658.03 L1650.91 1742.85 L1594.11 1742.85 L1542.58 1687.21 L1542.58 1814.28 L1500.91 1814.28 Z" style="fill:rgb(0,0,0);" />
<path d=" M1688.41 1564.28 L1730.08 1564.28 L1730.08 1682.3699948059 A29.76 29.76 0 0 0 1789.6 1682.3700051941 L1789.6 1564.28 L1831.27 1564.28 L1831.27 1682.3699948059 A29.76 29.76 0 0 0 1890.79 1682.3700051941 L1890.79 1564.28 L1932.46 1564.28 L1932.46 1689.05000410501 A58.8 58.8 0 0 1 1823.06410281798 1719.00822405194 L1823.06591600532 1719.0081922616 A58.8 58.8 0 0 1 1730.07818479965 1729.79768710025 L1730.08 1729.8 L1730.08 1742.85 L1688.41 1742.85 Z" style="fill:rgb(0,0,0);" />
<path d=" M1954.3 1564.28 L2000.73 1564.28 L2143.59 1814.28 L2097.16 1814.28 Z" style="fill:rgb(0,0,0);" />
<path d=" M2226.96 1564.28 L2268.63 1564.28 L2268.63 1742.85 L2226.96 1742.85 L2226.96 1624.74999428649 A29.76 29.76 0 1 0 2167.44 1624.75000571351 L2167.44 1742.85 L2125.77 1742.85 L2125.77 1618.0799846062 A58.8 58.8 0 0 1 2226.9617583058 1577.33225370965 L2226.96 1577.33 Z" style="fill:rgb(0,0,0);" />
<path d=" M2351.96 1585.11 A20.83 20.83 0 0 1 2310.3 1585.11 A20.83 20.83 0 0 1 2351.96 1585.11 Z" style="fill:rgb(0,0,0);" />
<path d=" M2146 1224.34 L2178 1224.34 L2178 1256.34 L2146 1256.34 Z" style="fill:rgb(0,0,255);" />
<path d=" M1890 1224.34 L1922 1224.34 L1922 1256.34 L1890 1256.34 Z" style="fill:rgb(0,0,255);" />
<path d=" M2018 1224.34 L2050 1224.34 L2050 1256.34 L2018 1256.34 Z" style="fill:rgb(0,0,255);" />
<path d=" M2082 1224.34 L2114 1224.34 L2114 1256.34 L2082 1256.34 Z" style="fill:rgb(0,0,255);" />
<path d=" M2242 1224.34 L2274 1224.34 L2274 1256.34 L2242 1256.34 Z" style="fill:rgb(0,0,255);" />
<path d=" M2370 1224.34 L2402 1224.34 L2402 1256.34 L2370 1256.34 Z" style="fill:rgb(0,0,255);" />
<path d=" M1122 1224.34 L1154 1224.34 L1154 1256.34 L1122 1256.34 Z" style="fill:rgb(0,0,255);" />
<path d=" M1730 1224.34 L1762 1224.34 L1762 1256.34 L1730 1256.34 Z" style="fill:rgb(0,0,255);" />
<path d=" M930 1224.34 L962 1224.34 L962 1256.34 L930 1256.34 Z" style="fill:rgb(0,0,255);" />
<path d=" M130 1256.34 L162 1256.34 L162 1288.34 L130 1288.34 Z" style="fill:rgb(0,0,255);" />
<path d=" M226 1256.34 L258 1256.34 L258 1288.34 L226 1288.34 Z" style="fill:rgb(0,0,255);" />
<path d=" M290 1256.34 L322 1256.34 L322 1288.34 L290 1288.34 Z" style="fill:rgb(0,0,255);" />
<path d=" M354 1256.34 L386 1256.34 L386 1288.34 L354 1288.34 Z" style="fill:rgb(0,0,255);" />
<path d=" M418 1256.34 L450 1256.34 L450 1288.34 L418 1288.34 Z" style="fill:rgb(0,0,255);" />
<path d=" M514 1256.34 L546 1256.34 L546 1288.34 L514 1288.34 Z" style="fill:rgb(0,0,255);" />
<path d=" M578 1256.34 L610 1256.34 L610 1288.34 L578 1288.34 Z" style="fill:rgb(0,0,255);" />
<path d=" M642 1256.34 L674 1256.34 L674 1288.34 L642 1288.34 Z" style="fill:rgb(0,0,255);" />
<path d=" M738 1256.34 L770 1256.34 L770 1288.34 L738 1288.34 Z" style="fill:rgb(0,0,255);" />
<path d=" M834 1256.34 L866 1256.34 L866 1288.34 L834 1288.34 Z" style="fill:rgb(0,0,255);" />
<path d=" M898 1256.34 L930 1256.34 L930 1288.34 L898 1288.34 Z" style="fill:rgb(0,0,255);" />
<path d=" M994 1256.34 L1026 1256.34 L1026 1288.34 L994 1288.34 Z" style="fill:rgb(0,0,255);" />
<path d=" M1090 1256.34 L1122 1256.34 L1122 1288.34 L1090 1288.34 Z" style="fill:rgb(0,0,255);" />
<path d=" M1154 1256.34 L1186 1256.34 L1186 1288.34 L1154 1288.34 Z" style="fill:rgb(0,0,255);" />
<path d=" M1258 1256.34 L1290 1256.34 L1290 1288.34 L1258 1288.34 Z" style="fill:rgb(0,0,255);" />
<path d=" M1346 1256.34 L1378 1256.34 L1378 1288.34 L1346 1288.34 Z" style="fill:rgb(0,0,255);" />
<path d=" M1474 1256.34 L1506 1256.34 L1506 1288.34 L1474 1288.34 Z" style="fill:rgb(0,0,255);" />
<path d=" M1538 1256.34 L1570 1256.34 L1570 1288.34 L1538 1288.34 Z" style="fill:rgb(0,0,255);" />
<path d=" M1602 1256.34 L1634 1256.34 L1634 1288.34 L1602 1288.34 Z" style="fill:rgb(0,0,255);" />
<path d=" M1698 1256.34 L1730 1256.34 L1730 1288.34 L1698 1288.34 Z" style="fill:rgb(0,0,255);" />
<path d=" M1762 1256.34 L1794 1256.34 L1794 1288.34 L1762 1288.34 Z" style="fill:rgb(0,0,255);" />
<path d=" M1858 1256.34 L1890 1256.34 L1890 1288.34 L1858 1288.34 Z" style="fill:rgb(0,0,255);" />
<path d=" M1922 1256.34 L1954 1256.34 L1954 1288.34 L1922 1288.34 Z" style="fill:rgb(0,0,255);" />
<path d=" M2018 1256.34 L2050 1256.34 L2050 1288.34 L2018 1288.34 Z" style="fill:rgb(0,0,255);" />
<path d=" M2114 1256.34 L2146 1256.34 L2146 1288.34 L2114 1288.34 Z" style="fill:rgb(0,0,255);" />
<path d=" M2210 1256.34 L2242 1256.34 L2242 1288.34 L2210 1288.34 Z" style="fill:rgb(0,0,255);" />
<path d=" M2274 1256.34 L2306 1256.34 L2306 1288.34 L2274 1288.34 Z" style="fill:rgb(0,0,255);" />
<path d=" M2370 1256.34 L2402 1256.34 L2402 1288.34 L2370 1288.34 Z" style="fill:rgb(0,0,255);" />
<path d=" M2274 1288.34 L2306 1288.34 L2306 1320.34 L2274 1320.34 Z" style="fill:rgb(0,0,255);" />
<path d=" M2178 1288.34 L2210 1288.34 L2210 1320.34 L2178 1320.34 Z" style="fill:rgb(0,0,255);" />
<path d=" M2082 1288.34 L2114 1288.34 L2114 1320.34 L2082 1320.34 Z" style="fill:rgb(0,0,255);" />
<path d=" M1986 1288.34 L2018 1288.34 L2018 1320.34 L1986 1320.34 Z" style="fill:rgb(0,0,255);" />
<path d=" M1922 1288.34 L1954 1288.34 L1954 1320.34 L1922 1320.34 Z" style="fill:rgb(0,0,255);" />
<path d=" M1826 1288.34 L1858 1288.34 L1858 1320.34 L1826 1320.34 Z" style="fill:rgb(0,0,255);" />
<path d=" M1666 1288.34 L1698 1288.34 L1698 1320.34 L1666 1320.34 Z" style="fill:rgb(0,0,255);" />
<path d=" M1602 1288.34 L1634 1288.34 L1634 1320.34 L1602 1320.34 Z" style="fill:rgb(0,0,255);" />
<path d=" M1474 1288.34 L1506 1288.34 L1506 1320.34 L1474 1320.34 Z" style="fill:rgb(0,0,255);" />
<path d=" M1410 1288.34 L1442 1288.34 L1442 1320.34 L1410 1320.34 Z" style="fill:rgb(0,0,255);" />
<path d=" M1314 1288.34 L1346 1288.34 L1346 1320.34 L1314 1320.34 Z" style="fill:rgb(0,0,255);" />
<path d=" M1218 1288.34 L1250 1288.34 L1250 1320.34 L1218 1320.34 Z" style="fill:rgb(0,0,255);" />
<path d=" M1122 1288.34 L1154 1288.34 L1154 1320.34 L1122 1320.34 Z" style="fill:rgb(0,0,255);" />
<path d=" M1026 1288.34 L1058 1288.34 L1058 1320.34 L1026 1320.34 Z" style="fill:rgb(0,0,255);" />
<path d=" M930 1288.34 L962 1288.34 L962 1320.34 L930 1320.34 Z" style="fill:rgb(0,0,255);" />
<path d=" M834 1288.34 L866 1288.34 L866 1320.34 L834 1320.34 Z" style="fill:rgb(0,0,255);" />
<path d=" M770 1288.34 L802 1288.34 L802 1320.34 L770 1320.34 Z" style="fill:rgb(0,0,255);" />
<path d=" M674 1288.34 L706 1288.34 L706 1320.34 L674 1320.34 Z" style="fill:rgb(0,0,255);" />
<path d=" M546 1288.34 L578 1288.34 L578 1320.34 L546 1320.34 Z" style="fill:rgb(0,0,255);" />
<path d=" M450 1288.34 L482 1288.34 L482 1320.34 L450 1320.34 Z" style="fill:rgb(0,0,255);" />
<path d=" M354 1288.34 L386 1288.34 L386 1320.34 L354 1320.34 Z" style="fill:rgb(0,0,255);" />
<path d=" M258 1288.34 L290 1288.34 L290 1320.34 L258 1320.34 Z" style="fill:rgb(0,0,255);" />
<path d=" M98 1288.34 L130 1288.34 L130 1320.34 L98 1320.34 Z" style="fill:rgb(0,0,255);" />
<path d=" M162 1320.34 L194 1320.34 L194 1352.34 L162 1352.34 Z" style="fill:rgb(0,0,255);" />
<path d=" M290 1320.34 L322 1320.34 L322 1352.34 L290 1352.34 Z" style="fill:rgb(0,0,255);" />
<path d=" M386 1320.34 L418 1320.34 L418 1352.34 L386 1352.34 Z" style="fill:rgb(0,0,255);" />
<path d=" M482 1320.34 L514 1320.34 L514 1352.34 L482 1352.34 Z" style="fill:rgb(0,0,255);" />
<path d=" M610 1320.34 L642 1320.34 L642 1352.34 L610 1352.34 Z" style="fill:rgb(0,0,255);" />
<path d=" M706 1320.34 L738 1320.34 L738 1352.34 L706 1352.34 Z" style="fill:rgb(0,0,255);" />
<path d=" M866 1320.34 L898 1320.34 L898 1352.34 L866 1352.34 Z" style="fill:rgb(0,0,255);" />
<path d=" M962 1320.34 L994 1320.34 L994 1352.34 L962 1352.34 Z" style="fill:rgb(0,0,255);" />
<path d=" M1058 1320.34 L1090 1320.34 L1090 1352.34 L1058 1352.34 Z" style="fill:rgb(0,0,255);" />
<path d=" M1154 1320.34 L1186 1320.34 L1186 1352.34 L1154 1352.34 Z" style="fill:rgb(0,0,255);" />
<path d=" M1258 1320.34 L1290 1320.34 L1290 1352.34 L1258 1352.34 Z" style="fill:rgb(0,0,255);" />
<path d=" M1346 1320.34 L1378 1320.34 L1378 1352.34 L1346 1352.34 Z" style="fill:rgb(0,0,255);" />
<path d=" M1506 1320.34 L1538 1320.34 L1538 1352.34 L1506 1352.34 Z" style="fill:rgb(0,0,255);" />
<path d=" M1570 1320.34 L1602 1320.34 L1602 1352.34 L1570 1352.34 Z" style="fill:rgb(0,0,255);" />
<path d=" M1698 1320.34 L1730 1320.34 L1730 1352.34 L1698 1352.34 Z" style="fill:rgb(0,0,255);" />
<path d=" M1762 1320.34 L1794 1320.34 L1794 1352.34 L1762 1352.34 Z" style="fill:rgb(0,0,255);" />
<path d=" M1890 1320.34 L1922 1320.34 L1922 1352.34 L1890 1352.34 Z" style="fill:rgb(0,0,255);" />
<path d=" M2018 1320.34 L2050 1320.34 L2050 1352.34 L2018 1352.34 Z" style="fill:rgb(0,0,255);" />
<path d=" M2114 1320.34 L2146 1320.34 L2146 1352.34 L2114 1352.34 Z" style="fill:rgb(0,0,255);" />
<path d=" M2274 1320.34 L2306 1320.34 L2306 1352.34 L2274 1352.34 Z" style="fill:rgb(0,0,255);" />
<path d=" M2338 1352.34 L2370 1352.34 L2370 1384.34 L2338 1384.34 Z" style="fill:rgb(0,0,255);" />
<path d=" M2210 1352.34 L2242 1352.34 L2242 1384.34 L2210 1384.34 Z" style="fill:rgb(0,0,255);" />
<path d=" M2082 1352.34 L2114 1352.34 L2114 1384.34 L2082 1384.34 Z" style="fill:rgb(0,0,255);" />
<path d=" M1954 1352.34 L1986 1352.34 L1986 1384.34 L1954 1384.34 Z" style="fill:rgb(0,0,255);" />
<path d=" M1826 1352.34 L1858 1352.34 L1858 1384.34 L1826 1384.34 Z" style="fill:rgb(0,0,255);" />
<path d=" M1698 1352.34 L1730 1352.34 L1730 1384.34 L1698 1384.34 Z" style="fill:rgb(0,0,255);" />
<path d=" M1602 1352.34 L1634 1352.34 L1634 1384.34 L1602 1384.34 Z" style="fill:rgb(0,0,255);" />
<path d=" M1410 1352.34 L1442 1352.34 L1442 1384.34 L1410 1384.34 Z" style="fill:rgb(0,0,255);" />
<path d=" M1346 1352.34 L1378 1352.34 L1378 1384.34 L1346 1384.34 Z" style="fill:rgb(0,0,255);" />
<path d=" M1186 1352.34 L1218 1352.34 L1218 1384.34 L1186 1384.34 Z" style="fill:rgb(0,0,255);" />
<path d=" M1026 1352.34 L1058 1352.34 L1058 1384.34 L1026 1384.34 Z" style="fill:rgb(0,0,255);" />
<path d=" M930 1352.34 L962 1352.34 L962 1384.34 L930 1384.34 Z" style="fill:rgb(0,0,255);" />
<path d=" M802 1352.34 L834 1352.34 L834 1384.34 L802 1384.34 Z" style="fill:rgb(0,0,255);" />
<path d=" M674 1352.34 L706 1352.34 L706 1384.34 L674 1384.34 Z" style="fill:rgb(0,0,255);" />
<path d=" M578 1352.34 L610 1352.34 L610 1384.34 L578 1384.34 Z" style="fill:rgb(0,0,255);" />
<path d=" M450 1352.34 L482 1352.34 L482 1384.34 L450 1384.34 Z" style="fill:rgb(0,0,255);" />
<path d=" M354 1352.34 L386 1352.34 L386 1384.34 L354 1384.34 Z" style="fill:rgb(0,0,255);" />
<path d=" M130 1352.34 L162 1352.34 L162 1384.34 L130 1384.34 Z" style="fill:rgb(0,0,255);" />
<path d=" M2306 1384.34 L2338 1384.34 L2338 1416.34 L2306 1416.34 Z" style="fill:rgb(0,0,255);" />
<path d=" M2370 1416.34 L2402 1416.34 L2402 1448.34 L2370 1448.34 Z" style="fill:rgb(0,0,255);" />
<path d=" M2146 1384.34 L2178 1384.34 L2178 1416.34 L2146 1416.34 Z" style="fill:rgb(0,0,255);" />
<path d=" M2018 1416.34 L2050 1416.34 L2050 1448.34 L2018 1448.34 Z" style="fill:rgb(0,0,255);" />
<path d=" M1890 1384.34 L1922 1384.34 L1922 1416.34 L1890 1416.34 Z" style="fill:rgb(0,0,255);" />
<path d=" M1762 1384.34 L1794 1384.34 L1794 1416.34 L1762 1416.34 Z" style="fill:rgb(0,0,255);" />
<path d=" M1698 1416.34 L1730 1416.34 L1730 1448.34 L1698 1448.34 Z" style="fill:rgb(0,0,255);" />
<path d=" M1602 1416.34 L1634 1416.34 L1634 1448.34 L1602 1448.34 Z" style="fill:rgb(0,0,255);" />
<path d=" M1538 1384.34 L1570 1384.34 L1570 1416.34 L1538 1416.34 Z" style="fill:rgb(0,0,255);" />
<path d=" M1410 1384.34 L1442 1384.34 L1442 1416.34 L1410 1416.34 Z" style="fill:rgb(0,0,255);" />
<path d=" M1410 1416.34 L1442 1416.34 L1442 1448.34 L1410 1448.34 Z" style="fill:rgb(0,0,255);" />
<path d=" M1346 1416.34 L1378 1416.34 L1378 1448.34 L1346 1448.34 Z" style="fill:rgb(0,0,255);" />
<path d=" M1258 1384.34 L1290 1384.34 L1290 1416.34 L1258 1416.34 Z" style="fill:rgb(0,0,255);" />
<path d=" M1154 1416.34 L1186 1416.34 L1186 1448.34 L1154 1448.34 Z" style="fill:rgb(0,0,255);" />
<path d=" M1122 1384.34 L1154 1384.34 L1154 1416.34 L1122 1416.34 Z" style="fill:rgb(0,0,255);" />
<path d=" M898 1384.34 L930 1384.34 L930 1416.34 L898 1416.34 Z" style="fill:rgb(0,0,255);" />
<path d=" M738 1384.34 L770 1384.34 L770 1416.34 L738 1416.34 Z" style="fill:rgb(0,0,255);" />
<path d=" M674 1384.34 L706 1384.34 L706 1416.34 L674 1416.34 Z" style="fill:rgb(0,0,255);" />
<path d=" M514 1384.34 L546 1384.34 L546 1416.34 L514 1416.34 Z" style="fill:rgb(0,0,255);" />
<path d=" M322 1384.34 L354 1384.34 L354 1416.34 L322 1416.34 Z" style="fill:rgb(0,0,255);" />
<path d=" M162 1416.34 L194 1416.34 L194 1448.34 L162 1448.34 Z" style="fill:rgb(0,0,255);" />
<path d=" M226 1384.34 L258 1384.34 L258 1416.34 L226 1416.34 Z" style="fill:rgb(0,0,255);" />
<path d=" M226 1448.34 L258 1448.34 L258 1480.34 L226 1480.34 Z" style="fill:rgb(0,0,255);" />
<path d=" M418 1416.34 L450 1416.34 L450 1448.34 L418 1448.34 Z" style="fill:rgb(0,0,255);" />
<path d=" M546 1448.34 L578 1448.34 L578 1480.34 L546 1480.34 Z" style="fill:rgb(0,0,255);" />
<path d=" M610 1416.34 L642 1416.34 L642 1448.34 L610 1448.34 Z" style="fill:rgb(0,0,255);" />
<path d=" M802 1416.34 L834 1416.34 L834 1448.34 L802 1448.34 Z" style="fill:rgb(0,0,255);" />
<path d=" M866 1448.34 L898 1448.34 L898 1480.34 L866 1480.34 Z" style="fill:rgb(0,0,255);" />
<path d=" M994 1416.34 L1026 1416.34 L1026 1448.34 L994 1448.34 Z" style="fill:rgb(0,0,255);" />
<path d=" M1026 1448.34 L1058 1448.34 L1058 1480.34 L1026 1480.34 Z" style="fill:rgb(0,0,255);" />
<path d=" M1250 1448.34 L1282 1448.34 L1282 1480.34 L1250 1480.34 Z" style="fill:rgb(0,0,255);" />
<path d=" M1474 1448.34 L1506 1448.34 L1506 1480.34 L1474 1480.34 Z" style="fill:rgb(0,0,255);" />
<path d=" M1666 1448.34 L1698 1448.34 L1698 1480.34 L1666 1480.34 Z" style="fill:rgb(0,0,255);" />
<path d=" M1858 1448.34 L1890 1448.34 L1890 1480.34 L1858 1480.34 Z" style="fill:rgb(0,0,255);" />
<path d=" M1954 1416.34 L1986 1416.34 L1986 1448.34 L1954 1448.34 Z" style="fill:rgb(0,0,255);" />
<path d=" M2082 1416.34 L2114 1416.34 L2114 1448.34 L2082 1448.34 Z" style="fill:rgb(0,0,255);" />
<path d=" M2210 1448.34 L2242 1448.34 L2242 1480.34 L2210 1480.34 Z" style="fill:rgb(0,0,255);" />
<path d=" M2114 1480.34 L2146 1480.34 L2146 1512.34 L2114 1512.34 Z" style="fill:rgb(0,0,255);" />
<path d=" M1762 1480.34 L1794 1480.34 L1794 1512.34 L1762 1512.34 Z" style="fill:rgb(0,0,255);" />
<path d=" M1410 1480.34 L1442 1480.34 L1442 1512.34 L1410 1512.34 Z" style="fill:rgb(0,0,255);" />
<path d=" M1090 1480.34 L1122 1480.34 L1122 1512.34 L1090 1512.34 Z" style="fill:rgb(0,0,255);" />
<path d=" M738 1480.34 L770 1480.34 L770 1512.34 L738 1512.34 Z" style="fill:rgb(0,0,255);" />
<path d=" M354 1480.34 L386 1480.34 L386 1512.34 L354 1512.34 Z" style="fill:rgb(0,0,255);" />
<path d=" M1994.25 90 L1771.23519005802 385.033358265995 A47.31 47.31 0 0 1 1745.82358792138 399.00729783637 L1745.82603347928 399.012221385229 A326.34 326.34 0 0 0 1787.94681006825 349.374626001927 L1787.94 349.37 L1979.98 90 L1943.51 90 L1724.12661358883 382.591187496591 A251.97 251.97 0 0 1 1627.32965511556 442.540017935882 L1627.33 442.54 L1574.78 444.43 L1734.11647110101 137.229965261801 A3687.35 3687.35 0 0 1 1410.8185710999 171.231280449624 L1410.82 171.24 L1249.09 172.07 L1087.35499182758 172.065134627214 A3687.35 3687.35 0 0 1 763.886134469886 139.730634486674 L763.89 139.73 L924.81 446.1 L872.251484393698 444.493516963507 A251.97 251.97 0 0 1 775.1468194824 385.044400122469 L775.15 385.04 L551.55 90 L514.96 90 L711.16171317139 352.146842078623 A326.34 326.34 0 0 0 753.537775630467 401.566676420296 L753.535934086123 401.563036360035 A47.31 47.31 0 0 1 728.052643855646 387.720261013423 L728.05 387.72 L500.58 90 L470.3 90 L678.713757769129 373.368860820026 A317.26 317.26 0 0 0 875.326364906723 482.680356482826 L875.319146565369 482.677603649802 A411.17 411.17 0 0 0 964.893071068001 488.454360882383 L964.897727452386 488.452123200063 A467.05 467.05 0 0 0 1006.48024806298 501.093551323378 L1006.48001580746 501.091252524621 A242.45 242.45 0 0 0 1060.99578725985 511.536108658566 L1060.99559635382 511.534253424449 A2044.8 2044.8 0 0 0 1204.61960718987 525.168380509903 L1204.62 525.18 L1250 525.18 L1295.37969657808 524.935998280884 A2044.8 2044.8 0 0 0 1438.93152544125 510.56177343029 L1438.93015539938 510.569788973865 A242.45 242.45 0 0 0 1493.39136694667 499.844081840567 L1493.39152856674 499.835262615452 A467.05 467.05 0 0 0 1534.90833953943 486.979675037084 L1534.91431888517 486.984171653496 A411.17 411.17 0 0 0 1624.45727143452 480.745803029811 L1624.45111219792 480.749895324884 A317.26 317.26 0 0 0 1820.49768520896 370.426454569509 L1820.5 370.43 L2024.52 90 Z" style="fill:rgb(255,255,255);" />
<path d=" M315.84 2474.73 L447.550089360858 2474.73000000005 A80 80 0 0 1 527.549999999974 2554.72993577188 L527.55 2574.72999685841 A60 60 0 0 1 488.305533968487 2631.02571750749 A60 60 0 0 1 521.549999999995 2684.72997591446 L521.549999999974 2694.73006422812 A80 80 0 0 1 441.550089360858 2774.72999999995 L315.84 2774.73 Z M370.84 2524.73 L442.550033510322 2524.73000000002 A30 30 0 0 1 472.54999999999 2554.72997591446 L472.54999999999 2574.73002408554 A30 30 0 0 1 442.550033510322 2604.72999999998 L370.84 2604.73 Z M370.84 2654.73 L436.550033510322 2654.73000000002 A30 30 0 0 1 466.54999999999 2684.72997591446 L466.54999999999 2694.73002408554 A30 30 0 0 1 436.550033510322 2724.72999999998 L370.84 2724.73 Z" style="fill:rgb(255,255,255);" />
<path d=" M619.95 2474.73 L674.95 2474.73 L674.95 2774.73 L619.95 2774.73 Z" style="fill:rgb(255,255,255);" />
<path d=" M884.46 2566.58 L884.46 2774.73 L939.46 2774.73 L939.469999999998 2571.5799802523 A102.86 102.86 0 1 0 733.750000000002 2571.5800197477 L788.75 2571.58 L788.750000000001 2566.58000835315 A47.86 47.86 0 0 1 884.469999999999 2566.57999164685 Z" style="fill:rgb(255,255,255);" />
<path d=" M1235.77 2474.73 L1285.77 2474.73 L1285.77 2657.65 L1339.34 2474.73 L1391.44 2474.73 L1441.48 2645.6 L1441.48 2474.73 L1496.48 2474.73 L1496.48 2774.73 L1432.2 2774.73 L1366.13 2549.12 L1300.05 2774.73 L1235.77 2774.73 Z" style="fill:rgb(255,255,255);" />
<path d=" M1601.48 2474.73 L1656.48 2474.73 L1656.48 2774.73 L1601.48 2774.73 Z" style="fill:rgb(255,255,255);" />
<path d=" M1748.88 2550 L1748.88 2560.44 L1803.88 2560.44 L1803.88 2549.99999538849 A24.02 24.02 0 0 1 1820.59907369123 2527.11644968468 L1820.60017523054 2527.1271628828 A102.45 102.45 0 0 1 1882.87982476946 2527.1271628828 L1882.88094388207 2527.11645529139 A24.02 24.02 0 0 1 1885.7313043252 2571.76950666637 L1885.73 2571.77 L1800.10641031936 2633.68847350477 A75.23 75.23 0 0 0 1813.16471649245 2774.72974232655 L1813.16842722207 2774.73016057804 A154.88 154.88 0 0 0 1890.31164346384 2774.73014240159 L1890.31540431356 2774.72971126218 A75.23 75.23 0 0 0 1946.81 2701.87002232119 L1946.8 2701.87 L1891.81 2701.86999152608 A20.23 20.23 0 0 1 1876.6181268643 2721.46260517898 L1876.61432351625 2721.46304724658 A99.88 99.88 0 0 1 1826.86571531488 2721.46305723176 L1826.86191656406 2721.46261634628 A20.23 20.23 0 0 1 1823.35043064499 2683.53539436356 L1823.35 2683.54 L1908.97535628993 2621.61641277158 A79.02 79.02 0 0 0 1899.59832536556 2474.71865804441 L1899.59712241459 2474.72933888747 A157.45 157.45 0 0 0 1803.88281475328 2474.72935893383 L1803.88168908742 2474.71865343323 A79.02 79.02 0 0 0 1748.88 2550.00001379159 Z" style="fill:rgb(255,255,255);" />
<path d=" M2080.35 2474.73 L2135.35 2474.73 L2135.35 2724.73 L2210.71 2724.73 L2210.71 2774.73 L2005 2774.73 L2005 2724.73 L2080.35 2724.73 Z" style="fill:rgb(255,255,255);" />
<path d=" M2018 1192.34 L2050 1192.34 L2050 1224.34 L2018 1224.34 Z" style="fill:rgb(255,255,255);" />
<path d=" M2274 1160.34 L2306 1160.34 L2306 1192.34 L2274 1192.34 Z" style="fill:rgb(255,255,255);" />
<path d=" M2370 1192.34 L2402 1192.34 L2402 1224.34 L2370 1224.34 Z" style="fill:rgb(255,255,255);" />
<path d=" M2306 1128.34 L2338 1128.34 L2338 1160.34 L2306 1160.34 Z" style="fill:rgb(255,255,255);" />
<path d=" M2370 1128.34 L2402 1128.34 L2402 1160.34 L2370 1160.34 Z" style="fill:rgb(255,255,255);" />
<path d=" M2370 1000.34 L2402 1000.34 L2402 1032.34 L2370 1032.34 Z" style="fill:rgb(255,255,255);" />
<path d=" M2338 1064.34 L2370 1064.34 L2370 1096.34 L2338 1096.34 Z" style="fill:rgb(255,255,255);" />
<path d=" M2274 1032.34 L2306 1032.34 L2306 1064.34 L2274 1064.34 Z" style="fill:rgb(255,255,255);" />
<path d=" M1506 1064.34 L1538 1064.34 L1538 1096.34 L1506 1096.34 Z" style="fill:rgb(255,255,255);" />
<path d=" M1730 1160.34 L1762 1160.34 L1762 1192.34 L1730 1192.34 Z" style="fill:rgb(255,255,255);" />
<path d=" M1730 1096.34 L1762 1096.34 L1762 1128.34 L1730 1128.34 Z" style="fill:rgb(255,255,255);" />
<path d=" M1666 1128.34 L1698 1128.34 L1698 1160.34 L1666 1160.34 Z" style="fill:rgb(255,255,255);" />
<path d=" M1634 1000.34 L1666 1000.34 L1666 1032.34 L1634 1032.34 Z" style="fill:rgb(255,255,255);" />
<path d=" M1666 1064.34 L1698 1064.34 L1698 1096.34 L1666 1096.34 Z" style="fill:rgb(255,255,255);" />
<path d=" M1570 1032.34 L1602 1032.34 L1602 1064.34 L1570 1064.34 Z" style="fill:rgb(255,255,255);" />
<path d=" M2242 1096.34 L2274 1096.34 L2274 1128.34 L2242 1128.34 Z" style="fill:rgb(255,255,255);" />
<path d=" M1666 1192.34 L1698 1192.34 L1698 1224.34 L1666 1224.34 Z" style="fill:rgb(255,255,255);" />
<path d=" M1762 1192.34 L1794 1192.34 L1794 1224.34 L1762 1224.34 Z" style="fill:rgb(255,255,255);" />
<path d=" M1794 1160.34 L1826 1160.34 L1826 1192.34 L1794 1192.34 Z" style="fill:rgb(255,255,255);" />
<path d=" M1794 1128.34 L1826 1128.34 L1826 1160.34 L1794 1160.34 Z" style="fill:rgb(255,255,255);" />
<path d=" M1954 1096.34 L1986 1096.34 L1986 1128.34 L1954 1128.34 Z" style="fill:rgb(255,255,255);" />
<path d=" M1858 1096.34 L1890 1096.34 L1890 1128.34 L1858 1128.34 Z" style="fill:rgb(255,255,255);" />
<path d=" M1890 1128.34 L1922 1128.34 L1922 1160.34 L1890 1160.34 Z" style="fill:rgb(255,255,255);" />
<path d=" M1858 1160.34 L1890 1160.34 L1890 1192.34 L1858 1192.34 Z" style="fill:rgb(255,255,255);" />
<path d=" M1922 1192.34 L1954 1192.34 L1954 1224.34 L1922 1224.34 Z" style="fill:rgb(255,255,255);" />
<path d=" M1954 1160.34 L1986 1160.34 L1986 1192.34 L1954 1192.34 Z" style="fill:rgb(255,255,255);" />
<path d=" M2018 1128.34 L2050 1128.34 L2050 1160.34 L2018 1160.34 Z" style="fill:rgb(255,255,255);" />
<path d=" M2082 1096.34 L2114 1096.34 L2114 1128.34 L2082 1128.34 Z" style="fill:rgb(255,255,255);" />
<path d=" M2114 1128.34 L2146 1128.34 L2146 1160.34 L2114 1160.34 Z" style="fill:rgb(255,255,255);" />
<path d=" M2082 1160.34 L2114 1160.34 L2114 1192.34 L2082 1192.34 Z" style="fill:rgb(255,255,255);" />
<path d=" M2114 1192.34 L2146 1192.34 L2146 1224.34 L2114 1224.34 Z" style="fill:rgb(255,255,255);" />
<path d=" M2178 1192.34 L2210 1192.34 L2210 1224.34 L2178 1224.34 Z" style="fill:rgb(255,255,255);" />
<path d=" M2210 1160.34 L2242 1160.34 L2242 1192.34 L2210 1192.34 Z" style="fill:rgb(255,255,255);" />
<path d=" M2146 1064.34 L2178 1064.34 L2178 1096.34 L2146 1096.34 Z" style="fill:rgb(255,255,255);" />
<path d=" M2082 1032.34 L2114 1032.34 L2114 1064.34 L2082 1064.34 Z" style="fill:rgb(255,255,255);" />
<path d=" M2018 1064.34 L2050 1064.34 L2050 1096.34 L2018 1096.34 Z" style="fill:rgb(255,255,255);" />
<path d=" M2018 1000.34 L2050 1000.34 L2050 1032.34 L2018 1032.34 Z" style="fill:rgb(255,255,255);" />
<path d=" M1890 1032.34 L1922 1032.34 L1922 1064.34 L1890 1064.34 Z" style="fill:rgb(255,255,255);" />
<path d=" M1794 1064.34 L1826 1064.34 L1826 1096.34 L1794 1096.34 Z" style="fill:rgb(255,255,255);" />
<path d=" M1730 1032.34 L1762 1032.34 L1762 1064.34 L1730 1064.34 Z" style="fill:rgb(255,255,255);" />
<path d=" M1434.03 1064.34 L1466.03 1064.34 L1466.03 1096.34 L1434.03 1096.34 Z" style="fill:rgb(255,255,255);" />
<path d=" M1602 1096.34 L1634 1096.34 L1634 1128.34 L1602 1128.34 Z" style="fill:rgb(255,255,255);" />
<path d=" M1570 1128.34 L1602 1128.34 L1602 1160.34 L1570 1160.34 Z" style="fill:rgb(255,255,255);" />
<path d=" M1634 1160.34 L1666 1160.34 L1666 1192.34 L1634 1192.34 Z" style="fill:rgb(255,255,255);" />
<path d=" M1570 1192.34 L1602 1192.34 L1602 1224.34 L1570 1224.34 Z" style="fill:rgb(255,255,255);" />
<path d=" M1506 1192.34 L1538 1192.34 L1538 1224.34 L1506 1224.34 Z" style="fill:rgb(255,255,255);" />
<path d=" M1538 1160.34 L1570 1160.34 L1570 1192.34 L1538 1192.34 Z" style="fill:rgb(255,255,255);" />
<path d=" M1506 1128.34 L1538 1128.34 L1538 1160.34 L1506 1160.34 Z" style="fill:rgb(255,255,255);" />
<path d=" M1474 1096.34 L1506 1096.34 L1506 1128.34 L1474 1128.34 Z" style="fill:rgb(255,255,255);" />
<path d=" M1314 1160.34 L1346 1160.34 L1346 1192.34 L1314 1192.34 Z" style="fill:rgb(255,255,255);" />
<path d=" M1346 1192.34 L1378 1192.34 L1378 1224.34 L1346 1224.34 Z" style="fill:rgb(255,255,255);" />
<path d=" M1410 1160.34 L1442 1160.34 L1442 1192.34 L1410 1192.34 Z" style="fill:rgb(255,255,255);" />
<path d=" M1346 1128.34 L1378 1128.34 L1378 1160.34 L1346 1160.34 Z" style="fill:rgb(255,255,255);" />
<path d=" M1346 1096.34 L1378 1096.34 L1378 1128.34 L1346 1128.34 Z" style="fill:rgb(255,255,255);" />
<path d=" M1410 1064.34 L1442 1064.34 L1442 1096.34 L1410 1096.34 Z" style="fill:rgb(255,255,255);" />
<path d=" M1346 1032.34 L1378 1032.34 L1378 1064.34 L1346 1064.34 Z" style="fill:rgb(255,255,255);" />
<path d=" M1186 1096.34 L1218 1096.34 L1218 1128.34 L1186 1128.34 Z" style="fill:rgb(255,255,255);" />
<path d=" M1258 1064.34 L1290 1064.34 L1290 1096.34 L1258 1096.34 Z" style="fill:rgb(255,255,255);" />
<path d=" M1250 1192.34 L1282 1192.34 L1282 1224.34 L1250 1224.34 Z" style="fill:rgb(255,255,255);" />
<path d=" M1250 1128.34 L1282 1128.34 L1282 1160.34 L1250 1160.34 Z" style="fill:rgb(255,255,255);" />
<path d=" M1218 1160.34 L1250 1160.34 L1250 1192.34 L1218 1192.34 Z" style="fill:rgb(255,255,255);" />
<path d=" M1186 1192.34 L1218 1192.34 L1218 1224.34 L1186 1224.34 Z" style="fill:rgb(255,255,255);" />
<path d=" M1122 1128.34 L1154 1128.34 L1154 1160.34 L1122 1160.34 Z" style="fill:rgb(255,255,255);" />
<path d=" M1122 1160.34 L1154 1160.34 L1154 1192.34 L1122 1192.34 Z" style="fill:rgb(255,255,255);" />
<path d=" M1090 1192.34 L1122 1192.34 L1122 1224.34 L1090 1224.34 Z" style="fill:rgb(255,255,255);" />
<path d=" M994 1128.34 L1026 1128.34 L1026 1160.34 L994 1160.34 Z" style="fill:rgb(255,255,255);" />
<path d=" M1026 1160.34 L1058 1160.34 L1058 1192.34 L1026 1192.34 Z" style="fill:rgb(255,255,255);" />
<path d=" M994 1192.34 L1026 1192.34 L1026 1224.34 L994 1224.34 Z" style="fill:rgb(255,255,255);" />
<path d=" M930 1192.34 L962 1192.34 L962 1224.34 L930 1224.34 Z" style="fill:rgb(255,255,255);" />
<path d=" M898 1160.34 L930 1160.34 L930 1192.34 L898 1192.34 Z" style="fill:rgb(255,255,255);" />
<path d=" M930 1128.34 L962 1128.34 L962 1160.34 L930 1160.34 Z" style="fill:rgb(255,255,255);" />
<path d=" M834 1128.34 L866 1128.34 L866 1160.34 L834 1160.34 Z" style="fill:rgb(255,255,255);" />
<path d=" M834 1160.34 L866 1160.34 L866 1192.34 L834 1192.34 Z" style="fill:rgb(255,255,255);" />
<path d=" M802 1192.34 L834 1192.34 L834 1224.34 L802 1224.34 Z" style="fill:rgb(255,255,255);" />
<path d=" M642 1192.34 L674 1192.34 L674 1224.34 L642 1224.34 Z" style="fill:rgb(255,255,255);" />
<path d=" M738 1192.34 L770 1192.34 L770 1224.34 L738 1224.34 Z" style="fill:rgb(255,255,255);" />
<path d=" M674 1160.34 L706 1160.34 L706 1192.34 L674 1192.34 Z" style="fill:rgb(255,255,255);" />
<path d=" M738 1128.34 L770 1128.34 L770 1160.34 L738 1160.34 Z" style="fill:rgb(255,255,255);" />
<path d=" M674 1064.34 L706 1064.34 L706 1096.34 L674 1096.34 Z" style="fill:rgb(255,255,255);" />
<path d=" M226 1192.34 L258 1192.34 L258 1224.34 L226 1224.34 Z" style="fill:rgb(255,255,255);" />
<path d=" M322 1192.34 L354 1192.34 L354 1224.34 L322 1224.34 Z" style="fill:rgb(255,255,255);" />
<path d=" M386 1192.34 L418 1192.34 L418 1224.34 L386 1224.34 Z" style="fill:rgb(255,255,255);" />
<path d=" M482 1192.34 L514 1192.34 L514 1224.34 L482 1224.34 Z" style="fill:rgb(255,255,255);" />
<path d=" M578 1192.34 L610 1192.34 L610 1224.34 L578 1224.34 Z" style="fill:rgb(255,255,255);" />
<path d=" M546 1160.34 L578 1160.34 L578 1192.34 L546 1192.34 Z" style="fill:rgb(255,255,255);" />
<path d=" M514 1096.34 L546 1096.34 L546 1128.34 L514 1128.34 Z" style="fill:rgb(255,255,255);" />
<path d=" M450 1128.34 L482 1128.34 L482 1160.34 L450 1160.34 Z" style="fill:rgb(255,255,255);" />
<path d=" M386 1096.34 L418 1096.34 L418 1128.34 L386 1128.34 Z" style="fill:rgb(255,255,255);" />
<path d=" M354 1128.34 L386 1128.34 L386 1160.34 L354 1160.34 Z" style="fill:rgb(255,255,255);" />
<path d=" M290 1128.34 L322 1128.34 L322 1160.34 L290 1160.34 Z" style="fill:rgb(255,255,255);" />
<path d=" M226 1160.34 L258 1160.34 L258 1192.34 L226 1192.34 Z" style="fill:rgb(255,255,255);" />
<path d=" M162 1128.34 L194 1128.34 L194 1160.34 L162 1160.34 Z" style="fill:rgb(255,255,255);" />
<path d=" M130 1160.34 L162 1160.34 L162 1192.34 L130 1192.34 Z" style="fill:rgb(255,255,255);" />
<path d=" M1186 1032.34 L1218 1032.34 L1218 1064.34 L1186 1064.34 Z" style="fill:rgb(255,255,255);" />
<path d=" M1122 1032.34 L1154 1032.34 L1154 1064.34 L1122 1064.34 Z" style="fill:rgb(255,255,255);" />
<path d=" M1058 1064.34 L1090 1064.34 L1090 1096.34 L1058 1096.34 Z" style="fill:rgb(255,255,255);" />
<path d=" M962 1032.34 L994 1032.34 L994 1064.34 L962 1064.34 Z" style="fill:rgb(255,255,255);" />
<path d=" M898 1064.34 L930 1064.34 L930 1096.34 L898 1096.34 Z" style="fill:rgb(255,255,255);" />
<path d=" M898 1000.34 L930 1000.34 L930 1032.34 L898 1032.34 Z" style="fill:rgb(255,255,255);" />
<path d=" M802 1032.34 L834 1032.34 L834 1064.34 L802 1064.34 Z" style="fill:rgb(255,255,255);" />
<path d=" M738 936.34 L770 936.34 L770 968.34 L738 968.34 Z" style="fill:rgb(255,255,255);" />
<path d=" M738 1032.34 L770 1032.34 L770 1064.34 L738 1064.34 Z" style="fill:rgb(255,255,255);" />
<path d=" M578 1096.34 L610 1096.34 L610 1128.34 L578 1128.34 Z" style="fill:rgb(255,255,255);" />
<path d=" M610 1064.34 L642 1064.34 L642 1096.34 L610 1096.34 Z" style="fill:rgb(255,255,255);" />
<path d=" M610 1000.34 L642 1000.34 L642 1032.34 L610 1032.34 Z" style="fill:rgb(255,255,255);" />
<path d=" M514 1032.34 L546 1032.34 L546 1064.34 L514 1064.34 Z" style="fill:rgb(255,255,255);" />
<path d=" M418 1064.34 L450 1064.34 L450 1096.34 L418 1096.34 Z" style="fill:rgb(255,255,255);" />
<path d=" M290 1064.34 L322 1064.34 L322 1096.34 L290 1096.34 Z" style="fill:rgb(255,255,255);" />
<path d=" M226 1096.34 L258 1096.34 L258 1128.34 L226 1128.34 Z" style="fill:rgb(255,255,255);" />
<path d=" M162 1064.34 L194 1064.34 L194 1096.34 L162 1096.34 Z" style="fill:rgb(255,255,255);" />
<path d=" M98 1096.34 L130 1096.34 L130 1128.34 L98 1128.34 Z" style="fill:rgb(255,255,255);" />
<path d=" M98 1032.34 L130 1032.34 L130 1064.34 L98 1064.34 Z" style="fill:rgb(255,255,255);" />
<path d=" M194 1000.34 L226 1000.34 L226 1032.34 L194 1032.34 Z" style="fill:rgb(255,255,255);" />
<path d=" M354 1032.34 L386 1032.34 L386 1064.34 L354 1064.34 Z" style="fill:rgb(255,255,255);" />
<path d=" M418 1000.34 L450 1000.34 L450 1032.34 L418 1032.34 Z" style="fill:rgb(255,255,255);" />
<path d=" M546 968.34 L578 968.34 L578 1000.34 L546 1000.34 Z" style="fill:rgb(255,255,255);" />
<path d=" M322 936.34 L354 936.34 L354 968.34 L322 968.34 Z" style="fill:rgb(255,255,255);" />
<path d=" M130 968.34 L162 968.34 L162 1000.34 L130 1000.34 Z" style="fill:rgb(255,255,255);" />
<path d=" M834 1000.34 L866 1000.34 L866 1032.34 L834 1032.34 Z" style="fill:rgb(255,255,255);" />
<path d=" M1058 1000.34 L1090 1000.34 L1090 1032.34 L1058 1032.34 Z" style="fill:rgb(255,255,255);" />
<path d=" M1762 936.34 L1794 936.34 L1794 968.34 L1762 968.34 Z" style="fill:rgb(255,255,255);" />
<path d=" M2114 936.34 L2146 936.34 L2146 968.34 L2114 968.34 Z" style="fill:rgb(255,255,255);" />
<path d=" M1858 904.34 L1890 904.34 L1890 936.34 L1858 936.34 Z" style="fill:rgb(255,255,255);" />
<path d=" M642 904.34 L674 904.34 L674 936.34 L642 936.34 Z" style="fill:rgb(255,255,255);" />
<path d=" M1666.21 982.82 L1695.9 940.75 L1662.76 940.75 L1635.24 982.82 Z" style="fill:rgb(255,255,255);" />
<path d=" M1681.27 912.46 L1715.87 912.46 L1756.82 854.43 L1719.23 854.43 Z" style="fill:rgb(255,255,255);" />
<path d=" M1778.06 824.32 L1834.46 744.4 L1791.2 744.4 L1738.92 824.32 Z" style="fill:rgb(255,255,255);" />
<path d=" M1855.73 714.26 L1922.49 619.65 L1872.81 619.65 L1810.92 714.26 Z" style="fill:rgb(255,255,255);" />
<path d=" M1957.89 569.48 L2027.14 471.34 L1969.82 471.34 L1905.63 569.48 Z" style="fill:rgb(255,255,255);" />
<path d=" M2080.91 395.14 L2176.45 259.75 L2108.23 259.75 L2019.67 395.14 Z" style="fill:rgb(255,255,255);" />
<path d=" M2253.29 150.87 L2296.24 90 L2219.27 90 L2179.45 150.87 Z" style="fill:rgb(255,255,255);" />
<path d=" M833.79 982.82 L804.1 940.75 L837.24 940.75 L864.76 982.82 Z" style="fill:rgb(255,255,255);" />
<path d=" M818.73 912.46 L784.13 912.46 L743.18 854.43 L780.77 854.43 Z" style="fill:rgb(255,255,255);" />
<path d=" M721.94 824.32 L665.54 744.4 L708.8 744.4 L761.08 824.32 Z" style="fill:rgb(255,255,255);" />
<path d=" M644.27 714.26 L577.51 619.65 L627.19 619.65 L689.08 714.26 Z" style="fill:rgb(255,255,255);" />
<path d=" M542.11 569.48 L472.86 471.34 L530.18 471.34 L594.37 569.48 Z" style="fill:rgb(255,255,255);" />
<path d=" M419.09 395.14 L323.55 259.75 L391.77 259.75 L480.33 395.14 Z" style="fill:rgb(255,255,255);" />
<path d=" M246.71 150.87 L203.76 90 L280.73 90 L320.55 150.87 Z" style="fill:rgb(255,255,255);" />
<path d=" M1250 685.19 L1011.42434289098 600.618204392771 A611.34 611.34 0 0 0 851.495738604345 579.822721838133 L851.492866022779 579.822358534602 A157.67 157.67 0 0 0 808.337406999765 581.208729824624 L808.331732892058 581.209915785966 A79.54 79.54 0 0 0 774.906780523584 605.702900178541 L774.906828336737 605.711644203113 A316.81 316.81 0 0 1 872.02423922729 627.467865159446 L872.03 627.46 L1250 765.84 L1627.97576077271 627.467865159446 A316.81 316.81 0 0 1 1725.09317166326 605.711644203113 L1725.08354177062 605.700647514018 A89.71 89.71 0 0 0 1691.65938145869 581.20824352103 L1691.66259300023 581.208729824624 A157.67 157.67 0 0 0 1648.50713397722 579.822358534602 L1648.50426139565 579.822721838133 A611.34 611.34 0 0 0 1488.57565710902 600.618204392771 L1488.58 600.62 Z" style="fill:rgb(255,255,255);" />
<path d=" M1250.00562603523 1024.62972338003 A1694.64 1694.64 0 0 0 918.280186703692 888.614185487629 L918.275700677096 888.62210781045 A64.43 64.43 0 0 1 974.779804133018 869.192805431764 L974.785108799433 869.182413193433 A529.97 529.97 0 0 1 1051.17674420849 878.326390411833 L1051.17 878.33 L1250 954.57 L1448.82325579151 878.326390411833 A529.97 529.97 0 0 1 1525.21489120057 869.182413193433 L1525.22019586698 869.192805431764 A64.43 64.43 0 0 1 1581.7242993229 888.62210781045 L1581.71981329631 888.614185487629 A1694.64 1694.64 0 0 0 1249.99437396477 1024.62972338003 Z" style="fill:rgb(255,255,255);" />
<path d=" M1250 497.16 L1205.45487452913 497.158410509803 A2016.78 2016.78 0 0 1 1063.83568865938 483.657009009927 L1063.8352039574 483.658852697861 A214.44 214.44 0 0 1 1014.13565613498 474.135495531378 L1014.13609233824 474.137854660919 A439.04 439.04 0 0 1 969.109210443963 460.184752913691 L969.106186245523 460.187213812316 A383.16 383.16 0 0 1 963.990934159231 460.456445215608 L963.99 460.45 L813.993628648553 174.888494291323 A3715.37 3715.37 0 0 0 1086.57779156337 200.085111562505 L1086.58 200.08 L1249.09 200.08 L1411.74024818363 199.24687537022 A3715.37 3715.37 0 0 0 1684.19085548005 172.645625410614 L1684.19 172.64 L1535.67212793318 458.981977752631 A383.16 383.16 0 0 1 1530.55555610412 458.739115295902 L1530.55122211592 458.734384644255 A439.04 439.04 0 0 1 1485.59684915374 472.919384272471 L1485.59689069798 472.92814225244 A214.44 214.44 0 0 1 1435.94708913784 482.707538476817 L1435.94773209736 482.69953809438 A2016.78 2016.78 0 0 1 1294.399982339 496.930707969914 L1294.4 496.93 Z" style="fill:rgb(0,0,255);" />
<path d=" M1090 968.34 L1122 968.34 L1122 1000.34 L1090 1000.34 Z" style="fill:rgb(255,255,255);" />
<path d=" M1474 968.34 L1506 968.34 L1506 1000.34 L1474 1000.34 Z" style="fill:rgb(255,255,255);" />
<path d=" M1290 432.06 A40 40 0 0 1 1210 432.06 A40 40 0 0 1 1290 432.06 Z" style="fill:rgb(255,255,255);" />
</g>
</svg>
