<?xml version="1.0" encoding="UTF-8"?>
<!DOCTYPE svg PUBLIC '-//W3C//DTD SVG 1.0//EN' 'http://www.w3.org/TR/2001/REC-SVG-20010904/DTD/svg10.dtd'>
<svg xmlns:xlink="http://www.w3.org/1999/xlink" xmlns="http://www.w3.org/2000/svg" width="2500" height="3000">
<!--Gegenereerd door de SIMaD-toepassing (http://www.dlw.be).-->
<g style="stroke:none;fill-rule:evenodd;" transform="matrix(1,0,0,-1,0,3000)">
<path d=" M65 0 L2435 0 A65 65 0 0 1 2500 65 L2500 2935 A65 65 0 0 1 2435 3000 L65 3000 A65 65 0 0 1 0 2935 L0 65 A65 65 0 0 1 65 0 Z" style="fill:rgb(0,0,255);" />
<path d=" M195 45 L2305 45 A150 150 0 0 1 2455 195 L2455 2805 A150 150 0 0 1 2305 2955 L195 2955 A150 150 0 0 1 45 2805 L45 195 A150 150 0 0 1 195 45 Z" style="fill:rgb(255,255,255);" />
<path d=" M195 90 L2305 90 A105 105 0 0 1 2410 195 L2410 2805 A105 105 0 0 1 2305 2910 L195 2910 A105 105 0 0 1 90 2805 L90 195 A105 105 0 0 1 195 90 Z" style="fill:rgb(0,0,255);" />
<path d=" M2434.99999546214 1.56319401867222E-13 A65 65 0 0 1 2500 65.0000045378561 L2500 2934.9999875209 A65 65 0 0 1 2435.00000453786 3000 L65.0000045378561 3000 A65 65 0 0 1 1.56319401867222E-13 2934.99999546214 L1.56319401867222E-13 65.0000045378561 A65 65 0 0 1 65.0000045378561 1.56319401867222E-13 Z" style="fill:rgb(0,0,255);" />
<path d=" M2305 2955 L195.000010471976 2955 A150 150 0 0 1 45.0000000000004 2804.99998952802 L45.0000000000004 195.000010471976 A150 150 0 0 1 195.000010471976 45.0000000000004 L2304.99998952802 45.0000000000004 A150 150 0 0 1 2455 195.000010471976 L2455 2804.99997120207 A150 150 0 0 1 2305.00001047198 2955 Z" style="fill:rgb(255,255,255);" />
<path d=" M1170.84 1801.2 L1170.84710425252 1828.78398725837 A75 75 0 0 0 1070.3569747502 1833.82700807182 L1070.35 1833.83 L1070.35389259337 1833.33386297563 A85.71 85.71 0 1 0 1216.67 1893.93999551223 L1216.68 1893.94 L1216.66999999999 1805.37004637357 A85.71 85.71 0 0 0 1049.74077372721 1777.99042031641 L1049.74 1777.98 L1098.53260247036 1777.98624783766 A39.88 39.88 0 0 1 1170.84 1801.19999582378 Z M1170.84 1893.94 L1170.84 1898.10000696037 A39.88 39.88 0 0 1 1091.08 1898.09999303963 L1091.08 1893.94000696037 A39.88 39.88 0 0 1 1170.84 1893.93999303963 Z" style="fill:rgb(0,0,0);" />
<path d=" M212.54 2161.74 L212.54 2203.4 L235.530034906585 2203.40000000002 A31.25 31.25 0 0 1 266.77999999999 2234.64997491089 A35.19 35.19 0 0 1 196.709765556185 2239.30889956368 L196.71 2239.31 L150.870000000002 2239.31001546501 A68.16 68.16 0 0 0 199.444343318613 2304.59543216031 L199.447254738183 2304.59244503013 A111.86 111.86 0 0 0 263.732793881513 2304.5924304442 L263.735681749192 2304.59542463996 A68.16 68.16 0 0 0 281.142396005478 2182.0618713164 L281.142825611468 2182.07057069453 A70.39 70.39 0 0 0 271.474851351698 2054.5917396387 L271.469385543499 2054.60131880281 A114.32 114.32 0 0 0 191.71059949712 2054.60132437102 L191.705058841983 2054.59177306668 A70.39 70.39 0 0 0 145.870000000007 2120.55996805803 L145.88 2120.56 L192.890913188493 2120.85697970751 A39.88 39.88 0 0 1 271.47 2130.48999860793 A31.25 31.25 0 0 1 240.220034906585 2161.73999999998 Z" style="fill:rgb(0,0,0);" />
<path d=" M1441.95 1402.87 L1473.95 1402.87 L1473.95 1434.87 L1441.95 1434.87 Z" style="fill:rgb(0,0,255);" />
<path d=" M1378 1402.87 L1410 1402.87 L1410 1434.87 L1378 1434.87 Z" style="fill:rgb(0,0,255);" />
<path d=" M1505.84 1402.87 L1537.84 1402.87 L1537.84 1434.87 L1505.84 1434.87 Z" style="fill:rgb(0,0,255);" />
<path d=" M2306.5 1402.87 L2338.5 1402.87 L2338.5 1434.87 L2306.5 1434.87 Z" style="fill:rgb(0,0,255);" />
<path d=" M1954 1402.87 L1986 1402.87 L1986 1434.87 L1954 1434.87 Z" style="fill:rgb(0,0,255);" />
<path d=" M1794 1402.87 L1826 1402.87 L1826 1434.87 L1794 1434.87 Z" style="fill:rgb(0,0,255);" />
<path d=" M1634 1402.87 L1666 1402.87 L1666 1434.87 L1634 1434.87 Z" style="fill:rgb(0,0,255);" />
<path d=" M323.24 1402.87 L355.24 1402.87 L355.24 1434.87 L323.24 1434.87 Z" style="fill:rgb(0,0,255);" />
<path d=" M98 1402.87 L130 1402.87 L130 1434.87 L98 1434.87 Z" style="fill:rgb(0,0,255);" />
<path d=" M90 195 L90 1402.87 L2410 1402.87 L2410 195.000020158553 A105 105 0 0 0 2305.00000733038 90.0000000000003 L195.000007330383 90.0000000000003 A105 105 0 0 0 90.0000000000003 195.000007330383 Z" style="fill:rgb(0,0,255);" />
<path d=" M2410 2463.45 L2410 2804.99997984145 A105 105 0 0 1 2305.00000733038 2910 L195.000007330383 2910 A105 105 0 0 1 90.0000000000003 2804.99999266962 L90.0000000000001 2463.45000418879 A60 60 0 0 1 150.00000418879 2403.45 L2349.99999581121 2403.45 A60 60 0 0 1 2410 2463.45000418879 Z" style="fill:rgb(0,0,255);" />
<path d=" M1932.84 2054.44 L1988 2054.44 L2151.31 2239.3 L2314.62 2054.44 L2369.78 2054.44 L2151.31 2297.02 Z" style="fill:rgb(0,0,0);" />
<path d=" M556.56 2054.44 L602.4 2054.44 L602.4 2262.77 L665.2 2262.77 L665.2 2304.44 L493.77 2304.44 L493.77 2262.77 L556.56 2262.77 Z" style="fill:rgb(0,0,0);" />
<path d=" M710.2 2054.44 L863.77 2054.44 L863.77 2096.1 L756.03 2096.1 L756.03 2162.77 L828.05 2162.77 L828.05 2204.44 L756.03 2204.44 L756.03 2262.77 L863.77 2262.77 L863.77 2304.44 L710.2 2304.44 Z" style="fill:rgb(0,0,0);" />
<path d=" M913.77 2054.44 L959.6 2054.44 L959.6 2148.1 L1033.41 2054.44 L1091.76 2054.44 L989.98 2183.6 L1085.2 2304.44 L1026.84 2304.44 L959.6 2219.11 L959.6 2304.44 L913.77 2304.44 Z" style="fill:rgb(0,0,0);" />
<path d=" M1136.76 2054.44 L1290.33 2054.44 L1290.33 2096.1 L1182.6 2096.1 L1182.6 2162.77 L1254.62 2162.77 L1254.62 2204.44 L1182.6 2204.44 L1182.6 2262.77 L1290.33 2262.77 L1290.33 2304.44 L1136.76 2304.44 Z" style="fill:rgb(0,0,0);" />
<path d=" M1340.33 2054.44 L1382 2054.44 L1382 2220.48 L1458.19 2054.44 L1511.76 2054.44 L1511.76 2304.44 L1470.1 2304.44 L1470.1 2138.39 L1393.91 2304.44 L1340.33 2304.44 Z" style="fill:rgb(0,0,0);" />
<path d=" M1566.76 2117.17 L1566.76 2125.87 L1612.6 2125.87 L1612.6 2117.16999615836 A20.01 20.01 0 0 1 1626.52792108916 2098.10672598628 L1626.53166578264 2098.10906583996 A85.37 85.37 0 0 1 1678.42833421736 2098.10906583996 L1678.4220938831 2098.10673076314 A20.01 20.01 0 0 1 1680.79660281212 2135.30521350517 L1680.8 2135.31 L1609.45604629697 2186.90357176677 A62.69 62.69 0 0 0 1620.33767881047 2304.43483778348 L1620.33619254618 2304.44336212427 A129.07 129.07 0 0 0 1684.62386636026 2304.44334697685 L1684.62242185853 2304.43481189719 A62.69 62.69 0 0 0 1731.7 2243.7200186005 L1685.87 2243.7199929377 A16.86 16.86 0 0 1 1673.20885412417 2260.0487851368 L1673.20777278992 2260.0476443966 A83.23 83.23 0 0 1 1631.75225956806 2260.04765271726 L1631.7511820697 2260.04879444381 A16.86 16.86 0 0 1 1628.8246545069 2228.43965145673 L1628.82 2228.45 L1700.16946357494 2176.85034397631 A65.85 65.85 0 0 0 1692.35527113796 2054.43554837034 L1692.36144193089 2054.43786126025 A131.21 131.21 0 0 0 1612.59850570834 2054.43787796575 L1612.59474090619 2054.43554452769 A65.85 65.85 0 0 0 1566.76 2117.17001034369 Z" style="fill:rgb(0,0,0);" />
<path d=" M163.58 1724.65 L205.25 1724.65 L205.25 1877.09 L249.89 1724.65 L293.31 1724.65 L335.01 1867.05 L335.01 1724.65 L380.84 1724.65 L380.84 1974.65 L327.27 1974.65 L272.21 1786.64 L217.15 1974.65 L163.58 1974.65 Z" style="fill:rgb(0,0,0);" />
<path d=" M489.68 1724.65 L514.769990545377 1724.65 A41.67 41.67 0 0 1 544.534295180052 1737.1570846376 L544.53 1737.16 L544.53 1724.65 L586.2 1724.65 L586.199999999994 1836.79002992053 A71.43 71.43 0 0 1 444.506701932029 1849.64744315996 L444.51 1849.65 L485.821982340229 1849.65433730126 A29.76 29.76 0 0 0 538.427892471664 1860.80441009281 L538.428934818036 1860.79687373095 A20.83 20.83 0 0 0 521.870003271969 1827.33 L489.67999103948 1827.33 A51.34 51.34 0 0 1 489.68000896052 1724.65 Z M495.64 1760.37 L523.700023267333 1760.37000000001 A20.83 20.83 0 0 1 544.529999999993 1781.1999832766 L544.528307067893 1807.59051519282 A35.71 35.71 0 0 0 514.770043004738 1791.62000000003 L495.63999727205 1791.62 A15.63 15.63 0 0 1 495.64000272795 1760.36 Z" style="fill:rgb(0,0,0);" />
<path d=" M626.2 1724.65 L674.18 1724.65 L704.77 1778.19 L735.36 1724.65 L783.34 1724.65 L728.77 1820.19 L783.34 1903.22 L733.48 1903.22 L704.77 1859.54 L676.06 1903.22 L626.2 1903.22 L680.78 1820.19 Z" style="fill:rgb(0,0,0);" />
<path d=" M866.67 1745.48 A20.83 20.83 0 0 1 825.01 1745.48 A20.83 20.83 0 0 1 866.67 1745.48 Z" style="fill:rgb(0,0,0);" />
<path d=" M1274.18 1893.94 L1274.18 1805.3700134633 A85.71 85.71 0 0 1 1445.6 1805.3699865367 L1445.61 1805.37 L1445.6 1893.94 A85.71 85.71 0 0 1 1274.18 1893.94 Z M1320.01 1898.1 L1320.01 1801.20000696037 A39.88 39.88 0 0 1 1399.77 1801.19999303963 L1399.77 1898.1 A39.88 39.88 0 0 1 1320.01 1898.1 Z" style="fill:rgb(0,0,0);" />
<path d=" M1508.93 1724.65 L1550.6 1724.65 L1550.6 1789.05 L1604.57 1724.65 L1658.93 1724.65 L1580.36 1818.4 L1658.93 1903.22 L1602.14 1903.22 L1550.6 1847.59 L1550.6 1974.65 L1508.93 1974.65 Z" style="fill:rgb(0,0,0);" />
<path d=" M1696.43 1724.65 L1738.1 1724.65 L1738.1 1842.7499948059 A29.76 29.76 0 0 0 1797.62 1842.7500051941 L1797.62 1724.65 L1839.29 1724.65 L1839.29 1842.7499948059 A29.76 29.76 0 0 0 1898.81 1842.7500051941 L1898.81 1724.65 L1940.48 1724.65 L1940.48 1849.42000410501 A58.8 58.8 0 0 1 1831.08410281798 1879.37822405194 L1831.08591600532 1879.3781922616 A58.8 58.8 0 0 1 1738.09818479965 1890.16768710025 L1738.1 1890.17 L1738.1 1903.22 L1696.43 1903.22 Z" style="fill:rgb(0,0,0);" />
<path d=" M1962.32 1724.65 L2008.75 1724.65 L2151.61 1974.65 L2105.18 1974.65 Z" style="fill:rgb(0,0,0);" />
<path d=" M2234.98 1724.65 L2276.65 1724.65 L2276.65 1903.22 L2234.98 1903.22 L2234.98 1785.12999428649 A29.76 29.76 0 1 0 2175.46 1785.13000571351 L2175.46 1903.22 L2133.79 1903.22 L2133.79 1778.4499846062 A58.8 58.8 0 0 1 2234.9817583058 1737.70225370965 L2234.98 1737.7 Z" style="fill:rgb(0,0,0);" />
<path d=" M2351.96 1585.11 A20.83 20.83 0 0 1 2310.3 1585.11 A20.83 20.83 0 0 1 2351.96 1585.11 Z" style="fill:rgb(0,0,0);" />
<path d=" M2146 1402.87 L2178 1402.87 L2178 1434.87 L2146 1434.87 Z" style="fill:rgb(0,0,255);" />
<path d=" M1890 1402.87 L1922 1402.87 L1922 1434.87 L1890 1434.87 Z" style="fill:rgb(0,0,255);" />
<path d=" M2018 1402.87 L2050 1402.87 L2050 1434.87 L2018 1434.87 Z" style="fill:rgb(0,0,255);" />
<path d=" M2082 1402.87 L2114 1402.87 L2114 1434.87 L2082 1434.87 Z" style="fill:rgb(0,0,255);" />
<path d=" M2242 1402.87 L2274 1402.87 L2274 1434.87 L2242 1434.87 Z" style="fill:rgb(0,0,255);" />
<path d=" M2370 1402.87 L2402 1402.87 L2402 1434.87 L2370 1434.87 Z" style="fill:rgb(0,0,255);" />
<path d=" M1122 1402.87 L1154 1402.87 L1154 1434.87 L1122 1434.87 Z" style="fill:rgb(0,0,255);" />
<path d=" M1730 1402.87 L1762 1402.87 L1762 1434.87 L1730 1434.87 Z" style="fill:rgb(0,0,255);" />
<path d=" M930 1402.87 L962 1402.87 L962 1434.87 L930 1434.87 Z" style="fill:rgb(0,0,255);" />
<path d=" M130 1434.87 L162 1434.87 L162 1466.87 L130 1466.87 Z" style="fill:rgb(0,0,255);" />
<path d=" M226 1434.87 L258 1434.87 L258 1466.87 L226 1466.87 Z" style="fill:rgb(0,0,255);" />
<path d=" M290 1434.87 L322 1434.87 L322 1466.87 L290 1466.87 Z" style="fill:rgb(0,0,255);" />
<path d=" M354 1434.87 L386 1434.87 L386 1466.87 L354 1466.87 Z" style="fill:rgb(0,0,255);" />
<path d=" M418 1434.87 L450 1434.87 L450 1466.87 L418 1466.87 Z" style="fill:rgb(0,0,255);" />
<path d=" M514 1434.87 L546 1434.87 L546 1466.87 L514 1466.87 Z" style="fill:rgb(0,0,255);" />
<path d=" M578 1434.87 L610 1434.87 L610 1466.87 L578 1466.87 Z" style="fill:rgb(0,0,255);" />
<path d=" M642 1434.87 L674 1434.87 L674 1466.87 L642 1466.87 Z" style="fill:rgb(0,0,255);" />
<path d=" M738 1434.87 L770 1434.87 L770 1466.87 L738 1466.87 Z" style="fill:rgb(0,0,255);" />
<path d=" M834 1434.87 L866 1434.87 L866 1466.87 L834 1466.87 Z" style="fill:rgb(0,0,255);" />
<path d=" M898 1434.87 L930 1434.87 L930 1466.87 L898 1466.87 Z" style="fill:rgb(0,0,255);" />
<path d=" M994 1434.87 L1026 1434.87 L1026 1466.87 L994 1466.87 Z" style="fill:rgb(0,0,255);" />
<path d=" M1090 1434.87 L1122 1434.87 L1122 1466.87 L1090 1466.87 Z" style="fill:rgb(0,0,255);" />
<path d=" M1154 1434.87 L1186 1434.87 L1186 1466.87 L1154 1466.87 Z" style="fill:rgb(0,0,255);" />
<path d=" M1258 1434.87 L1290 1434.87 L1290 1466.87 L1258 1466.87 Z" style="fill:rgb(0,0,255);" />
<path d=" M1346 1434.87 L1378 1434.87 L1378 1466.87 L1346 1466.87 Z" style="fill:rgb(0,0,255);" />
<path d=" M1474 1434.87 L1506 1434.87 L1506 1466.87 L1474 1466.87 Z" style="fill:rgb(0,0,255);" />
<path d=" M1538 1434.87 L1570 1434.87 L1570 1466.87 L1538 1466.87 Z" style="fill:rgb(0,0,255);" />
<path d=" M1602 1434.87 L1634 1434.87 L1634 1466.87 L1602 1466.87 Z" style="fill:rgb(0,0,255);" />
<path d=" M1698 1434.87 L1730 1434.87 L1730 1466.87 L1698 1466.87 Z" style="fill:rgb(0,0,255);" />
<path d=" M1762 1434.87 L1794 1434.87 L1794 1466.87 L1762 1466.87 Z" style="fill:rgb(0,0,255);" />
<path d=" M1858 1434.87 L1890 1434.87 L1890 1466.87 L1858 1466.87 Z" style="fill:rgb(0,0,255);" />
<path d=" M1922 1434.87 L1954 1434.87 L1954 1466.87 L1922 1466.87 Z" style="fill:rgb(0,0,255);" />
<path d=" M2018 1434.87 L2050 1434.87 L2050 1466.87 L2018 1466.87 Z" style="fill:rgb(0,0,255);" />
<path d=" M2114 1434.87 L2146 1434.87 L2146 1466.87 L2114 1466.87 Z" style="fill:rgb(0,0,255);" />
<path d=" M2210 1434.87 L2242 1434.87 L2242 1466.87 L2210 1466.87 Z" style="fill:rgb(0,0,255);" />
<path d=" M2274 1434.87 L2306 1434.87 L2306 1466.87 L2274 1466.87 Z" style="fill:rgb(0,0,255);" />
<path d=" M2370 1434.87 L2402 1434.87 L2402 1466.87 L2370 1466.87 Z" style="fill:rgb(0,0,255);" />
<path d=" M2274 1466.87 L2306 1466.87 L2306 1498.87 L2274 1498.87 Z" style="fill:rgb(0,0,255);" />
<path d=" M2178 1466.87 L2210 1466.87 L2210 1498.87 L2178 1498.87 Z" style="fill:rgb(0,0,255);" />
<path d=" M2082 1466.87 L2114 1466.87 L2114 1498.87 L2082 1498.87 Z" style="fill:rgb(0,0,255);" />
<path d=" M1986 1466.87 L2018 1466.87 L2018 1498.87 L1986 1498.87 Z" style="fill:rgb(0,0,255);" />
<path d=" M1922 1466.87 L1954 1466.87 L1954 1498.87 L1922 1498.87 Z" style="fill:rgb(0,0,255);" />
<path d=" M1826 1466.87 L1858 1466.87 L1858 1498.87 L1826 1498.87 Z" style="fill:rgb(0,0,255);" />
<path d=" M1666 1466.87 L1698 1466.87 L1698 1498.87 L1666 1498.87 Z" style="fill:rgb(0,0,255);" />
<path d=" M1602 1466.87 L1634 1466.87 L1634 1498.87 L1602 1498.87 Z" style="fill:rgb(0,0,255);" />
<path d=" M1474 1466.87 L1506 1466.87 L1506 1498.87 L1474 1498.87 Z" style="fill:rgb(0,0,255);" />
<path d=" M1410 1466.87 L1442 1466.87 L1442 1498.87 L1410 1498.87 Z" style="fill:rgb(0,0,255);" />
<path d=" M1314 1466.87 L1346 1466.87 L1346 1498.87 L1314 1498.87 Z" style="fill:rgb(0,0,255);" />
<path d=" M1218 1466.87 L1250 1466.87 L1250 1498.87 L1218 1498.87 Z" style="fill:rgb(0,0,255);" />
<path d=" M1122 1466.87 L1154 1466.87 L1154 1498.87 L1122 1498.87 Z" style="fill:rgb(0,0,255);" />
<path d=" M1026 1466.87 L1058 1466.87 L1058 1498.87 L1026 1498.87 Z" style="fill:rgb(0,0,255);" />
<path d=" M930 1466.87 L962 1466.87 L962 1498.87 L930 1498.87 Z" style="fill:rgb(0,0,255);" />
<path d=" M834 1466.87 L866 1466.87 L866 1498.87 L834 1498.87 Z" style="fill:rgb(0,0,255);" />
<path d=" M770 1466.87 L802 1466.87 L802 1498.87 L770 1498.87 Z" style="fill:rgb(0,0,255);" />
<path d=" M674 1466.87 L706 1466.87 L706 1498.87 L674 1498.87 Z" style="fill:rgb(0,0,255);" />
<path d=" M546 1466.87 L578 1466.87 L578 1498.87 L546 1498.87 Z" style="fill:rgb(0,0,255);" />
<path d=" M450 1466.87 L482 1466.87 L482 1498.87 L450 1498.87 Z" style="fill:rgb(0,0,255);" />
<path d=" M354 1466.87 L386 1466.87 L386 1498.87 L354 1498.87 Z" style="fill:rgb(0,0,255);" />
<path d=" M258 1466.87 L290 1466.87 L290 1498.87 L258 1498.87 Z" style="fill:rgb(0,0,255);" />
<path d=" M98 1466.87 L130 1466.87 L130 1498.87 L98 1498.87 Z" style="fill:rgb(0,0,255);" />
<path d=" M162 1498.87 L194 1498.87 L194 1530.87 L162 1530.87 Z" style="fill:rgb(0,0,255);" />
<path d=" M290 1498.87 L322 1498.87 L322 1530.87 L290 1530.87 Z" style="fill:rgb(0,0,255);" />
<path d=" M386 1498.87 L418 1498.87 L418 1530.87 L386 1530.87 Z" style="fill:rgb(0,0,255);" />
<path d=" M482 1498.87 L514 1498.87 L514 1530.87 L482 1530.87 Z" style="fill:rgb(0,0,255);" />
<path d=" M610 1498.87 L642 1498.87 L642 1530.87 L610 1530.87 Z" style="fill:rgb(0,0,255);" />
<path d=" M706 1498.87 L738 1498.87 L738 1530.87 L706 1530.87 Z" style="fill:rgb(0,0,255);" />
<path d=" M866 1498.87 L898 1498.87 L898 1530.87 L866 1530.87 Z" style="fill:rgb(0,0,255);" />
<path d=" M962 1498.87 L994 1498.87 L994 1530.87 L962 1530.87 Z" style="fill:rgb(0,0,255);" />
<path d=" M1058 1498.87 L1090 1498.87 L1090 1530.87 L1058 1530.87 Z" style="fill:rgb(0,0,255);" />
<path d=" M1154 1498.87 L1186 1498.87 L1186 1530.87 L1154 1530.87 Z" style="fill:rgb(0,0,255);" />
<path d=" M1258 1498.87 L1290 1498.87 L1290 1530.87 L1258 1530.87 Z" style="fill:rgb(0,0,255);" />
<path d=" M1346 1498.87 L1378 1498.87 L1378 1530.87 L1346 1530.87 Z" style="fill:rgb(0,0,255);" />
<path d=" M1506 1498.87 L1538 1498.87 L1538 1530.87 L1506 1530.87 Z" style="fill:rgb(0,0,255);" />
<path d=" M1570 1498.87 L1602 1498.87 L1602 1530.87 L1570 1530.87 Z" style="fill:rgb(0,0,255);" />
<path d=" M1698 1498.87 L1730 1498.87 L1730 1530.87 L1698 1530.87 Z" style="fill:rgb(0,0,255);" />
<path d=" M1762 1498.87 L1794 1498.87 L1794 1530.87 L1762 1530.87 Z" style="fill:rgb(0,0,255);" />
<path d=" M1890 1498.87 L1922 1498.87 L1922 1530.87 L1890 1530.87 Z" style="fill:rgb(0,0,255);" />
<path d=" M2018 1498.87 L2050 1498.87 L2050 1530.87 L2018 1530.87 Z" style="fill:rgb(0,0,255);" />
<path d=" M2114 1498.87 L2146 1498.87 L2146 1530.87 L2114 1530.87 Z" style="fill:rgb(0,0,255);" />
<path d=" M2274 1498.87 L2306 1498.87 L2306 1530.87 L2274 1530.87 Z" style="fill:rgb(0,0,255);" />
<path d=" M2338 1530.87 L2370 1530.87 L2370 1562.87 L2338 1562.87 Z" style="fill:rgb(0,0,255);" />
<path d=" M2210 1530.87 L2242 1530.87 L2242 1562.87 L2210 1562.87 Z" style="fill:rgb(0,0,255);" />
<path d=" M2082 1530.87 L2114 1530.87 L2114 1562.87 L2082 1562.87 Z" style="fill:rgb(0,0,255);" />
<path d=" M1954 1530.87 L1986 1530.87 L1986 1562.87 L1954 1562.87 Z" style="fill:rgb(0,0,255);" />
<path d=" M1826 1530.87 L1858 1530.87 L1858 1562.87 L1826 1562.87 Z" style="fill:rgb(0,0,255);" />
<path d=" M1698 1530.87 L1730 1530.87 L1730 1562.87 L1698 1562.87 Z" style="fill:rgb(0,0,255);" />
<path d=" M1602 1530.87 L1634 1530.87 L1634 1562.87 L1602 1562.87 Z" style="fill:rgb(0,0,255);" />
<path d=" M1410 1530.87 L1442 1530.87 L1442 1562.87 L1410 1562.87 Z" style="fill:rgb(0,0,255);" />
<path d=" M1346 1530.87 L1378 1530.87 L1378 1562.87 L1346 1562.87 Z" style="fill:rgb(0,0,255);" />
<path d=" M1186 1530.87 L1218 1530.87 L1218 1562.87 L1186 1562.87 Z" style="fill:rgb(0,0,255);" />
<path d=" M1026 1530.87 L1058 1530.87 L1058 1562.87 L1026 1562.87 Z" style="fill:rgb(0,0,255);" />
<path d=" M930 1530.87 L962 1530.87 L962 1562.87 L930 1562.87 Z" style="fill:rgb(0,0,255);" />
<path d=" M802 1530.87 L834 1530.87 L834 1562.87 L802 1562.87 Z" style="fill:rgb(0,0,255);" />
<path d=" M674 1530.87 L706 1530.87 L706 1562.87 L674 1562.87 Z" style="fill:rgb(0,0,255);" />
<path d=" M578 1530.87 L610 1530.87 L610 1562.87 L578 1562.87 Z" style="fill:rgb(0,0,255);" />
<path d=" M450 1530.87 L482 1530.87 L482 1562.87 L450 1562.87 Z" style="fill:rgb(0,0,255);" />
<path d=" M354 1530.87 L386 1530.87 L386 1562.87 L354 1562.87 Z" style="fill:rgb(0,0,255);" />
<path d=" M130 1530.87 L162 1530.87 L162 1562.87 L130 1562.87 Z" style="fill:rgb(0,0,255);" />
<path d=" M2306 1562.87 L2338 1562.87 L2338 1594.87 L2306 1594.87 Z" style="fill:rgb(0,0,255);" />
<path d=" M2370 1594.87 L2402 1594.87 L2402 1626.87 L2370 1626.87 Z" style="fill:rgb(0,0,255);" />
<path d=" M2146 1562.87 L2178 1562.87 L2178 1594.87 L2146 1594.87 Z" style="fill:rgb(0,0,255);" />
<path d=" M2018 1594.87 L2050 1594.87 L2050 1626.87 L2018 1626.87 Z" style="fill:rgb(0,0,255);" />
<path d=" M1890 1562.87 L1922 1562.87 L1922 1594.87 L1890 1594.87 Z" style="fill:rgb(0,0,255);" />
<path d=" M1762 1562.87 L1794 1562.87 L1794 1594.87 L1762 1594.87 Z" style="fill:rgb(0,0,255);" />
<path d=" M1698 1594.87 L1730 1594.87 L1730 1626.87 L1698 1626.87 Z" style="fill:rgb(0,0,255);" />
<path d=" M1602 1594.87 L1634 1594.87 L1634 1626.87 L1602 1626.87 Z" style="fill:rgb(0,0,255);" />
<path d=" M1538 1562.87 L1570 1562.87 L1570 1594.87 L1538 1594.87 Z" style="fill:rgb(0,0,255);" />
<path d=" M1410 1562.87 L1442 1562.87 L1442 1594.87 L1410 1594.87 Z" style="fill:rgb(0,0,255);" />
<path d=" M1410 1594.87 L1442 1594.87 L1442 1626.87 L1410 1626.87 Z" style="fill:rgb(0,0,255);" />
<path d=" M1346 1594.87 L1378 1594.87 L1378 1626.87 L1346 1626.87 Z" style="fill:rgb(0,0,255);" />
<path d=" M1258 1562.87 L1290 1562.87 L1290 1594.87 L1258 1594.87 Z" style="fill:rgb(0,0,255);" />
<path d=" M1154 1594.87 L1186 1594.87 L1186 1626.87 L1154 1626.87 Z" style="fill:rgb(0,0,255);" />
<path d=" M1122 1562.87 L1154 1562.87 L1154 1594.87 L1122 1594.87 Z" style="fill:rgb(0,0,255);" />
<path d=" M898 1562.87 L930 1562.87 L930 1594.87 L898 1594.87 Z" style="fill:rgb(0,0,255);" />
<path d=" M738 1562.87 L770 1562.87 L770 1594.87 L738 1594.87 Z" style="fill:rgb(0,0,255);" />
<path d=" M674 1562.87 L706 1562.87 L706 1594.87 L674 1594.87 Z" style="fill:rgb(0,0,255);" />
<path d=" M514 1562.87 L546 1562.87 L546 1594.87 L514 1594.87 Z" style="fill:rgb(0,0,255);" />
<path d=" M322 1562.87 L354 1562.87 L354 1594.87 L322 1594.87 Z" style="fill:rgb(0,0,255);" />
<path d=" M162 1594.87 L194 1594.87 L194 1626.87 L162 1626.87 Z" style="fill:rgb(0,0,255);" />
<path d=" M226 1562.87 L258 1562.87 L258 1594.87 L226 1594.87 Z" style="fill:rgb(0,0,255);" />
<path d=" M226 1626.87 L258 1626.87 L258 1658.87 L226 1658.87 Z" style="fill:rgb(0,0,255);" />
<path d=" M418 1594.87 L450 1594.87 L450 1626.87 L418 1626.87 Z" style="fill:rgb(0,0,255);" />
<path d=" M546 1626.87 L578 1626.87 L578 1658.87 L546 1658.87 Z" style="fill:rgb(0,0,255);" />
<path d=" M610 1594.87 L642 1594.87 L642 1626.87 L610 1626.87 Z" style="fill:rgb(0,0,255);" />
<path d=" M802 1594.87 L834 1594.87 L834 1626.87 L802 1626.87 Z" style="fill:rgb(0,0,255);" />
<path d=" M866 1626.87 L898 1626.87 L898 1658.87 L866 1658.87 Z" style="fill:rgb(0,0,255);" />
<path d=" M994 1594.87 L1026 1594.87 L1026 1626.87 L994 1626.87 Z" style="fill:rgb(0,0,255);" />
<path d=" M1026 1626.87 L1058 1626.87 L1058 1658.87 L1026 1658.87 Z" style="fill:rgb(0,0,255);" />
<path d=" M1250 1626.87 L1282 1626.87 L1282 1658.87 L1250 1658.87 Z" style="fill:rgb(0,0,255);" />
<path d=" M1474 1626.87 L1506 1626.87 L1506 1658.87 L1474 1658.87 Z" style="fill:rgb(0,0,255);" />
<path d=" M1666 1626.87 L1698 1626.87 L1698 1658.87 L1666 1658.87 Z" style="fill:rgb(0,0,255);" />
<path d=" M1858 1626.87 L1890 1626.87 L1890 1658.87 L1858 1658.87 Z" style="fill:rgb(0,0,255);" />
<path d=" M1954 1594.87 L1986 1594.87 L1986 1626.87 L1954 1626.87 Z" style="fill:rgb(0,0,255);" />
<path d=" M2082 1594.87 L2114 1594.87 L2114 1626.87 L2082 1626.87 Z" style="fill:rgb(0,0,255);" />
<path d=" M2210 1626.87 L2242 1626.87 L2242 1658.87 L2210 1658.87 Z" style="fill:rgb(0,0,255);" />
<path d=" M2114 1658.87 L2146 1658.87 L2146 1690.87 L2114 1690.87 Z" style="fill:rgb(0,0,255);" />
<path d=" M1762 1658.87 L1794 1658.87 L1794 1690.87 L1762 1690.87 Z" style="fill:rgb(0,0,255);" />
<path d=" M1410 1658.87 L1442 1658.87 L1442 1690.87 L1410 1690.87 Z" style="fill:rgb(0,0,255);" />
<path d=" M1090 1658.87 L1122 1658.87 L1122 1690.87 L1090 1690.87 Z" style="fill:rgb(0,0,255);" />
<path d=" M738 1658.87 L770 1658.87 L770 1690.87 L738 1690.87 Z" style="fill:rgb(0,0,255);" />
<path d=" M354 1658.87 L386 1658.87 L386 1690.87 L354 1690.87 Z" style="fill:rgb(0,0,255);" />
<path d=" M1580.21 1064.96 L1608.3 1064.96 L1608.27 1064.93 L1591.57 1088.54 L1564.96 1088.54 Z" style="fill:rgb(255,255,255);" />
<path d=" M1618.2 1007.35 L1649.03 1007.35 L1648.95 1007.29 L1626.22 1038.96 L1597.19 1038.96 Z" style="fill:rgb(255,255,255);" />
<path d=" M919.79 1064.96 L891.7 1064.96 L891.73 1064.93 L908.43 1088.54 L935.04 1088.54 Z" style="fill:rgb(255,255,255);" />
<path d=" M881.8 1007.35 L850.97 1007.35 L851.05 1007.29 L873.78 1038.96 L902.81 1038.96 Z" style="fill:rgb(255,255,255);" />
<path d=" M1249.99741290074 1196.11544040497 A1211.67 1211.67 0 0 0 1012.81323367356 1098.86413227462 L1012.81592317544 1098.86670505708 A46.07 46.07 0 0 1 1053.21859345659 1084.97398488656 L1053.21702016599 1084.96927699943 A378.93 378.93 0 0 1 1107.83724849128 1091.50724572854 L1107.84 1091.51 L1250 1146.02 L1392.16275150872 1091.50724572854 A378.93 378.93 0 0 1 1446.78297983401 1084.96927699943 L1446.78140654341 1084.97398488656 A46.07 46.07 0 0 1 1487.18407682456 1098.86670505708 L1487.18676632644 1098.86413227462 A1211.67 1211.67 0 0 0 1250.00258709926 1196.11544040497 Z" style="fill:rgb(255,255,255);" />
<path d=" M1994.25 90 L1771.23519005802 385.033358265995 A47.31 47.31 0 0 1 1745.82358792138 399.00729783637 L1745.82603347928 399.012221385229 A326.34 326.34 0 0 0 1787.94681006825 349.374626001927 L1787.94 349.37 L1979.98 90 L1943.51 90 L1724.12661358883 382.591187496591 A251.97 251.97 0 0 1 1627.32965511556 442.540017935882 L1627.33 442.54 L1574.78 444.43 L1734.11647110101 137.229965261801 A3687.35 3687.35 0 0 1 1410.8185710999 171.231280449624 L1410.82 171.24 L1249.09 172.07 L1087.35499182758 172.065134627214 A3687.35 3687.35 0 0 1 763.886134469886 139.730634486674 L763.89 139.73 L924.81 446.1 L872.251484393698 444.493516963507 A251.97 251.97 0 0 1 775.1468194824 385.044400122469 L775.15 385.04 L551.55 90 L514.96 90 L711.16171317139 352.146842078623 A326.34 326.34 0 0 0 753.537775630467 401.566676420296 L753.535934086123 401.563036360035 A47.31 47.31 0 0 1 728.052643855646 387.720261013423 L728.05 387.72 L500.58 90 L470.3 90 L678.713757769129 373.368860820026 A317.26 317.26 0 0 0 875.326364906723 482.680356482826 L875.319146565369 482.677603649802 A411.17 411.17 0 0 0 964.893071068001 488.454360882383 L964.897727452386 488.452123200063 A467.05 467.05 0 0 0 1006.48024806298 501.093551323378 L1006.48001580746 501.091252524621 A242.45 242.45 0 0 0 1060.99578725985 511.536108658566 L1060.99559635382 511.534253424449 A2044.8 2044.8 0 0 0 1204.61960718987 525.168380509903 L1204.62 525.18 L1250 525.18 L1295.37969657808 524.935998280884 A2044.8 2044.8 0 0 0 1438.93152544125 510.56177343029 L1438.93015539938 510.569788973865 A242.45 242.45 0 0 0 1493.39136694667 499.844081840567 L1493.39152856674 499.835262615452 A467.05 467.05 0 0 0 1534.90833953943 486.979675037084 L1534.91431888517 486.984171653496 A411.17 411.17 0 0 0 1624.45727143452 480.745803029811 L1624.45111219792 480.749895324884 A317.26 317.26 0 0 0 1820.49768520896 370.426454569509 L1820.5 370.43 L2024.52 90 Z" style="fill:rgb(255,255,255);" />
<path d=" M326.84 2506.73 L458.560089360858 2506.73000000005 A80 80 0 0 1 538.559999999974 2586.72993577188 L538.56 2606.72999685841 A60 60 0 0 1 499.315533968487 2663.02571750749 A60 60 0 0 1 532.559999999995 2716.72997591446 L532.559999999974 2726.73006422812 A80 80 0 0 1 452.560089360858 2806.72999999995 L326.84 2806.73 Z M381.84 2556.73 L453.560033510322 2556.73000000002 A30 30 0 0 1 483.55999999999 2586.72997591446 L483.55999999999 2606.73002408554 A30 30 0 0 1 453.560033510322 2636.72999999998 L381.84 2636.73 Z M381.84 2686.73 L447.560033510322 2686.73000000002 A30 30 0 0 1 477.55999999999 2716.72997591446 L477.55999999999 2726.73002408554 A30 30 0 0 1 447.560033510322 2756.72999999998 L381.84 2756.73 Z" style="fill:rgb(255,255,255);" />
<path d=" M630.96 2506.73 L685.96 2506.73 L685.96 2806.73 L630.96 2806.73 Z" style="fill:rgb(255,255,255);" />
<path d=" M895.47 2598.58 L895.47 2806.73 L950.47 2806.73 L950.479999999998 2603.5799802523 A102.86 102.86 0 1 0 744.760000000002 2603.5800197477 L799.76 2603.58 L799.760000000001 2598.58000835315 A47.86 47.86 0 0 1 895.479999999999 2598.57999164685 Z" style="fill:rgb(255,255,255);" />
<path d=" M1246.78 2506.73 L1296.78 2506.73 L1296.78 2689.65 L1350.35 2506.73 L1402.45 2506.73 L1452.49 2677.6 L1452.49 2506.73 L1507.49 2506.73 L1507.49 2806.73 L1443.21 2806.73 L1377.13 2581.12 L1311.06 2806.73 L1246.78 2806.73 Z" style="fill:rgb(255,255,255);" />
<path d=" M1612.49 2506.73 L1667.49 2506.73 L1667.49 2806.73 L1612.49 2806.73 Z" style="fill:rgb(255,255,255);" />
<path d=" M1759.89 2582 L1759.89 2592.44 L1814.89 2592.44 L1814.89 2581.99999538849 A24.02 24.02 0 0 1 1831.60907369123 2559.11644968468 L1831.61017523054 2559.1271628828 A102.45 102.45 0 0 1 1893.88982476946 2559.1271628828 L1893.89094388207 2559.11645529139 A24.02 24.02 0 0 1 1896.7413043252 2603.76950666637 L1896.74 2603.77 L1811.11641031936 2665.68847350477 A75.23 75.23 0 0 0 1824.17471649245 2806.72974232655 L1824.17842722207 2806.73016057804 A154.88 154.88 0 0 0 1901.32164346384 2806.73014240159 L1901.32540431356 2806.72971126218 A75.23 75.23 0 0 0 1957.82 2733.87002232119 L1957.81 2733.87 L1902.82 2733.86999152608 A20.23 20.23 0 0 1 1887.6281268643 2753.46260517898 L1887.62432351625 2753.46304724658 A99.88 99.88 0 0 1 1837.87571531488 2753.46305723176 L1837.87191656406 2753.46261634628 A20.23 20.23 0 0 1 1834.36043064499 2715.53539436356 L1834.36 2715.54 L1919.98535628993 2653.61641277158 A79.02 79.02 0 0 0 1910.60832536556 2506.71865804441 L1910.60712241459 2506.72933888747 A157.45 157.45 0 0 0 1814.89281475328 2506.72935893383 L1814.89168908742 2506.71865343323 A79.02 79.02 0 0 0 1759.89 2582.00001379159 Z" style="fill:rgb(255,255,255);" />
<path d=" M2091.36 2506.73 L2146.36 2506.73 L2146.36 2756.73 L2221.72 2756.73 L2221.72 2806.73 L2016.01 2806.73 L2016.01 2756.73 L2091.36 2756.73 Z" style="fill:rgb(255,255,255);" />
<path d=" M2018 1370.87 L2050 1370.87 L2050 1402.87 L2018 1402.87 Z" style="fill:rgb(255,255,255);" />
<path d=" M2274 1338.87 L2306 1338.87 L2306 1370.87 L2274 1370.87 Z" style="fill:rgb(255,255,255);" />
<path d=" M2370 1370.87 L2402 1370.87 L2402 1402.87 L2370 1402.87 Z" style="fill:rgb(255,255,255);" />
<path d=" M2306 1306.87 L2338 1306.87 L2338 1338.87 L2306 1338.87 Z" style="fill:rgb(255,255,255);" />
<path d=" M2370 1306.87 L2402 1306.87 L2402 1338.87 L2370 1338.87 Z" style="fill:rgb(255,255,255);" />
<path d=" M2370 1178.87 L2402 1178.87 L2402 1210.87 L2370 1210.87 Z" style="fill:rgb(255,255,255);" />
<path d=" M2338 1242.87 L2370 1242.87 L2370 1274.87 L2338 1274.87 Z" style="fill:rgb(255,255,255);" />
<path d=" M2274 1210.87 L2306 1210.87 L2306 1242.87 L2274 1242.87 Z" style="fill:rgb(255,255,255);" />
<path d=" M1506 1242.87 L1538 1242.87 L1538 1274.87 L1506 1274.87 Z" style="fill:rgb(255,255,255);" />
<path d=" M1730 1338.87 L1762 1338.87 L1762 1370.87 L1730 1370.87 Z" style="fill:rgb(255,255,255);" />
<path d=" M1730 1274.87 L1762 1274.87 L1762 1306.87 L1730 1306.87 Z" style="fill:rgb(255,255,255);" />
<path d=" M1666 1306.87 L1698 1306.87 L1698 1338.87 L1666 1338.87 Z" style="fill:rgb(255,255,255);" />
<path d=" M1634 1178.87 L1666 1178.87 L1666 1210.87 L1634 1210.87 Z" style="fill:rgb(255,255,255);" />
<path d=" M1666 1242.87 L1698 1242.87 L1698 1274.87 L1666 1274.87 Z" style="fill:rgb(255,255,255);" />
<path d=" M1570 1210.87 L1602 1210.87 L1602 1242.87 L1570 1242.87 Z" style="fill:rgb(255,255,255);" />
<path d=" M2242 1274.87 L2274 1274.87 L2274 1306.87 L2242 1306.87 Z" style="fill:rgb(255,255,255);" />
<path d=" M1666 1370.87 L1698 1370.87 L1698 1402.87 L1666 1402.87 Z" style="fill:rgb(255,255,255);" />
<path d=" M1762 1370.87 L1794 1370.87 L1794 1402.87 L1762 1402.87 Z" style="fill:rgb(255,255,255);" />
<path d=" M1794 1338.87 L1826 1338.87 L1826 1370.87 L1794 1370.87 Z" style="fill:rgb(255,255,255);" />
<path d=" M1794 1306.87 L1826 1306.87 L1826 1338.87 L1794 1338.87 Z" style="fill:rgb(255,255,255);" />
<path d=" M1954 1274.87 L1986 1274.87 L1986 1306.87 L1954 1306.87 Z" style="fill:rgb(255,255,255);" />
<path d=" M1858 1274.87 L1890 1274.87 L1890 1306.87 L1858 1306.87 Z" style="fill:rgb(255,255,255);" />
<path d=" M1890 1306.87 L1922 1306.87 L1922 1338.87 L1890 1338.87 Z" style="fill:rgb(255,255,255);" />
<path d=" M1858 1338.87 L1890 1338.87 L1890 1370.87 L1858 1370.87 Z" style="fill:rgb(255,255,255);" />
<path d=" M1922 1370.87 L1954 1370.87 L1954 1402.87 L1922 1402.87 Z" style="fill:rgb(255,255,255);" />
<path d=" M1954 1338.87 L1986 1338.87 L1986 1370.87 L1954 1370.87 Z" style="fill:rgb(255,255,255);" />
<path d=" M2018 1306.87 L2050 1306.87 L2050 1338.87 L2018 1338.87 Z" style="fill:rgb(255,255,255);" />
<path d=" M2082 1274.87 L2114 1274.87 L2114 1306.87 L2082 1306.87 Z" style="fill:rgb(255,255,255);" />
<path d=" M2114 1306.87 L2146 1306.87 L2146 1338.87 L2114 1338.87 Z" style="fill:rgb(255,255,255);" />
<path d=" M2082 1338.87 L2114 1338.87 L2114 1370.87 L2082 1370.87 Z" style="fill:rgb(255,255,255);" />
<path d=" M2114 1370.87 L2146 1370.87 L2146 1402.87 L2114 1402.87 Z" style="fill:rgb(255,255,255);" />
<path d=" M2178 1370.87 L2210 1370.87 L2210 1402.87 L2178 1402.87 Z" style="fill:rgb(255,255,255);" />
<path d=" M2210 1338.87 L2242 1338.87 L2242 1370.87 L2210 1370.87 Z" style="fill:rgb(255,255,255);" />
<path d=" M2146 1242.87 L2178 1242.87 L2178 1274.87 L2146 1274.87 Z" style="fill:rgb(255,255,255);" />
<path d=" M2082 1210.87 L2114 1210.87 L2114 1242.87 L2082 1242.87 Z" style="fill:rgb(255,255,255);" />
<path d=" M2018 1242.87 L2050 1242.87 L2050 1274.87 L2018 1274.87 Z" style="fill:rgb(255,255,255);" />
<path d=" M2018 1178.87 L2050 1178.87 L2050 1210.87 L2018 1210.87 Z" style="fill:rgb(255,255,255);" />
<path d=" M1890 1210.87 L1922 1210.87 L1922 1242.87 L1890 1242.87 Z" style="fill:rgb(255,255,255);" />
<path d=" M1794 1242.87 L1826 1242.87 L1826 1274.87 L1794 1274.87 Z" style="fill:rgb(255,255,255);" />
<path d=" M1730 1210.87 L1762 1210.87 L1762 1242.87 L1730 1242.87 Z" style="fill:rgb(255,255,255);" />
<path d=" M1434.03 1242.87 L1466.03 1242.87 L1466.03 1274.87 L1434.03 1274.87 Z" style="fill:rgb(255,255,255);" />
<path d=" M1602 1274.87 L1634 1274.87 L1634 1306.87 L1602 1306.87 Z" style="fill:rgb(255,255,255);" />
<path d=" M1570 1306.87 L1602 1306.87 L1602 1338.87 L1570 1338.87 Z" style="fill:rgb(255,255,255);" />
<path d=" M1634 1338.87 L1666 1338.87 L1666 1370.87 L1634 1370.87 Z" style="fill:rgb(255,255,255);" />
<path d=" M1570 1370.87 L1602 1370.87 L1602 1402.87 L1570 1402.87 Z" style="fill:rgb(255,255,255);" />
<path d=" M1506 1370.87 L1538 1370.87 L1538 1402.87 L1506 1402.87 Z" style="fill:rgb(255,255,255);" />
<path d=" M1538 1338.87 L1570 1338.87 L1570 1370.87 L1538 1370.87 Z" style="fill:rgb(255,255,255);" />
<path d=" M1506 1306.87 L1538 1306.87 L1538 1338.87 L1506 1338.87 Z" style="fill:rgb(255,255,255);" />
<path d=" M1474 1274.87 L1506 1274.87 L1506 1306.87 L1474 1306.87 Z" style="fill:rgb(255,255,255);" />
<path d=" M1314 1338.87 L1346 1338.87 L1346 1370.87 L1314 1370.87 Z" style="fill:rgb(255,255,255);" />
<path d=" M1346 1370.87 L1378 1370.87 L1378 1402.87 L1346 1402.87 Z" style="fill:rgb(255,255,255);" />
<path d=" M1410 1338.87 L1442 1338.87 L1442 1370.87 L1410 1370.87 Z" style="fill:rgb(255,255,255);" />
<path d=" M1346 1306.87 L1378 1306.87 L1378 1338.87 L1346 1338.87 Z" style="fill:rgb(255,255,255);" />
<path d=" M1346 1274.87 L1378 1274.87 L1378 1306.87 L1346 1306.87 Z" style="fill:rgb(255,255,255);" />
<path d=" M1410 1242.87 L1442 1242.87 L1442 1274.87 L1410 1274.87 Z" style="fill:rgb(255,255,255);" />
<path d=" M1346 1210.87 L1378 1210.87 L1378 1242.87 L1346 1242.87 Z" style="fill:rgb(255,255,255);" />
<path d=" M1186 1274.87 L1218 1274.87 L1218 1306.87 L1186 1306.87 Z" style="fill:rgb(255,255,255);" />
<path d=" M1258 1242.87 L1290 1242.87 L1290 1274.87 L1258 1274.87 Z" style="fill:rgb(255,255,255);" />
<path d=" M1250 1370.87 L1282 1370.87 L1282 1402.87 L1250 1402.87 Z" style="fill:rgb(255,255,255);" />
<path d=" M1250 1306.87 L1282 1306.87 L1282 1338.87 L1250 1338.87 Z" style="fill:rgb(255,255,255);" />
<path d=" M1218 1338.87 L1250 1338.87 L1250 1370.87 L1218 1370.87 Z" style="fill:rgb(255,255,255);" />
<path d=" M1186 1370.87 L1218 1370.87 L1218 1402.87 L1186 1402.87 Z" style="fill:rgb(255,255,255);" />
<path d=" M1122 1306.87 L1154 1306.87 L1154 1338.87 L1122 1338.87 Z" style="fill:rgb(255,255,255);" />
<path d=" M1122 1338.87 L1154 1338.87 L1154 1370.87 L1122 1370.87 Z" style="fill:rgb(255,255,255);" />
<path d=" M1090 1370.87 L1122 1370.87 L1122 1402.87 L1090 1402.87 Z" style="fill:rgb(255,255,255);" />
<path d=" M994 1306.87 L1026 1306.87 L1026 1338.87 L994 1338.87 Z" style="fill:rgb(255,255,255);" />
<path d=" M1026 1338.87 L1058 1338.87 L1058 1370.87 L1026 1370.87 Z" style="fill:rgb(255,255,255);" />
<path d=" M994 1370.87 L1026 1370.87 L1026 1402.87 L994 1402.87 Z" style="fill:rgb(255,255,255);" />
<path d=" M930 1370.87 L962 1370.87 L962 1402.87 L930 1402.87 Z" style="fill:rgb(255,255,255);" />
<path d=" M898 1338.87 L930 1338.87 L930 1370.87 L898 1370.87 Z" style="fill:rgb(255,255,255);" />
<path d=" M930 1306.87 L962 1306.87 L962 1338.87 L930 1338.87 Z" style="fill:rgb(255,255,255);" />
<path d=" M834 1306.87 L866 1306.87 L866 1338.87 L834 1338.87 Z" style="fill:rgb(255,255,255);" />
<path d=" M834 1338.87 L866 1338.87 L866 1370.87 L834 1370.87 Z" style="fill:rgb(255,255,255);" />
<path d=" M802 1370.87 L834 1370.87 L834 1402.87 L802 1402.87 Z" style="fill:rgb(255,255,255);" />
<path d=" M642 1370.87 L674 1370.87 L674 1402.87 L642 1402.87 Z" style="fill:rgb(255,255,255);" />
<path d=" M738 1370.87 L770 1370.87 L770 1402.87 L738 1402.87 Z" style="fill:rgb(255,255,255);" />
<path d=" M674 1338.87 L706 1338.87 L706 1370.87 L674 1370.87 Z" style="fill:rgb(255,255,255);" />
<path d=" M738 1306.87 L770 1306.87 L770 1338.87 L738 1338.87 Z" style="fill:rgb(255,255,255);" />
<path d=" M674 1242.87 L706 1242.87 L706 1274.87 L674 1274.87 Z" style="fill:rgb(255,255,255);" />
<path d=" M226 1370.87 L258 1370.87 L258 1402.87 L226 1402.87 Z" style="fill:rgb(255,255,255);" />
<path d=" M322 1370.87 L354 1370.87 L354 1402.87 L322 1402.87 Z" style="fill:rgb(255,255,255);" />
<path d=" M386 1370.87 L418 1370.87 L418 1402.87 L386 1402.87 Z" style="fill:rgb(255,255,255);" />
<path d=" M482 1370.87 L514 1370.87 L514 1402.87 L482 1402.87 Z" style="fill:rgb(255,255,255);" />
<path d=" M578 1370.87 L610 1370.87 L610 1402.87 L578 1402.87 Z" style="fill:rgb(255,255,255);" />
<path d=" M546 1338.87 L578 1338.87 L578 1370.87 L546 1370.87 Z" style="fill:rgb(255,255,255);" />
<path d=" M514 1274.87 L546 1274.87 L546 1306.87 L514 1306.87 Z" style="fill:rgb(255,255,255);" />
<path d=" M450 1306.87 L482 1306.87 L482 1338.87 L450 1338.87 Z" style="fill:rgb(255,255,255);" />
<path d=" M386 1274.87 L418 1274.87 L418 1306.87 L386 1306.87 Z" style="fill:rgb(255,255,255);" />
<path d=" M354 1306.87 L386 1306.87 L386 1338.87 L354 1338.87 Z" style="fill:rgb(255,255,255);" />
<path d=" M290 1306.87 L322 1306.87 L322 1338.87 L290 1338.87 Z" style="fill:rgb(255,255,255);" />
<path d=" M226 1338.87 L258 1338.87 L258 1370.87 L226 1370.87 Z" style="fill:rgb(255,255,255);" />
<path d=" M162 1306.87 L194 1306.87 L194 1338.87 L162 1338.87 Z" style="fill:rgb(255,255,255);" />
<path d=" M130 1338.87 L162 1338.87 L162 1370.87 L130 1370.87 Z" style="fill:rgb(255,255,255);" />
<path d=" M1186 1210.87 L1218 1210.87 L1218 1242.87 L1186 1242.87 Z" style="fill:rgb(255,255,255);" />
<path d=" M1122 1210.87 L1154 1210.87 L1154 1242.87 L1122 1242.87 Z" style="fill:rgb(255,255,255);" />
<path d=" M1058 1242.87 L1090 1242.87 L1090 1274.87 L1058 1274.87 Z" style="fill:rgb(255,255,255);" />
<path d=" M962 1210.87 L994 1210.87 L994 1242.87 L962 1242.87 Z" style="fill:rgb(255,255,255);" />
<path d=" M898 1242.87 L930 1242.87 L930 1274.87 L898 1274.87 Z" style="fill:rgb(255,255,255);" />
<path d=" M898 1178.87 L930 1178.87 L930 1210.87 L898 1210.87 Z" style="fill:rgb(255,255,255);" />
<path d=" M802 1210.87 L834 1210.87 L834 1242.87 L802 1242.87 Z" style="fill:rgb(255,255,255);" />
<path d=" M738 1114.87 L770 1114.87 L770 1146.87 L738 1146.87 Z" style="fill:rgb(255,255,255);" />
<path d=" M738 1210.87 L770 1210.87 L770 1242.87 L738 1242.87 Z" style="fill:rgb(255,255,255);" />
<path d=" M578 1274.87 L610 1274.87 L610 1306.87 L578 1306.87 Z" style="fill:rgb(255,255,255);" />
<path d=" M610 1242.87 L642 1242.87 L642 1274.87 L610 1274.87 Z" style="fill:rgb(255,255,255);" />
<path d=" M610 1178.87 L642 1178.87 L642 1210.87 L610 1210.87 Z" style="fill:rgb(255,255,255);" />
<path d=" M514 1210.87 L546 1210.87 L546 1242.87 L514 1242.87 Z" style="fill:rgb(255,255,255);" />
<path d=" M418 1242.87 L450 1242.87 L450 1274.87 L418 1274.87 Z" style="fill:rgb(255,255,255);" />
<path d=" M290 1242.87 L322 1242.87 L322 1274.87 L290 1274.87 Z" style="fill:rgb(255,255,255);" />
<path d=" M226 1274.87 L258 1274.87 L258 1306.87 L226 1306.87 Z" style="fill:rgb(255,255,255);" />
<path d=" M162 1242.87 L194 1242.87 L194 1274.87 L162 1274.87 Z" style="fill:rgb(255,255,255);" />
<path d=" M98 1274.87 L130 1274.87 L130 1306.87 L98 1306.87 Z" style="fill:rgb(255,255,255);" />
<path d=" M98 1210.87 L130 1210.87 L130 1242.87 L98 1242.87 Z" style="fill:rgb(255,255,255);" />
<path d=" M194 1178.87 L226 1178.87 L226 1210.87 L194 1210.87 Z" style="fill:rgb(255,255,255);" />
<path d=" M354 1210.87 L386 1210.87 L386 1242.87 L354 1242.87 Z" style="fill:rgb(255,255,255);" />
<path d=" M418 1178.87 L450 1178.87 L450 1210.87 L418 1210.87 Z" style="fill:rgb(255,255,255);" />
<path d=" M546 1146.87 L578 1146.87 L578 1178.87 L546 1178.87 Z" style="fill:rgb(255,255,255);" />
<path d=" M322 1114.87 L354 1114.87 L354 1146.87 L322 1146.87 Z" style="fill:rgb(255,255,255);" />
<path d=" M130 1146.87 L162 1146.87 L162 1178.87 L130 1178.87 Z" style="fill:rgb(255,255,255);" />
<path d=" M834 1178.87 L866 1178.87 L866 1210.87 L834 1210.87 Z" style="fill:rgb(255,255,255);" />
<path d=" M1058 1178.87 L1090 1178.87 L1090 1210.87 L1058 1210.87 Z" style="fill:rgb(255,255,255);" />
<path d=" M1474 1146.87 L1506 1146.87 L1506 1178.87 L1474 1178.87 Z" style="fill:rgb(255,255,255);" />
<path d=" M1762 1114.87 L1794 1114.87 L1794 1146.87 L1762 1146.87 Z" style="fill:rgb(255,255,255);" />
<path d=" M2114 1114.87 L2146 1114.87 L2146 1146.87 L2114 1146.87 Z" style="fill:rgb(255,255,255);" />
<path d=" M1858 1082.87 L1890 1082.87 L1890 1114.87 L1858 1114.87 Z" style="fill:rgb(255,255,255);" />
<path d=" M642 1082.87 L674 1082.87 L674 1114.87 L642 1114.87 Z" style="fill:rgb(255,255,255);" />
<path d=" M1666.21 982.82 L1695.9 940.75 L1662.76 940.75 L1635.24 982.82 Z" style="fill:rgb(255,255,255);" />
<path d=" M1681.27 912.46 L1715.87 912.46 L1756.82 854.43 L1719.23 854.43 Z" style="fill:rgb(255,255,255);" />
<path d=" M1778.06 824.32 L1834.46 744.4 L1791.2 744.4 L1738.92 824.32 Z" style="fill:rgb(255,255,255);" />
<path d=" M1855.73 714.26 L1922.49 619.65 L1872.81 619.65 L1810.92 714.26 Z" style="fill:rgb(255,255,255);" />
<path d=" M1957.89 569.48 L2027.14 471.34 L1969.82 471.34 L1905.63 569.48 Z" style="fill:rgb(255,255,255);" />
<path d=" M2080.91 395.14 L2176.45 259.75 L2108.23 259.75 L2019.67 395.14 Z" style="fill:rgb(255,255,255);" />
<path d=" M2253.29 150.87 L2296.24 90 L2219.27 90 L2179.45 150.87 Z" style="fill:rgb(255,255,255);" />
<path d=" M833.79 982.82 L804.1 940.75 L837.24 940.75 L864.76 982.82 Z" style="fill:rgb(255,255,255);" />
<path d=" M818.73 912.46 L784.13 912.46 L743.18 854.43 L780.77 854.43 Z" style="fill:rgb(255,255,255);" />
<path d=" M721.94 824.32 L665.54 744.4 L708.8 744.4 L761.08 824.32 Z" style="fill:rgb(255,255,255);" />
<path d=" M644.27 714.26 L577.51 619.65 L627.19 619.65 L689.08 714.26 Z" style="fill:rgb(255,255,255);" />
<path d=" M542.11 569.48 L472.86 471.34 L530.18 471.34 L594.37 569.48 Z" style="fill:rgb(255,255,255);" />
<path d=" M419.09 395.14 L323.55 259.75 L391.77 259.75 L480.33 395.14 Z" style="fill:rgb(255,255,255);" />
<path d=" M246.71 150.87 L203.76 90 L280.73 90 L320.55 150.87 Z" style="fill:rgb(255,255,255);" />
<path d=" M1250 685.19 L1011.42434289098 600.618204392771 A611.34 611.34 0 0 0 851.495738604345 579.822721838133 L851.492866022779 579.822358534602 A157.67 157.67 0 0 0 808.337406999765 581.208729824624 L808.331732892058 581.209915785966 A79.54 79.54 0 0 0 774.906780523584 605.702900178541 L774.906828336737 605.711644203113 A316.81 316.81 0 0 1 872.02423922729 627.467865159446 L872.03 627.46 L1250 765.84 L1627.97576077271 627.467865159446 A316.81 316.81 0 0 1 1725.09317166326 605.711644203113 L1725.08354177062 605.700647514018 A89.71 89.71 0 0 0 1691.65938145869 581.20824352103 L1691.66259300023 581.208729824624 A157.67 157.67 0 0 0 1648.50713397722 579.822358534602 L1648.50426139565 579.822721838133 A611.34 611.34 0 0 0 1488.57565710902 600.618204392771 L1488.58 600.62 Z" style="fill:rgb(255,255,255);" />
<path d=" M1249.99928816284 998.768215404282 A1864.1 1864.1 0 0 0 885.102087897342 849.15144477145 L885.099184603331 849.150509104528 A70.88 70.88 0 0 1 947.259837295489 827.776165590616 L947.257294423679 827.779646952174 A582.96 582.96 0 0 1 1031.2870843704 837.837901116067 L1031.29 837.84 L1250 921.7 L1468.7129156296 837.837901116067 A582.96 582.96 0 0 1 1552.74270557632 827.779646952174 L1552.74016270451 827.776165590616 A70.88 70.88 0 0 1 1614.90081539667 849.150509104528 L1614.89791210266 849.15144477145 A1864.1 1864.1 0 0 0 1250.00071183716 998.768215404282 Z" style="fill:rgb(255,255,255);" />
<path d=" M1250 497.16 L1205.45487452913 497.158410509803 A2016.78 2016.78 0 0 1 1063.83568865938 483.657009009927 L1063.8352039574 483.658852697861 A214.44 214.44 0 0 1 1014.13565613498 474.135495531378 L1014.13609233824 474.137854660919 A439.04 439.04 0 0 1 969.109210443963 460.184752913691 L969.106186245523 460.187213812316 A383.16 383.16 0 0 1 963.990934159231 460.456445215608 L963.99 460.45 L813.993628648553 174.888494291323 A3715.37 3715.37 0 0 0 1086.57779156337 200.085111562505 L1086.58 200.08 L1249.09 200.08 L1411.74024818363 199.24687537022 A3715.37 3715.37 0 0 0 1684.19085548005 172.645625410614 L1684.19 172.64 L1535.67212793318 458.981977752631 A383.16 383.16 0 0 1 1530.55555610412 458.739115295902 L1530.55122211592 458.734384644255 A439.04 439.04 0 0 1 1485.59684915374 472.919384272471 L1485.59689069798 472.92814225244 A214.44 214.44 0 0 1 1435.94708913784 482.707538476817 L1435.94773209736 482.69953809438 A2016.78 2016.78 0 0 1 1294.399982339 496.930707969914 L1294.4 496.93 Z" style="fill:rgb(0,0,255);" />
<path d=" M1090 1146.87 L1122 1146.87 L1122 1178.87 L1090 1178.87 Z" style="fill:rgb(255,255,255);" />
<path d=" M1290 432.06 A40 40 0 0 1 1210 432.06 A40 40 0 0 1 1290 432.06 Z" style="fill:rgb(255,255,255);" />
</g>
</svg>
