<?xml version="1.0" encoding="UTF-8"?>
<!DOCTYPE svg PUBLIC '-//W3C//DTD SVG 1.0//EN' 'http://www.w3.org/TR/2001/REC-SVG-20010904/DTD/svg10.dtd'>
<svg xmlns:xlink="http://www.w3.org/1999/xlink" xmlns="http://www.w3.org/2000/svg" width="2500" height="3000">
<!--Gegenereerd door de SIMaD-toepassing (http://www.dlw.be).-->
<g style="stroke:none;fill-rule:evenodd;" transform="matrix(1,0,0,-1,0,3000)">
<path d=" M65 0 L2435 0 A65 65 0 0 1 2500 65 L2500 2935 A65 65 0 0 1 2435 3000 L65 3000 A65 65 0 0 1 0 2935 L0 65 A65 65 0 0 1 65 0 Z" style="fill:rgb(0,0,255);" />
<path d=" M195 45 L2305 45 A150 150 0 0 1 2455 195 L2455 2805 A150 150 0 0 1 2305 2955 L195 2955 A150 150 0 0 1 45 2805 L45 195 A150 150 0 0 1 195 45 Z" style="fill:rgb(255,255,255);" />
<path d=" M195 90 L2305 90 A105 105 0 0 1 2410 195 L2410 2805 A105 105 0 0 1 2305 2910 L195 2910 A105 105 0 0 1 90 2805 L90 195 A105 105 0 0 1 195 90 Z" style="fill:rgb(0,0,255);" />
<path d=" M2434.99999546214 1.56319401867222E-13 A65 65 0 0 1 2500 65.0000045378561 L2500 2934.9999875209 A65 65 0 0 1 2435.00000453786 3000 L65.0000045378561 3000 A65 65 0 0 1 1.56319401867222E-13 2934.99999546214 L1.56319401867222E-13 65.0000045378561 A65 65 0 0 1 65.0000045378561 1.56319401867222E-13 Z" style="fill:rgb(0,0,255);" />
<path d=" M2305 2955 L195.000010471976 2955 A150 150 0 0 1 45.0000000000004 2804.99998952802 L45.0000000000004 195.000010471976 A150 150 0 0 1 195.000010471976 45.0000000000004 L2304.99998952802 45.0000000000004 A150 150 0 0 1 2455 195.000010471976 L2455 2804.99997120207 A150 150 0 0 1 2305.00001047198 2955 Z" style="fill:rgb(255,255,255);" />
<path d=" M1406.46 2191.55 L1187.99 1948.96 L1243.15 1948.96 L1406.46 2133.82 L1569.76 1948.96 L1624.93 1948.96 Z" style="fill:rgb(0,0,0);" />
<path d=" M2410 1475.34 L90 1475.34 L90.0000000000003 195.000007330383 A105 105 0 0 1 195.000007330383 90.0000000000003 L2304.99999266962 90.0000000000003 A105 105 0 0 1 2410 195.000007330383 Z" style="fill:rgb(0,0,255);" />
<path d=" M90 2279 L2410 2279 L2410 2804.99997984145 A105 105 0 0 1 2305.00000733038 2910 L195.000007330383 2910 A105 105 0 0 1 90.0000000000003 2804.99999266962 Z" style="fill:rgb(0,0,255);" />
<path d=" M839.03 1948.5 L1005.46 1948.5 L1005.46 1990.17 L906.94 1990.17 L976.96786797426 2062.34450539853 A83.21 83.21 0 1 1 834.040000000014 2120.28995207448 L834.03 2120.29 L834.03 2116.36 L879.87 2116.36 L879.870000000006 2124.45997847067 A37.38 37.38 0 1 0 944.076750449199 2098.42944371827 L944.08 2098.43 L839.03 1990.17 Z" style="fill:rgb(0,0,0);" />
<path d=" M198.64 1593.79 L240.31 1593.79 L240.31 1746.23 L284.95 1593.79 L328.37 1593.79 L370.07 1736.19 L370.07 1593.79 L415.9 1593.79 L415.9 1843.79 L362.33 1843.79 L307.27 1655.78 L252.21 1843.79 L198.64 1843.79 Z" style="fill:rgb(0,0,0);" />
<path d=" M585.38 1593.79 L631.21 1593.79 L631.21 1843.79 L585.38 1843.79 Z" style="fill:rgb(0,0,0);" />
<path d=" M798.95 1593.79 L840.62 1593.79 L840.62 1759.84 L916.81 1593.79 L970.38 1593.79 L970.38 1843.79 L928.72 1843.79 L928.72 1677.75 L852.52 1843.79 L798.95 1843.79 Z" style="fill:rgb(0,0,0);" />
<path d=" M1142.65 1593.79 L1188.49 1593.79 L1188.49 1843.79 L1142.65 1843.79 Z" style="fill:rgb(0,0,0);" />
<path d=" M1358.49 1593.79 L1400.16 1593.79 L1400.16 1746.23 L1444.8 1593.79 L1488.22 1593.79 L1529.92 1736.19 L1529.92 1593.79 L1575.76 1593.79 L1575.76 1843.79 L1522.18 1843.79 L1467.13 1655.78 L1412.07 1843.79 L1358.49 1843.79 Z" style="fill:rgb(0,0,0);" />
<path d=" M1741.61 1843.79 L1741.61 1674.51001495922 A85.71 85.71 0 0 1 1913.03 1674.50998504078 L1913.04 1674.51 L1913.04 1843.79 L1867.2 1843.79 L1867.2 1670.33999303963 A39.88 39.88 0 0 0 1787.44 1670.34000696037 L1787.44 1843.79 Z" style="fill:rgb(0,0,0);" />
<path d=" M2084.58 1593.79 L2126.25 1593.79 L2126.25 1746.23 L2170.89 1593.79 L2214.31 1593.79 L2256.01 1736.19 L2256.01 1593.79 L2301.84 1593.79 L2301.84 1843.79 L2248.27 1843.79 L2193.21 1655.78 L2138.15 1843.79 L2084.58 1843.79 Z" style="fill:rgb(0,0,0);" />
<path d=" M1356.18 2619.63 L1520.14 2525.76 L1356.18 2431.89 L1338.99 2467.99 L1397.17 2505.54 L1075.5 2505.54 L659.97 2505.54 L718.15 2467.99 L700.96 2431.89 L537 2525.76 L700.96 2619.63 L718.15 2583.53 L659.97 2545.98 L1075.5 2545.98 L1397.17 2545.98 L1338.99 2583.53 Z" style="fill:rgb(255,255,255);" />
<path d=" M2410 2805 L1780.78 2805 L1780.78 2521.24 L2410 2521.24 Z" style="fill:rgb(255,255,255);" />
<path d=" M1763.75 2533.08 L1763.75 2708.45 L1759.06 2712.29 L1744.14 2712.75 L1744.14 2723.42 L1765.88 2721.6 L1771.42 2716.01 L1771.42 2533.08 Z" style="fill:rgb(255,255,255);" />
<path d=" M1760.6 2449.76 A53.77 53.77 0 0 1 1653.06 2449.76 A53.77 53.77 0 0 1 1760.6 2449.76 Z" style="fill:rgb(255,255,255);" />
<path d=" M1763.89 2467.33 L1769.75 2467.33 L1771.99 2479.56 L1897.03 2479.56 L1898.64 2444.56 L2067.46 2444.56 L2068.23 2463.7 L2129.30553007528 2455.63908144178 A59.7 59.7 0 0 0 2248.41239419024 2451.35976678164 L2248.42 2451.36 L2242.48045248781 2451.35974389298 A53.77 53.77 0 1 1 2239.18868915318 2431.33222863357 L2239.19 2431.33 L2268.23131084682 2431.33222863357 A53.77 53.77 0 1 1 2264.93954751219 2451.35974389298 L2264.93 2451.36 L2259.00760588567 2451.35976990661 A59.7 59.7 0 0 0 2378.34967822057 2452.10380824541 L2378.35 2452.1 L2384.28332278547 2452.10383362215 A65.63 65.63 0 0 1 2264.77040595301 2487.32623013891 L2264.76 2487.33 L2259.39 2487.33 L2256.08 2495.91 L2253.71 2495.91 L2251.33 2495.91 L2248.02 2487.33 L2242.64959143485 2487.3262339032 A65.63 65.63 0 0 1 2129.77363883344 2478.74477723163 L2129.77 2478.75 L2068.76 2478.51 L2067.93 2508.97 L1783.05 2508.97 L1757.31 2534.22 L1757.31 2699.36 L1750.88 2705.84 L1645.34 2704.13 L1604.69 2698.15 L1595.31 2688.76 L1588.28 2607.64 L1576.55 2587.15 L1574.2 2494.93 L1568.73 2484.69 L1569.47 2469.32 L1608.6 2469.32 L1608.6 2439.43 L1640.65 2439.43 L1638.36 2462.77 L1648.5650659632 2462.7710515212 A59.7 59.7 0 0 0 1763.88604388146 2467.32979956054 Z" style="fill:rgb(255,255,255);" />
<path d=" M90 2805 L90 2521.24 L494.3 2521.24 L494.3 2805 Z" style="fill:rgb(255,255,255);" />
<path d=" M427.59 2468.4 L453.43 2468.4 L460.39 2462.99 L461.31 2438.17 L455.45 2429.77 L445.183282567538 2429.57013400227 A32.11 32.11 0 0 1 427.04187908171 2461.39334091 L427.04 2461.39 L427.04 2468.4 Z" style="fill:rgb(255,255,255);" />
<path d=" M267.53 2495.91 L265.15 2495.91 L261.85 2487.33 L256.469591434847 2487.3262339032 A65.63 65.63 0 0 1 143.593638833438 2478.74477723163 L143.59 2478.75 L90 2478.72 L90 2463.83 L143.125530075284 2455.63908144178 A59.7 59.7 0 0 0 262.232394190237 2451.35976678164 L262.24 2451.36 L256.300452487814 2451.35974389298 A53.77 53.77 0 1 1 253.008689153176 2431.33222863357 L253.02 2431.33 L282.051310846824 2431.33222863357 A53.77 53.77 0 1 1 278.759547512186 2451.35974389298 L278.75 2451.36 L272.827605885673 2451.35976990661 A59.7 59.7 0 0 0 392.169678220573 2452.10380824541 L392.17 2452.1 L398.103322785466 2452.10383362215 A65.63 65.63 0 0 1 278.590405953008 2487.32623013891 L278.59 2487.33 L273.22 2487.33 L269.91 2495.91 Z" style="fill:rgb(255,255,255);" />
<path d=" M1666.21 982.82 L1695.9 940.75 L1662.76 940.75 L1635.24 982.82 Z" style="fill:rgb(255,255,255);" />
<path d=" M1681.27 912.46 L1715.87 912.46 L1756.82 854.43 L1719.23 854.43 Z" style="fill:rgb(255,255,255);" />
<path d=" M1778.06 824.32 L1834.46 744.4 L1791.2 744.4 L1738.92 824.32 Z" style="fill:rgb(255,255,255);" />
<path d=" M1855.73 714.26 L1922.49 619.65 L1872.81 619.65 L1810.92 714.26 Z" style="fill:rgb(255,255,255);" />
<path d=" M1957.89 569.48 L2027.14 471.34 L1969.82 471.34 L1905.63 569.48 Z" style="fill:rgb(255,255,255);" />
<path d=" M2080.91 395.14 L2176.45 259.75 L2108.23 259.75 L2019.67 395.14 Z" style="fill:rgb(255,255,255);" />
<path d=" M2253.29 150.87 L2296.24 90 L2219.27 90 L2179.45 150.87 Z" style="fill:rgb(255,255,255);" />
<path d=" M1253.42 237.34 L1889.91393939569 227.816978219138 A27 27 0 0 0 1911.49135159555 216.498653706005 L1911.49 216.5 L2001.72 90 L2036.4 90 L1940.55993065348 224.365270240016 A80 80 0 0 1 1876.6268574687 257.901046575224 L1876.62 257.9 L1253.8 267.22 L630.973142531299 257.901046575224 A80 80 0 0 1 567.04006934652 224.365270240015 L567.04 224.37 L471.2 90 L505.87 90 L596.098648404451 216.498653706005 A27 27 0 0 0 617.676060604313 227.816978219138 L617.68 227.82 L1254.17 237.34 Z" style="fill:rgb(255,255,255);" />
<path d=" M833.79 982.82 L804.1 940.75 L837.24 940.75 L864.76 982.82 Z" style="fill:rgb(255,255,255);" />
<path d=" M818.73 912.46 L784.13 912.46 L743.18 854.43 L780.77 854.43 Z" style="fill:rgb(255,255,255);" />
<path d=" M721.94 824.32 L665.54 744.4 L708.8 744.4 L761.08 824.32 Z" style="fill:rgb(255,255,255);" />
<path d=" M644.27 714.26 L577.51 619.65 L627.19 619.65 L689.08 714.26 Z" style="fill:rgb(255,255,255);" />
<path d=" M542.11 569.48 L472.86 471.34 L530.18 471.34 L594.37 569.48 Z" style="fill:rgb(255,255,255);" />
<path d=" M419.09 395.14 L323.55 259.75 L391.77 259.75 L480.33 395.14 Z" style="fill:rgb(255,255,255);" />
<path d=" M246.71 150.87 L203.76 90 L280.73 90 L320.55 150.87 Z" style="fill:rgb(255,255,255);" />
<path d=" M1679.49 276.93 L1560.2 287.85 L1455.57 284.21 L1566.19 272.56 Z" style="fill:rgb(255,255,255);" />
<path d=" M1052.39 284.21 L941.76 272.56 L828.47 276.93 L947.76 287.85 Z" style="fill:rgb(255,255,255);" />
<path d=" M1250.5 1088.86 L1350.58 1088.86 L1350.58 1044.3 L1356.18 1044.3 L1358.67 1044.3 L1358.67406709643 979.242732574833 A33.22 33.22 0 0 0 1362.15826291783 961.487624830412 L1362.16 961.49 L1396.58 961.49 L1431.01173708217 961.487624830412 A33.22 33.22 0 0 0 1434.49593290357 979.242732574833 L1434.49 979.25 L1434.49 1044.3 L1448.51 1044.3 L1462.53 1044.3 L1462.53406709643 979.242732574833 A33.22 33.22 0 0 0 1466.01826291783 961.487624830412 L1466.02 961.49 L1500.44 961.49 L1534.87173708217 961.487624830412 A33.22 33.22 0 0 0 1538.35593290357 979.242732574833 L1538.35 979.25 L1538.35 1044.3 L1540.84 1044.3 L1546.44 1044.3 L1546.44 1088.86 L1567.03780480358 1088.85391805242 A13.11 13.11 0 0 1 1579.52089754151 1095.46527171005 L1579.52 1095.47 L1579.52 1110.72 L1579.52089754151 1125.97472828995 A13.11 13.11 0 0 1 1567.03780503162 1132.58608196629 L1567.04 1132.58 L1567.04 1155.58 L1582.47 1155.58 L1582.47 1327.35 L1545 1327.35 L1545 1236.75 L1271.07 1236.75 L1271.07 1475.34 L1261.81 1475.34 L1261.81 1236.34 L1250.5 1236.34 L1238.19 1236.34 L1238.19 1475.34 L1228.93 1475.34 L1228.93 1236.75 L955 1236.75 L955 1327.35 L917.53 1327.35 L917.53 1155.58 L932.96 1155.58 L932.962194968375 1132.58608196629 A13.11 13.11 0 0 1 920.479102458485 1125.97472828995 L920.48 1125.97 L920.48 1110.72 L920.479102458485 1095.46527171005 A13.11 13.11 0 0 1 932.962195196422 1088.85391805242 L932.96 1088.86 L953.56 1088.86 L953.56 1044.3 L959.16 1044.3 L961.65 1044.3 L961.644067096426 979.242732574833 A33.22 33.22 0 0 0 965.128262917828 961.487624830412 L965.13 961.49 L999.56 961.49 L1033.98173708217 961.487624830412 A33.22 33.22 0 0 0 1037.46593290357 979.242732574833 L1037.47 979.25 L1037.47 1044.3 L1051.49 1044.3 L1065.51 1044.3 L1065.50406709643 979.242732574833 A33.22 33.22 0 0 0 1068.98826291783 961.487624830412 L1068.99 961.49 L1103.42 961.49 L1137.84173708217 961.487624830412 A33.22 33.22 0 0 0 1141.32593290357 979.242732574833 L1141.33 979.25 L1141.33 1044.3 L1143.82 1044.3 L1149.42 1044.3 L1149.42 1088.86 Z" style="fill:rgb(255,255,255);" />
<path d=" M1250 516.09 L1011.42434289098 431.528204392771 A611.34 611.34 0 0 0 851.495738604345 410.732721838133 L851.492866022779 410.732358534602 A157.67 157.67 0 0 0 808.337406999765 412.118729824624 L808.331734186919 412.119915285435 A79.54 79.54 0 0 0 774.906780523584 436.612900178541 L774.906828336737 436.611644203113 A316.81 316.81 0 0 1 872.02423922729 458.367865159446 L872.03 458.37 L1250 596.74 L1627.97576077271 458.367865159446 A316.81 316.81 0 0 1 1725.09317166326 436.611644203113 L1725.08354177062 436.610647514017 A89.71 89.71 0 0 0 1691.65938145869 412.11824352103 L1691.66259300023 412.118729824624 A157.67 157.67 0 0 0 1648.50713397722 410.732358534602 L1648.50426139565 410.732721838133 A611.34 611.34 0 0 0 1488.57565710902 431.528204392771 L1488.58 431.53 Z" style="fill:rgb(255,255,255);" />
<path d=" M1250.00562603523 893.369723380029 A1694.64 1694.64 0 0 0 918.280158304291 757.354177224714 L918.275700677096 757.36210781045 A64.43 64.43 0 0 1 974.779804133018 737.932805431764 L974.785108799433 737.922413193433 A529.97 529.97 0 0 1 1051.17674420849 747.066390411833 L1051.17 747.07 L1250 823.31 L1448.82325579151 747.066390411833 A529.97 529.97 0 0 1 1525.21489120057 737.922413193433 L1525.22019586698 737.932805431764 A64.43 64.43 0 0 1 1581.7242993229 757.36210781045 L1581.71984169571 757.354177224714 A1694.64 1694.64 0 0 0 1249.99437396477 893.369723380029 Z" style="fill:rgb(255,255,255);" />
<path d=" M1539.18 1224.93 L1448.64927462614 1224.92994639445 A24 24 0 0 1 1448.70000125664 1176.93 L1539.13000125664 1176.93 A24 24 0 0 1 1539.18072327947 1224.92994639888 Z" style="fill:rgb(0,0,255);" />
<path d=" M960.819274626144 1224.92994639445 A24 24 0 0 1 960.870001256637 1176.93 L1051.30000125664 1176.93 A24 24 0 0 1 1051.35072327947 1224.92994639888 L1051.35 1224.93 Z" style="fill:rgb(0,0,255);" />
<path d=" M1620 2689.06 L1604.23 2673.75 L1604.23 2627.75 L1600.4 2620.09 L1600.4 2609 L1694.16 2609 L1694.16 2682.54 L1686.49 2689.06 Z" style="fill:rgb(0,0,255);" />
<path d=" M2253.71 2476.7 L2265.33611751103 2476.69531730917 A59.7 59.7 0 0 1 2259.00760588567 2451.35976990661 L2259 2451.36 L2253.71 2451.36 L2248.41239411433 2451.35976990661 A59.7 59.7 0 0 1 2242.08388248897 2476.69531730917 L2242.09 2476.7 Z" style="fill:rgb(0,0,255);" />
<path d=" M267.53 2476.7 L279.156117511028 2476.69531730917 A59.7 59.7 0 0 1 272.827605885673 2451.35976990661 L272.82 2451.36 L267.53 2451.36 L262.232394089024 2451.35977094826 A59.7 59.7 0 0 1 255.90388202148 2476.69531824037 L255.91 2476.7 Z" style="fill:rgb(0,0,255);" />
<path d=" M1261.64 90 L1236.93398587578 176.560359160233 A40 40 0 0 1 1198.65 204.97 L919.05 204.97 L639.46 204.97 A40 40 0 0 1 601.176014124222 176.560359160233 L601.17 176.56 L576.46 90 L568.55 90 L593.969263071422 179.168583337609 A48 48 0 0 0 639.91000418879 213.26 L919.05 213.26 L1198.19999581121 213.26 A48 48 0 0 0 1244.14073692858 179.168583337609 L1244.14 179.17 L1269.55 90 Z" style="fill:rgb(255,255,255);" />
<path d=" M1509.35 1329.5 L1540.87 1329.5 L1540.87 1355.15 L1509.35 1355.15 Z" style="fill:rgb(255,255,255);" />
<path d=" M1542.61 1047.59 L1354.42 1047.59 L1354.42 1088.86 L1542.61 1088.86 Z" style="fill:rgb(0,0,255);" />
<path d=" M1347.32 1167.02 L1347.32 1132.4 L1265.47 1132.4 L1265.47 1167.02 Z" style="fill:rgb(0,0,255);" />
<path d=" M1542.61 1155.58 L1542.61 1132.58 L1448.51 1132.58 L1354.42 1132.58 L1354.42 1155.58 L1448.51 1155.58 Z" style="fill:rgb(0,0,255);" />
<path d=" M1549.45 1132.61 L1549.45 1155.61 L1560.2 1155.61 L1560.2 1132.61 Z" style="fill:rgb(0,0,255);" />
<path d=" M1582.47 1357.93 L1545 1357.93 L1545 1475.34 L1582.47 1475.34 Z" style="fill:rgb(255,255,255);" />
<path d=" M990.65 1329.5 L959.13 1329.5 L959.13 1355.15 L990.65 1355.15 Z" style="fill:rgb(255,255,255);" />
<path d=" M957.39 1047.59 L1145.58 1047.59 L1145.58 1088.86 L957.39 1088.86 Z" style="fill:rgb(0,0,255);" />
<path d=" M1152.68 1167.02 L1152.68 1132.4 L1234.53 1132.4 L1234.53 1167.02 Z" style="fill:rgb(0,0,255);" />
<path d=" M957.39 1155.58 L957.39 1132.58 L1051.49 1132.58 L1145.58 1132.58 L1145.58 1155.58 L1051.49 1155.58 Z" style="fill:rgb(0,0,255);" />
<path d=" M950.55 1132.61 L950.55 1155.61 L939.8 1155.61 L939.8 1132.61 Z" style="fill:rgb(0,0,255);" />
<path d=" M917.53 1357.93 L955 1357.93 L955 1475.34 L917.53 1475.34 Z" style="fill:rgb(255,255,255);" />
<path d=" M816.63 185.76 L749.310000785398 185.76 A15 15 0 0 1 734.371780155724 169.400004454392 L734.37 169.4 L735.27 159.45 L816.63 159.45 L897.98 159.45 L898.888219701858 169.400002890065 A15 15 0 0 1 883.950000785398 185.76 Z" style="fill:rgb(255,255,255);" />
<path d=" M1058.06619932394 90.0015091768263 A344.75 344.75 0 0 1 687.793800676061 90.0015091768263 L687.8 90 L727.292158983782 90.0015634442103 A325.25 325.25 0 0 0 1018.56784101622 90.0015634442103 L1018.57 90 Z" style="fill:rgb(255,255,255);" />
<path d=" M1504.91 1201.02 A11 11 0 0 1 1482.91 1201.02 A11 11 0 0 1 1504.91 1201.02 Z" style="fill:rgb(255,0,0);" />
<path d=" M1465.2 1201.02 A16.5 16.5 0 0 1 1432.2 1201.02 A16.5 16.5 0 0 1 1465.2 1201.02 Z" style="fill:rgb(255,0,0);" />
<path d=" M1555.63 1201.02 A16.5 16.5 0 0 1 1522.63 1201.02 A16.5 16.5 0 0 1 1555.63 1201.02 Z" style="fill:rgb(255,0,0);" />
<path d=" M1017.09 1201.02 A11 11 0 0 1 995.09 1201.02 A11 11 0 0 1 1017.09 1201.02 Z" style="fill:rgb(255,0,0);" />
<path d=" M1067.8 1201.02 A16.5 16.5 0 0 1 1034.8 1201.02 A16.5 16.5 0 0 1 1067.8 1201.02 Z" style="fill:rgb(255,0,0);" />
<path d=" M977.37 1201.02 A16.5 16.5 0 0 1 944.37 1201.02 A16.5 16.5 0 0 1 977.37 1201.02 Z" style="fill:rgb(255,0,0);" />
<path d=" M1121.53 166.64 A15 15 0 0 1 1091.53 166.64 A15 15 0 0 1 1121.53 166.64 Z" style="fill:rgb(255,255,255);" />
<path d=" M1028.14 166.64 A15 15 0 0 1 998.14 166.64 A15 15 0 0 1 1028.14 166.64 Z" style="fill:rgb(255,255,255);" />
<path d=" M700.67 166.64 A15 15 0 0 1 670.67 166.64 A15 15 0 0 1 700.67 166.64 Z" style="fill:rgb(255,255,255);" />
</g>
</svg>
