<?xml version="1.0" encoding="UTF-8"?><!DOCTYPE svg PUBLIC '-//W3C//DTD SVG 1.0//EN' 'http://www.w3.org/TR/2001/REC-SVG-20010904/DTD/svg10.dtd'><svg xmlns:xlink="http://www.w3.org/1999/xlink" xmlns="http://www.w3.org/2000/svg"><!--Gegenereerd door de SIMaD (http://www.dlw.be).-->
<g style="stroke:none;fill-rule:evenodd;" transform="matrix(1,0,0,-1,0,600)">
<path d=" M65 0 L335 0 A65 65 0 0 1 400 65 L400 535 A65 65 0 0 1 335 600 L65 600 A65 65 0 0 1 0 535 L0 65 A65 65 0 0 1 65 0 Z" style="fill:rgb(0,0,255);" />
<path d=" M65 15 L335 15 A50 50 0 0 1 385 65 L385 535 A50 50 0 0 1 335 585 L65 585 A50 50 0 0 1 15 535 L15 65 A50 50 0 0 1 65 15 Z" style="fill:rgb(255,255,255);" />
<path d=" M65 30 L335 30 A35 35 0 0 1 370 65 L370 535 A35 35 0 0 1 335 570 L65 570 A35 35 0 0 1 30 535 L30 65 A35 35 0 0 1 65 30 Z" style="fill:rgb(0,0,255);" />
<path d=" M50 525 L350 525 L350 225 L50 225 Z M251.34 380.68 L251.337223365921 380.687770930667 A66.27 66.27 0 0 0 148.853712264517 381.674419171508 L148.846481159071 381.670793268581 A97.13 97.13 0 0 1 109.131356506754 401.803975958642 L109.13 401.8 L109.128732126931 425.540308334752 A97.13 97.13 0 0 0 159.27540426615 395.087521407098 L159.278854010115 395.083705788316 A66.53 66.53 0 0 1 241.961145989885 395.083705788316 L241.964599080564 395.087525236459 A97.13 97.13 0 0 0 319.423468062664 428.203728795255 L319.42 428.2 L319.42 451.96 L319.42 475.72 L319.42 499.48 L310.776531937336 499.483728795255 A97.13 97.13 0 0 1 252.224369987119 476.483047016067 L252.221382368491 476.475497530501 A66.53 66.53 0 0 0 149.018617631509 476.475497530501 L149.015630012881 476.483047016067 A97.13 97.13 0 0 1 90.463468062664 499.483728795255 L90.47 499.48 L81.82 499.48 L81.8165319373359 475.723728795255 A97.13 97.13 0 0 0 159.275400919436 442.607525236459 L159.278854010115 442.603705788317 A66.53 66.53 0 0 1 241.961145989885 442.603705788317 L241.96459573385 442.607521407098 A97.13 97.13 0 0 0 292.111267873069 473.060308334752 L292.11 473.06 L292.111269520142 449.300308735981 A97.13 97.13 0 0 1 252.182508883091 428.92747435929 L252.179524089357 428.924115829501 A66.53 66.53 0 0 0 159.668249295665 418.537233391227 L159.664774121772 418.53924050548 A97.13 97.13 0 0 1 92.9367963785474 451.961900894701 L92.94 451.96 L81.82 451.96 L81.82 380.68 L90.6048108081708 380.681877888707 A97.13 97.13 0 0 0 159.322184047456 347.628365678202 L159.32303662445 347.628695223772 A66.53 66.53 0 0 1 242.247233093674 347.891884764811 L242.250676681566 347.893388703012 A97.13 97.13 0 0 0 292.111262931852 378.020307131065 L292.11 378.02 L292.111269520142 354.260308735981 A97.13 97.13 0 0 1 252.182508883091 333.88747435929 L252.179527024713 333.884119429035 A66.53 66.53 0 0 0 149.658946099511 333.160713293866 L149.66 333.16 L149.660318841264 333.162241839851 A95.17 95.17 0 0 1 90.5128532929018 356.921978744284 L90.51 356.92 L81.82 356.92 L81.8165387115682 285.64372909709 A97.13 97.13 0 0 0 147.98860997711 263.503166202928 L147.991556562975 263.500026518487 A66.53 66.53 0 0 1 240.807199845986 251.178967677545 L240.810713814072 251.182668618058 A97.13 97.13 0 0 0 319.423468062664 285.643728795255 L319.42 285.64 L319.42 309.4 L310.77652855022 309.403728644338 A97.13 97.13 0 0 1 252.685821078159 286.792491019264 L252.683388716452 286.789342391681 A66.53 66.53 0 0 0 149.60099489383 285.901761547406 L149.597455611193 285.904945620117 A97.13 97.13 0 0 1 109.128732126931 306.740308334752 L109.13 306.74 L109.128730479858 330.500308735981 A97.13 97.13 0 0 0 149.898472622524 309.404102306633 L149.9 309.4 L149.903777670061 309.401807154744 A66.2 66.2 0 0 1 241.96033429186 300.045110046505 L241.964599080564 300.047525236459 A97.13 97.13 0 0 0 319.423468062664 333.163728795255 L319.42 333.16 L319.42 356.92 L319.42 380.68 L319.42 404.44 L310.776538711568 404.44372909709 A97.13 97.13 0 0 1 251.341527377476 380.684102306633 L251.34 380.68 Z" style="fill:rgb(255,255,255);" />
<path d=" M43.19 150 L43.19 180 L51.7600076626935 179.999999999996 A6.86 6.86 0 0 0 58.6199999999978 173.140005507561 L58.6199999999998 169.930001361357 A6 6 0 0 0 56.2462163984004 165.1497746254 L56.24 165.15 L56.2522177559313 165.144032069626 A6 6 0 0 0 59.0499999999974 160.070005550147 L59.0499999999978 156.859994492439 A6.86 6.86 0 0 0 52.1900076626935 150.000000000004 Z M47.48 153.86 L51.7600033510322 153.860000000002 A3 3 0 0 1 54.759999999999 156.859997591446 L54.759999999999 160.070002408554 A3 3 0 0 1 51.7600033510322 163.069999999998 L47.48 163.07 Z M47.48 176.14 L51.3300033510322 176.139999999998 A3 3 0 0 0 54.329999999999 173.140002408554 L54.329999999999 169.929997591446 A3 3 0 0 0 51.3300033510322 166.930000000002 L47.48 166.93 Z" style="fill:rgb(255,255,255);" />
<path d=" M64.44 150 L64.44 180 L78.58 180 L78.58 176.14 L68.73 176.14 L68.73 166.93 L75.15 166.93 L75.15 163.07 L68.73 163.07 L68.73 153.86 L78.58 153.86 L78.58 150 Z" style="fill:rgb(255,255,255);" />
<path d=" M81.89 158.57 L81.8900000000006 157.290003094992 A7.71 7.71 0 1 1 95.0517938538587 162.741792712038 L95.06 162.74 L87.4786801747768 171.018679138104 A3 3 0 1 0 92.6 173.13999984292 L96.89 173.139999618296 A7.29 7.29 0 1 1 84.4451928247075 167.985190305593 L84.45 167.99 L92.0253765134546 159.715376005485 A3.43 3.43 0 1 0 86.1700000000003 157.29000137689 L86.18 157.29 L86.18 158.57 Z" style="fill:rgb(255,255,255);" />
<path d=" M117.54 157.29 L113.25 157.29 L113.25 156.859999341487 A3.43 3.43 0 1 0 106.39 156.860000658513 L106.4 156.86 L106.39 173.139999341487 A3.43 3.43 0 0 0 113.25 173.140000658513 L113.25 172.71 L117.53 172.710001345649 A7.71 7.71 0 0 1 102.11 172.709998654351 L102.11 157.290001345649 A7.71 7.71 0 0 1 117.53 157.289998654351 Z" style="fill:rgb(255,255,255);" />
<path d=" M122.94 150 L122.94 180 L127.23 180 L127.23 167.14 L134.08 167.14 L134.08 180 L138.37 180 L138.37 150 L134.08 150 L134.08 163.29 L127.23 163.29 L127.23 150 Z" style="fill:rgb(255,255,255);" />
<path d=" M144.37 150 L144.37 180 L158.51 180 L158.51 176.14 L148.66 176.14 L148.66 166.93 L155.08 166.93 L155.08 163.07 L148.66 163.07 L148.66 153.86 L158.51 153.86 L158.51 150 Z" style="fill:rgb(255,255,255);" />
<path d=" M163.01 150 L163.01 180 L171.580007662694 179.999999999996 A6.86 6.86 0 0 0 178.439999999998 173.140005507561 L178.439999999998 170.140004789183 A6.86 6.86 0 0 0 172.869977814543 163.402377478815 L172.87 163.41 L179.04 150 L174.32 150 L168.21 163.29 L167.3 163.29 L167.3 150 Z M167.3 176.14 L171.150003351032 176.139999999998 A3 3 0 0 0 174.149999999999 173.140002408554 L174.149999999999 170.139997591446 A3 3 0 0 0 171.150003351032 167.140000000002 L167.3 167.14 Z" style="fill:rgb(255,255,255);" />
<path d=" M183.24 150 L183.24 180 L188.38 180 L193.53 159.19 L198.67 180 L203.81 180 L203.81 150 L199.53 150 L199.53 167.34 L195.24 150 L191.38 150 L187.1 167.34 L187.1 150 Z" style="fill:rgb(255,255,255);" />
<path d=" M209.81 150 L214.1 150 L214.1 180 L209.81 180 Z" style="fill:rgb(255,255,255);" />
<path d=" M220.1 150 L220.1 180 L224.6 180 L231.67 160.7 L231.67 180 L235.53 180 L235.53 150 L231.03 150 L223.96 169.3 L223.96 150 Z" style="fill:rgb(255,255,255);" />
<path d=" M252.07 163.29 L252.07 156.859999341487 A3.43 3.43 0 1 0 245.21 156.860000658513 L245.22 156.86 L245.21 173.139999341487 A3.43 3.43 0 0 0 252.07 173.140000658513 L252.07 172.71 L256.35 172.710001345649 A7.71 7.71 0 0 1 240.93 172.709998654351 L240.93 157.290001345649 A7.71 7.71 0 0 1 256.35 157.289998654351 L256.36 157.29 L256.36 167.14 L248.64 167.14 L248.64 163.29 Z" style="fill:rgb(255,255,255);" />
<path d=" M261.16 158.57 L261.160000000001 157.290003094992 A7.71 7.71 0 1 1 274.321793853859 162.741792712038 L274.33 162.74 L266.748680174777 171.018679138104 A3 3 0 1 0 271.87 173.13999984292 L276.16 173.139999618296 A7.29 7.29 0 1 1 263.715192824708 167.985190305593 L263.72 167.99 L271.295376513455 159.715376005485 A3.43 3.43 0 1 0 265.44 157.29000137689 L265.45 157.29 L265.45 158.57 Z" style="fill:rgb(255,255,255);" />
<path d=" M280.79 150 L280.79 153.86 L291.07 176.14 L281.22 176.14 L281.22 180 L295.79 180 L295.79 176.14 L285.51 153.86 L296.22 153.86 L296.22 150 Z" style="fill:rgb(255,255,255);" />
<path d=" M300.41 157.29 L300.41 172.709998654351 A7.71 7.71 0 0 0 315.83 172.710001345649 L315.84 172.71 L315.83 157.29 A7.71 7.71 0 0 0 300.41 157.29 Z M304.7 156.86 L304.69 173.139999341487 A3.43 3.43 0 0 0 311.55 173.140000658513 L311.55 156.86 A3.43 3.43 0 0 0 304.69 156.86 Z" style="fill:rgb(255,255,255);" />
<path d=" M321.24 150 L321.24 180 L325.74 180 L332.81 160.7 L332.81 180 L336.67 180 L336.67 150 L332.17 150 L325.1 169.3 L325.1 150 Z" style="fill:rgb(255,255,255);" />
<path d=" M342.67 150 L342.67 180 L356.81 180 L356.81 176.14 L346.96 176.14 L346.96 166.93 L353.38 166.93 L353.38 163.07 L346.96 163.07 L346.96 153.86 L356.81 153.86 L356.81 150 Z" style="fill:rgb(255,255,255);" />
<path d=" M105.76 75 L114.330007662694 75.0000000000043 A6.86 6.86 0 0 1 121.189999999998 81.859994492439 L121.189999999998 98.140005507561 A6.86 6.86 0 0 1 114.330007662694 104.999999999996 L105.76 105 Z M110.05 78.86 L113.900003351032 78.8600000000019 A3 3 0 0 1 116.899999999999 81.8599975914456 L116.899999999999 98.1400024085544 A3 3 0 0 1 113.900003351032 101.139999999998 L110.05 101.14 Z" style="fill:rgb(255,255,255);" />
<path d=" M126.59 75 L126.59 105 L135.160007662694 104.999999999996 A6.86 6.86 0 0 0 142.019999999998 98.140005507561 L142.019999999998 95.1400047891835 A6.86 6.86 0 0 0 136.449977814544 88.4023774788145 L136.45 88.41 L142.62 75 L137.9 75 L131.79 88.29 L130.88 88.29 L130.88 75 Z M130.88 101.14 L134.730003351032 101.139999999998 A3 3 0 0 0 137.729999999999 98.1400024085544 L137.729999999999 95.1399975914456 A3 3 0 0 0 134.730003351032 92.1400000000019 L130.88 92.14 Z" style="fill:rgb(255,255,255);" />
<path d=" M146.81 75 L151.1 75 L151.1 105 L146.81 105 Z" style="fill:rgb(255,255,255);" />
<path d=" M157.1 75 L157.1 105 L161.6 105 L168.67 85.7 L168.67 105 L172.53 105 L172.53 75 L168.03 75 L160.96 94.3 L160.96 75 Z" style="fill:rgb(255,255,255);" />
<path d=" M178.53 75 L178.53 105 L182.82 105 L182.82 94.25 L189.01 105 L193.96 105 L185.62 90.5 L194.56 75 L189.61 75 L182.82 86.78 L182.82 75 Z" style="fill:rgb(255,255,255);" />
<path d=" M196.96 105 L202.1 75 L206.39 75 L209.6 93.75 L212.82 75 L217.1 75 L222.25 105 L218.33 105 L215.15 86.42 L211.96 105 L207.68 105 L204.49 86.42 L201.31 105 Z" style="fill:rgb(255,255,255);" />
<path d=" M222.24 75 L226.63 75 L227.39 78.43 L235.09 78.43 L235.85 75 L240.24 75 L233.6 105 L228.88 105 Z M228.24 82.29 L234.24 82.29 L231.24 95.82 Z" style="fill:rgb(255,255,255);" />
<path d=" M245.81 75 L245.81 101.14 L240.24 101.14 L240.24 105 L255.67 105 L255.67 101.14 L250.1 101.14 L250.1 75 Z" style="fill:rgb(255,255,255);" />
<path d=" M259.57 75 L259.57 105 L273.71 105 L273.71 101.14 L263.86 101.14 L263.86 91.93 L270.28 91.93 L270.28 88.07 L263.86 88.07 L263.86 78.86 L273.71 78.86 L273.71 75 Z" style="fill:rgb(255,255,255);" />
<path d=" M278.21 75 L278.21 105 L286.780007662694 104.999999999996 A6.86 6.86 0 0 0 293.639999999998 98.140005507561 L293.639999999998 95.1400047891835 A6.86 6.86 0 0 0 288.069977814543 88.4023774788145 L288.07 88.41 L294.24 75 L289.52 75 L283.41 88.29 L282.5 88.29 L282.5 75 Z M282.5 101.14 L286.350003351032 101.139999999998 A3 3 0 0 0 289.349999999999 98.1400024085544 L289.349999999999 95.1399975914456 A3 3 0 0 0 286.350003351032 92.1400000000019 L282.5 92.14 Z" style="fill:rgb(255,255,255);" />
</g>
</svg>
