<svg xmlns:xlink="http://www.w3.org/1999/xlink" xmlns="http://www.w3.org/2000/svg" width="700" height="200"  viewBox="0 -0.0000152587890625 700.0000610351562 200.00001525878906"><rect id="svgEditorBackground" x="0" y="-0.000015258790881489404" width="700.0000610351562" height="200.00001525878906" style="fill:none;stroke:none;"/>
<!--Gegenereerd door de SIMaD-toepassing (http://www.dlw.be).-->
<g style="stroke:none;fill-rule:evenodd;" transform="matrix(1,0,0,-1,0,200)">
<path d=" M45 0 L655 0 A45 45 0 0 1 700 45 L700 155 A45 45 0 0 1 655 200 L45 200 A45 45 0 0 1 0 155 L0 45 A45 45 0 0 1 45 0 Z" style="fill:rgb(255,255,255);stroke:rgb(0,0,0);"/>
<path d=" M164.51 56.0699999999999 A6.07 6.07 0 0 1 152.37 56.0699999999999 A6.07 6.07 0 0 1 164.51 56.0699999999999 Z" style="fill:rgb(0,0,0);"/>
<path d=" M387.42 56.0699999999999 A6.07 6.07 0 0 1 375.28 56.0699999999999 A6.07 6.07 0 0 1 387.42 56.0699999999999 Z" style="fill:rgb(0,0,0);"/>
<path d=" M547.63 56.0699999999999 A6.07 6.07 0 0 1 535.49 56.0699999999999 A6.07 6.07 0 0 1 547.63 56.0699999999999 Z" style="fill:rgb(0,0,0);"/>
</g>
</svg>