<svg xmlns:xlink="http://www.w3.org/1999/xlink" xmlns="http://www.w3.org/2000/svg" width="600" height="400"  viewBox="0 -0.000030517578125 600 400.0000305175781"><rect id="svgEditorBackground" x="0" y="-0.00003051758176297881" width="600" height="400.0000305175781" style="fill:none;stroke:none;"/>
<!--Gegenereerd door de SIMaD-toepassing (http://www.dlw.be).-->
<g style="stroke:none;fill-rule:evenodd;" transform="matrix(1,0,0,-1,0,400)">
<path d=" M45 0 L555 0 A45 45 0 0 1 600 45 L600 355 A45 45 0 0 1 555 400 L45 400 A45 45 0 0 1 0 355 L0 45 A45 45 0 0 1 45 0 Z" style="fill:rgb(0,0,255);"/>
<path d=" M135.36 225.78 A9.11 9.11 0 0 1 117.14 225.78 A9.11 9.11 0 0 1 135.36 225.78 Z" style="fill:rgb(255,255,255);"/>
<path d=" M296.83 42.4400000000001 A9.11 9.11 0 0 1 278.61 42.4400000000001 A9.11 9.11 0 0 1 296.83 42.4400000000001 Z" style="fill:rgb(255,255,255);"/>
</g>
</svg>