<svg xmlns:xlink="http://www.w3.org/1999/xlink" xmlns="http://www.w3.org/2000/svg" width="600" height="400"  viewBox="0 0 603 403"><rect id="svgEditorBackground" x="0" y="0" width="603" height="403" style="fill:none;stroke:none;"/>
<!--Gegenereerd door de SIMaD-toepassing (http://www.dlw.be).-->
<g style="stroke:none;fill-rule:evenodd;" transform="matrix(1,0,0,-1,0,403)">
<path d=" M65 0 L538 0 A65 65 0 0 1 603 65 L603 338 A65 65 0 0 1 538 403 L65 403 A65 65 0 0 1 0 338 L0 65 A65 65 0 0 1 65 0 Z" style="fill:rgb(0,0,255);"/>
<path d=" M65 15 L538 15 A50 50 0 0 1 588 65 L588 338 A50 50 0 0 1 538 388 L65 388 A50 50 0 0 1 15 338 L15 65 A50 50 0 0 1 65 15 Z" style="fill:rgb(255,255,255);"/>
<path d=" M65 30 L538 30 A35 35 0 0 1 573 65 L573 338 A35 35 0 0 1 538 373 L65 373 A35 35 0 0 1 30 338 L30 65 A35 35 0 0 1 65 30 Z" style="fill:rgb(0,0,255);"/>
<path d=" M406.5 225.33 L406.499986309569 290.785670696744 A90 90 0 0 1 350.500018849556 310.329999999998 L252.499981150444 310.329999999998 A90 90 0 0 1 196.500013690431 290.785670696744 L196.5 290.79 L196.5 225.33 L186.5 225.33 L186.499986309569 290.785670696744 A90 90 0 0 1 130.500018849556 310.329999999998 L81.5 310.33 L121.5 225.33 L61.5 225.33 L61.5 325.33 L541.5 325.33 L541.5 225.33 L481.5 225.33 L521.5 310.33 L472.499981150444 310.329999999998 A90 90 0 0 1 416.500013690431 290.785670696744 L416.5 290.79 L416.5 225.33 Z" style="fill:rgb(255,255,255);"/>
</g>
</svg>