<svg xmlns:xlink="http://www.w3.org/1999/xlink" xmlns="http://www.w3.org/2000/svg" width="450" height="200"  viewBox="0 -0.0000152587890625 450 200.00001525878906"><rect id="svgEditorBackground" x="0" y="-0.000015258790881489404" width="450" height="200.00001525878906" style="fill:none;stroke:none;"/>
<!--Gegenereerd door de SIMaD-toepassing (http://www.dlw.be).-->
<g style="stroke:none;fill-rule:evenodd;" transform="matrix(1,0,0,-1,0,200)">
<path d=" M45 0 L405 0 A45 45 0 0 1 450 45 L450 155 A45 45 0 0 1 405 200 L45 200 A45 45 0 0 1 0 155 L0 45 A45 45 0 0 1 45 0 Z" style="fill:rgb(255,255,0);"/>
<path d=" M25.17 126.42 L24.81 128.35 L24.75 130.08 L24.92 131.52 L25.34 132.95 L25.95 134.22 L26.86 135.52 L28.25 136.91 L32.16 139.59 L33.28 140.64 L33.8 141.32 L34.11 141.87 L34.24 142.25 L34.27 142.4 L34.64 141 L34.79 139.45 L34.69 138.07 L34.4 136.85 L33.98 135.87 L33.36 134.89 L32.52 133.96 L28.93 131.28 L27.23 129.57 L25.84 127.64 L25.17 126.42 Z" style="fill:rgb(0,0,0);"/>
<path d=" M38.27 131.95 L38.5 131.49 L38.65 130.99 L38.72 130.4 L38.67 129.66 L38.45 128.77 L37.87 127.47 L36.38 125.31 L28.8 117.97 L27.13 115.76 L26.18 113.93 L25.68 112.47 L25.47 111.2 L25.47 110.07 L25.62 109.16 L25.8 108.6 L25.85 108.48 L24.67 109.34 L23.64 110.38 L22.91 111.41 L22.45 112.37 L22.19 113.28 L22.08 114.12 L22.1 115.01 L22.27 115.97 L22.74 117.31 L23.7 118.97 L25.79 121.39 L33.22 128.27 L35.05 130.55 L35.71 131.69 L35.96 132.32 L36.05 132.75 L36.07 133.04 L36.05 133.23 L36.02 133.34 L35.98 133.44 L35.94 133.51 L35.91 133.55 L35.88 133.58 L36.23 133.55 L36.63 133.46 L37.04 133.28 L37.41 133.04 L37.72 132.76 L38.01 132.4 L38.27 131.95 Z" style="fill:rgb(0,0,0);"/>
<path d=" M39.54 123.44 L39.41 122.57 L38.96 121.19 L37.32 118.29 L30.45 109.4 L28.32 104.96 L27.3 101.69 L26.89 98.01 L27.05 95.1799999999999 L27.76 92.06 L29.47 87.34 L29.79 85.56 L29.82 84.1799999999999 L29.63 82.63 L29.63 82.5499999999999 L29.64 82.5 L29.66 82.46 L29.68 82.45 L29.7 82.45 L29.73 82.45 L29.75 82.45 L29.83 82.47 L30.32 82.75 L30.71 83.12 L31.05 83.5499999999999 L31.46 84.27 L31.84 85.36 L32.14 87.16 L31.99 97.39 L32.36 100.22 L33.66 104.36 L37.25 111.13 L38.95 113.8 L39.63 115.42 L40.03 117.01 L40.21 118.88 L40.04 121.21 L39.54 123.44 Z" style="fill:rgb(0,0,0);"/>
<path d=" M40.97 110.47 L41 108.19 L39.59 100.91 L36.79 91.25 L36.17 86.2999999999999 L36.29 82.7999999999999 L36.84 79.98 L37.75 77.5499999999999 L39.05 75.32 L41.04 72.96 L49.71 66.19 L50.67 65.17 L50.73 65.2999999999999 L50.81 65.5499999999999 L50.86 66 L50.8 66.72 L50.48 67.9 L49.35 70.21 L44.08 77.06 L42.93 79.27 L41.96 82.38 L41.47 86.35 L41.74 91.25 L43.22 100.2 L43.24 104.2 L42.84 106.77 L42.28 108.47 L41.73 109.53 L41.27 110.17 L41 110.44 L40.97 110.47 Z" style="fill:rgb(0,0,0);"/>
<path d=" M72.33 101.3 L71.53 101.82 L70.98 102.06 L70.47 102.2 L69.99 102.24 L69.55 102.21 L68.86 102.05 L67.33 101.51 L66.95 101.43 L66.69 101.42 L66.44 101.43 L66.21 101.48 L65.88 101.6 L65.23 101.99 L63.68 103.16 L63.39 103.32 L63.2 103.39 L63.02 103.43 L62.88 103.45 L62.74 103.44 L62.61 103.4 L62.46 103.34 L62.24 103.2 L62.12 103.09 L62.02 102.97 L61.93 102.85 L61.86 102.71 L61.78 102.5 L61.75 102.27 L61.74 101.94 L61.81 101.51 L62.06 100.78 L62.68 99.67 L63.72 98.37 L64.41 97.72 L68.4 95.63 L68.91 95.25 L69.34 94.82 L69.69 94.34 L70.01 93.69 L70.3 92.69 L70.42 91.7999999999999 L70.35 90.42 L70.25 89.88 L70 89.25 L69.56 88.5 L68.88 87.69 L67.78 86.75 L66.49 85.98 L65.09 85.4299999999999 L63.8 85.15 L62.67 85.11 L61.74 85.23 L61 85.45 L60.44 85.72 L59.02 86.76 L58.05 87.7399999999999 L57.41 88.64 L56.9 89.71 L55.86 93.22 L51.9 101.32 L47.4 119.91 L43.99 129.93 L42.32 133.19 L41.57 134.26 L41.13 134.71 L40.88 134.91 L40.7 135.01 L40.62 135.04 L40.52 135.07 L40.45 135.07 L40.41 135.07 L40.39 135.06 L40.38 135.06 L44.92 116.45 L48.5 99.59 L50.38 94.2999999999999 L54.56 86.64 L55.35 84.41 L55.61 82.9899999999999 L56.38 74.31 L56.67 73.04 L56.97 72.36 L58.55 70.13 L61.8 66.91 L65.08 64.6 L67.72 63.32 L69.95 62.66 L71.95 62.41 L72.35 62.4 L72.35 68.5 L68.17 68.9 L62.93 70.37 L58.75 72.31 L57.71 72.98 L57.56 73.11 L57.54 73.14 L57.52 73.16 L57.51 73.17 L57.51 73.19 L57.5 73.21 L58.08 76.4899999999999 L58.59 77.95 L59.36 79.39 L60.11 80.37 L60.85 81.08 L61.7 81.6799999999999 L62.67 82.14 L63.77 82.45 L66.07 82.58 L72.11 81.75 L72.35 81.75 L72.33 101.3 Z" style="fill:rgb(0,0,0);"/>
<path d=" M49.72 129.17 L49.79 129.16 L49.93 129.11 L50.07 129.04 L50.27 128.9 L50.6 128.55 L52.88 125.23 L53.76 124.31 L54.53 123.73 L55.26 123.35 L57.19 122.86 L60.04 122.41 L60.64 122.23 L61.01 122.05 L61.26 121.88 L61.42 121.72 L61.55 121.55 L61.66 121.35 L61.69 121.28 L61.54 121.18 L61.41 121.07 L61.31 120.94 L61.23 120.8 L61.18 120.65 L61.15 120.49 L61.14 120.27 L61.17 120.05 L61.23 119.83 L61.32 119.62 L61.43 119.43 L61.57 119.25 L61.73 119.1 L61.86 119.01 L62 118.94 L62.15 118.89 L62.31 118.87 L62.41 118.87 L62.52 118.88 L62.63 118.9 L62.95 120.27 L63.06 122.13 L62.89 123.69 L62.54 125.02 L62.02 126.17 L61.46 127.01 L60.75 127.77 L59.87 128.45 L58.82 129 L57.38 129.47 L55.43 129.75 L52.25 129.62 L49.72 129.17 Z M54.46 127.03 L54.49 127.08 L54.51 127.12 L54.53 127.15 L54.56 127.18 L54.59 127.19 L54.61 127.21 L54.68 127.22 L54.83 127.23 L54.92 127.24 L55.03 127.27 L55.14 127.33 L55.16 127.34 L56.03 128.22 L56.3 128.41 L56.5 128.52 L56.7 128.59 L56.95 128.64 L57.31 128.66 L57.68 128.63 L58.03 128.56 L58.26 128.48 L58.3 128.46 L58.34 128.43 L58.36 128.39 L58.38 128.34 L58.4 128.28 L58.4 128.22 L58.4 128.08 L58.36 127.86 L58.28 127.65 L58.22 127.54 L58.18 127.49 L58.14 127.45 L58.11 127.43 L58.07 127.4 L57.97 127.36 L57.86 127.34 L56.93 127.29 L56.8 127.27 L56.68 127.24 L56.57 127.19 L56.52 127.17 L56.47 127.13 L56.43 127.1 L56.39 127.06 L56.36 127.01 L56.33 126.96 L56.3 126.9 L56.28 126.84 L56.27 126.77 L56.26 126.62 L56.27 126.47 L56.29 126.35 L56.32 126.25 L56.36 126.16 L56.41 126.08 L56.46 126.02 L56.52 125.97 L56.59 125.93 L56.67 125.9 L56.75 125.88 L56.84 125.86 L57.03 125.87 L57.47 125.95 L59.2 126.54 L59.54 126.61 L59.77 126.63 L59.78 126.62 L59.79 126.62 L59.82 126.11 L59.79 125.67 L59.73 125.41 L59.64 125.17 L59.53 124.95 L59.39 124.76 L59.24 124.58 L58.98 124.36 L58.68 124.19 L58.35 124.05 L57.88 123.95 L57.39 123.92 L56.88 123.95 L56.39 124.06 L55.91 124.24 L55.47 124.47 L55.09 124.77 L54.84 125.03 L54.64 125.31 L54.49 125.63 L54.42 125.86 L54.37 126.1 L54.36 126.35 L54.4 126.75 L54.46 127.03 Z" style="fill:rgb(0,0,0);"/>




</g>
</svg>