<?xml version="1.0" encoding="UTF-8"?><!DOCTYPE svg PUBLIC '-//W3C//DTD SVG 1.0//EN' 'http://www.w3.org/TR/2001/REC-SVG-20010904/DTD/svg10.dtd'><svg xmlns:xlink="http://www.w3.org/1999/xlink" xmlns="http://www.w3.org/2000/svg"><!--Gegenereerd door de SIMaD (http://www.dlw.be).-->
<g style="stroke:none;fill-rule:evenodd;" transform="matrix(1,0,0,-1,0,2000)">
<path d=" M65 0 L1935 0 A65 65 0 0 1 2000 65 L2000 1935 A65 65 0 0 1 1935 2000 L65 2000 A65 65 0 0 1 0 1935 L0 65 A65 65 0 0 1 65 0 Z" style="fill:rgb(0,0,255);" />
<path d=" M65 15 L1935 15 A50 50 0 0 1 1985 65 L1985 1935 A50 50 0 0 1 1935 1985 L65 1985 A50 50 0 0 1 15 1935 L15 65 A50 50 0 0 1 65 15 Z" style="fill:rgb(255,255,255);" />
<path d=" M65 30 L1935 30 A35 35 0 0 1 1970 65 L1970 1935 A35 35 0 0 1 1935 1970 L65 1970 A35 35 0 0 1 30 1935 L30 65 A35 35 0 0 1 65 30 Z" style="fill:rgb(0,0,255);" />
<path d=" M1334.26 1650.73 L1247.7 1650.73 L1317.73 1599.85 L1290.98 1517.53 L1361.01 1568.41 L1431.03 1517.53 L1404.28 1599.85 L1474.31 1650.73 L1387.75 1650.73 L1361.01 1733.05 Z" style="fill:rgb(255,255,0);" />
<path d=" M612.24 1650.73 L525.68 1650.73 L595.71 1599.85 L568.96 1517.53 L638.98 1568.41 L709.01 1517.53 L682.26 1599.85 L752.29 1650.73 L665.73 1650.73 L638.98 1733.05 Z" style="fill:rgb(255,255,0);" />
<path d=" M973.25 303.42 L886.69 303.42 L956.72 252.54 L929.97 170.22 L999.99 221.1 L1070.02 170.22 L1043.27 252.54 L1113.3 303.42 L1026.74 303.42 L999.99 385.73 Z" style="fill:rgb(255,255,0);" />
<path d=" M347.96 664.43 L261.4 664.43 L331.43 613.55 L304.68 531.23 L374.71 582.11 L444.73 531.23 L417.98 613.55 L488.01 664.43 L401.45 664.43 L374.71 746.75 Z" style="fill:rgb(255,255,0);" />
<path d=" M612.24 400.15 L525.68 400.15 L595.71 349.27 L568.96 266.95 L638.98 317.83 L709.01 266.95 L682.26 349.27 L752.29 400.15 L665.73 400.15 L638.98 482.47 Z" style="fill:rgb(255,255,0);" />
<path d=" M347.96 1386.45 L261.4 1386.45 L331.43 1335.57 L304.68 1253.25 L374.71 1304.13 L444.73 1253.25 L417.98 1335.57 L488.01 1386.45 L401.45 1386.45 L374.71 1468.77 Z" style="fill:rgb(255,255,0);" />
<path d=" M251.23 1025.44 L164.67 1025.44 L234.7 974.56 L207.95 892.24 L277.97 943.12 L348 892.24 L321.25 974.56 L391.28 1025.44 L304.72 1025.44 L277.97 1107.76 Z" style="fill:rgb(255,255,0);" />
<path d=" M1598.54 664.43 L1511.98 664.43 L1582.01 613.55 L1555.26 531.23 L1625.28 582.11 L1695.31 531.23 L1668.56 613.55 L1738.59 664.43 L1652.03 664.43 L1625.28 746.75 Z" style="fill:rgb(255,255,0);" />
<path d=" M1334.26 400.15 L1247.7 400.15 L1317.73 349.27 L1290.98 266.95 L1361.01 317.83 L1431.03 266.95 L1404.28 349.27 L1474.31 400.15 L1387.75 400.15 L1361.01 482.47 Z" style="fill:rgb(255,255,0);" />
<path d=" M1695.27 1025.44 L1608.71 1025.44 L1678.74 974.56 L1651.99 892.24 L1722.02 943.12 L1792.04 892.24 L1765.29 974.56 L1835.32 1025.44 L1748.76 1025.44 L1722.02 1107.76 Z" style="fill:rgb(255,255,0);" />
<path d=" M1596.83 1382 L1510.27 1382 L1580.3 1331.12 L1553.55 1248.81 L1623.58 1299.68 L1693.6 1248.81 L1666.85 1331.12 L1736.88 1382 L1650.32 1382 L1623.58 1464.32 Z" style="fill:rgb(255,255,0);" />
<path d=" M973.25 1747.46 L886.69 1747.46 L956.72 1696.58 L929.97 1614.26 L999.99 1665.14 L1070.02 1614.26 L1043.27 1696.58 L1113.3 1747.46 L1026.74 1747.46 L999.99 1829.78 Z" style="fill:rgb(255,255,0);" />
<path d=" M541.52 837.5 L541.52 1162.5 L634.380082982726 1162.49999999995 A74.29 74.29 0 0 0 708.669999999976 1088.21005964383 L708.66 1088.21 L708.659999999998 1053.39001474803 A65 65 0 0 0 682.944010982671 1001.6042251085 L682.95 1001.61 L683.000692355922 1001.57868075429 A65 65 0 0 0 713.309999999972 946.610060126593 L713.309999999976 911.789940356165 A74.29 74.29 0 0 0 639.020082982726 837.500000000046 Z M587.95 879.29 L634.380036302849 879.29000000002 A32.5 32.5 0 0 1 666.87999999999 911.789973907328 L666.87999999999 946.610026092672 A32.5 32.5 0 0 1 634.380036302849 979.10999999998 L587.95 979.11 Z M587.95 1120.71 L629.730036302849 1120.70999999998 A32.5 32.5 0 0 0 662.22999999999 1088.21002609267 L662.22999999999 1053.38997390733 A32.5 32.5 0 0 0 629.730036302849 1020.89000000002 L587.95 1020.89 Z" style="fill:rgb(255,255,255);" />
<path d=" M859.55 907.14 L859.549999999999 897.859995137513 A27.86 27.86 0 0 0 803.83 897.860004862487 L803.84 897.86 L803.84 948.93 L901.34 948.93 L901.329999999999 1004.64001215447 A69.64 69.64 0 0 1 762.050000000001 1004.63998784553 L762.050000000001 902.500012154473 A69.64 69.64 0 0 1 901.329999999999 902.499987845527 L901.34 902.5 L901.34 907.14 Z M859.55 986.07 L859.549999999999 1009.29000486249 A27.86 27.86 0 0 1 803.83 1009.28999513751 L803.84 1009.29 L803.84 986.07 Z" style="fill:rgb(255,255,255);" />
<path d=" M947.81 837.5 L989.6 837.5 L989.6 1162.5 L947.81 1162.5 Z" style="fill:rgb(255,255,255);" />
<path d=" M1133.57 805 L1133.57015024564 853.357422430115 A57.75 57.75 0 0 0 1036.07000000001 895.250041325033 L1036.07000000001 1016.53995867497 A57.75 57.75 0 0 0 1133.57015024564 1058.43257756988 L1133.57 1058.43 L1133.57 1069.64 L1175.36 1069.64 L1175.34999999999 809.64003160163 A69.64 69.64 0 0 0 1045.40000546582 774.819974737405 L1080.79495367571 792.533241533653 A27.86 27.86 0 0 1 1133.57 805.000015073711 Z M1133.57 902.5 L1133.57 1009.29000486249 A27.86 27.86 0 0 1 1077.85 1009.28999513751 L1077.86 1009.29 L1077.85 902.500004862487 A27.86 27.86 0 0 1 1133.57 902.499995137513 Z" style="fill:rgb(255,255,255);" />
<path d=" M1230.94 837.5 L1230.94 1069.64 L1272.73 1069.64 L1272.73 837.5 Z" style="fill:rgb(255,255,255);" />
<path d=" M1233.26 1116.07 L1233.26 1153.21 L1270.4 1153.21 L1270.4 1116.07 Z" style="fill:rgb(255,255,255);" />
<path d=" M1416.7 907.14 L1416.7 897.859995137513 A27.86 27.86 0 0 0 1360.98 897.860004862487 L1360.99 897.86 L1360.99 948.93 L1458.49 948.93 L1458.48 1004.64001215447 A69.64 69.64 0 0 1 1319.2 1004.63998784553 L1319.2 902.500012154473 A69.64 69.64 0 0 1 1458.48 902.499987845527 L1458.49 902.5 L1458.49 907.14 Z M1416.7 986.07 L1416.7 1009.29000486249 A27.86 27.86 0 0 1 1360.98 1009.28999513751 L1360.99 1009.29 L1360.99 986.07 Z" style="fill:rgb(255,255,255);" />
<path d=" M1333.13 1116.07 L1333.13 1153.21 L1370.27 1153.21 L1370.27 1116.07 Z" style="fill:rgb(255,255,255);" />
<path d=" M1407.41 1116.07 L1407.41 1153.21 L1444.56 1153.21 L1444.56 1116.07 Z" style="fill:rgb(255,255,255);" />
</g>
</svg>
