<?xml version="1.0" encoding="UTF-8"?><!DOCTYPE svg PUBLIC '-//W3C//DTD SVG 1.0//EN' 'http://www.w3.org/TR/2001/REC-SVG-20010904/DTD/svg10.dtd'><svg xmlns:xlink="http://www.w3.org/1999/xlink" xmlns="http://www.w3.org/2000/svg"><!--Gegenereerd door de SIMaD (http://www.dlw.be).-->
<g style="stroke:none;fill-rule:evenodd;" transform="matrix(1,0,0,-1,0,2250)">
<path d=" M65 0 L2435 0 A65 65 0 0 1 2500 65 L2500 2185 A65 65 0 0 1 2435 2250 L65 2250 A65 65 0 0 1 0 2185 L0 65 A65 65 0 0 1 65 0 Z" style="fill:rgb(0,0,0);" />
<path d=" M65 30 L2435 30 A35 35 0 0 1 2470 65 L2470 2185 A35 35 0 0 1 2435 2220 L65 2220 A35 35 0 0 1 30 2185 L30 65 A35 35 0 0 1 65 30 Z" style="fill:rgb(255,255,0);" />
<path d=" M462.07 1842 L533.500063825993 1842.00000000004 A57.14 57.14 0 0 1 590.639999999982 1899.13995412507 L590.639999999982 2034.86004587493 A57.14 57.14 0 0 1 533.500063825993 2091.99999999996 L462.07 2092 Z M497.78 1874.14 L529.930027925268 1874.14000000002 A25 25 0 0 1 554.929999999992 1899.13997992871 L554.929999999992 2034.86002007129 A25 25 0 0 1 529.930027925268 2059.85999999998 L497.78 2059.86 Z" style="fill:rgb(0,0,0);" />
<path d=" M718.14 1895.57 L718.14 1888.42999588574 A21.43 21.43 0 1 0 675.28 1888.43000411426 L675.28 1927.71 L750.28 1927.71 L750.279999999999 1970.57000841476 A53.57 53.57 0 0 1 643.140000000001 1970.56999158524 L643.140000000001 1892.00000841476 A53.57 53.57 0 0 1 750.279999999999 1891.99999158524 L750.28 1895.57 Z M718.14 1956.29 L718.14 1974.14000336622 A21.43 21.43 0 0 1 675.28 1974.13999663378 L675.28 1956.29 Z" style="fill:rgb(0,0,0);" />
<path d=" M880.28 1770.57 L912.42 1770.57 L912.425128730375 1850.62712540995 A44.42 44.42 0 0 1 987.419999999994 1882.84997674174 L987.419999999994 1979.72002325826 A44.42 44.42 0 0 1 912.425128730375 2011.94287459005 L912.42 2011.94 L912.42 2020.57 L880.28 2020.57 Z M912.42 1888.43 L912.42 1974.13999588574 A21.43 21.43 0 0 0 955.28 1974.14000411426 L955.28 1888.43 A21.43 21.43 0 0 0 912.42 1888.43 Z" style="fill:rgb(0,0,0);" />
<path d=" M1037.47 1842 L1069.61 1842 L1069.61000000001 1963.42997855846 A28.57 28.57 0 0 0 1098.1800209429 1991.99999999999 L1117.83 1992 L1117.83 2020.57 L1098.18004862138 2020.56999999997 A46.43 46.43 0 0 1 1069.60763510485 2010.73733411463 L1069.61 2010.74 L1069.61 2020.57 L1037.47 2020.57 Z" style="fill:rgb(0,0,0);" />
<path d=" M1145.48 1892 L1145.48 1970.56999065027 A53.57 53.57 0 0 0 1252.62 1970.57000934973 L1252.62 1892 A53.57 53.57 0 0 0 1145.48 1892 Z M1177.62 1888.43 L1177.62 1974.13999588574 A21.43 21.43 0 0 0 1220.48 1974.14000411426 L1220.48 1888.43 A21.43 21.43 0 0 0 1177.62 1888.43 Z" style="fill:rgb(0,0,0);" />
<path d=" M1328.33 1842 L1364.05 1842 L1404.76 2020.57 L1371.8 2020.57 L1346.19 1908.27 L1320.59 2020.57 L1287.62 2020.57 Z" style="fill:rgb(0,0,0);" />
<path d=" M1447.12 1842 L1447.12 2020.57 L1479.26 2020.57 L1479.26 1842 Z" style="fill:rgb(0,0,0);" />
<path d=" M1448.91 2056.29 L1448.91 2084.86 L1477.48 2084.86 L1477.48 2056.29 Z" style="fill:rgb(0,0,0);" />
<path d=" M1539.11 1842 L1571.25 1842 L1571.25 1974.13999588574 A21.43 21.43 0 0 0 1614.11 1974.14000411426 L1614.11 1842 L1646.25 1842 L1646.24999999999 1979.72002325826 A44.42 44.42 0 0 1 1571.25512873037 2011.94287459005 L1571.25 2011.94 L1571.25 2020.57 L1539.11 2020.57 Z" style="fill:rgb(0,0,0);" />
<path d=" M1766.4 1892 L1766.4 1888.42999588574 A21.43 21.43 0 1 0 1723.54 1888.43000411426 L1723.54 1974.13999588574 A21.43 21.43 0 0 0 1766.4 1974.14000411426 L1766.4 1970.57 L1798.54 1970.57000841476 A53.57 53.57 0 0 1 1691.4 1970.56999158524 L1691.4 1892.00000841476 A53.57 53.57 0 0 1 1798.54 1891.99999158524 Z" style="fill:rgb(0,0,0);" />
<path d=" M1848.6 1842 L1848.6 2020.57 L1880.74 2020.57 L1880.74 1842 Z" style="fill:rgb(0,0,0);" />
<path d=" M1850.39 2056.29 L1850.39 2084.86 L1878.96 2084.86 L1878.96 2056.29 Z" style="fill:rgb(0,0,0);" />
<path d=" M2005.79 1895.57 L2005.79 1888.42999588574 A21.43 21.43 0 1 0 1962.93 1888.43000411426 L1962.93 1927.71 L2037.93 1927.71 L2037.93 1970.57000841476 A53.57 53.57 0 0 1 1930.79 1970.56999158524 L1930.79 1892.00000841476 A53.57 53.57 0 0 1 2037.93 1891.99999158524 L2037.93 1895.57 Z M2005.79 1956.29 L2005.79 1974.14000336622 A21.43 21.43 0 0 1 1962.93 1974.13999663378 L1962.93 1956.29 Z" style="fill:rgb(0,0,0);" />
<path d=" M176.3 1714 L229.87 1464 L272.73 1464 L326.3 1714 L289.77 1714 L251.3 1539 L212.83 1714 Z" style="fill:rgb(0,0,0);" />
<path d=" M366.2 1464 L398.34 1464 L398.34 1714 L366.2 1714 Z" style="fill:rgb(0,0,0);" />
<path d=" M526.96 1464 L526.958685341053 1468.82465888835 A50 50 0 0 0 505.530031415926 1464.00000000001 L498.389993018683 1464 A50 50 0 0 0 498.390006981317 1564 L505.53002393754 1564.00000000001 A21.43 21.43 0 0 1 526.959999999993 1585.42998279489 L526.96 1596.14000336622 A21.43 21.43 0 0 1 484.1 1596.13999663378 L484.1 1592.57 L451.960000000001 1592.56999065027 A53.57 53.57 0 0 0 559.099999999999 1592.57000934973 L559.1 1464 Z M526.96 1514 L526.958685341053 1540.25465888835 A50 50 0 0 0 505.530031415926 1535.43000000001 L501.959996259759 1535.43 A21.43 21.43 0 0 1 501.960003740241 1492.57 L505.53002393754 1492.57000000001 A21.43 21.43 0 0 1 526.959999999993 1513.99998279489 Z" style="fill:rgb(0,0,0);" />
<path d=" M682.83 1464 L682.828685341053 1468.82465888835 A50 50 0 0 0 661.400031415927 1464.00000000001 L654.259993018683 1464 A50 50 0 0 0 654.260006981317 1564 L661.40002393754 1564.00000000001 A21.43 21.43 0 0 1 682.829999999993 1585.42998279489 L682.83 1596.14000336622 A21.43 21.43 0 0 1 639.97 1596.13999663378 L639.97 1592.57 L607.830000000001 1592.56999065027 A53.57 53.57 0 0 0 714.969999999999 1592.57000934973 L714.97 1464 Z M682.83 1514 L682.828685341053 1540.25465888835 A50 50 0 0 0 661.400031415927 1535.43000000001 L657.829996259759 1535.43 A21.43 21.43 0 0 1 657.830003740241 1492.57 L661.40002393754 1492.57000000001 A21.43 21.43 0 0 1 682.829999999993 1513.99998279489 Z" style="fill:rgb(0,0,0);" />
<path d=" M769.92 1464 L802.06 1464 L802.06 1596.13999588574 A21.43 21.43 0 0 0 844.92 1596.14000411426 L844.92 1464 L877.06 1464 L877.06 1596.13999588574 A21.43 21.43 0 0 0 919.92 1596.14000411426 L919.92 1464 L952.06 1464 L952.059999999992 1601.72002713463 A44.42 44.42 0 0 1 870.142566252706 1625.53341769607 L870.13743624103 1625.53341376934 A44.42 44.42 0 0 1 802.065122544028 1633.94286872009 L802.06 1633.94 L802.06 1642.57 L769.92 1642.57 Z" style="fill:rgb(0,0,0);" />
<path d=" M997.21 1514 L1029.35 1514.00001159475 A21.43 21.43 0 1 1 1061.49500647829 1532.55892066286 L1061.5 1532.56 L1025.78 1552.83872981078 A50 50 0 1 0 1100.78 1596.13999040069 L1068.64 1596.13999657113 A17.86 17.86 0 1 1 1041.85 1580.67278628841 L1041.85 1580.68 L1077.5650080971 1560.39297620587 A53.57 53.57 0 1 0 997.210000000004 1514.00001963443 Z" style="fill:rgb(0,0,0);" />
<path d=" M1146.86 1535.43 L1146.86 1571.14 L1275.43 1571.14 L1275.43 1535.43 Z" style="fill:rgb(0,0,0);" />
<path d=" M1317.93 1464 L1317.93 1714 L1389.36006382599 1713.99999999996 A57.14 57.14 0 0 0 1446.49999999998 1656.86004587493 L1446.5 1630.07001134464 A50 50 0 0 0 1426.71846998667 1590.234788545 L1426.72 1590.24 L1426.75514796609 1590.21360058022 A50 50 0 0 0 1450.06999999998 1547.93004625123 L1450.06999999998 1521.13995412507 A57.14 57.14 0 0 0 1392.93006382599 1464.00000000004 Z M1353.64 1496.14 L1389.36002792527 1496.14000000002 A25 25 0 0 1 1414.35999999999 1521.13997992871 L1414.35999999999 1547.93002007129 A25 25 0 0 1 1389.36002792527 1572.92999999998 L1353.64 1572.93 Z M1353.64 1681.86 L1385.79002792527 1681.85999999998 A25 25 0 0 0 1410.78999999999 1656.86002007129 L1410.78999999999 1630.06997992871 A25 25 0 0 0 1385.79002792527 1605.07000000002 L1353.64 1605.07 Z" style="fill:rgb(0,0,0);" />
<path d=" M1507.47 1464 L1539.61 1464 L1539.61000000001 1585.42997855846 A28.57 28.57 0 0 0 1568.1800209429 1613.99999999999 L1587.83 1614 L1587.83 1642.57 L1568.18004862138 1642.56999999997 A46.43 46.43 0 0 1 1539.60763510485 1632.73733411463 L1539.61 1632.74 L1539.61 1642.57 L1507.47 1642.57 Z" style="fill:rgb(0,0,0);" />
<path d=" M1694.05 1464 L1694.04868534105 1468.82465888835 A50 50 0 0 0 1672.62003141593 1464.00000000001 L1665.47999301868 1464 A50 50 0 0 0 1665.48000698132 1564 L1672.62002393754 1564.00000000001 A21.43 21.43 0 0 1 1694.04999999999 1585.42998279489 L1694.05 1596.14000336622 A21.43 21.43 0 0 1 1651.19 1596.13999663378 L1651.19 1592.57 L1619.05 1592.56999065027 A53.57 53.57 0 0 0 1726.19 1592.57000934973 L1726.19 1464 Z M1694.05 1514 L1694.04868534105 1540.25465888835 A50 50 0 0 0 1672.62003141593 1535.43000000001 L1669.04999625976 1535.43 A21.43 21.43 0 0 1 1669.05000374024 1492.57 L1672.62002393754 1492.57000000001 A21.43 21.43 0 0 1 1694.04999999999 1513.99998279489 Z" style="fill:rgb(0,0,0);" />
<path d=" M1781.14 1464 L1813.28 1464 L1813.28512873038 1472.62712540995 A44.42 44.42 0 0 1 1888.27999999999 1504.84997674174 L1888.27999999999 1601.72002325826 A44.42 44.42 0 0 1 1813.28512873038 1633.94287459005 L1813.28 1633.94 L1813.28 1714 L1781.14 1714 Z M1813.28 1510.43 L1813.28 1596.13999588574 A21.43 21.43 0 0 0 1856.14 1596.14000411426 L1856.14 1510.43 A21.43 21.43 0 0 0 1813.28 1510.43 Z" style="fill:rgb(0,0,0);" />
<path d=" M2009.21 1464 L2009.20868534105 1468.82465888835 A50 50 0 0 0 1987.78003141593 1464.00000000001 L1980.63999301868 1464 A50 50 0 0 0 1980.64000698132 1564 L1987.78002393754 1564.00000000001 A21.43 21.43 0 0 1 2009.20999999999 1585.42998279489 L2009.21 1596.14000336622 A21.43 21.43 0 0 1 1966.35 1596.13999663378 L1966.35 1592.57 L1934.21 1592.56999065027 A53.57 53.57 0 0 0 2041.35 1592.57000934973 L2041.35 1464 Z M2009.21 1514 L2009.20868534105 1540.25465888835 A50 50 0 0 0 1987.78003141593 1535.43000000001 L1984.20999625976 1535.43 A21.43 21.43 0 0 1 1984.21000374024 1492.57 L1987.78002393754 1492.57000000001 A21.43 21.43 0 0 1 2009.20999999999 1513.99998279489 Z" style="fill:rgb(0,0,0);" />
<path d=" M2096.3 1464 L2128.44 1464 L2128.44 1596.13999588574 A21.43 21.43 0 0 0 2171.3 1596.14000411426 L2171.3 1464 L2203.44 1464 L2203.43999999999 1601.72002325826 A44.42 44.42 0 0 1 2128.44512873038 1633.94287459005 L2128.44 1633.94 L2128.44 1642.57 L2096.3 1642.57 Z" style="fill:rgb(0,0,0);" />
<path d=" M2259.41 1614 L2259.41000000001 1496.1400241208 A32.14 32.14 0 0 1 2291.55002355985 1464.00000000001 L2320.13 1464 L2320.13 1492.57 L2302.27000785084 1492.58 A10.71 10.71 0 0 0 2291.56 1503.29000803776 L2291.55 1503.29 L2291.55 1614 L2323.7 1614 L2323.7 1642.57 L2291.55 1642.57 L2291.55 1714 L2259.41 1695.44 L2259.41 1642.57 L2243.34 1642.57 L2243.34 1614 Z" style="fill:rgb(0,0,0);" />
<path d=" M327.5 158 L359.64 158 L359.64 290.139995885735 A21.43 21.43 0 0 0 402.5 290.140004114265 L402.5 158 L434.64 158 L434.639999999994 295.720023258258 A44.42 44.42 0 0 1 359.645128730375 327.942874590046 L359.64 327.94 L359.64 408 L327.5 408 Z" style="fill:rgb(0,0,0);" />
<path d=" M554.79 211.57 L554.79 204.429995885735 A21.43 21.43 0 1 0 511.93 204.430004114265 L511.93 243.71 L586.93 243.71 L586.929999999999 286.570008414756 A53.57 53.57 0 0 1 479.790000000001 286.569991585244 L479.790000000001 208.000008414756 A53.57 53.57 0 0 1 586.929999999999 207.999991585244 L586.93 211.57 Z M554.79 272.29 L554.79 290.140003366217 A21.43 21.43 0 0 1 511.93 290.139996633783 L511.93 272.29 Z" style="fill:rgb(0,0,0);" />
<path d=" M704.28 211.57 L704.28 204.429995885735 A21.43 21.43 0 1 0 661.42 204.430004114265 L661.42 243.71 L736.42 243.71 L736.419999999999 286.570008414756 A53.57 53.57 0 0 1 629.280000000001 286.569991585244 L629.280000000001 208.000008414756 A53.57 53.57 0 0 1 736.419999999999 207.999991585244 L736.42 211.57 Z M704.28 272.29 L704.28 290.140003366217 A21.43 21.43 0 0 1 661.42 290.139996633783 L661.42 272.29 Z" style="fill:rgb(0,0,0);" />
<path d=" M794.85 308 L794.850000000009 190.140024120799 A32.14 32.14 0 0 1 826.99002355985 158.000000000009 L855.57 158 L855.57 186.57 L837.71000785084 186.580000000003 A10.71 10.71 0 0 0 827.000000000003 197.290008037765 L826.99 197.29 L826.99 308 L859.14 308 L859.14 336.57 L826.99 336.57 L826.99 408 L794.85 389.44 L794.85 336.57 L778.78 336.57 L778.78 308 Z" style="fill:rgb(0,0,0);" />
<path d=" M1064.13 158 L1064.12486002172 166.627114737312 A44.42 44.42 0 0 0 989.130000000001 198.849992247247 L989.13 336.57 L1021.27 336.57 L1021.27 204.430003366217 A21.43 21.43 0 0 1 1064.13 204.429996633783 L1064.13 336.57 L1096.27 336.57 L1096.27 158 Z" style="fill:rgb(0,0,0);" />
<path d=" M1261.99 158 L1297.71 158 L1319.14 265.14 L1340.57 158 L1376.28 158 L1411.99 336.57 L1382.86 336.57 L1360.1 222.8 L1337.35 336.57 L1304.57 336.57 L1281.81 222.8 L1259.06 336.57 L1226.28 336.57 Z" style="fill:rgb(0,0,0);" />
<path d=" M1521.99 211.57 L1521.99 204.429995885735 A21.43 21.43 0 1 0 1479.13 204.430004114265 L1479.13 243.71 L1554.13 243.71 L1554.13 286.570008414756 A53.57 53.57 0 0 1 1446.99 286.569991585244 L1446.99 208.000008414756 A53.57 53.57 0 0 1 1554.13 207.999991585244 L1554.13 211.57 Z M1521.99 272.29 L1521.99 290.140003366217 A21.43 21.43 0 0 1 1479.13 290.139996633783 L1479.13 272.29 Z" style="fill:rgb(0,0,0);" />
<path d=" M1604.18 158 L1636.32 158 L1636.32 408 L1604.18 408 Z" style="fill:rgb(0,0,0);" />
<path d=" M1696.18 158 L1696.18 408 L1728.32 408 L1728.32 277.29 L1769.26 336.57 L1808.32 336.57 L1749.75 251.75 L1808.32 158 L1770.42 158 L1728.32 225.39 L1728.32 158 Z" style="fill:rgb(0,0,0);" />
<path d=" M1833.17 208 L1833.17 286.569990650271 A53.57 53.57 0 0 0 1940.31 286.570009349729 L1940.31 208 A53.57 53.57 0 0 0 1833.17 208 Z M1865.31 204.43 L1865.31 290.139995885735 A21.43 21.43 0 0 0 1908.17 290.140004114265 L1908.17 204.43 A21.43 21.43 0 0 0 1865.31 204.43 Z" style="fill:rgb(0,0,0);" />
<path d=" M1990.36 158 L2022.5 158 L2022.5 290.139995885735 A21.43 21.43 0 0 0 2065.36 290.140004114265 L2065.36 158 L2097.5 158 L2097.5 290.139995885735 A21.43 21.43 0 0 0 2140.36 290.140004114265 L2140.36 158 L2172.5 158 L2172.49999999999 295.720027134634 A44.42 44.42 0 0 1 2090.58256625271 319.533417696065 L2090.57743624103 319.533413769343 A44.42 44.42 0 0 1 2022.50512254403 327.942868720092 L2022.5 327.94 L2022.5 336.57 L1990.36 336.57 Z" style="fill:rgb(0,0,0);" />
<path d=" M1249.99837861346 535.99917751871 A493.2 493.2 0 0 0 936.898845900184 873.65291242709 L936.90306228318 873.652415814487 A674.44 674.44 0 0 0 914.53753348083 1077.87700766598 L914.54 1077.88 L915.9 1336 L1584.1 1336 L1585.47246600348 1077.87701942588 A674.44 674.44 0 0 0 1563.10693771682 873.652415814487 L1563.10115409982 873.65291242709 A493.2 493.2 0 0 0 1250.00162138654 535.99917751871 Z" style="fill:rgb(0,0,0);" />
<path d=" M1145.07666383588 916.292657346039 A2.4 2.4 0 0 0 1142.63994486393 913.640522039411 L1142.63410468096 913.631857744233 A31.35 31.35 0 0 1 1121.11508463537 907.757850328637 L1121.11367692141 907.754527880697 A519.96 519.96 0 0 1 1092.35378672932 880.829226714268 L1092.35482532624 880.839564640563 A20.86 20.86 0 0 0 1058.36544217998 884.766435623337 L1058.35787642729 884.760648566699 A30.16 30.16 0 0 1 1092.87264512328 852.62900095021 L1092.87287958925 852.626017980595 A45.49 45.49 0 0 1 1111.38421814088 858.354052052532 L1111.37964607162 858.362679212417 A15.67 15.67 0 0 0 1134.4132836983 851.750388694918 L1134.41077139296 851.743968308191 A220.41 220.41 0 0 1 1140.50479460173 832.523805847079 L1140.50876205155 832.529542771855 A15.08 15.08 0 0 1 1153.74025731533 822.688074096848 L1153.74160084718 822.686350964144 A23.72 23.72 0 0 0 1148.77730276223 810.908778230255 L1148.77915025809 810.902183920959 A50.91 50.91 0 0 0 1126.09090509153 792.422254133482 L1126.08402033602 792.430275683683 A44.52 44.52 0 0 0 1105.94016198364 792.814922318881 L1105.94261732628 792.810014138288 A5.63 5.63 0 0 0 1101.0194904931 801.193869347425 L1101.0215599279 801.190871074275 A8.83 8.83 0 0 1 1102.14583557801 805.238842573388 L1102.14715124467 805.234514558734 A6.04 6.04 0 0 1 1091.53902607703 809.368138472183 L1091.54137468324 809.364299505808 A40.88 40.88 0 0 0 1072.0095385575 800.504832719637 L1072.01 800.51 L1072.20139781092 786.448825117946 A5.02 5.02 0 0 0 1076.88742153744 779.369026427006 L1076.87324321421 779.368905187674 A45.49 45.49 0 0 0 1067.84253871237 768.912805446557 L1067.85342858709 768.908462744896 A5.41 5.41 0 0 0 1062.93579456598 775.002424417006 L1062.93129465213 774.998710913571 A5.01 5.01 0 0 1 1053.1958702241 772.98154325021 L1053.2 772.98 L1053.44 747.68 L1053.00996063312 747.741989253582 A1.13 1.13 0 0 1 1053.34107361227 745.512912128806 L1053.33784845856 745.518882961566 A16.87 16.87 0 0 0 1056.37795889418 740.613830775492 L1056.38 740.61 L1064.43134070435 740.554990648695 A14.24 14.24 0 0 0 1069.59897441675 753.485050383994 L1069.60442406507 753.487169937494 A10.01 10.01 0 0 0 1077.69556580135 744.197367947378 L1077.69274911271 744.194200107531 A22.91 22.91 0 0 1 1079.54030728626 734.38685139694 L1079.53999487138 734.38603802778 A9.39 9.39 0 0 0 1072.05737416287 735.659770793115 L1072.05324765772 735.66067034781 A2.04 2.04 0 0 1 1068.48870105984 734.745477625302 L1068.49253782087 734.749362477026 A15.42 15.42 0 0 1 1068.359649732 729.546832654752 L1068.3635018704 729.544199211651 A2.27 2.27 0 0 1 1070.20769084495 727.635934794201 L1070.20128668795 727.6348516856 A40.2 40.2 0 0 0 1091.18473482858 711.917305293141 L1091.18389244242 711.917425262553 A5.09 5.09 0 0 1 1096.40046167187 719.148038660276 L1096.39955523093 719.151040488185 A37.02 37.02 0 0 1 1092.10736127764 726.107926135937 L1092.10720782172 726.109389830798 A5.45 5.45 0 0 0 1095.19185663893 733.11654322407 L1095.19968827748 733.108323377991 A12 12 0 0 0 1107.31215795846 731.733341506126 L1107.31311990265 731.735143602515 A4.94 4.94 0 0 0 1106.91660993984 723.575183133526 L1106.90875844547 723.57932961922 A17.46 17.46 0 0 1 1105.93996331326 713.90117684683 L1105.94995554447 713.900799396612 A2.03 2.03 0 0 1 1107.31699066108 711.777897296375 L1107.31083463955 711.775437860454 A2.36 2.36 0 0 1 1108.61212330328 711.713110293454 L1108.61757165292 711.702481607112 A40.35 40.35 0 0 0 1129.32794389203 719.943028891392 L1129.33098148972 719.948232965267 A1.95 1.95 0 0 1 1126.75165086757 720.855315188518 L1126.75259791284 720.855632305432 A1.96 1.96 0 0 0 1124.14382961457 723.458745293748 L1124.14 723.46 L1128.8711476861 732.064041364031 A5.09 5.09 0 0 0 1137.59364144715 730.374995410768 L1137.59550399469 730.373797417568 A49.48 49.48 0 0 1 1147.12985152449 709.697914321046 L1147.12613394825 709.698239774202 A45.12 45.12 0 0 1 1159.97013010089 709.303512782957 L1159.97 709.3 L1145.71198535262 723.831283808373 A7.8 7.8 0 0 0 1145.30331895583 733.600688401277 L1145.29298485208 733.60468136064 A19.99 19.99 0 0 0 1155.78721491928 742.101546965722 L1155.7886446074 742.104192958473 A49.19 49.19 0 0 1 1161.10043905942 727.038084904443 L1161.10177049092 727.032184849061 A19.3 19.3 0 0 1 1182.83174814198 717.629438750584 L1182.8287557489 717.632262513009 A258.47 258.47 0 0 0 1164.66852794346 735.311763408952 L1164.67127898703 735.309034795922 A10.65 10.65 0 0 0 1164.87434557153 749.070812166802 L1164.86619524195 749.07001352164 A42.23 42.23 0 0 0 1179.36344822398 759.821861855188 L1179.36939197867 759.822775432682 A47.05 47.05 0 0 0 1180.95302888386 744.340798345357 L1180.95092706841 744.332077516414 A39.65 39.65 0 0 0 1202.67337652431 730.347324173964 L1202.67717986781 730.351823455151 A39.8 39.8 0 0 1 1203.18705291243 739.317549068741 L1203.1883267692 739.314682507002 A7.61 7.61 0 0 1 1201.95758290363 744.322735802258 L1201.95380883655 744.323453441115 A73.6 73.6 0 0 1 1194.56468751722 753.692320477811 L1194.56850928844 753.697642881201 A8.75 8.75 0 0 1 1192.33364290345 755.430461944156 L1192.32886322564 755.426916933316 A10.38 10.38 0 0 0 1193.07617539072 774.04064058188 L1193.08 774.04 L1192.87033299295 789.243194010215 A15.99 15.99 0 0 0 1203.18040715338 804.087318324589 L1203.1788518175 804.087817139188 A18.62 18.62 0 0 0 1210.07662214627 788.904300130429 L1210.07854779501 788.910627744635 A99.46 99.46 0 0 0 1209.4262488298 780.703157051254 L1209.41707834767 780.703550858809 A14.98 14.98 0 0 1 1226.53592119355 767.191824332539 L1226.53255229344 767.190317998651 A15.25 15.25 0 0 0 1221.5556024278 781.40590416108 L1221.56746337951 781.410029675567 A16.1 16.1 0 0 0 1217.29047514495 805.177879396794 L1217.28411543726 805.170235154871 A32 32 0 0 1 1220.98235152355 822.477885366614 L1220.98212552401 822.487221546206 A348.31 348.31 0 0 1 1219.83181509062 840.844349903161 L1219.83580081005 840.844797272838 A70.45 70.45 0 0 0 1201.03281396087 850.573092677577 L1201.02722145842 850.575041626121 A158.49 158.49 0 0 0 1174.29184676226 875.13751491864 L1174.29471074291 875.1259351226 A264.43 264.43 0 0 0 1145.07548046986 916.284039646903 Z" style="fill:rgb(255,255,0);" />
<path d=" M1191.81 1201.26 L1191.81776890829 1211.09366822419 A2.8 2.8 0 0 0 1195.55637640575 1210.53164290947 L1195.55685529208 1210.53526215389 A5.97 5.97 0 0 0 1197.05659778221 1207.87725514181 L1197.05234140819 1207.87694893113 A48.98 48.98 0 0 0 1195.5197952735 1190.14726261202 L1195.52118327331 1190.14893361167 A19.15 19.15 0 0 0 1178.51959611473 1178.3424202889 L1178.52282208046 1178.34209019622 A6.2 6.2 0 0 1 1183.23662279642 1176.65610736852 L1183.23705917235 1176.64084266612 A23.42 23.42 0 0 1 1195.68777356955 1181.32863801176 L1195.6852355908 1181.33882977232 A24.94 24.94 0 0 1 1205.05860601607 1198.0411378894 L1205.05367613293 1198.03938588518 A63.49 63.49 0 0 1 1205.27279940709 1210.7171854541 L1205.28002528386 1210.71869576615 A15.27 15.27 0 0 1 1189.13470011788 1223.08698880869 L1189.12311576768 1223.0823251127 A8.4 8.4 0 0 0 1186.65569557701 1216.58639824936 L1186.6664062191 1216.58889862784 A20.21 20.21 0 0 1 1153.06306719861 1211.47559024062 L1153.06430752366 1211.47228221907 A20.23 20.23 0 0 0 1143.27440192275 1238.25110485123 L1143.2730977891 1238.25828123377 A118.18 118.18 0 0 0 1147.17661653347 1245.97874291703 L1147.17496573106 1245.97530893312 A40.73 40.73 0 0 1 1150.38496506016 1265.45386658825 L1150.39066001792 1265.4558379035 A89.84 89.84 0 0 0 1183.94371413039 1275.71044631272 L1183.94092437396 1275.71224839273 A24.43 24.43 0 0 1 1200.05003632756 1284.12279734526 L1200.04980401986 1284.12258437486 A16.91 16.91 0 0 0 1216.70920627256 1295.5775332879 L1216.7081888508 1295.56695772681 A318.04 318.04 0 0 1 1259.16408447011 1294.18766639446 L1259.16505274945 1294.19946278911 A30.1 30.1 0 0 1 1291.18394439138 1318.59716026147 L1291.18918569247 1318.60328452512 A12.59 12.59 0 0 0 1291.57173630462 1308.0442338741 L1291.57478054972 1308.04138839001 A16.02 16.02 0 0 1 1290.84812140701 1297.8086932697 L1290.84463852374 1297.8018481245 A9.11 9.11 0 0 1 1299.1421474817 1291.004730418 L1299.14201430315 1291.00663090227 A32.57 32.57 0 0 0 1308.39781155227 1287.04945721966 L1308.39465032787 1287.04629558104 A7.07 7.07 0 0 0 1309.41311977951 1277.41766322141 L1309.41557398488 1277.42100652641 A100.57 100.57 0 0 1 1296.5049478081 1262.53065646305 L1296.5083251514 1262.52562153223 A8.8 8.8 0 0 1 1295.05250920574 1259.12337541241 L1295.04797444506 1259.12611194391 A2.97 2.97 0 0 1 1289.96935633853 1260.03251530596 L1289.97453860663 1260.02525362857 A26.66 26.66 0 0 1 1284.99896917211 1253.58223116899 L1284.99187318498 1253.58695195383 A33.37 33.37 0 0 0 1292.85897161218 1256.252308562 L1292.86031686947 1256.25318447615 A3.29 3.29 0 0 0 1296.79815887097 1253.30888064954 L1296.8 1253.31 L1319.65517876365 1259.53341683479 A18.21 18.21 0 0 0 1306.02143256937 1244.51495689849 L1306.01956773651 1244.51953015544 A11.93 11.93 0 0 1 1297.36068183843 1229.87410327484 L1297.36979815199 1229.87314945329 A14.9 14.9 0 0 0 1288.9389107202 1213.98758792192 L1288.93515688063 1213.99175160071 A3.31 3.31 0 0 1 1289.29964234723 1207.84445344854 L1289.29761058382 1207.84490057464 A35.12 35.12 0 0 1 1313.4700588359 1208.69131662637 L1313.47286444678 1208.69002896543 A5.19 5.19 0 0 0 1311.02600623977 1203.73739781288 L1311.03 1203.74 L1294.5999316026 1193.13377336154 A27.48 27.48 0 0 1 1314.48894523715 1194.03110951886 L1314.47961157883 1194.02877691922 A7.28 7.28 0 0 0 1311.67506416824 1187.89007808979 L1311.6817741532 1187.89311191544 A52.78 52.78 0 0 0 1300.83430728725 1181.38837629002 L1300.83815369794 1181.38860104518 A35.56 35.56 0 0 1 1288.2989368604 1172.01317007863 L1288.29148566386 1172.01565696162 A11.64 11.64 0 0 0 1290.62864377503 1157.57895841034 L1290.6285164017 1157.57564884999 A10.22 10.22 0 0 1 1293.52260599554 1147.32452692975 L1293.52033628199 1147.32422773122 A12.08 12.08 0 0 0 1299.53474500771 1140.05711990051 L1299.54253462443 1140.06110836048 A48.97 48.97 0 0 1 1309.53445984436 1132.57956331756 L1309.53141022493 1132.57856751454 A10.45 10.45 0 0 0 1295.87252807069 1131.96970382212 L1295.87292023583 1131.97155271332 A10.18 10.18 0 0 0 1284.33817056363 1143.77054851409 L1284.33833581882 1143.76865036991 A10.42 10.42 0 0 1 1280.73497967985 1153.5496470501 L1280.74 1153.55 L1278.1 1153.44 L1278.16427497318 1145.3606769273 A22.75 22.75 0 0 1 1294.11297089637 1122.59285523996 L1294.12062853753 1122.59145674247 A6.86 6.86 0 0 1 1300.69551239149 1117.74001753896 L1300.69181697249 1117.73005857334 A22.92 22.92 0 0 1 1314.90595692864 1122.71096789372 L1314.90823595231 1122.71548617369 A4.17 4.17 0 0 0 1313.19963734787 1118.90812631654 L1313.19263348642 1118.91942112555 A22.96 22.96 0 0 0 1302.14041386555 1114.7037299493 L1302.14445226723 1114.69732881566 A15.89 15.89 0 0 1 1292.91427112253 1112.18433855696 L1292.91442691608 1112.18260141915 A7.42 7.42 0 0 1 1298.71709015103 1109.47030331404 L1298.71720449261 1109.47578192708 A5.81 5.81 0 0 0 1300.77110263839 1111.74551849149 L1300.77589338361 1111.74307375201 A9.71 9.71 0 0 0 1306.92609655757 1100.92804803133 L1306.92300921014 1100.93031788854 A15.04 15.04 0 0 1 1319.51718911126 1090.74331796918 L1319.52179483327 1090.72680697575 A8.15 8.15 0 0 0 1308.20616008523 1092.10843427429 L1308.21088599198 1092.12009964337 A5.42 5.42 0 0 1 1298.6291589942 1094.19835817383 L1298.63467602245 1094.19499638424 A6.11 6.11 0 0 1 1288.48266051403 1096.42245249648 L1288.47932800396 1096.42375941626 A5.02 5.02 0 0 1 1283.47995469071 1094.13161278425 L1283.47512293482 1094.12623713051 A28.46 28.46 0 0 1 1281.37830929055 1090.11404408921 L1281.38125329264 1090.11859325292 A15.24 15.24 0 0 1 1273.22669352636 1100.02831265182 L1273.22413245488 1100.0331227362 A19.72 19.72 0 0 0 1262.27367567326 1114.78319240235 L1262.27630834944 1114.77976541848 A19.77 19.77 0 0 1 1251.33229076462 1111.53816094866 L1251.33135930549 1111.54231147635 A19.07 19.07 0 0 1 1252.7840960623 1104.46624559163 L1252.78571802125 1104.45605314646 A21.94 21.94 0 0 1 1263.66264511738 1096.23339147524 L1263.6596768089 1096.23838799371 A20.48 20.48 0 0 0 1270.93543589027 1089.37522235449 L1270.93402028305 1089.37304009942 A78.18 78.18 0 0 1 1253.38369176069 1091.50766916619 L1253.38957403844 1091.51274619603 A18.23 18.23 0 0 1 1246.14067811072 1093.6368785657 L1246.13966075523 1093.63104268269 A21.46 21.46 0 0 0 1234.19072639946 1101.81443783978 L1234.18887889394 1101.81633179207 A4.94 4.94 0 0 1 1227.6728635447 1101.62469114744 L1227.67436728823 1101.62876701958 A7.5 7.5 0 0 1 1224.05934387411 1096.92053239556 L1224.07176381124 1096.91818858116 A5.29 5.29 0 0 1 1225.86846295372 1091.51086859431 L1225.85871791979 1091.51115655336 A5.09 5.09 0 0 0 1228.94929094226 1086.74504292237 L1228.95 1086.74 L1208.48323562231 1086.74103145751 A5.65 5.65 0 0 0 1204.34384849514 1092.97819556324 L1204.34251952909 1092.97775687802 A9.89 9.89 0 0 1 1201.85161206441 1098.97208958694 L1201.85728077509 1098.97538911706 A5.14 5.14 0 0 1 1196.78588093875 1095.96627706599 L1196.78459081006 1095.96357544479 A5.09 5.09 0 0 1 1194.12226498125 1097.38821429171 L1194.11840810483 1097.39244039782 A12.26 12.26 0 0 1 1185.71130529328 1086.74553451651 L1185.71 1086.74 L1167.41361443447 1086.7436231321 A20.36 20.36 0 0 0 1172.28349472414 1099.57732780636 L1172.2846920325 1099.57360744854 A20.51 20.51 0 0 1 1159.50095528091 1086.74056476292 L1159.5 1086.74 L1128.92 1086.74 L1128.92000003399 973.732695514422 A106.88 106.88 0 0 1 1130.43797451618 955.780682855712 L1130.44063499171 955.774978432018 A10.18 10.18 0 0 1 1118.91066950174 954.941286357003 L1118.91294144328 954.942224987905 A21.76 21.76 0 0 1 1136.61622680191 933.920932600826 L1136.61404100238 933.921204454215 A140.09 140.09 0 0 1 1140.51543515965 925.182732821874 L1140.5122195807 925.180753737068 A38.92 38.92 0 0 0 1124.09074999417 928.702284406352 L1124.09011962143 928.698321825973 A17.44 17.44 0 0 0 1115.69762794269 936.848333745499 L1115.70551876702 936.855151844926 A2.77 2.77 0 0 0 1116.29169358041 940.097258718495 L1116.28734106579 940.10164034764 A3.26 3.26 0 0 1 1114.40094529347 942.927720237329 L1114.39896664162 942.926525360571 A1.95 1.95 0 1 1 1110.69029996822 942.149788242068 L1110.68824215938 942.148344804941 A1.76 1.76 0 1 0 1107.38903255338 940.977458612236 L1107.3895742394 940.974262296284 A1.81 1.81 0 0 1 1103.8982860331 941.076561237494 L1103.9016836016 941.087113581172 A26.18 26.18 0 0 1 1099.26462444821 927.064941274555 L1099.2694106637 927.062557295223 A124.25 124.25 0 0 1 1099.35697738193 916.666264138287 L1099.35007762154 916.667011631748 A10.17 10.17 0 0 1 1108.18769214689 901.781459789933 L1108.1898888587 901.78303657176 A9.73 9.73 0 0 0 1091.34551726443 906.517319895023 L1091.3371376373 906.5196468869 A27.35 27.35 0 0 0 1091.7641142594 918.210583298816 L1091.76712067023 918.211863426815 A10.19 10.19 0 0 1 1089.73372074905 930.321621151432 L1089.72954944888 930.325909775807 A32.43 32.43 0 0 1 1087.07643343096 932.579211187319 L1087.07662826265 932.572697874051 A5.08 5.08 0 0 1 1078.87206163154 933.276590163483 L1078.87970619574 933.285790843359 A11.42 11.42 0 0 1 1076.5375409571 922.734479980651 L1076.5350611823 922.729891792785 A21.23 21.23 0 0 0 1077.84765149599 911.466407238525 L1077.85040450252 911.461508940378 A15.37 15.37 0 0 1 1084.9719096758 898.380578038949 L1084.96964886915 898.390367312023 A20.36 20.36 0 0 0 1074.83661112452 897.464863143788 L1074.83847065761 897.456560107033 A38.9 38.9 0 0 0 1073.16274068732 908.298244694878 L1073.15780300969 908.300134420203 A31.18 31.18 0 0 1 1064.47946016576 929.516261655262 L1064.47373252555 929.510026086778 A5.59 5.59 0 0 1 1056.60976092519 929.711531484567 L1056.61085063176 929.720638876201 A43.44 43.44 0 0 0 1048.30163975897 921.77598852152 L1048.30873633748 921.771256508608 A2.7 2.7 0 0 1 1048.52882782018 917.264083652988 L1048.52086063755 917.261457077478 A2.66 2.66 0 0 0 1047.91074421288 912.415220555295 L1047.91253703456 912.413672974925 A42.91 42.91 0 0 1 1046.90704212884 916.158458149918 L1046.90624087761 916.16406533679 A50.99 50.99 0 0 1 1023.70269716812 905.2113400242 L1023.7 905.21 L1022.87 905.77 L1023.00535622004 916.209941540198 A5.12 5.12 0 1 1 1015.46133662324 922.951347366537 L1015.45635196561 922.944234486201 A3.95 3.95 0 0 0 1011.84636725919 921.150929067213 L1011.85126142134 921.160647964138 A3.38 3.38 0 0 1 1009.83037195745 914.910274910515 L1009.8352103061 914.91642869876 A22.75 22.75 0 0 0 1010.77132193309 909.996390491263 L1010.76490630557 909.988212731215 A5 5 0 0 0 1009.13305444304 905.89095350501 L1009.14203942544 905.890407931772 A7.49 7.49 0 0 0 1004.26711166123 903.64585642167 L1004.26851146965 903.649717159117 A4.59 4.59 0 0 0 999.60853524553 906.799711499201 L999.599469371027 906.808241480013 A53.97 53.97 0 0 1 985.573444965431 924.17218600464 L985.571479184797 924.167643183879 A1321.77 1321.77 0 0 1 984.994522209822 927.694836997901 L984.991801516959 927.695544190284 A5.1 5.1 0 0 0 990.367071610411 932.652468097367 L990.367823220769 932.64361899682 A153.29 153.29 0 0 0 995.136039188747 932.309557904051 L995.137450475243 932.311398143969 A20.12 20.12 0 0 0 1002.32660685627 928.795876295926 L1002.3354732042 928.791626787898 A24.68 24.68 0 0 1 1003.93240504616 945.855117380465 L1003.9231138017 945.851903729328 A10.17 10.17 0 0 1 997.476536480466 951.38794885001 L997.476591236549 951.396230171539 A16.1 16.1 0 0 1 988.527164942165 939.327790926964 L988.523100559459 939.330188256627 A9.93 9.93 0 0 0 981.260298069283 947.583898987858 L981.263617888571 947.580490694597 A5.07 5.07 0 0 1 985.271354446366 951.516035413666 L985.27 951.52 L985.53 970.18 L984.575356561853 970.402413679308 A4.95 4.95 0 0 0 990.460976071039 974.177142679114 L990.462242319324 974.174503532744 A13.44 13.44 0 0 1 1006.88632053885 961.315974296451 L1006.89 961.31 L1007.03973870898 971.937062924687 A10.18 10.18 0 0 1 999.929161597671 981.716319955955 L999.93 981.72 L999.96 992.46 L1000.86681355858 992.455781506769 A59.75 59.75 0 0 1 1015.29597739253 993.883877214088 L1015.2945772795 993.883266759922 A24.28 24.28 0 0 0 1022.29430944591 994.41081161938 L1022.29676552447 994.416270330834 A1.53 1.53 0 0 0 1022.20021261199 991.360034084511 L1022.19199570784 991.363076132064 A5.12 5.12 0 0 1 1025.34033401359 982.311642184062 L1025.34250818828 982.306225186752 A2513.52 2513.52 0 0 1 1047.25546229972 981.84667052744 L1047.25995524233 981.851809948724 A71.83 71.83 0 0 1 1078.42628488129 989.826231207783 L1078.41909710134 989.821842684176 A98.29 98.29 0 0 1 1120.76253486302 1032.22589194543 L1120.76457700265 1032.2292844101 A50.66 50.66 0 0 0 1141.25371910108 1117.03106471029 L1141.24936225894 1117.03220033435 A18.91 18.91 0 0 1 1146.51051851284 1118.98587600275 L1146.51645514001 1118.98094274962 A16.7 16.7 0 0 1 1139.64443229108 1118.69493442784 L1139.63816663255 1118.69095341028 A50.97 50.97 0 0 1 1099.3188801417 1070.55557791499 L1099.316954314 1070.56026256486 A9.04 9.04 0 0 1 1097.212317628 1058.93940055409 L1097.21820691555 1058.94352912137 A66.94 66.94 0 0 0 1093.97529441668 1039.58090993616 L1093.96940616219 1039.58167486384 A23.64 23.64 0 0 1 1093.01533198839 1029.2673210151 L1093.01503270657 1029.26083724573 A5.45 5.45 0 0 1 1094.95092384678 1025.75666672233 L1094.95 1025.76 L1094.09395010182 1024.49548676703 A7.24 7.24 0 0 1 1089.19328908776 1021.47403952014 L1089.20702943981 1021.47400884278 A63.29 63.29 0 0 0 1074.48199773735 1006.4763073938 L1074.48018564773 1006.47121325124 A6.93 6.93 0 0 0 1065.33452866728 1007.36147366747 L1065.33369828877 1007.36629056285 A196.71 196.71 0 0 1 1083.7378595266 1034.39105689961 L1083.74 1034.39 L1084.9465081661 1068.81294655758 A69.77 69.77 0 0 0 1107.67592660415 1119.39298787955 L1107.67150474916 1119.39708912216 A39.99 39.99 0 0 0 1118.44642992688 1126.42900545118 L1118.44717213374 1126.42122011384 A9.63 9.63 0 0 1 1111.04175498987 1125.95737514721 L1111.03983407823 1125.96652356395 A70.33 70.33 0 0 1 1081.46758185417 1076.651184102 L1081.47 1076.65 L1078.86841776381 1047.87968031459 A30.41 30.41 0 0 1 1070.01387405943 1042.47622690248 L1070.01186499636 1042.47455079532 A80.59 80.59 0 0 1 1061.97342244552 1034.35778023231 L1061.97522067909 1034.363803145 A6.36 6.36 0 0 1 1062.88998829482 1025.2038851224 L1062.89138350824 1025.20580756725 A15.27 15.27 0 0 0 1050.05211434433 1022.93807905065 L1050.05602746888 1022.92886080188 A30.56 30.56 0 0 0 1025.81338559077 1051.0344315891 L1025.81320841834 1051.04038178788 A30.46 30.46 0 0 0 1025.94487037153 1056.19083959317 L1025.94238154567 1056.18441792189 A2.04 2.04 0 0 0 1029.17477804056 1057.60624113452 L1029.16968464241 1057.60337952473 A19.61 19.61 0 0 0 1035.26449057987 1049.55394441478 L1035.26219557751 1049.56062538588 A10.5 10.5 0 0 1 1050.82837021234 1049.70482365742 L1050.82286209945 1049.70347754999 A53.08 53.08 0 0 1 1067.98109727043 1076.80686368701 L1067.99611445293 1076.80311056404 A197.16 197.16 0 0 0 1085.79466606041 1121.42372222392 L1085.79291161154 1121.43116102536 A20.88 20.88 0 0 0 1090.99820433519 1127.64783965838 L1090.99481734585 1127.64443742794 A53.21 53.21 0 0 0 1124.73876902012 1143.23631491319 L1124.74 1143.24 L1174.2033928897 1142.36926880398 A29.84 29.84 0 0 1 1197.62478954366 1160.98189907429 L1197.63 1160.98 L1167.7914441573 1161.21630112029 A15.27 15.27 0 0 1 1150.16002472617 1146.10252025204 L1150.15079102665 1146.10252782243 A55.7 55.7 0 0 0 1142.91126818189 1182.15470061834 L1142.91470990346 1182.15395959758 A15.27 15.27 0 0 1 1150.10627349162 1196.85926697341 L1150.10448073367 1196.86924237386 A0.73 0.73 0 0 0 1151.30326795906 1197.50580341752 L1151.30330405878 1197.49948941777 A5.45 5.45 0 0 0 1152.54011715299 1195.98599741022 L1152.54178405692 1195.98577718401 A25.47 25.47 0 0 1 1168.59446379749 1185.12138085185 L1168.59162940795 1185.11782136317 A24.72 24.72 0 0 1 1190.36150503092 1193.12586968033 L1190.36210575481 1193.12386052818 A5.67 5.67 0 0 1 1191.80607795683 1201.25852109488 Z" style="fill:rgb(255,255,0);" />
<path d=" M1134.01 1002.69 L1134.11052645987 969.386243351774 A101.4 101.4 0 0 1 1143.24181523122 931.419056191224 L1143.24 931.42 L1343.02824275846 931.419745934147 A101.73 101.73 0 0 1 1350.37999952976 969.39978135866 L1350.39 969.4 L1350.39 1002.69 Z" style="fill:rgb(255,255,255);" />
<path d=" M1134.01 1007.78 L1350.39 1007.78 L1350.39 1081.65 L1134.01 1081.65 Z" style="fill:rgb(255,0,0);" />
<path d=" M1145.62026638703 926.320058250131 A198.45 198.45 0 0 1 1209.00930370526 851.399144464513 L1209.01019399328 851.393940947904 A60.77 60.77 0 0 1 1278.71626648221 852.729040940071 L1278.71096983859 852.72624408768 A199.51 199.51 0 0 1 1340.82584982856 926.322956395212 L1340.83 926.33 Z" style="fill:rgb(255,0,0);" />
<path d=" M1089.55374103855 1134.48412241039 A24.05 24.05 0 0 1 1080.91423355254 1126.40119566738 L1080.91854866993 1126.39567321091 A116.26 116.26 0 0 1 1068.87213634223 1096.85573359793 L1068.87559069255 1096.85213195173 A77.28 77.28 0 0 0 1061.33558750165 1078.03524773782 L1061.33462317858 1078.03667887865 A9.91 9.91 0 0 0 1053.69806134452 1073.60056231525 L1053.70256249277 1073.59578003675 A74.08 74.08 0 0 0 1038.88263422845 1073.60732129404 L1038.87660034208 1073.61769495677 A19.18 19.18 0 0 0 1021.9162571937 1096.00134559979 L1021.92153691987 1096.00060228637 A10.18 10.18 0 0 1 1037.45771599811 1091.85352519978 L1037.46 1091.85 L1045.99159719324 1097.6339760409 A13.19 13.19 0 0 1 1050.89971071247 1107.81264256599 L1050.901818044 1107.80999576276 A21.53 21.53 0 0 0 1041.64133743536 1100.81046540015 L1041.64132772434 1100.81488690597 A40.95 40.95 0 0 0 1017.66257149589 1098.98292586755 L1017.65576889014 1098.98145407897 A19.25 19.25 0 0 0 1002.77607999885 1120.04485496033 L1002.78152499069 1120.04209167143 A20.44 20.44 0 0 1 1036.87106470294 1128.62043879822 L1036.86415483038 1128.61734114226 A84.87 84.87 0 0 0 1011.17874105517 1130.53282678906 L1011.17816571994 1130.52921574931 A19.89 19.89 0 0 0 996.025168367794 1153.14698677902 L996.031879645898 1153.15173977291 A8.02 8.02 0 0 1 1008.07240141627 1149.64608474674 L1008.07 1149.64 L1020.62713190358 1157.29560663669 A5.51 5.51 0 0 1 1017.27180009559 1160.16203342685 L1017.26632762567 1160.16096291904 A27.3 27.3 0 0 1 1005.41539959852 1161.05788118444 L1005.42250999691 1161.04873197021 A15.36 15.36 0 0 0 988.075658825018 1178.81486459209 L988.077616403669 1178.81058261242 A13.81 13.81 0 0 1 1010.60980210817 1188.06933899591 L1010.59950568603 1188.07318753081 A12.2 12.2 0 0 1 1000.58735402432 1199.08953249274 L1000.58424736848 1199.09025635201 A5.52 5.52 0 0 1 993.270602693584 1193.9515682164 L993.279986978285 1193.94459051989 A5.08 5.08 0 0 0 983.779382806849 1192.9528264674 L983.776796546134 1192.95911617863 A4.42 4.42 0 0 1 980.328803636376 1195.41825326459 L980.338068028225 1195.41441379498 A35.64 35.64 0 0 1 977.784400828816 1218.23124095099 L977.774609321777 1218.22925029612 A2.13 2.13 0 0 0 976.100020285961 1220.30070388354 L976.100874859191 1220.30913422341 A91.84 91.84 0 0 0 976.205797795218 1225.11701098844 L976.199737768351 1225.10908608877 A2.04 2.04 0 0 0 977.7492634511 1226.89254694032 L977.75429140202 1226.89224327596 A14.57 14.57 0 0 0 986.454828791776 1220.60376547752 L986.452258615052 1220.61178491721 A12.83 12.83 0 0 1 992.414058508282 1215.6344481295 L992.415123055598 1215.62534972442 A26.8 26.8 0 0 1 987.786289491261 1235.07121306922 L987.786730527896 1235.06849635683 A15.07 15.07 0 0 1 977.15050036939 1240.33709836269 L977.15 1240.34 L969.22 1240.27 L969.3 1252.1 L990.861268646705 1267.30628561776 A12.32 12.32 0 0 0 996.206341230467 1267.28681697954 L996.212388494805 1267.2894613397 A2.46 2.46 0 0 0 996.163533011858 1262.48001552573 L996.158054833768 1262.47849126368 A2.89 2.89 0 0 1 992.817891847952 1260.09645373728 L992.815993900059 1260.09752418087 A21.05 21.05 0 0 1 993.084269407323 1251.94421269814 L993.090367720912 1251.94963631883 A5.09 5.09 0 0 1 999.726163803563 1249.68533487911 L999.724945084338 1249.68474732498 A45.75 45.75 0 0 1 1014.2104417575 1258.52414908686 L1014.20711660433 1258.51823028579 A2.98 2.98 0 0 1 1013.88565207422 1263.19426259278 L1013.8874718378 1263.2012605565 A36.77 36.77 0 0 0 1006.66276938505 1266.40645842961 L1006.67111848509 1266.4069614988 A9.77 9.77 0 0 0 1004.57529234642 1281.68106772 L1004.5700977329 1281.6903063766 A42.35 42.35 0 0 1 1028.824498884 1287.18024786738 L1028.82394089177 1287.1785135249 A6.67 6.67 0 0 0 1029.70876091723 1281.79636194209 L1029.70934546977 1281.79416541189 A14.15 14.15 0 0 1 1032.69860248912 1268.91088357694 L1032.69275220827 1268.90784384456 A145.22 145.22 0 0 0 1039.94212519716 1259.8890387068 L1039.94457561171 1259.88764358594 A4.01 4.01 0 0 1 1045.60696182022 1260.2798665169 L1045.61 1260.28 L1047.76684526779 1262.98186288082 A10.15 10.15 0 0 0 1048.020563742 1272.74072281745 L1048.02008702679 1272.74597288038 A10.22 10.22 0 0 0 1052.29440251282 1276.74849340245 L1052.29231543474 1276.74368087278 A5.02 5.02 0 0 0 1059.00420142877 1274.52638344196 L1059.00791750502 1274.5270305686 A51.14 51.14 0 0 1 1074.40136093037 1259.00229149757 L1074.41 1259 L1075.80099195848 1258.9795794534 A4.14 4.14 0 0 0 1076.040953937 1250.70395651949 L1076.03926196653 1250.7070022135 A161.07 161.07 0 0 1 1066.04963900056 1250.75443707263 L1066.05600476429 1250.75253677452 A4.42 4.42 0 0 1 1061.74270951045 1243.91273826576 L1061.74521909851 1243.91027048893 A10.18 10.18 0 0 0 1062.74916178039 1226.70059670102 L1062.74611632089 1226.70234891046 A174.72 174.72 0 0 1 1077.43912112949 1152.93606207995 L1077.44254696708 1152.93849734369 A19.99 19.99 0 0 1 1086.10431809404 1144.96720811699 L1086.09538884748 1144.96509266271 A10.19 10.19 0 0 0 1089.55254567205 1134.47752212366 L1089.56 1134.48 A0 0 0 0 0 1089.56 1134.48 Z" style="fill:rgb(255,255,0);" />
<path d=" M1107.31444262785 711.769526059453 A3.6 3.6 0 0 1 1109.68512922918 706.313822764241 L1109.67800538508 706.315019492022 A31.41 31.41 0 0 0 1121.58792573721 679.842074819097 L1121.59355153128 679.849676168091 A20.26 20.26 0 0 1 1130.52767213822 695.525937122108 L1130.53490464135 695.529590630037 A116 116 0 0 1 1129.33426965679 719.956498288011 L1129.33096892393 719.958438130734 A40.79 40.79 0 0 1 1108.61663505191 711.716313696185 L1108.61564046719 711.709321028654 A1.01 1.01 0 0 0 1107.31065339527 711.771825726169 Z" style="fill:rgb(255,0,0);" />
<path d=" M1070.20674498471 727.63468930107 A40.46 40.46 0 0 0 1089.02838204798 714.804653055523 L1089.02825003099 714.801059392289 A41.66 41.66 0 0 1 1070.59796657511 687.353906616361 L1070.59066485956 687.356668755789 A40.76 40.76 0 0 0 1070.20221555868 727.639964035394 L1070.2 727.63 Z" style="fill:rgb(255,0,0);" />
<path d=" M1053.44313841915 747.681637233875 A52.1 52.1 0 0 1 1020.01859042927 748.773387660458 L1020.01915286719 748.771578455915 A50.91 50.91 0 0 0 1053.20284824234 772.986637528847 L1053.2 772.98 Z" style="fill:rgb(255,0,0);" />
<path d=" M999.597438730698 906.800661348428 A54.61 54.61 0 0 1 985.573467020807 924.16206498577 L985.581264739971 924.159900576921 A31.01 31.01 0 0 1 972.235485770372 893.74802847664 L972.228953019369 893.750044923604 A51.48 51.48 0 0 0 999.5991925515 906.802094044615 L999.6 906.8 Z" style="fill:rgb(255,0,0);" />
<path d=" M985.533534696915 970.173447573397 A1.54 1.54 0 0 1 983.71876064307 969.091343052016 L983.721240084956 969.088659507382 A1.54 1.54 0 0 0 981.538666122194 968.138967253549 L981.535910536909 968.13996135423 A25.15 25.15 0 0 1 957.804979129929 951.191882870883 L957.803202403622 951.203669715007 A26.58 26.58 0 0 0 978.671579306113 947.825312921481 L978.670980297314 947.822163561549 A5 5 0 0 1 985.409851971541 952.54847418194 L985.41 952.55 Z" style="fill:rgb(255,0,0);" />
<path d=" M1023.70269785144 905.211340594352 A50.99 50.99 0 0 0 1046.90624175209 916.164065501964 L1046.90253726364 916.161869994928 A34.89 34.89 0 0 0 1039.08878956817 880.001569217582 L1039.09475926822 879.998547293356 A30.4 30.4 0 0 1 1023.70543688745 905.209890005295 L1023.7 905.21 Z" style="fill:rgb(255,0,0);" />
<path d=" M977.780760106393 1218.22585117288 A35.27 35.27 0 0 0 946.568763746181 1210.06435499024 L946.566392181861 1210.06975043541 A35.64 35.64 0 0 1 980.332009425044 1195.41553699203 L980.328213157532 1195.41616037253 A35.63 35.63 0 0 1 977.774876437665 1218.22799602585 L977.78 1218.23 Z" style="fill:rgb(255,0,0);" />
<path d=" M988.122693296198 1265.37394811864 A36 36 0 0 1 954.857573443226 1276.21599021806 L954.853637848163 1276.21304845606 A36.43 36.43 0 0 0 969.304907003215 1252.09426706159 L969.3 1252.1 Z" style="fill:rgb(255,0,0);" />
<path d=" M1294.46026707848 858.512984517869 A50.85 50.85 0 0 0 1289.12915368755 829.741654405744 L1289.12865783038 829.744713257309 A20.06 20.06 0 0 0 1279.63532739531 820.678313930311 L1279.63624596593 820.678204452174 A20.7 20.7 0 0 0 1265.58498761213 828.340097660847 L1265.59065929838 828.336643833756 A20.35 20.35 0 0 1 1279.2173587986 808.002012234644 L1279.21562339524 807.996179119097 A8.74 8.74 0 0 1 1287.55378243739 809.428366656227 L1287.56133941812 809.423465577308 A67.23 67.23 0 0 0 1291.06123638551 812.044530348653 L1291.06154219818 812.050270403913 A8.53 8.53 0 0 0 1303.67920566585 808.668362478319 L1303.66858264582 808.666951829213 A9.59 9.59 0 0 1 1306.30079427877 816.823135421096 L1306.3060600893 816.824143094055 A11.07 11.07 0 0 0 1308.96112398102 825.827535985741 L1308.96150343174 825.827411347187 A135.3 135.3 0 0 0 1318.56718210159 819.834542129434 L1318.56459568027 819.83611345361 A20.44 20.44 0 0 1 1338.59232390888 818.117688830414 L1338.59501844014 818.12268195364 A41.03 41.03 0 0 1 1368.00538451174 803.013489372204 L1367.99893285038 803.016678945585 A13.02 13.02 0 0 0 1380.11897194096 791.791136038354 L1380.11674429093 791.791159931225 A112.08 112.08 0 0 0 1378.99632796288 770.770570708147 L1378.99689245088 770.768232698895 A16.91 16.91 0 0 0 1371.21035405655 758.896666960477 L1371.21605656196 758.892695810236 A293.22 293.22 0 0 0 1345.93205222488 744.82569164116 L1345.92737649654 744.826108332537 A10.91 10.91 0 0 0 1339.91054485037 743.765033589401 L1339.91409769152 743.76592541461 A9.25 9.25 0 0 1 1336.51261397443 757.012573410415 L1336.5071220355 757.009555679104 A5.92 5.92 0 0 0 1333.75099033219 764.355762768661 L1333.75312522621 764.34973573413 A5.34 5.34 0 0 1 1330.16012573029 763.008110823209 L1330.17 763.01 L1330.86651757042 762.352750620956 A52.82 52.82 0 0 1 1317.42164394603 749.438449088252 L1317.42 749.44 L1316.992504859 750.683385373916 A19.45 19.45 0 0 1 1315.20661220072 737.236526492032 L1315.20533749352 737.235251761223 A4.61 4.61 0 0 1 1320.2269566692 733.680216525993 L1320.23030702296 733.673179236243 A11.72 11.72 0 0 0 1324.49479807951 733.37918306285 L1324.49533565265 733.385915526322 A4.87 4.87 0 0 0 1327.67325488677 726.568521591852 L1327.67668492935 726.561294690694 A23.27 23.27 0 0 0 1321.38910109852 717.234615741553 L1321.38423913656 717.233781670948 A11.04 11.04 0 0 1 1311.60185567024 721.873244494184 L1311.60477102883 721.873402202864 A5.53 5.53 0 0 0 1306.38686376522 730.077320996092 L1306.38437533605 730.083106021275 A3.07 3.07 0 0 1 1303.5208563962 726.947491109321 L1303.52198046502 726.940331377215 A25.56 25.56 0 0 1 1304.21110036581 717.785085237817 L1304.21 717.79 L1304.94673191749 717.946631086106 A37.7 37.7 0 0 0 1309.55894374931 697.259155774541 L1309.56 697.25 L1307.45205967321 697.452796506526 A10.82 10.82 0 0 1 1315.43766453515 688.151197197082 L1315.4370248719 688.149828159769 A3.29 3.29 0 0 1 1319.26916519247 689.955594145776 L1319.26361540423 689.952297900695 A17.24 17.24 0 0 1 1319.31012259582 697.541594636182 L1319.31297370073 697.537628628513 A12.2 12.2 0 0 0 1319.70780175074 704.159856294775 L1319.70833789756 704.160082556272 A2.13 2.13 0 0 0 1322.70726123414 705.347383176665 L1322.70452551327 705.350938367321 A68.5 68.5 0 0 0 1334.51218467349 698.865242359556 L1334.51831161406 698.870524851111 A7.24 7.24 0 0 0 1333.16438279058 687.597800481645 L1333.16841895574 687.601932342197 A2.94 2.94 0 0 1 1331.78802577601 682.416627171555 L1331.78 682.41 L1352.08620251462 680.018415903301 A40.57 40.57 0 0 0 1352.28468167863 688.540390329416 L1352.28391453959 688.538514340473 A8.96 8.96 0 0 0 1354.25149699669 693.083497711705 L1354.25664151261 693.079065420176 A23.51 23.51 0 0 0 1358.35412546028 696.985489935889 L1358.35393238734 696.986124811934 A7.11 7.11 0 0 0 1370.34144676783 691.203437611543 L1370.33899322654 691.204001009552 A22.16 22.16 0 0 1 1371.84922074369 680.954411311158 L1371.85 680.96 L1389.9395418865 691.770787058181 A70.44 70.44 0 0 0 1391.25081670229 711.758151447794 L1391.25502990963 711.757199115566 A18.76 18.76 0 0 0 1394.03217318398 718.333177109859 L1394.03065303815 718.330973330805 A8.67 8.67 0 0 0 1401.09022688638 722.168873253008 L1401.08792169369 722.170561274437 A25.64 25.64 0 0 0 1409.17973396285 711.321912226813 L1409.18175631276 711.323902024591 A17.21 17.21 0 0 0 1409.90538259805 701.068065755218 L1409.90160301445 701.067510403523 A14.98 14.98 0 0 1 1424.75649887152 694.120272000915 L1424.75943386526 694.118683041134 A15.23 15.23 0 0 1 1417.63680845761 707.143120515671 L1417.64202300284 707.152225261215 A11.55 11.55 0 0 0 1412.72827044099 720.252745726547 L1412.72202156434 720.253038102435 A45.77 45.77 0 0 1 1410.40536246416 732.501131110826 L1410.41028196645 732.502416555291 A8.05 8.05 0 0 0 1423.89545840393 739.110267712627 L1423.9005797207 739.109505406081 A44.32 44.32 0 0 0 1432.72417224425 727.782015428645 L1432.7225475099 727.787231202219 A8.29 8.29 0 0 1 1441.13259173459 722.631552132204 L1441.13 722.63 L1447.004263115 722.567427249258 A8.66 8.66 0 0 1 1453.54413023248 726.600953135082 L1453.54562936902 726.596073726019 A15.34 15.34 0 0 0 1442.05900892699 729.240756502282 L1442.06255169454 729.239609480271 A22.4 22.4 0 0 0 1436.73827347848 736.15586633008 L1436.73573097712 736.159233521201 A100.79 100.79 0 0 0 1433.43588999038 753.320331114228 L1433.44114936975 753.314155569498 A26.29 26.29 0 0 1 1429.17971116784 763.612791431204 L1429.17767836108 763.620664261372 A4.9 4.9 0 0 1 1426.12995592196 765.631008893037 L1426.13019291243 765.623548154168 A3.54 3.54 0 0 0 1427.14369279478 769.70776058254 L1427.13944847007 769.698073171712 A32.87 32.87 0 0 0 1432.3422866901 773.222147675854 L1432.34407447034 773.230322877268 A8.11 8.11 0 0 0 1441.65257337678 770.850712327382 L1441.65 770.85 L1454.45389706866 752.461751321677 A14.96 14.96 0 0 1 1469.91570121171 747.506139294874 L1469.91787322609 747.507401708592 A81.1 81.1 0 0 0 1451.10915667307 768.113524989983 L1451.1011014981 768.113217912744 A13.94 13.94 0 0 0 1449.0349675341 777.3866385524 L1449.03989342464 777.383834001338 A14.8 14.8 0 0 1 1440.87680881015 790.66848323949 L1440.87685682414 790.661210529963 A2.46 2.46 0 0 0 1440.49267342121 794.819453915769 L1440.49375184306 794.820195330689 A5.7 5.7 0 0 0 1447.81893636899 794.456583848716 L1447.82465932354 794.457659234804 A15.13 15.13 0 0 0 1454.85480954603 784.513561132819 L1454.85 784.51 L1457.40464955514 784.534014951149 A10.19 10.19 0 0 1 1447.60572540953 797.799651505003 L1447.60109699938 797.800169918735 A4.97 4.97 0 0 0 1443.8805933771 806.111087682676 L1443.88113421639 806.118968953752 A21.3 21.3 0 0 0 1450.61123440833 811.087060859001 L1450.61 811.08 L1456.22161350462 811.091271514125 A25.38 25.38 0 0 0 1466.99612633682 799.22455400847 L1466.99 799.22 L1466.94660857821 789.852121707003 A23.68 23.68 0 0 1 1476.09827059457 778.562843586224 L1476.0997574653 778.566456586125 A8.79 8.79 0 0 1 1485.28163953807 778.309938651271 L1485.27907569078 778.306836316846 A50.48 50.48 0 0 0 1473.34060056411 795.036797406422 L1473.34885168836 795.040372083756 A49.28 49.28 0 0 0 1469.48849382797 809.306314867098 L1469.47909718449 809.304631250913 A20.98 20.98 0 0 1 1456.63461154384 828.448782149629 L1456.63870914715 828.44717707419 A15.81 15.81 0 0 0 1443.51754106182 839.518347838022 L1443.5183643653 839.522366095304 A6.12 6.12 0 0 0 1432.62372723225 838.562994580696 L1432.62119354257 838.557214125135 A8.33 8.33 0 0 1 1427.64093669817 830.80508197038 L1427.63400016817 830.803979129093 A6.77 6.77 0 0 0 1414.28086971571 832.488513567643 L1414.28582133283 832.496288711899 A45.31 45.31 0 0 0 1416.25538477554 845.00280859637 L1416.24699939199 844.999176117816 A10.14 10.14 0 0 1 1407.51872797921 856.872816625276 L1407.52518665247 856.877836710538 A9.46 9.46 0 0 0 1398.75592261381 861.331604776131 L1398.74723091386 861.329011006881 A10.18 10.18 0 0 1 1395.14575032904 852.677592460612 L1395.14055729555 852.676543266235 A5.26 5.26 0 0 0 1391.91988588714 849.244859134961 L1391.92 849.24 L1386.98 849.28 L1387.13821311843 863.229751915468 A12.37 12.37 0 0 1 1373.4455377181 875.738890180168 L1373.44154886203 875.73356803742 A3.09 3.09 0 0 0 1371.23791143726 880.823940965458 L1371.240296166 880.819938786391 A20.77 20.77 0 0 1 1375.56382999897 886.889065958202 L1375.56178094958 886.892720429013 A11.39 11.39 0 0 1 1375.07842247182 897.486232423676 L1375.08152101953 897.494409054838 A20.07 20.07 0 0 0 1356.12163786916 880.260715314617 L1356.11764534535 880.252673276774 A2.59 2.59 0 0 0 1355.60343830413 885.399460650482 L1355.59858638974 885.41553953172 A12.29 12.29 0 0 1 1361.91333353897 896.979166553952 L1361.91553589162 896.978584467774 A7.16 7.16 0 0 0 1365.18637779796 903.471681744816 L1365.18805665908 903.465511640513 A10.02 10.02 0 0 1 1367.4197906245 909.705224686341 L1367.42167358868 909.707821954845 A80.11 80.11 0 0 0 1368.8499337714 924.258486263171 L1368.84804970373 924.259396383469 A15.22 15.22 0 0 0 1371.34567217945 931.191680704944 L1371.35116632248 931.188946802189 A5.09 5.09 0 0 0 1377.69592943425 932.191741101786 L1377.69596690279 932.201161024819 A28.39 28.39 0 0 0 1389.25605000282 919.462013471545 L1389.25082767125 919.453960484979 A82.28 82.28 0 0 1 1442.5260775165 883.874316621872 L1442.52204292236 883.877327489983 A138.93 138.93 0 0 0 1463.46907291053 878.187671732957 L1463.47265507696 878.187026655905 A30.38 30.38 0 0 0 1480.14187879408 860.370209976484 L1480.1472641372 860.367497698871 A71.6 71.6 0 0 1 1488.01947090524 840.455496421536 L1488.01395038112 840.452441517198 A30.71 30.71 0 0 1 1506.22071267306 827.997098685994 L1506.22224259178 828.003584889541 A10.64 10.64 0 0 1 1519.36096529772 832.608603239944 L1519.35722881704 832.603929431702 A30.9 30.9 0 0 0 1491.0941579704 852.190201187966 L1491.09878486799 852.190111079768 A32.84 32.84 0 0 0 1488.89555204749 861.983668854923 L1488.89027897293 861.985208257187 A86.81 86.81 0 0 1 1479.8973064251 894.97839815775 L1479.90001357568 894.983508366116 A20.71 20.71 0 0 0 1495.12548457953 871.842166150925 L1495.12655477296 871.836908197896 A1.62 1.62 0 0 1 1496.92560245035 873.856279914775 L1496.92234607664 873.858703207217 A25.45 25.45 0 0 1 1487.3817079399 897.615843014001 L1487.38211322433 897.615998303926 A7.33 7.33 0 0 0 1493.25798821275 904.624745073396 L1493.2542645104 904.628053518201 A39.63 39.63 0 0 1 1511.39203493042 928.383670629458 L1511.39540682956 928.383969141236 A53.17 53.17 0 0 1 1505.18465368846 963.619292607922 L1505.18517619936 963.62356478525 A1036.91 1036.91 0 0 0 1471.78355333174 1017.39244711922 L1471.78570828307 1017.38807978347 A41.51 41.51 0 0 1 1479.60529801526 989.736837209822 L1479.60480895198 989.733564767913 A133.72 133.72 0 0 1 1495.87087508769 971.235211241059 L1495.87234122553 971.239311488552 A37.91 37.91 0 0 0 1497.49526231732 917.770868824093 L1497.49100372645 917.770196843359 A74.93 74.93 0 0 0 1482.23500781473 905.280508015141 L1482.23350693015 905.283989040757 A7.78 7.78 0 0 0 1470.41405479273 910.984483394848 L1470.4074905632 910.976918597808 A9.87 9.87 0 0 1 1480.00982477419 913.851659129187 L1480.00373385019 913.860933548623 A124.92 124.92 0 0 1 1495.23976364913 937.806266380694 L1495.24606900443 937.803315580406 A26.05 26.05 0 0 1 1494.8559689969 956.849674395909 L1494.85183591525 956.849593772624 A63.54 63.54 0 0 1 1483.50191774704 974.834759014665 L1483.50273861007 974.831597949563 A80.11 80.11 0 0 0 1468.89452512094 998.233099860848 L1468.89599965145 998.228570548893 A50.86 50.86 0 0 0 1472.78712806796 1039.2210094488 L1472.78316715972 1039.22622602172 A20.1 20.1 0 0 0 1491.43602315319 1047.25815103732 L1491.44083319688 1047.25818949728 A15.43 15.43 0 0 1 1464.7802430419 1050.96988606098 L1464.7877557086 1050.96104771233 A48.69 48.69 0 0 1 1456.17833343564 1036.12087409767 L1456.16927442806 1036.12092822025 A20.02 20.02 0 0 0 1448.62716314728 1036.48262173879 L1448.6277049759 1036.48082781847 A8.76 8.76 0 0 0 1442.30879055747 1040.28975128878 L1442.31195234267 1040.30021958033 A40.65 40.65 0 0 0 1439.59576322173 1062.291064367 L1439.59001630865 1062.28714374337 A35.3 35.3 0 0 0 1470.98322786521 1091.22003529929 L1470.99 1091.22 L1471.88754305074 1088.71722311945 A2.69 2.69 0 0 1 1474.89558255409 1087.1659081875 L1474.89230487278 1087.17557029517 A38.8 38.8 0 0 0 1497.58782875048 1068.84595064608 L1497.58837345071 1068.84047258168 A40.73 40.73 0 0 1 1498.7266705985 1075.82372440428 L1498.72325986754 1075.82359905694 A9.61 9.61 0 0 1 1496.52175688024 1082.69319147768 L1496.52163415183 1082.69494050744 A40.81 40.81 0 0 1 1426.96711368118 1079.24101016492 L1426.95496494325 1079.24816007025 A4.67 4.67 0 0 0 1421.74187825043 1082.33702273449 L1421.73478926159 1082.3374139569 A39.76 39.76 0 0 1 1419.91261331614 1103.42232265863 L1419.92 1103.42 L1442.74634714758 1124.24038231035 A74.28 74.28 0 0 1 1445.88387632472 1125.32011761416 L1445.87958830603 1125.31931847356 A59.18 59.18 0 0 1 1458.2819963069 1137.45424586119 L1458.28003644699 1137.4556644643 A39.28 39.28 0 0 0 1472.5090034501 1149.09136227909 L1472.51665174982 1149.09244310571 A23.37 23.37 0 0 1 1482.29230145736 1155.25401700456 L1482.28135693343 1155.25834988715 A98.87 98.87 0 0 1 1499.78810742123 1180.76727188249 L1499.80214274399 1180.76099977265 A13.82 13.82 0 0 0 1510.42215202902 1188.51455369542 L1510.42 1188.52 L1511.95442404868 1217.30828763982 A181.7 181.7 0 0 0 1473.37475612854 1166.02915863828 L1473.38310603659 1166.02797821576 A91.63 91.63 0 0 0 1453.0673206241 1151.75665432348 L1453.05975733602 1151.75082248102 A106.57 106.57 0 0 0 1442.22439776425 1146.90207838053 L1442.2275061133 1146.90816645217 A9.04 9.04 0 0 0 1431.69874424491 1147.76761080922 L1431.69965431981 1147.75811666112 A7.45 7.45 0 0 0 1430.00512408064 1157.02562153694 L1430.01 1157.03 L1443.73 1179.16 L1448.27 1179.51 L1472.20531729876 1225.18595791902 A71.6 71.6 0 0 1 1470.60060667356 1285.0589834214 L1470.60474340725 1285.06386356571 A70.3 70.3 0 0 1 1458.1836257412 1302.7384636578 L1458.18 1302.73 L1463.62480888073 1306.45723200387 A132.03 132.03 0 0 1 1424.10164996265 1322.39987875719 L1424.1027715743 1322.39862639472 A80.42 80.42 0 0 1 1369.5014931459 1315.369575396 L1369.4998364848 1315.37266285593 A80.75 80.75 0 0 1 1330.08498214371 1269.45725755386 L1330.08896671212 1269.44850859575 A90.36 90.36 0 0 1 1325.36532972567 1242.23437766831 L1325.35583789485 1242.238422228 A731.98 731.98 0 0 0 1323.11651156857 1196.94529075777 L1323.1125213224 1196.94523322205 A113.87 113.87 0 0 0 1305.66042615983 1150.646032277 L1305.66571952696 1150.64505747857 A83.9 83.9 0 0 1 1335.52169872852 1196.91511566921 L1335.52265218728 1196.9163570712 A294.68 294.68 0 0 0 1337.1365734132 1243.19914792338 L1337.14794553341 1243.19852045749 A97.59 97.59 0 0 0 1351.02158473426 1287.19556936342 L1351.01292986368 1287.20178419285 A66.84 66.84 0 0 0 1369.37545786036 1304.59586497277 L1369.3755445676 1304.59501389734 A14.49 14.49 0 0 0 1380.09614380841 1306.57146864889 L1380.09615310405 1306.56872667605 A61.09 61.09 0 0 1 1346.49016657329 1255.4569012828 L1346.49401026165 1255.45263278263 A325.68 325.68 0 0 1 1346.46726345766 1218.63986489958 L1346.46 1218.64 L1346.57996650021 1199.76901448034 A71.09 71.09 0 0 0 1343.93268481122 1180.48055682825 L1343.93602320474 1180.48677944354 A6795.97 6795.97 0 0 0 1336.96657964402 1155.84619111997 L1336.96460277523 1155.84323453435 A71.44 71.44 0 0 1 1337.18450992799 1127.3752219105 L1337.18579504409 1127.37024762738 A73.35 73.35 0 0 1 1348.26971661445 1101.33167913819 L1348.27002096551 1101.34457888948 A33.81 33.81 0 0 0 1353.82285490329 1086.747078477 L1353.82 1086.74 L1355.48 1086.74 L1355.47978521824 1068.13934665175 A69.15 69.15 0 0 1 1363.13265528039 1102.94110462148 L1363.13431687363 1102.94042455857 A2.04 2.04 0 0 1 1360.2800727855 1101.08723251356 L1360.27701240082 1101.09276057689 A2.11 2.11 0 0 0 1356.34721272656 1101.03079923381 L1356.34750981906 1101.03425870635 A159.08 159.08 0 0 0 1350.13499069685 1114.48798857195 L1350.13665095986 1114.48415806215 A79.88 79.88 0 0 0 1352.58945115172 1161.91372557756 L1352.58113810876 1161.915731001 A257.76 257.76 0 0 1 1358.90634723833 1181.41042764488 L1358.90736897057 1181.40754150405 A21.52 21.52 0 0 1 1358.78251304004 1193.47970452868 L1358.78237591381 1193.47978988598 A167.12 167.12 0 0 0 1355.01215926287 1224.19946998154 L1355.01567990752 1224.20700091803 A314.22 314.22 0 0 0 1355.19893290092 1247.59374417106 L1355.19825672442 1247.58774212101 A37.69 37.69 0 0 0 1362.01635850075 1267.56539277373 L1362.02030050065 1267.56901862255 A115.77 115.77 0 0 0 1387.41515031603 1293.7161803014 L1387.41901800732 1293.71424984802 A8.67 8.67 0 0 0 1397.05955631358 1294.21112549365 L1397.06021923724 1294.21281104406 A40.47 40.47 0 0 1 1366.05340287136 1262.26530797463 L1366.05170013335 1262.26111854727 A193.54 193.54 0 0 1 1364.41921000917 1222.09199584622 L1364.41452563052 1222.10010343688 A56.95 56.95 0 0 1 1373.80937874055 1194.20301736888 L1373.81377975348 1194.1934710468 A74.08 74.08 0 0 0 1380.67757346913 1165.46681367544 L1380.67874588898 1165.46495105695 A19.65 19.65 0 0 0 1376.56748470317 1152.75758667074 L1376.56445892383 1152.76762561639 A7.6 7.6 0 0 1 1375.58985031569 1145.10375476972 L1375.58953497151 1145.10157245889 A68.69 68.69 0 0 1 1394.28937650857 1181.76239510816 L1394.29153601922 1181.75747295082 A1.77 1.77 0 0 1 1391.23701191078 1180.94007260745 L1391.23587800714 1180.9407587396 A2.11 2.11 0 0 0 1387.45734427733 1180.13755917967 L1387.45409518496 1180.13566303197 A46.66 46.66 0 0 0 1386.15143553116 1190.72399220369 L1386.15166030463 1190.73034976314 A177.59 177.59 0 0 1 1381.90168500665 1223.17081878649 L1381.90918671081 1223.17126716036 A38.16 38.16 0 0 1 1375.23609746497 1237.62185015823 L1375.22770440272 1237.61753765093 A20.39 20.39 0 0 0 1374.02907621149 1255.92269553141 L1374.03261146903 1255.918872266 A63.63 63.63 0 0 0 1383.87438178231 1271.97985720997 L1383.86943515364 1271.98750121167 A14.01 14.01 0 0 0 1398.28319792529 1276.49717992198 L1398.28873729694 1276.49244811115 A19.66 19.66 0 0 1 1382.38481411289 1263.74925997087 L1382.38387015539 1263.74840902249 A33.96 33.96 0 0 1 1380.83209797246 1246.21467448085 L1380.82354715492 1246.21044411702 A16.99 16.99 0 0 1 1399.19938530673 1227.50453046104 L1399.19687615339 1227.51281837633 A9.36 9.36 0 0 1 1407.16342604273 1230.83933417955 L1407.16424847064 1230.83793236148 A30.55 30.55 0 0 0 1390.87438338756 1245.81088779778 L1390.87641450036 1245.80371275843 A26.64 26.64 0 0 0 1416.20271753252 1277.84923437248 L1416.21 1277.85 L1416.48528015574 1272.07026853071 A30.56 30.56 0 0 0 1454.12032466104 1243.90672174287 L1454.11788224529 1243.90597649906 A46.96 46.96 0 0 0 1451.81602502792 1228.9313720983 L1451.81842170003 1228.93923967378 A288.46 288.46 0 0 0 1426.50169788474 1177.78747879154 L1426.5024219861 1177.77795477466 A1453.29 1453.29 0 0 1 1405.40739093771 1142.95586467696 L1405.41096996896 1142.95712903728 A172.41 172.41 0 0 1 1383.50630745451 1080.59152847545 L1383.50147768222 1080.59442238519 A67.91 67.91 0 0 1 1392.61755120321 1035.60197303388 L1392.62257749198 1035.60188966639 A156.88 156.88 0 0 1 1419.79542135773 1000.51951706807 L1419.79199355273 1000.52806840293 A437.88 437.88 0 0 0 1462.66741767081 955.86945230373 L1462.66510795663 955.858728186508 A25.47 25.47 0 0 0 1464.73051906773 930.553878174515 L1464.72769505578 930.559216308578 A182.86 182.86 0 0 0 1454.49786272968 911.781300353072 L1454.5013947661 911.781834069309 A5.09 5.09 0 1 0 1454.51565521753 901.755658447875 L1454.50790678032 901.755351404774 A6.92 6.92 0 0 1 1445.75768208011 901.120630242299 L1445.75332220802 901.122222441812 A3.87 3.87 0 0 0 1443.26916141281 900.064149357753 L1443.27 900.06 L1431.82 900.01 L1425.48015310063 904.002824204403 A8.19 8.19 0 0 1 1421.25878837946 906.440022551027 L1421.25766324863 906.437025825705 A7.25 7.25 0 0 0 1417.13877289276 909.044086327572 L1417.14212219708 909.055251387579 A61.7 61.7 0 0 0 1405.28223610818 920.578327991775 L1405.27904359107 920.571801696695 A57.1 57.1 0 0 1 1394.07918286887 931.40065436445 L1394.08590858512 931.403373123917 A32.3 32.3 0 0 0 1386.87516681631 938.697745353693 L1386.86855376956 938.690636663475 A657.59 657.59 0 0 1 1377.65838708822 951.268734194095 L1377.66416732076 951.270868131957 A28.3 28.3 0 0 0 1375.55276489652 968.006426815834 L1375.55586458002 968.008895386704 A11.13 11.13 0 0 1 1374.84856665079 974.310942478808 L1374.84389353209 974.306550479658 A2.35 2.35 0 0 1 1370.33442976164 973.53422294173 L1370.34 973.54 L1355.48 1004.76 L1355.44412934276 966.630780393911 A106.91 106.91 0 0 0 1343.12172539449 919.502912660906 L1343.12439711446 919.491247198672 A208.88 208.88 0 0 0 1294.47166876148 858.510337833735 Z" style="fill:rgb(255,255,0);" />
<path d=" M1372.71432423653 681.475944148308 A10.61 10.61 0 0 1 1377.71518079011 674.125614314139 L1377.70674049641 674.117942658795 A30.49 30.49 0 0 0 1388.55406356695 657.662460504053 L1388.55440713902 657.66393830584 A9.5 9.5 0 0 1 1394.76417249757 665.483581939363 L1394.76957297352 665.481057756122 A38.32 38.32 0 0 1 1392.80629736505 681.133109269483 L1392.79964754392 681.136038363485 A34.52 34.52 0 0 0 1389.94033162372 691.776141914461 L1389.95 691.77 Z" style="fill:rgb(255,0,0);" />
<path d=" M1331.78468461435 682.409475479061 A52.28 52.28 0 0 1 1340.80996244776 646.450488993018 L1340.80760693325 646.462005741664 A8.57 8.57 0 0 1 1349.05977789825 642.877250335007 L1349.06036805944 642.874248958504 A264.82 264.82 0 0 0 1347.86116444289 667.274675750084 L1347.87364855241 667.274082007002 A27.25 27.25 0 0 0 1352.93595795453 679.918960196646 L1352.93 679.92 Z" style="fill:rgb(255,0,0);" />
<path d=" M1157.03044753782 777.153427336998 A19.89 19.89 0 0 0 1165.28255859176 793.15015987118 L1165.27419569371 793.157445628592 A90.13 90.13 0 0 1 1182.71569986739 809.692170761931 L1182.71890902021 809.690804339368 A12.11 12.11 0 0 1 1184.03537526769 822.874712199975 L1184.03182841835 822.871087698566 A5.83 5.83 0 0 1 1179.27165702878 824.444325070073 L1179.27468447922 824.446426849326 A3.33 3.33 0 1 0 1182.1399901442 830.457980752273 L1182.14278254584 830.458399236182 A12.99 12.99 0 0 0 1193.21443515711 817.990188967295 L1193.21134211877 817.991503677373 A20.21 20.21 0 0 0 1188.04057386181 803.889783518214 L1188.03904510989 803.893774670739 A61.85 61.85 0 0 0 1171.08507278889 790.634082310721 L1171.09466753742 790.631130799303 A35.85 35.85 0 0 1 1157.02891101431 777.155400944644 Z" style="fill:rgb(0,0,0);" />
<path d=" M1151.62851845958 841.870686142467 A17.01 17.01 0 0 1 1144.52742988024 844.615904614143 L1144.5330449072 844.612691198137 A1.24 1.24 0 1 0 1144.92910076165 847.060489596943 L1144.9297569913 847.070245024076 A18.9 18.9 0 0 1 1153.88084498767 851.784037757914 L1153.88166112112 851.782749890662 A3.15 3.15 0 0 0 1149.79992400935 856.581587011287 L1149.80430390467 856.571371373374 A73.81 73.81 0 0 1 1169.9487319487 876.405557226596 L1169.94918802493 876.399720250733 A9.57 9.57 0 0 0 1171.43206772676 865.684968275866 L1171.43475167822 865.693424804038 A46.98 46.98 0 0 1 1166.68861782371 856.769051052471 L1166.68353344315 856.763698696443 A20.21 20.21 0 0 0 1157.83566268149 849.083099618378 L1157.84305191397 849.084674672889 A11.18 11.18 0 0 1 1151.63820475538 841.873464081608 Z" style="fill:rgb(0,0,0);" />
<path d=" M1156.62855646131 871.138404586204 A15.34 15.34 0 0 0 1142.02896137356 865.110541776824 L1142.01963966942 865.112173639593 A10.09 10.09 0 0 0 1133.64272927485 873.029023769636 L1133.65609291833 873.031910782936 A20.21 20.21 0 0 0 1133.94152600027 882.475412653945 L1133.93563080452 882.478956556408 A36.2 36.2 0 0 1 1141.37400862179 899.418599523265 L1141.38157158117 899.417588843037 A34.77 34.77 0 0 0 1142.91696243911 884.111224622249 L1142.90644499882 884.105528323711 A41.83 41.83 0 0 1 1142.59654630411 878.22998584604 L1142.60183215562 878.233653837064 A8.1 8.1 0 0 1 1152.75031399079 871.492438450486 L1152.74430709783 871.492752884789 A5.37 5.37 0 0 0 1156.05520946104 871.330664986787 L1156.05880594756 871.329119339018 A7.98 7.98 0 0 1 1156.62096643421 871.139386516277 Z" style="fill:rgb(0,0,0);" />
<path d=" M1181.66858717617 1202.9473900094 A4.97 4.97 0 0 0 1176.68504146624 1194.44792245337 L1176.69245080055 1194.45310706316 A25.09 25.09 0 0 1 1163.82105196439 1198.21754397143 L1163.81753008898 1198.21195847809 A1041.44 1041.44 0 0 0 1131.93586915992 1199.14657472311 L1131.93408721638 1199.15747229472 A39.07 39.07 0 0 0 1112.05410755895 1204.14585208428 L1112.05689885784 1204.14355382456 A19.66 19.66 0 0 0 1106.76115257253 1231.05744217264 L1106.76168967327 1231.05656061541 A14.74 14.74 0 0 0 1131.9083343874 1228.01674971331 L1131.91081919813 1228.01124426142 A14.01 14.01 0 0 0 1132.90178143973 1219.93356506633 L1132.90815402811 1219.93454778134 A12.66 12.66 0 0 1 1133.08542900086 1214.74021127441 L1133.08727464267 1214.73615378616 A3.37 3.37 0 0 1 1136.88544202667 1212.21121483472 L1136.88095118252 1212.22072213481 A527.13 527.13 0 0 0 1165.06134007546 1209.76687216256 L1165.06266087229 1209.75701312803 A32.99 32.99 0 0 0 1181.6708576944 1202.94502823227 Z" style="fill:rgb(255,0,0);" />
<path d=" M1091.54265331241 809.372985962818 A39.07 39.07 0 0 0 1072.01261443028 800.648017626451 L1072.00005642587 800.64614028824 A39.49 39.49 0 0 1 1063.83635574408 823.817139541315 L1063.84196516691 823.816939661408 A20.46 20.46 0 0 0 1079.45365702728 821.579989622487 L1079.45876209362 821.583886091671 A46.66 46.66 0 0 0 1091.54276085768 809.371340946428 L1091.54 809.37 Z" style="fill:rgb(255,0,0);" />
<path d=" M1022.29003916075 994.414067918164 A13.24 13.24 0 0 1 1014.75165854694 993.6802684603 L1014.75256196842 993.682857368055 A65.85 65.85 0 0 0 1000.86289878216 992.461064660416 L1000.86591255233 992.456681323325 A40.58 40.58 0 0 1 1000.1268559685 1025.12366303941 L1000.12582517458 1025.11335963575 A40.72 40.72 0 0 0 1022.2926815342 994.405094213534 L1022.29 994.41 Z" style="fill:rgb(255,0,0);" />
<path d=" M1028.82864092558 1287.17479905586 A41.16 41.16 0 0 0 1005.42732904994 1281.66751679562 L1005.42567607407 1281.66295137229 A40.15 40.15 0 0 1 1005.91069552988 1310.53869496235 L1005.90772010128 1310.5396634932 A40.72 40.72 0 0 0 1028.81928332323 1287.17520646608 L1028.82 1287.18 Z" style="fill:rgb(255,0,0);" />
<path d=" M1074.40136767501 1259.00228713412 A51.14 51.14 0 0 0 1058.98560941752 1274.56219471528 L1058.98734722732 1274.56570310385 A40.45 40.45 0 0 1 1083.36477921131 1295.5891512596 L1083.37140074642 1295.58793728138 A41.86 41.86 0 0 0 1074.40973678721 1259.00310138952 L1074.41 1259 Z" style="fill:rgb(255,0,0);" />
<path d=" M1242.27845461724 1223.3983833874 A78.11 78.11 0 0 1 1225.46349120363 1186.41498809192 L1225.45662720745 1186.40616566727 A52.69 52.69 0 0 0 1204.83134756001 1143.99724964038 L1204.84 1144 L1219.64789314973 1143.62364845747 A139.03 139.03 0 0 1 1245.88653471426 1186.4026790398 L1245.88129201787 1186.40468528367 A58.31 58.31 0 0 1 1249.67710132621 1203.63617399267 L1249.68172378326 1203.63203913517 A19.7 19.7 0 0 1 1242.27738389925 1223.38679839248 L1242.28 1223.39 Z" style="fill:rgb(0,0,0);" />
<path d=" M1344.40373333485 864.93686200444 A20.28 20.28 0 0 0 1355.15921393351 851.052137671723 L1355.16252423726 851.058755061603 A22.31 22.31 0 0 0 1347.25751568224 825.12713795095 L1347.26161190869 825.117855507219 A5.65 5.65 0 0 0 1339.03643339791 832.463619542121 L1339.04079181675 832.46468524865 A22.96 22.96 0 0 1 1345.59442188969 853.411069369836 L1345.58549226094 853.405651859412 A62.49 62.49 0 0 0 1344.40274521322 864.934261822658 L1344.41 864.94 Z" style="fill:rgb(0,0,0);" />
<path d=" M1309.62228147527 838.661310710758 A290 290 0 0 0 1307.00312271114 857.779793365176 L1307.00648573813 857.775523954132 A5.01 5.01 0 0 0 1315.4914017354 861.873334464902 L1315.49152200811 861.876371256458 A25.01 25.01 0 0 0 1322.63881376968 845.107937235977 L1322.63340370665 845.106697284499 A10.18 10.18 0 0 1 1331.63837090357 855.706449552902 L1331.63812047724 855.705381334338 A16.13 16.13 0 0 0 1335.85137987678 863.062640329327 L1335.85857367329 863.063595935673 A15.07 15.07 0 0 0 1329.79598818328 838.031544924801 L1329.79 838.03 L1329.65811953628 833.324563578995 A28.87 28.87 0 0 0 1309.62771115566 838.661285809054 L1309.63 838.66 Z" style="fill:rgb(0,0,0);" />
<path d=" M1304.87693761533 718.090671287303 A35.64 35.64 0 0 1 1283.67827851081 689.754735832882 L1283.67188136509 689.753086518921 A30.85 30.85 0 0 0 1309.55233598578 697.256480453536 L1309.55958553354 697.256007530794 A37.79 37.79 0 0 1 1304.87694522084 718.085864787151 L1304.87 718.08 Z" style="fill:rgb(255,0,0);" />
<path d=" M1395.5967250215 743.348067252538 A26.26 26.26 0 0 0 1393.56728671457 771.911715462362 L1393.56578724116 771.909296083174 A100.38 100.38 0 0 0 1402.9833150395 785.970543044414 L1402.98286203786 785.973333972757 A28.48 28.48 0 0 1 1409.14311406097 805.851294249863 L1409.14442293481 805.85369409644 A5.77 5.77 0 0 1 1405.80043544553 810.672394582912 L1405.80280373145 810.666649304423 A6.97 6.97 0 0 0 1411.51026691068 818.0888600997 L1411.51485452222 818.094031527225 A7.9 7.9 0 0 0 1417.3536501051 816.858558460821 L1417.34633410245 816.858608578098 A34.65 34.65 0 0 0 1425.55190464008 809.060485381709 L1425.5580833013 809.059122975745 A11.15 11.15 0 0 0 1424.74359239742 794.66028425315 L1424.73771299228 794.664259308711 A309.43 309.43 0 0 1 1409.88354591646 777.847832454398 L1409.88548255304 777.842846708865 A25.44 25.44 0 0 1 1402.50225372835 762.380671466992 L1402.50521600507 762.378767898852 A91.41 91.41 0 0 1 1402.53430288959 743.481343531539 L1402.53 743.49 Z" style="fill:rgb(0,0,0);" />
<path d=" M1200.71388427609 1276.72795913259 A100.98 100.98 0 0 0 1248.1464953787 1253.35984707557 L1248.14463714824 1253.35799361323 A24.34 24.34 0 0 0 1260.38297173845 1252.40749443034 L1260.38019880128 1252.40477654682 A5.21 5.21 0 0 0 1263.86328687724 1246.95308715307 L1263.87221412607 1246.95593484432 A41.39 41.39 0 0 1 1263.82294130545 1239.10097677899 L1263.82 1239.1 L1225.10272173089 1239.10481419792 A20.21 20.21 0 0 0 1206.58559288528 1257.50364661689 L1206.58213787741 1257.50485430064 A29.54 29.54 0 0 1 1200.71086084382 1276.72551877323 L1200.71 1276.73 Z" style="fill:rgb(0,0,0);" />
<path d=" M1237.33185005924 1250.71898867537 A16.25 16.25 0 0 0 1219.36172384718 1251.06841745147 L1219.36120724384 1251.06691366891 A14.16 14.16 0 0 0 1213.3178188434 1261.43168602198 L1213.32200893023 1261.43340789683 A5.39 5.39 0 0 0 1213.8466511915 1264.28517913046 L1213.84113309232 1264.28382303386 A4.3 4.3 0 0 0 1219.77494161338 1259.33050375187 L1219.77178836728 1259.33020170937 A119.97 119.97 0 0 1 1229.60229501597 1255.97617853658 L1229.60212432193 1255.98310735805 A15.24 15.24 0 0 0 1237.33511547312 1250.72238206111 Z" style="fill:rgb(255,255,255);" />
<path d=" M1278.93958006224 1286.96797818193 A15.28 15.28 0 0 0 1290.70401271204 1290.91161488099 L1290.70370965057 1290.91386248507 A14.37 14.37 0 0 0 1278.93502878438 1286.96880171206 L1278.94 1286.97 Z" style="fill:rgb(0,0,0);" />
<path d=" M1267.5073458816 1277.88030984896 A15.29 15.29 0 0 0 1277.36110232115 1284.89733413466 L1277.3641175663 1284.90062537975 A14.44 14.44 0 0 1 1272.8318169725 1277.82843189733 L1272.83 1277.82 Z" style="fill:rgb(0,0,0);" />
<path d=" M1280.43230389584 1268.53480629073 A5.67 5.67 0 0 0 1284.00606896613 1277.23340632313 L1284.01269101866 1277.23799820986 A79.17 79.17 0 0 1 1289.99183347059 1278.71420014698 L1289.98632292754 1278.71551887922 A9.8 9.8 0 0 0 1298.55713282091 1281.41715631837 L1298.55282463526 1281.4057786323 A3.72 3.72 0 0 0 1300.88531634962 1275.49382570875 L1300.8933991086 1275.49855517809 A4.02 4.02 0 0 0 1293.41744099766 1278.08577185138 L1293.41925363597 1278.07859596522 A15.27 15.27 0 0 1 1283.86857165859 1268.44366852055 L1283.87 1268.44 Z" style="fill:rgb(0,0,0);" />
</g>
</svg>
