<?xml version="1.0" encoding="UTF-8"?><!DOCTYPE svg PUBLIC '-//W3C//DTD SVG 1.0//EN' 'http://www.w3.org/TR/2001/REC-SVG-20010904/DTD/svg10.dtd'><svg xmlns:xlink="http://www.w3.org/1999/xlink" xmlns="http://www.w3.org/2000/svg"><!--Gegenereerd door de SIMaD (http://www.dlw.be).-->
<g style="stroke:none;fill-rule:evenodd;" transform="matrix(1,0,0,-1,0,2250)">
<path d=" M65 0 L2435 0 A65 65 0 0 1 2500 65 L2500 2185 A65 65 0 0 1 2435 2250 L65 2250 A65 65 0 0 1 0 2185 L0 65 A65 65 0 0 1 65 0 Z" style="fill:rgb(0,0,0);" />
<path d=" M65 30 L2435 30 A35 35 0 0 1 2470 65 L2470 2185 A35 35 0 0 1 2435 2220 L65 2220 A35 35 0 0 1 30 2185 L30 65 A35 35 0 0 1 65 30 Z" style="fill:rgb(255,255,0);" />
<path d=" M462.07 1842 L533.500063825993 1842.00000000004 A57.14 57.14 0 0 1 590.639999999982 1899.13995412507 L590.639999999982 2034.86004587493 A57.14 57.14 0 0 1 533.500063825993 2091.99999999996 L462.07 2092 Z M497.78 1874.14 L529.930027925268 1874.14000000002 A25 25 0 0 1 554.929999999992 1899.13997992871 L554.929999999992 2034.86002007129 A25 25 0 0 1 529.930027925268 2059.85999999998 L497.78 2059.86 Z" style="fill:rgb(0,0,0);" />
<path d=" M718.14 1895.57 L718.14 1888.42999588574 A21.43 21.43 0 1 0 675.28 1888.43000411426 L675.28 1927.71 L750.28 1927.71 L750.279999999999 1970.57000841476 A53.57 53.57 0 0 1 643.140000000001 1970.56999158524 L643.140000000001 1892.00000841476 A53.57 53.57 0 0 1 750.279999999999 1891.99999158524 L750.28 1895.57 Z M718.14 1956.29 L718.14 1974.14000336622 A21.43 21.43 0 0 1 675.28 1974.13999663378 L675.28 1956.29 Z" style="fill:rgb(0,0,0);" />
<path d=" M880.28 1770.57 L912.42 1770.57 L912.425128730375 1850.62712540995 A44.42 44.42 0 0 1 987.419999999994 1882.84997674174 L987.419999999994 1979.72002325826 A44.42 44.42 0 0 1 912.425128730375 2011.94287459005 L912.42 2011.94 L912.42 2020.57 L880.28 2020.57 Z M912.42 1888.43 L912.42 1974.13999588574 A21.43 21.43 0 0 0 955.28 1974.14000411426 L955.28 1888.43 A21.43 21.43 0 0 0 912.42 1888.43 Z" style="fill:rgb(0,0,0);" />
<path d=" M1037.47 1842 L1069.61 1842 L1069.61000000001 1963.42997855846 A28.57 28.57 0 0 0 1098.1800209429 1991.99999999999 L1117.83 1992 L1117.83 2020.57 L1098.18004862138 2020.56999999997 A46.43 46.43 0 0 1 1069.60763510485 2010.73733411463 L1069.61 2010.74 L1069.61 2020.57 L1037.47 2020.57 Z" style="fill:rgb(0,0,0);" />
<path d=" M1145.48 1892 L1145.48 1970.56999065027 A53.57 53.57 0 0 0 1252.62 1970.57000934973 L1252.62 1892 A53.57 53.57 0 0 0 1145.48 1892 Z M1177.62 1888.43 L1177.62 1974.13999588574 A21.43 21.43 0 0 0 1220.48 1974.14000411426 L1220.48 1888.43 A21.43 21.43 0 0 0 1177.62 1888.43 Z" style="fill:rgb(0,0,0);" />
<path d=" M1328.33 1842 L1364.05 1842 L1404.76 2020.57 L1371.8 2020.57 L1346.19 1908.27 L1320.59 2020.57 L1287.62 2020.57 Z" style="fill:rgb(0,0,0);" />
<path d=" M1447.12 1842 L1447.12 2020.57 L1479.26 2020.57 L1479.26 1842 Z" style="fill:rgb(0,0,0);" />
<path d=" M1448.91 2056.29 L1448.91 2084.86 L1477.48 2084.86 L1477.48 2056.29 Z" style="fill:rgb(0,0,0);" />
<path d=" M1539.11 1842 L1571.25 1842 L1571.25 1974.13999588574 A21.43 21.43 0 0 0 1614.11 1974.14000411426 L1614.11 1842 L1646.25 1842 L1646.24999999999 1979.72002325826 A44.42 44.42 0 0 1 1571.25512873037 2011.94287459005 L1571.25 2011.94 L1571.25 2020.57 L1539.11 2020.57 Z" style="fill:rgb(0,0,0);" />
<path d=" M1766.4 1892 L1766.4 1888.42999588574 A21.43 21.43 0 1 0 1723.54 1888.43000411426 L1723.54 1974.13999588574 A21.43 21.43 0 0 0 1766.4 1974.14000411426 L1766.4 1970.57 L1798.54 1970.57000841476 A53.57 53.57 0 0 1 1691.4 1970.56999158524 L1691.4 1892.00000841476 A53.57 53.57 0 0 1 1798.54 1891.99999158524 Z" style="fill:rgb(0,0,0);" />
<path d=" M1848.6 1842 L1848.6 2020.57 L1880.74 2020.57 L1880.74 1842 Z" style="fill:rgb(0,0,0);" />
<path d=" M1850.39 2056.29 L1850.39 2084.86 L1878.96 2084.86 L1878.96 2056.29 Z" style="fill:rgb(0,0,0);" />
<path d=" M2005.79 1895.57 L2005.79 1888.42999588574 A21.43 21.43 0 1 0 1962.93 1888.43000411426 L1962.93 1927.71 L2037.93 1927.71 L2037.93 1970.57000841476 A53.57 53.57 0 0 1 1930.79 1970.56999158524 L1930.79 1892.00000841476 A53.57 53.57 0 0 1 2037.93 1891.99999158524 L2037.93 1895.57 Z M2005.79 1956.29 L2005.79 1974.14000336622 A21.43 21.43 0 0 1 1962.93 1974.13999663378 L1962.93 1956.29 Z" style="fill:rgb(0,0,0);" />
<path d=" M143.8 1714 L186.66 1464 L222.37 1464 L249.16 1620.25 L275.94 1464 L311.66 1464 L354.51 1714 L321.9 1714 L295.36 1559.19 L268.83 1714 L233.11 1714 L206.57 1559.19 L180.04 1714 Z" style="fill:rgb(0,0,0);" />
<path d=" M444.57 1517.57 L444.57 1510.42999588574 A21.43 21.43 0 1 0 401.71 1510.43000411426 L401.71 1549.71 L476.71 1549.71 L476.709999999999 1592.57000841476 A53.57 53.57 0 0 1 369.570000000001 1592.56999158524 L369.570000000001 1514.00000841476 A53.57 53.57 0 0 1 476.709999999999 1513.99999158524 L476.71 1517.57 Z M444.57 1578.29 L444.57 1596.14000336622 A21.43 21.43 0 0 1 401.71 1596.13999663378 L401.71 1578.29 Z" style="fill:rgb(0,0,0);" />
<path d=" M519.06 1514 L551.200000000003 1514.00001159475 A21.43 21.43 0 1 1 583.345006478286 1532.55892066286 L583.35 1532.56 L547.63 1552.83872981078 A50 50 0 1 0 622.629999999999 1596.13999040069 L590.49 1596.13999657113 A17.86 17.86 0 1 1 563.7 1580.67278628841 L563.7 1580.68 L599.415008097102 1560.39297620587 A53.57 53.57 0 1 0 519.060000000004 1514.00001963443 Z" style="fill:rgb(0,0,0);" />
<path d=" M684.62 1614 L684.620000000009 1496.1400241208 A32.14 32.14 0 0 1 716.76002355985 1464.00000000001 L745.34 1464 L745.34 1492.57 L727.48000785084 1492.58 A10.71 10.71 0 0 0 716.770000000003 1503.29000803776 L716.76 1503.29 L716.76 1614 L748.91 1614 L748.91 1642.57 L716.76 1642.57 L716.76 1714 L684.62 1695.44 L684.62 1642.57 L668.55 1642.57 L668.55 1614 Z" style="fill:rgb(0,0,0);" />
<path d=" M791.41 1535.43 L791.41 1571.14 L919.98 1571.14 L919.98 1535.43 Z" style="fill:rgb(0,0,0);" />
<path d=" M923.55 1714 L977.12 1464 L1019.98 1464 L1073.55 1714 L1037.02 1714 L998.55 1539 L960.08 1714 Z" style="fill:rgb(0,0,0);" />
<path d=" M1113.45 1464 L1145.59 1464 L1145.59 1714 L1113.45 1714 Z" style="fill:rgb(0,0,0);" />
<path d=" M1274.22 1464 L1274.21868534105 1468.82465888835 A50 50 0 0 0 1252.79003141593 1464.00000000001 L1245.64999301868 1464 A50 50 0 0 0 1245.65000698132 1564 L1252.79002393754 1564.00000000001 A21.43 21.43 0 0 1 1274.21999999999 1585.42998279489 L1274.22 1596.14000336622 A21.43 21.43 0 0 1 1231.36 1596.13999663378 L1231.36 1592.57 L1199.22 1592.56999065027 A53.57 53.57 0 0 0 1306.36 1592.57000934973 L1306.36 1464 Z M1274.22 1514 L1274.21868534105 1540.25465888835 A50 50 0 0 0 1252.79003141593 1535.43000000001 L1249.21999625976 1535.43 A21.43 21.43 0 0 1 1249.22000374024 1492.57 L1252.79002393754 1492.57000000001 A21.43 21.43 0 0 1 1274.21999999999 1513.99998279489 Z" style="fill:rgb(0,0,0);" />
<path d=" M1430.08 1464 L1430.07868534105 1468.82465888835 A50 50 0 0 0 1408.65003141593 1464.00000000001 L1401.50999301868 1464 A50 50 0 0 0 1401.51000698132 1564 L1408.65002393754 1564.00000000001 A21.43 21.43 0 0 1 1430.07999999999 1585.42998279489 L1430.08 1596.14000336622 A21.43 21.43 0 0 1 1387.22 1596.13999663378 L1387.22 1592.57 L1355.08 1592.56999065027 A53.57 53.57 0 0 0 1462.22 1592.57000934973 L1462.22 1464 Z M1430.08 1514 L1430.07868534105 1540.25465888835 A50 50 0 0 0 1408.65003141593 1535.43000000001 L1405.07999625976 1535.43 A21.43 21.43 0 0 1 1405.08000374024 1492.57 L1408.65002393754 1492.57000000001 A21.43 21.43 0 0 1 1430.07999999999 1513.99998279489 Z" style="fill:rgb(0,0,0);" />
<path d=" M1517.17 1464 L1549.31 1464 L1549.31 1596.13999588574 A21.43 21.43 0 0 0 1592.17 1596.14000411426 L1592.17 1464 L1624.31 1464 L1624.30999999999 1601.72002325826 A44.42 44.42 0 0 1 1549.31512873038 1633.94287459005 L1549.31 1633.94 L1549.31 1642.57 L1517.17 1642.57 Z" style="fill:rgb(0,0,0);" />
<path d=" M1744.47 1464 L1744.46486002172 1472.62711473731 A44.42 44.42 0 0 0 1669.47 1504.84999224725 L1669.47 1601.72000775275 A44.42 44.42 0 0 0 1744.46486002172 1633.94288526269 L1744.47 1633.94 L1744.47 1714 L1776.61 1714 L1776.61 1464 Z M1744.47 1510.43 L1744.47 1596.14000336622 A21.43 21.43 0 0 1 1701.61 1596.13999663378 L1701.61 1510.43000336622 A21.43 21.43 0 0 1 1744.47 1510.42999663378 Z" style="fill:rgb(0,0,0);" />
<path d=" M1901.66 1517.57 L1901.66 1510.42999588574 A21.43 21.43 0 1 0 1858.8 1510.43000411426 L1858.8 1549.71 L1933.8 1549.71 L1933.8 1592.57000841476 A53.57 53.57 0 0 1 1826.66 1592.56999158524 L1826.66 1514.00000841476 A53.57 53.57 0 0 1 1933.8 1513.99999158524 L1933.8 1517.57 Z M1901.66 1578.29 L1901.66 1596.14000336622 A21.43 21.43 0 0 1 1858.8 1596.13999663378 L1858.8 1578.29 Z" style="fill:rgb(0,0,0);" />
<path d=" M1983.85 1464 L2015.99 1464 L2015.99000000001 1585.42997855846 A28.57 28.57 0 0 0 2044.5600209429 1613.99999999999 L2064.21 1614 L2064.21 1642.57 L2044.56004862138 1642.56999999997 A46.43 46.43 0 0 1 2015.98763510485 1632.73733411463 L2015.99 1632.74 L2015.99 1642.57 L1983.85 1642.57 Z" style="fill:rgb(0,0,0);" />
<path d=" M2166.86 1517.57 L2166.86 1510.42999588574 A21.43 21.43 0 1 0 2124 1510.43000411426 L2124 1549.71 L2199 1549.71 L2199 1592.57000841476 A53.57 53.57 0 0 1 2091.86 1592.56999158524 L2091.86 1514.00000841476 A53.57 53.57 0 0 1 2199 1513.99999158524 L2199 1517.57 Z M2166.86 1578.29 L2166.86 1596.14000336622 A21.43 21.43 0 0 1 2124 1596.13999663378 L2124 1578.29 Z" style="fill:rgb(0,0,0);" />
<path d=" M2249.05 1464 L2281.19 1464 L2281.19 1596.13999588574 A21.43 21.43 0 0 0 2324.05 1596.14000411426 L2324.05 1464 L2356.19 1464 L2356.18999999999 1601.72002325826 A44.42 44.42 0 0 1 2281.19512873038 1633.94287459005 L2281.19 1633.94 L2281.19 1642.57 L2249.05 1642.57 Z" style="fill:rgb(0,0,0);" />
<path d=" M327.5 158 L359.64 158 L359.64 290.139995885735 A21.43 21.43 0 0 0 402.5 290.140004114265 L402.5 158 L434.64 158 L434.639999999994 295.720023258258 A44.42 44.42 0 0 1 359.645128730375 327.942874590046 L359.64 327.94 L359.64 408 L327.5 408 Z" style="fill:rgb(0,0,0);" />
<path d=" M554.79 211.57 L554.79 204.429995885735 A21.43 21.43 0 1 0 511.93 204.430004114265 L511.93 243.71 L586.93 243.71 L586.929999999999 286.570008414756 A53.57 53.57 0 0 1 479.790000000001 286.569991585244 L479.790000000001 208.000008414756 A53.57 53.57 0 0 1 586.929999999999 207.999991585244 L586.93 211.57 Z M554.79 272.29 L554.79 290.140003366217 A21.43 21.43 0 0 1 511.93 290.139996633783 L511.93 272.29 Z" style="fill:rgb(0,0,0);" />
<path d=" M704.28 211.57 L704.28 204.429995885735 A21.43 21.43 0 1 0 661.42 204.430004114265 L661.42 243.71 L736.42 243.71 L736.419999999999 286.570008414756 A53.57 53.57 0 0 1 629.280000000001 286.569991585244 L629.280000000001 208.000008414756 A53.57 53.57 0 0 1 736.419999999999 207.999991585244 L736.42 211.57 Z M704.28 272.29 L704.28 290.140003366217 A21.43 21.43 0 0 1 661.42 290.139996633783 L661.42 272.29 Z" style="fill:rgb(0,0,0);" />
<path d=" M794.85 308 L794.850000000009 190.140024120799 A32.14 32.14 0 0 1 826.99002355985 158.000000000009 L855.57 158 L855.57 186.57 L837.71000785084 186.580000000003 A10.71 10.71 0 0 0 827.000000000003 197.290008037765 L826.99 197.29 L826.99 308 L859.14 308 L859.14 336.57 L826.99 336.57 L826.99 408 L794.85 389.44 L794.85 336.57 L778.78 336.57 L778.78 308 Z" style="fill:rgb(0,0,0);" />
<path d=" M1064.13 158 L1064.12486002172 166.627114737312 A44.42 44.42 0 0 0 989.130000000001 198.849992247247 L989.13 336.57 L1021.27 336.57 L1021.27 204.430003366217 A21.43 21.43 0 0 1 1064.13 204.429996633783 L1064.13 336.57 L1096.27 336.57 L1096.27 158 Z" style="fill:rgb(0,0,0);" />
<path d=" M1261.99 158 L1297.71 158 L1319.14 265.14 L1340.57 158 L1376.28 158 L1411.99 336.57 L1382.86 336.57 L1360.1 222.8 L1337.35 336.57 L1304.57 336.57 L1281.81 222.8 L1259.06 336.57 L1226.28 336.57 Z" style="fill:rgb(0,0,0);" />
<path d=" M1521.99 211.57 L1521.99 204.429995885735 A21.43 21.43 0 1 0 1479.13 204.430004114265 L1479.13 243.71 L1554.13 243.71 L1554.13 286.570008414756 A53.57 53.57 0 0 1 1446.99 286.569991585244 L1446.99 208.000008414756 A53.57 53.57 0 0 1 1554.13 207.999991585244 L1554.13 211.57 Z M1521.99 272.29 L1521.99 290.140003366217 A21.43 21.43 0 0 1 1479.13 290.139996633783 L1479.13 272.29 Z" style="fill:rgb(0,0,0);" />
<path d=" M1604.18 158 L1636.32 158 L1636.32 408 L1604.18 408 Z" style="fill:rgb(0,0,0);" />
<path d=" M1696.18 158 L1696.18 408 L1728.32 408 L1728.32 277.29 L1769.26 336.57 L1808.32 336.57 L1749.75 251.75 L1808.32 158 L1770.42 158 L1728.32 225.39 L1728.32 158 Z" style="fill:rgb(0,0,0);" />
<path d=" M1833.17 208 L1833.17 286.569990650271 A53.57 53.57 0 0 0 1940.31 286.570009349729 L1940.31 208 A53.57 53.57 0 0 0 1833.17 208 Z M1865.31 204.43 L1865.31 290.139995885735 A21.43 21.43 0 0 0 1908.17 290.140004114265 L1908.17 204.43 A21.43 21.43 0 0 0 1865.31 204.43 Z" style="fill:rgb(0,0,0);" />
<path d=" M1990.36 158 L2022.5 158 L2022.5 290.139995885735 A21.43 21.43 0 0 0 2065.36 290.140004114265 L2065.36 158 L2097.5 158 L2097.5 290.139995885735 A21.43 21.43 0 0 0 2140.36 290.140004114265 L2140.36 158 L2172.5 158 L2172.49999999999 295.720027134634 A44.42 44.42 0 0 1 2090.58256625271 319.533417696065 L2090.57743624103 319.533413769343 A44.42 44.42 0 0 1 2022.50512254403 327.942868720092 L2022.5 327.94 L2022.5 336.57 L1990.36 336.57 Z" style="fill:rgb(0,0,0);" />
<path d=" M1455.79222962316 599.683742336004 A208.11 208.11 0 0 1 1512.3675141455 627.590644553536 L1512.36930053906 627.589539264703 A209.77 209.77 0 0 1 1585.48736447788 722.902524976682 L1585.47756265115 722.898481826613 A235.26 235.26 0 0 1 1600.12658090927 787.712705001454 L1600.13 787.72 L1600.13 1336 L899.86 1336 L899.857974316007 796.985026861606 A212.17 212.17 0 0 1 917.407016736057 721.608300416574 L917.405787832461 721.612223919973 A211.89 211.89 0 0 1 1018.14338322601 614.063145239686 L1018.14470351532 614.063767222928 A429.49 429.49 0 0 1 1084.5050193353 589.38150783533 L1084.50494197982 589.378253340126 A9601.86 9601.86 0 0 0 1250.98200802509 535.994158994388 L1250.98 536 Z" style="fill:rgb(0,0,0);" />
<path d=" M1593.01971809161 788.286639571784 A228.13 228.13 0 0 0 1578.81466576387 725.436730252084 L1578.81515409439 725.444415730586 A202.63 202.63 0 0 0 1508.2308786563 633.408153195469 L1508.22932768734 633.409425861138 A200.97 200.97 0 0 0 1453.65620820637 606.496765763286 L1453.66 606.49 L1252.88 544.06 L1252.88 1328.24 L1593 1328.24 L1593 788.01 Z" style="fill:rgb(255,255,0);" />
<path d=" M1054.04 1024.61 L947.44 1328.24 L1075.74 1328.24 L1075.74 1024.61 Z" style="fill:rgb(0,0,255);" />
<path d=" M1017.26 1022.54 L906.77 1144.28 L906.77 1328.24 L944.33 1328.24 L1050.76 1024.61 L1017.26 1024.61 Z" style="fill:rgb(255,255,0);" />
<path d=" M1079.51 1024.61 L1079.51 1328.24 L1203.54 1328.24 L1098.44 1024.61 Z" style="fill:rgb(255,255,0);" />
<path d=" M1137.24 1024.61 L1102.01 1024.61 L1207.54 1328.24 L1249.11 1328.24 L1249.11 1144.63 L1137.24 1022.06 Z" style="fill:rgb(0,0,255);" />
<path d=" M1017.26 1016.96 L906.77 1138.74 L906.77 959.33 L1017.26 959.33 Z" style="fill:rgb(0,0,255);" />
<path d=" M1031.35 907.07 L909.388178658291 773.667519096249 A211.62 211.62 0 0 1 923.970239400923 724.425280544245 L923.968907046987 724.424310985971 A204.75 204.75 0 0 1 971.575059248767 655.371373063223 L971.57 655.37 L1052.98814474297 897.466352715411 A187.14 187.14 0 0 0 1032.22639798448 906.471832773425 L1032.22697107771 906.469910965277 A33.52 33.52 0 0 0 1031.35174743467 907.066651942082 Z" style="fill:rgb(0,0,255);" />
<path d=" M908.77436482426 777.477474133345 A211.63 211.63 0 0 0 906.765243513335 797.327597267662 L906.77 797.33 L906.77 954.94 L1017.26 954.94 L1017.25905981462 931.758245768157 A33.52 33.52 0 0 1 1029.06630163954 908.830512741175 L1029.07 908.83 Z" style="fill:rgb(255,255,0);" />
<path d=" M1056.69 896.16 L973.921301191748 653.172090195088 A204.75 204.75 0 0 1 1021.30359238556 620.465779123558 L1021.30525674389 620.471296395802 A423.66 423.66 0 0 1 1075.55190664607 599.472042692849 L1075.55 599.46 L1075.54696854508 890.835215002532 A187.14 187.14 0 0 0 1056.68326582 896.166340597818 Z" style="fill:rgb(255,255,0);" />
<path d=" M1079.21 890.9 L1079.21643594815 598.342368550562 A423.63 423.63 0 0 1 1086.17214575625 596.319303664698 L1086.17182535528 596.325939568072 A9100.65 9100.65 0 0 0 1220.26299902455 553.611014734008 L1220.26 553.61 L1097.08122526339 895.695589878557 A751.28 751.28 0 0 0 1079.21503898458 890.899192927777 Z" style="fill:rgb(0,0,255);" />
<path d=" M1249.11 544.12 L1249.11 768.97 L1122.58728175333 906.132634591162 A40.4 40.4 0 0 0 1113.80838501701 900.612334956876 L1113.80005538477 900.624620658879 A751.23 751.23 0 0 0 1100.90746576096 896.793556895996 L1100.91 896.79 L1223.62904674403 552.499001583483 A9098.61 9098.61 0 0 0 1249.1070610407 544.112823562076 Z" style="fill:rgb(255,255,0);" />
<path d=" M1137.24 954.94 L1249.11 954.94 L1249.11 773.45 L1125.49784581313 908.783747280642 A40.4 40.4 0 0 1 1137.24500812066 935.869183594967 L1137.24 935.87 Z" style="fill:rgb(0,0,255);" />
<path d=" M1137.24 1015.33 L1249.11 1139.53 L1249.11 959.33 L1137.24 959.33 Z" style="fill:rgb(255,255,0);" />
<path d=" M1020.23 932.01 L1020.23 1021.47 L1134.1 1021.47 L1134.09501605747 935.925932728402 A37.25 37.25 0 0 0 1112.67629546374 903.559842518705 L1112.67463256399 903.55625973065 A748.17 748.17 0 0 0 1077.30481367651 893.654750142062 L1077.30465159558 893.659619443691 A184 184 0 0 0 1033.8093611219 909.189773439941 L1033.81301480435 909.18502239446 A31.18 31.18 0 0 0 1020.23562321261 932.010040296232 Z" style="fill:rgb(255,0,0);" />
<path d=" M1347.09893570055 729.223315414106 A9.69 9.69 0 0 1 1346.85885833475 724.905438012676 L1346.86508432313 724.904147883161 A4.53 4.53 0 0 0 1344.46511555068 720.108102461331 L1344.46236184756 720.105937346823 A31.11 31.11 0 0 1 1319.02812125122 713.392911636326 L1319.02425041486 713.398863304818 A15.95 15.95 0 0 0 1314.94571974666 730.898323275486 L1314.94949264923 730.899405208626 A6.01 6.01 0 0 1 1317.58781463997 738.08899404876 L1317.58312009408 738.089099722702 A1.47 1.47 0 0 1 1315.90360313566 738.808307957825 L1315.90103907721 738.808198593713 A5.17 5.17 0 0 1 1313.50070001058 737.36916378737 L1313.50337047626 737.366196561081 A24.86 24.86 0 0 1 1307.02453903402 724.17929590885 L1307.03354357478 724.17903812044 A10.46 10.46 0 0 0 1289.26770989846 719.861125526129 L1289.27809732743 719.870425407849 A14.57 14.57 0 0 1 1274.87550338529 729.320451362703 L1274.87186373181 729.315237802608 A8.87 8.87 0 0 0 1274.15197332686 737.227575553665 L1274.15043834728 737.225941043658 A15.66 15.66 0 0 0 1286.87234880225 747.059428672061 L1286.867076935 747.061964816708 A18.69 18.69 0 0 1 1296.46384075724 751.137276963135 L1296.46613415512 751.134380628914 A3.6 3.6 0 0 1 1292.62920059965 757.124720185381 L1292.6323136738 757.122497940496 A14.77 14.77 0 0 0 1274.39096041551 762.446563230806 L1274.38990638089 762.449938684319 A19.4 19.4 0 0 1 1269.11109631403 781.390285244152 L1269.11536228751 781.394710768988 A11.96 11.96 0 0 0 1285.43372629359 788.348367679029 L1285.43559243334 788.355079503931 A38.92 38.92 0 0 0 1297.43513860108 779.722421725412 L1297.42419196383 779.718319143232 A13.69 13.69 0 0 1 1316.6259824477 783.555555823767 L1316.62607149463 783.548746751854 A70.75 70.75 0 0 1 1335.82481421332 807.287911042611 L1335.81765964685 807.288418130409 A326.44 326.44 0 0 1 1332.69805733913 849.560682322431 L1332.71103923614 849.568183207019 A151507.97 151507.97 0 0 1 1319.51259002561 907.474345473027 L1319.50638252249 907.470882118881 A41.88 41.88 0 0 0 1346.7205169067 953.510926141509 L1346.71783170333 953.514469704369 A203.09 203.09 0 0 0 1410.07157976765 967.901366088429 L1410.07 967.89 L1458.5388585661 967.645375879705 A45.69 45.69 0 0 0 1476.29515287609 950.383008253589 L1476.30125505289 950.391275288015 A25.62 25.62 0 0 0 1474.38142999718 919.938740990305 L1474.38296046943 919.936451533699 A180.38 180.38 0 0 1 1454.35076691495 898.514754875905 L1454.349412664 898.514949852047 A24.49 24.49 0 0 0 1428.68934313856 911.690269129922 L1428.69847525912 911.689038327242 A15.72 15.72 0 0 1 1442.85286922674 887.478301633626 L1442.8549268563 887.464267780706 A24.76 24.76 0 0 0 1405.41234674336 911.206617896852 L1405.42122582935 911.208701020919 A18.49 18.49 0 0 1 1403.26197761925 885.558441796586 L1403.25473517512 885.552772247382 A40.68 40.68 0 0 0 1403.73463283615 847.431981858094 L1403.73212187042 847.424870538837 A36.83 36.83 0 0 1 1388.13352591139 871.882795349153 L1388.13995640729 871.881884200378 A29.02 29.02 0 0 0 1378.30067018817 893.462776086353 L1378.29774195408 893.465597880308 A28.62 28.62 0 0 1 1375.89810587652 880.661934373991 L1375.89648354984 880.663114669933 A21.11 21.11 0 0 1 1383.81699482795 860.038553813761 L1383.82164840322 860.043900025897 A38.38 38.38 0 0 0 1396.78106573162 842.05931335434 L1396.78181172764 842.057159319272 A27.71 27.71 0 0 0 1391.98179197084 815.438653448193 L1391.97146034409 815.446084572802 A29.9 29.9 0 0 1 1373.97398772081 841.581181016971 L1373.98 841.58 L1374.46593143359 821.20097014346 A31.41 31.41 0 0 1 1382.86419983625 802.595923553649 L1382.8653564761 802.59075511735 A14.3 14.3 0 0 1 1405.65702455663 805.227649608915 L1405.64910673788 805.225199863815 A21.59 21.59 0 0 0 1371.09646915461 790.12069338654 L1371.1 790.12 L1357.89978282261 777.179525363573 A3.88 3.88 0 0 1 1356.21947156192 773.581773031865 L1356.2260588972 773.579814032331 A3.2 3.2 0 0 1 1359.58309888003 770.704685183314 L1359.5784975469 770.694787093182 A17.22 17.22 0 0 0 1374.69536240461 763.26237130261 L1374.7 763.27 L1374.22031640525 754.161727174022 A13.05 13.05 0 0 1 1363.65938234169 738.333194503481 L1363.66373076396 738.331033514153 A13.7 13.7 0 0 0 1352.14553256746 739.529873252093 L1352.14136943175 739.525711016862 A24.21 24.21 0 0 0 1343.50215356885 748.397698587063 L1343.50334556359 748.396518553296 A1.71 1.71 0 0 1 1340.15141887258 748.157286982786 L1340.14497495141 748.163668308123 A15.72 15.72 0 0 1 1343.98416856502 735.936153735769 L1343.9833026703 735.928708343802 A12.98 12.98 0 0 0 1347.1021588732 729.216625420017 Z" style="fill:rgb(0,0,0);" />
<path d=" M1413.89471653383 666.32695016661 A2.26 2.26 0 0 1 1414.12082882596 670.619539431959 L1414.11470612808 670.623274209903 A21.28 21.28 0 0 1 1402.14441781348 671.593653714698 L1402.15259297661 671.587352682908 A15.13 15.13 0 0 0 1386.11525970092 678.583888192749 L1386.11596956795 678.576911703251 A26.55 26.55 0 0 1 1389.27785933059 698.435531141305 L1389.27614839999 698.437089342144 A16.51 16.51 0 0 0 1417.05345898611 696.857548356277 L1417.04501937119 696.852857826374 A17.57 17.57 0 0 1 1442.34270697789 696.175791732128 L1442.34 696.18 L1461.31477942496 718.060490874579 A36.27 36.27 0 0 1 1462.89561508252 749.290519146763 L1462.89205514583 749.289590905045 A556.41 556.41 0 0 1 1437.37518579139 819.618347061556 L1437.37594695304 819.62487151309 A58.55 58.55 0 0 0 1444.14997352535 880.767220600703 L1444.14997752198 880.76684658872 A1262.06 1262.06 0 0 0 1481.63482255689 923.072276682996 L1481.63990084803 923.072192348658 A38.16 38.16 0 0 1 1460.412192309 969.396782782908 L1460.40629513701 969.395655398162 A98.87 98.87 0 0 0 1424.50072545989 996.020926761177 L1424.51099763047 996.025116352543 A5198.99 5198.99 0 0 0 1406.44597903762 1022.04018650705 L1406.43403117969 1022.03414720039 A64.02 64.02 0 0 1 1440.0814559249 1053.39788031204 L1440.0831695304 1053.39200909574 A1.83 1.83 0 1 1 1436.91990628595 1055.19812230705 L1436.91739543941 1055.20807867004 A51.3 51.3 0 0 0 1401.24242943468 1026.10469404693 L1401.24602369687 1026.08865545495 A14.29 14.29 0 0 1 1389.50693275051 1020.22387668913 L1389.49460755601 1020.22809629585 A9.7 9.7 0 0 1 1391.30184330141 1006.91057062555 L1391.30774377675 1006.92153617121 A18.95 18.95 0 0 1 1401.24268854202 1005.11664969517 L1401.24107859357 1005.11239567358 A1.88 1.88 0 0 0 1402.14273802066 1001.50867247666 L1402.14961730811 1001.49878217741 A36.15 36.15 0 0 0 1384.76011353809 998.790927104459 L1384.75838591022 998.798679689189 A16.45 16.45 0 0 0 1370.75824095008 1020.68435885078 L1370.75463968203 1020.67764047954 A145.22 145.22 0 0 0 1336.88294215952 1017.29322424181 L1336.88466471203 1017.29393526002 A6.1 6.1 0 0 1 1331.69281501384 1011.65519481811 L1331.69 1011.66 L1331.69263499151 1006.46605228919 A14.12 14.12 0 0 0 1332.82158657009 986.386877811787 L1332.82165445361 986.388119055583 A15.96 15.96 0 0 1 1314.52643253837 987.742219659637 L1314.53177971677 987.741158986618 A6.03 6.03 0 0 0 1308.66496928208 994.505055988025 L1308.65812717793 994.511563235941 A58.75 58.75 0 0 0 1311.81954382997 1007.59820200012 L1311.82902998618 1007.59124655513 A4.86 4.86 0 0 1 1313.18464481034 1012.55781318123 L1313.17760450688 1012.56085060922 A1.95 1.95 0 0 1 1310.01997127268 1013.46230157036 L1310.02109048335 1013.46404720038 A9.34 9.34 0 0 1 1306.86000554818 1006.47018036982 L1306.84998577401 1006.46387410125 A23.99 23.99 0 0 0 1304.36607718868 995.859442914198 L1304.36727304646 995.862217476808 A10.94 10.94 0 0 0 1294.43236684343 989.770744551052 L1294.43650730959 989.766318580682 A20.14 20.14 0 0 1 1277.72694013581 1000.59616449548 L1277.72117837732 1000.60039784075 A13.89 13.89 0 0 0 1284.94956930395 1016.17396469868 L1284.94940677851 1016.16948940748 A11.92 11.92 0 0 1 1292.85074880202 1020.31996198333 L1292.85194268367 1020.31579906581 A2.85 2.85 0 0 1 1288.10964859022 1023.24912469595 L1288.1060220662 1023.25235772833 A15.57 15.57 0 0 0 1283.36467510133 1019.86843331437 L1283.36675064101 1019.86146462406 A7.21 7.21 0 0 0 1274.55607945123 1022.11877818395 L1274.56013645531 1022.1211464416 A20.2 20.2 0 0 1 1270.94797480384 1039.71616010448 L1270.95 1039.72 L1270.95452900705 1045.35939818177 A17.25 17.25 0 0 0 1290.82579103259 1048.5181723009 L1290.81991687045 1048.51966244804 A6.65 6.65 0 0 1 1282.69222679234 1056.41516864948 L1282.69606716918 1056.41963617568 A7.78 7.78 0 0 0 1273.43931808811 1061.38263912723 L1273.43523492939 1061.38375036184 A25.18 25.18 0 0 1 1274.56448617372 1082.14511294968 L1274.55681888366 1082.14552923293 A11.17 11.17 0 0 0 1293.53041933903 1079.88860048807 L1293.5288343307 1079.88347591206 A40.36 40.36 0 0 0 1299.17397197169 1069.95610121531 L1299.17875720698 1069.95644143479 A61.01 61.01 0 0 1 1359.76854249984 1061.60753498179 L1359.75747418197 1061.6133276452 A77.76 77.76 0 0 1 1403.60943053302 1107.57572198279 L1403.60943873098 1107.5765887563 A115.55 115.55 0 0 0 1401.80381010708 1068.06823908175 L1401.80685045951 1068.05526910563 A40.79 40.79 0 0 1 1434.77788228151 1088.58902525258 L1434.77146657085 1088.59102809869 A37.84 37.84 0 0 1 1477.00211134505 1054.29238673064 L1477.00986697989 1054.30750586058 A25.38 25.38 0 0 0 1470.91390629483 1084.31137707483 L1470.91096603247 1084.30758431135 A45.39 45.39 0 0 1 1505.45973369721 1055.87875382017 L1505.45353737271 1055.87885245842 A153.48 153.48 0 0 1 1532.77659821404 986.069814816864 L1532.77225568045 986.064094002929 A44.18 44.18 0 0 0 1543.15847545106 949.290620071285 L1543.16000483309 949.291774579689 A36.05 36.05 0 0 1 1541.12741906632 938.685760604237 L1541.13399311079 938.684723516814 A5.25 5.25 0 0 1 1549.94167973501 934.622936678609 L1549.93501403675 934.627940514516 A36.74 36.74 0 0 1 1561.67579599602 959.28611825953 L1561.68792332464 959.285978784264 A590.24 590.24 0 0 1 1558.30070403093 1070.16117847242 L1558.29980125899 1070.16228648912 A81.67 81.67 0 0 1 1545.65448947665 1108.67660397323 L1545.65328798325 1108.67736361328 A97.76 97.76 0 0 0 1531.42695354164 1196.10957700549 L1531.42077249401 1196.10697830009 A716.07 716.07 0 0 0 1550.84063523725 1242.81220926291 L1550.84834062541 1242.81201456222 A13.29 13.29 0 0 1 1554.00998391766 1252.96616788013 L1554.00246131249 1252.96944990712 A22 22 0 0 0 1557.16411946316 1266.95972509783 L1557.1653852208 1266.95185371694 A47.18 47.18 0 0 0 1557.39119895247 1215.01062633866 L1557.39215025797 1215.01520508993 A47.59 47.59 0 0 1 1548.81083748071 1193.35368726725 L1548.80811296767 1193.35856378604 A61.26 61.26 0 0 1 1571.61448381991 1232.16562160871 L1571.62089366786 1232.16438130291 A25.18 25.18 0 0 0 1579.29907574011 1204.86129540929 L1579.29864058783 1204.86037998347 A88.3 88.3 0 0 0 1564.84677770785 1181.53055186337 L1564.84129712702 1181.53663448931 A32.77 32.77 0 0 1 1552.42104649308 1155.58811059282 L1552.43182911178 1155.58172015258 A35.98 35.98 0 0 0 1565.52821903851 1169.34431918871 L1565.52257217573 1169.34842008378 A16.74 16.74 0 0 1 1580.42282137779 1186.94352063116 L1580.42217295194 1186.94810708911 A30 30 0 0 0 1572.0669331718 1149.2672002943 L1572.07139834832 1149.26166452272 A28.26 28.26 0 0 1 1561.00845913643 1126.13859647522 L1561.00683667579 1126.1372322328 A10.28 10.28 0 0 0 1574.77985991125 1132.45414470486 L1574.78557010356 1132.45840568787 A13.67 13.67 0 0 0 1581.33461308257 1113.05286780923 L1581.3213322444 1113.05465881412 A7.29 7.29 0 0 1 1577.48432121158 1120.72245156101 L1577.49045215522 1120.72468611684 A5.13 5.13 0 0 1 1570.26278185799 1117.79082928099 L1570.2677439162 1117.78946522727 A25.92 25.92 0 0 1 1569.36447690385 1104.92830843768 L1569.3649940033 1104.93455975566 A728.19 728.19 0 0 0 1577.72010878363 1045.70648454623 L1577.72180935616 1045.70575102415 A460.64 460.64 0 0 0 1575.68948436568 937.425541300259 L1575.68867551425 937.426250143687 A41.68 41.68 0 0 0 1541.59007784162 904.483506762449 L1541.58996457944 904.483218673967 A30.58 30.58 0 0 0 1537.75125309596 890.720197278314 L1537.74397267634 890.719361353367 A34.98 34.98 0 0 1 1534.58255186843 864.433166352012 L1534.58589505723 864.428480160385 A17.2 17.2 0 0 1 1566.42461100573 861.044130440047 L1566.42349131532 861.04892916028 A25.03 25.03 0 0 0 1516.52611838014 857.439382380156 L1516.52366260174 857.43609007619 A46.93 46.93 0 0 1 1524.6530049365 818.176153271129 L1524.65135334766 818.177340526062 A65.31 65.31 0 0 0 1536.39322499015 803.511918073659 L1536.39622186189 803.513892106232 A33.53 33.53 0 0 0 1539.10587101687 775.401544881626 L1539.10161698464 775.403136353529 A8.6 8.6 0 0 0 1532.33049417614 769.765114752762 L1532.32430364619 769.757667906046 A23.88 23.88 0 0 1 1520.80869943972 793.898245963832 L1520.81397627231 793.905939954842 A80.64 80.64 0 0 0 1503.20069475217 807.894876484916 L1503.19542715239 807.888775876638 A43.71 43.71 0 0 1 1517.6472564133 774.721682730614 L1517.65157148107 774.71518490276 A70.38 70.38 0 0 0 1526.2319431178 765.464925492167 L1526.22747827051 765.472112163935 A44.64 44.64 0 0 0 1534.58182600248 728.923313371294 L1534.58753432599 728.917205759487 A15.69 15.69 0 0 0 1524.42552750859 718.989090828676 L1524.42863172419 718.991711097039 A30.68 30.68 0 0 1 1504.78000225738 754.646469061239 L1504.78 754.64 L1507.04088158306 722.285295759609 A23.1 23.1 0 0 1 1528.26353931109 704.238115817636 L1528.26297513584 704.24290249129 A13.88 13.88 0 0 1 1542.93552463159 718.452443184148 L1542.93897712662 718.450427385612 A23.15 23.15 0 0 0 1537.51947488016 696.113153525744 L1537.5203668079 696.119092383001 A32.26 32.26 0 0 0 1499.81407518811 693.637461134369 L1499.80925233167 693.630852051634 A137.33 137.33 0 0 1 1485.47105075426 680.770440039259 L1485.46820602753 680.773174546733 A4.31 4.31 0 0 1 1486.59838613947 673.320042597517 L1486.59884301233 673.320437564527 A21.38 21.38 0 0 0 1494.95302452027 667.680306108264 L1494.95634366159 667.682764094859 A13.01 13.01 0 0 0 1497.44083905819 654.141946621501 L1497.44087138972 654.146629006737 A18.06 18.06 0 0 1 1480.27588299214 644.668412022151 L1480.27681317486 644.669691328623 A11.03 11.03 0 0 0 1468.08100726515 651.213982470563 L1468.08066087774 651.209653350586 A34.2 34.2 0 0 0 1465.59669649968 660.686162958044 L1465.5995344349 660.693027149387 A3.23 3.23 0 1 1 1459.95271109915 658.21044277884 L1459.96284689693 658.209392293529 A23.01 23.01 0 0 0 1465.60908294375 643.315431466674 L1465.60490821631 643.314078828638 A4.66 4.66 0 0 0 1461.08608948385 637.67013975004 L1461.08061406145 637.670184781037 A23.85 23.85 0 0 1 1441.21184167105 631.127837412059 L1441.21351438727 631.135238588116 A16.23 16.23 0 0 0 1436.92320301125 649.861920480417 L1436.92250322352 649.857188085121 A2.65 2.65 0 0 1 1433.08829741435 651.20934203663 L1433.08382749948 651.210407403604 A14.01 14.01 0 0 1 1428.56794769947 646.923802943132 L1428.56569712915 646.920494622073 A56.95 56.95 0 0 0 1421.56515187288 638.346146433094 L1421.57024604528 638.357648797275 A12.15 12.15 0 0 0 1410.73344809016 634.973896131752 L1410.72153511323 634.969244040139 A20.07 20.07 0 0 1 1394.69266028471 644.443415695345 L1394.69359448466 644.44006300856 A14.17 14.17 0 0 0 1403.95509851841 663.625160957479 L1403.95009469917 663.62326946348 A1185.33 1185.33 0 0 0 1413.88588749812 666.330828283927 Z" style="fill:rgb(0,0,0);" />
<path d=" M1409.04010344299 1104.95522703959 A88.8 88.8 0 0 0 1405.83714101835 1072.21305510931 L1405.83155374108 1072.21426184345 A48.71 48.71 0 0 1 1432.19400089137 1089.93908596486 L1432.19909942107 1089.94516616154 A271.89 271.89 0 0 0 1446.2438006632 1121.95093117226 L1446.24951962605 1121.94888690344 A9.37 9.37 0 0 0 1451.91635246722 1126.62638162843 L1451.91578701944 1126.62100987254 A10.38 10.38 0 0 0 1450.43673367166 1119.47803770702 L1450.43034730668 1119.486771577 A100.03 100.03 0 0 1 1441.5599726062 1101.76043273417 L1441.56564251193 1101.75240236678 A28.21 28.21 0 0 1 1442.55106964264 1079.35219336658 L1442.54615546494 1079.34855337771 A32.24 32.24 0 0 1 1471.37730615961 1057.92741094511 L1471.37594928704 1057.93702442366 A25.25 25.25 0 0 0 1469.40469079098 1088.95905554697 L1469.40869180729 1088.9571475257 A78.68 78.68 0 0 0 1468.42313098202 1145.33505156691 L1468.42619526682 1145.33257731035 A605.15 605.15 0 0 0 1467.44061617844 1118.49742242863 L1467.43786530633 1118.50153098901 A62.2 62.2 0 0 1 1472.85854806632 1089.20435029634 L1472.8509810922 1089.20661870883 A66.92 66.92 0 0 1 1488.86672979844 1067.54136514636 L1488.87384259207 1067.53838111131 A34.35 34.35 0 0 1 1515.24060668604 1058.92073801412 L1515.2349238514 1058.91439387059 A27.89 27.89 0 0 0 1503.89916329968 1088.21569646829 L1503.8989313711 1088.21955643432 A30.64 30.64 0 0 1 1500.94263336706 1109.88148370921 L1500.94402417238 1109.88311388515 A208.4 208.4 0 0 1 1497.00178421337 1116.77644257002 L1496.99825680805 1116.77785449965 A1.33 1.33 0 1 0 1499.46871760928 1117.51839105055 L1499.46298602078 1117.51518984473 A25.16 25.16 0 0 0 1507.59371893127 1097.82031626789 L1507.60164624969 1097.81891430156 A164.33 164.33 0 0 1 1507.60164624969 1082.80108569844 L1507.6021976619 1082.79896328887 A155.53 155.53 0 0 1 1522.38579421472 1070.93245163191 L1522.37654761217 1070.93064697042 A14.06 14.06 0 0 0 1526.31878257924 1052.22024463024 L1526.31821349018 1052.22546419085 A25.88 25.88 0 0 1 1536.91243740454 1070.93493396954 L1536.92162107887 1070.93469476127 A60.58 60.58 0 0 1 1529.77603008566 1105.15644200663 L1529.77156944484 1105.15377670644 A94.57 94.57 0 0 0 1515.97349038208 1195.13775753741 L1515.96903548345 1195.14331926573 A135.6 135.6 0 0 1 1522.62150903449 1262.20488720943 L1522.63093163107 1262.20172252308 A37.99 37.99 0 0 1 1543.32732425411 1299.62192821314 L1543.32888730797 1299.62662768896 A43.53 43.53 0 0 1 1508.83083652607 1298.00161128122 L1508.82744585025 1297.99508029157 A6.53 6.53 0 0 0 1514.49742267433 1303.41413635543 L1514.5 1303.42 L1514.24651575 1311.7796399995 A29.81 29.81 0 0 1 1495.52184130375 1302.17872486972 L1495.52 1302.18 L1480.74 1302.43 L1465.21330358265 1310.55127432219 A26.57 26.57 0 0 1 1445.25900200452 1313.25891688513 L1445.26622809435 1313.25844484543 A13.75 13.75 0 0 1 1443.04894318098 1299.96557281122 L1443.04528088697 1299.97249598259 A75.79 75.79 0 0 0 1417.17351628658 1300.21869161269 L1417.16799615691 1300.21669906315 A42.42 42.42 0 0 1 1401.89200384309 1300.21669906315 L1401.89792199137 1300.21811883647 A5.01 5.01 0 0 1 1398.9414515437 1292.09442433818 L1398.93990999616 1292.09303112359 A11.25 11.25 0 0 1 1397.4612178916 1270.66933394912 L1397.46 1270.67 L1398.45 1255.41 L1408.79557458065 1266.98450610728 A53.89 53.89 0 0 0 1426.5368179444 1263.29141408359 L1426.53033187677 1263.28606000288 A22.84 22.84 0 0 0 1434.41342640016 1238.17910638977 L1434.42284386317 1238.1763484209 A49.2 49.2 0 0 1 1410.27569501061 1251.47112133572 L1410.26919770709 1251.46644353771 A102.29 102.29 0 0 0 1374.78934352212 1260.32920725183 L1374.78905990898 1260.3262008142 A19.11 19.11 0 0 0 1365.33966722274 1269.66546146924 L1365.34363735475 1269.66660450595 A13.75 13.75 0 0 1 1380.33706374923 1283.64414481272 L1380.33479001756 1283.64420233968 A24.4 24.4 0 0 1 1372.69769531047 1300.87526565579 L1372.6995122172 1300.87762656529 A25.6 25.6 0 0 1 1348.79768400842 1297.92309938486 L1348.79268254062 1297.92456432874 A28 28 0 0 1 1354.45981370761 1259.02549097331 L1354.46769430318 1259.02830205388 A64.4 64.4 0 0 1 1394.63146493324 1245.24090527267 L1394.62427430235 1245.23913671297 A61.45 61.45 0 0 0 1430.84150289996 1233.66887849163 L1430.84884483037 1233.67024768634 A35.14 35.14 0 0 0 1407.43968581776 1228.49978872062 L1407.44 1228.5 L1397.09 1242.53 L1396.11109334467 1225.78677781817 A9.76 9.76 0 0 1 1393.15552004132 1210.77480486937 L1393.15142347113 1210.77950718649 A24 24 0 0 1 1420.00514375533 1209.30252253103 L1420.00442024727 1209.29577111871 A47.33 47.33 0 0 0 1449.57180620606 1213.23488602944 L1449.5731106049 1213.23312190446 A22.28 22.28 0 0 1 1475.9347598944 1233.17294241738 L1475.94517359931 1233.17966451179 A51.53 51.53 0 0 1 1465.84226805605 1256.0774242678 L1465.83539775922 1256.06760603676 A9.62 9.62 0 0 0 1474.7034524552 1250.65263733929 L1474.69671370572 1250.64883887099 A27.56 27.56 0 0 0 1454.49578586623 1207.81825923437 L1454.50206622144 1207.81939873708 A100.67 100.67 0 0 1 1385.49880671364 1180.12164442273 L1385.50209009035 1180.12060551223 A1258.8 1258.8 0 0 1 1363.51497409769 1156.00159043123 L1363.51437277853 1155.99900188476 A68.8 68.8 0 0 0 1314.55082856916 1134.79377622155 L1314.54346363553 1134.79540794612 A34.41 34.41 0 0 1 1361.11402512893 1112.39074702845 L1361.11459695272 1112.39116091047 A285.44 285.44 0 0 0 1380.33349850594 1137.99555890933 L1380.33729226889 1137.99563318192 A24.1 24.1 0 0 0 1394.1356736441 1146.12022239276 L1394.13 1146.12 L1393.64315552383 1143.16744154956 A78.82 78.82 0 0 1 1371.9600628659 1122.48674077575 L1371.95700894354 1122.48603139797 A478.8 478.8 0 0 1 1364.81153969844 1112.14582441799 L1364.81360125459 1112.15010078629 A29.05 29.05 0 0 0 1342.39425777222 1099.34944844315 L1342.38376713174 1099.34116552701 A28.52 28.52 0 0 1 1365.7938871583 1087.03005520081 L1365.7971077343 1087.04241258003 A53.46 53.46 0 0 1 1392.65180057991 1090.73501259475 L1392.6578333398 1090.73057047176 A47.99 47.99 0 0 0 1404.85275939597 1113.82139101907 L1404.8501764254 1113.81952566618 A49.42 49.42 0 0 0 1436.63626021625 1152.96591943885 L1436.63758059899 1152.96792483622 A78.23 78.23 0 0 1 1414.21642327402 1128.34929079338 L1414.2204295759 1128.3474613444 A39.69 39.69 0 0 1 1409.04639055893 1104.9600817394 Z" style="fill:rgb(0,0,0);" />
<path d=" M1271.18688573557 1253.99724157074 A10.73 10.73 0 0 0 1283.60553746146 1256.62936239877 L1283.60965430264 1256.61847566505 A10.74 10.74 0 0 0 1289.43799624121 1250.04343632893 L1289.43383257444 1250.04246066635 A1.83 1.83 0 0 1 1293.00992426355 1250.60664901443 L1293.01952247106 1250.60498161648 A11.54 11.54 0 0 1 1285.49471304995 1261.31913486035 L1285.48280866494 1261.31489590871 A22.01 22.01 0 0 0 1280.21534816868 1264.13445973204 L1280.22374777735 1264.14386376239 A10.62 10.62 0 0 0 1278.15569827093 1279.35989220399 L1278.14908664662 1279.36022207307 A15.97 15.97 0 0 1 1295.26323578228 1288.64321578878 L1295.26815824243 1288.64310547321 A10.93 10.93 0 0 0 1304.67025829365 1272.86039687387 L1304.67559075014 1272.85994231993 A13 13 0 0 1 1305.61617655612 1259.70245544357 L1305.60795972616 1259.70201728545 A1.97 1.97 0 0 1 1309.18976424133 1261.02055951333 L1309.18305453021 1261.0185823722 A14.06 14.06 0 0 0 1313.32173967898 1272.48470819952 L1313.32622649115 1272.48740840859 A25.9 25.9 0 0 1 1334.01657020988 1267.60093518489 L1334.01634221889 1267.59648518311 A10.58 10.58 0 0 0 1336.0847697888 1251.06246485646 L1336.08268205494 1251.05205418231 A28.27 28.27 0 0 1 1328.37229329839 1243.1600178619 L1328.37771498122 1243.16327499626 A9.24 9.24 0 0 1 1329.12992930817 1232.07711064778 L1329.12350949972 1232.07714760672 A146.51 146.51 0 0 1 1376.79239173024 1178.28386593179 L1376.79159071381 1178.29158717886 A91.13 91.13 0 0 0 1334.01465579678 1141.91580139744 L1334.01619445535 1141.91312385597 A17.47 17.47 0 0 1 1302.03818317019 1134.58294901399 L1302.04396283432 1134.5806064856 A21.54 21.54 0 0 0 1323.86020884856 1166.90257064365 L1323.86 1166.9 L1301.66 1203.93 L1296.58817293488 1199.97864781587 A14.23 14.23 0 0 0 1278.52747022428 1184.00037897217 L1278.5315973719 1184.00843059026 A19.85 19.85 0 0 1 1267.05876767412 1203.55278015135 L1267.05659369269 1203.54811302374 A9.84 9.84 0 0 0 1274.205775284 1217.83487524561 L1274.20605878552 1217.83451831935 A24.81 24.81 0 0 0 1286.99751964008 1216.51881567765 L1286.99869136608 1216.5219830776 A2.92 2.92 0 0 1 1290.00761475046 1221.40751991735 L1290.00043431965 1221.40995509141 A12.14 12.14 0 0 1 1279.84122412227 1224.41764776681 L1279.84475916995 1224.41766864966 A5.06 5.06 0 0 0 1276.65024526235 1233.88077873344 L1276.64217199145 1233.87854378798 A21.06 21.06 0 0 1 1271.18838631842 1253.98480428303 Z" style="fill:rgb(0,0,0);" />
<path d=" M1406.38965425648 633.867602024508 A12.75 12.75 0 0 1 1393.10726017506 641.451380740716 L1393.10581623665 641.443517110994 A24.73 24.73 0 0 1 1393.7380451586 619.649181510143 L1393.73422243438 619.647694018081 A28.5 28.5 0 0 0 1406.38188123855 633.864759772952 L1406.39 633.86 Z" style="fill:rgb(0,0,0);" />
<path d=" M1287.34626814805 717.420462677544 A14.03 14.03 0 0 1 1274.15034716726 726.7699671792 L1274.15341351254 726.774334749127 A21.94 21.94 0 0 1 1271.27438541745 705.438876890851 L1271.27025725846 705.433274845055 A32.98 32.98 0 0 0 1287.34728673678 717.421316709596 L1287.35 717.42 Z" style="fill:rgb(0,0,0);" />
<path d=" M1256.34204256264 761.857203568066 A22.77 22.77 0 0 0 1272.65942819638 765.453705581134 L1272.66792298238 765.452268014009 A14.92 14.92 0 0 1 1266.66663871114 780.563229010722 L1266.66185925492 780.560594019764 A23.55 23.55 0 0 1 1256.34319392805 761.858200438725 L1256.35 761.85 Z" style="fill:rgb(0,0,0);" />
<path d=" M1279.44296028642 997.216622070945 A23.07 23.07 0 0 0 1292.99226640892 988.642360879577 L1292.98928631474 988.641498221454 A19.97 19.97 0 0 0 1270.63548548639 980.293824991996 L1270.63663044852 980.291818156829 A48 48 0 0 1 1279.44321320742 997.213807516527 L1279.44 997.22 Z" style="fill:rgb(0,0,0);" />
<path d=" M1271.53926814367 1080.24745485942 A25.16 25.16 0 0 0 1271.76508931711 1063.32485895737 L1271.76283871008 1063.32301185754 A21.75 21.75 0 0 1 1255.05460306441 1069.41431354924 L1255.05952453685 1069.41365257305 A15.93 15.93 0 0 0 1271.53952787027 1080.24102055359 L1271.54 1080.25 Z" style="fill:rgb(0,0,0);" />
<path d=" M1268.60472772211 1037.60743563529 A20.55 20.55 0 0 0 1271.99222599608 1023.16581347225 L1271.99344414736 1023.1635570695 A25.3 25.3 0 0 1 1256.18644837686 1021.80976805743 L1256.18757082835 1021.8118682607 A18.78 18.78 0 0 0 1268.60625338157 1037.60462872528 L1268.6 1037.6 Z" style="fill:rgb(0,0,0);" />
<path d=" M1255.90182732458 1188.36740928052 A33.44 33.44 0 0 1 1275.86159237061 1184.42793860098 L1275.86366427191 1184.42983795799 A24.45 24.45 0 0 1 1269.45739729157 1199.2015324162 L1269.45628614383 1199.19748656003 A54.16 54.16 0 0 0 1255.90394312584 1188.3644151053 L1255.91 1188.37 Z" style="fill:rgb(0,0,0);" />
<path d=" M1274.38838648253 1236.86781050617 A17.54 17.54 0 0 1 1258.61914873505 1232.43631364485 L1258.62029965559 1232.43607055436 A18.2 18.2 0 0 0 1269.46243579388 1251.64061364852 L1269.45838166442 1251.63796808525 A22.24 22.24 0 0 0 1274.38587460078 1236.86747351424 L1274.39 1236.87 Z" style="fill:rgb(0,0,0);" />
<path d=" M1282.01777439262 1281.9171330119 A60.96 60.96 0 0 1 1267.72807714119 1294.47200798549 L1267.73664318662 1294.48095799137 A21.3 21.3 0 0 0 1292.62430032823 1291.52640809681 L1292.62070126332 1291.52293835494 A13.24 13.24 0 0 0 1282.02616542077 1281.92173515535 L1282.02 1281.92 Z" style="fill:rgb(0,0,0);" />
<path d=" M1481.94249707197 642.708782901476 A16.05 16.05 0 0 0 1496.16737321862 650.605080072256 L1496.16556062389 650.601940344082 A22.58 22.58 0 0 0 1494.90113239472 628.808274989049 L1494.9134154556 628.81256376511 A28 28 0 0 1 1481.94990792256 642.71332883199 L1481.94 642.71 Z" style="fill:rgb(0,0,0);" />
<path d=" M1459.81168651899 634.812825399466 A18.8 18.8 0 0 1 1444.005531235 627.863759492283 L1444.00296755081 627.858169089079 A26.21 26.21 0 0 0 1454.43581030108 612.379546913257 L1454.44215453518 612.38280670199 A21.92 21.92 0 0 1 1459.81607193833 634.808591490122 L1459.81 634.81 Z" style="fill:rgb(0,0,0);" />
<path d=" M1403.38809463565 634.681594146936 A10.5 10.5 0 0 1 1394.63713240265 639.299866904735 L1394.63351670444 639.300933888965 A22.49 22.49 0 0 1 1393.97427839633 625.050321613602 L1393.97384068059 625.049394095683 A30.74 30.74 0 0 0 1403.38824647483 634.681025753497 Z" style="fill:rgb(255,0,0);" />
<path d=" M1259.13228538251 765.925186395969 A25.01 25.01 0 0 0 1270.70116598707 767.926094930956 L1270.7015563146 767.927515738307 A12.67 12.67 0 0 1 1266.60048259855 777.730612275428 L1266.5997004552 777.735825632123 A21.31 21.31 0 0 1 1259.1311754574 765.928228082389 Z" style="fill:rgb(255,0,0);" />
<path d=" M1324.30717660864 712.384018236553 A12.95 12.95 0 0 0 1338.94660617103 716.46055191576 L1338.94 716.46 L1339.18794725628 709.989954685934 A13.04 13.04 0 0 0 1329.58594877575 695.598652581242 L1329.58605477395 695.603479535404 A15.52 15.52 0 0 1 1324.30634270434 712.388929393742 L1324.31 712.39 Z" style="fill:rgb(0,0,0);" />
<path d=" M1382.67840318496 682.186282116126 A14.08 14.08 0 0 1 1384.89155434908 699.245279826354 L1384.89369627828 699.251669018242 A21.65 21.65 0 0 1 1364.97698278197 689.775218757843 L1364.97577211847 689.779511373507 A24.83 24.83 0 0 0 1382.68243333646 682.197097590626 L1382.68 682.19 Z" style="fill:rgb(0,0,0);" />
<path d=" M1316.24981427475 984.126725838898 A11.2 11.2 0 0 0 1331.6076811755 983.449723156693 L1331.59824392337 983.454015231862 A16.69 16.69 0 0 0 1313.98795796163 968.339509233096 L1313.99482394058 968.338190752853 A72.61 72.61 0 0 1 1316.25301207687 984.132670051571 L1316.25 984.13 Z" style="fill:rgb(0,0,0);" />
<path d=" M1267.69880887463 1034.80606488881 A18.31 18.31 0 0 0 1269.94911149367 1025.82962175199 L1269.94829096002 1025.8254197028 A27.54 27.54 0 0 1 1259.20549336246 1025.20265873593 L1259.2044015488 1025.2066585688 A16.54 16.54 0 0 0 1267.69810385453 1034.8042110049 Z" style="fill:rgb(255,0,0);" />
<path d=" M1269.91136184959 1078.06273182743 A22.92 22.92 0 0 0 1270.49554391828 1067.28961002927 L1270.49084340996 1067.28635597724 A23.99 23.99 0 0 1 1258.56108488827 1071.63052838728 L1258.56461538619 1071.63162157961 A13.69 13.69 0 0 0 1269.91036833928 1078.05753781367 Z" style="fill:rgb(255,0,0);" />
<path d=" M1260.60370619927 1188.62548694246 A31.2 31.2 0 0 1 1273.34963195666 1186.47707975218 L1273.35357676611 1186.48106991073 A22.21 22.21 0 0 1 1269.34568053289 1195.82475498434 L1269.34183556737 1195.82084335744 A56.4 56.4 0 0 0 1260.60528940219 1188.62583523663 Z" style="fill:rgb(255,0,0);" />
<path d=" M1272.08008576506 1239.45179574395 A19.78 19.78 0 0 1 1260.80872131321 1236.84924417306 L1260.80725142799 1236.85104057025 A15.96 15.96 0 0 0 1268.77336719352 1248.80093136759 L1268.77162698201 1248.79794635516 A20 20 0 0 0 1272.07945709499 1239.45310597594 Z" style="fill:rgb(255,0,0);" />
<path d=" M1282.85661512543 1284.40483452336 A63.21 63.21 0 0 1 1272.346619707 1294.05234108538 L1272.35038524817 1294.05621295123 A19.06 19.06 0 0 0 1290.0205440917 1290.81220248545 L1290.01758626055 1290.80666345605 A11 11 0 0 0 1282.85913028568 1284.40243637135 Z" style="fill:rgb(255,0,0);" />
<path d=" M1371.47855928774 1298.93932831678 A22.16 22.16 0 0 0 1378.0952681352 1283.59792341879 L1378.09754207872 1283.59785564213 A11.51 11.51 0 0 0 1361.87646576449 1272.85939549308 L1361.87503437464 1272.86068611866 A21.35 21.35 0 0 1 1373.86647041748 1258.28501766947 L1373.86659931818 1258.29547946256 A182.87 182.87 0 0 1 1409.85499635416 1247.81110808276 L1409.86 1247.8 L1394.61951086551 1247.48087337655 A62.16 62.16 0 0 0 1355.83623511111 1260.80176123292 L1355.82830186129 1260.79899143769 A25.76 25.76 0 0 0 1350.38215821005 1296.30017571254 L1350.38764741201 1296.29918516669 A23.36 23.36 0 0 0 1371.47975107492 1298.942057345 Z" style="fill:rgb(255,0,0);" />
<path d=" M1317.49940628738 1273.79559720669 A17.83 17.83 0 0 1 1333.02385012371 1270.8409646663 L1333.02335785191 1270.84030040321 A31.91 31.91 0 0 1 1323.16904137874 1291.76373813441 L1323.17008146846 1291.7706488824 A20.68 20.68 0 0 0 1317.50267788339 1273.79742598773 L1317.51 1273.8 Z" style="fill:rgb(0,0,0);" />
<path d=" M1458.11517469791 632.601995496264 A16.56 16.56 0 0 1 1447.3112356828 628.137976436595 L1447.30890904542 628.129830550916 A28.45 28.45 0 0 0 1455.33402748349 616.973873650221 L1455.34325548997 616.976405699332 A19.68 19.68 0 0 1 1458.12115811635 632.596577314892 Z" style="fill:rgb(255,0,0);" />
<path d=" M1445.88 1296.94 L1450.07048147176 1296.93920108351 A8.29 8.29 0 0 1 1465.34237546703 1290.54005503111 L1465.33968601224 1290.54521925225 A21.09 21.09 0 0 0 1473.47189122381 1278.23369487024 L1473.47632062998 1278.22627560966 A1.32 1.32 0 0 0 1471.25823583518 1276.99500505822 L1471.24983665887 1276.99569542799 A9.27 9.27 0 0 1 1460.65887149492 1281.6716209255 L1460.66546745343 1281.67518524364 A12.18 12.18 0 0 0 1445.88079598224 1296.94028331113 Z" style="fill:rgb(255,255,0);" />
<path d=" M1284.3177966031 718.656844128568 A11.79 11.79 0 0 1 1275.26695574364 724.474078256179 L1275.26882137845 724.477912124304 A19.7 19.7 0 0 1 1272.25089876726 710.177050350622 L1272.24932058985 710.171311865872 A35.22 35.22 0 0 0 1284.31793030245 718.655713724145 Z" style="fill:rgb(255,0,0);" />
<path d=" M1365.57890181024 739.72091928294 A26.48 26.48 0 0 0 1378.53751826693 727.971716406336 L1378.5381708445 727.969786135778 A19.09 19.09 0 0 1 1373.9780401258 752.670447332046 L1373.97425721268 752.675282552417 A17.95 17.95 0 0 1 1366.7731619157 745.240197516626 L1366.77305438724 745.240020183552 A10.87 10.87 0 0 1 1365.57277367514 739.723182639993 Z" style="fill:rgb(0,0,0);" />
<path d=" M1327.52398570175 712.497581930277 A10.71 10.71 0 0 0 1336.76613362262 714.774338925523 L1336.76 714.78 L1336.94391634931 709.788483375854 A10.79 10.79 0 0 0 1332.49160934185 699.394350438146 L1332.49339183949 699.392115874521 A17.76 17.76 0 0 1 1327.52298739168 712.499707982446 Z" style="fill:rgb(255,0,0);" />
<path d=" M1382.48949729831 685.446432853743 A11.84 11.84 0 0 1 1383.49268396452 697.08459561462 L1383.4932107851 697.09211477719 A19.41 19.41 0 0 1 1369.42710502699 691.623763649793 L1369.42746406211 691.625010307709 A27.07 27.07 0 0 0 1382.49054079375 685.456996075885 Z" style="fill:rgb(255,0,0);" />
<path d=" M1280.94674267554 994.505476113104 A20.83 20.83 0 0 0 1290.17163053865 988.541288112395 L1290.16884457451 988.538231700924 A17.73 17.73 0 0 0 1274.57735729431 981.815329858772 L1274.57749824498 981.816009202898 A50.24 50.24 0 0 1 1280.9447188822 994.501557464357 Z" style="fill:rgb(255,0,0);" />
<path d=" M1318.44844695293 983.001958540825 A8.96 8.96 0 0 0 1329.23677267884 982.590409743407 L1329.22814238545 982.593147581595 A14.45 14.45 0 0 0 1316.84249491833 970.670533412607 L1316.84799607373 970.67131657726 A74.85 74.85 0 0 1 1318.45074886864 983.006511416734 Z" style="fill:rgb(255,0,0);" />
<path d=" M1485.192757596 643.439078957139 A13.81 13.81 0 0 0 1494.71666539268 648.329770739014 L1494.71639728663 648.325661421859 A20.34 20.34 0 0 0 1494.85638260478 633.738749616268 L1494.86547350333 633.743658345552 A30.24 30.24 0 0 1 1485.20101089571 643.441066468884 Z" style="fill:rgb(255,0,0);" />
<path d=" M1367.85427208596 741.146167338832 A28.72 28.72 0 0 0 1378.18557334271 732.642275944393 L1378.18958515478 732.641377607956 A16.85 16.85 0 0 1 1373.75903984414 749.894221415693 L1373.75816777171 749.890910096343 A15.7 15.7 0 0 1 1368.77207686973 744.207318527167 L1368.77196714545 744.207136944643 A8.62 8.62 0 0 1 1367.85708594187 741.149746937692 Z" style="fill:rgb(255,0,0);" />
<path d=" M1320.89347278751 1274.27483330869 A15.59 15.59 0 0 1 1330.5909349744 1272.60675493461 L1330.59214054474 1272.60781741501 A29.67 29.67 0 0 1 1325.53833742456 1285.58486256683 L1325.53682736877 1285.58994357053 A22.92 22.92 0 0 0 1320.89605380832 1274.27952299905 Z" style="fill:rgb(255,0,0);" />
</g>
</svg>
