<?xml version="1.0" encoding="UTF-8"?><!DOCTYPE svg PUBLIC '-//W3C//DTD SVG 1.0//EN' 'http://www.w3.org/TR/2001/REC-SVG-20010904/DTD/svg10.dtd'><svg xmlns:xlink="http://www.w3.org/1999/xlink" xmlns="http://www.w3.org/2000/svg"><!--Gegenereerd door de SIMaD (http://www.dlw.be).-->
<g style="stroke:none;fill-rule:evenodd;" transform="matrix(1,0,0,-1,0,2250)">
<path d=" M65 0 L2435 0 A65 65 0 0 1 2500 65 L2500 2185 A65 65 0 0 1 2435 2250 L65 2250 A65 65 0 0 1 0 2185 L0 65 A65 65 0 0 1 65 0 Z" style="fill:rgb(0,0,0);" />
<path d=" M65 30 L2435 30 A35 35 0 0 1 2470 65 L2470 2185 A35 35 0 0 1 2435 2220 L65 2220 A35 35 0 0 1 30 2185 L30 65 A35 35 0 0 1 65 30 Z" style="fill:rgb(255,255,0);" />
<path d=" M462.07 1842 L533.500063825993 1842.00000000004 A57.14 57.14 0 0 1 590.639999999982 1899.13995412507 L590.639999999982 2034.86004587493 A57.14 57.14 0 0 1 533.500063825993 2091.99999999996 L462.07 2092 Z M497.78 1874.14 L529.930027925268 1874.14000000002 A25 25 0 0 1 554.929999999992 1899.13997992871 L554.929999999992 2034.86002007129 A25 25 0 0 1 529.930027925268 2059.85999999998 L497.78 2059.86 Z" style="fill:rgb(0,0,0);" />
<path d=" M718.14 1895.57 L718.14 1888.42999588574 A21.43 21.43 0 1 0 675.28 1888.43000411426 L675.28 1927.71 L750.28 1927.71 L750.279999999999 1970.57000841476 A53.57 53.57 0 0 1 643.140000000001 1970.56999158524 L643.140000000001 1892.00000841476 A53.57 53.57 0 0 1 750.279999999999 1891.99999158524 L750.28 1895.57 Z M718.14 1956.29 L718.14 1974.14000336622 A21.43 21.43 0 0 1 675.28 1974.13999663378 L675.28 1956.29 Z" style="fill:rgb(0,0,0);" />
<path d=" M880.28 1770.57 L912.42 1770.57 L912.425128730375 1850.62712540995 A44.42 44.42 0 0 1 987.419999999994 1882.84997674174 L987.419999999994 1979.72002325826 A44.42 44.42 0 0 1 912.425128730375 2011.94287459005 L912.42 2011.94 L912.42 2020.57 L880.28 2020.57 Z M912.42 1888.43 L912.42 1974.13999588574 A21.43 21.43 0 0 0 955.28 1974.14000411426 L955.28 1888.43 A21.43 21.43 0 0 0 912.42 1888.43 Z" style="fill:rgb(0,0,0);" />
<path d=" M1037.47 1842 L1069.61 1842 L1069.61000000001 1963.42997855846 A28.57 28.57 0 0 0 1098.1800209429 1991.99999999999 L1117.83 1992 L1117.83 2020.57 L1098.18004862138 2020.56999999997 A46.43 46.43 0 0 1 1069.60763510485 2010.73733411463 L1069.61 2010.74 L1069.61 2020.57 L1037.47 2020.57 Z" style="fill:rgb(0,0,0);" />
<path d=" M1145.48 1892 L1145.48 1970.56999065027 A53.57 53.57 0 0 0 1252.62 1970.57000934973 L1252.62 1892 A53.57 53.57 0 0 0 1145.48 1892 Z M1177.62 1888.43 L1177.62 1974.13999588574 A21.43 21.43 0 0 0 1220.48 1974.14000411426 L1220.48 1888.43 A21.43 21.43 0 0 0 1177.62 1888.43 Z" style="fill:rgb(0,0,0);" />
<path d=" M1328.33 1842 L1364.05 1842 L1404.76 2020.57 L1371.8 2020.57 L1346.19 1908.27 L1320.59 2020.57 L1287.62 2020.57 Z" style="fill:rgb(0,0,0);" />
<path d=" M1447.12 1842 L1447.12 2020.57 L1479.26 2020.57 L1479.26 1842 Z" style="fill:rgb(0,0,0);" />
<path d=" M1448.91 2056.29 L1448.91 2084.86 L1477.48 2084.86 L1477.48 2056.29 Z" style="fill:rgb(0,0,0);" />
<path d=" M1539.11 1842 L1571.25 1842 L1571.25 1974.13999588574 A21.43 21.43 0 0 0 1614.11 1974.14000411426 L1614.11 1842 L1646.25 1842 L1646.24999999999 1979.72002325826 A44.42 44.42 0 0 1 1571.25512873037 2011.94287459005 L1571.25 2011.94 L1571.25 2020.57 L1539.11 2020.57 Z" style="fill:rgb(0,0,0);" />
<path d=" M1766.4 1892 L1766.4 1888.42999588574 A21.43 21.43 0 1 0 1723.54 1888.43000411426 L1723.54 1974.13999588574 A21.43 21.43 0 0 0 1766.4 1974.14000411426 L1766.4 1970.57 L1798.54 1970.57000841476 A53.57 53.57 0 0 1 1691.4 1970.56999158524 L1691.4 1892.00000841476 A53.57 53.57 0 0 1 1798.54 1891.99999158524 Z" style="fill:rgb(0,0,0);" />
<path d=" M1848.6 1842 L1848.6 2020.57 L1880.74 2020.57 L1880.74 1842 Z" style="fill:rgb(0,0,0);" />
<path d=" M1850.39 2056.29 L1850.39 2084.86 L1878.96 2084.86 L1878.96 2056.29 Z" style="fill:rgb(0,0,0);" />
<path d=" M2005.79 1895.57 L2005.79 1888.42999588574 A21.43 21.43 0 1 0 1962.93 1888.43000411426 L1962.93 1927.71 L2037.93 1927.71 L2037.93 1970.57000841476 A53.57 53.57 0 0 1 1930.79 1970.56999158524 L1930.79 1892.00000841476 A53.57 53.57 0 0 1 2037.93 1891.99999158524 L2037.93 1895.57 Z M2005.79 1956.29 L2005.79 1974.14000336622 A21.43 21.43 0 0 1 1962.93 1974.13999663378 L1962.93 1956.29 Z" style="fill:rgb(0,0,0);" />
<path d=" M166.15 1524.71 L166.150000000001 1653.28998877928 A64.29 64.29 0 0 0 294.729999999999 1653.29001122072 L294.72 1653.29 L294.73 1524.71 A64.29 64.29 0 0 0 166.15 1524.71 Z M201.86 1521.14 L201.87 1656.85999501359 A28.57 28.57 0 0 0 259.01 1656.86000498641 L259.01 1521.14 A28.57 28.57 0 0 0 201.87 1521.14 Z" style="fill:rgb(0,0,0);" />
<path d=" M347.22 1514 L347.220000000001 1592.56999065027 A53.57 53.57 0 0 0 454.359999999999 1592.57000934973 L454.36 1514 A53.57 53.57 0 0 0 347.22 1514 Z M379.36 1510.43 L379.36 1596.13999588574 A21.43 21.43 0 0 0 422.22 1596.14000411426 L422.22 1510.43 A21.43 21.43 0 0 0 379.36 1510.43 Z" style="fill:rgb(0,0,0);" />
<path d=" M496.71 1514 L528.850000000003 1514.00001159475 A21.43 21.43 0 1 1 560.995006478286 1532.55892066286 L561 1532.56 L525.28 1552.83872981078 A50 50 0 1 0 600.279999999999 1596.13999040069 L568.14 1596.13999657113 A17.86 17.86 0 1 1 541.35 1580.67278628841 L541.35 1580.68 L577.065008097102 1560.39297620587 A53.57 53.57 0 1 0 496.710000000004 1514.00001963443 Z" style="fill:rgb(0,0,0);" />
<path d=" M662.28 1614 L662.280000000009 1496.1400241208 A32.14 32.14 0 0 1 694.420023559851 1464.00000000001 L723 1464 L723 1492.57 L705.14000785084 1492.58 A10.71 10.71 0 0 0 694.430000000003 1503.29000803776 L694.42 1503.29 L694.42 1614 L726.57 1614 L726.57 1642.57 L694.42 1642.57 L694.42 1714 L662.28 1695.44 L662.28 1642.57 L646.21 1642.57 L646.21 1614 Z" style="fill:rgb(0,0,0);" />
<path d=" M769.06 1535.43 L769.06 1571.14 L897.63 1571.14 L897.63 1535.43 Z" style="fill:rgb(0,0,0);" />
<path d=" M901.21 1714 L954.78 1464 L997.64 1464 L1051.21 1714 L1014.68 1714 L976.21 1539 L937.74 1714 Z" style="fill:rgb(0,0,0);" />
<path d=" M1091.11 1464 L1123.25 1464 L1123.25 1714 L1091.11 1714 Z" style="fill:rgb(0,0,0);" />
<path d=" M1251.87 1464 L1251.86868534105 1468.82465888835 A50 50 0 0 0 1230.44003141593 1464.00000000001 L1223.29999301868 1464 A50 50 0 0 0 1223.30000698132 1564 L1230.44002393754 1564.00000000001 A21.43 21.43 0 0 1 1251.86999999999 1585.42998279489 L1251.87 1596.14000336622 A21.43 21.43 0 0 1 1209.01 1596.13999663378 L1209.01 1592.57 L1176.87 1592.56999065027 A53.57 53.57 0 0 0 1284.01 1592.57000934973 L1284.01 1464 Z M1251.87 1514 L1251.86868534105 1540.25465888835 A50 50 0 0 0 1230.44003141593 1535.43000000001 L1226.86999625976 1535.43 A21.43 21.43 0 0 1 1226.87000374024 1492.57 L1230.44002393754 1492.57000000001 A21.43 21.43 0 0 1 1251.86999999999 1513.99998279489 Z" style="fill:rgb(0,0,0);" />
<path d=" M1407.73 1464 L1407.72868534105 1468.82465888835 A50 50 0 0 0 1386.30003141593 1464.00000000001 L1379.15999301868 1464 A50 50 0 0 0 1379.16000698132 1564 L1386.30002393754 1564.00000000001 A21.43 21.43 0 0 1 1407.72999999999 1585.42998279489 L1407.73 1596.14000336622 A21.43 21.43 0 0 1 1364.87 1596.13999663378 L1364.87 1592.57 L1332.73 1592.56999065027 A53.57 53.57 0 0 0 1439.87 1592.57000934973 L1439.87 1464 Z M1407.73 1514 L1407.72868534105 1540.25465888835 A50 50 0 0 0 1386.30003141593 1535.43000000001 L1382.72999625976 1535.43 A21.43 21.43 0 0 1 1382.73000374024 1492.57 L1386.30002393754 1492.57000000001 A21.43 21.43 0 0 1 1407.72999999999 1513.99998279489 Z" style="fill:rgb(0,0,0);" />
<path d=" M1494.83 1464 L1526.97 1464 L1526.97 1596.13999588574 A21.43 21.43 0 0 0 1569.83 1596.14000411426 L1569.83 1464 L1601.97 1464 L1601.96999999999 1601.72002325826 A44.42 44.42 0 0 1 1526.97512873037 1633.94287459005 L1526.97 1633.94 L1526.97 1642.57 L1494.83 1642.57 Z" style="fill:rgb(0,0,0);" />
<path d=" M1722.12 1464 L1722.11486002172 1472.62711473731 A44.42 44.42 0 0 0 1647.12 1504.84999224725 L1647.12 1601.72000775275 A44.42 44.42 0 0 0 1722.11486002172 1633.94288526269 L1722.12 1633.94 L1722.12 1714 L1754.26 1714 L1754.26 1464 Z M1722.12 1510.43 L1722.12 1596.14000336622 A21.43 21.43 0 0 1 1679.26 1596.13999663378 L1679.26 1510.43000336622 A21.43 21.43 0 0 1 1722.12 1510.42999663378 Z" style="fill:rgb(0,0,0);" />
<path d=" M1879.31 1517.57 L1879.31 1510.42999588574 A21.43 21.43 0 1 0 1836.45 1510.43000411426 L1836.45 1549.71 L1911.45 1549.71 L1911.45 1592.57000841476 A53.57 53.57 0 0 1 1804.31 1592.56999158524 L1804.31 1514.00000841476 A53.57 53.57 0 0 1 1911.45 1513.99999158524 L1911.45 1517.57 Z M1879.31 1578.29 L1879.31 1596.14000336622 A21.43 21.43 0 0 1 1836.45 1596.13999663378 L1836.45 1578.29 Z" style="fill:rgb(0,0,0);" />
<path d=" M1961.51 1464 L1993.65 1464 L1993.65000000001 1585.42997855846 A28.57 28.57 0 0 0 2022.2200209429 1613.99999999999 L2041.87 1614 L2041.87 1642.57 L2022.22004862138 1642.56999999997 A46.43 46.43 0 0 1 1993.64763510485 1632.73733411463 L1993.65 1632.74 L1993.65 1642.57 L1961.51 1642.57 Z" style="fill:rgb(0,0,0);" />
<path d=" M2144.51 1517.57 L2144.51 1510.42999588574 A21.43 21.43 0 1 0 2101.65 1510.43000411426 L2101.65 1549.71 L2176.65 1549.71 L2176.65 1592.57000841476 A53.57 53.57 0 0 1 2069.51 1592.56999158524 L2069.51 1514.00000841476 A53.57 53.57 0 0 1 2176.65 1513.99999158524 L2176.65 1517.57 Z M2144.51 1578.29 L2144.51 1596.14000336622 A21.43 21.43 0 0 1 2101.65 1596.13999663378 L2101.65 1578.29 Z" style="fill:rgb(0,0,0);" />
<path d=" M2226.71 1464 L2258.85 1464 L2258.85 1596.13999588574 A21.43 21.43 0 0 0 2301.71 1596.14000411426 L2301.71 1464 L2333.85 1464 L2333.84999999999 1601.72002325826 A44.42 44.42 0 0 1 2258.85512873037 1633.94287459005 L2258.85 1633.94 L2258.85 1642.57 L2226.71 1642.57 Z" style="fill:rgb(0,0,0);" />
<path d=" M327.5 158 L359.64 158 L359.64 290.139995885735 A21.43 21.43 0 0 0 402.5 290.140004114265 L402.5 158 L434.64 158 L434.639999999994 295.720023258258 A44.42 44.42 0 0 1 359.645128730375 327.942874590046 L359.64 327.94 L359.64 408 L327.5 408 Z" style="fill:rgb(0,0,0);" />
<path d=" M554.79 211.57 L554.79 204.429995885735 A21.43 21.43 0 1 0 511.93 204.430004114265 L511.93 243.71 L586.93 243.71 L586.929999999999 286.570008414756 A53.57 53.57 0 0 1 479.790000000001 286.569991585244 L479.790000000001 208.000008414756 A53.57 53.57 0 0 1 586.929999999999 207.999991585244 L586.93 211.57 Z M554.79 272.29 L554.79 290.140003366217 A21.43 21.43 0 0 1 511.93 290.139996633783 L511.93 272.29 Z" style="fill:rgb(0,0,0);" />
<path d=" M704.28 211.57 L704.28 204.429995885735 A21.43 21.43 0 1 0 661.42 204.430004114265 L661.42 243.71 L736.42 243.71 L736.419999999999 286.570008414756 A53.57 53.57 0 0 1 629.280000000001 286.569991585244 L629.280000000001 208.000008414756 A53.57 53.57 0 0 1 736.419999999999 207.999991585244 L736.42 211.57 Z M704.28 272.29 L704.28 290.140003366217 A21.43 21.43 0 0 1 661.42 290.139996633783 L661.42 272.29 Z" style="fill:rgb(0,0,0);" />
<path d=" M794.85 308 L794.850000000009 190.140024120799 A32.14 32.14 0 0 1 826.99002355985 158.000000000009 L855.57 158 L855.57 186.57 L837.71000785084 186.580000000003 A10.71 10.71 0 0 0 827.000000000003 197.290008037765 L826.99 197.29 L826.99 308 L859.14 308 L859.14 336.57 L826.99 336.57 L826.99 408 L794.85 389.44 L794.85 336.57 L778.78 336.57 L778.78 308 Z" style="fill:rgb(0,0,0);" />
<path d=" M1064.13 158 L1064.12486002172 166.627114737312 A44.42 44.42 0 0 0 989.130000000001 198.849992247247 L989.13 336.57 L1021.27 336.57 L1021.27 204.430003366217 A21.43 21.43 0 0 1 1064.13 204.429996633783 L1064.13 336.57 L1096.27 336.57 L1096.27 158 Z" style="fill:rgb(0,0,0);" />
<path d=" M1261.99 158 L1297.71 158 L1319.14 265.14 L1340.57 158 L1376.28 158 L1411.99 336.57 L1382.86 336.57 L1360.1 222.8 L1337.35 336.57 L1304.57 336.57 L1281.81 222.8 L1259.06 336.57 L1226.28 336.57 Z" style="fill:rgb(0,0,0);" />
<path d=" M1521.99 211.57 L1521.99 204.429995885735 A21.43 21.43 0 1 0 1479.13 204.430004114265 L1479.13 243.71 L1554.13 243.71 L1554.13 286.570008414756 A53.57 53.57 0 0 1 1446.99 286.569991585244 L1446.99 208.000008414756 A53.57 53.57 0 0 1 1554.13 207.999991585244 L1554.13 211.57 Z M1521.99 272.29 L1521.99 290.140003366217 A21.43 21.43 0 0 1 1479.13 290.139996633783 L1479.13 272.29 Z" style="fill:rgb(0,0,0);" />
<path d=" M1604.18 158 L1636.32 158 L1636.32 408 L1604.18 408 Z" style="fill:rgb(0,0,0);" />
<path d=" M1696.18 158 L1696.18 408 L1728.32 408 L1728.32 277.29 L1769.26 336.57 L1808.32 336.57 L1749.75 251.75 L1808.32 158 L1770.42 158 L1728.32 225.39 L1728.32 158 Z" style="fill:rgb(0,0,0);" />
<path d=" M1833.17 208 L1833.17 286.569990650271 A53.57 53.57 0 0 0 1940.31 286.570009349729 L1940.31 208 A53.57 53.57 0 0 0 1833.17 208 Z M1865.31 204.43 L1865.31 290.139995885735 A21.43 21.43 0 0 0 1908.17 290.140004114265 L1908.17 204.43 A21.43 21.43 0 0 0 1865.31 204.43 Z" style="fill:rgb(0,0,0);" />
<path d=" M1990.36 158 L2022.5 158 L2022.5 290.139995885735 A21.43 21.43 0 0 0 2065.36 290.140004114265 L2065.36 158 L2097.5 158 L2097.5 290.139995885735 A21.43 21.43 0 0 0 2140.36 290.140004114265 L2140.36 158 L2172.5 158 L2172.49999999999 295.720027134634 A44.42 44.42 0 0 1 2090.58256625271 319.533417696065 L2090.57743624103 319.533413769343 A44.42 44.42 0 0 1 2022.50512254403 327.942868720092 L2022.5 327.94 L2022.5 336.57 L1990.36 336.57 Z" style="fill:rgb(0,0,0);" />
<path d=" M1249.99420368232 535.999283276272 A40.34 40.34 0 0 1 1232.84384269622 562.262813879975 A40.34 40.34 0 0 1 1226.82792313453 565.608686890419 A40.34 40.34 0 0 1 1220.56282878947 567.822689541199 L1220.56434933592 567.822327957928 A1211.53 1211.53 0 0 1 1192.26865198147 574.56628767374 L1192.26764446816 574.567514375197 A1211.48 1211.48 0 0 1 1170.16678110307 579.339103325492 L1170.17294187193 579.338464117449 A1211.51 1211.51 0 0 1 1133.26249816693 586.352851716733 L1133.25713018783 586.35300902881 A1106.21 1106.21 0 0 0 1086.5183142281 593.715475075894 L1086.52010018034 593.715314321158 A1106.2 1106.2 0 0 0 1039.86169824108 603.131860535718 L1039.85947182439 603.132111455774 A1106.21 1106.21 0 0 0 993.445625966017 614.602175867067 L993.448490735502 614.604050224208 A113.59 113.59 0 0 0 966.135916927853 626.895137603397 A113.59 113.59 0 0 0 926.750737484432 668.18262911128 L926.749202781074 668.182500636287 A112.63 112.63 0 0 0 916.046175987703 694.913644264662 L916.047716576734 694.916346197398 A114.59 114.59 0 0 0 912.410081918 723.422981896817 L912.41 723.42 L912.41 1336 L1250 1336 L1587.59 1336 L1587.59 723.429994052441 A113.59 113.59 0 0 0 1560.28060503873 649.549384855355 A113.59 113.59 0 0 0 1533.86408981155 626.895141782698 A113.59 113.59 0 0 0 1506.5515092645 614.604050224208 L1506.55437403398 614.602175867067 A1106.21 1106.21 0 0 0 1460.14052817561 603.132111455774 L1460.13830175892 603.131860535718 A1106.2 1106.2 0 0 0 1413.47989981966 593.715314321158 L1413.4816857719 593.715475075894 A1106.21 1106.21 0 0 0 1366.74286981217 586.35300902881 L1366.73570409517 586.36268916011 A1211.52 1211.52 0 0 1 1338.34513405051 581.072861491767 L1338.35305348103 581.063653090682 A1211.48 1211.48 0 0 1 1316.17119385733 576.440438174703 L1316.16260449895 576.439505129365 A1211.52 1211.52 0 0 1 1279.42800368601 567.822608367318 L1279.43716984873 567.822689182959 A40.34 40.34 0 0 1 1272.64186994996 565.365927005012 A40.34 40.34 0 0 1 1266.33965319323 561.697836612754 A40.34 40.34 0 0 1 1250.00578389555 535.999214689601 Z" style="fill:rgb(0,0,0);" />
<path d=" M1249.99528675094 567.469440111833 A55.41 55.41 0 0 1 1242.38716835121 573.983905379114 A55.41 55.41 0 0 1 1233.73061180007 579.022294616703 A55.41 55.41 0 0 1 1224.30847903128 582.419986152118 L1224.31768345424 582.429895842073 A1226.59 1226.59 0 0 1 1194.89246888087 589.434941621241 L1194.88805643091 589.425434424013 A1226.57 1226.57 0 0 1 1165.29905784245 595.702776989594 L1165.30292494922 595.71239961221 A1226.59 1226.59 0 0 1 1135.56813422401 601.258221425505 L1135.56245671826 601.248431313061 A1091.13 1091.13 0 0 0 1089.18270490126 608.548231638291 L1089.18289234295 608.548197988831 A1091.13 1091.13 0 0 0 1043.16010924454 617.836464741632 L1043.16029506513 617.836423059714 A1091.13 1091.13 0 0 0 997.579692644659 629.095958857493 L997.580104038841 629.098139456719 A98.52 98.52 0 0 0 974.078159797032 639.702388604849 A98.52 98.52 0 0 0 939.914166048209 675.519462611816 L939.912624433296 675.519346544371 A97.56 97.56 0 0 0 930.637726672923 698.680811455061 L930.639265469963 698.683520328796 A99.52 99.52 0 0 0 927.480081923896 723.432304558999 L927.48 723.43 L927.48 1320.93 L1250 1320.93 L1572.52 1320.93 L1572.52 723.429996561003 A98.52 98.52 0 0 0 1560.08582726222 675.519450591966 A98.52 98.52 0 0 0 1525.9219147304 639.702434821443 A98.52 98.52 0 0 0 1502.41989596116 629.098139456719 L1502.42030735534 629.095958857493 A1091.13 1091.13 0 0 0 1456.83970493487 617.836423059714 L1456.83989075546 617.836464741632 A1091.13 1091.13 0 0 0 1410.81710765705 608.548197988831 L1410.81729509874 608.548231638291 A1091.13 1091.13 0 0 0 1364.43754328174 601.248431313061 L1364.43186577599 601.258221425505 A1226.59 1226.59 0 0 1 1334.69707505078 595.71239961221 L1334.70094215755 595.702776989594 A1226.57 1226.57 0 0 1 1305.11194356909 589.425434424013 L1305.10753111913 589.434941621241 A1226.59 1226.59 0 0 1 1275.68231654576 582.429895842073 L1275.69152096872 582.419986152118 A55.41 55.41 0 0 1 1266.26938995267 579.022295434586 A55.41 55.41 0 0 1 1257.61281509169 573.98389361855 A55.41 55.41 0 0 1 1250.00471324906 567.469440111833 L1250 567.47 Z" style="fill:rgb(255,255,0);" />
<path d=" M992.151982183967 1015.72154862627 A163.19 163.19 0 0 1 974.114977538456 1036.67883356919 L974.115995215721 1036.68163672886 A21.38 21.38 0 0 0 1004.51913006151 1038.22755919814 L1004.51911916925 1038.22108814345 A71.83 71.83 0 0 0 992.150855934158 1015.71771630168 L992.15 1015.72 Z" style="fill:rgb(255,0,0);" />
<path d=" M1106.58506063402 650.981005489827 A66.84 66.84 0 0 1 1101.5071457542 629.630671308106 L1101.49816663009 629.638800541565 A27.39 27.39 0 0 0 1084.51397214737 651.497570677087 L1084.51795436363 651.496939006477 A8.96 8.96 0 0 0 1087.07593766972 657.21691881315 L1087.07 657.22 Z" style="fill:rgb(255,0,0);" />
<path d=" M1005.5770016507 722.668597641979 A18.68 18.68 0 0 1 998.134136923783 715.067466232972 L998.133883941467 715.062330876357 A36.75 36.75 0 0 1 974.716226487896 725.366100403329 L974.71177818308 725.362134993766 A57.29 57.29 0 0 0 1004.37424055192 750.965524201343 L1004.37 750.97 Z" style="fill:rgb(255,0,0);" />
<path d=" M1409.79669245796 645.476061205249 A98.76 98.76 0 0 1 1398.44979355803 630.946495945564 L1398.44719233421 630.955804580673 A30.9 30.9 0 0 0 1385.44071987938 652.541013812307 L1385.44078633346 652.534596837027 A20.04 20.04 0 0 0 1409.79769348973 645.476629971966 L1409.8 645.48 Z" style="fill:rgb(255,0,0);" />
<path d=" M994.727311494801 941.851974159817 A31.37 31.37 0 0 1 972.914819638984 936.012408379243 L972.905400499083 936.01173901956 A28.42 28.42 0 0 0 981.839063912981 966.248758141437 L981.848368245792 966.249739951619 A23.93 23.93 0 0 0 994.732904612243 941.85501408385 L994.73 941.86 Z" style="fill:rgb(255,0,0);" />
<path d=" M978.276872554029 1144.2244370558 A43.86 43.86 0 0 0 1001.35596025704 1144.66826561905 L1001.35 1144.67 L1001.35417703212 1156.64919228443 A12.01 12.01 0 0 1 990.703515848295 1170.18440446477 L990.697711751394 1170.191386499 A21.68 21.68 0 0 1 978.271307013164 1144.22909082159 L978.27 1144.22 A0 0 0 1 1 978.27 1144.22 Z" style="fill:rgb(255,0,0);" />
<path d=" M1005.79227877683 1215.02568923164 A133.74 133.74 0 0 1 981.601224316055 1213.91600810442 L981.600476336199 1213.90937338545 A30.56 30.56 0 0 0 1005.34791772488 1243.87109153887 L1005.35 1243.87 Z" style="fill:rgb(255,0,0);" />
<path d=" M1219.36 712.8 L1219.36764958441 712.796613917259 A29.8 29.8 0 0 1 1235.87198805547 715.335742982823 L1235.86577031514 715.332420081268 A43.42 43.42 0 0 1 1271.65153797009 679.53756176672 L1271.65520889859 679.539434985823 A18.79 18.79 0 0 0 1285.88411455466 659.987647318048 L1285.87758830985 659.994040212077 A42.33 42.33 0 0 1 1297.22590262138 694.036016008278 L1297.23148421025 694.032529349211 A4.63 4.63 0 0 1 1299.53506553149 698.529866075807 L1299.52826931066 698.531125299842 A50.96 50.96 0 0 1 1327.61487438564 712.326683541323 L1327.62447139983 712.326253869195 A287.57 287.57 0 0 1 1364.78945919078 756.278453288072 L1364.78568552789 756.282604543442 A113.18 113.18 0 0 0 1387.19229674368 780.442605226659 L1387.19662296725 780.437205034323 A21.14 21.14 0 0 0 1404.01272243303 785.471149847261 L1404.00724642166 785.471526453842 A21.1 21.1 0 0 0 1417.95339517462 777.291902644461 L1417.95 777.29 L1424.29 777.42 L1455.26216445166 766.168159721458 A9.73 9.73 0 0 0 1460.40668826694 753.119196782426 L1460.40680305832 753.114078149748 A154.03 154.03 0 0 0 1444.56778050929 726.148462736888 L1444.56099716206 726.155836997806 A14.01 14.01 0 0 1 1440.95198606831 718.967943891621 L1440.95805411539 718.969634139327 A3.25 3.25 0 0 0 1437.36904182158 716.863665112194 L1437.36206499407 716.860262902667 A20.86 20.86 0 0 0 1425.1437839239 723.621137125539 L1425.1480790018 723.615710323392 A3.49 3.49 0 0 0 1424.29718957442 729.122291095573 L1424.29935355243 729.125044150539 A36.84 36.84 0 0 1 1433.82192425364 746.715219177653 L1433.8143015452 746.71161352549 A5.24 5.24 0 0 1 1432.07833501201 753.391849565362 L1432.08595769316 753.404100938571 A88.43 88.43 0 0 1 1419.69965001449 760.445955342704 L1419.69505874759 760.438496684768 A19.31 19.31 0 0 0 1389.45013221742 742.119081190983 L1389.46 742.12 L1389.71802165549 728.646818640623 A7.94 7.94 0 0 1 1394.09584538274 721.189888384214 L1394.08852395556 721.192952181373 A44.46 44.46 0 0 1 1406.25224264652 717.168511775654 L1406.25375552746 717.166962653176 A2.09 2.09 0 0 0 1407.58055519683 714.860411269053 L1407.58 714.86 L1407.33679540409 703.06513799384 A2.07 2.07 0 0 0 1403.98259790314 701.32904477514 L1403.99384516868 701.338287942971 A23.61 23.61 0 0 1 1386.70681654381 706.316050709342 L1386.70522834125 706.301637357022 A1.81 1.81 0 0 0 1383.91087084682 707.876140066883 L1383.91 707.88 L1383.90934406131 716.187774232685 A5.46 5.46 0 0 1 1382.87517056711 718.849456078734 L1382.87913564432 718.846314884845 A25.95 25.95 0 0 1 1371.67518059319 727.524878543355 L1371.67778767589 727.527459484915 A9.26 9.26 0 0 1 1364.0697531703 728.310805690848 L1364.07116645057 728.307999465998 A25.16 25.16 0 0 1 1351.83520012758 719.416063948832 L1351.82895347556 719.411948529868 A5.44 5.44 0 0 1 1351.76854982229 711.708289189188 L1351.76354289683 711.711139843402 A36.14 36.14 0 0 0 1368.19417549322 686.248891604925 L1368.19594370616 686.24827975874 A10.6 10.6 0 0 1 1370.95596908581 677.06773294196 L1370.96088164196 677.064446584812 A17.84 17.84 0 0 0 1376.72427349865 683.060352503228 L1376.72428585579 683.063652778052 A3.64 3.64 0 0 1 1379.93278151919 687.033629840718 L1379.93332060129 687.031045640699 A4.93 4.93 0 0 0 1382.83993652816 692.016067699072 L1382.84096336243 692.022068257848 A31.79 31.79 0 0 1 1391.27475461392 686.560732970527 L1391.26731882363 686.551940211552 A698.09 698.09 0 0 1 1395.73709527366 683.964354918083 L1395.73637484504 683.968445021662 A3.93 3.93 0 0 0 1396.04832600847 677.35070145993 L1396.05154094062 677.346184208662 A14 14 0 0 1 1382.41739050153 670.910882369008 L1382.41912944544 670.907100528708 A9.29 9.29 0 0 1 1383.23940725771 657.079590711876 L1383.23674427487 657.088406763305 A25.9 25.9 0 0 0 1413.48590341368 649.11576107758 L1413.48587226096 649.107405507721 A2.8 2.8 0 0 1 1416.97486814465 648.46962608759 L1416.96970345122 648.476814851262 A33.21 33.21 0 0 1 1428.60411141878 659.226444624383 L1428.61249456284 659.225127646371 A8.55 8.55 0 0 1 1427.41828849753 670.091359989475 L1427.4159009198 670.08325219241 A12.05 12.05 0 0 0 1425.97715025392 682.90748674834 L1425.9801041664 682.90731419272 A6.52 6.52 0 0 0 1434.59602563764 682.130530242249 L1434.58540831281 682.125680814428 A52.06 52.06 0 0 0 1440.97905098992 673.792813495922 L1440.98540273447 673.795708557429 A2.81 2.81 0 0 1 1445.46343607188 674.207735156351 L1445.46563514134 674.206529892715 A41.92 41.92 0 0 1 1450.98107030502 688.547024012317 L1450.97075750004 688.545854608921 A14.44 14.44 0 0 0 1455.31818344374 696.477239721721 L1455.32198076357 696.482020883763 A4.79 4.79 0 0 0 1463.00131078796 694.846664707994 L1463.00397092167 694.845112705684 A0.98 0.98 0 0 1 1463.97773470756 694.030030523792 L1463.97413613235 694.029937396464 A2.01 2.01 0 0 0 1464.16713254772 690.017820172777 L1464.17032180057 690.022720752816 A4.45 4.45 0 0 1 1462.40007594311 686.495997843803 L1462.4002757877 686.494410711465 A16.16 16.16 0 0 1 1463.25410277173 681.21587904871 L1463.24860252126 681.214022709882 A36.49 36.49 0 0 1 1469.48148669182 669.919664486179 L1469.48619547555 669.928938124118 A5.84 5.84 0 0 1 1478.56869056599 669.947348756036 L1478.57164162854 669.944497049471 A165.79 165.79 0 0 1 1488.68847704896 693.040347569222 L1488.68780892692 693.042538960153 A3.7 3.7 0 0 0 1490.73335133166 695.22546731454 L1490.73478149149 695.221674283035 A12.29 12.29 0 0 0 1501.15593533973 694.84185118175 L1501.15021224624 694.842138821001 A4.28 4.28 0 0 1 1505.66619072368 701.743918771653 L1505.67471889679 701.748242631394 A15.75 15.75 0 0 0 1501.76061741676 712.279456970599 L1501.74498572212 712.27563094761 A9.67 9.67 0 0 1 1490.32344242014 717.713179832507 L1490.32633280337 717.711163047254 A30.08 30.08 0 0 1 1477.22079142521 710.158815391272 L1477.22165106862 710.160388104882 A3.14 3.14 0 0 0 1472.16575923152 708.482849003073 L1472.17002374924 708.49016875428 A5.17 5.17 0 0 0 1471.49153952358 715.771628724971 L1471.49 715.76 L1480.77973961315 724.422313880011 A5.35 5.35 0 0 0 1485.80092566507 726.452698282128 L1485.8 726.45 L1496.14 726.45 L1496.14366794518 736.014484573107 A2.34 2.34 0 0 0 1500.6939312516 737.073605709808 L1500.69906381678 737.078855267607 A90.07 90.07 0 0 1 1504.3781815575 734.525998064853 L1504.37298750793 734.5220985008 A2.87 2.87 0 0 1 1508.48161777194 738.271965775011 L1508.48039618223 738.266643756912 A16.4 16.4 0 0 0 1502.17811011611 752.848721557471 L1502.17735106944 752.84706144717 A2035.51 2035.51 0 0 1 1500.63002242908 792.476613362184 L1500.6423465191 792.484363976582 A149.43 149.43 0 0 1 1488.77544133906 843.9755511082 L1488.77386142929 843.966830302857 A15.13 15.13 0 0 0 1470.31007424463 841.703496031638 L1470.31194420015 841.709506198175 A2.48 2.48 0 0 0 1470.07292424978 846.269050540763 L1470.06815551407 846.26735112135 A24.68 24.68 0 0 1 1483.91054321548 869.429800141506 L1483.90898358314 869.425102817373 A2.76 2.76 0 0 1 1479.81178169822 871.913870704237 L1479.80690774961 871.918834040911 A110.19 110.19 0 0 0 1464.1612269256 864.77954162986 L1464.15976769929 864.77285454524 A2.16 2.16 0 1 0 1462.51659552822 868.766790897201 L1462.52697325545 868.767873274153 A13.09 13.09 0 0 1 1470.8531968667 882.405912182448 L1470.84520718275 882.397669982686 A52.53 52.53 0 0 0 1444.68615644051 881.391310841978 L1444.68804098439 881.402361319386 A35.8 35.8 0 0 1 1410.48367298528 877.101959885598 L1410.48454821988 877.096564455162 A351.19 351.19 0 0 1 1393.15589129277 863.686289146164 L1393.15949630661 863.682062916221 A14.88 14.88 0 0 0 1383.05017307376 860.293762362169 L1383.04767095094 860.295842265181 A80.18 80.18 0 0 1 1370.807865188 859.88649155043 L1370.81126224106 859.879634644569 A6.95 6.95 0 0 1 1364.14873453023 855.134023481491 L1364.14240137493 855.143643381279 A70.91 70.91 0 0 0 1348.22820559472 846.345502450383 L1348.22931184766 846.341263096802 A52.05 52.05 0 0 1 1329.28475963331 846.047711493012 L1329.27410254554 846.049767969545 A4.04 4.04 0 0 0 1331.95214367004 850.649233092066 L1331.95717491469 850.639342177376 A80.11 80.11 0 0 1 1381.75007053797 899.312109899253 L1381.74745719889 899.307394795952 A17.04 17.04 0 0 0 1406.50817792985 910.056233586136 L1406.51030303878 910.066605206627 A83.85 83.85 0 0 1 1443.7389191954 905.26886903595 L1443.73777521864 905.256004812841 A37.63 37.63 0 0 1 1463.90650670554 910.694551016327 L1463.89738825336 910.701581450645 A45.53 45.53 0 0 1 1482.15550420107 961.540590286015 L1482.16251002684 961.548144011309 A96.8 96.8 0 0 0 1485.38185153365 1009.08947822138 L1485.37713830164 1009.08577710777 A76.63 76.63 0 0 1 1465.07760495803 974.011011296709 L1465.08049242462 974.016839923874 A95.64 95.64 0 0 0 1485.02477362885 1036.98644339687 L1485.02520693493 1036.97986795687 A222.08 222.08 0 0 1 1512.44499818247 1082.86016907318 L1512.446170964 1082.86628463085 A146.25 146.25 0 0 1 1521.1898598264 1147.26362509668 L1521.18950517716 1147.26045157785 A951.63 951.63 0 0 1 1514.22554749792 1261.21023438221 L1514.23173391714 1261.21150529893 A16.16 16.16 0 0 1 1505.03519942855 1273.89860802069 L1505.03399645079 1273.89566340428 A37.98 37.98 0 0 1 1484.26256733802 1274.94800782996 L1484.26157064018 1274.94721276203 A42.7 42.7 0 0 1 1451.18466952104 1234.79126445276 L1451.18507613318 1234.79253043697 A372.27 372.27 0 0 1 1457.35922036366 1153.46534679588 L1457.36354589158 1153.4694452597 A110.22 110.22 0 0 0 1429.7439160329 1060.45008357389 L1429.74276768716 1060.45172063806 A157.79 157.79 0 0 1 1403.65489598113 1019.27452056184 L1403.65261150653 1019.27023007268 A52.64 52.64 0 0 1 1405.36680281603 965.617651674439 L1405.36318043998 965.623038593708 A112.65 112.65 0 0 0 1416.62278748745 942.45619669835 L1416.62904133702 942.451908293346 A479.58 479.58 0 0 1 1415.37672623575 961.931461167814 L1415.36868630064 961.931906909295 A78.01 78.01 0 0 0 1433.00732054242 1018.26364256473 L1433.00798171485 1018.26019584517 A71.56 71.56 0 0 1 1430.24400639036 999.307217628352 L1430.24200778365 999.316168787041 A132.59 132.59 0 0 0 1449.24686604491 1032.71832168049 L1449.2530014466 1032.71637917478 A126.78 126.78 0 0 1 1466.05906214203 1160.1449419722 L1466.06357488197 1160.14774333661 A182.82 182.82 0 0 0 1459.12821459994 1223.09360965991 L1459.12788972379 1223.09261496602 A60.6 60.6 0 0 0 1475.82418741156 1262.76088956188 L1475.82617482142 1262.75571159372 A16.66 16.66 0 0 0 1490.54903337436 1265.74873067082 L1490.54680365405 1265.74754544667 A53.29 53.29 0 0 0 1500.36228920588 1260.21375052336 L1500.36111034084 1260.21453796582 A12.63 12.63 0 0 0 1505.39622392675 1252.49776279931 L1505.39541135872 1252.50162904955 A477.12 477.12 0 0 0 1510.4083836804 1224.0602789714 L1510.40325946331 1224.05910987838 A322.48 322.48 0 0 0 1510.89984074425 1134.94015304138 L1510.90378998517 1134.93940031946 A280.27 280.27 0 0 0 1468.47791643129 1031.74445697024 L1468.48129419162 1031.74354667721 A114.23 114.23 0 0 1 1453.11654281336 960.956085993495 L1453.11475182511 960.95883950908 A87.81 87.81 0 0 0 1454.48220035893 934.048141822757 L1454.48432654505 934.048235252482 A23.59 23.59 0 0 0 1418.97431470782 916.197259409986 L1418.97499490875 916.193255381844 A58.48 58.48 0 0 1 1386.543985322 927.707221540307 L1386.54264948587 927.719703122424 A4.43 4.43 0 0 0 1383.45450147905 929.421424706677 L1383.4568392408 929.416855265564 A36.66 36.66 0 0 1 1354.00435507459 948.5141101221 L1353.99735170829 948.513672638385 A36.91 36.91 0 0 0 1327.80069502368 985.783839875108 L1327.8 985.79 L1327.80921174338 993.743644671506 A19.72 19.72 0 0 1 1340.19290220412 994.38688834154 L1340.18591332165 994.383800327334 A25.7 25.7 0 0 0 1335.55949665107 1022.36260609262 L1335.55870191197 1022.37211314498 A36.02 36.02 0 0 1 1371.02777275661 1006.95077812465 L1371.03326629041 1006.94882535613 A26.82 26.82 0 0 0 1363.10294451749 1036.90781865782 L1363.10186059661 1036.90757678088 A26.83 26.83 0 0 1 1387.11337942944 1026.33369703025 L1387.11700585617 1026.33525787425 A26.39 26.39 0 0 0 1384.4731111802 1050.13031088847 L1384.47277130976 1050.1287394798 A22.48 22.48 0 0 1 1402.3170406692 1046.82424515795 L1402.31409645232 1046.82239071922 A32.06 32.06 0 0 0 1395.48358853706 1062.46645650894 L1395.49070554128 1062.46123208111 A37.58 37.58 0 0 1 1412.01533996802 1063.78320290494 L1412.0101015735 1063.78201935585 A13.37 13.37 0 0 0 1412.93207743118 1075.16910417814 L1412.93033969809 1075.17250338751 A10.33 10.33 0 0 1 1423.02399973839 1074.14327162305 L1423.02798536845 1074.14280340756 A12.88 12.88 0 0 0 1417.51938708533 1089.34653424959 L1417.5181446104 1089.34037490486 A23.23 23.23 0 0 1 1433.35888067036 1091.77971566167 L1433.36088779021 1091.77730288156 A20.98 20.98 0 0 0 1425.67012471025 1112.69257106217 L1425.66795198602 1112.69366704446 A20.56 20.56 0 0 1 1441.65743442285 1118.02584149788 L1441.66005930493 1118.02755226092 A23.79 23.79 0 0 0 1428.75701442293 1133.84407210882 L1428.75173054922 1133.84829955241 A119.71 119.71 0 0 1 1436.24693017622 1220.43157574703 L1436.25152160469 1220.42337348087 A6.17 6.17 0 0 1 1432.47263350329 1224.67344564043 L1432.46800488701 1224.67646217971 A17.81 17.81 0 0 1 1419.55279190849 1224.59895896621 L1419.55686295221 1224.59531705604 A39.75 39.75 0 0 1 1430.11506775385 1260.2006717754 L1430.11845073053 1260.20940750638 A5.42 5.42 0 0 1 1425.34276325939 1266.83663127377 L1425.33956453228 1266.82824108406 A28.24 28.24 0 0 1 1407.46564990021 1262.47557180109 L1407.46896286526 1262.47455336267 A4.01 4.01 0 0 1 1403.59543532315 1269.42703983476 L1403.59 1269.42 L1406.45151521224 1271.77390616091 A3.79 3.79 0 0 1 1405.21540621879 1278.48421104142 L1405.21631928479 1278.48075970509 A106.62 106.62 0 0 1 1344.70636279236 1285.19637583508 L1344.69910964229 1285.19527278656 A88.06 88.06 0 0 0 1335.20110733378 1282.67974396399 L1335.20488947197 1282.68019480833 A23.94 23.94 0 0 1 1320.85846154731 1277.38267162125 L1320.86000007208 1277.38 A4.13 4.13 0 0 1 1317.35965126304 1275.44190755272 L1317.3487029764 1275.44851378226 A2.16 2.16 0 0 1 1318.14502995407 1272.00964407561 L1318.14493765372 1272.00810262082 A36.95 36.95 0 0 1 1295.57638089618 1271.05184960441 L1295.58381584368 1271.05247958222 A20.07 20.07 0 0 0 1285.39355479874 1268.7682818288 L1285.39022286871 1268.76442484145 A12.1 12.1 0 0 1 1274.32058314481 1266.09310658062 L1274.32091000931 1266.08993595597 A2.2 2.2 0 0 1 1275.16558607601 1261.91297713849 L1275.16075397788 1261.91755668773 A6.14 6.14 0 0 0 1278.42851505475 1256.62502933988 L1278.42556591065 1256.62798099215 A10.07 10.07 0 0 1 1272.26506377342 1255.01863590077 L1272.27325364197 1255.0144523935 A3.28 3.28 0 0 1 1272.60964925773 1250.31905998785 L1272.60255279316 1250.31899413737 A7.34 7.34 0 0 0 1275.17716988603 1245.49177752839 L1275.17404159149 1245.49772542496 A31.54 31.54 0 0 1 1277.62351647575 1236.28307445286 L1277.62973066005 1236.2797494782 A8.5 8.5 0 0 1 1285.20424360833 1231.18273872477 L1285.20611010343 1231.18738373032 A8.12 8.12 0 0 0 1293.05340794144 1222.03220400425 L1293.05245275175 1222.03032032822 A1.03 1.03 0 1 1 1295.08074011954 1222.38825340037 L1295.07277780157 1222.38149455883 A9.24 9.24 0 0 0 1299.31485772086 1232.04007626778 L1299.31696321635 1232.04617998937 A19.73 19.73 0 0 0 1325.07878908827 1227.47963865391 L1325.07057771055 1227.4679063552 A67.97 67.97 0 0 0 1333.34443290914 1168.67309794959 L1333.34655548308 1168.68081284815 A9.14 9.14 0 0 0 1320.99725800606 1164.4025420936 L1320.98656068742 1164.39417975292 A35.82 35.82 0 0 0 1299.3803371925 1188.37182041836 L1299.38274396241 1188.37728265446 A1.12 1.12 0 0 1 1297.15000734003 1188.24594517337 L1297.13942180928 1188.23941696907 A88.23 88.23 0 0 0 1296.84939749723 1180.76491315053 L1296.85850499782 1180.76697530121 A3.49 3.49 0 0 0 1293.58724064293 1177.56615854036 L1293.58995497388 1177.57613546954 A2.19 2.19 0 0 1 1292.27013618088 1173.74866063655 L1292.27301290704 1173.75093658546 A2.95 2.95 0 0 0 1293.18142207543 1170.82252964782 L1293.18076101029 1170.81711536227 A13.68 13.68 0 0 1 1293.18076101029 1164.16288463773 L1293.18009474382 1164.17030732491 A3 3 0 0 1 1296.09003173009 1161.90000000017 L1296.09030339268 1161.8999999984 A28.78 28.78 0 0 0 1306.01603693451 1160.13411095659 L1306.01977808636 1160.12732809786 A148.19 148.19 0 0 0 1322.63188502773 1152.8405549199 L1322.62412688649 1152.83595203588 A18.56 18.56 0 0 1 1340.48299095215 1151.11730777535 L1340.48991344325 1151.11864829048 A1.92 1.92 0 0 1 1342.08039298191 1147.77864057422 L1342.08 1147.78 L1351.49729849022 1147.91883389264 A2.33 2.33 0 0 1 1353.99329012954 1149.82802866389 L1354.00343431515 1149.82902365404 A8.66 8.66 0 0 0 1343.80435749429 1140.17204494054 L1343.79718217238 1140.16311191824 A117.29 117.29 0 0 0 1273.5574537815 1160.69990791904 L1273.56048920463 1160.70592675093 A40.05 40.05 0 0 1 1234.56713946805 1164.26275931693 L1234.56459052137 1164.26342299124 A194.41 194.41 0 0 0 1147.48169807107 1153.65963885127 L1147.47423100401 1153.65846098858 A27.87 27.87 0 0 0 1145.07706259689 1139.82864617532 L1145.08963269469 1139.8314274722 A91.22 91.22 0 0 1 1107.15674188268 1165.80459849133 L1107.15708691824 1165.80449796788 A22.06 22.06 0 0 0 1088.06680626531 1186.23371952636 L1088.05333039423 1186.23761156254 A16.53 16.53 0 0 1 1085.18362978381 1193.18819724459 L1085.1829459662 1193.18406236703 A2.71 2.71 0 0 0 1085.44828981526 1198.30652373898 L1085.45397971704 1198.29677526375 A8.82 8.82 0 0 1 1091.67218261876 1204.96952403046 L1091.66968145583 1204.97061786652 A1.45 1.45 0 0 0 1094.20360806835 1206.3635083216 L1094.21657899633 1206.36933627292 A11.02 11.02 0 0 1 1102.2061297669 1201.44929389273 L1102.2016356573 1201.4429762466 A22.78 22.78 0 0 0 1105.14226832649 1199.45671212298 L1105.14830517676 1199.46275125042 A2.91 2.91 0 0 1 1109.35456207844 1200.08646667633 L1109.35653499401 1200.08065540475 A53.71 53.71 0 0 1 1117.04519495087 1244.48130559099 L1117.03835270321 1244.47879284772 A4.46 4.46 0 0 0 1111.66337021412 1240.23521021862 L1111.66 1240.23 L1090.13188299611 1239.10512113939 A4.61 4.61 0 0 1 1085.17051202124 1237.35598398673 L1085.17355332331 1237.35642445166 A18.96 18.96 0 0 1 1084.04909462952 1226.63615142235 L1084.04700693441 1226.63396203311 A2.52 2.52 0 0 0 1082.14936346769 1223.13347198863 L1082.15218283569 1223.12208282373 A21.99 21.99 0 0 0 1071.25879307441 1224.08452245178 L1071.26328476445 1224.09275207326 A3.54 3.54 0 0 0 1068.6505243468 1226.77924824015 L1068.64185990255 1226.77838747169 A25.14 25.14 0 0 0 1070.44923986079 1242.78555140897 L1070.44654003891 1242.78925870058 A4.19 4.19 0 0 0 1074.13140411506 1245.19859247645 L1074.134988146 1245.19200880942 A5.98 5.98 0 0 1 1079.66028036674 1249.30055758173 L1079.66386994606 1249.29631153956 A42.62 42.62 0 0 1 1081.78820711754 1261.61746011118 L1081.78220985376 1261.61255916829 A10.49 10.49 0 0 1 1079.51585605498 1270.39468241924 L1079.52 1270.4 L1070.39293123151 1278.588162565 A3.57 3.57 0 0 0 1069.49603421317 1274.80860982037 L1069.50105294775 1274.81112102456 A72.66 72.66 0 0 0 1064.02962713862 1270.08194128851 L1064.03 1270.08 L1046.23618649799 1257.93480074338 A5.56 5.56 0 0 0 1039.46795538916 1257.9623082798 L1039.47 1257.96 L1032.93 1264.45 L1032.92405174516 1251.53422602323 A10.08 10.08 0 0 1 1034.90768429003 1245.80993956352 L1034.91 1245.81 L1042.26854905409 1238.39253591912 A9.13 9.13 0 0 1 1047.06020689621 1236.10334132401 L1047.06 1236.11 L1050.63 1236.27 L1050.91339689086 1223.5294370406 A2.09 2.09 0 0 0 1047.9395119776 1221.26362002765 L1047.94 1221.26 L1036.89340256425 1225.22611903666 A10.09 10.09 0 0 0 1030.6600513555 1234.51780758991 L1030.65687545475 1234.51745489192 A14.25 14.25 0 0 1 1023.43535531885 1244.62907769468 L1023.44137764179 1244.62492553848 A20.68 20.68 0 0 1 1016.37527576119 1244.84640035703 L1016.36758555818 1244.85035189814 A8.09 8.09 0 0 1 1009.41738583464 1237.18561286719 L1009.42 1237.18 L1009.6332318988 1212.10918811876 A4.76 4.76 0 0 0 1005.26510596864 1206.96480290059 L1005.26 1206.96 L999.641913941309 1206.96074817071 A14.96 14.96 0 0 1 1019.50016421879 1196.63941150731 L1019.50167220872 1196.64345672967 A22.43 22.43 0 0 1 1031.93117892642 1208.37836710893 L1031.93572769699 1208.37310287306 A51.76 51.76 0 0 1 1037.458301718 1195.06228568311 L1037.4638756327 1195.06736180238 A4.01 4.01 0 0 0 1036.89659298372 1190.24653436408 L1036.88892491074 1190.24396424184 A32.55 32.55 0 0 1 1028.960465222 1176.372504142 L1028.96162841051 1176.37365838247 A1.32 1.32 0 0 0 1026.56143262736 1176.36697535928 L1026.54832813653 1176.37115820502 A15.78 15.78 0 0 1 1006.71844350092 1184.54990453274 L1006.72688819076 1184.55226642419 A13.82 13.82 0 0 0 998.661080579703 1180.3371087585 L998.653899737978 1180.33421012229 A7.12 7.12 0 0 1 992.704677561771 1174.66828532386 L992.713873641028 1174.66899450752 A13.55 13.55 0 0 0 1007.16275118015 1160.46651957158 L1007.16 1160.47 L1007.44085199077 1142.24200331213 A12.08 12.08 0 0 0 1013.45251923729 1141.00944771511 L1013.44333508569 1141.00843840569 A11.48 11.48 0 0 1 1024.80408744861 1141.68614402608 L1024.80730669694 1141.68782774549 A28.1 28.1 0 0 1 1035.96623272629 1155.91949452957 L1035.96136456377 1155.92077976442 A4.53 4.53 0 0 0 1039.86121863284 1159.80157394481 L1039.87 1159.8 L1050.67 1159.56 L1050.67566825495 1149.90967043486 A4.26 4.26 0 0 1 1046.72704086604 1148.89776013615 L1046.71964283622 1148.90588688777 A5.84 5.84 0 0 0 1044.35122597588 1147.56666312657 L1044.35099775805 1147.55653035929 A1.12 1.12 0 0 1 1043.91118957004 1145.64712369466 L1043.90638570169 1145.64258954871 A41.65 41.65 0 0 0 1056.66762080639 1123.92978576667 L1056.67444115086 1123.93010033655 A92.96 92.96 0 0 1 1078.16880401461 1089.88692421753 L1078.16122542741 1089.88990184433 A25.9 25.9 0 0 1 1090.24658847953 1081.61434753727 L1090.24874278373 1081.61085909906 A16.78 16.78 0 0 0 1100.89570899766 1071.22811211085 L1100.89989026665 1071.2264344214 A139.33 139.33 0 0 1 1097.69176532147 1057.57295866717 L1097.69 1057.58 L1097.69 1055.49 L1127.47689004658 1055.13211614839 A5.65 5.65 0 0 0 1125.79505256019 1050.20673359892 L1125.79986661148 1050.20259636112 A44.78 44.78 0 0 1 1115.83112231306 1036.03048786704 L1115.8185836077 1036.03896929444 A4.78 4.78 0 0 0 1111.02347113803 1033.39691379081 L1111.03 1033.39 L1102.12981650066 1034.34854188213 A21.36 21.36 0 0 1 1114.18708746429 1025.1374325784 L1114.18624306613 1025.13748742231 A62.52 62.52 0 0 1 1140.92711659578 1023.17774346431 L1140.93232308513 1023.18653856534 A2.3 2.3 0 0 0 1143.44900803443 1021.61586388573 L1143.44468520534 1021.61100011838 A17.3 17.3 0 0 1 1135.71139708185 1016.73273659082 L1135.70901760896 1016.73569331617 A130.87 130.87 0 0 1 1102.56196802096 979.468745878591 L1102.5642502711 979.47129500461 A3.96 3.96 0 0 0 1099.24813202022 977.975671743628 L1099.24329252007 977.971932749575 A68.47 68.47 0 0 1 1059.57685725734 967.840146056234 L1059.58 967.84 L1056.62 968.22 L1042.33933446467 986.935408787896 A2.72 2.72 0 0 0 1042.33933446467 990.884591212104 L1042.35 990.89 L1044.62407818495 994.214135760065 A3.55 3.55 0 0 0 1051.44782697773 993.661485429466 L1051.44384711515 993.660398291302 A6.11 6.11 0 0 1 1059.92500941117 993.224373068929 L1059.9332060536 993.224987078288 A36.33 36.33 0 0 1 1072.25423170751 1017.47208809829 L1072.25 1017.47 L1051.483711512 1018.91782548887 A29.06 29.06 0 0 1 1042.96941518104 1030.75477414364 L1042.97 1030.76 L1042.91200802995 1035.32993191536 A10.6 10.6 0 0 1 1032.57932994518 1022.53701057593 L1032.59351585477 1022.53791677181 A13.56 13.56 0 0 0 1033.21582453961 1007.91262456304 L1033.20407716213 1007.9163703662 A2.47 2.47 0 0 0 1028.95166746497 1007.88973732203 L1028.94530138221 1007.88428235894 A30.52 30.52 0 0 0 1024.89976765121 1027.84707824924 L1024.90066014072 1027.84733376531 A5.02 5.02 0 0 1 1022.69901843593 1034.4822526314 L1022.70448588092 1034.48440128595 A34.71 34.71 0 0 1 1010.1618946019 1038.23390757052 L1010.15595333007 1038.23100402745 A74.35 74.35 0 0 0 998.519324090442 1013.07449320954 L998.521570381025 1013.07327384812 A6.76 6.76 0 0 0 987.940140840365 1014.1412836009 L987.942505579062 1014.14417769193 A16.14 16.14 0 0 1 987.20451821217 999.093955576335 L987.203570007541 999.095703953382 A12.4 12.4 0 0 1 1007.8693318011 996.287192925144 L1007.87268222214 996.283920745392 A2.36 2.36 0 0 0 1011.70772507896 996.65066188441 L1011.70834560287 996.648227498811 A25.41 25.41 0 0 0 1016.80075939392 987.353526727684 L1016.79640794178 987.356158948115 A1.92 1.92 0 0 0 1015.18000003351 984.4 L1015.18 984.39 L997.078075574797 984.449118941676 A14.88 14.88 0 0 1 984.585180994976 977.397512756302 L984.578522514201 977.402693454287 A4.14 4.14 0 0 1 985.445963873719 970.95452219481 L985.44408331536 970.944194923528 A31.97 31.97 0 0 0 1001.01680159178 935.023125576843 L1001.02503215335 935.028520202402 A40.34 40.34 0 0 1 1024.07630130638 959.118134780052 L1024.06540283945 959.11622252758 A1.72 1.72 0 1 0 1027.48644873679 958.764517497871 L1027.48437504047 958.768794966418 A75.6 75.6 0 0 0 1021.37214168094 937.107495850582 L1021.37499599931 937.105261013177 A40.91 40.91 0 0 0 1045.67348814111 935.443825786214 L1045.67078210354 935.44370407074 A3.04 3.04 0 0 0 1047.23233628549 931.14249684737 L1047.22464726751 931.140599050222 A9.3 9.3 0 0 0 1033.41869538928 928.251678368044 L1033.42414653623 928.258300035583 A7.73 7.73 0 0 1 1022.62367067924 930.619224976701 L1022.61846062192 930.618858064685 A15.64 15.64 0 0 1 1017.82211987692 909.464564587472 L1017.81914392163 909.468788441699 A8.45 8.45 0 0 1 1024.40230349228 904.508304071087 L1024.40351061378 904.509230449722 A49.79 49.79 0 0 1 1028.33905830242 905.158763706172 L1028.34548172606 905.156424248067 A25.34 25.34 0 0 0 1056.26120996369 891.415935553752 L1056.25655298445 891.415475021164 A3.54 3.54 0 0 1 1061.86151134894 891.830657191183 L1061.86866135099 891.830545651986 A10.15 10.15 0 0 0 1067.19667882587 895.914475058256 L1067.19774740581 895.920902682598 A5.64 5.64 0 0 1 1070.07237120443 904.497256132845 L1070.06630058714 904.49373144421 A10.95 10.95 0 0 0 1073.5496316904 920.202470136942 L1073.55230964362 920.197302424063 A2.5 2.5 0 0 0 1076.68844443357 917.691821701322 L1076.68240801207 917.696499871349 A3.87 3.87 0 0 1 1080.49092762726 913.6904508719 L1080.5 913.69 L1090.28808807646 913.975204994474 A40.58 40.58 0 0 1 1110.19611432031 920.813653734086 L1110.19411699104 920.818919675057 A2.64 2.64 0 0 0 1113.53529608835 916.76177343376 L1113.537967304 916.76442656885 A33.88 33.88 0 0 0 1102.92136380158 909.588825600532 L1102.91742722151 909.590376014329 A30.96 30.96 0 0 1 1132.79634603021 927.166211366145 L1132.80650362596 927.165885596354 A20.36 20.36 0 0 0 1142.35702616764 916.454110648133 L1142.34835171686 916.447786946142 A26.15 26.15 0 0 0 1148.84308053807 931.648145802078 L1148.8484482033 931.651219750356 A30.2 30.2 0 0 1 1171.12629795947 925.861843454036 L1171.11990514845 925.865640581553 A9.81 9.81 0 0 0 1167.62741204965 936.884154367716 L1167.62448200706 936.883600201907 A3.76 3.76 0 0 0 1173.64542140834 938.537543802553 L1173.64140529649 938.535819729265 A12.27 12.27 0 0 1 1180.77227236656 933.032706316704 L1180.77670928003 933.028308254505 A196.27 196.27 0 0 1 1211.4644762369 960.884814149916 L1211.46702181155 960.887015546541 A10.27 10.27 0 0 1 1212.29285125883 973.494459065183 L1212.29058838196 973.490641608351 A154.86 154.86 0 0 1 1221.98740489784 966.066115951057 L1221.9795429766 966.063365990663 A16.84 16.84 0 0 0 1212.92394422374 950.531747384442 L1212.92274211634 950.533225600184 A77.3 77.3 0 0 1 1272.37702156319 935.018586860988 L1272.38204162289 935.028094510665 A11.58 11.58 0 0 0 1281.5034738026 933.884023060635 L1281.49364576192 933.875880982611 A56.2 56.2 0 0 0 1308.87557980286 880.024734890069 L1308.87989929689 880.024538118811 A19.15 19.15 0 0 0 1303.63136624895 868.614681973758 L1303.63 868.62 L1303.17635486298 892.344952288691 A29.24 29.24 0 0 1 1286.52019631372 915.389778014054 L1286.51608053331 915.386692979901 A27.48 27.48 0 0 0 1295.8202610783 892.226592470552 L1295.81729976846 892.226433070679 A10.51 10.51 0 0 0 1291.55563940851 882.797657190872 L1291.55791819697 882.800520887997 A13.74 13.74 0 0 1 1283.180009975 870.166556356829 L1283.18614712223 870.167178700853 A14.66 14.66 0 0 0 1279.35118039454 853.068374531079 L1279.35318611722 853.073548645271 A139.47 139.47 0 0 1 1230.45179787762 751.424611161627 L1230.44562137232 751.423818196362 A80.75 80.75 0 0 0 1225.50825564673 720.22207537223 L1225.50325750383 720.225455331556 A12.15 12.15 0 0 0 1219.35768406071 712.805136831986 L1219.36 712.8 A0 0 0 0 0 1219.36 712.8 Z" style="fill:rgb(0,0,0);" />
<path d=" M1045.40369317338 1034.6194771104 A21.98 21.98 0 0 1 1053.82254049574 1053.69074664681 L1053.81929618556 1053.68795390961 A37.56 37.56 0 0 0 1068.76294892597 1022.2547474186 L1068.76 1022.25 L1053.99 1022.08 L1050.29 1028.76 L1045.42 1034.6 Z" style="fill:rgb(255,0,0);" />
<path d=" M1417.95261937982 777.291396050675 A59.85 59.85 0 0 1 1403.50742803173 801.746857054403 L1403.50974439562 801.748605744971 A147.91 147.91 0 0 1 1448.61877330505 835.073543996878 L1448.62229041993 835.072335118863 A60.52 60.52 0 0 0 1471.6847507707 784.258878812082 L1471.68230876639 784.264463066579 A78.51 78.51 0 0 1 1448.13469089027 822.818935910559 L1448.13282885971 822.812417365235 A169.29 169.29 0 0 0 1415.1904920537 799.857601146225 L1415.18346958657 799.856821812217 A51.83 51.83 0 0 0 1424.28213638595 777.417992995325 L1424.29 777.42 Z" style="fill:rgb(255,255,255);" />
<path d=" M1363.79706929978 682.305592492527 A18.42 18.42 0 0 1 1348.99551750929 674.288082139973 L1348.99475149135 674.292040538611 A47 47 0 0 0 1347.02121002191 706.60878142628 L1347.01486384557 706.600097357602 A27.07 27.07 0 0 0 1363.78985570388 682.301019085751 L1363.8 682.31 Z" style="fill:rgb(255,0,0);" />
<path d=" M1295.87737360415 695.424839999295 A46.39 46.39 0 0 1 1275.39215615023 718.610388891128 L1275.38772397079 718.600441731175 A3.34 3.34 0 1 0 1279.01953266026 724.187841540902 L1279.02076075239 724.185419519786 A45.99 45.99 0 0 0 1297.36305776434 706.774198136446 L1297.35666586676 706.776564843967 A14.52 14.52 0 0 0 1299.05676977199 696.400317909236 L1299.05600698315 696.401397763884 A3.43 3.43 0 0 0 1297.28207931093 694.066658899508 L1297.28969759754 694.057237725678 A1.04 1.04 0 0 0 1295.86863000451 695.422066207239 Z" style="fill:rgb(255,255,255);" />
<path d=" M1398.3889943634 742.780029980584 A15.14 15.14 0 0 1 1413.81641773579 760.722791380531 L1413.81497961738 760.720673249164 A42.13 42.13 0 0 1 1383.63373725592 758.708590866492 L1383.63 758.72 Z" style="fill:rgb(255,0,0);" />
<path d=" M1143.44548758625 1021.60412129647 A17.09 17.09 0 0 1 1135.70728360776 1016.74010758218 L1135.7132924444 1016.73429669433 A534.18 534.18 0 0 1 1139.91320406134 973.187847066296 L1139.91481824119 973.184284534654 A49.48 49.48 0 0 1 1169.53485384607 985.783851430317 L1169.53663519197 985.781955040374 A27.01 27.01 0 0 0 1176.83072003551 968.320358743045 L1176.82664349305 968.328395950784 A93.49 93.49 0 0 0 1142.12378111317 952.634745225985 L1142.12060905817 952.621881366282 A3.67 3.67 0 0 1 1139.2503302138 949.089230684209 L1139.24642215689 949.091575252491 A72.1 72.1 0 0 1 1202.90894245052 983.575438795685 L1202.91692029281 983.580328236965 A93.23 93.23 0 0 1 1226.34730035146 963.244527698923 L1226.3412054576 963.238573812785 A3.26 3.26 0 0 1 1231.8732663008 965.230115623137 L1231.87107622839 965.225804039131 A53.09 53.09 0 0 0 1236.95485803506 986.44506659916 L1236.9600539433 986.454299441491 A49.14 49.14 0 0 1 1254.11485160994 971.953929665964 L1254.11133449102 971.946662835117 A67.96 67.96 0 0 0 1270.11268496615 958.153775369126 L1270.1139668569 958.156458175706 A132.21 132.21 0 0 1 1276.08218945867 983.797709702704 L1276.07361789903 983.791423284805 A186.47 186.47 0 0 1 1288.96940371157 973.478306450549 L1288.97779206769 973.480401818859 A25.17 25.17 0 0 1 1306.9194982751 968.761772168345 L1306.91965526264 968.769130565983 A214.92 214.92 0 0 0 1307.4723489592 991.094495786461 L1307.46276922806 991.086379721677 A52.13 52.13 0 0 1 1327.8000293607 985.781007887961 L1327.8 985.79 L1327.80168398554 993.75140304109 A57.54 57.54 0 0 0 1303.70863315506 1004.36118628829 L1303.70661849408 1004.35846121895 A102.78 102.78 0 0 1 1300.95563059188 976.477804611633 L1300.9561629619 976.479539173745 A11.29 11.29 0 0 0 1293.98396833544 978.275995871462 L1293.98352780176 978.269207859103 A123.53 123.53 0 0 0 1272.32010811748 996.17468635573 L1272.32339914707 996.175091805429 A134.15 134.15 0 0 0 1267.68131651661 969.869957432099 L1267.68402833545 969.875646421844 A59 59 0 0 1 1253.53619326545 980.928641996683 L1253.53078345498 980.922299982687 A47.79 47.79 0 0 0 1235.18230079773 999.270781999458 L1235.18588431981 999.275437813189 A66.87 66.87 0 0 1 1225.90140626386 974.516831346911 L1225.90303513074 974.511834654353 A106.31 106.31 0 0 0 1200.48173664578 997.280474637344 L1200.47594926174 997.282828044644 A39.94 39.94 0 0 0 1183.45537669762 972.525632987506 L1183.45735208242 972.523554755792 A50.32 50.32 0 0 1 1170.19525282128 994.18498214782 L1170.20411768884 994.182614797137 A35.3 35.3 0 0 0 1146.10787042359 981.581825667502 L1146.10260472364 981.583701987927 A224.79 224.79 0 0 0 1143.45000510168 1021.59360115904 L1143.45 1021.6 Z" style="fill:rgb(255,255,255);" />
<path d=" M1348.22931184766 846.341263096802 A52.05 52.05 0 0 1 1329.28475963331 846.047711493012 L1329.2824629879 846.050729760645 A121.93 121.93 0 0 0 1324.3291569279 799.28567931599 L1324.32989534971 799.27677186038 A59.87 59.87 0 0 1 1336.42255354886 841.819629917633 L1336.41703135311 841.818232844841 A12.63 12.63 0 0 1 1348.22040301819 846.335574023183 L1348.22 846.34 Z" style="fill:rgb(255,255,255);" />
<path d=" M1370.7400001213 859.88 A6.95 6.95 0 0 1 1364.1080967179 850.851452705172 L1364.10283708347 850.85823497355 A16.98 16.98 0 0 0 1363.22879756519 838.47600347718 L1363.22908368107 838.472887528895 A23.53 23.53 0 0 1 1370.73699070985 859.885419178516 L1370.74 859.89 Z" style="fill:rgb(255,255,255);" />
<path d=" M1483.9020668302 667.001838057155 A46.72 46.72 0 0 0 1495.44512912185 691.049893454024 L1495.44301563693 691.047257557745 A33.23 33.23 0 0 0 1509.73750151761 661.496146515838 L1509.73577331484 661.502551202146 A36.3 36.3 0 0 1 1483.89714338909 667.000133976515 L1483.89 667 Z" style="fill:rgb(255,0,0);" />
<path d=" M1318.14502998898 1272.00964406139 A2.16 2.16 0 0 0 1316.94826421555 1274.7964598741 L1316.95243701249 1274.79793671129 A4.49 4.49 0 0 0 1319.73519509414 1277.23622906252 L1319.73793251997 1277.2303965045 A3.93 3.93 0 0 0 1322.69694846779 1276.95476660128 L1322.69439357003 1276.95355532392 A162.97 162.97 0 0 0 1336.47181897505 1271.16788066955 L1336.46708971558 1271.16206742525 A9.12 9.12 0 0 1 1344.29291028442 1271.16206742525 L1344.29704024492 1271.16424014945 A15.07 15.07 0 0 0 1361.86731695129 1268.78964680494 L1361.86254139407 1268.7932630316 A6.57 6.57 0 0 0 1361.83769497617 1260.89371063378 L1361.83878723468 1260.89414151946 A2.48 2.48 0 0 0 1358.04874673395 1261.62861758062 L1358.05017906951 1261.62468204885 A6.89 6.89 0 0 1 1351.99846029545 1266.21538968811 L1351.99954108038 1266.20763655687 A8.23 8.23 0 0 1 1344.34407254946 1263.21201870868 L1344.33790081936 1263.2133519721 A3.9 3.9 0 0 0 1338.91363181428 1263.22154616268 L1338.90969084779 1263.22168328989 A57.65 57.65 0 0 1 1318.61051901281 1271.87075125681 L1318.60952914504 1271.87234156262 A3.74 3.74 0 0 0 1318.14475491283 1272.00339190257 Z" style="fill:rgb(255,255,255);" />
<path d=" M1026.56484508072 1278.88007788018 A35.58 35.58 0 0 0 1064.15284712276 1276.86192979785 L1064.15174311731 1276.87197749568 A117.86 117.86 0 0 0 1043.33724234816 1261.98645713144 L1043.34 1261.98 Z" style="fill:rgb(255,0,0);" />
<path d=" M1187.84980701211 1037.56875367826 A138.8 138.8 0 0 1 1211.15352641768 1072.72873536582 L1211.14919557329 1072.73542686597 A46.95 46.95 0 0 0 1221.09671314948 1044.93689691705 L1221.09156684924 1044.93113065955 A54.37 54.37 0 0 1 1229.70189170674 1068.27085393229 L1229.7136359464 1068.27677166164 A1062.64 1062.64 0 0 1 1230.64196088145 1100.53563246257 L1230.63881161291 1100.53356158744 A68.43 68.43 0 0 0 1249.30818278116 1071.78001778118 L1249.30720878461 1071.78263434614 A74.7 74.7 0 0 1 1246.34954022836 1100.18571520177 L1246.34338173053 1100.17717193196 A21.91 21.91 0 0 0 1245.39806871912 1107.16456384649 L1245.40313228222 1107.16768895378 A35.66 35.66 0 0 0 1245.95974238273 1112.54897002307 L1245.96006756476 1112.54420293547 A411.33 411.33 0 0 1 1303.53150961722 1111.00668740717 L1303.53429772636 1111.00391308051 A116.65 116.65 0 0 1 1340.93499174992 1119.53718238377 A116.65 116.65 0 0 1 1397.15932355875 1168.26310878842 L1397.15404096328 1168.27389810978 A6.82 6.82 0 0 0 1397.50382787142 1162.13933152431 L1397.49801981141 1162.1413345214 A62.17 62.17 0 0 0 1383.15020264693 1141.48690377678 L1383.15363384987 1141.47905455595 A114.41 114.41 0 0 0 1321.52436914687 1106.8271366064 L1321.5228184371 1106.8348159246 A299.37 299.37 0 0 0 1250.05833221521 1105.71892091823 L1250.06590662906 1105.71552104463 A88.24 88.24 0 0 0 1250.94727456821 1055.15118120422 L1250.94171140895 1055.15002642545 A147.37 147.37 0 0 1 1234.17999602602 1088.40089391073 L1234.18 1088.4 L1234.23213167347 1070.47259262688 A51.18 51.18 0 0 0 1219.86762982097 1035.80891471057 L1219.86659398164 1035.80083170669 A23.88 23.88 0 0 0 1216.45929501549 1045.34126463683 L1216.46225744899 1045.3432165959 A34 34 0 0 1 1211.42038811831 1061.83148491375 L1211.42662811351 1061.83396619084 A46.99 46.99 0 0 0 1187.84981594096 1037.57575427061 L1187.85 1037.57 Z" style="fill:rgb(255,255,255);" />
<path d=" M1141.97848162444 1223.40726552158 A59.9 59.9 0 0 0 1228.06182362397 1234.33281581826 L1228.06788752804 1234.33847962318 A206.24 206.24 0 0 1 1253.99496313445 1216.32555245033 L1253.98897320025 1216.3266507699 A71.4 71.4 0 0 1 1292.77977868065 1206.55955797355 L1292.78376561332 1206.56954606453 A662.08 662.08 0 0 1 1302.20159214232 1206.98778321829 L1302.20324454506 1206.96969221429 A22.86 22.86 0 0 0 1325.17645739165 1191.03159235403 L1325.17690398483 1191.03527517242 A26.25 26.25 0 0 1 1292.40868374058 1197.15464221463 L1292.41191654186 1197.16360485113 A83.34 83.34 0 0 0 1224.23333661438 1200.26701841588 L1224.230260957 1200.25780223565 A126.43 126.43 0 0 0 1192.91379775875 1222.62112188375 L1192.91308708349 1222.62772226527 A37.07 37.07 0 0 1 1141.98203081378 1223.41735149344 Z" style="fill:rgb(255,0,0);" />
<path d=" M1097.68595283449 1057.57115538979 A19.26 19.26 0 0 1 1108.75261537577 1070.51033747665 L1108.75357390212 1070.51424569916 A50.53 50.53 0 0 0 1122.77124061984 1099.62695352915 L1122.77 1099.62 L1107.09 1108.29 L1121.48128038219 1125.99630652343 A44.59 44.59 0 0 0 1158.55092491067 1135.86309899615 L1158.54955472835 1135.86391922226 A0.82 0.82 0 0 1 1159.28559774226 1137.24399937653 L1159.28663425277 1137.25104910232 A66.77 66.77 0 0 0 1147.48436576099 1153.66357226472 L1147.47423100401 1153.65846098858 A27.87 27.87 0 0 0 1145.07706259689 1139.82864617532 L1145.08765810695 1139.8353957926 A34.59 34.59 0 0 1 1116.500383254 1130.6136975851 L1116.5008595209 1130.61228807616 A207.17 207.17 0 0 1 1070.76310069187 1166.94428503901 L1070.76036222111 1166.93674293716 A1.92 1.92 0 0 1 1068.36697943054 1163.99104210352 L1068.36230142959 1163.98935934982 A1432.65 1432.65 0 0 0 1111.14864620779 1125.07593006356 L1111.15 1125.08 L1098.06 1107.19 L1111.33902583811 1097.22378594429 A139.33 139.33 0 0 1 1097.69177186724 1057.57299455155 L1097.69 1057.58 Z" style="fill:rgb(255,255,255);" />
<path d=" M1090.14274778889 1244.31801387401 A60.21 60.21 0 0 1 1090.5212023635 1268.53911233769 L1090.51523262432 1268.54765878268 A24.89 24.89 0 0 0 1111.8361200607 1245.20822784134 L1111.84 1245.2 Z" style="fill:rgb(255,0,0);" />
<path d=" M1340.48991346854 1151.11864831247 A1.92 1.92 0 0 1 1342.0803929489 1147.77864056845 L1342.08 1147.78 L1351.49729849022 1147.91883389264 A2.33 2.33 0 0 1 1353.99329012954 1149.82802866389 L1354.00064092602 1149.82535922654 A41.29 41.29 0 0 1 1355.86786755912 1166.12117956171 L1355.86738702724 1166.11984613559 A519.1 519.1 0 0 1 1353.06170398971 1191.43031290666 L1353.06256564416 1191.42996577505 A72.33 72.33 0 0 1 1348.76433701745 1208.01211909859 L1348.75349462582 1208.01419559933 A22.11 22.11 0 0 0 1356.32064457718 1231.91858751592 L1356.32637465511 1231.92033641814 A2.02 2.02 0 0 1 1355.78790839738 1234.97057723694 L1355.78695469556 1234.9736559378 A7.77 7.77 0 0 1 1346.54233684331 1233.85792597284 L1346.54318041388 1233.8596183648 A31.98 31.98 0 0 1 1340.28000559596 1214.86891870651 A31.95 31.95 0 0 1 1342.39808248525 1203.41062950188 L1342.39339422853 1203.40342726124 A128.66 128.66 0 0 0 1346.5379824227 1160.52287234479 L1346.53991052547 1160.52287326557 A11.66 11.66 0 0 0 1340.4823480906 1151.11770842257 Z" style="fill:rgb(255,255,255);" />
<path d=" M1403.59594628948 1269.42701940918 A3.98 3.98 0 0 0 1407.6793019931 1262.6097224154 L1407.67762242074 1262.61496351867 A37.98 37.98 0 0 0 1396.1563357261 1254.4445384175 L1396.15595109699 1254.44470518097 A3.35 3.35 0 0 0 1391.88597772352 1259.21119027255 L1391.89 1259.21 Z" style="fill:rgb(255,255,255);" />
<path d=" M1419.32612868453 1252.36811274028 A17.94 17.94 0 0 0 1413.47979033076 1240.18824344531 L1413.47673973191 1240.19323808502 A32.28 32.28 0 0 0 1401.36306969025 1231.02793120828 L1401.3660691427 1231.02694473131 A3.64 3.64 0 0 1 1401.09438923392 1225.46148892922 L1401.09317874353 1225.45550956982 A3.73 3.73 0 0 1 1405.27574137694 1224.84269730675 L1405.27723573362 1224.8400137431 A28.11 28.11 0 0 1 1423.06269030977 1252.44781171836 L1423.06751800146 1252.44631466256 A1.87 1.87 0 0 1 1419.33007541934 1252.36679472086 Z" style="fill:rgb(255,255,255);" />
<path d=" M1176.99175685215 707.113909569299 A28.46 28.46 0 0 0 1179.71449675017 735.754252452484 L1179.70558640039 735.764436326504 A167.88 167.88 0 0 1 1192.69221860421 805.440082508116 L1192.70081171795 805.434817767276 A10.06 10.06 0 0 0 1199.82062905541 809.164246630619 L1199.82391537879 809.16862941696 A105.44 105.44 0 0 1 1248.41447137026 849.6790319475 L1248.414291499 849.680207212077 A67.84 67.84 0 0 1 1272.82972056295 856.982018702394 L1272.82993466459 856.979903022231 A9.84 9.84 0 0 1 1277.80034978404 868.235637936302 L1277.79236444924 868.230946353597 A14.1 14.1 0 0 0 1284.91734605791 884.361014815328 L1284.92038593239 884.35763472184 A13.2 13.2 0 0 1 1284.23578690873 901.928971097348 L1284.23407654311 901.928974029933 A66.17 66.17 0 0 1 1217.45162345137 911.082758692232 L1217.45233693293 911.080176248076 A13.56 13.56 0 0 1 1205.41377076038 905.823901258502 L1205.4194032162 905.824910472645 A60.74 60.74 0 0 1 1185.4920307023 905.084630108911 L1185.49043998949 905.083906408375 A139.04 139.04 0 0 1 1131.49719365568 875.462096587113 L1131.49298877047 875.467796436125 A18.14 18.14 0 0 0 1115.8996852146 868.002855440454 L1115.90598443504 868.000762312249 A62.89 62.89 0 0 1 1101.9500399689 867.14573390193 L1101.94724452066 867.142359448869 A6.59 6.59 0 0 0 1107.72545527054 858.055299410131 L1107.72511518183 858.056721640444 A14.19 14.19 0 0 0 1096.81700272703 849.434258888367 L1096.81450498495 849.443276648676 A14.11 14.11 0 0 0 1081.8691240967 869.443182433075 L1081.86918215816 869.444071001912 A13.3 13.3 0 0 1 1072.79332482691 851.580448141566 L1072.80220972477 851.581263692842 A25.02 25.02 0 0 1 1085.60380138475 838.176727040271 L1085.59265030084 838.178330970149 A34.36 34.36 0 0 1 1068.65 808.56000119939 L1068.65745886996 808.554733381287 A34.78 34.78 0 0 0 1060.79762425898 784.037831839223 L1060.79394801325 784.032412920133 A8.32 8.32 0 0 0 1050.30800155293 780.506127376855 L1050.31409592676 780.515043322162 A37.53 37.53 0 0 1 1089.04082590444 777.646396860394 L1089.0379503715 777.648461621205 A3.1 3.1 0 0 0 1094.05902435874 774.326306178469 L1094.05306075189 774.324326419318 A16.53 16.53 0 0 1 1099.65241895711 764.159488054044 L1099.64973882363 764.163474645246 A13.62 13.62 0 0 0 1106.0943067514 777.15953198097 L1106.09574822052 777.159929001538 A5.5 5.5 0 0 1 1106.67630533707 771.645410680913 A5.5 5.5 0 0 1 1110.90967598219 769.403649366362 L1110.91235580508 769.397722303156 A3.56 3.56 0 0 1 1107.75341684564 765.704063262534 L1107.75352182695 765.711887149678 A97.44 97.44 0 0 1 1122.78368614519 717.840014639856 L1122.7809182901 717.835084426392 A4.26 4.26 0 0 0 1122.31592496337 712.81201801141 L1122.31228575754 712.809194124539 A56.43 56.43 0 0 0 1113.3081746761 704.638584306699 L1113.30706612893 704.646394554121 A8.29 8.29 0 0 0 1105.09206231136 703.761701640898 L1105.08930735807 703.756256328386 A48.63 48.63 0 0 0 1092.02743577939 712.223642332363 L1092.02663128182 712.224812997314 A3.14 3.14 0 0 1 1086.37999572197 713.339742418718 L1086.38618540133 713.337494990777 A5.18 5.18 0 0 0 1080.44361910582 711.392192380284 L1080.44488350579 711.401191047843 A9.2 9.2 0 0 0 1074.50429341066 722.289325866402 L1074.50663946061 722.294561445642 A10.39 10.39 0 0 1 1084.89706734059 723.225467996856 L1084.90000426883 723.221619671066 A18.33 18.33 0 0 1 1084.22531349543 753.613153521809 L1084.21771938856 753.615592922037 A82.63 82.63 0 0 0 1061.40503749793 735.008772128463 L1061.41381338605 735.004024844328 A53.46 53.46 0 0 1 1054.16152712183 744.190246428687 L1054.15296011645 744.185948797511 A4.64 4.64 0 0 1 1047.0339333816 745.122632234737 L1047.04229955708 745.118020724317 A10.34 10.34 0 0 1 1048.62084618567 728.823579080107 L1048.62485677475 728.824698084855 A5.65 5.65 0 0 0 1049.35563973778 719.80119170644 L1049.34690750735 719.808322863414 A7.24 7.24 0 0 0 1037.32203365094 725.068409994865 L1037.3185850268 725.066902463516 A76.24 76.24 0 0 1 1035.16321683599 741.348048869492 L1035.15990393613 741.341858675203 A19.87 19.87 0 0 1 1009.26910318701 751.60859504176 L1009.27 751.61 L1010.94054515031 721.362791300317 A22.01 22.01 0 0 1 1000.29587047722 709.946760846149 L1000.28909779335 709.943752589571 A55.44 55.44 0 0 1 1004.62145829364 704.131672978982 L1004.62141012885 704.134736991729 A5.11 5.11 0 0 1 1011.71045023972 703.466381260327 L1011.70247380736 703.460541964494 A34.34 34.34 0 0 0 1021.74052244422 709.057988578184 L1021.7406020697 709.065699986793 A9.13 9.13 0 0 0 1031.32072144385 706.840170642144 L1031.3183776136 706.832605537471 A4.77 4.77 0 0 0 1025.77436790662 699.78054256657 L1025.77853352613 699.786294006496 A5.4 5.4 0 0 1 1022.79571515082 700.545746658565 L1022.80158824882 700.543084363646 A8.78 8.78 0 0 1 1014.5605373501 689.950788251496 L1014.56075163918 689.951589126465 A5.2 5.2 0 0 1 1021.14724667966 685.028458655285 L1021.14696270814 685.031258839805 A4.03 4.03 0 0 1 1023.6701400275 687.617615212306 L1023.66673032537 687.615934173278 A2.69 2.69 0 0 0 1028.14533991027 688.688802008712 L1028.14 688.69 L1038.58840439496 665.194314563898 A4.47 4.47 0 0 0 1036.23613429937 658.137505581471 L1036.23664262852 658.130643094857 A20.91 20.91 0 0 1 1050.86335805527 658.130643350141 L1050.86094714521 658.14059038466 A23.34 23.34 0 0 1 1056.34932395279 687.385167372094 L1056.34021590451 687.380889067129 A2.88 2.88 0 0 0 1059.16782906414 691.049419351074 L1059.16923267671 691.038903218696 A5.44 5.44 0 0 0 1064.06901663362 683.477889643743 L1064.0734417997 683.480446395143 A2.44 2.44 0 0 1 1066.82194936894 681.190023225066 L1066.82756872064 681.184265577671 A17.58 17.58 0 0 1 1075.40926717651 684.771412620066 L1075.40251960956 684.778641694315 A5.04 5.04 0 0 0 1081.84464406742 677.173032046942 L1081.84135111454 677.174466417687 A54.87 54.87 0 0 1 1071.47870800192 669.627947050881 L1071.48163326326 669.630124088054 A6.58 6.58 0 0 1 1069.37000657408 664.790698665992 L1069.37001136807 664.783914690036 A11.38 11.38 0 0 1 1078.27616485264 653.692140635402 L1078.27107773809 653.701608444737 A10.5 10.5 0 0 0 1089.87520114188 662.181048796782 L1089.87900520049 662.179834470664 A41.25 41.25 0 0 0 1109.6521511326 654.185763204855 L1109.65224093029 654.177150722314 A5.09 5.09 0 0 1 1117.36356814524 653.153399257301 L1117.36308351646 653.161198699742 A10.62 10.62 0 0 1 1120.14448071486 657.239909717954 L1120.14493519327 657.231965510076 A8.17 8.17 0 0 1 1115.48386553012 667.749535058644 L1115.48129189807 667.754530168254 A6.48 6.48 0 0 0 1111.38598659737 673.210249192579 L1111.39343445535 673.210282856228 A3.35 3.35 0 0 0 1115.1628281846 676.831921095182 L1115.16589349468 676.828574068004 A15.68 15.68 0 0 0 1126.86122486177 653.691166868834 L1126.85310391426 653.697291589104 A40.8 40.8 0 0 1 1154.16073306478 679.001627322292 L1154.15678437311 679.006638801584 A47.24 47.24 0 0 0 1170.74984308542 698.743797906121 L1170.75422284714 698.743396585971 A1.88 1.88 0 0 1 1170.72580790622 701.875473941244 L1170.72714724384 701.878885653381 A15.18 15.18 0 0 0 1167.59266999738 724.603848040193 L1167.59720869737 724.597033456586 A16.86 16.86 0 0 1 1176.99643372674 707.104029491601 L1176.99566811441 707.100986966815 A0.01 0.01 0 1 1 1176.99016547895 707.111811683109 Z" style="fill:rgb(0,0,0);" />
<path d=" M1033.01023255316 663.261599149889 A32.43 32.43 0 0 1 1007.79804337893 655.846247401011 L1007.79521658419 655.845922849651 A24.19 24.19 0 0 0 1023.81432808575 682.989423560547 L1023.82 682.98 Z" style="fill:rgb(255,0,0);" />
<path d=" M1062.64658996476 741.971067557745 A94.5 94.5 0 0 1 1044.94406428356 763.701151132409 L1044.94422894074 763.706243672766 A30.44 30.44 0 0 0 1079.1300793829 756.775413963226 L1079.14 756.78 Z" style="fill:rgb(255,0,0);" />
<path d=" M1106.09574853607 777.159929701659 A5.5 5.5 0 0 1 1109.8392309315 769.548818263735 L1109.83660899181 769.547211247384 A37.27 37.27 0 0 1 1137.4172176674 790.17600020543 L1137.41365292781 790.173757954905 A2.47 2.47 0 0 1 1133.26711705412 792.419908007439 L1133.27084509715 792.414846979564 A60.63 60.63 0 0 0 1106.09657088768 777.144702294906 Z" style="fill:rgb(255,255,255);" />
<path d=" M1205.42258364147 905.825035283702 A13.75 13.75 0 0 0 1217.58190606309 911.131971848055 L1217.58326908417 911.137602872414 A21.02 21.02 0 0 0 1232.21959783208 900.061622768087 L1232.21370172086 900.057722851217 A79.09 79.09 0 0 1 1205.41996953069 905.823462420708 L1205.42 905.83 Z" style="fill:rgb(255,255,255);" />
<path d=" M1037.33353267875 870.73804976629 A28.87 28.87 0 0 0 1029.26029649837 899.423808536415 L1029.25524565971 899.421582892179 A18.08 18.08 0 0 0 1049.86470945957 890.834304809438 L1049.86571744941 890.843140086606 A38.45 38.45 0 0 1 1037.32509278103 870.743774604527 L1037.33 870.74 Z" style="fill:rgb(255,0,0);" />
<path d=" M1192.70081160791 805.434817630456 A10.06 10.06 0 0 0 1199.82062888028 809.164246618063 L1199.81728478728 809.163989014082 A52.51 52.51 0 0 1 1183.53749585516 846.64142780881 L1183.53596228608 846.639054993252 A89.49 89.49 0 0 0 1192.69311837428 805.431843395465 L1192.7 805.44 Z" style="fill:rgb(255,255,255);" />
</g>
</svg>
