<?xml version="1.0" encoding="UTF-8"?><!DOCTYPE svg PUBLIC '-//W3C//DTD SVG 1.0//EN' 'http://www.w3.org/TR/2001/REC-SVG-20010904/DTD/svg10.dtd'><svg xmlns:xlink="http://www.w3.org/1999/xlink" xmlns="http://www.w3.org/2000/svg"><!--Gegenereerd door de SIMaD (http://www.dlw.be).-->
<g style="stroke:none;fill-rule:evenodd;" transform="matrix(1,0,0,-1,0,2250)">
<path d=" M65 0 L2435 0 A65 65 0 0 1 2500 65 L2500 2185 A65 65 0 0 1 2435 2250 L65 2250 A65 65 0 0 1 0 2185 L0 65 A65 65 0 0 1 65 0 Z" style="fill:rgb(0,0,0);" />
<path d=" M65 30 L2435 30 A35 35 0 0 1 2470 65 L2470 2185 A35 35 0 0 1 2435 2220 L65 2220 A35 35 0 0 1 30 2185 L30 65 A35 35 0 0 1 65 30 Z" style="fill:rgb(255,255,0);" />
<path d=" M462.07 1842 L533.500063825993 1842.00000000004 A57.14 57.14 0 0 1 590.639999999982 1899.13995412507 L590.639999999982 2034.86004587493 A57.14 57.14 0 0 1 533.500063825993 2091.99999999996 L462.07 2092 Z M497.78 1874.14 L529.930027925268 1874.14000000002 A25 25 0 0 1 554.929999999992 1899.13997992871 L554.929999999992 2034.86002007129 A25 25 0 0 1 529.930027925268 2059.85999999998 L497.78 2059.86 Z" style="fill:rgb(0,0,0);" />
<path d=" M718.14 1895.57 L718.14 1888.42999588574 A21.43 21.43 0 1 0 675.28 1888.43000411426 L675.28 1927.71 L750.28 1927.71 L750.279999999999 1970.57000841476 A53.57 53.57 0 0 1 643.140000000001 1970.56999158524 L643.140000000001 1892.00000841476 A53.57 53.57 0 0 1 750.279999999999 1891.99999158524 L750.28 1895.57 Z M718.14 1956.29 L718.14 1974.14000336622 A21.43 21.43 0 0 1 675.28 1974.13999663378 L675.28 1956.29 Z" style="fill:rgb(0,0,0);" />
<path d=" M880.28 1770.57 L912.42 1770.57 L912.425128730375 1850.62712540995 A44.42 44.42 0 0 1 987.419999999994 1882.84997674174 L987.419999999994 1979.72002325826 A44.42 44.42 0 0 1 912.425128730375 2011.94287459005 L912.42 2011.94 L912.42 2020.57 L880.28 2020.57 Z M912.42 1888.43 L912.42 1974.13999588574 A21.43 21.43 0 0 0 955.28 1974.14000411426 L955.28 1888.43 A21.43 21.43 0 0 0 912.42 1888.43 Z" style="fill:rgb(0,0,0);" />
<path d=" M1037.47 1842 L1069.61 1842 L1069.61000000001 1963.42997855846 A28.57 28.57 0 0 0 1098.1800209429 1991.99999999999 L1117.83 1992 L1117.83 2020.57 L1098.18004862138 2020.56999999997 A46.43 46.43 0 0 1 1069.60763510485 2010.73733411463 L1069.61 2010.74 L1069.61 2020.57 L1037.47 2020.57 Z" style="fill:rgb(0,0,0);" />
<path d=" M1145.48 1892 L1145.48 1970.56999065027 A53.57 53.57 0 0 0 1252.62 1970.57000934973 L1252.62 1892 A53.57 53.57 0 0 0 1145.48 1892 Z M1177.62 1888.43 L1177.62 1974.13999588574 A21.43 21.43 0 0 0 1220.48 1974.14000411426 L1220.48 1888.43 A21.43 21.43 0 0 0 1177.62 1888.43 Z" style="fill:rgb(0,0,0);" />
<path d=" M1328.33 1842 L1364.05 1842 L1404.76 2020.57 L1371.8 2020.57 L1346.19 1908.27 L1320.59 2020.57 L1287.62 2020.57 Z" style="fill:rgb(0,0,0);" />
<path d=" M1447.12 1842 L1447.12 2020.57 L1479.26 2020.57 L1479.26 1842 Z" style="fill:rgb(0,0,0);" />
<path d=" M1448.91 2056.29 L1448.91 2084.86 L1477.48 2084.86 L1477.48 2056.29 Z" style="fill:rgb(0,0,0);" />
<path d=" M1539.11 1842 L1571.25 1842 L1571.25 1974.13999588574 A21.43 21.43 0 0 0 1614.11 1974.14000411426 L1614.11 1842 L1646.25 1842 L1646.24999999999 1979.72002325826 A44.42 44.42 0 0 1 1571.25512873037 2011.94287459005 L1571.25 2011.94 L1571.25 2020.57 L1539.11 2020.57 Z" style="fill:rgb(0,0,0);" />
<path d=" M1766.4 1892 L1766.4 1888.42999588574 A21.43 21.43 0 1 0 1723.54 1888.43000411426 L1723.54 1974.13999588574 A21.43 21.43 0 0 0 1766.4 1974.14000411426 L1766.4 1970.57 L1798.54 1970.57000841476 A53.57 53.57 0 0 1 1691.4 1970.56999158524 L1691.4 1892.00000841476 A53.57 53.57 0 0 1 1798.54 1891.99999158524 Z" style="fill:rgb(0,0,0);" />
<path d=" M1848.6 1842 L1848.6 2020.57 L1880.74 2020.57 L1880.74 1842 Z" style="fill:rgb(0,0,0);" />
<path d=" M1850.39 2056.29 L1850.39 2084.86 L1878.96 2084.86 L1878.96 2056.29 Z" style="fill:rgb(0,0,0);" />
<path d=" M2005.79 1895.57 L2005.79 1888.42999588574 A21.43 21.43 0 1 0 1962.93 1888.43000411426 L1962.93 1927.71 L2037.93 1927.71 L2037.93 1970.57000841476 A53.57 53.57 0 0 1 1930.79 1970.56999158524 L1930.79 1892.00000841476 A53.57 53.57 0 0 1 2037.93 1891.99999158524 L2037.93 1895.57 Z M2005.79 1956.29 L2005.79 1974.14000336622 A21.43 21.43 0 0 1 1962.93 1974.13999663378 L1962.93 1956.29 Z" style="fill:rgb(0,0,0);" />
<path d=" M566.45 1464 L603.03 1464 L609.36 1492.57 L673.54 1492.57 L679.87 1464 L716.45 1464 L661.09 1714 L621.81 1714 Z M616.47 1524.71 L666.43 1524.71 L641.45 1637.51 Z" style="fill:rgb(0,0,0);" />
<path d=" M764.05 1464 L796.19 1464 L796.19 1596.13999588574 A21.43 21.43 0 0 0 839.05 1596.14000411426 L839.05 1464 L871.19 1464 L871.189999999994 1601.72002325826 A44.42 44.42 0 0 1 796.195128730375 1633.94287459005 L796.19 1633.94 L796.19 1642.57 L764.05 1642.57 Z" style="fill:rgb(0,0,0);" />
<path d=" M927.17 1614 L927.170000000009 1496.1400241208 A32.14 32.14 0 0 1 959.310023559851 1464.00000000001 L987.89 1464 L987.89 1492.57 L970.03000785084 1492.58 A10.71 10.71 0 0 0 959.320000000003 1503.29000803776 L959.31 1503.29 L959.31 1614 L991.46 1614 L991.46 1642.57 L959.31 1642.57 L959.31 1714 L927.17 1695.44 L927.17 1642.57 L911.1 1642.57 L911.1 1614 Z" style="fill:rgb(0,0,0);" />
<path d=" M1059.71 1464 L1095.43 1464 L1116.86 1571.14 L1138.29 1464 L1174 1464 L1209.71 1642.57 L1180.58 1642.57 L1157.82 1528.8 L1135.07 1642.57 L1102.29 1642.57 L1079.53 1528.8 L1056.78 1642.57 L1024 1642.57 Z" style="fill:rgb(0,0,0);" />
<path d=" M1319.72 1517.57 L1319.72 1510.42999588574 A21.43 21.43 0 1 0 1276.86 1510.43000411426 L1276.86 1549.71 L1351.86 1549.71 L1351.86 1592.57000841476 A53.57 53.57 0 0 1 1244.72 1592.56999158524 L1244.72 1514.00000841476 A53.57 53.57 0 0 1 1351.86 1513.99999158524 L1351.86 1517.57 Z M1319.72 1578.29 L1319.72 1596.14000336622 A21.43 21.43 0 0 1 1276.86 1596.13999663378 L1276.86 1578.29 Z" style="fill:rgb(0,0,0);" />
<path d=" M1401.91 1464 L1434.05 1464 L1434.05000000001 1585.42997855846 A28.57 28.57 0 0 0 1462.6200209429 1613.99999999999 L1482.27 1614 L1482.27 1642.57 L1462.62004862138 1642.56999999997 A46.43 46.43 0 0 1 1434.04763510485 1632.73733411463 L1434.05 1632.74 L1434.05 1642.57 L1401.91 1642.57 Z" style="fill:rgb(0,0,0);" />
<path d=" M1519.72 1392.57 L1551.86 1392.57 L1551.86512873037 1472.62712540995 A44.42 44.42 0 0 1 1626.85999999999 1504.84997674174 L1626.85999999999 1601.72002325826 A44.42 44.42 0 0 1 1551.86512873037 1633.94287459005 L1551.86 1633.94 L1551.86 1642.57 L1519.72 1642.57 Z M1551.86 1510.43 L1551.86 1596.13999588574 A21.43 21.43 0 0 0 1594.72 1596.14000411426 L1594.72 1510.43 A21.43 21.43 0 0 0 1551.86 1510.43 Z" style="fill:rgb(0,0,0);" />
<path d=" M1744.21 1517.57 L1744.21 1510.42999588574 A21.43 21.43 0 1 0 1701.35 1510.43000411426 L1701.35 1549.71 L1776.35 1549.71 L1776.35 1592.57000841476 A53.57 53.57 0 0 1 1669.21 1592.56999158524 L1669.21 1514.00000841476 A53.57 53.57 0 0 1 1776.35 1513.99999158524 L1776.35 1517.57 Z M1744.21 1578.29 L1744.21 1596.14000336622 A21.43 21.43 0 0 1 1701.35 1596.13999663378 L1701.35 1578.29 Z" style="fill:rgb(0,0,0);" />
<path d=" M1826.4 1464 L1858.54 1464 L1858.54 1596.13999588574 A21.43 21.43 0 0 0 1901.4 1596.14000411426 L1901.4 1464 L1933.54 1464 L1933.53999999999 1601.72002325826 A44.42 44.42 0 0 1 1858.54512873038 1633.94287459005 L1858.54 1633.94 L1858.54 1642.57 L1826.4 1642.57 Z" style="fill:rgb(0,0,0);" />
<path d=" M327.5 158 L359.64 158 L359.64 290.139995885735 A21.43 21.43 0 0 0 402.5 290.140004114265 L402.5 158 L434.64 158 L434.639999999994 295.720023258258 A44.42 44.42 0 0 1 359.645128730375 327.942874590046 L359.64 327.94 L359.64 408 L327.5 408 Z" style="fill:rgb(0,0,0);" />
<path d=" M554.79 211.57 L554.79 204.429995885735 A21.43 21.43 0 1 0 511.93 204.430004114265 L511.93 243.71 L586.93 243.71 L586.929999999999 286.570008414756 A53.57 53.57 0 0 1 479.790000000001 286.569991585244 L479.790000000001 208.000008414756 A53.57 53.57 0 0 1 586.929999999999 207.999991585244 L586.93 211.57 Z M554.79 272.29 L554.79 290.140003366217 A21.43 21.43 0 0 1 511.93 290.139996633783 L511.93 272.29 Z" style="fill:rgb(0,0,0);" />
<path d=" M704.28 211.57 L704.28 204.429995885735 A21.43 21.43 0 1 0 661.42 204.430004114265 L661.42 243.71 L736.42 243.71 L736.419999999999 286.570008414756 A53.57 53.57 0 0 1 629.280000000001 286.569991585244 L629.280000000001 208.000008414756 A53.57 53.57 0 0 1 736.419999999999 207.999991585244 L736.42 211.57 Z M704.28 272.29 L704.28 290.140003366217 A21.43 21.43 0 0 1 661.42 290.139996633783 L661.42 272.29 Z" style="fill:rgb(0,0,0);" />
<path d=" M794.85 308 L794.850000000009 190.140024120799 A32.14 32.14 0 0 1 826.99002355985 158.000000000009 L855.57 158 L855.57 186.57 L837.71000785084 186.580000000003 A10.71 10.71 0 0 0 827.000000000003 197.290008037765 L826.99 197.29 L826.99 308 L859.14 308 L859.14 336.57 L826.99 336.57 L826.99 408 L794.85 389.44 L794.85 336.57 L778.78 336.57 L778.78 308 Z" style="fill:rgb(0,0,0);" />
<path d=" M1064.13 158 L1064.12486002172 166.627114737312 A44.42 44.42 0 0 0 989.130000000001 198.849992247247 L989.13 336.57 L1021.27 336.57 L1021.27 204.430003366217 A21.43 21.43 0 0 1 1064.13 204.429996633783 L1064.13 336.57 L1096.27 336.57 L1096.27 158 Z" style="fill:rgb(0,0,0);" />
<path d=" M1261.99 158 L1297.71 158 L1319.14 265.14 L1340.57 158 L1376.28 158 L1411.99 336.57 L1382.86 336.57 L1360.1 222.8 L1337.35 336.57 L1304.57 336.57 L1281.81 222.8 L1259.06 336.57 L1226.28 336.57 Z" style="fill:rgb(0,0,0);" />
<path d=" M1521.99 211.57 L1521.99 204.429995885735 A21.43 21.43 0 1 0 1479.13 204.430004114265 L1479.13 243.71 L1554.13 243.71 L1554.13 286.570008414756 A53.57 53.57 0 0 1 1446.99 286.569991585244 L1446.99 208.000008414756 A53.57 53.57 0 0 1 1554.13 207.999991585244 L1554.13 211.57 Z M1521.99 272.29 L1521.99 290.140003366217 A21.43 21.43 0 0 1 1479.13 290.139996633783 L1479.13 272.29 Z" style="fill:rgb(0,0,0);" />
<path d=" M1604.18 158 L1636.32 158 L1636.32 408 L1604.18 408 Z" style="fill:rgb(0,0,0);" />
<path d=" M1696.18 158 L1696.18 408 L1728.32 408 L1728.32 277.29 L1769.26 336.57 L1808.32 336.57 L1749.75 251.75 L1808.32 158 L1770.42 158 L1728.32 225.39 L1728.32 158 Z" style="fill:rgb(0,0,0);" />
<path d=" M1833.17 208 L1833.17 286.569990650271 A53.57 53.57 0 0 0 1940.31 286.570009349729 L1940.31 208 A53.57 53.57 0 0 0 1833.17 208 Z M1865.31 204.43 L1865.31 290.139995885735 A21.43 21.43 0 0 0 1908.17 290.140004114265 L1908.17 204.43 A21.43 21.43 0 0 0 1865.31 204.43 Z" style="fill:rgb(0,0,0);" />
<path d=" M1990.36 158 L2022.5 158 L2022.5 290.139995885735 A21.43 21.43 0 0 0 2065.36 290.140004114265 L2065.36 158 L2097.5 158 L2097.5 290.139995885735 A21.43 21.43 0 0 0 2140.36 290.140004114265 L2140.36 158 L2172.5 158 L2172.49999999999 295.720027134634 A44.42 44.42 0 0 1 2090.58256625271 319.533417696065 L2090.57743624103 319.533413769343 A44.42 44.42 0 0 1 2022.50512254403 327.942868720092 L2022.5 327.94 L2022.5 336.57 L1990.36 336.57 Z" style="fill:rgb(0,0,0);" />
<path d=" M902.63 880.22 L902.62 1336 L1597.38 1336 L1597.37998644344 883.4770492353 A347.38 347.38 0 0 0 902.634372931925 880.220010822339 Z" style="fill:rgb(0,0,0);" />
<path d=" M1069.7314543358 1216.11190554316 A94.35 94.35 0 0 0 1037.8764727496 1197.03144331695 L1037.87654481773 1197.03192329562 A51.24 51.24 0 0 0 1002.60473553019 1195.47544083918 L1002.59696678198 1195.47165323997 A52.3 52.3 0 0 1 1014.20616957341 1183.44289723197 L1014.21130241809 1183.44352892186 A59.43 59.43 0 0 0 996.180757430038 1179.43658782243 L996.182125197762 1179.44038238009 A90.67 90.67 0 0 1 960.46173256127 1200.09225423721 L960.461749734158 1200.08838763527 A29.3 29.3 0 0 0 947.296147659221 1191.57582825966 L947.296783025201 1191.57998297686 A32.19 32.19 0 0 1 955.278229645505 1189.80470266584 L955.276442028884 1189.79838240718 A32.94 32.94 0 0 0 973.00759746927 1184.40935160104 L973.015253755993 1184.41956350739 A27.22 27.22 0 0 1 983.454740520369 1178.54306911357 L983.45 1178.53 L960.378815808504 1180.28000296413 A21.1 21.1 0 0 0 949.277562282763 1183.44334122584 L949.274972697474 1183.44222906762 A22.2 22.2 0 0 1 938.966375689778 1163.07889203159 L938.971296898152 1163.07445416074 A12.93 12.93 0 0 0 951.649075578509 1170.24489409719 L951.65 1170.25 L979.02 1169.55 L964.0822525038 1164.59556055655 A44.92 44.92 0 0 0 952.838863509126 1163.09092879552 L952.838107880878 1163.08466355183 A16.23 16.23 0 0 1 944.030839913015 1150.56683112377 L944.019794811425 1150.56975667745 A16.09 16.09 0 0 1 944.524969113612 1144.16917578787 L944.535849706391 1144.16575845052 A3.24 3.24 0 0 1 948.02463463901 1141.84173200506 L948.019238013987 1141.84657217598 A6.54 6.54 0 0 0 949.786918758375 1148.53167854658 L949.792116895495 1148.52782033098 A28.99 28.99 0 0 0 963.390642085045 1153.14415304566 L963.39 1153.14 L992.181322274225 1165.64724012917 A33.62 33.62 0 0 0 984.441565339792 1149.45976204216 L984.440718877828 1149.46271923949 A19.16 19.16 0 0 0 969.344404182352 1144.45058725749 L969.34407140511 1144.45188943663 A19.63 19.63 0 0 1 989.039899936268 1139.99164278626 L989.038601660365 1139.98703593669 A41.86 41.86 0 0 1 1001.39794799903 1161.65142662246 L1001.40796821992 1161.64777455519 A11.6 11.6 0 0 0 1009.599675712 1171.8095907219 L1009.59 1171.81 L1018.29 1174.2 L1018.29583052001 1161.27833368629 A2.45 2.45 0 0 1 1023.11390278264 1161.33098525568 L1023.10184164503 1161.33592438325 A19.2 19.2 0 0 0 1030.13822089032 1175.92702288103 L1030.1408860966 1175.92317531498 A167.62 167.62 0 0 0 1073.95378654714 1197.24239089029 L1073.95406661313 1197.24438291283 A31.53 31.53 0 0 0 1073.18996796163 1183.98817000345 L1073.19770707693 1183.98449970972 A40.09 40.09 0 0 0 1053.47882604078 1174.02947649549 L1053.47300996037 1174.02629798332 A22.59 22.59 0 0 1 1036.4802186296 1158.24359518059 L1036.48514455869 1158.25078293069 A16.72 16.72 0 0 1 1044.26311056379 1140.9316285018 L1044.2621155164 1140.9340380414 A25.89 25.89 0 0 1 1062.12574307117 1136.35584544671 L1062.12447120648 1136.35415500348 A21.27 21.27 0 0 0 1054.73818467781 1146.584005393 L1054.74033905819 1146.58187325306 A11.44 11.44 0 0 0 1058.51550274447 1160.09891871519 L1058.51382213364 1160.1049225377 A43.23 43.23 0 0 1 1070.96699219844 1168.91226489124 L1070.96732512967 1168.9129533053 A26.03 26.03 0 0 1 1077.25419418901 1174.35695086568 L1077.25183359502 1174.35672463754 A26.86 26.86 0 0 0 1074.66358017842 1160.96407487796 L1074.66663047281 1160.97227257996 A90.06 90.06 0 0 1 1068.50523044322 1150.85903794102 L1068.50193109039 1150.85416303516 A9.08 9.08 0 0 1 1069.52523668646 1140.89681823782 L1069.53 1140.89 L1083.92 1125.39 L1095.20910776246 1137.62967595805 A13.75 13.75 0 0 1 1095.84190390064 1155.53335602136 L1095.83774360855 1155.5364146127 A23.77 23.77 0 0 0 1088.88622842417 1173.47633836925 L1088.89013715099 1173.4780123608 A81.89 81.89 0 0 1 1103.99617237795 1160.84343440836 L1103.99317464374 1160.8373595293 A12.91 12.91 0 0 0 1106.19105441279 1144.8192278921 L1106.19 1144.82 L1101.56 1138.37 L1108.40000912627 1138.72825213989 A25.91 25.91 0 0 1 1126.04872462806 1149.98318217992 L1126.04486233854 1149.97562464397 A19.68 19.68 0 0 1 1117.25141356181 1172.9485679055 L1117.25488836424 1172.95226619612 A65.33 65.33 0 0 1 1105.87345720034 1178.22713727351 L1105.87525849945 1178.2369383399 A15.16 15.16 0 0 0 1096.20783360819 1196.2770906753 L1096.20544310221 1196.26879797502 A55.85 55.85 0 0 1 1112.29332427287 1188.20855013005 L1112.2917665436 1188.20915978756 A44.46 44.46 0 0 0 1134.39148723687 1172.73226900952 L1134.3894493059 1172.73115510436 A29.48 29.48 0 0 1 1142.12806733648 1161.55945916112 L1142.13 1161.56 L1141.81 1177.5 L1165.67 1164.83 L1166.32297864329 1148.54726236334 A13.8 13.8 0 0 1 1180.21015416654 1136.43131015665 L1180.21 1136.42 L1185.05177966544 1136.94366651555 A25.79 25.79 0 0 0 1174.8870638405 1160.42195071083 L1174.9 1160.42 L1198.20238212526 1148.26386155569 A25.91 25.91 0 0 0 1211.61922220576 1133.39692447987 L1211.62 1133.39 L1213.50744310191 1143.20501224597 A9.72 9.72 0 0 1 1208.53574599442 1153.66093022431 L1208.53 1153.66 L1188.65 1163.03 L1212.45892783904 1167.26760460835 A19.44 19.44 0 0 0 1229.03283933487 1162.50068248254 L1229.03 1162.5 L1227.4622223458 1168.22434038854 A11.5 11.5 0 0 1 1215.09341749242 1177.2956648345 L1215.09450513726 1177.28763592934 A72.46 72.46 0 0 1 1197.79289657554 1173.42069228152 L1197.79500709899 1173.43444488078 A30.89 30.89 0 0 0 1177.18553827703 1173.38471061662 L1177.18557007861 1173.37847040762 A63.24 63.24 0 0 1 1196.11110618574 1182.48024908733 L1196.10255878734 1182.48421253191 A20.22 20.22 0 0 0 1217.40484679017 1183.74689869831 L1217.39919368469 1183.74291827314 A55.15 55.15 0 0 1 1210.64138263718 1193.56614785265 L1210.64514123503 1193.56568129422 A9.02 9.02 0 0 1 1199.94220866975 1195.8286557312 L1199.94 1195.83 L1174.43617129163 1179.90634716578 A14.35 14.35 0 0 0 1158.50668439094 1179.66419234851 L1158.51 1179.66 L1146.63537063948 1186.04176147369 A42.16 42.16 0 0 1 1161.13406531935 1193.62829727398 L1161.14079291259 1193.62673830622 A65.52 65.52 0 0 0 1132.32116841526 1197.82518023776 L1132.3155242937 1197.83205328473 A92.17 92.17 0 0 0 1099.95628383188 1215.14684820225 L1099.96016366167 1215.1370023175 A32.41 32.41 0 0 0 1105.66035794389 1233.59764476272 L1105.65916177871 1233.6054521643 A168.14 168.14 0 0 1 1115.70317005814 1234.41674654357 L1115.69394168713 1234.40901567379 A115.24 115.24 0 0 1 1129.72510868857 1209.53297951055 L1129.73032078097 1209.53175633854 A21.83 21.83 0 0 1 1154.85122465313 1203.81741503695 L1154.83989967548 1203.81834450425 A80.12 80.12 0 0 0 1132.36678293777 1238.95023999826 L1132.37 1238.95 L1134.66782286873 1239.97159440361 A130.98 130.98 0 0 1 1169.29380940065 1210.77020243905 L1169.28863645583 1210.7740475763 A32.41 32.41 0 0 1 1193.09876649523 1210.73747760528 L1193.09705171293 1210.73941305702 A53.03 53.03 0 0 0 1171.39981982872 1228.74989572938 L1171.4 1228.75 L1154.5 1246.32 L1155.70830573082 1246.49173164438 A112.19 112.19 0 0 1 1198.70162995912 1219.82956075693 L1198.70518850276 1219.82947255421 A30.06 30.06 0 0 1 1229.53170016276 1226.93094617675 L1229.53908351636 1226.92658366353 A99.58 99.58 0 0 0 1172.17277161585 1258.17963890018 L1172.16921296024 1258.18649890242 A77.08 77.08 0 0 1 1210.88589338922 1244.49967530476 L1210.89070687979 1244.49992694646 A41.54 41.54 0 0 1 1242.91399972222 1254.28795558027 L1242.91 1254.29 L1242.91 1124.46 L914.61 1124.46 L914.6 1324.02 L933.634372025728 1324.01677055898 A18.5 18.5 0 0 0 938.872580299274 1312.09686497946 L938.878365001263 1312.09417937176 A16.18 16.18 0 0 1 949.181504810038 1302.16569479132 L949.182311059938 1302.17513987391 A184.77 184.77 0 0 1 980.996670086791 1292.79151867031 L980.989048320648 1292.78189933383 A554.72 554.72 0 0 0 923.174365687702 1295.28674752096 L923.183889682511 1295.2965186097 A51.8 51.8 0 0 1 928.11765294818 1284.21040691817 L928.111246888436 1284.20599235797 A18.46 18.46 0 0 1 943.509474070249 1276.95402599313 L943.507087046958 1276.95388800977 A218.09 218.09 0 0 1 983.938334612182 1274.38535079794 L983.935872305809 1274.38748569227 A1325.06 1325.06 0 0 0 937.496051855303 1259.42772256284 L937.500124090398 1259.42958901861 A62.31 62.31 0 0 0 919.612155005591 1256.77011973888 L919.614457953246 1256.7704491807 A33.55 33.55 0 0 1 954.815513133151 1246.85733483254 L954.81705145377 1246.85837012345 A97.44 97.44 0 0 1 992.588147300801 1262.64265476954 L992.590939178991 1262.64079722748 A1.85 1.85 0 0 0 992.136906661825 1260.21283219244 L992.130023284191 1260.21818351613 A188.45 188.45 0 0 0 944.760897720943 1229.76506838156 L944.76379472606 1229.75620308528 A18.59 18.59 0 0 0 933.934239475361 1228.41200805556 L933.925636832076 1228.41325335049 A24.61 24.61 0 0 1 943.767743929572 1222.54078171168 L943.773212472063 1222.5410677867 A27.91 27.91 0 0 1 966.422283498144 1225.22503610108 L966.425854993592 1225.22562626266 A290.38 290.38 0 0 1 1013.13382747676 1252.19180904387 L1013.13 1252.19 L1013.48517611878 1251.53608507105 A163.15 163.15 0 0 0 965.100157163364 1214.49316287577 L965.09248261601 1214.48573317544 A27.23 27.23 0 0 1 976.704388451857 1210.78358320367 L976.708553393237 1210.79340943978 A27.18 27.18 0 0 1 992.694064211362 1214.4251949435 L992.698040566398 1214.42391975492 A154.53 154.53 0 0 1 1029.33830711044 1244.10891912809 L1029.33795440541 1244.10047887898 A2.89 2.89 0 0 0 1030.24598027887 1240.13675974652 L1030.24495886962 1240.14236783939 A165.74 165.74 0 0 0 1014.79259043343 1213.24737921541 L1014.78813867199 1213.24066430828 A19.7 19.7 0 0 0 1004.95225650232 1205.92847734714 L1004.95012776711 1205.92945801858 A25.21 25.21 0 0 1 1015.44304250413 1203.2445693855 L1015.44840906904 1203.24481845432 A25.64 25.64 0 0 1 1033.90655180517 1210.21195091645 L1033.90694779514 1210.21995725453 A52 52 0 0 1 1048.73061212762 1235.62223143093 L1048.7250835939 1235.62213024984 A42.95 42.95 0 0 1 1064.1568843799 1232.46642912874 L1064.16142852258 1232.46219282102 A45.6 45.6 0 0 1 1069.73210932754 1216.10657358355 L1069.73 1216.11 Z" style="fill:rgb(255,255,0);" />
<path d=" M1144.98862595288 564.843076989909 A335.4 335.4 0 0 0 947.320570497049 738.886668126975 L947.32 738.89 L1144.99 738.89 Z" style="fill:rgb(255,255,255);" />
<path d=" M927.37 853.4 L933.8 921.88 L925.44 932.31 L922.28 971.58 L939.49 971.58 L940.12 987.89 L930.96 993.89 L925.458857173308 1041.26919141548 A323.93 323.93 0 0 0 975.493095863364 1047.11923696206 L975.487302172557 1047.117420341 A4.6 4.6 0 0 1 970.74846015994 1052.92010606902 L970.74450332248 1052.91866546433 A37.36 37.36 0 0 0 950.271006538077 1068.17820555545 L950.28 1068.18 L937.147855131306 1091.7020086192 A38.85 38.85 0 0 0 933.878992938929 1112.46381355377 L933.87 1112.46 L914.61 1112.46 L914.614370994207 880.275188187906 A335.4 335.4 0 0 1 940.605351562701 753.888256949101 L940.61 753.89 L1242.91 753.89 L1242.9157560366 954.029850749258 A106.19 106.19 0 0 1 1240.02202397063 925.521115335435 L1240.02301335855 925.52534584697 A13.94 13.94 0 0 0 1231.46047175821 918.104477171824 L1231.46 918.1 L1236.0435258035 842.413786494952 A129.44 129.44 0 0 0 1196.61510837711 832.051963736912 L1196.61 832.05 L1150.67 788.21 L1151.50599713645 772.222658252646 A115.37 115.37 0 0 0 1101.22328878811 758.542539229318 L1101.23 758.54 L1101.44 800.76 L1067.1 800.61 L1066.87902627946 758.45511421489 A129.57 129.57 0 0 0 1018.24192447687 768.969895302748 L1018.24 768.97 L1018.64 793.35 L977.25524601986 836.204207596164 A64.91 64.91 0 0 0 927.362962938099 853.396454421854 Z" style="fill:rgb(255,0,0);" />
<path d=" M1009.06006145466 1063.80405468686 A63.16 63.16 0 0 0 988.689893928585 1048.93070810723 L988.685052173752 1048.93224318739 A64.57 64.57 0 0 1 980.618566024261 1061.77599375542 L980.616453967291 1061.77569999923 A26.47 26.47 0 0 0 963.173280265562 1071.58857590798 L963.177629065566 1071.58873106695 A272.04 272.04 0 0 0 952.950264135179 1087.41260070924 L952.95 1087.41 L946.218693297984 1100.12088908878 A9.32 9.32 0 0 0 948.651803593892 1110.35725407785 L948.65 1110.36 L952.56 1112.64 L959.942250056375 1112.66956649171 A38.99 38.99 0 0 0 974.028872332207 1099.73478760647 L974.02 1099.74 L974.02 1111.66 L976.56 1112.75 L979.907387770841 1112.76214566421 A48.23 48.23 0 0 0 995.90997596808 1076.92814684215 L995.928254261035 1076.93608762139 A55.54 55.54 0 0 1 1009.06417114904 1063.81121299569 L1009.06 1063.8 Z" style="fill:rgb(255,255,255);" />
<path d=" M1355.57 1126.57 L1355.57 1324.02 L1391.85 1324.02 L1391.85 1126.57 Z" style="fill:rgb(255,255,0);" />
<path d=" M1403.85 1126.57 L1403.85 1324.02 L1440.14 1324.02 L1440.14 1126.57 Z" style="fill:rgb(255,0,0);" />
<path d=" M1452.14 1126.57 L1452.14 1324.02 L1488.42 1324.02 L1488.42 1126.57 Z" style="fill:rgb(255,255,0);" />
<path d=" M1559.3945060535 753.887916751996 A335.4 335.4 0 0 1 1585.39998632897 883.475762874196 L1585.4 883.48 L1585.4 1324.02 L1548.71 1324.02 L1548.71 753.89 Z" style="fill:rgb(255,255,0);" />
<path d=" M1307.28 753.89 L1307.28 1324.02 L1343.57 1324.02 L1343.57 753.89 Z" style="fill:rgb(255,0,0);" />
<path d=" M1258.59 753.89 L1258.59 1324.02 L1295.28 1324.02 L1295.28 753.89 Z" style="fill:rgb(255,255,0);" />
<path d=" M1500.42 753.89 L1500.42 1324.02 L1536.71 1324.02 L1536.71 753.89 Z" style="fill:rgb(255,0,0);" />
<path d=" M1391.85615790454 953.514104634196 A78.43 78.43 0 0 0 1355.57152975299 984.224397826132 L1355.57 984.23 L1355.57 753.89 L1391.85 753.89 Z" style="fill:rgb(255,255,0);" />
<path d=" M1440.14227029488 949.617163037358 A78.43 78.43 0 0 0 1403.85772970512 949.617163037358 L1403.85 949.62 L1403.85 753.89 L1440.14 753.89 Z" style="fill:rgb(255,0,0);" />
<path d=" M1488.42847097474 984.224398985527 A78.43 78.43 0 0 0 1452.14384209546 953.514104634196 L1452.14 953.52 L1452.14 753.89 L1488.42 753.89 Z" style="fill:rgb(255,255,0);" />
<path d=" M1159.99 560.29 L1159.99 738.89 L1340.01 738.89 L1340.00967195344 560.283390678835 A335.4 335.4 0 0 0 1159.98988255777 560.283514785388 Z" style="fill:rgb(0,0,255);" />
<path d=" M1355.01 738.89 L1552.6793286275 738.886456816905 A335.4 335.4 0 0 0 1355.01115722589 564.843005511008 L1355.01 564.84 Z" style="fill:rgb(255,255,255);" />
<path d=" M1186.89690755056 1063.78968315996 A33.78 33.78 0 0 1 1199.93514827553 1068.17163383693 L1199.93750682766 1068.17092795906 A72.16 72.16 0 0 1 1224.21115179948 1100.29125411238 L1224.21531435988 1100.29397290975 A9.36 9.36 0 0 1 1212.42701372423 1112.48154418876 L1212.42291531364 1112.48011386732 A32.33 32.33 0 0 1 1193.42297517515 1099.96478353305 L1193.43 1099.96 L1193.49984476956 1110.86712803836 A2.61 2.61 0 0 1 1189.00414053397 1112.04946283043 L1188.99804926587 1112.04596296366 A67.42 67.42 0 0 1 1170.24355233731 1094.22438848962 L1170.25325782078 1094.22010177105 A19.87 19.87 0 0 1 1169.00111155008 1073.20457040097 L1169 1073.21 L1158.39 1062.86 L1168.75 1051.4 L1171.88 1050.3 Z" style="fill:rgb(255,255,255);" />
<path d=" M1456.95673614208 1067.13345811945 A25.91 25.91 0 0 1 1475.6950396442 1063.55893538468 A25.91 25.91 0 0 1 1486.33319880433 1068.24250398316 L1486.34 1068.24 L1458.57386068193 1080.36775423697 A32.39 32.39 0 0 1 1488.41873741468 1092.14174332368 L1488.42 1092.14 L1488.43 1025.9199791304 A66.43 66.43 0 0 0 1365.44060050419 991.077795295454 L1365.43813744556 991.081202377213 A12.91 12.91 0 0 0 1377.4418948341 1005.55468338924 L1377.44669227943 1005.55336550041 A18.79 18.79 0 0 0 1368.04767086019 992.706244950747 L1368.04395290698 992.708330153496 A9.5 9.5 0 0 1 1381.91303056746 999.224869583228 L1381.91050414899 999.229038753856 A22.03 22.03 0 0 0 1382.82762605835 1005.37194457603 L1382.82061774029 1005.36827827383 A16.1 16.1 0 0 0 1395.52833118478 1016.63828657607 L1395.5322281547 1016.63831211487 A6.44 6.44 0 0 1 1399.48174682759 1009.34731763108 L1399.47776544054 1009.35510054547 A25 25 0 0 0 1414.2545933873 1021.83306453776 L1414.25924525333 1021.82497816848 A7.91 7.91 0 0 0 1411.68679638602 1012.16155094624 L1411.67912636916 1012.17018875636 A45.41 45.41 0 0 0 1399.0427801727 1005.75641266467 L1399.04728248028 1005.75166441751 A5.52 5.52 0 0 1 1393.3220208573 1003.24431836929 L1393.31267059348 1003.24643214807 A17.4 17.4 0 0 1 1401.79502041942 977.838618058866 L1401.8 977.84 L1401.44 993.76 L1415.76 1002.3 L1415.0548720182 994.97422194815 A19.45 19.45 0 0 1 1414.04981452301 974.687378706548 L1414.05 974.69 L1419.82 965.74 L1425.74315877276 974.130126135462 A16.2 16.2 0 0 1 1424.77230311269 994.416616548661 L1424.77 994.42 L1424.73 1002.38 L1431.2945403658 999.727904803217 A9.72 9.72 0 0 0 1436.54740452642 993.316948224023 L1436.55 993.32 L1435.71 977.88 L1447.57408403299 987.950964135606 A8.18 8.18 0 0 1 1448.70773940546 997.643668708441 L1448.7105093542 997.643481300596 A21.34 21.34 0 0 1 1439.16270300553 1006.36585257362 L1439.16033018049 1006.36068594571 A23.91 23.91 0 0 0 1428.18040957187 1016.63735805465 L1428.18 1016.64 L1428.0463926615 1025.44885724804 A47.8 47.8 0 0 0 1446.94711669995 1009.98256810287 L1446.95 1009.98 L1447.23615310655 1014.33090355653 A3.67 3.67 0 0 0 1451.98316801158 1016.52462028379 L1451.98444878165 1016.52054865292 A6.54 6.54 0 0 0 1455.97041419963 1012.18949411765 L1455.97 1012.19 L1456.30071499421 1002.93219350064 A6.69 6.69 0 0 1 1466.37005969172 997.256673707437 L1466.37539874553 997.252766092191 A17.37 17.37 0 0 0 1461.5106324524 1010.37113192617 L1461.50645395171 1010.3755760607 A31.72 31.72 0 0 0 1477.31457258672 999.367649988427 L1477.30950495392 999.3697131342 A6.61 6.61 0 0 1 1477.13589055377 1004.22920546593 L1477.14783679392 1004.22470723949 A16.13 16.13 0 0 1 1465.17784130256 1013.64373152693 L1465.16930512839 1013.65089771858 A18.77 18.77 0 0 0 1482.70995135304 1011.00251122006 L1482.7088294687 1010.99466228022 A5.1 5.1 0 0 1 1479.92705527282 1019.11265347697 L1479.93 1019.12 L1471.15868266597 1019.16605534987 A16.17 16.17 0 0 0 1484.49087961331 1025.46160834906 L1484.48997748169 1025.46517669483 A6.12 6.12 0 0 1 1477.16293178741 1028.07675148328 L1477.16393890538 1028.08070481992 A38.91 38.91 0 0 1 1461.87577764214 1022.00762449848 L1461.87701781254 1022.00345360912 A7.05 7.05 0 0 0 1455.80123955972 1022.03293695004 L1455.8 1022.03 L1450.50634382452 1023.74581005679 A35.44 35.44 0 0 1 1457.95963235985 1028.54397830295 L1457.95491917465 1028.54604593572 A38.87 38.87 0 0 0 1428.39457490391 1039.34422967139 L1428.39735972509 1039.34817382308 A37.39 37.39 0 0 0 1431.51235141264 1055.04795307833 L1431.51 1055.05 L1445.59062765546 1037.8895102764 A16.38 16.38 0 0 1 1462.23700511225 1037.71700921601 L1462.23830918952 1037.71243526011 A39.94 39.94 0 0 0 1445.29085870101 1057.19324766369 L1445.29 1057.19 L1468.10650199842 1044.44223563447 A68.73 68.73 0 0 1 1485.84089608576 1050.04173994133 L1485.83735009911 1050.04406845983 A68.53 68.53 0 0 0 1456.95694208591 1067.13763198789 L1456.95 1067.13 A0 0 0 1 0 1456.95 1067.13 Z" style="fill:rgb(255,255,0);" />
<path d=" M1488.42 1094.36 L1455.84259623243 1092.94520599 A58.31 58.31 0 0 1 1469.57307796953 1100.038761065 L1469.57076653957 1100.03337634585 A19.44 19.44 0 0 1 1476.90540774444 1107.51471927912 A19.44 19.44 0 0 1 1479.21149297031 1114.92545409888 L1479.21 1114.93 L1488.42 1114.93 Z" style="fill:rgb(255,255,0);" />
<path d=" M1434.65159668215 1101.14258356649 A34.7 34.7 0 0 0 1418.75102448949 1114.92584157198 L1418.75 1114.93 L1474.3659764113 1114.93111345665 A83.42 83.42 0 0 0 1447.12220261012 1101.70157721229 L1447.12809498669 1101.70049214151 A25.47 25.47 0 0 1 1439.62627167913 1098.23781651228 L1439.62282850534 1098.23665336131 A23.42 23.42 0 0 1 1434.65217033316 1101.14496558506 Z" style="fill:rgb(255,255,0);" />
<path d=" M1414.32251762469 1065.20944614448 A30.29 30.29 0 0 0 1397.04976332095 1074.00647296723 L1397.04987974969 1074.00653141229 A6.99 6.99 0 0 0 1397.24964047383 1086.07038040858 L1397.24963050304 1086.07555779841 A10.15 10.15 0 0 1 1392.5891125219 1103.13258609837 L1392.58530837989 1103.12240391698 A63.23 63.23 0 0 0 1377.10875175991 1108.88753896668 L1377.10667438952 1108.89036696603 A5.89 5.89 0 0 1 1372.08750433215 1111.62984669734 L1372.08755287262 1111.64017157095 A6.59 6.59 0 0 0 1366.33408028209 1114.93294371101 L1366.34 1114.93 L1414.48021334828 1114.93596962727 A3.05 3.05 0 0 1 1412.2259453903 1112.18034582511 L1412.2351156942 1112.1797586111 A1.77 1.77 0 0 0 1409.69411592026 1111.24190797452 L1409.69376515546 1111.24301160073 A8.42 8.42 0 0 1 1398.53120585905 1106.06977038744 L1398.5321903539 1106.06861827884 A7.84 7.84 0 0 1 1399.35783314948 1099.42327434733 L1399.35853799032 1099.42352440992 A1.6 1.6 0 0 1 1401.93143514409 1099.24651260831 L1401.94069391978 1099.24100728844 A9.72 9.72 0 0 0 1414.50254264176 1099.25520092707 L1414.50479556385 1099.26275633991 A21.81 21.81 0 0 0 1419.70971370855 1088.65789587262 L1419.70927665081 1088.65877859348 A32.21 32.21 0 0 1 1402.86537542892 1095.75206332074 L1402.86315675639 1095.74626577995 A24.96 24.96 0 0 0 1414.32059573907 1065.2099771016 Z" style="fill:rgb(255,255,0);" />
<path d=" M1361.11 1114.93 L1355.57 1114.93 L1355.56755585362 1092.98200577537 A96.16 96.16 0 0 1 1379.41949706495 1094.75768185888 L1379.41910645528 1094.7465424631 A15.98 15.98 0 0 1 1370.43186301305 1100.37933026713 L1370.43201882045 1100.38229612229 A10.32 10.32 0 0 0 1363.11091896964 1106.63530145447 L1363.10830242499 1106.63228626001 A30.05 30.05 0 0 0 1361.11227066096 1114.9236244576 Z" style="fill:rgb(255,255,0);" />
<path d=" M1355.57267480232 1067.32800189729 A58.68 58.68 0 0 1 1380.41525667939 1078.34607883058 L1380.41698704954 1078.34531485978 A30.61 30.61 0 0 0 1355.57286983613 1087.16807662436 L1355.57 1087.16 Z" style="fill:rgb(255,255,0);" />
<path d=" M1445.79883804235 1079.82087285773 A0.95 0.95 0 0 0 1446.92018464192 1081.3544655317 L1446.91111016708 1081.35818114492 A2.63 2.63 0 0 1 1449.03999882192 1083.93751068037 L1449.0444055004 1083.93257637432 A8.24 8.24 0 0 1 1444.04883901594 1086.13519839759 L1444.0526006668 1086.13844722838 A7.21 7.21 0 0 0 1438.24390078847 1094.99318553874 L1438.24275448463 1094.99315624821 A91.23 91.23 0 0 1 1427.24969299239 1096.20846996693 L1427.25 1096.21 L1428.29916046058 1081.51448894799 A37.79 37.79 0 0 0 1430.25546280252 1065.78799600478 L1430.25815370704 1065.78803231907 A25.97 25.97 0 0 1 1445.41555425689 1076.21783269882 L1445.41 1076.22 L1445.77809022329 1078.4086755167 A0.88 0.88 0 0 1 1445.78907652381 1079.82319131959 Z" style="fill:rgb(255,255,0);" />
<path d=" M1357.2 1011.27 L1375.26 1011.36 L1360.08084274913 1001.85835281321 A66.43 66.43 0 0 0 1357.20643839666 1011.26601505548 Z" style="fill:rgb(255,255,0);" />
<path d=" M1356.2 1016.78 L1374.9587788397 1016.72917281073 A19.44 19.44 0 0 1 1357.95608478827 1022.43494506882 L1357.95079777265 1022.4294260433 A6.34 6.34 0 0 0 1360.9079607104 1027.89259361164 L1360.90926285188 1027.8925092865 A6.6 6.6 0 0 0 1367.06836724211 1028.359712249 L1367.06272828689 1028.3655215415 A45.51 45.51 0 0 0 1383.13161090931 1016.60500155064 L1383.12933239874 1016.5908540757 A19.17 19.17 0 0 0 1392.02783037919 1022.84612064074 L1392.03593827491 1022.85289107941 A8.83 8.83 0 0 0 1383.34636075427 1029.16291622744 L1383.34034912671 1029.16327323646 A29.12 29.12 0 0 1 1401.27224432672 1031.91443986584 L1401.26981038255 1031.91551020859 A53.02 53.02 0 0 0 1413.55060416638 1036.97568376813 L1413.54542446481 1036.97772397234 A28.93 28.93 0 0 1 1411.44950138544 1053.88491951165 L1411.46 1053.89 L1400.08055024965 1039.6306594699 A14.37 14.37 0 0 0 1385.66692072103 1034.49347955417 L1385.67 1034.49 L1377.47656246681 1035.77067718606 A32.75 32.75 0 0 1 1396.94446572847 1055.09333834875 L1396.95 1055.09 L1375.87721817684 1043.66765976302 A16.2 16.2 0 0 0 1356.51157925122 1050.33357275644 L1356.52065459191 1050.33627312851 A51.3 51.3 0 0 1 1388.56184397964 1065.92015758664 L1388.56084691007 1065.92295006632 A54.02 54.02 0 0 0 1365.06566347941 1061.42115291535 L1365.06720728958 1061.41752001284 A13.04 13.04 0 0 0 1355.57043360507 1066.00922871529 L1355.57 1066.01 L1355.57 1025.91999652173 A66.43 66.43 0 0 1 1356.20177396164 1016.78006836976 Z" style="fill:rgb(255,255,0);" />
<path d=" M1129.19821651334 1324.01848367325 A52.66 52.66 0 0 0 1109.8586447012 1307.78528705505 L1109.85634653585 1307.7832054463 A29.66 29.66 0 0 0 1088.88423797026 1305.82303572029 L1088.87979320458 1305.82570863748 A25.56 25.56 0 0 0 1098.01964664041 1324.02135631945 L1098.02 1324.02 Z" style="fill:rgb(255,255,0);" />
<path d=" M997.844528049279 1112.46161028608 A4.79 4.79 0 0 1 1000.42487581186 1107.53725647272 L1000.430234869 1107.53837922225 A32.42 32.42 0 0 0 1009.69241150779 1081.38783476537 L1009.69 1081.39 L1025.76 1063.52 L1024.24986472194 1084.57379025916 A324.32 324.32 0 0 0 1144.87545756884 1083.92168928686 L1144.88 1083.91 L1145.57 1070.56 L1155.79254645891 1076.88754614876 A32.68 32.68 0 0 0 1174.82788618213 1112.45662250525 L1174.82 1112.46 Z" style="fill:rgb(255,0,0);" />
<path d=" M1107.39925496222 1268.75636513104 A44.35 44.35 0 0 1 1157.48145966931 1282.07495255563 L1157.48 1282.08 L1163.34531554951 1277.96861995545 A87.12 87.12 0 0 0 1102.69797547038 1247.610037551 L1102.7 1247.61 Z" style="fill:rgb(255,255,0);" />
<path d=" M1030.27 946.13 L1033.09 916.87 L1042.96 904.53 L1032.02985771747 778.311660207612 A111.03 111.03 0 0 1 1053.7043177775 773.345419496836 L1053.71 773.35 L1054.47438826388 817.980962272717 A29.75 29.75 0 0 0 1113.88766182042 819.681863944509 L1113.89 819.68 L1115.70060982158 773.477005420582 A97.65 97.65 0 0 1 1135.44446192705 779.495257344784 L1135.44 779.5 L1125.62 906.54 L1136.75 919.16 L1138.31 946.13 L1117.46 946.13 L1117.46 932.49 L1096.95 932.49 L1096.95 946.13 L1076.42 946.13 L1076.42 932.49 L1054.27 932.49 L1054.27 946.13 Z" style="fill:rgb(255,255,255);" />
<path d=" M1097.01443149565 1076.62678719049 A310.97 310.97 0 0 1 1076.81466970013 1076.8916213569 L1076.82 1076.89 L1076.9 1058.8 L1059.97 1058.72 L1059.88873955029 1076.10185279471 A310.96 310.96 0 0 1 1040.47457403454 1074.05053347153 L1040.48 1074.05 L1043.77 1041.31 L1052.76 1026.23 L1046.83 960.19 L1121.47 960.51 L1116.9 1027.38 L1127.33 1038.69 L1130.20810921454 1073.32118358827 A310.97 310.97 0 0 1 1111.1091267154 1075.66241373179 L1111.11 1075.66 L1111.19 1058.96 L1097.1 1058.89 Z" style="fill:rgb(255,255,255);" />
<path d=" M1020.25 810.71 L989.82 842.71 L990.87 919.3 L1001.36 914.58 L1001.62 894.65 L1012.38 888.87 L1013.17 908.29 L1027.33 900.68 Z" style="fill:rgb(255,255,255);" />
<path d=" M1020.45 972.23 L1020.09 987.28 L1030.89404458161 996.313635368644 A60.78 60.78 0 0 0 1036.94671892538 1027.70828210899 L1036.95 1027.71 L1039.39 1026.42 L1036.03 972.23 Z" style="fill:rgb(255,0,0);" />
<path d=" M943.2 1031.98 L945.98 1001.15 L954.61 992.91 L953.82 971.6 L1007.61 971.68 L1007.04 993.17 L1018.41 1002.98 L1021.30589071315 1032.6723844408 A323.91 323.91 0 0 1 1006.77712640233 1033.97517443718 L1006.78 1033.97 L1004.96241285195 1020.24232599602 A317.44 317.44 0 0 1 988.674438209119 1021.13565508822 L988.67 1021.14 L988.670453172978 1034.68054074219 A323.91 323.91 0 0 1 975.071007862287 1034.54408237892 L975.07 1034.54 L975.075607807652 1021.23999524384 A317.43 317.43 0 0 1 960.094038171073 1020.67992592619 L960.09 1020.68 L957.878688968211 1033.55252101573 A323.93 323.93 0 0 1 943.202852527289 1031.9764719892 Z" style="fill:rgb(255,255,255);" />
<path d=" M939.984602509367 859.101766775361 A60.53 60.53 0 0 1 957.625833770224 851.794187380675 L957.624998090252 851.800211350082 A64.41 64.41 0 0 1 976.96775685311 850.189625819655 L976.97 850.18 L976.97 932.08 L1012.37 932.37 L1015.85 949.3 L1016.41 959.59 L1003.67 959.59 L1003.67 944.36 L987.49 944.36 L987.49 959.59 L969.9 959.59 L969.9 944.36 L953.05 944.36 L953.05 959.59 L938.15 959.59 L939.63 936.63 L947.33 927.3 Z" style="fill:rgb(255,255,255);" />
<path d=" M1008.3 1047.24 L1027.97 1044.5 L1026.22517518994 1060.64608081327 A163.62 163.62 0 0 0 1008.29909940124 1047.23576499666 L1008.3 1047.24 Z" style="fill:rgb(255,0,0);" />
<path d=" M1009.12927614777 1324.01693084255 A38.92 38.92 0 0 1 1005.79834135078 1301.65889454858 L1005.79620950271 1301.66772376189 A311.19 311.19 0 0 1 970.885146127107 1311.53064890596 L970.880850499484 1311.52149096775 A86.48 86.48 0 0 1 963.259281662975 1312.84765561554 L963.264074520923 1312.85307777522 A48.4 48.4 0 0 0 938.025988597534 1324.02284419147 L938.02 1324.02 Z" style="fill:rgb(255,255,0);" />
<path d=" M1068.58266083391 1286.60693516959 A22.67 22.67 0 0 1 1076.33724663974 1298.86002747468 L1076.34046727635 1298.85085218051 A1.78 1.78 0 0 0 1076.34188768327 1298.85664718536 L1076.33655945273 1298.86056038076 A21 21 0 0 1 1061.56972364038 1294.83206736135 L1061.56918681491 1294.83371733336 A35.83 35.83 0 0 0 1068.57611187631 1286.60132439354 Z" style="fill:rgb(255,255,0);" />
<path d=" M1105.44633591371 1297.24476412331 A32.39 32.39 0 0 0 1089.19508514652 1300.89477012396 L1089.19414039591 1300.90024120553 A19.11 19.11 0 0 1 1096.42639516084 1284.9505319535 L1096.42434169732 1284.95079361141 A30.61 30.61 0 0 0 1105.44479898243 1297.25117981622 L1105.45 1297.25 Z" style="fill:rgb(255,255,0);" />
<path d=" M1061.51101163102 1249.76102063384 A67.22 67.22 0 0 1 1054.89478405971 1268.22475932819 L1054.89750880616 1268.22553122837 A327.83 327.83 0 0 0 1037.93756224955 1266.90198636009 L1037.93388795958 1266.90308649653 A24.54 24.54 0 0 0 1022.87002928931 1271.11102692749 L1022.86678736683 1271.10924472005 A48.89 48.89 0 0 0 1012.01180467706 1281.19902730906 L1012.01666537977 1281.20222311967 A19.29 19.29 0 0 0 1002.85453577281 1274.52899397413 L1002.85387099522 1274.52621862243 A81.96 81.96 0 0 1 1021.3081014248 1259.00616050112 L1021.30741023366 1259.01163224809 A62.04 62.04 0 0 1 1051.27603825132 1249.86217975585 L1051.28 1249.86 Z" style="fill:rgb(255,255,0);" />
<path d=" M1067.19716269869 1324.0164765359 A27.67 27.67 0 0 0 1076.97778968517 1304.21472143843 L1076.98149394809 1304.21365227851 A22.89 22.89 0 0 0 1057.04941001072 1310.37180779968 L1057.04673551397 1310.3742139793 A103.98 103.98 0 0 1 1045.60939007972 1324.02021110424 L1045.61 1324.02 Z" style="fill:rgb(255,255,0);" />
<path d=" M1075.83 1324.02 L1091.25128165227 1324.01389439264 A33.18 33.18 0 0 1 1092.65722826985 1279.32419462873 L1092.65556199674 1279.32706917294 A85.58 85.58 0 0 1 1083.3752834969 1248.09889828143 L1083.37335042516 1248.09485397234 A72.72 72.72 0 0 1 1071.79040947211 1281.08847163364 L1071.78980475818 1281.09698492262 A35.25 35.25 0 0 1 1075.82647211549 1324.02016124369 Z" style="fill:rgb(255,255,0);" />
<path d=" M1045.14017518011 1324.01588687058 A10.21 10.21 0 0 0 1040.08360648561 1317.22560515323 L1040.08528740235 1317.23018462037 A7.02 7.02 0 0 0 1032.46636953982 1317.78028812111 L1032.46609928601 1317.78081596799 A17.59 17.59 0 0 1 1017.09262350028 1313.96819238929 L1017.08885022861 1313.97075580912 A13.88 13.88 0 0 1 1010.71245932174 1305.71674406602 L1010.71558521454 1305.70462445218 A25.91 25.91 0 0 0 1043.13096451167 1294.52626779947 L1043.14157607969 1294.53380255187 A12.88 12.88 0 0 1 1025.52872876355 1288.91795988757 L1025.53006892699 1288.9188918379 A167.44 167.44 0 0 0 1036.75271002684 1288.29280285243 L1036.74639034122 1288.29610590574 A21.94 21.94 0 0 0 1052.64762717933 1272.44926207735 L1052.65 1272.44 L1043.87773022956 1271.73847001095 A25.86 25.86 0 0 0 1019.45496802436 1282.62713238288 L1019.46404152307 1282.6279327261 A43.02 43.02 0 0 0 1010.71905467732 1305.70876307448 L1010.71067378684 1305.71612107975 A27.88 27.88 0 0 0 1015.91967374166 1324.02542964264 L1015.92 1324.02 Z" style="fill:rgb(255,255,0);" />
<path d=" M1179.22 833.31 L1148.67 805.62 L1141.27 903.78 L1152.93 909.92 L1153.24 888.44 L1164.59 893.65 L1165.21 914.52 L1178.64 919.81 Z" style="fill:rgb(255,255,255);" />
<path d=" M1168.87 992.87 L1167.52 972.65 L1212.66 972.86 L1211.84 995.56 L1222.31 1006.84 L1225.03123181472 1029.75061964269 A317.43 317.43 0 0 1 1212.19229017117 1030.79380723908 L1212.19 1030.79 L1212.19 1017.88 L1197.89 1017.88 L1197.89113400676 1031.34091667165 A317.44 317.44 0 0 1 1185.34088892269 1031.28974737267 L1185.34 1031.29 L1185.34 1017.88 L1170.19 1017.88 L1170.18560662017 1030.5656277063 A317.46 317.46 0 0 1 1156.75828487521 1029.31483999193 L1156.76 1029.31 L1158.66 1003.08 Z" style="fill:rgb(255,255,255);" />
<path d=" M1131 1021.34 L1134.8 972.5 L1152.75 972.58 L1153.56 986.96 L1143.62 1001.74 L1140.4 1033.96 Z" style="fill:rgb(255,0,0);" />
<path d=" M1242.91 1112.46 L1242.91 973.01 L1227.42 972.93 L1227.15 991.8 L1237.62 1003.08 L1241.3142537896 1040.22412161297 A317.45 317.45 0 0 1 1185.40281669545 1044.6349883035 L1185.4 1044.63 L1193.47134129881 1054.74184326737 A30.56 30.56 0 0 1 1216.82687438715 1063.79952430858 L1216.83529606097 1063.79627438491 A117.7 117.7 0 0 1 1235.48696355435 1088.50252672899 L1235.4816061277 1088.50155166586 A32.36 32.36 0 0 1 1236.46294202797 1112.45800492916 L1236.46 1112.46 Z" style="fill:rgb(255,0,0);" />
<path d=" M1150.38 958.92 L1165.73 958.92 L1165.73 944.64 L1181.74 944.64 L1181.74 958.92 L1198.52 958.92 L1198.52 944.64 L1214.77 944.64 L1214.77 958.92 L1230.56 958.92 L1226.6 931.8 L1216.9 922.38 L1221.44646115493 850.201103261272 A129.57 129.57 0 0 0 1193.21029046637 844.066211088413 L1193.21 844.07 L1193.21 932.37 L1153.52 932.66 Z" style="fill:rgb(255,255,255);" />
<path d=" M1142.1 1040.34 L1157.97805420669 1043.53063571985 A33 33 0 0 1 1143.58299354351 1057.45343383883 L1143.59 1057.45 Z" style="fill:rgb(255,0,0);" />
<path d=" M1159.67 1324.02 L1242.91 1324.02 L1242.91801160977 1255.00038953442 A477.09 477.09 0 0 0 1181.39583504021 1269.71485870254 L1181.39387328321 1269.71977514328 A195.56 195.56 0 0 1 1216.03508940781 1271.69244872726 L1216.03463900174 1271.68410578547 A32.47 32.47 0 0 1 1239.64810484335 1287.94118227516 L1239.64 1287.95 L1185.14515677614 1288.0060715009 A34.04 34.04 0 0 0 1198.25932044379 1294.18599799707 L1198.26393322171 1294.17557005888 A91.23 91.23 0 0 1 1228.66420427846 1307.32844537325 L1228.65941662687 1307.33218078783 A19.39 19.39 0 0 1 1232.52611821735 1322.33565771202 L1232.52161599306 1322.33639026447 A192.47 192.47 0 0 0 1198.5286992282 1310.85433180467 L1198.53 1310.85 L1165.06986445198 1302.40211915581 A46.37 46.37 0 0 1 1159.66448168124 1324.0175893874 Z" style="fill:rgb(255,255,0);" />
<path d=" M1133.05 1324.02 L1151.59966449611 1324.02443364952 A22.13 22.13 0 0 0 1158.79440213493 1306.84926646001 L1158.79117189326 1306.84900077036 A13.45 13.45 0 0 1 1140.18031072926 1315.42124654938 L1140.18 1315.42 Z" style="fill:rgb(255,255,0);" />
<path d=" M1110.00813058165 1276.01463245321 A31.1 31.1 0 0 0 1142.42441258985 1288.81988963777 L1142.41792530952 1288.82081645131 A13.28 13.28 0 0 1 1126.12533105789 1297.44147358912 L1126.13046942282 1297.43910953019 A32.39 32.39 0 0 0 1146.05117828092 1305.19997351084 L1146.04982055834 1305.19944561344 A17.07 17.07 0 0 0 1157.42971800063 1301.37565562512 L1157.43659602838 1301.37692565617 A3.13 3.13 0 0 0 1157.78218707524 1296.8513463393 L1157.78042952111 1296.86056045663 A18.09 18.09 0 0 1 1153.62501097717 1287.50310574268 L1153.622066852 1287.49965358755 A38.28 38.28 0 0 0 1131.10830188592 1273.12563311487 L1131.10186187719 1273.1176079485 A31.21 31.21 0 0 0 1110.00456025521 1276.01143574649 L1110.00465443463 1276.01885077614 A0.01 0.01 0 1 1 1110.00649554175 1276.01760315312 Z" style="fill:rgb(255,255,0);" />
<path d=" M1089.77 830.18 L1089.77 813.91 L1101.44 813.910009289864 A17.17 17.17 0 0 1 1089.77092198134 830.174954883281 Z" style="fill:rgb(255,0,0);" />
<path d=" M1078.76907773478 830.174954787272 A17.17 17.17 0 0 1 1067.1 813.910008690518 L1078.77 813.91 Z" style="fill:rgb(255,0,0);" />
<path d=" M1076.04 984.25 L1093.28 984.33 L1093.28 1000.16 A8.62 8.62 0 0 1 1076.04 1000.16 Z" style="fill:rgb(0,0,0);" />
<path d=" M956.32 903.23 L969.13 903.29 L969.12 915.04 A6.4 6.4 0 0 1 956.32 915.04 Z" style="fill:rgb(0,0,0);" />
<path d=" M1076.39 870.29 L1093.63 870.37 L1093.63 886.2 A8.62 8.62 0 0 1 1076.39 886.2 Z" style="fill:rgb(0,0,0);" />
<path d=" M1199.39 903.24 L1212.2 903.31 L1212.19 915.06 A6.4 6.4 0 0 1 1199.39 915.06 Z" style="fill:rgb(0,0,0);" />
</g>
</svg>
