<?xml version="1.0" encoding="UTF-8"?><!DOCTYPE svg PUBLIC '-//W3C//DTD SVG 1.0//EN' 'http://www.w3.org/TR/2001/REC-SVG-20010904/DTD/svg10.dtd'><svg xmlns:xlink="http://www.w3.org/1999/xlink" xmlns="http://www.w3.org/2000/svg"><!--Gegenereerd door de SIMaD (http://www.dlw.be).-->
<g style="stroke:none;fill-rule:evenodd;" transform="matrix(1,0,0,-1,0,2250)">
<path d=" M65 0 L2435 0 A65 65 0 0 1 2500 65 L2500 2185 A65 65 0 0 1 2435 2250 L65 2250 A65 65 0 0 1 0 2185 L0 65 A65 65 0 0 1 65 0 Z" style="fill:rgb(0,0,0);" />
<path d=" M65 30 L2435 30 A35 35 0 0 1 2470 65 L2470 2185 A35 35 0 0 1 2435 2220 L65 2220 A35 35 0 0 1 30 2185 L30 65 A35 35 0 0 1 65 30 Z" style="fill:rgb(255,255,0);" />
<path d=" M462.07 1842 L533.500063825993 1842.00000000004 A57.14 57.14 0 0 1 590.639999999982 1899.13995412507 L590.639999999982 2034.86004587493 A57.14 57.14 0 0 1 533.500063825993 2091.99999999996 L462.07 2092 Z M497.78 1874.14 L529.930027925268 1874.14000000002 A25 25 0 0 1 554.929999999992 1899.13997992871 L554.929999999992 2034.86002007129 A25 25 0 0 1 529.930027925268 2059.85999999998 L497.78 2059.86 Z" style="fill:rgb(0,0,0);" />
<path d=" M718.14 1895.57 L718.14 1888.42999588574 A21.43 21.43 0 1 0 675.28 1888.43000411426 L675.28 1927.71 L750.28 1927.71 L750.279999999999 1970.57000841476 A53.57 53.57 0 0 1 643.140000000001 1970.56999158524 L643.140000000001 1892.00000841476 A53.57 53.57 0 0 1 750.279999999999 1891.99999158524 L750.28 1895.57 Z M718.14 1956.29 L718.14 1974.14000336622 A21.43 21.43 0 0 1 675.28 1974.13999663378 L675.28 1956.29 Z" style="fill:rgb(0,0,0);" />
<path d=" M880.28 1770.57 L912.42 1770.57 L912.425128730375 1850.62712540995 A44.42 44.42 0 0 1 987.419999999994 1882.84997674174 L987.419999999994 1979.72002325826 A44.42 44.42 0 0 1 912.425128730375 2011.94287459005 L912.42 2011.94 L912.42 2020.57 L880.28 2020.57 Z M912.42 1888.43 L912.42 1974.13999588574 A21.43 21.43 0 0 0 955.28 1974.14000411426 L955.28 1888.43 A21.43 21.43 0 0 0 912.42 1888.43 Z" style="fill:rgb(0,0,0);" />
<path d=" M1037.47 1842 L1069.61 1842 L1069.61000000001 1963.42997855846 A28.57 28.57 0 0 0 1098.1800209429 1991.99999999999 L1117.83 1992 L1117.83 2020.57 L1098.18004862138 2020.56999999997 A46.43 46.43 0 0 1 1069.60763510485 2010.73733411463 L1069.61 2010.74 L1069.61 2020.57 L1037.47 2020.57 Z" style="fill:rgb(0,0,0);" />
<path d=" M1145.48 1892 L1145.48 1970.56999065027 A53.57 53.57 0 0 0 1252.62 1970.57000934973 L1252.62 1892 A53.57 53.57 0 0 0 1145.48 1892 Z M1177.62 1888.43 L1177.62 1974.13999588574 A21.43 21.43 0 0 0 1220.48 1974.14000411426 L1220.48 1888.43 A21.43 21.43 0 0 0 1177.62 1888.43 Z" style="fill:rgb(0,0,0);" />
<path d=" M1328.33 1842 L1364.05 1842 L1404.76 2020.57 L1371.8 2020.57 L1346.19 1908.27 L1320.59 2020.57 L1287.62 2020.57 Z" style="fill:rgb(0,0,0);" />
<path d=" M1447.12 1842 L1447.12 2020.57 L1479.26 2020.57 L1479.26 1842 Z" style="fill:rgb(0,0,0);" />
<path d=" M1448.91 2056.29 L1448.91 2084.86 L1477.48 2084.86 L1477.48 2056.29 Z" style="fill:rgb(0,0,0);" />
<path d=" M1539.11 1842 L1571.25 1842 L1571.25 1974.13999588574 A21.43 21.43 0 0 0 1614.11 1974.14000411426 L1614.11 1842 L1646.25 1842 L1646.24999999999 1979.72002325826 A44.42 44.42 0 0 1 1571.25512873037 2011.94287459005 L1571.25 2011.94 L1571.25 2020.57 L1539.11 2020.57 Z" style="fill:rgb(0,0,0);" />
<path d=" M1766.4 1892 L1766.4 1888.42999588574 A21.43 21.43 0 1 0 1723.54 1888.43000411426 L1723.54 1974.13999588574 A21.43 21.43 0 0 0 1766.4 1974.14000411426 L1766.4 1970.57 L1798.54 1970.57000841476 A53.57 53.57 0 0 1 1691.4 1970.56999158524 L1691.4 1892.00000841476 A53.57 53.57 0 0 1 1798.54 1891.99999158524 Z" style="fill:rgb(0,0,0);" />
<path d=" M1848.6 1842 L1848.6 2020.57 L1880.74 2020.57 L1880.74 1842 Z" style="fill:rgb(0,0,0);" />
<path d=" M1850.39 2056.29 L1850.39 2084.86 L1878.96 2084.86 L1878.96 2056.29 Z" style="fill:rgb(0,0,0);" />
<path d=" M2005.79 1895.57 L2005.79 1888.42999588574 A21.43 21.43 0 1 0 1962.93 1888.43000411426 L1962.93 1927.71 L2037.93 1927.71 L2037.93 1970.57000841476 A53.57 53.57 0 0 1 1930.79 1970.56999158524 L1930.79 1892.00000841476 A53.57 53.57 0 0 1 2037.93 1891.99999158524 L2037.93 1895.57 Z M2005.79 1956.29 L2005.79 1974.14000336622 A21.43 21.43 0 0 1 1962.93 1974.13999663378 L1962.93 1956.29 Z" style="fill:rgb(0,0,0);" />
<path d=" M744.72 1464 L744.72 1714 L780.43 1714 L780.43 1496.14 L851.86 1496.14 L851.86 1464 Z" style="fill:rgb(0,0,0);" />
<path d=" M891.76 1464 L891.76 1642.57 L923.9 1642.57 L923.9 1464 Z" style="fill:rgb(0,0,0);" />
<path d=" M893.55 1678.29 L893.55 1706.86 L922.12 1706.86 L922.12 1678.29 Z" style="fill:rgb(0,0,0);" />
<path d=" M983.75 1464 L1015.89 1464 L1015.89 1596.13999588574 A21.43 21.43 0 0 0 1058.75 1596.14000411426 L1058.75 1464 L1090.89 1464 L1090.89 1596.13999588574 A21.43 21.43 0 0 0 1133.75 1596.14000411426 L1133.75 1464 L1165.89 1464 L1165.88999999999 1601.72002713463 A44.42 44.42 0 0 1 1083.97256625271 1625.53341769607 L1083.96743624103 1625.53341376934 A44.42 44.42 0 0 1 1015.89512254403 1633.94286872009 L1015.89 1633.94 L1015.89 1642.57 L983.75 1642.57 Z" style="fill:rgb(0,0,0);" />
<path d=" M1220.85 1464 L1252.99 1464 L1252.99512873037 1472.62712540995 A44.42 44.42 0 0 1 1327.98999999999 1504.84997674174 L1327.98999999999 1601.72002325826 A44.42 44.42 0 0 1 1252.99512873037 1633.94287459005 L1252.99 1633.94 L1252.99 1714 L1220.85 1714 Z M1252.99 1510.43 L1252.99 1596.13999588574 A21.43 21.43 0 0 0 1295.85 1596.14000411426 L1295.85 1510.43 A21.43 21.43 0 0 0 1252.99 1510.43 Z" style="fill:rgb(0,0,0);" />
<path d=" M1448.14 1464 L1448.13486002172 1472.62711473731 A44.42 44.42 0 0 0 1373.14 1504.84999224725 L1373.14 1642.57 L1405.28 1642.57 L1405.28 1510.43000336622 A21.43 21.43 0 0 1 1448.14 1510.42999663378 L1448.14 1642.57 L1480.28 1642.57 L1480.28 1464 Z" style="fill:rgb(0,0,0);" />
<path d=" M1540.13 1464 L1572.27 1464 L1572.27000000001 1585.42997855846 A28.57 28.57 0 0 0 1600.8400209429 1613.99999999999 L1620.49 1614 L1620.49 1642.57 L1600.84004862138 1642.56999999997 A46.43 46.43 0 0 1 1572.26763510485 1632.73733411463 L1572.27 1632.74 L1572.27 1642.57 L1540.13 1642.57 Z" style="fill:rgb(0,0,0);" />
<path d=" M1723.14 1439 L1723.13492076037 1476.19717236962 A44.42 44.42 0 0 0 1648.14000000001 1508.42003178629 L1648.14000000001 1601.71996821371 A44.42 44.42 0 0 0 1723.13492076037 1633.94282763038 L1723.14 1633.94 L1723.14 1642.57 L1755.28 1642.57 L1755.27999999999 1442.5700243093 A53.57 53.57 0 0 0 1655.31703033895 1415.78498056696 L1655.32 1415.79 L1682.54526766943 1429.41053000955 A21.43 21.43 0 0 1 1723.14 1439.00001159475 Z M1723.14 1514 L1723.14 1596.14000336622 A21.43 21.43 0 0 1 1680.28 1596.13999663378 L1680.28 1514.00000336622 A21.43 21.43 0 0 1 1723.14 1513.99999663378 Z" style="fill:rgb(0,0,0);" />
<path d=" M327.5 158 L359.64 158 L359.64 290.139995885735 A21.43 21.43 0 0 0 402.5 290.140004114265 L402.5 158 L434.64 158 L434.639999999994 295.720023258258 A44.42 44.42 0 0 1 359.645128730375 327.942874590046 L359.64 327.94 L359.64 408 L327.5 408 Z" style="fill:rgb(0,0,0);" />
<path d=" M554.79 211.57 L554.79 204.429995885735 A21.43 21.43 0 1 0 511.93 204.430004114265 L511.93 243.71 L586.93 243.71 L586.929999999999 286.570008414756 A53.57 53.57 0 0 1 479.790000000001 286.569991585244 L479.790000000001 208.000008414756 A53.57 53.57 0 0 1 586.929999999999 207.999991585244 L586.93 211.57 Z M554.79 272.29 L554.79 290.140003366217 A21.43 21.43 0 0 1 511.93 290.139996633783 L511.93 272.29 Z" style="fill:rgb(0,0,0);" />
<path d=" M704.28 211.57 L704.28 204.429995885735 A21.43 21.43 0 1 0 661.42 204.430004114265 L661.42 243.71 L736.42 243.71 L736.419999999999 286.570008414756 A53.57 53.57 0 0 1 629.280000000001 286.569991585244 L629.280000000001 208.000008414756 A53.57 53.57 0 0 1 736.419999999999 207.999991585244 L736.42 211.57 Z M704.28 272.29 L704.28 290.140003366217 A21.43 21.43 0 0 1 661.42 290.139996633783 L661.42 272.29 Z" style="fill:rgb(0,0,0);" />
<path d=" M794.85 308 L794.850000000009 190.140024120799 A32.14 32.14 0 0 1 826.99002355985 158.000000000009 L855.57 158 L855.57 186.57 L837.71000785084 186.580000000003 A10.71 10.71 0 0 0 827.000000000003 197.290008037765 L826.99 197.29 L826.99 308 L859.14 308 L859.14 336.57 L826.99 336.57 L826.99 408 L794.85 389.44 L794.85 336.57 L778.78 336.57 L778.78 308 Z" style="fill:rgb(0,0,0);" />
<path d=" M1064.13 158 L1064.12486002172 166.627114737312 A44.42 44.42 0 0 0 989.130000000001 198.849992247247 L989.13 336.57 L1021.27 336.57 L1021.27 204.430003366217 A21.43 21.43 0 0 1 1064.13 204.429996633783 L1064.13 336.57 L1096.27 336.57 L1096.27 158 Z" style="fill:rgb(0,0,0);" />
<path d=" M1261.99 158 L1297.71 158 L1319.14 265.14 L1340.57 158 L1376.28 158 L1411.99 336.57 L1382.86 336.57 L1360.1 222.8 L1337.35 336.57 L1304.57 336.57 L1281.81 222.8 L1259.06 336.57 L1226.28 336.57 Z" style="fill:rgb(0,0,0);" />
<path d=" M1521.99 211.57 L1521.99 204.429995885735 A21.43 21.43 0 1 0 1479.13 204.430004114265 L1479.13 243.71 L1554.13 243.71 L1554.13 286.570008414756 A53.57 53.57 0 0 1 1446.99 286.569991585244 L1446.99 208.000008414756 A53.57 53.57 0 0 1 1554.13 207.999991585244 L1554.13 211.57 Z M1521.99 272.29 L1521.99 290.140003366217 A21.43 21.43 0 0 1 1479.13 290.139996633783 L1479.13 272.29 Z" style="fill:rgb(0,0,0);" />
<path d=" M1604.18 158 L1636.32 158 L1636.32 408 L1604.18 408 Z" style="fill:rgb(0,0,0);" />
<path d=" M1696.18 158 L1696.18 408 L1728.32 408 L1728.32 277.29 L1769.26 336.57 L1808.32 336.57 L1749.75 251.75 L1808.32 158 L1770.42 158 L1728.32 225.39 L1728.32 158 Z" style="fill:rgb(0,0,0);" />
<path d=" M1833.17 208 L1833.17 286.569990650271 A53.57 53.57 0 0 0 1940.31 286.570009349729 L1940.31 208 A53.57 53.57 0 0 0 1833.17 208 Z M1865.31 204.43 L1865.31 290.139995885735 A21.43 21.43 0 0 0 1908.17 290.140004114265 L1908.17 204.43 A21.43 21.43 0 0 0 1865.31 204.43 Z" style="fill:rgb(0,0,0);" />
<path d=" M1990.36 158 L2022.5 158 L2022.5 290.139995885735 A21.43 21.43 0 0 0 2065.36 290.140004114265 L2065.36 158 L2097.5 158 L2097.5 290.139995885735 A21.43 21.43 0 0 0 2140.36 290.140004114265 L2140.36 158 L2172.5 158 L2172.49999999999 295.720027134634 A44.42 44.42 0 0 1 2090.58256625271 319.533417696065 L2090.57743624103 319.533413769343 A44.42 44.42 0 0 1 2022.50512254403 327.942868720092 L2022.5 327.94 L2022.5 336.57 L1990.36 336.57 Z" style="fill:rgb(0,0,0);" />
<path d=" M1249.99602374191 536.001725370482 A377.22 377.22 0 0 1 1169.95689774549 575.922297897254 L1169.96210875067 575.919295550214 A4494.53 4494.53 0 0 1 992.987893346355 635.168081833872 L992.984407933157 635.175378920045 A110.98 110.98 0 0 0 917.959245821175 719.911684973908 L917.949894602864 719.90874154226 A213.05 213.05 0 0 0 912.011553792726 766.323383652636 L912.02 766.32 L912.02 1336 L1587.98 1336 L1587.97844614328 766.323379934763 A213.05 213.05 0 0 0 1582.04010452305 719.90873792803 L1582.03075417883 719.911684973908 A110.98 110.98 0 0 0 1507.00559206684 635.175378920045 L1507.01210665364 635.168081833872 A4494.53 4494.53 0 0 1 1330.03789124933 575.919295550214 L1330.03310225451 575.922297897254 A377.22 377.22 0 0 1 1249.99397625809 536.001725370482 Z" style="fill:rgb(0,0,0);" />
<path d=" M1246.26421303698 545.537674140645 A383.23 383.23 0 0 1 1171.98247813337 581.580665525053 L1171.98465718357 581.577798296577 A4500.34 4500.34 0 0 1 994.798973603056 640.897966164795 L994.79919953202 640.904893398765 A104.97 104.97 0 0 0 923.83474114526 721.184535095347 L923.835234574125 721.18336863471 A207.03 207.03 0 0 0 918.031550593133 766.375744453893 L918.04 766.37 L918.04 1329.99 L1577.95 1329.99 L1577.94845101757 766.411012225723 A203.02 203.02 0 0 0 1572.23411494824 722.031226335655 L1572.23461354056 722.032387264901 A100.96 100.96 0 0 0 1503.97972259269 644.727683868247 L1503.97991843191 644.730745801519 A4504.35 4504.35 0 0 1 1326.65354231556 585.363077811 L1326.65589824343 585.356008369454 A387.24 387.24 0 0 1 1246.26878940204 545.536925283961 Z" style="fill:rgb(178,178,178);" />
<path d=" M1491.28 929.23 L1484.11730049886 909.700774845041 A57.54 57.54 0 0 1 1484.49853689664 940.989989241974 L1484.50405886852 940.985909015467 A24.93 24.93 0 0 1 1504.17242927545 970.759323189093 L1504.17 970.76 L1503.69841523479 995.2503333269 A21.87 21.87 0 0 0 1510.54862372852 1009.3703530053 L1510.54428841262 1009.36486356408 A3.17 3.17 0 0 0 1515.21261501924 1005.10428212079 L1515.20563784014 1005.11191995894 A13.28 13.28 0 0 1 1515.49107502629 995.969910535867 L1515.49670558819 995.974616252054 A18.2 18.2 0 0 1 1523.46049424526 1009.85148059344 L1523.45786223561 1009.85073682244 A9.97 9.97 0 0 1 1506.64759567235 1015.15698764492 L1506.64909209332 1015.14678031633 A62.96 62.96 0 0 1 1490.48025801091 971.87352144459 L1490.47929608812 971.877982710455 A4.32 4.32 0 0 0 1482.36673517963 969.732745298089 L1482.37163102304 969.736123963475 A92.27 92.27 0 0 0 1494.81828273386 1022.94881149543 L1494.81731368748 1022.9418458389 A77.49 77.49 0 0 1 1500.58639438591 1077.02527377844 L1500.59019591329 1077.02659278974 A52.42 52.42 0 0 1 1485.68855984009 1102.17637124774 L1485.69 1102.18 L1504.21159059519 1123.32134650691 A18.93 18.93 0 0 1 1530.19462202852 1132.49828359062 L1530.19407508886 1132.49973073886 A66.63 66.63 0 0 1 1533.25330730526 1146.54496140541 L1533.25098616582 1146.54234905875 A21.4 21.4 0 0 0 1536.41202214383 1155.65854153978 L1536.41233730587 1155.66155373057 A4.5 4.5 0 0 0 1540.91918326926 1158.85558961931 L1540.91237932739 1158.84289792819 A17.45 17.45 0 0 0 1548.98669347166 1156.45122716465 L1548.99775770739 1156.45463980593 A6.25 6.25 0 0 0 1542.94716410761 1146.27729858103 L1542.94256594684 1146.28131719616 A5.22 5.22 0 0 1 1550.47526360013 1142.62717073335 L1550.4717001292 1142.62857541465 A15.7 15.7 0 0 1 1557.67749995703 1161.54957561111 L1557.68676983894 1161.54510327973 A23.35 23.35 0 0 1 1542.71551859974 1171.76321780125 L1542.71286586509 1171.76156381822 A7.71 7.71 0 0 1 1534.68133535007 1162.27720094046 L1534.68661535347 1162.28668817941 A6.17 6.17 0 0 0 1530.5983586327 1154.04149758421 L1530.59307577102 1154.0458813988 A25.56 25.56 0 0 1 1511.76057542025 1139.0342140384 L1511.7657952543 1139.02603496048 A4.67 4.67 0 0 0 1502.44126746991 1139.49879596733 L1502.44069004762 1139.50373557134 A26.94 26.94 0 0 0 1525.6503709234 1160.00360113964 L1525.64496545195 1160.00159002031 A18.43 18.43 0 0 1 1517.25001366623 1167.94399790178 L1517.2507586701 1167.95170231533 A24.46 24.46 0 0 1 1528.57723211623 1179.14060147322 L1528.58 1179.14 L1521.54387532402 1180.12380452672 A26.37 26.37 0 0 1 1514.46183074064 1224.03024853588 L1514.45685878133 1224.02974380932 A53.22 53.22 0 0 0 1506.36970394735 1176.03973099044 L1506.36667747969 1176.035168795 A169.74 169.74 0 0 1 1490.52139428346 1150.35296273951 L1490.52685976965 1150.34611290418 A22.42 22.42 0 0 1 1496.89434207353 1125.80533737282 L1496.89 1125.81 L1483.11781930602 1109.01861303947 A121.02 121.02 0 0 0 1461.67414459535 1146.2980876861 L1461.67014995817 1146.30121175194 A34.78 34.78 0 0 0 1464.26634581646 1175.34221103552 L1464.27 1175.34 L1469.45946888926 1187.21151979055 A25.39 25.39 0 0 1 1496.2792672737 1194.58242869696 L1496.27554945887 1194.57588945203 A54.27 54.27 0 0 1 1508.97214032271 1220.75825881027 L1508.98052428419 1220.76085527522 A45.78 45.78 0 0 0 1519.24533502819 1242.33467172109 L1519.24111894736 1242.33637733899 A13.94 13.94 0 0 0 1535.92137614812 1245.80868958951 L1535.92412323577 1245.80610504759 A33.66 33.66 0 0 1 1521.17255354063 1267.88315236839 L1521.1803750612 1267.88894242425 A19.29 19.29 0 0 0 1508.46931557822 1252.70140570736 L1508.47481038533 1252.70793204386 A36.16 36.16 0 0 0 1493.19084100968 1226.79776112407 L1493.18286746842 1226.79960666174 A28.85 28.85 0 0 0 1482.13364751009 1198.6928002114 L1482.12864806139 1198.69652251821 A16.29 16.29 0 0 0 1469.72447317222 1195.62972232983 L1469.72260125202 1195.61959499741 A10.31 10.31 0 0 0 1475.10328453374 1214.31271735997 L1475.10035919575 1214.31767486534 A16.73 16.73 0 0 1 1484.47716366015 1224.35767701249 L1484.49 1224.35 L1469.24 1224.58 L1476.29882360775 1232.5869647 A29.44 29.44 0 0 1 1493.23279702425 1236.41701766084 L1493.22862906539 1236.4224697746 A19.56 19.56 0 0 1 1501.57722411697 1245.9581350551 L1501.58753421817 1245.94837217136 A7.12 7.12 0 0 1 1495.18423512133 1255.76761599274 L1495.18431072402 1255.76214861617 A22.15 22.15 0 0 1 1497.88888230453 1297.34129809432 L1497.88385496859 1297.3413864832 A16.99 16.99 0 0 0 1483.1290251169 1288.49074424784 L1483.13 1288.49 L1476.20571842043 1285.25997533789 A13.41 13.41 0 0 1 1462.91259906739 1269.89957120268 L1462.91447201953 1269.90120317126 A11.44 11.44 0 0 1 1477.23313703797 1278.12428812898 L1477.23256424883 1278.12638123874 A5.44 5.44 0 0 0 1486.92421427472 1282.54060012938 L1486.92634549095 1282.5392058605 A23.44 23.44 0 0 0 1484.35698120841 1258.71931076416 L1484.35 1258.72 L1459.41137158694 1229.10594760934 A31.67 31.67 0 0 1 1458.94580757114 1194.65215579167 L1458.94268081573 1194.65533012616 A63.35 63.35 0 0 1 1475.34990606254 1104.48415118031 L1475.34861144484 1104.48723190766 A63.45 63.45 0 0 1 1427.73392118556 1065.37246642241 L1427.7243892817 1065.36979912083 A14.23 14.23 0 0 1 1413.65944429418 1049.54702029809 L1413.66282950431 1049.55339001609 A6.73 6.73 0 0 0 1425.80336179816 1045.85884131423 L1425.79721753915 1045.8600647819 A39.8 39.8 0 0 1 1441.4899212042 1010.66021673927 L1441.50015437234 1010.66222339293 A41.4 41.4 0 0 0 1462.35930273445 971.774242967859 L1462.35258251489 971.773524742757 A19.36 19.36 0 0 1 1428.10775789049 954.015591822544 L1428.10966384821 954.012945480224 A23.3 23.3 0 0 0 1445.71456941589 964.747382185213 L1445.71249014218 964.74445604447 A13.84 13.84 0 0 1 1446.01440740664 947.28423702382 L1446.01908806764 947.2831393198 A25.81 25.81 0 0 1 1476.70660941187 940.536342982237 L1476.71 940.54 L1478.77690818852 937.796410644876 A45.4 45.4 0 0 0 1451.21668884958 889.841962331678 L1451.22025760088 889.839068384384 A61.18 61.18 0 0 0 1422.11557288866 895.364792006369 L1422.10961235072 895.361459823894 A40.29 40.29 0 0 1 1408.2972445782 922.175782518279 L1408.30498992978 922.182717458844 A44.26 44.26 0 0 1 1387.06298532671 953.001374725716 L1387.0609282182 952.998622967895 A232.6 232.6 0 0 1 1365.83167425188 988.394185761273 L1365.83343204949 988.391011337707 A27.36 27.36 0 0 1 1342.49423352055 1005.78347261714 L1342.5 1005.78 L1342.49540529449 946.984171908467 A44.91 44.91 0 0 0 1338.04077658246 931.510222557046 L1338.03794007694 931.510164490943 A55.23 55.23 0 0 0 1341.43548862229 906.463911751062 L1341.44391183355 906.469849826365 A24.83 24.83 0 0 0 1332.48759388789 917.739512140018 L1332.48 917.73 L1331.55723967303 920.538615231674 A61.93 61.93 0 0 0 1330.35639738434 892.883997100105 L1330.36 892.88 L1323.49 864.54 L1323.59 857.77 L1328.73983117556 854.877952957341 A91.57 91.57 0 0 1 1344.34106070242 883.070175352177 L1344.3415581025 883.072063824366 A4.27 4.27 0 0 1 1341.70312972807 888.482880727991 L1341.69986569174 888.478295616672 A5.38 5.38 0 0 0 1347.51377629678 894.912448723627 L1347.52129992376 894.917443903972 A10.28 10.28 0 0 0 1344.4499610101 875.514199596641 L1344.45091174123 875.511703917276 A88.65 88.65 0 0 0 1328.51260627768 843.976689746144 L1328.51436442033 843.978082142959 A110.6 110.6 0 0 1 1306.80056854468 771.602630525031 L1306.796591486 771.600269705299 A10.35 10.35 0 0 0 1295.96743695452 773.955739904821 L1295.9657047105 773.948593187566 A28.62 28.62 0 0 1 1263.53778345426 768.796785971022 L1263.53502827822 768.807844092182 A167.78 167.78 0 0 1 1238.69199470849 738.400624798034 L1238.69646526577 738.395903275113 A11.07 11.07 0 0 1 1218.03699035349 734.846145175205 L1218.03668590551 734.852493024014 A23.83 23.83 0 0 1 1193.11511002112 728.262305320774 L1193.12098113422 728.249606681242 A28.23 28.23 0 0 0 1210.98416618852 722.000473521866 L1210.99053088816 722.009406887139 A23.02 23.02 0 0 1 1239.24294953051 725.934809135225 L1239.24729676485 725.930538840707 A13.32 13.32 0 0 0 1255.7887272508 728.086077473544 L1255.78130547866 728.093204955499 A21.96 21.96 0 0 1 1234.81346223535 708.567405470429 L1234.82421793541 708.565100443276 A15.76 15.76 0 0 0 1212.41236784927 696.057561291743 L1212.4043546308 696.054677144116 A19.76 19.76 0 0 1 1251.09054939884 698.784314060784 L1251.09435037185 698.787438296428 A23.98 23.98 0 0 1 1274.15189293442 722.12650249331 L1274.16192111916 722.130575612775 A83.05 83.05 0 0 1 1273.73711134318 732.951391213989 L1273.7345373424 732.950741724601 A19.17 19.17 0 0 0 1274.57148626309 740.883817232053 L1274.56831475594 740.889491341297 A10.09 10.09 0 0 0 1284.34400606951 746.055743005907 L1284.3379770245 746.051475037193 A11.26 11.26 0 0 1 1288.55259585561 730.734084957038 L1288.56008645301 730.731353218639 A29.25 29.25 0 0 1 1299.30711986195 731.429453143882 L1299.30317340991 731.435230305093 A13.43 13.43 0 0 1 1306.04420534285 743.741148999757 L1306.04875009465 743.739271786164 A7.44 7.44 0 0 0 1307.30137442847 748.244657530699 L1307.29485514133 748.244566669591 A2.27 2.27 0 0 0 1311.42612383679 746.651628701276 L1311.4249634929 746.655998907131 A24.89 24.89 0 0 1 1332.00501136162 733.780657630117 L1332.00911248708 733.777971295965 A40.83 40.83 0 0 1 1358.54096919341 736.357824060482 L1358.5425731835 736.356738101116 A551.84 551.84 0 0 0 1398.70195980225 752.869697853767 L1398.69917890787 752.867045649568 A115.61 115.61 0 0 1 1412.97094665964 766.717020277394 L1412.97288842112 766.716632433434 A54.84 54.84 0 0 0 1451.56522024724 781.015615063073 L1451.55629479255 781.023089716385 A144.38 144.38 0 0 1 1439.08645986078 735.639240189635 L1439.0854555044 735.635072600062 A30.36 30.36 0 0 0 1433.39270318481 714.894920339955 L1433.40502041254 714.88612646973 A39.83 39.83 0 0 0 1421.79935977077 704.248403975395 L1421.79 704.26 L1414.34016601609 697.581841844484 A8.88 8.88 0 0 0 1401.26288301302 708.792036294025 L1401.26148592105 708.793424853419 A4.05 4.05 0 0 1 1404.71158688973 712.539087346532 L1404.70426930199 712.540902696979 A16.85 16.85 0 0 1 1402.02533321084 729.636141481562 L1402.02658724903 729.640744555407 A11.88 11.88 0 0 1 1393.35984633056 732.94184335928 L1393.35769449873 732.939100425366 A33.42 33.42 0 0 0 1385.81874491549 710.286544514789 L1385.82217543599 710.292459290179 A5.4 5.4 0 0 0 1377.14522147343 709.377604528334 L1377.13903691824 709.372919123783 A15.96 15.96 0 0 0 1367.38082198856 718.017150863665 L1367.38611632596 718.017964362183 A15.75 15.75 0 0 1 1372.84332127257 694.464480889517 L1372.83647787398 694.462548368958 A4.95 4.95 0 0 1 1374.44515629531 693.969595704557 L1374.44365989193 693.968083717313 A3.99 3.99 0 0 0 1377.89727525433 690.5199730988 L1377.89805513135 690.523556847523 A4.76 4.76 0 0 0 1373.00647189154 682.657037263071 L1373.00880556104 682.645304480868 A13.59 13.59 0 0 0 1364.19435529409 692.045328113 L1364.20026215036 692.047849716657 A174.67 174.67 0 0 1 1361.98807210303 699.681626726657 L1361.98956902338 699.67970638869 A11.67 11.67 0 0 1 1350.62297304155 711.446066489443 L1350.61466611241 711.456434112058 A10.58 10.58 0 0 1 1339.95927870034 698.836222786405 L1339.96281144995 698.829722360236 A10.73 10.73 0 0 0 1350.67268008775 686.658121311789 L1350.67657145198 686.662378122135 A13.82 13.82 0 0 0 1341.08404944165 675.159677175943 L1341.08767073285 675.161746544517 A51.47 51.47 0 0 0 1327.70266398986 672.601349550297 L1327.7 672.6 L1328.51081639674 658.07249253045 A87.69 87.69 0 0 1 1354.81137742547 671.180020158429 L1354.81601522255 671.177667984906 A42.29 42.29 0 0 0 1342.47795447764 653.751344357903 L1342.47764704117 653.752487189131 A6.76 6.76 0 0 1 1340.42149902064 646.428555090736 L1340.42342417662 646.426078996686 A7.75 7.75 0 0 1 1350.89731304657 650.516187859736 L1350.8941893053 650.516463257516 A9.8 9.8 0 0 0 1366.93679236074 644.388399816593 L1366.93950441171 644.388741268577 A47.53 47.53 0 0 1 1368.10032716966 631.562194930943 L1368.10011422418 631.564150440729 A8.27 8.27 0 0 1 1382.74797051805 630.013793129069 L1382.74691052171 630.015516299882 A41.96 41.96 0 0 1 1387.52443241036 656.809809086345 L1387.53 656.81 L1392.34153061661 657.789198131475 A15.84 15.84 0 0 1 1400.7403048122 638.830058797339 L1400.72871784094 638.819054831757 A21.11 21.11 0 0 0 1414.84525644366 662.053513050444 L1414.85051993805 662.047691176969 A19.58 19.58 0 0 1 1411.98645008733 642.076927821656 L1411.9859322171 642.085894366544 A6.32 6.32 0 0 1 1424.12945841309 644.62273672207 L1424.13 644.62 L1423.71498052186 652.490114272686 A9.45 9.45 0 0 0 1441.13520573936 655.471463603475 L1441.13026174522 655.471685109195 A13.98 13.98 0 0 1 1444.14261759602 651.893879839215 L1444.1487377707 651.901086466757 A4.42 4.42 0 0 1 1448.95669650146 654.92349546826 L1448.9581694724 654.917496566367 A17.38 17.38 0 0 1 1447.24766460787 678.243150551887 L1447.25 678.25 L1450.81090546804 682.926006379765 A19.86 19.86 0 0 1 1459.8741840039 675.746831496987 L1459.87683358953 675.745587540225 A27.5 27.5 0 0 1 1469.64506381187 686.854916710891 L1469.64 686.86 L1476.17107954005 686.952791578199 A44.95 44.95 0 0 0 1488.33153327026 700.045920125452 L1488.33183495324 700.046849360654 A53.88 53.88 0 0 0 1495.28146756649 722.981156568019 L1495.28134192368 722.990061571176 A4.43 4.43 0 0 1 1498.62213786005 728.28160913887 L1498.63307549149 728.278392662208 A13.86 13.86 0 0 0 1507.30915116373 744.424576426256 L1507.30506151372 744.428678620636 A8.67 8.67 0 0 1 1497.03930914861 751.343461918433 L1497.03662989217 751.347863989938 A54.24 54.24 0 0 0 1521.36134598929 777.290798513643 L1521.358702521 777.28720914949 A22.15 22.15 0 0 1 1507.08541018823 793.403071601918 L1507.09026396118 793.411143373953 A39.17 39.17 0 0 1 1509.68271509791 815.135425033678 L1509.68503811964 815.129183769297 A323.4 323.4 0 0 1 1523.3767811543 830.493636451058 L1523.37755338102 830.491639545986 A7.92 7.92 0 0 1 1523.76125926676 840.150232383589 L1523.75279469525 840.151498087169 A35.71 35.71 0 0 1 1519.98739888776 844.633626353338 L1519.9908564649 844.635372608092 A9.04 9.04 0 0 0 1509.5504973219 841.205120751225 L1509.5516988033 841.199654001748 A27.27 27.27 0 0 1 1508.54609788861 864.020578351978 L1508.54984604299 864.021899686398 A7.14 7.14 0 0 1 1497.10417111888 864.660041737996 L1497.10349567655 864.658411573288 A38.53 38.53 0 0 0 1466.31424736076 850.808249966036 L1466.30836454392 850.81118081149 A9.79 9.79 0 0 1 1459.36618870147 854.91176970817 L1459.36717127629 854.905601296191 A73.06 73.06 0 0 0 1436.27683930052 840.480272846277 L1436.27426907927 840.48242930198 A18.41 18.41 0 0 0 1411.20674423575 858.425011077005 L1411.19813922859 858.432347186982 A57.49 57.49 0 0 0 1415.15598196005 888.567533555362 L1415.16415777199 888.563487725893 A28.31 28.31 0 0 1 1444.00880710677 869.249241822603 L1444.00830092895 869.249605631091 A14.81 14.81 0 0 0 1433.86330342017 884.45171203012 L1433.87 884.45 L1443.54192035591 884.587712307388 A19.52 19.52 0 0 1 1467.97546369941 869.589197103844 L1467.97211754597 869.59496308533 A37.06 37.06 0 0 0 1457.87428878006 881.388932162568 L1457.88118909868 881.393070529362 A30.9 30.9 0 0 1 1497.65704959438 907.132907556461 L1497.65944313954 907.135281038361 A14.62 14.62 0 0 0 1522.71905628346 918.893144176225 L1522.71025552507 918.887656845132 A27.64 27.64 0 0 0 1509.17410606415 900.66108022522 L1509.17050029442 900.659187151253 A12.92 12.92 0 0 1 1528.37143291121 910.389791588836 L1528.36746681115 910.388555110058 A23.71 23.71 0 0 1 1505.29378336966 936.865265856316 L1505.29153748298 936.866786927384 A16.09 16.09 0 0 1 1491.27465907049 929.225456578798 L1491.28 929.23 A0 0 0 1 0 1491.28 929.23 Z" style="fill:rgb(255,0,0);" />
<path d=" M1264.2 1267.35 L1284.43042508673 1267.64396763367 A66.49 66.49 0 0 0 1315.79948220175 1274.14994560181 L1315.8 1274.15 L1315.9170062059 1278.24804851475 A20.15 20.15 0 0 0 1333.4702245357 1277.98322015233 L1333.47460731683 1277.98079156952 A128.65 128.65 0 0 0 1354.57943127459 1260.51467124179 L1354.57903354987 1260.51705382719 A44.4 44.4 0 0 0 1365.4095717256 1241.96717260771 L1365.40408953352 1241.96102681677 A48.05 48.05 0 0 0 1388.45246367493 1242.61436332187 L1388.45 1242.62 L1392.45461754118 1240.03164789748 A7.33 7.33 0 0 0 1387.37125188382 1227.14650530138 L1387.37 1227.15 L1369.99 1226.89 L1369.66212947948 1224.91854551779 A54.97 54.97 0 0 0 1409.47983949505 1206.64283579714 L1409.47298287421 1206.64167082735 A9.99 9.99 0 0 0 1398.05178823035 1199.60870977288 L1398.05093053063 1199.60413473433 A15.17 15.17 0 0 0 1404.07826574339 1185.76422625434 L1404.08 1185.77 L1402.42425066244 1161.94846742661 A10.13 10.13 0 0 1 1411.99882168664 1154.85041034814 L1412 1154.86 L1418.27562648833 1154.27197921313 A26.3 26.3 0 0 0 1395.04632719157 1135.00690964173 L1395.04226243628 1135.01551414055 A35.82 35.82 0 0 0 1379.53446116968 1106.2506581468 L1379.53698527761 1106.25771678817 A35.25 35.25 0 0 1 1395.33538519616 1108.23577561693 L1395.32818933273 1108.23072433614 A24.09 24.09 0 0 0 1368.23836081036 1079.84567253051 L1368.24 1079.84 L1368.04977147459 1061.37385880609 A25.29 25.29 0 0 0 1348.8259403043 1038.05085659794 L1348.8293643808 1038.04397458088 A17.38 17.38 0 0 1 1356.42081868808 1047.92211958077 L1356.42095793088 1047.92802126307 A20.49 20.49 0 0 1 1342.49614631144 1056.57708859554 L1342.5 1056.57 L1342.5 1089.38 L1150 1089.38 L1150.01582594197 1074.57579923514 A13.94 13.94 0 0 0 1140.95488705297 1085.02539542889 L1140.95764611651 1085.02491365466 A19.31 19.31 0 0 1 1119.04027460533 1091.97380692724 L1119.0493472781 1091.97091828625 A9.95 9.95 0 0 1 1114.23761395577 1076.701456946 L1114.23309664211 1076.70226853141 A18.95 18.95 0 0 1 1124.02249537244 1069.73407402111 L1124.02 1069.73 L1118.36097549815 1062.04104762479 A14.26 14.26 0 0 0 1097.44843605285 1062.28975257836 L1097.4345225269 1062.28442451939 A34.89 34.89 0 0 0 1088.95260901313 1079.57065807815 L1088.96549898279 1079.57465265843 A31.1 31.1 0 0 0 1106.26274705153 1109.92632527047 L1106.25404780535 1109.92766980415 A23.43 23.43 0 0 0 1096.13576253786 1119.83421876423 L1096.1390682147 1119.83586286461 A9.09 9.09 0 0 0 1098.05238797416 1128.04202331262 L1098.05251436015 1128.03861388243 A27.76 27.76 0 0 1 1111.66407597292 1125.86959962508 L1111.66134642646 1125.87267639729 A14.22 14.22 0 0 0 1105.40110683552 1129.87123379979 L1105.40400039266 1129.86122769924 A24.76 24.76 0 0 0 1103.18164885163 1157.92223144548 L1103.18575268247 1157.92899315681 A32.91 32.91 0 0 1 1146.72451366249 1153.65015763641 L1146.72339140014 1153.6465395136 A153.94 153.94 0 0 0 1167.4019502179 1172.46990955635 L1167.40962949523 1172.46382485464 A29.56 29.56 0 0 0 1185.44799244116 1178.49967790904 L1185.44443229968 1178.50793669574 A157.79 157.79 0 0 0 1256.15905827528 1167.60328313014 L1256.15616778391 1167.59731279386 A56.61 56.61 0 0 1 1270.91298479593 1161.96935488737 L1270.92 1161.97 L1295.1161966807 1162.3318889535 A63.84 63.84 0 0 1 1320.76800082003 1182.09825403409 L1320.76586001227 1182.09818244375 A12.18 12.18 0 0 0 1310.99859797608 1190.61373737663 L1310.99460373986 1190.60678171081 A38.15 38.15 0 0 0 1283.73204795788 1171.85151150645 L1283.73344090084 1171.85231979288 A14.56 14.56 0 0 0 1267.15738797656 1183.73339266235 L1267.15948225432 1183.73757616028 A15.61 15.61 0 0 0 1253.53531611038 1189.65887121194 L1253.54 1189.66 L1257.18 1191.56 L1257.84 1201.38 L1267.36 1201.87 L1271.2 1197.77 L1271.34435766066 1188.30102423388 A15.69 15.69 0 0 1 1282.69717773939 1182.02850872603 L1282.69438718142 1182.03373376547 A17.38 17.38 0 0 1 1291.73512936446 1183.76651452565 L1291.74126305287 1183.7566937783 A37.76 37.76 0 0 1 1303.66176227393 1200.50438406486 L1303.65561839361 1200.50649317868 A20.86 20.86 0 0 1 1286.47748895244 1228.23354866433 L1286.48 1228.24 L1281.09396230283 1227.92207226056 A13.33 13.33 0 0 1 1266.50237076479 1239.67170409278 L1266.5 1239.68 L1266.4969995759 1245.95029066377 A3.8 3.8 0 0 0 1265.02453273465 1253.27250522717 L1265.02634121223 1253.27626686198 A9.5 9.5 0 0 0 1270.19671485365 1253.83314409689 L1270.1898280813 1253.837781505 A8.87 8.87 0 0 1 1276.2954062264 1254.99929201922 L1276.29883228203 1255.00160869391 A11.6 11.6 0 0 0 1264.2051082806 1267.35281169647 Z" style="fill:rgb(255,0,0);" />
<path d=" M1132.86 1176.14 L1132.72285708988 1170.78495542348 A30.21 30.21 0 0 0 1125.47529737925 1157.95506641975 L1125.48468184366 1157.96041792925 A14.39 14.39 0 0 0 1117.38757281117 1153.67948927648 L1117.38144286653 1153.68134047926 A20.16 20.16 0 0 0 1102.41618896768 1163.16131567732 L1102.41374158341 1163.15814830688 A29.44 29.44 0 0 1 1093.82567780655 1142.94816694144 L1093.83234369195 1142.95035120697 A39.7 39.7 0 0 0 1091.98437312583 1131.73444154225 L1091.98 1131.73 L1080.54285568928 1131.65775505103 A20.85 20.85 0 0 1 1088.07873161512 1113.94259691156 L1088.08 1113.95 L1088.39066701336 1103.15021582805 A7.46 7.46 0 0 1 1084.37794831928 1095.87485829839 L1084.38 1095.88 L1084.48618823909 1089.6701461354 A13.07 13.07 0 0 0 1074.69429164594 1095.53212442166 L1074.69446786658 1095.52988185686 A19.72 19.72 0 0 1 1072.57976711855 1107.56166339692 L1072.58 1107.56 L1069.77564289785 1107.51417887037 A3.59 3.59 0 0 1 1066.73375388015 1105.46296644756 L1066.733266615 1105.46455377544 A3.83 3.83 0 0 0 1062.70243223074 1103.3122873885 L1062.7 1103.32 L1058.66 1103.26 L1058.65324195116 1112.48671004641 A4.03 4.03 0 0 1 1057.8314795997 1115.16773944135 L1057.83 1115.17 L1054.84074712237 1117.02305797266 A35.3 35.3 0 0 1 1048.72916099179 1111.16753760913 L1048.73365491033 1111.16282430804 A11.59 11.59 0 0 0 1040.2064273627 1106.92821986234 L1040.207697129 1106.93019998014 A18.5 18.5 0 0 0 1026.96306166122 1108.81860613811 L1026.96 1108.82 L1032.8 1114.78 L1032.62778748834 1126.75646121724 A11.03 11.03 0 0 1 1035.70128474455 1131.04402798092 L1035.7 1131.05 L1040.16 1140.88 L1031.47797318695 1143.85215401344 A39.39 39.39 0 0 0 1020.67400628949 1148.58746152901 L1020.6795259867 1148.58696646806 A16.61 16.61 0 0 0 1014.18774220463 1156.31389871609 L1014.19043046903 1156.31638607481 A1502.93 1502.93 0 0 0 1010.1633354618 1166.21106047302 L1010.16 1166.21 L1024.1153321861 1166.45501246107 A6.14 6.14 0 0 1 1022.13272906945 1172.427322392 L1022.12526049764 1172.42016238716 A30.87 30.87 0 0 1 1015.86385488481 1178.12526807092 L1015.85968200147 1178.12577870615 A9.59 9.59 0 0 0 1010.02765164226 1184.20283183385 L1010.03 1184.2 L1017.56364037528 1191.97211984713 A49.34 49.34 0 0 1 1017.58607532587 1200.73627284814 L1017.58376018298 1200.73820552573 A10.84 10.84 0 0 1 1013.75783663787 1206.28375335328 L1013.76 1206.28 L1011.33784435667 1206.48502626391 A4.48 4.48 0 0 0 1010.4488318792 1212.63003730167 L1010.44150926053 1212.63387103333 A3.8 3.8 0 0 0 1012.30784468722 1214.01810177614 L1012.30630077047 1214.01557791855 A2.53 2.53 0 0 0 1015.48296055176 1212.52405609937 L1015.4825146534 1212.52455649545 A2.31 2.31 0 0 1 1019.75569120948 1212.4226647283 L1019.75490932 1212.41805062987 A101.38 101.38 0 0 1 1017.03511012951 1241.77068064577 L1017.04522026415 1241.7780674442 A20.23 20.23 0 0 0 1001.25620444139 1224.16799465815 L1001.25218473193 1224.16708134997 A7.8 7.8 0 0 0 991.56105676134 1233.5941562085 L991.563256386035 1233.59658357913 A13.19 13.19 0 1 1 987.084934212319 1259.58420020231 L987.08119482715 1259.59268235211 A6.76 6.76 0 0 0 988.176231822012 1267.11723710224 L988.172581956213 1267.12642871714 A6.67 6.67 0 0 0 991.959036924815 1269.1934178722 L991.961557157519 1269.17948302303 A24.28 24.28 0 0 0 1015.24079857458 1252.31262930907 L1015.24111996468 1252.31664246025 A88.07 88.07 0 0 1 1012.44368090097 1271.87080377596 L1012.44597037214 1271.86711249259 A16.44 16.44 0 0 1 1024.74441053875 1276.23011741379 L1024.73951540184 1276.23319279053 A10.54 10.54 0 0 1 1016.28076742476 1287.22657765516 L1016.28657249079 1287.23315188699 A7.52 7.52 0 0 0 1011.93044043142 1299.02690374042 L1011.92991466227 1299.02107881235 A8.26 8.26 0 0 0 1026.16237142253 1292.10092506262 L1026.1569243696 1292.10719529263 A64.59 64.59 0 0 1 1035.77682081669 1291.85572955089 L1035.77749823265 1291.85495877994 A13.14 13.14 0 0 1 1044.45019332264 1296.76924228185 L1044.44874400187 1296.76694908172 A18.7 18.7 0 0 0 1051.49526141355 1302.27150571237 L1051.49067733129 1302.26870129897 A17.16 17.16 0 0 0 1046.58286075209 1278.53177677391 L1046.59164936738 1278.53228687739 A54.89 54.89 0 0 0 1056.3343079652 1270.41796918505 L1056.33161654247 1270.42190844476 A20.28 20.28 0 0 1 1062.11650769701 1281.71682919271 L1062.11091835524 1281.71224201062 A19.08 19.08 0 0 1 1061.9054265605 1288.70900832019 L1061.90825241004 1288.70526904692 A15.29 15.29 0 0 0 1069.62746779516 1305.42661413524 L1069.63 1305.43 L1071.73299367558 1300.67568589246 A10.52 10.52 0 0 1 1083.73301268982 1288.87826788089 L1083.74 1288.87 L1096.10046287187 1288.93823165362 A10.5 10.5 0 0 0 1091.84141959859 1273.24253702897 L1091.83798674575 1273.24642119022 A263.34 263.34 0 0 0 1086.80887594538 1271.06310422214 L1086.80972095484 1271.06222267968 A15.49 15.49 0 0 1 1081.26221420099 1267.09176837772 L1081.26 1267.09 L1078.65 1264.28 L1081.66297011493 1261.85068151809 A5.5 5.5 0 0 1 1090.08969765873 1263.40708466036 L1090.07824205543 1263.41033260959 A4.4 4.4 0 0 0 1092.17769378364 1265.34727335495 L1092.17806331109 1265.34280714645 A12.06 12.06 0 0 0 1103.08288757088 1271.0839034816 L1103.08518714588 1271.09046403151 A5.28 5.28 0 0 0 1109.49344312495 1269.13849065353 L1109.49030212853 1269.1333193514 A2.44 2.44 0 0 0 1107.87635924667 1265.37578599586 L1107.87488901861 1265.38494036642 A7.63 7.63 0 0 1 1107.46157834515 1252.38895961337 L1107.45792257276 1252.38764395379 A15.39 15.39 0 0 1 1116.36324526816 1249.58006075883 L1116.36722212893 1249.57576025655 A1.82 1.82 0 0 0 1117.94634967546 1247.54751213525 L1117.94586886686 1247.54370405869 A10.49 10.49 0 0 0 1114.16453118749 1235.6479510419 L1114.16146996576 1235.63958926226 A29.02 29.02 0 0 0 1096.98725381831 1238.86349765983 L1096.99 1238.87 L1089.87603512245 1243.19695260974 A5.68 5.68 0 0 1 1084.32453614459 1239.38391995974 L1084.32276797668 1239.38298785206 A6.1 6.1 0 0 0 1081.98545410907 1236.99314929096 L1081.98075879269 1236.98984900727 A6.99 6.99 0 0 1 1076.91985214769 1231.00534879827 L1076.92020787031 1231.00210137514 A25.9 25.9 0 0 1 1067.265370891 1228.20195221665 L1067.27 1228.21 L1056.94876187669 1222.63835569758 A36.31 36.31 0 0 0 1065.08213381704 1206.79602271655 L1065.07470355359 1206.79443004264 A16.78 16.78 0 0 1 1080.96373971343 1198.68572716321 L1080.96494525023 1198.69340007481 A33.83 33.83 0 0 0 1100.66836188739 1188.19541970485 L1100.67 1188.19 L1113.14 1175.85 Z" style="fill:rgb(255,0,0);" />
<path d=" M1150 1043.52 L1336.48 1043.52 L1336.48 1021.6 L1150 1021.6 Z" style="fill:rgb(255,255,0);" />
<path d=" M1150 1021.6 L1336.48 1021.6 L1336.48 997.7 L1150 997.7 Z" style="fill:rgb(255,0,0);" />
<path d=" M1150 997.7 L1336.48 997.7 L1336.48 975.77 L1150 975.77 Z" style="fill:rgb(255,255,0);" />
<path d=" M1150 975.77 L1336.48 975.77 L1336.48 949.04 L1150 949.04 Z" style="fill:rgb(255,0,0);" />
<path d=" M1150 949.04 L1336.48 949.04 L1336.47502576013 947.294069300041 A31.16 31.16 0 0 0 1329.38709510787 928.941645081471 L1329.39 928.94 L1155.39695273726 928.93931284153 A49.54 49.54 0 0 0 1150.0034856698 946.984362947318 L1150 946.98 Z" style="fill:rgb(255,255,0);" />
<path d=" M1329.39277329907 928.938055702227 A34.93 34.93 0 0 0 1320.27184668934 916.793228880076 L1320.27 916.79 L1306.01 905.59 L1176.37 905.59 L1168.06283067239 912.451250330024 A75.25 75.25 0 0 0 1155.39713151552 928.936816311124 L1155.4 928.94 Z" style="fill:rgb(255,0,0);" />
<path d=" M1098.2170834739 868.528083382242 A73.03 73.03 0 0 1 1082.28780445847 886.277770061922 L1082.28355979545 886.282228470117 A11.97 11.97 0 0 1 1065.21644138885 884.111910787701 L1065.21659264478 884.115469435104 A13.61 13.61 0 0 0 1061.58660217653 880.762237715003 L1061.58725362643 880.753451191516 A9.09 9.09 0 0 0 1050.64908577352 895.053993191849 L1050.66 895.05 L1051.84553225218 896.765393349811 A15.08 15.08 0 0 1 1035.55933277419 893.35536157957 L1035.55924550448 893.351442982808 A20.17 20.17 0 0 1 1044.22586318323 864.313439523674 L1044.22883855871 864.31722366092 A16.6 16.6 0 0 1 1031.94503837783 858.134170694147 L1031.93871205115 858.130919728194 A56.25 56.25 0 0 0 1010.98341291466 837.917613827805 L1010.98640918401 837.924052016179 A46.05 46.05 0 0 1 1043.19674605112 847.503004005353 L1043.19913723863 847.505913981986 A15.64 15.64 0 0 0 1053.37600564157 849.680820138406 L1053.37634951426 849.671084391301 A157.9 157.9 0 0 0 1044.76998555744 827.951676336015 L1044.7716678515 827.952074779034 A23.41 23.41 0 0 1 1065.78007626655 841.691367832608 L1065.77619589118 841.689021515052 A38.3 38.3 0 0 0 1087.47828867973 860.446803431583 L1087.48143963557 860.449041324583 A22.87 22.87 0 0 1 1084.38852942143 823.99120585906 L1084.38103172352 824.007225548438 A20.9 20.9 0 0 1 1095.28434379748 844.903171438646 L1095.29762883099 844.899089005591 A21.39 21.39 0 0 0 1101.13564809253 858.07642868519 L1101.13570308697 858.080283945459 A202.35 202.35 0 0 1 1105.19534557495 844.367728881823 L1105.18799476375 844.370576401234 A14.14 14.14 0 0 0 1100.5670314121 828.801747477023 L1100.5654693922 828.796186253632 A17.29 17.29 0 0 1 1094.71033764448 810.41313017721 L1094.71177714091 810.413899312235 A62.57 62.57 0 0 0 1088.89685028764 761.745932600763 L1088.90606449571 761.742947358919 A11.21 11.21 0 0 0 1073.68029832148 754.880355680805 L1073.68390641323 754.88942134628 A41.76 41.76 0 0 0 1056.2581538456 738.36527190765 L1056.25291498842 738.358688765271 A79.69 79.69 0 0 1 1041.47227480492 760.193607557018 L1041.47479194438 760.19696825997 A4.04 4.04 0 0 1 1039.17299685404 761.401675703243 L1039.16656186492 761.396638461471 A5.73 5.73 0 0 0 1041.50955085882 772.191032454716 L1041.51629607806 772.192302704234 A17.42 17.42 0 0 1 1050.54566959336 777.060853198828 L1050.54591679229 777.057103950806 A29.1 29.1 0 0 1 1055.65268981715 798.73087675577 L1055.6526254687 798.735439198317 A7.51 7.51 0 0 1 1048.19774215442 805.039881109211 L1048.19537222401 805.039621295832 A23.93 23.93 0 0 1 1041.69340128757 804.101312653484 L1041.69253842463 804.103201760255 A13.8 13.8 0 0 0 1016.36422410568 793.273934531209 L1016.36928679221 793.271635655252 A4.17 4.17 0 0 1 1008.50585327872 795.755828240754 L1008.50682479996 795.759092091236 A6.04 6.04 0 0 1 1011.01119516446 787.812072397243 L1011.01222197076 787.809940596215 A19.82 19.82 0 0 0 1017.34263978228 766.061900537347 L1017.34814312712 766.052560094133 A230.04 230.04 0 0 1 1002.39122873234 783.506643935332 L1002.38518062378 783.515508002937 A11.29 11.29 0 0 1 982.963432944111 774.554888231325 L982.96885930686 774.546829181576 A5.12 5.12 0 0 1 989.37343633481 772.927675216627 L989.365679473407 772.92191200263 A16.41 16.41 0 0 0 993.918796659968 750.174650979669 L993.92 750.18 L992.568567727718 749.42403940337 A2.24 2.24 0 0 1 990.817645958077 746.821054191824 L990.807488156425 746.826838471804 A4.36 4.36 0 0 1 992.189066722734 742.637413339277 L992.19183479723 742.630975649686 A2.57 2.57 0 0 1 996.206839597682 743.447725627998 L996.20636422201 743.451971355413 A17.71 17.71 0 0 0 1026.04085795433 738.773935931311 L1026.03401201335 738.775802275559 A25.81 25.81 0 0 1 994.753216414035 731.692501470019 L994.752847636984 731.689850246884 A7.48 7.48 0 0 1 995.857168868228 721.199546043561 L995.861212256382 721.200173619325 A13.31 13.31 0 0 0 1017.90180582111 716.744608714319 L1017.89047773773 716.749499643978 A107 107 0 0 0 1019.09987951935 703.048675957307 L1019.10638381152 703.04809513608 A17.26 17.26 0 0 1 1040.71554498956 720.142131499919 L1040.71 720.14 L1040.66381394441 728.070695521609 A23.16 23.16 0 0 0 1049.27577615656 706.351585720057 L1049.27037943399 706.339105868365 A41.69 41.69 0 0 0 1066.04733840806 708.511027903398 L1066.05002431838 708.5153976885 A44.8 44.8 0 0 1 1048.9331786055 685.566927896292 L1048.93 685.57 L1063.12761656744 674.63909329093 A19.66 19.66 0 0 0 1087.40010959728 688.701558078438 L1087.39361244287 688.70259845457 A16.44 16.44 0 0 0 1091.18738518952 681.996655119694 L1091.19557408455 681.988581499263 A5.41 5.41 0 0 1 1100.55125837494 681.897049488398 L1100.54681849843 681.899773986527 A23.46 23.46 0 0 1 1100.66352625402 700.510126712156 L1100.66579431501 700.513451323853 A12.92 12.92 0 0 1 1086.50021433398 706.67875846515 L1086.5 706.68 L1087.0436452906 713.317030862715 A19.46 19.46 0 0 0 1107.97338551123 707.627629368163 L1107.97454700838 707.633291148946 A48.35 48.35 0 0 0 1115.88292279644 719.955328162681 L1115.88790081102 719.953309919512 A48.26 48.26 0 0 1 1118.49013702518 701.788731168746 L1118.49191924985 701.78937236065 A64.91 64.91 0 0 1 1132.68854916877 720.931383474227 L1132.68823772892 720.933821165926 A21.88 21.88 0 0 1 1134.84741281052 729.003936017434 L1134.84398539508 728.999771384461 A14.14 14.14 0 0 0 1145.78415517533 741.801038659917 L1145.79110456727 741.803773082988 A66.67 66.67 0 0 0 1156.96745900408 778.372223124139 L1156.96066397197 778.376274891502 A114.81 114.81 0 0 0 1169.30882899266 763.137641316468 L1169.30876050135 763.130820339578 A13.75 13.75 0 0 1 1170.47413813472 785.633894521761 L1170.47966745599 785.638887529977 A15.34 15.34 0 0 1 1188.64910882152 794.899949006788 L1188.64982806354 794.898872725943 A20.99 20.99 0 0 0 1177.51435944382 814.650511924202 L1177.50648430946 814.651815997523 A21.16 21.16 0 0 1 1199.52142905299 813.912958087214 L1199.52329899793 813.916232897323 A40.59 40.59 0 0 1 1221.82061356159 840.355739057583 L1221.82139497637 840.349537694357 A33.35 33.35 0 0 1 1248.88536668228 855.884500840995 L1248.89 855.89 L1176.36611120242 905.59128317164 A68.14 68.14 0 0 0 1161.15679100254 920.258691654588 L1161.15326814908 920.254449327809 A9.65 9.65 0 0 1 1156.91511556324 920.148259415591 L1156.92049740974 920.143225436059 A94.66 94.66 0 0 1 1098.21786966811 868.524683578912 L1098.21 868.53 Z" style="fill:rgb(255,0,0);" />
<path d=" M1065.67067518331 680.437370502649 A19.39 19.39 0 0 0 1087.39732753494 688.698084349903 L1087.39933246135 688.702212956748 A26.82 26.82 0 0 0 1086.12945990547 658.6433729992 L1086.12957481499 658.644579942273 A25.18 25.18 0 0 0 1065.67600958471 680.437986656845 L1065.67 680.44 Z" style="fill:rgb(255,255,0);" />
<path d=" M982.964617974855 774.552365437518 A4.53 4.53 0 0 1 988.674533110835 772.899810998295 L988.665076715206 772.897918412358 A15.27 15.27 0 0 0 996.083619365224 755.077651518535 L996.087017781439 755.079411040905 A29.16 29.16 0 0 0 966.03351938826 751.818099119932 L966.036086417716 751.818318296438 A35.78 35.78 0 0 0 982.964176872972 774.548800090818 L982.96 774.55 A0 0 0 0 0 982.96 774.55 Z" style="fill:rgb(255,255,0);" />
<path d=" M1135.49009623192 1002.90420952653 A12.55 12.55 0 0 0 1139.50491338043 991.743583446923 L1139.51304709704 991.742250786334 A34.88 34.88 0 0 0 1126.2661105717 974.284383028386 L1126.26934073849 974.285740784267 A31.31 31.31 0 0 1 1116.43268263766 987.753838635619 L1116.42926228973 987.749771246038 A42.94 42.94 0 0 0 1103.58105424542 958.067321013266 L1103.57656292077 958.067048358149 A32.94 32.94 0 0 1 1091.83234674663 973.648089059028 L1091.8358732725 973.656560580379 A187.14 187.14 0 0 0 1060.26354714154 939.796579198586 L1060.26065589533 939.801244702707 A25.03 25.03 0 0 0 1043.17851607332 953.669097099194 L1043.18322601945 953.670557628226 A2.88 2.88 0 0 1 1039.58275825512 955.165504340631 L1039.58459811497 955.159174274382 A4.8 4.8 0 0 1 1037.45031361214 953.60871100471 L1037.44871283846 953.607131397615 A3.24 3.24 0 0 1 1036.8089947497 951.048675234307 L1036.8115115509 951.050287757901 A14.86 14.86 0 0 0 1044.6423080532 932.756762319338 L1044.64561119935 932.752946911225 A6.42 6.42 0 0 0 1034.38261420468 933.628677731858 L1034.38807519347 933.637227768382 A12.53 12.53 0 0 1 1015.79866350759 931.186320448164 L1015.8 931.18 L1010.61756667166 931.272915789459 A7.74 7.74 0 0 0 1005.4532695831 944.577617984735 L1005.454990497 944.578279322687 A62.36 62.36 0 0 0 1015.99016433457 953.513438356954 L1015.98563486389 953.522329448153 A23.13 23.13 0 0 1 993.658839117923 938.321713622525 L993.66437176288 938.316563785326 A11.22 11.22 0 0 1 989.010947451438 948.333328635238 L989.010115112998 948.336573565686 A14.19 14.19 0 0 0 983.234664256988 935.452949924386 L983.236316332795 935.4427531718 A21.93 21.93 0 0 0 976.895238395851 932.252655458144 L976.893547268251 932.263610838559 A7.72 7.72 0 0 0 968.920067019966 943.352560996038 L968.918538449306 943.347113367476 A6.79 6.79 0 0 1 970.968222404771 948.619751211952 L970.979196942654 948.618246997104 A9.23 9.23 0 0 1 963.274449469708 957.843238644258 L963.280763745231 957.84518595787 A8.36 8.36 0 0 1 959.903473482398 957.718095950684 L959.900318568394 957.721141954157 A7.69 7.69 0 0 0 950.14956001034 961.98706045554 L950.139630537171 961.986891023203 A7.43 7.43 0 0 0 958.210120424489 972.170791809773 L958.21 972.16 L962.087212673214 974.654052341804 A26.6 26.6 0 0 0 982.23100850957 967.134340618138 L982.23 967.14 L987.953229610783 969.744899299134 A24.05 24.05 0 0 1 978.268158767828 981.449554191344 L978.261656772094 981.453901523047 A69.33 69.33 0 0 0 988.107914429943 993.445439716049 L988.11 993.44 L980.540824923023 997.367084454033 A17.86 17.86 0 0 0 965.966068730234 984.187731855293 L965.969492166175 984.186120760349 A22.88 22.88 0 0 0 954.98187157894 985.186985226191 L954.979834492803 985.187028217518 A12.31 12.31 0 0 0 956.985063915266 1006.29612681206 L956.989517792835 1006.28456078257 A33.48 33.48 0 0 0 961.415225994056 1007.98825413186 L961.410727142379 1007.99388440216 A7.27 7.27 0 0 1 964.581169686479 1017.58199551696 L964.582556291135 1017.57920238759 A160.79 160.79 0 0 1 957.333676063986 1026.26623091778 L957.332551736356 1026.26873688995 A6.94 6.94 0 0 0 967.161527158153 1035.82133277687 L967.17 1035.82 L971.87401125149 1031.80490468937 A15.21 15.21 0 0 0 977.529309731613 1020.11490509952 L977.539472951837 1020.1210623214 A8.54 8.54 0 0 1 992.838071866428 1016.94452949471 L992.84 1016.94 L998.410780117176 1021.50101773922 A22.43 22.43 0 0 0 980.554353317224 1029.14585979122 L980.559507582436 1029.15575522135 A15.93 15.93 0 0 0 979.34388750541 1045.13555818797 L979.340500969847 1045.1360056118 A7.3 7.3 0 0 0 991.477494064283 1045.13900428429 L991.477620871119 1045.13288544411 A15.03 15.03 0 0 1 993.801253291809 1042.42214156286 L993.8 1042.43 L993.763202919735 1040.80572141241 A14.06 14.06 0 0 1 1018.36275984534 1043.44537032202 L1018.37 1043.44 L1018.14 1044.62 L1019.74 1046.42 L1019.38800264964 1047.58711034519 A3.81 3.81 0 0 0 1025.38810251394 1051.27334187808 L1025.38969533703 1051.27511383804 A19.22 19.22 0 0 0 1018.65471242589 1016.32031738732 L1018.65 1016.32 L1016.74307211561 1012.94296781302 A8.25 8.25 0 0 0 1016.12243093683 999.861383379746 L1016.12798415421 999.864267535833 A22.46 22.46 0 0 1 1011.61503445183 995.715368505069 L1011.61348114904 995.712563029179 A2.94 2.94 0 0 1 1012.60495837238 991.190873946403 L1012.60527474203 991.187399838197 A16.16 16.16 0 0 1 1025.2742483506 991.553810295197 L1025.27799838276 991.559832443773 A22.85 22.85 0 0 1 1040.21797143542 1004.74721018229 L1040.21883175737 1004.74012037581 A131.14 131.14 0 0 0 1080.014686396 1045.09964966629 L1080.01 1045.1 L1085.26108295614 1052.05069743181 A12.21 12.21 0 0 0 1101.22633742367 1052.30354183962 L1101.23217804444 1052.30457770672 A16.6 16.6 0 0 1 1122.56664405865 1057.13858466603 L1122.57 1057.14 L1125.36600832559 1058.86062296261 A29.12 29.12 0 0 1 1130.76694625778 1079.84451392662 L1130.76677815717 1079.84740966463 A33.67 33.67 0 0 0 1142.28080224782 1041.55416213562 L1142.28136834426 1041.55006073036 A25.81 25.81 0 0 1 1150.00663039656 1020.51696321457 L1150 1020.52 L1150.03742895767 1013.34560842692 A15.12 15.12 0 0 0 1137.63184491894 1006.78012648181 L1137.63 1006.78 Z" style="fill:rgb(255,0,0);" />
<path d=" M970.969569633826 948.620724043924 A9.26 9.26 0 0 1 963.271818081574 957.837339386703 L963.279192693571 957.835512616935 A24.58 24.58 0 0 1 946.333098300107 934.860259956706 L946.330269185616 934.863796900875 A27.42 27.42 0 0 1 970.982907400848 948.623399120561 L970.98 948.62 Z" style="fill:rgb(255,255,0);" />
<path d=" M1034.38720129535 933.635150499996 A12.46 12.46 0 0 1 1018.00453324944 933.662836987341 L1017.99826023837 933.660266923229 A22.02 22.02 0 0 1 1031.49272266082 909.49666941789 L1031.49968323054 909.497058225469 A31.32 31.32 0 0 1 1034.3843968163 933.631046946216 L1034.38 933.63 A0 0 0 1 0 1034.38 933.63 Z" style="fill:rgb(255,255,0);" />
<path d=" M961.411388592274 1007.9948218994 A7.31 7.31 0 0 1 963.826192373571 1018.87492722773 L963.831531122314 1018.87383986772 A38.37 38.37 0 0 1 959.04853544895 1024.10233209948 L959.048363544701 1024.10291933049 A8.48 8.48 0 0 0 957.336521980573 1026.26287191656 L957.333152020605 1026.25991978712 A24.86 24.86 0 0 1 932.868056066998 1006.15023497215 L932.861822587597 1006.15047149307 A175.5 175.5 0 0 0 961.411709732696 1007.99432786217 L961.41 1008 A0 0 0 0 1 961.41 1008 Z" style="fill:rgb(255,255,0);" />
<path d=" M1306.01 905.59 L1278.42 885.2 L1206.12 885.2 L1176.37 905.59 Z" style="fill:rgb(255,255,0);" />
<path d=" M1366.94155130886 644.388444488234 A9.84 9.84 0 0 1 1357.08763098236 652.839358373587 L1357.0779052724 652.841195816576 A34.49 34.49 0 0 1 1343.07667014246 622.74155963402 L1343.08172161661 622.736766255143 A30.19 30.19 0 0 1 1366.93712697478 644.384510258939 L1366.94 644.39 Z" style="fill:rgb(255,255,0);" />
<path d=" M1071.67246299585 1298.70905081777 A10.48 10.48 0 0 1 1083.74203998864 1288.86317288573 L1083.74 1288.87 L1093.91304252268 1288.92994642869 A33.1 33.1 0 0 1 1093.72294280059 1303.11644659943 L1093.7238535567 1303.11529894431 A68.23 68.23 0 0 1 1087.2619098333 1314.9066363822 L1087.26260616107 1314.90519396469 A23.71 23.71 0 0 1 1071.67488186281 1298.71133839101 L1071.67 1298.71 Z" style="fill:rgb(255,255,0);" />
<path d=" M1026.49525366524 1310.26416514807 A17.68 17.68 0 0 1 1025.40551516576 1297.12859115156 L1025.40617597463 1297.12895773385 A9.31 9.31 0 0 0 1026.15349460938 1292.10891759372 L1026.16 1292.11 L1035.04000314964 1291.76982355336 A13.34 13.34 0 0 1 1044.77586845252 1297.19271135079 L1044.76746939217 1297.19849394272 A12.58 12.58 0 0 0 1046.96640731116 1299.51662830624 L1046.9735346198 1299.51613025096 A49.78 49.78 0 0 1 1037.8964193811 1314.04073248877 L1037.89 1314.04 L1031.6 1320.1 Z" style="fill:rgb(255,255,0);" />
<path d=" M999.14744689662 1237.68786952827 A13.04 13.04 0 0 1 992.038549088605 1259.62641965599 L992.042153024426 1259.63405819194 A28.85 28.85 0 0 1 971.439053605481 1237.43169020694 L971.435644556502 1237.43494589427 A13.66 13.66 0 0 0 987.794586554936 1236.84353494431 L987.798606476289 1236.84819873364 A6.04 6.04 0 0 1 993.649257849895 1235.87187908656 L993.646592122856 1235.87042765061 A106.98 106.98 0 0 0 999.147651366251 1237.69840828895 L999.15 1237.69 Z" style="fill:rgb(255,255,0);" />
<path d=" M1168.79032402575 1269.45380658562 A57.04 57.04 0 0 0 1175.40436962384 1288.44279128236 L1175.40590543006 1288.43947246731 A24.11 24.11 0 0 0 1214.64072126017 1292.40915503627 L1214.64686614004 1292.42108582377 A27.04 27.04 0 0 0 1218.70989131109 1272.90558623626 L1218.70811236544 1272.90272913263 A123.71 123.71 0 0 1 1209.81413580418 1253.4376564637 L1209.81593995892 1253.43826547015 A30.21 30.21 0 0 1 1220.71958074578 1226.24003607625 L1220.71987540976 1226.25021318391 A25.41 25.41 0 0 1 1240.92122668782 1221.70904443657 L1240.92809108714 1221.70555130377 A82.59 82.59 0 0 0 1274.22093421214 1222.51470867778 L1274.21100972669 1222.50605897137 A12.47 12.47 0 0 0 1282.79329011654 1214.37350857762 L1282.8083173852 1214.37701016629 A49.47 49.47 0 0 0 1285.06686939807 1200.14653567239 L1285.06436024365 1200.14739826124 A30.11 30.11 0 0 1 1250.72197655967 1210.03176553552 L1250.72031822201 1210.03220653267 A526.26 526.26 0 0 1 1228.69786838328 1201.2977546037 L1228.69529382039 1201.29935886545 A31.9 31.9 0 0 0 1196.64589037357 1205.53036140678 L1196.65051231779 1205.52929493644 A36.29 36.29 0 0 0 1181.30417142442 1233.61551776827 L1181.29626302658 1233.61263089155 A23.51 23.51 0 0 0 1187.32071743319 1248.79242923182 L1187.32774464614 1248.78869188229 A29.5 29.5 0 0 1 1188.85978211898 1270.53930998588 L1188.85806103103 1270.54601410342 A7.99 7.99 0 0 1 1175.57871728935 1276.35685453941 L1175.58321886926 1276.35129460897 A21.19 21.19 0 0 1 1168.79463903768 1269.45606056773 L1168.79 1269.46 Z" style="fill:rgb(255,255,0);" />
<path d=" M1337.62552328328 1322.24053175805 A119.21 119.21 0 0 0 1351.46354321421 1309.17330157544 L1351.47084721156 1309.16390431818 A10.94 10.94 0 0 1 1344.71673922511 1301.35106318766 L1344.70988589636 1301.35724826172 A58.67 58.67 0 0 1 1357.01801720161 1300.8936608607 L1357.01980088828 1300.89302611539 A19.95 19.95 0 0 0 1349.83532606518 1287.47597989937 L1349.83797139069 1287.46927126831 A8.26 8.26 0 0 0 1341.05425248853 1289.08064389535 L1341.05243234912 1289.08428416891 A22.11 22.11 0 0 1 1367.12595211445 1273.08227099436 L1367.12769182145 1273.0819718646 A18.74 18.74 0 0 0 1355.73200445618 1278.56634594639 L1355.73747165077 1278.56641831343 A238.29 238.29 0 0 1 1351.27020407451 1282.98174796469 L1351.26988331236 1282.98567309959 A56.76 56.76 0 0 1 1361.69465537255 1296.39118915454 L1361.69476569751 1296.38379129609 A50.4 50.4 0 0 0 1373.19443804852 1283.08893535419 L1373.18922678381 1283.09464540049 A18.4 18.4 0 0 0 1376.96360314193 1298.69351479714 L1376.97166277527 1298.69422884902 A129.36 129.36 0 0 1 1392.03901101961 1287.12613315366 L1392.03540325738 1287.12347931417 A14.93 14.93 0 0 0 1383.72331531329 1278.1309837998 L1383.7185341847 1278.13275735365 A13.28 13.28 0 0 0 1395.76435385399 1269.38761624348 L1395.76774812298 1269.38813509515 A37.13 37.13 0 0 1 1387.6184585842 1258.90000322679 L1387.62 1258.9 L1375.33896872352 1267.99507513498 A35.6 35.6 0 0 1 1403.45650198485 1247.17214731701 L1403.46 1247.17 L1395.01 1253.43 L1394.12937813999 1256.20757391547 A20.08 20.08 0 0 0 1403.99033550717 1268.27408936582 L1403.99122479652 1268.26919237202 A31.13 31.13 0 0 1 1411.16413132876 1256.78278105384 L1411.17 1256.79 L1419.75 1269.5 L1424.56 1266.21 L1415.6409089025 1253.01225952809 A4.92 4.92 0 0 1 1409.22864388358 1247.90208853717 L1409.22754285181 1247.89731354169 A24.19 24.19 0 0 0 1404.77055199543 1235.11275129966 L1404.77 1235.12 L1321.02 1289.11 L1327.25954416854 1297.6228423516 A4.87 4.87 0 0 0 1332.89911105808 1305.56021472868 L1332.9 1305.56 Z" style="fill:rgb(255,255,0);" />
<path d=" M1080.45121226482 1131.78510843008 A29.62 29.62 0 0 0 1062.23973795129 1140.22198898275 L1062.23581195249 1140.21562279065 A25.13 25.13 0 0 0 1056.24649553766 1149.60303195186 L1056.25389202932 1149.60371509117 A53.85 53.85 0 0 0 1053.11885773979 1166.02729020941 L1053.11672786557 1166.02693088057 A71.98 71.98 0 0 1 1033.66344014855 1205.41769295778 L1033.66862650047 1205.41299310409 A60.28 60.28 0 0 0 1049.74552865691 1168.94230680731 L1049.7369953223 1168.94678886934 A70.91 70.91 0 0 1 1055.67489657988 1145.59355244932 L1055.67693897265 1145.59404569087 A25.43 25.43 0 0 1 1080.47073067982 1131.76858327986 L1080.47166784211 1131.77006966376 A0.02 0.02 0 1 1 1080.45096514228 1131.78386206945 Z" style="fill:rgb(0,0,0);" />
<path d=" M1150 1067.44 L1336.46 1067.44 L1336.48 1043.52 L1150 1043.52 Z" style="fill:rgb(255,0,0);" />
<path d=" M1243.63 859.49 L1312.61724044125 910.472673981695 A62.23 62.23 0 0 1 1326.81897486503 924.248969828638 L1326.81696110812 924.251434084688 A43.52 43.52 0 0 1 1336.47653931723 947.293094005265 L1336.48 947.29 L1336.48 1089.38 L1342.5 1089.38 L1342.49651510077 946.984370690797 A49.54 49.54 0 0 0 1331.55792125361 920.539059390475 L1331.55994803189 920.536610880892 A68.25 68.25 0 0 0 1316.13402807599 905.586118237783 L1316.13 905.59 L1248.89 855.89 Z" style="fill:rgb(0,0,0);" />
<path d=" M1150 1089.38 L1336.48 1089.38 L1336.46 1067.44 L1150 1067.44 Z" style="fill:rgb(255,255,0);" />
<path d=" M1350.73959127316 688.086651785396 A10.66 10.66 0 0 1 1339.96611893271 698.839391685388 L1339.96663988426 698.832013383119 A33.82 33.82 0 0 1 1312.66226418149 681.711994924337 L1312.6613069461 681.714262145907 A37.87 37.87 0 0 1 1328.61204540825 680.685148136028 L1328.6046908658 680.680794911082 A22.8 22.8 0 0 1 1350.726690299 688.081963425489 L1350.73 688.08 Z" style="fill:rgb(255,255,0);" />
<path d=" M1135.84447888658 766.930534893824 A168.92 168.92 0 0 0 1151.63960475056 790.14109881407 L1151.64597587643 790.138554793974 A17.83 17.83 0 0 1 1153.14476529195 810.423116617868 L1153.13787692944 810.427280841666 A83.4 83.4 0 0 0 1148.23889190254 820.11783535761 L1148.24711528386 820.116499687157 A18.32 18.32 0 0 0 1149.94202772267 837.588745134352 L1149.93969674859 837.595197457394 A12.36 12.36 0 0 1 1146.01435629658 816.75678565582 L1146.01592481596 816.764103351595 A21.61 21.61 0 0 0 1146.98459847757 791.912638878873 L1146.98969698483 791.91350506314 A44.79 44.79 0 0 1 1135.85584729876 766.932773977629 L1135.85 766.93 Z" style="fill:rgb(0,0,0);" />
<path d=" M1024.26720502023 786.227178996198 A13.96 13.96 0 0 1 1041.68918137443 804.104614155576 L1041.68472709962 804.100618108557 A30.55 30.55 0 0 1 1019.95292588084 820.292125802804 L1019.96110103042 820.294239673615 A20.24 20.24 0 0 0 1016.77840424283 808.084110395429 L1016.77464233377 808.083755242644 A18.92 18.92 0 0 1 1024.32159984652 786.210543300913 L1024.32485378487 786.203612572531 A0.1 0.1 0 1 0 1024.27314540567 786.219950519874 Z" style="fill:rgb(255,255,0);" />
<path d=" M995.855489283554 721.200183362177 A13.3 13.3 0 0 0 1016.95527076217 718.689450657898 L1016.94690132168 718.695345974419 A32.67 32.67 0 0 0 990.506690641251 694.010482485976 L990.507846443881 694.007838992883 A27.97 27.97 0 0 0 995.856069491586 721.20685170922 L995.86 721.2 A0 0 0 0 0 995.86 721.2 Z" style="fill:rgb(255,255,0);" />
<path d=" M1115.84 718.72 L1115.89 719.95 L1115.1138102394 719.047422799777 A230.64 230.64 0 0 0 1136.4533063873 761.374114460132 L1136.45 761.38 L1137.12605799675 760.939759707891 A224.42 224.42 0 0 1 1115.8599729288 718.574901189282 L1115.85105415863 718.580757665517 A0.14 0.14 0 1 0 1115.83351859525 718.711936124717 Z" style="fill:rgb(0,0,0);" />
<path d=" M1052.28927430174 943.228728139885 A35.55 35.55 0 0 0 1050.99787553282 944.120549524437 L1050.99508563448 944.124422714698 A7.98 7.98 0 0 0 1051.27418383054 953.631654351579 L1051.27129542449 953.619476979224 A44 44 0 0 0 1044.30054856483 951.512684186597 L1044.3 951.52 L1043.89120415703 952.246196710262 A43.29 43.29 0 0 1 1072.00675691088 972.037108993211 L1072.01 972.04 L1072.68415073822 971.616636985295 A44.23 44.23 0 0 0 1053.34993854881 954.505210852884 L1053.35401671202 954.508101314867 A7.15 7.15 0 0 1 1052.56500047179 943.525749844748 L1052.56 943.52 Z" style="fill:rgb(0,0,0);" />
<path d=" M993.763202085718 1040.80572262577 A14.06 14.06 0 0 1 1018.36275928774 1043.44536895933 L1018.36216546208 1043.44404388505 A43.74 43.74 0 0 1 991.777938169594 1069.88919638795 L991.783991952891 1069.88728011028 A149.48 149.48 0 0 0 993.803444496268 1042.42249610452 L993.8 1042.43 Z" style="fill:rgb(255,255,0);" />
<path d=" M1206.12 885.2 L1278.13 884.98 L1243.63 859.49 Z" style="fill:rgb(255,0,0);" />
<path d=" M1169.48223350135 1089.37920377831 A32.96 32.96 0 0 0 1170.81127166476 1109.02660326058 L1170.80651471743 1109.02392269072 A54.01 54.01 0 0 0 1204.87411571414 1133.91174202885 L1204.87129322586 1133.92124395035 A36.23 36.23 0 0 1 1195.48974424646 1124.59032665862 L1195.49152501256 1124.57973799943 A17.56 17.56 0 0 1 1193.90692744369 1107.43800416056 L1193.91352939919 1107.44058981691 A25.06 25.06 0 0 1 1217.45565815866 1100.1624324365 L1217.45 1100.16 L1228.27121899592 1100.320059813 A20.78 20.78 0 0 0 1222.01732150402 1109.06235336569 L1222.01447006993 1109.0593228376 A18.7 18.7 0 0 0 1229.16760356788 1127.89046481029 L1229.16434772716 1127.8955546389 A51.53 51.53 0 0 0 1251.12299086451 1135.93626141091 L1251.1285169236 1135.93591138841 A99.92 99.92 0 0 0 1260.62350336656 1136.64414671894 L1260.61765926881 1136.63474150087 A23.45 23.45 0 0 1 1258.02632461234 1116.83091308778 L1258.02224002609 1116.83723170855 A21.55 21.55 0 0 1 1282.3600893379 1104.92139123244 L1282.36 1104.92 L1282.56998298563 1104.15054335557 A20.52 20.52 0 0 0 1264.72442093921 1107.64267188469 L1264.72339862518 1107.63205952867 A20.7 20.7 0 0 0 1259.18490231168 1135.82054260781 L1259.18306995506 1135.82338713457 A67.45 67.45 0 0 1 1237.1463132306 1131.60129714726 L1237.14893615044 1131.59799543747 A25.97 25.97 0 0 1 1226.64604494986 1124.33900942081 L1226.6422769185 1124.3467753452 A18.09 18.09 0 0 1 1222.49460268987 1115.80906988122 L1222.4951288977 1115.80216767647 A9.88 9.88 0 0 1 1223.58951674261 1107.57370515991 L1223.5923505225 1107.58426668272 A22.75 22.75 0 0 1 1230.62646817666 1099.55973956292 L1230.63 1099.55 L1217.51185799119 1099.36136851584 A31.03 31.03 0 0 0 1198.93275154458 1102.26603837265 L1198.933153147 1102.26462401612 A13.63 13.63 0 0 0 1191.60535733343 1112.04664919082 L1191.59833197759 1112.04505263321 A16.35 16.35 0 0 0 1194.8143648955 1125.01673164552 L1194.81982836085 1125.02270456229 A25.6 25.6 0 0 0 1200.97372012222 1132.07451398278 L1200.97452119846 1132.07025284599 A56.67 56.67 0 0 1 1183.74290236318 1122.74248372049 L1183.74666657281 1122.73296880539 A50.56 50.56 0 0 1 1171.53606890167 1108.69317863752 L1171.53002514939 1108.6970359203 A32.02 32.02 0 0 1 1170.30909798004 1089.37181883993 L1170.31 1089.38 Z" style="fill:rgb(0,0,0);" />
<path d=" M1142.43674396696 1035.26036979346 A204.34 204.34 0 0 0 1094.71377937164 997.212384871118 L1094.71 997.21 L1094.31946180354 997.906938635726 A203.55 203.55 0 0 1 1142.30959535717 1036.29658294014 L1142.31 1036.29 Z" style="fill:rgb(0,0,0);" />
<path d=" M1460.89 820.81 L1435.07287127871 820.438526390457 A40.36 40.36 0 0 1 1414.23184012945 809.693388152241 L1414.2311036756 809.685388845037 A15.05 15.05 0 0 0 1387.73376753571 823.565941977116 L1387.74 823.56 L1393.46703904548 836.644564431694 A19.9 19.9 0 0 1 1389.92342006693 855.371606505244 L1389.93 855.38 L1388.01 851.37 L1372.52 826.86 L1371.85 827.29 L1387.32068042429 851.768795388718 A69.62 69.62 0 0 1 1395.03097623998 881.359303646588 L1395.03 881.36 L1395.16 908.7 L1395.96 908.7 L1395.83066998053 881.327438270812 A70.38 70.38 0 0 0 1390.27782096944 856.186679828881 L1390.27512163707 856.186180035204 A20.93 20.93 0 0 0 1394.75690188423 838.123591983171 L1394.76 838.12 L1389.85 826.09 L1388.21224839251 822.052239685604 A17.69 17.69 0 0 1 1390.78114381083 809.204217288314 L1390.78243797233 809.203421450669 A13.24 13.24 0 0 1 1408.35301395396 805.885015486553 L1408.34962613824 805.894047130885 A26.24 26.24 0 0 1 1413.72403127031 810.307913380653 L1413.72053559628 810.305621654743 A41.12 41.12 0 0 0 1434.98905624149 821.229423435516 L1434.99 821.23 L1460.88 821.6 Z" style="fill:rgb(0,0,0);" />
<path d=" M1452.88021760189 704.496731666043 A80.63 80.63 0 0 1 1474.39255639522 749.357794710247 L1474.40127644948 749.354931012203 A175.02 175.02 0 0 1 1478.75462483832 805.103960968176 L1478.75 805.1 L1478.54 826.32 L1496.2 830.44 L1484.60804135215 822.297576276242 A176.14 176.14 0 0 0 1482.43854366967 775.079659968344 L1482.44674984296 775.079344494539 A745.21 745.21 0 0 0 1473.20515768354 733.738621931329 L1473.19802447103 733.740583569687 A63.93 63.93 0 0 0 1452.88781017404 704.493822830113 L1452.89 704.49 Z" style="fill:rgb(0,0,0);" />
<path d=" M1441.13729957756 655.464937915941 A9.37 9.37 0 0 1 1424.06918724875 648.04418799952 L1424.06288047515 648.052252388908 A32.49 32.49 0 0 0 1441.43912491026 627.775768704951 L1441.44401205101 627.773930793233 A49.28 49.28 0 0 1 1441.13689515462 655.474683133301 L1441.13 655.47 Z" style="fill:rgb(255,255,0);" />
<path d=" M1392.85819556206 725.530150153216 A26.21 26.21 0 0 1 1378.2978885525 737.3111553795 L1378.30198362115 737.307572349603 A24.06 24.06 0 0 1 1374.97203628432 718.37316431672 L1374.96523550415 718.369251210851 A10.57 10.57 0 0 1 1385.68536002454 710.289386644302 L1385.68522784818 710.296497510948 A32.25 32.25 0 0 1 1392.86115547928 725.529634902919 L1392.86 725.53 Z" style="fill:rgb(255,255,0);" />
<path d=" M1470.37746858857 995.070481200901 A11.18 11.18 0 0 1 1468.06158011293 1003.84474376469 L1468.06509184653 1003.83312676045 A86.56 86.56 0 0 1 1447.75352660759 1028.16719305699 L1447.74887766412 1028.17028964167 A26.98 26.98 0 0 0 1437.2859158641 1061.00019262143 L1437.28565831369 1061.00288223614 A54.37 54.37 0 0 0 1466.63599550043 1093.82849384757 L1466.63795168781 1093.82193398995 A13.51 13.51 0 0 0 1481.91899269696 1090.89409723716 L1481.92436131757 1090.89250049831 A23.46 23.46 0 0 0 1489.17479833173 1072.43438360671 L1489.18 1072.43 L1489.08460363718 1059.43694546174 A17.89 17.89 0 0 1 1477.18314434658 1048.55542354376 L1477.18196962109 1048.55515588558 A9.33 9.33 0 0 0 1485.70853192707 1046.82067520851 L1485.70557095246 1046.82380118725 A8.52 8.52 0 0 0 1488.60734179865 1038.29492401276 L1488.6080718301 1038.30119460485 A65.79 65.79 0 0 0 1477.31872177398 1007.64820009948 L1477.32330330159 1007.63878710396 A20.31 20.31 0 0 1 1476.10634091697 995.147121385404 L1476.1 995.15 Z" style="fill:rgb(178,178,178);" />
<path d=" M1335.04 1301.53 A4.87 4.87 0 0 1 1325.3 1301.53 A4.87 4.87 0 0 1 1335.04 1301.53 Z" style="fill:rgb(255,0,0);" />
<path d=" M1319.66 1286.96 L1321.13 1289.03 L1404.77 1235.12 L1403.41 1232.98 Z" style="fill:rgb(0,0,0);" />
<path d=" M1323.03406735176 911.083271377207 A72.25 72.25 0 0 0 1316.13236239745 905.58532047313 L1316.13 905.59 L1248.89 855.89 L1269.47706057996 863.476934552672 A157.3 157.3 0 0 1 1313.12040903538 856.809182116206 L1313.12 856.81 L1316.07809989581 875.519098947583 A50.6 50.6 0 0 1 1323.03436623007 911.082012116751 L1323.03 911.09 Z" style="fill:rgb(255,0,0);" />
<path d=" M1105.96874115211 1109.77208743279 A22.76 22.76 0 0 1 1119.99602345096 1111.79176697658 L1120 1111.79 L1129.82 1121.95 L1129.22 1122.47 L1119.57951483874 1112.46347337399 A22.14 22.14 0 0 0 1104.46880897377 1110.93411519944 L1104.46 1110.93 L1106.26 1109.93 L1105.97 1109.77 Z" style="fill:rgb(0,0,0);" />
<path d=" M1311.29605235947 1189.74857486692 A23.66 23.66 0 0 0 1328.45202398512 1197.68410833931 L1328.45 1197.69 L1328.43707478749 1198.48415548476 A24.3 24.3 0 0 1 1320.71710480017 1197.04562777131 L1320.71 1197.05 L1319.77506304849 1226.64981843246 A42.89 42.89 0 0 1 1307.43395528345 1242.76447725299 L1307.44 1242.76 L1306.95000084118 1249.14720511867 A21.69 21.69 0 0 0 1327.14479008349 1240.25210720224 L1327.14 1240.25 L1327.79255396681 1240.71363152143 A22.39 22.39 0 0 1 1306.10699751556 1249.80900435696 L1306.1 1249.81 L1306.67165575493 1242.35760273785 A42.09 42.09 0 0 0 1318.99210937794 1226.46486011055 L1318.99 1226.46 L1319.92545682952 1196.74933757057 A24.55 24.55 0 0 1 1310.99714824843 1190.60889425219 L1311 1190.61 Z" style="fill:rgb(0,0,0);" />
<path d=" M1308.542334702 1254.66481964191 A23.52 23.52 0 0 0 1327.19798722963 1251.07091664135 L1327.2 1251.07 L1344.43 1239.05 L1348.69 1244.92 L1341.64 1250.57 L1343.61 1252.92 L1343.53460291647 1258.52618238945 A8.99 8.99 0 0 1 1327.55203227708 1262.83278566367 L1327.55 1262.83 L1309.87 1262.49 L1309.95 1256.43 L1308.52 1256.41 Z" style="fill:rgb(0,0,0);" />
<path d=" M1106.64035444931 1264.49372821828 A7.48 7.48 0 0 1 1107.4642874102 1252.39155626103 L1107.46688282837 1252.3860963958 A15.18 15.18 0 0 1 1116.16036806999 1249.58032696404 L1116.16386116824 1249.58320561033 A35.47 35.47 0 0 0 1121.64823516608 1255.70666990218 L1121.64394205951 1255.70620094917 A15.41 15.41 0 0 1 1125.91810530137 1266.60164234277 L1125.91829958531 1266.59686534748 A13.83 13.83 0 0 1 1123.83115738962 1273.68849664105 L1123.82986157334 1273.68967200267 A20.94 20.94 0 0 0 1106.4996328173 1264.37019183569 L1106.50059930339 1264.37000128274 A0.14 0.14 0 1 0 1106.63809971887 1264.4870115758 Z" style="fill:rgb(255,255,0);" />
<path d=" M1418.83 1248.43 A4.88 4.88 0 0 1 1409.07 1248.43 A4.88 4.88 0 0 1 1418.83 1248.43 Z" style="fill:rgb(255,0,0);" />
<path d=" M1320.75265591982 1182.10013446497 A23.6 23.6 0 0 1 1344.14035883245 1190.98442928688 L1344.15 1190.98 L1344.78285199449 1190.50115159234 A24.41 24.41 0 0 0 1320.18888708708 1181.39969539678 L1320.18 1181.4 Z" style="fill:rgb(0,0,0);" />
<path d=" M1310.75 1256.44 L1310.75713324296 1255.74295024044 A23.37 23.37 0 0 0 1325.88067596006 1252.92746453527 L1325.88 1252.93 L1344.25 1240.15 L1347.6 1244.77 L1340.51 1250.46 L1342.81 1253.21 L1342.73063676826 1258.43099444116 A8.25 8.25 0 0 1 1327.87673098023 1262.04313692828 L1327.88 1262.04 L1310.68 1261.7 L1310.7 1260.13 L1333.33 1260.46 L1333.38 1256.57 Z" style="fill:rgb(255,0,0);" />
<path d=" M1263.12 1201.8 L1267.36 1201.87 L1262.97 1211.74 Z" style="fill:rgb(255,255,0);" />
<path d=" M1266.50175770029 1239.68596059812 A13.24 13.24 0 0 0 1276.16066772421 1236.86693040231 L1276.15 1236.86 L1267.52 1223.94 Z" style="fill:rgb(255,255,0);" />
<path d=" M1378.39 1274.5 A4.87 4.87 0 0 1 1368.65 1274.5 A4.87 4.87 0 0 1 1378.39 1274.5 Z" style="fill:rgb(255,0,0);" />
</g>
</svg>
