<?xml version="1.0" encoding="UTF-8"?>
<!DOCTYPE svg PUBLIC '-//W3C//DTD SVG 1.0//EN' 'http://www.w3.org/TR/2001/REC-SVG-20010904/DTD/svg10.dtd'>
<svg xmlns:xlink="http://www.w3.org/1999/xlink" xmlns="http://www.w3.org/2000/svg" width="1250" height="1750">
<!--Gegenereerd door de SIMaD-toepassing (http://www.dlw.be).-->
<g style="stroke:none;fill-rule:evenodd;" transform="matrix(1,0,0,-1,0,1750)">
<path d=" M65 0 L1184.99999546214 1.56319401867222E-13 A65 65 0 0 1 1250 65.0000045378561 L1250 1684.9999875209 A65 65 0 0 1 1185.00000453786 1750 L65.0000045378561 1750 A65 65 0 0 1 1.56319401867222E-13 1684.99999546214 L1.56319401867222E-13 65.0000045378561 A65 65 0 0 1 65.0000045378561 1.56319401867222E-13 Z" style="fill:rgb(0,0,255);" />
<path d=" M65 15 L1184.99999650934 15.0000000000001 A50 50 0 0 1 1235 65.0000034906585 L1235 1684.99999040069 A50 50 0 0 1 1185.00000349066 1735 L65.0000034906585 1735 A50 50 0 0 1 15.0000000000001 1684.99999650934 L15.0000000000001 65.0000034906585 A50 50 0 0 1 65.0000034906585 15.0000000000001 Z" style="fill:rgb(255,255,255);" />
<path d=" M65 30 L1184.99999755654 30.0000000000001 A35 35 0 0 1 1220 65.000002443461 L1220 1684.99999328048 A35 35 0 0 1 1185.00000244346 1720 L65.000002443461 1720 A35 35 0 0 1 30.0000000000001 1684.99999755654 L30.0000000000001 65.000002443461 A35 35 0 0 1 65.000002443461 30.0000000000001 Z" style="fill:rgb(0,0,255);" />
<path d=" M168.67 950 L1081.32 950 L1081.32 1305 L168.67 1305 Z" style="fill:rgb(255,255,255);" />
<path d=" M203.67 985 L1046.32 985 L1046.32 1270 L203.67 1270 Z" style="fill:rgb(255,255,255);" />
<path d=" M1046.33 1127.5 A142.5 142.5 0 0 1 761.33 1127.5 A142.5 142.5 0 0 1 1046.33 1127.5 Z" style="fill:rgb(255,0,0);" />
<path d=" M1005.62 1127.5 A101.79 101.79 0 0 1 802.04 1127.5 A101.79 101.79 0 0 1 1005.62 1127.5 Z" style="fill:rgb(255,255,255);" />
<path d=" M827.15 1120.38 L844.653663515582 1120.37626607258 A15.91 15.91 0 0 0 874.41 1112.54 L874.409999804415 1107.54750530596 A15.91 15.91 0 0 0 843.174244113254 1103.27807929616 L843.17 1103.28 L824.976380823651 1103.28191627422 A34.2 34.2 0 1 1 845.438134473945 1141.65739895941 L845.44 1141.66 L845.44 1160.75 L885.57 1160.75 L885.57 1177.38 L827.15 1177.38 Z" style="fill:rgb(0,0,0);" />
<path d=" M914.96 1145.17 L914.96 1109.84000298451 A34.2 34.2 0 0 1 983.36 1109.83999701549 L983.36 1145.17 A34.2 34.2 0 0 1 914.96 1145.17 Z M933.25 1146.84 L933.25 1108.17000138841 A15.91 15.91 0 0 1 965.07 1108.16999861159 L965.07 1146.84 A15.91 15.91 0 0 1 933.25 1146.84 Z" style="fill:rgb(0,0,0);" />
<path d=" M599.74 1202.5 L586.96 1161.25 L586.96 1110.78 L568.33 1110.78 L568.33 1127.43 L541.22 1161.16 L516.67 1127.43 L516.67 1100.89 L496.28 1100.89 L496.28 1127.43 L467.8 1161.1 L438.29 1127.43 L438.29 1110.78 L419.31 1110.78 L419.31 1161.21 L409.16 1201.81 L397.16 1161.09 L397.16 1100.89 L372.91 1100.89 L372.91 1127.43 L343.96 1159.64 L316.67 1127.51 L316.67 1052.5 L613.32 1052.5 L613.32 1161.74 Z" style="fill:rgb(0,0,0);" />
<path d=" M168.65 560 L1081.35 560 L1081.35 915 L168.65 915 Z" style="fill:rgb(255,255,255);" />
<path d=" M203.65 595 L1046.35 595 L1046.35 880 L203.65 880 Z" style="fill:rgb(255,255,255);" />
<path d=" M599.77 831.12 L586.99 789.87 L586.99 739.38 L568.35 739.38 L568.35 756.04 L541.24 789.78 L516.68 756.04 L516.68 729.5 L496.29 729.5 L496.29 756.04 L467.8 789.72 L438.29 756.04 L438.29 739.38 L419.3 739.38 L419.3 789.82 L409.15 830.43 L397.16 789.7 L397.16 729.5 L372.9 729.5 L372.9 756.04 L343.95 788.25 L316.65 756.12 L316.65 681.1 L613.35 681.1 L613.35 790.35 Z" style="fill:rgb(0,0,0);" />
<path d=" M613.35 790.35 L316.65 643.89 L316.65 681.1 L613.35 830.59 Z" style="fill:rgb(255,0,0);" />
<path d=" M1046.35 737.5 A142.5 142.5 0 0 1 761.35 737.5 A142.5 142.5 0 0 1 1046.35 737.5 Z" style="fill:rgb(255,0,0);" />
<path d=" M1006.77 737.5 A102.92 102.92 0 0 1 800.93 737.5 A102.92 102.92 0 0 1 1006.77 737.5 Z" style="fill:rgb(255,255,255);" />
<path d=" M826.47 687.63 L873.71 768.76 L846.75 768.76 L846.75 761.64 L828.47 761.64 L828.47 785.39 L894.87 785.39 L894.87 768.76 L847.63 687.63 Z" style="fill:rgb(0,0,0);" />
<path d=" M912.83 755.17 L912.83 719.840002984513 A34.2 34.2 0 0 1 981.23 719.839997015487 L981.23 755.17 A34.2 34.2 0 0 1 912.83 755.17 Z M931.12 756.84 L931.12 718.170001388409 A15.91 15.91 0 0 1 962.94 718.169998611591 L962.94 756.84 A15.91 15.91 0 0 1 931.12 756.84 Z" style="fill:rgb(0,0,0);" />
<path d=" M169.15 170 L1080.85 170 L1080.85 525 L169.15 525 Z" style="fill:rgb(255,255,255);" />
<path d=" M661.18 489.03 L662.22 489.03 L700.85 205 L699.08 205 Z" style="fill:rgb(0,0,0);" />
<path d=" M567.01 459.96 L576.42 460.03 L573.5 420.54 L563.69 420.56 Z" style="fill:rgb(0,0,0);" />
<path d=" M561.09 396.31 L571.1 396.26 L567.81 355.79 L557.85 355.8 Z" style="fill:rgb(0,0,0);" />
<path d=" M555.38 331.59 L565.39 331.54 L562.72 291.05 L552.44 291.08 Z" style="fill:rgb(0,0,0);" />
<path d=" M550.11 266.81 L560.65 266.76 L557.45 226.27 L547.17 226.31 Z" style="fill:rgb(0,0,0);" />
<path d=" M661.77 330.61 L651.75 330.56 L654.42 290.07 L664.71 290.1 Z" style="fill:rgb(0,0,0);" />
<path d=" M667.12 265.83 L656.58 265.78 L659.77 225.29 L670.05 225.33 Z" style="fill:rgb(0,0,0);" />
<path d=" M596.34 489.04 L622.62 489.05 L634.87 205.03 L584.23 205.01 Z" style="fill:rgb(0,0,0);" />
<path d=" M650.74 458.81 L641.34 458.88 L644.26 419.39 L654.07 419.41 Z" style="fill:rgb(0,0,0);" />
<path d=" M656.76 395.27 L646.74 395.23 L650.04 354.75 L660 354.76 Z" style="fill:rgb(0,0,0);" />
<path d=" M555.26 490 L554.21 490 L515.58 205.97 L517.35 205.97 Z" style="fill:rgb(0,0,0);" />
<path d=" M1045.85 347.5 A142.5 142.5 0 0 1 760.85 347.5 A142.5 142.5 0 0 1 1045.85 347.5 Z" style="fill:rgb(255,0,0);" />
<path d=" M1006.27 347.5 A102.92 102.92 0 0 1 800.43 347.5 A102.92 102.92 0 0 1 1006.27 347.5 Z" style="fill:rgb(255,255,255);" />
<path d=" M816.98 364.6 L824.96 364.6 L824.96 307.6 L839.59 307.6 L839.59 387.4 L824.96 387.4 L816.98 372.58 Z" style="fill:rgb(0,0,0);" />
<path d=" M862.73 307.6 L915.85 307.6 L915.85 320.9 L884.4 320.9 L906.751484397983 343.934232577548 A26.56 26.56 0 1 1 861.130000000001 362.429992119489 L861.13 361.18 L875.76 361.18 L875.760000012161 363.759461340604 A11.93 11.93 0 1 0 896.252251880254 355.452609149734 L896.26 355.45 L862.73 320.9 Z" style="fill:rgb(0,0,0);" />
<path d=" M935 361.64 L935 333.36000238761 A27.36 27.36 0 0 1 989.72 333.35999761239 L989.72 361.64 A27.36 27.36 0 0 1 935 361.64 Z M949.63 362.97 L949.63 332.030001110902 A12.73 12.73 0 0 1 975.09 332.029998889098 L975.09 362.97 A12.73 12.73 0 0 1 949.63 362.97 Z" style="fill:rgb(0,0,0);" />
<path d=" M204.15 205 L455.58 205 L455.58 490 L204.15 490 Z" style="fill:rgb(0,0,255);" />
<path d=" M250.6 230 L314.25 230 L317.58 355.89 L285.23 355.89 Z" style="fill:rgb(255,255,255);" />
<path d=" M345.48 230 L408.42 230 L374.5 355.89 L342 355.89 Z" style="fill:rgb(255,255,255);" />
<path d=" M430.58 364.29 L430.58 372.68 L229.15 372.68 L229.15 364.29 L253.3 364.29 L250.47 342.46 L266.75 342.46 L264.77 364.29 L394.96 364.29 L392.98 342.46 L409.93 342.46 L406.42 364.29 Z" style="fill:rgb(255,255,255);" />
<path d=" M367.53 383.59 L345.42 465 L336.01 465 L340.93 383.59 Z" style="fill:rgb(255,255,255);" />
<path d=" M318.8 383.59 L323.72 465 L314.3 465 L292.2 383.59 Z" style="fill:rgb(255,255,255);" />
<path d=" M228.21 1441.53 L253.97 1441.53 L289.17 1561.73 L266.21 1561.73 L241.09 1475.96 L215.97 1561.73 L193.01 1561.73 Z" style="fill:rgb(255,255,255);" />
<path d=" M308.4 1441.53 L328.43 1441.53 L328.43 1561.73 L308.4 1561.73 Z" style="fill:rgb(255,255,255);" />
<path d=" M377.16 1441.53 L389.226279319514 1441.53000034557 A20.03 20.03 0 0 1 403.534546408482 1447.53927063069 L403.54 1447.54 L403.54 1441.53 L423.57 1441.53 L423.569999981764 1495.45111930496 A34.35 34.35 0 0 1 355.430856869848 1501.6319338827 L355.44 1501.63 L375.310756278266 1501.6312579266 A14.31 14.31 0 0 0 400.606650642843 1506.99031797521 L400.606961721409 1506.99683477886 A10.02 10.02 0 0 0 392.637525594734 1490.90000030552 L392.64 1490.9 L377.159997846264 1490.89 A24.68 24.68 0 0 1 377.160002153736 1441.53 Z M380.03 1458.7 L393.520015214733 1458.70000000001 A10.02 10.02 0 0 1 403.539999999999 1468.71999597771 L403.538315072314 1481.40889786213 A17.17 17.17 0 0 0 389.230010188883 1473.73 L380.029999344629 1473.72 A7.51 7.51 0 0 1 380.030000655371 1458.7 Z" style="fill:rgb(255,255,255);" />
<path d=" M469.88 1441.53 L481.946279319514 1441.53000034557 A20.03 20.03 0 0 1 496.254546408482 1447.53927063069 L496.26 1447.54 L496.26 1441.53 L516.29 1441.53 L516.289999981764 1495.45111930496 A34.35 34.35 0 0 1 448.150856869848 1501.6319338827 L448.16 1501.63 L468.030756278266 1501.6312579266 A14.31 14.31 0 0 0 493.326650642843 1506.99031797521 L493.326961721409 1506.99683477886 A10.02 10.02 0 0 0 485.357525594734 1490.90000030552 L485.36 1490.9 L469.879997846264 1490.89 A24.68 24.68 0 0 1 469.880002153736 1441.53 Z M472.75 1458.7 L486.240015214733 1458.70000000001 A10.02 10.02 0 0 1 496.259999999999 1468.71999597771 L496.258315072314 1481.40889786213 A17.17 17.17 0 0 0 481.950010188883 1473.73 L472.749999344629 1473.72 A7.51 7.51 0 0 1 472.750000655371 1458.7 Z" style="fill:rgb(255,255,255);" />
<path d=" M542.73 1441.53 L562.76 1441.53 L562.76 1498.30999850146 A14.31 14.31 0 1 0 591.38 1498.31000149854 L591.38 1441.53 L611.42 1441.53 L611.419999915919 1501.52218035483 A28.27 28.27 0 0 1 562.767286620178 1521.10922906283 L562.76 1521.11 L562.76 1527.39 L542.73 1527.39 Z" style="fill:rgb(255,255,255);" />
<path d=" M681.71 1441.53 L701.75 1441.53 L701.75 1561.73 L681.71 1561.73 L681.71120521376 1521.110798198 A28.27 28.27 0 0 1 633.06 1501.52000345383 L633.060000000466 1467.39983766989 A28.27 28.27 0 0 1 681.711314971022 1447.80931598815 L681.71 1447.81 Z M681.71 1470.61 L681.71 1498.31000099903 A14.31 14.31 0 1 1 653.09 1498.30999900097 L653.09 1470.61000099903 A14.31 14.31 0 1 1 681.71 1470.60999900097 Z" style="fill:rgb(255,255,255);" />
<path d=" M725.78 1494.76 L725.780000065322 1473.47211808899 A34.34 34.34 0 0 1 793.085798095075 1463.85273656622 L793.09 1463.85 L772.735681043149 1463.85569087045 A14.31 14.31 0 0 0 745.810000000001 1470.6100057444 L745.81 1477.59 L794.47 1477.59 L794.46 1494.76 A34.34 34.34 0 0 1 725.78 1494.76 Z M745.81 1498.31 L745.81 1494.76 L774.43 1494.76 L774.43 1498.31 A14.31 14.31 0 0 1 745.81 1498.31 Z" style="fill:rgb(255,255,255);" />
<path d=" M818.51 1441.53 L838.54 1441.53 L838.550000629356 1490.18497884679 A20.03 20.03 0 0 0 858.575008561896 1510.21999937807 L858.58 1510.22 L868.59 1510.22 L868.59 1527.39 L858.581074977957 1527.38999997941 A28.06 28.06 0 0 1 838.537884712224 1518.96866631906 L838.54 1518.97 L838.54 1527.39 L818.51 1527.39 Z" style="fill:rgb(255,255,255);" />
<path d=" M881.81 1494.76 L881.810000065322 1473.47211808899 A34.34 34.34 0 0 1 949.115798095075 1463.85273656622 L949.12 1463.85 L928.765681043149 1463.85569087045 A14.31 14.31 0 0 0 901.840000000001 1470.6100057444 L901.84 1477.59 L950.5 1477.59 L950.49 1494.76 A34.34 34.34 0 0 1 881.81 1494.76 Z M901.84 1498.31 L901.84 1494.76 L930.46 1494.76 L930.46 1498.31 A14.31 14.31 0 0 1 901.84 1498.31 Z" style="fill:rgb(255,255,255);" />
<path d=" M974.54 1441.53 L994.57 1441.53 L994.57 1498.30999850146 A14.31 14.31 0 1 0 1023.19 1498.31000149854 L1023.19 1441.53 L1043.23 1441.53 L1043.22999991592 1501.52218035483 A28.27 28.27 0 0 1 994.577286620178 1521.10922906283 L994.57 1521.11 L994.57 1527.39 L974.54 1527.39 Z" style="fill:rgb(255,255,255);" />
</g>
</svg>
