<?xml version="1.0" encoding="UTF-8"?><!DOCTYPE svg PUBLIC '-//W3C//DTD SVG 1.0//EN' 'http://www.w3.org/TR/2001/REC-SVG-20010904/DTD/svg10.dtd'><svg xmlns:xlink="http://www.w3.org/1999/xlink" xmlns="http://www.w3.org/2000/svg"><!--Gegenereerd door de SIMaD (http://www.dlw.be).-->
<g style="stroke:none;fill-rule:evenodd;" transform="matrix(1,0,0,-1,0,2750)">
<path d=" M65 0 L1935 0 A65 65 0 0 1 2000 65 L2000 2685 A65 65 0 0 1 1935 2750 L65 2750 A65 65 0 0 1 0 2685 L0 65 A65 65 0 0 1 65 0 Z" style="fill:rgb(0,0,255);" />
<path d=" M195 45 L1805 45 A150 150 0 0 1 1955 195 L1955 2555 A150 150 0 0 1 1805 2705 L195 2705 A150 150 0 0 1 45 2555 L45 195 A150 150 0 0 1 195 45 Z" style="fill:rgb(255,255,255);" />
<path d=" M195 90 L1805 90 A105 105 0 0 1 1910 195 L1910 2555 A105 105 0 0 1 1805 2660 L195 2660 A105 105 0 0 1 90 2555 L90 195 A105 105 0 0 1 195 90 Z" style="fill:rgb(0,0,255);" />
<path d=" M1.56319401867222E-13 65.0000045378561 A65 65 0 0 1 65.0000045378561 1.56319401867222E-13 L1934.99999546214 1.56319401867222E-13 A65 65 0 0 1 2000 65.0000045378561 L2000 2684.9999875209 A65 65 0 0 1 1935.00000453786 2750 L65.0000045378561 2750 A65 65 0 0 1 1.56319401867222E-13 2684.99999546214 Z" style="fill:rgb(0,0,255);" />
<path d=" M44.2800000000004 195.180010471976 A150 150 0 0 1 194.280010471976 45.1800000000004 L1804.27998952802 45.1800000000004 A150 150 0 0 1 1954.28 195.180010471976 L1954.28 2555.17997120207 A150 150 0 0 1 1804.28001047198 2705.18 L194.280010471976 2705.18 A150 150 0 0 1 44.2800000000004 2555.17998952802 Z" style="fill:rgb(255,255,255);" />
<path d=" M89.2800000000003 195.180007330383 A105 105 0 0 1 194.280007330383 90.1800000000003 L1804.27999266962 90.1800000000003 A105 105 0 0 1 1909.28 195.180007330383 L1909.28 2555.17997984145 A105 105 0 0 1 1804.28000733038 2660.18 L194.280007330383 2660.18 A105 105 0 0 1 89.2800000000003 2555.17999266962 Z" style="fill:rgb(0,0,255);" />
<path d=" M129.28 195.180004537856 A65 65 0 0 1 194.280004537856 130.18 L1804.27999546214 130.18 A65 65 0 0 1 1869.28 195.180004537856 L1869.28 2068.9299875209 A65 65 0 0 1 1804.28000453786 2133.93 L194.280004537856 2133.93 A65 65 0 0 1 129.28 2068.92999546214 Z" style="fill:rgb(255,255,255);" />
<path d=" M858.82 2195.38 L1034.52 2195.38 L1037.16 2195.38 L1039.58 2195.38 L1042.22 2195.6 L1044.86 2195.82 L1047.5 2196.04 L1050.14 2196.48 L1052.78 2196.92 L1055.19 2197.36 L1057.83 2198.02 L1060.47 2198.46 L1062.89 2199.12 L1065.31 2200 L1067.95 2200.66 L1070.37 2201.54 L1072.79 2202.42 L1075.2 2203.51 L1077.62 2204.4 L1080.04 2205.5 L1082.47 2206.82 L1084.66 2207.92 L1087.08 2209.23 L1089.28 2210.55 L1091.48 2211.87 L1093.68 2213.41 L1095.88 2214.73 L1098.07 2216.27 L1100.06 2217.81 L1102.03 2219.57 L1104.23 2221.33 L1105.99 2222.87 L1107.97 2224.85 L1109.95 2226.61 L1111.71 2228.37 L1113.47 2230.34 L1115.23 2232.32 L1116.99 2234.3 L1118.53 2236.28 L1120.07 2238.48 L1121.61 2240.68 L1123.15 2242.66 L1124.68 2244.86 L1126 2247.27 L1127.32 2249.47 L1128.64 2251.68 L1129.74 2254.09 L1130.84 2256.51 L1131.94 2258.71 L1133.04 2261.13 L1133.92 2263.55 L1134.8 2266.19 L1135.68 2268.61 L1136.56 2271.02 L1137.22 2273.67 L1137.88 2276.08 L1138.54 2278.72 L1138.98 2281.14 L1139.64 2283.78 L1140.08 2286.42 L1140.3 2289.06 L1140.52 2291.47 L1140.96 2294.12 L1140.96 2296.75 L1141.18 2299.39 L1141.18 2302.03 L1141.18 2328.64 L1141.18 2331.72 L1140.96 2334.8 L1140.52 2337.88 L1140.3 2340.73 L1139.64 2343.81 L1138.98 2346.89 L1138.32 2349.75 L1137.44 2352.61 L1136.56 2355.47 L1135.46 2358.33 L1134.14 2361.18 L1133.04 2364.04 L1131.5 2366.68 L1129.96 2369.32 L1128.42 2371.96 L1126.66 2374.38 L1124.91 2377.01 L1123.15 2379.22 L1121.16 2381.63 L1118.96 2383.83 L1116.99 2386.03 L1114.79 2388.23 L1112.37 2390.21 L1109.95 2391.97 L1107.53 2393.95 L1105.11 2395.49 L1102.48 2397.25 L1099.83 2398.79 L1097.2 2400.11 L1094.34 2401.43 L1091.7 2402.75 L1088.84 2403.84 L1091.26 2404.94 L1093.68 2406.48 L1096.1 2407.8 L1098.3 2409.34 L1100.71 2411.1 L1102.92 2412.64 L1104.89 2414.4 L1107.09 2416.38 L1109.07 2418.14 L1111.05 2420.11 L1112.81 2422.1 L1114.79 2424.3 L1116.33 2426.49 L1118.09 2428.69 L1119.63 2430.89 L1121.16 2433.31 L1122.48 2435.73 L1123.8 2438.15 L1125.12 2440.57 L1126.22 2442.99 L1127.32 2445.62 L1128.42 2448.27 L1129.3 2450.9 L1130.18 2453.54 L1130.84 2456.18 L1131.5 2458.82 L1131.94 2461.68 L1132.38 2464.32 L1132.6 2467.17 L1133.04 2469.82 L1133.04 2472.67 L1133.04 2475.31 L1133.04 2488.72 L1133.04 2491.36 L1133.04 2494 L1132.82 2496.64 L1132.6 2499.28 L1132.38 2501.7 L1131.94 2504.34 L1131.5 2506.98 L1131.06 2509.61 L1130.62 2512.03 L1129.96 2514.67 L1129.3 2517.09 L1128.64 2519.73 L1127.76 2522.15 L1126.88 2524.57 L1126 2527.21 L1124.91 2529.63 L1124.02 2532.05 L1122.93 2534.25 L1121.82 2536.67 L1120.51 2539.08 L1119.19 2541.28 L1117.86 2543.48 L1116.55 2545.9 L1115.23 2548.1 L1113.69 2550.08 L1112.15 2552.28 L1110.61 2554.48 L1108.85 2556.46 L1107.31 2558.43 L1105.55 2560.41 L1103.79 2562.39 L1101.81 2564.15 L1100.06 2565.91 L1098.07 2567.89 L1096.1 2569.43 L1094.12 2571.19 L1092.14 2572.95 L1089.94 2574.49 L1087.96 2576.02 L1085.76 2577.35 L1083.57 2578.88 L1081.36 2580.21 L1078.95 2581.52 L1076.75 2582.84 L1074.33 2583.94 L1072.13 2585.26 L1069.71 2586.36 L1067.29 2587.24 L1064.87 2588.34 L1062.45 2589.22 L1059.81 2590.1 L1057.4 2590.76 L1054.97 2591.64 L1052.34 2592.3 L1049.92 2592.74 L1047.28 2593.4 L1044.64 2593.84 L1042 2594.28 L1039.58 2594.72 L1036.94 2594.94 L1034.3 2595.16 L1031.66 2595.38 L1029.03 2595.38 L1026.39 2595.38 L858.82 2595.38 L858.82 2195.38 Z M932.05 2262.01 L1027.71 2262.01 L1029.69 2262.01 L1031.66 2262.23 L1033.65 2262.45 L1035.62 2262.89 L1037.6 2263.11 L1039.36 2263.77 L1041.34 2264.43 L1043.1 2265.09 L1044.86 2265.75 L1046.62 2266.85 L1048.38 2267.73 L1049.92 2268.83 L1051.68 2269.92 L1053.21 2271.02 L1054.54 2272.34 L1056.07 2273.67 L1057.4 2275.2 L1058.72 2276.74 L1059.81 2278.28 L1061.13 2279.82 L1062.01 2281.36 L1063.11 2283.12 L1063.99 2284.88 L1064.65 2286.64 L1065.53 2288.62 L1065.97 2290.37 L1066.63 2292.36 L1067.07 2294.12 L1067.29 2296.09 L1067.51 2298.07 L1067.73 2300.05 L1067.73 2302.03 L1067.73 2328.64 L1067.73 2330.62 L1067.51 2332.6 L1067.29 2334.57 L1067.07 2336.56 L1066.63 2338.32 L1065.97 2340.29 L1065.53 2342.27 L1064.65 2344.03 L1063.99 2345.79 L1063.11 2347.55 L1062.01 2349.31 L1061.13 2350.85 L1059.81 2352.61 L1058.72 2354.15 L1057.4 2355.47 L1056.07 2357.01 L1054.54 2358.33 L1053.21 2359.65 L1051.68 2360.74 L1049.92 2362.06 L1048.38 2362.94 L1046.62 2364.04 L1044.86 2364.92 L1043.1 2365.58 L1041.34 2366.46 L1039.36 2366.9 L1037.6 2367.56 L1035.62 2368 L1033.65 2368.22 L1031.66 2368.44 L1029.69 2368.66 L1027.71 2368.66 L932.05 2368.66 L932.05 2262.01 Z M932.05 2435.29 L1019.79 2435.29 L1021.77 2435.51 L1023.75 2435.51 L1025.73 2435.73 L1027.49 2436.17 L1029.47 2436.61 L1031.45 2437.05 L1033.2 2437.71 L1035.18 2438.37 L1036.94 2439.25 L1038.7 2440.13 L1040.24 2441.01 L1042 2442.11 L1043.54 2443.21 L1045.08 2444.53 L1046.62 2445.85 L1048.16 2447.17 L1049.48 2448.48 L1050.8 2450.03 L1051.9 2451.57 L1053 2453.1 L1054.1 2454.86 L1054.97 2456.62 L1055.86 2458.38 L1056.73 2460.14 L1057.4 2461.9 L1058.05 2463.88 L1058.49 2465.64 L1058.93 2467.62 L1059.37 2469.6 L1059.59 2471.57 L1059.81 2473.33 L1059.81 2475.31 L1059.81 2488.72 L1059.81 2490.71 L1059.59 2492.68 L1059.37 2494.66 L1058.93 2496.64 L1058.49 2498.4 L1058.05 2500.38 L1057.4 2502.14 L1056.73 2504.12 L1055.86 2505.88 L1054.97 2507.64 L1054.1 2509.4 L1053 2510.94 L1051.9 2512.47 L1050.8 2514.02 L1049.48 2515.56 L1048.16 2517.09 L1046.62 2518.41 L1045.08 2519.73 L1043.54 2520.83 L1042 2521.93 L1040.24 2523.03 L1038.7 2523.91 L1036.94 2525.01 L1035.18 2525.67 L1033.2 2526.33 L1031.45 2526.99 L1029.47 2527.65 L1027.49 2527.87 L1025.73 2528.31 L1023.75 2528.53 L1021.77 2528.75 L1019.79 2528.75 L932.05 2528.75 L932.05 2435.29 Z" style="fill:rgb(255,255,255);" />
<path d=" M639.28 1135.13000314159 A45 45 0 0 1 684.280003141593 1090.13 L1314.27999685841 1090.13 A45 45 0 0 1 1359.28 1135.13000314159 L1359.28 1285.12999136062 A45 45 0 0 1 1314.28000314159 1330.13 L684.280003141593 1330.13 A45 45 0 0 1 639.28 1285.12999685841 Z" style="fill:rgb(0,0,255);" />
<path d=" M1077.16 289.53 L1070.62 393.46 L1085.43 393.5 L1091.97 289.53 Z" style="fill:rgb(0,0,0);" />
<path d=" M907.05 289.53 L911.97 393.08 L926.77 393.12 L921.84 289.53 Z" style="fill:rgb(0,0,0);" />
<path d=" M1066.25 463.04 L1059.62 568.31 L1074.43 568.34 L1081.05 463.08 Z" style="fill:rgb(0,0,0);" />
<path d=" M915.28 462.68 L920.29 567.97 L935.09 568.01 L930.08 462.72 Z" style="fill:rgb(0,0,0);" />
<path d=" M1055.47 634.32 L1048.74 741.37 L1063.54 741.4 L1070.28 634.36 Z" style="fill:rgb(0,0,0);" />
<path d=" M923.43 634 L928.52 741.07 L943.32 741.11 L938.23 634.04 Z" style="fill:rgb(0,0,0);" />
<path d=" M1059.28 809.2 L1052.67 914.16 L1037.86 914.16 L1044.47 809.16 Z" style="fill:rgb(0,0,0);" />
<path d=" M931.75 808.89 L946.54 808.93 L951.55 914.16 L936.75 914.16 Z" style="fill:rgb(0,0,0);" />
<path d=" M991.98 991.17 L1006.58 991.17 L1006.58 233.93 L991.98 233.93 Z" style="fill:rgb(0,0,0);" />
<path d=" M1252.71 233.93 L1168.9 233.93 L1079.42 991.17 L1120.27 991.17 Z" style="fill:rgb(0,0,0);" />
<path d=" M747.16 233.93 L830.97 233.93 L908.81 991.17 L867.97 991.17 Z" style="fill:rgb(0,0,0);" />
<path d=" M1359.3 1713.95 L1359.21 1722.79 L1358.87 1731.63 L1358.34 1740.47 L1357.59 1749.26 L1356.58 1758.06 L1355.39 1766.81 L1353.98 1775.51 L1352.4 1784.22 L1350.55 1792.83 L1348.53 1801.45 L1346.24 1809.98 L1343.78 1818.47 L1341.14 1826.91 L1338.24 1835.27 L1335.16 1843.53 L1331.91 1851.75 L1328.44 1859.85 L1324.74 1867.89 L1320.87 1875.85 L1316.79 1883.67 L1312.52 1891.41 L1308.08 1899.06 L1303.46 1906.58 L1298.62 1913.97 L1293.61 1921.27 L1288.47 1928.44 L1283.1 1935.47 L1277.61 1942.37 L1271.89 1949.1 L1266.04 1955.74 L1260.02 1962.21 L1253.86 1968.54 L1247.53 1974.69 L1241.07 1980.72 L1234.43 1986.56 L1227.7 1992.28 L1220.8 1997.78 L1213.76 2003.14 L1206.59 2008.29 L1199.3 2013.3 L1191.91 2018.14 L1184.39 2022.75 L1176.74 2027.19 L1169 2031.46 L1161.18 2035.55 L1153.22 2039.41 L1145.17 2043.11 L1137.08 2046.58 L1128.86 2049.84 L1120.59 2052.91 L1112.24 2055.82 L1103.8 2058.45 L1095.31 2060.92 L1086.78 2063.21 L1078.16 2065.23 L1069.54 2067.07 L1060.84 2068.66 L1052.13 2070.06 L1043.38 2071.25 L1034.59 2072.26 L1025.79 2073.01 L1016.96 2073.53 L1008.12 2073.89 L999.32 2073.98 L990.49 2073.89 L981.65 2073.53 L972.81 2073.01 L964.02 2072.26 L955.22 2071.25 L946.47 2070.06 L937.77 2068.66 L929.06 2067.07 L920.44 2065.23 L911.82 2063.21 L903.29 2060.92 L894.81 2058.45 L886.37 2055.82 L878.01 2052.91 L869.74 2049.84 L861.52 2046.58 L853.43 2043.11 L845.39 2039.41 L837.43 2035.55 L829.6 2031.46 L821.86 2027.19 L814.21 2022.75 L806.69 2018.14 L799.31 2013.3 L792.01 2008.29 L784.84 2003.14 L777.81 1997.78 L770.9 1992.28 L764.18 1986.56 L757.54 1980.72 L751.07 1974.69 L744.74 1968.54 L738.58 1962.21 L732.56 1955.74 L726.71 1949.1 L721 1942.37 L715.5 1935.47 L710.14 1928.44 L704.99 1921.27 L699.98 1913.97 L695.14 1906.58 L690.53 1899.06 L686.09 1891.41 L681.82 1883.67 L677.73 1875.85 L673.86 1867.89 L670.17 1859.85 L666.7 1851.75 L663.44 1843.53 L660.36 1835.27 L657.46 1826.91 L654.82 1818.47 L652.36 1809.98 L650.07 1801.45 L648.05 1792.83 L646.21 1784.22 L644.62 1775.51 L643.21 1766.81 L642.03 1758.06 L641.02 1749.26 L640.27 1740.47 L639.74 1731.63 L639.39 1722.79 L639.3 1713.95 L639.39 1705.16 L639.74 1696.32 L640.27 1687.48 L641.02 1678.69 L642.03 1669.9 L643.21 1661.15 L644.62 1652.44 L646.21 1643.73 L648.05 1635.12 L650.07 1626.5 L652.36 1617.97 L654.82 1609.48 L657.46 1601.04 L660.36 1592.69 L663.44 1584.42 L666.7 1576.2 L670.17 1568.11 L673.86 1560.06 L677.73 1552.1 L681.82 1544.28 L686.09 1536.54 L690.53 1528.89 L695.14 1521.37 L699.98 1513.98 L704.99 1506.68 L710.14 1499.51 L715.5 1492.48 L721 1485.58 L726.71 1478.85 L732.56 1472.21 L738.58 1465.75 L744.74 1459.41 L751.07 1453.26 L757.54 1447.24 L764.18 1441.39 L770.9 1435.67 L777.81 1430.18 L784.84 1424.81 L792.01 1419.66 L799.31 1414.65 L806.69 1409.82 L814.21 1405.2 L821.86 1400.76 L829.6 1396.5 L837.43 1392.41 L845.39 1388.54 L853.43 1384.84 L861.52 1381.37 L869.74 1378.11 L878.01 1375.04 L886.37 1372.13 L894.81 1369.5 L903.29 1367.03 L911.82 1364.75 L920.44 1362.73 L929.06 1360.88 L937.77 1359.29 L946.47 1357.89 L955.22 1356.7 L964.02 1355.69 L972.81 1354.94 L981.65 1354.42 L990.49 1354.06 L999.28 1353.98 L1008.12 1354.06 L1016.96 1354.42 L1025.79 1354.94 L1034.59 1355.69 L1043.38 1356.7 L1052.13 1357.89 L1060.84 1359.29 L1069.54 1360.88 L1078.16 1362.73 L1086.78 1364.75 L1095.31 1367.03 L1103.8 1369.5 L1112.24 1372.13 L1120.59 1375.04 L1128.86 1378.11 L1137.08 1381.37 L1145.17 1384.84 L1153.22 1388.54 L1161.18 1392.41 L1169 1396.5 L1176.74 1400.76 L1184.39 1405.2 L1191.91 1409.82 L1199.3 1414.65 L1206.59 1419.66 L1213.76 1424.81 L1220.8 1430.18 L1227.7 1435.67 L1234.43 1441.39 L1241.07 1447.24 L1247.53 1453.26 L1253.86 1459.41 L1260.02 1465.75 L1266.04 1472.21 L1271.89 1478.85 L1277.61 1485.58 L1283.1 1492.48 L1288.47 1499.51 L1293.61 1506.68 L1298.62 1513.98 L1303.46 1521.37 L1308.08 1528.89 L1312.52 1536.54 L1316.79 1544.28 L1320.87 1552.1 L1324.74 1560.06 L1328.44 1568.11 L1331.91 1576.2 L1335.16 1584.42 L1338.24 1592.69 L1341.14 1601.04 L1343.78 1609.48 L1346.24 1617.97 L1348.53 1626.5 L1350.55 1635.12 L1352.4 1643.73 L1353.98 1652.44 L1355.39 1661.15 L1356.58 1669.9 L1357.59 1678.69 L1358.34 1687.48 L1358.87 1696.32 L1359.21 1705.16 L1359.3 1713.95 Z" style="fill:rgb(255,0,0);" />
<path d=" M772.98 1198.13 L800.98 1198.13 L800.98 1170.13 L824.98 1170.13 L824.98 1198.13 L852.98 1198.13 L852.98 1222.13 L824.98 1222.13 L824.98 1250.13 L800.98 1250.13 L800.98 1222.13 L772.98 1222.13 L772.98 1198.13 Z" style="fill:rgb(255,255,255);" />
<path d=" M946.31 1195.84 L946.31 1229.17 L964.71 1229.17 L964.700036651914 1229.17000000003 A25 25 0 0 1 989.699999999997 1254.16998865536 L989.699999996418 1254.16955094249 A28.15 28.15 0 0 1 933.647853969854 1257.89729753473 L933.64 1257.9 L896.98 1257.9 L896.98000006216 1257.9073965496 A54.52 54.52 0 0 0 935.831267957482 1310.12993140727 L935.831237729946 1310.12467416549 A89.49 89.49 0 0 0 987.260816886147 1310.12705778343 L987.255551193466 1310.13088572406 A54.52 54.52 0 0 0 1001.18018477411 1212.1186103614 L1001.18937415864 1212.10554816971 A56.31 56.31 0 0 0 993.450947054883 1110.12643371168 L993.450933733969 1110.12449885275 A91.45 91.45 0 0 0 929.648090978342 1110.12486187647 L929.646732782498 1110.12729727386 A56.31 56.31 0 0 0 892.980000000001 1162.89998722367 L930.59 1163.13 L930.584792395988 1163.13259978719 A31.91 31.91 0 0 1 993.459999996372 1170.83951880854 L993.459999999977 1170.84003403392 A25 25 0 0 1 968.460013962634 1195.84 L946.31 1195.84 Z" style="fill:rgb(255,255,255);" />
<path d=" M1062.11 1258.69 L1072.11 1258.69 L1072.11 1212.41 A22.29 22.29 0 0 1 1094.40000816971 1190.12 L1094.4 1190.13 L1112.11 1190.13 L1112.11 1207.27 L1097.26 1207.27 A5.14 5.14 0 0 0 1092.12 1212.41000197362 L1092.11 1212.41 L1092.11 1258.69 L1112.11 1258.69 L1112.11 1275.84 L1092.11 1275.84 L1092.11 1310.13 L1072.11 1298.58 L1072.11 1275.84 L1062.11 1275.84 L1062.11 1258.69 Z" style="fill:rgb(255,255,255);" />
<path d=" M1147.55 1161.56 L1168.59 1161.56 L1168.60262223056 1161.55716107034 A19.14 19.14 0 0 0 1204.4 1152.13 L1204.4 1146.13 L1204.399999995 1146.13043727933 A19.14 19.14 0 0 0 1166.82377911993 1140.98749480689 L1166.82 1140.98 L1144.93 1140.98 L1144.93337199593 1140.97981119251 A41.14 41.14 0 1 1 1169.54879577821 1187.14180508473 L1169.55 1187.15 L1169.55 1210.13 L1217.83 1210.13 L1217.83 1230.13 L1147.55 1230.13 L1147.55 1161.56 Z" style="fill:rgb(255,255,255);" />
<path d=" M1259.32 1713.95 L1259.23 1720.37 L1259.01 1726.75 L1258.61 1733.12 L1258.04 1739.46 L1257.34 1745.79 L1256.51 1752.12 L1255.49 1758.41 L1254.31 1764.69 L1252.98 1770.94 L1251.49 1777.14 L1249.86 1783.34 L1248.1 1789.45 L1246.17 1795.52 L1244.1 1801.59 L1241.86 1807.57 L1239.53 1813.46 L1236.98 1819.35 L1234.34 1825.15 L1231.53 1830.87 L1228.58 1836.54 L1225.5 1842.12 L1222.29 1847.62 L1218.95 1853.07 L1215.48 1858.44 L1211.87 1863.67 L1208.14 1868.86 L1204.27 1873.91 L1200.26 1878.93 L1196.17 1883.81 L1191.95 1888.6 L1187.6 1893.26 L1183.16 1897.84 L1178.59 1902.28 L1173.93 1906.63 L1169.13 1910.85 L1164.25 1914.94 L1159.24 1918.94 L1154.18 1922.81 L1149 1926.55 L1143.77 1930.15 L1138.4 1933.63 L1132.94 1936.97 L1127.45 1940.18 L1121.87 1943.26 L1116.19 1946.2 L1110.48 1949.02 L1104.67 1951.65 L1098.79 1954.2 L1092.89 1956.53 L1086.91 1958.78 L1080.84 1960.84 L1074.77 1962.78 L1068.66 1964.54 L1062.47 1966.16 L1056.27 1967.66 L1050.02 1968.97 L1043.73 1970.17 L1037.45 1971.18 L1031.11 1972.01 L1024.79 1972.71 L1018.45 1973.29 L1012.07 1973.68 L1005.7 1973.9 L999.28 1973.99 L992.9 1973.9 L986.53 1973.68 L980.15 1973.29 L973.82 1972.71 L967.49 1972.01 L961.16 1971.18 L954.87 1970.17 L948.58 1968.97 L942.34 1967.66 L936.14 1966.16 L929.94 1964.54 L923.83 1962.78 L917.76 1960.84 L911.69 1958.78 L905.71 1956.53 L899.82 1954.2 L893.93 1951.65 L888.13 1949.02 L882.41 1946.2 L876.74 1943.26 L871.15 1940.18 L865.65 1936.97 L860.2 1933.63 L854.84 1930.15 L849.61 1926.55 L844.42 1922.81 L839.36 1918.94 L834.35 1914.94 L829.47 1910.85 L824.68 1906.63 L820.02 1902.28 L815.44 1897.84 L811 1893.26 L806.65 1888.6 L802.43 1883.81 L798.34 1878.93 L794.34 1873.91 L790.47 1868.86 L786.73 1863.67 L783.13 1858.44 L779.65 1853.07 L776.31 1847.62 L773.1 1842.12 L770.02 1836.54 L767.08 1830.87 L764.26 1825.15 L761.62 1819.35 L759.07 1813.46 L756.74 1807.57 L754.5 1801.59 L752.44 1795.52 L750.5 1789.45 L748.74 1783.34 L747.11 1777.14 L745.62 1770.94 L744.3 1764.69 L743.11 1758.41 L742.1 1752.12 L741.27 1745.79 L740.56 1739.46 L739.99 1733.12 L739.6 1726.75 L739.38 1720.37 L739.29 1713.95 L739.38 1707.58 L739.6 1701.2 L739.99 1694.83 L740.56 1688.5 L741.27 1682.16 L742.1 1675.83 L743.11 1669.55 L744.3 1663.26 L745.62 1657.01 L747.11 1650.81 L748.74 1644.61 L750.5 1638.5 L752.44 1632.43 L754.5 1626.37 L756.74 1620.38 L759.07 1614.5 L761.62 1608.6 L764.26 1602.8 L767.08 1597.08 L770.02 1591.41 L773.1 1585.83 L776.31 1580.33 L779.65 1574.88 L783.13 1569.51 L786.73 1564.28 L790.47 1559.09 L794.34 1554.03 L798.34 1549.02 L802.43 1544.14 L806.65 1539.35 L811 1534.69 L815.44 1530.12 L820.02 1525.67 L824.68 1521.32 L829.47 1517.1 L834.35 1513.01 L839.36 1509.01 L844.42 1505.14 L849.61 1501.4 L854.84 1497.8 L860.2 1494.33 L865.65 1490.99 L871.15 1487.77 L876.74 1484.7 L882.41 1481.75 L888.13 1478.94 L893.93 1476.3 L899.82 1473.75 L905.71 1471.42 L911.69 1469.17 L917.76 1467.11 L923.83 1465.17 L929.94 1463.41 L936.14 1461.79 L942.34 1460.29 L948.58 1458.97 L954.87 1457.79 L961.16 1456.78 L967.49 1455.94 L973.82 1455.23 L980.15 1454.67 L986.53 1454.27 L992.9 1454.05 L999.28 1453.96 L1005.7 1454.05 L1012.07 1454.27 L1018.45 1454.67 L1024.79 1455.23 L1031.11 1455.94 L1037.45 1456.78 L1043.73 1457.79 L1050.02 1458.97 L1056.27 1460.29 L1062.47 1461.79 L1068.66 1463.41 L1074.77 1465.17 L1080.84 1467.11 L1086.91 1469.17 L1092.89 1471.42 L1098.79 1473.75 L1104.67 1476.3 L1110.48 1478.94 L1116.19 1481.75 L1121.87 1484.7 L1127.45 1487.77 L1132.94 1490.99 L1138.4 1494.33 L1143.77 1497.8 L1149 1501.4 L1154.18 1505.14 L1159.24 1509.01 L1164.25 1513.01 L1169.13 1517.1 L1173.93 1521.32 L1178.59 1525.67 L1183.16 1530.12 L1187.6 1534.69 L1191.95 1539.35 L1196.17 1544.14 L1200.26 1549.02 L1204.27 1554.03 L1208.14 1559.09 L1211.87 1564.28 L1215.48 1569.51 L1218.95 1574.88 L1222.29 1580.33 L1225.5 1585.83 L1228.58 1591.41 L1231.53 1597.08 L1234.34 1602.8 L1236.98 1608.6 L1239.53 1614.5 L1241.86 1620.38 L1244.1 1626.37 L1246.17 1632.43 L1248.1 1638.5 L1249.86 1644.61 L1251.49 1650.81 L1252.98 1657.01 L1254.31 1663.26 L1255.49 1669.55 L1256.51 1675.83 L1257.34 1682.16 L1258.04 1688.5 L1258.61 1694.83 L1259.01 1701.2 L1259.23 1707.58 L1259.32 1713.95 Z" style="fill:rgb(255,255,255);" />
<path d=" M990.36 1844.94 L990.36 1599.81 L976.02 1599.81 L976.02 1568.46 L951 1568.46 L951 1599.81 L827.53 1599.81 L827.53 1568.46 L802.47 1568.46 L802.47 1599.81 L788.14 1599.81 L788.14 1844.94 L788.23 1846.35 L788.45 1847.75 L788.75 1849.11 L789.24 1850.44 L789.85 1851.71 L790.56 1852.9 L791.39 1854.04 L792.36 1855.05 L793.37 1856.02 L794.51 1856.85 L795.7 1857.56 L796.98 1858.17 L798.3 1858.65 L799.66 1859.01 L801.07 1859.18 L802.47 1859.27 L976.02 1859.27 L977.43 1859.18 L978.83 1859.01 L980.2 1858.65 L981.52 1858.17 L982.79 1857.56 L983.98 1856.85 L985.12 1856.02 L986.18 1855.05 L987.1 1854.04 L987.94 1852.9 L988.69 1851.71 L989.25 1850.44 L989.74 1849.11 L990.09 1847.75 L990.27 1846.35 L990.36 1844.94 Z" style="fill:rgb(255,0,0);" />
<path d=" M1199.65 1568.46 L1195.25 1568.46 L1195.25 1600.95 L1202.2 1600.95 L1203.74 1605.61 L1205.15 1610.27 L1206.47 1614.98 L1207.61 1619.73 L1208.67 1624.52 L1209.59 1629.31 L1210.38 1634.15 L1211.04 1638.99 L1211.17 1656.97 L1211 1659.43 L1210.56 1661.85 L1209.85 1664.18 L1208.84 1666.42 L1208.27 1667.35 L1207.61 1668.14 L1206.86 1668.88 L1206.02 1669.5 L1205.1 1670.03 L1204.13 1670.47 L1203.16 1670.82 L1202.11 1671 L1173 1732.95 L1043.56 1732.95 L1014.41 1671 L1013.39 1670.82 L1012.38 1670.47 L1011.41 1670.03 L1010.54 1669.5 L1009.7 1668.88 L1008.91 1668.14 L1008.25 1667.35 L1007.68 1666.42 L1006.71 1664.18 L1006.01 1661.85 L1005.57 1659.43 L1005.39 1656.97 L1005.48 1638.99 L1006.14 1634.15 L1006.93 1629.31 L1007.86 1624.52 L1008.91 1619.73 L1010.1 1614.98 L1011.37 1610.27 L1012.82 1605.61 L1014.36 1600.95 L1021.26 1600.95 L1021.26 1568.46 L798.73 1568.46 L798.73 1562.21 L1199.65 1562.21 L1199.65 1568.46 Z M1175.51 1568.46 L1041.05 1568.46 L1041.05 1600.95 L1175.51 1600.95 L1175.51 1568.46 Z M1168.12 1725.34 L1193.05 1672.36 L1182.5 1673.54 L1171.9 1674.52 L1161.3 1675.39 L1150.71 1676.05 L1140.12 1676.62 L1129.52 1677.02 L1118.88 1677.24 L1108.28 1677.33 L1097.64 1677.24 L1087.04 1677.02 L1076.41 1676.62 L1065.81 1676.09 L1055.21 1675.39 L1044.61 1674.52 L1034.06 1673.54 L1023.51 1672.36 L1048.39 1725.34 L1168.12 1725.34 Z" style="fill:rgb(0,0,0);" />
</g>
</svg>
