<?xml version="1.0" encoding="UTF-8"?><!DOCTYPE svg PUBLIC '-//W3C//DTD SVG 1.0//EN' 'http://www.w3.org/TR/2001/REC-SVG-20010904/DTD/svg10.dtd'><svg xmlns:xlink="http://www.w3.org/1999/xlink" xmlns="http://www.w3.org/2000/svg"><!--Gegenereerd door de SIMaD (http://www.dlw.be).-->
<g style="stroke:none;fill-rule:evenodd;" transform="matrix(1,0,0,-1,0,2750)">
<path d=" M65 0 L1935 0 A65 65 0 0 1 2000 65 L2000 2685 A65 65 0 0 1 1935 2750 L65 2750 A65 65 0 0 1 0 2685 L0 65 A65 65 0 0 1 65 0 Z" style="fill:rgb(0,0,255);" />
<path d=" M195 45 L1805 45 A150 150 0 0 1 1955 195 L1955 2555 A150 150 0 0 1 1805 2705 L195 2705 A150 150 0 0 1 45 2555 L45 195 A150 150 0 0 1 195 45 Z" style="fill:rgb(255,255,255);" />
<path d=" M195 90 L1805 90 A105 105 0 0 1 1910 195 L1910 2555 A105 105 0 0 1 1805 2660 L195 2660 A105 105 0 0 1 90 2555 L90 195 A105 105 0 0 1 195 90 Z" style="fill:rgb(0,0,255);" />
<path d=" M858.86 2188.07 L1034.48011915153 2188.07000000007 A106.67 106.67 0 0 1 1141.14999999997 2294.73991435984 L1141.15 2321.39999581121 A80 80 0 0 1 1088.82404529132 2396.46095667665 L1088.82402099964 2396.46438411886 A80 80 0 0 1 1133.14999999999 2468.06996788594 L1133.14999999997 2481.40008564016 A106.67 106.67 0 0 1 1026.48011915153 2588.06999999993 L1026.48 2588.07 L858.86 2588.07 Z M932.19 2254.74 L1027.81004468043 2254.74000000003 A40 40 0 0 1 1067.80999999999 2294.73996788594 L1067.80999999999 2321.40003211406 A40 40 0 0 1 1027.81004468043 2361.39999999998 L932.19 2361.4 Z M932.19 2428.07 L1019.81004468043 2428.07000000003 A40 40 0 0 1 1059.80999999999 2468.06996788594 L1059.80999999999 2481.40003211406 A40 40 0 0 1 1019.81004468043 2521.39999999998 L932.19 2521.4 Z" style="fill:rgb(255,255,255);" />
<path d=" M194.38 161.93 L1805.62 161.93 A50 50 0 0 1 1855.62 211.93 L1855.62 2066.13 A50 50 0 0 1 1805.62 2116.13 L194.38 2116.13 A50 50 0 0 1 144.38 2066.13 L144.38 211.93 A50 50 0 0 1 194.38 161.93 Z" style="fill:rgb(255,255,255);" />
<path d=" M1805.25901327426 2066.12257594442 A93.6 93.6 0 0 0 1738.32129287931 1968.08126298964 L1738.31316571353 1968.08672125878 A222.83 222.83 0 0 0 1612.60970392742 1953.25129688246 L1612.6113329572 1953.24232383097 A371.71 371.71 0 0 0 1181.18113906331 1894.263392856 L1181.18473977307 1894.27246143931 A327.47 327.47 0 0 0 901.002208647239 1758.74686829747 L901.007203461771 1758.74014806266 A383.98 383.98 0 0 0 614.893162501767 1886.25900969249 L614.888804116058 1886.25770393287 A396.31 396.31 0 0 0 383.26730674956 1898.2973806853 L383.267897729641 1898.30186711461 A206.65 206.65 0 0 0 238.828466852485 2066.11317871366 L238.83 2066.12 Z" style="fill:rgb(0,0,0);" />
<path d=" M1191.9 1585.32 L1180.31 1557.64 L1152.63 1569.23 L1164.22 1596.91 Z" style="fill:rgb(0,0,0);" />
<path d=" M1663.04 1771.58 L1639.13 1753.45 L1621 1777.35 L1644.9 1795.49 Z" style="fill:rgb(0,0,0);" />
<path d=" M1605.28 1661.62 L1581.38 1643.49 L1563.24 1667.39 L1587.15 1685.53 Z" style="fill:rgb(0,0,0);" />
<path d=" M1473.56 1680.44 L1449.65 1662.31 L1431.52 1686.21 L1455.42 1704.35 Z" style="fill:rgb(0,0,0);" />
<path d=" M1421.37 1518.79 L1391.5 1521.6 L1394.32 1551.48 L1424.19 1548.66 Z" style="fill:rgb(0,0,0);" />
<path d=" M1313.6 1527.54 L1289.7 1509.41 L1271.56 1533.31 L1295.46 1551.45 Z" style="fill:rgb(0,0,0);" />
<path d=" M1355.19 1400.56 L1331.28 1382.43 L1313.15 1406.33 L1337.05 1424.47 Z" style="fill:rgb(0,0,0);" />
<path d=" M1703.93 1682.72 L1685.34 1659.16 L1661.78 1677.76 L1680.37 1701.31 Z" style="fill:rgb(0,0,0);" />
<path d=" M1658.05 1560.75 L1666.33 1531.91 L1637.5 1523.63 L1629.21 1552.47 Z" style="fill:rgb(0,0,0);" />
<path d=" M1531.01 1546.62 L1502.46 1555.84 L1511.68 1584.39 L1540.23 1575.17 Z" style="fill:rgb(0,0,0);" />
<path d=" M1344.48 1601.48 L1316.51 1612.32 L1327.35 1640.3 L1355.33 1629.46 Z" style="fill:rgb(0,0,0);" />
<path d=" M1537.07 1452.27 L1513.16 1434.13 L1495.03 1458.04 L1518.93 1476.18 Z" style="fill:rgb(0,0,0);" />
<path d=" M1665.94 1407.86 L1644.91 1386.45 L1623.51 1407.49 L1644.54 1428.88 Z" style="fill:rgb(0,0,0);" />
<path d=" M1708.24 1273.59 L1687.21 1252.18 L1665.81 1273.22 L1686.84 1294.61 Z" style="fill:rgb(0,0,0);" />
<path d=" M1481.25 1367.12 L1477.02 1337.41 L1447.31 1341.65 L1451.56 1371.35 Z" style="fill:rgb(0,0,0);" />
<path d=" M1260.57 1655.98 L1230.63 1654.02 L1228.67 1683.96 L1258.61 1685.92 Z" style="fill:rgb(0,0,0);" />
<path d=" M1590.57 1329.18 L1575.9 1303.01 L1549.73 1317.69 L1564.4 1343.86 Z" style="fill:rgb(0,0,0);" />
<path d=" M1745.04 1433.1 L1717.46 1444.92 L1729.28 1472.5 L1756.86 1460.68 Z" style="fill:rgb(0,0,0);" />
<path d=" M288.05 1910.34 L242.15 1844.8 L225.76 1856.27 L271.66 1921.81 Z" style="fill:rgb(0,0,0);" />
<path d=" M256.66 1634.67 L210.76 1569.12 L194.38 1580.59 L240.27 1646.14 Z" style="fill:rgb(0,0,0);" />
<path d=" M331.45 1741.48 L285.56 1675.93 L269.17 1687.41 L315.07 1752.95 Z" style="fill:rgb(0,0,0);" />
<path d=" M264.09 1408.39 L218.19 1342.85 L201.81 1354.32 L247.7 1419.87 Z" style="fill:rgb(0,0,0);" />
<path d=" M338.88 1515.2 L292.98 1449.66 L276.6 1461.13 L322.49 1526.68 Z" style="fill:rgb(0,0,0);" />
<path d=" M413.67 1622.01 L367.77 1556.47 L351.39 1567.94 L397.28 1633.49 Z" style="fill:rgb(0,0,0);" />
<path d=" M488.46 1728.82 L442.56 1663.28 L426.18 1674.75 L472.07 1740.3 Z" style="fill:rgb(0,0,0);" />
<path d=" M311.02 1232.47 L265.13 1166.93 L248.74 1178.4 L294.64 1243.95 Z" style="fill:rgb(0,0,0);" />
<path d=" M385.81 1339.28 L339.92 1273.74 L323.53 1285.21 L369.43 1350.76 Z" style="fill:rgb(0,0,0);" />
<path d=" M460.6 1446.09 L414.71 1380.55 L398.32 1392.02 L444.21 1457.57 Z" style="fill:rgb(0,0,0);" />
<path d=" M535.39 1552.9 L489.49 1487.36 L473.11 1498.83 L519 1564.38 Z" style="fill:rgb(0,0,0);" />
<path d=" M610.18 1659.71 L564.29 1594.17 L547.9 1605.64 L593.8 1671.19 Z" style="fill:rgb(0,0,0);" />
<path d=" M684.97 1766.52 L639.08 1700.98 L622.69 1712.45 L668.59 1778 Z" style="fill:rgb(0,0,0);" />
<path d=" M532.23 1305.46 L486.34 1239.92 L469.95 1251.39 L515.85 1316.94 Z" style="fill:rgb(0,0,0);" />
<path d=" M607.02 1412.27 L561.13 1346.73 L544.74 1358.2 L590.64 1423.75 Z" style="fill:rgb(0,0,0);" />
<path d=" M681.81 1519.08 L635.92 1453.53 L619.53 1465 L665.43 1530.55 Z" style="fill:rgb(0,0,0);" />
<path d=" M756.6 1625.89 L710.71 1560.34 L694.32 1571.82 L740.22 1637.36 Z" style="fill:rgb(0,0,0);" />
<path d=" M831.4 1732.7 L785.5 1667.16 L769.11 1678.63 L815.01 1744.17 Z" style="fill:rgb(0,0,0);" />
<path d=" M870.58 1527.59 L824.68 1462.05 L808.3 1473.52 L854.19 1539.07 Z" style="fill:rgb(0,0,0);" />
<path d=" M945.37 1634.41 L899.47 1568.86 L883.08 1580.33 L928.98 1645.88 Z" style="fill:rgb(0,0,0);" />
<path d=" M1020.16 1741.22 L974.26 1675.67 L957.87 1687.14 L1003.77 1752.69 Z" style="fill:rgb(0,0,0);" />
<path d=" M1784.66923980092 2046.11814025064 A73.6 73.6 0 0 0 1731.58148518936 1986.95714031706 L1731.57383344534 1986.96276478164 A202.83 202.83 0 0 0 1606.12806221551 1974.91507850484 L1606.12576826007 1974.91418659928 A351.7 351.7 0 0 0 1174.99184578058 1920.75978699414 L1174.99529944457 1920.76143692253 A307.47 307.47 0 0 0 901.44132486477 1778.74755357179 L901.446544997431 1778.75082839632 A363.97 363.97 0 0 0 621.810922095991 1908.81451573226 L621.802762613753 1908.80549928518 A376.31 376.31 0 0 0 389.589234532149 1917.28026840616 L389.590013793409 1917.28469271742 A186.65 186.65 0 0 0 263.452508134182 2046.10902595007 L263.46 2046.11 Z" style="fill:rgb(255,255,255);" />
<path d=" M1357.69 1761.35 L1328.01 1765.74 L1332.4 1795.42 L1362.08 1791.03 Z" style="fill:rgb(0,0,0);" />
<path d=" M563.25 1835.63 L517.35 1770.09 L500.97 1781.56 L546.86 1847.11 Z" style="fill:rgb(0,0,0);" />
<path d=" M1533.83 1817.72 L1509.93 1799.59 L1491.79 1823.49 L1515.69 1841.63 Z" style="fill:rgb(0,0,0);" />
<path d=" M1675 1892.63 L1664.76 1864.43 L1636.56 1874.67 L1646.8 1902.87 Z" style="fill:rgb(0,0,0);" />
<path d=" M1758.03 1853.24 L1744.01 1826.72 L1717.48 1840.74 L1731.5 1867.27 Z" style="fill:rgb(0,0,0);" />
<path d=" M1245.09 1798.33 L1221.19 1780.19 L1203.05 1804.1 L1226.96 1822.23 Z" style="fill:rgb(0,0,0);" />
<path d=" M406.24 1848.29 L360.35 1782.74 L343.96 1794.22 L389.86 1859.76 Z" style="fill:rgb(0,0,0);" />
<path d=" M1450 991.93 A450 450 0 0 1 550 991.93 A450 450 0 0 1 1450 991.93 Z" style="fill:rgb(255,0,0);" />
<path d=" M1325 991.93 A325 325 0 0 1 675 991.93 A325 325 0 0 1 1325 991.93 Z" style="fill:rgb(255,255,255);" />
<path d=" M988.82 1155.65 L988.82 849.21 L970.92 849.21 L970.92 810.06 L939.61 810.06 L939.61 849.21 L785.27 849.21 L785.27 810.06 L753.95 810.06 L753.95 849.21 L736.06 849.21 L736.06 1155.64999875104 A17.89 17.89 0 0 0 753.950001248958 1173.54 L970.919998751042 1173.54 A17.89 17.89 0 0 0 988.81 1155.64999875104 Z" style="fill:rgb(255,0,0);" />
<path d=" M1250.41 810.06 L1244.96 810.06 L1244.96 850.66 L1253.60121944631 850.660059248344 A231.2 231.2 0 0 1 1264.69627500845 898.186742111661 L1264.69 898.19 L1264.80977094364 920.669785668839 A26.31 26.31 0 0 1 1261.93806874227 932.512950833683 L1261.93940725611 932.507309457085 A11.49 11.49 0 0 1 1253.52621554505 938.211372700845 L1253.52 938.22 L1217.11 1015.67 L1055.31 1015.67 L1018.90378445495 938.211372700845 A11.49 11.49 0 0 1 1010.49059274389 932.507309457085 L1010.48193125773 932.512950833683 A26.31 26.31 0 0 1 1007.61022905636 920.669785668839 L1007.61 920.67 L1007.73372499155 898.186742111661 A231.2 231.2 0 0 1 1018.82878055369 850.660059248344 L1018.82 850.66 L1027.46 850.66 L1027.46 810.06 L749.31 810.06 L749.31 802.23 L1250.41 802.23 Z M1220.24 810.06 L1052.19 810.06 L1052.19 850.66 L1220.24 850.66 Z M1211.05 1006.13 L1242.17880690167 939.92382174292 A912.52 912.52 0 0 1 1030.25100629381 939.92964556319 L1030.25 939.93 L1061.37 1006.13 Z" style="fill:rgb(0,0,0);" />
<path d=" M595 211.93 L1405 211.93 A45 45 0 0 1 1450 256.93 L1450 466.93 A45 45 0 0 1 1405 511.93 L595 511.93 A45 45 0 0 1 550 466.93 L550 256.93 A45 45 0 0 1 595 211.93 Z" style="fill:rgb(0,0,255);" />
<path d=" M707.12 346.93 L742.12 346.93 L742.12 311.93 L772.12 311.93 L772.12 346.93 L807.12 346.93 L807.12 376.93 L772.12 376.93 L772.12 411.93 L742.12 411.93 L742.12 376.93 L707.12 376.93 Z" style="fill:rgb(255,255,255);" />
<path d=" M857.12 236.93 L975.51 440.26 L907.95 440.26 L907.95 422.41 L862.12 422.41 L862.12 481.93 L1028.55 481.93 L1028.55 440.26 L910.16 236.93 Z" style="fill:rgb(255,255,255);" />
<path d=" M1078.54 422.64 L1091.04 422.64 L1091.04000000001 364.790020908695 A27.86 27.86 0 0 1 1118.90002042245 336.930000000007 L1141.04 336.93 L1141.04 358.36 L1122.47000471344 358.360000000002 A6.43 6.43 0 0 0 1116.04 364.790004825661 L1116.04 422.64 L1141.04 422.64 L1141.04 444.07 L1116.04 444.07 L1116.04 486.93 L1091.04 472.5 L1091.04 444.07 L1078.54 444.07 Z" style="fill:rgb(255,255,255);" />
<path d=" M1195.33 301.22 L1221.6439263311 301.216414023685 A23.93 23.93 0 0 0 1266.4 289.429999582343 L1266.4 281.93000918846 A23.93 23.93 0 0 0 1219.41976322251 275.501043280476 L1219.42 275.5 L1192.05733999322 275.501168483509 A51.43 51.43 0 1 1 1222.82662802973 333.210861949237 L1222.83 333.21 L1222.83 361.93 L1283.18 361.93 L1283.18 386.93 L1195.33 386.93 Z" style="fill:rgb(255,255,255);" />
</g>
</svg>
