<?xml version="1.0" encoding="UTF-8"?>
<!DOCTYPE svg PUBLIC '-//W3C//DTD SVG 1.0//EN' 'http://www.w3.org/TR/2001/REC-SVG-20010904/DTD/svg10.dtd'>
<svg xmlns:xlink="http://www.w3.org/1999/xlink" xmlns="http://www.w3.org/2000/svg" width="600" height="300">
<!--Gegenereerd door de SIMaD-toepassing (http://www.dlw.be).-->
<g style="stroke:none;fill-rule:evenodd;" transform="matrix(1,0,0,-1,0,300)">
<path d=" M65 0 L534.999995462144 1.56319401867222E-13 A65 65 0 0 1 600 65.0000045378561 L599.999999999999 234.999987520896 A65 65 0 0 1 535.000004537856 300 L65.0000045378561 300 A65 65 0 0 1 1.56319401867222E-13 234.999995462144 L1.56319401867222E-13 65.0000045378561 A65 65 0 0 1 65.0000045378561 1.56319401867222E-13 Z" style="fill:rgb(0,0,255);" />
<path d=" M94.7839736397473 264.931461451361 A53.61 53.61 0 0 0 24.9496084344808 194.869935263184 L24.9494336594259 194.867044959376 A52.51 52.51 0 1 1 94.7788671885369 264.923623429376 Z" style="fill:rgb(255,255,255);" />
<path d=" M242.93 85.21 A45.28 45.28 0 0 1 152.37 85.21 L122.91 85.21 L122.91 97.89 L131.7 97.89 L140.5 142.92 L148.41 152.98 L154.56 152.98 L170.39 205.89 L243.37 205.89 L243.37 111.44 L414.83 111.44 L414.83 117.56 L249.09 117.56 L249.09 244.8 L562.55 244.8 L562.55 117.56 L505.84 117.56 L505.84 111.44 L560.79 111.44 L560.79 96.14 L530.9 92.2 L530.9 85.21 L515.08 85.21 A45.29 45.29 0 0 1 424.5 85.21 Z M178.3 190.15 L170.39 152.98 L162.04 152.98 L170.39 190.15 Z M185.78 190.15 L187.98 190.15 L221.39 190.15 L221.39 152.98 L178.3 152.98 Z" style="fill:rgb(255,255,255);" />
<path d=" M238.18 85.23 A40.43 40.43 0 0 1 157.32 85.23 A40.43 40.43 0 0 1 238.18 85.23 Z M211.36 85.33 A13.54 13.54 0 0 1 184.28 85.33 A13.54 13.54 0 0 1 211.36 85.33 Z" style="fill:rgb(255,255,255);" />
<path d=" M510.24 85.26 A40.45 40.45 0 0 1 429.34 85.26 A40.45 40.45 0 0 1 510.24 85.26 Z M483.5 85.23 A13.59 13.59 0 0 1 456.32 85.23 A13.59 13.59 0 0 1 483.5 85.23 Z" style="fill:rgb(255,255,255);" />
</g>
</svg>
