<?xml version="1.0" encoding="UTF-8"?>
<!DOCTYPE svg PUBLIC '-//W3C//DTD SVG 1.0//EN' 'http://www.w3.org/TR/2001/REC-SVG-20010904/DTD/svg10.dtd'>
<svg xmlns:xlink="http://www.w3.org/1999/xlink" xmlns="http://www.w3.org/2000/svg" width="900" height="600">
<!--Gegenereerd door de SIMaD-toepassing (http://www.dlw.be).-->
<g style="stroke:none;fill-rule:evenodd;" transform="matrix(1,0,0,-1,0,600)">
<path d=" M65 0 L834.999995462144 1.56319401867222E-13 A65 65 0 0 1 900 65.0000045378561 L899.999999999999 534.999987520896 A65 65 0 0 1 835.000004537856 600 L65.0000045378561 600 A65 65 0 0 1 1.56319401867222E-13 534.999995462144 L1.56319401867222E-13 65.0000045378561 A65 65 0 0 1 65.0000045378561 1.56319401867222E-13 Z" style="fill:rgb(0,0,255);" />
<path d=" M207.45688873349 336.677354377766 A1144.44 1144.44 0 0 1 206.59981119391 271.031693809991 L206.601362338178 271.02599255507 A105.44 105.44 0 0 1 208.207240720443 252.150106314552 L208.206226216179 252.152488570278 A270.84 270.84 0 0 1 225.298930698924 200.87781064367 L225.3 200.88 L235.8 200.88 L235.8 140.34 L283.7 140.34 L283.7 200.88 L616.3 200.88 L616.3 140.34 L664.19 140.34 L664.19 200.88 L674.7 200.88 L674.693048248516 200.875801078835 A270.87 270.87 0 0 1 691.785513954323 252.156864254266 L691.784125428358 252.152223018846 A105.39 105.39 0 0 1 693.388620606488 271.019209292988 L693.388576311159 271.026402945999 A1144.75 1144.75 0 0 1 692.537601251199 336.676186168257 L692.538960175301 336.671768724681 A4.05 4.05 0 0 1 691.312858242082 339.48413004962 L691.309922155236 339.479818150072 A157.31 157.31 0 0 0 675.969547081338 355.047773580649 L675.971115551458 355.051944374296 A30.46 30.46 0 0 0 669.075710882697 365.683486033999 L669.074883369283 365.680276780135 A731.2 731.2 0 0 1 661.15813285934 383.903640726983 L661.16 383.91 L607.04 500 L292.96 500 L238.83 383.91 L238.844718847108 383.900061041349 A1954.54 1954.54 0 0 0 230.930893558274 365.680302118367 L230.921954173775 365.687507966203 A36.77 36.77 0 0 0 224.021208057979 355.055165617926 L224.024689177925 355.055721111433 A157.32 157.32 0 0 0 208.690438254788 339.479787540249 L208.688007788287 339.476504729065 A4.03 4.03 0 0 1 207.461264837223 336.680960329838 L207.46 336.68 Z M664.66 305.54 A24.14 24.14 0 0 1 616.38 305.54 A24.14 24.14 0 0 1 664.66 305.54 Z M283.62 306.33 A24.15 24.15 0 0 1 235.32 306.33 A24.15 24.15 0 0 1 283.62 306.33 Z M654.75 353.28 L595.64 481.48 L304.36 481.48 L243.11 353.28 L243.111053139402 353.29117340735 A1951.65 1951.65 0 0 0 654.752815837609 353.282278991276 Z" style="fill:rgb(255,255,255);" />
<path d=" M450 136.96 L552.01 136.96 L552.001956051481 136.967883809692 A69.2 69.2 0 0 0 569.099045747324 135.35714993681 L569.101403173356 135.35580863852 A133.24 133.24 0 0 0 581.062603417053 130.298975998177 L581.062146309921 130.301417463658 A379.77 379.77 0 0 1 624.261198951247 112.689919202205 L624.25778810256 112.686569263236 A69.6 69.6 0 0 1 649.971103753035 109.104130954789 L649.975444709968 109.107145077272 A135.39 135.39 0 0 1 669.773304480816 111.563413769059 L669.77264826306 111.56320068877 A21.78 21.78 0 0 1 679.099272673948 115.907411051236 L679.09797083894 115.911468183836 A163.61 163.61 0 0 1 698.042646225811 133.670184118641 L698.039310949127 133.668754204935 A107.78 107.78 0 0 1 714.203790967411 157.015776265767 L714.21196303578 157.009642061072 A178.49 178.49 0 0 0 739.790817774996 194.336243952064 L739.787065918689 194.341498556104 A218.08 218.08 0 0 0 870.118506945141 264.88049934709 L870.12 264.88 L863.63 239.37 L863.61731454563 239.372014665953 A187.64 187.64 0 0 1 732.333521747249 158.538482432688 L732.334647548495 158.536077854589 A201.82 201.82 0 0 0 858.78820684837 220.397319652531 L858.79 220.4 L853.18 198.37 L853.184627677632 198.374783447944 A177.19 177.19 0 0 1 729.821900640152 142.262341252654 L729.820272708112 142.258719754296 A205.76 205.76 0 0 0 848.815914316977 181.214647796072 L848.82 181.22 L843.39 159.9 L843.390098249245 159.898688598238 A189.92 189.92 0 0 1 748.172555026568 142.058488176982 L748.176567850779 142.055933409959 A216.98 216.98 0 0 1 701.354106888805 117.844491173313 L701.352806448094 117.847350350758 A102.56 102.56 0 0 0 643.983036758174 100.00095691539 L643.98 100 L450 100 L256.02 100 L256.015420947674 100.001007523793 A102.55 102.55 0 0 0 198.653259924481 117.852142488491 L198.656781690032 117.857117258648 A217.03 217.03 0 0 1 151.825243319043 142.077457744528 L151.823687955497 142.069760729608 A189.92 189.92 0 0 1 56.6036755454179 159.896777447421 L56.6 159.9 L51.18 181.22 L51.1733926027767 181.224434321183 A205.76 205.76 0 0 0 170.16348426552 142.251557373319 L170.158413964249 142.247356889037 A177.18 177.18 0 0 1 46.8061845863576 198.364404378797 L46.81 198.37 L41.2 220.4 L41.2034394618426 220.399136634164 A201.82 201.82 0 0 0 167.662651450462 158.549451108627 L167.657148812915 158.552249152617 A187.64 187.64 0 0 1 36.3661891824997 239.374146091657 L36.37 239.37 L29.88 264.88 L29.8851970260569 264.888436066944 A218.08 218.08 0 0 0 160.21215521657 194.341153189214 L160.201902420137 194.332031497097 A178.51 178.51 0 0 0 185.784317070977 157.001726298253 L185.783807533796 157.003855676916 A107.77 107.77 0 0 1 201.955666463973 133.665149505523 L201.959955315313 133.663841330046 A163.5 163.5 0 0 1 220.890480835663 115.915558111722 L220.885584240013 115.917109326445 A21.81 21.81 0 0 1 230.220858618348 111.557916767056 L230.226160307679 111.564787712872 A135.43 135.43 0 0 1 250.031661537023 109.122302343759 L250.029728660802 109.115113635319 A69.57 69.57 0 0 1 275.733023636563 112.688372205218 L275.735424891549 112.692581027826 A379.76 379.76 0 0 1 318.934321568327 130.301190218301 L318.934063114575 130.29316557571 A133.32 133.32 0 0 0 330.899129981532 135.360868732685 L330.895224803316 135.370895518331 A69.18 69.18 0 0 0 347.988795358195 136.965995738685 L347.99 136.96 L450 136.96 Z" style="fill:rgb(255,255,255);" />
</g>
</svg>
