<?xml version="1.0" encoding="UTF-8"?>
<!DOCTYPE svg PUBLIC '-//W3C//DTD SVG 1.0//EN' 'http://www.w3.org/TR/2001/REC-SVG-20010904/DTD/svg10.dtd'>
<svg xmlns:xlink="http://www.w3.org/1999/xlink" xmlns="http://www.w3.org/2000/svg" width="900" height="600">
<!--Gegenereerd door de SIMaD-toepassing (http://www.dlw.be).-->
<g style="stroke:none;fill-rule:evenodd;" transform="matrix(1,0,0,-1,0,600)">
<path d=" M65 0 L834.999995462144 1.56319401867222E-13 A65 65 0 0 1 900 65.0000045378561 L899.999999999999 534.999987520896 A65 65 0 0 1 835.000004537856 600 L65.0000045378561 600 A65 65 0 0 1 1.56319401867222E-13 534.999995462144 L1.56319401867222E-13 65.0000045378561 A65 65 0 0 1 65.0000045378561 1.56319401867222E-13 Z" style="fill:rgb(255,255,255);stroke:rgb(0,0,0);" />
<path d=" M65 15 L834.999996509341 15.0000000000001 A50 50 0 0 1 885 65.0000034906585 L884.999999999999 534.999990400689 A50 50 0 0 1 835.000003490659 585 L65.0000034906585 585 A50 50 0 0 1 15.0000000000001 534.999996509342 L15.0000000000001 65.0000034906585 A50 50 0 0 1 65.0000034906585 15.0000000000001 Z" style="fill:rgb(255,255,255);" />
<path d=" M65 30 L834.999997556539 30.0000000000001 A35 35 0 0 1 870 65.000002443461 L869.999999999999 534.999993280482 A35 35 0 0 1 835.000002443461 570 L65.000002443461 570 A35 35 0 0 1 30.0000000000001 534.999997556539 L30.0000000000001 65.000002443461 A35 35 0 0 1 65.000002443461 30.0000000000001 Z" style="fill:rgb(255,255,255);" />
<path d=" M234.2 460.7 L234.2 456.67 L205.73 456.67 L205.738745900094 429.41958180474 A52.95 52.95 0 0 0 234.339999362196 382.391781517729 L234.34 382.39 L234.34 100 L119.77 100 L119.770000029984 382.388217898755 A52.96 52.96 0 0 0 148.448357942976 429.455523039849 L148.45 429.46 L148.453967822076 456.893055911045 A122.05 122.05 0 0 1 113.525594154272 443.688928208748 L113.52635973765 443.686808705165 A74.35 74.35 0 0 1 98.7968233526596 432.764092803046 L98.7945631718162 432.772896506934 A34.6 34.6 0 0 1 88.9737990858716 415.553579201391 L88.97 415.55 L82.86 389.17 L62.8 392.09 L69.3156756861762 420.900672709165 A53.08 53.08 0 0 0 77.1874904509108 439.033807254391 L77.185195822752 439.042904952276 A152.82 152.82 0 0 0 96.9389567930368 462.621444023819 L96.9387588632212 462.609930870965 A78.56 78.56 0 0 0 131.145763961607 482.147169005005 L131.14396565198 482.147000349094 A154.61 154.61 0 0 0 148.14664454398 485.764597996783 L148.15 485.77 L148.15 500 L199.36 500 L201.48 485.98 L234.2 485.98 L234.2 481.31 L276.91 481.31 L276.91 460.7 Z" style="fill:rgb(255,0,0);" />
<path d=" M752.07 252.39 L750.34 258.05 L729.88 261.58 L730.56 256.86 L723.671171836048 259.026963781072 A4.4 4.4 0 0 1 718.146095404565 256.128917300092 L718.15 256.13 L707.360734042376 170.290321821848 A7.05 7.05 0 0 1 713.449000583821 161.529050002659 L713.449521636485 161.525104524329 A160.09 160.09 0 0 1 750.778973318828 158.014608124271 L750.78 158.02 L753.83 153.63 L773.59 158.39 L772.206017108121 161.68261548411 A37.15 37.15 0 0 1 799.894700707309 176.647243849576 L799.893967074671 176.64859452061 A19.34 19.34 0 0 0 795.881060621735 156.939596217504 L795.880698303936 156.937125222142 A48.18 48.18 0 0 0 771.256476137604 146.013216386784 L771.26 146.02 L756.454513929488 142.864104952261 A83.5 83.5 0 0 1 704.218578664432 111.833259258904 L704.212231912443 111.835565065447 A22.55 22.55 0 0 1 699.904403417205 102.551145022021 L699.91 102.55 L707.012423156586 100.007373979871 A44.95 44.95 0 0 0 731.443408629163 126.375739852571 L731.438820278575 126.379995412911 A102.82 102.82 0 0 0 769.31717930867 137.443735868537 L769.320131621381 137.435536991739 A109.5 109.5 0 0 1 790.945883545374 144.404126446025 L790.943466065491 144.411056361011 A26.63 26.63 0 0 1 809.019143877204 169.843533058693 L809.019565637754 169.835636520699 A18.17 18.17 0 0 1 804.99001503575 181.120910340055 L804.996248201905 181.124119776604 A55.61 55.61 0 0 1 808.621747425541 210.239573780662 L808.608671821673 210.238625860957 A285.54 285.54 0 0 1 779.72564801205 295.162290551882 L779.730367673867 295.167203897173 A686.3 686.3 0 0 1 657.820304795677 479.259636605925 L657.81913171556 479.256748841626 A54.84 54.84 0 0 1 617.666855006297 499.98605715745 L617.660534637438 499.989157854626 A54.85 54.85 0 0 1 585.75385586204 490.524968434903 L585.762491053981 490.522454832705 A151.7 151.7 0 0 1 572.04342270488 480.017581162069 L572.04 480.02 L570.27 483.09 L553.439694638404 472.353324147629 A171.56 171.56 0 0 1 613.520361625966 397.537078938046 L613.52 397.54 L628.07 413.1 L627.835045528189 417.054640511025 A22.22 22.22 0 0 1 652.508035274353 428.711170698481 L652.5 428.71 L655.83 436.81 L665.861829464714 418.548382987312 A189.1 189.1 0 0 1 684.476411306789 361.472419202555 L684.471644770702 361.467589220362 A428.37 428.37 0 0 1 756.136600932574 263.946547127094 L756.14 263.95 L766.15 249.27 Z M618.61 438.34 L610.39 433.09 L608.55 427.42 L604.93 424.82 L607.37 420.6 L616.2 425.69 L615.62 432.01 L620.06 434.06 Z M651.73530628817 468.715023515033 A53.26 53.26 0 0 1 632.582868532939 473.52540703571 L632.58 473.53 L632.052313096348 469.127896360668 A37.47 37.47 0 0 0 658.156987648175 457.591425875258 L658.16 457.59 Z M762.438469810551 182.138685542064 A61.77 61.77 0 0 0 746.621203290867 181.18423708929 L746.620784475773 181.19133998931 A31.85 31.85 0 0 1 762.513674295726 177.579827897463 L762.51 177.58 Z M757.09 234.83 L759.22 225.82 L763.900566848114 223.92219955092 A14.47 14.47 0 0 1 762.700425814049 233.972521984989 L762.7 233.97 Z M768.7 183.71 L770.584071134783 178.657877577944 A27.06 27.06 0 0 1 781.815669186488 186.68183160937 L781.82 186.68 Z M751.371532744499 224.360524453281 A32.37 32.37 0 0 1 750.599893079419 237.219777244328 L750.6 237.22 L746.863836513529 236.600722006976 A19.49 19.49 0 0 0 747.572420462163 224.731511883614 L747.57 224.73 Z M687.028786010861 416.444289299105 A1289.19 1289.19 0 0 0 768.543391746326 269.062922022343 L768.546148040614 269.059615672642 A552.84 552.84 0 0 1 687.034107654707 416.436001563348 L687.03 416.44 Z" style="fill:rgb(0,0,0);" />
<path d=" M300 125.09 L300 128.57 L318.33 128.57 L318.330002721174 125.093397485114 A8.01 8.01 0 0 1 323.911634351193 117.466970439223 L323.912528568772 117.468621842465 A34.14 34.14 0 0 1 344.666331623732 117.461877264945 L344.662214908216 117.458196108373 A8.01 8.01 0 0 1 345.617503683518 132.348437765398 L345.62 132.35 L317.067094651344 152.981498109918 A25.08 25.08 0 0 0 321.427958707993 200.000807325177 L321.428740902009 200.005020143945 A51.63 51.63 0 0 0 347.144805486566 200.001536774312 L347.142214805857 200.008190752327 A25.08 25.08 0 0 0 365.969999171635 175.713554009055 L365.97 175.71 L347.639999298766 175.706925486739 A6.74 6.74 0 0 1 342.581520214961 182.236874425533 L342.578823245537 182.242230381737 A33.31 33.31 0 0 1 325.987653376188 182.238752929059 L325.992193586714 182.237830086601 A6.74 6.74 0 0 1 324.820874337308 169.601801987641 L324.82 169.6 L353.359443401373 148.963229558977 A26.34 26.34 0 0 0 350.238570240932 99.9970049078223 L350.244969480936 99.9968016075694 A52.49 52.49 0 0 0 318.336149158819 99.9900637837421 L318.33389855232 99.9962171124109 A26.34 26.34 0 0 0 300 125.090002298599 Z" style="fill:rgb(0,0,0);" />
<path d=" M401.23 108.33 A8.33 8.33 0 0 1 384.57 108.33 A8.33 8.33 0 0 1 401.23 108.33 Z" style="fill:rgb(0,0,0);" />
<path d=" M415.24 167.71 L415.24 132.290002992367 A34.29 34.29 0 0 1 483.82 132.289997007633 L483.81 132.29 L483.82 167.71 A34.29 34.29 0 0 1 415.24 167.71 Z M433.57 169.38 L433.58 130.62000111352 A15.95 15.95 0 1 1 465.48 130.61999888648 L465.49 169.38 A15.96 15.96 0 0 1 433.57 169.38 Z" style="fill:rgb(0,0,0);" />
<path d=" M514.47 108.33 A8.33 8.33 0 0 1 497.81 108.33 A8.33 8.33 0 0 1 514.47 108.33 Z" style="fill:rgb(0,0,0);" />
<path d=" M530.48 125.09 L530.48 128.57 L548.81 128.57 L548.810002721174 125.093397485114 A8.01 8.01 0 0 1 554.391634351193 117.466970439223 L554.392528568772 117.468621842465 A34.14 34.14 0 0 1 575.146331623732 117.461877264945 L575.142214908216 117.458196108373 A8.01 8.01 0 0 1 576.097503683518 132.348437765398 L576.1 132.35 L547.547094651344 152.981498109918 A25.08 25.08 0 0 0 551.907958707993 200.000807325177 L551.908740902009 200.005020143945 A51.63 51.63 0 0 0 577.624805486566 200.001536774312 L577.622214805858 200.008190752327 A25.08 25.08 0 0 0 596.449999171635 175.713554009055 L596.45 175.71 L578.119999298766 175.706925486739 A6.74 6.74 0 0 1 573.061520214961 182.236874425533 L573.058823245537 182.242230381737 A33.31 33.31 0 0 1 556.467653376188 182.238752929059 L556.472193586714 182.237830086601 A6.74 6.74 0 0 1 555.300874337308 169.601801987641 L555.3 169.6 L583.839443401373 148.963229558977 A26.34 26.34 0 0 0 580.718570240932 99.9970049078223 L580.724969480936 99.9968016075694 A52.49 52.49 0 0 0 548.816149158819 99.9900637837421 L548.81389855232 99.9962171124109 A26.34 26.34 0 0 0 530.48 125.090002298599 Z" style="fill:rgb(0,0,0);" />
<path d=" M631.71 108.33 A8.33 8.33 0 0 1 615.05 108.33 A8.33 8.33 0 0 1 631.71 108.33 Z" style="fill:rgb(0,0,0);" />
</g>
</svg>
