<svg xmlns:xlink="http://www.w3.org/1999/xlink" xmlns="http://www.w3.org/2000/svg" width="400" height="400"  viewBox="0 -0.000030517578125 400.0000305175781 400.0000305175781"><rect id="svgEditorBackground" x="0" y="-0.00003051758176297881" width="400.0000305175781" height="400.0000305175781" style="fill: none; stroke: none;"/>
<!--Gegenereerd door de SIMaD-toepassing (http://www.dlw.be).-->
<g style="stroke:none;fill-rule:evenodd;" transform="matrix(1,0,0,-1,0,400)">
<path d=" M45 0 L355 0 A45 45 0 0 1 400 45.0000031415927 L400 355 A45 45 0 0 1 355.000003141593 400 L45 400 A45 45 0 0 1 1.06581410364015E-13 354.999996858407 L0 45 A45 45 0 0 1 45.0000031415927 1.06581410364015E-13 Z" style="fill:rgb(255,255,255);stroke:rgb(0,0,0);"/>





<path d=" M45 0 L355 0 A45 45 0 0 1 400 45.0000031415927 L400 250 L0 250 L0 45 A45 45 0 0 1 45.0000031415927 1.06581410364015E-13 Z" style="fill:rgb(0,255,0);"/>
<path d=" M314.82 70 L323.15 70 L323.16 93.6199989615291 A5.95 5.95 0 0 0 335.06 93.6200010384709 L335.06 70 L343.39 70 L343.389999999998 94.9500071837752 A11.76 11.76 0 0 1 323.151645494111 103.099546298566 L323.15 103.1 L323.15 120 L314.82 120 Z" style="fill:rgb(255,255,255);"/>

<path d=" M32.04 70 L274.82 70 A15 15 0 0 1 289.82 85 L289.82 165 A15 15 0 0 1 274.82 180 L32.04 180 A15 15 0 0 1 17.04 165 L17.04 85 A15 15 0 0 1 32.04 70 Z" style="fill:rgb(255,255,255);"/>




</g>
</svg>