<svg xmlns:xlink="http://www.w3.org/1999/xlink" xmlns="http://www.w3.org/2000/svg" width="400" height="400"  viewBox="0 -0.000030517578125 400.0000305175781 400.0000305175781"><rect id="svgEditorBackground" x="0" y="-0.00003051758176297881" width="400.0000305175781" height="400.0000305175781" style="fill: none; stroke: none;"/>
<!--Gegenereerd door de SIMaD-toepassing (http://www.dlw.be).-->
<g style="stroke:none;fill-rule:evenodd;" transform="matrix(1,0,0,-1,0,400)">
<path d=" M45 0 L355 0 A45 45 0 0 1 400 45.0000031415927 L400 355 A45 45 0 0 1 355.000003141593 400 L45 400 A45 45 0 0 1 1.06581410364015E-13 354.999996858407 L0 45 A45 45 0 0 1 45.0000031415927 1.06581410364015E-13 Z" style="fill:rgb(255,255,255);stroke:rgb(0,0,0);"/>





<path d=" M45 0 L355 0 A45 45 0 0 1 400 45.0000031415927 L400 250 L0 250 L0 45 A45 45 0 0 1 45.0000031415927 1.06581410364015E-13 Z" style="fill:rgb(0,255,0);"/>
<path d=" M229.87 21.67 L370.13 21.67 A15 15 0 0 1 385.13 36.67 L385.13 81.67 A15 15 0 0 1 370.13 96.67 L229.87 96.67 A15 15 0 0 1 214.87 81.67 L214.87 36.67 A15 15 0 0 1 229.87 21.67 Z" style="fill:rgb(255,255,255);"/>
<path d=" M229.87 29.17 L370.13 29.17 A7.5 7.5 0 0 1 377.63 36.67 L377.63 81.67 A7.5 7.5 0 0 1 370.13 89.17 L229.87 89.17 A7.5 7.5 0 0 1 222.37 81.67 L222.37 36.67 A7.5 7.5 0 0 1 229.87 29.17 Z" style="fill:rgb(0,255,0);"/>




<path d=" M29.87 21.67 L170.13 21.67 A15 15 0 0 1 185.13 36.67 L185.13 81.67 A15 15 0 0 1 170.13 96.67 L29.87 96.67 A15 15 0 0 1 14.87 81.67 L14.87 36.67 A15 15 0 0 1 29.87 21.67 Z" style="fill:rgb(255,255,255);"/>
<path d=" M29.87 29.17 L170.13 29.17 A7.5 7.5 0 0 1 177.63 36.67 L177.63 81.67 A7.5 7.5 0 0 1 170.13 89.17 L29.87 89.17 A7.5 7.5 0 0 1 22.37 81.67 L22.37 36.67 A7.5 7.5 0 0 1 29.87 29.17 Z" style="fill:rgb(0,255,0);"/>




<path d=" M314.82 118.33 L323.15 118.33 L323.16 141.949998961529 A5.95 5.95 0 0 0 335.06 141.950001038471 L335.06 118.33 L343.39 118.33 L343.389999999998 143.280007183775 A11.76 11.76 0 0 1 323.151645494111 151.429546298566 L323.15 151.43 L323.15 168.33 L314.82 168.33 Z" style="fill:rgb(255,255,255);"/>

<path d=" M68.31 118.33 L274.82 118.33 A15 15 0 0 1 289.82 133.33 L289.82 213.33 A15 15 0 0 1 274.82 228.33 L68.31 228.33 A15 15 0 0 1 53.31 213.33 L53.31 133.33 A15 15 0 0 1 68.31 118.33 Z" style="fill:rgb(255,255,255);"/>



</g>
</svg>