<?xml version="1.0" encoding="UTF-8" standalone="no"?>
<svg
   xmlns:dc="http://purl.org/dc/elements/1.1/"
   xmlns:cc="http://creativecommons.org/ns#"
   xmlns:rdf="http://www.w3.org/1999/02/22-rdf-syntax-ns#"
   xmlns:svg="http://www.w3.org/2000/svg"
   xmlns="http://www.w3.org/2000/svg"
   xmlns:sodipodi="http://sodipodi.sourceforge.net/DTD/sodipodi-0.dtd"
   xmlns:inkscape="http://www.inkscape.org/namespaces/inkscape"
   width="400"
   height="400"
   version="1.1"
   id="svg34"
   sodipodi:docname="IR11_ok.svg"
   inkscape:version="0.92.1 r15371">
  <metadata
     id="metadata40">
    <rdf:RDF>
      <cc:Work
         rdf:about="">
        <dc:format>image/svg+xml</dc:format>
        <dc:type
           rdf:resource="http://purl.org/dc/dcmitype/StillImage" />
        <dc:title></dc:title>
      </cc:Work>
    </rdf:RDF>
  </metadata>
  <defs
     id="defs38" />
  <sodipodi:namedview
     pagecolor="#ffffff"
     bordercolor="#666666"
     borderopacity="1"
     objecttolerance="10"
     gridtolerance="10"
     guidetolerance="10"
     inkscape:pageopacity="0"
     inkscape:pageshadow="2"
     inkscape:window-width="1920"
     inkscape:window-height="1138"
     id="namedview36"
     showgrid="false"
     inkscape:zoom="0.59"
     inkscape:cx="200"
     inkscape:cy="200"
     inkscape:window-x="-8"
     inkscape:window-y="-8"
     inkscape:window-maximized="1"
     inkscape:current-layer="g32" />
  <!--Gegenereerd door de SIMaD-toepassing (http://www.dlw.be).-->
  <g
     style="stroke:none;fill-rule:evenodd;"
     transform="matrix(1,0,0,-1,0,400)"
     id="g32">
    <path
       d=" M25 0 L375 0 A25 25 0 0 1 400 25 L400 375 A25 25 0 0 1 375 400 L25 400 A25 25 0 0 1 0 375 L0 25 A25 25 0 0 1 25 0 Z"
       style="fill:rgb(0,0,255);"
       id="path2" />
    <path
       d=" M0 250 L400 250 L400 375 A25 25 0 0 1 375 400 L25 400 A25 25 0 0 1 0 375 Z"
       style="fill:rgb(255,255,255);stroke:rgb(0,0,0);"
       id="path4" />
    <path
       d=" M330 95 L338.33 95 L338.34 118.619998961529 A5.95 5.95 0 0 0 350.24 118.620001038471 L350.24 95 L358.57 95 L358.569999999998 119.950007183775 A11.76 11.76 0 0 1 338.331645494111 128.099546298566 L338.33 128.1 L338.33 145 L330 145 Z"
       style="fill:rgb(255,255,255);"
       id="path16" />
    <path
       d=" M35 70 L309.06 70 A15 15 0 0 1 324.06 85 L324.06 185 A15 15 0 0 1 309.06 200 L35 200 A15 15 0 0 1 20 185 L20 85 A15 15 0 0 1 35 70 Z"
       style="fill:rgb(255,255,255);"
       id="path20" />
    <path
       d=" M35 80 L309.06 80 A5 5 0 0 1 314.06 85 L314.06 185 A5 5 0 0 1 309.06 190 L35 190 A5 5 0 0 1 30 185 L30 85 A5 5 0 0 1 35 80 Z"
       style="fill:rgb(0,0,255);"
       id="path22" />
  </g>
</svg>
