<?xml version="1.0" encoding="UTF-8" standalone="no"?>
<svg
   xmlns:dc="http://purl.org/dc/elements/1.1/"
   xmlns:cc="http://creativecommons.org/ns#"
   xmlns:rdf="http://www.w3.org/1999/02/22-rdf-syntax-ns#"
   xmlns:svg="http://www.w3.org/2000/svg"
   xmlns="http://www.w3.org/2000/svg"
   xmlns:sodipodi="http://sodipodi.sourceforge.net/DTD/sodipodi-0.dtd"
   xmlns:inkscape="http://www.inkscape.org/namespaces/inkscape"
   width="225"
   height="225"
   version="1.1"
   id="svg30"
   sodipodi:docname="IR12-R.svg"
   inkscape:version="0.92.1 r15371">
  <metadata
     id="metadata36">
    <rdf:RDF>
      <cc:Work
         rdf:about="">
        <dc:format>image/svg+xml</dc:format>
        <dc:type
           rdf:resource="http://purl.org/dc/dcmitype/StillImage" />
        <dc:title></dc:title>
      </cc:Work>
    </rdf:RDF>
  </metadata>
  <defs
     id="defs34" />
  <sodipodi:namedview
     pagecolor="#ffffff"
     bordercolor="#666666"
     borderopacity="1"
     objecttolerance="10"
     gridtolerance="10"
     guidetolerance="10"
     inkscape:pageopacity="0"
     inkscape:pageshadow="2"
     inkscape:window-width="1920"
     inkscape:window-height="1018"
     id="namedview32"
     showgrid="false"
     inkscape:zoom="1.0488889"
     inkscape:cx="112.5"
     inkscape:cy="112.5"
     inkscape:window-x="-8"
     inkscape:window-y="-8"
     inkscape:window-maximized="1"
     inkscape:current-layer="g28" />
  <!--Gegenereerd door de SIMaD-toepassing (http://www.dlw.be).-->
  <g
     style="stroke:none;fill-rule:evenodd;"
     transform="matrix(1,0,0,-1,0,225)"
     id="g28">
    <path
       d=" M25 0 L200 0 A25 25 0 0 1 225 25 L225 200 A25 25 0 0 1 200 225 L25 225 A25 25 0 0 1 0 200 L0 25 A25 25 0 0 1 25 0 Z"
       style="fill:rgb(0,0,255);"
       id="path2" />
    <path
       d=" M0 113 L225 113 L225 200 A25 25 0 0 1 200 225 L25 225 A25 25 0 0 1 0 200 Z"
       style="fill:rgb(255,255,255);stroke:rgb(0,0,0);"
       id="path4" />
    <path
       d=" M190.5 30 L194.1 30 L194.1 44.799999581121 A2.4 2.4 0 0 0 198.9 44.800000418879 L198.9 30 L202.5 30 L202.499999999999 45.4200026075219 A4.98 4.98 0 0 1 194.09220038445 49.0325600058179 L194.1 49.03 L194.1 58 L190.5 58 Z"
       style="fill:rgb(255,255,255);"
       id="path16" />
    <path
       d=" M65 16 L158.14 16 A15 15 0 0 1 173.14 31 L173.14 81 A15 15 0 0 1 158.14 96 L65 96 A15 15 0 0 1 50 81 L50 31 A15 15 0 0 1 65 16 Z"
       style="fill:rgb(255,255,255);"
       id="path20" />
  </g>
</svg>
