<?xml version="1.0" encoding="UTF-8" standalone="no"?>
<svg
   xmlns:dc="http://purl.org/dc/elements/1.1/"
   xmlns:cc="http://creativecommons.org/ns#"
   xmlns:rdf="http://www.w3.org/1999/02/22-rdf-syntax-ns#"
   xmlns:svg="http://www.w3.org/2000/svg"
   xmlns="http://www.w3.org/2000/svg"
   xmlns:sodipodi="http://sodipodi.sourceforge.net/DTD/sodipodi-0.dtd"
   xmlns:inkscape="http://www.inkscape.org/namespaces/inkscape"
   width="225"
   height="225"
   version="1.1"
   id="svg34"
   sodipodi:docname="IR12-neen-N.svg"
   inkscape:version="0.92.4 (5da689c313, 2019-01-14)">
  <metadata
     id="metadata40">
    <rdf:RDF>
      <cc:Work
         rdf:about="">
        <dc:format>image/svg+xml</dc:format>
        <dc:type
           rdf:resource="http://purl.org/dc/dcmitype/StillImage" />
        <dc:title />
      </cc:Work>
    </rdf:RDF>
  </metadata>
  <defs
     id="defs38" />
  <sodipodi:namedview
     pagecolor="#ffffff"
     bordercolor="#666666"
     borderopacity="1"
     objecttolerance="10"
     gridtolerance="10"
     guidetolerance="10"
     inkscape:pageopacity="0"
     inkscape:pageshadow="2"
     inkscape:window-width="1920"
     inkscape:window-height="1017"
     id="namedview36"
     showgrid="false"
     inkscape:zoom="4.1955556"
     inkscape:cx="190.22325"
     inkscape:cy="27.754048"
     inkscape:window-x="-8"
     inkscape:window-y="-8"
     inkscape:window-maximized="1"
     inkscape:current-layer="g32" />
  <!--Gegenereerd door de SIMaD-toepassing (http://www.dlw.be).-->
  <g
     style="stroke:none;fill-rule:evenodd;"
     transform="matrix(1,0,0,-1,0,225)"
     id="g32">
    <path
       d=" M25 0 L200 0 A25 25 0 0 1 225 25 L225 200 A25 25 0 0 1 200 225 L25 225 A25 25 0 0 1 0 200 L0 25 A25 25 0 0 1 25 0 Z"
       style="fill:rgb(0,0,255);"
       id="path2" />
    <path
       d=" M0 113 L225 113 L225 200 A25 25 0 0 1 200 225 L25 225 A25 25 0 0 1 0 200 Z"
       style="fill:rgb(255,255,255);stroke:rgb(0,0,0);"
       id="path4" />
    <path
       d="M 42.455138,7.5 H 182.54485 A 14.955138,15 0 0 1 197.5,22.5 v 70 a 14.955138,15 0 0 1 -14.95515,15 H 42.455138 A 14.955138,15 0 0 1 27.5,92.5 v -70 a 14.955138,15 0 0 1 14.955138,-15 z"
       style="fill:#ffffff;stroke-width:0.99850327"
       id="path20"
       inkscape:connector-curvature="0" />
    <path
       d="M 42.455138,17.5 H 182.54485 a 4.9850448,5 0 0 1 4.98498,5 v 70 a 4.9850448,5 0 0 1 -4.98498,5 H 42.455138 a 4.9850448,5 0 0 1 -4.985055,-5 v -70 a 4.9850448,5 0 0 1 4.985055,-5 z"
       style="fill:#0000ff;stroke-width:0.99850327"
       id="path22"
       inkscape:connector-curvature="0" />
  </g>
</svg>
