<?xml version="1.0" encoding="UTF-8" standalone="no"?>
<svg
   xmlns:dc="http://purl.org/dc/elements/1.1/"
   xmlns:cc="http://creativecommons.org/ns#"
   xmlns:rdf="http://www.w3.org/1999/02/22-rdf-syntax-ns#"
   xmlns:svg="http://www.w3.org/2000/svg"
   xmlns="http://www.w3.org/2000/svg"
   xmlns:sodipodi="http://sodipodi.sourceforge.net/DTD/sodipodi-0.dtd"
   xmlns:inkscape="http://www.inkscape.org/namespaces/inkscape"
   style="font-size:12px;font-style:normal;font-weight:normal;fill:#000000;fill-opacity:1;stroke:#000000;stroke-width:1;stroke-linecap:square;stroke-linejoin:miter;stroke-miterlimit:10;stroke-opacity:1;stroke-dasharray:none;stroke-dashoffset:0;font-family:Dialog"
   id="svg2"
   version="1.1"
   inkscape:version="0.47 r22583"
   width="700"
   height="700"
   sodipodi:docname="Km01.svg">
  <metadata
     id="metadata21">
    <rdf:RDF>
      <cc:Work
         rdf:about="">
        <dc:format>image/svg+xml</dc:format>
        <dc:type
           rdf:resource="http://purl.org/dc/dcmitype/StillImage" />
      </cc:Work>
    </rdf:RDF>
  </metadata>
  <sodipodi:namedview
     pagecolor="#ffffff"
     bordercolor="#666666"
     borderopacity="1"
     objecttolerance="10"
     gridtolerance="10"
     guidetolerance="10"
     inkscape:pageopacity="0"
     inkscape:pageshadow="2"
     inkscape:window-width="640"
     inkscape:window-height="504"
     id="namedview19"
     showgrid="false"
     inkscape:zoom="0.22425739"
     inkscape:cx="372.04724"
     inkscape:cy="173.81891"
     inkscape:window-x="0"
     inkscape:window-y="24"
     inkscape:window-maximized="0"
     inkscape:current-layer="svg2" />
  <!--Gegenereerd door de Verkeersbordendatabank (Vlaamse overheid MOW).-->
  <defs
     id="genericDefs">
    <inkscape:perspective
       sodipodi:type="inkscape:persp3d"
       inkscape:vp_x="0 : 0.5 : 1"
       inkscape:vp_y="0 : 1000 : 0"
       inkscape:vp_z="1 : 0.5 : 1"
       inkscape:persp3d-origin="0.5 : 0.33333333 : 1"
       id="perspective23" />
  </defs>
  <g
     id="g5">
    <g
       style="fill:#fcffff;stroke:#fcffff"
       transform="matrix(1,0,0,-1,0,700)"
       id="g7">
      <path
         d="m 65,0 570,0 0,0 c 17.2391,0 33.7721,6.8482 45.9619,19.0381 C 693.1518,31.2279 700,47.7609 700,65 l 0,570 c 0,17.2391 -6.8482,33.7721 -19.0381,45.9619 C 668.7721,693.1518 652.2391,700 635,700 L 65,700 C 47.7609,700 31.2279,693.1518 19.0381,680.9619 6.8482,668.7721 0,652.2391 0,635 l 0,0 0,-570 0,0 C 0,47.7609 6.8482,31.2279 19.0381,19.0381 31.2279,6.8482 47.7609,0 65,0 z"
         style="stroke:none"
         id="path9" />
    </g>
    <g
       style="fill:#c71712;stroke:#c71712"
       transform="matrix(1,0,0,-1,0,700)"
       id="g11">
      <path
         d="M 0,350 0,65 0,65 C 0,47.7609 6.8482,31.2279 19.0381,19.0381 31.2279,6.8482 47.7609,0 65,0 l 0,0 570,0 0,0 c 17.2391,0 33.7721,6.8482 45.9619,19.0381 C 693.1518,31.2279 700,47.7609 700,65 l 0,285 -700,0 z"
         style="stroke:none"
         id="path13" />
      <path
         d="m 50,435 0,150 19.2857,0 0,-78.4287 24.5631,35.5716 23.4369,0 L 82.1429,491.25 117.2857,435 94.5455,435 69.2857,475.4311 69.2857,435 50,435 z"
         style="stroke:none"
         id="path15" />
      <path
         d="m 133.3357,435 19.2857,0 0,79.2857 c 0,7.1008 5.7564,12.8572 12.8572,12.8572 7.1008,0 12.8571,-5.7564 12.8571,-12.8572 l 0,-79.2857 19.2857,0 0,79.2857 c 0,7.1008 5.7564,12.8572 12.8572,12.8572 7.1008,0 12.8571,-5.7564 12.8571,-12.8572 l 0,-79.2857 19.2857,0 0,82.6319 c 0,11.8549 -7.8298,22.285 -19.2135,25.5943 -11.3837,3.3093 -23.5849,-1.2979 -29.9403,-11.3053 -4.2708,6.725 -11.3258,11.187 -19.2321,12.1637 -7.9064,0.9767 -15.8351,-1.6343 -21.6141,-7.1177 l 0,5.176 -19.2857,0 0,-107.1429 z"
         style="stroke:none"
         id="path17" />
    </g>
  </g>
</svg>
