<?xml version="1.0" encoding="UTF-8"?><!DOCTYPE svg PUBLIC '-//W3C//DTD SVG 1.0//EN' 'http://www.w3.org/TR/2001/REC-SVG-20010904/DTD/svg10.dtd'><svg xmlns:xlink="http://www.w3.org/1999/xlink" xmlns="http://www.w3.org/2000/svg"><!--Gegenereerd door de SIMaD (http://www.dlw.be).-->
<g style="stroke:none;fill-rule:evenodd;" transform="matrix(1,0,0,-1,0,800)">
<path d=" M115 0 L684.999991971485 2.8421709430404E-13 A115 115 0 0 1 800 115.000008028515 L799.999999999998 684.999977921585 A115 115 0 0 1 685.000008028515 800 L115.000008028515 800 A115 115 0 0 1 2.8421709430404E-13 684.999991971485 L2.8421709430404E-13 115.000008028515 A115 115 0 0 1 115.000008028515 2.8421709430404E-13 Z" style="fill:rgb(0,255,0);" />
<path d=" M115 50 L684.999995462144 50.0000000000002 A65 65 0 0 1 750 115.000004537856 L749.999999999999 684.999987520896 A65 65 0 0 1 685.000004537856 750 L115.000004537856 750 A65 65 0 0 1 50.0000000000002 684.999995462144 L50.0000000000002 115.000004537856 A65 65 0 0 1 115.000004537856 50.0000000000002 Z" style="fill:rgb(255,255,255);" />
<path d=" M183.34 485 L202.62 485 L202.62 564.289997755507 A12.86 12.86 0 0 0 228.34 564.290002244493 L228.34 485 L247.62 485 L247.62 564.289997755507 A12.86 12.86 0 0 0 273.34 564.290002244493 L273.34 485 L292.62 485 L292.619999999995 567.630016279559 A26.65 26.65 0 0 1 243.473228064714 581.916978424136 L243.466773431415 581.91697606828 A26.65 26.65 0 0 1 202.626450153047 586.962270405008 L202.62 586.97 L202.62 592.14 L183.34 592.14 Z" style="fill:rgb(255,0,0);" />
<path d=" M100 485 L100 635 L119.29 635 L119.29 556.57 L143.85 592.14 L167.29 592.14 L132.14 541.25 L167.29 485 L144.55 485 L119.29 525.43 L119.29 485 Z" style="fill:rgb(255,0,0);" />
<path d=" M50 400 L50.0000000000002 115.000004537856 A65 65 0 0 1 115.000004537856 50.0000000000002 L684.999995462144 50.0000000000002 A65 65 0 0 1 750 115.000004537856 L750 400 Z" style="fill:rgb(255,0,0);" />
</g>
</svg>
