<?xml version="1.0" encoding="UTF-8"?>
<!DOCTYPE svg PUBLIC '-//W3C//DTD SVG 1.0//EN' 'http://www.w3.org/TR/2001/REC-SVG-20010904/DTD/svg10.dtd'>
<svg xmlns:xlink="http://www.w3.org/1999/xlink" xmlns="http://www.w3.org/2000/svg" width="700.000000000011" height="200">
<!--Gegenereerd door de SIMaD-toepassing (http://www.dlw.be).-->
<g style="stroke:none;fill-rule:evenodd;" transform="matrix(1,0,0,-1,0,200)">
<path d=" M655 0 L45.0000031415927 1.06581410364015E-13 A45 45 0 0 0 1.06581410364015E-13 45.0000031415927 L1.06581410364015E-13 154.999996858407 A45 45 0 0 0 45.0000031415927 200 L654.999996858407 200 A45 45 0 0 0 700 154.999996858407 L699.999999999999 45.0000086393798 A45 45 0 0 0 655.000003141593 1.06581410364015E-13 Z" style="fill:rgb(255,255,255);stroke:rgb(0,0,0);" />
<path d=" M304.22 33.33 A8.33 8.33 0 0 1 287.56 33.33 A8.33 8.33 0 0 1 304.22 33.33 Z" style="fill:rgb(255,0,0);" />
<path d=" M700 155 L699.999999999999 45.0000086393798 A45 45 0 0 0 655.000003141593 1.06581410364015E-13 L450 0 L450 200 L654.999996858407 200 A45 45 0 0 0 700 154.999996858407 Z" style="fill:rgb(255,128,0);" />
<path d=" M600 61.25 L500 61.25 L500 48.75 L600 48.75 L600 30 L650 55 L600 80 Z" style="fill:rgb(0,0,0);" />
<path d=" M505.065982468691 154.147399444634 A21.01 21.01 0 0 0 519.636224230136 163.496884171212 L519.633110097731 163.497619432519 A262.88 262.88 0 0 0 604.048810135074 168.680205133114 L604.050455888011 168.681219299273 A109.37 109.37 0 0 0 637.752761219621 162.000746844813 L637.758914583769 161.996605659849 A15.28 15.28 0 0 0 647.22953106823 152.670019030748 L647.224825515579 152.672546313963 A14.23 14.23 0 0 0 646.885358217142 140.621528711049 L646.89 140.62 L648.25 140.45 L646.04 132.98 L643.998349125517 132.809896338096 A61.33 61.33 0 0 0 635.681653632108 121.098613633005 L635.682536682893 121.100492646187 A2.7 2.7 0 0 0 631.610663483521 120.761164204112 L631.61 120.76 L605.20028236988 140.771435592764 A1.69 1.69 0 0 0 605.298019856754 143.165785435952 L605.3 143.17 L607.34 145.03 L605.64 145.71 L610.73 151.82 L612.94 151.31 L616.68 155.39 L609.885624045431 154.878161326136 A164.08 164.08 0 0 0 563.811334990897 149.781744433901 L563.814720245102 149.776818624977 A72.43 72.43 0 0 0 541.317364786857 154.533861989642 L541.31 154.54 L533.34 154.71 L535.384492962012 152.054213148776 A8.51 8.51 0 0 0 534.523279712903 141.638799843961 L534.53 141.64 L535.88 140.96 L538.25612991167 133.149259390583 A65.71 65.71 0 0 0 501.933689740962 127.548141385251 L501.94 127.55 L501.6 135.19 L502.951843265446 135.192183814231 A58.12 58.12 0 0 0 502.094394725002 141.756442972735 L502.095812603493 141.749597911632 A21.01 21.01 0 0 0 505.068201632595 154.146233361841 Z" style="fill:rgb(0,0,0);" />
</g>
</svg>
