<?xml version="1.0" encoding="UTF-8"?>
<!DOCTYPE svg PUBLIC '-//W3C//DTD SVG 1.0//EN' 'http://www.w3.org/TR/2001/REC-SVG-20010904/DTD/svg10.dtd'>
<svg xmlns:xlink="http://www.w3.org/1999/xlink" xmlns="http://www.w3.org/2000/svg" width="699.999999999994" height="200">
<!--Gegenereerd door de SIMaD-toepassing (http://www.dlw.be).-->
<g style="stroke:none;fill-rule:evenodd;" transform="matrix(1,0,0,-1,0,200)">
<path d=" M45 0 L654.999996858407 1.06581410364015E-13 A45 45 0 0 1 700 45.0000031415927 L699.999999999999 154.99999136062 A45 45 0 0 1 655.000003141593 200 L45.0000031415927 200 A45 45 0 0 1 1.06581410364015E-13 154.999996858407 L1.06581410364015E-13 45.0000031415927 A45 45 0 0 1 45.0000031415927 1.06581410364015E-13 Z" style="fill:rgb(255,255,255);stroke:rgb(0,0,0);" />
<path d=" M554.76 33.33 A8.33 8.33 0 0 1 538.1 33.33 A8.33 8.33 0 0 1 554.76 33.33 Z" style="fill:rgb(255,0,0);" />
<path d=" M0 155 L1.06581410364015E-13 45.0000031415927 A45 45 0 0 1 45.0000031415927 1.06581410364015E-13 L250 0 L250 200 L45.0000031415927 200 A45 45 0 0 1 1.06581410364015E-13 154.999996858407 Z" style="fill:rgb(255,128,0);" />
<path d=" M194.934017531309 154.147399444634 A21.01 21.01 0 0 1 180.363775769864 163.496884171212 L180.366889902269 163.497619432519 A262.88 262.88 0 0 1 95.9511898649265 168.680205133114 L95.9495441119892 168.681219299273 A109.37 109.37 0 0 1 62.2472387803794 162.000746844813 L62.2410854162314 161.996605659849 A15.28 15.28 0 0 1 52.7704689317702 152.670019030748 L52.7751744844206 152.672546313963 A14.23 14.23 0 0 1 53.1146417828579 140.621528711049 L53.11 140.62 L51.75 140.45 L53.96 132.98 L56.001650874483 132.809896338096 A61.33 61.33 0 0 1 64.3183463678918 121.098613633005 L64.3174633171069 121.100492646187 A2.7 2.7 0 0 1 68.3893365164786 120.761164204112 L68.39 120.76 L94.79971763012 140.771435592764 A1.69 1.69 0 0 1 94.7019801432462 143.165785435952 L94.7 143.17 L92.66 145.03 L94.36 145.71 L89.27 151.82 L87.06 151.31 L83.32 155.39 L90.1143759545689 154.878161326136 A164.08 164.08 0 0 1 136.188665009103 149.781744433901 L136.185279754898 149.776818624977 A72.43 72.43 0 0 1 158.682635213143 154.533861989642 L158.69 154.54 L166.66 154.71 L164.615507037988 152.054213148776 A8.51 8.51 0 0 1 165.476720287097 141.638799843961 L165.47 141.64 L164.12 140.96 L161.74387008833 133.149259390583 A65.71 65.71 0 0 1 198.066310259038 127.548141385251 L198.06 127.55 L198.4 135.19 L197.048156734554 135.192183814231 A58.12 58.12 0 0 1 197.905605274998 141.756442972735 L197.904187396507 141.749597911632 A21.01 21.01 0 0 1 194.931798367405 154.146233361841 Z" style="fill:rgb(0,0,0);" />
<path d=" M100 61.25 L200 61.25 L200 48.75 L100 48.75 L100 30 L50 55 L100 80 Z" style="fill:rgb(0,0,0);" />
</g>
</svg>
