<?xml version="1.0" encoding="UTF-8"?><!DOCTYPE svg PUBLIC '-//W3C//DTD SVG 1.0//EN' 'http://www.w3.org/TR/2001/REC-SVG-20010904/DTD/svg10.dtd'><svg xmlns:xlink="http://www.w3.org/1999/xlink" xmlns="http://www.w3.org/2000/svg"><!--Gegenereerd door de SIMaD (http://www.dlw.be).-->
<g style="stroke:none;fill-rule:evenodd;" transform="matrix(1,0,0,-1,0,300)">
<path d=" M95 0 L454.999993367749 2.27373675443232E-13 A95 95 0 0 1 550 95.0000066322512 L549.999999999998 204.999981761309 A95 95 0 0 1 455.000006632251 300 L95.0000066322512 300 A95 95 0 0 1 2.27373675443232E-13 204.999993367749 L2.27373675443232E-13 95.0000066322512 A95 95 0 0 1 95.0000066322512 2.27373675443232E-13 Z" style="fill:rgb(0,255,0);" />
<path d=" M95 50 L454.999996858407 50.0000000000001 A45 45 0 0 1 500 95.0000031415927 L499.999999999999 204.99999136062 A45 45 0 0 1 455.000003141593 250 L95.0000031415927 250 A45 45 0 0 1 50.0000000000001 204.999996858407 L50.0000000000001 95.0000031415927 A45 45 0 0 1 95.0000031415927 50.0000000000001 Z" style="fill:rgb(255,255,255);" />
<path d=" M258.33 83.33 A8.33 8.33 0 0 1 241.67 83.33 A8.33 8.33 0 0 1 258.33 83.33 Z" style="fill:rgb(255,0,0);" />
</g>
</svg>
