<?xml version="1.0" encoding="UTF-8" standalone="no"?>
<!-- Created with Inkscape (http://www.inkscape.org/) -->

<svg
   xmlns:svg="http://www.w3.org/2000/svg"
   xmlns="http://www.w3.org/2000/svg"
   version="1.1"
   width="450"
   height="200"
   id="svg2"
   style="font-size:12px;font-style:normal;font-weight:normal;fill:#000000;fill-opacity:1;stroke:#000000;stroke-width:1;stroke-linecap:square;stroke-linejoin:miter;stroke-miterlimit:10;stroke-opacity:1;stroke-dasharray:none;stroke-dashoffset:0;font-family:Dialog">
  <defs
     id="genericDefs" />
  <path
     d="M 0,100 0,45 C 0,33.0653 4.7411,21.6193 13.1802,13.1802 21.6193,4.7411 33.0653,0 45,0 l 360,0 c 11.9348,0 23.3807,4.7411 31.8198,13.1802 C 445.2589,21.6193 450,33.0653 450,45 l 0,55 -450,0 z"
     id="path2942"
     style="fill:#ffffff;stroke:none" />
  <path
     d="m 0,100 0,55 c 0,11.9347 4.7411,23.3807 13.1802,31.8198 C 21.6193,195.2589 33.0653,200 45,200 l 360,0 c 11.9348,0 23.3807,-4.7411 31.8198,-13.1802 C 445.2589,178.3807 450,166.9347 450,155 l 0,-55 -450,0 z"
     id="path13"
     style="fill:#c71712;stroke:none" />
</svg>
