<svg xmlns:xlink="http://www.w3.org/1999/xlink" xmlns="http://www.w3.org/2000/svg" width="3710" height="2300"  viewBox="0 0 3710 2300"><rect id="svgEditorBackground" x="0" y="0" width="3710" height="2300" style="fill:none;stroke:none;"/>
<!--Gegenereerd door de SIMaD-toepassing (http://www.dlw.be).-->
<g style="stroke:none;fill-rule:evenodd;" transform="matrix(1,0,0,-1,0,2300)">
<path d=" M65 0 L3645 0 A65 65 0 0 1 3710 65 L3710 2235 A65 65 0 0 1 3645 2300 L65 2300 A65 65 0 0 1 0 2235 L0 65 A65 65 0 0 1 65 0 Z" style="fill:rgb(255,255,255);stroke:rgb(0,0,0);"/>
<path d=" M195 645 L3515 645 A150 150 0 0 1 3665 795 L3665 2105 A150 150 0 0 1 3515 2255 L195 2255 A150 150 0 0 1 45 2105 L45 795 A150 150 0 0 1 195 645 Z" style="fill:rgb(255,255,255);"/>
<path d=" M195 690 L3515 690 A105 105 0 0 1 3620 795 L3620 2105 A105 105 0 0 1 3515 2210 L195 2210 A105 105 0 0 1 90 2105 L90 795 A105 105 0 0 1 195 690 Z" style="fill:rgb(255,255,255);"/>
<path d=" M65 0 L3645 0 A65 65 0 0 1 3710 65 L3710 600 L0 600 L0 65 A65 65 0 0 1 65 0 Z" style="fill:rgb(128,0,0);"/>











<path d=" M3084.27 394.5 L3075.31 394.08 L3066.6 392.83 L3058.17 390.8 L3050.05 388.03 L3042.28 384.55 L3034.92 380.4 L3027.98 375.62 L3021.52 370.25 L3015.57 364.34 L3010.16 357.91 L3005.35 351 L3001.16 343.66 L2997.63 335.92 L2994.81 327.83 L2992.73 319.41 L2991.43 310.72 L2990.95 301.78 L2991.26 293.56 L2992.42 284.6 L2994.4 275.93 L2997.18 267.59 L3000.69 259.62 L3004.91 252.06 L3009.78 244.96 L3015.28 238.34 L3021.35 232.26 L3027.96 226.76 L3035.06 221.88 L3042.61 217.65 L3050.58 214.13 L3058.92 211.34 L3067.58 209.35 L3074.18 208.61 L3077.02 209.68 L3079.15 212.22 L3079.89 221.05 L3079.89 261.13 L3079.85 261.26 L3040.2 300.92 L3084.8 345.54 L3129.42 300.93 L3129.43 300.92 L3089.82 261.31 L3090.01 261.47 L3090.01 215.77 L3090.94 211.5 L3092.58 209.53 L3094.87 208.59 L3103.17 209.79 L3111.75 212.05 L3120.01 215.08 L3127.9 218.85 L3135.36 223.31 L3142.37 228.41 L3148.87 234.12 L3154.83 240.4 L3160.19 247.19 L3164.92 254.47 L3168.96 262.19 L3172.29 270.3 L3174.84 278.77 L3176.59 287.55 L3177.43 295.58 L3177.55 304.03 L3176.86 312.91 L3175.37 321.54 L3173.1 329.88 L3170.09 337.89 L3166.4 345.53 L3162.04 352.77 L3157.08 359.56 L3151.53 365.87 L3145.44 371.65 L3138.86 376.87 L3131.81 381.5 L3124.34 385.48 L3116.49 388.79 L3108.29 391.38 L3099.78 393.22 L3091 394.26 L3084.27 394.5 Z M3104.21 225.17 L3104.17 254.61 L3103.92 254.72 L3149.77 300.56 L3084.35 365.98 L3078.08 359.71 L3018.94 300.56 L3065.73 253.76 L3065.73 253.75 L3065.69 225.27 L3057.1 227.98 L3049.32 231.44 L3042.02 235.68 L3035.23 240.66 L3029.03 246.32 L3023.46 252.6 L3018.57 259.45 L3014.42 266.82 L3011.07 274.65 L3008.57 282.89 L3006.97 291.48 L3006.33 300.38 L3006.67 309.23 L3008.02 318.04 L3010.3 326.5 L3013.48 334.55 L3017.48 342.14 L3022.26 349.22 L3027.76 355.72 L3033.92 361.6 L3040.68 366.78 L3048 371.22 L3055.8 374.87 L3064.04 377.66 L3072.66 379.53 L3081.6 380.44 L3089.97 380.37 L3098.87 379.33 L3107.45 377.32 L3115.63 374.41 L3123.37 370.65 L3130.61 366.1 L3137.29 360.82 L3143.36 354.86 L3148.77 348.27 L3153.44 341.12 L3157.33 333.46 L3160.39 325.35 L3162.55 316.84 L3163.76 307.99 L3163.97 299.21 L3163.27 290.69 L3161.58 281.9 L3158.97 273.55 L3155.49 265.68 L3151.22 258.33 L3146.22 251.55 L3140.54 245.38 L3134.25 239.86 L3127.41 235.04 L3120.08 230.96 L3112.33 227.65 L3104.21 225.17 Z" style="fill:rgb(255,255,255);"/>
<path d=" M3196.15 334.26 L3190.79 332.31 L3190.65 332.31 L3189.58 335.52 L3198.11 338.2 L3201.8 339.47 L3201.85 339.63 L3200.11 344 L3201.83 344.56 L3201.87 344.55 L3204.42 336.89 L3204.31 336.81 L3198.86 335.18 Z" style="fill:rgb(255,255,255);"/>
<path d=" M3205.54 333.52 L3206.27 330.05 L3206.26 329.95 L3202.44 327.68 L3202.41 327.53 L3203.41 322.88 L3207.93 322.35 L3208.34 320.4 L3199.52 322.05 L3192.81 323.19 L3192.48 324.72 L3200.06 329.69 L3204.99 333.12 Z M3201.28 326.91 L3196.96 324.15 L3196.89 324 L3202.09 323.17 L3201.29 326.87 Z" style="fill:rgb(255,255,255);"/>
<path d=" M3200.43 312.7 L3194.71 311.88 L3194.63 311.94 L3194.26 315.25 L3194.36 315.31 L3203.26 316.17 L3208.56 316.95 L3208.67 316.92 L3209.06 313.61 L3209 313.54 L3203.25 313.03 Z" style="fill:rgb(255,255,255);"/>
<path d=" M3201.08 295.77 L3195.3 295.54 L3195.26 295.61 L3195.55 304.6 L3196.59 306.97 L3198.52 308.56 L3203.13 309.19 L3206.48 308 L3208.74 305.64 L3209.69 302.48 L3209.77 295.76 L3209.74 295.69 L3203.94 295.8 Z M3204.38 298.92 L3208.47 298.99 L3208.3 302.39 L3207.39 304.08 L3205.24 305.46 L3200.79 305.83 L3198.42 304.97 L3197.15 303.71 L3196.42 301.55 L3196.53 298.86 L3204.34 298.92 Z" style="fill:rgb(255,255,255);"/>
<path d=" M3193.37 279.75 L3193.62 281.62 L3200.52 286.39 L3204.32 289.06 L3204.58 289.39 L3195.78 290.47 L3194.85 290.53 L3194.82 290.57 L3195.06 292.39 L3203.77 290.94 L3209.42 290.17 L3209.18 288.5 L3202.13 283.79 L3197.94 280.71 L3206.81 279.55 L3207.98 279.44 L3207.72 277.51 L3199.35 279.04 L3193.55 279.73 Z" style="fill:rgb(255,255,255);"/>
<path d=" M3190.53 269.78 L3192.74 273.75 L3195.08 275.29 L3198.88 275.6 L3202.45 274.08 L3204.66 271.26 L3205.33 267.55 L3203.91 262.98 L3201.45 260.42 L3198.71 259.55 L3194.62 260.24 L3191.75 262.4 L3190.27 265.71 L3190.32 268.92 Z M3191.67 269.38 L3191.53 267.89 L3192.2 266.08 L3195.27 263.67 L3199.87 262.74 L3201.79 263.26 L3203.05 264.39 L3203.82 266.41 L3203.64 268.22 L3202.17 270.32 L3197.8 272.33 L3194.98 272.39 L3193.23 271.64 L3192.03 270.28 L3191.83 269.84 Z" style="fill:rgb(255,255,255);"/>
<path d=" M3186.45 245.71 L3193.93 241.27 L3194.69 240.82 L3193.86 239.11 L3193.77 239.11 L3186.92 243.86 L3181.69 247.28 L3182.37 248.72 L3182.38 248.77 L3182.52 248.8 L3191.56 248.82 L3193.34 248.86 L3193.37 249.15 L3187.85 256.14 L3186.64 257.59 L3186.64 257.66 L3187.37 259.21 L3195.7 256.38 L3201.26 254.63 L3199.79 251.52 L3191.57 254.6 L3190.59 254.95 L3190.59 254.91 L3196.19 247.97 L3197.38 246.49 L3197.07 245.81 L3197.07 245.79 L3188.27 245.77 L3186.46 245.74 Z" style="fill:rgb(255,255,255);"/>
<path d=" M3176.6 229.24 L3171.97 232.43 L3171.84 232.59 L3176.6 239.11 L3178.07 238.03 L3175.11 234.41 L3175.1 234.3 L3178.61 231.61 L3178.8 231.69 L3181.38 235.49 L3182.82 234.46 L3179.89 230.69 L3184.17 227.61 L3186.82 231.65 L3188.3 230.55 L3183.53 224 L3178.92 227.55 Z" style="fill:rgb(255,255,255);"/>
<path d=" M3161.29 220.78 L3162.58 222.16 L3170.96 222.06 L3175.6 222.03 L3176 222.15 L3169.46 228.14 L3168.74 228.73 L3168.74 228.78 L3169.98 230.11 L3176.23 223.89 L3180.39 219.98 L3179.28 218.79 L3179.26 218.75 L3170.77 219 L3165.57 218.92 L3172.13 212.84 L3173.03 212.09 L3171.69 210.66 L3165.75 216.74 L3161.42 220.67 Z" style="fill:rgb(255,255,255);"/>
<path d=" M3159.85 211.86 L3155.94 216.11 L3155.94 216.19 L3158.46 218.38 L3158.56 218.33 L3164.32 211.48 L3167.96 207.53 L3167.99 207.43 L3165.48 205.24 L3165.39 205.25 L3161.72 209.69 Z" style="fill:rgb(255,255,255);"/>
<path d=" M3147.49 210.07 L3151.7 211.76 L3154.49 211.49 L3157.64 209.33 L3159.47 205.91 L3159.41 202.32 L3157.59 199.01 L3153.61 196.37 L3150.08 195.93 L3147.39 196.98 L3144.65 200.07 L3143.79 203.56 L3144.72 207.07 L3146.79 209.54 Z M3148.14 209.04 L3147.09 207.97 L3146.47 206.14 L3147.34 202.34 L3150.32 198.73 L3152.13 197.92 L3153.83 198 L3155.7 199.08 L3156.7 200.6 L3156.88 203.16 L3154.76 207.49 L3152.6 209.3 L3150.77 209.82 L3148.98 209.51 L3148.56 209.3 Z" style="fill:rgb(255,255,255);"/>
<path d=" M3129.22 193.93 L3132.23 185.77 L3132.54 184.94 L3130.82 184.12 L3130.75 184.18 L3128.41 192.18 L3126.49 198.12 L3127.97 198.85 L3128.1 198.79 L3135.12 193.12 L3136.53 192.03 L3136.74 192.24 L3136.84 201.15 L3136.81 203.05 L3136.86 203.09 L3138.42 203.83 L3143.1 196.41 L3146.33 191.54 L3143.23 190.06 L3138.77 197.59 L3138.22 198.48 L3138.2 198.46 L3138.21 189.55 L3138.22 187.72 L3138.2 187.65 L3137.51 187.32 L3130.66 192.83 L3129.23 193.96 Z" style="fill:rgb(255,255,255);"/>
<path d=" M3120.94 190.08 L3118.93 195.48 L3118.96 195.56 L3122.12 196.64 L3122.2 196.55 L3124.94 188.04 L3126.83 183.01 L3126.82 182.9 L3123.66 181.82 L3123.58 181.87 L3121.88 187.37 Z" style="fill:rgb(255,255,255);"/>
<path d=" M3111.65 185.4 L3111.46 185.36 L3113.2 178.89 L3109.93 178.1 L3109.85 178.13 L3107.87 186.96 L3106.46 192.19 L3113.71 193.73 L3115.26 193.27 L3116.37 192.16 L3116.93 190.06 L3116.63 188.62 L3115.24 187.01 L3114.65 186.64 L3114.77 186.35 L3120.58 180.69 L3116.89 179.8 Z M3109.97 191.8 L3111.28 186.22 L3112.96 186.85 L3113.64 187.63 L3113.91 188.99 L3113.37 191.08 L3112.86 191.74 L3112.22 192.05 L3110.36 191.89 Z" style="fill:rgb(255,255,255);"/>
<path d=" M3098.02 187.48 L3097.72 189.27 L3097.65 189.29 L3093.95 188.54 L3093.94 188.59 L3093.69 190.38 L3102.49 191.46 L3104.37 191.76 L3104.43 191.73 L3104.66 189.95 L3100.9 189.72 L3102.36 180.78 L3104.19 177.03 L3104.17 176.91 L3100.83 176.47 L3098.71 182.26 Z" style="fill:rgb(255,255,255);"/>
<path d=" M3096.05 175.84 L3092.49 175.76 L3092.39 175.79 L3089.38 179.95 L3089.24 180.01 L3084.48 179.9 L3084.67 175.69 L3084.61 175.56 L3082.64 175.51 L3084.9 183.88 L3086.77 190.28 L3088.32 190.3 L3092.14 182.82 L3095.74 176.45 Z M3088.84 181.25 L3086.93 186 L3086.8 186.1 L3085.01 181.15 L3088.8 181.25 Z" style="fill:rgb(255,255,255);"/>
<path d=" M3071.45 185.01 L3071.72 190.71 L3071.77 190.82 L3079.05 189.97 L3080.43 188.96 L3081.13 187.53 L3080.98 185.27 L3080.17 183.72 L3078.42 182.6 L3074.36 182.4 L3075.53 176.1 L3072.16 176.36 L3072.12 176.48 L3071.21 182.15 Z M3075.82 189.3 L3074.96 189.36 L3074.45 183.64 L3074.57 183.45 L3076.19 183.64 L3077.12 184.26 L3077.72 185.51 L3077.75 187.72 L3077.33 188.6 L3076.66 189.1 L3076.04 189.28 Z" style="fill:rgb(255,255,255);"/>
<path d=" M3059.89 187.23 L3060.74 186.82 L3061.28 186.07 L3061.43 185.13 L3061.11 184.21 L3060.43 183.58 L3059.53 183.33 L3058.59 183.54 L3057.88 184.14 L3057.52 184.99 L3057.61 185.95 L3058.13 186.74 L3058.93 187.2 L3059.69 187.26 Z" style="fill:rgb(255,255,255);"/>
<path d=" M3041.49 192.55 L3043.26 197.91 L3043.39 198.07 L3050.98 195.32 L3050.35 193.6 L3046.05 195.43 L3045.93 195.41 L3044.33 191.28 L3044.46 191.12 L3048.83 189.72 L3048.23 188.02 L3043.8 189.8 L3042.02 184.82 L3046.65 183.4 L3046.01 181.67 L3038.39 184.42 L3040.51 189.87 Z" style="fill:rgb(255,255,255);"/>
<path d=" M3038.35 196.72 L3037.49 198.89 L3035.41 200.56 L3033.18 200.98 L3030.81 200.27 L3028.26 197.67 L3027.08 194.49 L3027.32 192.13 L3028.64 190.2 L3031.59 188.78 L3031.97 188.75 L3034.22 193.32 L3034.26 193.31 L3037.13 191.84 L3034.4 186.69 L3027.49 189.28 L3024.68 192.44 L3023.97 195.57 L3025 198.92 L3027.64 201.8 L3030.98 202.87 L3036.47 201.48 L3040.02 198.34 L3040.05 198.18 L3038.58 196.59 Z" style="fill:rgb(255,255,255);"/>
<path d=" M3020.04 193.4 L3017.1 195.42 L3017.04 195.5 L3018.24 199.77 L3018.17 199.9 L3014.23 202.58 L3010.59 199.84 L3008.93 200.95 L3016.47 205.85 L3022.11 209.67 L3023.39 208.8 L3021.36 199.96 L3020.15 194.08 Z M3018.55 201.13 L3019.77 206.1 L3019.72 206.26 L3015.39 203.3 L3018.51 201.15 Z" style="fill:rgb(255,255,255);"/>
<path d=" M3010.03 214.58 L3011.16 216.01 L3011.13 216.07 L3008.07 218.3 L3008.1 218.34 L3009.24 219.74 L3015.99 213.96 L3017.47 212.79 L3017.49 212.73 L3016.33 211.33 L3013.62 213.94 L3007.79 207.08 L3005.45 204.08 L3005.34 204.01 L3002.77 206.21 L3006.62 210.56 Z" style="fill:rgb(255,255,255);"/>
<path d=" M2993 225.84 L2992.88 226 L2992.88 225.99 L2987.84 221.6 L2985.69 224.19 L2985.69 224.27 L2992.74 229.95 L2996.81 233.5 L3001.37 227.67 L3001.66 226.09 L3001.16 224.59 L2999.51 223.17 L2997.79 222.81 L2995.44 223.71 L2995.23 223.48 L2992.7 215.76 L2990.28 218.67 Z M2998 230.21 L2993.58 226.56 L2994.64 225.46 L2995.63 225.07 L2996.68 225.17 L2998.64 226.56 L2999.14 227.31 L2999.25 228.03 L2998.26 229.89 Z" style="fill:rgb(255,255,255);"/>
<path d=" M2986.02 238.92 L2990.62 242.19 L2990.82 242.24 L2995.3 235.54 L2993.79 234.53 L2991.4 238.54 L2991.3 238.59 L2987.57 236.21 L2987.58 236 L2990.27 232.28 L2988.8 231.28 L2986.27 235.33 L2981.89 232.35 L2984.77 228.48 L2983.26 227.46 L2978.72 234.2 L2983.65 237.33 Z" style="fill:rgb(255,255,255);"/>
<path d=" M2980.91 244.38 L2978 250.09 L2971.81 246.77 L2970.26 249.81 L2978.23 253.69 L2983.13 256.36 L2983.22 256.35 L2984.73 253.38 L2984.66 253.29 L2979.66 250.92 L2979.57 250.79 L2982.37 245.25 L2982.51 245.21 L2987.39 247.86 L2987.53 247.88 L2989.04 244.91 L2989.02 244.83 L2980.97 240.92 L2976.12 238.28 L2974.58 241.33 L2979.84 243.83 Z" style="fill:rgb(255,255,255);"/>
<path d=" M2970.85 275.72 L2976.38 277.42 L2976.44 277.36 L2978.48 268.6 L2978.07 266.05 L2976.61 264.02 L2972.3 262.23 L2968.77 262.51 L2965.98 264.23 L2964.25 267.03 L2962.45 273.51 L2962.46 273.58 L2968.1 274.97 Z M2968.46 271.84 L2964.53 270.72 L2965.57 267.47 L2966.88 266.08 L2969.32 265.29 L2973.71 266.07 L2975.79 267.51 L2976.7 269.05 L2976.84 271.33 L2976.05 273.91 L2968.5 271.85 Z" style="fill:rgb(255,255,255);"/>
<path d=" M2969.12 286.66 L2974.72 287.67 L2974.86 287.65 L2975.37 284.3 L2966.51 283.14 L2962.66 282.51 L2962.58 282.36 L2963.54 277.77 L2961.74 277.5 L2961.7 277.52 L2960.51 285.51 L2960.63 285.56 L2966.29 286.24 Z" style="fill:rgb(255,255,255);"/>
<path d=" M2966.41 296.62 L2966.41 296.81 L2959.72 296.38 L2959.58 299.73 L2959.63 299.8 L2968.68 300.02 L2974.08 300.39 L2974.16 292.98 L2973.42 291.55 L2972.12 290.67 L2969.95 290.54 L2968.37 291.29 L2967.03 293.45 L2966.73 293.38 L2960.05 288.78 L2959.89 292.57 Z M2973.02 297.05 L2967.31 296.83 L2967.47 295.32 L2968.02 294.41 L2968.92 293.85 L2971.32 293.76 L2972.18 294.06 L2972.7 294.56 L2973.04 296.64 Z" style="fill:rgb(255,255,255);"/>
<path d=" M2974.91 310.58 L2973.5 306.27 L2971.51 304.3 L2967.83 303.28 L2964.04 304.07 L2961.32 306.41 L2959.95 309.93 L2960.48 314.69 L2962.4 317.67 L2964.93 319.05 L2969.06 319.16 L2972.28 317.59 L2974.38 314.63 L2974.95 311.47 Z M2973.72 310.75 L2973.57 312.24 L2972.56 313.89 L2969.07 315.66 L2964.39 315.69 L2962.61 314.82 L2961.59 313.47 L2961.21 311.34 L2961.75 309.59 L2963.6 307.81 L2968.28 306.67 L2971.04 307.16 L2972.62 308.23 L2973.53 309.8 L2973.65 310.26 Z" style="fill:rgb(255,255,255);"/>
<path d=" M2973.8 330.02 L2966.5 335 L2964.72 336.15 L2965.26 338.16 L2965.3 338.22 L2974.14 338.38 L2980.25 338.63 L2980.36 338.6 L2979.52 335.36 L2979.44 335.28 L2970.5 335.33 L2968.53 335.31 L2968.51 335.27 L2975.89 330.33 L2977.87 329.05 L2977.34 327.05 L2968.48 326.6 L2966.21 326.52 L2966.2 326.47 L2973.67 321.92 L2975.67 320.77 L2975.68 320.71 L2975.23 319 L2968.3 323.58 L2962.45 327.27 L2962.43 327.35 L2962.95 329.38 L2971.93 329.82 L2973.79 329.98 Z" style="fill:rgb(255,255,255);"/>
<path d=" M2978.92 348.6 L2978.33 347.86 L2977.48 347.48 L2976.53 347.53 L2975.71 348.04 L2975.24 348.85 L2975.18 349.77 L2975.58 350.66 L2976.32 351.23 L2977.23 351.4 L2978.16 351.11 L2978.83 350.44 L2979.1 349.55 L2978.99 348.79 Z" style="fill:rgb(255,255,255);"/>
<path d=" M3192.43 352.35 L3192.62 351.42 L3192.37 350.55 L3191.73 349.88 L3190.83 349.58 L3189.94 349.73 L3189.2 350.27 L3188.79 351.13 L3188.83 352.04 L3189.28 352.84 L3190.08 353.35 L3191 353.42 L3191.83 353.07 L3192.34 352.52 Z" style="fill:rgb(255,255,255);"/>
<path d=" M3182.58 368.87 L3187.15 372.06 L3187.27 372.1 L3189.1 369.32 L3181.47 364.49 L3178.51 362.51 L3178.51 362.35 L3181.24 358.66 L3179.77 357.69 L3179.73 357.69 L3175.4 364.3 L3175.48 364.4 L3180.23 367.33 Z" style="fill:rgb(255,255,255);"/>
<path d=" M3174.33 366.01 L3172.11 368.72 L3172.08 368.81 L3174.37 372.5 L3174.34 372.65 L3171.37 376.25 L3167.2 374.67 L3165.95 376.17 L3174.39 378.72 L3180.75 380.75 L3181.72 379.58 L3177.36 371.82 L3174.62 366.62 Z M3175.05 373.7 L3177.56 378.05 L3177.55 378.22 L3172.66 376.6 L3175.02 373.73 Z" style="fill:rgb(255,255,255);"/>
<path d=" M3155.28 397.02 L3158.73 401.52 L3158.8 401.5 L3165.39 395.64 L3166.51 393.36 L3166.5 390.92 L3164.08 387.05 L3161.09 385.28 L3157.89 385.07 L3154.91 386.34 L3149.83 390.49 L3149.8 390.56 L3153.5 394.86 Z M3155.57 392.58 L3153.05 389.45 L3155.72 387.43 L3157.56 387.06 L3159.95 387.81 L3163.04 390.92 L3163.88 393.24 L3163.73 394.99 L3162.55 396.89 L3160.46 398.5 L3155.6 392.6 Z" style="fill:rgb(255,255,255);"/>
<path d=" M3143.8 411.01 L3145.38 410.06 L3147.13 401.26 L3147.88 397.54 L3148.08 397.18 L3152.68 405 L3152.92 405.47 L3152.96 405.48 L3154.5 404.56 L3149.81 397.31 L3146.91 392.53 L3145.5 393.38 L3144.01 401.56 L3142.88 406.53 L3138.27 398.82 L3137.83 398 L3136.2 398.99 L3140.83 405.91 L3143.71 410.86 Z" style="fill:rgb(255,255,255);"/>
<path d=" M3123.84 410.03 L3127.31 418.4 L3130.35 417.11 L3130.39 417.02 L3126.88 409.29 L3126.34 406.5 L3126.6 405.37 L3127.51 404.29 L3129.52 403.35 L3130.87 403.35 L3132.37 404.3 L3136.31 412.26 L3137.09 414.3 L3138.95 413.5 L3138.94 413.42 L3135.44 405.8 L3133.56 403.12 L3131.74 402.08 L3129.05 402.07 L3125.31 403.85 L3123.72 405.79 L3123.32 407.74 L3123.61 409.42 Z" style="fill:rgb(255,255,255);"/>
<path d=" M3108.14 418.69 L3105.18 410.12 L3105.06 409.81 L3103.24 410.26 L3103.23 410.34 L3106.75 418.62 L3108.71 423.56 L3110.28 423.17 L3110.34 423.05 L3112.11 414.38 L3112.5 412.68 L3112.79 412.71 L3118.42 419.38 L3119.59 420.83 L3119.65 420.83 L3121.29 420.44 L3120.19 411.89 L3119.6 406.2 L3116.33 407.01 L3117.67 415.49 L3117.82 416.49 L3117.78 416.51 L3112.21 409.76 L3111.08 408.36 L3111.02 408.32 L3110.3 408.51 L3108.56 416.95 L3108.19 418.68 Z" style="fill:rgb(255,255,255);"/>
<path d=" M3073.91 419.58 L3073.32 425.19 L3073.38 425.26 L3076.64 425.51 L3076.69 425.41 L3077.19 416.67 L3077.74 411.44 L3077.7 411.34 L3074.45 411.08 L3074.39 411.14 L3074.12 416.78 Z" style="fill:rgb(255,255,255);"/>
<path d=" M3056.15 422.69 L3057.97 423 L3065.09 417.54 L3068.12 415.25 L3068.51 415.11 L3066.88 423.65 L3066.67 424.54 L3066.69 424.58 L3068.46 424.9 L3069.71 416.34 L3070.68 410.85 L3069.06 410.54 L3062.54 415.71 L3058.41 418.71 L3060.05 409.86 L3060.26 408.95 L3058.38 408.62 L3057.16 417.62 L3056.18 422.52 Z" style="fill:rgb(255,255,255);"/>
<path d=" M3044.16 419.36 L3048.59 419.83 L3051.14 418.82 L3053.53 415.93 L3054.33 412.22 L3053.31 408.86 L3050.7 406.23 L3046.24 404.81 L3042.8 405.34 L3040.55 407.05 L3038.81 410.72 L3038.93 414.24 L3040.75 417.29 L3043.35 419.05 Z M3044.49 418.23 L3043.22 417.51 L3042.15 415.95 L3041.95 412.12 L3043.78 407.91 L3045.27 406.67 L3046.88 406.29 L3048.94 406.8 L3050.29 407.97 L3051.15 410.34 L3050.31 414.98 L3048.76 417.26 L3047.19 418.25 L3045.42 418.44 L3044.96 418.36 Z" style="fill:rgb(255,255,255);"/>
<path d=" M3023.3 404.3 L3026.6 396.42 L3026.93 395.62 L3025.26 394.76 L3025.19 394.81 L3022.31 403.33 L3020.48 408.32 L3021.91 409.06 L3029.14 403.74 L3030.56 402.72 L3030.75 402.93 L3030.51 411.68 L3030.41 413.54 L3030.45 413.59 L3031.95 414.36 L3036.83 407.26 L3040.17 402.62 L3037.2 401.05 L3032.54 408.27 L3031.98 409.11 L3031.94 409.09 L3032.29 400.37 L3032.39 398.56 L3032.37 398.5 L3031.7 398.15 L3024.78 403.28 L3023.33 404.32 Z" style="fill:rgb(255,255,255);"/>
<path d=" M3015.84 398.33 L3012.52 402.9 L3012.53 402.99 L3015.23 404.82 L3015.32 404.77 L3020.15 397.45 L3023.26 393.21 L3023.27 393.1 L3020.57 391.25 L3020.49 391.27 L3017.44 396.02 Z" style="fill:rgb(255,255,255);"/>
<path d=" M3008.96 390.55 L3008.8 390.44 L3013.1 385.47 L3010.54 383.37 L3010.46 383.38 L3004.95 390.33 L3001.48 394.35 L3007.23 398.79 L3008.78 399.05 L3010.25 398.55 L3011.63 396.92 L3011.97 395.24 L3011.08 392.93 L3011.31 392.73 L3018.85 390.2 L3015.98 387.83 Z M3004.73 395.5 L3008.19 391.2 L3008.26 391.14 L3009.35 392.16 L3009.74 393.12 L3009.65 394.15 L3008.3 396.09 L3007.57 396.59 L3006.86 396.71 L3005.04 395.75 Z" style="fill:rgb(255,255,255);"/>
<path d=" M3001.7 374.66 L2999.51 371.94 L2999.42 371.88 L2995.33 373.35 L2995.2 373.29 L2992.3 369.64 L2994.72 365.88 L2993.51 364.36 L2989.26 372.07 L2985.92 377.87 L2986.88 379.06 L2995.37 376.42 L3001.05 374.82 Z M2994.03 373.77 L2989.26 375.32 L2989.1 375.28 L2991.68 370.82 L2994.01 373.73 Z" style="fill:rgb(255,255,255);"/>
<path d=" M2981.65 361.45 L2976.85 364.34 L2976.78 364.43 L2980.88 370.31 L2982.2 371 L2983.78 371.01 L2985.83 369.81 L2986.8 368.39 L2986.96 366.36 L2985.25 362.76 L2990.56 359.56 L2988.75 356.76 L2988.64 356.78 L2984.01 359.94 Z M2979.96 367.21 L2979.52 366.5 L2984.21 363.42 L2984.43 363.43 L2985.02 364.91 L2984.91 366 L2984.11 367.09 L2982.22 368.14 L2981.26 368.18 L2980.52 367.84 L2980.08 367.39 Z" style="fill:rgb(255,255,255);"/>
<path d=" M3001.27 219.54 L3005.23 223.74 L3005.32 223.74 L3007.68 221.38 L3007.64 221.28 L3001.19 215.08 L2997.51 211.17 L2997.41 211.14 L2995.06 213.5 L2995.06 213.59 L2999.27 217.54 Z" style="fill:rgb(255,255,255);"/>
<path d=" M3168.14 385.89 L3172.05 389.97 L3172.14 389.98 L3174.42 387.66 L3174.38 387.56 L3168.05 381.48 L3164.44 377.68 L3164.34 377.64 L3162.04 379.96 L3162.04 380.04 L3166.16 383.9 Z" style="fill:rgb(255,255,255);"/>
<path d=" M2996.41 384.67 L2995.09 385.89 L2995.02 385.85 L2992.62 383.02 L2992.59 383.05 L2991.32 384.28 L2997.61 390.64 L2998.69 391.82 L2998.76 391.83 L3000.02 390.6 L2997.28 388.15 L3003.56 381.96 L3006.34 379.47 L3006.4 379.36 L3004.09 376.99 L3000.1 381.07 Z" style="fill:rgb(255,255,255);"/>
<path d=" M3305.11 233.78 L3310.69 233.78 L3310.69 300.74 L3317.66 233.78 L3323.52 233.78 L3323.52 350.41 L3317.66 350.41 L3317.66 294.6 L3313.76 350.41 L3305.11 350.41 Z" style="fill:rgb(255,255,255);"/>
<path d=" M3349.47 233.78 L3367.33 233.78 L3367.33 239.91 L3357.28 239.91 L3357.28 292.65 L3364.81 292.65 L3364.81 299.06 L3357.28 299.06 L3357.28 344.55 L3364.81 344.55 L3364.81 350.41 L3349.47 350.41 Z" style="fill:rgb(255,255,255);"/>
<path d=" M3401.09 242.15 L3400.84 241 L3400.38 240.37 L3399.75 240.08 L3398.71 240.17 L3398.11 240.54 L3397.63 241.29 L3397.46 250.94 L3397.46 271.43 L3397.46 271.45 L3390.21 271.45 L3390.21 261.85 L3390.21 242.17 L3391.22 237.96 L3393.65 235.22 L3398.97 233.78 L3403.79 234.72 L3406.38 236.75 L3408.26 241.19 L3408.34 250.43 L3408.34 262.79 L3408.34 262.71 L3407.97 272.28 L3406.23 281.21 L3404.34 288.42 L3402.25 295.65 L3399.65 304.65 L3397.63 313.6 L3397.46 323.25 L3397.46 342.03 L3397.62 343.47 L3397.96 344.07 L3398.39 344.39 L3399.25 344.55 L3400.06 344.31 L3400.68 343.64 L3401.09 334.59 L3401.09 315.81 L3408.34 315.81 L3408.34 342.03 L3407.41 346.18 L3405.36 348.75 L3401.49 350.3 L3395.78 349.78 L3392.76 347.95 L3390.61 344.35 L3390.21 334.85 L3390.21 319.72 L3391.29 310.16 L3392.9 303.1 L3394.89 295.8 L3396.98 288.55 L3399.44 279.5 L3401.06 270.17 L3401.09 266.42 Z" style="fill:rgb(255,255,255);"/>
<path d=" M3452.15 315.81 L3452.15 342.04 L3450.6 346.7 L3447.79 349.3 L3442.01 350.37 L3437.91 349.18 L3435.2 346.34 L3434.01 342.04 L3434.01 332.95 L3434.01 242.15 L3435.1 237.82 L3437.6 235.13 L3443.21 233.78 L3447.93 234.9 L3450.73 237.51 L3452.14 242.04 L3452.15 251.3 L3452.15 271.44 L3452.15 271.45 L3445.17 271.45 L3445.17 262.02 L3445.17 242.15 L3444.85 240.96 L3444.21 240.25 L3443 239.91 L3441.9 240.14 L3440.93 240.99 L3440.43 242.15 L3440.43 342.03 L3440.82 343.44 L3441.46 344.14 L3442.58 344.53 L3443.68 344.44 L3444.41 344.01 L3445.08 342.74 L3445.17 333.38 L3445.17 315.81 Z" style="fill:rgb(255,255,255);"/>
<path d=" M3261.3 242.15 L3262.56 237.84 L3265.12 235.2 L3271.33 233.79 L3275.88 234.91 L3278.39 237.23 L3279.72 241.61 L3279.72 350.4 L3279.72 350.41 L3272.74 350.41 L3272.74 340.77 L3272.74 241.88 L3272.46 240.94 L3271.76 240.26 L3270.01 239.92 L3269.04 240.19 L3268.53 240.67 L3268.23 241.82 L3268.28 251.31 L3268.28 350.41 L3261.3 350.41 Z" style="fill:rgb(255,255,255);"/>
<path d=" M3496.51 294.19 L3496.51 342.04 L3495.54 346.27 L3493.07 348.97 L3487.02 350.4 L3482.02 349.29 L3479.07 346.71 L3477.55 342.34 L3477.54 342.04 L3477.54 242.15 L3478.87 237.65 L3481.55 235.02 L3487.63 233.81 L3492.39 235.09 L3495.26 237.91 L3496.51 242.08 L3496.51 242.15 L3496.51 278.89 Z M3489.82 242.15 L3489.65 241.13 L3489.15 240.45 L3487.95 239.96 L3486.1 240.09 L3485.17 240.64 L3484.6 241.63 L3484.51 242.15 L3484.51 342.04 L3484.86 343.35 L3485.57 344.16 L3486.91 344.55 L3488.36 344.3 L3489.23 343.64 L3489.8 342.29 L3489.82 342.04 L3489.82 242.15 Z" style="fill:rgb(255,255,255);"/>
<path d=" M3245.68 375.24 L3377.93 415.7 L3511.86 375.24 L3511.86 387.24 L3378.77 428.25 L3245.68 387.24 Z" style="fill:rgb(255,255,255);"/>
<path d=" M3245.68 366.31 L3245.68 355.15 L3511.86 355.15 L3511.86 366.31 L3245.68 366.31 Z" style="fill:rgb(255,255,255);"/>
<path d=" M3216.66 189.41 L3216.66 178.25 L3540.87 178.25 L3540.87 189.41 L3216.66 189.41 Z" style="fill:rgb(255,255,255);"/>
<path d=" M3230.61 208.38 L3230.61 197.23 L3526.37 197.23 L3526.37 208.38 L3230.61 208.38 Z" style="fill:rgb(255,255,255);"/>
<path d=" M3245.68 227.36 L3245.68 216.2 L3511.86 216.2 L3511.86 227.36 L3245.68 227.36 Z" style="fill:rgb(255,255,255);"/>
<path d=" M3299.53 375.24 L3378.77 398.96 L3456.33 375.24 L3488.7 375.24 L3378.77 409.28 L3267.16 375.24 Z" style="fill:rgb(255,255,255);"/>
<path d=" M440.514791271815 1808.72835761099 A34.76 34.76 0 0 1 403.174567995197 1780.29433677647 L403.17 1780.3 L403.171133136611 1763.49576588286 A100.49 100.49 0 0 1 330.002404732189 1675.98223545788 L330 1675.98 L330.003895723306 1255.38231226827 A180.78 180.78 0 0 1 490.090057234227 1100.00544957788 L490.09 1100 L1136.72131627794 1099.9930122228 A179.96 179.96 0 0 1 1299.31031769177 1256.22006737644 L1299.3 1256.23 L1299.30184599537 1613.59259824808 A178.15 178.15 0 0 1 1107.46298270094 1770.23437887485 L1107.47 1770.23 L1082.88 1770.23 L1034.75524556067 1855.63039619744 A42.18 42.18 0 0 1 999.673152593746 1881.25000067189 L999.68 1881.25 L706.886141354041 1881.24931192182 A51.54 51.54 0 0 1 670.003558829809 1860.57303266105 L670 1860.57 L618.64 1770.98 L554.782687109492 1770.98641751286 A37.12 37.12 0 0 1 523.749548550608 1808.74041753437 L523.74 1808.74 L434.24 1808.74 Z" style="fill:rgb(0,0,0);"/>
<path d=" M1113.44 1472.38 A262.78 262.78 0 0 1 587.88 1472.38 A262.78 262.78 0 0 1 1113.44 1472.38 Z" style="fill:rgb(255,255,255);"/>
<path d=" M530.74 1696.52 A54.55 54.55 0 0 1 421.64 1696.52 A54.55 54.55 0 0 1 530.74 1696.52 Z" style="fill:rgb(255,255,255);"/>
<path d=" M1032.92 1472.84 A180.46 180.46 0 0 1 672 1472.84 A180.46 180.46 0 0 1 1032.92 1472.84 Z" style="fill:rgb(0,0,0);"/>
<path d=" M2410.51479127182 1808.72835761099 A34.76 34.76 0 0 1 2373.1745679952 1780.29433677647 L2373.17 1780.3 L2373.17113313661 1763.49576588286 A100.49 100.49 0 0 1 2300.00240473219 1675.98223545788 L2300 1675.98 L2300.00389572331 1255.38231226827 A180.78 180.78 0 0 1 2460.09005723423 1100.00544957788 L2460.09 1100 L3106.72131627794 1099.9930122228 A179.96 179.96 0 0 1 3269.31031769177 1256.22006737644 L3269.3 1256.23 L3269.30184599537 1613.59259824808 A178.15 178.15 0 0 1 3077.46298270094 1770.23437887485 L3077.47 1770.23 L3052.88 1770.23 L3004.75524556067 1855.63039619744 A42.18 42.18 0 0 1 2969.67315259375 1881.25000067189 L2969.68 1881.25 L2676.88614135404 1881.24931192182 A51.54 51.54 0 0 1 2640.00355882981 1860.57303266105 L2640 1860.57 L2588.64 1770.98 L2524.78268710949 1770.98641751286 A37.12 37.12 0 0 1 2493.74954855061 1808.74041753437 L2493.74 1808.74 L2404.24 1808.74 Z" style="fill:rgb(0,0,0);"/>
<path d=" M3083.44 1472.38 A262.78 262.78 0 0 1 2557.88 1472.38 A262.78 262.78 0 0 1 3083.44 1472.38 Z" style="fill:rgb(255,255,255);"/>
<path d=" M2500.74 1696.52 A54.55 54.55 0 0 1 2391.64 1696.52 A54.55 54.55 0 0 1 2500.74 1696.52 Z" style="fill:rgb(255,255,255);"/>
<path d=" M3002.92 1472.84 A180.46 180.46 0 0 1 2642 1472.84 A180.46 180.46 0 0 1 3002.92 1472.84 Z" style="fill:rgb(0,0,0);"/>
</g>
</svg>