<?xml version="1.0" encoding="UTF-8" standalone="no"?>
<svg
   xmlns:dc="http://purl.org/dc/elements/1.1/"
   xmlns:cc="http://creativecommons.org/ns#"
   xmlns:rdf="http://www.w3.org/1999/02/22-rdf-syntax-ns#"
   xmlns:svg="http://www.w3.org/2000/svg"
   xmlns="http://www.w3.org/2000/svg"
   xmlns:sodipodi="http://sodipodi.sourceforge.net/DTD/sodipodi-0.dtd"
   xmlns:inkscape="http://www.inkscape.org/namespaces/inkscape"
   width="600"
   height="900"
   version="1.1"
   id="svg24"
   sodipodi:docname="TRS F25R 600x900.svg"
   inkscape:version="0.92.4 (5da689c313, 2019-01-14)">
  <metadata
     id="metadata30">
    <rdf:RDF>
      <cc:Work
         rdf:about="">
        <dc:format>image/svg+xml</dc:format>
        <dc:type
           rdf:resource="http://purl.org/dc/dcmitype/StillImage" />
      </cc:Work>
    </rdf:RDF>
  </metadata>
  <defs
     id="defs28" />
  <sodipodi:namedview
     pagecolor="#ffffff"
     bordercolor="#666666"
     borderopacity="1"
     objecttolerance="10"
     gridtolerance="10"
     guidetolerance="10"
     inkscape:pageopacity="0"
     inkscape:pageshadow="2"
     inkscape:window-width="1920"
     inkscape:window-height="1017"
     id="namedview26"
     showgrid="false"
     inkscape:zoom="0.26222222"
     inkscape:cx="300"
     inkscape:cy="450"
     inkscape:window-x="-8"
     inkscape:window-y="-8"
     inkscape:window-maximized="1"
     inkscape:current-layer="g22" />
  <!--Gegenereerd door de SIMaD-toepassing (http://www.dlw.be).-->
  <g
     style="stroke:none;fill-rule:evenodd;"
     transform="matrix(1,0,0,-1,0,900)"
     id="g22">
    <path
       d=" M65 0 L535 0 A65 65 0 0 1 600 65 L600 835 A65 65 0 0 1 535 900 L65 900 A65 65 0 0 1 0 835 L0 65 A65 65 0 0 1 65 0 Z"
       style="fill:rgb(255,255,0);"
       id="path2" />
    <path
       d=" M65 15 L535 15 A50 50 0 0 1 585 65 L585 835 A50 50 0 0 1 535 885 L65 885 A50 50 0 0 1 15 835 L15 65 A50 50 0 0 1 65 15 Z"
       style="fill:rgb(0,0,0);"
       id="path4" />
    <path
       d=" M65 30 L535 30 A35 35 0 0 1 570 65 L570 835 A35 35 0 0 1 535 870 L65 870 A35 35 0 0 1 30 835 L30 65 A35 35 0 0 1 65 30 Z"
       style="fill:rgb(255,255,0);"
       id="path6" />
  </g>
</svg>
