<?xml version="1.0" encoding="UTF-8"?><!DOCTYPE svg PUBLIC '-//W3C//DTD SVG 1.0//EN' 'http://www.w3.org/TR/2001/REC-SVG-20010904/DTD/svg10.dtd'><svg xmlns:xlink="http://www.w3.org/1999/xlink" xmlns="http://www.w3.org/2000/svg"><!--Gegenereerd door de SIMaD (http://www.dlw.be).-->
<g style="stroke:none;fill-rule:evenodd;" transform="matrix(1,0,0,-1,0,1500)">
<path d=" M50 30 L149.998657970611 1029.99906109579 A106.43 106.43 0 0 0 350.001342029389 1029.99906109579 L350 1030 L450 30 Z" style="fill:rgb(0,0,0);" />
<path d=" M0 30 L0 0 L500 0 L500 30 Z" style="fill:rgb(0,0,0);" />
<path d=" M450 1300 A200 200 0 0 1 50 1300 A200 200 0 0 1 450 1300 Z" style="fill:rgb(255,0,0);" />
<path d=" M60.05 30 L159.821038283403 1027.72405925679 A96.43 96.43 0 0 0 340.178961716597 1027.72405925679 L340.18 1027.72 L439.95 30 Z" style="fill:rgb(255,255,0);" />
<path d=" M70.28 1265.5 L429.718528411185 1265.49999209104 A183 183 0 0 1 429.718528411185 1334.50000790896 L429.72 1334.5 L70.2814715888151 1334.50000790896 A183 183 0 0 1 70.2814715888151 1265.49999209104 Z" style="fill:rgb(255,255,255);" />
</g>
</svg>
