<?xml version="1.0" encoding="UTF-8"?><!DOCTYPE svg PUBLIC '-//W3C//DTD SVG 1.0//EN' 'http://www.w3.org/TR/2001/REC-SVG-20010904/DTD/svg10.dtd'><svg xmlns:xlink="http://www.w3.org/1999/xlink" xmlns="http://www.w3.org/2000/svg"><!--Gegenereerd door de SIMaD (http://www.dlw.be).-->
<g style="stroke:none;fill-rule:evenodd;" transform="matrix(1,0,0,-1,0,1500)">
<path d=" M450 1300 A200 200 0 0 1 50 1300 A200 200 0 0 1 450 1300 Z" style="fill:rgb(0,0,255);" />
<path d=" M50 30 L149.998657970611 1029.99906109579 A106.43 106.43 0 0 0 350.001342029389 1029.99906109579 L350 1030 L450 30 Z" style="fill:rgb(0,0,0);" />
<path d=" M0 30 L0 0 L500 0 L500 30 Z" style="fill:rgb(0,0,0);" />
<path d=" M440 1300 A190 190 0 0 1 60 1300 A190 190 0 0 1 440 1300 Z" style="fill:rgb(255,255,255);" />
<path d=" M60.05 30 L159.821038283403 1027.72405925679 A96.43 96.43 0 0 0 340.178961716597 1027.72405925679 L340.18 1027.72 L439.95 30 Z" style="fill:rgb(255,255,0);" />
<path d=" M430 1300 A180 180 0 0 1 70 1300 A180 180 0 0 1 430 1300 Z" style="fill:rgb(0,0,255);" />
<path d=" M136.86 1186.86 L136.86 1398.99 L216.41 1319.45 L336.62 1439.65 L389.65 1386.62 L269.45 1266.41 L348.99 1186.86 Z" style="fill:rgb(255,255,255);" />
</g>
</svg>
