<?xml version="1.0" encoding="UTF-8"?><!DOCTYPE svg PUBLIC '-//W3C//DTD SVG 1.0//EN' 'http://www.w3.org/TR/2001/REC-SVG-20010904/DTD/svg10.dtd'><svg xmlns:xlink="http://www.w3.org/1999/xlink" xmlns="http://www.w3.org/2000/svg"><!--Gegenereerd door de SIMaD (http://www.dlw.be).-->
<g style="stroke:none;fill-rule:evenodd;" transform="matrix(1,0,0,-1,0,1500)">
<path d=" M100 30 L199.998657970611 1029.99906109579 A106.43 106.43 0 0 0 400.001342029389 1029.99906109579 L400 1030 L500 30 Z" style="fill:rgb(0,0,0);" />
<path d=" M50 30 L50 0 L550 0 L550 30 Z" style="fill:rgb(0,0,0);" />
<path d=" M554.999996858407 1100 A45 45 0 0 1 600 1145.00000314159 L599.999999999999 1454.99999136062 A45 45 0 0 1 555.000003141593 1500 L45.0000031415927 1500 A45 45 0 0 1 1.06581410364015E-13 1454.99999685841 L1.06581410364015E-13 1145.00000314159 A45 45 0 0 1 45.0000031415927 1100 Z" style="fill:rgb(0,0,255);" />
<path d=" M110.05 30 L209.821038283403 1027.72405925679 A96.43 96.43 0 0 0 390.178961716597 1027.72405925679 L390.18 1027.72 L489.95 30 Z" style="fill:rgb(255,255,0);" />
<path d=" M554.999997905605 1115 A30 30 0 0 1 585 1145.0000020944 L584.999999999999 1454.99999424041 A30 30 0 0 1 555.000002094395 1485 L45.0000020943951 1485 A30 30 0 0 1 15.0000000000001 1454.9999979056 L15.0000000000001 1145.0000020944 A30 30 0 0 1 45.0000020943951 1115 Z" style="fill:rgb(255,255,255);" />
<path d=" M45 1130 L554.999998952802 1130 A15 15 0 0 1 570 1145.0000010472 L570 1454.99999712021 A15 15 0 0 1 555.000001047198 1470 L45.0000010471975 1470 A15 15 0 0 1 30 1454.9999989528 L30 1145.0000010472 A15 15 0 0 1 45.0000010471975 1130 Z" style="fill:rgb(0,0,255);" />
<path d=" M210 1390 L210 1330 L390 1330 L390 1390 L540 1300 L390 1210 L390 1270 L210 1270 L210 1210 L60 1300 Z" style="fill:rgb(255,255,255);" />
</g>
</svg>
