<?xml version="1.0" encoding="UTF-8"?><!DOCTYPE svg PUBLIC '-//W3C//DTD SVG 1.0//EN' 'http://www.w3.org/TR/2001/REC-SVG-20010904/DTD/svg10.dtd'><svg xmlns:xlink="http://www.w3.org/1999/xlink" xmlns="http://www.w3.org/2000/svg"><!--Gegenereerd door de SIMaD (http://www.dlw.be).-->
<g style="stroke:none;fill-rule:evenodd;" transform="matrix(1,0,0,-1,0,200)">
<path d=" M0 0 L900 0 L900 200 L0 200 Z" style="fill:rgb(0,0,0);" />
<path d=" M175 100 A75 75 0 0 1 25 100 A75 75 0 0 1 175 100 Z" style="fill:rgb(0,0,0);" />
<path d=" M100 92.93 L57.7097780024541 50.6387082482814 A65 65 0 0 1 142.290221997546 50.6387082482814 L142.29 50.64 Z" style="fill:rgb(255,255,0);" />
<path d=" M149.36 57.71 L107.07 100 L149.361291751719 142.290221997546 A65 65 0 0 0 149.361291751719 57.709778002454 Z" style="fill:rgb(255,255,0);" />
<path d=" M142.290221997546 149.361291751719 A65 65 0 0 1 57.7097780024541 149.361291751719 L57.71 149.36 L100 107.07 Z" style="fill:rgb(255,255,0);" />
<path d=" M50.6387082482814 142.290221997546 A65 65 0 0 1 50.6387082482814 57.709778002454 L50.64 57.71 L92.93 100 Z" style="fill:rgb(255,255,0);" />
<path d=" M875 100 A75 75 0 0 1 725 100 A75 75 0 0 1 875 100 Z" style="fill:rgb(0,0,0);" />
<path d=" M800 92.93 L757.709778002454 50.6387082482814 A65 65 0 0 1 842.290221997546 50.6387082482814 L842.29 50.64 Z" style="fill:rgb(255,255,0);" />
<path d=" M849.36 57.71 L807.07 100 L849.361291751719 142.290221997546 A65 65 0 0 0 849.361291751719 57.709778002454 Z" style="fill:rgb(255,255,0);" />
<path d=" M842.290221997546 149.361291751719 A65 65 0 0 1 757.709778002454 149.361291751719 L757.71 149.36 L800 107.07 Z" style="fill:rgb(255,255,0);" />
<path d=" M750.638708248281 142.290221997546 A65 65 0 0 1 750.638708248281 57.709778002454 L750.64 57.71 L792.93 100 Z" style="fill:rgb(255,255,0);" />
</g>
</svg>
