<?xml version="1.0" encoding="UTF-8"?><!DOCTYPE svg PUBLIC '-//W3C//DTD SVG 1.0//EN' 'http://www.w3.org/TR/2001/REC-SVG-20010904/DTD/svg10.dtd'><svg xmlns:xlink="http://www.w3.org/1999/xlink" xmlns="http://www.w3.org/2000/svg"><!--Gegenereerd door de SIMaD (http://www.dlw.be).-->
<g style="stroke:none;fill-rule:evenodd;" transform="matrix(1,0,0,-1,0,825)">
<path d=" M2.48689957516035E-14 710.000000698132 A10 10 0 0 1 10.0000006981317 700 L189.999999301868 700 A10 10 0 0 1 200 710.000000698132 L200 800 L175 825 L25 825 L0 800 Z" style="fill:rgb(0,0,0);" />
<path d=" M190 600 L10.0000006981317 600 A10 10 0 0 1 2.48689957516035E-14 589.999999301868 L2.48689957516035E-14 510.000000698132 A10 10 0 0 1 10.0000006981317 500 L189.999999301868 500 A10 10 0 0 1 200 510.000000698132 L200 589.999998080138 A10 10 0 0 1 190.000000698132 600 Z" style="fill:rgb(0,0,0);" />
<path d=" M15 600 L185 600 L185 700 L15 700 Z" style="fill:rgb(0,0,0);" />
<path d=" M15 400 L185 400 L185 500 L15 500 Z" style="fill:rgb(0,0,0);" />
<path d=" M0 390 L0 0 L200 0 L200 389.999998080138 A10 10 0 0 1 190.000000698132 400 L10.0000006981317 400 A10 10 0 0 1 2.48689957516035E-14 389.999999301868 Z" style="fill:rgb(0,0,0);" />
<path d=" M5.00000000000001 710.000000349066 A5 5 0 0 1 10.0000003490659 705 L189.999999650934 705 A5 5 0 0 1 195 710.000000349066 L195 797.93 L172.93 820 L27.07 820 L5 797.93 Z" style="fill:rgb(255,255,0);" />
<path d=" M190 595 L10.0000003490659 595 A5 5 0 0 1 5.00000000000001 589.999999650934 L5.00000000000001 510.000000349066 A5 5 0 0 1 10.0000003490659 505 L189.999999650934 505 A5 5 0 0 1 195 510.000000349066 L195 589.999999040069 A5 5 0 0 1 190.000000349066 595 Z" style="fill:rgb(255,255,0);" />
<path d=" M5 390 L5 5 L195 5 L195 389.999999040069 A5 5 0 0 1 190.000000349066 395 L10.0000003490659 395 A5 5 0 0 1 5.00000000000001 389.999999650934 Z" style="fill:rgb(255,255,0);" />
<path d=" M20 405 L180 405 L180 495 L20 495 Z" style="fill:rgb(255,255,255);" />
<path d=" M20 605 L180 605 L180 695 L20 695 Z" style="fill:rgb(255,255,255);" />
</g>
</svg>
