<?xml version="1.0" encoding="UTF-8"?><!DOCTYPE svg PUBLIC '-//W3C//DTD SVG 1.0//EN' 'http://www.w3.org/TR/2001/REC-SVG-20010904/DTD/svg10.dtd'><svg xmlns:xlink="http://www.w3.org/1999/xlink" xmlns="http://www.w3.org/2000/svg"><!--Gegenereerd door de SIMaD (http://www.dlw.be).-->
<g style="stroke:none;fill-rule:evenodd;" transform="matrix(1,0,0,-1,0,816.206222327504)">
<path d=" M37.4034733464265 812.916078617394 A25 25 0 0 1 0 791.21 L0 0 L130 0 L130 757.100000349066 A5 5 0 0 1 127.480694972359 761.441215550294 L127.48 761.44 Z" style="fill:rgb(0,0,0);" />
<path d=" M35.4189176109983 809.443106038611 A21 21 0 0 1 4 791.21 L4 4 L126 4 L126 757.100000069813 A1 1 0 0 1 125.496138994472 757.968243110059 L125.5 757.97 Z" style="fill:rgb(255,255,255);" />
<path d=" M20 757.1 L20 637.1 L100 637.1 L100 757.1 Z" style="fill:rgb(0,0,0);" />
<path d=" M22 755.1 L22 639.1 L98 639.1 L98 755.1 Z" style="fill:rgb(255,0,0);" />
</g>
</svg>
