<?xml version="1.0" encoding="UTF-8"?>
<!DOCTYPE svg PUBLIC '-//W3C//DTD SVG 1.0//EN' 'http://www.w3.org/TR/2001/REC-SVG-20010904/DTD/svg10.dtd'>
<svg xmlns:xlink="http://www.w3.org/1999/xlink" xmlns="http://www.w3.org/2000/svg" width="600" height="900">
<!--Gegenereerd door de SIMaD-toepassing (http://www.dlw.be).-->
<g style="stroke:none;fill-rule:evenodd;" transform="matrix(1,0,0,-1,0,900)">
<path d=" M65 0 L535 0 A65 65 0 0 1 600 65 L600 835 A65 65 0 0 1 535 900 L65 900 A65 65 0 0 1 0 835 L0 65 A65 65 0 0 1 65 0 Z" style="fill:rgb(0,0,0);" />
<path d=" M133.4 710 L201.97 710 L201.97 726.67 L154.31 726.67 L199.97 793.33 L199.97 810 L135.4 810 L135.4 793.33 L179.07 793.33 L133.4 726.67 Z" style="fill:rgb(255,255,255);" />
<path d=" M220.97 777.71 L220.97 742.29000538626 A34.29 34.29 0 0 1 289.55 742.289994613739 L289.54 742.29 L289.55 777.71 A34.29 34.29 0 0 1 220.97 777.71 Z M239.3 779.38 L239.31 740.6200027838 A15.95 15.95 0 0 1 271.21 740.6199972162 L271.21 779.38 A15.95 15.95 0 0 1 239.31 779.38 Z" style="fill:rgb(255,255,255);" />
<path d=" M311.54 710 L328.21 710 L328.21 776.42 L358.68 710 L380.11 710 L380.11 810 L363.44 810 L363.44 743.58 L332.97 810 L311.54 810 Z" style="fill:rgb(255,255,255);" />
<path d=" M405.11 710 L466.54 710 L466.54 726.67 L423.44 726.67 L423.44 753.33 L452.25 753.33 L452.25 770 L423.44 770 L423.44 793.33 L466.54 793.33 L466.54 810 L405.11 810 Z" style="fill:rgb(255,255,255);" />
<path d=" M300 200 A225 225 0 0 1 525 425 A225 225 0 0 1 300 650 A225 225 0 0 1 75 425 A225 225 0 0 1 300 200 Z" style="fill:rgb(255,255,255);" />
<path d=" M300 205 A220 220 0 0 1 520 425 A220 220 0 0 1 300 645 A220 220 0 0 1 80 425 A220 220 0 0 1 300 205 Z" style="fill:rgb(0,0,0);" />
<path d=" M300 225 A200 200 0 0 1 500 425 A200 200 0 0 1 300 625 A200 200 0 0 1 100 425 A200 200 0 0 1 300 225 Z" style="fill:rgb(178,178,178);" />
<path d=" M300 230 A195 195 0 0 1 495 425 A195 195 0 0 1 300 620 A195 195 0 0 1 105 425 A195 195 0 0 1 300 230 Z" style="fill:rgb(0,0,0);" />
<path d=" M184.19 476.79 L210.503926331104 476.786414023685 A23.93 23.93 0 0 0 255.26 464.999999582343 L255.259999999998 457.50000918846 A23.93 23.93 0 0 0 208.279763222507 451.071043280476 L208.28 451.07 L180.917339993223 451.071168483509 A51.43 51.43 0 1 1 211.686628029726 508.780861949237 L211.69 508.78 L211.69 537.5 L272.04 537.5 L272.04 562.5 L184.19 562.5 Z" style="fill:rgb(255,255,255);" />
<path d=" M316.24 514.07 L316.240000000001 460.930008078606 A51.43 51.43 0 0 1 419.099999999999 460.929991921394 L419.1 514.07 A51.43 51.43 0 0 1 316.24 514.07 Z M343.74 516.57 L343.74 458.430003758916 A23.93 23.93 0 0 1 391.6 458.429996241084 L391.6 516.57 A23.93 23.93 0 0 1 343.74 516.57 Z" style="fill:rgb(255,255,255);" />
<path d=" M213.19 287.5 L229.86 287.5 L229.86 313.26 L251.44 287.5 L273.19 287.5 L241.76 325 L273.19 358.93 L250.47 358.93 L229.86 336.67 L229.86 387.5 L213.19 387.5 Z" style="fill:rgb(255,255,255);" />
<path d=" M288.19 287.5 L304.86 287.5 L304.86 334.739997923058 A11.9 11.9 0 0 0 328.66 334.740002076942 L328.67 334.74 L328.67 287.5 L345.33 287.5 L345.34 334.739997715364 A11.9 11.9 0 0 0 369.14 334.740002284636 L369.14 287.5 L385.81 287.5 L385.81 337.410001642006 A23.52 23.52 0 0 1 342.051641127192 349.393289620777 L342.048366402127 349.393276904639 A23.52 23.52 0 0 1 304.853273919862 353.709074840099 L304.86 353.71 L304.86 358.93 L288.19 358.93 Z" style="fill:rgb(255,255,255);" />
<path d=" M1.41697253345323 38.1809711826748 A50 50 0 0 1 27.5769337019813 5.309888142961 L27.58 5.31 L598.583027466547 861.819028817325 A50 50 0 0 1 572.423066298019 894.690111857039 L572.42 894.69 Z" style="fill:rgb(255,255,255);" />
</g>
</svg>
