<?xml version="1.0" encoding="UTF-8"?>
<!DOCTYPE svg PUBLIC '-//W3C//DTD SVG 1.0//EN' 'http://www.w3.org/TR/2001/REC-SVG-20010904/DTD/svg10.dtd'>
<svg xmlns:xlink="http://www.w3.org/1999/xlink" xmlns="http://www.w3.org/2000/svg" width="600" height="900">
<!--Gegenereerd door de SIMaD-toepassing (http://www.dlw.be).-->
<g style="stroke:none;fill-rule:evenodd;" transform="matrix(1,0,0,-1,0,900)">
<path d=" M65 0 L535 0 A65 65 0 0 1 600 65 L600 835 A65 65 0 0 1 535 900 L65 900 A65 65 0 0 1 0 835 L0 65 A65 65 0 0 1 65 0 Z" style="fill:rgb(0,0,0);" />
<path d=" M65 15 L535 15 A50 50 0 0 1 585 65 L585 835 A50 50 0 0 1 535 885 L65 885 A50 50 0 0 1 15 835 L15 65 A50 50 0 0 1 65 15 Z" style="fill:rgb(255,255,255);" />
<path d=" M65 30 L535 30 A35 35 0 0 1 570 65 L570 835 A35 35 0 0 1 535 870 L65 870 A35 35 0 0 1 30 835 L30 65 A35 35 0 0 1 65 30 Z" style="fill:rgb(0,0,0);" />
<path d=" M133.43 710 L202 710 L202 726.67 L154.34 726.67 L200 793.33 L200 810 L135.43 810 L135.43 793.33 L179.1 793.33 L133.43 726.67 Z" style="fill:rgb(255,255,255);" />
<path d=" M221 777.71 L221 742.29000538626 A34.29 34.29 0 0 1 289.58 742.289994613739 L289.57 742.29 L289.58 777.71 A34.29 34.29 0 0 1 221 777.71 Z M239.33 779.38 L239.34 740.6200027838 A15.95 15.95 0 0 1 271.24 740.6199972162 L271.24 779.38 A15.95 15.95 0 0 1 239.34 779.38 Z" style="fill:rgb(255,255,255);" />
<path d=" M311.57 710 L328.24 710 L328.24 776.42 L358.71 710 L380.14 710 L380.14 810 L363.47 810 L363.47 743.58 L333 810 L311.57 810 Z" style="fill:rgb(255,255,255);" />
<path d=" M405.14 710 L466.57 710 L466.57 726.67 L423.47 726.67 L423.47 753.33 L452.28 753.33 L452.28 770 L423.47 770 L423.47 793.33 L466.57 793.33 L466.57 810 L405.14 810 Z" style="fill:rgb(255,255,255);" />
<path d=" M300 200 A225 225 0 0 1 525 425 A225 225 0 0 1 300 650 A225 225 0 0 1 75 425 A225 225 0 0 1 300 200 Z" style="fill:rgb(255,0,0);" />
<path d=" M300 205 A220 220 0 0 1 520 425 A220 220 0 0 1 300 645 A220 220 0 0 1 80 425 A220 220 0 0 1 300 205 Z" style="fill:rgb(0,0,0);" />
<path d=" M300 225 A200 200 0 0 1 500 425 A200 200 0 0 1 300 625 A200 200 0 0 1 100 425 A200 200 0 0 1 300 225 Z" style="fill:rgb(255,0,0);" />
<path d=" M300 230 A195 195 0 0 1 495 425 A195 195 0 0 1 300 620 A195 195 0 0 1 105 425 A195 195 0 0 1 300 230 Z" style="fill:rgb(0,0,0);" />
<path d=" M219.89 476.79 L219.89 501.79 L233.680020943951 501.790000000012 A18.75 18.75 0 0 1 252.429999999994 520.539984946535 A21.11 21.11 0 0 1 210.395824123076 523.334810167358 L210.39 523.33 L182.890000000001 523.330009277647 A40.89 40.89 0 0 0 212.030330080664 562.495512339132 L212.033203450982 562.499298323102 A67.12 67.12 0 0 0 250.606825722574 562.499289571025 L250.599684957812 562.495507827579 A40.89 40.89 0 0 0 261.042181230399 488.986162237788 L261.041750611909 488.982847001422 A42.23 42.23 0 0 0 255.241515450806 412.502792512323 L255.246933646156 412.508665646298 A68.59 68.59 0 0 0 207.393057378477 412.508668987129 L207.388430670507 412.502812567208 A42.23 42.23 0 0 0 179.890000000004 452.079980836634 L208.098607136425 452.259704724193 A23.93 23.93 0 0 1 255.25 458.039998747028 A18.75 18.75 0 0 1 236.500020943951 476.789999999988 Z" style="fill:rgb(255,255,255);" />
<path d=" M317.25 514.07 L317.250000000001 460.930008078606 A51.43 51.43 0 0 1 420.109999999999 460.929991921394 L420.11 514.07 A51.43 51.43 0 0 1 317.25 514.07 Z M344.75 516.57 L344.75 458.430003758916 A23.93 23.93 0 0 1 392.61 458.429996241084 L392.61 516.57 A23.93 23.93 0 0 1 344.75 516.57 Z" style="fill:rgb(255,255,255);" />
<path d=" M213.69 287.5 L230.36 287.5 L230.36 313.26 L251.94 287.5 L273.69 287.5 L242.26 325 L273.69 358.93 L250.97 358.93 L230.36 336.67 L230.36 387.5 L213.69 387.5 Z" style="fill:rgb(255,255,255);" />
<path d=" M288.69 287.5 L305.36 287.5 L305.36 334.739997923058 A11.9 11.9 0 0 0 329.16 334.740002076942 L329.17 334.74 L329.17 287.5 L345.83 287.5 L345.84 334.739997715364 A11.9 11.9 0 0 0 369.64 334.740002284636 L369.64 287.5 L386.31 287.5 L386.31 337.410001642006 A23.52 23.52 0 0 1 342.551641127192 349.393289620777 L342.548366402127 349.393276904639 A23.52 23.52 0 0 1 305.353273919862 353.709074840099 L305.36 353.71 L305.36 358.93 L288.69 358.93 Z" style="fill:rgb(255,255,255);" />
</g>
</svg>
