<?xml version="1.0" encoding="UTF-8"?>
<!DOCTYPE svg PUBLIC '-//W3C//DTD SVG 1.0//EN' 'http://www.w3.org/TR/2001/REC-SVG-20010904/DTD/svg10.dtd'>
<svg xmlns:xlink="http://www.w3.org/1999/xlink" xmlns="http://www.w3.org/2000/svg" width="600" height="900">
<!--Gegenereerd door de SIMaD-toepassing (http://www.dlw.be).-->
<g style="stroke:none;fill-rule:evenodd;" transform="matrix(1,0,0,-1,0,900)">
<path d=" M65 0 L535 0 A65 65 0 0 1 600 65 L600 835 A65 65 0 0 1 535 900 L65 900 A65 65 0 0 1 0 835 L0 65 A65 65 0 0 1 65 0 Z" style="fill:rgb(0,0,0);" />
<path d=" M133.4 710 L201.97 710 L201.97 726.67 L154.31 726.67 L199.97 793.33 L199.97 810 L135.4 810 L135.4 793.33 L179.07 793.33 L133.4 726.67 Z" style="fill:rgb(255,255,255);" />
<path d=" M220.97 777.71 L220.97 742.29000538626 A34.29 34.29 0 0 1 289.55 742.289994613739 L289.54 742.29 L289.55 777.71 A34.29 34.29 0 0 1 220.97 777.71 Z M239.3 779.38 L239.31 740.6200027838 A15.95 15.95 0 0 1 271.21 740.6199972162 L271.21 779.38 A15.95 15.95 0 0 1 239.31 779.38 Z" style="fill:rgb(255,255,255);" />
<path d=" M311.54 710 L328.21 710 L328.21 776.42 L358.68 710 L380.11 710 L380.11 810 L363.44 810 L363.44 743.58 L332.97 810 L311.54 810 Z" style="fill:rgb(255,255,255);" />
<path d=" M405.11 710 L466.54 710 L466.54 726.67 L423.44 726.67 L423.44 753.33 L452.25 753.33 L452.25 770 L423.44 770 L423.44 793.33 L466.54 793.33 L466.54 810 L405.11 810 Z" style="fill:rgb(255,255,255);" />
<path d=" M300 200 A225 225 0 0 1 525 425 A225 225 0 0 1 300 650 A225 225 0 0 1 75 425 A225 225 0 0 1 300 200 Z" style="fill:rgb(255,255,255);" />
<path d=" M300 205 A220 220 0 0 1 520 425 A220 220 0 0 1 300 645 A220 220 0 0 1 80 425 A220 220 0 0 1 300 205 Z" style="fill:rgb(0,0,0);" />
<path d=" M300 225 A200 200 0 0 1 500 425 A200 200 0 0 1 300 625 A200 200 0 0 1 100 425 A200 200 0 0 1 300 225 Z" style="fill:rgb(178,178,178);" />
<path d=" M300 230 A195 195 0 0 1 495 425 A195 195 0 0 1 300 620 A195 195 0 0 1 105 425 A195 195 0 0 1 300 230 Z" style="fill:rgb(0,0,0);" />
<path d=" M179.9 412.5 L250.93 534.49 L210.4 534.49 L210.4 523.78 L182.9 523.78 L182.9 559.49 L282.75 559.49 L282.75 534.49 L211.72 412.5 Z" style="fill:rgb(255,255,255);" />
<path d=" M309.75 514.06 L309.750000000001 460.930008078606 A51.43 51.43 0 0 1 412.609999999999 460.929991921394 L412.6 460.93 L412.61 514.06 A51.43 51.43 0 0 1 309.75 514.06 Z M337.25 516.56 L337.25 458.430004176573 A23.93 23.93 0 0 1 385.11 458.429995823427 L385.1 458.43 L385.11 516.56 A23.93 23.93 0 0 1 337.25 516.56 Z" style="fill:rgb(255,255,255);" />
<path d=" M209.94 287.5 L226.61 287.5 L226.61 313.26 L248.19 287.5 L269.94 287.5 L238.51 325 L269.94 358.93 L247.22 358.93 L226.61 336.67 L226.61 387.5 L209.94 387.5 Z" style="fill:rgb(255,255,255);" />
<path d=" M284.94 287.5 L301.61 287.5 L301.61 334.739997923058 A11.9 11.9 0 0 0 325.41 334.740002076942 L325.42 334.74 L325.42 287.5 L342.08 287.5 L342.09 334.739997715364 A11.9 11.9 0 0 0 365.89 334.740002284636 L365.89 287.5 L382.56 287.5 L382.56 337.410001642006 A23.52 23.52 0 0 1 338.801641127192 349.393289620777 L338.798366402127 349.393276904639 A23.52 23.52 0 0 1 301.603273919862 353.709074840099 L301.61 353.71 L301.61 358.93 L284.94 358.93 Z" style="fill:rgb(255,255,255);" />
<path d=" M1.41697253345323 38.1809711826748 A50 50 0 0 1 27.5769337019813 5.309888142961 L27.58 5.31 L598.583027466547 861.819028817325 A50 50 0 0 1 572.423066298019 894.690111857039 L572.42 894.69 Z" style="fill:rgb(255,255,255);" />
</g>
</svg>
