<?xml version="1.0" encoding="UTF-8"?><!DOCTYPE svg PUBLIC '-//W3C//DTD SVG 1.0//EN' 'http://www.w3.org/TR/2001/REC-SVG-20010904/DTD/svg10.dtd'><svg xmlns:xlink="http://www.w3.org/1999/xlink" xmlns="http://www.w3.org/2000/svg"><!--Gegenereerd door de SIMaD (http://www.dlw.be).-->
<g style="stroke:none;fill-rule:evenodd;" transform="matrix(1,0,0,-1,0,700)">
<path d=" M65 0 L835 0 A65 65 0 0 1 900 65 L900 635 A65 65 0 0 1 835 700 L65 700 A65 65 0 0 1 0 635 L0 65 A65 65 0 0 1 65 0 Z" style="fill:rgb(255,128,0);" />
<path d=" M65 15 L835 15 A50 50 0 0 1 885 65 L885 635 A50 50 0 0 1 835 685 L65 685 A50 50 0 0 1 15 635 L15 65 A50 50 0 0 1 65 15 Z" style="fill:rgb(0,0,0);" />
<path d=" M65 30 L835 30 A35 35 0 0 1 870 65 L870 635 A35 35 0 0 1 835 670 L65 670 A35 35 0 0 1 30 635 L30 65 A35 35 0 0 1 65 30 Z" style="fill:rgb(255,128,0);" />
<path d=" M257.5 330 L257.499999999999 254.999993018683 A40 40 0 0 0 177.500000000001 255.000006981317 L177.500000000001 444.999993018683 A40 40 0 0 0 257.499999999999 445.000006981317 L257.5 440 L307.499999999999 440.000015707963 A90 90 0 0 1 127.500000000001 439.999984292037 L127.500000000001 260.000015707963 A90 90 0 0 1 307.499999999999 259.999984292037 L307.5 375 L217.5 375 L217.5 330 Z" style="fill:rgb(0,0,0);" />
<path d=" M370.5 175 L370.5 525 L470.500089360858 524.99999999995 A80 80 0 0 0 550.499999999974 445.000064228116 L550.499999999974 409.999935771884 A80 80 0 0 0 470.500089360858 330.00000000005 L420.5 330 L420.5 175 Z M420.5 480 L465.500039095375 479.999999999978 A35 35 0 0 0 500.499999999989 445.000028099801 L500.499999999989 409.999971900199 A35 35 0 0 0 465.500039095375 375.000000000022 L420.5 375 Z" style="fill:rgb(0,0,0);" />
<path d=" M592.5 275 L592.500000000007 260.000036128316 A90 90 0 1 1 746.139616971113 323.639603642465 L746.14 323.64 L657.751268705729 420.251256611214 A35 35 0 1 0 717.5 444.999998167404 L767.5 444.99999554941 A85 85 0 1 1 622.395938285342 384.895908912949 L622.4 384.9 L710.784274209384 288.28426828554 A40 40 0 1 0 642.500000000003 260.000016057029 L642.5 275 Z" style="fill:rgb(0,0,0);" />
<path d=" M30.5681270594549 58.719384918166 A35 35 0 0 1 65 30 L67.13 30 L869.431872940545 641.280615081834 A35 35 0 0 1 835 670 L832.87 670 Z" style="fill:rgb(0,0,0);" />
</g>
</svg>
