<?xml version="1.0" encoding="UTF-8"?><!DOCTYPE svg PUBLIC '-//W3C//DTD SVG 1.0//EN' 'http://www.w3.org/TR/2001/REC-SVG-20010904/DTD/svg10.dtd'><svg xmlns:xlink="http://www.w3.org/1999/xlink" xmlns="http://www.w3.org/2000/svg"><!--Gegenereerd door de SIMaD (http://www.dlw.be).-->
<g style="stroke:none;fill-rule:evenodd;" transform="matrix(1,0,0,-1,0,1100)">
<path d=" M65 0 L1235 0 A65 65 0 0 1 1300 65 L1300 1035 A65 65 0 0 1 1235 1100 L65 1100 A65 65 0 0 1 0 1035 L0 65 A65 65 0 0 1 65 0 Z" style="fill:rgb(255,128,0);" />
<path d=" M65 15 L1235 15 A50 50 0 0 1 1285 65 L1285 1035 A50 50 0 0 1 1235 1085 L65 1085 A50 50 0 0 1 15 1035 L15 65 A50 50 0 0 1 65 15 Z" style="fill:rgb(0,0,0);" />
<path d=" M65 30 L1235 30 A35 35 0 0 1 1270 65 L1270 1035 A35 35 0 0 1 1235 1070 L65 1070 A35 35 0 0 1 30 1035 L30 65 A35 35 0 0 1 65 30 Z" style="fill:rgb(255,128,0);" />
<path d=" M375 521.43 L374.999999999999 414.289990027189 A57.14 57.14 0 0 0 260.720000000001 414.290009972811 L260.720000000001 685.709990027189 A57.14 57.14 0 0 0 374.999999999999 685.710009972811 L375 678.57 L446.429999999998 678.570022439698 A128.57 128.57 0 0 1 189.290000000002 678.569977560302 L189.290000000002 421.430022439698 A128.57 128.57 0 0 1 446.429999999998 421.429977560302 L446.43 585.71 L317.86 585.71 L317.86 521.43 Z" style="fill:rgb(0,0,0);" />
<path d=" M536.43 300 L536.43 800 L679.290127663155 799.999999999929 A114.29 114.29 0 0 0 793.579999999963 685.710091757893 L793.57 685.71 L793.579999999963 635.709908242107 A114.29 114.29 0 0 0 679.290127663155 521.420000000071 L679.29 521.43 L607.86 521.43 L607.86 300 Z M607.86 735.71 L672.140055850536 735.709999999969 A50 50 0 0 0 722.139999999984 685.710040142573 L722.139999999984 635.709959857427 A50 50 0 0 0 672.140055850536 585.710000000031 L607.86 585.71 Z" style="fill:rgb(0,0,0);" />
<path d=" M853.57 442.86 L853.57000000001 421.430051611306 A128.57 128.57 0 1 1 1073.05272837751 512.342709336796 L1073.06 512.34 L946.784669579613 650.354652301735 A50 50 0 1 0 1032.14 685.709997382006 L1103.57 685.70999364194 A121.43 121.43 0 1 1 896.276044541048 599.846002579993 L896.28 599.85 L1022.5440857081 461.834077245894 A57.14 57.14 0 1 0 925.000000000005 421.430022937466 L925 442.86 Z" style="fill:rgb(0,0,0);" />
<path d=" M30.4029969398312 59.7040223513812 A35 35 0 0 1 65 30 L65.01 30 L1269.59700306017 1040.29597764862 A35 35 0 0 1 1235 1070 L1234.99 1070 Z" style="fill:rgb(0,0,0);" />
</g>
</svg>
