<?xml version="1.0" encoding="UTF-8"?>
<!DOCTYPE svg PUBLIC '-//W3C//DTD SVG 1.0//EN' 'http://www.w3.org/TR/2001/REC-SVG-20010904/DTD/svg10.dtd'>
<svg xmlns:xlink="http://www.w3.org/1999/xlink" xmlns="http://www.w3.org/2000/svg" width="1300.0000000043" height="1100.00000000004">
<!--Gegenereerd door de SIMaD-toepassing (http://www.dlw.be).-->
<g style="stroke:none;fill-rule:evenodd;" transform="matrix(1,0,0,-1,0,1100.00000000004)">
<path d=" M65 0 L1234.99995121805 1.83035808731802E-11 A65 65 0 0 1 1299.99999999998 65.0000487819526 L1299.99999999984 1034.99985478861 A65 65 0 0 1 1235.00004878195 1099.99999999998 L65.0000487819526 1099.99999999998 A65 65 0 0 1 1.83035808731802E-11 1034.99995121805 L1.83035808731802E-11 65.0000487819526 A65 65 0 0 1 65.0000487819526 1.83035808731802E-11 Z" style="fill:rgb(255,255,0);" />
<path d=" M65 15 L1234.99996247542 15.0000000000141 A50 50 0 0 1 1284.99999999999 65.0000375245789 L1284.99999999988 1034.99988829893 A50 50 0 0 1 1235.00003752458 1084.99999999999 L65.0000375245789 1084.99999999999 A50 50 0 0 1 15.0000000000141 1034.99996247542 L15.0000000000141 65.0000375245789 A50 50 0 0 1 65.0000375245789 15.0000000000141 Z" style="fill:rgb(0,0,0);" />
<path d=" M65 30 L1234.99997373279 30.0000000000099 A35 35 0 0 1 1269.99999999999 65.0000262672052 L1269.99999999991 1034.99992180925 A35 35 0 0 1 1235.00002626721 1069.99999999999 L65.0000262672052 1069.99999999999 A35 35 0 0 1 30.0000000000099 1034.99997373279 L30.0000000000099 65.0000262672052 A35 35 0 0 1 65.0000262672052 30.0000000000099 Z" style="fill:rgb(255,255,0);" />
<path d=" M628.36 786.62 L541.03 786.62 L472.805121827772 641.496360865604 A21.54 21.54 0 0 1 457.033115329457 630.803091211494 L457.040355467927 630.803017149706 A49.29 49.29 0 0 1 453.733775096343 622.556809034101 L453.73 622.56 L334.26 622.56 L254.003835880278 451.820435912804 A25.34 25.34 0 0 1 235.449394892472 439.240704396964 L235.45005799841 439.235597210775 A57.99 57.99 0 0 1 229.120504669987 413.131932574025 L229.12 413.13 L229.377965154684 363.577171252372 A509.66 509.66 0 0 1 253.836082234679 258.808603331004 L253.83 258.8 L272.87 258.8 L272.87 154 L327.38 154 L327.38 258.8 L697.82 258.8 L697.82 154 L752.33 154 L752.33 258.8 L771.373917765321 258.808603331005 A509.66 509.66 0 0 1 795.832034845316 363.577171252372 L795.83 363.57 L796.089495330013 413.131932574025 A57.99 57.99 0 0 1 789.75994200159 439.235597210775 L789.760605763111 439.240703243444 A25.34 25.34 0 0 1 771.206164995893 451.820435791463 L771.2 451.81 L759.16 477.44 L850.06 477.44 L850.06 388.35 L896.39 388.35 L896.39 477.44 L912.575885718154 477.439141680776 A433.21 433.21 0 0 1 933.365237247065 566.49221884833 L933.37 566.49 L933.579571047154 608.6156355697 A49.29 49.29 0 0 1 928.199614828811 630.803075393644 L928.206883927515 630.803092518877 A21.54 21.54 0 0 1 912.434877055058 641.496361020321 L912.43 641.49 L900.1 667.73 L986.91 667.73 L986.91 587.55 L1028.61 587.55 L1028.61 667.73 L1043.17524376648 667.72490508967 A389.89 389.89 0 0 1 1061.88570673274 747.872880432636 L1061.88 747.87 L1062.07961393176 785.785072486105 A44.36 44.36 0 0 1 1057.23776039322 805.753317679821 L1057.23898046959 805.755816264701 A19.38 19.38 0 0 1 1043.04856860935 815.376781317434 L1043.04 815.38 L981.64 946 L708.79 946 L647.381432730837 815.376781503037 A19.38 19.38 0 0 1 633.191020198926 805.755817440982 L633.192206543106 805.753252846581 A44.36 44.36 0 0 1 628.361774388468 786.622000542408 Z M832.86 768.74 L891.177662940578 644.687359789778 A1709.85 1709.85 0 0 1 494.07564575242 644.698268770868 L494.07 644.69 L552.39 768.74 Z M677.58 601.52 L746.194514310985 455.565117220528 A2011.59 2011.59 0 0 1 279.015260718256 455.577951327186 L279.02 455.58 L347.62 601.52 Z M971.42 929.9 L1023.90731590066 818.244657651898 A1538.86 1538.86 0 0 1 666.516661650185 818.254475702978 L666.52 818.26 L719 929.9 Z" style="fill:rgb(0,0,0);" />
</g>
</svg>
