<?xml version="1.0" encoding="UTF-8"?>
<!DOCTYPE svg PUBLIC '-//W3C//DTD SVG 1.0//EN' 'http://www.w3.org/TR/2001/REC-SVG-20010904/DTD/svg10.dtd'>
<svg xmlns:xlink="http://www.w3.org/1999/xlink" xmlns="http://www.w3.org/2000/svg" width="3200" height="900">
<!--Gegenereerd door de SIMaD-toepassing (http://www.dlw.be).-->
<g style="stroke:none;fill-rule:evenodd;" transform="matrix(1,0,0,-1,0,900)">
<path d=" M65 0 L3134.99999546214 1.56319401867222E-13 A65 65 0 0 1 3200 65.0000045378561 L3200 834.999987520896 A65 65 0 0 1 3135.00000453786 900 L65.0000045378561 900 A65 65 0 0 1 1.56319401867222E-13 834.999995462144 L1.56319401867222E-13 65.0000045378561 A65 65 0 0 1 65.0000045378561 1.56319401867222E-13 Z" style="fill:rgb(255,255,0);" />
<path d=" M80 15 L3119.99999546214 15.0000000000002 A65 65 0 0 1 3185 80.0000045378561 L3185 819.999987520896 A65 65 0 0 1 3120.00000453786 885 L80.0000045378561 885 A65 65 0 0 1 15.0000000000002 819.999995462144 L15.0000000000002 80.0000045378561 A65 65 0 0 1 80.0000045378561 15.0000000000002 Z" style="fill:rgb(0,0,0);" />
<path d=" M80 30 L3119.99999650934 30.0000000000001 A50 50 0 0 1 3170 80.0000034906585 L3170 819.999990400689 A50 50 0 0 1 3120.00000349066 870 L80.0000034906585 870 A50 50 0 0 1 30.0000000000001 819.999996509341 L30.0000000000001 80.0000034906585 A50 50 0 0 1 80.0000034906585 30.0000000000001 Z" style="fill:rgb(255,255,0);" />
<path d=" M150.27 300 L205.27 300 L205.27 430 L291.7 430 L291.7 480 L205.27 480 L205.27 550 L334.56 550 L334.56 600 L150.27 600 Z" style="fill:rgb(0,0,0);" />
<path d=" M382.56 300 L437.56 300 L437.56 600 L382.56 600 Z" style="fill:rgb(0,0,0);" />
<path d=" M512.56 300 L683.99 300 L683.99 350 L567.56 350 L567.56 600 L512.56 600 Z" style="fill:rgb(0,0,0);" />
<path d=" M734.99 300 L919.27 300 L919.27 350 L789.99 350 L789.99 430 L876.42 430 L876.42 480 L789.99 480 L789.99 550 L919.27 550 L919.27 600 L734.99 600 Z" style="fill:rgb(0,0,0);" />
<path d=" M1133.56 300 L1183.56 300 L1183.56 482.93 L1237.13 300 L1289.23 300 L1339.27 470.88 L1339.27 300 L1394.27 300 L1394.27 600 L1329.99 600 L1263.92 374.39 L1197.85 600 L1133.56 600 Z" style="fill:rgb(0,0,0);" />
<path d=" M1460.27 503.14 L1460.27 396.860016157211 A102.86 102.86 0 0 1 1665.99 396.859983842789 L1665.99 503.14 A102.86 102.86 0 0 1 1460.27 503.14 Z M1515.27 508.14 L1515.27 391.860007517831 A47.86 47.86 0 0 1 1610.99 391.859992482169 L1610.99 508.14 A47.86 47.86 0 0 1 1515.27 508.14 Z" style="fill:rgb(0,0,0);" />
<path d=" M1876.7 391.86 L1876.7 430 L1828.85 430 L1828.85 480 L1931.7 480 L1931.71 396.859980252298 A102.86 102.86 0 1 0 1725.99 396.860019747702 L1725.99 503.140008976228 A102.86 102.86 0 0 0 1928.14164832391 529.997925703998 L1928.13 530 L1871.4268381757 529.998464057664 A47.86 47.86 0 0 1 1780.99 508.139985799652 L1780.99 391.860008353146 A47.86 47.86 0 0 1 1876.71 391.859991646854 Z" style="fill:rgb(0,0,0);" />
<path d=" M1997.7 300 L2181.99 300 L2181.99 350 L2052.7 350 L2052.7 430 L2139.13 430 L2139.13 480 L2052.7 480 L2052.7 550 L2181.99 550 L2181.99 600 L1997.7 600 Z" style="fill:rgb(0,0,0);" />
<path d=" M2241.99 300 L2413.42 300 L2413.42 350 L2296.99 350 L2296.99 600 L2241.99 600 Z" style="fill:rgb(0,0,0);" />
<path d=" M2464.42 300 L2519.42 300 L2519.42 600 L2464.42 600 Z" style="fill:rgb(0,0,0);" />
<path d=" M2712.13 391.86 L2712.13 600 L2767.13 600 L2767.13 396.859980252298 A102.86 102.86 0 1 0 2561.41 396.860019747702 L2561.42 396.86 L2616.42 396.86 L2616.41 391.860008353146 A47.86 47.86 0 0 1 2712.13 391.859991646854 Z" style="fill:rgb(0,0,0);" />
<path d=" M2836.13 300 L2891.13 300 L2891.13 412.4 L2979.7 300 L3049.73 300 L2927.58 455 L3041.85 600 L2971.82 600 L2891.13 497.6 L2891.13 600 L2836.13 600 Z" style="fill:rgb(0,0,0);" />
</g>
</svg>
