<?xml version="1.0" encoding="UTF-8"?>
<!DOCTYPE svg PUBLIC '-//W3C//DTD SVG 1.0//EN' 'http://www.w3.org/TR/2001/REC-SVG-20010904/DTD/svg10.dtd'>
<svg xmlns:xlink="http://www.w3.org/1999/xlink" xmlns="http://www.w3.org/2000/svg" width="1500" height="900">
<!--Aangemaakt vanuit SIMaD (https://www.dlw.be).-->
<g style="stroke:none;fill-rule:evenodd;" transform="matrix(1,0,0,-1,0,900)">
<path d=" M65 0 L1435 0 A65 65 0 0 1 1500 65 L1500 835 A65 65 0 0 1 1435 900 L65 900 A65 65 0 0 1 0 835 L0 65 A65 65 0 0 1 65 0 Z" style="fill:rgb(255,128,0);" />
<path d=" M65 15 L1435 15 A50 50 0 0 1 1485 65 L1485 835 A50 50 0 0 1 1435 885 L65 885 A50 50 0 0 1 15 835 L15 65 A50 50 0 0 1 65 15 Z" style="fill:rgb(0,0,0);" />
<path d=" M65 30 L1435 30 A35 35 0 0 1 1470 65 L1470 835 A35 35 0 0 1 1435 870 L65 870 A35 35 0 0 1 30 835 L30 65 A35 35 0 0 1 65 30 Z" style="fill:rgb(255,128,0);" />
<path d=" M148.12 622.5 L175.62 622.5 L175.62 687.5 L223.48 687.5 L223.48 622.5 L250.98 622.5 L250.98 772.5 L223.48 772.5 L223.48 712.5 L175.62 712.5 L175.62 772.5 L148.12 772.5 Z" style="fill:rgb(0,0,0);" />
<path d=" M330.08 622.5 L345.13999432768 622.500000000001 A25 25 0 0 1 362.997148536148 630.003650490518 L362.99 630 L362.99 622.5 L387.99 622.5 L387.999999999996 689.790017953155 A42.86 42.86 0 0 1 302.980053826218 697.504825897182 L302.98 697.5 L327.767298541549 697.503530383083 A17.86 17.86 0 0 0 359.337915307255 704.195072723706 L359.336950935304 704.19333739915 A12.5 12.5 0 0 0 349.400001963495 684.11 L330.079994624386 684.099999999999 A30.8 30.8 0 0 1 330.080005375614 622.500000000001 Z M333.65 643.93 L350.490013962634 643.930000000008 A12.5 12.5 0 0 1 362.989999999996 656.429989964357 L362.998317571127 672.264098028061 A21.43 21.43 0 0 0 345.14002580766 662.680000000015 L333.649998362881 662.68 A9.38 9.38 0 0 1 333.650001637119 643.92 Z" style="fill:rgb(0,0,0);" />
<path d=" M434.19 622.5 L459.19 622.5 L459.19 693.359996571126 A17.86 17.86 0 0 0 494.91 693.360003428874 L494.9 693.36 L494.9 622.5 L519.9 622.5 L519.899999999993 697.360021551326 A35.28 35.28 0 0 1 459.184936482333 721.808638895698 L459.19 721.81 L459.19 729.64 L434.19 729.64 Z" style="fill:rgb(0,0,0);" />
<path d=" M618.42 622.5 L643.42 622.5 L643.42 772.5 L618.42 772.5 L618.42505498348 721.808647774209 A35.28 35.28 0 0 1 557.710000000001 697.360009236282 L557.710000000001 654.779990763718 A35.28 35.28 0 0 1 618.42505498348 630.331352225791 L618.42 630.33 Z M618.42 658.79 L618.43 693.360002805442 A17.86 17.86 0 0 1 582.71 693.359997194558 L582.71 658.790002805442 A17.86 17.86 0 0 1 618.43 658.789997194558 Z" style="fill:rgb(0,0,0);" />
<path d=" M685.42 688.93 L685.420000000006 662.359977558556 A42.86 42.86 0 0 1 769.425595330925 650.359183991756 L769.42 650.36 L744.025353948697 650.360087246582 A17.86 17.86 0 0 0 710.420000000006 658.790014338927 L710.42 667.5 L771.13 667.5 L771.14 688.93 A42.86 42.86 0 0 1 685.42 688.93 Z M710.42 693.36 L710.42 688.93 L746.13 688.93 L746.14 693.36 A17.86 17.86 0 0 1 710.42 693.36 Z" style="fill:rgb(0,0,0);" />
<path d=" M813.14 622.5 L838.14 622.5 L838.14 772.5 L813.14 772.5 Z" style="fill:rgb(0,0,0);" />
<path d=" M910.94 622.5 L925.99999432768 622.500000000001 A25 25 0 0 1 943.857148536148 630.003650490518 L943.85 630 L943.85 622.5 L968.85 622.5 L968.859999999996 689.790017953155 A42.86 42.86 0 0 1 883.840053826218 697.504825897182 L883.84 697.5 L908.627298541549 697.503530383083 A17.86 17.86 0 0 0 940.197915307255 704.195072723706 L940.196950935304 704.19333739915 A12.5 12.5 0 0 0 930.260001963495 684.11 L910.939994624386 684.099999999999 A30.8 30.8 0 0 1 910.940005375614 622.500000000001 Z M914.51 643.93 L931.350013962634 643.930000000008 A12.5 12.5 0 0 1 943.849999999996 656.429989964357 L943.858317571127 672.264098028061 A21.43 21.43 0 0 0 926.00002580766 662.680000000015 L914.509998362881 662.68 A9.38 9.38 0 0 1 914.510001637119 643.92 Z" style="fill:rgb(0,0,0);" />
<path d=" M1037.45 622.5 L1052.50999432768 622.500000000001 A25 25 0 0 1 1070.36714853615 630.003650490518 L1070.36 630 L1070.36 622.5 L1095.36 622.5 L1095.37 689.790017953155 A42.86 42.86 0 0 1 1010.35005382622 697.504825897182 L1010.35 697.5 L1035.13729854155 697.503530383083 A17.86 17.86 0 0 0 1066.70791530726 704.195072723706 L1066.7069509353 704.19333739915 A12.5 12.5 0 0 0 1056.7700019635 684.11 L1037.44999462439 684.099999999999 A30.8 30.8 0 0 1 1037.45000537561 622.500000000001 Z M1041.02 643.93 L1057.86001396263 643.930000000008 A12.5 12.5 0 0 1 1070.36 656.429989964357 L1070.36831757113 672.264098028061 A21.43 21.43 0 0 0 1052.51002580766 662.680000000015 L1041.01999836288 662.68 A9.38 9.38 0 0 1 1041.02000163712 643.92 Z" style="fill:rgb(0,0,0);" />
<path d=" M1141.56 622.5 L1166.56 622.5 L1166.56000000001 683.209981237711 A25 25 0 0 0 1191.56001832596 708.209999999993 L1204.06 708.21 L1204.06 729.64 L1191.56002015855 729.639999999994 A35 35 0 0 1 1166.56000059972 719.134898039922 L1166.56 719.14 L1166.56 729.64 L1141.56 729.64 Z" style="fill:rgb(0,0,0);" />
<path d=" M1252.16 653.48 L1227.16 653.480001628916 A31.11 31.11 0 0 1 1243.9173441236 625.878670878132 L1243.92128061666 625.880142991341 A56.57 56.57 0 0 1 1296.11873515095 625.880151190498 L1296.11268478043 625.878685908213 A31.11 31.11 0 0 1 1289.81188881455 683.52994486714 L1289.82 683.53 L1260.46179371811 691.753853772019 A7.45 7.45 0 0 0 1260.03409794044 706.017688836231 L1260.03667051619 706.019925415895 A31.57 31.57 0 0 0 1280.00333157471 706.019924718927 L1279.99589700202 706.017690522077 A7.45 7.45 0 0 0 1285.09 698.949994538865 L1285.1 698.95 L1310.08999999998 698.949966584799 A32.45 32.45 0 0 1 1287.90160131101 729.734769587151 L1287.90906202606 729.736995069855 A56.57 56.57 0 0 1 1252.13098199724 729.73700974432 L1252.1284228673 729.734777646584 A32.45 32.45 0 0 1 1253.99134660418 667.605700340623 L1253.99 667.61 L1283.34138920686 659.381805501407 A6.11 6.11 0 0 0 1284.57886620237 648.059105854828 L1284.58490950048 648.060567459465 A31.57 31.57 0 0 0 1255.45509489923 648.060565171615 L1255.45113919055 648.059103050516 A6.11 6.11 0 0 0 1252.16 653.480001492955 Z" style="fill:rgb(0,0,0);" />
<path d=" M148.12 127.5 L173.12 127.5 L173.114936482333 135.331361104302 A35.28 35.28 0 0 1 233.829999999993 159.779978448674 L233.829999999993 202.360021551326 A35.28 35.28 0 0 1 173.114936482333 226.808638895698 L173.12 226.81 L173.12 277.5 L148.12 277.5 Z M208.83 163.79 L208.84 198.360002805442 A17.86 17.86 0 0 1 173.12 198.359997194558 L173.12 163.790002805442 A17.86 17.86 0 0 1 208.84 163.789997194558 Z" style="fill:rgb(0,0,0);" />
<path d=" M269.54 193.93 L269.540000000006 167.359977558556 A42.86 42.86 0 0 1 353.545595330925 155.359183991756 L353.54 155.36 L328.145353948697 155.360087246582 A17.86 17.86 0 0 0 294.540000000006 163.790014338927 L294.54 172.5 L355.25 172.5 L355.26 193.93 A42.86 42.86 0 0 1 269.54 193.93 Z M294.54 198.36 L294.54 193.93 L330.25 193.93 L330.26 198.36 A17.86 17.86 0 0 1 294.54 198.36 Z" style="fill:rgb(0,0,0);" />
<path d=" M397.25 127.5 L422.25 127.5 L422.250000000007 188.209981237711 A25 25 0 0 0 447.250018325957 213.209999999993 L459.75 213.21 L459.75 234.64 L447.250020158553 234.639999999994 A35 35 0 0 1 422.250000599723 224.134898039922 L422.25 224.14 L422.25 234.64 L397.25 234.64 Z" style="fill:rgb(0,0,0);" />
<path d=" M482.85 193.93 L482.850000000006 167.359977558556 A42.86 42.86 0 0 1 566.855595330925 155.359183991756 L566.85 155.36 L541.455353948697 155.360087246582 A17.86 17.86 0 0 0 507.850000000006 163.790014338927 L507.85 172.5 L568.56 172.5 L568.57 193.93 A42.86 42.86 0 0 1 482.85 193.93 Z M507.85 198.36 L507.85 193.93 L543.56 193.93 L543.57 198.36 A17.86 17.86 0 0 1 507.85 198.36 Z" style="fill:rgb(0,0,0);" />
<path d=" M610.56 127.5 L635.56 127.5 L635.56 234.64 L610.56 234.64 Z" style="fill:rgb(0,0,0);" />
<path d=" M612.35 273.21 L612.35 251.79 L633.77 251.79 L633.77 273.21 Z" style="fill:rgb(0,0,0);" />
<path d=" M685.96 127.5 L710.96 127.5 L710.96 166.14 L743.34 127.5 L775.96 127.5 L728.82 183.75 L775.96 234.64 L741.88 234.64 L710.96 201.26 L710.96 277.5 L685.96 277.5 Z" style="fill:rgb(0,0,0);" />
<path d=" M807.46 127.5 L832.46 127.5 L832.454936482333 135.331361104302 A35.28 35.28 0 0 1 893.169999999993 159.779978448674 L893.169999999993 202.360021551326 A35.28 35.28 0 0 1 832.454936482333 226.808638895698 L832.46 226.81 L832.46 277.5 L807.46 277.5 Z M868.17 163.79 L868.18 198.360002805442 A17.86 17.86 0 0 1 832.46 198.359997194558 L832.46 163.790002805442 A17.86 17.86 0 0 1 868.18 163.789997194558 Z" style="fill:rgb(0,0,0);" />
<path d=" M959.68 127.5 L974.73999432768 127.500000000001 A25 25 0 0 1 992.597148536148 135.003650490518 L992.59 135 L992.59 127.5 L1017.59 127.5 L1017.6 194.790017953155 A42.86 42.86 0 0 1 932.580053826218 202.504825897183 L932.58 202.5 L957.367298541549 202.503530383083 A17.86 17.86 0 0 0 988.937915307255 209.195072723706 L988.936950935304 209.19333739915 A12.5 12.5 0 0 0 979.000001963495 189.11 L959.679994624386 189.1 A30.8 30.8 0 0 1 959.680005375614 127.5 Z M963.25 148.93 L980.090013962634 148.930000000008 A12.5 12.5 0 0 1 992.589999999996 161.429989964357 L992.598317571127 177.264098028061 A21.43 21.43 0 0 0 974.74002580766 167.680000000016 L963.249998362881 167.68 A9.38 9.38 0 0 1 963.250001637119 148.92 Z" style="fill:rgb(0,0,0);" />
<path d=" M1086.19 127.5 L1101.24999432768 127.500000000001 A25 25 0 0 1 1119.10714853615 135.003650490518 L1119.1 135 L1119.1 127.5 L1144.1 127.5 L1144.11 194.790017953155 A42.86 42.86 0 0 1 1059.09005382622 202.504825897183 L1059.09 202.5 L1083.87729854155 202.503530383083 A17.86 17.86 0 0 0 1115.44791530726 209.195072723706 L1115.4469509353 209.19333739915 A12.5 12.5 0 0 0 1105.5100019635 189.11 L1086.18999462439 189.1 A30.8 30.8 0 0 1 1086.19000537561 127.5 Z M1089.76 148.93 L1106.60001396263 148.930000000008 A12.5 12.5 0 0 1 1119.1 161.429989964357 L1119.10831757113 177.264098028061 A21.43 21.43 0 0 0 1101.25002580766 167.680000000016 L1089.75999836288 167.68 A9.38 9.38 0 0 1 1089.76000163712 148.92 Z" style="fill:rgb(0,0,0);" />
<path d=" M1190.31 127.5 L1215.31 127.5 L1215.31000000001 188.209981237711 A25 25 0 0 0 1240.31001832596 213.209999999993 L1252.81 213.21 L1252.81 234.64 L1240.31002015855 234.639999999994 A35 35 0 0 1 1215.31000059972 224.134898039922 L1215.31 224.14 L1215.31 234.64 L1190.31 234.64 Z" style="fill:rgb(0,0,0);" />
<path d=" M148.12 441.43 L148.120000000006 414.859977558556 A42.86 42.86 0 0 1 232.125595330925 402.859183991756 L232.12 402.86 L206.725353948697 402.860087246582 A17.86 17.86 0 0 0 173.120000000006 411.290014338927 L173.12 420 L233.83 420 L233.84 441.43 A42.86 42.86 0 0 1 148.12 441.43 Z M173.12 445.86 L173.12 441.43 L208.83 441.43 L208.84 445.86 A17.86 17.86 0 0 1 173.12 445.86 Z" style="fill:rgb(0,0,0);" />
<path d=" M275.84 375 L300.84 375 L300.84 445.859996571126 A17.86 17.86 0 0 0 336.56 445.860003428874 L336.55 445.86 L336.55 375 L361.55 375 L361.549999999993 449.860021551326 A35.28 35.28 0 0 1 300.834936482333 474.308638895698 L300.84 474.31 L300.84 482.14 L275.84 482.14 Z" style="fill:rgb(0,0,0);" />
<path d=" M529.4 375 L554.4 375 L554.4 525 L529.4 525 L529.40505498348 474.308647774209 A35.28 35.28 0 0 1 468.690000000001 449.860009236282 L468.690000000001 407.279990763718 A35.28 35.28 0 0 1 529.40505498348 382.831352225791 L529.4 382.83 Z M529.4 411.29 L529.41 445.860002805442 A17.86 17.86 0 0 1 493.69 445.859997194558 L493.69 411.290002805442 A17.86 17.86 0 0 1 529.41 411.289997194558 Z" style="fill:rgb(0,0,0);" />
<path d=" M604.81 375 L629.81 375 L629.81 482.14 L604.81 482.14 Z" style="fill:rgb(0,0,0);" />
<path d=" M606.6 520.71 L606.6 499.29 L628.02 499.29 L628.02 520.71 Z" style="fill:rgb(0,0,0);" />
<path d=" M671.81 441.43 L671.810000000006 414.859977558556 A42.86 42.86 0 0 1 755.815595330925 402.859183991756 L755.81 402.86 L730.415353948697 402.860087246582 A17.86 17.86 0 0 0 696.810000000006 411.290014338927 L696.81 420 L757.52 420 L757.53 441.43 A42.86 42.86 0 0 1 671.81 441.43 Z M696.81 445.86 L696.81 441.43 L732.52 441.43 L732.53 445.86 A17.86 17.86 0 0 1 696.81 445.86 Z" style="fill:rgb(0,0,0);" />
<path d=" M799.52 375 L824.52 375 L824.52 445.859996571126 A17.86 17.86 0 0 0 860.24 445.860003428874 L860.23 445.86 L860.23 375 L885.23 375 L885.229999999993 449.860021551326 A35.28 35.28 0 0 1 824.514936482333 474.308638895698 L824.52 474.31 L824.52 482.14 L799.52 482.14 Z" style="fill:rgb(0,0,0);" />
<path d=" M948.04 405.98 L923.04 405.980001628916 A31.11 31.11 0 0 1 939.797344123602 378.378670878132 L939.801280616659 378.380142991341 A56.57 56.57 0 0 1 991.998735150948 378.380151190498 L991.992684780435 378.378685908213 A31.11 31.11 0 0 1 985.691888814549 436.02994486714 L985.7 436.03 L956.34179371811 444.253853772019 A7.45 7.45 0 0 0 955.914097940444 458.517688836231 L955.91667051619 458.519925415895 A31.57 31.57 0 0 0 975.883331574709 458.519924718927 L975.875897002023 458.517690522077 A7.45 7.45 0 0 0 980.969999999998 451.449994538865 L980.98 451.45 L1005.96999999998 451.449966584799 A32.45 32.45 0 0 1 983.781601311006 482.234769587151 L983.789062026057 482.236995069855 A56.57 56.57 0 0 1 948.01098199724 482.23700974432 L948.008422867298 482.234777646584 A32.45 32.45 0 0 1 949.871346604176 420.105700340623 L949.87 420.11 L979.221389206856 411.881805501407 A6.11 6.11 0 0 0 980.458866202366 400.559105854828 L980.464909500482 400.560567459465 A31.57 31.57 0 0 0 951.335094899229 400.560565171615 L951.331139190545 400.559103050517 A6.11 6.11 0 0 0 948.04 405.980001492955 Z" style="fill:rgb(0,0,0);" />
<path d=" M1044.45 460.71 L1056.95 460.71 L1056.95000000001 402.860020908695 A27.86 27.86 0 0 1 1084.81002042245 375.000000000007 L1106.95 375 L1106.95 396.43 L1088.38000471344 396.430000000002 A6.43 6.43 0 0 0 1081.95 402.860004825661 L1081.95 460.71 L1106.95 460.71 L1106.95 482.14 L1081.95 482.14 L1081.95 525 L1056.95 510.57 L1056.95 482.14 L1044.45 482.14 Z" style="fill:rgb(0,0,0);" />
<path d=" M1138.45 441.43 L1138.45000000001 414.859977558556 A42.86 42.86 0 0 1 1222.45559533093 402.859183991756 L1222.45 402.86 L1197.0553539487 402.860087246582 A17.86 17.86 0 0 0 1163.45000000001 411.290014338927 L1163.45 420 L1224.16 420 L1224.17 441.43 A42.86 42.86 0 0 1 1138.45 441.43 Z M1163.45 445.86 L1163.45 441.43 L1199.16 441.43 L1199.17 445.86 A17.86 17.86 0 0 1 1163.45 445.86 Z" style="fill:rgb(0,0,0);" />
<path d=" M1266.16 375 L1291.16 375 L1291.16 445.859996571126 A17.86 17.86 0 0 0 1326.88 445.860003428874 L1326.87 445.86 L1326.87 375 L1351.87 375 L1351.86999999999 449.860021551326 A35.28 35.28 0 0 1 1291.15493648233 474.308638895698 L1291.16 474.31 L1291.16 482.14 L1266.16 482.14 Z" style="fill:rgb(0,0,0);" />
</g>
</svg>
