<?xml version="1.0" encoding="UTF-8"?>
<!DOCTYPE svg PUBLIC '-//W3C//DTD SVG 1.0//EN' 'http://www.w3.org/TR/2001/REC-SVG-20010904/DTD/svg10.dtd'>
<svg xmlns:xlink="http://www.w3.org/1999/xlink" xmlns="http://www.w3.org/2000/svg" width="1500" height="900">
<!--Aangemaakt vanuit SIMaD (https://www.dlw.be).-->
<g style="stroke:none;fill-rule:evenodd;" transform="matrix(1,0,0,-1,0,900)">
<path d=" M65 0 L1435 0 A65 65 0 0 1 1500 65 L1500 835 A65 65 0 0 1 1435 900 L65 900 A65 65 0 0 1 0 835 L0 65 A65 65 0 0 1 65 0 Z" style="fill:rgb(255,128,0);" />
<path d=" M65 15 L1435 15 A50 50 0 0 1 1485 65 L1485 835 A50 50 0 0 1 1435 885 L65 885 A50 50 0 0 1 15 835 L15 65 A50 50 0 0 1 65 15 Z" style="fill:rgb(0,0,0);" />
<path d=" M65 30 L1435 30 A35 35 0 0 1 1470 65 L1470 835 A35 35 0 0 1 1435 870 L65 870 A35 35 0 0 1 30 835 L30 65 A35 35 0 0 1 65 30 Z" style="fill:rgb(255,128,0);" />
<path d=" M264.4 668.43 L264.4 687.5 L240.47 687.5 L240.47 712.5 L291.9 712.5 L291.899999999999 670.929990126149 A51.43 51.43 0 1 0 189.040000000001 670.930009873851 L189.04 724.070004488114 A51.43 51.43 0 0 0 290.115824161954 737.498962851999 L290.11 737.5 L261.75841908785 737.499232028832 A23.93 23.93 0 0 1 216.540000000001 726.569992899826 L216.54 668.430004176573 A23.93 23.93 0 0 1 264.4 668.429995823427 Z" style="fill:rgb(0,0,0);" />
<path d=" M336 688.93 L336.000000000006 662.359977558556 A42.86 42.86 0 0 1 420.005595330925 650.359183991756 L420 650.36 L394.605353948697 650.360087246582 A17.86 17.86 0 0 0 361.000000000006 658.790014338927 L361 667.5 L421.71 667.5 L421.72 688.93 A42.86 42.86 0 0 1 336 688.93 Z M361 693.36 L361 688.93 L396.71 688.93 L396.72 693.36 A17.86 17.86 0 0 1 361 693.36 Z" style="fill:rgb(0,0,0);" />
<path d=" M477.75 622.5 L505.61 622.5 L524.89 700.07 L544.18 622.5 L572.04 622.5 L598.67 729.64 L575.49 729.64 L557.28 656.39 L539.06 729.64 L513.3 729.64 L495.09 656.39 L476.87 729.64 L451.11 729.64 Z" style="fill:rgb(0,0,0);" />
<path d=" M634.38 622.5 L659.38 622.5 L659.38 729.64 L634.38 729.64 Z" style="fill:rgb(0,0,0);" />
<path d=" M636.17 768.21 L636.17 746.79 L657.59 746.79 L657.59 768.21 Z" style="fill:rgb(0,0,0);" />
<path d=" M701.81 729.64 L701.809999999998 607.499994837665 A6.43 6.43 0 0 0 695.380007182379 601.070000000004 L680.38 601.07 L680.38 579.64 L698.950031119919 579.640000000017 A27.86 27.86 0 0 1 726.809999999991 607.499977632558 L726.81 729.64 Z" style="fill:rgb(0,0,0);" />
<path d=" M703.59 746.79 L725.02 746.79 L725.02 768.21 L703.59 768.21 Z" style="fill:rgb(0,0,0);" />
<path d=" M770.9 622.5 L856.61 622.5 L856.61 643.93 L802.77 643.93 L853.61 708.21 L853.61 729.64 L773.9 729.64 L773.9 708.21 L821.74 708.21 L770.9 643.93 Z" style="fill:rgb(0,0,0);" />
<path d=" M902.82 622.5 L927.82 622.5 L927.82 729.64 L902.82 729.64 Z" style="fill:rgb(0,0,0);" />
<path d=" M904.61 768.21 L904.61 746.79 L926.03 746.79 L926.03 768.21 Z" style="fill:rgb(0,0,0);" />
<path d=" M1055.53 619.5 L1055.53 729.64 L1030.53 729.64 L1030.53505498348 721.808647774209 A35.28 35.28 0 0 1 969.820000000001 697.360009236282 L969.820000000001 657.779990763718 A35.28 35.28 0 0 1 1030.53505498348 633.331352225791 L1030.53 633.33 L1030.54 619.499999064853 A17.86 17.86 0 0 0 997.212785664978 610.570001079815 L997.21 610.57 L975.562149697703 598.070002591315 A42.86 42.86 0 0 1 1055.54 619.499998503904 Z M1030.53 661.79 L1030.54 693.360002805442 A17.86 17.86 0 0 1 994.82 693.359997194558 L994.82 661.790002805442 A17.86 17.86 0 0 1 1030.54 661.789997194558 Z" style="fill:rgb(0,0,0);" />
<path d=" M1158.24 622.5 L1183.24 622.5 L1183.24 772.5 L1158.24 772.5 L1158.24505498348 721.808647774209 A35.28 35.28 0 0 1 1097.53 697.360009236282 L1097.53 654.779990763718 A35.28 35.28 0 0 1 1158.24505498348 630.331352225791 L1158.24 630.33 Z M1158.24 658.79 L1158.25 693.360002805442 A17.86 17.86 0 0 1 1122.53 693.359997194558 L1122.53 658.790002805442 A17.86 17.86 0 0 1 1158.25 658.789997194558 Z" style="fill:rgb(0,0,0);" />
<path d=" M1225.25 688.93 L1225.25000000001 662.359977558556 A42.86 42.86 0 0 1 1309.25559533093 650.359183991756 L1309.25 650.36 L1283.8553539487 650.360087246582 A17.86 17.86 0 0 0 1250.25000000001 658.790014338927 L1250.25 667.5 L1310.96 667.5 L1310.97 688.93 A42.86 42.86 0 0 1 1225.25 688.93 Z M1250.25 693.36 L1250.25 688.93 L1285.96 688.93 L1285.97 693.36 A17.86 17.86 0 0 1 1250.25 693.36 Z" style="fill:rgb(0,0,0);" />
<path d=" M237.65 375 L269.79 375 L300.87 482.14 L274.84 482.14 L253.72 409.34 L232.61 482.14 L206.58 482.14 Z" style="fill:rgb(0,0,0);" />
<path d=" M330.26 441.43 L330.260000000006 414.859977558556 A42.86 42.86 0 0 1 414.265595330925 402.859183991756 L414.26 402.86 L388.865353948697 402.860087246582 A17.86 17.86 0 0 0 355.260000000006 411.290014338927 L355.26 420 L415.97 420 L415.98 441.43 A42.86 42.86 0 0 1 330.26 441.43 Z M355.26 445.86 L355.26 441.43 L390.97 441.43 L390.98 445.86 A17.86 17.86 0 0 1 355.26 445.86 Z" style="fill:rgb(0,0,0);" />
<path d=" M457.98 375 L482.98 375 L482.980000000007 435.709981237711 A25 25 0 0 0 507.980018325957 460.709999999993 L520.48 460.71 L520.48 482.14 L507.980020158553 482.139999999994 A35 35 0 0 1 482.980000599723 471.634898039922 L482.98 471.64 L482.98 482.14 L457.98 482.14 Z" style="fill:rgb(0,0,0);" />
<path d=" M551.98 375 L576.98 375 L576.98 413.64 L609.36 375 L641.98 375 L594.84 431.25 L641.98 482.14 L607.9 482.14 L576.98 448.76 L576.98 525 L551.98 525 Z" style="fill:rgb(0,0,0);" />
<path d=" M662.98 441.43 L662.980000000006 414.859977558556 A42.86 42.86 0 0 1 746.985595330925 402.859183991756 L746.98 402.86 L721.585353948697 402.860087246582 A17.86 17.86 0 0 0 687.980000000006 411.290014338927 L687.98 420 L748.69 420 L748.7 441.43 A42.86 42.86 0 0 1 662.98 441.43 Z M687.98 445.86 L687.98 441.43 L723.69 441.43 L723.7 445.86 A17.86 17.86 0 0 1 687.98 445.86 Z" style="fill:rgb(0,0,0);" />
<path d=" M784.39 441.43 L784.390000000006 414.859977558556 A42.86 42.86 0 0 1 868.395595330925 402.859183991756 L868.39 402.86 L842.995353948697 402.860087246582 A17.86 17.86 0 0 0 809.390000000006 411.290014338927 L809.39 420 L870.1 420 L870.11 441.43 A42.86 42.86 0 0 1 784.39 441.43 Z M809.39 445.86 L809.39 441.43 L845.1 441.43 L845.11 445.86 A17.86 17.86 0 0 1 809.39 445.86 Z" style="fill:rgb(0,0,0);" />
<path d=" M912.11 375 L937.11 375 L937.110000000007 435.709981237711 A25 25 0 0 0 962.110018325957 460.709999999993 L974.61 460.71 L974.61 482.14 L962.110020158553 482.139999999994 A35 35 0 0 1 937.110000599723 471.634898039922 L937.11 471.64 L937.11 482.14 L912.11 482.14 Z" style="fill:rgb(0,0,0);" />
<path d=" M1022.71 405.98 L997.71 405.980001628916 A31.11 31.11 0 0 1 1014.4673441236 378.378670878132 L1014.47128061666 378.380142991341 A56.57 56.57 0 0 1 1066.66873515095 378.380151190498 L1066.66268478043 378.378685908213 A31.11 31.11 0 0 1 1060.36188881455 436.02994486714 L1060.37 436.03 L1031.01179371811 444.253853772019 A7.45 7.45 0 0 0 1030.58409794044 458.517688836231 L1030.58667051619 458.519925415895 A31.57 31.57 0 0 0 1050.55333157471 458.519924718927 L1050.54589700202 458.517690522077 A7.45 7.45 0 0 0 1055.64 451.449994538865 L1055.65 451.45 L1080.63999999998 451.449966584799 A32.45 32.45 0 0 1 1058.45160131101 482.234769587151 L1058.45906202606 482.236995069855 A56.57 56.57 0 0 1 1022.68098199724 482.23700974432 L1022.6784228673 482.234777646584 A32.45 32.45 0 0 1 1024.54134660418 420.105700340623 L1024.54 420.11 L1053.89138920686 411.881805501407 A6.11 6.11 0 0 0 1055.12886620237 400.559105854828 L1055.13490950048 400.560567459465 A31.57 31.57 0 0 0 1026.00509489923 400.560565171615 L1026.00113919054 400.559103050517 A6.11 6.11 0 0 0 1022.71 405.980001492955 Z" style="fill:rgb(0,0,0);" />
<path d=" M1190.56 414.82 L1293.42 414.82 L1293.42 442.32 L1190.56 442.32 Z" style="fill:rgb(0,0,0);" />
<path d=" M384.37 158.48 L359.37 158.480001628916 A31.11 31.11 0 0 1 376.127344123602 130.878670878132 L376.131280616659 130.880142991341 A56.57 56.57 0 0 1 428.328735150948 130.880151190498 L428.322684780435 130.878685908213 A31.11 31.11 0 0 1 422.021888814549 188.52994486714 L422.03 188.53 L392.67179371811 196.753853772019 A7.45 7.45 0 0 0 392.244097940444 211.017688836231 L392.24667051619 211.019925415895 A31.57 31.57 0 0 0 412.213331574709 211.019924718927 L412.205897002023 211.017690522077 A7.45 7.45 0 0 0 417.299999999998 203.949994538865 L417.31 203.95 L442.299999999983 203.949966584799 A32.45 32.45 0 0 1 420.111601311006 234.734769587151 L420.119062026057 234.736995069855 A56.57 56.57 0 0 1 384.34098199724 234.73700974432 L384.338422867298 234.734777646584 A32.45 32.45 0 0 1 386.201346604176 172.605700340623 L386.2 172.61 L415.551389206856 164.381805501407 A6.11 6.11 0 0 0 416.788866202366 153.059105854828 L416.794909500482 153.060567459465 A31.57 31.57 0 0 0 387.665094899229 153.060565171615 L387.661139190545 153.059103050516 A6.11 6.11 0 0 0 384.37 158.480001492955 Z" style="fill:rgb(0,0,0);" />
<path d=" M487.09 127.5 L512.09 127.5 L512.09 234.64 L487.09 234.64 Z" style="fill:rgb(0,0,0);" />
<path d=" M488.88 273.21 L488.88 251.79 L510.3 251.79 L510.3 273.21 Z" style="fill:rgb(0,0,0);" />
<path d=" M545.69 213.21 L558.19 213.21 L558.190000000008 155.360020908695 A27.86 27.86 0 0 1 586.050020422447 127.500000000008 L608.19 127.5 L608.19 148.93 L589.620004713436 148.930000000002 A6.43 6.43 0 0 0 583.190000000002 155.360004825661 L583.19 213.21 L608.19 213.21 L608.19 234.64 L583.19 234.64 L583.19 277.5 L558.19 263.07 L558.19 234.64 L545.69 234.64 Z" style="fill:rgb(0,0,0);" />
<path d=" M704.6 127.5 L729.6 127.5 L729.6 234.64 L704.6 234.64 L704.61 163.789996571126 A17.86 17.86 0 1 0 668.89 163.790003428874 L668.89 234.64 L643.89 234.64 L643.890000000001 159.779990763718 A35.28 35.28 0 0 1 704.60505498348 135.331352225791 L704.6 135.33 Z" style="fill:rgb(0,0,0);" />
<path d=" M802.4 127.5 L817.45999432768 127.500000000001 A25 25 0 0 1 835.317148536148 135.003650490518 L835.31 135 L835.31 127.5 L860.31 127.5 L860.319999999996 194.790017953155 A42.86 42.86 0 0 1 775.300053826218 202.504825897183 L775.3 202.5 L800.087298541549 202.503530383083 A17.86 17.86 0 0 0 831.657915307255 209.195072723706 L831.656950935304 209.19333739915 A12.5 12.5 0 0 0 821.720001963495 189.11 L802.399994624386 189.1 A30.8 30.8 0 0 1 802.400005375614 127.5 Z M805.97 148.93 L822.810013962634 148.930000000008 A12.5 12.5 0 0 1 835.309999999996 161.429989964357 L835.318317571127 177.264098028061 A21.43 21.43 0 0 0 817.46002580766 167.680000000016 L805.969998362881 167.68 A9.38 9.38 0 0 1 805.970001637119 148.92 Z" style="fill:rgb(0,0,0);" />
<path d=" M893.91 213.21 L906.41 213.21 L906.410000000008 155.360020908695 A27.86 27.86 0 0 1 934.270020422447 127.500000000008 L956.41 127.5 L956.41 148.93 L937.840004713436 148.930000000002 A6.43 6.43 0 0 0 931.410000000002 155.360004825661 L931.41 213.21 L956.41 213.21 L956.41 234.64 L931.41 234.64 L931.41 277.5 L906.41 263.07 L906.41 234.64 L893.91 234.64 Z" style="fill:rgb(0,0,0);" />
<path d=" M987.91 127.5 L1012.91 127.5 L1012.91 234.64 L987.91 234.64 Z" style="fill:rgb(0,0,0);" />
<path d=" M989.7 273.21 L989.7 251.79 L1011.12 251.79 L1011.12 273.21 Z" style="fill:rgb(0,0,0);" />
<path d=" M1054.91 193.93 L1054.91000000001 167.359977558556 A42.86 42.86 0 0 1 1138.91559533093 155.359183991756 L1138.91 155.36 L1113.5153539487 155.360087246582 A17.86 17.86 0 0 0 1079.91000000001 163.790014338927 L1079.91 172.5 L1140.62 172.5 L1140.63 193.93 A42.86 42.86 0 0 1 1054.91 193.93 Z M1079.91 198.36 L1079.91 193.93 L1115.62 193.93 L1115.63 198.36 A17.86 17.86 0 0 1 1079.91 198.36 Z" style="fill:rgb(0,0,0);" />
</g>
</svg>
