<?xml version="1.0" encoding="UTF-8"?>
<!DOCTYPE svg PUBLIC '-//W3C//DTD SVG 1.0//EN' 'http://www.w3.org/TR/2001/REC-SVG-20010904/DTD/svg10.dtd'>
<svg xmlns:xlink="http://www.w3.org/1999/xlink" xmlns="http://www.w3.org/2000/svg" width="400" height="399.999999999999">
<!--Gegenereerd door de SIMaD-toepassing (http://www.dlw.be).-->
<g style="stroke:none;fill-rule:evenodd;" transform="matrix(1,0,0,-1,0,399.999999999999)">
<path d=" M45 0 L354.999996858407 1.06581410364015E-13 A45 45 0 0 1 400 45.0000031415927 L399.999999999999 354.99999136062 A45 45 0 0 1 355.000003141593 400 L45.0000031415927 400 A45 45 0 0 1 1.06581410364015E-13 354.999996858407 L1.06581410364015E-13 45.0000031415927 A45 45 0 0 1 45.0000031415927 1.06581410364015E-13 Z" style="fill:rgb(255,255,255);stroke:rgb(0,0,0);" />
<path d=" M125 162.5 L164.38 185 L164.38 167.5 L275 167.5 L275 157.5 L164.38 157.5 L164.38 140 Z" style="fill:rgb(0,0,0);" />
<path d=" M235.63 47.5 L235.63 65 L125 65 L125 75 L235.63 75 L235.63 92.5 L275 70 Z" style="fill:rgb(0,0,0);" />
<path d=" M88.1393410820703 276.020233212425 A33.39 33.39 0 0 0 87.8131420602346 271.569448841098 L87.8099999999999 271.57 L88.9716868806385 271.406127381083 A34.56 34.56 0 0 1 67.9834010008691 308.156019137221 L67.9899999999998 308.16 L69.25 313.02 L103.875797723247 281.493720996828 A9.43 9.43 0 0 1 110.521245392091 266.873962506791 L110.52 266.88 L110.52 258.36 L107.97 258.36 L107.97 255.61 L115.43 255.61 L115.43 258.36 L112.88 258.36 L112.87874840275 266.873961725013 A9.43 9.43 0 0 1 121.02918570468 274.854793074628 L121.03 274.85 L122.337345849871 274.855446491564 A34.56 34.56 0 0 1 122.85547144451 270.114000723696 L122.85 270.11 L124.00700063184 270.321076872364 A33.39 33.39 0 0 0 123.508319725655 274.855085721793 L123.51 274.85 L125.480084547627 274.855369906891 A31.42 31.42 0 1 1 184.482430278187 291.222334512419 L184.48 291.22 L186.172557667966 292.237879750783 A33.39 33.39 0 0 0 187.269456787775 290.041774940542 L187.27 290.04 L188.334652891443 290.525776244086 A34.56 34.56 0 0 1 142.313206938319 307.574750370028 L142.31 307.58 L134.95 321.91 L136.637640170037 325.44182396765 A1.26 1.26 0 0 0 137.673809243714 326.107694306522 L137.673601478329 326.1116638352 A3.1 3.1 0 0 1 139.212071659135 326.881558703881 L139.209463569659 326.881505435064 A1.71 1.71 0 0 1 138.139280009421 329.772565675267 L138.136646081532 329.772326489362 A47.04 47.04 0 0 1 123.543090525924 329.55871563409 L123.541224886862 329.560917702924 A1.55 1.55 0 0 1 123.77916259099 326.560431239126 L123.78 326.56 L131.788942206433 326.231055287154 A1.28 1.28 0 0 0 133.070755200202 324.360172793867 L133.07 324.37 L132.03 322.18 L71.6399999999999 322.18 L73.3228394587911 328.663608951639 A21.14 21.14 0 0 1 80.4476730627311 329.422017124566 L80.4499459040229 329.4229740683 A10.69 10.69 0 0 0 85.1100540959775 329.4229740683 L85.1049029636541 329.433348712205 A1.63 1.63 0 0 1 85.8708455544801 332.294408438954 L85.8835277395355 332.29749691044 A7.31 7.31 0 0 1 81.7344973437633 332.707498337831 L81.7349037793499 332.706132865213 A35.29 35.29 0 0 0 71.4093611335186 332.199106056179 L71.4000000000001 332.2 L65.3913067962364 309.110939610485 A34.56 34.56 0 0 1 45.6060359912557 309.558389133092 L45.6100000000001 309.56 L45.9156281826678 308.430092773051 A33.39 33.39 0 0 0 65.0963740901839 307.976568998649 L65.0999999999999 307.97 L64.5985989776017 306.06657986731 A31.42 31.42 0 1 1 86.168767481837 275.951701738669 L86.1700000000001 275.95 Z M56.345714988247 280.244485480891 A4.32 4.32 0 1 1 58.8909645487551 274.999222763473 L58.8899999999999 275 L83.0273369427209 275.841907964741 A28.28 28.28 0 1 0 63.8056144250373 303.020935918423 L63.8099999999999 303.02 L59.9022338301381 288.040308207534 A16.72 16.72 0 0 0 56.3425666608847 280.240302978172 Z M181.616604669597 289.499964480988 A28.08 28.08 0 1 0 128.823662711241 274.855458372707 L128.82 274.85 L150.537462747621 274.855455731076 A6.48 6.48 0 1 1 163.005713270771 278.314087968125 L163.01 278.31 Z M107.97 296.85 L115.43 296.85 L115.43 294.1 L112.88 294.1 L112.878752648385 285.586037740086 A9.43 9.43 0 0 0 114.46474416556 285.245602569934 L114.47 285.24 L130.73 319.43 L70.9200000000001 319.43 L70.0300000000002 316.02 L105.727436290409 283.527491537157 A9.43 9.43 0 0 0 110.521256006179 285.586038830457 L110.52 285.58 L110.52 294.1 L107.97 294.1 Z M88.04 278.77 L86.0728187605626 278.699296436831 A31.42 31.42 0 0 1 67.1839529001728 305.085037953125 L67.1900000000001 305.09 L67.6866644615508 307.012053417685 A33.39 33.39 0 0 0 88.0433772781395 278.768332014426 Z M58.4516298719601 278.457181243413 A4.32 4.32 0 0 0 58.7950212313838 277.7466420928 L58.8000000000002 277.75 L82.9313841571608 278.589658235111 A28.28 28.28 0 0 1 66.3826262137605 302.006741597241 L66.3800000000001 302.01 L62.614833780957 287.538351767355 A19.35 19.35 0 0 0 58.4529989657808 278.460159699063 Z M184.75 294.59 L183.066142156603 293.578732982874 A31.42 31.42 0 0 1 143.749323370422 304.779330023348 L143.75 304.78 L142.848551673606 306.533318082848 A33.39 33.39 0 0 0 184.756018630723 294.594696156674 Z M139.867880933794 306.318561734629 A34.56 34.56 0 0 1 122.337345490014 277.604544467808 L122.33 277.6 L121.029185920697 277.605205459947 A9.43 9.43 0 0 1 116.948586817291 284.064362540843 L116.95 284.06 L133.46 318.79 Z M141.303843305469 303.523060762056 A31.42 31.42 0 0 1 125.480085291378 277.604647076687 L125.48 277.6 L123.508319101743 277.604899139156 A33.39 33.39 0 0 0 140.402634084315 305.27682357503 L140.41 305.27 Z M142.831756324028 300.549007267856 A28.08 28.08 0 0 1 128.823663095086 277.604549459307 L128.82 277.6 L150.537462867573 277.604544821542 A6.48 6.48 0 0 0 152.753737396262 281.23467603118 L152.75 281.23 Z M145.277058857694 301.805185545192 A28.08 28.08 0 0 0 180.200414508333 291.85620103766 L180.2 291.86 L161.589514606777 280.670335784196 A6.48 6.48 0 0 1 155.199046866547 282.490855822154 L155.2 282.49 Z" style="fill:rgb(0,0,0);" />
<path d=" M277.21 295.83 L271.869445257312 295.71192379339 A8.37 8.37 0 0 0 266.063861298886 297.882947207274 L266.062519741675 297.882411514466 A19.5 19.5 0 0 0 259.986838929247 308.819095640618 L259.99 308.82 L254.257442249173 298.165797033626 A29.44 29.44 0 0 0 266.223879550818 261.100784417846 L266.22 261.1 L264.508027426258 261.869338387997 A27.56 27.56 0 1 0 229.623900350742 298.681694670086 L229.62 298.69 L229.627211383379 300.679841012562 A29.44 29.44 0 0 0 251.180853033192 299.755217185131 L251.18 299.76 L262.859345378607 325.112944588625 A5.06 5.06 0 0 0 265.000205155124 327.290757474209 L265 327.29 L265.843664220046 327.833211114834 A6.19 6.19 0 0 1 267.122317144679 328.949759551512 L267.116550540749 328.957927140146 A1.36 1.36 0 0 1 266.011776692367 331.207748545992 L266.015996416717 331.19240134733 A4.59 4.59 0 0 1 264.046130485099 330.619729042017 L264.046887292912 330.621579491323 A31.02 31.02 0 0 0 261.006753807843 329.138973293161 L261.001344233115 329.140659102983 A9.42 9.42 0 0 0 259.011226497689 328.549433566743 L259.011606364845 328.557132651291 A1.08 1.08 0 0 0 257.782153717492 329.321210619527 L257.79 329.32 L255.643955858206 335.006014701587 A42.06 42.06 0 0 1 259.544381122281 336.652235982371 L259.543234640947 336.649742278505 A10.16 10.16 0 0 0 263.606029856012 337.653832042001 L263.600541714047 337.657395738763 A4.29 4.29 0 0 0 266.397119964139 336.74592296942 L266.397620815206 336.740216138518 A29.24 29.24 0 0 1 268.869181603238 335.000712849558 L268.868071832963 335.002641410938 A7.44 7.44 0 0 1 271.6234562613 333.958484338598 L271.63 333.96 L271.630980322111 344.017741115722 A2.45 2.45 0 0 0 271.738942475908 347.942852132261 L271.738941567043 347.952851491943 A2.45 2.45 0 0 0 274.68945672929 347.855931000494 L274.685805085093 347.852232853727 A7.33 7.33 0 0 0 276.287384564424 346.048368488143 L276.29 346.05 L280.67 346.05 L280.67 344.61 L273.73 344.61 L273.729999999999 334.180004817109 A11.5 11.5 0 0 0 273.202671016291 330.737545821911 L273.210605065368 330.727784270835 A103.82 103.82 0 0 1 272.235288203317 327.428567921233 L272.23 327.43 L272.986638126781 326.901887753322 A0.56 0.56 0 0 0 273.169397582062 326.186618755566 L273.18 326.19 L266.56 312.5 L268.30802477156 310.272960362779 A0.69 0.69 0 0 1 269.117119754657 310.063802674737 L269.12 310.07 L269.531909068714 310.322255926353 A1.08 1.08 0 0 0 270.858641103621 310.188419230215 L270.854215092303 310.188316297414 A3.05 3.05 0 0 0 271.553541004605 309.167491832416 L271.564719521282 309.164669628217 A1.1 1.1 0 0 0 271.5555673991 308.294091706886 L271.547610833533 308.305356980433 A1.37 1.37 0 0 1 271.593629205798 307.100716158451 L271.6 307.1 L290.55 287.89 L311.490000202109 287.89 A3.86 3.86 0 0 1 315.290327693121 291.07390132015 L315.29 291.07 L321.67 317.83 L304.63 323.08 L304.63 324.68 L328.609999575885 324.68 A2.7 2.7 0 0 0 330.818178864304 320.426312095933 L330.818591893496 320.426732347242 A6.87 6.87 0 0 0 329.665339092824 319.159114367648 L329.67 319.16 L326.945396815997 316.969489074291 A2.57 2.57 0 0 1 326.139975799336 315.835091248483 L326.15 315.83 L324.55 308.35 L365.012564485188 308.362481415872 A1.72 1.72 0 0 1 367.174863748415 306.911235709819 L367.18 306.92 L370.27 306.92 L370.29 299.3 L368.82 299.3 L376.67 278.18 L374.67365623971 278.177009169524 A27.57 27.57 0 0 0 322.830729715698 260.521284862391 L322.83 260.52 L304.36 260.52 L304.36 254.66 L305.95 254.66 L305.95 252.55 L300.73 252.55 L300.73 254.66 L302.76 254.66 L302.75794760417 259.927692587855 A24.9 24.9 0 0 1 297.370955752293 258.854436852727 L297.374662359581 258.852925436862 A491.2 491.2 0 0 0 291.612156623389 257.063822742952 L291.616196346696 257.06253959063 A11.41 11.41 0 0 0 282.886390803238 257.936049807733 L282.886511735051 257.940598432361 A6.52 6.52 0 0 0 280.124650257156 260.812025211239 L280.119979405026 260.816293843279 A24.72 24.72 0 0 0 278.139835786858 276.827904108241 L278.136950560088 276.823385817827 A149.6 149.6 0 0 0 281.851008307456 290.896173278263 L281.85 290.9 Z M241.6 278.06 L248.643483684467 294.294876425904 A23.42 23.42 0 1 1 262.616333992203 271.594698281242 L262.61 271.6 L244.810397272255 271.593987944401 A5.72 5.72 0 1 0 241.602996172678 278.054545048749 Z M302.744568469674 262.317184857499 A28.03 28.03 0 0 1 295.31499421571 260.545787213423 L295.32 260.55 L302.73 263.82 Z M358.64 260.52 L327.338396120636 260.522233629189 A23.58 23.58 0 1 1 346.629562491301 295.934773317517 L346.63 295.94 L348.513343371063 278.064910403479 A5.74 5.74 0 0 0 350.097224069767 267.15540377425 L350.09 267.16 L358.550616577903 267.909712730787 A1.42 1.42 0 0 0 359.7960065198 266.606421501046 L359.8 266.61 L360.131197794798 262.140077982165 A1.46 1.46 0 0 0 358.634828348157 260.520698961191 Z M280.35 270.11 L285.308411129127 268.654276243388 A12.35 12.35 0 0 1 287.288241776303 262.390143862131 L287.282579539093 262.393371880677 A8.65 8.65 0 0 1 290.261348036248 259.582311700192 L290.267053558294 259.577446892422 A4.46 4.46 0 0 0 286.136665419291 259.700957687466 L286.137659493636 259.707772518496 A14.59 14.59 0 0 0 281.375072997093 263.995498648085 L281.370331782178 263.993915064186 A7.12 7.12 0 0 0 280.345667779997 270.106572840303 Z M370.665013116538 290.937113813358 A29.51 29.51 0 0 1 359.784020346916 299.311385279431 L359.78 299.31 L367.47 299.31 Z M244.84 273.96 L262.624076604284 273.951625995006 A23.42 23.42 0 0 1 251.425707652133 292.844026979668 L251.42 292.85 L243.390732491786 276.775137593995 A5.72 5.72 0 0 0 244.842097764204 273.955784194596 Z M318.97 286.55 L324.02 306.21 L327.197426987818 306.206356148436 A15.81 15.81 0 0 1 330.860293290954 300.055421644457 L330.863438745593 300.052424866337 A2.45 2.45 0 0 1 332.632112671056 299.300000910894 L332.64 299.31 L335.655363902074 299.311109442885 A29.51 29.51 0 0 1 318.252876129361 273.970192061487 L318.25 273.97 L317.09 273.96 L317.085547823443 283.360480089536 A0.68 0.68 0 0 1 317.612618262701 283.643751270375 L317.620267579493 283.640353429048 A8.7 8.7 0 0 1 318.976915654351 286.54734132271 Z M324.15 271.61 L342.031493314349 271.612867881452 A5.74 5.74 0 0 1 346.321164116733 266.813056658121 L346.32 266.82 L325.348191796833 264.928919694386 A23.58 23.58 0 0 0 324.152450167982 271.613844065908 Z M342.204933111853 273.971111944291 A5.74 5.74 0 0 0 344.917801448094 277.389519265927 L344.92 277.39 L342.96835293154 295.47628217131 A23.58 23.58 0 0 1 324.193650889689 273.969747633987 L324.19 273.97 Z M311.74 263.35 L304.36 262.55 L304.36 264.7 L311.6 267.22 Z M317.14 271.61 L318.219959064547 271.613393969083 A29.51 29.51 0 0 1 318.55319182925 267.89252842564 L318.55 267.89 L317.14 268.28 Z" style="fill:rgb(0,0,0);" />
</g>
</svg>
