<?xml version="1.0" encoding="UTF-8"?>
<!DOCTYPE svg PUBLIC '-//W3C//DTD SVG 1.0//EN' 'http://www.w3.org/TR/2001/REC-SVG-20010904/DTD/svg10.dtd'>
<svg xmlns:xlink="http://www.w3.org/1999/xlink" xmlns="http://www.w3.org/2000/svg" width="400.000000000002" height="299.999999999999">
<!--Gegenereerd door de SIMaD-toepassing (http://www.dlw.be).-->
<g style="stroke:none;fill-rule:evenodd;" transform="matrix(1,0,0,-1,0,299.999999999999)">
<path d=" M45 0 L354.999996858407 1.06581410364015E-13 A45 45 0 0 1 400 45.0000031415927 L399.999999999999 254.99999136062 A45 45 0 0 1 355.000003141593 300 L45.0000031415927 300 A45 45 0 0 1 1.06581410364015E-13 254.999996858407 L1.06581410364015E-13 45.0000031415927 A45 45 0 0 1 45.0000031415927 1.06581410364015E-13 Z" style="fill:rgb(255,255,255);stroke:rgb(0,0,0);" />
<path d=" M282.59 26.5999999999999 L282.59 71.5999999999999 L295.45 71.5999999999999 L295.446264257383 71.6099993218771 A10.29 10.29 0 0 0 305.739999314686 61.3237554979976 L305.74 61.3200000000002 L305.74 56.8200000000002 L305.73999932129 56.8237373589664 A10.29 10.29 0 0 0 295.453757114347 46.5300006859044 L295.45 46.5300000000002 L289.02 46.5300000000002 L289.02 26.5999999999999 L282.59 26.5999999999999 Z M289.02 65.8200000000002 L294.81 65.8200000000002 A4.5 4.5 0 0 0 299.31 61.3200018064159 L299.31 56.8200000000002 A4.5 4.5 0 0 0 294.810002513274 52.3200000000009 L289.02 52.3200000000002 L289.02 65.8200000000002 Z" style="fill:rgb(0,0,0);" />
<path d=" M277.21 149.22 L271.869445257312 149.11192379339 A8.37 8.37 0 0 0 266.063861190727 151.282947305469 L266.069241778277 151.279815177346 A19.49 19.49 0 0 0 259.996676508816 162.21089064155 L259.99 162.21 L254.257441807329 151.565797295905 A29.44 29.44 0 0 0 266.223879550818 114.500784417846 L266.22 114.5 L264.508027426258 115.269338387997 A27.56 27.56 0 1 0 229.623900350742 152.081694670086 L229.62 152.08 L229.627211383379 154.079841012562 A29.44 29.44 0 0 0 251.180853033192 153.155217185131 L251.18 153.16 L262.859345418626 178.51294466735 A5.06 5.06 0 0 0 265.000205233153 180.69075751557 L265 180.69 L265.84366394899 181.233210937142 A6.19 6.19 0 0 1 267.122316932085 182.34975930687 L267.116550556318 182.347927158062 A1.36 1.36 0 0 1 266.01177666867 184.597748544626 L266.015996176783 184.592401333507 A4.59 4.59 0 0 1 264.046130205167 184.019728886064 L264.046886819956 184.021579227832 A31.02 31.02 0 0 0 261.006753309009 182.53897308273 L261.001344384598 182.540659166885 A9.42 9.42 0 0 0 259.011226821293 181.94943362508 L259.011606309193 181.947132641259 A1.08 1.08 0 0 0 257.782153701847 182.711210673869 L257.79 182.71 L255.633956548029 188.396014952634 A42.06 42.06 0 0 1 259.534381783373 190.042236301494 L259.54323480064 190.039742355592 A10.16 10.16 0 0 0 263.60603003323 191.043832048179 L263.600541714047 191.047395738763 A4.29 4.29 0 0 0 266.397119964139 190.13592296942 L266.397620815206 190.140216138519 A29.24 29.24 0 0 1 268.869181603238 188.400712849558 L268.868072052782 188.39264127264 A7.44 7.44 0 0 1 271.623456389433 187.34848431754 L271.62 187.35 L271.63098035566 197.417741089211 A2.45 2.45 0 0 0 271.738942405995 201.342852083006 L271.728941601999 201.342851516571 A2.45 2.45 0 0 0 274.679456762554 201.245930973626 L274.685804786525 201.252233094887 A7.33 7.33 0 0 0 276.287384360306 199.448368813161 L276.29 199.44 L280.66 199.44 L280.66 198.01 L273.73 198.01 L273.719999999999 187.570004616396 A11.5 11.5 0 0 0 273.192670956209 184.127545630402 L273.200604522958 184.127782541923 A103.82 103.82 0 0 1 272.225288203317 180.828567921233 L272.23 180.83 L272.986638102596 180.301887769901 A0.56 0.56 0 0 0 273.169397595329 179.586618781715 L273.18 179.58 L266.56 165.9 L268.308024741747 163.672960400616 A0.69 0.69 0 0 1 269.117119710242 163.463802656088 L269.12 163.46 L269.531909068714 163.722255926352 A1.08 1.08 0 0 0 270.858641090035 163.588419243281 L270.854215015567 163.588316371214 A3.05 3.05 0 0 0 271.553540942951 162.567491979733 L271.564719528694 162.564669610506 A1.1 1.1 0 0 0 271.5555673991 161.694091706886 L271.547610852919 161.69535702415 A1.37 1.37 0 0 1 271.593629183134 160.490716200561 L271.6 160.5 L290.55 141.29 L311.490000269479 141.28 A3.86 3.86 0 0 1 315.290327704921 144.463901386479 L315.29 144.47 L321.66 171.23 L304.63 176.48 L304.63 178.07 L328.609999575885 178.08 A2.7 2.7 0 0 0 330.818178864304 173.826312095934 L330.818591962494 173.826732445306 A6.87 6.87 0 0 0 329.665339183945 172.559114445583 L329.66 172.56 L326.945396955588 170.369489187011 A2.57 2.57 0 0 1 326.139975844632 169.235091375195 L326.14 169.23 L324.55 161.75 L365.012564485188 161.762481415872 A1.72 1.72 0 0 1 367.174863748415 160.311235709819 L367.17 160.31 L370.26 160.31 L370.29 152.7 L368.81 152.7 L376.67 131.58 L374.66365623971 131.577009169524 A27.57 27.57 0 0 0 322.820729715698 113.921284862391 L322.82 113.92 L304.35 113.92 L304.35 108.06 L305.95 108.06 L305.95 105.95 L300.73 105.95 L300.73 108.06 L302.76 108.06 L302.757947171194 113.317692550469 A24.9 24.9 0 0 1 297.370955752293 112.244436852727 L297.371638649028 112.252457339845 A491.19 491.19 0 0 0 291.609258430506 110.463393560655 L291.606196346695 110.46253959063 A11.41 11.41 0 0 0 282.876390803238 111.336049807733 L282.886511735051 111.340598432361 A6.52 6.52 0 0 0 280.124650257156 114.212025211239 L280.119979405026 114.206293843279 A24.72 24.72 0 0 0 278.139835876531 130.217904530265 L278.136950560088 130.223385817827 A149.6 149.6 0 0 0 281.851008307456 144.296173278263 L281.85 144.29 Z M317.14 125.01 L318.209959077928 125.01339345421 A29.51 29.51 0 0 1 318.543191985893 121.292527407527 L318.55 121.29 L317.14 121.68 Z M311.73 116.75 L304.36 115.95 L304.36 118.09 L311.6 120.62 Z M342.194933084083 127.371111848036 A5.74 5.74 0 0 0 344.907801360661 130.78951921702 L344.91 130.78 L342.95835293154 148.876282171311 A23.58 23.58 0 0 1 324.183650889689 127.369747633987 L324.18 127.37 Z M324.14 125.01 L342.021493314349 125.012867881453 A5.74 5.74 0 0 1 346.311164116733 120.213056658122 L346.32 120.21 L325.338191796833 118.328919694387 A23.58 23.58 0 0 0 324.142450167982 125.013844065909 Z M318.97 139.94 L324.01 159.6 L327.206954231975 159.609394506343 A15.8 15.8 0 0 1 330.86750373163 153.462350536522 L330.863438715965 153.45242489717 A2.45 2.45 0 0 1 332.632112585535 152.70000091082 L332.63 152.7 L335.645363902075 152.711109442885 A29.51 29.51 0 0 1 318.242876129361 127.370192061487 L318.25 127.37 L317.08 127.36 L317.085547870883 136.760480091319 A0.68 0.68 0 0 1 317.61261829728 137.0437513186 L317.612140746769 137.046180485757 A8.69 8.69 0 0 1 318.967229506701 139.949826990373 Z M244.84 127.36 L262.624076604284 127.351625995006 A23.42 23.42 0 0 1 251.425707652133 146.244026979668 L251.42 146.24 L243.390732491786 130.175137593995 A5.72 5.72 0 0 0 244.842097764204 127.355784194596 Z M370.655013116538 144.337113813358 A29.51 29.51 0 0 1 359.774020346917 152.711385279432 L359.78 152.71 L367.46 152.7 Z M280.34 123.5 L285.308411129127 122.054276243388 A12.35 12.35 0 0 1 287.288241776303 115.790143862131 L287.282579539093 115.783371880677 A8.65 8.65 0 0 1 290.261348036248 112.972311700191 L290.267053558294 112.977446892422 A4.46 4.46 0 0 0 286.136665351415 113.100957725572 L286.137659493636 113.107772518496 A14.59 14.59 0 0 0 281.375072849883 117.395498855865 L281.370331782178 117.393915064186 A7.12 7.12 0 0 0 280.345667745151 123.506572721022 Z M358.63 113.92 L327.328396327594 113.922233273464 A23.58 23.58 0 1 1 346.619562491301 149.334773317517 L346.62 149.34 L348.503343371063 131.46491040348 A5.74 5.74 0 0 0 350.087224069767 120.55540377425 L350.09 120.56 L358.550616553299 121.309712733766 A1.42 1.42 0 0 0 359.796006517942 120.00642152576 L359.79 120.01 L360.131197792004 115.540078007494 A1.46 1.46 0 0 0 358.634828348157 113.920698961191 Z M302.744567982776 115.717184809932 A28.03 28.03 0 0 1 295.31499421571 113.945787213423 L295.31 113.95 L302.73 117.22 Z M241.6 131.46 L248.643483684467 147.694876425904 A23.42 23.42 0 1 1 262.616333992203 124.994698281241 L262.61 125 L244.810397272255 124.9939879444 A5.72 5.72 0 1 0 241.602996081842 131.454545090165 Z" style="fill:rgb(0,0,0);" />
<path d=" M88.1293412794103 129.420296035662 A33.38 33.38 0 0 0 87.8032400325195 124.970845210486 L87.8099999999999 124.97 L88.9716868806385 124.806127381083 A34.56 34.56 0 0 1 67.9834010008691 161.556019137221 L67.9899999999998 161.55 L69.25 166.41 L103.875797723247 134.893720996829 A9.43 9.43 0 0 1 110.521245392091 120.273962506791 L110.52 120.27 L110.52 111.76 L107.97 111.76 L107.97 109.01 L115.43 109.01 L115.43 111.76 L112.88 111.76 L112.878748566043 120.273961745587 A9.43 9.43 0 0 1 121.02918570468 128.254793074628 L121.03 128.25 L122.337345849871 128.255446491564 A34.56 34.56 0 0 1 122.85547144451 123.514000723696 L122.85 123.51 L124.016842799964 123.722846540866 A33.38 33.38 0 0 0 123.518311244156 128.255497496061 L123.51 128.25 L125.480084547627 128.255369906892 A31.42 31.42 0 1 1 184.482430278187 144.622334512419 L184.48 144.62 L186.163781540301 145.633086048295 A33.38 33.38 0 0 0 187.260352187161 143.437638970522 L187.26 143.44 L188.334652891443 143.925776244086 A34.56 34.56 0 0 1 142.313206938319 160.974750370028 L142.31 160.97 L134.95 175.31 L136.627640180366 178.831823987064 A1.26 1.26 0 0 0 137.663809287616 179.497694309181 L137.663601531532 179.511663845037 A3.1 3.1 0 0 1 139.202071698901 180.281558740569 L139.209463528173 180.281505392148 A1.71 1.71 0 0 1 138.139280068852 183.172565669707 L138.136645268692 183.162326604845 A47.04 47.04 0 0 1 123.543090525924 182.94871563409 L123.541224912534 182.950917711455 A1.55 1.55 0 0 1 123.779162564294 179.950431243504 L123.78 179.96 L131.788942228617 179.631055289791 A1.28 1.28 0 0 0 133.070755200202 177.760172793867 L133.07 177.76 L132.03 175.58 L71.6399999999999 175.58 L73.3328394587914 182.053608951639 A21.14 21.14 0 0 1 80.4576730627313 182.812017124566 L80.4499459040229 182.8229740683 A10.69 10.69 0 0 0 85.1100540959775 182.8229740683 L85.1149029916957 182.823348717003 A1.63 1.63 0 0 1 85.8808455325868 185.68440845712 L85.8835277395355 185.69749691044 A7.31 7.31 0 0 1 81.7344973437633 186.10749833783 L81.7349037793499 186.096132865213 A35.29 35.29 0 0 0 71.4093611335186 185.589106056179 L71.4099999999999 185.59 L65.391307370117 162.510939424759 A34.56 34.56 0 0 1 45.6060365729458 162.958389292684 L45.6100000000001 162.96 L45.9182739963297 161.820449139397 A33.38 33.38 0 0 0 65.0932754456525 161.367061191222 L65.0999999999999 161.37 L64.5985989776017 159.46657986731 A31.42 31.42 0 1 1 86.168767481837 129.351701738669 L86.1700000000001 129.35 Z M145.277059304065 155.205185747528 A28.08 28.08 0 0 0 180.200414781062 145.256200630468 L180.2 145.25 L161.589514606777 134.070335784197 A6.48 6.48 0 0 1 155.199046866547 135.890855822155 L155.2 135.89 Z M142.831756324028 153.949007267856 A28.08 28.08 0 0 1 128.823663095086 131.004549459307 L128.82 131 L150.537462915553 131.00454504259 A6.48 6.48 0 0 0 152.75373748361 134.634676103023 L152.75 134.63 Z M141.303843781823 156.923061033737 A31.42 31.42 0 0 1 125.48008531537 131.004647624544 L125.48 131 L123.51831062043 131.004487369423 A33.38 33.38 0 0 0 140.407565909986 158.668124316697 L140.4 158.67 Z M139.867880933794 159.718561734629 A34.56 34.56 0 0 1 122.337345490014 131.004544467808 L122.33 131 L121.029185896695 131.005205622772 A9.43 9.43 0 0 1 116.948586680555 137.464362632448 L116.95 137.46 L133.46 172.18 Z M184.75 147.99 L183.066142156603 146.978732982874 A31.42 31.42 0 0 1 143.749323370422 158.179330023348 L143.75 158.18 L142.852751498036 159.924242760534 A33.38 33.38 0 0 0 184.747667343296 147.98919561137 Z M58.4516300274467 131.857180984991 A4.32 4.32 0 0 0 58.7950213372654 131.146641810405 L58.8000000000002 131.14 L82.9313841571608 131.989658235112 A28.28 28.28 0 0 1 66.3826262137605 155.406741597241 L66.3899999999999 155.4 L62.614833780957 140.928351767355 A19.35 19.35 0 0 0 58.4529989657808 131.850159699062 Z M88.04 132.16 L86.0728187605626 132.099296436832 A31.42 31.42 0 0 1 67.1839529001728 158.485037953125 L67.1900000000001 158.48 L67.6827900487141 160.402834473865 A33.38 33.38 0 0 0 88.0334062157621 132.167571807175 Z M107.97 150.25 L115.43 150.25 L115.43 147.5 L112.88 147.5 L112.878752485091 138.98603776066 A9.43 9.43 0 0 0 114.464743850856 138.645602666442 L114.47 138.64 L130.73 172.83 L70.9200000000001 172.83 L70.04 169.42 L105.727436290409 136.927491537157 A9.43 9.43 0 0 0 110.521256006179 138.986038830458 L110.52 138.98 L110.52 147.5 L107.97 147.5 Z M181.616604669597 142.899964480988 A28.08 28.08 0 1 0 128.823662711241 128.255458372708 L128.82 128.25 L150.537462723631 128.2554558416 A6.48 6.48 0 1 1 163.005713270771 131.714087968125 L163 131.71 Z M56.3457149181811 133.644485508741 A4.32 4.32 0 1 1 58.8909645702362 128.399222835747 L58.8899999999999 128.4 L83.0273369359474 129.241907471209 A28.28 28.28 0 1 0 63.8056144250373 156.420935918423 L63.8099999999999 156.42 L59.9122338301379 141.440308207534 A16.72 16.72 0 0 0 56.3525666608844 133.640302978172 Z" style="fill:rgb(0,0,0);" />
<path d=" M344.13 228.4 L356.990011673634 228.390000000006 A10.29 10.29 0 0 1 367.279999999997 238.679991918253 L367.27 238.68 L367.279999999997 263.110008081747 A10.29 10.29 0 0 1 356.990011673634 273.399999999994 L344.13 273.4 Z M350.56 234.18 L356.340005026548 234.180000000003 A4.5 4.5 0 0 1 360.839999999999 238.679996387168 L360.839999999999 263.110003612832 A4.5 4.5 0 0 1 356.340005026548 267.609999999997 L350.56 267.61 Z" style="fill:rgb(0,0,0);" />
<path d=" M313.79 228.4 L313.79 273.4 L326.64001149404 273.399999999994 A10.29 10.29 0 0 0 336.929999999997 263.110008261342 L336.929999999997 258.610007183775 A10.29 10.29 0 0 0 328.574966721815 248.503566218222 L328.58 248.51 L337.83 228.4 L330.75 228.4 L321.59 248.33 L320.21 248.33 L320.21 228.4 Z M320.21 267.61 L326.000005105088 267.609999999997 A4.5 4.5 0 0 0 330.499999999999 263.110003534292 L330.499999999999 258.609996465708 A4.5 4.5 0 0 0 326.000005105088 254.110000000003 L320.21 254.11 Z" style="fill:rgb(0,0,0);" />
<path d=" M285.82 228.4 L285.82 273.4 L307.04 273.4 L307.04 267.61 L292.25 267.61 L292.25 253.79 L301.89 253.79 L301.89 248 L292.25 248 L292.25 234.18 L307.04 234.18 L307.04 228.4 Z" style="fill:rgb(0,0,0);" />
<path d=" M254.58 228.4 L267.44001149404 228.390000000006 A10.29 10.29 0 0 1 277.729999999997 238.679991738658 L277.72 238.68 L277.729999999997 263.110008261342 A10.29 10.29 0 0 1 267.44001149404 273.399999999994 L254.58 273.4 Z M261.01 234.18 L266.790005105088 234.180000000003 A4.5 4.5 0 0 1 271.289999999999 238.679996465708 L271.289999999999 263.110003534292 A4.5 4.5 0 0 1 266.790005105088 267.609999999997 L261.01 267.61 Z" style="fill:rgb(0,0,0);" />
<path d=" M222.44 228.4 L222.44 273.4 L229.19 273.4 L239.79 244.45 L239.79 273.4 L245.58 273.4 L245.58 228.4 L238.83 228.4 L228.22 257.34 L228.22 228.4 Z" style="fill:rgb(0,0,0);" />
<path d=" M191.19 239.33 L191.19 262.469997778719 A11.57 11.57 0 0 0 214.33 262.47000222128 L214.34 262.47 L214.33 239.33 A11.57 11.57 0 0 0 191.19 239.33 Z M197.62 238.68 L197.62 263.109999013191 A5.14 5.14 0 0 0 207.9 263.110000986809 L207.91 263.11 L207.9 238.68 A5.14 5.14 0 0 0 197.62 238.68 Z" style="fill:rgb(0,0,0);" />
<path d=" M161.75 228.4 L161.75 234.18 L177.17 267.61 L162.39 267.61 L162.39 273.4 L184.25 273.4 L184.25 267.61 L168.83 234.18 L184.89 234.18 L184.89 228.4 Z" style="fill:rgb(0,0,0);" />
<path d=" M135.14 228.4 L135.14 273.4 L156.35 273.4 L156.35 267.61 L141.56 267.61 L141.56 253.79 L151.21 253.79 L151.21 248 L141.56 248 L141.56 234.18 L156.35 234.18 L156.35 228.4 Z" style="fill:rgb(0,0,0);" />
<path d=" M120.61 248.33 L120.6 238.679999102901 A5.14 5.14 0 0 0 110.32 238.680000897099 L110.32 263.109999102901 A5.14 5.14 0 0 0 120.6 263.110000897099 L120.61 263.11 L120.61 262.47 L127.03 262.470001817411 A11.57 11.57 0 0 1 103.89 262.469998182588 L103.89 239.330001817411 A11.57 11.57 0 0 1 127.03 239.329998182589 L127.04 239.33 L127.04 254.11 L115.46 254.11 L115.46 248.33 Z" style="fill:rgb(0,0,0);" />
<path d=" M85.0599999999999 228.4 L85.0599999999999 267.61 L76.6999999999998 267.61 L76.6999999999998 273.4 L99.8400000000001 273.4 L99.8400000000001 267.61 L91.4899999999998 267.61 L91.4899999999998 228.4 Z" style="fill:rgb(0,0,0);" />
<path d=" M64.4200000000001 228.4 L70.8499999999999 228.4 L70.8499999999999 273.4 L64.4200000000001 273.4 Z" style="fill:rgb(0,0,0);" />
<path d=" M39.1599999999999 273.4 L39.1600000000003 238.680000897099 A5.14 5.14 0 0 1 49.4400000000001 238.679999102901 L49.4400000000001 273.4 L55.8699999999999 273.4 L55.87 239.329997778719 A11.57 11.57 0 1 0 32.7300000000004 239.33000222128 L32.73 273.4 Z" style="fill:rgb(0,0,0);" />
</g>
</svg>
