<?xml version="1.0" encoding="UTF-8"?>
<!DOCTYPE svg PUBLIC '-//W3C//DTD SVG 1.0//EN' 'http://www.w3.org/TR/2001/REC-SVG-20010904/DTD/svg10.dtd'>
<svg xmlns:xlink="http://www.w3.org/1999/xlink" xmlns="http://www.w3.org/2000/svg" width="400" height="400">
<!--Gegenereerd door de SIMaD-toepassing (http://www.dlw.be).-->
<g style="stroke:none;fill-rule:evenodd;" transform="matrix(1,0,0,-1,0,400)">
<path d=" M45 0 L354.999996858407 1.06581410364015E-13 A45 45 0 0 1 400 45.0000031415927 L399.999999999999 354.99999136062 A45 45 0 0 1 355.000003141593 400 L45.0000031415927 400 A45 45 0 0 1 1.06581410364015E-13 354.999996858407 L1.06581410364015E-13 45.0000031415927 A45 45 0 0 1 45.0000031415927 1.06581410364015E-13 Z" style="fill:rgb(255,255,255);stroke:rgb(0,0,0);" />
<path d=" M216.02 22 L224.27 22 L224.27 41.5 L234.88 41.5 L234.870018221237 41.5000000000138 A12 12 0 0 1 246.869999999999 53.4999951828913 L246.88 53.5 L246.88 55 L246.869999999989 55.0000163362818 A12 12 0 0 1 234.870006702064 66.9999999999981 L234.88 67 L216.02 67 L216.02 22 Z M224.27 49 L234.13 49 L234.120006832964 49.0000000000052 A4.5 4.5 0 0 1 238.62 53.4999981935842 L238.63 53.5 L238.63 55 L238.619999999996 55.0000062046455 A4.5 4.5 0 0 1 234.120002434734 59.4999999999993 L234.13 59.5 L224.27 59.5 L224.27 49 Z" style="fill:rgb(0,0,0);" />
<path d=" M196.63 11.0699999999997 L202.09 11.0699999999997 L208.52 22 L203.05 22 L196.63 11.0699999999997 Z" style="fill:rgb(0,0,0);" />
<path d=" M153.13 22 L161.72 22 L163.6 28.4200000000001 L178.65 28.4200000000001 L180.53 22 L189.13 22 L175.95 67 L166.3 67 L153.13 22 Z M165.8 35.9200000000001 L176.45 35.9200000000001 L171.13 54.1000000000004 L165.8 35.9200000000001 Z" style="fill:rgb(0,0,0);" />
<path d=" M362.5 125 L362.5 240 L377.5 240 L357.5 275 L337.5 240 L352.5 240 L352.5 125 Z" style="fill:rgb(0,0,0);" />
<path d=" M37.5 275 L37.5 160 L22.5 160 L42.5 125 L62.5 160 L47.5 160 L47.5 275 Z" style="fill:rgb(0,0,0);" />
<path d=" M176.37 160.07 L168.920194283492 159.902682278239 A11.67 11.67 0 0 0 160.82567026234 162.929664881101 L160.826911191164 162.933626391405 A27.17 27.17 0 0 0 152.361462326553 178.172072792761 L152.36 178.17 L144.368581178875 163.340771408289 A41.04 41.04 0 0 0 161.050054917309 111.671338060747 L161.05 111.67 L158.658817623979 112.742415851482 A38.42 38.42 0 1 0 110.028623057893 164.060657083625 L110.03 164.05 L110.033503912156 166.845403368056 A41.04 41.04 0 0 0 140.079748929422 165.556457652098 L140.08 165.55 L156.365392332276 200.884715396209 A7.05 7.05 0 0 0 159.348210848564 203.91901985865 L159.34 203.93 L160.515910306617 204.690965961114 A8.62 8.62 0 0 1 162.296522322501 206.245836289353 L162.296603325011 206.250281099173 A1.89 1.89 0 0 1 160.761292609245 209.376871141121 L160.761890428537 209.369404928739 A6.4 6.4 0 0 1 158.015236308659 208.570907542349 L158.009279099697 208.585179929397 A43.23 43.23 0 0 0 153.772497327951 206.518994695788 L153.773338829063 206.512362511805 A13.13 13.13 0 0 0 150.999427392687 205.688286954811 L150.996119873879 205.693795335082 A1.5 1.5 0 0 0 149.288546815364 206.75501479966 L149.29 206.75 L146.290674569923 214.67510595989 A58.63 58.63 0 0 1 151.727714341401 216.969873886031 L151.734350863885 216.962003125511 A14.16 14.16 0 0 0 157.396671778596 218.36140372069 L157.392012595072 218.366375888208 A5.97 5.97 0 0 0 161.28375435569 217.097962733668 L161.299269521096 217.104801537987 A40.76 40.76 0 0 1 164.744577966981 214.679967328008 L164.737796511773 214.672633160531 A10.37 10.37 0 0 1 168.578298579258 213.217269165493 L168.58 213.22 L168.579572531273 227.246683516641 A3.42 3.42 0 0 0 168.730278835941 232.725818044126 L168.720277616035 232.725817184672 A3.42 3.42 0 0 0 172.838955924151 232.590524090486 L172.841736282746 232.590453013185 A10.22 10.22 0 0 0 175.074770743937 230.075378861671 L175.07 230.07 L181.18 230.07 L181.18 228.07 L171.51 228.07 L171.509999999999 213.520006438869 A16.04 16.04 0 0 0 170.77449062066 208.718524514057 L170.776049764617 208.720908201377 A144.72 144.72 0 0 1 169.41650586226 204.121962019736 L169.42 204.12 L170.486685849244 203.391591706581 A0.79 0.79 0 0 0 170.744507346937 202.382551544817 L170.74 202.39 L161.51 183.31 L163.955947508258 180.205857896041 A0.96 0.96 0 0 1 165.081644876044 179.914855895286 L165.09 179.91 L165.651743257223 180.275468948174 A1.51 1.51 0 0 0 167.506711191651 180.08834538694 L167.512969008517 180.090435479658 A4.26 4.26 0 0 0 168.489732538321 178.664628279358 L168.481382596565 178.660676871152 A1.53 1.53 0 0 0 168.468652858579 177.449782150218 L168.463968442409 177.454256934033 A1.91 1.91 0 0 1 168.52812532591 175.774794177739 L168.54 175.78 L194.96 149 L224.140000375595 149 A5.38 5.38 0 0 1 229.436829789895 153.437665570573 L229.44 153.44 L238.33 190.74 L214.58 198.06 L214.58 200.28 L248.009999409381 200.28 A3.76 3.76 0 0 0 251.085093529549 194.356345733597 L251.084950655122 194.357292114414 A9.58 9.58 0 0 0 249.476775874111 192.589638593202 L249.48 192.59 L245.690864193024 189.535280618139 A3.58 3.58 0 0 1 244.568915768009 187.955068919533 L244.57 187.96 L242.35 177.53 L298.74753182969 177.550439268101 A2.4 2.4 0 0 1 301.764693521646 175.525445154338 L301.77 175.53 L306.07 175.53 L306.11 164.91 L304.05 164.91 L315 135.47 L312.210874475591 135.460488298325 A38.43 38.43 0 0 0 239.946686361054 110.850060836478 L239.95 110.85 L214.2 110.85 L214.2 102.69 L216.42 102.69 L216.42 99.7399999999998 L209.15 99.7399999999998 L209.15 102.69 L211.98 102.69 L211.974029972375 110.02132563963 A34.71 34.71 0 0 1 204.464693741449 108.525233058559 L204.47043784809 108.530134603756 A684.69 684.69 0 0 0 196.438018393663 106.036284812485 L196.431167299104 106.036360961503 A15.9 15.9 0 0 0 184.266057298114 107.253610161521 L184.267145961904 107.258288305239 A9.09 9.09 0 0 0 180.416636631525 111.261550486221 L180.412883911698 111.26191285758 A34.46 34.46 0 0 0 177.652538075045 133.582304836974 L177.653858290743 133.581602570799 A208.53 208.53 0 0 0 182.830946940868 153.197901829654 L182.83 153.19 Z M232.02 126.32 L233.523880593861 126.311531479105 A41.13 41.13 0 0 1 233.988328809163 121.125519254798 L233.99 121.13 L232.02 121.67 Z M224.49 114.8 L214.21 113.69 L214.21 116.67 L224.3 120.2 Z M266.953495587572 129.597577488551 A8 8 0 0 0 270.734496669911 134.361908316404 L270.74 134.36 L268.016308772677 159.575708014036 A32.87 32.87 0 0 1 241.844788157086 129.59607314373 L241.84 129.6 Z M241.79 126.32 L266.711767685504 126.310826315613 A8 8 0 0 1 272.690402950151 119.621193948602 L272.69 119.63 L243.45419272103 116.993358369571 A32.87 32.87 0 0 0 241.787355259608 126.311995523597 Z M234.57 147.13 L241.6 174.54 L246.051481122177 174.536497530047 A22.03 22.03 0 0 1 251.155399190368 165.96565077972 L251.16123515203 165.967252569066 A3.41 3.41 0 0 1 253.622940493184 164.920001267815 L253.62 164.92 L257.82473457446 164.915633052723 A41.13 41.13 0 0 1 233.569759240956 129.596353761063 L233.57 129.6 L231.94 129.59 L231.945691779025 142.690670712076 A0.95 0.95 0 0 1 232.682040210288 143.086417202491 L232.679613898696 143.07745753665 A12.12 12.12 0 0 1 234.569565203823 147.12719253433 Z M131.24 129.59 L156.02387106592 129.585314794065 A32.64 32.64 0 0 1 140.416921339267 155.915287814534 L140.41 155.91 L129.217384067752 133.519116745049 A7.97 7.97 0 0 0 131.239653649138 129.590752026617 Z M306.619952202074 153.244252495541 A41.13 41.13 0 0 1 291.454407213442 164.916017503999 L291.46 164.92 L302.17 164.92 Z M180.73 124.21 L187.641727906362 122.194569790376 A17.22 17.22 0 0 1 190.402269100238 113.460289660396 L190.401561762018 113.457926575834 A12.06 12.06 0 0 1 194.554619160089 109.538691330048 L194.551031972423 109.543014619269 A6.21 6.21 0 0 0 188.799975747149 109.714988223274 L188.802823447604 109.713872037437 A20.34 20.34 0 0 0 182.16327496687 115.691415128738 L182.157471151269 115.6894489589 A9.93 9.93 0 0 0 180.728410260586 124.214546110142 Z M289.86 110.85 L246.228493947753 110.85053467764 A32.87 32.87 0 1 1 273.119954159841 160.214834560933 L273.12 160.22 L275.745705046778 135.303220074536 A8 8 0 0 0 277.953204278421 120.098332786411 L277.95 120.11 L289.737901988907 121.165655779549 A1.98 1.98 0 0 0 291.47443162361 119.348390578172 L291.48 119.34 L291.947761321309 113.112574145466 A2.03 2.03 0 0 0 289.867192804832 110.860971844396 Z M211.961119196827 113.364873725438 A39.07 39.07 0 0 1 201.605305886829 110.895786886494 L201.6 110.89 L211.94 115.45 Z M126.72 135.3 L136.539389729333 157.937308562831 A32.64 32.64 0 1 1 156.013080337554 126.300510328767 L156.01 126.3 L131.195483611865 126.299927258195 A7.97 7.97 0 1 0 126.726429855294 135.301787477031 Z" style="fill:rgb(0,0,0);" />
<path d=" M175.339081574997 298.827619843812 A46.54 46.54 0 0 0 174.884415438255 292.623981703046 L174.88 292.62 L176.508358620057 292.395052581614 A48.18 48.18 0 0 1 147.248647575864 343.627974595813 L147.25 343.62 L149.01 350.4 L197.277559075659 306.454601685931 A13.14 13.14 0 0 1 206.537493579223 286.083061223673 L206.54 286.08 L206.54 274.21 L202.98 274.21 L202.98 270.38 L213.38 270.38 L213.38 274.21 L209.82 274.21 L209.822498001889 286.083060162991 A13.14 13.14 0 0 1 221.17952281649 297.203751961888 L221.18 297.2 L222.998122773344 297.203738772094 A48.18 48.18 0 0 1 223.720440076781 290.593703225419 L223.72 290.59 L225.334549691689 290.883961992992 A46.54 46.54 0 0 0 224.639472930483 297.203601748828 L224.64 297.2 L227.38193835729 297.203742900123 A43.8 43.8 0 1 1 309.632184792635 320.019562432971 L309.63 320.02 L311.974022021276 321.427477346529 A46.53 46.53 0 0 0 313.50258499906 318.367137246806 L313.51 318.37 L315.004785194148 319.049701951391 A48.18 48.18 0 0 1 250.846415228246 342.817629422105 L250.85 342.81 L240.58 362.79 L242.926227539099 367.716674748464 A1.76 1.76 0 0 0 244.373574847279 368.64677935065 L244.377224074688 368.652162725487 A4.33 4.33 0 0 1 246.526119502013 369.72753204731 L246.521183213911 369.725837973949 A2.38 2.38 0 0 1 245.031687966329 373.749652811191 L245.033075756081 373.748100508237 A65.57 65.57 0 0 1 224.690825803249 373.450344050324 L224.688868229433 373.459794992462 A2.16 2.16 0 0 1 225.020445896047 369.278471926431 L225.02 369.28 L236.179935255821 368.817561258699 A1.78 1.78 0 0 0 237.96245645028 366.215865291472 L237.97 366.22 L236.52 363.17 L152.34 363.17 L154.688706265657 372.210771982747 A29.46 29.46 0 0 1 164.617637106342 373.267664356183 L164.622310006542 373.271750572279 A14.9 14.9 0 0 0 171.117689993458 373.271750572279 L171.114526805642 373.272659541649 A2.28 2.28 0 0 1 172.185906695787 377.274632637667 L172.182304906903 377.273761015854 A10.19 10.19 0 0 1 166.398636181391 377.845295288005 L166.402785970706 377.842447595348 A49.19 49.19 0 0 0 152.010226815246 377.135713344885 L152.01 377.13 L143.635016245448 344.959226575034 A48.18 48.18 0 0 1 116.05242517531 345.583014711584 L116.05 345.58 L116.489029030834 343.99182739533 A46.53 46.53 0 0 0 143.21799300438 343.359827957686 L143.22 343.36 L142.529109968776 340.712686129478 A43.8 43.8 0 1 1 172.598281849283 298.732047617877 L172.59 298.73 Z M254.980893915994 334.768602925863 A39.14 39.14 0 0 0 303.6596735944 320.900964838906 L303.66 320.9 L277.716731002963 305.307690143718 A9.03 9.03 0 0 1 268.811496017231 307.844618570587 L268.81 307.85 Z M251.57244809553 333.017647594868 A39.14 39.14 0 0 1 232.046922134675 301.03594963808 L232.04 301.04 L262.315492236756 301.035453663353 A9.03 9.03 0 0 0 265.403911712885 306.094108628522 L265.4 306.1 Z M249.440520612471 337.166978780321 A43.8 43.8 0 0 1 227.381939427537 301.036281538989 L227.38 301.04 L224.649463546094 301.035964568581 A46.53 46.53 0 0 0 248.192215152536 339.597649025042 L248.19 339.6 Z M247.437393037911 341.066380334908 A48.18 48.18 0 0 1 222.99812227167 301.036248624392 L223 301.04 L221.179523084048 301.036246223036 A13.14 13.14 0 0 1 215.493513147667 310.036598620399 L215.49 310.04 L238.51 358.44 Z M310 324.71 L307.657855711623 323.304420899105 A43.8 43.8 0 0 1 252.849559631588 338.91823854305 L252.85 338.92 L251.600677130066 341.348613069629 A46.53 46.53 0 0 0 310.000031353326 324.711773350405 Z M133.958289775278 302.223618306794 A6.02 6.02 0 0 0 134.436811993734 301.233468842282 L134.44 301.23 L168.082537605208 302.409170000993 A39.42 39.42 0 0 1 145.014926638842 335.0506631458 L145.01 335.05 L139.756473750512 314.877857734655 A26.97 26.97 0 0 0 133.955714537636 302.224687341806 Z M175.2 302.66 L172.464527743878 302.562240099721 A43.8 43.8 0 0 1 146.133136124366 339.344400456616 L146.13 339.34 L146.8276429289 342.01574559823 A46.53 46.53 0 0 0 175.195353242043 302.657244343554 Z M202.98 327.86 L213.38 327.86 L213.38 324.03 L209.82 324.03 L209.822503235252 312.156939177667 A13.14 13.14 0 0 0 212.032463860047 311.682568296611 L212.03 311.68 L234.7 359.34 L151.34 359.34 L150.1 354.59 L199.857678987909 309.288508886346 A13.14 13.14 0 0 0 206.537508369162 312.156940639683 L206.54 312.16 L206.54 324.03 L202.98 324.03 Z M305.633664770941 317.616667015166 A39.14 39.14 0 1 0 232.046921599643 297.204061278767 L232.04 297.2 L262.31549203617 297.204547260747 A9.03 9.03 0 1 1 279.690230067139 302.024215177804 L279.69 302.02 Z M131.0236583864 304.714259859945 A6.02 6.02 0 1 1 134.570510783219 297.404889128728 L134.57 297.4 L168.216287916622 298.579031540668 A39.42 39.42 0 1 0 141.422783615098 336.464366828297 L141.42 336.46 L135.988520967734 315.582899779761 A23.31 23.31 0 0 0 131.025851008685 304.708610192654 Z" style="fill:rgb(0,0,0);" />
</g>
</svg>
