<?xml version="1.0" encoding="UTF-8"?>
<!DOCTYPE svg PUBLIC '-//W3C//DTD SVG 1.0//EN' 'http://www.w3.org/TR/2001/REC-SVG-20010904/DTD/svg10.dtd'>
<svg xmlns:xlink="http://www.w3.org/1999/xlink" xmlns="http://www.w3.org/2000/svg" width="400.000000000002" height="300">
<!--Gegenereerd door de SIMaD-toepassing (http://www.dlw.be).-->
<g style="stroke:none;fill-rule:evenodd;" transform="matrix(1,0,0,-1,0,300)">
<path d=" M45 0 L354.999996858407 1.06581410364015E-13 A45 45 0 0 1 400 45.0000031415927 L399.999999999999 254.99999136062 A45 45 0 0 1 355.000003141593 300 L45.0000031415927 300 A45 45 0 0 1 1.06581410364015E-13 254.999996858407 L1.06581410364015E-13 45.0000031415927 A45 45 0 0 1 45.0000031415927 1.06581410364015E-13 Z" style="fill:rgb(255,255,255);stroke:rgb(0,0,0);" />
<path d=" M39.1599999999999 255.9 L39.1600000000003 221.190000897099 A5.14 5.14 0 0 1 49.4400000000001 221.189999102901 L49.4400000000001 255.9 L55.8699999999999 255.9 L55.87 221.829997778719 A11.57 11.57 0 1 0 32.7300000000004 221.830002221281 L32.73 255.9 Z" style="fill:rgb(0,0,0);" />
<path d=" M64.4200000000001 210.9 L70.8499999999999 210.9 L70.8499999999999 255.9 L64.4200000000001 255.9 Z" style="fill:rgb(0,0,0);" />
<path d=" M85.0599999999999 210.9 L85.0599999999999 250.12 L76.6999999999998 250.12 L76.6999999999998 255.9 L99.8400000000001 255.9 L99.8400000000001 250.12 L91.4899999999998 250.12 L91.4899999999998 210.9 Z" style="fill:rgb(0,0,0);" />
<path d=" M120.61 230.83 L120.6 221.189999102901 A5.14 5.14 0 0 0 110.32 221.190000897099 L110.32 245.619999102901 A5.14 5.14 0 0 0 120.6 245.620000897099 L120.61 245.62 L120.61 244.97 L127.03 244.970001817411 A11.57 11.57 0 0 1 103.89 244.969998182589 L103.89 221.830001817411 A11.57 11.57 0 0 1 127.03 221.829998182589 L127.04 221.83 L127.04 236.62 L115.46 236.62 L115.46 230.83 Z" style="fill:rgb(0,0,0);" />
<path d=" M135.14 210.9 L135.14 255.9 L156.35 255.9 L156.35 250.12 L141.56 250.12 L141.56 236.29 L151.21 236.29 L151.21 230.51 L141.56 230.51 L141.56 216.69 L156.35 216.69 L156.35 210.9 Z" style="fill:rgb(0,0,0);" />
<path d=" M161.75 210.9 L161.75 216.69 L177.17 250.12 L162.39 250.12 L162.39 255.9 L184.25 255.9 L184.25 250.12 L168.83 216.69 L184.89 216.69 L184.89 210.9 Z" style="fill:rgb(0,0,0);" />
<path d=" M191.19 221.83 L191.19 244.969997778719 A11.57 11.57 0 0 0 214.33 244.970002221281 L214.34 244.97 L214.33 221.83 A11.57 11.57 0 0 0 191.19 221.83 Z M197.62 221.19 L197.62 245.619999013191 A5.14 5.14 0 0 0 207.9 245.620000986809 L207.91 245.62 L207.9 221.19 A5.14 5.14 0 0 0 197.62 221.19 Z" style="fill:rgb(0,0,0);" />
<path d=" M222.44 210.9 L222.44 255.9 L229.19 255.9 L239.79 226.95 L239.79 255.9 L245.58 255.9 L245.58 210.9 L238.83 210.9 L228.22 239.85 L228.22 210.9 Z" style="fill:rgb(0,0,0);" />
<path d=" M254.58 210.9 L267.44001149404 210.900000000006 A10.29 10.29 0 0 1 277.729999999997 221.189991738659 L277.72 221.19 L277.729999999997 245.620008261342 A10.29 10.29 0 0 1 267.44001149404 255.909999999994 L267.44 255.9 L254.58 255.9 Z M261.01 216.69 L266.790005105088 216.690000000003 A4.5 4.5 0 0 1 271.289999999999 221.189996465708 L271.289999999999 245.620003534292 A4.5 4.5 0 0 1 266.790005105088 250.119999999997 L261.01 250.12 Z" style="fill:rgb(0,0,0);" />
<path d=" M285.82 210.9 L285.82 255.9 L307.04 255.9 L307.04 250.12 L292.25 250.12 L292.25 236.29 L301.89 236.29 L301.89 230.51 L292.25 230.51 L292.25 216.69 L307.04 216.69 L307.04 210.9 Z" style="fill:rgb(0,0,0);" />
<path d=" M313.79 210.9 L313.79 255.9 L326.64001149404 255.909999999994 A10.29 10.29 0 0 0 336.929999999997 245.620008261342 L336.929999999997 241.120007183775 A10.29 10.29 0 0 0 328.574966545425 231.01356618445 L328.58 231.01 L337.83 210.9 L330.75 210.9 L321.59 230.83 L320.21 230.83 L320.21 210.9 Z M320.21 250.12 L326.000005105088 250.119999999997 A4.5 4.5 0 0 0 330.499999999999 245.620003534292 L330.499999999999 241.119996465708 A4.5 4.5 0 0 0 326.000005105088 236.620000000003 L320.21 236.62 Z" style="fill:rgb(0,0,0);" />
<path d=" M344.13 210.9 L356.990011673634 210.900000000007 A10.29 10.29 0 0 1 367.279999999997 221.189991918253 L367.27 221.19 L367.279999999997 245.620008081747 A10.29 10.29 0 0 1 356.990011673634 255.909999999993 L356.99 255.9 L344.13 255.9 Z M350.56 216.69 L356.340005026548 216.690000000003 A4.5 4.5 0 0 1 360.839999999999 221.189996387168 L360.839999999999 245.620003612832 A4.5 4.5 0 0 1 356.340005026548 250.119999999997 L350.56 250.12 Z" style="fill:rgb(0,0,0);" />
<path d=" M175.339081574998 87.6076198438122 A46.54 46.54 0 0 0 174.884415324878 81.403980898721 L174.88 81.4 L176.508358620057 81.1750525816138 A48.18 48.18 0 0 1 147.248647575865 132.407974595813 L147.25 132.4 L149.01 139.18 L197.277559075659 95.2346016859309 A13.14 13.14 0 0 1 206.537493579223 74.8630612236727 L206.54 74.86 L206.54 62.99 L202.98 62.99 L202.98 59.15 L213.38 59.15 L213.38 62.99 L209.82 62.99 L209.822497774351 74.863060134324 A13.14 13.14 0 0 1 221.179522816489 85.9837519618885 L221.18 85.98 L222.998122773344 85.9837387720939 A48.18 48.18 0 0 1 223.720440076781 79.3737032254187 L223.72 79.37 L225.334549691689 79.6639619929918 A46.54 46.54 0 0 0 224.639472930483 85.9836017488283 L224.64 85.98 L227.38193835729 85.9837429001227 A43.8 43.8 0 1 1 309.632184792635 108.799562432971 L309.63 108.8 L311.974021631937 110.207478059217 A46.53 46.53 0 0 0 313.502584663134 107.147137986173 L313.51 107.15 L315.004785194148 107.829701951391 A48.18 48.18 0 0 1 250.846415228246 131.597629422105 L250.85 131.59 L240.58 151.57 L242.9262275391 156.496674748464 A1.76 1.76 0 0 0 244.373574847279 157.426779350649 L244.377224074688 157.422162725487 A4.33 4.33 0 0 1 246.526119502014 158.49753204731 L246.521183185041 158.505837944084 A2.38 2.38 0 0 1 245.031688007687 162.529652807322 L245.033075756081 162.528100508237 A65.57 65.57 0 0 1 224.690825803249 162.230344050325 L224.688868265208 162.22979500435 A2.16 2.16 0 0 1 225.020445896047 158.048471926432 L225.02 158.06 L236.179935255821 157.597561258699 A1.78 1.78 0 0 0 237.96245645028 154.995865291472 L237.97 154.99 L236.52 151.95 L152.34 151.95 L154.688706265657 160.990771982747 A29.46 29.46 0 0 1 164.617637106342 162.047664356183 L164.622310006542 162.05175057228 A14.9 14.9 0 0 0 171.117689993458 162.05175057228 L171.114526805642 162.042659541649 A2.28 2.28 0 0 1 172.185906695787 166.044632637666 L172.182304906903 166.053761015854 A10.19 10.19 0 0 1 166.398636006766 166.625295254296 L166.402785970706 166.612447595348 A49.19 49.19 0 0 0 152.010225960833 165.905713428831 L152.01 165.91 L143.635016245448 133.739226575034 A48.18 48.18 0 0 1 116.05242517531 134.363014711584 L116.05 134.36 L116.489029030834 132.771827395331 A46.53 46.53 0 0 0 143.21799300438 132.139827957686 L143.22 132.14 L142.529109968777 129.492686129478 A43.8 43.8 0 1 1 172.598281849283 87.5120476178769 L172.59 87.51 Z M131.0236583864 93.4942598599452 A6.02 6.02 0 1 1 134.570510783219 86.1848891287285 L134.57 86.1799999999999 L168.21628790718 87.359030852724 A39.42 39.42 0 1 0 141.422783615098 125.244366828297 L141.42 125.24 L135.988520967735 104.362899779761 A23.31 23.31 0 0 0 131.025851008686 93.4886101926543 Z M305.633664770941 106.396667015167 A39.14 39.14 0 1 0 232.046921599643 85.9840612787668 L232.04 85.98 L262.315492069601 85.9845471067307 A9.03 9.03 0 1 1 279.690230067139 90.8042151778041 L279.69 90.7999999999999 Z M202.98 116.64 L213.38 116.64 L213.38 112.81 L209.82 112.81 L209.822503917864 100.936939091666 A13.14 13.14 0 0 0 212.032464298563 100.462568162135 L212.03 100.46 L234.7 148.12 L151.34 148.12 L150.1 143.37 L199.857678987909 98.0685088863464 A13.14 13.14 0 0 0 206.537508369162 100.936940639683 L206.54 100.93 L206.54 112.81 L202.98 112.81 Z M175.2 91.4299999999999 L172.464527743878 91.3422400997207 A43.8 43.8 0 0 1 146.133136124366 128.124400456616 L146.13 128.12 L146.8276429289 130.79574559823 A46.53 46.53 0 0 0 175.195353242044 91.4372443435542 Z M133.958289775278 91.0036183067937 A6.02 6.02 0 0 0 134.436811993734 90.0134688422821 L134.44 90.01 L168.082537605208 91.1891700009933 A39.42 39.42 0 0 1 145.014926638842 123.8306631458 L145.01 123.83 L139.756473750512 103.657857734655 A26.97 26.97 0 0 0 133.955714537636 91.0046873418058 Z M310 113.49 L307.657855711623 112.084420899105 A43.8 43.8 0 0 1 252.849559631587 127.69823854305 L252.85 127.69 L251.600677867094 130.128613410655 A46.53 46.53 0 0 0 310.000031799986 113.49177267217 Z M247.437393037911 129.846380334908 A48.18 48.18 0 0 1 222.998122271669 89.816248624392 L223 89.8099999999999 L221.179523084048 89.8162462230357 A13.14 13.14 0 0 1 215.493513147667 98.8165986203993 L215.49 98.8099999999999 L238.51 147.22 Z M249.440519948426 125.946978401594 A43.8 43.8 0 0 1 227.381939427537 89.816281538989 L227.38 89.8099999999999 L224.649463546094 89.8159645685811 A46.53 46.53 0 0 0 248.192215152536 128.377649025042 L248.19 128.38 Z M251.57244809553 121.797647594868 A39.14 39.14 0 0 1 232.046922134675 89.81594963808 L232.04 89.8099999999999 L262.315492236756 89.8154536633528 A9.03 9.03 0 0 0 265.403911712885 94.8741086285219 L265.4 94.87 Z M254.980893915994 123.548602925863 A39.14 39.14 0 0 0 303.6596735944 109.680964838907 L303.66 109.68 L277.716731002963 94.0876901437183 A9.03 9.03 0 0 1 268.811496017231 96.6246185705868 L268.81 96.62 Z" style="fill:rgb(0,0,0);" />
</g>
</svg>
