<?xml version="1.0" encoding="UTF-8"?>
<!DOCTYPE svg PUBLIC '-//W3C//DTD SVG 1.0//EN' 'http://www.w3.org/TR/2001/REC-SVG-20010904/DTD/svg10.dtd'>
<svg xmlns:xlink="http://www.w3.org/1999/xlink" xmlns="http://www.w3.org/2000/svg" width="700.000000002976" height="400.000000000025">
<!--Gegenereerd door de SIMaD-toepassing (http://www.dlw.be).-->
<g style="stroke:none;fill-rule:evenodd;" transform="matrix(1,0,0,-1,0,400.000000000025)">
<path d=" M45 0 L654.999966227879 1.26760824059602E-11 A45 45 0 0 1 699.999999999987 45.000033772121 L699.999999999888 354.999899469035 A45 45 0 0 1 655.000033772121 399.999999999987 L45.000033772121 399.999999999987 A45 45 0 0 1 1.26760824059602E-11 354.999966227879 L1.26760824059602E-11 45.000033772121 A45 45 0 0 1 45.000033772121 1.26760824059602E-11 Z" style="fill:rgb(255,255,255);stroke:rgb(0,0,0);" />
<path d=" M602.87 285 L628.010017872172 285.00000000001 A16 16 0 0 1 644.009999999995 300.999987154377 L644.009999999995 329.000012845623 A16 16 0 0 1 628.010017872172 344.99999999999 L602.87 345 Z M613.87 295 L627.010006806784 295.000000000004 A6 6 0 0 1 633.009999999998 300.999995287611 L633.009999999998 329.000004712389 A6 6 0 0 1 627.010006806784 334.999999999996 L613.87 335 Z" style="fill:rgb(0,0,0);" />
<path d=" M547.5 285 L558.5 285 L558.5 311 L564.29 311 L579.36 285 L592.07 285 L576.70062438766 311.523846421596 A16 16 0 0 1 588.639999999995 327.000012845623 L588.639999999995 329.000012845623 A16 16 0 0 1 572.640017872171 344.99999999999 L547.5 345 Z M558.5 321 L571.640006806784 321.000000000004 A6 6 0 0 1 577.639999999998 326.999995287611 L577.639999999998 329.000004712389 A6 6 0 0 1 571.640006806784 334.999999999996 L558.5 335 Z" style="fill:rgb(0,0,0);" />
<path d=" M333.81 325.63 L333.82 304.370003231128 A20.57 20.57 0 0 1 374.96 304.369996768872 L374.96 325.63 A20.57 20.57 0 0 1 333.82 325.63 Z M344.81 326.63 L344.82 303.370001336224 A9.57 9.57 0 0 1 363.96 303.369998663776 L363.96 326.63 A9.57 9.57 0 0 1 344.82 326.63 Z" style="fill:rgb(0,0,0);" />
<path d=" M388.16 285 L398.16 285 L398.16 324.85 L416.44 285 L429.3 285 L429.3 345 L419.3 345 L419.3 305.15 L401.01 345 L388.16 345 Z" style="fill:rgb(0,0,0);" />
<path d=" M444.3 285 L469.440017872172 285.00000000001 A16 16 0 0 1 485.439999999995 300.999987154377 L485.439999999995 329.000012845623 A16 16 0 0 1 469.440017872172 344.99999999999 L444.3 345 Z M455.3 295 L468.440006806784 295.000000000004 A6 6 0 0 1 474.439999999998 300.999995287611 L474.439999999998 329.000004712389 A6 6 0 0 1 468.440006806784 334.999999999996 L455.3 335 Z" style="fill:rgb(0,0,0);" />
<path d=" M281.27 285 L322.41 285 L322.41 295 L293.81 295 L321.21 335 L321.21 345 L282.47 345 L282.47 335 L308.67 335 L281.27 295 Z" style="fill:rgb(0,0,0);" />
<path d=" M235.41 285 L272.27 285 L272.27 295 L246.41 295 L246.41 311 L263.7 311 L263.7 321 L246.41 321 L246.41 335 L272.27 335 L272.27 345 L235.41 345 Z" style="fill:rgb(0,0,0);" />
<path d=" M147.8 285 L158.8 285 L158.8 335 L173.87 335 L173.87 345 L132.73 345 L132.73 335 L147.8 335 Z" style="fill:rgb(0,0,0);" />
<path d=" M211.21 303.37 L211.21 311 L201.64 311 L201.64 321 L222.21 321 L222.21 304.369996409858 A20.57 20.57 0 0 0 181.07 304.370003590142 L181.07 325.630001436057 A20.57 20.57 0 0 0 221.49639904747 331.001062917862 L221.5 331 L210.153588334527 331.000779526606 A9.57 9.57 0 0 1 192.07 326.629997160524 L192.07 303.370001336224 A9.57 9.57 0 0 1 211.21 303.369998663776 Z" style="fill:rgb(0,0,0);" />
<path d=" M110.93 285 L121.93 285 L121.93 345 L110.93 345 Z" style="fill:rgb(0,0,0);" />
<path d=" M55.99 345 L55.9900000000002 304.370003231128 A20.57 20.57 0 0 1 97.1299999999998 304.369996768872 L97.13 345 L86.13 345 L86.1299999999999 303.36999832972 A9.57 9.57 0 0 0 66.9900000000002 303.37000167028 L66.99 345 Z" style="fill:rgb(0,0,0);" />
<path d=" M498.64 285 L535.5 285 L535.5 295 L509.64 295 L509.64 311 L526.93 311 L526.93 321 L509.64 321 L509.64 335 L535.5 335 L535.5 345 L498.64 345 Z" style="fill:rgb(0,0,0);" />
<path d=" M495.2 141.14 L485.815359133496 140.933380789015 A14.71 14.71 0 0 0 475.612255396243 144.748874867541 L475.611165896551 144.754267212718 A34.26 34.26 0 0 0 464.936661733813 163.969179752667 L464.93 163.97 L454.855393208103 145.260443836678 A51.75 51.75 0 0 0 475.890164839916 80.1070496861869 L475.89 80.11 L472.869161308484 81.4601755079292 A48.44 48.44 0 1 0 411.556132813726 146.162297616269 L411.56 146.16 L411.560071666775 149.679633271982 A51.75 51.75 0 0 0 449.447388563305 148.054313883916 L449.44 148.05 L469.975157396364 192.608519542908 A8.89 8.89 0 0 0 473.736461127878 196.434746594279 L473.74 196.44 L475.209480149367 197.399263156966 A10.87 10.87 0 0 1 477.454855911363 199.359976194025 L477.464011475244 199.362312978561 A2.39 2.39 0 0 1 475.522533582175 203.316043374285 L475.52583444678 203.306640139612 A8.07 8.07 0 0 1 472.062478396201 202.299785390471 L472.049028039556 202.301193092682 A54.51 54.51 0 0 0 466.70680212005 199.69590701739 L466.712609806999 199.701261328526 A16.55 16.55 0 0 0 463.21618444255 198.662540992551 L463.217084422971 198.650140622456 A1.9 1.9 0 0 0 461.054159446249 199.994351569698 L461.06 200 L457.283104768353 209.987634895072 A73.93 73.93 0 0 1 464.138932819259 212.881220368355 L464.1458792923 212.884092440553 A17.86 17.86 0 0 0 471.287775050383 214.649157854422 L471.287661894613 214.645428806285 A7.53 7.53 0 0 0 476.196343950663 213.045570680714 L476.193921854927 213.041880302101 A51.4 51.4 0 0 1 480.538594043242 209.984067807363 L480.539995019335 209.987304547755 A13.07 13.07 0 0 1 485.380444466306 208.153008709796 L485.38 208.15 L485.377768688109 225.838390942798 A4.31 4.31 0 0 0 485.567692793605 232.743386287803 L485.567692793605 232.753386287803 A4.31 4.31 0 0 0 490.758184686387 232.582884684032 L490.759419919541 232.57753693421 A12.89 12.89 0 0 0 493.575857113346 229.405374787786 L493.57 229.41 L501.27 229.41 L501.27 226.88 L489.08 226.88 L489.08 208.54 A20.22 20.22 0 0 0 488.152820300998 202.487274594583 L488.147088897389 202.481216075773 A182.47 182.47 0 0 1 486.432847419272 196.682430894056 L486.44 196.69 L487.779770332812 195.756552003551 A0.99 0.99 0 0 0 488.102863308942 194.492057617852 L488.11 194.5 L476.47 170.44 L479.5595791752 166.531134020144 A1.21 1.21 0 0 1 480.978427454263 166.164349642543 L480.98 166.16 L481.702987588217 166.614894312495 A1.9 1.9 0 0 0 484.037053769507 166.379441261328 L484.042409999447 166.390473329713 A5.37 5.37 0 0 0 485.273675701871 164.593161122705 L485.270371393659 164.585102476604 A1.93 1.93 0 0 0 485.254314460347 163.057635324793 L485.246033933574 163.062888945035 A2.4 2.4 0 0 1 485.326650160182 160.952567604408 L485.33 160.95 L518.65 127.19 L555.439999881667 127.19 A6.78 6.78 0 0 1 562.115186880658 132.782447850284 L562.12 132.78 L573.33 179.82 L543.39 189.04 L543.39 191.85 L585.539999917271 191.84 A4.74 4.74 0 0 0 589.416581101337 184.372415177349 L589.419557748872 184.368687988106 A12.08 12.08 0 0 0 587.391722673585 182.139757570897 L587.39 182.14 L582.61658946245 178.288829537851 A4.51 4.51 0 0 1 581.203187474062 176.298118364797 L581.2 176.3 L578.4 163.15 L649.522060892052 163.175636026703 A3.02 3.02 0 0 1 653.318656065571 160.627518499814 L653.32 160.63 L658.74 160.63 L658.8 147.24 L656.2 147.24 L670 110.12 L666.496653546361 110.119420923098 A48.46 48.46 0 0 0 575.371950779146 79.0858212114341 L575.37 79.09 L542.91 79.09 L542.91 68.79 L545.71 68.79 L545.71 65.07 L536.53 65.07 L536.53 68.79 L540.1 68.79 L540.104614931807 78.0477375621371 A43.77 43.77 0 0 1 530.635226191568 76.1611416698974 L530.62994138211 76.1612789515198 A863.31 863.31 0 0 0 520.502032477245 73.016836443677 L520.507325046107 73.0155067096622 A20.05 20.05 0 0 0 505.167037726317 74.5504660463943 L505.172665248026 74.5520373318009 A11.46 11.46 0 0 0 500.318239272278 79.5990416463424 L500.30931772158 79.5974686520439 A43.45 43.45 0 0 0 496.828854915121 107.74078991418 L496.831830774671 107.738243434933 A262.93 262.93 0 0 0 503.359513427509 132.472021712994 L503.36 132.47 Z M555.88 84.06 L542.92 82.66 L542.92 86.42 L555.64 90.87 Z M500.71 95.93 L509.424785697856 93.3788905292863 A21.71 21.71 0 0 1 512.905121815856 82.3671970838078 L512.90706911119 82.3694042690246 A15.2 15.2 0 0 1 518.141453401164 77.429721538093 L518.138250819212 77.4355368311735 A7.83 7.83 0 0 0 510.886932257778 77.6523729097483 L510.883397604381 77.6436360514651 A25.65 25.65 0 0 0 502.510493594631 85.1817073933775 L502.504116803346 85.1821736334506 A12.52 12.52 0 0 0 500.702323415456 95.9308189228873 Z M540.080309632027 82.2465893794271 A49.26 49.26 0 0 1 527.023574993472 79.1335351991805 L527.02 79.13 L540.05 84.89 Z M614.19 108.73 L610.767314572672 140.529693916976 A41.45 41.45 0 0 1 577.764311347757 102.724551144416 L577.76 102.72 L609.435005269382 102.724150509171 A10.08 10.08 0 0 0 614.199065036387 108.727204049236 Z M659.442895024466 132.541711651582 A51.86 51.86 0 0 1 640.320945448334 147.25842182132 L640.32 147.26 L653.83 147.25 Z M577.69 98.58 L609.130426954563 98.5828435985857 A10.08 10.08 0 0 1 616.663508911565 90.1539040751207 L616.66 90.15 L579.793803928335 86.8321832913659 A41.45 41.45 0 0 0 577.691886507671 98.5831843234015 Z M565.37 98.58 L567.277500565922 98.582835411835 A51.86 51.86 0 0 1 567.863120937248 92.0438127877637 L567.86 92.04 L565.37 92.72 Z M568.59 124.83 L577.46 159.38 L583.063324128913 159.379415403255 A27.78 27.78 0 0 1 589.499376988426 148.571557419672 L589.499507909205 148.580579117527 A4.3 4.3 0 0 1 592.603704200825 147.260001595478 L592.61 147.25 L597.917974927097 147.257938184628 A51.86 51.86 0 0 1 567.335348703358 102.724546490074 L567.33 102.72 L565.28 102.71 L565.275085043116 119.220847241221 A1.2 1.2 0 0 1 566.205208552431 119.720737331708 L566.207655567615 119.726055357086 A15.28 15.28 0 0 1 568.590379380776 124.83168850868 Z M638.31 79.09 L583.292285922123 79.085878431705 A41.45 41.45 0 1 1 617.203177020488 141.335655286026 L617.2 141.33 L620.513184351404 109.913257853176 A10.08 10.08 0 0 0 623.294634028033 90.7550977807942 L623.29 90.75 L638.160382945176 92.0818884113206 A2.5 2.5 0 0 0 640.352969215189 89.7873619281481 L640.35 89.79 L640.944505904001 81.9317793222114 A2.57 2.57 0 0 0 638.310486234297 79.0812303409874 Z M438.3 102.71 L469.55444079079 102.696067783062 A41.16 41.16 0 0 1 449.873612198653 135.8989508682 L449.87 135.9 L435.750383067755 107.656433817756 A10.05 10.05 0 0 0 438.30041496644 102.702863013598 Z M432.61 109.91 L444.983936313093 138.448775136217 A41.16 41.16 0 1 1 469.540832848656 98.5538406343066 L469.54 98.56 L438.244718983594 98.5531956016127 A10.05 10.05 0 1 0 432.609337521418 109.904349328 Z" style="fill:rgb(0,0,0);" />
<path d=" M209.532872590596 104.2741247146 A55.22 55.22 0 1 1 313.228271303885 133.038724528078 L313.23 133.04 L316.187906735727 134.817644053014 A58.67 58.67 0 0 0 318.1152719897 130.958861083009 L318.11 130.96 L319.999872907298 131.815120028304 A60.74 60.74 0 0 1 239.116061733321 161.779106933828 L239.11 161.79 L226.17 186.98 L229.130127827641 193.182737295781 A2.22 2.22 0 0 0 230.955759801169 194.355937627511 L230.952665361038 194.360994926339 A5.46 5.46 0 0 1 233.662359661285 195.717004493089 L233.656955159422 195.714923397033 A3 3 0 0 1 231.779440698309 200.786957129945 L231.779752524637 200.797994455128 A82.68 82.68 0 0 1 206.129377709443 200.422541385168 L206.132278781443 200.421223413662 A2.72 2.72 0 0 1 206.54982117961 195.155853467845 L206.55 195.15 L220.624469385169 194.574276950735 A2.25 2.25 0 0 0 222.877655938196 191.285616828969 L222.87 191.29 L221.05 187.46 L114.9 187.46 L117.864996254438 198.84663682462 A37.15 37.15 0 0 1 130.385738062272 200.179416429876 L130.38440491235 200.188216949257 A18.79 18.79 0 0 0 138.57559508765 200.188216949257 L138.574030413619 200.191110719966 A2.87 2.87 0 0 1 139.922653478831 205.22868314308 L139.924121882615 205.227098079377 A12.84 12.84 0 0 1 132.636377769146 205.947263098607 L132.642244096252 205.948266689181 A62.02 62.02 0 0 0 114.495690085468 205.057195905723 L114.49 205.06 L103.922309736847 164.479023270056 A60.74 60.74 0 0 1 69.1493063481524 165.26542492845 L69.15 165.27 L69.6969885328519 163.269192420808 A58.67 58.67 0 0 0 103.399768884308 162.4722991935 L103.4 162.48 L102.528713536642 159.127170363269 A55.22 55.22 0 1 1 140.437833917508 106.20090138166 L140.44 106.2 L143.8888425027 106.321463172236 A58.67 58.67 0 0 0 143.315667263204 98.5008397718036 L143.32 98.5 L145.365403901992 98.211911213828 A60.74 60.74 0 0 1 108.477988022101 162.800726186388 L108.48 162.81 L110.71 171.35 L171.561644684582 115.939195971598 A16.57 16.57 0 0 1 183.238749363428 90.249962871073 L183.24 90.26 L183.24 75.28 L178.76 75.28 L178.76 70.45 L191.87 70.45 L191.87 75.28 L187.38 75.28 L187.38125034964 90.2499628349229 A16.57 16.57 0 0 1 201.702852932072 104.273541279584 L201.7 104.28 L204.008060500352 104.274202042572 A60.74 60.74 0 0 1 204.918680754043 95.9409782206486 L204.91 95.94 L206.956010123047 96.3072964459941 A58.67 58.67 0 0 0 206.079758509959 104.274179715032 L206.07 104.28 Z M313.7 138.96 L310.739193873122 137.180015210116 A55.22 55.22 0 0 1 241.640655985502 156.864844829068 L241.64 156.87 L240.062732156049 159.936351360308 A58.67 58.67 0 0 0 313.698883290342 138.958844669424 Z M244.321533745637 151.646954001798 A49.36 49.36 0 0 0 305.71100874332 134.158286474684 L305.7 134.16 L272.99557229088 114.494843391561 A11.39 11.39 0 0 1 261.76293060055 117.694804557229 L261.76 117.7 Z M308.200445490716 130.01639796688 A49.36 49.36 0 1 0 215.399173863401 104.273775207299 L215.4 104.28 L253.569198059861 104.273939535234 A11.39 11.39 0 1 1 275.484842393735 110.353232799358 L275.48 110.36 Z M234.818382173573 159.571343743095 A60.74 60.74 0 0 1 204.008060331698 109.105793720331 L204 109.11 L201.702853227298 109.106456717651 A16.57 16.57 0 0 1 194.532598750749 120.456211253743 L194.53 120.46 L223.56 181.48 Z M237.342838469621 154.657010674012 A55.22 55.22 0 0 1 209.532872506266 109.105873359704 L209.53 109.11 L206.079758509959 109.105820284968 A58.67 58.67 0 0 0 235.765007293171 157.728564802077 L235.76 157.73 Z M240.023095534604 149.4388009891 A49.36 49.36 0 0 1 215.399173694717 109.106221350854 L215.4 109.11 L253.569198312871 109.106061630381 A11.39 11.39 0 0 0 257.464777315539 115.486797866625 L257.46 115.49 Z M88.023581721803 113.743228305476 A7.59 7.59 0 1 1 92.4954444321299 104.527592010052 L92.5 104.53 L134.915319826968 106.00795359736 A49.7 49.7 0 1 0 101.134566618368 153.773081561741 L101.14 153.78 L94.2920595941467 127.451188111174 A29.39 29.39 0 0 0 88.0349700640315 113.740543305765 Z M143.73 111.15 L140.26920840588 111.029706658982 A55.22 55.22 0 0 1 107.072386672147 157.40214446985 L107.08 157.41 L107.951210320763 160.7775307012 A58.67 58.67 0 0 0 143.720220477188 111.150168620169 Z M91.7235540095024 110.603040409386 A7.59 7.59 0 0 0 92.3268801845293 109.354648953004 L92.33 109.36 L134.746687663082 110.836951786983 A49.7 49.7 0 0 1 105.663502062493 151.990697824877 L105.67 151.99 L99.0463614966518 126.56482854187 A34.01 34.01 0 0 0 91.7314257109757 110.608791861135 Z M178.76 142.93 L191.87 142.93 L191.87 138.1 L187.38 138.1 L187.381249775774 123.130037237377 A16.57 16.57 0 0 0 190.168100364332 122.53183577904 L190.17 122.53 L218.75 182.62 L113.64 182.62 L112.08 176.63 L174.815269020812 119.512851542245 A16.57 16.57 0 0 0 183.238750224226 123.130037237377 L183.24 123.13 L183.24 138.1 L178.76 138.1 Z" style="fill:rgb(0,0,0);" />
</g>
</svg>
