<?xml version="1.0" encoding="UTF-8"?>
<!DOCTYPE svg PUBLIC '-//W3C//DTD SVG 1.0//EN' 'http://www.w3.org/TR/2001/REC-SVG-20010904/DTD/svg10.dtd'>
<svg xmlns:xlink="http://www.w3.org/1999/xlink" xmlns="http://www.w3.org/2000/svg" width="400.000000000001" height="299.999999999998">
<!--Gegenereerd door de SIMaD-toepassing (http://www.dlw.be).-->
<g style="stroke:none;fill-rule:evenodd;" transform="matrix(1,0,0,-1,0,299.999999999998)">
<path d=" M45 0 L354.999996858407 1.06581410364015E-13 A45 45 0 0 1 400 45.0000031415927 L399.999999999999 254.99999136062 A45 45 0 0 1 355.000003141593 300 L45.0000031415927 300 A45 45 0 0 1 1.06581410364015E-13 254.999996858407 L1.06581410364015E-13 45.0000031415927 A45 45 0 0 1 45.0000031415927 1.06581410364015E-13 Z" style="fill:rgb(255,255,255);stroke:rgb(0,0,0);" />
<path d=" M277.21 101.02 L271.869445257312 100.90192379339 A8.37 8.37 0 0 0 266.063861190727 103.072947305469 L266.069241778277 103.079815177346 A19.49 19.49 0 0 0 259.996676508816 114.01089064155 L259.99 114.01 L254.257441807329 103.365797295905 A29.44 29.44 0 0 0 266.223879550818 66.3007844178456 L266.22 66.2999999999999 L264.508027426258 67.0693383879966 A27.56 27.56 0 1 0 229.623900350742 103.881694670086 L229.62 103.88 L229.627211383379 105.879841012562 A29.44 29.44 0 0 0 251.180853033192 104.955217185131 L251.18 104.95 L262.859345418626 130.30294466735 A5.06 5.06 0 0 0 265.000205233154 132.48075751557 L265 132.48 L265.843664129694 133.023211055603 A6.19 6.19 0 0 1 267.122317073815 134.139759469965 L267.116550571888 134.147927175979 A1.36 1.36 0 0 1 266.011776644973 136.397748543261 L266.015996336738 136.382401342722 A4.59 4.59 0 0 1 264.046130415116 135.809729003029 L264.046887292912 135.811579491323 A31.02 31.02 0 0 0 261.006754306676 134.328973503591 L261.001344384598 134.330659166885 A9.42 9.42 0 0 0 259.011226821293 133.73943362508 L259.011606309193 133.747132641259 A1.08 1.08 0 0 0 257.782153701847 134.511210673869 L257.79 134.51 L255.633956548029 140.196014952634 A42.06 42.06 0 0 1 259.534381783373 141.842236301494 L259.54323480064 141.839742355593 A10.16 10.16 0 0 0 263.60603003323 142.843832048179 L263.600541714047 142.847395738763 A4.29 4.29 0 0 0 266.397119964139 141.93592296942 L266.397621216802 141.93021582362 A29.24 29.24 0 0 1 268.869182035194 140.190712577796 L268.868071832963 140.192641410938 A7.44 7.44 0 0 1 271.623456133166 139.148484359657 L271.62 139.15 L271.63098035566 149.20774108921 A2.45 2.45 0 0 0 271.738942405995 153.132852083006 L271.728941601999 153.142851516571 A2.45 2.45 0 0 0 274.679456762555 153.045930973626 L274.68580498557 153.042232934114 A7.33 7.33 0 0 0 276.287384496385 151.238368596482 L276.29 151.24 L280.66 151.24 L280.66 149.8 L273.73 149.8 L273.719999999999 139.370004616396 A11.5 11.5 0 0 0 273.192670956209 135.927545630402 L273.200604522958 135.917782541923 A103.82 103.82 0 0 1 272.225288203317 132.618567921233 L272.23 132.62 L272.986638102596 132.091887769901 A0.56 0.56 0 0 0 273.169397595329 131.376618781715 L273.18 131.38 L266.56 117.69 L268.308024786467 115.462960343861 A0.69 0.69 0 0 1 269.117119787968 115.253802688723 L269.12 115.26 L269.531909068714 115.512255926353 A1.08 1.08 0 0 0 270.858641090035 115.378419243281 L270.854215015568 115.378316371214 A3.05 3.05 0 0 0 271.553540942951 114.357491979733 L271.564719528694 114.364669610506 A1.1 1.1 0 0 0 271.555567391317 113.494091689336 L271.547610852918 113.49535702415 A1.37 1.37 0 0 1 271.593629183134 112.290716200561 L271.6 112.29 L290.55 93.08 L311.490000202109 93.0800000000001 A3.86 3.86 0 0 1 315.290327693121 96.2639013201507 L315.29 96.26 L321.66 123.03 L304.63 128.27 L304.63 129.87 L328.609999575885 129.87 A2.7 2.7 0 0 0 330.818178864304 125.616312095933 L330.818591962494 125.616732445305 A6.87 6.87 0 0 0 329.665339183945 124.349114445583 L329.66 124.35 L326.945396850895 122.159489102471 A2.57 2.57 0 0 1 326.139975814435 121.02509129072 L326.14 121.02 L324.55 113.54 L365.012564477944 113.562481475472 A1.72 1.72 0 0 1 367.174863690513 112.111235693942 L367.17 112.11 L370.26 112.11 L370.29 104.49 L368.81 104.49 L376.67 83.37 L374.66365623971 83.3670091695243 A27.57 27.57 0 0 0 322.820729715698 65.7112848623912 L322.82 65.71 L304.35 65.71 L304.35 59.85 L305.95 59.85 L305.95 57.74 L300.73 57.74 L300.73 59.85 L302.76 59.85 L302.757947171194 65.1176925504691 A24.9 24.9 0 0 1 297.370955752292 64.0444368527265 L297.371638649029 64.0524573398453 A491.19 491.19 0 0 0 291.609258430506 62.2633935606548 L291.606196346695 62.2525395906298 A11.41 11.41 0 0 0 282.876390803238 63.1260498077332 L282.886511735051 63.1305984323607 A6.52 6.52 0 0 0 280.124650257156 66.0020252112386 L280.119979405026 66.0062938432787 A24.72 24.72 0 0 0 278.139835876531 82.0179045302647 L278.136950560088 82.0133858178272 A149.6 149.6 0 0 0 281.851008307456 96.0861732782631 L281.85 96.09 Z M317.14 76.8099999999999 L318.209959077927 76.8033934542102 A29.51 29.51 0 0 1 318.543191985893 73.0825274075269 L318.55 73.08 L317.14 73.47 Z M311.73 68.54 L304.36 67.74 L304.36 69.89 L311.6 72.42 Z M342.194933111853 79.1611119442917 A5.74 5.74 0 0 0 344.907801448094 82.5795192659272 L344.91 82.58 L342.95835293154 100.666282171311 A23.58 23.58 0 0 1 324.183650889689 79.1597476339871 L324.18 79.16 Z M324.14 76.8099999999999 L342.021493314349 76.8028678814525 A5.74 5.74 0 0 1 346.311164116733 72.0030566581216 L346.32 72.01 L325.338191796833 70.1189196943865 A23.58 23.58 0 0 0 324.142450167982 76.8038440659084 Z M318.97 91.74 L324.01 111.4 L327.206954231974 111.399394506344 A15.8 15.8 0 0 1 330.86750373163 105.252350536522 L330.863438715965 105.25242489717 A2.45 2.45 0 0 1 332.632112585535 104.50000091082 L332.63 104.5 L335.645364372111 104.501109653452 A29.51 29.51 0 0 1 318.242876129361 79.1601920614872 L318.25 79.16 L317.08 79.15 L317.085547776004 88.5504800877522 A0.68 0.68 0 0 1 317.612618241953 88.8337512414398 L317.612140746769 88.8361804857567 A8.69 8.69 0 0 1 318.967229506701 91.7398269903733 Z M244.84 79.15 L262.624076604284 79.151625995006 A23.42 23.42 0 0 1 251.425707652133 98.0440269796682 L251.42 98.04 L243.390732491786 81.975137593995 A5.72 5.72 0 0 0 244.842097764204 79.1557841945961 Z M370.655013116538 96.1271138133577 A29.51 29.51 0 0 1 359.774020346917 104.501385279432 L359.78 104.5 L367.46 104.5 Z M280.34 75.2999999999999 L285.308411129127 73.8442762433882 A12.35 12.35 0 0 1 287.288241776303 67.5801438621309 L287.282579456947 67.5833720073426 A8.65 8.65 0 0 1 290.261347905039 64.772311774868 L290.267053558294 64.7674468924218 A4.46 4.46 0 0 0 286.136665351415 64.8909577255721 L286.137659493635 64.8977725184957 A14.59 14.59 0 0 0 281.375072849883 69.1854988558651 L281.370331782179 69.1839150641858 A7.12 7.12 0 0 0 280.345667745151 75.2965727210214 Z M358.63 65.71 L327.328396327594 65.7122332734636 A23.58 23.58 0 1 1 346.619562491301 101.124773317517 L346.62 101.13 L348.503343371063 83.2549104034796 A5.74 5.74 0 0 0 350.087224069767 72.34540377425 L350.09 72.35 L358.550616553299 73.1097127337655 A1.42 1.42 0 0 0 359.796006517942 71.8064215257602 L359.79 71.7999999999999 L360.131197792004 67.3300780074938 A1.46 1.46 0 0 0 358.634828348157 65.7106989611907 Z M302.744567495878 67.5171847623641 A28.03 28.03 0 0 1 295.31499375973 65.7457870361845 L295.31 65.74 L302.73 69.01 Z M241.6 83.25 L248.643483684467 99.4948764259037 A23.42 23.42 0 1 1 262.616333992203 76.7946982812413 L262.61 76.79 L244.810397272255 76.7939879444004 A5.72 5.72 0 1 0 241.602996081842 83.2545450901652 Z" style="fill:rgb(0,0,0);" />
<path d=" M88.1293412794103 81.2102960356617 A33.38 33.38 0 0 0 87.8032399512019 76.7608446335983 L87.81 76.76 L88.9716868806385 76.5961273810828 A34.56 34.56 0 0 1 67.9834010008691 113.346019137221 L67.99 113.35 L69.25 118.21 L103.875797723247 86.6837209968286 A9.43 9.43 0 0 1 110.521245392091 72.0639625067909 L110.52 72.0700000000001 L110.52 63.5499999999999 L107.97 63.5499999999999 L107.97 60.7999999999999 L115.43 60.7999999999999 L115.43 63.5499999999999 L112.88 63.5499999999999 L112.87874840275 72.0639617250133 A9.43 9.43 0 0 1 121.02918570468 80.0447930746277 L121.03 80.0499999999999 L122.337345849871 80.0454464915642 A34.56 34.56 0 0 1 122.85547144451 75.3040007236958 L122.85 75.2999999999999 L124.016842799965 75.512846540866 A33.38 33.38 0 0 0 123.518311244156 80.0454974960608 L123.51 80.0499999999999 L125.480084547627 80.0453699068916 A31.42 31.42 0 1 1 184.482430278187 96.4123345124189 L184.48 96.41 L186.163781260994 97.4230865595675 A33.38 33.38 0 0 0 187.260351946173 95.2276395009339 L187.26 95.23 L188.334652891443 95.7157762440863 A34.56 34.56 0 0 1 142.313206938319 112.764750370028 L142.31 112.77 L134.95 127.1 L136.627640221684 130.631824064722 A1.26 1.26 0 0 0 137.66380937542 131.2976943145 L137.663601691143 131.301663874547 A3.1 3.1 0 0 1 139.2020718182 132.071558850633 L139.209463548916 132.071505413606 A1.71 1.71 0 0 1 138.139280039136 134.962565672487 L138.136646081532 134.962326489362 A47.04 47.04 0 0 1 123.543090525924 134.74871563409 L123.541224912534 134.750917711455 A1.55 1.55 0 0 1 123.779162564293 131.750431243504 L123.78 131.75 L131.788942184249 131.421055284518 A1.28 1.28 0 0 0 133.070755210671 129.550172813603 L133.07 129.55 L132.03 127.37 L71.64 127.37 L73.3328394587913 133.853608951639 A21.14 21.14 0 0 1 80.4576730627312 134.612017124566 L80.4499459040227 134.6129740683 A10.69 10.69 0 0 0 85.1100540959773 134.6129740683 L85.1149029916955 134.623348717003 A1.63 1.63 0 0 1 85.8808455325866 137.48440845712 L85.8835279757658 137.487496813975 A7.31 7.31 0 0 1 81.7344975943053 137.897498386194 L81.7349043834758 137.896132985203 A35.29 35.29 0 0 0 71.4093617464937 137.389105995954 L71.41 137.39 L65.3913067962364 114.300939610485 A34.56 34.56 0 0 1 45.6060359912557 114.748389133092 L45.61 114.75 L45.9182739963297 113.610449139397 A33.38 33.38 0 0 0 65.0932754456525 113.157061191222 L65.1 113.16 L64.5985989776017 111.25657986731 A31.42 31.42 0 1 1 86.168767481837 81.1417017386687 L86.17 81.14 Z M145.277059304065 106.995185747528 A28.08 28.08 0 0 0 180.200414508333 97.04620103766 L180.2 97.0499999999999 L161.589514606777 85.8603357841965 A6.48 6.48 0 0 1 155.19904697582 87.680855851318 L155.2 87.6799999999999 Z M142.831756324029 105.739007267856 A28.08 28.08 0 0 1 128.823663095086 82.7945494593073 L128.82 82.79 L150.537462915553 82.7945450425895 A6.48 6.48 0 0 0 152.75373748361 86.4246761030226 L152.75 86.42 Z M141.303843781823 108.713061033737 A31.42 31.42 0 0 1 125.48008531537 82.7946476245441 L125.48 82.79 L123.51831062043 82.7944873694227 A33.38 33.38 0 0 0 140.407565909986 110.458124316697 L140.4 110.46 Z M139.867880933795 111.508561734629 A34.56 34.56 0 0 1 122.337345490015 82.7945444678079 L122.33 82.79 L121.029185896695 82.7952056227722 A9.43 9.43 0 0 1 116.948586680555 89.2543626324479 L116.95 89.25 L133.46 123.97 Z M184.75 99.78 L183.066142156603 98.7687329828738 A31.42 31.42 0 0 1 143.749323370422 109.969330023348 L143.75 109.97 L142.852750969301 111.714242515887 A33.38 33.38 0 0 0 184.747667022867 99.7791960979268 Z M58.4516300274467 83.6471809849909 A4.32 4.32 0 0 0 58.7950213372654 82.9366418104047 L58.8 82.9400000000001 L82.9313841571608 83.7796582351114 A28.28 28.28 0 0 1 66.3826262137605 107.196741597241 L66.39 107.19 L62.614833780957 92.7283517673552 A19.35 19.35 0 0 0 58.4529987505845 83.6501594387817 Z M88.04 83.96 L86.0728187605626 83.8892964368316 A31.42 31.42 0 0 1 67.1839529001728 110.275037953125 L67.19 110.27 L67.6827895116268 112.192834699585 A33.38 33.38 0 0 0 88.0334062157621 83.9575718071747 Z M107.97 102.04 L115.43 102.04 L115.43 99.29 L112.88 99.29 L112.878752485091 90.7760377606597 A9.43 9.43 0 0 0 114.464743850856 90.4356026664419 L114.47 90.4299999999999 L130.73 124.62 L70.92 124.62 L70.04 121.21 L105.727436417775 88.7174916413981 A9.43 9.43 0 0 0 110.521256169473 90.7760388510306 L110.52 90.77 L110.52 99.29 L107.97 99.29 Z M181.616604669597 94.6899644809881 A28.08 28.08 0 1 0 128.823662711241 80.0454583727075 L128.82 80.0499999999999 L150.537462723631 80.0454558415994 A6.48 6.48 0 1 1 163.005713270771 83.5040879681251 L163 83.5 Z M56.345714988247 85.4344854808908 A4.32 4.32 0 1 1 58.8909645487551 80.1892227634729 L58.89 80.1900000000001 L83.0273369359474 81.0319074712084 A28.28 28.28 0 1 0 63.8056144250373 108.210935918423 L63.81 108.21 L59.9122338301381 93.2303082075337 A16.72 16.72 0 0 0 56.3525666608846 85.4303029781716 Z" style="fill:rgb(0,0,0);" />
<path d=" M344.13 205 L356.990011673635 205.000000000007 A10.29 10.29 0 0 1 367.279999999997 215.289991918253 L367.27 215.29 L367.279999999997 239.710008081747 A10.29 10.29 0 0 1 356.990011673635 249.999999999993 L344.13 250 Z M350.56 210.79 L356.340005026548 210.790000000003 A4.5 4.5 0 0 1 360.839999999999 215.289996387168 L360.839999999999 239.710003612832 A4.5 4.5 0 0 1 356.340005026548 244.209999999997 L350.56 244.21 Z" style="fill:rgb(0,0,0);" />
<path d=" M313.79 205 L313.79 250 L326.64001149404 249.999999999994 A10.29 10.29 0 0 0 336.929999999997 239.710008261342 L336.929999999997 235.210007183775 A10.29 10.29 0 0 0 328.574966721815 225.103566218222 L328.58 225.11 L337.83 205 L330.75 205 L321.59 224.93 L320.21 224.93 L320.21 205 Z M320.21 244.21 L326.000005105088 244.209999999997 A4.5 4.5 0 0 0 330.499999999999 239.710003534292 L330.499999999999 235.209996465708 A4.5 4.5 0 0 0 326.000005105088 230.710000000003 L320.21 230.71 Z" style="fill:rgb(0,0,0);" />
<path d=" M285.82 205 L285.82 250 L307.04 250 L307.04 244.21 L292.25 244.21 L292.25 230.39 L301.89 230.39 L301.89 224.61 L292.25 224.61 L292.25 210.79 L307.04 210.79 L307.04 205 Z" style="fill:rgb(0,0,0);" />
<path d=" M254.58 205 L267.44001149404 205.000000000006 A10.29 10.29 0 0 1 277.729999999997 215.289991738658 L277.72 215.29 L277.729999999997 239.710008261342 A10.29 10.29 0 0 1 267.44001149404 249.999999999994 L254.58 250 Z M261.01 210.79 L266.790005105088 210.790000000003 A4.5 4.5 0 0 1 271.289999999999 215.289996465708 L271.289999999999 239.710003534292 A4.5 4.5 0 0 1 266.790005105088 244.209999999997 L261.01 244.21 Z" style="fill:rgb(0,0,0);" />
<path d=" M222.44 205 L222.44 250 L229.19 250 L239.79 221.05 L239.79 250 L245.58 250 L245.58 205 L238.83 205 L228.22 233.95 L228.22 205 Z" style="fill:rgb(0,0,0);" />
<path d=" M191.19 215.93 L191.19 239.069997778719 A11.57 11.57 0 0 0 214.33 239.07000222128 L214.34 239.07 L214.33 215.93 A11.57 11.57 0 0 0 191.19 215.93 Z M197.62 215.29 L197.62 239.709999013191 A5.14 5.14 0 0 0 207.9 239.710000986809 L207.91 239.71 L207.9 215.29 A5.14 5.14 0 0 0 197.62 215.29 Z" style="fill:rgb(0,0,0);" />
<path d=" M161.75 205 L161.75 210.79 L177.17 244.21 L162.39 244.21 L162.39 250 L184.25 250 L184.25 244.21 L168.83 210.79 L184.89 210.79 L184.89 205 Z" style="fill:rgb(0,0,0);" />
<path d=" M135.14 205 L135.14 250 L156.35 250 L156.35 244.21 L141.56 244.21 L141.56 230.39 L151.21 230.39 L151.21 224.61 L141.56 224.61 L141.56 210.79 L156.35 210.79 L156.35 205 Z" style="fill:rgb(0,0,0);" />
<path d=" M120.61 224.93 L120.6 215.289999102901 A5.14 5.14 0 0 0 110.32 215.290000897099 L110.32 239.709999102901 A5.14 5.14 0 0 0 120.6 239.710000897099 L120.61 239.71 L120.61 239.07 L127.03 239.070001817411 A11.57 11.57 0 0 1 103.89 239.069998182589 L103.89 215.930001817411 A11.57 11.57 0 0 1 127.03 215.929998182589 L127.04 215.93 L127.04 230.71 L115.46 230.71 L115.46 224.93 Z" style="fill:rgb(0,0,0);" />
<path d=" M85.06 205 L85.06 244.21 L76.7 244.21 L76.7 250 L99.84 250 L99.84 244.21 L91.49 244.21 L91.49 205 Z" style="fill:rgb(0,0,0);" />
<path d=" M64.42 205 L70.85 205 L70.85 250 L64.42 250 Z" style="fill:rgb(0,0,0);" />
<path d=" M39.16 250 L39.1600000000001 215.290000897099 A5.14 5.14 0 0 1 49.4399999999999 215.289999102901 L49.44 250 L55.87 250 L55.8699999999998 215.92999777872 A11.57 11.57 0 1 0 32.7300000000002 215.930002221281 L32.73 250 Z" style="fill:rgb(0,0,0);" />
</g>
</svg>
