<?xml version="1.0" encoding="UTF-8"?>
<!DOCTYPE svg PUBLIC '-//W3C//DTD SVG 1.0//EN' 'http://www.w3.org/TR/2001/REC-SVG-20010904/DTD/svg10.dtd'>
<svg xmlns:xlink="http://www.w3.org/1999/xlink" xmlns="http://www.w3.org/2000/svg" width="400" height="200">
<!--Gegenereerd door de SIMaD-toepassing (http://www.dlw.be).-->
<g style="stroke:none;fill-rule:evenodd;" transform="matrix(1,0,0,-1,0,200)">
<path d=" M45 0 L354.999996858407 1.06581410364015E-13 A45 45 0 0 1 400 45.0000031415927 L399.999999999999 154.99999136062 A45 45 0 0 1 355.000003141593 200 L45.0000031415927 200 A45 45 0 0 1 1.06581410364015E-13 154.999996858407 L1.06581410364015E-13 45.0000031415927 A45 45 0 0 1 45.0000031415927 1.06581410364015E-13 Z" style="fill:rgb(255,255,255);stroke:rgb(0,0,0);" />
<path d=" M180.65926135675 74.9948526247694 A37.43 37.43 0 0 0 180.293594109451 70.0055486709279 L180.29 70 L181.600670330577 69.8212886578978 A38.75 38.75 0 0 1 158.067797707861 111.026679443498 L158.07 111.03 L159.49 116.48 L198.309923853099 81.1300563029135 A10.57 10.57 0 0 1 205.758744835037 64.7429038914927 L205.76 64.7399999999998 L205.76 55.1899999999996 L202.9 55.1899999999996 L202.9 52.1099999999997 L211.26 52.1099999999997 L211.26 55.1899999999996 L208.4 55.1899999999996 L208.401248392691 64.7429030382655 A10.57 10.57 0 0 1 217.536998186476 73.6885432448368 L217.54 73.6899999999996 L219.000661190765 73.6887984636301 A38.75 38.75 0 0 1 219.581603304458 68.3725079297534 L219.58 68.3699999999999 L220.880764825095 68.6061301546554 A37.43 37.43 0 0 0 220.321746251311 73.6887289178413 L220.32 73.6899999999996 L222.523732610213 73.6886817892992 A35.23 35.23 0 1 1 288.680723064943 92.0403101487112 L288.68 92.04 L290.568000091476 93.1747426838722 A37.43 37.43 0 0 0 291.797617806035 90.7129217096056 L291.8 90.71 L292.999377880307 91.2589736533081 A38.75 38.75 0 0 1 241.398364260991 110.374938565931 L241.4 110.37 L233.14 126.44 L235.026388116496 130.40697619563 A1.42 1.42 0 0 0 236.194134227043 131.157401520048 L236.192688111156 131.157996821451 A3.48 3.48 0 0 1 237.919744959287 132.02226589984 L237.920450300537 132.015549938085 A1.92 1.92 0 0 1 236.718840745697 135.261652684899 L236.718408042942 135.255656867537 A52.74 52.74 0 0 1 220.356500729959 135.016162043833 L220.364463934634 135.011733961818 A1.73 1.73 0 0 1 220.63003305563 131.66280390404 L220.63 131.66 L229.601240146033 131.290007081563 A1.43 1.43 0 0 0 231.033265563529 129.1998805211 L231.04 129.2 L229.88 126.75 L162.16 126.75 L164.05849119677 134.018889857732 A23.7 23.7 0 0 1 172.046123537688 134.869139349679 L172.038770058952 134.871957842679 A11.98 11.98 0 0 0 177.261229941049 134.871957842679 L177.268633420124 134.876213590255 A1.83 1.83 0 0 1 178.128556640879 138.088323605233 L178.126209866146 138.082188632894 A8.19 8.19 0 0 1 173.477706607026 138.541547439525 L173.478697720285 138.548134810895 A39.57 39.57 0 0 0 161.900864835742 137.979615376679 L161.9 137.98 L155.161442725464 112.097372763582 A38.75 38.75 0 0 1 132.977436188112 112.599070570234 L132.98 112.6 L133.32671946323 111.326120769551 A37.43 37.43 0 0 0 154.82822648085 110.817723199144 L154.83 110.82 L154.272843474886 108.684573797751 A35.23 35.23 0 1 1 178.458618026261 74.9179551958398 L178.46 74.9200000000001 Z M145.017791713888 79.7277106162746 A4.84 4.84 0 1 1 147.869413985179 73.8510736516683 L147.87 73.8500000000004 L174.937013940555 74.7948368427159 A31.71 31.71 0 1 0 153.383943897381 105.270331611499 L153.38 105.26 L149.013366286788 88.4691793595249 A18.75 18.75 0 0 0 145.021514646626 79.7221639258801 Z M285.471801319288 90.1114523328456 A31.49 31.49 0 1 0 226.267750668695 73.6885357605608 L226.27 73.6899999999996 L250.615440432221 73.687880242041 A7.27 7.27 0 1 1 264.603740042979 77.5681665938684 L264.6 77.5699999999997 Z M202.9 98.3500000000004 L211.26 98.3500000000004 L211.26 95.2600000000002 L208.4 95.2600000000002 L208.401253151585 85.717096362169 A10.57 10.57 0 0 0 210.178976227992 85.3355057438176 L210.18 85.3299999999999 L228.41 123.67 L161.36 123.67 L160.36 119.85 L200.385408582808 83.409691055098 A10.57 10.57 0 0 0 205.758756915306 85.7170976304761 L205.76 85.71 L205.76 95.2600000000002 L202.9 95.2600000000002 Z M180.55 78.0699999999997 L178.351034530064 77.9987241715329 A35.23 35.23 0 0 1 157.171698302772 107.584009773666 L157.17 107.58 L157.731927247555 109.736506721293 A37.43 37.43 0 0 0 180.551686478609 78.0754557442341 Z M147.377196648375 77.7252675126535 A4.84 4.84 0 0 0 147.761922083445 76.9292004677449 L147.76 76.9300000000003 L174.829423324737 77.8758544071913 A31.71 31.71 0 0 1 156.273514046618 104.133128573144 L156.27 104.13 L152.051415661331 87.9034487520212 A21.7 21.7 0 0 0 147.384138375062 77.7227372335742 Z M288.98 95.8199999999997 L287.092695358915 94.6824463076586 A35.23 35.23 0 0 1 243.008305612347 107.241231595243 L243.01 107.24 L242.002036212731 109.1998471351 A37.43 37.43 0 0 0 288.980068204491 95.8167198905149 Z M238.656570780802 108.96645159771 A38.75 38.75 0 0 1 219.00066081418 76.7711920754497 L219 76.7700000000004 L217.536998401704 76.7714552950899 A10.57 10.57 0 0 1 212.963092387431 84.0114647958611 L212.96 84.0100000000002 L231.48 122.94 Z M240.26628632825 105.832626996135 A35.23 35.23 0 0 1 222.523733471053 76.7713378680037 L222.53 76.7700000000004 L220.321745551908 76.7712541113684 A37.43 37.43 0 0 0 239.260176513205 107.7913239417 L239.26 107.79 Z M241.976969609817 102.502277025099 A31.49 31.49 0 0 1 226.267751099155 76.7714730225632 L226.27 76.7700000000004 L250.615440620627 76.7721206259439 A7.27 7.27 0 0 0 253.101909183001 80.8448140847179 L253.11 80.8400000000001 Z M244.719227118412 103.911004244645 A31.49 31.49 0 0 0 283.883630800121 92.7538273032729 L283.88 92.75 L263.014887616463 80.2116729247328 A7.27 7.27 0 0 1 255.845335110218 82.2541392035617 L255.85 82.25 Z" style="fill:rgb(0,0,0);" />
<path d=" M49 160 L49 75 L34 75 L54 40 L74 75 L59 75 L59 160 Z" style="fill:rgb(0,0,0);" />
<path d=" M351 40 L351 125 L366 125 L346 160 L326 125 L341 125 L341 40 Z" style="fill:rgb(0,0,0);" />
</g>
</svg>
