<?xml version="1.0" encoding="UTF-8"?>
<!DOCTYPE svg PUBLIC '-//W3C//DTD SVG 1.0//EN' 'http://www.w3.org/TR/2001/REC-SVG-20010904/DTD/svg10.dtd'>
<svg xmlns:xlink="http://www.w3.org/1999/xlink" xmlns="http://www.w3.org/2000/svg" width="400" height="399.999999999999">
<!--Gegenereerd door de SIMaD-toepassing (http://www.dlw.be).-->
<g style="stroke:none;fill-rule:evenodd;" transform="matrix(1,0,0,-1,0,399.999999999999)">
<path d=" M45 0 L354.999996858407 1.06581410364015E-13 A45 45 0 0 1 400 45.0000031415927 L399.999999999999 354.99999136062 A45 45 0 0 1 355.000003141593 400 L45.0000031415927 400 A45 45 0 0 1 1.06581410364015E-13 354.999996858407 L1.06581410364015E-13 45.0000031415927 A45 45 0 0 1 45.0000031415927 1.06581410364015E-13 Z" style="fill:rgb(255,255,255);stroke:rgb(0,0,0);" />
<path d=" M362.5 91.6 L362.5 206.6 L377.5 206.6 L357.5 241.6 L337.5 206.6 L352.5 206.6 L352.5 91.6 Z" style="fill:rgb(0,0,0);" />
<path d=" M37.5 241.6 L37.5 126.6 L22.5 126.6 L42.5 91.6 L62.5 126.6 L47.5 126.6 L47.5 241.6 Z" style="fill:rgb(0,0,0);" />
<path d=" M176.37 126.67 L168.920194079859 126.512682273873 A11.67 11.67 0 0 0 160.82567026234 129.539664881102 L160.826911191164 129.543626391405 A27.17 27.17 0 0 0 152.361462326553 144.78207279276 L152.36 144.78 L144.368581178875 129.940771408289 A41.04 41.04 0 0 0 161.050054917309 78.2713380607468 L161.05 78.27 L158.658817623979 79.3424158514815 A38.42 38.42 0 1 0 110.028623057893 130.660657083625 L110.03 130.66 L110.033503912156 133.445403368056 A41.04 41.04 0 0 0 140.079748929422 132.156457652098 L140.08 132.16 L156.365392332276 167.49471539621 A7.05 7.05 0 0 0 159.348210848564 170.52901985865 L159.34 170.53 L160.515910306617 171.300965961115 A8.62 8.62 0 0 1 162.296522322501 172.855836289353 L162.296603325011 172.850281099173 A1.89 1.89 0 0 1 160.761292609245 175.976871141121 L160.761890428537 175.979404928739 A6.4 6.4 0 0 1 158.015236308659 175.18090754235 L158.009279099697 175.185179929397 A43.23 43.23 0 0 0 153.772497327951 173.118994695788 L153.773338829063 173.112362511805 A13.13 13.13 0 0 0 150.999427392687 172.288286954811 L150.996119951173 172.293795349016 A1.5 1.5 0 0 0 149.288546829849 173.355014749344 L149.29 173.35 L146.290674569923 181.275105959889 A58.63 58.63 0 0 1 151.727714341401 183.56987388603 L151.734350863885 183.572003125511 A14.16 14.16 0 0 0 157.396671778596 184.97140372069 L157.392012595072 184.966375888208 A5.97 5.97 0 0 0 161.28375435569 183.697962733668 L161.299269521096 183.704801537987 A40.76 40.76 0 0 1 164.744577966981 181.279967328008 L164.737796511773 181.272633160531 A10.37 10.37 0 0 1 168.578298579258 179.817269165493 L168.58 179.82 L168.579572531273 193.846683516641 A3.42 3.42 0 0 0 168.730278835941 199.325818044125 L168.720277616035 199.325817184672 A3.42 3.42 0 0 0 172.838955924151 199.190524090486 L172.841736282746 199.190453013185 A10.22 10.22 0 0 0 175.074770743937 196.675378861671 L175.07 196.68 L181.18 196.68 L181.18 194.68 L171.51 194.68 L171.509999999999 180.130006438869 A16.04 16.04 0 0 0 170.77449062066 175.328524514056 L170.776049764617 175.330908201378 A144.72 144.72 0 0 1 169.41650586226 170.731962019737 L169.42 170.73 L170.486685849244 170.001591706581 A0.79 0.79 0 0 0 170.744507346937 168.992551544817 L170.74 168.99 L161.51 149.91 L163.955947508258 146.81585789604 A0.96 0.96 0 0 1 165.081644876044 146.524855895286 L165.09 146.52 L165.651743257223 146.885468948174 A1.51 1.51 0 0 0 167.506711191651 146.69834538694 L167.512969008517 146.700435479657 A4.26 4.26 0 0 0 168.489732538321 145.274628279358 L168.481382596565 145.270676871153 A1.53 1.53 0 0 0 168.468652858579 144.059782150218 L168.463968442409 144.064256934032 A1.91 1.91 0 0 1 168.52812532591 142.384794177739 L168.54 142.38 L194.96 115.61 L224.140000375595 115.6 A5.38 5.38 0 0 1 229.436829806342 120.03766566302 L229.44 120.04 L238.33 157.35 L214.58 164.66 L214.58 166.89 L248.009999409381 166.89 A3.76 3.76 0 0 0 251.085093529549 160.966345733596 L251.084950847552 160.957292387906 A9.58 9.58 0 0 0 249.476776128243 159.189638810558 L249.48 159.19 L245.690864193024 156.145280618139 A3.58 3.58 0 0 1 244.568915768009 154.565068919533 L244.57 154.56 L242.35 144.13 L298.747531834743 144.150439226519 A2.4 2.4 0 0 1 301.764693562043 142.125445165415 L301.77 142.13 L306.07 142.13 L306.11 131.51 L304.05 131.51 L315 102.07 L312.210874475591 102.070488298325 A38.43 38.43 0 0 0 239.946686361054 77.4600608364777 L239.95 77.46 L214.2 77.46 L214.2 69.29 L216.42 69.29 L216.42 66.34 L209.15 66.34 L209.15 69.29 L211.98 69.29 L211.974029972375 76.63132563963 A34.71 34.71 0 0 1 204.464693741449 75.1352330585598 L204.47043784809 75.1401346037554 A684.69 684.69 0 0 0 196.438018393663 72.6462848124853 L196.431167299104 72.6363609615028 A15.9 15.9 0 0 0 184.266057298114 73.8536101615214 L184.267145961904 73.858288305239 A9.09 9.09 0 0 0 180.416636631525 77.8615504862208 L180.412883911698 77.8619128575803 A34.46 34.46 0 0 0 177.652538075045 100.182304836974 L177.653858290743 100.181602570799 A208.53 208.53 0 0 0 182.830946940868 119.797901829654 L182.83 119.8 Z M232.02 92.92 L233.523880593861 92.9215314791049 A41.13 41.13 0 0 1 233.988328809163 87.7355192547979 L233.99 87.73 L232.02 88.27 Z M224.49 81.4 L214.21 80.29 L214.21 83.28 L224.3 86.7999999999999 Z M266.953495587572 96.2075774885513 A8 8 0 0 0 270.734496669911 100.971908316404 L270.74 100.97 L268.016308772677 126.185708014036 A32.87 32.87 0 0 1 241.844788157086 96.2060731437301 L241.84 96.2000000000001 Z M241.79 92.92 L266.711767685504 92.9208263156131 A8 8 0 0 1 272.690402950151 86.2311939486014 L272.69 86.23 L243.45419272103 83.603358369571 A32.87 32.87 0 0 0 241.787355259608 92.9219955235965 Z M234.57 113.74 L241.6 141.14 L246.051481122177 141.136497530047 A22.03 22.03 0 0 1 251.155399190368 132.565650779721 L251.16123515203 132.567252569066 A3.41 3.41 0 0 1 253.622940493184 131.520001267815 L253.62 131.52 L257.82473457446 131.525633052723 A41.13 41.13 0 0 1 233.569759240956 96.2063537610629 L233.57 96.2000000000001 L231.94 96.1900000000001 L231.945691779025 109.290670712076 A0.95 0.95 0 0 1 232.682040210288 109.68641720249 L232.679613898696 109.68745753665 A12.12 12.12 0 0 1 234.569565203823 113.73719253433 Z M131.24 96.1900000000001 L156.02387106592 96.1853147940647 A32.64 32.64 0 0 1 140.416921339267 122.515287814533 L140.41 122.52 L129.217384067752 100.119116745049 A7.97 7.97 0 0 0 131.239653649138 96.1907520266168 Z M306.619952202074 119.854252495541 A41.13 41.13 0 0 1 291.454407213442 131.526017503999 L291.46 131.52 L302.17 131.52 Z M180.73 90.8200000000001 L187.641727906362 88.7945697903762 A17.22 17.22 0 0 1 190.402269100238 80.0602896603963 L190.401561762018 80.0579265758338 A12.06 12.06 0 0 1 194.554619160089 76.1386913300472 L194.551031972423 76.153014619269 A6.21 6.21 0 0 0 188.799975747149 76.3249882232743 L188.802823447604 76.3238720374368 A20.34 20.34 0 0 0 182.16327496687 82.3014151287385 L182.157471151269 82.2994489588996 A9.93 9.93 0 0 0 180.728410260586 90.8245461101417 Z M289.86 77.46 L246.228493947753 77.4605346776398 A32.87 32.87 0 1 1 273.119954159841 126.824834560933 L273.12 126.83 L275.745705046778 101.913220074536 A8 8 0 0 0 277.953204278421 86.7083327864112 L277.95 86.71 L289.737901988907 87.7656557795489 A1.98 1.98 0 0 0 291.47443162361 85.9483905781726 L291.48 85.9500000000001 L291.947761321309 79.7125741454658 A2.03 2.03 0 0 0 289.867192804832 77.4609718443957 Z M211.961119196827 79.9648737254383 A39.07 39.07 0 0 1 201.605305886829 77.4957868864941 L201.6 77.5 L211.94 82.0599999999999 Z M126.72 101.9 L136.539389729333 124.537308562831 A32.64 32.64 0 1 1 156.013080337554 92.9005103287667 L156.01 92.9 L131.195483611866 92.8999272581943 A7.97 7.97 0 1 0 126.726429855294 101.901787477031 Z" style="fill:rgb(0,0,0);" />
<path d=" M175.339081574997 265.427619843812 A46.54 46.54 0 0 0 174.884415438255 259.223981703046 L174.88 259.23 L176.508358620057 258.995052581614 A48.18 48.18 0 0 1 147.248647575864 310.227974595813 L147.25 310.23 L149.01 317 L197.277559075659 273.054601685931 A13.14 13.14 0 0 1 206.537493579223 252.683061223673 L206.54 252.69 L206.54 240.81 L202.98 240.81 L202.98 236.98 L213.38 236.98 L213.38 240.81 L209.82 240.81 L209.822498001889 252.683060162991 A13.14 13.14 0 0 1 221.17952281649 263.803751961889 L221.18 263.81 L222.998122773344 263.803738772094 A48.18 48.18 0 0 1 223.720440076781 257.193703225419 L223.72 257.2 L225.334549691689 257.483961992992 A46.54 46.54 0 0 0 224.639472930483 263.803601748828 L224.64 263.81 L227.38193835729 263.803742900123 A43.8 43.8 0 1 1 309.632184792635 286.619562432971 L309.63 286.62 L311.974022021276 288.027477346529 A46.53 46.53 0 0 0 313.50258499906 284.967137246806 L313.51 284.97 L315.004785194148 285.649701951391 A48.18 48.18 0 0 1 250.846415228246 309.417629422105 L250.85 309.42 L240.58 329.4 L242.9262275391 334.316674748464 A1.76 1.76 0 0 0 244.373574847279 335.246779350649 L244.377223926062 335.252162698008 A4.33 4.33 0 0 1 246.526119390924 336.32753194482 L246.521183185041 336.325837944084 A2.38 2.38 0 0 1 245.031688007687 340.349652807322 L245.033075756081 340.358100508237 A65.57 65.57 0 0 1 224.690825803249 340.060344050325 L224.688868229433 340.059794992462 A2.16 2.16 0 0 1 225.020445896047 335.878471926432 L225.02 335.88 L236.179935255821 335.417561258699 A1.78 1.78 0 0 0 237.96245645028 332.815865291472 L237.97 332.82 L236.52 329.78 L152.34 329.78 L154.688706265657 338.820771982747 A29.46 29.46 0 0 1 164.617637106342 339.877664356183 L164.622310006542 339.87175057228 A14.9 14.9 0 0 0 171.117689993458 339.87175057228 L171.114526805642 339.872659541649 A2.28 2.28 0 0 1 172.185906695787 343.874632637666 L172.182304906903 343.873761015854 A10.19 10.19 0 0 1 166.398636181391 344.445295288005 L166.402785970706 344.442447595348 A49.19 49.19 0 0 0 152.010226815246 343.735713344885 L152.01 343.74 L143.635016245448 311.559226575034 A48.18 48.18 0 0 1 116.05242517531 312.183014711585 L116.05 312.18 L116.489029030834 310.591827395331 A46.53 46.53 0 0 0 143.21799300438 309.959827957686 L143.22 309.97 L142.529109968776 307.312686129478 A43.8 43.8 0 1 1 172.598281849283 265.332047617877 L172.59 265.34 Z M254.980893915994 301.368602925863 A39.14 39.14 0 0 0 303.6596735944 287.500964838907 L303.66 287.51 L277.716731002963 271.907690143718 A9.03 9.03 0 0 1 268.811496017231 274.444618570587 L268.81 274.45 Z M251.57244809553 299.617647594868 A39.14 39.14 0 0 1 232.046922134675 267.63594963808 L232.04 267.64 L262.315492236756 267.635453663353 A9.03 9.03 0 0 0 265.403911712885 272.694108628522 L265.4 272.7 Z M249.440519948426 303.766978401594 A43.8 43.8 0 0 1 227.381939427537 267.636281538989 L227.38 267.64 L224.649463546094 267.635964568581 A46.53 46.53 0 0 0 248.192215152536 306.197649025042 L248.19 306.21 Z M247.437393037911 307.666380334908 A48.18 48.18 0 0 1 222.99812227167 267.636248624392 L223 267.64 L221.179523084048 267.636246223036 A13.14 13.14 0 0 1 215.493513147667 276.636598620399 L215.49 276.64 L238.51 325.04 Z M310 291.32 L307.657855711623 289.904420899105 A43.8 43.8 0 0 1 252.849559631588 305.51823854305 L252.85 305.52 L251.600677130066 307.948613069629 A46.53 46.53 0 0 0 310.000031353326 291.311773350406 Z M133.958289775278 268.823618306794 A6.02 6.02 0 0 0 134.436811993734 267.833468842282 L134.44 267.84 L168.082537605208 269.009170000993 A39.42 39.42 0 0 1 145.014926638842 301.650663145801 L145.01 301.65 L139.756473750512 281.487857734655 A26.97 26.97 0 0 0 133.955714537636 268.834687341806 Z M175.2 269.26 L172.464527743878 269.162240099721 A43.8 43.8 0 0 1 146.133136124366 305.944400456616 L146.13 305.95 L146.8276429289 308.61574559823 A46.53 46.53 0 0 0 175.195353242043 269.257244343554 Z M202.98 294.47 L213.38 294.47 L213.38 290.63 L209.82 290.63 L209.822503235252 278.756939177667 A13.14 13.14 0 0 0 212.032463860047 278.282568296612 L212.03 278.29 L234.7 325.95 L151.34 325.95 L150.1 321.19 L199.857678987909 275.888508886346 A13.14 13.14 0 0 0 206.537508369162 278.756940639683 L206.54 278.76 L206.54 290.63 L202.98 290.63 Z M305.633664770941 284.216667015167 A39.14 39.14 0 1 0 232.046921599643 263.804061278767 L232.04 263.81 L262.31549203617 263.804547260747 A9.03 9.03 0 1 1 279.690230067139 268.624215177804 L279.69 268.63 Z M131.0236583864 271.314259859945 A6.02 6.02 0 1 1 134.570510783219 264.004889128729 L134.57 264.01 L168.216287916622 265.179031540668 A39.42 39.42 0 1 0 141.422783615098 303.064366828297 L141.42 303.07 L135.988520967734 282.192899779762 A23.31 23.31 0 0 0 131.025851008685 271.318610192654 Z" style="fill:rgb(0,0,0);" />
</g>
</svg>
