<?xml version="1.0" encoding="UTF-8"?>
<!DOCTYPE svg PUBLIC '-//W3C//DTD SVG 1.0//EN' 'http://www.w3.org/TR/2001/REC-SVG-20010904/DTD/svg10.dtd'>
<svg xmlns:xlink="http://www.w3.org/1999/xlink" xmlns="http://www.w3.org/2000/svg" width="400.000000002976" height="400.000000000025">
<!--Gegenereerd door de SIMaD-toepassing (http://www.dlw.be).-->
<g style="stroke:none;fill-rule:evenodd;" transform="matrix(1,0,0,-1,0,400.000000000025)">
<path d=" M45 0 L354.999966227879 1.26760824059602E-11 A45 45 0 0 1 399.999999999987 45.000033772121 L399.999999999888 354.999899469035 A45 45 0 0 1 355.000033772121 399.999999999987 L45.000033772121 399.999999999987 A45 45 0 0 1 1.26760824059602E-11 354.999966227879 L1.26760824059602E-11 45.000033772121 A45 45 0 0 1 45.000033772121 1.26760824059602E-11 Z" style="fill:rgb(255,255,255);stroke:rgb(0,0,0);" />
<path d=" M177.13 116.07 L169.612330183633 115.90270509087 A11.77 11.77 0 0 0 161.448459808054 118.955619253715 L161.448866575698 118.958529100196 A27.42 27.42 0 0 0 152.905524364891 134.337189399245 L152.9 134.34 L144.83741899029 119.368954188924 A41.41 41.41 0 0 0 161.669300985911 67.2336488406766 L161.67 67.2299999999996 L159.250666645682 68.3169529869394 A38.76 38.76 0 1 0 110.190117833609 120.089336408064 L110.19 120.09 L110.19279551152 122.905159686817 A41.41 41.41 0 0 0 140.5099702494 121.604590104985 L140.51 121.6 L156.932994450181 157.256440848763 A7.12 7.12 0 0 0 159.945422185658 160.320865663809 L159.95 160.32 L161.12977699348 161.084065184976 A8.7 8.7 0 0 1 162.926903895695 162.653357096794 L162.931699569028 162.657162279996 A1.91 1.91 0 0 1 161.380141867118 165.816838008494 L161.378437375195 165.819305483217 A6.46 6.46 0 0 1 158.606035891525 165.013322574922 L158.599061283798 165.014470781673 A43.62 43.62 0 0 0 154.324105122736 162.929668830834 L154.326087845599 162.931009062821 A13.24 13.24 0 0 0 151.52894755404 162.100032794041 L151.529667564485 162.094112502671 A1.52 1.52 0 0 0 149.799327564339 163.169481230265 L149.8 163.17 L146.791955607951 171.157072641586 A59.16 59.16 0 0 1 152.278101793418 173.472567252697 L152.267833991432 173.479075082615 A14.29 14.29 0 0 0 157.982150611517 174.8913250781 L157.989920376164 174.886339398976 A6.03 6.03 0 0 0 161.920777343807 173.605178179774 L161.910965910923 173.603635843588 A41.13 41.13 0 0 1 165.387549450732 171.156790439018 L165.389866099607 171.156457865256 A10.46 10.46 0 0 1 169.263707075138 169.688459886574 L169.27 169.69 L169.270974935957 183.843143562101 A3.45 3.45 0 0 0 169.423002352189 189.370344012279 L169.41300235219 189.370344012279 A3.45 3.45 0 0 0 173.56780444734 189.233863610189 L173.568279097446 189.230473797451 A10.31 10.31 0 0 0 175.820991901088 186.693236309256 L175.82 186.7 L181.98 186.7 L181.98 184.68 L172.23 184.68 L172.23 170 A16.18 16.18 0 0 0 171.488072906994 165.156622571144 L171.485230174318 165.15715054104 A146.01 146.01 0 0 1 170.113517573781 160.517041896427 L170.11 160.52 L171.186685337485 159.771592057407 A0.79 0.79 0 0 0 171.444507128583 158.762551114458 L171.45 158.76 L162.14 139.51 L164.608092438559 136.389669367916 A0.97 0.97 0 0 1 165.745516286103 136.095635690073 L165.74 136.09 L166.316390092982 136.453915464197 A1.52 1.52 0 0 0 168.183643015605 136.265553009063 L168.183768774307 136.262054216368 A4.29 4.29 0 0 0 169.167405699404 134.826212586091 L169.170607246781 134.834537677857 A1.54 1.54 0 0 0 169.157794936206 133.615729691885 L169.164827160443 133.608311186662 A1.92 1.92 0 0 1 169.229320096383 131.920054142542 L169.23 131.92 L195.89 104.9 L225.329999905229 104.9 A5.43 5.43 0 0 1 230.676056749553 109.378907349121 L230.67 109.38 L239.64 147.02 L215.68 154.4 L215.68 156.64 L249.409999933677 156.65 A3.8 3.8 0 0 0 252.517807633983 150.663328623191 L252.51037482236 150.66125214943 A9.66 9.66 0 0 0 250.888778230698 148.878845872092 L250.89 148.88 L247.072015019593 145.798619612665 A3.61 3.61 0 0 1 245.940666692098 144.205167915059 L245.94 144.2 L243.7 133.68 L300.607677933366 133.708026220074 A2.42 2.42 0 0 1 303.64998267506 131.66615720846 L303.65 131.66 L307.99 131.66 L308.03 120.95 L305.95 120.95 L317 91.25 L314.193054571356 91.2440599132844 A38.78 38.78 0 0 0 241.270727429122 66.4094953895877 L241.27 66.4099999999999 L215.3 66.4099999999999 L215.3 58.1700000000001 L217.54 58.1700000000001 L217.54 55.1999999999998 L210.2 55.1999999999998 L210.2 58.1700000000001 L213.05 58.1700000000001 L213.057347230025 65.5801751684845 A35.02 35.02 0 0 1 205.480970887096 64.0707259125087 L205.480925721421 64.0666026863636 A690.81 690.81 0 0 0 197.376709589377 61.5504622715555 L197.371860036886 61.5524053677294 A16.04 16.04 0 0 0 185.09962993462 62.7803729699411 L185.099183415266 62.7878692375553 A9.17 9.17 0 0 0 181.214795299021 66.8263535686698 L181.214473582954 66.825576180243 A34.77 34.77 0 0 0 178.429302310673 89.3467103640053 L178.42446916169 89.3381555405451 A210.39 210.39 0 0 0 183.647757311884 109.129505374802 L183.65 109.13 Z M291.64 66.4099999999999 L247.60918513961 66.4096740067469 A33.17 33.17 0 1 1 274.746079174176 116.224513530458 L274.74 116.22 L277.395376757523 91.0825486979299 A8.07 8.07 0 0 0 279.622192123634 75.7446169733145 L279.62 75.75 L291.510306356141 76.8155107290564 A2 2 0 0 0 293.264375374767 74.97988950771 L293.27 74.9799999999996 L293.737640896187 68.6947656072117 A2.05 2.05 0 0 0 291.63657465845 66.4209813992918 Z M243.13 82.0100000000002 L268.282395389218 82.0114730000583 A8.07 8.07 0 0 1 274.313344795574 75.2633041897041 L274.31 75.2700000000004 L244.809555337038 72.6085872748265 A33.17 33.17 0 0 0 243.127514486356 82.012222533347 Z M272.44 89.2600000000002 L269.596112496704 115.576164011856 A34.31 34.31 0 0 1 242.278065677722 84.2831736975859 L242.28 84.29 L268.487211706284 84.2845988840849 A8.35 8.35 0 0 0 272.433630263277 89.2573664495161 Z M127.04 91.0799999999999 L136.935952934649 113.912851439155 A32.93 32.93 0 1 1 156.582663373136 81.994964734343 L156.59 81.9899999999998 L131.543775217688 81.9945566181901 A8.04 8.04 0 1 0 127.035469889455 91.0754795206153 Z M213.037080911379 68.9432146434636 A39.42 39.42 0 0 1 202.588512510002 66.4520129425842 L202.58 66.4499999999998 L213.01 71.0600000000004 Z M181.53 79.8900000000003 L188.501829920395 77.8590386224644 A17.37 17.37 0 0 1 191.286419435349 69.0486694309415 L191.287655288952 69.0435234152195 A12.16 12.16 0 0 1 195.475162720931 65.0917772304742 L195.477220004656 65.0890314088703 A6.27 6.27 0 0 0 189.670608494139 65.2626664832157 L189.674718083504 65.2669088411719 A20.52 20.52 0 0 0 182.976394875705 71.2973659147018 L182.972189334344 71.3032073710904 A10.01 10.01 0 0 0 181.531618002293 79.8969726372287 Z M233.28 82.0100000000002 L234.794004521048 82.0119558820099 A41.5 41.5 0 0 1 235.262636307285 76.7792254279252 L235.26 76.7799999999997 L233.28 77.3299999999999 Z M131.59 85.3100000000004 L156.593550418871 85.3089483016583 A32.93 32.93 0 0 1 140.847931236677 111.872868126575 L140.85 111.87 L129.548306454204 89.2771470542048 A8.04 8.04 0 0 0 131.588331946024 85.314290548556 Z M226.03 70.4300000000003 L215.31 69.2700000000004 L215.31 72.3900000000003 L225.84 76.0699999999997 Z M235.85 103.02 L242.95 130.67 L247.43094295845 130.665709302173 A22.23 22.23 0 0 1 252.581175322272 122.017088604727 L252.579606327364 122.016463294021 A3.44 3.44 0 0 1 255.062963420699 120.960001276433 L255.07 120.96 L259.313473958244 120.963301863904 A41.5 41.5 0 0 1 234.84029639779 85.3262838283473 L234.84 85.3299999999999 L233.2 85.3199999999997 L233.196067984262 98.5306777910881 A0.96 0.96 0 0 1 233.940166812654 98.930589824517 L233.949000496855 98.933347972328 A12.23 12.23 0 0 1 235.856115171917 103.019859323375 Z M308.547646423358 109.18691541729 A41.5 41.5 0 0 1 293.245662092284 120.963688885167 L293.24 120.96 L304.05 120.96 Z" style="fill:rgb(0,0,0);" />
<path d=" M227.421947631185 274.343312273571 A43.81 43.81 0 1 1 309.690970043883 297.164339398318 L309.69 297.16 L312.041577612888 298.577058644415 A46.55 46.55 0 0 0 313.570789685321 295.5154191242 L313.57 295.51 L315.063903118253 296.193808596707 A48.19 48.19 0 0 1 250.892173443015 319.966685267389 L250.89 319.96 L240.63 339.95 L242.976227423674 344.876674531516 A1.76 1.76 0 0 0 244.423575276541 345.806779376654 L244.417223628809 345.80216264305 A4.33 4.33 0 0 1 246.566120390726 346.87753286723 L246.561184397604 346.885839198447 A2.38 2.38 0 0 1 245.071689662017 350.909652652554 L245.075876488763 350.907903438701 A65.59 65.59 0 0 1 224.727447798287 350.610056718108 L224.728868408311 350.609795051903 A2.16 2.16 0 0 1 225.060446268069 346.428471865423 L225.06 346.44 L236.219935749417 345.97756131736 A1.78 1.78 0 0 0 238.002456712331 343.375865785474 L238.01 343.37 L236.56 340.33 L152.35 340.33 L154.708047340159 349.370793701072 A29.47 29.47 0 0 1 164.640382747732 350.42804865146 L164.642295539863 350.421747341348 A14.9 14.9 0 0 0 171.137704460137 350.421747341348 L171.134525903502 350.42265938729 A2.28 2.28 0 0 1 172.205905899559 354.424633298336 L172.212297662294 354.433763974209 A10.19 10.19 0 0 1 166.428644039533 355.005296804891 L166.424753459136 355.002643036242 A49.2 49.2 0 0 0 152.02922851024 354.295763278968 L152.03 354.29 L143.648068920294 322.108749281923 A48.19 48.19 0 0 1 116.059806929823 322.732665908825 L116.06 322.73 L116.49372016656 321.151109933532 A46.55 46.55 0 0 0 143.234207287618 320.518838034045 L143.23 320.51 L142.542248099244 317.862180978175 A43.81 43.81 0 1 1 172.618281490874 275.871962867268 L172.62 275.87 L175.359081617533 275.967595204834 A46.55 46.55 0 0 0 174.904312330814 269.762548903658 L174.9 269.76 L176.528258380589 269.533640128324 A48.19 48.19 0 0 1 147.262460368538 320.777219211756 L147.26 320.78 L149.03 327.55 L197.30756253201 283.594606823585 A13.14 13.14 0 0 1 206.567499495199 263.223060478328 L206.57 263.22 L206.57 251.34 L203.01 251.34 L203.01 247.51 L213.42 247.51 L213.42 251.34 L209.86 251.34 L209.852500277264 263.223060449661 A13.14 13.14 0 0 1 221.209522482041 274.343749693044 L221.22 274.34 L223.038130317945 274.343350286986 A48.19 48.19 0 0 1 223.760599696038 267.731923616284 L223.76 267.73 L225.3747157189 268.022146745543 A46.55 46.55 0 0 0 224.679479471643 274.343237056566 L224.68 274.34 Z M255.026771599305 311.917713719012 A39.15 39.15 0 0 0 303.717977963958 298.046535970095 L303.72 298.05 L277.774018745351 282.45453768742 A9.04 9.04 0 0 1 268.858910678576 284.994278595027 L268.86 284.99 Z M310.07 301.86 L307.716205787422 300.449923331315 A43.81 43.81 0 0 1 252.895362888896 316.067315319838 L252.9 316.06 L251.642278538675 318.506764203552 A46.55 46.55 0 0 0 310.066734569038 301.8627734679 Z M251.617455230546 310.166311967652 A39.15 39.15 0 0 1 232.086933755028 278.176431642746 L232.08 278.17 L262.355720171058 278.177576570557 A9.04 9.04 0 0 0 265.44755811523 283.241830791422 L265.45 283.24 Z M305.692480570533 294.761387366357 A39.15 39.15 0 1 0 232.08693388882 274.343565627345 L232.08 274.34 L262.35571997025 274.342424354567 A9.04 9.04 0 1 1 279.749699318645 279.167429719596 L279.75 279.16 Z M131.033657702932 281.854260131616 A6.02 6.02 0 1 1 134.580510633547 274.544888625157 L134.58 274.54 L168.23628693717 275.718891556216 A39.43 39.43 0 1 0 141.435983134049 313.613841166588 L141.44 313.61 L135.998520215705 292.732895368202 A23.31 23.31 0 0 0 131.035854106586 281.858613965885 Z M203.01 305.01 L213.42 305.01 L213.42 301.17 L209.86 301.17 L209.852499367114 289.296939665007 A13.14 13.14 0 0 0 212.062470218534 288.822566346703 L212.07 288.82 L234.74 336.5 L151.36 336.5 L150.12 331.74 L199.887684667077 286.428513534406 A13.14 13.14 0 0 0 206.567500405349 289.29693963634 L206.57 289.3 L206.57 301.17 L203.01 301.17 Z M175.22 279.8 L172.484498737081 279.703001606846 A43.81 43.81 0 0 1 146.147070990705 316.493593792542 L146.15 316.49 L146.845415722372 319.174173413002 A46.55 46.55 0 0 0 175.225293452135 279.798789871149 Z M133.968286416836 279.363623888599 A6.02 6.02 0 0 0 134.446813948742 278.373463628092 L134.45 278.37 L168.102500896485 279.550026337239 A39.43 39.43 0 0 1 145.029060087004 312.199768918208 L145.03 312.2 L139.776331466617 292.026176832098 A26.98 26.98 0 0 0 133.973421513735 279.36831533118 Z M249.485594953895 314.315681594141 A43.81 43.81 0 0 1 227.42194756428 278.176686198636 L227.42 278.17 L224.67947943819 278.176762131673 A46.55 46.55 0 0 0 248.232374117899 316.755060363673 L248.23 316.75 Z M247.482473443274 318.215086515966 A48.19 48.19 0 0 1 223.03813021759 278.176647191788 L223.04 278.17 L221.209522716155 278.176248718765 A13.14 13.14 0 0 1 215.523515052973 287.176597343951 L215.53 287.18 L238.55 335.59 Z" style="fill:rgb(0,0,0);" />
</g>
</svg>
