<svg xmlns:xlink="http://www.w3.org/1999/xlink" xmlns="http://www.w3.org/2000/svg" width="400" height="200"  viewBox="-0.000001341104507446289 -0.0000152587890625 400.0000305175781 200.00001525878906"><rect id="svgEditorBackground" x="-0.0000013411046211331268" y="-0.000015258790881489404" width="400.0000305175781" height="200.00001525878906" style="fill:none;stroke:none;"/>
<!--Gegenereerd door de SIMaD-toepassing (http://www.dlw.be).-->
<g style="stroke:none;fill-rule:evenodd;" transform="matrix(1,0,0,-1,0,200)">

<path d=" M162.381482392632 106.249543397666 A104.23 104.23 0 0 1 143.006509500863 104.374546072807 L143 104.37 L139.75 103.75 L127.75 123.12 L118.63 123.12 L122 101.25 L118.63 100 L122 98.75 L118.63 76.87 L127.75 76.87 L139.75 96.25 L143.006509500863 95.6254539271929 A104.23 104.23 0 0 1 162.381482392632 93.750456602334 L162.38 93.75 L188.13 93.75 L188.13 80 L165.5 25 L174.63 25 L226.4 93.78 L249.506990478177 93.776814331931 A127.33 127.33 0 0 1 270.158721234927 95.0342407051765 L270.160130757321 95.0352023522093 A37.2 37.2 0 0 1 277.714954394619 96.9406565815457 L277.7143366719 96.9446774507613 A7.09 7.09 0 0 1 281.380843527547 100.004768243654 L281.380843590296 99.9952316496915 A7.09 7.09 0 0 1 277.714336904215 103.055322463915 L277.714953785161 103.059343642292 A37.2 37.2 0 0 1 270.160130114607 104.964797739772 L270.158721234927 104.965759294823 A127.33 127.33 0 0 1 249.506990478177 106.223185668069 L249.5 106.22 L226.4 106.22 L174.63 175 L165.5 175 L188.13 120 L188.13 106.25 Z" style="fill:rgb(0,0,0);"/>
</g>
</svg>