<svg xmlns:xlink="http://www.w3.org/1999/xlink" xmlns="http://www.w3.org/2000/svg" width="400" height="200"  viewBox="-0.000001341104507446289 -0.0000152587890625 400.0000305175781 200.00001525878906"><rect id="svgEditorBackground" x="-0.0000013411046211331268" y="-0.000015258790881489404" width="400.0000305175781" height="200.00001525878906" style="fill:none;stroke:none;"/>
<!--Gegenereerd door de SIMaD-toepassing (http://www.dlw.be).-->
<g style="stroke:none;fill-rule:evenodd;" transform="matrix(1,0,0,-1,0,200)">

<path d=" M194.246309708987 25.166105426257 A120.9 120.9 0 0 0 173.940960581971 56.5836187974541 L173.948522204907 56.5824691249761 A42.52 42.52 0 0 0 173.707201920789 90.5843396981175 L173.705128602978 90.5842014244202 A86.91 86.91 0 0 0 185.288314122865 110.116806856943 L185.288590232255 110.116713062589 A35.26 35.26 0 0 1 192.768728338624 133.987768837899 L192.774952285342 133.988299359137 A31.57 31.57 0 0 0 199.88423141608 122.130113572271 L199.878867806303 122.132505778572 A22.18 22.18 0 0 0 199.15979981095 106.324382799912 L199.153723458895 106.324213545995 A105.75 105.75 0 0 1 194.659297803699 93.9285005631528 L194.657103332934 93.9252159748129 A20.33 20.33 0 0 1 193.9378435813 78.8315456124443 L193.947627702794 78.8388155936247 A115.49 115.49 0 0 1 208.509546598286 102.552333915963 L208.507925101123 102.545929036865 A50.98 50.98 0 0 1 206.889805607342 134.525779856796 L206.888625086715 134.526402170203 A226.46 226.46 0 0 0 200.95598480143 146.652063321585 L200.952870215265 146.64875898457 A34.62 34.62 0 0 0 200.413548110146 173.954808411562 L200.412888354337 173.953035432448 A89.65 89.65 0 0 1 210.480461995804 154.730582612694 L210.491132908673 154.743139271091 A531.43 531.43 0 0 0 224.153985431935 133.904268139565 L224.149758080459 133.895384624108 A54.14 54.14 0 0 0 226.666479361093 81.172520895923 L226.666076195997 81.172582274478 A189.4 189.4 0 0 1 202.803324146537 24.9993637944998 L202.806055226099 24.9924903449836 A75.03 75.03 0 1 1 194.256493764157 25.1601541498792 Z" style="fill:rgb(0,0,0);"/>
</g>
</svg>