<svg xmlns:xlink="http://www.w3.org/1999/xlink" xmlns="http://www.w3.org/2000/svg" width="400" height="200"  viewBox="-0.000001341104507446289 -0.0000152587890625 400.0000305175781 200.00001525878906"><rect id="svgEditorBackground" x="-0.0000013411046211331268" y="-0.000015258790881489404" width="400.0000305175781" height="200.00001525878906" style="fill:none;stroke:none;"/>
<!--Gegenereerd door de SIMaD-toepassing (http://www.dlw.be).-->
<g style="stroke:none;fill-rule:evenodd;" transform="matrix(1,0,0,-1,0,200)">

<path d=" M226.187261576263 66.4920716841591 A173.27 173.27 0 0 0 281.079060852651 62.0484662678173 L281.08719700056 62.0522251707982 A25.33 25.33 0 0 1 286.195961215649 52.5495455051662 L286.196799394965 52.5526940424143 A322.78 322.78 0 0 0 298.64123105283 37.072842283026 L298.635027089251 37.0664687019672 A23.92 23.92 0 0 0 303.345458464921 24.9980648568635 L303.346132418843 24.9997272548686 A124.32 124.32 0 0 1 289.465727209044 29.4183390628581 L289.468625080307 29.4204290100631 A205.59 205.59 0 0 1 193.528511162007 30.7684123333878 L193.532519270923 30.763318247954 A109.04 109.04 0 0 0 164.072925211239 28.2391564437125 L164.070324918994 28.2402524797579 A258.78 258.78 0 0 0 132.383139533731 31.8098088489362 L132.378527546361 31.8166892524233 A28.29 28.29 0 0 0 135.073437542533 40.3351826587007 L135.082158908328 40.3272666570864 A144.04 144.04 0 0 0 142.307548019064 53.0692652528212 L142.300605327001 53.0699503225828 A59.55 59.55 0 0 1 148.579408393077 66.2847614012356 L148.57748041274 66.2912421564747 A58.86 58.86 0 0 1 166.408718281854 64.086882104772 L166.411008769645 64.0834008085521 A2510.65 2510.65 0 0 0 189.872778306011 64.6829671338819 L189.870261181029 64.6867352375134 A627.62 627.62 0 0 1 226.186783222369 66.4984839982297 Z" style="fill:rgb(0,0,0);"/>
<path d=" M171.462475164522 132.998038318082 A66.12 66.12 0 0 0 167.101122405742 122.599745435679 L167.097616756351 122.594047943543 A131.45 131.45 0 0 1 162.125223646024 111.974145977018 L162.12 111.98 L164.37 110.23 L160.05 108.24 L164.53 102.09 L156.986007663823 99.7948785644654 A83.78 83.78 0 0 1 154.519141445945 74.6735533140606 L154.519804095557 74.6805092452411 A182.8 182.8 0 0 1 183.24898446535 73.5657779689323 L183.255183412856 73.5647662598572 A670.57 670.57 0 0 1 211.991869323677 75.331672706097 L211.990306073813 75.3327363916135 A235.19 235.19 0 0 0 257.955144111879 74.6428399384345 L257.955205685484 74.6402565309437 A119.35 119.35 0 0 0 274.689929245787 71.5211841574308 L274.687540352375 71.5233723535311 A70.89 70.89 0 0 0 269.762951091901 83.1599924037841 L269.76079440399 83.154601556631 A6780.84 6780.84 0 0 0 261.157322594234 110.104263541579 L261.157314348476 110.103582148615 A29.8 29.8 0 0 1 257.821115311963 117.208357365488 L257.823769926049 117.21600537615 A99.71 99.71 0 0 1 237.818792132192 129.450447278324 L237.815433971656 129.4427566227 A154.68 154.68 0 0 1 197.799129903034 141.619833099953 L197.802380018897 141.627474201525 A121.89 121.89 0 0 1 173.204622919299 143.068800082148 L173.201092607919 143.062743656685 A36.66 36.66 0 0 0 171.452701285538 132.994778926219 Z" style="fill:rgb(0,0,0);"/>
<path d=" M149.787102003789 97.6923159785678 A200.58 200.58 0 0 1 147.657072823471 80.4637995505497 L147.656091161357 80.4564116043073 A17.66 17.66 0 0 1 147.750382882547 76.7502373165502 L147.751438693068 76.7589292959742 A56.7 56.7 0 0 0 125.820058594917 86.9769576786745 L125.823371077956 86.9749507346246 A45.68 45.68 0 0 0 132.020918857683 109.399655179274 L132.012011901118 109.396631087351 A206.65 206.65 0 0 0 148.603392034437 133.729054386928 L148.603861933716 133.72602529952 A59.51 59.51 0 0 1 159.190691510692 154.392919936986 L159.190643637813 154.401412893607 A42.99 42.99 0 0 1 160.307387417326 172.842896523722 L160.308272836403 172.837166192754 A87.03 87.03 0 0 0 207.771062455309 170.311050630229 L207.774982681619 170.303994696123 A71.57 71.57 0 0 0 251.134545623541 128.960800872726 L251.135375471424 128.963354569013 A193.97 193.97 0 0 1 199.570589712061 147.562402621892 L199.565842223668 147.567101117822 A116.4 116.4 0 0 1 172.668829716682 149.944026337628 L172.679282148969 149.948742062672 A19.4 19.4 0 0 1 170.548140481082 154.835168967399 L170.548484841356 154.828623878505 A4.5 4.5 0 0 1 169.604516940633 155.925543742341 L169.590752554316 155.920320480947 A28.89 28.89 0 0 0 169.829799921243 152.317519814738 L169.839715357769 152.322962447534 A41.1 41.1 0 0 0 165.508349710037 133.804312983164 L165.51 133.8 L158.523985717186 121.054572509043 A47.95 47.95 0 0 1 154.147015215529 111.481626545958 L154.15 111.48 L148.75 109.82 L154.23 104.25 L148.75 99.35 Z" style="fill:rgb(0,0,0);"/>
<path d=" M142.27 68.03 L140.533533963868 63.7962582735656 A54.71 54.71 0 0 0 136.315263637782 55.5399051005765 L136.319970733995 55.5348468550047 A338.65 338.65 0 0 1 129.133547598742 43.4479291281182 L129.128840774876 43.4454612852387 A4304.56 4304.56 0 0 1 124.569752400965 35.3816667446749 L124.573473125436 35.3831628053192 A60.1 60.1 0 0 0 120.892820436672 37.1966289873925 L120.890798838694 37.1901304001064 A49.67 49.67 0 0 1 113.154172264652 40.5253829082556 L113.15449022081 40.532516589246 A33.88 33.88 0 0 0 96.6617974574133 52.4951678978305 L96.6545586119728 52.505060152351 A35.4 35.4 0 0 1 110.148655189844 62.1422996928366 L110.152247213643 62.143607418406 A171.44 171.44 0 0 1 117.090940853747 70.6872825238966 L117.091597344656 70.6776323316595 A33.11 33.11 0 0 0 123.157361604789 76.8025863966317 L123.156141684684 76.801958007612 A1141.46 1141.46 0 0 1 132.460471890491 71.7676335373611 L132.462788128473 71.7785572417763 A41.41 41.41 0 0 1 142.264389931143 68.0407019118698 Z" style="fill:rgb(0,0,0);"/>
</g>
</svg>