<svg xmlns:xlink="http://www.w3.org/1999/xlink" xmlns="http://www.w3.org/2000/svg" width="400" height="200"  viewBox="-0.000001341104507446289 -0.0000152587890625 400.0000305175781 200.00001525878906"><rect id="svgEditorBackground" x="-0.0000013411046211331268" y="-0.000015258790881489404" width="400.0000305175781" height="200.00001525878906" style="fill:none;stroke:none;"/>
<!--Gegenereerd door de SIMaD-toepassing (http://www.dlw.be).-->
<g style="stroke:none;fill-rule:evenodd;" transform="matrix(1,0,0,-1,0,200)">

<path d=" M267.499994371313 25.0000000000021 A7.5 7.5 0 0 1 274.999999999998 32.5000056286868 L274.999999999981 167.499983244839 A7.5 7.5 0 0 1 267.500005628687 174.999999999998 L132.500005628687 174.999999999998 A7.5 7.5 0 0 1 125.000000000002 167.499994371313 L125.000000000002 32.5000056286868 A7.5 7.5 0 0 1 132.500005628687 25.0000000000021 Z" style="fill:rgb(255,255,255);"/>
<path d=" M155 34.38 L179.06 34.38 L179.06 91.25 L210.000039706241 91.2500000000225 A35 35 0 0 1 244.999999999989 126.249972511064 L244.999999999989 130.620027488936 A35 35 0 0 1 210.000039706241 165.619999999978 L210 165.63 L155 165.63 Z M179.06 113.13 L207.810015124674 113.120000000009 A13.13 13.13 0 0 1 220.939999999996 126.249989916884 L220.939999999996 130.620010083116 A13.13 13.13 0 0 1 207.810015124674 143.749999999991 L179.06 143.75 Z" style="fill:rgb(0,0,0);"/>
</g>
</svg>