<svg xmlns:xlink="http://www.w3.org/1999/xlink" xmlns="http://www.w3.org/2000/svg" width="400" height="200"  viewBox="-0.000001341104507446289 -0.0000152587890625 400.0000305175781 200.00001525878906"><rect id="svgEditorBackground" x="-0.0000013411046211331268" y="-0.000015258790881489404" width="400.0000305175781" height="200.00001525878906" style="fill:none;stroke:none;"/>
<!--Gegenereerd door de SIMaD-toepassing (http://www.dlw.be).-->
<g style="stroke:none;fill-rule:evenodd;" transform="matrix(1,0,0,-1,0,200)">

<path d=" M233.5 142.77 L255.84 165.87 L252.76 168.95 L230.04 145.85 L226.57 149.31 L249.68 172.03 L246.6 174.73 L222.726320696621 151.618145621185 A27.37 27.37 0 0 1 217.336248895085 144.303027238906 L217.330994884549 144.3107229042 A14.78 14.78 0 0 1 215.742436719051 137.908371901563 L215.753187816648 137.909725099473 A41.32 41.32 0 0 0 214.70549181607 129.384625678174 L214.695190916441 129.384840817242 A11.16 11.16 0 0 0 212.374377067485 124.722836475475 L212.378959371013 124.711032978467 A105.71 105.71 0 0 0 199.238933080196 111.57101219173 L199.237870095375 111.58482772999 A76.53 76.53 0 0 0 187.542627192632 124.958559572069 L187.540384150761 124.952317578758 A27.8 27.8 0 0 0 182.680104583204 141.993409656769 L182.676906839788 141.998184683253 A30.56 30.56 0 0 1 168.508291365281 169.233173063546 L168.505090518471 169.238611436141 A38.83 38.83 0 0 1 154.182935890566 174.728371076274 L154.192231343027 174.724931406689 A19.72 19.72 0 0 1 131.750349239624 159.947567111508 L131.743584117667 159.953651489363 A28.28 28.28 0 0 1 137.096501671456 135.644404020673 L137.103380894803 135.645579046557 A47.88 47.88 0 0 1 151.397434349378 123.565466206141 L151.397282787646 123.567467278504 A31.55 31.55 0 0 1 161.503860157159 120.05417917675 L161.505850126041 120.048700799143 A200.92 200.92 0 0 0 176.522529185697 116.968365911299 L176.523594735596 116.964760146043 A10.26 10.26 0 0 0 180.74619439105 114.799323838688 L180.744626443168 114.807015675691 A691.93 691.93 0 0 1 187.302252543654 109.272116393386 L187.295701206407 109.268666363217 A16.44 16.44 0 0 0 191.530398308446 103.879077411937 L191.54 103.88 L127.536978360936 37.4831354433669 A7.31 7.31 0 0 1 136.228914641608 25.9541000332588 L136.23 25.95 L199.24 95.41 L260.199349108892 27.715806819484 A8.21 8.21 0 0 1 272.704257698285 38.347079261016 L272.71 38.35 L206.55 104.65 L217.750210194519 116.646728683832 A19.2 19.2 0 0 0 231.195718335416 122.740800642577 L231.193568468373 122.747330746212 A15.3 15.3 0 0 1 239.999118749744 125.87496998655 L240 125.87 L268.93 153.16 L265.99 156 L242.36 133.53 L239.67 136.22 L262.38 159.32 L259.3 162.4 L236.2 140.07 Z" style="fill:rgb(0,0,0);"/>
</g>
</svg>