<svg xmlns:xlink="http://www.w3.org/1999/xlink" xmlns="http://www.w3.org/2000/svg" width="400" height="200"  viewBox="-0.000001341104507446289 -0.0000152587890625 400.0000305175781 200.00001525878906"><rect id="svgEditorBackground" x="-0.0000013411046211331268" y="-0.000015258790881489404" width="400.0000305175781" height="200.00001525878906" style="fill:none;stroke:none;"/>
<!--Gegenereerd door de SIMaD-toepassing (http://www.dlw.be).-->
<g style="stroke:none;fill-rule:evenodd;" transform="matrix(1,0,0,-1,0,200)">

<path d=" M252.51 28.26 L252.51 35.33 L308.28 69.14 L308.28 67.22 L315.04 65.09 L320.52 68.74 L320.519999999999 102.899996048924 A10.29 10.29 0 0 1 305.121460047694 111.832352408839 L305.13 111.83 L284.53 100.05 L157.07 149.04 L157.07 164.709998742839 A10.29 10.29 0 0 1 142.846481984563 174.21849809498 L142.85 174.22 L92.1929649648537 153.266996601876 A20.58 20.58 0 0 1 79.48 134.250001077566 L79.48 105.55 L79.48 98.34 L85.1 95.4 L89.4 98.22 L89.4 101.2 L240.21 35.05 L240.21 28.03 L247.12 25 Z M257.432926954943 84.564708740754 A20.58 20.58 0 0 1 247.07 66.6999992816225 L247.07 53.78 L109.45049359981 111.332119053053 A12.92 12.92 0 0 0 106.036550276666 134.428922202546 L106.03022821277 134.432975673264 A206.25 206.25 0 0 0 153.780532922564 148.470047185766 L153.78 148.46 L282.61 98.95 L257.43 84.56 Z M99.4636320670478 115.57046378562 A12.28 12.28 0 0 0 95.8501119806409 135.069442446669 L95.8476767506 135.068835398524 A15.79 15.79 0 0 0 99.515904839714 137.95093352604 L99.515727211716 137.94946218361 A228.49 228.49 0 0 0 128.094202724967 151.692581930826 L128.087293311294 151.700448205721 A90.84 90.84 0 0 0 148.977916902889 157.247555191868 L148.978471768308 157.238862732567 A1.92 1.92 0 0 1 150.627593312928 159.043896481773 L150.63 159.05 L150.63 160.429999960905 A2.24 2.24 0 0 1 149.253158407339 162.497016585284 L149.256993650997 162.499583823886 A6.48 6.48 0 0 1 146.03870050357 162.959730354328 L146.030968603351 162.957064661035 A61.62 61.62 0 0 1 140.283905420456 162.036753721098 L140.28296380354 162.044032449081 A97.21 97.21 0 0 1 112.234863450388 151.459538156301 L112.240935849037 151.458567634001 A197.5 197.5 0 0 1 96.3663050547037 141.434886839291 L96.3695958680995 141.429799743892 A14.77 14.77 0 0 1 99.4647428323943 115.572837851428 L99.46 115.57 Z" style="fill:rgb(0,0,0);"/>
</g>
</svg>