<svg xmlns:xlink="http://www.w3.org/1999/xlink" xmlns="http://www.w3.org/2000/svg" width="400" height="200"  viewBox="-0.000001341104507446289 -0.0000152587890625 400.0000305175781 200.00001525878906"><rect id="svgEditorBackground" x="-0.0000013411046211331268" y="-0.000015258790881489404" width="400.0000305175781" height="200.00001525878906" style="fill:none;stroke:none;"/>
<!--Gegenereerd door de SIMaD-toepassing (http://www.dlw.be).-->
<g style="stroke:none;fill-rule:evenodd;" transform="matrix(1,0,0,-1,0,200)">

<path d=" M216.33 158.9 A16.1 16.1 0 0 1 184.13 158.9 A16.1 16.1 0 0 1 216.33 158.9 Z" style="fill:rgb(0,0,0);"/>
<path d=" M162.96 129.48 L162.96 134.03 L215.1 134.03 L215.12 39.59 L215.118051069936 39.5921419651395 A12.7 12.7 0 0 1 216.949855273018 32.5561366577817 L216.949197741558 32.5541923486077 A8.08 8.08 0 0 1 223.825182721552 29.5397910392311 L223.82 29.54 L236.99 29.54 L237.05 25 L162.96 25 L162.96 29.58 L177.55 29.58 L177.549969809919 29.5863962377 A7.04 7.04 0 0 1 184.202247116935 33.5851101230202 L184.19699510508 33.5845849952524 A13.15 13.15 0 0 1 185.461201369419 39.9528873279357 L185.47 39.95 L185.47 119.47 L185.472414633662 119.470681798996 A10.54 10.54 0 0 1 182.499416528856 127.735600771123 L182.494771824116 127.736136622428 A8.96 8.96 0 0 1 176.866907602688 129.484872137484 L176.87 129.48 L162.96 129.48 Z" style="fill:rgb(0,0,0);"/>
</g>
</svg>