<svg xmlns:xlink="http://www.w3.org/1999/xlink" xmlns="http://www.w3.org/2000/svg" width="400" height="200"  viewBox="-0.000001341104507446289 -0.0000152587890625 400.0000305175781 200.00001525878906"><rect id="svgEditorBackground" x="-0.0000013411046211331268" y="-0.000015258790881489404" width="400.0000305175781" height="200.00001525878906" style="fill:none;stroke:none;"/>
<!--Gegenereerd door de SIMaD-toepassing (http://www.dlw.be).-->
<g style="stroke:none;fill-rule:evenodd;" transform="matrix(1,0,0,-1,0,200)">

<path d=" M286.083566641802 142.355857618197 A24.26 24.26 0 0 1 283.247625033971 148.118805613454 A24.26 24.26 0 0 1 276.734338736992 154.679402294939 L276.738768012105 154.681947138559 A23.61 23.61 0 0 1 272.000625352524 157.171129425539 L271.997208484827 157.157851778086 A156.35 156.35 0 0 1 231.238458348801 172.459822585863 L231.243614365411 172.465235262993 A114.85 114.85 0 0 1 214.568890777656 174.917597436236 L214.57 174.92 L210.21 175 L195.61 175 L188.166760174289 174.781501307586 A110.95 110.95 0 0 1 163.130307221581 171.600988429717 L163.134532653097 171.594053317116 A148.07 148.07 0 0 1 123.818314064586 155.706853672201 L123.813835065727 155.70699113809 A28.36 28.36 0 0 1 116.747865887567 148.506379074024 A28.36 28.36 0 0 1 112.649586698479 139.287876850493 L112.65 139.29 L112.372235617023 138.313034274929 A53.89 53.89 0 0 1 110 122.500005643348 L110.004181744811 79.1948282238154 A46.9 46.9 0 0 1 110.499227089945 75.0832660810163 L110.494990981507 75.0878571087476 A58.51 58.51 0 0 1 116.258185412355 57.7440909289308 L116.258220317719 57.7408381411225 A18 18 0 0 1 132.500000942478 47.5 L143.3 47.5 L143.3 27.7 L110 27.7 L110 25 L290 25 L290 27.7 L256.7 27.7 L256.7 47.5 L267.500001570796 47.5000000000001 A18 18 0 0 1 283.820348409615 57.9074887034151 L283.821918321952 57.911111597713 A58.23 58.23 0 0 1 289.576165828082 75.2383982151042 L289.567795730936 75.2323676743237 A46.82 46.82 0 0 1 289.993414098016 78.5540161170516 L290 78.5599999999999 L290 122.500003651927 A52.31 52.31 0 0 1 286.525047329102 141.24764658202 L286.518808669908 141.248580540633 A48.49 48.49 0 0 1 286.079643834809 142.351967796859 Z M186.66 60.25 L182.090226148503 47.5000001633984 A18 18 0 1 1 217.909773851497 47.5000001633984 L217.91 47.5 L213.34 60.25 Z M180.34 47.5 L185.5 61.9 L214.5 61.9 L219.66 47.5 L254 47.5 L254 27.7 L146 27.7 L146 47.5 Z M134.000000418879 137.5 A6 6 0 0 1 128 131.499999581121 L128 113.500000418879 A6 6 0 0 1 134.000000418879 107.5 L151.999999581121 107.5 A6 6 0 0 1 158 113.500000418879 L158 131.499998848083 A6 6 0 0 1 152.000000418879 137.5 Z M176.000000418879 137.5 A6 6 0 0 1 170 131.499999581121 L170 113.500000418879 A6 6 0 0 1 176.000000418879 107.5 L193.999999581121 107.5 A6 6 0 0 1 200 113.500000418879 L200 131.499998848083 A6 6 0 0 1 194.000000418879 137.5 Z M254 144.999998560103 A7.5 7.5 0 0 1 246.500000523599 152.5 L225.500000523599 152.5 A7.5 7.5 0 0 1 218 144.999999476401 L218 58.7500005235988 A7.5 7.5 0 0 1 225.500000523599 51.25 L246.499999476401 51.25 A7.5 7.5 0 0 1 254 58.7500005235988 Z M252.35 144.999998876881 A5.85 5.85 0 0 1 246.500000408407 150.85 L225.500000408407 150.85 A5.85 5.85 0 0 1 219.65 144.999999591593 L219.65 58.7500004084071 A5.85 5.85 0 0 1 225.500000408407 52.9 L246.499999591593 52.9 A5.85 5.85 0 0 1 252.35 58.7500004084071 Z" style="fill:rgb(0,0,0);"/>
</g>
</svg>