<svg xmlns:xlink="http://www.w3.org/1999/xlink" xmlns="http://www.w3.org/2000/svg" width="400" height="200"  viewBox="-0.000001341104507446289 -0.0000152587890625 400.0000305175781 200.00001525878906"><rect id="svgEditorBackground" x="-0.0000013411046211331268" y="-0.000015258790881489404" width="400.0000305175781" height="200.00001525878906" style="fill:none;stroke:none;"/>
<!--Gegenereerd door de SIMaD-toepassing (http://www.dlw.be).-->
<g style="stroke:none;fill-rule:evenodd;" transform="matrix(1,0,0,-1,0,200)">

<path d=" M108.15 25 L108.15 29.0799999999999 L140.09 29.0799999999999 L140.093758438422 53.8905590853294 A80.54 80.54 0 0 1 127.691126942976 53.4489223902005 L127.690407070074 53.4478008924807 A343.89 343.89 0 0 1 109.142856931378 50.8349515935079 L109.145430671448 50.8288929418885 A525.85 525.85 0 0 0 123.718481666102 83.618257640659 L123.720662908961 83.6181182262146 A66.12 66.12 0 0 0 117.61140493688 80.7107002985254 L117.611598501559 80.7171327982613 A743.46 743.46 0 0 0 136.490389258222 133.0846160967 L136.485119093495 133.086901051324 A947.76 947.76 0 0 0 130.633823898483 130.032451397992 L130.636258991601 130.034233590304 A7072.45 7072.45 0 0 0 142.118121859648 174.489652390507 L142.110587656364 174.483491052957 A3302.55 3302.55 0 0 0 153.629233649297 130.02814139351 L153.634415593955 130.031657081214 A1788.9 1788.9 0 0 0 147.746306912415 133.086113452269 L147.744521814017 133.088882178142 A730.87 730.87 0 0 0 166.660139880489 80.7213238045167 L166.658937200356 80.714465808157 A43.74 43.74 0 0 0 160.255073509306 83.8059862625055 L160.262250601183 83.8100064906459 A395.16 395.16 0 0 0 175.093108330808 50.8361889782843 L175.087786326266 50.8394943275961 A192.74 192.74 0 0 1 153.890366979888 53.6731771798766 L153.895785708651 53.6738246095696 A88.94 88.94 0 0 1 144.179862254712 53.8946411072557 L144.18 53.8900000000001 L144.18 29.0799999999999 L175.86 29.0799999999999 L175.86 111.63 L283.91 111.63 L283.91 29.0799999999999 L291.6 29.0799999999999 L291.6 25 Z M214.03 29.0799999999999 L214.03 79.6900000000001 L245.71 79.6900000000001 L245.71 29.0799999999999 Z" style="fill:rgb(0,0,0);"/>
<path d=" M168.21 114.68 L230 175 L291.86 114.68 Z" style="fill:rgb(0,0,0);"/>
</g>
</svg>