<svg xmlns:xlink="http://www.w3.org/1999/xlink" xmlns="http://www.w3.org/2000/svg" width="400" height="200"  viewBox="-0.000001341104507446289 -0.0000152587890625 400.0000305175781 200.00001525878906"><rect id="svgEditorBackground" x="-0.0000013411046211331268" y="-0.000015258790881489404" width="400.0000305175781" height="200.00001525878906" style="fill:none;stroke:none;"/>
<!--Gegenereerd door de SIMaD-toepassing (http://www.dlw.be).-->
<g style="stroke:none;fill-rule:evenodd;" transform="matrix(1,0,0,-1,0,200)">

<path d=" M116.59 25 L226.19 25 L283.4 80.71 L283.396478850676 159.733601789639 A83.87 83.87 0 0 1 187.401731973246 160.081285705527 L187.4 160.08 L187.4 80.71 L116.59 33.75 Z M273.96 155.11 L273.96 85.79 L196.66 85.79 L196.660116212885 155.113366372643 A74.46 74.46 0 0 0 273.959883787115 155.113366372643 Z M264.62 100.84 L264.62 148.15 L206.02 148.15 L206.02 100.84 Z M197.83 76.63 L265.94 76.63 L222.47 34.33 L134.2 34.33 Z" style="fill:rgb(0,0,0);"/>
</g>
</svg>