<svg xmlns:xlink="http://www.w3.org/1999/xlink" xmlns="http://www.w3.org/2000/svg" width="400" height="200"  viewBox="-0.000001341104507446289 -0.0000152587890625 400.0000305175781 200.00001525878906"><rect id="svgEditorBackground" x="-0.0000013411046211331268" y="-0.000015258790881489404" width="400.0000305175781" height="200.00001525878906" style="fill:none;stroke:none;"/>
<!--Gegenereerd door de SIMaD-toepassing (http://www.dlw.be).-->
<g style="stroke:none;fill-rule:evenodd;" transform="matrix(1,0,0,-1,0,200)">

<path d=" M15.77 142.33 L15.7724689736757 115.57294476312 A202.88 202.88 0 0 1 49.5082350144476 109.045824668682 L49.5020968545658 109.042485479094 A58.87 58.87 0 0 1 78.3631077359068 113.226304095082 L78.37 113.23 L96.6808629091999 122.619250343896 A96.24 96.24 0 0 0 190.134343300452 119.509555383309 L190.14 119.51 L200.107121180355 113.055893698611 A82.24 82.24 0 0 1 284.731726337142 110.1007373686 L284.73 110.1 L295.11235120165 115.850901313326 A90.61 90.61 0 0 0 384.219461136074 115.121400172215 L384.22 115.12 L384.219461136074 141.881400172215 A90.61 90.61 0 0 1 295.11235120165 142.610901313326 L295.11 142.61 L284.731726337142 136.8607373686 A82.24 82.24 0 0 0 200.107121180355 139.815893698611 L200.1 139.81 L190.134343300452 146.279555383309 A96.24 96.24 0 0 1 96.6808629091999 149.389250343896 L96.68 149.39 L78.3631077359068 139.986304095082 A58.87 58.87 0 0 0 49.5020968545658 135.802485479094 L49.5082350144476 135.815824668682 A202.88 202.88 0 0 0 15.7724689736757 142.34294476312 Z" style="fill:rgb(0,0,255);"/>
<path d=" M15.77 82.54 L15.7724689736757 55.7829447631201 A202.88 202.88 0 0 1 49.5082350144476 49.255824668682 L49.5020968545658 49.2524854790941 A58.87 58.87 0 0 1 78.3631077359068 53.4363040950823 L78.37 53.43 L96.6808629091999 62.8292503438964 A96.24 96.24 0 0 0 190.134343300452 59.7195553833091 L190.14 59.72 L200.107121180355 53.2558936986106 A82.24 82.24 0 0 1 284.731726337142 50.3007373686003 L284.73 50.3 L295.11235120165 56.0609013133257 A90.61 90.61 0 0 0 384.219461136074 55.3314001722151 L384.22 55.33 L384.219461136074 82.0914001722151 A90.61 90.61 0 0 1 295.11235120165 82.8209013133257 L295.11 82.82 L284.731726337142 77.0707373686002 A82.24 82.24 0 0 0 200.107121180355 80.0258936986106 L200.1 80.02 L190.134343300452 86.4795553833091 A96.24 96.24 0 0 1 96.6808629091999 89.5892503438964 L96.68 89.59 L78.3631077359068 80.1963040950823 A58.87 58.87 0 0 0 49.5020968545658 76.0124854790941 L49.5082350144476 76.015824668682 A202.88 202.88 0 0 0 15.7724689736757 82.5429447631201 Z" style="fill:rgb(0,0,255);"/>
</g>
</svg>