<svg xmlns:xlink="http://www.w3.org/1999/xlink" xmlns="http://www.w3.org/2000/svg" width="400" height="200"  viewBox="-0.000001341104507446289 -0.0000152587890625 400.0000305175781 200.00001525878906"><rect id="svgEditorBackground" x="-0.0000013411046211331268" y="-0.000015258790881489404" width="400.0000305175781" height="200.00001525878906" style="fill:none;stroke:none;"/>
<!--Gegenereerd door de SIMaD-toepassing (http://www.dlw.be).-->
<g style="stroke:none;fill-rule:evenodd;" transform="matrix(1,0,0,-1,0,200)">

<path d=" M295.13 50.3 A25.15 25.15 0 0 1 244.83 50.3 A25.15 25.15 0 0 1 295.13 50.3 Z M285.79 50.3 A15.77 15.77 0 0 1 254.25 50.3 A15.77 15.77 0 0 1 285.79 50.3 Z" style="fill:rgb(0,0,0);"/>
<path d=" M142.47 50.16 A25.16 25.16 0 0 1 92.15 50.16 A25.16 25.16 0 0 1 142.47 50.16 Z M133.1 50.18 A15.78 15.78 0 0 1 101.54 50.1799999999999 A15.78 15.78 0 0 1 133.1 50.1799999999999 Z" style="fill:rgb(0,0,0);"/>
<path d=" M65 52.89 L86.9926604278572 52.8899306341702 A30.44 30.44 0 0 0 147.627339572143 52.8899306341702 L147.62 52.89 L239.728998028864 52.8915792082004 A30.39 30.39 0 0 0 300.291001971136 52.8915792082004 L300.29 52.89 L325.20792517578 52.9689837918068 A10.81 10.81 0 0 1 334.989980248115 63.7506648339359 L334.99 63.75 L334.959984790529 163.971724339813 A10.98 10.98 0 0 1 325.209394622181 174.900957284444 L325.21 174.89 L90.7782182339522 174.999993661641 A10.95 10.95 0 0 1 80.3518693192739 167.358765312331 L80.35 167.36 L65 98.41 Z M223.700345633723 122.335671439055 A4.27 4.27 0 0 1 227.915671439055 118.120345633723 L227.92 118.12 L265.298396922943 118.130008314668 A4.24 4.24 0 0 1 269.436193473301 121.483050349817 L269.44 121.48 L269.519993032523 161.252340619822 A4.21 4.21 0 0 1 265.302340619822 165.469993032523 L265.3 165.47 L227.915671439055 165.469654366277 A4.27 4.27 0 0 1 223.700345633723 161.254328560945 L223.7 161.25 Z M169.750345633723 122.155671439055 A4.27 4.27 0 0 1 173.965671439055 117.940345633723 L173.97 117.94 L211.348396922943 117.950008314668 A4.24 4.24 0 0 1 215.486193473301 121.303050349817 L215.49 121.3 L215.569993032523 161.072340619822 A4.21 4.21 0 0 1 211.352340619822 165.289993032523 L211.35 165.29 L173.965671439055 165.289654366277 A4.27 4.27 0 0 1 169.750345633723 161.074328560945 L169.76 161.08 Z M277.760345633723 122.335671439055 A4.27 4.27 0 0 1 281.975671439055 118.120345633723 L281.97 118.12 L319.358396922943 118.130008314668 A4.24 4.24 0 0 1 323.496193473301 121.483050349817 L323.5 121.48 L323.569993032523 161.252340619822 A4.21 4.21 0 0 1 319.352340619822 165.469993032523 L319.36 165.47 L281.975671439055 165.469654366277 A4.27 4.27 0 0 1 277.760345633723 161.254328560945 L277.76 161.25 Z M118.91 122.16 L123.517097406134 161.07179443533 A4.47 4.47 0 0 0 127.72820556467 165.282902593866 L127.73 165.29 L157.328081411627 165.289961716755 A4.27 4.27 0 0 0 161.579657096456 161.074113572042 L161.58 161.08 L161.579977744922 122.153672679262 A4.2 4.2 0 0 0 157.330885575094 117.940287179667 L157.33 117.94 L123.123973956365 117.940023246666 A4.2 4.2 0 0 0 118.910023246666 122.153973956365 Z M115.309993032523 161.072340619822 A4.21 4.21 0 0 1 111.092340619822 165.289993032523 L111.09 165.29 L91.3856305947396 165.289996252528 A4.23 4.23 0 0 1 87.2406777480881 161.931155149688 L87.24 161.93 L75.1400228592867 106.6638570374 A4.2 4.2 0 0 1 79.3892987713818 102.450289339593 L79.39 102.45 L104.59436940526 102.450003747472 A4.23 4.23 0 0 1 108.739322251912 105.808844850312 L108.74 105.81 Z" style="fill:rgb(0,0,0);"/>
</g>
</svg>