<svg xmlns:xlink="http://www.w3.org/1999/xlink" xmlns="http://www.w3.org/2000/svg" width="400" height="200"  viewBox="-0.000001341104507446289 -0.0000152587890625 400.0000305175781 200.00001525878906"><rect id="svgEditorBackground" x="-0.0000013411046211331268" y="-0.000015258790881489404" width="400.0000305175781" height="200.00001525878906" style="fill:none;stroke:none;"/>
<!--Gegenereerd door de SIMaD-toepassing (http://www.dlw.be).-->
<g style="stroke:none;fill-rule:evenodd;" transform="matrix(1,0,0,-1,0,200)">

<path d=" M169.848877333303 78.1825986060154 A56.89 56.89 0 0 0 169.293098287114 70.5993364651112 L169.29 70.6 L171.283418902477 70.3187587600052 A58.9 58.9 0 0 1 135.513452515949 132.950952754118 L135.51 132.95 L137.67 141.23 L196.674794425806 87.5045131716933 A16.06 16.06 0 0 1 207.992492152384 62.6059637178222 L208 62.6 L208 48.09 L203.65 48.09 L203.65 43.4 L216.36 43.4 L216.36 48.09 L212.01 48.09 L212.007497557864 62.6059624214335 A16.06 16.06 0 0 1 225.888305664598 76.1979190645304 L225.9 76.2 L228.116605009964 76.1973736647184 A58.9 58.9 0 0 1 228.999637204699 68.1166110414521 L229 68.12 L230.977905538945 68.4723558930458 A56.89 56.89 0 0 0 230.128251248654 76.1974161938557 L230.13 76.2 L233.481264375555 76.1976163212915 A53.54 53.54 0 1 1 334.021862415472 104.087090700029 L334.02 104.09 L336.895800357639 105.814283833847 A56.89 56.89 0 0 0 338.764701495735 102.072551858389 L338.76 102.07 L340.594654378068 102.904039953029 A58.9 58.9 0 0 1 262.161113676706 131.960306620216 L262.16 131.96 L249.62 156.38 L252.473097452057 162.404555406396 A2.16 2.16 0 0 0 254.249387350199 163.546047387168 L254.251758742518 163.538161851692 A5.29 5.29 0 0 1 256.877083641028 164.851950237938 L256.872245022051 164.857474161426 A2.91 2.91 0 0 1 255.051055454629 169.77734860528 L255.055305057305 169.773046160444 A80.16 80.16 0 0 1 230.186695079891 169.409035825439 L230.187505613751 169.415304990787 A2.64 2.64 0 0 1 230.59276725175 164.304799013738 L230.59 164.31 L244.232729695331 163.754766035934 A2.18 2.18 0 0 0 246.415817450343 160.568419289555 L246.42 160.56 L244.65 156.85 L141.74 156.85 L144.617562786455 167.894304372659 A36.02 36.02 0 0 1 156.757416448419 169.186540058035 L156.750843303298 169.182166303437 A18.21 18.21 0 0 0 164.689156696702 169.182166303437 L164.690539380589 169.179964965439 A2.79 2.79 0 0 1 166.001569998159 174.077116285081 L165.996692452497 174.076037747535 A12.45 12.45 0 0 1 158.930286387069 174.774330315602 L158.934025623471 174.782050699497 A60.13 60.13 0 0 0 141.340518134272 173.918136785436 L141.34 173.91 L131.095792942705 134.578406600646 A58.9 58.9 0 0 1 97.3761030059305 135.340987266756 L97.38 135.34 L97.9079660770281 133.402631861602 A56.89 56.89 0 0 0 130.588188738861 132.629916452026 L130.59 132.63 L129.742112961833 129.381835967403 A53.54 53.54 0 1 1 166.497899776498 78.0657769283363 L166.5 78.07 Z M115.678625535532 85.3794937822585 A7.36 7.36 0 1 1 120.01497663862 76.4431202636946 L120.02 76.44 L161.145462055987 77.8786782545097 A48.19 48.19 0 1 0 128.391048767417 124.192588469194 L128.39 124.19 L121.744858960564 98.6724330641529 A28.49 28.49 0 0 0 115.67937345506 85.3816346799108 Z M329.139694923084 101.152813405103 A47.85 47.85 0 1 0 239.177363273963 76.1976988295603 L239.17 76.2 L276.181232788408 76.1981840264288 A11.04 11.04 0 1 1 297.423437424277 82.0906683901392 L297.43 82.09 Z M203.65 113.68 L216.36 113.68 L216.36 108.99 L212.01 108.99 L212.007504232298 94.4740367376665 A16.06 16.06 0 0 0 214.70856720804 93.894250058123 L214.71 93.9 L242.42 152.16 L140.52 152.16 L139 146.35 L199.828274535468 90.9681777052868 A16.06 16.06 0 0 0 207.992510228976 94.474038559613 L208 94.48 L208 108.99 L203.65 108.99 Z M169.68 82.87 L166.334402178247 82.7477062771472 A53.54 53.54 0 0 1 134.147582376679 127.709278549023 L134.15 127.71 L135.001534627662 130.98657139659 A56.89 56.89 0 0 0 169.68537386503 82.8648190566258 Z M119.266480588824 82.3344568231541 A7.36 7.36 0 0 0 119.851517698566 81.1239086304174 L119.85 81.13 L160.981955535134 82.560931059053 A48.19 48.19 0 0 1 132.782357045301 122.464369786812 L132.78 122.46 L126.361150891894 97.8095947167803 A32.97 32.97 0 0 0 119.2699005634 82.3414814097206 Z M334.48 109.83 L331.608493031971 108.10241769265 A53.54 53.54 0 0 1 264.612233394411 127.188349123172 L264.61 127.19 L263.08020769093 130.170900858202 A56.89 56.89 0 0 0 334.482297091999 109.829834212434 Z M257.99358758682 129.81940642852 A58.9 58.9 0 0 1 228.116604437554 80.8826119546843 L228.12 80.88 L225.888305991614 80.8820787170437 A16.06 16.06 0 0 1 218.938738291593 91.8825094249325 L218.94 91.89 L247.08 151.06 Z M260.445111269217 125.047653970283 A53.54 53.54 0 0 1 233.481265683798 80.8824135524537 L233.48 80.88 L230.128250185629 80.8825580121767 A56.89 56.89 0 0 0 258.912843757313 128.030080658385 L258.91 128.03 Z M263.047992881224 119.981043367768 A47.85 47.85 0 0 1 239.177363928059 80.8823145166615 L239.17 80.88 L276.181233033642 80.8818171033683 A11.04 11.04 0 0 0 279.957108156595 87.0664850901591 L279.96 87.07 Z M267.214935459385 122.121646653105 A47.85 47.85 0 0 0 326.726422158965 105.167981469089 L326.73 105.17 L295.01065451525 86.1050165212238 A11.04 11.04 0 0 1 284.12319114399 89.2066433022456 L284.12 89.21 Z" style="fill:rgb(0,0,0);"/>
</g>
</svg>