<svg xmlns:xlink="http://www.w3.org/1999/xlink" xmlns="http://www.w3.org/2000/svg" width="400" height="200"  viewBox="-0.000001341104507446289 -0.0000152587890625 400.0000305175781 200.00001525878906"><rect id="svgEditorBackground" x="-0.0000013411046211331268" y="-0.000015258790881489404" width="400.0000305175781" height="200.00001525878906" style="fill:none;stroke:none;"/>
<!--Gegenereerd door de SIMaD-toepassing (http://www.dlw.be).-->
<g style="stroke:none;fill-rule:evenodd;" transform="matrix(1,0,0,-1,0,200)">

<path d=" M175.91 41.03 L169.46 41.03 L169.46 35.5999999999999 L152.92 35.5999999999999 L148.72 25 L251.28 25 L247.07 35.5999999999999 L230.53 35.5999999999999 L230.53 41.03 L224.08 41.03 L224.08 35.5999999999999 L175.91 35.5999999999999 Z" style="fill:rgb(0,0,0);"/>
<path d=" M227.16 175 L172.829998186952 175 A14.84 14.84 0 0 1 158.836024154063 165.099052543084 L158.84 165.1 L148.31 135.26 L148.1 134.58 L147.93 133.92 L147.82 133.21 L147.65 132.21 L147.49 131.11 L147.41 130.21 L147.41 75.1300000000001 L152.751547240348 57.1238982060418 A15.27 15.27 0 0 1 167.390000799535 46.2 L232.600000799535 46.2 A15.27 15.27 0 0 1 247.238453214774 57.123899738977 L247.24 57.1300000000001 L252.58 75.1300000000001 L252.58 131.26 L252.57 131.37 L252.41 132.42 L252.24 133.31 L252.07 133.94 L251.9 134.61 L251.69 135.26 L241.153975845937 165.099052543084 A14.84 14.84 0 0 1 227.160001813048 175 Z M205.340001994911 162.569999999999 A2.54 2.54 0 0 1 202.800000000001 160.029998182414 L202.800000000001 137.810001906249 A2.54 2.54 0 0 1 205.340001906249 135.270000000001 L205.34 135.26 L242.149998226745 135.270000000001 A2.54 2.54 0 0 1 244.545194884099 138.655364694784 L244.55 138.65 L237.108278813125 159.741157869452 A4.24 4.24 0 0 1 233.110000518014 162.57 Z M166.879999481986 162.57 A4.24 4.24 0 0 1 162.881721186875 159.741157869452 L162.89 159.74 L155.444805115901 138.655364694784 A2.54 2.54 0 0 1 157.840001773255 135.270000000001 L157.84 135.26 L194.649998093751 135.270000000001 A2.54 2.54 0 0 1 197.189999999999 137.810001906249 L197.2 137.81 L197.189999999993 160.029994236923 A2.54 2.54 0 0 1 194.650001994911 162.569999999999 Z M239.22 59.78 A6.62 6.62 0 0 1 225.98 59.78 A6.62 6.62 0 0 1 239.22 59.78 Z M174.01 59.78 A6.62 6.62 0 0 1 160.77 59.78 A6.62 6.62 0 0 1 174.01 59.78 Z M206.53 121.01 A6.53 6.53 0 0 1 193.47 121.01 A6.53 6.53 0 0 1 206.53 121.01 Z" style="fill:rgb(0,0,0);"/>
</g>
</svg>