<svg xmlns:xlink="http://www.w3.org/1999/xlink" xmlns="http://www.w3.org/2000/svg" width="400" height="200"  viewBox="-0.000001341104507446289 -0.0000152587890625 400.0000305175781 200.00001525878906"><rect id="svgEditorBackground" x="-0.0000013411046211331268" y="-0.000015258790881489404" width="400.0000305175781" height="200.00001525878906" style="fill:none;stroke:none;"/>
<!--Gegenereerd door de SIMaD-toepassing (http://www.dlw.be).-->
<g style="stroke:none;fill-rule:evenodd;" transform="matrix(1,0,0,-1,0,200)">

<path d=" M270.195440299939 30.8070997455919 A0.72 0.72 0 0 1 269.552279681798 30.2224082746794 L269.549948409002 30.2238134850693 A12.31 12.31 0 0 1 269.364054776902 27.190812132815 L269.350864345519 27.1907146293392 A35.38 35.38 0 0 0 269.419347152232 25.194930411615 L269.43 25.2 L263.164755308703 25.1951962309121 A6.85 6.85 0 0 0 263.507136758885 27.0929676419671 L263.510725420994 27.0989002482942 A15.18 15.18 0 0 1 264.000050437043 28.9681218196542 L263.993558163114 28.9633164432119 A3.11 3.11 0 0 1 263.651200680634 31.3793821601446 L263.654701734818 31.3847796725638 A28.93 28.93 0 0 1 265.239913007614 40.7590537395574 L265.230919146034 40.751567265686 A64.72 64.72 0 0 1 265.211351326817 47.5220236135982 L265.226805595133 47.5283126562068 A11.27 11.27 0 0 1 262.182800347921 54.9670392783633 L262.18154713963 54.9646603767507 A307.52 307.52 0 0 1 254.344006979243 62.7141382948869 L254.33814600187 62.7146051097213 A45.51 45.51 0 0 0 248.447585655843 69.6228038301863 L248.454127231545 69.6209717982208 A14.72 14.72 0 0 1 247.730141770724 64.2302155891485 L247.727695080915 64.2319157096174 A7.18 7.18 0 0 0 246.083066694001 59.4742407231438 L246.073923864567 59.478522112786 A60.32 60.32 0 0 0 239.773115043035 52.9331167401184 L239.775617321847 52.9246304255615 A104.35 104.35 0 0 1 228.934088075562 41.6721407105998 L228.94 41.68 L228.775730048245 39.4277587158235 A2.91 2.91 0 0 0 227.544384646525 38.4895907831625 L227.547341267856 38.4841063940858 A6.39 6.39 0 0 0 229.406945469467 35.763211790676 L229.406765992362 35.7690367145573 A6.9 6.9 0 0 0 225.199673729125 33.1273741245616 L225.199941737968 33.1188363625562 A4.95 4.95 0 0 0 223.105661081342 35.3109805934793 L223.107732605962 35.3189712151071 A5.23 5.23 0 0 0 223.11752023379 39.145925887256 L223.12257648128 39.1407724741916 A17.41 17.41 0 0 0 225.265057129281 43.9833656327853 L225.266825861836 43.9855803480459 A1523.95 1523.95 0 0 1 235.442841219086 60.1106508539793 L235.43826574044 60.1064987434814 A26.9 26.9 0 0 1 237.522253849295 64.1962031296897 L237.513859634553 64.1957803563515 A4.98 4.98 0 0 1 237.582328355555 67.7659366647268 L237.585295717957 67.7761237537062 A15.82 15.82 0 0 1 234.590959758977 73.4223062914696 L234.590437643182 73.4198312783156 A34.16 34.16 0 0 0 228.484789669901 86.6487352621926 L228.493966782497 86.6468082615626 A55.31 55.31 0 0 0 209.041121590825 80.8540093197088 L209.036766265975 80.8446371602919 A162.95 162.95 0 0 0 192.480787534048 79.7487331757296 L192.48 79.76 L188.567984489347 76.8008837325933 A41.39 41.39 0 0 0 189.057262694294 62.2595349897903 L189.054956646388 62.262708615472 A38.67 38.67 0 0 1 188.673308617925 55.7355487241657 L188.66753712623 55.7354834026649 A21.9 21.9 0 0 1 190.106125073106 48.4838259363232 L190.112124151931 48.4811055227477 A61.97 61.97 0 0 1 195.904919544844 35.1537621010018 L195.901691321848 35.155061260687 A14.65 14.65 0 0 1 198.211023401499 32.1607578211483 L198.221816672595 32.1686946392928 A2.46 2.46 0 0 0 197.398337113063 30.6785887797843 L197.395208865768 30.6800606214355 A1.21 1.21 0 0 1 198.392550185045 29.897832146342 L198.391127378364 29.8929334487898 A25.49 25.49 0 0 0 198.371554972558 25.1955554040733 L198.372529155595 25.1980204902509 A17.07 17.07 0 0 0 193.187470844405 25.1980204902509 L193.181787590693 25.1929753608018 A3.7 3.7 0 0 0 193.025219901232 28.1481906128073 L193.024948327305 28.151544971073 A4.7 4.7 0 0 0 193.553800792892 31.0504399799287 L193.554052068052 31.0447373813159 A87.42 87.42 0 0 1 184.709271096054 46.4252638360772 L184.708681020429 46.4299700121313 A16.67 16.67 0 0 0 181.704036648991 51.6073540115644 L181.700004416632 51.6043746097862 A67.44 67.44 0 0 1 176.945025196911 63.3744156972421 L176.947069561752 63.372775825459 A49.54 49.54 0 0 0 173.199441967214 72.9032961938988 L173.204707821908 72.9078898851479 A10.06 10.06 0 0 1 170.356468493591 71.674631629273 L170.36357263366 71.6745782689364 A218.71 218.71 0 0 0 157.359638447607 64.0718265733201 L157.355870105547 64.0736635252299 A10.9 10.9 0 0 1 151.864741572523 52.2300527394792 L151.867805656727 52.2319799650095 A76.05 76.05 0 0 1 155.341117995361 40.5205578325306 L155.343089380832 40.5133120923861 A1.69 1.69 0 0 1 154.210007577117 39.8295558403869 L154.197913964862 39.8381458327938 A16.55 16.55 0 0 0 155.283797789376 37.9892084876571 L155.292411478409 37.98283779379 A2.32 2.32 0 0 0 155.458591462585 36.330813441019 L155.458605850863 36.3323332690518 A10.41 10.41 0 0 0 150.939110880129 33.1236875197779 L150.939398618114 33.124278817244 A11.55 11.55 0 0 0 149.686934481099 36.2750089342854 L149.680509677516 36.2768176013941 A6.04 6.04 0 0 0 149.876344881031 39.7039335822423 L149.88 39.7 L150.29 41.46 L146.180675234211 55.5651655322647 A12.77 12.77 0 0 0 146.728589849704 64.5666185540539 L146.7344275051 64.5745727314822 A44.25 44.25 0 0 0 158.847179561501 78.0571030864493 L158.838454672408 78.0539394298819 A68.75 68.75 0 0 1 165.120034774482 83.2592363108813 L165.12390542397 83.2589451707311 A27.35 27.35 0 0 0 159.762525673363 93.9230032409803 L159.766409013921 93.924702609881 A294.6 294.6 0 0 1 156.05801940394 107.916779440101 L156.051377627779 107.915275423305 A33.75 33.75 0 0 1 149.271215125457 120.438519192131 L149.27 120.44 L130.019238893497 111.851045246605 A0.91 0.91 0 0 1 129.480422252519 111.047718609037 L129.478983812201 111.043292654661 A2.19 2.19 0 0 0 129.215089815974 110.065907475157 L129.216617166076 110.063710315246 A1.02 1.02 0 0 0 128.412558449202 109.534208223364 L128.415345814653 109.55071473679 A17.14 17.14 0 0 0 125.304654185347 109.55071473679 L125.3 109.54 L124.793786986931 110.151440829918 A9.31 9.31 0 0 0 122.230603078848 110.464501436009 L122.230133667198 110.458774860335 A3.22 3.22 0 0 0 121.261591731444 110.899021209446 L121.259519724836 110.899949453017 A1.29 1.29 0 0 0 120.711110570839 112.202421205067 L120.712906493136 112.20611513482 A27.96 27.96 0 0 0 122.053341013224 119.505123564739 L122.048342256183 119.505153236073 A3534.78 3534.78 0 0 1 125.482742817765 130.111678029157 L125.485103307346 130.107700376159 A19.71 19.71 0 0 1 126.502568048153 135.400473651204 L126.499505840041 135.400221340233 A6.83 6.83 0 0 0 126.988870395835 137.602361788519 L126.992137230613 137.602416710922 A215.74 215.74 0 0 1 130.348300312471 146.447814389941 L130.349828267538 146.449183036508 A13.05 13.05 0 0 1 130.604174101235 154.373034189545 L130.606182681013 154.368965445615 A9.59 9.59 0 0 0 133.893403375574 150.122971989185 L133.889989068367 150.125960514014 A15.48 15.48 0 0 0 136.473559096834 154.431910566922 L136.476663154584 154.43163689745 A2.43 2.43 0 0 0 137.805166284836 155.232646111713 L137.800010524332 155.233635559273 A90.46 90.46 0 0 1 137.878290806457 151.427255887798 L137.88020455651 151.427101696063 A9.11 9.11 0 0 1 144.571978732521 145.244058823661 L144.576537905449 145.242519102637 A22.26 22.26 0 0 0 151.328363919239 142.492862408576 L151.331275219477 142.502210139768 A95.22 95.22 0 0 0 168.474377309287 130.173266702593 L168.47 130.17 L171.741306566303 131.793504697733 A3.56 3.56 0 0 0 171.975930819474 132.810209777954 L171.971755951144 132.805598239489 A10.03 10.03 0 0 0 175.228892656892 133.881529276531 L175.227606569874 133.887519698108 A1.62 1.62 0 0 1 176.449402458728 134.786761446265 L176.45 134.79 L176.43 135.86 L182.266298775462 138.620939140295 A9.35 9.35 0 0 1 187.49059818919 149.666321348095 L187.492294015837 149.668886384619 A10.03 10.03 0 0 0 187.218388214458 157.837148451779 L187.211626391363 157.836383535553 A2.47 2.47 0 0 1 186.703139152813 160.193026417518 L186.702642296091 160.193629393032 A0.55 0.55 0 0 1 186.108958753594 160.349349657841 L186.111969864326 160.352418085218 A547.68 547.68 0 0 1 183.822361637837 159.882754876357 L183.819790025401 159.882288696826 A0.59 0.59 0 0 0 183.172231803964 160.196256315236 L183.178923416506 160.195394889095 A12.54 12.54 0 0 0 182.288555149686 163.453555669451 L182.288385481161 163.462986478101 A3.85 3.85 0 0 0 180.959085253511 163.7562144812 L180.955376307289 163.746926538829 A0.22 0.22 0 0 0 180.820198711985 163.95934846441 L180.819844101384 163.963571650414 A21.97 21.97 0 0 0 181.240594297768 167.407852225543 L181.234800071028 167.406820341186 A14.72 14.72 0 0 1 181.508765175026 169.549618870778 L181.511142521777 169.550316245997 A6.14 6.14 0 0 1 181.472002935152 170.646224665553 L181.466794988734 170.641164803731 A0.41 0.41 0 0 1 181.18588278124 170.980196777777 L181.19 170.99 L177.808829521581 170.988663659475 A1.08 1.08 0 0 0 178.734573132242 172.51857677628 L178.732420017254 172.532387368082 A9.4 9.4 0 0 1 180.170288822708 172.718234363048 L180.171679584547 172.707045726138 A2.89 2.89 0 0 1 181.700697332457 173.275526681202 L181.704938756987 173.279216602679 A6.55 6.55 0 0 0 188.463408183323 174.570270112503 L188.465170233193 174.56917532703 A24.07 24.07 0 0 1 196.223260816664 173.00386071901 L196.22 173 L193.113729784491 164.359148780798 A2.96 2.96 0 0 1 192.947132479172 163.565361643057 L192.949783028235 163.561677975041 A4.06 4.06 0 0 1 192.988926180932 162.651599794725 L192.984699811879 162.649636393135 A0.39 0.39 0 0 1 193.644517460425 162.43297984925 L193.652295369151 162.436342686912 A1.78 1.78 0 0 0 195.107650941517 163.139601755057 L195.1 163.14 L195.1 160.87 L201.51498519431 153.785131421545 A25.93 25.93 0 0 0 207.971866036025 142.837783400822 L207.982830552414 142.843106815769 A11.31 11.31 0 0 0 208.423287824439 139.045386207144 L208.416328008578 139.040485125295 A11.05 11.05 0 0 1 210.588644929351 131.83856937385 L210.592272897341 131.840229688577 A8.42 8.42 0 0 0 212.245357350314 126.313645475977 L212.242625941471 126.309013749918 A1.51 1.51 0 0 1 212.575635944397 125.270806097308 L212.575856033509 125.272571935804 A1.07 1.07 0 0 1 213.242539013453 125.449046848855 L213.244601461785 125.452026351883 A1.96 1.96 0 0 0 213.675617988351 125.667534622904 L213.67258561938 125.659713608551 A6.06 6.06 0 0 1 215.611058989317 127.872314509611 L215.612588798964 127.879186991629 A2.56 2.56 0 0 0 217.865118263065 129.269879079013 L217.864654295133 129.269974020695 A0.55 0.55 0 0 0 218.37595421857 128.935662534324 L218.370551095037 128.932420007332 A2.99 2.99 0 0 0 218.311881327599 126.458510500186 L218.316458485513 126.462636539329 A93.44 93.44 0 0 1 217.181452712107 124.026287925977 L217.177650114244 124.025958992799 A0.43 0.43 0 0 1 217.640103860816 123.425753080508 L217.632368334182 123.430412194108 A17.16 17.16 0 0 0 219.52093415835 123.635903807373 L219.523622637336 123.630618025021 A0.92 0.92 0 0 1 219.933239621223 122.460283770985 L219.94 122.46 L231.10583288938 123.846322970194 A54.88 54.88 0 0 0 244.002518762535 124.257294802438 L244.00268208179 124.259341425615 A19.13 19.13 0 0 0 254.344043174868 120.111056608534 L254.345744837451 120.114094934885 A233.08 233.08 0 0 1 260.637224346766 119.076930360871 L260.636499775864 119.077536172073 A19.89 19.89 0 0 0 264.942740281571 117.922680756628 L264.947481943422 117.918245081551 A8.69 8.69 0 0 0 269.653378324742 113.486288581196 L269.650803488421 113.488585493063 A538.85 538.85 0 0 1 276.68589496928 95.211045881041 L276.687010866023 95.208299338964 A21.3 21.3 0 0 0 279.31864230917 85.1904907192712 L279.313947858712 85.1887710686391 A2.95 2.95 0 0 0 276.206123551104 84.6708003623014 L276.205507086501 84.6718256831198 A7.39 7.39 0 0 1 274.483803021662 85.1609461474275 L274.487856525025 85.1530976268159 A5.85 5.85 0 0 1 272.570494533854 83.9498551521089 L272.575047164018 83.9553107038761 A1.16 1.16 0 0 0 270.699672845455 84.3775153977333 L270.697376634097 84.3784030000993 A20 20 0 0 0 268.407382802877 90.5241983815679 L268.411751839104 90.516582833101 A107.53 107.53 0 0 0 266.22008857302 102.022814835346 L266.213423502093 102.02262335985 A441.71 441.71 0 0 0 265.528496744668 108.911029274277 L265.539582636145 108.916122942262 A9.61 9.61 0 0 1 259.892534809535 115.63973106769 L259.881790176768 115.633306075122 A23.91 23.91 0 0 1 256.213290506851 116.83657396921 L256.217411432498 116.84001890668 A24.56 24.56 0 0 0 260.40593874621 105.566225732373 L260.402037222347 105.572545787666 A26.93 26.93 0 0 0 259.785656366663 96.2485617815472 L259.787920152942 96.2433159913952 A55.92 55.92 0 0 1 258.183138884951 83.5224888524861 L258.18242477922 83.5202469682688 A23.22 23.22 0 0 1 263.379027772161 67.8325735436451 L263.37796150959 67.8362647154469 A96.67 96.67 0 0 1 271.655957136061 58.8928982957097 L271.657070577851 58.8932661049004 A3.36 3.36 0 0 0 272.498267440889 55.3132887147057 L272.5 55.32 L271.147073726233 47.8625602100536 A47.74 47.74 0 0 1 270.266440886344 36.3947638915765 L270.273315916723 36.3962605957947 A47.99 47.99 0 0 0 270.195039487349 30.819061561577 Z M130.389882678751 113.237188322163 A17.02 17.02 0 0 0 134.802181812041 118.285406413181 L134.794418107213 118.294542940338 A33.95 33.95 0 0 1 141.731016384725 127.354190359875 L141.733334034495 127.351413635969 A36.07 36.07 0 0 0 148.523791603379 121.421993870159 L148.53 121.42 Z M178.234770360082 126.940577591188 A5.81 5.81 0 0 1 177.285373410882 124.806881339213 L177.285544032458 124.804685412916 A1 1 0 0 1 177.883772231051 123.451316702927 L177.88 123.46 L179.047880813337 123.064128021148 A15.6 15.6 0 0 1 178.226224235704 126.937651868548 Z M171.745514869819 130.3659461454 A5.77 5.77 0 0 1 174.189878781049 127.413154546104 L174.184594221853 127.412386682751 A2.4 2.4 0 0 1 176.805310183967 127.510174575582 L176.81 127.51 L175.48 124.92 L169.57 129.31 Z M180.105791607056 122.453281864738 A11.92 11.92 0 0 1 179.597189550329 126.228674104748 L179.601319631651 126.236800677516 A7.64 7.64 0 0 1 178.320104178238 128.7112091831 L178.317224309828 128.704215421134 A1.98 1.98 0 0 0 178.856217174885 131.614776895936 L178.86 131.62 L180.39 129.83 L191.10964049411 135.727818847813 A24.3 24.3 0 0 0 187.978582607902 123.927644391302 L187.975218576914 123.921672078171 A11.91 11.91 0 0 0 185.000965509418 120.438665179707 L185.01 120.44 Z" style="fill:rgb(0,0,0);"/>
</g>
</svg>