<svg xmlns:xlink="http://www.w3.org/1999/xlink" xmlns="http://www.w3.org/2000/svg" width="400" height="200"  viewBox="-0.000001341104507446289 -0.0000152587890625 400.0000305175781 200.00001525878906"><rect id="svgEditorBackground" x="-0.0000013411046211331268" y="-0.000015258790881489404" width="400.0000305175781" height="200.00001525878906" style="fill:none;stroke:none;"/>
<!--Gegenereerd door de SIMaD-toepassing (http://www.dlw.be).-->
<g style="stroke:none;fill-rule:evenodd;" transform="matrix(1,0,0,-1,0,200)">

<path d=" M186.72 26.64 L189.646550140978 37.4715289052016 A1.01 1.01 0 0 0 190.857213528786 37.9821433613195 L190.864197701268 37.9866481899318 A30.31 30.31 0 0 1 195.627364569235 52.5945058598731 L195.616723716123 52.6006222932943 A25.94 25.94 0 0 1 204.217143201255 70.1452674043596 L204.224817009256 70.1501560449263 A68.77 68.77 0 0 1 213.75085803333 50.2970470177398 L213.750774208855 50.2920800298022 A1051.89 1051.89 0 0 0 216.485470787716 41.0192685717594 L216.49 41.02 L219.24 37.73 L218.81 36.41 L219.293570623432 34.7237371901602 A2.74 2.74 0 0 0 217.89694534904 31.3752643485736 L217.89871508735 31.3849493503338 A18.9 18.9 0 0 0 213.136947999703 29.6940102928336 L213.138385265299 29.685111875331 A3.6 3.6 0 0 1 211.375801587039 26.9169298688597 L211.37 26.92 L210.89 26.68 L210.984549613132 25.6905693540266 A18.85 18.85 0 0 1 218.971918985155 25.2294105607667 L218.973125314176 25.2304243082655 A13.46 13.46 0 0 1 228.653517478406 29.2285327199927 L228.65 29.23 L229.88 27.69 L234.65 29.69 L234.34 31.07 L234.95 31.69 L230.82 39.03 L230.806121536046 40.4485520642352 A296.52 296.52 0 0 0 217.500661178988 83.4759790100814 L217.5 83.48 L217.41 87.49 L218.726318600821 87.6206720127589 A1.42 1.42 0 0 1 220.189868945076 89.0207080636098 L220.19 89.02 L220.33 91.2999999999999 L221.214459518975 91.3416729370998 A99.12 99.12 0 0 1 219.55044694028 127.594424785495 L219.546077797301 127.595903201773 A56.16 56.16 0 0 1 210.814058414209 151.249594475862 L210.82 151.25 L211.46 152.1 L209.97 154.87 L208.9 154.02 L208.688025633903 154.658607433732 A6.85 6.85 0 0 0 208.475060620431 159.772652962418 L208.484257433205 159.77569978141 A68.83 68.83 0 0 1 210.049991382945 166.914567666797 L210.050453753668 166.91049836099 A8.06 8.06 0 0 1 208.032630774555 172.967669062905 L208.02202761986 172.969030853038 A3.77 3.77 0 0 0 206.004050064789 174.513133856907 L206.012084332443 174.519383630243 A16.65 16.65 0 0 1 197.593278988991 174.416254542425 L197.59365124293 174.405584550806 A6.98 6.98 0 0 0 193.645000801303 172.210125691049 L193.639268786851 172.208987432168 A1.49 1.49 0 0 1 193.783877091623 170.705147138149 L193.785092137231 170.710101804968 A12.52 12.52 0 0 1 193.90376351357 164.984749018912 L193.905778062465 164.985117886195 A12.44 12.44 0 0 1 192.83774465304 160.710371725116 L192.839303546708 160.713418373841 A3.48 3.48 0 0 0 194.119839500836 160.290981504625 L194.12 160.29 L194.621133486246 155.605964216498 A2.35 2.35 0 0 1 197.231093548037 154.062771949789 L197.234163160186 154.058778485041 A2.92 2.92 0 0 0 199.183154483 150.054991442578 L199.18549027549 150.053672555744 A44.06 44.06 0 0 1 191.230627066525 125.035067456271 L191.219411687382 125.036294884616 A3.09 3.09 0 0 0 189.516726226003 122.693780637688 L189.521295379218 122.695401668956 A61.35 61.35 0 0 1 174.185300937155 110.121311281907 L174.19 110.12 L174.823118856714 109.058906693446 A7.33 7.33 0 0 1 168.675581789118 106.293082408488 L168.6828877377 106.289465647577 A6.6 6.6 0 0 1 169.65926878473 100.643954352027 L169.661870556465 100.643918101096 A5.45 5.45 0 0 1 173.797639945089 100.733963143696 L173.795798460027 100.735734670442 A2.69 2.69 0 0 0 178.907685704689 102.300806827992 L178.913205296236 102.297400739061 A69.82 69.82 0 0 0 189.978944346445 109.083900513165 L189.98 109.08 L186.01518873513 91.0235782428527 A2.46 2.46 0 0 1 188.310380493763 87.5803314418964 L188.30966502686 87.5795969286297 A24.43 24.43 0 0 0 190.710391168014 87.4752036326022 L190.706002981087 87.4731954610302 A34.41 34.41 0 0 0 185.328381682936 64.4359376667901 L185.322751196371 64.4363474336165 A77.7 77.7 0 0 0 177.94865117105 37.0700141530678 L177.96 37.07 L176.731889232106 37.0660137820526 A3.46 3.46 0 0 0 172.22650404036 34.8560521774957 L172.22752261068 34.8610240820699 A18.43 18.43 0 0 1 169.352431605271 35.0696860808983 L169.347534284151 35.0686986806985 A4.19 4.19 0 0 1 165.042415019755 32.1451551002638 L165.05 32.15 L167.052405039765 30.1502523442193 A17 17 0 0 1 180.878551067084 27.5366688618391 L180.87 27.54 L180.57 25.69 L185.94 25.08 L186.25 26.61 Z" style="fill:rgb(0,0,0);"/>
</g>
</svg>