<svg xmlns:xlink="http://www.w3.org/1999/xlink" xmlns="http://www.w3.org/2000/svg" width="400" height="200"  viewBox="-0.000001341104507446289 -0.0000152587890625 400.0000305175781 200.00001525878906"><rect id="svgEditorBackground" x="-0.0000013411046211331268" y="-0.000015258790881489404" width="400.0000305175781" height="200.00001525878906" style="fill:none;stroke:none;"/>
<!--Gegenereerd door de SIMaD-toepassing (http://www.dlw.be).-->
<g style="stroke:none;fill-rule:evenodd;" transform="matrix(1,0,0,-1,0,200)">

<path d=" M337.62 49.03 A24.03 24.03 0 0 1 289.56 49.03 A24.03 24.03 0 0 1 337.62 49.03 Z M324.89 49.03 A11.28 11.28 0 0 1 302.33 49.03 A11.28 11.28 0 0 1 324.89 49.03 Z" style="fill:rgb(0,0,0);"/>
<path d=" M129.9 49.1600000000001 A24.05 24.05 0 0 1 81.8 49.1600000000001 A24.05 24.05 0 0 1 129.9 49.1600000000001 Z M117.11 49.1700000000001 A11.25 11.25 0 0 1 94.61 49.1700000000001 A11.25 11.25 0 0 1 117.11 49.1700000000001 Z" style="fill:rgb(0,0,0);"/>
<path d=" M35.77 77.8199999999999 L35.77 175 L272.18 175 L272.18 77.8199999999999 L143.18 77.8199999999999 L143.18 69.9400000000001 L278.98 69.9400000000001 L278.98 140.26 L322.33 140.26 L338.06 105.77 L344.77 104.51 L359.66 61.6900000000001 L364.91 60.6700000000001 L364.91 53.8 L342.507166622398 53.8009895625682 A29.29 29.29 0 0 1 284.712833377602 53.8009895625682 L284.72 53.8 L139.539965349514 53.8000081001841 A6.13 6.13 0 0 0 134.644439427251 56.2275416423675 L134.644403279521 56.223846796317 A29.51 29.51 0 0 1 76.944246192204 53.7977710792486 L76.94 53.8 L64.3992674432105 53.7970288567547 A5.9 5.9 0 0 1 62.0942486252233 58.5688221616216 L62.091389706856 58.5721873445404 A20.71 20.71 0 0 1 54.8119516721129 61.9692584308088 L54.8096007272669 61.9631990492495 A573.39 573.39 0 0 1 35.0747857114504 66.856462663545 L35.08 66.8599999999999 L39 69.9400000000001 L73.26 69.9400000000001 L73.26 77.8199999999999 Z M262.41 94.9400000000001 A6.16 6.16 0 0 1 250.09 94.9400000000001 A6.16 6.16 0 0 1 262.41 94.9400000000001 Z M179.17 94.9500000000001 A6.17 6.17 0 0 1 166.83 94.9500000000001 A6.17 6.17 0 0 1 179.17 94.9500000000001 Z M119.15 94.96 A6.17 6.17 0 0 1 106.81 94.96 A6.17 6.17 0 0 1 119.15 94.96 Z M95.3 148.67 L83.93 88.9000000000001 L71.27 88.9000000000001 L82.68 148.67 L64.08 148.67 L66.38 160.97 L116.08 160.97 L113.7 148.67 Z M135.45 88.9000000000001 L148.11 88.9000000000001 L161.86 160.97 L149.08 160.97 Z M193.16 88.9000000000001 L206.75 161.01 L234.003081213544 161.010742993448 A12.29 12.29 0 0 0 244.961461811615 155.147402768383 L244.964610713293 155.148111895593 A18.75 18.75 0 0 0 247.390944397829 143.825221293475 L247.397410734133 143.820914228369 A24.95 24.95 0 0 0 242.46319198244 130.474256922149 L242.456331685562 130.475109604629 A18.23 18.23 0 0 0 234.853139308463 124.570502816337 L234.853650067874 124.57676978305 A12.18 12.18 0 0 0 238.33245874617 120.77435097913 L238.339981018254 120.767626961744 A13.08 13.08 0 0 0 240.119916707871 114.133321148857 L240.11 114.14 L240.11 88.9000000000001 L227.78 88.9000000000001 L227.779898258763 110.252665771761 A6.85 6.85 0 0 1 222.034176417853 117.050421173141 L222.036639609643 117.053486112176 A13.25 13.25 0 0 1 220.58071878101 117.174812855809 L220.58 117.17 L211.12 117.17 L205.78 88.9000000000001 Z M213.42 129.46 L217.14 148.75 L230.490862061724 148.755008008748 A4.23 4.23 0 0 0 234.41629230923 146.974400467533 L234.411121680047 146.971246279891 A4.99 4.99 0 0 0 235.17975738701 144.260794118486 L235.172990769335 144.260380332066 A13.79 13.79 0 0 0 233.030006313853 137.305789223084 L233.03814457586 137.312809123552 A16.88 16.88 0 0 0 225.476449824747 130.276793631264 L225.473769235969 130.268752298769 A10.02 10.02 0 0 0 221.510971626637 129.46001806783 L221.51 129.46 Z M316.22 102.05 L298.312210835126 102.087749452854 A6.67 6.67 0 0 0 292.25005116365 108.756125092902 L292.24 108.76 L292.24 129.06 L306.27 129.06 Z M326.74 104.23 L328.07 104.23 L318.89 129.06 L317.6 129.06 Z" style="fill:rgb(0,0,0);"/>
</g>
</svg>