<?xml version="1.0" encoding="UTF-8" standalone="no"?>
<svg
   xmlns:dc="http://purl.org/dc/elements/1.1/"
   xmlns:cc="http://creativecommons.org/ns#"
   xmlns:rdf="http://www.w3.org/1999/02/22-rdf-syntax-ns#"
   xmlns:svg="http://www.w3.org/2000/svg"
   xmlns="http://www.w3.org/2000/svg"
   id="svg9"
   version="1.1"
   viewBox="-1.3411045e-06 -1.5258789e-05 100.00001 150.00001"
   height="150"
   width="100">
  <metadata
     id="metadata15">
    <rdf:RDF>
      <cc:Work
         rdf:about="">
        <dc:format>image/svg+xml</dc:format>
        <dc:type
           rdf:resource="http://purl.org/dc/dcmitype/StillImage" />
        <dc:title></dc:title>
      </cc:Work>
    </rdf:RDF>
  </metadata>
  <defs
     id="defs13" />
  <rect
     style="fill:none;stroke:none"
     height="200.00002"
     width="400.00003"
     y="-50.000008"
     x="-4.0233135e-06"
     id="svgEditorBackground" />
  <!--Gegenereerd door de SIMaD-toepassing (http://www.dlw.be).-->
  <g
     id="g7"
     transform="matrix(1,0,0,-1,-150,174.99998)"
     style="fill-rule:evenodd;stroke:none">
    <path
       id="path3"
       style="fill:#0000ff"
       d="m 161.25,25 h 77.5 A 11.25,11.25 0 0 1 250,36.250001 V 163.75 A 11.25,11.25 0 0 1 238.75,175 h -77.5 A 11.25,11.25 0 0 1 150,163.75 V 36.250001 A 11.25,11.25 0 0 1 161.25,25 Z" />
    <path
       id="path5"
       style="fill:#ffffff"
       d="m 165.71,50 h 18.34 v 43.33 h 31.9 V 50 h 18.34 v 100 h -18.34 v -40 h -31.9 v 40 h -18.34 z" />
  </g>
</svg>
