<svg xmlns:xlink="http://www.w3.org/1999/xlink" xmlns="http://www.w3.org/2000/svg" width="400" height="200"  viewBox="-0.000001341104507446289 -0.0000152587890625 400.0000305175781 200.00001525878906"><rect id="svgEditorBackground" x="-0.0000013411046211331268" y="-0.000015258790881489404" width="400.0000305175781" height="200.00001525878906" style="fill:none;stroke:none;"/>
<!--Gegenereerd door de SIMaD-toepassing (http://www.dlw.be).-->
<g style="stroke:none;fill-rule:evenodd;" transform="matrix(1,0,0,-1,0,200)">

<path d=" M157.73 47.8099999999999 L243.27 47.8099999999999 L279.71 25 L121.03 25 Z" style="fill:rgb(0,0,0);"/>
<path d=" M155.25 48.9300000000001 L155.25 139.75 L119.3 139.75 L119.3 26.3599999999999 Z M132.44 86.49 L132.44 60.7000000000001 L142.11 60.7000000000001 L142.11 86.49 Z M142.11 126.16 L132.44 126.16 L132.44 102.6 L142.11 102.6 Z" style="fill:rgb(0,0,0);"/>
<path d=" M245.74 139.75 L281.57 139.75 L281.57 26.6099999999999 L245.74 49.05 Z M268.43 86.49 L258.76 86.49 L258.76 60.7000000000001 L268.43 60.7000000000001 Z M268.43 126.28 L258.76 126.28 L258.76 102.73 L268.43 102.73 Z" style="fill:rgb(0,0,0);"/>
<path d=" M139.63 170.04 L200.12 175 L260.62 170.04 L282.93 148.72 L237.81 148.72 L200.12 162.11 L161.94 148.72 L117.31 148.72 Z" style="fill:rgb(0,0,0);"/>
<path d=" M157.73 50.04 L188.97 50.04 L188.936418264098 86.9352635861646 A36.64 36.64 0 0 0 199.256515746885 88.9035698968669 L199.26 88.9000000000001 L206.637327897043 123.979714911958 A14.76 14.76 0 0 0 213.222203749657 121.79929433962 L213.222977981 121.800587294432 A56.04 56.04 0 0 0 222.01861371074 115.028182809347 L222.019663527901 115.042141447519 A17.84 17.84 0 0 1 227.337508141369 111.58363090818 L227.337066361011 111.572925127954 A6.95 6.95 0 0 1 229.87814073174 111.031659279897 L229.88 111.03 L227.640518447343 98.0104542720407 A10.02 10.02 0 0 0 225.371217414116 98.4842534789004 L225.379574397987 98.4822139891833 A53.82 53.82 0 0 0 216.890981743328 102.149258419172 L216.887923764774 102.151070966456 A75.6 75.6 0 0 0 211.342262727845 105.448814945217 L211.347098435391 105.451759895263 A5.84 5.84 0 0 1 206.590582722419 105.495316530973 L206.58500351648 105.496135709725 A0.89 0.89 0 0 1 206.076578990302 104.895879966678 L206.08 104.9 L202.847974934327 88.7791205391961 A31.66 31.66 0 0 0 208.017291612223 88.121378414272 L208.024032859392 88.1257485345445 A10.77 10.77 0 0 0 210.812174498435 87.1173639222644 L210.81 87.1099999999999 L210.81 50.04 L243.27 50.04 L243.27 139.75 L157.73 139.75 Z M180.54 86.49 L170.87 86.49 L170.87 60.7000000000001 L180.54 60.7000000000001 Z M230 60.7000000000001 L230 86.49 L220.33 86.49 L220.33 60.7000000000001 Z M170.87 126.16 L170.87 102.6 L180.54 102.6 L180.54 126.16 Z M195.54 102.79 L195.54 126.28 L201.49 126.28 L201.27 123.63 L200.76 120.18 L200.06 116.29 L199.27 112.33 L197.81 105.58 L197.15 102.79 Z M227.69 116.51 L228.88 116.04 L229.45 115.91 L230 115.87 L230 126.28 L220.33 126.28 L220.33 122.19 L222.64 120.16 L225.17 118.1 L226.44 117.21 Z" style="fill:rgb(0,0,0);"/>
<path d=" M286.9 146.74 L113.1 146.74 L113.1 141.78 L286.9 141.78 Z" style="fill:rgb(0,0,0);"/>
<path d=" M200.12 158.02 L208.43 154.67 L200.12 151.07 L191.7 154.67 Z" style="fill:rgb(0,0,0);"/>
</g>
</svg>