<svg xmlns:xlink="http://www.w3.org/1999/xlink" xmlns="http://www.w3.org/2000/svg" width="400" height="200"  viewBox="-0.000001341104507446289 -0.0000152587890625 400.0000305175781 200.00001525878906"><rect id="svgEditorBackground" x="-0.0000013411046211331268" y="-0.000015258790881489404" width="400.0000305175781" height="200.00001525878906" style="fill:none;stroke:none;"/>
<!--Gegenereerd door de SIMaD-toepassing (http://www.dlw.be).-->
<g style="stroke:none;fill-rule:evenodd;" transform="matrix(1,0,0,-1,0,200)">

<path d=" M125 32.5 L125 167.499999476401 A7.5 7.5 0 0 0 132.500000523599 175 L267.499999476401 175 A7.5 7.5 0 0 0 275 167.499999476401 L275 32.5000014398966 A7.5 7.5 0 0 0 267.500000523599 25 L132.500000523599 25 A7.5 7.5 0 0 0 125 32.5000005235988 Z" style="fill:rgb(255,255,255);"/>
<path d=" M179.31 162.07 L179.31 120.69 L137.93 120.69 L137.93 79.31 L179.31 79.31 L179.31 37.93 L220.69 37.93 L220.69 79.31 L262.07 79.31 L262.07 120.69 L220.69 120.69 L220.69 162.07 Z" style="fill:rgb(255,0,0);"/>
</g>
</svg>