<svg xmlns:xlink="http://www.w3.org/1999/xlink" xmlns="http://www.w3.org/2000/svg" width="400" height="200"  viewBox="-0.000001341104507446289 -0.0000152587890625 400.0000305175781 200.00001525878906"><rect id="svgEditorBackground" x="-0.0000013411046211331268" y="-0.000015258790881489404" width="400.0000305175781" height="200.00001525878906" style="fill:none;stroke:none;"/>
<!--Gegenereerd door de SIMaD-toepassing (http://www.dlw.be).-->
<g style="stroke:none;fill-rule:evenodd;" transform="matrix(1,0,0,-1,0,200)">

<path d=" M282.73 77.1700000000001 L168.6 77.1700000000001 L168.6 25 L282.73 25 Z M252.43 68.7000000000001 L259.74 68.7000000000001 L259.74 55.3900000000001 L252.43 55.3900000000001 Z M229.31 68.7000000000001 L222.01 68.7000000000001 L222.01 55.3900000000001 L229.31 55.3900000000001 Z M198.89 68.7000000000001 L191.59 68.7000000000001 L191.59 55.3900000000001 L198.89 55.3900000000001 Z" style="fill:rgb(0,0,0);"/>
<path d=" M164.59 113.86 L121.28 113.86 L121.28 25 L164.59 25 Z M146.98 85.26 L146.98 102.74 L139.15 102.74 L139.15 85.26 Z" style="fill:rgb(0,0,0);"/>
<path d=" M142.93 175 L170.85 117.87 L115.02 117.87 Z" style="fill:rgb(0,0,0);"/>
<path d=" M284.98 81.1800000000001 L258.37 107.43 L168.6 107.43 L168.6 81.1800000000001 Z" style="fill:rgb(0,0,0);"/>
</g>
</svg>