<svg xmlns:xlink="http://www.w3.org/1999/xlink" xmlns="http://www.w3.org/2000/svg" width="400" height="200"  viewBox="-0.000001341104507446289 -0.0000152587890625 400.0000305175781 200.00001525878906"><rect id="svgEditorBackground" x="-0.0000013411046211331268" y="-0.000015258790881489404" width="400.0000305175781" height="200.00001525878906" style="fill:none;stroke:none;"/>
<!--Gegenereerd door de SIMaD-toepassing (http://www.dlw.be).-->
<g style="stroke:none;fill-rule:evenodd;" transform="matrix(1,0,0,-1,0,200)">

<path d=" M186.77 67.11 L186.27 69.25 L192.19 74.1799999999999 L192.85 72.54 L194.66 74.51 L194.665141848553 74.5078236811492 A1.63 1.63 0 0 0 196.974190912014 74.6090256168341 L196.98 74.61 L216.37 49.02 L216.369806699979 49.025271888499 A2.62 2.62 0 0 0 216.044577403158 45.0737106422669 L216.03909567754 45.0794741051745 A59.43 59.43 0 0 0 204.690888057158 37.0199829342947 L204.7 37.01 L204.53 35.04 L197.29 32.9 L197.13 34.22 L197.130281755749 34.2174794873597 A13.79 13.79 0 0 0 185.451871060502 33.8891288543657 L185.452884148231 33.8918227498967 A7.18 7.18 0 0 1 190.401254906634 28.2997289245002 L190.393607877651 28.2990166009844 A17.88 17.88 0 0 1 200.334137709811 29.361133872598 L200.34 29.36 L205.68 31.09 L205.678568521048 31.0855298707011 A30.99 30.99 0 0 0 228.226312752055 30.8024011102199 L228.233728113594 30.8104418009603 A8.36 8.36 0 0 0 231.336955709882 28.6268647794763 L231.34 28.63 L229.53 26.49 L229.529709042114 26.4893212949615 A16.69 16.69 0 0 1 216.77984884059 30.4371347943922 L216.782967164901 30.4290445412963 A38.14 38.14 0 0 1 202.562875060953 26.9576108933796 L202.55944058682 26.9651490093771 A40.65 40.65 0 0 0 194.31266858449 25.1947847609109 L194.311931376621 25.1907254577019 A9.88 9.88 0 0 0 183.785322250468 30.0070220212174 L183.787709683621 30.0141689389734 A6.74 6.74 0 0 0 182.991874764989 34.387362570894 L182.990404163796 34.3819180096163 A20.64 20.64 0 0 0 176.424224706481 43.0695393481624 L176.418220698438 43.0693319393554 A105.97 105.97 0 0 0 169.937326811586 75.7224495047359 L169.938146848293 75.7251043146766 A254.71 254.71 0 0 0 174.961686730912 157.517139856386 L174.956514267221 157.521348093913 A20.36 20.36 0 0 0 184.018203450651 171.63991174564 L184.015732860294 171.63293935676 A20.36 20.36 0 0 0 196.02818122509 174.516269481758 L196.032191960215 174.520378569963 A56.31 56.31 0 0 0 202.392061260624 173.689570522271 L202.39 173.68 L202.39 175 L209.79 174.67 L209.789296912453 174.669490158071 A63.66 63.66 0 0 0 204.362790989719 139.480197551513 L204.37 139.48 L196.8 141.77 L196.14 143.09 L196.138503187744 143.095521276785 A8.24 8.24 0 0 0 186.053556263019 142.261480967235 L186.06 142.26 L183.48 144.24 L183.64 136.52 L183.640964823276 136.506418857123 A70.17 70.17 0 0 0 188.255023393123 114.71230299733 L188.261063121403 114.719560495984 A159 159 0 0 0 183.319969895576 70.0720274111127 L183.31 70.0700000000001 L182.82 63.49 L186.77 67.11 Z" style="fill:rgb(0,0,0);"/>
<path d=" M195.16 151.64 L198.77 151.48 L200.42 150 L202.06 149.83 L202.06 148.02 L198.28 148.02 L197.29 150.16 L195.48 150 L195.16 151.64 Z" style="fill:rgb(0,0,0);"/>
<path d=" M178.863012394043 155.264176033593 A19.76 19.76 0 0 0 184.127230682736 160.359711736075 L184.13 160.36 L185.12 159.04 L185.118648354642 159.044268720931 A13.91 13.91 0 0 1 178.869233195266 150.488667458069 L178.87 150.49 L178.87 155.26 Z" style="fill:rgb(0,0,0);"/>
<path d=" M188.41 60.54 L189.4 57.25 L188.25 55.77 L188.251952770415 55.7614668563375 A5.38 5.38 0 0 0 186.766328805778 59.219120916161 L186.77 59.22 L188.41 60.54 Z" style="fill:rgb(0,0,0);"/>
<path d=" M192.191765150761 58.2250740152483 A12.02 12.02 0 0 0 190.053540000182 62.5042222931533 L190.06 62.51 L191.37 63 L191.37396134981 63.0013500967165 A7.23 7.23 0 0 1 193.342123850201 59.0539620911708 L193.35 59.0599999999999 L192.19 58.23 Z" style="fill:rgb(0,0,0);"/>
<path d=" M194.17 41.95 L194.5 39.97 L194.503618978581 39.9703864091406 A10.05 10.05 0 0 0 189.401006483032 40.4650637010877 L189.4 40.47 L194.17 41.95 Z" style="fill:rgb(0,0,0);"/>
<path d=" M196.477581701357 42.6041622837332 A22.94 22.94 0 0 1 201.738103945879 45.2420256295862 L201.73607087588 45.2432735917866 A11.83 11.83 0 0 0 197.29764015225 41.1267468699595 L197.29 41.13 L196.47 42.61 Z" style="fill:rgb(0,0,0);"/>
<path d=" M177.226028959952 131.909923015249 A478.47 478.47 0 0 1 178.380545328925 69.4130957714603 L178.38287694395 69.414245964986 A205.19 205.19 0 0 0 177.23413098171 131.91199975614 L177.23 131.91 Z" style="fill:rgb(0,0,0);"/>
</g>
</svg>