<svg xmlns:xlink="http://www.w3.org/1999/xlink" xmlns="http://www.w3.org/2000/svg" width="400" height="200"  viewBox="-0.000001341104507446289 -0.0000152587890625 400.0000305175781 200.00001525878906"><rect id="svgEditorBackground" x="-0.0000013411046211331268" y="-0.000015258790881489404" width="400.0000305175781" height="200.00001525878906" style="fill:none;stroke:none;"/>
<!--Gegenereerd door de SIMaD-toepassing (http://www.dlw.be).-->
<g style="stroke:none;fill-rule:evenodd;" transform="matrix(1,0,0,-1,0,200)">

<path d=" M205.124096609186 39.4054634612441 A6.37 6.37 0 0 1 205.156531216344 47.0109493104052 L205.157809089348 47.0176591376758 A6.41 6.41 0 0 1 205.466813143239 54.1405581805525 L205.471151140232 54.1331512810975 A5.57 5.57 0 0 1 206.962125778068 54.0754763814809 L206.963198462704 54.0790600294731 A207.5 207.5 0 0 1 209.223280701082 54.3084579510003 L209.223649549113 54.3070423898894 A94.56 94.56 0 0 1 220.139169678068 56.1265942081376 L220.136138975832 56.1263581732488 A7.77 7.77 0 0 0 222.4042281579 56.3009170884579 L222.398717137468 56.2989930635301 A0.41 0.41 0 0 0 222.64091976678 56.1977376804484 L222.650710007377 56.2013593400121 A2.99 2.99 0 1 1 222.650710007377 59.3586406599878 L222.64533834054 59.3639482424348 A1.26 1.26 0 0 0 221.887121296924 59.2448502877566 L221.880178427005 59.2405674545346 A17.77 17.77 0 0 1 220.226595103757 59.4179614072374 L220.23 59.4200000000001 L209.984177055712 61.1747418970221 A14.3 14.3 0 0 1 206.395142956582 61.331656427501 L206.4 61.3299999999999 L206.44 136.07 L238.78 136.07 L224.424091426856 83.1785741953665 A14.8 14.8 0 0 1 231.582058256872 76.2436952829162 L231.575172081319 76.2364671604572 A27.13 27.13 0 0 1 255.199468706317 76.8144536553689 L255.206712820315 76.8106020515581 A13.46 13.46 0 0 1 261.248857739085 83.091461535546 L261.24 83.0999999999999 L246.733897243754 136.066421355292 A5.92 5.92 0 0 1 244.624184276951 138.00748010908 L244.623892763632 138.012852748861 A76.75 76.75 0 0 1 206.397916345133 147.365688750672 L206.4 147.36 L206.4 161.7 L200 175 L193.61 161.7 L193.60205954764 147.365689216278 A76.75 76.75 0 0 1 155.376084891369 138.012840564121 L155.375815723049 138.00748010908 A5.92 5.92 0 0 1 153.266102756246 136.066421355292 L153.27 136.07 L138.761142260915 83.091461535546 A13.46 13.46 0 0 1 144.803287179685 76.8106020515581 L144.800531293683 76.8144536553689 A27.13 27.13 0 0 1 168.424827918681 76.2364671604572 L168.427941743128 76.2436952829162 A14.8 14.8 0 0 1 175.585908573144 83.1785741953665 L175.58 83.1700000000001 L161.23 136.07 L193.64 136.07 L193.60617789121 61.3339915897864 A14.3 14.3 0 0 1 190.04582146829 61.17474164421 L190.04 61.1700000000001 L179.803404896243 59.4179614072374 A17.77 17.77 0 0 1 178.149821572995 59.2405674545346 L178.152878703076 59.2448502877566 A1.26 1.26 0 0 0 177.39466165946 59.3639482424348 L177.389289992623 59.3586406599878 A2.99 2.99 0 1 1 177.389289992623 56.2013593400121 L177.38908023322 56.1977376804484 A0.41 0.41 0 0 0 177.631282862532 56.2989930635301 L177.6357718421 56.3009170884579 A7.77 7.77 0 0 0 179.903861024168 56.1263581732488 L179.900830321932 56.1265942081376 A94.56 94.56 0 0 1 190.816350450888 54.3070423898894 L190.816719298917 54.3084579510003 A207.5 207.5 0 0 1 193.076801537296 54.0790600294731 L193.077874705783 54.0754763350442 A5.57 5.57 0 0 1 194.558862680007 54.1314155181421 L194.552413340815 54.137776355046 A6.36 6.36 0 0 1 194.842768111652 47.0132900825092 L194.85204336794 47.0090158480371 A6.37 6.37 0 0 1 194.884505970245 39.4073254660215 L194.883687583156 39.4115690004111 A6.4 6.4 0 0 1 197.58356027541 29.6578052832644 L197.581858167959 29.6499329019245 A2.98 2.98 0 1 1 202.486280937515 29.6960813481591 L202.483257643368 29.6946995163891 A6.38 6.38 0 0 1 205.125528142921 39.4059616283807 Z M240.53 83.02 L229.57 83.02 L240.53 124.87 Z M155.03 83.02 L144.07 83.02 L155.03 124.87 Z M159.47 83.02 L170.43 83.02 L159.47 124.87 Z M244.98 83.02 L255.94 83.02 L244.98 124.87 Z" style="fill:rgb(0,0,0);"/>
</g>
</svg>