<svg xmlns:xlink="http://www.w3.org/1999/xlink" xmlns="http://www.w3.org/2000/svg" width="400" height="200"  viewBox="-0.000001341104507446289 -0.0000152587890625 400.0000305175781 200.00001525878906"><rect id="svgEditorBackground" x="-0.0000013411046211331268" y="-0.000015258790881489404" width="400.0000305175781" height="200.00001525878906" style="fill:none;stroke:none;"/>
<!--Gegenereerd door de SIMaD-toepassing (http://www.dlw.be).-->
<g style="stroke:none;fill-rule:evenodd;" transform="matrix(1,0,0,-1,0,200)">

<path d=" M151.54 92.74 L59.85 92.74 L59.85 105.68 L149.95 105.68 L149.95 160.26 L158.15 156.89 L158.15 152.51 L167.4 148.71 L167.01 125.92 L157.95 130.6 L157.95 134.2 L151.91 136.92 L151.91 105.68 L152.844698982073 105.682788976265 A73.54 73.54 0 0 0 173.480825018248 117.541061257343 L173.48 117.54 L173.48 172.12 L181.68 168.75 L181.68 164.37 L190.94 160.57 L190.55 137.78 L181.49 142.46 L181.49 146.06 L175.45 148.78 L175.44431236064 118.246330694968 A73.54 73.54 0 0 0 197.8807618729 122.215915115784 L197.88 122.22 L197.88 175 L206.08 171.63 L206.08 167.25 L215.34 163.45 L214.95 140.67 L205.89 145.34 L205.89 148.94 L199.85 151.66 L199.844258866595 122.228131283306 A73.54 73.54 0 0 0 222.626799053165 118.439012307669 L222.63 118.44 L222.63 167.39 L230.83 164.02 L230.83 159.64 L240.09 155.84 L239.7 133.06 L230.64 137.73 L230.64 141.33 L224.6 144.05 L224.590289491063 117.751885791208 A73.54 73.54 0 0 0 245.795301017927 105.682788976265 L245.8 105.68 L246.49 105.68 L246.49 154.42 L254.69 151.05 L254.69 146.67 L263.95 142.87 L263.56 120.09 L254.5 124.76 L254.5 128.36 L248.46 131.08 L248.46 105.68 L340.16 105.68 L340.16 92.74 L246.452274790639 92.7391428754982 A75.87 75.87 0 0 1 151.547725209361 92.7391428754982 Z" style="fill:rgb(0,0,0);"/>
<path d=" M59.85 25 L59.85 84.37 L340.16 84.37 L340.16 25 Z M162.49 64.01 L237.52 64.01 L237.52 79.61 L162.49 79.61 Z M162.49 46.88 L237.52 46.88 L237.52 62.49 L162.49 62.49 Z M162.49 29.76 L237.52 29.76 L237.52 45.36 L162.49 45.36 Z M83.27 64.01 L158.3 64.01 L158.3 79.61 L83.27 79.61 Z M83.27 46.88 L158.3 46.88 L158.3 62.49 L83.27 62.49 Z M83.27 29.76 L158.3 29.76 L158.3 45.36 L83.27 45.36 Z M241.71 64.01 L316.73 64.01 L316.73 79.61 L241.71 79.61 Z M241.71 46.88 L316.73 46.88 L316.73 62.49 L241.71 62.49 Z M241.71 29.76 L316.73 29.76 L316.73 45.36 L241.71 45.36 Z" style="fill:rgb(0,0,0);"/>
</g>
</svg>