<svg xmlns:xlink="http://www.w3.org/1999/xlink" xmlns="http://www.w3.org/2000/svg" width="400" height="200"  viewBox="-0.000001341104507446289 -0.0000152587890625 400.0000305175781 200.00001525878906"><rect id="svgEditorBackground" x="-0.0000013411046211331268" y="-0.000015258790881489404" width="400.0000305175781" height="200.00001525878906" style="fill:none;stroke:none;"/>
<!--Gegenereerd door de SIMaD-toepassing (http://www.dlw.be).-->
<g style="stroke:none;fill-rule:evenodd;" transform="matrix(1,0,0,-1,0,200)">

<path d=" M343.93 74.1199999999999 L352.38 74.1199999999999 L352.38 76.21 L358.22 79.5 L358.22 57.23 L352.38 60.96 L352.38 62.9099999999999 L47.61 62.9099999999999 L47.61 60.96 L41.77 57.23 L41.77 79.5 L47.61 76.21 L47.61 74.1199999999999 L54.57 74.1199999999999 L54.5700001014184 147.887655025187 A27.11 27.11 0 0 0 81.6828786978918 174.999999847161 L81.68 175 L316.807144486887 174.999999849613 A27.11 27.11 0 0 0 343.919999904509 147.887724579525 L343.93 147.88 Z M284.23562742555 120.814419689995 A38.36 38.36 0 0 0 294.85297424612 120.941783676544 L294.848341841212 120.932599458593 A19.59 19.59 0 0 0 301.407943602963 118.8805545202 L301.405752691762 118.874130689228 A2.18 2.18 0 0 0 302.497120127896 117.535388250786 L302.498064276071 117.539416925571 A0.84 0.84 0 0 0 301.913452105625 116.500265996458 L301.91 116.5 L257.26 103.61 L257.26 115.14 L269.320959449419 117.949962191051 A196.36 196.36 0 0 0 284.233046405093 120.810340981383 Z M287.1 123.93 L257.26 116.49 L257.256676700684 115.890966640544 A452.11 452.11 0 0 0 276.503721002638 120.373256608325 L276.504908561331 120.372345204546 A87.53 87.53 0 0 0 288.599122381237 122.041543332754 L288.594103930626 122.03612883508 A28.17 28.17 0 0 0 297.647722396307 121.175475038938 L297.654588504031 121.181292449572 A20.68 20.68 0 0 0 301.821043646244 119.589408915431 L301.822467071376 119.595476841054 A3.32 3.32 0 0 0 303.288252499682 118.107110100891 L303.285008429846 118.101231847634 A1.7 1.7 0 0 0 303.124809096197 116.336443819545 L303.12 116.34 L302.55 115.84 L301.67 115.44 L257.26 102.81 L257.26 92.2800000000002 L259.07 93.1700000000001 L259.07 97.4299999999998 L320.62 117.31 L320.62 114.1 L323.19 114.92 L323.189999945466 124.090859928258 A6.78 6.78 0 0 1 321.839482982088 128.15067907464 L321.844274777476 128.157621863925 A7.76 7.76 0 0 1 318.434524018208 130.745485127571 L318.431208218756 130.743044061516 A19.04 19.04 0 0 1 315.494802445671 131.616865910953 L315.5 131.61 L291.579498350662 132.794857610879 A4.27 4.27 0 0 1 287.100736956851 128.450671137638 L287.1 128.45 Z M250.417808084469 121.173789978986 A7.53 7.53 0 0 0 256.601863179108 114.410345171388 L256.6 114.41 L256.6 92.46 L255.26 92.9099999999999 L255.26 96.5 L227.31 105.35 L227.31 101.77 L225.96 102.25 L225.980640677017 120.375254065418 A4.42 4.42 0 0 0 230.488941284625 124.719105050561 L230.49 124.72 Z M213.36 168.07 L215.99 168.07 L215.99 68.29 L213.36 68.29 Z M111.08 139.3 L97.3110152505436 121.418023898671 A28.57 28.57 0 0 1 75.488514947068 100.259696411246 L75.49 100.26 L90.1602615331137 100.259670554684 A9.28 9.28 0 1 1 108.719738466886 100.259670554684 L108.73 100.26 L167.150151642112 100.263108570771 A9.3 9.3 0 1 1 185.749848357888 100.263108570771 L185.75 100.26 L198.65 100.26 L204.03 117.61 L171.3 121.35 L160.4 139.3 Z M140.13 135.55 L158.29 135.55 L166.96 121.35 L140.13 121.35 Z M229.7 104.01 L229.7 101.58 L227.91 101.58 L227.91 104.61 Z M136.55 135.55 L136.55 121.35 L110.02 121.35 L116.77 135.55 Z M318.62 114.66 L320.02 114.21 L320.02 116.45 L318.62 116 Z M305.44 116.41 L311.7968296435 118.136068016513 A2.81 2.81 0 0 1 313.04776016994 121.548669853911 L313.045046355163 121.545130669447 A3.67 3.67 0 0 1 311.517318225814 123.409343512777 L311.520427039075 123.405660260992 A40.12 40.12 0 0 1 300.741244155468 125.938907265426 L300.738930972418 125.940747958734 A79.55 79.55 0 0 1 294.233859261378 126.275629538852 L294.235828732891 126.279917034547 A1.51 1.51 0 0 1 293.936524364384 123.286847423893 L293.94 123.29 L296.071413997663 123.038421762604 A19.73 19.73 0 0 0 303.820604115854 119.921399955608 L303.819861340075 119.921070125016 A4.58 4.58 0 0 0 305.327869498328 118.215037254969 L305.321126683209 118.213415178144 A2.27 2.27 0 0 0 305.437230233214 116.415051027692 L305.44 116.41 Z M306.57 117.83 L309.929986587285 118.580010569572 A3.78 3.78 0 0 1 311.768195833393 119.582548621587 L311.769355168982 119.580195455769 A1.35 1.35 0 0 1 312.12761639076 120.875617899723 L312.12769710123 120.88090438475 A2.94 2.94 0 0 1 310.452786790066 122.845954588832 L310.454028882992 122.838550840775 A23.75 23.75 0 0 1 304.613885102252 124.53035106392 L304.613238061231 124.525451057909 A90.41 90.41 0 0 1 294.237246958151 125.523873856894 L294.233267753951 125.539363707862 A0.87 0.87 0 0 1 293.378729892429 124.957080842986 L293.3803098194 124.948383038285 A1.12 1.12 0 0 1 294.157811513397 124.030396891661 L294.16365774222 124.046216618834 A17.97 17.97 0 0 0 297.11167921982 123.59188575208 L297.109209686985 123.589303977398 A26 26 0 0 0 302.958649293993 121.41210652778 L302.957685599141 121.404191648741 A10.37 10.37 0 0 0 305.88621365945 119.151251294221 L305.882060018473 119.150020329084 A2.89 2.89 0 0 0 306.562252652418 117.832085175774 L306.57 117.83 Z" style="fill:rgb(0,0,0);"/>
<path d=" M99.65 39.5900000000002 A14.59 14.59 0 0 1 70.47 39.5900000000001 A14.59 14.59 0 0 1 99.65 39.5900000000001 Z" style="fill:rgb(0,0,0);"/>
<path d=" M137.91 39.5900000000002 A14.59 14.59 0 0 1 108.73 39.5900000000001 A14.59 14.59 0 0 1 137.91 39.5900000000001 Z" style="fill:rgb(0,0,0);"/>
<path d=" M290.37 39.5900000000002 A14.59 14.59 0 0 1 261.19 39.5900000000001 A14.59 14.59 0 0 1 290.37 39.5900000000001 Z" style="fill:rgb(0,0,0);"/>
<path d=" M329.23 39.5900000000002 A14.59 14.59 0 0 1 300.05 39.5900000000001 A14.59 14.59 0 0 1 329.23 39.5900000000001 Z" style="fill:rgb(0,0,0);"/>
</g>
</svg>