<svg xmlns:xlink="http://www.w3.org/1999/xlink" xmlns="http://www.w3.org/2000/svg" width="400" height="200"  viewBox="-0.000001341104507446289 -0.0000152587890625 400.0000305175781 200.00001525878906"><rect id="svgEditorBackground" x="-0.0000013411046211331268" y="-0.000015258790881489404" width="400.0000305175781" height="200.00001525878906" style="fill:none;stroke:none;"/>
<!--Gegenereerd door de SIMaD-toepassing (http://www.dlw.be).-->
<g style="stroke:none;fill-rule:evenodd;" transform="matrix(1,0,0,-1,0,200)">

<path d=" M294.731619756681 149.187312616663 A169.51 169.51 0 0 0 188.043592111928 29.1667562685478 L188.042234982619 29.1672367512679 A68.47 68.47 0 0 0 140.997765017381 29.1672367512679 L140.999149904352 29.1669817005978 A53.4 53.4 0 0 0 111.906481798101 57.1031665563624 L111.909717303368 57.1064930682249 A76.97 76.97 0 0 0 105.61899882562 95.7014123661829 L105.62 95.6999999999998 L123.878415716645 100.866790981816 A110.58 110.58 0 0 1 123.729767971196 57.3335995004697 L123.721280267058 57.3315834695894 A33.01 33.01 0 0 1 147.131708223617 32.5752095042978 L147.13692607869 32.5772283187904 A58.21 58.21 0 0 1 194.182062662702 45.0681789555285 L194.181182598527 45.0684845460787 A172.99 172.99 0 0 1 251.936762284121 137.086394863182 L251.94 137.08 Z" style="fill:rgb(0,0,0);"/>
<path d=" M199.43 128.46 L212.05002346856 145.444004714249 A19.81 19.81 0 0 1 191.20723020073 149.828528148977 L191.21085938533 149.825437246036 A97.76 97.76 0 0 1 177.376752561601 143.338705001039 L177.371546557248 143.342030127301 A136.66 136.66 0 0 1 156.167866769048 125.789629369366 L156.17 125.78 L159.909662380183 116.664297810362 A57.33 57.33 0 0 0 171.95396906259 127.707192354284 L171.946992864737 127.696739565741 A41.31 41.31 0 0 0 182.268406906835 132.800579707921 L182.27146188235 132.80746984404 A16.46 16.46 0 0 0 199.432307519181 128.454580274467 Z" style="fill:rgb(0,0,0);"/>
<path d=" M217.12 152.26 L228.496175145606 167.560736493715 A30.54 30.54 0 0 1 199.513220761193 173.641664238754 L199.509685167874 173.643190021286 A52.3 52.3 0 0 1 177.799098524894 163.221074711451 L177.799285894264 163.22143299746 A140.92 140.92 0 0 1 151.10470303012 138.168885715221 L151.11 138.17 L154.933714666791 128.818888528975 A97.36 97.36 0 0 0 180.569409809119 149.395503385375 L180.572231266381 149.401668316312 A59.75 59.75 0 0 0 202.814611571704 156.526886621945 L202.809628230791 156.523282143615 A16.92 16.92 0 0 0 217.12153972877 152.258973977833 Z" style="fill:rgb(0,0,0);"/>
<path d=" M238.772719068126 133.363815394914 A123.48 123.48 0 0 0 177.136780739238 40.7547995210305 L177.139637838247 40.7511732149933 A44.2 44.2 0 0 0 150.092542499174 35.3002097512752 L150.091559874256 35.2984398821109 A24 24 0 0 0 130.999756063572 49.3799025190125 L130.997513546386 49.384174384609 A50.18 50.18 0 0 0 126.67924016939 70.732942375868 L126.68196447645 70.728965500761 A119.28 119.28 0 0 0 131.808523639132 103.105898281867 L131.81 103.11 L152.355861876242 108.919272526488 A123.14 123.14 0 0 1 138.047318361669 65.9603675179983 L138.047594261468 65.9569553139893 A38.38 38.38 0 0 1 140.547695850572 46.1976117614653 L140.549777536238 46.2054526510554 A18.16 18.16 0 0 1 161.90898344346 43.4807009809786 L161.915248997992 43.4746857137882 A61.08 61.08 0 0 1 188.73447421225 68.4577267003309 L188.730618701593 68.4533685563331 A128.75 128.75 0 0 1 202.594220249344 104.790832184887 L202.590983828223 104.79766971655 A40.72 40.72 0 0 1 202.347573912817 123.060059323422 L202.35 123.06 Z" style="fill:rgb(0,0,0);"/>
</g>
</svg>