<svg xmlns:xlink="http://www.w3.org/1999/xlink" xmlns="http://www.w3.org/2000/svg" width="400" height="200"  viewBox="-0.000001341104507446289 -0.0000152587890625 400.0000305175781 200.00001525878906"><rect id="svgEditorBackground" x="-0.0000013411046211331268" y="-0.000015258790881489404" width="400.0000305175781" height="200.00001525878906" style="fill:none;stroke:none;"/>
<!--Gegenereerd door de SIMaD-toepassing (http://www.dlw.be).-->
<g style="stroke:none;fill-rule:evenodd;" transform="matrix(1,0,0,-1,0,200)">

<path d=" M160.89 112.88 L305.553722798553 113.435744806171 A27.14 27.14 0 0 1 327.160610959553 129.492868939994 L327.16 129.49 L381.249656965391 139.912205061939 A126.3 126.3 0 0 1 345.646604679854 82.0567943506214 L345.647257075765 82.0496342437759 A34.73 34.73 0 0 0 315.895214954641 79.87032151284 L315.896730704882 79.8757335797057 A36.69 36.69 0 0 1 287.844234892495 80.8614886803722 L287.84 80.86 L282.294105992526 79.1591821321763 A29.74 29.74 0 0 0 260.589967655734 80.8566520719423 L260.588472662642 80.8633062751771 A34.23 34.23 0 0 1 234.848245882927 81.8040749206507 L234.851914213246 81.8004120775653 A44.08 44.08 0 0 0 205.671202808286 81.4555376217182 L205.666917541797 81.4642828467047 A37.39 37.39 0 0 1 178.802296295041 81.0751367691898 L178.812380925045 81.0609247179602 A29.27 29.27 0 0 0 155.4346105922 80.3954650879835 L155.428647189829 80.4008755021017 A35.2 35.2 0 0 1 127.881973284583 81.3414539741694 L127.883233047278 81.3467019132872 A38.42 38.42 0 0 0 99.1188904728865 80.9097978931697 L99.1229880712568 80.909024020803 A39.48 39.48 0 0 1 80.3351033676752 83.2952026481591 L80.33 83.29 L68.7417521701085 82.0806138660379 A51.88 51.88 0 0 0 47.2001765300003 118.807190044181 L47.2 118.8 L55.42 118.8 L58.15 124.7 L84.51 124.81 L79.69 152.8 L111.3 160 L127.22 125.22 L138.23 124.77 L138.23 119.17 L151.943853167846 119.170457656059 A14.65 14.65 0 0 1 160.889506463489 112.885933155915 Z" style="fill:rgb(0,0,0);"/>
<path d=" M369.045970550986 57.7350214098775 A45.38 45.38 0 0 1 337.8506383414 56.6129624035344 L337.843506143017 56.6228676693921 A28.55 28.55 0 0 0 314.446880552929 56.3935950994778 L314.447433427156 56.3872681118022 A46.05 46.05 0 0 1 282.627496153803 56.3412215720189 L282.637139759548 56.3415282552207 A33.67 33.67 0 0 0 258.619846042489 57.2596798140726 L258.615809517234 57.2519092540862 A37.54 37.54 0 0 1 231.939079706745 56.8393872052292 L231.933647461827 56.8427424025866 A35.91 35.91 0 0 0 208.282402602463 56.7046106900775 L208.286185609168 56.7077695438328 A129.4 129.4 0 0 1 197.503196768959 58.9557301714633 L197.505369977764 58.9525009965203 A29.25 29.25 0 0 1 181.632454786895 57.1406975423982 L181.630435193251 57.1439239547675 A37.04 37.04 0 0 0 154.151437057979 56.6158113444914 L154.145387047657 56.6118487433669 A41.59 41.59 0 0 1 123.039944798339 57.0253122428563 L123.045840972468 57.0234349835719 A38.14 38.14 0 0 0 97.8559669645543 57.5967323943035 L97.8547018267395 57.6071326316773 A36.14 36.14 0 0 1 70.4652978332206 57.7217857609099 L70.4634095323124 57.7156025444557 A42.87 42.87 0 0 0 42.6593346650219 57.8997831943025 L42.66 57.9 L42.659334665022 49.7797831943024 A42.87 42.87 0 0 1 70.4634095323124 49.5956025444557 L70.4652978332206 49.6017857609099 A36.14 36.14 0 0 0 97.8547018267395 49.4871326316773 L97.8559669645543 49.4767323943035 A38.14 38.14 0 0 1 123.045840972468 48.9034349835719 L123.039944798339 48.9053122428563 A41.59 41.59 0 0 0 154.145387047657 48.4918487433669 L154.151437057979 48.4958113444914 A37.04 37.04 0 0 1 181.630435193251 49.0239239547675 L181.632454786895 49.0206975423983 A29.25 29.25 0 0 0 197.505369977764 50.8325009965203 L197.503196768959 50.8357301714633 A129.4 129.4 0 0 0 208.286185609168 48.5877695438328 L208.282402602463 48.5846106900775 A35.91 35.91 0 0 1 231.933647461827 48.7227424025866 L231.939079706745 48.7193872052292 A37.54 37.54 0 0 0 258.615809517234 49.1319092540862 L258.619846042489 49.1396798140726 A33.67 33.67 0 0 1 282.637139759548 48.2215282552207 L282.627496153803 48.2212215720189 A46.05 46.05 0 0 0 314.447433427156 48.2672681118022 L314.446880552929 48.2735950994778 A28.55 28.55 0 0 1 337.843506143017 48.5028676693921 L337.8506383414 48.4929624035345 A45.38 45.38 0 0 0 369.045970550986 49.6150214098775 L369.05 49.62 L369.045970550986 43.7450214098775 A45.38 45.38 0 0 1 337.8506383414 42.6229624035345 L337.843506143017 42.6228676693921 A28.55 28.55 0 0 0 314.446880552929 42.3935950994778 L314.447433427156 42.3972681118023 A46.05 46.05 0 0 1 282.627496153803 42.3512215720189 L282.637139759548 42.3515282552207 A33.67 33.67 0 0 0 258.619846042489 43.2696798140726 L258.615809517234 43.2619092540863 A37.54 37.54 0 0 1 231.939079706745 42.8493872052293 L231.933647461827 42.8527424025868 A35.91 35.91 0 0 0 208.282402602463 42.7146106900776 L208.286185609168 42.7177695438328 A129.4 129.4 0 0 1 197.503196768959 44.9657301714633 L197.505369977764 44.9625009965203 A29.25 29.25 0 0 1 181.632454786895 43.1506975423983 L181.630435193251 43.1539239547675 A37.04 37.04 0 0 0 154.151437057979 42.6258113444914 L154.145387047657 42.6218487433669 A41.59 41.59 0 0 1 123.039944798339 43.0353122428563 L123.045840972468 43.0334349835719 A38.14 38.14 0 0 0 97.8559669645543 43.6067323943035 L97.8547018267395 43.6071326316773 A36.14 36.14 0 0 1 70.4652978332206 43.7217857609099 L70.4634095323124 43.7256025444557 A42.87 42.87 0 0 0 42.6593346650219 43.9097831943025 L42.66 43.91 L42.66 41.22 L18.76 41.22 L18.76 100.54 L42.66 100.54 L42.659334665022 77.9197831943024 A42.87 42.87 0 0 1 70.4634095323124 77.7356025444557 L70.4652978332206 77.7417857609099 A36.14 36.14 0 0 0 97.8547018267395 77.6271326316773 L97.8559669645543 77.6267323943036 A38.14 38.14 0 0 1 123.045840972468 77.053434983572 L123.039944798339 77.0553122428563 A41.59 41.59 0 0 0 154.145387047657 76.6418487433669 L154.151437057979 76.6358113444913 A37.04 37.04 0 0 1 181.630435193251 77.1639239547675 L181.632454786895 77.1706975423983 A29.25 29.25 0 0 0 197.505369474018 78.9825010793426 L197.503198997496 78.985729805063 A129.4 129.4 0 0 0 208.286185609168 76.7377695438328 L208.282402602463 76.7246106900776 A35.91 35.91 0 0 1 231.933647461827 76.8627424025868 L231.939079706745 76.8693872052293 A37.54 37.54 0 0 0 258.615809517234 77.2819092540862 L258.619846042489 77.2796798140726 A33.67 33.67 0 0 1 282.637139759548 76.3615282552206 L282.627496153803 76.3712215720189 A46.05 46.05 0 0 0 314.447433427156 76.4172681118023 L314.446880552929 76.4135950994779 A28.55 28.55 0 0 1 337.843506143017 76.6428676693922 L337.8506383414 76.6329624035345 A45.38 45.38 0 0 0 369.045970550986 77.7550214098775 L369.05 77.76 L369.045970550986 71.4750214098775 A45.38 45.38 0 0 1 337.8506383414 70.3529624035344 L337.843506143017 70.3628676693921 A28.55 28.55 0 0 0 314.446880552929 70.1335950994778 L314.447433427156 70.1272681118022 A46.05 46.05 0 0 1 282.627496153803 70.0812215720189 L282.637139759548 70.0815282552207 A33.67 33.67 0 0 0 258.619846042489 70.9996798140727 L258.615809517234 70.9919092540862 A37.54 37.54 0 0 1 231.939079706745 70.5793872052292 L231.933648052398 70.5827426124389 A35.91 35.91 0 0 0 208.282402602463 70.4446106900775 L208.286185609168 70.4477695438328 A129.4 129.4 0 0 1 197.503198997496 72.6957298050629 L197.505369474018 72.6925010793426 A29.25 29.25 0 0 1 181.632454786895 70.8806975423982 L181.630435193251 70.8839239547675 A37.04 37.04 0 0 0 154.151437057979 70.3558113444914 L154.145387047657 70.3518487433669 A41.59 41.59 0 0 1 123.039944798339 70.7653122428563 L123.045840972468 70.7634349835719 A38.14 38.14 0 0 0 97.8559669645543 71.3367323943036 L97.8547018267395 71.3471326316773 A36.14 36.14 0 0 1 70.4652978332206 71.4617857609099 L70.4634095323124 71.4556025444558 A42.87 42.87 0 0 0 42.6593346650219 71.6397831943025 L42.66 71.64 L42.659334665022 63.7297831943025 A42.87 42.87 0 0 1 70.4634095323124 63.5456025444558 L70.4652972485041 63.5417855243357 A36.14 36.14 0 0 0 97.8547012440241 63.4271328731384 L97.8559669645543 63.4267323943036 A38.14 38.14 0 0 1 123.045840972468 62.8534349835719 L123.039944798339 62.8553122428563 A41.59 41.59 0 0 0 154.145387047657 62.4418487433669 L154.151437057979 62.4458113444914 A37.04 37.04 0 0 1 181.630435193251 62.9739239547676 L181.632454786895 62.9706975423983 A29.25 29.25 0 0 0 197.505369474018 64.7825010793426 L197.503198997496 64.785729805063 A129.4 129.4 0 0 0 208.286185609168 62.5377695438329 L208.282402602463 62.5346106900775 A35.91 35.91 0 0 1 231.933648052398 62.6727426124389 L231.939079706745 62.6693872052293 A37.54 37.54 0 0 0 258.615809517234 63.0819092540862 L258.619846042489 63.0896798140726 A33.67 33.67 0 0 1 282.637139759548 62.1715282552206 L282.627496153803 62.1712215720189 A46.05 46.05 0 0 0 314.447433427156 62.2172681118023 L314.446880552929 62.2135950994779 A28.55 28.55 0 0 1 337.843506143017 62.4428676693922 L337.8506383414 62.4429624035345 A45.38 45.38 0 0 0 369.045970550986 63.5650214098775 L369.05 63.5599999999999 Z" style="fill:rgb(0,0,0);"/>
</g>
</svg>