<?xml version="1.0" encoding="UTF-8" standalone="no"?>
<!-- Created with Inkscape (http://www.inkscape.org/) -->

<svg
   xmlns:dc="http://purl.org/dc/elements/1.1/"
   xmlns:cc="http://creativecommons.org/ns#"
   xmlns:rdf="http://www.w3.org/1999/02/22-rdf-syntax-ns#"
   xmlns:svg="http://www.w3.org/2000/svg"
   xmlns="http://www.w3.org/2000/svg"
   xmlns:sodipodi="http://sodipodi.sourceforge.net/DTD/sodipodi-0.dtd"
   xmlns:inkscape="http://www.inkscape.org/namespaces/inkscape"
   width="51.111866mm"
   height="39.687508mm"
   viewBox="0 0 51.111866 39.687508"
   version="1.1"
   id="svg279"
   inkscape:version="0.92.1 r15371"
   sodipodi:docname="S30-3.svg">
  <defs
     id="defs273" />
  <sodipodi:namedview
     id="base"
     pagecolor="#ffffff"
     bordercolor="#666666"
     borderopacity="1.0"
     inkscape:pageopacity="0.0"
     inkscape:pageshadow="2"
     inkscape:zoom="0.35"
     inkscape:cx="153.73636"
     inkscape:cy="132.14288"
     inkscape:document-units="mm"
     inkscape:current-layer="layer1"
     showgrid="false"
     fit-margin-top="0"
     fit-margin-left="0"
     fit-margin-right="0"
     fit-margin-bottom="0"
     inkscape:window-width="1920"
     inkscape:window-height="1018"
     inkscape:window-x="-8"
     inkscape:window-y="-8"
     inkscape:window-maximized="1" />
  <metadata
     id="metadata276">
    <rdf:RDF>
      <cc:Work
         rdf:about="">
        <dc:format>image/svg+xml</dc:format>
        <dc:type
           rdf:resource="http://purl.org/dc/dcmitype/StillImage" />
        <dc:title></dc:title>
      </cc:Work>
    </rdf:RDF>
  </metadata>
  <g
     inkscape:label="Laag 1"
     inkscape:groupmode="layer"
     id="layer1"
     transform="translate(-65.157253,-144.10863)">
    <g
       id="g289"
       transform="matrix(0.26458333,0,0,-0.26458333,37.79762,190.41071)"
       style="fill-rule:evenodd;stroke:none">
      <path
         id="path283"
         style="fill:#000000"
         d="m 103.41,59.16 v 5.07 h 30.81 l 5.5518,7.150958 a 6.83,6.83 0 0 0 6.57551,2.328829 l 0.003,2.13e-4 60.97293,79.01882 a 6.94,6.94 0 0 0 0.43421,6.74168 l 0.003,-5e-4 11.97,15.53 10.23,-7.15 -12.6547,-16.21799 a 7.01,7.01 0 0 0 -6.18859,-1.8954 l 0.003,0.003 -8.75,-11.44 8.93659,-8.98063 a 11.21,11.21 0 1 0 -11.85721,-3.3584 l 6.2e-4,-9.7e-4 -3.82,3.84 -22.81,-29.74 21.88,-21.94 34.55,34.55 48.45,-48.44 h 18.88 V 59.16 H 146.01 l -8.57,-11.17 -9.48,8.09 2.38,3.08 z m 92.61,5.07 19.14,19.14 19.16,-19.14 z m -46.08711,-1.95e-4 a 7.09,7.09 0 0 1 0.27409,6.555238 l 0.003,-0.005 15.94,20.72 27.27,-27.27 z"
         inkscape:connector-curvature="0" />
      <path
         id="path285"
         style="fill:#000000"
         d="m 103.41208,45.083908 a 29.89,29.89 0 0 0 16.73913,-1.826918 l -0.002,0.0089 a 29.8,29.8 0 0 1 22.76727,0.06851 l 0.007,-0.01013 a 29.78,29.78 0 0 0 21.71845,0.342563 l 0.003,0.0098 a 30.42,30.42 0 0 1 24.57549,-0.06852 l 6.1e-4,-0.0034 a 31.17,31.17 0 0 0 24.45867,-1.187535 l 0.001,0.0032 a 29.91,29.91 0 0 1 19.84583,0.685127 l 0.004,4.36e-4 a 30.68,30.68 0 0 0 25.16757,-0.525276 l -0.007,-0.0011 a 30.08,30.08 0 0 1 20.39363,0.502419 l 0.004,0.0015 a 30.13,30.13 0 0 0 17.49547,1.964243 l -0.003,-0.0077 0.004,-3.815281 a 29.84,29.84 0 0 1 -14.79894,-0.936353 l -9.7e-4,0.0063 a 30.8,30.8 0 0 0 -23.77703,-1.279072 l 0.005,0.0032 a 30.11,30.11 0 0 1 -22.49936,1.050732 l 0.002,-0.0067 A 30.26,30.26 0 0 0 212.97349,38.82953 l -0.006,-0.0032 a 30.61,30.61 0 0 1 -25.75895,0.182687 l -8.8e-4,0.0063 a 30.17,30.17 0 0 0 -21.24324,0.31979 l -1e-4,-0.0059 a 29.79,29.79 0 0 1 -21.71908,0.707983 l 0.005,0.01174 a 30.43,30.43 0 0 0 -25.43958,-0.04567 l -0.0115,-0.01171 a 30.22,30.22 0 0 1 -15.39267,1.301755 L 103.41,41.3 Z"
         inkscape:connector-curvature="0" />
      <path
         id="path287"
         style="fill:#000000"
         d="m 103.41208,32.863908 a 29.89,29.89 0 0 0 16.73913,-1.826918 l -0.002,0.0089 a 29.8,29.8 0 0 1 22.76727,0.06851 l 0.007,-1.28e-4 a 29.78,29.78 0 0 0 21.71845,0.342563 l 0.003,-2.46e-4 a 30.42,30.42 0 0 1 24.57549,-0.06852 l 6.1e-4,-0.0034 a 31.17,31.17 0 0 0 24.45867,-1.187535 l 0.001,0.0032 a 29.91,29.91 0 0 1 19.84583,0.685127 l 0.004,4.36e-4 a 30.68,30.68 0 0 0 25.16757,-0.525276 l -0.007,-0.0011 a 30.08,30.08 0 0 1 20.39363,0.502419 l 0.004,0.0015 a 30.13,30.13 0 0 0 17.49547,1.964243 l -0.003,0.0023 0.004,-3.825281 a 29.84,29.84 0 0 1 -14.79894,-0.936353 l -9.7e-4,0.0063 a 30.8,30.8 0 0 0 -23.77703,-1.279072 l 0.005,0.0032 a 30.11,30.11 0 0 1 -22.49936,1.050732 l 0.002,-0.0067 a 30.26,30.26 0 0 0 -22.54241,-1.233323 l -0.006,-0.0032 a 30.61,30.61 0 0 1 -25.75895,0.182687 l -8.8e-4,0.0063 a 30.17,30.17 0 0 0 -21.24324,0.31979 l -1e-4,-0.0059 a 29.79,29.79 0 0 1 -21.71908,0.707983 l 0.005,0.01174 a 30.43,30.43 0 0 0 -25.43958,-0.04567 l -0.0115,-0.01171 a 30.22,30.22 0 0 1 -15.39267,1.301755 l 0.004,0.0068 z"
         inkscape:connector-curvature="0" />
    </g>
  </g>
</svg>
