<?xml version="1.0" encoding="UTF-8" standalone="no"?>
<svg
   xmlns:dc="http://purl.org/dc/elements/1.1/"
   xmlns:cc="http://creativecommons.org/ns#"
   xmlns:rdf="http://www.w3.org/1999/02/22-rdf-syntax-ns#"
   xmlns:svg="http://www.w3.org/2000/svg"
   xmlns="http://www.w3.org/2000/svg"
   xmlns:sodipodi="http://sodipodi.sourceforge.net/DTD/sodipodi-0.dtd"
   xmlns:inkscape="http://www.inkscape.org/namespaces/inkscape"
   width="136.77"
   height="150"
   version="1.1"
   id="svg16"
   sodipodi:docname="S30-13.svg"
   inkscape:version="0.92.1 r15371">
  <metadata
     id="metadata22">
    <rdf:RDF>
      <cc:Work
         rdf:about="">
        <dc:format>image/svg+xml</dc:format>
        <dc:type
           rdf:resource="http://purl.org/dc/dcmitype/StillImage" />
        <dc:title></dc:title>
      </cc:Work>
    </rdf:RDF>
  </metadata>
  <defs
     id="defs20" />
  <sodipodi:namedview
     pagecolor="#ffffff"
     bordercolor="#666666"
     borderopacity="1"
     objecttolerance="10"
     gridtolerance="10"
     guidetolerance="10"
     inkscape:pageopacity="0"
     inkscape:pageshadow="2"
     inkscape:window-width="1920"
     inkscape:window-height="1018"
     id="namedview18"
     showgrid="false"
     fit-margin-top="0"
     fit-margin-left="0"
     fit-margin-right="0"
     fit-margin-bottom="0"
     inkscape:zoom="0.9425"
     inkscape:cx="68.38"
     inkscape:cy="75"
     inkscape:window-x="-8"
     inkscape:window-y="-8"
     inkscape:window-maximized="1"
     inkscape:current-layer="g14" />
  <!--Gegenereerd door de SIMaD-toepassing (http://www.dlw.be).-->
  <g
     style="fill-rule:evenodd;stroke:none"
     transform="matrix(1,0,0,-1,-131.62,175)"
     id="g14">
    <path
       d="m 236.2,148.26 -90.64591,0.01 a 6.2600686,6.2600686 0 1 1 -0.0586,-12.52 h 0.005 55.16 l -13.15,-13.06 23.42,-23.42 28.32,28.24 11.47,-11.44 -17.95255,-17.97958 a 6.26,6.26 0 1 1 9.02663,-8.671886 l 0.006,-0.0085 26.59,26.649996 z"
       style="fill:#000000"
       id="path4"
       inkscape:connector-curvature="0" />
    <path
       d="m 133.43796,39.430883 a 6.26,6.26 0 1 1 8.93157,-8.773416 l 4.7e-4,-0.0075 59.32,59.34 -8.83,8.84 z"
       style="fill:#000000"
       id="path6"
       inkscape:connector-curvature="0" />
    <path
       d="m 193.62,37.93 a 12.93,12.93 0 0 1 -25.86,0 12.93,12.93 0 0 1 25.86,0 z"
       style="fill:#000000"
       id="path8"
       inkscape:connector-curvature="0" />
    <path
       d="m 187.11,104.57 -8.86,8.86 -21.28287,-21.310014 a 6.26,6.26 0 1 1 8.9018,-8.802832 L 165.87,83.31 Z"
       style="fill:#000000"
       id="path10"
       inkscape:connector-curvature="0" />
    <path
       d="m 234.84,163.41 a 11.59,11.59 0 0 1 -23.18,0 11.59,11.59 0 0 1 23.18,0 z"
       style="fill:#000000"
       id="path12"
       inkscape:connector-curvature="0" />
  </g>
</svg>
