<?xml version="1.0" encoding="UTF-8" standalone="no"?>
<!-- Created with Inkscape (http://www.inkscape.org/) -->

<svg
   xmlns:dc="http://purl.org/dc/elements/1.1/"
   xmlns:cc="http://creativecommons.org/ns#"
   xmlns:rdf="http://www.w3.org/1999/02/22-rdf-syntax-ns#"
   xmlns:svg="http://www.w3.org/2000/svg"
   xmlns="http://www.w3.org/2000/svg"
   xmlns:sodipodi="http://sodipodi.sourceforge.net/DTD/sodipodi-0.dtd"
   xmlns:inkscape="http://www.inkscape.org/namespaces/inkscape"
   width="61.269608mm"
   height="39.6875mm"
   viewBox="0 0 61.269608 39.6875"
   version="1.1"
   id="svg245"
   inkscape:version="0.92.1 r15371"
   sodipodi:docname="S30-4.svg">
  <defs
     id="defs239" />
  <sodipodi:namedview
     id="base"
     pagecolor="#ffffff"
     bordercolor="#666666"
     borderopacity="1.0"
     inkscape:pageopacity="0.0"
     inkscape:pageshadow="2"
     inkscape:zoom="0.35"
     inkscape:cx="184.3516"
     inkscape:cy="229.28569"
     inkscape:document-units="mm"
     inkscape:current-layer="layer1"
     showgrid="false"
     fit-margin-top="0"
     fit-margin-left="0"
     fit-margin-right="0"
     fit-margin-bottom="0"
     inkscape:window-width="1920"
     inkscape:window-height="1018"
     inkscape:window-x="-8"
     inkscape:window-y="-8"
     inkscape:window-maximized="1" />
  <metadata
     id="metadata242">
    <rdf:RDF>
      <cc:Work
         rdf:about="">
        <dc:format>image/svg+xml</dc:format>
        <dc:type
           rdf:resource="http://purl.org/dc/dcmitype/StillImage" />
        <dc:title></dc:title>
      </cc:Work>
    </rdf:RDF>
  </metadata>
  <g
     inkscape:label="Laag 1"
     inkscape:groupmode="layer"
     id="layer1"
     transform="translate(-57.056972,-169.81101)">
    <g
       id="g257"
       transform="matrix(0.26458333,0,0,-0.26458333,34.77381,216.11309)"
       style="fill-rule:evenodd;stroke:none">
      <path
         id="path249"
         style="fill:#000000"
         d="m 315.79,72.17 a 47.17,47.17 0 0 1 -94.34,0 47.17,47.17 0 0 1 94.34,0 z m -5.66,0 a 41.52,41.52 0 0 1 -83.04,0 41.52,41.52 0 0 1 83.04,0 z"
         inkscape:connector-curvature="0" />
      <path
         id="path251"
         style="fill:#000000"
         d="m 216.36,156.26 -44.76,-44.84 32.16,-32.11 0.01,-27.524264 a 6.31,6.31 0 1 1 12.61996,0 l -0.01,0.0043 z m -12.64,-30.57 -14.25,-14.27 14.24,-14.24 z"
         inkscape:connector-curvature="0" />
      <path
         id="path253"
         style="fill:#000000"
         d="m 179.78,134.54 29.88,29.85 -63.38773,-4.6e-4 a 11.41,11.41 0 0 1 -8.22046,-19.42722 l 0.008,0.008 17.21,-17.25 -10.41854,-10.34162 a 47.17,47.17 0 1 1 12.1257,-5.58129 l 0.003,0.003 16.08,16.04 -6.64,6.7 z m -39.6,-21.78 -8.35595,-8.28648 a 6.3,6.3 0 1 1 8.93889,-8.879601 l 0.007,-0.0039 12.10445,12.126991 a 41.53,41.53 0 1 0 -12.69477,5.04436 z"
         inkscape:connector-curvature="0" />
      <path
         id="path255"
         style="fill:#000000"
         d="m 126.37,164.39 a 10.61,10.61 0 0 1 -21.22,0 10.61,10.61 0 0 1 21.22,0 z"
         inkscape:connector-curvature="0" />
    </g>
  </g>
</svg>
