<?xml version="1.0" encoding="UTF-8" standalone="no"?>
<!-- Created with Inkscape (http://www.inkscape.org/) -->

<svg
   xmlns:dc="http://purl.org/dc/elements/1.1/"
   xmlns:cc="http://creativecommons.org/ns#"
   xmlns:rdf="http://www.w3.org/1999/02/22-rdf-syntax-ns#"
   xmlns:svg="http://www.w3.org/2000/svg"
   xmlns="http://www.w3.org/2000/svg"
   xmlns:sodipodi="http://sodipodi.sourceforge.net/DTD/sodipodi-0.dtd"
   xmlns:inkscape="http://www.inkscape.org/namespaces/inkscape"
   width="58.795647mm"
   height="39.6875mm"
   viewBox="0 0 58.795647 39.6875"
   version="1.1"
   id="svg310"
   inkscape:version="0.92.1 r15371"
   sodipodi:docname="S30-2.svg">
  <defs
     id="defs304" />
  <sodipodi:namedview
     id="base"
     pagecolor="#ffffff"
     bordercolor="#666666"
     borderopacity="1.0"
     inkscape:pageopacity="0.0"
     inkscape:pageshadow="2"
     inkscape:zoom="0.35"
     inkscape:cx="53.967372"
     inkscape:cy="-39.285718"
     inkscape:document-units="mm"
     inkscape:current-layer="layer1"
     showgrid="false"
     fit-margin-top="0"
     fit-margin-left="0"
     fit-margin-right="0"
     fit-margin-bottom="0"
     inkscape:window-width="1920"
     inkscape:window-height="1018"
     inkscape:window-x="-8"
     inkscape:window-y="-8"
     inkscape:window-maximized="1" />
  <metadata
     id="metadata307">
    <rdf:RDF>
      <cc:Work
         rdf:about="">
        <dc:format>image/svg+xml</dc:format>
        <dc:type
           rdf:resource="http://purl.org/dc/dcmitype/StillImage" />
        <dc:title></dc:title>
      </cc:Work>
    </rdf:RDF>
  </metadata>
  <g
     inkscape:label="Laag 1"
     inkscape:groupmode="layer"
     id="layer1"
     transform="translate(-91.554466,-98.751487)">
    <g
       id="g318"
       transform="matrix(0.26458333,0,0,-0.26458333,68.035715,145.05357)"
       style="fill-rule:evenodd;stroke:none">
      <path
         id="path314"
         style="fill:#000000"
         d="m 279.95,175 0.01,-6.71 H 120.19 V 175 h -3.73 v -33.04 h 42.56 l 0.006,-26.78282 a 7.18,7.18 0 0 1 -7.25323,6.94241 l 0.007,-0.01 -55.447802,0.009 a 7.33,7.33 0 0 1 -7.442165,-7.35121 l -3.3e-5,-0.008 2e-5,-76.15294 a 7.18,7.18 0 0 1 7.216672,-7.196966 L 96.11,31.41 h 21.38 v 42.74 h 49 l 19.45147,16.115631 a 22.47,22.47 0 0 1 27.87706,0 l 10e-4,0.0044 19.69,-16.12 h 49.16 V 31.42 l 21.22348,-0.01 a 7.21,7.21 0 0 1 7.21649,7.232321 l 3e-5,0.0077 v 76.183989 a 7.28,7.28 0 0 1 -7.30076,7.28598 l 7.6e-4,-0.01 -55.46831,-7e-5 a 7.26,7.26 0 0 1 -7.24535,-6.44095 l 0.004,0.001 v 26.29 h 42.59 V 175 Z M 162.75,141.96 V 76.57 l 2.86,-0.01 18.82,15.45 v 8.81 h 31.18 l -0.01,-8.85 18.87,-15.43 2.89,-0.01 v 65.43 z m -42.56,22.56 V 145.7 h 159.78 v 18.82 z m 64.27,-57.42 31.24514,0.004 a 15.9,15.9 0 0 1 -31.25028,0 z"
         inkscape:connector-curvature="0" />
      <path
         id="path316"
         style="fill:#000000"
         d="M 162.75,71.92 V 47.14 h 74.52 v 24.78 l 39.23752,-0.01001 a 2.99,2.99 0 0 0 2.98236,-2.962662 l 1.2e-4,0.0027 V 34.363807 a 2.94,2.94 0 0 0 -2.94255,-2.943778 l -0.007,-1e-6 -36.34834,0.01001 a 2.7,2.7 0 0 0 -1.64081,0.562163 l 3e-4,-0.0062 A 15.35,15.35 0 0 0 225.65317,25.000023 L 225.65,25 l -51.46464,1.38e-4 a 15.44,15.44 0 0 0 -12.91041,6.87258 l 4.5e-4,0.0069 a 2.95,2.95 0 0 0 -1.48992,-0.44863 l 0.005,-0.01097 -36.35437,4.2e-5 A 2.93,2.93 0 0 0 120.49,34.348509 v 0.0015 l 0.02,34.591146 a 2.97,2.97 0 0 0 2.93927,2.978695 L 123.44,71.93 Z m 0,-28.51 -0.01,-2.894035 a 11.24,11.24 0 0 1 10.92957,-11.711951 l 3.5e-4,-0.004 51.7364,0.01067 a 11.99,11.99 0 0 1 11.85919,11.664325 l 0.004,-0.005 v 2.94 z"
         inkscape:connector-curvature="0" />
    </g>
  </g>
</svg>
