<?xml version="1.0" encoding="UTF-8" standalone="no"?>
<svg
   xmlns:dc="http://purl.org/dc/elements/1.1/"
   xmlns:cc="http://creativecommons.org/ns#"
   xmlns:rdf="http://www.w3.org/1999/02/22-rdf-syntax-ns#"
   xmlns:svg="http://www.w3.org/2000/svg"
   xmlns="http://www.w3.org/2000/svg"
   xmlns:sodipodi="http://sodipodi.sourceforge.net/DTD/sodipodi-0.dtd"
   xmlns:inkscape="http://www.inkscape.org/namespaces/inkscape"
   width="229.32001"
   height="150"
   version="1.1"
   id="svg14"
   sodipodi:docname="S30-15.svg"
   inkscape:version="0.92.1 r15371">
  <metadata
     id="metadata20">
    <rdf:RDF>
      <cc:Work
         rdf:about="">
        <dc:format>image/svg+xml</dc:format>
        <dc:type
           rdf:resource="http://purl.org/dc/dcmitype/StillImage" />
        <dc:title></dc:title>
      </cc:Work>
    </rdf:RDF>
  </metadata>
  <defs
     id="defs18" />
  <sodipodi:namedview
     pagecolor="#ffffff"
     bordercolor="#666666"
     borderopacity="1"
     objecttolerance="10"
     gridtolerance="10"
     guidetolerance="10"
     inkscape:pageopacity="0"
     inkscape:pageshadow="2"
     inkscape:window-width="1920"
     inkscape:window-height="1018"
     id="namedview16"
     showgrid="false"
     fit-margin-top="0"
     fit-margin-left="0"
     fit-margin-right="0"
     fit-margin-bottom="0"
     inkscape:zoom="0.9425"
     inkscape:cx="200"
     inkscape:cy="100"
     inkscape:window-x="-8"
     inkscape:window-y="-8"
     inkscape:window-maximized="1"
     inkscape:current-layer="g12" />
  <!--Gegenereerd door de SIMaD-toepassing (http://www.dlw.be).-->
  <g
     style="fill-rule:evenodd;stroke:none"
     transform="matrix(1,0,0,-1,0,150)"
     id="g12">
    <path
       d="m 148.13,137.03 a 12.97,12.97 0 0 1 -25.94,0 12.97,12.97 0 0 1 25.94,0 z"
       style="fill:#000000"
       id="path4"
       inkscape:connector-curvature="0" />
    <path
       d="m 55.35,126.35 -1.44,0.72 -1.57,0.46 -1.68,0.16 -50.48,-0.01 v 5.19 h 97.29 l 29.12692,-26.34539 a 5.45,5.45 0 0 1 7.50329,0.16819 l -2.1e-4,-0.003 30.2464,30.27405 a 10.71,10.71 0 0 0 14.82369,0.79168 l -9e-5,0.004 50.15,-45.209999 H 184.71 L 160.82,114.00953 136.12453,89.361631 a 6.67,6.67 0 0 0 -9.07156,-0.25758 l -0.003,-0.005 -42.69,38.579999 -8.0827,-0.0111 a 2.32,2.32 0 0 1 -1.51236,-4.01297 l -0.005,0.005 24.63863,-22.21514 a 5.46,5.46 0 0 0 -6.77781,-8.560139 l -8.2e-4,-0.005 -36,32.499999 z"
       style="fill:#000000"
       id="path6"
       inkscape:connector-curvature="0" />
    <path
       d="m 55.16,38.900001 -1.43,0.73 -1.58,0.45 -1.68,0.16 -50.47,-0.01 v 5.2 H 97.29 L 126.41692,19.07461 a 5.45,5.45 0 0 1 7.50329,0.168186 l -2.1e-4,0.0072 30.2364,30.27405 a 10.71,10.71 0 0 0 14.82369,0.79168 l -9e-5,-0.0057 50.15,-45.2100002 H 184.52 L 160.64,26.560001 135.93453,1.9120968 a 6.67,6.67 0 0 0 -9.07156,-0.257578 l 0.007,-0.0045 -42.69,38.5800002 -8.0927,-0.0011 a 2.32,2.32 0 0 1 -1.51236,-4.012966 l -0.0049,-0.006 24.64863,-22.21514 A 5.46,5.46 0 0 0 92.44082,5.4347188 l -8.2e-4,0.0053 -36,32.4900002 z"
       style="fill:#000000"
       id="path8"
       inkscape:connector-curvature="0" />
    <path
       d="m 147.95,49.580001 a 12.97,12.97 0 0 1 -25.94,0 12.97,12.97 0 0 1 25.94,0 z"
       style="fill:#000000"
       id="path10"
       inkscape:connector-curvature="0" />
  </g>
</svg>
