<?xml version="1.0" encoding="UTF-8" standalone="no"?>
<!-- Created with Inkscape (http://www.inkscape.org/) -->

<svg
   xmlns:dc="http://purl.org/dc/elements/1.1/"
   xmlns:cc="http://creativecommons.org/ns#"
   xmlns:rdf="http://www.w3.org/1999/02/22-rdf-syntax-ns#"
   xmlns:svg="http://www.w3.org/2000/svg"
   xmlns="http://www.w3.org/2000/svg"
   xmlns:sodipodi="http://sodipodi.sourceforge.net/DTD/sodipodi-0.dtd"
   xmlns:inkscape="http://www.inkscape.org/namespaces/inkscape"
   width="46.476707mm"
   height="39.687496mm"
   viewBox="0 0 46.476707 39.687496"
   version="1.1"
   id="svg100"
   inkscape:version="0.92.1 r15371"
   sodipodi:docname="S30-8.svg">
  <defs
     id="defs94" />
  <sodipodi:namedview
     id="base"
     pagecolor="#ffffff"
     bordercolor="#666666"
     borderopacity="1.0"
     inkscape:pageopacity="0.0"
     inkscape:pageshadow="2"
     inkscape:zoom="0.35"
     inkscape:cx="150.68714"
     inkscape:cy="120.71427"
     inkscape:document-units="mm"
     inkscape:current-layer="layer1"
     showgrid="false"
     fit-margin-top="0"
     fit-margin-left="0"
     fit-margin-right="0"
     fit-margin-bottom="0"
     inkscape:window-width="1920"
     inkscape:window-height="1018"
     inkscape:window-x="-8"
     inkscape:window-y="-8"
     inkscape:window-maximized="1" />
  <metadata
     id="metadata97">
    <rdf:RDF>
      <cc:Work
         rdf:about="">
        <dc:format>image/svg+xml</dc:format>
        <dc:type
           rdf:resource="http://purl.org/dc/dcmitype/StillImage" />
        <dc:title></dc:title>
      </cc:Work>
    </rdf:RDF>
  </metadata>
  <g
     inkscape:label="Laag 1"
     inkscape:groupmode="layer"
     id="layer1"
     transform="translate(-65.964027,-141.08482)">
    <g
       id="g118"
       transform="matrix(0.26458333,0,0,-0.26458333,36.285715,187.3869)"
       style="fill-rule:evenodd;stroke:none">
      <path
         id="path104"
         style="fill:#000000"
         d="m 229.15,108.32 25.59743,-37.651626 a 8.08,8.08 0 0 1 11.43879,11.364691 l 0.004,-0.0031 -0.66,1.04 -9.37,13.35 -7.89,11.460005 25.70893,18.70289 a 7.42,7.42 0 1 1 -8.5867,11.95622 l -0.002,8.8e-4 -1.29,-0.99 -33.90994,-23.58071 a 4.08,4.08 0 0 1 -1.0442,-5.64311 z"
         inkscape:connector-curvature="0" />
      <path
         id="path106"
         style="fill:#000000"
         d="m 154.64,55.69 -7.25,1.34 -3.4,0.38 -3.23,0.13 -6.03,-0.25 -5.49,-0.67 -4.88,-0.95 -4.17,-1.09 -5.9,-2.04 -2.12,-0.93 v -4.24 l 2.12,0.92 5.9,2.04 4.17,1.09 4.88,0.95 5.49,0.67 6.03,0.26 3.23,-0.13 3.4,-0.38 7.25,-1.35 7.68,-1.9 7.92,-2.17 8,-2.18 7.88,-1.9 7.58,-1.35 3.62,-0.37 3.49,-0.14 3.45,0.12 3.53,0.35 7.27,1.22 7.44,1.73 7.5,1.98 7.46,1.98 7.32,1.72 7.05,1.23 3.4,0.34 3.29,0.12 6.22,-0.27 5.64,-0.71 5,-1.01 4.27,-1.16 6.03,-2.16 2.15,-0.98 v 4.24 l -2.15,0.98 -6.03,2.17 -4.27,1.15 -5,1.01 -5.64,0.71 -6.22,0.27 -3.29,-0.12 -3.4,-0.34 -7.05,-1.22 -7.32,-1.73 -7.46,-1.98 -7.5,-1.98 -7.44,-1.73 -7.27,-1.22 -3.53,-0.34 -3.45,-0.12 -3.49,0.13 -3.62,0.38 -7.58,1.34 -7.88,1.9 -8,2.18 -7.92,2.18 z"
         inkscape:connector-curvature="0" />
      <path
         id="path108"
         style="fill:#000000"
         d="m 154.64,39.26 -7.25,1.34 -3.4,0.38 -3.23,0.13 -6.03,-0.25 -5.49,-0.68 -4.88,-0.95 -4.17,-1.09 -5.9,-2.04 -2.12,-0.92 v -4.25 l 2.12,0.93 5.9,2.04 4.17,1.09 4.88,0.95 5.49,0.67 6.03,0.26 3.23,-0.14 3.4,-0.37 7.25,-1.35 7.68,-1.9 7.92,-2.18 8,-2.18 7.88,-1.9 7.58,-1.34 3.62,-0.38 3.49,-0.13 3.45,0.12 3.53,0.34 7.27,1.23 7.44,1.72 7.5,1.98 7.46,1.98 7.32,1.73 7.05,1.22 3.4,0.35 3.29,0.12 6.22,-0.27 5.64,-0.72 5,-1 4.27,-1.16 6.03,-2.16 2.15,-0.99 v 4.25 l -2.15,0.98 -6.03,2.17 -4.27,1.15 -5,1.01 -5.64,0.71 -6.22,0.27 -3.29,-0.12 -3.4,-0.34 -7.05,-1.22 -7.32,-1.73 -7.46,-1.98 -7.5,-1.98 -7.44,-1.73 -7.27,-1.22 -3.53,-0.34 -3.45,-0.13 -3.49,0.14 -3.62,0.37 -7.58,1.35 -7.88,1.9 -8,2.18 -7.92,2.18 z"
         inkscape:connector-curvature="0" />
      <path
         id="path110"
         style="fill:#000000"
         d="m 154.64,47.82 -7.25,1.35 -3.4,0.37 -3.23,0.14 -6.03,-0.26 -5.49,-0.67 -4.88,-0.95 -4.17,-1.09 -5.9,-2.04 -2.12,-0.93 V 39.5 l 2.12,0.93 5.9,2.04 4.17,1.09 4.88,0.95 5.49,0.67 6.03,0.25 3.23,-0.13 3.4,-0.38 7.25,-1.34 7.68,-1.9 7.92,-2.18 8,-2.18 7.88,-1.9 7.58,-1.34 3.62,-0.38 3.49,-0.13 3.45,0.12 3.53,0.34 7.27,1.22 7.44,1.73 7.5,1.98 7.46,1.98 7.32,1.73 7.05,1.22 3.4,0.34 3.29,0.12 6.22,-0.27 5.64,-0.71 5,-1.01 4.27,-1.15 6.03,-2.16 2.15,-0.99 v 4.25 l -2.15,0.98 -6.03,2.16 -4.27,1.16 -5,1.01 -5.64,0.71 -6.22,0.27 -3.29,-0.12 -3.4,-0.34 -7.05,-1.23 -7.32,-1.72 -7.46,-1.99 -7.5,-1.98 -7.44,-1.72 -7.27,-1.23 -3.53,-0.34 -3.45,-0.12 -3.49,0.13 -3.62,0.38 -7.58,1.35 -7.88,1.9 -8,2.17 -7.92,2.18 z"
         inkscape:connector-curvature="0" />
      <path
         id="path112"
         style="fill:#000000"
         d="m 244.68,65.98 h 43.15 v -4.32 h -43.15 z"
         inkscape:connector-curvature="0" />
      <path
         id="path114"
         style="fill:#000000"
         d="m 193.43764,137.731 a 9.13,9.13 0 0 1 5.21377,-16.54023 L 198.65,121.19 h 34.16 l 16.12,11.12 15.7,10.99 -16.02,0.57 -15.62,0.69 20.49517,16.36865 a 7.98,7.98 0 0 1 -9.24166,12.94562 l -0.004,-0.004 -1,-0.72 z"
         inkscape:connector-curvature="0" />
      <path
         id="path116"
         style="fill:#000000"
         d="m 186.09,130.76 a 11.76,11.76 0 0 1 -23.52,0 11.76,11.76 0 0 1 23.52,0 z"
         inkscape:connector-curvature="0" />
    </g>
  </g>
</svg>
