<?xml version="1.0" encoding="UTF-8" standalone="no"?>
<svg
   xmlns:dc="http://purl.org/dc/elements/1.1/"
   xmlns:cc="http://creativecommons.org/ns#"
   xmlns:rdf="http://www.w3.org/1999/02/22-rdf-syntax-ns#"
   xmlns:svg="http://www.w3.org/2000/svg"
   xmlns="http://www.w3.org/2000/svg"
   xmlns:sodipodi="http://sodipodi.sourceforge.net/DTD/sodipodi-0.dtd"
   xmlns:inkscape="http://www.inkscape.org/namespaces/inkscape"
   width="212.06"
   height="150"
   version="1.1"
   id="svg18"
   sodipodi:docname="S30-11.svg"
   inkscape:version="0.92.1 r15371">
  <metadata
     id="metadata24">
    <rdf:RDF>
      <cc:Work
         rdf:about="">
        <dc:format>image/svg+xml</dc:format>
        <dc:type
           rdf:resource="http://purl.org/dc/dcmitype/StillImage" />
        <dc:title></dc:title>
      </cc:Work>
    </rdf:RDF>
  </metadata>
  <defs
     id="defs22" />
  <sodipodi:namedview
     pagecolor="#ffffff"
     bordercolor="#666666"
     borderopacity="1"
     objecttolerance="10"
     gridtolerance="10"
     guidetolerance="10"
     inkscape:pageopacity="0"
     inkscape:pageshadow="2"
     inkscape:window-width="640"
     inkscape:window-height="480"
     id="namedview20"
     showgrid="false"
     fit-margin-top="0"
     fit-margin-left="0"
     fit-margin-right="0"
     fit-margin-bottom="0"
     inkscape:zoom="0.9425"
     inkscape:cx="106.03"
     inkscape:cy="75"
     inkscape:window-x="0"
     inkscape:window-y="0"
     inkscape:window-maximized="0"
     inkscape:current-layer="g16" />
  <!--Gegenereerd door de SIMaD-toepassing (http://www.dlw.be).-->
  <g
     style="fill-rule:evenodd;stroke:none"
     transform="matrix(1,0,0,-1,-93.97,175)"
     id="g16">
    <path
       d="m 268.96,163.53 a 11.47,11.47 0 0 1 -22.94,0 11.47,11.47 0 0 1 22.94,0 z"
       style="fill:#000000"
       id="path4"
       inkscape:connector-curvature="0" />
    <path
       d="M 306.03,63.42 278.53908,63.37793 A 23.26,23.26 0 0 1 264.15959,57.402672 L 264.16,57.4 240.02614,32.430312 a 27.87,27.87 0 0 0 -19.03677,-7.430165 l -0.009,0.005 a 14.89,14.89 0 0 1 9.03205,4.370348 l 0.008,-0.0055 29.92379,30.650456 a 27.54,27.54 0 0 0 18.31032,8.159508 l -0.004,3.6e-5 27.78,0.05 z"
       style="fill:#000000"
       id="path6"
       inkscape:connector-curvature="0" />
    <path
       d="m 93.97,25.34 v 5.05 l 51.1,-0.05 37.15,52.51 h 65.38 l -7.77,-13.02 h -50.76 l -28.02,-39.49 44.29947,2e-6 a 23.08,23.08 0 0 1 15.59182,6.07158 L 220.94,36.41 257.17277,73.374895 a 27.36,27.36 0 0 0 18.30956,8.110602 l -0.002,0.0045 30.55,0.1 v -4.86 l -30.30583,-0.0491 A 22.97,22.97 0 0 1 261.3963,70.70691 L 261.4,70.71 223.36075,31.805716 A 27.67,27.67 0 0 0 206.8002,25.395181 L 206.8,25.39 Z"
       style="fill:#000000"
       id="path8"
       inkscape:connector-curvature="0" />
    <path
       d="m 215.54,88.39 13.51,22.78 h -24.73 l -26.03,26.13 -48.43,-0.05 v 3.79 h 49.06 l 2.92,3.01 84.95107,-0.0458 a 10.45,10.45 0 0 0 8.50351,-14.33448 L 275.29,129.67 250.95,88.39 Z m 21.23,35.74 h -29.68 l -5.15,5.15 1.8,1.8 37.21,-0.05 z"
       style="fill:#000000"
       id="path10"
       inkscape:connector-curvature="0" />
    <path
       d="M 306.03,55.79 V 50.94 L 283.44712,50.92998 A 23.19,23.19 0 0 1 268.73255,45.636615 L 268.73,45.64 257.455,33.453076 a 28.06,28.06 0 0 0 -20.05681,-8.352957 l 0.007,-0.0036 a 20.53,20.53 0 0 1 11.12276,6.265664 L 248.52,31.36 263.62783,47.543385 a 27.97,27.97 0 0 0 18.36111,8.160492 L 281.99,55.7 Z"
       style="fill:#000000"
       id="path12"
       inkscape:connector-curvature="0" />
    <path
       d="m 184.31,55.89 6.75,9.67 28.56,-19.82 -6.8,-9.71 z"
       style="fill:#000000"
       id="path14"
       inkscape:connector-curvature="0" />
  </g>
</svg>
