<?xml version="1.0" encoding="UTF-8" standalone="no"?>
<svg
   xmlns:dc="http://purl.org/dc/elements/1.1/"
   xmlns:cc="http://creativecommons.org/ns#"
   xmlns:rdf="http://www.w3.org/1999/02/22-rdf-syntax-ns#"
   xmlns:svg="http://www.w3.org/2000/svg"
   xmlns="http://www.w3.org/2000/svg"
   xmlns:sodipodi="http://sodipodi.sourceforge.net/DTD/sodipodi-0.dtd"
   xmlns:inkscape="http://www.inkscape.org/namespaces/inkscape"
   width="222.56"
   height="150"
   version="1.1"
   id="svg14"
   sodipodi:docname="S30-14.svg"
   inkscape:version="0.92.1 r15371">
  <metadata
     id="metadata20">
    <rdf:RDF>
      <cc:Work
         rdf:about="">
        <dc:format>image/svg+xml</dc:format>
        <dc:type
           rdf:resource="http://purl.org/dc/dcmitype/StillImage" />
        <dc:title></dc:title>
      </cc:Work>
    </rdf:RDF>
  </metadata>
  <defs
     id="defs18" />
  <sodipodi:namedview
     pagecolor="#ffffff"
     bordercolor="#666666"
     borderopacity="1"
     objecttolerance="10"
     gridtolerance="10"
     guidetolerance="10"
     inkscape:pageopacity="0"
     inkscape:pageshadow="2"
     inkscape:window-width="1920"
     inkscape:window-height="1018"
     id="namedview16"
     showgrid="false"
     fit-margin-top="0"
     fit-margin-left="0"
     fit-margin-right="0"
     fit-margin-bottom="0"
     inkscape:zoom="0.9425"
     inkscape:cx="111.28"
     inkscape:cy="75"
     inkscape:window-x="-8"
     inkscape:window-y="-8"
     inkscape:window-maximized="1"
     inkscape:current-layer="svg14" />
  <!--Gegenereerd door de SIMaD-toepassing (http://www.dlw.be).-->
  <g
     style="fill-rule:evenodd;stroke:none"
     transform="matrix(1,0,0,-1,-88.72,175)"
     id="g12">
    <path
       d="m 146.25,65.88 23.83,23.79 -0.02,45.78 39.57,39.55 h 43.25622 a 6.25,6.25 0 1 0 0,-12.5 h -0.006 l -38.16,0.01 -20.43,-20.43 47.58,-43.96 h -46.8 L 182.6,109.67 V 84.57 L 153.57044,55.554141 a 6.22,6.22 0 0 0 -9.99011,7.144825 L 143.58,62.69 124.60895,80.256512 a 13.08,13.08 0 0 0 -8.56239,-2.049918 l -0.005,0.0045 A 25.8,25.8 0 0 0 101.77285,84.503 l 0.004,0.0012 a 58.48,58.48 0 0 0 -9.269775,10.37438 l -0.0033,-0.0074 a 20.98,20.98 0 0 0 -3.648125,14.40073 l 0.0019,-0.001 a 8.9,8.9 0 0 0 3.735981,6.27885 l 0.001,0.004 a 10.92,10.92 0 0 0 7.446589,1.9122 l 0.004,0.003 a 29.08,29.08 0 0 0 16.77834,-7.72702 l -0.006,0.005 a 44.12,44.12 0 0 0 10.26062,-14.609572 l -0.003,0.001 A 15,15 0 0 0 127.2124,83.547657 L 127.22,83.54 Z m -35.6512,18.63312 a 30.04,30.04 0 0 0 -11.67913,8.517502 l 0.0089,0.0039 A 20.15,20.15 0 0 0 94.3559,103.6437 l -0.0026,3.3e-4 a 7.9,7.9 0 0 0 1.298255,5.33498 l 4.87e-4,0.007 a 6.5,6.5 0 0 0 5.594058,2.86084 l -0.007,0.003 a 19.83,19.83 0 0 0 7.806,-1.87331 l 0.008,0.005 a 24.41,24.41 0 0 0 11.57661,-11.431865 l -0.003,-0.0099 a 21.25,21.25 0 0 0 1.96077,-6.576982 l 8e-4,0.005 a 7.61,7.61 0 0 0 -1.97867,-6.153794 l -0.005,0.0024 a 6.77,6.77 0 0 0 -6.1245,-2.054788 l -10e-4,0.0025 a 106.67,106.67 0 0 0 -3.88466,0.755995 z"
       style="fill:#000000"
       id="path4"
       inkscape:connector-curvature="0" />
    <path
       d="m 223.38571,80.284053 a 6.26,6.26 0 1 1 -8.51719,-9.17558 L 214.88,71.11 245.88048,42.510684 a 6.25,6.25 0 1 1 8.68108,8.991147 L 254.56,51.5 Z"
       style="fill:#000000"
       id="path6"
       inkscape:connector-curvature="0" />
    <path
       d="m 309.28299,35.8298 a 6.25,6.25 0 1 0 -8.54435,-9.123669 l 0.001,0.0039 -61.81,56.97 h 18.6 z"
       style="fill:#000000"
       id="path8"
       inkscape:connector-curvature="0" />
    <path
       d="m 178.2,158.95 a 13.16,13.16 0 0 1 -26.32,0 13.16,13.16 0 0 1 26.32,0 z"
       style="fill:#000000"
       id="path10"
       inkscape:connector-curvature="0" />
  </g>
</svg>
