<svg xmlns:xlink="http://www.w3.org/1999/xlink" xmlns="http://www.w3.org/2000/svg" width="400" height="200"  viewBox="-0.000001341104507446289 -0.0000152587890625 400.0000305175781 200.00001525878906"><rect id="svgEditorBackground" x="-0.0000013411046211331268" y="-0.000015258790881489404" width="400.0000305175781" height="200.00001525878906" style="fill:none;stroke:none;"/>
<!--Gegenereerd door de SIMaD-toepassing (http://www.dlw.be).-->
<g style="stroke:none;fill-rule:evenodd;" transform="matrix(1,0,0,-1,0,200)">

<path d=" M150.12717979739 78.8439615858986 A50.01 50.01 0 1 1 249.852953868969 78.8422227833349 L249.850672622944 78.833616870857 A50.01 50.01 0 1 1 199.956728838031 164.512019590274 L199.963681311304 164.512869615755 A49.99 49.99 0 1 1 150.130010109935 78.8350025551927 Z M199.989845913118 85.4473807399462 A49.99 49.99 0 0 0 164.223067716725 75.2467041576515 L164.21008707774 75.2489384284385 A35.78 35.78 0 1 1 235.769910648117 75.249962571156 L235.771702886586 75.2481304206117 A50.01 50.01 0 0 0 199.982977247815 85.4476427385498 Z M205.179959166316 124.745951502398 A35.77 35.77 0 0 1 199.988602753535 143.359147438433 L199.996887681521 143.362341400529 A35.71 35.71 0 0 1 194.860339574588 124.754268494593 L194.862392955536 124.756434505375 A50.01 50.01 0 0 0 205.191374784779 124.748775621725 Z M180.736988682502 121.158524781362 A50.01 50.01 0 0 0 189.935037933246 154.099465129222 L189.929124229079 154.099461443371 A35.77 35.77 0 1 1 153.276189917258 92.8751965986632 L153.278953170932 92.8727602607373 A50.01 50.01 0 0 0 180.740044346341 121.166682152557 Z M210.000786240293 154.100949715751 A35.71 35.71 0 1 0 246.640078874778 93.0202420053332 L246.643994460381 93.021243735254 A50.01 50.01 0 0 1 219.220532881099 121.174777754355 L219.225123056552 121.166868727329 A49.99 49.99 0 0 1 210.007731230309 154.097093145005 Z M209.938236544344 95.7632259639278 A35.71 35.71 0 0 1 232.875800862681 89.2745207359062 L232.874770830128 89.26965416065 A35.78 35.78 0 0 1 216.068161259042 107.134059981927 L216.07840989495 107.130195817129 A49.99 49.99 0 0 0 209.945160426802 95.7558277620628 Z M167.037495102894 89.1087668955917 A35.77 35.77 0 0 1 190.115640461417 95.6320492135197 L190.121609808339 95.6216492207747 A50.01 50.01 0 0 0 183.892557489396 107.117817309612 L183.887345922729 107.121728148377 A35.78 35.78 0 0 1 167.03296295863 89.0998998364589 Z M200.054712875906 106.350217541843 A35.77 35.77 0 0 1 202.358184027916 110.874840422365 L202.362283978931 110.87126984749 A35.78 35.78 0 0 1 197.72621182823 110.878313641411 L197.731233494651 110.880762158722 A35.71 35.71 0 0 1 200.063010700599 106.348542517188 Z" style="fill:rgb(0,0,0);"/>
</g>
</svg>