<svg xmlns:xlink="http://www.w3.org/1999/xlink" xmlns="http://www.w3.org/2000/svg" width="400" height="200"  viewBox="-0.000001341104507446289 -0.0000152587890625 400.0000305175781 200.00001525878906"><rect id="svgEditorBackground" x="-0.0000013411046211331268" y="-0.000015258790881489404" width="400.0000305175781" height="200.00001525878906" style="fill:none;stroke:none;"/>
<!--Gegenereerd door de SIMaD-toepassing (http://www.dlw.be).-->
<g style="stroke:none;fill-rule:evenodd;" transform="matrix(1,0,0,-1,0,200)">

<path d=" M304.93 26.71 L293.83 26.62 L293.780968791862 33.1482776118299 A12.55 12.55 0 0 1 293.352293481158 35.4696107803625 L293.353109964218 35.4720178139851 A2.02 2.02 0 0 1 290.968272209701 36.8911104888558 L290.970479721963 36.8836070650551 A2.33 2.33 0 0 1 289.256831565352 35.3074396828299 L289.262873409228 35.313135337576 A7.26 7.26 0 0 1 288.931298549606 33.2773071522229 L288.93 33.27 L288.8 26.58 L277.99 26.49 L276.72 51.5 L275.03 26.47 L233.25 26.13 L233.118876292561 36.339339160029 A12.76 12.76 0 0 1 232.050071429955 41.2846681185141 L232.048761317614 41.2826999121589 A5.62 5.62 0 0 1 229.100338577437 44.2013547687856 L229.096168774977 44.1938388908077 A8.47 8.47 0 0 1 223.393313249342 44.5267845027558 L223.390984506497 44.5331955357683 A4.61 4.61 0 0 1 220.247256113228 41.3404985804759 L220.254813344055 41.3323292840332 A13.28 13.28 0 0 0 225.482532051801 42.8854000113952 L225.480215298492 42.8940139003243 A4.76 4.76 0 0 0 230.616699821765 38.5055851544362 L230.61 38.5 L229.79 26.1 L200.23 25.86 L198.52 74.57 L196.81 25.83 L132.26 25.31 L130.57 79.27 L128.45 25.27 L94.67 25 L95.5258701484071 95.5111534514464 A10.08 10.08 0 0 0 92.9624679821692 98.5018139934183 L92.9645878168468 98.507992312273 A38.52 38.52 0 0 0 93.2272648136045 104.916286724086 L93.2287279509191 104.912711529566 A32.56 32.56 0 0 1 93.3933570271344 111.323748804794 L93.3919965480334 111.330182596255 A6.31 6.31 0 0 1 98.5166647354018 113.892524160941 L98.52 113.89 L114.33 175 L129.722662912154 114.317016222303 A4 4 0 0 1 133.140436217613 111.326487557599 L133.14 111.32 L175.02 106.2 L198.09 155.77 L214.840959580162 151.414157784696 A94.63 94.63 0 0 1 225.019932281445 149.356750622442 L225.02 149.36 L251.08 103.2 L200.23 111.32 L198.52 133.12 L197.24 111.75 L184.84 107.91 L194.655797904107 108.59738043999 A73.96 73.96 0 0 0 201.511271393004 108.76134011065 L201.51 108.76 L251.515491570837 101.920778499076 A1 1 0 0 0 252.370780428632 101.065477460268 L252.37 101.07 L252.79 96.37 L276.303418827506 93.3707052432755 A20.59 20.59 0 0 1 277.452405853194 95.1873800982982 L277.45 95.19 L291.25 134.4 L304.50220066213 89.9626048352657 A9.36 9.36 0 0 1 307.065420839968 87.8265818493833 L307.07 87.82 L307.07 79.27 L305.36 77.56 Z M298.842570223878 88.8419494360102 A124.07 124.07 0 0 1 278.970465853392 91.2992772552318 L278.971384152243 91.2893171831181 A33.83 33.83 0 0 0 298.840197428292 88.8323963312596 Z M191.15 81.52 L189.76 80.56 L183.78 92.09 Z M136.55 82.16 L170.96 79.59 L136.34 84.08 Z M147.02 64.53 L142.75 64.74 L142.75 77.78 L146.81 77.35 Z M168.39 62.39 L164.12 62.61 L164.12 75.64 L168.18 75.21 Z M189.76 61.11 L185.49 61.32 L185.49 74.36 L189.55 73.93 Z M110.27 67.31 L110.17 81.09 L116.04 81.09 L115.93 66.88 Z M265.433101469664 60.4999831241115 A1.41 1.41 0 0 1 264.198207738386 59.7578712293518 L264.190689314022 59.7562315793624 A4.7 4.7 0 0 1 263.630271645427 57.479468888545 L263.64 57.48 L263.69 52.51 L267.18 52.51 L267.229728354573 57.479468888545 A4.7 4.7 0 0 1 266.669310685978 59.7562315793624 L266.671792261614 59.7578712293518 A1.41 1.41 0 0 1 265.436898530336 60.4999831241115 Z M301.511060162205 77.6691856140779 A164.58 164.58 0 0 1 281.746608798137 79.9127077850924 L281.746889721426 79.9161851481158 A37.77 37.77 0 0 0 301.512441686528 77.6725380445758 Z M272.4 81.09 L270.9 81.14 L270.96 89.74 L272.34 89.74 Z M293.39 67.41 L289.22 67.95 L289.01 58.33 L293.28 58.01 Z M293.39 82.69 L289.33 83.23 L289.33 86.43 L293.39 86.11 Z M215.4 73.08 L209.84 73.5 L210.06 78.85 L215.19 78.42 Z M241.68 70.51 L236.13 70.94 L236.34 76.28 L241.47 75.85 Z M252.47 86.11 L252.47 54.7 L253.75 54.7 L253.75 66.67 L263.9 67.31 L253.86 68.59 L253.86 86.11 Z M128.102939420441 109.494872234209 A147.78 147.78 0 0 1 100.119013182801 112.179988217093 L100.123973396725 112.176158215206 A35.43 35.43 0 0 0 128.108648932844 109.490970089112 Z M135.59 94.23 L134.31 94.02 L134.2 105.45 L135.49 105.66 Z M130.25 98.18 L126.08 98.61 L125.98 106.3 L130.04 105.88 Z M127.898910260644 94.6581367808819 A169.91 169.91 0 0 1 100.335134740547 97.1153640612417 L100.334849926292 97.1129546882645 A35.63 35.63 0 0 0 127.896156019921 94.655947549811 Z M100.98 101.5 L96.81 101.92 L96.7 109.61 L101.08 109.19 Z M229.07 94.02 L223.52 94.44 L223.73 99.79 L228.86 99.36 Z M241.68 92.09 L236.13 92.52 L236.34 97.86 L241.47 97.44 Z M215.61 95.3 L210.06 95.73 L210.27 101.07 L215.4 100.64 Z" style="fill:rgb(0,0,0);"/>
</g>
</svg>