<svg xmlns:xlink="http://www.w3.org/1999/xlink" xmlns="http://www.w3.org/2000/svg" width="400" height="200"  viewBox="-0.000001341104507446289 -0.0000152587890625 400.0000305175781 200.00001525878906"><rect id="svgEditorBackground" x="-0.0000013411046211331268" y="-0.000015258790881489404" width="400.0000305175781" height="200.00001525878906" style="fill:none;stroke:none;"/>
<!--Gegenereerd door de SIMaD-toepassing (http://www.dlw.be).-->
<g style="stroke:none;fill-rule:evenodd;" transform="matrix(1,0,0,-1,0,200)">

<path d=" M221.69 110.09 L220.792508081805 110.653938900359 A1.63 1.63 0 0 1 218.80391843385 110.496443202288 L218.79999456878 110.489952512244 A6.35 6.35 0 0 1 217.05853269241 107.835668792785 L217.06 107.84 L215.539658456318 103.372085357701 A0.47 0.47 0 0 0 215.115237604062 102.922182130334 L215.112011950484 102.91349269764 A22.94 22.94 0 0 1 210.970045324284 102.123631180374 L210.975167033031 102.124396375094 A4.75 4.75 0 0 1 207.573316708298 98.1216037088366 L207.572175602961 98.1168320190476 A39.61 39.61 0 0 0 206.784500665984 93.6745647550419 L206.777989328674 93.6758454547558 A1.19 1.19 0 0 0 205.873277354928 92.7872659025037 L205.878246485257 92.7838707972437 A11.08 11.08 0 0 0 203.680450024547 92.5311618032565 L203.67885695483 92.539846900069 A1.46 1.46 0 0 1 202.25693041852 90.8583015944852 L202.26 90.85 L202.632965035825 88.3595682060495 A3.18 3.18 0 0 0 202.543703195189 86.5075536474421 L202.551116156168 86.5080580429311 A2.2 2.2 0 0 0 200.922717573155 85.0950055335524 L200.920387530467 85.0939838353593 A6.16 6.16 0 0 1 198.195164662355 83.7744120254134 L198.196010714521 83.7865413514408 A10.54 10.54 0 0 1 194.796811873735 78.4392424653011 L194.797142772987 78.4377650945004 A66.97 66.97 0 0 1 193.528962042401 72.6840206003375 L193.53 72.6799999999999 L189.094544446653 72.6832413151479 A12.13 12.13 0 0 0 187.689284544316 76.0297353703026 L187.685942084344 76.0257527014414 A63.2 63.2 0 0 1 186.029988375527 81.5189529090523 L186.023911272964 81.5142801434521 A10.17 10.17 0 0 1 185.050210786989 83.5363752638113 L185.06017439779 83.5432754311405 A2.23 2.23 0 0 1 183.775102726409 84.5063342448211 L183.774268852822 84.5156636869102 A15.61 15.61 0 0 0 181.046770588178 85.5691182755581 L181.040116204854 85.564923908203 A5.38 5.38 0 0 0 179.344803905666 86.890907145267 L179.341006171739 86.8864154756008 A20.02 20.02 0 0 0 177.559431826531 89.3295702624462 L177.56474387357 89.3312986267704 A1.37 1.37 0 0 1 176.375369542792 89.9797785735577 L176.375790162484 89.9765248195842 A40.37 40.37 0 0 0 174.066099289125 90.0010838204831 L174.064779778143 90.005204797041 A6.76 6.76 0 0 0 167.803274008179 94.9994751272156 L167.81 95 L166.245831686015 100.801865111642 A14.03 14.03 0 0 1 161.141691076917 107.010683608609 L161.14000171344 107.008991561737 A6.7 6.7 0 0 1 155.433679626932 107.854965588546 L155.43134615315 107.856974117292 A10.2 10.2 0 0 0 153.598842224218 107.165342505591 L153.601949758777 107.162611249149 A6.39 6.39 0 0 0 151.247714132872 106.976529610086 L151.246444033185 106.978046934003 A2.28 2.28 0 0 0 150.101614291066 107.801394058597 L150.095605030303 107.804312308184 A6.85 6.85 0 0 0 150.29929361041 111.802338140812 L150.308670804007 111.798713391735 A13.31 13.31 0 0 1 151.996679944641 115.509900391823 L151.993589929571 115.51173953583 A4.22 4.22 0 0 1 151.506240560076 118.890290931211 L151.508593827605 118.896120565684 A7.81 7.81 0 0 1 149.07121421244 121.346479948404 L149.069039900327 121.339927424695 A27.03 27.03 0 0 0 145.085375493088 124.420373818503 L145.085254894405 124.422994479988 A6.1 6.1 0 0 0 143.150000000001 128.880002661627 L143.15 134.28 L136.61 134.28 L136.61 128.88 L132.73 128.88 L132.73 134.28 L126.19 134.28 L126.19 128.88 L122.34 128.88 L122.34 134.28 L115.8 134.28 L115.8 128.87 L111.96 128.87 L111.96 134.26 L105.41 134.26 L105.41 128.86 L101.6 128.86 L101.59494555509 163.905424980915 A5.16 5.16 0 0 0 96.7409918113738 163.662027957843 L96.7411180341618 163.66158728078 A5.72 5.72 0 0 1 94.5912794665595 164.649209093343 L94.589449732179 164.6441168208 A13.24 13.24 0 0 1 90.7119444142332 164.935291723191 L90.708021323367 164.940929891015 A14.12 14.12 0 0 0 87.6116316864136 164.733112037199 L87.6148827219404 164.723859415852 A2.03 2.03 0 0 0 85.9959879351949 165.711095809127 L86.0035601775973 165.714981685194 A2.6 2.6 0 0 0 86.0229419943074 166.85153727267 L86.0153387236654 166.851011694716 A4.8 4.8 0 0 1 86.140101483377 168.288103519858 L86.141338350951 168.289597529378 A4.2 4.2 0 0 1 85.6731463727481 169.963754379311 L85.6730236089808 169.970088952397 A1.62 1.62 0 0 0 84.2724802568982 170.805756556982 L84.2727773634461 170.801629258362 A22.54 22.54 0 0 1 83.1535044990399 172.616398561816 L83.1503479122694 172.614656277432 A3.09 3.09 0 0 1 82.1206550010503 173.559927204922 L82.1266598982046 173.560162468949 A10.58 10.58 0 0 1 77.9640836313946 174.87835644204 L77.9607694794781 174.880259628427 A24.53 24.53 0 0 1 73.1258312373945 174.880913321416 L73.1234236564069 174.88648961141 A4.96 4.96 0 0 1 69.8179954862869 173.452428775179 L69.82 173.45 L68.6495605910175 171.858407271979 A4.06 4.06 0 0 0 66.461496315246 170.580295473826 L66.4593705811229 170.578961797739 A16.59 16.59 0 0 0 64.3113830334888 170.263509464879 L64.3122227595323 170.263169489288 A6.34 6.34 0 0 1 61.0761546684823 167.317108417392 L61.0727436596638 167.3148338637 A8.74 8.74 0 0 0 60.546234466819 166.433788508358 L60.5497796628759 166.435637874739 A3.35 3.35 0 0 0 58.180447887902 164.994020221187 L58.1876820467029 164.99622827657 A16.21 16.21 0 0 0 54.8547032246964 164.940162635221 L54.85 164.94 L54.85 25 L98.48 25 L98.49 117.55 L101.59 120.21 L101.59 25 L238.22 25 L238.226425586786 48.5802104137563 A44.01 44.01 0 0 0 240.676380638384 61.3731798696854 L240.675225149387 61.3745369060099 A17.97 17.97 0 0 0 247.124986066614 69.9996290165207 A17.97 17.97 0 0 0 253.574774850613 61.3745369060099 L253.563619361616 61.3731798696854 A44.01 44.01 0 0 0 256.013574413214 48.5802104137563 L256.02 48.58 L256.03 25 L345.14 25 L345.149040268024 29.5105106591428 A10.25 10.25 0 0 0 339.013298988966 38.6399646361175 L339.013936940305 38.6366332101213 A7.06 7.06 0 0 0 335.780883875484 44.6817118641707 L335.769519816314 44.6877668239398 A0.93 0.93 0 0 1 335.338365181799 45.8047813594766 L335.337719128642 45.8101019672527 A4.6 4.6 0 0 1 334.458810532958 46.1808620015674 L334.456421662165 46.1840355968157 A4.69 4.69 0 0 1 335.773803411448 48.9749871321236 L335.781966316198 48.973381542673 A10.39 10.39 0 0 1 335.230782320683 53.5754810219722 L335.23 53.5700000000001 L333.927172339104 57.2195271884831 A7.18 7.18 0 0 0 333.396058936969 60.8519636132226 L333.388887947298 60.8515303550887 A4.85 4.85 0 0 1 331.956281116865 64.8721175379826 L331.956478375775 64.8691264810166 A9.19 9.19 0 0 1 326.808714794694 67.3920032283956 L326.807766546762 67.3968949565677 A6.78 6.78 0 0 1 326.789104554193 70.834317399517 L326.792633064575 70.8277201768798 A3.74 3.74 0 0 1 324.444090019027 73.3798972177888 L324.447152238262 73.3797237304733 A59.49 59.49 0 0 1 319.716208788357 90.9729288590924 L319.71830061107 90.9790051416994 A3.08 3.08 0 0 0 317.464117582235 92.5048595847282 L317.46 92.5 L316.029453879507 94.9999105894223 A1.1 1.1 0 0 1 315.054502293505 95.7381072143159 L315.060675487021 95.7417178689514 A6.81 6.81 0 0 0 313.980889759852 95.8925694514731 L313.975108423558 95.9001054492921 A1.68 1.68 0 0 0 312.660467412116 97.5003731626807 L312.66 97.5 L312.620882068495 99.2489216315286 A0.45 0.45 0 0 0 312.320744329418 99.54494605051 L312.322510877128 99.5501125738779 A7.43 7.43 0 0 0 312.132542239144 100.28216538331 L312.122857044819 100.280025734282 A5.01 5.01 0 0 0 312.020029059642 101.307063902403 L312.03 101.31 L312.038741452994 106.205297730583 A1.79 1.79 0 0 1 310.587359411109 107.546783679132 L310.594431439993 107.555059285536 A1.11 1.11 0 0 0 309.252996306263 108.055019398236 L309.25 108.05 L308.101087479189 110.095388891025 A0.77 0.77 0 0 1 307.300005089094 110.56472277069 L307.29310120852 110.559532974069 A2.85 2.85 0 0 0 306.123857084074 110.665414706025 L306.125392948428 110.672181192845 A4.14 4.14 0 0 0 303.342955449363 113.551466337927 L303.34911067347 113.544523011974 A17.64 17.64 0 0 0 302.74323498213 117.802183919194 L302.739596566238 117.802130105537 A2.2 2.2 0 0 1 301.135760293908 119.877798307725 L301.136918349493 119.876915061115 A4.9 4.9 0 0 1 299.318396414772 120.035277009052 L299.316804851645 120.04241192902 A2.46 2.46 0 0 0 296.907641192603 121.317053117966 L296.910375749632 121.312872749065 A7.64 7.64 0 0 0 296.39218369194 122.827169344475 L296.386041044586 122.830891955634 A1.35 1.35 0 0 1 295.646109302016 123.750900516885 L295.646988567245 123.747483936563 A4 4 0 0 1 293.766553801137 124.126237782728 L293.766752103426 124.131664874912 A1.77 1.77 0 0 0 293.233959709745 124.189758130069 L293.23478005229 124.180272063134 A2.97 2.97 0 0 0 291.133437173938 126.273007358955 L291.134440319533 126.282647997152 A9.89 9.89 0 0 0 290.79 128.87 L290.79 134.26 L284.25 134.26 L284.25 128.87 L280.37 128.87 L280.37 134.26 L273.83 134.26 L273.83 128.87 L269.95 128.87 L269.95 134.26 L263.4 134.26 L263.4 128.87 L259.52 128.87 L259.52 134.26 L252.98 134.26 L252.98 128.87 L249.1 128.87 L249.1 134.29 L242.56 134.29 L242.56 128.87 L238.68 128.87 L238.68 134.26 L232.14 134.26 L232.130848663966 128.85881243468 A22.19 22.19 0 0 1 231.934764276368 126.339799833504 L231.937573970144 126.345858185851 A11.3 11.3 0 0 0 230.780694498013 121.594389195096 L230.786041966674 121.59577605851 A3.84 3.84 0 0 0 229.311913640367 119.994980031178 L229.304862888183 119.98725033056 A56.6 56.6 0 0 1 225.985011507088 117.839527359872 L225.987731847393 117.846479506988 A12.64 12.64 0 0 1 222.012301657344 113.324407400243 L222.005185441324 113.320572229809 A4.37 4.37 0 0 1 221.680553200971 110.091055591795 Z M151.22 72.6 L157.5 72.6 L157.489999999997 82.1899883809942 A19.58 19.58 0 0 1 156.641106743862 87.8928098469131 L156.64526031908 87.8992665689 A10.95 10.95 0 0 1 154.357974416487 91.9804590608123 L154.362025583513 91.9804590608123 A10.95 10.95 0 0 1 152.07473968092 87.8992665689 L152.068893256138 87.8928098469131 A19.58 19.58 0 0 1 151.220000000003 82.1899883809942 Z M74.86 72.6 L81.13 72.6 L81.1299999999966 82.1899883809942 A19.58 19.58 0 0 1 80.281106743862 87.8928098469131 L80.2852603190802 87.8992665689 A10.95 10.95 0 0 1 77.9979744164875 91.9804590608123 L78.0020255835125 91.9804590608123 A10.95 10.95 0 0 1 75.7147396809198 87.8992665689 L75.708893256138 87.8928098469131 A19.58 19.58 0 0 1 74.8600000000035 82.1899883809942 Z M113.57 72.66 L119.85 72.66 L119.849999999997 82.2499883809941 A19.58 19.58 0 0 1 119.001106743862 87.9528098469131 L118.99526031908 87.9592665689 A10.95 10.95 0 0 1 116.707974416487 92.0404590608122 L116.712025583513 92.0404590608122 A10.95 10.95 0 0 1 114.42473968092 87.9592665689 L114.418893256138 87.9528098469131 A19.58 19.58 0 0 1 113.570000000003 82.2499883809941 Z M298.7 72.6 L304.97 72.6 L304.969999999997 82.1899883809942 A19.58 19.58 0 0 1 304.121106743862 87.8928098469131 L304.11526031908 87.8992665689 A10.95 10.95 0 0 1 301.827974416487 91.9804590608123 L301.832025583513 91.9804590608123 A10.95 10.95 0 0 1 299.54473968092 87.8992665689 L299.548893256138 87.8928098469131 A19.58 19.58 0 0 1 298.700000000003 82.1899883809942 Z M262.11 72.6 L268.38 72.6 L268.379999999997 82.1899883809942 A19.58 19.58 0 0 1 267.531106743862 87.8928098469131 L267.52526031908 87.8992665689 A10.95 10.95 0 0 1 265.237974416487 91.9804590608123 L265.242025583513 91.9804590608123 A10.95 10.95 0 0 1 262.95473968092 87.8992665689 L262.958893256138 87.8928098469131 A19.58 19.58 0 0 1 262.110000000003 82.1899883809942 Z M224.7 72.6 L230.97 72.6 L230.969999999997 82.1899883809942 A19.58 19.58 0 0 1 230.121106743862 87.8928098469131 L230.12526031908 87.8992665689 A10.95 10.95 0 0 1 227.837974416487 91.9804590608123 L227.842025583513 91.9804590608123 A10.95 10.95 0 0 1 225.55473968092 87.8992665689 L225.548893256138 87.8928098469131 A19.58 19.58 0 0 1 224.700000000003 82.1899883809942 Z M61.78 136.55 L68.05 136.55 L68.0499999999965 146.139988380994 A19.58 19.58 0 0 1 67.201106743862 151.842809846913 L67.1952603190802 151.8392665689 A10.95 10.95 0 0 1 64.9079744164875 155.920459060812 L64.9120255835125 155.920459060812 A10.95 10.95 0 0 1 62.6247396809198 151.8392665689 L62.628893256138 151.842809846913 A19.58 19.58 0 0 1 61.7800000000034 146.139988380994 Z M75.08 136.55 L81.35 136.55 L81.3499999999966 146.139988380994 A19.58 19.58 0 0 1 80.501106743862 151.842809846913 L80.5052603190802 151.8392665689 A10.95 10.95 0 0 1 78.2179744164875 155.920459060812 L78.2220255835125 155.920459060812 A10.95 10.95 0 0 1 75.9347396809198 151.8392665689 L75.928893256138 151.842809846913 A19.58 19.58 0 0 1 75.0800000000035 146.139988380994 Z M88.39 136.55 L94.66 136.55 L94.6599999999966 146.139988380994 A19.58 19.58 0 0 1 93.811106743862 151.842809846913 L93.8052603190802 151.8392665689 A10.95 10.95 0 0 1 91.5179744164875 155.920459060812 L91.5220255835126 155.920459060812 A10.95 10.95 0 0 1 89.2347396809198 151.8392665689 L89.238893256138 151.842809846913 A19.58 19.58 0 0 1 88.3900000000035 146.139988380994 Z" style="fill:rgb(0,0,0);"/>
</g>
</svg>