<svg xmlns:xlink="http://www.w3.org/1999/xlink" xmlns="http://www.w3.org/2000/svg" width="400" height="200"  viewBox="-0.000001341104507446289 -0.0000152587890625 400.0000305175781 200.00001525878906"><rect id="svgEditorBackground" x="-0.0000013411046211331268" y="-0.000015258790881489404" width="400.0000305175781" height="200.00001525878906" style="fill:none;stroke:none;"/>
<!--Gegenereerd door de SIMaD-toepassing (http://www.dlw.be).-->
<g style="stroke:none;fill-rule:evenodd;" transform="matrix(1,0,0,-1,0,200)">

<path d=" M129.18 144.07 L130.02 140.88 L128.17 135.68 L122.45 134.66 L122.45 103.14 L102.3 115.89 L66.64 115.89 L66.64 60.7999999999999 L133.46 60.7999999999999 L194.36 50.1 L194.354558513752 125.095496515419 A18.6 18.6 0 0 0 204.841321843462 140.889127908042 L204.84330236122 140.889264863003 A17.22 17.22 0 0 0 207.862636091053 154.140778166687 L207.859200834939 154.134068658918 A14.89 14.89 0 0 0 209.417561370085 161.560163245735 L209.423537147651 161.560044492018 A2.5 2.5 0 0 0 213.186011002895 162.262503324369 L213.190695113941 162.265428498433 A10.04 10.04 0 0 0 218.095338365077 152.462360117517 L218.091539267528 152.462635568872 A12.41 12.41 0 0 0 220.942910856078 141.392598517088 L220.955649240693 141.3874187694 A35.26 35.26 0 0 0 232.511423632575 120.748555410308 L232.51 120.75 L232.51 38.88 L215.58 42.3200000000001 L215.533823790795 53.8266339014062 A5.16 5.16 0 0 1 210.92506076248 59.8480849809976 L210.92272771203 59.8474172049375 A5.65 5.65 0 0 1 204.410263083631 53.5966860100015 L204.41 53.59 L204.41 44.67 L194.36 46.6799999999999 L194.36 43.66 L234.04 35.02 L245.8 40.76 L333.36 25 L333.36 169.05 L259.67 147.68 L253.33 135.85 L255.85 148.1 L222.300067292806 153.630434872343 A11.05 11.05 0 0 1 212.654665408663 166.29623469574 L212.651247539271 166.29413670094 A6.52 6.52 0 0 1 204.590406749667 161.437349536585 L204.586387010652 161.443269676849 A29.72 29.72 0 0 1 203.670007881104 154.141643768894 L203.666741428519 154.140954355657 A15.87 15.87 0 0 1 200.813734093332 142.728929697833 L200.819998911397 142.728321212774 A22.53 22.53 0 0 1 190.58455676718 127.291248303275 L190.58 127.29 L165.59 120.16 L165.59 135.38 L154.48 147.13 L153.49 151.12 L145.02 157.06 L146.02 157.97 L145.29 172.37 L143.78 175 L142.43 171.51 L141.53 157.1 L142.43 156.2 L142.43 154.47 Z M304.17 41.22 L294.94 42.39 L294.94 72.6 L304.17 72.35 Z M324.8 38.12 L314.7 39.6799999999999 L314.7 72.0599999999999 L324.8 71.76 Z M258.71 73.65 L266.25 73.38 L266.25 46.65 L258.71 47.77 Z M282.69 44.3 L275.38 45.17 L275.38 73.23 L282.69 73.02 Z M304.17 117.23 L304.17 84.09 L294.94 84.01 L294.94 115.97 Z M324.8 84.35 L314.7 84.26 L314.7 118.49 L324.8 119.91 Z M266.25 83.67 L258.71 83.51 L258.71 111.1 L266.25 112.19 Z M161.22 118.89 L149.77 115.55 L134.99 103.14 L134.99 136.14 L161.22 136.14 Z M282.69 83.67 L275.38 83.76 L275.38 113.37 L282.69 114.29 Z M139.100022076278 128.021699249308 A3.1 3.1 0 0 0 145.299992003109 128.00295864623 L145.300022075869 128.001699141098 A3.1 3.1 0 0 0 151.499992003477 127.982958808545 L151.510022076278 127.991699249308 A3.1 3.1 0 0 0 157.709992003109 127.97295864623 L157.71 127.97 L157.71 122.2 L139.11 122.2 Z" style="fill:rgb(0,0,0);"/>
<path d=" M209.07 90.59 L205.72 90.38 L205.72 100.83 L209.07 101.21 Z" style="fill:rgb(0,0,0);"/>
<path d=" M209.07 88.33 L209.07 77.1799999999999 L205.72 77.3200000000001 L205.72 88.15 Z" style="fill:rgb(0,0,0);"/>
<path d=" M210.714631764143 73.2739526381142 A1.98 1.98 0 0 1 209.759990355107 73.1111831956152 L209.769076636207 73.099794771703 A2.7 2.7 0 0 1 208.854683931998 72.4379567106023 L208.852215022932 72.4399909271298 A3.39 3.39 0 0 1 208.230096055325 71.4479292696433 L208.2264915164 71.4471982966726 A4.29 4.29 0 0 1 207.923103208021 70.165043028216 A4.29 4.29 0 0 1 208.023134866496 68.8512775385634 L208.019401197007 68.8566000118445 A3.39 3.39 0 0 1 208.479449138749 67.7797646623617 L208.487613946778 67.7863618672866 A2.7 2.7 0 0 1 209.287792241783 66.9902095973837 L209.277714978819 66.9754866076384 A1.98 1.98 0 0 1 210.195365031824 66.6660476128799 A1.98 1.98 0 0 1 211.150009644893 66.8288168043848 L211.150922889626 66.8402050188548 A2.7 2.7 0 0 1 212.065315752454 67.502042939404 L212.067784977068 67.5000090728701 A3.39 3.39 0 0 1 212.689903944676 68.4920707303566 L212.693508568276 68.4928019113799 A4.29 4.29 0 0 1 212.996896809522 69.7749571957218 A4.29 4.29 0 0 1 212.896865133504 71.0887224614366 L212.890598735501 71.083400276187 A3.39 3.39 0 0 1 212.43055073208 72.1602355359461 L212.4323862847 72.1636377773386 A2.7 2.7 0 0 1 211.632208114755 72.9597901729333 L211.632285021181 72.9645133923615 A1.98 1.98 0 0 1 210.714634968176 73.2739523871201 Z" style="fill:rgb(0,0,0);"/>
<path d=" M216.11 90.97 L212.58 90.77 L212.58 101.63 L216.11 102.02 Z" style="fill:rgb(0,0,0);"/>
<path d=" M216.11 77.1799999999999 L212.58 77.14 L212.58 88.46 L216.11 88.6 Z" style="fill:rgb(0,0,0);"/>
<path d=" M210.810000726057 152.01 A1.04 1.04 0 0 1 210.198157220897 151.810980626209 L210.19630196562 151.819429447321 A2.25 2.25 0 0 1 209.564696842088 151.113233830181 L209.564963277662 151.106430591236 A3.55 3.55 0 0 1 209.194781535645 150.164840698284 L209.194440940291 150.161768009218 A5.41 5.41 0 0 1 209.05 148.919999622311 A5.41 5.41 0 0 1 209.194440940291 147.678231990781 L209.194781535645 147.685159301716 A3.55 3.55 0 0 1 209.564963277662 146.743569408764 L209.564696842088 146.736766169819 A2.25 2.25 0 0 1 210.19630196562 146.030570552679 L210.198157529132 146.039019149539 A1.04 1.04 0 0 1 210.810001107237 145.840000000001 A1.04 1.04 0 0 1 211.421842470868 146.039019149539 L211.42369803438 146.030570552679 A2.25 2.25 0 0 1 212.055303157912 146.736766169819 L212.045036722338 146.743569408764 A3.55 3.55 0 0 1 212.415218464355 147.685159301716 L212.425559059709 147.678231990781 A5.41 5.41 0 0 1 212.57 148.920000377689 A5.41 5.41 0 0 1 212.425559059709 150.161768009218 L212.415218464355 150.164840698284 A3.55 3.55 0 0 1 212.045036722338 151.106430591236 L212.055303157912 151.113233830181 A2.25 2.25 0 0 1 211.42369803438 151.819429447321 L211.421843938655 151.810979782593 A1.04 1.04 0 0 1 210.810000726057 152.01 Z" style="fill:rgb(0,0,0);"/>
<path d=" M210.720000714538 138.53 A0.89 0.89 0 0 1 210.059465137631 138.236484447069 L210.055448581447 138.241573751086 A4.21 4.21 0 0 1 209.236822701794 136.894941624238 L209.237447272793 136.900901576211 A8.48 8.48 0 0 1 208.799985647057 135.228367992701 L208.796269628767 135.228971585256 A14.95 14.95 0 0 1 208.620000000004 132.940011480776 A14.95 14.95 0 0 1 208.796269628767 130.651028414744 L208.799985647057 130.651632007299 A8.48 8.48 0 0 1 209.237447272793 128.979098423789 L209.236822701794 128.975058375762 A4.21 4.21 0 0 1 210.055448581447 127.628426248914 L210.059465137631 127.633515552931 A0.89 0.89 0 0 1 210.720000714538 127.34 A0.89 0.89 0 0 1 211.380534862369 127.633515552931 L211.384551024587 127.628425812644 A4.21 4.21 0 0 1 212.203177092266 128.97505782519 L212.202552727207 128.979098423789 A8.48 8.48 0 0 1 212.640014352943 130.651632007299 L212.643730371233 130.651028414744 A14.95 14.95 0 0 1 212.819999999996 132.939988519224 A14.95 14.95 0 0 1 212.643730371233 135.228971585256 L212.640014352943 135.228367992701 A8.48 8.48 0 0 1 212.202552727207 136.900901576211 L212.203177092266 136.89494217481 A4.21 4.21 0 0 1 211.384551024587 138.241574187356 L211.380535820145 138.236483386446 A0.89 0.89 0 0 1 210.720000714538 138.53 Z" style="fill:rgb(0,0,0);"/>
<path d=" M209.11 107.26 L213.49 107.76 L213.49 120.13 L209.11 119.17 Z" style="fill:rgb(0,0,0);"/>
</g>
</svg>