<svg xmlns:xlink="http://www.w3.org/1999/xlink" xmlns="http://www.w3.org/2000/svg" width="400" height="200"  viewBox="-0.000001341104507446289 -0.0000152587890625 400.0000305175781 200.00001525878906"><rect id="svgEditorBackground" x="-0.0000013411046211331268" y="-0.000015258790881489404" width="400.0000305175781" height="200.00001525878906" style="fill:none;stroke:none;"/>
<!--Gegenereerd door de SIMaD-toepassing (http://www.dlw.be).-->
<g style="stroke:none;fill-rule:evenodd;" transform="matrix(1,0,0,-1,0,200)">

<path d=" M243.84 38.49 L225.90669493591 59.0172481739176 A51.01 51.01 0 0 1 232.463503434977 66.770091886275 L232.463819376772 66.7718830453585 A91.31 91.31 0 0 1 252.485545576379 105.676924853372 L252.49 105.68 L256.61 109.87 L254.71 111.87 L200.62 57.42 L174.34 68.64 L174.336980103156 75.1646788536525 A71.03 71.03 0 0 0 203.37634042416 67.8054322218524 L203.374523001975 67.807791914307 A76.76 76.76 0 0 0 186.635848741982 96.087135048539 L186.64 96.08 L195.53 91.34 L189.895552664919 101.855493309381 A4.33 4.33 0 0 1 189.724834027696 103.918128297754 L189.725341934262 103.917534561424 A29.35 29.35 0 0 1 194.59423688248 107.567468444804 L194.596069113312 107.565724381312 A9.43 9.43 0 0 0 199.023439504099 109.252856679707 L199.02188818123 109.251595339353 A5.41 5.41 0 0 0 205.135143538629 108.145649900784 L205.132799717155 108.153313117815 A2.81 2.81 0 0 1 206.709144600989 107.351694629253 L206.715437785351 107.340930369294 A7.87 7.87 0 0 0 211.002267923889 100.678773698818 L210.999986861151 100.680987635353 A6.12 6.12 0 0 0 214.843163916623 98.0832405335324 L214.842715070226 98.0810544280874 A37.37 37.37 0 0 0 220.431854712969 98.6894832125989 L220.432983372153 98.6882266713111 A3.23 3.23 0 0 0 223.474987374046 96.8086100675111 L223.476345492511 96.8084141186974 A2.85 2.85 0 0 1 227.461543118804 98.1361815429357 L227.467893726426 98.1369711921179 A2.27 2.27 0 0 0 228.583839158228 99.2687997582724 L228.585866366084 99.2658761913671 A9.82 9.82 0 0 0 230.746569680335 101.219867661603 L230.734746271075 101.227912145446 A8.25 8.25 0 0 1 233.786332278408 104.929198425496 L233.794633950341 104.930031132733 A6.28 6.28 0 0 0 240.039959033134 109.869037267849 L240.04153498374 109.866522681755 A8.84 8.84 0 0 1 243.984791030983 112.436988484907 L243.991649673193 112.433894793667 A2.8 2.8 0 0 0 245.533028390915 113.324044938895 L245.525382406987 113.330027309282 A3.86 3.86 0 0 0 248.168652412448 114.565254349682 L248.162682107308 114.559993500828 A2.61 2.61 0 0 0 250.771694673416 115.932504643011 L250.781121452111 115.937798446921 A9.66 9.66 0 0 0 257.570822896121 119.708060123323 L257.565180829984 119.705767723085 A14.73 14.73 0 0 0 265.317213770262 121.89998994182 L265.325194916545 121.901390379451 A14.11 14.11 0 0 0 267.109487051424 116.825437000038 L267.101290852031 116.829477690637 A11.26 11.26 0 0 0 269.297389666575 116.074927270765 L269.301743497278 116.069636340903 A101.24 101.24 0 0 0 271.017047922034 109.554583766807 L271.02 109.56 L274.45 107.5 L274.45 25 L125.56 25 L125.551926514055 75.1738823529468 A2.98 2.98 0 0 0 127.32841749975 77.3685009996575 L127.331024020782 77.3599202988377 A5.63 5.63 0 0 1 128.505692313138 79.1602231969678 L128.504618910929 79.1627402173222 A3.46 3.46 0 0 0 129.718951744783 80.6897220438404 L129.72910395827 80.6901782936015 A5.82 5.82 0 0 1 132.04053029731 84.0969306177303 L132.035898844106 84.0939867714558 A2.77 2.77 0 0 0 135.439776089297 86.127520850164 L135.442469300601 86.120460166621 A2.41 2.41 0 0 1 138.463264395631 88.6300562264758 L138.45 88.63 L144.212519148869 94.4632469167257 A4.99 4.99 0 0 0 147.225983390022 96.379992942642 L147.228606649665 96.3847684562831 A0.76 0.76 0 0 0 148.00943737427 95.2140791248694 L148.006804117405 95.2123804135087 A8.48 8.48 0 0 1 146.558032031741 90.8289969441407 L146.555692395558 90.8270373309679 A88.87 88.87 0 0 1 151.019475160171 94.3885366546794 L151.021795767861 94.3878768889234 A2.48 2.48 0 0 0 152.470367153403 94.9748570371412 L152.472321716689 94.969108276118 A0.43 0.43 0 0 0 152.861705385966 94.3074721226108 L152.86 94.3099999999999 L152.710030985341 93.8589764510723 A84.38 84.38 0 0 0 138.489254191139 66.9115794264697 L138.493489698479 66.9170486358314 A71.03 71.03 0 0 0 168.483803533709 75.1325456977898 L168.48 75.13 L168.480909987013 38.4582012346324 A305.26 305.26 0 0 0 126.577904577942 46.6610780147215 L126.58 46.66 L126.575624896622 43.7202628879274 A325.22 325.22 0 0 1 273.569750339066 40.9092048191542 L273.57 40.91 L273.570894279947 43.705701767963 A305.26 305.26 0 0 0 243.841211260454 38.4908058460139 Z M216.84 69.41 L246.634568646257 99.7216748670298 A76.51 76.51 0 0 0 223.832918278233 61.4114899719812 L223.83 61.41 Z M174.332989486878 37.7800526570578 A305.27 305.27 0 0 1 180.530884191542 37.1968310602489 L180.53 37.2 L192.100608236751 48.8435523294835 A29.14 29.14 0 0 0 174.429799969494 65.3005217331871 L174.42 65.2999999999999 L174.34 65.34 Z M237.91 41.49 L223.891828359485 57.1690111446425 A51.01 51.01 0 0 0 215.304225470123 51.1358220322697 L215.31 51.14 Z M194.18 50.9400000000001 L198.09 54.88 L178.325644642377 63.5852131773338 A24.55 24.55 0 0 1 194.185033527332 50.945738245807 Z M198.051421382403 50.2933243981043 A24.55 24.55 0 0 1 206.716884316789 51.0835198832769 L206.72 51.08 L201.21 53.5 Z M221.74982405566 59.5854886056272 A56.66 56.66 0 0 0 211.085614127768 52.9504255174765 L211.08 52.9400000000001 L203.74 56.08 L214.81 67.34 Z M195.69 47.89 L184.858397200488 36.8750735409338 A305.26 305.26 0 0 1 237.060210390285 37.7212328081948 L237.06 37.72 L211.222011387935 49.0998286559186 A51.01 51.01 0 0 0 210.91370206589 48.9634285325233 L210.920836914617 48.9600587933857 A29.14 29.14 0 0 0 195.694478917375 47.8921058539522 Z" style="fill:rgb(0,0,0);"/>
<path d=" M194.615267533913 74.2238141200474 A69.56 69.56 0 0 1 147.086799751759 73.4247202211777 L147.091115107042 73.426172201699 A97.05 97.05 0 0 1 157.90526307228 101.411126118573 L157.89643136491 101.414115218586 A15.98 15.98 0 0 0 151.232249289879 97.8615751583354 L151.229915319732 97.8577097465878 A170.7 170.7 0 0 1 162.63593554128 130.430833310848 L162.642032302064 130.433276668285 A14.71 14.71 0 0 0 157.606000729147 127.620362954192 L157.60429093868 127.618424157414 A129.09 129.09 0 0 1 170.195443950722 174.997859941564 L170.195303486953 174.995173466933 A125.14 125.14 0 0 1 182.934852088063 128.799258010763 L182.929613642772 128.802328010311 A6.18 6.18 0 0 0 177.893152716271 131.171299760173 L177.896373208395 131.168125959119 A100.75 100.75 0 0 1 189.895275755093 97.8536948837906 L189.9 97.86 L181.895082235842 101.111228089691 A83.99 83.99 0 0 1 194.61332003879 74.2215057510327 L194.61 74.23 Z" style="fill:rgb(0,0,0);"/>
<path d=" M253.49 145.36 A20.04 20.04 0 0 1 213.41 145.36 A20.04 20.04 0 0 1 253.49 145.36 Z" style="fill:rgb(0,0,0);"/>
</g>
</svg>