<svg xmlns:xlink="http://www.w3.org/1999/xlink" xmlns="http://www.w3.org/2000/svg" width="400" height="200"  viewBox="-0.000001341104507446289 -0.0000152587890625 400.0000305175781 200.00001525878906"><rect id="svgEditorBackground" x="-0.0000013411046211331268" y="-0.000015258790881489404" width="400.0000305175781" height="200.00001525878906" style="fill:none;stroke:none;"/>
<!--Gegenereerd door de SIMaD-toepassing (http://www.dlw.be).-->
<g style="stroke:none;fill-rule:evenodd;" transform="matrix(1,0,0,-1,0,200)">

<path d=" M173.302032165428 134.516534705586 A5.36 5.36 0 0 0 172.765076903238 142.320284740196 L172.765901739232 142.314944349226 A2.72 2.72 0 0 0 170.691672041063 145.211713461777 L170.692185435352 145.208440391265 A5.17 5.17 0 0 0 171.228255623071 147.066817023616 L171.231743683077 147.067940396284 A8.04 8.04 0 0 0 176.526269586303 148.999726882297 L176.521953105695 149.002505946221 A73.77 73.77 0 0 1 177.738046894305 149.002505946221 L177.73887537255 149.000077791646 A2.29 2.29 0 0 1 179.311508726553 149.643427811085 L179.31392895049 149.644588108607 A1.56 1.56 0 0 1 179.135432277161 151.108260823133 L179.136497825308 151.107106980757 A3.27 3.27 0 0 0 179.208043732767 154.97058667657 L179.202684026371 154.972341541814 A4.43 4.43 0 0 0 175.659518974568 158.443927504172 L175.66 158.44 L176.271878922864 159.156012640363 A1.68 1.68 0 0 1 176.55861939026 160.804770232957 L176.558881619102 160.809148623972 A3.13 3.13 0 0 0 176.380144823197 162.131800865315 L176.384042631818 162.128563747997 A2.64 2.64 0 0 0 177.062419406791 164.48503048753 L177.053786934775 164.48658043332 A6.09 6.09 0 0 1 176.946541648156 167.918429812808 L176.954389417963 167.92187068056 A3.77 3.77 0 0 0 177.5983891391 169.85386982407 L177.593471550425 169.858710212949 A18.51 18.51 0 0 0 180.598641773251 173.293190487651 L180.600079132682 173.289276320497 A13.16 13.16 0 0 1 182.066505653247 174.827235840367 L182.068405952434 174.833753276196 A2.05 2.05 0 0 0 183.645608751398 174.869598803372 L183.644190917678 174.857764455559 A55.7 55.7 0 0 1 185.146392223823 173.462863247756 L185.139206309286 173.4706190022 A2.13 2.13 0 0 1 186.925586098093 173.113343043596 L186.932387382293 173.113607845827 A1.56 1.56 0 0 0 188.650644015061 172.397667615541 L188.652286215503 172.39344518732 A1.25 1.25 0 0 1 189.865858090297 172.000818998664 L189.86 172 L191.260990072139 171.989999639617 A1.36 1.36 0 0 0 192.615332416419 170.742579043364 L192.622050410605 170.752932462765 A5.23 5.23 0 0 0 192.586272758464 169.572269881583 L192.582430206128 169.56299303109 A1.21 1.21 0 0 1 193.224132215951 168.31523909326 L193.231449105022 168.317076811721 A5.7 5.7 0 0 1 193.696103679317 168.102620855032 L193.687646542621 168.101787462577 A0.92 0.92 0 0 0 194.259975558766 167.243293937517 L194.269667644387 167.238811036956 A12.51 12.51 0 0 0 194.233892489307 166.38020730408 L194.231558598299 166.380998255265 A0.54 0.54 0 0 1 194.552790758784 165.845611341624 L194.547862939693 165.849597309751 A2.43 2.43 0 0 1 195.908242320635 165.491602731667 L195.91223363048 165.489314053274 A1.04 1.04 0 0 0 196.984130449584 164.560336817259 L196.980152323 164.561263710454 A12.43 12.43 0 0 1 197.44515851457 162.272002489402 L197.442639856005 162.266275853338 A1.85 1.85 0 0 0 197.871689255514 160.800357031227 L197.874518974439 160.802155350016 A0.76 0.76 0 0 1 198.594185824649 160.190438528919 L198.588191724375 160.18952108272 A0.83 0.83 0 0 0 199.335538845463 159.655701706416 L199.339123910471 159.655373336637 A3.23 3.23 0 0 1 201.738365323329 159.15403931915 L201.73563474816 159.161981204962 A9.66 9.66 0 0 1 206.170804191131 160.342308536907 L206.175384655305 160.347776717588 A7.89 7.89 0 0 0 210.862885267851 161.170773000036 L210.858965783721 161.163293808898 A14.37 14.37 0 0 0 218.156500019047 158.909643572595 L218.153757453335 158.910697018696 A38.14 38.14 0 0 0 221.086384371813 156.836399926069 L221.089330778497 156.834948586709 A7.85 7.85 0 0 0 226.026827041878 158.30188589959 L226.021551532571 158.29954679467 A4.18 4.18 0 0 0 229.991686679725 155.223586207113 L229.988935711093 155.221419571547 A8.32 8.32 0 0 0 228.379744545267 147.747620575439 L228.381486960835 147.751723551633 A107.92 107.92 0 0 0 224.053808550535 142.816024220375 L224.052098097464 142.812287041626 A8.79 8.79 0 0 0 228.271875977074 139.593812415433 L228.274551465295 139.593204659314 A0.91 0.91 0 0 0 228.345811567425 138.666823256555 L228.34593303545 138.667332397847 A7.59 7.59 0 0 0 227.166261012702 136.486726542793 L227.168878098753 136.484155860375 A7.99 7.99 0 0 1 226.166977124439 134.51613611334 L226.17 134.52 L227.56 134.52 L227.56 122.57 L320.45 25 L79.56 25 L172.27 122.57 L172.27 134.52 Z M222.198091784121 152.504343823405 A4.09 4.09 0 0 0 225.202878915464 154.579077827578 L225.200366128244 154.581590034184 A1.84 1.84 0 0 0 226.742332119729 154.079554597093 L226.741584207186 154.079884857444 A3.32 3.32 0 0 0 226.956223988548 150.287915625879 L226.960017581394 150.284843891724 A30.85 30.85 0 0 0 223.919610251279 146.457507625987 L223.909201839469 146.463865205706 A3.22 3.22 0 0 0 222.19451287183 145.177848486797 L222.2 145.17 Z M210.64632072637 134.520259320655 A29.25 29.25 0 0 1 214.294326035093 141.67321093451 L214.290236222167 141.672193991653 A7.97 7.97 0 0 0 214.791171982401 142.817190000387 L214.793918620103 142.814846588243 A0.88 0.88 0 0 0 215.224076879341 143.2091583248 L215.226478788696 143.207625331394 A0.4 0.4 0 0 0 215.653777694764 142.922759394296 L215.651440930053 142.918136085292 A3.04 3.04 0 0 0 216.116063767559 141.702968680338 L216.116028147956 141.709538448778 A0.54 0.54 0 0 1 216.474567491764 141.279291242435 L216.476174126604 141.274695156291 A1.14 1.14 0 0 0 216.976038473705 141.060467579103 L216.976991152701 141.064297897311 A9.74 9.74 0 0 1 215.868708490082 135.487133683494 L215.859860270272 135.485726156483 A16.39 16.39 0 0 0 219.580538520643 139.814592204661 L219.588891162752 139.815512086456 A11.56 11.56 0 0 1 221.126336480583 139.457966665525 L221.122941752405 139.453648296226 A2.84 2.84 0 0 0 223.449134273429 137.234818510525 L223.446566696754 137.231238416698 A1.56 1.56 0 0 0 222.982556052907 135.767820226746 L222.977666053084 135.768841015533 A3.85 3.85 0 0 1 222.08304206764 134.516367422418 L222.09 134.52 Z M180.379748512893 134.51533867866 A5.75 5.75 0 0 1 181.487892555766 141.59316197235 L181.487470135239 141.59991717126 A4.53 4.53 0 0 1 177.412004854191 143.887897673284 L177.42 143.89 L177.461128755913 144.605838285804 A1.3 1.3 0 0 0 178.245632225596 145.853911970228 L178.235690024221 145.852241714142 A23.01 23.01 0 0 0 179.022600474263 146.174159623003 L179.024416669895 146.176027361561 A3.12 3.12 0 0 0 181.566021819325 145.782257558509 L181.57 145.78 L182.496150132272 145.17423867175 A41.06 41.06 0 0 1 189.829133818695 144.423054995915 L189.824030387171 144.421259194129 A12.24 12.24 0 0 1 187.176695993883 141.344627313068 L187.182376042418 141.351596287726 A3.27 3.27 0 0 1 187.432866400667 137.522671936875 L187.439984662997 137.521389926323 A2.02 2.02 0 0 0 185.719410144085 134.510384482001 L185.71 134.52 Z M191.078892816634 134.512434986946 A8.16 8.16 0 0 1 192.831917149092 138.161587681772 L192.828346675565 138.160833531738 A9.09 9.09 0 0 0 194.652936772934 142.024671426131 L194.657418041235 142.028930043952 A3.92 3.92 0 0 0 198.088800343995 143.02974986872 L198.088764445741 143.036684151641 A11.45 11.45 0 0 0 200.628815517096 142.428502913648 L200.628752470276 142.421053969133 A7.09 7.09 0 0 1 204.419188655299 142.921677620342 L204.425154851461 142.919984479797 A11.5 11.5 0 0 1 209.790545099778 147.033450327716 L209.783584014674 147.036397865756 A10.89 10.89 0 0 1 209.819362550305 142.206290782766 L209.822366382777 142.206082844407 A4.4 4.4 0 0 0 209.679387565327 138.560122892335 L209.678004181188 138.555704713294 A13.87 13.87 0 0 0 206.065897282159 134.514436572673 L206.07 134.52 Z" style="fill:rgb(0,0,0);"/>
</g>
</svg>