<svg xmlns:xlink="http://www.w3.org/1999/xlink" xmlns="http://www.w3.org/2000/svg" width="400" height="200"  viewBox="-0.000001341104507446289 -0.0000152587890625 400.0000305175781 200.00001525878906"><rect id="svgEditorBackground" x="-0.0000013411046211331268" y="-0.000015258790881489404" width="400.0000305175781" height="200.00001525878906" style="fill:none;stroke:none;"/>
<!--Gegenereerd door de SIMaD-toepassing (http://www.dlw.be).-->
<g style="stroke:none;fill-rule:evenodd;" transform="matrix(1,0,0,-1,0,200)">

<path d=" M225.494797463983 28.4565428328832 A162.86 162.86 0 0 0 174.145202536017 28.4565428328832 L174.14 28.45 L174.14 35.6900000000001 L193.633176943045 40.8153483901988 A13.1 13.1 0 0 0 189.996219269551 60.9277251917241 L190 60.9300000000001 L164.975651977644 79.9859648352144 A13.26 13.26 0 0 0 156.174311321667 76.640000700886 L156.18 76.6400000000001 L147.85 25 L145.34 35.3599999999999 L139.01 25.51 L151.043056030888 77.7290748451331 A12.91 12.91 0 0 0 156.716633932878 102.460055118412 L156.72 102.46 L157.886416961193 107.512304504985 A11.58 11.58 0 1 0 167.126042258473 128.574285063128 L167.12 128.57 L188.868154723448 153.269964504289 A13.64 13.64 0 1 0 210.831845276552 153.269964504289 L210.84 153.27 L232.728834854805 128.468088482289 A11.56 11.56 0 1 0 242.150421888752 107.551437605801 L242.15 107.55 L243.308669601141 102.498102604742 A12.91 12.91 0 0 0 248.979836277702 77.8866934353474 L248.99 77.8800000000001 L260.99 25.51 L254.66 35.3599999999999 L252.15 25 L243.893049726428 76.6816616205045 A12.65 12.65 0 0 0 234.768102377763 80.0262637652317 L234.77 80.02 L209.743102603325 60.9299851907088 A13.1 13.1 0 0 0 206.142854589667 40.8195089106205 L206.14 40.8199999999999 L225.49 35.73 Z M209.889731566636 124.799345180556 A12.65 12.65 0 0 1 201.382212294137 145.122863794339 L201.38 145.12 L201.377839967286 147.771030426947 A13.7 13.7 0 0 1 208.434341906943 150.680928080489 L208.44 150.69 L230.005157046166 126.174239896821 A11.36 11.36 0 0 1 227.240961582964 117.736169458011 L227.24 117.74 L219.42 115.37 Z M172.763685183551 117.622534503998 A11.42 11.42 0 0 1 169.85325465175 126.317445513313 L169.85 126.32 L191.267180688012 150.724841664012 A13.81 13.81 0 0 1 198.505562995058 147.778565470831 L198.51 147.78 L198.510528957563 145.154739570617 A12.68 12.68 0 0 1 189.857743595387 124.795244592374 L189.85 124.79 L180.32 115.37 Z M207.089956277766 63.2628400412245 A12.65 12.65 0 0 1 201.379843719652 65.3723083624507 L201.38 65.3699999999999 L201.37576031103 73.9172041651534 A9.86 9.86 0 0 1 207.449013397223 89.9549563665497 L207.45 89.9500000000001 L217.49 98.53 L231.127832887263 93.4427982432946 A12.92 12.92 0 0 1 232.546636116009 82.6744458836911 L232.55 82.6800000000001 Z M198.510113281407 65.4043029554362 A12.5 12.5 0 0 1 192.690869098774 63.2584566601244 L192.69 63.26 L167.193789626213 82.6814483357402 A13.28 13.28 0 0 1 168.648929528683 93.4858622602807 L168.65 93.48 L182.36 98.5699999999999 L192.285670346572 89.9557433182213 A9.88 9.88 0 0 1 198.543915971311 73.8735074665571 L198.54 73.8800000000001 Z M193.777201084189 30.3974775720743 A160.86 160.86 0 0 1 197.377655891033 30.2944116885355 L197.38 30.3 L197.383999283434 32.1654489792252 A152.51 152.51 0 0 0 193.783530752426 32.2737777389472 L193.78 32.28 Z M209.89 32.45 L209.88826056001 30.5632248661046 A160.86 160.86 0 0 1 212.724947477059 30.759915842144 L212.73 30.77 L212.731446268058 32.6581904586479 A152.51 152.51 0 0 0 209.894739748485 32.450362888658 Z M202.36 32.1600000000001 L202.360064066365 30.2847733979447 A160.86 160.86 0 0 1 205.960506295378 30.3738948376484 L205.96 30.3800000000001 L205.966572014761 32.2602045644865 A152.5 152.5 0 0 0 202.366312065515 32.1658165142665 Z M218.543848673401 31.3216502121983 A160.86 160.86 0 0 0 215.997750614451 31.0495878144393 L216 31.0599999999999 L216.040431902271 32.9679987894564 A152.51 152.51 0 0 1 218.55040426969 33.2516484935099 L218.55 33.26 Z M187.012740850155 30.8098113571444 A160.86 160.86 0 0 1 189.849477952075 30.6020587741271 L189.85 30.6099999999999 L189.855742119908 32.4891765782568 A152.51 152.51 0 0 0 187.01901071139 32.7080651013986 L187.02 32.71 Z M183.745852072062 33.0269560230333 A152.51 152.51 0 0 0 181.20006928093 33.3243847575248 L181.2 33.3299999999999 L181.193855575182 31.3943874401205 A160.86 160.86 0 0 1 183.739645492488 31.1123311516278 L183.74 31.1199999999999 Z M232.95 97.1199999999999 L232.58 96.6099999999999 L220.4 101.04 L225.06 105.01 Z M204.693685348534 92.2465468568125 A9.98 9.98 0 0 1 201.384710914553 93.4101422771812 L201.38 93.4100000000001 L201.377349818969 96.8251532189511 A9.74 9.74 0 0 1 208.507955214335 101.809300853695 L208.51 101.81 L213.64 99.9200000000001 Z M167.194292970175 96.5391501279422 A2.71 2.71 0 0 1 166.793910676932 97.1579227729696 L166.79 97.1500000000001 L174.76 105.04 L179.41 101.04 Z M198.50278199548 93.4090089777572 A8.85 8.85 0 0 1 195.0481706328 92.2453504139785 L195.05 92.24 L186.11 99.9200000000001 L191.230278020688 101.809287291022 A9.72 9.72 0 0 1 198.540308483003 96.8268287061068 L198.54 96.8299999999999 Z M225.13 109.77 L222.11 112.72 L227.92366958483 114.500188756307 A16.88 16.88 0 0 1 228.687392289851 112.863640104325 L228.69 112.86 Z M201.381169031799 119.991919564463 A7.72 7.72 0 0 1 207.380792868349 122.3554077033 L207.38 122.36 L215.64 114.21 L208.074109140176 111.956322863975 A9.66 9.66 0 0 1 201.384217161727 116.282937827339 L201.38 116.28 Z M171.199398260824 112.717235188926 A7.97 7.97 0 0 1 172.035794967413 114.426393682646 L172.03 114.43 L177.7 112.72 L174.65 109.74 Z M198.542450652688 116.285051038375 A9.8 9.8 0 0 1 191.666732325153 111.992274510646 L191.67 111.99 L184.14 114.25 L192.361389276316 122.324118578049 A12.49 12.49 0 0 1 198.542196403686 119.924511114601 L198.54 119.92 Z M190.32549939638 108.90350972626 A9.68 9.68 0 0 1 190.143748630531 105.050393722598 L190.14 105.04 L183.16 102.39 L177.27 107.45 L181.45 111.59 Z M164.319734395898 99.6576437502021 A11.72 11.72 0 0 1 160.102176115828 101.875497661278 L160.1 101.88 L160.940786800174 107.038569345852 A11.26 11.26 0 0 1 168.943819581556 109.948763081073 L168.94 109.95 L172.14 107.23 Z M235.42 99.7000000000001 L227.67 107.26 L230.944779573218 110.062232841087 A11.59 11.59 0 0 1 239.054038118526 107.04398857145 L239.06 107.04 L239.855689912636 101.993705245571 A12.87 12.87 0 0 1 235.41847482752 99.7023564477595 Z M209.595663801557 105.044329625766 A10.82 10.82 0 0 1 209.413842163636 108.89894883197 L209.42 108.9 L218.29 111.63 L222.47 107.52 L216.65 102.5 Z" style="fill:rgb(0,0,0);"/>
</g>
</svg>