<svg xmlns:xlink="http://www.w3.org/1999/xlink" xmlns="http://www.w3.org/2000/svg" width="400" height="200"  viewBox="-0.000001341104507446289 -0.0000152587890625 400.0000305175781 200.00001525878906"><rect id="svgEditorBackground" x="-0.0000013411046211331268" y="-0.000015258790881489404" width="400.0000305175781" height="200.00001525878906" style="fill:none;stroke:none;"/>
<!--Gegenereerd door de SIMaD-toepassing (http://www.dlw.be).-->
<g style="stroke:none;fill-rule:evenodd;" transform="matrix(1,0,0,-1,0,200)">

<path d=" M138.415481666725 30.5318846433779 A392.64 392.64 0 0 1 139.385953734506 63.7705601455788 L139.382686071975 63.766335799824 A45.22 45.22 0 0 1 133.236921585393 70.5590229292074 L133.239999802755 70.568559157285 A6.72 6.72 0 0 0 122.721861987739 71.610206172928 L122.717377827428 71.6046970017127 A4.99 4.99 0 0 1 117.312900348566 76.2216884342993 L117.310737017124 76.2247804773004 A13.86 13.86 0 0 0 114.318490312522 86.1719789095956 L114.319186793648 86.1655075720325 A3.26 3.26 0 0 0 117.704894671244 86.0413880868297 L117.709965589989 86.0540886449067 A1.78 1.78 0 0 1 119.740048509964 88.9772884632955 L119.737837521193 88.9796276429559 A5.14 5.14 0 0 0 117.630677277361 93.2134383159324 L117.629955913258 93.2077858939679 A21.87 21.87 0 0 0 112.939004713789 95.1488691587874 L112.94351506535 95.1511880225015 A6.32 6.32 0 0 0 114.321500118415 102.592323638615 L114.329818272677 102.589117420347 A2.77 2.77 0 0 1 117.717962468657 101.297257761895 L117.713474088952 101.293898217444 A107.67 107.67 0 0 1 119.816077723573 111.240830833738 L119.812829375886 111.251746239874 A4.25 4.25 0 0 1 122.398323130468 114.322020078466 L122.402578556993 114.32454716991 A2.2 2.2 0 1 1 121.836995081769 118.687619783425 L121.839801794571 118.685509197525 A9.51 9.51 0 0 0 121.354428645639 125.966106114243 L121.351792760596 125.967350460377 A1.79 1.79 0 0 0 123.144368732134 128.961991571316 L123.144569587896 128.950584194421 A38.85 38.85 0 0 0 130.476551522013 144.189553839396 L130.479264201461 144.203065680806 A6.18 6.18 0 0 0 132.191189391044 151.763132571855 L132.187185281749 151.764740088175 A4.81 4.81 0 0 0 135.025833237426 159.2830621599 L135.027209211799 159.275122277197 A3.09 3.09 0 0 1 136.882784992102 164.060056548188 L136.881476754314 164.059962183327 A2.06 2.06 0 0 0 137.938386945828 167.20078171906 L137.944548122923 167.198069520279 A4.32 4.32 0 0 1 140.770796871787 172.507198951372 L140.7663764592 172.509597532057 A1.95 1.95 0 0 0 144.378047613756 173.934132621453 L144.380673879799 173.940840614158 A10.39 10.39 0 0 0 145.296033504154 167.132276919533 L145.29 167.13 L151.898338291597 154.927564237293 A17.75 17.75 0 0 0 155.959110251257 145.691980322287 L155.960330685828 145.692138390551 A13.9 13.9 0 0 1 162.758165739818 135.426497027172 L162.759541540628 135.428144807745 A5.48 5.48 0 0 0 162.597922740939 129.933106212649 L162.6 129.93 L160.58 129.93 L160.819507321066 128.069644897392 A3.59 3.59 0 0 1 157.475185732408 123.312380160947 L157.476149900158 123.311466206132 A3.1 3.1 0 0 0 162.152496924422 124.910691425837 L162.154157310696 124.904284709285 A19.04 19.04 0 0 1 158.717532026264 103.55827371687 L158.722494285276 103.565539002186 A19.03 19.03 0 0 1 155.143328171022 88.5269599082012 L155.133022298173 88.5200679486527 A6.93 6.93 0 0 1 159.441864189924 85.0382220372331 L159.443931661409 85.0469901292321 A8.22 8.22 0 0 1 168.985657369568 78.2545753005419 L168.985483967318 78.2537791864681 A2.39 2.39 0 1 0 169.269085117292 73.5135881970026 L169.27 73.52 L168.66 74.53 L167.287296127961 73.8006041585377 A2.65 2.65 0 0 0 163.492149002772 70.7321873709134 L163.490313780211 70.7240071498564 A2.96 2.96 0 0 0 158.773817826081 69.8316140582722 L158.768285333959 69.8305357202676 A6.54 6.54 0 0 1 153.295905352869 66.275150675387 L153.300987954846 66.2834120447562 A6.19 6.19 0 0 0 146.635497585819 65.8370077134713 L146.63 65.8299999999999 L143.68 59.5699999999999 L144.37 30.45 L195.6 30.45 L197.781814732772 39.2204416814845 A227.76 227.76 0 0 1 198.98591508168 69.5983189736526 L198.992391894157 69.599368070695 A29.36 29.36 0 0 1 184.273363091563 81.1643194441774 L184.277404915105 81.1620883215237 A6.22 6.22 0 0 1 175.897969346532 83.0684773397777 L175.895438427224 83.0710480423305 A4.64 4.64 0 0 0 181.360443000321 85.7773326512522 L181.367008670926 85.7661464397947 A0.97 0.97 0 0 1 180.273885475507 87.0619776172644 L180.276289238259 87.0598679865645 A0.57 0.57 0 0 0 181.198472553992 87.6771199764998 L181.2 87.6800000000001 L182.982683229487 87.3091761792749 A2.2 2.2 0 0 0 184.838961901798 90.0532403324697 L184.84 90.0599999999999 L185.81 83.26 L197.861972349795 75.6309462029976 A12.03 12.03 0 0 1 192.921503605524 89.1599905804557 L192.926890303673 89.1663200840887 A12.31 12.31 0 0 1 199.152394998773 91.5124864415587 L199.15 91.51 L200.207222590651 86.2566020078362 A2.01 2.01 0 0 1 202.301322234673 87.7031387732503 L202.298134554099 87.7027785011602 A3.97 3.97 0 0 0 206.105962638252 88.439413363387 L206.11 88.4400000000001 L202.71 82.78 L204.98 73.4000000000001 L210.960508558058 81.7232547315646 A32.05 32.05 0 0 1 219.961719985194 92.3150606990579 L219.966890336101 92.3177071479062 A0.8 0.8 0 0 0 221.232898406664 91.3532869498372 L221.230648055456 91.3521482414328 A10.59 10.59 0 0 1 216.943046922606 84.9611955752954 L216.95 84.96 L227.697169853672 86.4141661915756 A6.65 6.65 0 0 0 232.550596966054 89.3262224553097 L232.554777669245 89.3270065869154 A6.73 6.73 0 0 1 239.585592391269 86.8217737838195 L239.594021954553 86.820758180687 A12.93 12.93 0 0 1 242.830092660531 102.75840635001 L242.83 102.75 L241.40734746928 103.219841616839 A20.4 20.4 0 0 1 236.444581502422 118.35974795797 L236.441811788204 118.358917805608 A4.78 4.78 0 0 0 237.492926185346 123.129360214346 L237.484718052312 123.137246481131 A27.07 27.07 0 0 0 237.32296329784 128.23252114732 L237.332041842343 128.232477339602 A31.49 31.49 0 0 1 239.431653899738 121.571265294798 L239.430398133224 121.564742519478 A2.45 2.45 0 0 1 241.34667256231 118.782259086042 L241.342118036644 118.780325741748 A1.86 1.86 0 0 0 242.81975046806 116.99046631828 L242.822979774023 116.9886456843 A1.82 1.82 0 0 1 240.800737785799 115.128183053153 L240.800894284271 115.128064027565 A8.79 8.79 0 0 0 244.681986349271 110.034130640985 L244.69 110.03 L242.987460877624 109.789547130693 A11.78 11.78 0 0 0 244.686410269104 102.751042301407 L244.69 102.75 L246.71 100.17 L246.14 98.8699999999999 L248.08 96.6099999999999 L250.75 99.03 L248.89 99.1900000000001 L247.111786652813 104.036345372992 A9.99 9.99 0 0 0 252.692621840664 110.671069762624 L252.69 110.68 L253.02 113.54 L247.353090107779 113.269492026197 A8.62 8.62 0 0 0 248.727444041279 118.605218955919 L248.73 118.6 L249.3 118.6 L250.94 126.58 L254.39 127.82 L254.63 129.68 L250.340880449302 129.68030150989 A4.72 4.72 0 0 0 252.364205792819 133.241354077725 L252.37 133.24 L250.34490736523 133.728424602211 A1.57 1.57 0 0 0 251.419406130803 135.646909765854 L251.415101550205 135.645977668648 A1.97 1.97 0 0 1 251.395650775534 138.907207799294 L251.399965798108 138.91589934081 A1.87 1.87 0 0 0 251.09521679117 141.769406834385 L251.1 141.78 L253.261865049006 149.739036250686 A0.34 0.34 0 0 0 253.821567118289 149.898951139237 L253.82 149.9 L255.284022460586 144.005058096985 A8.72 8.72 0 0 0 259.166980440159 139.879415256519 L259.157934292178 139.879090347969 A1.6 1.6 0 0 0 257.861971379465 136.96317379785 L257.872344290545 136.959688772354 A4.82 4.82 0 0 1 260.620250948337 132.75700805616 L260.621880556591 132.757679615603 A0.54 0.54 0 0 0 260.621880556591 131.782320384397 L260.616027016228 131.789380796851 A8.16 8.16 0 0 1 258.026506898109 129.847240718561 L258.030167309033 129.849532132968 A8.35 8.35 0 0 0 259.72883828944 124.939281071124 L259.720260170237 124.93880754905 A1.87 1.87 0 0 1 262.231643175313 123.213527957645 L262.23 123.21 L261.024545335729 120.4676430497 A3.34 3.34 0 0 0 262.893386551882 114.281104892995 L262.889382987731 114.280671853236 A10.63 10.63 0 0 1 261.021392114618 108.087969715495 L261.02 108.09 L262.818006692836 107.50624444474 A14.93 14.93 0 0 0 262.17535429108 99.2169654066621 L262.170085636232 99.2173265549826 A4.36 4.36 0 0 1 264.899511185595 95.1463498882695 L264.9 95.1500000000001 L265.586850106534 103.038994846863 A6.07 6.07 0 0 0 266.112634710805 108.891543509791 L266.117307187314 108.88660265111 A11.26 11.26 0 0 0 266.277585707739 114.318034284694 L266.274053393948 114.316085028843 A1.16 1.16 0 1 1 267.319958904386 116.386939119596 L267.32 116.39 L269.593215364391 119.253887982443 A1.48 1.48 0 0 0 271.050052698949 116.906761158646 L271.046566237739 116.901876161188 A12.96 12.96 0 0 1 268.969425388425 105.346471131687 L268.976858290742 105.354509333964 A4.32 4.32 0 0 0 269.157893933688 104.244877638707 L269.15 104.24 L269.758619603226 103.801846069221 A0.95 0.95 0 0 0 270.08251272542 102.182380388583 L270.085374503334 102.185896042837 A11.3 11.3 0 0 1 268.144843624592 100.002798778427 L268.14 100 L272.181269746322 100.807877030173 A7.06 7.06 0 0 0 272.205192452119 95.126553233483 L272.207433810527 95.132813237434 A3.47 3.47 0 0 1 275.016498514845 90.3001599108673 L275.008107259677 90.296095735655 A23.5 23.5 0 0 0 272.258434341584 80.4296222592065 L272.26 80.4300000000001 L277.595922655111 77.9222873309316 A4.93 4.93 0 0 0 280.10312095243 71.6947301913598 L280.103040881526 71.6978923595827 A18.91 18.91 0 0 0 277.660976149066 66.9873962225954 L277.663601559023 66.9834758809046 A2.66 2.66 0 0 1 278.28812159032 63.2724643094604 L278.293734519674 63.2789175210032 A8.27 8.27 0 0 0 281.648317505727 57.9534432517306 L281.64 57.9500000000001 L278.090644030578 55.522026611403 A17.3 17.3 0 0 0 284.560866923781 43.7138699301595 L284.555218773749 43.721333117437 A1.62 1.62 0 0 1 282.693111048135 42.0196500257205 L282.697357400843 42.0202561146257 A6.74 6.74 0 0 0 286.532020721296 40.2071203807811 L286.527466228667 40.2053468595942 A9.45 9.45 0 0 0 285.101618006878 34.029308621361 L285.099352093166 34.0253183758713 A2.98 2.98 0 0 1 287.704513537831 29.4414991705279 L287.71 29.45 L287.71 25 L112.44 25 L112.44 30.53 Z M244.932435240825 90.2932853323809 A7.5 7.5 0 0 1 250.190661059176 93.4482208193885 L250.177328729931 93.4545337155329 A1.46 1.46 0 0 1 248.403587438425 95.6313979867504 L248.402160527178 95.6382365877484 A15.04 15.04 0 0 1 244.521087663914 93.212566020711 L244.527506968332 93.2155978547774 A1.75 1.75 0 0 1 244.932003459212 90.3032230447271 L244.93 90.2999999999999 Z M259.08 47.3599999999999 L261.26 47.3599999999999 L261.75 47.9200000000001 L265.15 47.3599999999999 L266.69 49.7 L266.892703539811 51.0191639648912 A4.2 4.2 0 0 1 271.288808698466 54.3881636991206 L271.292406994278 54.396525491735 A0.63 0.63 0 0 1 272.183543411042 53.6674138874316 L272.178525043019 53.6683642691631 A12.45 12.45 0 0 1 271.693431881274 57.3065631609052 L271.694271034816 57.3061590196665 A5.78 5.78 0 0 0 269.025369503144 57.4679106389178 L269.029708950337 57.4651917163164 A1.25 1.25 0 0 1 266.651169428154 58.2230971612615 L266.650128201369 58.22514889708 A3.54 3.54 0 0 0 263.886444090858 55.9824295781834 L263.886442589949 55.9788532363872 A0.93 0.93 0 0 1 263.212628810495 54.6163736498272 L263.206748214802 54.6073034899939 A0.77 0.77 0 0 0 262.128601539011 53.5829008632515 L262.126426916893 53.5767554513158 A4.27 4.27 0 0 1 258.529271588366 51.8522436086271 L258.528307646264 51.8561508791369 A7.85 7.85 0 0 0 255.927521094711 50.5086205434887 L255.927056370412 50.503572588632 A10.03 10.03 0 0 0 255.765242547268 56.8952198856091 L255.7629557198 56.896673307709 A216.98 216.98 0 0 0 251.719271099725 54.6322099053136 L251.717580444255 54.633298158783 A1.8 1.8 0 0 1 250.100821938356 56.3308945883578 L250.1 56.3299999999999 L250.912169439654 47.1978835542736 A2.04 2.04 0 0 1 254.221471681084 49.054321422011 L254.223285155299 49.056542463076 A2.03 2.03 0 0 0 253.414850652045 45.7419609987087 L253.419908778109 45.7374330855471 A10.08 10.08 0 0 1 255.441354371531 37.4899352405247 L255.438390492425 37.493365035831 A4.7 4.7 0 0 1 258.844204135996 41.2463214779521 L258.853564804795 41.239598993536 A5.46 5.46 0 0 1 257.597581318665 45.7241673796573 L257.594908833883 45.7287743950477 A2.11 2.11 0 0 0 257.463383709113 48.3228050890576 L257.467107004599 48.3193069190017 A2.87 2.87 0 0 0 259.08251453925 47.3500624186126 Z M270.4 33.45 L274.847310609174 36.3559689450695 A3.77 3.77 0 0 0 275.936073268541 31.9470178365518 L275.940012588465 31.9409368781815 A3.33 3.33 0 0 0 270.398413512364 33.4398794216503 L270.4 33.45 Z M224.901321919038 84.7587776373023 A23.8 23.8 0 0 1 205.702746751738 70.4815415120136 L205.706035416181 70.4861976887449 A200.96 200.96 0 0 1 208.293930752731 30.4546900666692 L208.29 30.45 L217.756986298108 30.4559381469818 A69.8 69.8 0 0 1 219.961640600281 49.9595144998937 L219.966798386575 49.9546044906995 A7.88 7.88 0 0 1 214.525016637458 57.22433746073 L214.522794043166 57.2218517151494 A94.76 94.76 0 0 0 223.8229118465 69.3524401811859 L223.814645436214 69.3483858672624 A28.33 28.33 0 0 1 220.073892352757 75.0329008497658 L220.075117627097 75.0390662722618 A3.19 3.19 0 0 0 220.605981406758 79.6594556445834 L220.608662070595 79.6541346821557 A14.49 14.49 0 0 1 224.902128492122 84.7637579776824 L224.9 84.76 Z" style="fill:rgb(0,0,0);"/>
<path d=" M177.232131645659 89.0898269402134 A11.4 11.4 0 0 0 166.802697236791 79.5497243104411 L166.800414192493 79.5429278645002 A5.56 5.56 0 0 0 161.379969414272 86.9589457928187 L161.387234252396 86.9575654960122 A4.45 4.45 0 0 0 156.174984448191 90.5722806519578 L156.174388789323 90.5688978631475 A20.3 20.3 0 0 0 160.282584736961 104.039342212573 L160.281882493821 104.040769797885 A16.68 16.68 0 0 0 165.670087884165 125.404873990074 L165.666720147215 125.39871902817 A8.37 8.37 0 0 0 175.698200200224 131.708843546232 L175.707351220123 131.704799103788 A8.28 8.28 0 0 0 180.557163656441 135.018837614348 L180.549524539739 135.020693702039 A12.61 12.61 0 0 0 195.678452117488 144.486386351435 L195.673671143553 144.484522830349 A8.38 8.38 0 0 0 209.265119317075 141.814774090836 L209.261185339933 141.808654933685 A12.59 12.59 0 0 0 227.451110440024 127.256714725578 L227.461079090286 127.257596734222 A6.4 6.4 0 0 0 230.856455304539 119.173367759182 L230.86010426759 119.173387112574 A14.02 14.02 0 0 0 240.240579794284 105.426138318219 L240.233890388783 105.422215849977 A5.79 5.79 0 0 1 242.256980748319 100.809569781092 L242.26140616539 100.811503480319 A9.91 9.91 0 0 0 239.753088886264 89.2408786889206 L239.754051275475 89.2446270360493 A4.16 4.16 0 0 0 233.115426563892 90.9447626391287 L233.124608270493 90.945268682645 A10.9 10.9 0 0 0 220.181685678994 95.9606511867815 L220.187101555389 95.961302171837 A14.45 14.45 0 0 0 200.453458293354 92.3543105418147 L200.447951038819 92.3539698490136 A2.49 2.49 0 0 1 197.212586750324 91.9383473761333 L197.212336389712 91.93141907844 A17.07 17.07 0 0 0 186.978557932061 91.4056496702932 L186.975318050051 91.4097192505143 A3.45 3.45 0 0 1 183.787202758914 90.6209043448944 L183.788269022733 90.626196804936 A14.47 14.47 0 0 0 177.239754323502 89.0901254166297 L177.24 89.0899999999999 Z" style="fill:rgb(0,0,0);"/>
</g>
</svg>