<svg xmlns:xlink="http://www.w3.org/1999/xlink" xmlns="http://www.w3.org/2000/svg" width="400" height="200"  viewBox="-0.000001341104507446289 -0.0000152587890625 400.0000305175781 200.00001525878906"><rect id="svgEditorBackground" x="-0.0000013411046211331268" y="-0.000015258790881489404" width="400.0000305175781" height="200.00001525878906" style="fill:none;stroke:none;"/>
<!--Gegenereerd door de SIMaD-toepassing (http://www.dlw.be).-->
<g style="stroke:none;fill-rule:evenodd;" transform="matrix(1,0,0,-1,0,200)">

<path d=" M202.81 122.81 L210.3 122.81 L211.85 128.28 L241.72 128.28 L248.08 116.3 L264.56 116.3 L270.13 104.91 L320.97 104.91 L325.69 95.14 L379.782545702886 95.1484686281538 A204.6 204.6 0 0 1 354.454567376824 50.004501157325 L354.46 50 L27.8533173718862 50.0016014536643 A69.39 69.39 0 0 1 24.0168452181122 66.3926904748573 L24.0171522908858 66.3923649929591 A62.26 62.26 0 0 0 20.6413959348082 95.146510052597 L20.64 95.14 L66.66 95.14 L104.18 116.3 L117.37 116.3 L96.28 147.87 L100.15 150 L123.67 116.3 L165.14 116.3 L162.78 122.81 L170.33 122.81 L153.97 146.74 L179.65 146.74 Z M220.280000277865 61.6419849749751 A7.09 7.09 0 1 1 234.459999722135 61.6419849749751 L234.47 61.64 L238.56 61.64 L238.155403198001 62.1261678155569 A1.44 1.44 0 0 0 238.234246531003 64.0606581127363 L238.234652716174 64.0568212220854 A7.49 7.49 0 0 0 240.202461701047 65.4902754655606 L240.197125001987 65.4914340139518 A0.95 0.95 0 0 1 240.56812938281 65.8247432792331 L240.574829989408 65.8206774329169 A0.22 0.22 0 0 1 240.521349880835 66.1164857184158 L240.515724171291 66.1107348619832 A3.29 3.29 0 0 0 239.275725117133 68.003861624747 L239.289148605746 68.0051834185623 A2.27 2.27 0 0 0 239.51621682416 69.6234057781505 L239.511416279271 69.6265148545436 A18.57 18.57 0 0 0 240.795939559957 71.6236090988536 L240.792343393194 71.6233502212776 A4.29 4.29 0 0 1 241.517540409918 73.1941638849176 L241.528396308492 73.195451278851 A2.35 2.35 0 0 1 241.215517908496 75.0027250265515 L241.21 75 L219.73 75 L209.72 88.42 L174.09 88.42 L163.7 74.88 L147.626482382876 74.8810911050586 A1.56 1.56 0 0 1 145.993340749166 73.8615173016392 L145.992857088539 73.8709523275233 A6.9 6.9 0 0 1 145.5802496961 71.5787004585319 L145.581808474627 71.5703230535345 A4.91 4.91 0 0 1 147.110763833111 67.658397047301 L147.108574048354 67.6605039621932 A12.11 12.11 0 0 1 147.502308259963 62.4849395553178 L147.504205230863 62.4844818980718 A7.95 7.95 0 0 1 147.896811237783 61.8545619457254 L147.903205290916 61.8604208006679 A1.08 1.08 0 0 1 148.419890877002 61.6404827017795 L148.41 61.64 L160.70004697499 61.6457725464616 A7.07 7.07 0 1 1 174.83995302501 61.6457725464616 L174.84 61.64 Z M320.560000277865 61.6419849749751 A7.09 7.09 0 1 1 334.739999722135 61.6419849749751 L334.75 61.64 L338.85 61.64 L338.435403198001 62.1261678155569 A1.44 1.44 0 0 0 338.514246531003 64.0606581127363 L338.514652716174 64.0568212220854 A7.49 7.49 0 0 0 340.482461701047 65.4902754655606 L340.477125001987 65.4914340139518 A0.95 0.95 0 0 1 340.84812938281 65.8247432792331 L340.864829989408 65.8206774329169 A0.22 0.22 0 0 1 340.811349880835 66.1164857184158 L340.805724171291 66.1107348619832 A3.29 3.29 0 0 0 339.565725117133 68.003861624747 L339.569148605746 68.0051834185623 A2.27 2.27 0 0 0 339.79621682416 69.6234057781505 L339.791416279271 69.6265148545436 A18.57 18.57 0 0 0 341.075939559956 71.6236090988536 L341.072343393194 71.6233502212776 A4.29 4.29 0 0 1 341.797540409918 73.1941638849176 L341.808396308492 73.195451278851 A2.35 2.35 0 0 1 341.495517908496 75.0027250265515 L341.49 75 L320.01 75 L310 88.42 L274.37 88.42 L263.98 74.88 L247.906482382876 74.8810911050586 A1.56 1.56 0 0 1 246.273340749166 73.8615173016392 L246.272857088539 73.8709523275233 A6.9 6.9 0 0 1 245.8602496961 71.5787004585319 L245.861808474627 71.5703230535345 A4.91 4.91 0 0 1 247.390763833111 67.658397047301 L247.388574048354 67.6605039621932 A12.11 12.11 0 0 1 247.782308259963 62.4849395553178 L247.784205230863 62.4844818980718 A7.95 7.95 0 0 1 248.176811237783 61.8545619457254 L248.183205290916 61.8604208006679 A1.08 1.08 0 0 1 248.699890877002 61.6404827017795 L248.7 61.64 L260.98004697499 61.6457725464616 A7.07 7.07 0 1 1 275.11995302501 61.6457725464616 L275.12 61.64 Z M119.660000277865 61.6419849749751 A7.09 7.09 0 1 1 133.839999722135 61.6419849749751 L133.84 61.64 L137.94 61.64 L137.525403198001 62.1261678155569 A1.44 1.44 0 0 0 137.604246531003 64.0606581127363 L137.614652716174 64.0568212220854 A7.49 7.49 0 0 0 139.582461701047 65.4902754655606 L139.577125001987 65.4914340139518 A0.95 0.95 0 0 1 139.94812938281 65.8247432792331 L139.954829989408 65.8206774329169 A0.22 0.22 0 0 1 139.901349880835 66.1164857184158 L139.895724171291 66.1107348619832 A3.29 3.29 0 0 0 138.655725117133 68.003861624747 L138.659148605746 68.0051834185623 A2.27 2.27 0 0 0 138.88621682416 69.6234057781505 L138.881416279271 69.6265148545436 A18.57 18.57 0 0 0 140.165939559957 71.6236090988536 L140.162343393194 71.6233502212776 A4.29 4.29 0 0 1 140.887540409918 73.1941638849176 L140.898396308492 73.195451278851 A2.35 2.35 0 0 1 140.585517908496 75.0027250265515 L140.58 75 L119.11 75 L109.09 88.42 L73.46 88.42 L63.07 74.88 L46.9964823828762 74.8810911050586 A1.56 1.56 0 0 1 45.3633407491655 73.8615173016392 L45.3628570885395 73.8709523275233 A6.9 6.9 0 0 1 44.9502496961 71.5787004585319 L44.9518084746273 71.5703230535345 A4.91 4.91 0 0 1 46.4807638331111 67.658397047301 L46.478574048354 67.6605039621932 A12.11 12.11 0 0 1 46.8723082599635 62.4849395553178 L46.874205230863 62.4844818980718 A7.95 7.95 0 0 1 47.2668112377826 61.8545619457254 L47.2732052909162 61.8604208006679 A1.08 1.08 0 0 1 47.7898908770025 61.6404827017795 L47.79 61.64 L60.0700469749899 61.6457725464616 A7.07 7.07 0 1 1 74.2099530250101 61.6457725464616 L74.21 61.64 Z M106.33 85.47 L112.85 75.1 L94.17 75.1 L94.17 85.47 Z M91.29 85.47 L91.29 75.1 L70.52 75.1 L79.02 85.47 Z M307.23 85.47 L313.76 75.1 L295.08 75.1 L295.08 85.47 Z M292.19 85.47 L292.19 75.1 L271.43 75.1 L279.93 85.47 Z M206.95 85.47 L213.48 75.1 L194.8 75.1 L194.8 85.47 Z M191.91 85.47 L191.91 75.1 L171.15 75.1 L179.65 85.47 Z" style="fill:rgb(0,0,0);"/>
</g>
</svg>