<svg xmlns:xlink="http://www.w3.org/1999/xlink" xmlns="http://www.w3.org/2000/svg" width="400" height="200"  viewBox="-0.000001341104507446289 -0.0000152587890625 400.0000305175781 200.00001525878906"><rect id="svgEditorBackground" x="-0.0000013411046211331268" y="-0.000015258790881489404" width="400.0000305175781" height="200.00001525878906" style="fill:none;stroke:none;"/>
<!--Gegenereerd door de SIMaD-toepassing (http://www.dlw.be).-->
<g style="stroke:none;fill-rule:evenodd;" transform="matrix(1,0,0,-1,0,200)">

<path d=" M259.87 102.75 L224.99 80.12 L208.5 102.75 L175 80.12 L160.25 102.75 L137.5 87.5 L137.378964669697 140.494213222689 A50 50 0 0 1 149.129057877063 149.993695334788 L149.12200805443 149.994173569307 A31.24 31.24 0 0 1 178.106530653874 154.617666382827 L178.114342680536 154.616191060232 A31.25 31.25 0 0 1 194.015546796228 160.77929462402 L194.012436722487 160.785410185947 A8.75 8.75 0 0 1 192.5514180409 174.989731152568 L192.54610607691 174.989790908754 A28.75 28.75 0 0 1 171.362881933171 166.491141021325 L171.362791707716 166.497431880193 A42.5 42.5 0 0 1 144.739637609411 156.746942842754 L144.74967918361 156.747310846932 A20.58 20.58 0 0 1 128.127988488667 137.123360599966 L128.12 137.12 L125 25 L274.99 25 L274.99 80.12 Z" style="fill:rgb(0,0,0);"/>
</g>
</svg>