<?xml version="1.0" encoding="UTF-8" standalone="no"?>
<svg
   xmlns:dc="http://purl.org/dc/elements/1.1/"
   xmlns:cc="http://creativecommons.org/ns#"
   xmlns:rdf="http://www.w3.org/1999/02/22-rdf-syntax-ns#"
   xmlns:svg="http://www.w3.org/2000/svg"
   xmlns="http://www.w3.org/2000/svg"
   xmlns:sodipodi="http://sodipodi.sourceforge.net/DTD/sodipodi-0.dtd"
   xmlns:inkscape="http://www.inkscape.org/namespaces/inkscape"
   width="519.615242270664"
   height="600"
   id="svg2"
   version="1.1"
   inkscape:version="0.48.5 r10040"
   sodipodi:docname="TR-AUTO-NO.svg">
  <metadata
     id="metadata56">
    <rdf:RDF>
      <cc:Work
         rdf:about="">
        <dc:format>image/svg+xml</dc:format>
        <dc:type
           rdf:resource="http://purl.org/dc/dcmitype/StillImage" />
        <dc:title />
      </cc:Work>
    </rdf:RDF>
  </metadata>
  <defs
     id="defs54" />
  <sodipodi:namedview
     pagecolor="#ffffff"
     bordercolor="#666666"
     borderopacity="1"
     objecttolerance="10"
     gridtolerance="10"
     guidetolerance="10"
     inkscape:pageopacity="0"
     inkscape:pageshadow="2"
     inkscape:window-width="1920"
     inkscape:window-height="1018"
     id="namedview52"
     showgrid="false"
     inkscape:zoom="3.1466667"
     inkscape:cx="289.82808"
     inkscape:cy="191.07"
     inkscape:window-x="-8"
     inkscape:window-y="-8"
     inkscape:window-maximized="1"
     inkscape:current-layer="g4" />
  <!--Gegenereerd door de SIMaD-toepassing (http://www.dlw.be).-->
  <g
     style="stroke:none;fill-rule:evenodd;"
     transform="matrix(1,0,0,-1,0,600)"
     id="g4">
    <path
       d=" M0 150 L259.81 0 L519.62 150 L519.62 450 L259.81 600 L0 450 Z"
       style="fill:rgb(255,255,255);stroke:rgb(0,0,0);"
       id="path6" />
    <path
       d=" M10 155.77 L259.81 11.55 L509.62 155.77 L509.62 444.23 L259.81 588.45 L10 444.23 Z"
       style="fill:rgb(0,0,255);"
       id="path8" />
    <path
       d=" M20 161.55 L259.81 23.09 L499.62 161.55 L499.62 438.45 L259.81 576.91 L20 438.45 Z"
       style="fill:rgb(255,255,255);"
       id="path10" />
    <path
       d="m 254.5067,400.3033 -42.42641,-42.42641 21.2132,-21.21321 42.42642,42.42642 31.8198,-31.81981 0,84.85282 -84.85281,0 z"
       style="fill:#0000ff"
       id="path38"
       inkscape:connector-curvature="0" />
    <path
       d=" M205 130 L209.31 154.1 L214.66 154.1 L213.885789777987 149.690728431856 A9.23 9.23 0 0 0 215.857959081141 152.76941845112 L215.862812493148 152.765180928568 A5.73 5.73 0 0 0 217.712812350827 154.042391107038 L217.711837587079 154.046749823301 A8.74 8.74 0 0 0 220.932147638082 154.756762916202 L220.932553570266 154.757040568959 A7.99 7.99 0 0 0 222.662612597017 154.615514841701 L222.67 154.62 L221.537944075983 148.174341397385 A6.94 6.94 0 0 1 217.677124645637 148.410853022705 L217.67868767239 148.415454709848 A5.11 5.11 0 0 1 214.501135732113 146.192583212554 L214.49196906629 146.19269463325 A12.99 12.99 0 0 1 212.520504584576 140.700724673958 L212.52 140.7 L210.63 130 Z"
       style="fill:rgb(0,0,255);"
       id="path40" />
    <path
       d=" M224.43434738851 135.212092678285 A17.2 17.2 0 0 0 226.929624346371 150.311163904968 L226.926681955301 150.315774303703 A10.78 10.78 0 0 0 232.924029881456 154.434396774301 L232.923085351075 154.42779960475 A10.98 10.98 0 0 0 240.248236763692 153.812773206064 L240.244809625369 153.814275425548 A7.48 7.48 0 0 0 243.583639210542 150.832396025047 L243.581603323857 150.826063361355 A10.61 10.61 0 0 0 245.071723125665 145.80900688149 L245.081550099942 145.813991367166 A23.65 23.65 0 0 0 243.833466731402 137.244365312287 L243.830750120825 137.246397918843 A11.75 11.75 0 0 0 234.532097612802 129.432137996624 L234.533124536563 129.431935846602 A10.08 10.08 0 0 0 229.304975208689 129.999899186959 L229.300349184744 130.004650626905 A8.25 8.25 0 0 0 224.431077669357 135.211580875981 Z M239.278029629027 146.524561245372 A3.9 3.9 0 0 1 235.455909220414 149.789913936524 L235.460027412137 149.789900259355 A4.52 4.52 0 0 1 231.592658894189 147.65855882022 L231.587908292525 147.660209369949 A14.95 14.95 0 0 1 229.333874129035 139.419674495138 L229.339054369988 139.416970028337 A5.02 5.02 0 0 1 231.029752746425 135.206054700953 L231.031626104147 135.213867778204 A3.44 3.44 0 0 1 233.443490231873 134.362993955001 L233.442307840447 134.354221266123 A4.85 4.85 0 0 1 237.226454061218 136.437630723854 L237.225524383797 136.438067188328 A14.44 14.44 0 0 1 239.277576780105 146.519501201322 Z"
       style="fill:rgb(0,0,255);"
       id="path42" />
    <path
       d=" M261.99 130 L262.636957442936 133.36579574256 A9.71 9.71 0 0 0 259.821452757908 130.61977982926 L259.820224701418 130.611329142222 A8.26 8.26 0 0 0 256.43774340221 129.379302592145 L256.440255905117 129.386869432309 A7.97 7.97 0 0 0 252.778414733287 129.766991360897 L252.77463382215 129.760791563401 A4.65 4.65 0 0 0 249.797799963919 133.02636712651 L249.793834091432 133.024803379468 A11.94 11.94 0 0 0 249.470669139048 136.765241746163 L249.474093229813 136.771869412582 A9.38 9.38 0 0 0 249.635639813739 137.956917005498 L249.64 137.95 L252.5 154.1 L258.13 154.1 L255.307981521397 137.666206047708 A2.64 2.64 0 0 1 256.152672685819 135.249872920131 L256.16264292629 135.25226018205 A2.61 2.61 0 0 1 257.973816277825 134.59104404845 L257.97159625753 134.592144218561 A5.36 5.36 0 0 1 260.227063532948 135.160882633684 L260.222611472463 135.161949617009 A3.68 3.68 0 0 1 261.147339562567 135.82326804199 L261.154965861496 135.815503008676 A8.16 8.16 0 0 1 262.565110024467 137.662763881885 L262.554728325023 137.672664313791 A9.74 9.74 0 0 1 263.721932293211 141.270510671848 L263.72 141.27 L266.02 154.1 L271.65 154.1 L267.39 130 Z"
       style="fill:rgb(0,0,255);"
       id="path44" />
    <path
       d=" M279.57 149.69 L275.91 149.69 L276.75 154.1 L280.38 154.1 L281.62 161.43 L287.26 161.43 L286.01 154.1 L290.03 154.1 L289.19 149.69 L285.16 149.69 L282.907793555654 136.77120930312 A1.87 1.87 0 0 1 283.309870706812 135.257134702113 L283.3112563239 135.257281638892 A1.18 1.18 0 0 1 284.156940650002 134.831686154551 L284.155854962038 134.829632876218 A48.73 48.73 0 0 1 285.322963808734 134.781193537667 L285.323615761813 134.782748943112 A6.32 6.32 0 0 1 286.852717924213 134.924280723997 L286.85 134.92 L285.89 129.81 L284.562823045078 129.667917903719 A17.39 17.39 0 0 0 281.384676195487 129.62134346793 L281.383100270069 129.617183388096 A5.82 5.82 0 0 0 279.490867822396 130.09075421324 L279.492155254367 130.095721414933 A4.1 4.1 0 0 0 277.440201597575 132.08322559974 L277.442910866896 132.080528922079 A4.64 4.64 0 0 0 277.08059922651 133.167556795099 L277.070627453081 133.174427200522 A6.69 6.69 0 0 0 277.15142935824 136.15859894514 L277.16 136.15 Z"
       style="fill:rgb(0,0,255);"
       id="path46" />
    <path
       d=" M306.56 137.67 L312.190176734563 137.669749184265 A20.35 20.35 0 0 0 310.621050717279 134.072690497435 L310.6276374014 134.067392985361 A8.97 8.97 0 0 0 306.321392862402 130.184385138064 L306.320173260643 130.189003510438 A11.38 11.38 0 0 0 297.827634929726 130.000806296116 L297.834428353256 130.004575472635 A7.39 7.39 0 0 0 293.491203178572 134.40478177199 L293.486885636761 134.405909823585 A17.2 17.2 0 0 0 297.147719596765 152.061815076962 L297.149352939905 152.063678730373 A8.4 8.4 0 0 0 302.50027968483 154.665573802359 L302.492726220711 154.663933117682 A13.68 13.68 0 0 0 306.757809697086 154.380718437859 L306.767522212974 154.387543686556 A7.76 7.76 0 0 0 311.800822639689 150.646747141825 L311.789235246782 150.640813268749 A11.54 11.54 0 0 0 313.277815863529 145.480152257907 L313.283953154912 145.483345886525 A24.67 24.67 0 0 0 313.002079100921 140.464385263505 L313 140.46 L297.915526475471 140.459594575705 A11.44 11.44 0 0 1 297.955113665571 138.047105053423 L297.944596797413 138.043825753364 A4.65 4.65 0 0 1 298.991767385248 135.62835347383 L298.990487191377 135.626582997717 A3.14 3.14 0 0 1 300.360485862445 134.677060520729 L300.366161017714 134.687467247338 A5.63 5.63 0 0 1 303.181618851871 134.451007157982 L303.181594403122 134.45036000977 A3.5 3.5 0 0 1 305.475349878473 135.9189002855 L305.473123709929 135.919835791947 A22.19 22.19 0 0 1 306.559482166353 137.671125360889 Z M298.519123243868 144.624062563415 A12.6 12.6 0 0 0 299.806385671858 147.462913577447 L299.800454350137 147.464797266655 A4.89 4.89 0 0 0 302.940812117624 149.690467791207 L302.936068668913 149.693155785781 A4.77 4.77 0 0 0 306.035907783474 149.314865291135 L306.042877548968 149.314719741339 A2.51 2.51 0 0 0 307.209462321257 148.132213025661 L307.198340588381 148.1348077405 A6.8 6.8 0 0 0 307.840995364917 145.579831321757 L307.851514117996 145.579189469202 A59.27 59.27 0 0 0 307.89268890584 144.632727986205 L307.89 144.63 Z"
       style="fill:rgb(0,0,255);"
       id="path48" />
    <path
       d=" M237.17 122 L229.557450243928 105.669661034631 A235.76 235.76 0 0 0 228.444374970887 103.105387823715 L228.436652041344 103.10437383568 A5.17 5.17 0 0 0 227.466198420906 101.60954526836 L227.469897895995 101.616799079905 A22.13 22.13 0 0 0 225.312746526084 99.4258533761209 L225.313901169851 99.4198850043059 A0.57 0.57 0 0 1 225.140186387157 99.0245755486491 L225.140454238586 99.0237895948958 A161.01 161.01 0 0 1 225.019593922738 89.7881777375287 L225.02016152384 89.789215395719 A14.83 14.83 0 0 1 225.247131021566 87.1344405636908 L225.25337339921 87.1383613107317 A38.1 38.1 0 0 1 227.657719140519 79.9253268887565 L227.65 79.92 L229.13 79.92 L229.13 71.4 L225.25 71.4 L225.25 70 L293.28 70 L293.28 71.4 L289.39 71.4 L289.39 79.92 L290.872280859481 79.9253268887566 A38.1 38.1 0 0 1 293.27662660079 87.1383613107317 L293.272868978434 87.1344405636908 A14.83 14.83 0 0 1 293.49983847616 89.789215395719 L293.500406077262 89.7881777375288 A161.01 161.01 0 0 1 293.379545761414 99.0237895948958 L293.389813612843 99.0245755486491 A0.57 0.57 0 0 1 293.216098830149 99.4198850043059 L293.217253473916 99.4258533761209 A22.13 22.13 0 0 0 291.060102104005 101.616799079905 L291.053801579094 101.60954526836 A5.17 5.17 0 0 0 290.083347958656 103.10437383568 L290.085625029113 103.105387823715 A235.76 235.76 0 0 0 288.972549756072 105.669661034631 L288.97 105.67 L281.35 122 Z M288.07 101.36 L279.75 119.39 L238.77 119.39 L230.153865751946 101.368874868413 A274.57 274.57 0 0 0 288.066134248054 101.368874868413 Z M277.35 93.65 L277.35 92.44 L241.68 92.44 L241.68 93.65 Z M276.75 83.53 L241.78 83.53 L241.78 84.53 L276.75 84.53 Z M283.86 88.13 L234.56 88.13 L234.56 89.04 L283.86 89.04 Z M235.87 71.4 L282.66 71.4 L282.66 79.92 L235.87 79.92 Z M235.86 94.75 A3.4 3.4 0 0 1 229.06 94.75 A3.4 3.4 0 0 1 235.86 94.75 Z M289.46 94.64 A3.4 3.4 0 0 1 282.66 94.64 A3.4 3.4 0 0 1 289.46 94.64 Z"
       style="fill:rgb(0,0,255);"
       id="path50" />
  </g>
</svg>
