<?xml version="1.0" encoding="UTF-8" standalone="no"?>
<svg
   xmlns:dc="http://purl.org/dc/elements/1.1/"
   xmlns:cc="http://creativecommons.org/ns#"
   xmlns:rdf="http://www.w3.org/1999/02/22-rdf-syntax-ns#"
   xmlns:svg="http://www.w3.org/2000/svg"
   xmlns="http://www.w3.org/2000/svg"
   xmlns:sodipodi="http://sodipodi.sourceforge.net/DTD/sodipodi-0.dtd"
   xmlns:inkscape="http://www.inkscape.org/namespaces/inkscape"
   width="519.615242270664"
   height="600"
   id="svg2"
   version="1.1"
   inkscape:version="0.48.5 r10040"
   sodipodi:docname="TR-AUTO-O.svg">
  <metadata
     id="metadata52">
    <rdf:RDF>
      <cc:Work
         rdf:about="">
        <dc:format>image/svg+xml</dc:format>
        <dc:type
           rdf:resource="http://purl.org/dc/dcmitype/StillImage" />
      </cc:Work>
    </rdf:RDF>
  </metadata>
  <defs
     id="defs50" />
  <sodipodi:namedview
     pagecolor="#ffffff"
     bordercolor="#666666"
     borderopacity="1"
     objecttolerance="10"
     gridtolerance="10"
     guidetolerance="10"
     inkscape:pageopacity="0"
     inkscape:pageshadow="2"
     inkscape:window-width="1920"
     inkscape:window-height="1018"
     id="namedview48"
     showgrid="false"
     inkscape:zoom="1.5733333"
     inkscape:cx="187.63635"
     inkscape:cy="141.16392"
     inkscape:window-x="-8"
     inkscape:window-y="-8"
     inkscape:window-maximized="1"
     inkscape:current-layer="svg2" />
  <!--Gegenereerd door de SIMaD-toepassing (http://www.dlw.be).-->
  <g
     style="stroke:none;fill-rule:evenodd;"
     transform="matrix(1,0,0,-1,0,600)"
     id="g4">
    <path
       d=" M0 150 L259.81 0 L519.62 150 L519.62 450 L259.81 600 L0 450 Z"
       style="fill:rgb(255,255,255);stroke:rgb(0,0,0);"
       id="path6" />
    <path
       d=" M10 155.77 L259.81 11.55 L509.62 155.77 L509.62 444.23 L259.81 588.45 L10 444.23 Z"
       style="fill:rgb(0,0,255);"
       id="path8" />
    <path
       d=" M20 161.55 L259.81 23.09 L499.62 161.55 L499.62 438.45 L259.81 576.91 L20 438.45 Z"
       style="fill:rgb(255,255,255);"
       id="path10" />
    <path
       d=" M319.81 387.5 L259.81 447.5 L259.81 402.5 L199.81 402.5 L199.81 372.5 L259.81 372.5 L259.81 327.5 Z"
       style="fill:rgb(0,0,255);"
       id="path34" />
    <path
       d=" M205 120 L209.31 144.1 L214.66 144.1 L213.885789777987 139.690728431856 A9.23 9.23 0 0 0 215.857959081141 142.76941845112 L215.862812493148 142.765180928568 A5.73 5.73 0 0 0 217.712812350827 144.042391107038 L217.711837587079 144.046749823301 A8.74 8.74 0 0 0 220.932147638082 144.756762916202 L220.932553570266 144.757040568959 A7.99 7.99 0 0 0 222.662612597017 144.615514841701 L222.67 144.62 L221.537944075983 138.174341397385 A6.94 6.94 0 0 1 217.677124645637 138.410853022705 L217.67868767239 138.415454709848 A5.11 5.11 0 0 1 214.501135732113 136.192583212554 L214.49196906629 136.19269463325 A12.99 12.99 0 0 1 212.520504584576 130.700724673958 L212.52 130.7 L210.63 120 Z"
       style="fill:rgb(0,0,255);"
       id="path36" />
    <path
       d=" M224.43434738851 125.212092678285 A17.2 17.2 0 0 0 226.929624346371 140.311163904968 L226.926681955301 140.315774303703 A10.78 10.78 0 0 0 232.924029881456 144.434396774301 L232.923085351075 144.42779960475 A10.98 10.98 0 0 0 240.248236763692 143.812773206064 L240.244809625369 143.814275425548 A7.48 7.48 0 0 0 243.583639210542 140.832396025047 L243.581603323857 140.826063361355 A10.61 10.61 0 0 0 245.071723125665 135.80900688149 L245.081550099942 135.813991367166 A23.65 23.65 0 0 0 243.833466731402 127.244365312287 L243.830750120825 127.246397918843 A11.75 11.75 0 0 0 234.532097612802 119.432137996624 L234.533124536563 119.431935846602 A10.08 10.08 0 0 0 229.304975208689 119.999899186959 L229.300349184744 120.004650626905 A8.25 8.25 0 0 0 224.431077669357 125.211580875981 Z M239.278029629027 136.524561245372 A3.9 3.9 0 0 1 235.455909220414 139.789913936524 L235.460027412137 139.789900259355 A4.52 4.52 0 0 1 231.592658894189 137.65855882022 L231.587908292525 137.660209369949 A14.95 14.95 0 0 1 229.333874129035 129.419674495138 L229.339054369988 129.416970028337 A5.02 5.02 0 0 1 231.029752746425 125.206054700953 L231.031626104147 125.213867778204 A3.44 3.44 0 0 1 233.443490231873 124.362993955001 L233.442307840447 124.354221266123 A4.85 4.85 0 0 1 237.226454061218 126.437630723854 L237.225524383797 126.438067188328 A14.44 14.44 0 0 1 239.277576780105 136.519501201322 Z"
       style="fill:rgb(0,0,255);"
       id="path38" />
    <path
       d=" M261.99 120 L262.636957442936 123.36579574256 A9.71 9.71 0 0 0 259.821452757908 120.61977982926 L259.820224701418 120.611329142222 A8.26 8.26 0 0 0 256.43774340221 119.379302592145 L256.440255905117 119.386869432309 A7.97 7.97 0 0 0 252.778414733287 119.766991360897 L252.77463382215 119.760791563401 A4.65 4.65 0 0 0 249.797799963919 123.02636712651 L249.793834091432 123.024803379468 A11.94 11.94 0 0 0 249.470669139048 126.765241746163 L249.474093229813 126.771869412582 A9.38 9.38 0 0 0 249.635639813739 127.956917005498 L249.64 127.95 L252.5 144.1 L258.13 144.1 L255.307981521397 127.666206047708 A2.64 2.64 0 0 1 256.152672685819 125.249872920131 L256.16264292629 125.25226018205 A2.61 2.61 0 0 1 257.973816277825 124.59104404845 L257.97159625753 124.592144218561 A5.36 5.36 0 0 1 260.227063532948 125.160882633684 L260.222611472463 125.161949617009 A3.68 3.68 0 0 1 261.147339562567 125.82326804199 L261.154965861496 125.815503008676 A8.16 8.16 0 0 1 262.565110024467 127.662763881885 L262.554728325023 127.672664313791 A9.74 9.74 0 0 1 263.721932293211 131.270510671848 L263.72 131.27 L266.02 144.1 L271.65 144.1 L267.39 120 Z"
       style="fill:rgb(0,0,255);"
       id="path40" />
    <path
       d=" M279.57 139.69 L275.91 139.69 L276.75 144.1 L280.38 144.1 L281.62 151.43 L287.26 151.43 L286.01 144.1 L290.03 144.1 L289.19 139.69 L285.16 139.69 L282.907793555654 126.77120930312 A1.87 1.87 0 0 1 283.309870706812 125.257134702113 L283.3112563239 125.257281638892 A1.18 1.18 0 0 1 284.156940650002 124.831686154551 L284.155854962038 124.829632876218 A48.73 48.73 0 0 1 285.322963808734 124.781193537667 L285.323615761813 124.782748943112 A6.32 6.32 0 0 1 286.852717924213 124.924280723997 L286.85 124.92 L285.89 119.81 L284.562823045078 119.667917903719 A17.39 17.39 0 0 0 281.384676195487 119.62134346793 L281.383100270069 119.617183388096 A5.82 5.82 0 0 0 279.490867822396 120.09075421324 L279.492155254367 120.095721414933 A4.1 4.1 0 0 0 277.440201597575 122.08322559974 L277.442910866896 122.080528922079 A4.64 4.64 0 0 0 277.08059922651 123.167556795099 L277.070627453081 123.174427200522 A6.69 6.69 0 0 0 277.15142935824 126.15859894514 L277.16 126.15 Z"
       style="fill:rgb(0,0,255);"
       id="path42" />
    <path
       d=" M306.56 127.67 L312.190176734563 127.669749184265 A20.35 20.35 0 0 0 310.621050717279 124.072690497435 L310.6276374014 124.067392985361 A8.97 8.97 0 0 0 306.321392862402 120.184385138064 L306.320173260643 120.189003510438 A11.38 11.38 0 0 0 297.827634929726 120.000806296116 L297.834428353256 120.004575472635 A7.39 7.39 0 0 0 293.491203178572 124.40478177199 L293.486885636761 124.405909823585 A17.2 17.2 0 0 0 297.147719596765 142.061815076962 L297.149352939905 142.063678730373 A8.4 8.4 0 0 0 302.50027968483 144.665573802359 L302.492726220711 144.663933117682 A13.68 13.68 0 0 0 306.757809697086 144.380718437859 L306.767522212974 144.387543686556 A7.76 7.76 0 0 0 311.800822639689 140.646747141825 L311.789235246782 140.640813268749 A11.54 11.54 0 0 0 313.277815863529 135.480152257907 L313.283953154912 135.483345886525 A24.67 24.67 0 0 0 313.002079100921 130.464385263505 L313 130.46 L297.915526475471 130.459594575705 A11.44 11.44 0 0 1 297.955113665571 128.047105053423 L297.944596797413 128.043825753364 A4.65 4.65 0 0 1 298.991767385248 125.62835347383 L298.990487191377 125.626582997717 A3.14 3.14 0 0 1 300.360485862445 124.677060520729 L300.366161017714 124.687467247338 A5.63 5.63 0 0 1 303.181618851871 124.451007157982 L303.181594403122 124.45036000977 A3.5 3.5 0 0 1 305.475349878473 125.9189002855 L305.473123709929 125.919835791947 A22.19 22.19 0 0 1 306.559482166353 127.671125360889 Z M298.519123243868 134.624062563415 A12.6 12.6 0 0 0 299.806385671858 137.462913577447 L299.800454350137 137.464797266655 A4.89 4.89 0 0 0 302.940812117624 139.690467791207 L302.936068668913 139.693155785781 A4.77 4.77 0 0 0 306.035907783474 139.314865291135 L306.042877548968 139.314719741339 A2.51 2.51 0 0 0 307.209462321257 138.132213025661 L307.198340588381 138.1348077405 A6.8 6.8 0 0 0 307.840995364917 135.579831321757 L307.851514117996 135.579189469202 A59.27 59.27 0 0 0 307.89268890584 134.632727986205 L307.89 134.63 Z"
       style="fill:rgb(0,0,255);"
       id="path44" />
    <path
       d=" M237.17 102 L229.557450243928 85.6696610346308 A235.76 235.76 0 0 0 228.444374970887 83.1053878237153 L228.436652041344 83.1043738356802 A5.17 5.17 0 0 0 227.466198420906 81.6095452683595 L227.469897895995 81.6167990799051 A22.13 22.13 0 0 0 225.312746526084 79.4258533761209 L225.313901169851 79.4198850043059 A0.57 0.57 0 0 1 225.140186387157 79.0245755486491 L225.140454238586 79.0237895948958 A161.01 161.01 0 0 1 225.019593922738 69.7881777375287 L225.02016152384 69.789215395719 A14.83 14.83 0 0 1 225.247131021566 67.1344405636908 L225.25337339921 67.1383613107317 A38.1 38.1 0 0 1 227.657719140519 59.9253268887565 L227.65 59.92 L229.13 59.92 L229.13 51.4 L225.25 51.4 L225.25 50 L293.28 50 L293.28 51.4 L289.39 51.4 L289.39 59.92 L290.872280859481 59.9253268887566 A38.1 38.1 0 0 1 293.27662660079 67.1383613107317 L293.272868978434 67.1344405636908 A14.83 14.83 0 0 1 293.49983847616 69.789215395719 L293.500406077262 69.7881777375288 A161.01 161.01 0 0 1 293.379545761414 79.0237895948958 L293.389813612843 79.0245755486491 A0.57 0.57 0 0 1 293.216098830149 79.4198850043059 L293.217253473916 79.4258533761209 A22.13 22.13 0 0 0 291.060102104005 81.6167990799052 L291.053801579094 81.6095452683595 A5.17 5.17 0 0 0 290.083347958656 83.1043738356802 L290.085625029113 83.1053878237153 A235.76 235.76 0 0 0 288.972549756072 85.6696610346308 L288.97 85.67 L281.35 102 Z M288.07 81.36 L279.75 99.39 L238.77 99.39 L230.153865751946 81.3688748684126 A274.57 274.57 0 0 0 288.066134248054 81.3688748684126 Z M277.35 73.65 L277.35 72.44 L241.68 72.44 L241.68 73.65 Z M276.75 63.53 L241.78 63.53 L241.78 64.53 L276.75 64.53 Z M283.86 68.13 L234.56 68.13 L234.56 69.04 L283.86 69.04 Z M235.87 51.4 L282.66 51.4 L282.66 59.92 L235.87 59.92 Z M235.86 74.75 A3.4 3.4 0 0 1 229.06 74.75 A3.4 3.4 0 0 1 235.86 74.75 Z M289.46 74.64 A3.4 3.4 0 0 1 282.66 74.64 A3.4 3.4 0 0 1 289.46 74.64 Z"
       style="fill:rgb(0,0,255);"
       id="path46" />
  </g>
</svg>
