<?xml version="1.0" encoding="UTF-8" standalone="no"?>
<svg
   xmlns:dc="http://purl.org/dc/elements/1.1/"
   xmlns:cc="http://creativecommons.org/ns#"
   xmlns:rdf="http://www.w3.org/1999/02/22-rdf-syntax-ns#"
   xmlns:svg="http://www.w3.org/2000/svg"
   xmlns="http://www.w3.org/2000/svg"
   xmlns:sodipodi="http://sodipodi.sourceforge.net/DTD/sodipodi-0.dtd"
   xmlns:inkscape="http://www.inkscape.org/namespaces/inkscape"
   width="249.56422"
   height="288"
   id="svg2"
   version="1.1"
   inkscape:version="0.48.5 r10040"
   sodipodi:docname="TR-FIETS-NW.svg">
  <metadata
     id="metadata78">
    <rdf:RDF>
      <cc:Work
         rdf:about="">
        <dc:format>image/svg+xml</dc:format>
        <dc:type
           rdf:resource="http://purl.org/dc/dcmitype/StillImage" />
        <dc:title />
      </cc:Work>
    </rdf:RDF>
  </metadata>
  <defs
     id="defs76" />
  <sodipodi:namedview
     pagecolor="#ffffff"
     bordercolor="#666666"
     borderopacity="1"
     objecttolerance="10"
     gridtolerance="10"
     guidetolerance="10"
     inkscape:pageopacity="0"
     inkscape:pageshadow="2"
     inkscape:window-width="1920"
     inkscape:window-height="1138"
     id="namedview74"
     showgrid="false"
     inkscape:zoom="0.86535302"
     inkscape:cx="-73.814255"
     inkscape:cy="136.86054"
     inkscape:window-x="-8"
     inkscape:window-y="-8"
     inkscape:window-maximized="1"
     inkscape:current-layer="svg2"
     fit-margin-top="0"
     fit-margin-left="0"
     fit-margin-right="0"
     fit-margin-bottom="0" />
  <!--Gegenereerd door de SIMaD-toepassing (http://www.dlw.be).-->
  <g
     style="fill-rule:evenodd;stroke:none"
     transform="matrix(1.0521701,0,0,-1.0521701,0.52608505,287.47391)"
     id="g4">
    <path
       d="M 0,68.18 118.09,0 l 118.1,68.18 0,136.36 -118.1,68.18 L 0,204.54 0,68.18 z"
       style="fill:#ffffff;stroke:#000000"
       id="path6"
       inkscape:connector-curvature="0" />
    <path
       d="M 8.18,72.91 118.09,9.45 228,72.91 l 0,126.9 -109.91,63.47 -109.91,-63.47 0,-126.9 z"
       style="fill:#ff0000"
       id="path8"
       inkscape:connector-curvature="0" />
    <path
       d="m 13.64,76.05 104.45,-60.3 104.46,60.3 0,120.62 -104.46,60.31 -104.45,-60.31 0,-120.62 z"
       style="fill:#ff0000"
       id="path10"
       inkscape:connector-curvature="0" />
    <path
       d="m 13.64,76.05 104.45,-60.3 104.46,60.3 0,120.62 -104.46,60.31 -104.45,-60.31 0,-120.62 z"
       style="fill:#ffffff"
       id="path12"
       inkscape:connector-curvature="0" />
    <path
       d="m 115.65,125.5 a 4.85,4.85 0 0 1 -9.7,0 4.85,4.85 0 0 1 9.7,0 z"
       style="fill:#ff0000"
       id="path14"
       inkscape:connector-curvature="0" />
    <path
       d="m 111.3,64.72 a 21.47,21.47 0 0 1 -42.94,0 21.47,21.47 0 0 1 42.94,0 z"
       style="fill:#ff0000"
       id="path16"
       inkscape:connector-curvature="0" />
    <path
       d="m 171.98,64.72 a 21.47,21.47 0 0 1 -42.94,0 21.47,21.47 0 0 1 42.94,0 z"
       style="fill:#ff0000"
       id="path18"
       inkscape:connector-curvature="0" />
    <path
       d="m 122.83,59.17 -5.39,-0.83 -3.32,21.78 18.47,11.15 2.82,-4.67 -15.34,-9.27 2.76,-18.16 z"
       style="fill:#ff0000"
       id="path20"
       inkscape:connector-curvature="0" />
    <path
       d="m 95.02,98.43 -0.41,4.52 10.21,0.93 6.39,10.75 3.91,-2.31 -7.57,-12.76 -12.53,-1.13 z"
       style="fill:#ff0000"
       id="path22"
       inkscape:connector-curvature="0" />
    <path
       d="m 112.19,116.62 26.31,-27.43 5.91,5.66 -26.31,27.43 -5.91,-5.66 z"
       style="fill:#ff0000"
       id="path24"
       inkscape:connector-curvature="0" />
    <path
       d="m 130.03822,231.57296 -32.95118,0 0,-32.95118 8.51357,0 0.007,18.40599 29.253,-29.253 6.02455,6.02455 -29.253,29.253 18.39892,0 0.007,8.52064 z"
       style="fill:#ff0000"
       id="path26"
       inkscape:connector-curvature="0" />
    <path
       d="m 181.37,134.64 2.86,16 2.71,0 -1.53,-8.74 3.89,4.33 3.33,0 -4.41,-4.4 2.53,-7.19 -2.98,0 -1.62,5.19 -1.39,-1.44 -0.68,-3.75 z"
       style="fill:#ff0000"
       id="path62"
       inkscape:connector-curvature="0" />
    <path
       d="m 192.89,134.64 2.07,11.59 2.59,0 -0.31178,-1.64437 a 5.38,5.38 0 0 0 1.31639,1.34345 l 0.008,-0.003 a 3.3,3.3 0 0 0 1.89395,0.61387 l 7e-4,0.01 a 8.91,8.91 0 0 0 0.69689,-0.0224 l -0.004,-0.0124 a 1.97,1.97 0 0 0 1.41109,-0.75085 l -0.003,0.004 a 2.69,2.69 0 0 0 0.54041,-1.24919 l 0.006,-0.004 a 3.95,3.95 0 0 0 1.02494,1.16016 l 0.005,9.4e-4 a 5.76,5.76 0 0 0 0.87023,0.54638 l -0.001,0.006 a 3.23,3.23 0 0 0 3.52329,-0.38717 l -0.005,0.003 a 2.17,2.17 0 0 0 0.65873,-0.93464 l -0.004,-0.002 a 4.25,4.25 0 0 0 0.25116,-1.29743 l -1.2e-4,-0.003 a 4.45,4.45 0 0 0 -0.0967,-1.09153 l -6e-4,0.005 -1.41,-7.88 -2.71,0 1.3021,7.33202 a 5.1,5.1 0 0 1 0.0777,0.84238 l 1.5e-4,-0.006 a 1.27,1.27 0 0 1 -0.50327,1.02383 l -9.2e-4,7e-4 a 1.02,1.02 0 0 1 -0.67652,0.20502 l -0.003,-0.002 a 2.07,2.07 0 0 1 -1.37415,-0.63715 l -0.003,8.6e-4 a 3.65,3.65 0 0 1 -0.85168,-1.45814 l 0.007,0.002 a 30.4,30.4 0 0 1 -0.30988,-1.09191 l -0.005,-0.002 -1.1,-6.21 -2.73,0 1.30096,7.333 a 4.52,4.52 0 0 1 0.0587,1.09329 l -0.002,-5.6e-4 a 0.97,0.97 0 0 1 -0.48633,0.77636 l -0.002,-0.004 a 1.53,1.53 0 0 1 -1.19952,0.13709 l 0.007,7e-4 a 1.75,1.75 0 0 1 -0.85244,-0.56961 l -0.003,-0.003 a 5.51,5.51 0 0 1 -1.16127,-2.54965 l 2.6e-4,-0.004 -1.1,-6.21 z"
       style="fill:#ff0000"
       id="path64"
       inkscape:connector-curvature="0" />
    <path
       d="m 109.03,64.72 a 19.2,19.2 0 0 1 -38.4,0 19.2,19.2 0 0 1 38.4,0 z"
       style="fill:#ff0000"
       id="path66"
       inkscape:connector-curvature="0" />
    <path
       d="m 169.71,64.72 a 19.2,19.2 0 0 1 -38.4,0 19.2,19.2 0 0 1 38.4,0 z"
       style="fill:#ff0000"
       id="path68"
       inkscape:connector-curvature="0" />
    <path
       d="m 109.03,64.72 a 19.2,19.2 0 0 1 -38.4,0 19.2,19.2 0 0 1 38.4,0 z"
       style="fill:#ffffff"
       id="path70"
       inkscape:connector-curvature="0" />
    <path
       d="m 169.71,64.72 a 19.2,19.2 0 0 1 -38.4,0 19.2,19.2 0 0 1 38.4,0 z"
       style="fill:#ffffff"
       id="path72"
       inkscape:connector-curvature="0" />
  </g>
</svg>
