<?xml version="1.0" encoding="UTF-8" standalone="no"?>
<svg
   xmlns:dc="http://purl.org/dc/elements/1.1/"
   xmlns:cc="http://creativecommons.org/ns#"
   xmlns:rdf="http://www.w3.org/1999/02/22-rdf-syntax-ns#"
   xmlns:svg="http://www.w3.org/2000/svg"
   xmlns="http://www.w3.org/2000/svg"
   xmlns:sodipodi="http://sodipodi.sourceforge.net/DTD/sodipodi-0.dtd"
   xmlns:inkscape="http://www.inkscape.org/namespaces/inkscape"
   stroke-miterlimit="10"
   font-weight="normal"
   font-style="normal"
   font-size="12"
   width="129.90381"
   height="150"
   viewBox="0 0 129.90381 150"
   id="svg2"
   version="1.1"
   inkscape:version="0.92.1 r15371"
   sodipodi:docname="TR-RUITER-W.svg"
   style="font-style:normal;font-weight:normal;font-size:12px;font-family:Dialog;color-interpolation:auto;fill:#000000;fill-opacity:1;stroke:#000000;stroke-width:1;stroke-linecap:square;stroke-linejoin:miter;stroke-miterlimit:10;stroke-dasharray:none;stroke-dashoffset:0;stroke-opacity:1;color-rendering:auto;image-rendering:auto;shape-rendering:auto;text-rendering:auto">
  <metadata
     id="metadata61">
    <rdf:RDF>
      <cc:Work
         rdf:about="">
        <dc:format>image/svg+xml</dc:format>
        <dc:type
           rdf:resource="http://purl.org/dc/dcmitype/StillImage" />
        <dc:title></dc:title>
      </cc:Work>
    </rdf:RDF>
  </metadata>
  <sodipodi:namedview
     pagecolor="#ffffff"
     bordercolor="#666666"
     borderopacity="1"
     objecttolerance="10"
     gridtolerance="10"
     guidetolerance="10"
     inkscape:pageopacity="0"
     inkscape:pageshadow="2"
     inkscape:window-width="1920"
     inkscape:window-height="1138"
     id="namedview59"
     showgrid="false"
     inkscape:zoom="4.968421"
     inkscape:cx="19.581001"
     inkscape:cy="69.722741"
     inkscape:window-x="-8"
     inkscape:window-y="-8"
     inkscape:window-maximized="1"
     inkscape:current-layer="g4492"
     fit-margin-top="0"
     fit-margin-left="0"
     fit-margin-right="0"
     fit-margin-bottom="0"
     showborder="false"
     inkscape:showpageshadow="false"
     scale-x="1" />
  <!--Gegenereerd door de Verkeersbordendatabank van de Vlaamse overheid, Mobiliteit en Openbare Werken.-->
  <defs
     id="genericDefs" />
  <g
     id="g3692">
    <g
       id="g4492">
      <path
         d="M 0,112.5 64.951904,150 129.90381,112.5 V 37.500003 L 64.951904,-8.118988e-7 0,37.500003 Z"
         id="path37"
         inkscape:connector-curvature="0"
         style="fill:#6e3b30;stroke:none;stroke-width:1.11447799" />
      <path
         d="M 2.6000772,110.99885 64.951904,146.9977 127.30373,110.99885 V 39.001157 L 64.951904,3.0023082 2.6000772,39.001157 Z"
         id="path39"
         style="fill:#ffffff;stroke:none;stroke-width:1.11447799"
         inkscape:connector-curvature="0" />
      <path
         d="m 57.257504,85.875717 -2.523021,0.0056 v 0.968381 h 2.991121 c -0.217073,1.214971 0.270955,2.448308 1.260603,3.18578 0.989655,0.737462 2.311031,0.852476 3.413217,0.297076 1.102173,-0.5554 1.795946,-1.685871 1.792047,-2.920066 h 0.736255 c -0.0057,-1.897633 -1.346529,-3.528973 -3.207174,-3.901866 -1.860653,-0.372893 -3.726613,0.61576 -4.463048,2.364677 z"
         id="path49"
         inkscape:connector-curvature="0"
         style="fill:#6e3b30;stroke:none;stroke-width:1.11447799" />
      <path
         d="m 70.8054,112.23812 2.684326,-2.67674 c -4.654209,-0.54351 -8.907541,-2.89684 -11.840516,-6.55125 l -9.959222,-3.5e-4 c -0.7329,0.007 -1.413375,-0.37916 -1.784235,-1.01132 -0.37084,-0.63217 -0.375475,-1.41435 -0.01215,-2.050876 0.363339,-0.636523 1.0392,-1.030268 1.772121,-1.032396 h 6.464877 C 52.779711,92.276175 44.118974,89.258013 35.800878,91.133534 V 108.1445 h 2.898937 l 3.311165,-3.30512 1.722308,0.33962 -4.427009,4.43924 H 34.321127 V 89.811563 c 9.465989,-2.644734 19.580575,0.847505 25.398314,8.769225 l 10.127863,-10.115648 11.364853,10.503788 -6.452685,6.452662 -8.356831,-7.738358 -3.972318,3.960098 c 2.953466,3.90782 7.471476,6.32461 12.361385,6.61239 l 6.522707,-6.51632 c 0.79412,-0.79878 2.085171,-0.80336 2.884936,-0.01 0.799765,0.79313 0.805947,2.08417 0.01382,2.88492 l -3.777285,3.76701 h 14.391112 v 1.47973 H 78.968387 l -2.268252,2.25602 6.853045,6.33138 c 0.801561,0.78809 0.815114,2.07592 0.03031,2.8807 -0.784795,0.80478 -2.07256,0.82361 -2.880556,0.0421 L 70.8054,112.23835 Z"
         id="path53"
         inkscape:connector-curvature="0"
         style="fill:#6e3b30;stroke:none;stroke-width:1.11447799;fill-opacity:1" />
      <path
         d="M 60.336612,19.698935 40.819653,39.219146 v 0 l 19.516988,19.516988 v 0 l 5.048736,-5.045484 v 0 L 54.482208,42.78748 v 0 l 34.660266,0 v 0 -7.139814 0 l -34.660318,-5.2e-5 v 0 L 65.38535,24.747672 v 0 z"
         id="path57"
         inkscape:connector-curvature="0"
         style="fill:#6e3b30;stroke:none;stroke-width:1.11447799" />
    </g>
  </g>
</svg>
