<?xml version="1.0" encoding="UTF-8" standalone="no"?>
<svg
   xmlns:dc="http://purl.org/dc/elements/1.1/"
   xmlns:cc="http://creativecommons.org/ns#"
   xmlns:rdf="http://www.w3.org/1999/02/22-rdf-syntax-ns#"
   xmlns:svg="http://www.w3.org/2000/svg"
   xmlns="http://www.w3.org/2000/svg"
   xmlns:sodipodi="http://sodipodi.sourceforge.net/DTD/sodipodi-0.dtd"
   xmlns:inkscape="http://www.inkscape.org/namespaces/inkscape"
   width="149.99999570677"
   height="173.205075799489"
   id="svg3669"
   version="1.1"
   inkscape:version="0.48.5 r10040"
   sodipodi:docname="TR-WANDEL-NO.svg">
  <metadata
     id="metadata3733">
    <rdf:RDF>
      <cc:Work
         rdf:about="">
        <dc:format>image/svg+xml</dc:format>
        <dc:type
           rdf:resource="http://purl.org/dc/dcmitype/StillImage" />
        <dc:title />
      </cc:Work>
    </rdf:RDF>
  </metadata>
  <defs
     id="defs3731" />
  <sodipodi:namedview
     pagecolor="#ffffff"
     bordercolor="#666666"
     borderopacity="1"
     objecttolerance="10"
     gridtolerance="10"
     guidetolerance="10"
     inkscape:pageopacity="0"
     inkscape:pageshadow="2"
     inkscape:window-width="1920"
     inkscape:window-height="1138"
     id="namedview3729"
     showgrid="false"
     inkscape:zoom="1.3625467"
     inkscape:cx="-47.197652"
     inkscape:cy="86.602542"
     inkscape:window-x="-8"
     inkscape:window-y="-8"
     inkscape:window-maximized="1"
     inkscape:current-layer="g3671" />
  <!--Gegenereerd door de SIMaD-toepassing (http://www.dlw.be).-->
  <g
     style="stroke:none;fill-rule:evenodd;"
     transform="matrix(1,0,0,-1,0,173.205075799489)"
     id="g3671">
    <path
       d=" M150 129.9 L75 173.21 L0 129.9 L0 43.3 L75 0 L150 43.3 Z"
       style="fill:rgb(255,255,255);stroke:rgb(0,0,0);"
       id="path3673" />
    <path
       d=" M141.43 124.96 L75 163.31 L8.57 124.96 L8.57 48.25 L75 9.9 L141.43 48.25 Z"
       style="fill:rgb(0,255,0);"
       id="path3675" />
    <path
       d=" M137.14 122.48 L75 158.36 L12.86 122.48 L12.86 50.72 L75 14.85 L137.14 50.72 Z"
       style="fill:rgb(255,255,255);"
       id="path3677" />
    <path
       d=" M47.89 82.17 L47.28 88.69 L48.82 88.69 L49.06 84.1 L50.77 88.69 L52.31 88.69 L52.48 84.14 L54.29 88.69 L55.89 88.69 L53 82.17 L51.41 82.17 L51.2 86.75 L49.48 82.17 Z"
       style="fill:rgb(0,255,0);"
       id="path3679" />
    <path
       d=" M59.37 82.17 L59.3636793132346 82.8087707517695 A2.12 2.12 0 0 0 57.6777939251029 81.9900351390328 L57.6762939213685 82.0000394659977 A2.38 2.38 0 0 0 56.8834395451457 82.140834925097 L56.8850505799569 82.1381704514464 A1.49 1.49 0 0 0 55.9090774624509 83.3757793016117 L55.9040029986769 83.3757564213159 A3.94 3.94 0 0 0 55.8821357983993 83.9397132597375 L55.8910353995933 83.9328820673478 A1.91 1.91 0 0 0 56.3148787000603 85.0710473448059 L56.3082665051594 85.0719641719468 A2.15 2.15 0 0 0 57.3075092181345 85.7621205028857 L57.311749521996 85.7696533390095 A4.79 4.79 0 0 0 58.4974388653438 85.9997913696209 L58.4933005271669 85.9951321380334 A7.1 7.1 0 0 1 59.450594558699 86.1235705207488 L59.4561352429668 86.1229603000254 A1.63 1.63 0 0 1 59.7177379150915 86.1996499932042 L59.7163446685348 86.2003617379087 A0.6 0.6 0 0 1 60.0783835760353 86.6003991260281 L60.0764943010676 86.6026177691239 A0.93 0.93 0 0 1 60.0110423052194 87.2674550118702 L60.0104129745109 87.2713699563216 A0.56 0.56 0 0 1 59.7695352845799 87.5162272020537 L59.7756656269708 87.5062618957516 A1.35 1.35 0 0 1 58.5762471721609 87.5320096941296 L58.5677473398355 87.5380363000397 A0.97 0.97 0 0 1 58.0116601870294 86.7167274767298 L58.02 86.71 L56.5911030572904 86.7195632669741 A2.59 2.59 0 0 0 57.0379171066417 87.9504837761257 L57.0382439592577 87.9419584315047 A1.8 1.8 0 0 0 57.6915332299436 88.5180121435434 L57.6946211823911 88.5122323124535 A3.01 3.01 0 0 0 58.7488231684606 88.8317255733525 L58.7447922524697 88.8432263735446 A4.41 4.41 0 0 0 60.3881399670816 88.7152099615234 L60.3901885067252 88.7138398941652 A1.6 1.6 0 0 0 61.3159038967813 88.0351836224923 L61.3130755317082 88.0305172892264 A1.24 1.24 0 0 0 61.5092491881467 87.4031445208314 L61.5163971659461 87.4070283672066 A5.95 5.95 0 0 0 61.4075309044949 86.0485952323067 L61.4 86.05 L60.914021167291 83.4218243212787 A3.77 3.77 0 0 1 60.8921854949603 82.1675953271746 L60.89 82.17 Z M59.81 85.29 L59.5854341539312 84.3957771191714 A2.08 2.08 0 0 0 59.2374354097872 83.6665937292309 L59.2418992652344 83.6625396413172 A1.15 1.15 0 0 0 58.5666814680602 83.2267688335362 L58.5617561608216 83.2349153700303 A1.5 1.5 0 0 0 57.9182438391784 83.2349153700303 L57.9205720865381 83.2351300472162 A0.65 0.65 0 0 0 57.467079575869 83.6036442779883 L57.4625461036486 83.6048080794827 A0.94 0.94 0 0 0 57.909509083524 84.8356342043051 L57.9084999813619 84.835516799432 A1.24 1.24 0 0 0 58.3006033722062 84.9509673625258 L58.2993983864588 84.9450789687115 A2.07 2.07 0 0 1 58.5172166654437 84.9834166053615 L58.52 84.99 L58.8548611774142 85.0181682058563 A2.83 2.83 0 0 1 59.5066792381999 85.1459756686189 L59.506871185586 85.1428525393614 A1.1 1.1 0 0 1 59.8112699028724 85.296259035475 Z"
       style="fill:rgb(0,255,0);"
       id="path3681" />
    <path
       d=" M62.19 82.17 L63.35 88.69 L64.81 88.69 L64.6396856209589 87.7711602988075 A2.45 2.45 0 0 0 65.4004859525954 88.5131835064502 L65.4015399942262 88.5191728120762 A2.41 2.41 0 0 0 66.304516830858 88.8521255326019 L66.3057943677699 88.85756174502 A1.94 1.94 0 0 0 67.580648056615 88.6138964690378 L67.5798847187452 88.6079217016334 A0.89 0.89 0 0 0 67.8083312440307 88.4161655346962 L67.8080663153475 88.4140681730437 A1.69 1.69 0 0 0 68.1997939661682 87.5054514255129 L68.2020032077862 87.5070122276982 A2.98 2.98 0 0 0 68.2020032077862 86.8529877723018 L68.1934382577703 86.8539420413807 A7.71 7.71 0 0 0 68.0954030269372 86.2138045081451 L68.1 86.22 L67.37 82.17 L65.85 82.17 L66.5874545423211 86.395583013859 A2.17 2.17 0 0 1 66.6199803018192 86.7792460649201 L66.6199941911122 86.7827267824724 A0.64 0.64 0 0 1 66.391310049204 87.2703305450651 L66.3869918229011 87.2582353210345 A0.82 0.82 0 0 1 65.8881269899297 87.4495174631681 L65.8901327798107 87.4493114897172 A1.17 1.17 0 0 1 65.0327672799063 87.1172757498031 L65.0250795765988 87.1298636193063 A2.04 2.04 0 0 1 64.5125952630319 86.3087980002891 L64.5266271501103 86.302763321374 A7.29 7.29 0 0 1 64.3417385122979 85.6376274671414 L64.33 85.64 L63.71 82.17 Z"
       style="fill:rgb(0,255,0);"
       id="path3683" />
    <path
       d=" M72.75 82.17 L72.8768730751917 83.0016452091062 A2.22 2.22 0 0 0 72.376207265875 82.3743328496349 L72.3783287588607 82.3732728400153 A1.4 1.4 0 0 0 71.7145052159413 82.0533275280378 L71.7217377121882 82.0478218058243 A2.87 2.87 0 0 0 70.7518172693157 82.0352103711357 L70.7445281066481 82.0408559698941 A1.7 1.7 0 0 0 69.5357976016551 82.8734025226152 L69.5456586872398 82.8765611439281 A3.28 3.28 0 0 0 69.1104626462638 84.5650885237472 L69.1010311126874 84.5627754222006 A7.31 7.31 0 0 0 69.5146912111701 86.8671004731335 L69.5158612371603 86.8692776572229 A3.1 3.1 0 0 0 71.4082725753293 88.763275307114 L71.4143520142827 88.7676936558068 A1.97 1.97 0 0 0 73.058718114463 88.61391798222 L73.0575473554537 88.6076598739006 A1.35 1.35 0 0 0 73.6768075611245 87.8152201346013 L73.68 87.82 L74.32 91.17 L75.83 91.17 L74.22 82.17 Z M73.3360079770458 86.6508434122156 A1.05 1.05 0 0 1 72.3069755593423 87.5299768290643 L72.3081047439839 87.5399730788526 A1.22 1.22 0 0 1 71.2642574778873 86.9646994864956 L71.2701638462742 86.9549060772304 A4.04 4.04 0 0 1 70.6610469218261 84.7280324388199 L70.6551621400765 84.728382318434 A1.36 1.36 0 0 1 71.1131999293941 83.5875765880218 L71.1167477671028 83.5908421502647 A0.93 0.93 0 0 1 71.7687924173377 83.3608094122533 L71.7646439733991 83.3611401770353 A1.31 1.31 0 0 1 72.7867535711744 83.9238755151028 L72.7922507161113 83.9263810738479 A3.91 3.91 0 0 1 73.3478964827015 86.6561876521586 Z"
       style="fill:rgb(0,255,0);"
       id="path3685" />
    <path
       d=" M79.9 84.24 L81.4197774958279 84.2472295092607 A5.5 5.5 0 0 0 80.9956893830483 83.2750514857933 L81.0032395635899 83.2681566281412 A2.43 2.43 0 0 0 79.8366649560354 82.2162381143251 L79.8325600740579 82.2187285423682 A3.08 3.08 0 0 0 77.5340523359891 82.1677929166992 L77.534838525915 82.1684372050433 A2 2 0 0 0 76.359405461048 83.3592914132583 L76.3576173378454 83.3573535278877 A4.65 4.65 0 0 0 77.3473195421486 88.1306069830159 L77.3486703778078 88.1375655616604 A2.27 2.27 0 0 0 78.7946946291147 88.8406967299232 L78.7953572380577 88.8448357116539 A3.7 3.7 0 0 0 79.9489251373696 88.7682352500058 L79.9547933823771 88.7679177502279 A2.1 2.1 0 0 0 81.3168978792972 87.7555887883805 L81.3142473110884 87.7485907624346 A3.12 3.12 0 0 0 81.7167058487185 86.3533340593301 L81.7129577439507 86.3564214456067 A6.67 6.67 0 0 0 81.6367477747525 84.9994507380453 L81.64 85 L77.5622969238816 84.9953974859202 A3.09 3.09 0 0 1 77.5729896177111 84.3437722565627 L77.5693746160733 84.346585042847 A1.26 1.26 0 0 1 77.8531240656802 83.6920699735539 L77.8477433479842 83.6949667350509 A0.85 0.85 0 0 1 78.2186028608529 83.4379303957387 L78.2267965802709 83.4357105179313 A1.52 1.52 0 0 1 78.9869201873614 83.371870493807 L78.9805756237046 83.373669145509 A0.95 0.95 0 0 1 79.6031663955856 83.7722729346356 L79.6063155592417 83.7738312190935 A6 6 0 0 1 79.9000582694059 84.2473660281809 Z M77.7140246239358 86.1232740747021 A3.41 3.41 0 0 0 78.062402788971 86.8915662935789 L78.0744784748836 86.8896385259682 A1.32 1.32 0 0 0 78.9221824121192 87.4904330233934 L78.9184965582596 87.4911050238276 A1.29 1.29 0 0 0 79.7568178282352 87.388800047288 L79.7587875431466 87.3908404080121 A0.68 0.68 0 0 0 80.0748344137269 87.0704800228882 L80.0736686297972 87.0760068003705 A1.84 1.84 0 0 0 80.2475634516833 86.3846602400049 L80.2487729257883 86.3846753364486 A16.03 16.03 0 0 0 80.2599089448391 86.1286979858084 L80.26 86.13 Z"
       style="fill:rgb(0,255,0);"
       id="path3687" />
    <path
       d=" M82.44 82.17 L84.07 91.17 L85.6 91.17 L83.96 82.17 Z"
       style="fill:rgb(0,255,0);"
       id="path3689" />
    <path
       d=" M85.25 79.88 L86.85 88.69 L88.32 88.69 L88.1683221417736 87.8797618385203 A2.61 2.61 0 0 0 88.6802114373911 88.4819845514537 L88.6777087809965 88.4859897544132 A1.53 1.53 0 0 0 89.5924836898989 88.8574949739578 L89.595179179905 88.852992249706 A4.28 4.28 0 0 0 90.084820820095 88.852992249706 L90.0835341960983 88.8470364330135 A1.81 1.81 0 0 0 91.2568719258419 88.3228476468376 L91.2620718284305 88.3287738801548 A2.03 2.03 0 0 0 91.8054042121967 87.3576304079457 L91.8018103919051 87.3592869341717 A5.51 5.51 0 0 0 91.2142457980967 83.3392406395041 L91.2167970663319 83.3320944111871 A2.72 2.72 0 0 0 89.6611559763553 82.0906637190332 L89.6668277403179 82.0889257827216 A2.23 2.23 0 0 0 88.2382491924869 82.1278000355839 L88.2347273102071 82.1302191748497 A1.46 1.46 0 0 0 87.3553154430924 83.0371299557527 L87.35 83.04 L86.78 79.88 Z M90.3660079770458 86.6408434122156 A1.05 1.05 0 0 1 89.3369755593423 87.5199768290643 L89.3381047439839 87.5199730788525 A1.22 1.22 0 0 1 88.2942574778873 86.9446994864955 L88.3001638462742 86.9449060772304 A4.04 4.04 0 0 1 87.6910469218261 84.7180324388199 L87.6851621400765 84.718382318434 A1.36 1.36 0 0 1 88.1431999472387 83.5775765723697 L88.1467477671028 83.5808421502646 A0.93 0.93 0 0 1 88.7987924173377 83.3508094122533 L88.7946439733991 83.3511401770353 A1.31 1.31 0 0 1 89.8167535711744 83.9138755151028 L89.8222507161113 83.9063810738479 A3.91 3.91 0 0 1 90.3778964827015 86.6361876521586 Z"
       style="fill:rgb(0,255,0);"
       id="path3691" />
    <path
       d=" M96.26 82.17 L96.2536793132346 82.8087707517695 A2.12 2.12 0 0 0 94.5677939251029 81.9900351390328 L94.5662939213685 82.0000394659977 A2.38 2.38 0 0 0 93.7734395451458 82.140834925097 L93.7750505799569 82.1381704514464 A1.49 1.49 0 0 0 92.7990774624509 83.3757793016117 L92.7940029986769 83.3757564213159 A3.94 3.94 0 0 0 92.7721357983993 83.9397132597375 L92.7810353995933 83.9328820673478 A1.91 1.91 0 0 0 93.2048787000603 85.0710473448059 L93.1982665051594 85.0719641719468 A2.15 2.15 0 0 0 94.1975092181345 85.7621205028857 L94.201749521996 85.7696533390095 A4.79 4.79 0 0 0 95.3874388653438 85.9997913696209 L95.3833005271669 85.9951321380334 A7.1 7.1 0 0 1 96.340594558699 86.1235705207488 L96.3461352429668 86.1229603000254 A1.63 1.63 0 0 1 96.6077379150915 86.1996499932042 L96.6063446685348 86.2003617379087 A0.6 0.6 0 0 1 96.9683835760353 86.6003991260281 L96.9664943010677 86.6026177691239 A0.93 0.93 0 0 1 96.9010423052195 87.2674550118702 L96.900412974511 87.2713699563216 A0.56 0.56 0 0 1 96.6595352845799 87.5162272020537 L96.6656656269708 87.5062618957516 A1.35 1.35 0 0 1 95.4662471721609 87.5320096941296 L95.4577473398355 87.5380363000397 A0.97 0.97 0 0 1 94.9016601870294 86.7167274767298 L94.91 86.71 L93.4811030572904 86.7195632669741 A2.59 2.59 0 0 0 93.9279171066417 87.9504837761257 L93.9282439592577 87.9419584315047 A1.8 1.8 0 0 0 94.5815332299436 88.5180121435434 L94.5846211823911 88.5122323124535 A3.01 3.01 0 0 0 95.6388231684606 88.8317255733525 L95.6347922524697 88.8432263735446 A4.41 4.41 0 0 0 97.2781399670817 88.7152099615234 L97.2801885067252 88.7138398941652 A1.6 1.6 0 0 0 98.2059038967813 88.0351836224923 L98.2030755317082 88.0305172892264 A1.24 1.24 0 0 0 98.3992491881467 87.4031445208314 L98.4063971659461 87.4070283672066 A5.95 5.95 0 0 0 98.2975309044949 86.0485952323067 L98.29 86.05 L97.804021167291 83.4218243212787 A3.77 3.77 0 0 1 97.7821854949603 82.1675953271746 L97.78 82.17 Z M96.7 85.29 L96.4754341539312 84.3957771191714 A2.08 2.08 0 0 0 96.1274354097872 83.6665937292309 L96.1318992652344 83.6625396413172 A1.15 1.15 0 0 0 95.4566814680602 83.2267688335362 L95.4517561608216 83.2349153700303 A1.5 1.5 0 0 0 94.8082438391784 83.2349153700303 L94.8105720865381 83.2351300472162 A0.65 0.65 0 0 0 94.3570795758691 83.6036442779883 L94.3525461036486 83.6048080794827 A0.94 0.94 0 0 0 94.7995090835241 84.8356342043051 L94.7984999813619 84.835516799432 A1.24 1.24 0 0 0 95.1906033722062 84.9509673625258 L95.1893983864588 84.9450789687115 A2.07 2.07 0 0 1 95.4072166654437 84.9834166053615 L95.41 84.99 L95.7448611774142 85.0181682058563 A2.83 2.83 0 0 1 96.3966792381999 85.1459756686189 L96.396871185586 85.1428525393614 A1.1 1.1 0 0 1 96.7012699028724 85.296259035475 Z"
       style="fill:rgb(0,255,0);"
       id="path3693" />
    <path
       d=" M102.95 82.17 L103.076873075192 83.0016452091062 A2.22 2.22 0 0 0 102.576207265875 82.3743328496349 L102.578328758861 82.3732728400153 A1.4 1.4 0 0 0 101.914505215941 82.0533275280378 L101.921737712188 82.0478218058243 A2.87 2.87 0 0 0 100.951817269316 82.0352103711357 L100.944528106648 82.0408559698941 A1.7 1.7 0 0 0 99.7357976016551 82.8734025226152 L99.7456586872398 82.8765611439281 A3.28 3.28 0 0 0 99.3104626462638 84.5650885237472 L99.3010311126874 84.5627754222006 A7.31 7.31 0 0 0 99.7146912111701 86.8671004731335 L99.7158612371603 86.8692776572229 A3.1 3.1 0 0 0 101.608272575329 88.763275307114 L101.614352014283 88.7676936558068 A1.97 1.97 0 0 0 103.258718114463 88.61391798222 L103.257547355454 88.6076598739006 A1.35 1.35 0 0 0 103.876807561125 87.8152201346013 L103.88 87.82 L104.52 91.17 L106.03 91.17 L104.42 82.17 Z M103.536007977046 86.6508434122156 A1.05 1.05 0 0 1 102.506975559342 87.5299768290643 L102.508104743984 87.5399730788526 A1.22 1.22 0 0 1 101.464257477887 86.9646994864956 L101.470163846274 86.9549060772304 A4.04 4.04 0 0 1 100.861046921826 84.7280324388199 L100.855162140076 84.728382318434 A1.36 1.36 0 0 1 101.313199929394 83.5875765880218 L101.316747767103 83.5908421502647 A0.93 0.93 0 0 1 101.968792417338 83.3608094122533 L101.964643973399 83.3611401770353 A1.31 1.31 0 0 1 102.986753571174 83.9238755151028 L102.992250716111 83.9263810738479 A3.91 3.91 0 0 1 103.547896482702 86.6561876521586 Z"
       style="fill:rgb(0,255,0);"
       id="path3695" />
    <path
       d="m 85.21597,125.02288 0,17.91809 -17.918086,0 0,-4.63862 10.005561,0.007 -15.909903,-15.9099 3.280976,-3.28098 15.909902,15.9099 -0.0071,-10.00556 4.638621,0 z"
       style="fill:#00ff00"
       id="path3707"
       inkscape:connector-curvature="0" />
    <path
       d=" M69.3 29.27 L69.05 40.07 L74.28 46.42 L76.7 44.42 L72.21 38.97 L72.45 29.34 L69.3 29.27 Z"
       style="fill:rgb(0,255,0);"
       id="path3709" />
    <path
       d=" M74.91 29.01 L74.91 41.79 L78.05 41.79 L78.05 29.01 L74.91 29.01 Z"
       style="fill:rgb(0,255,0);"
       id="path3711" />
    <path
       d=" M76.94 49.25 L72.21 49.25 L72.21 64.1 L76.94 64.1 L76.94 49.25 Z"
       style="fill:rgb(0,255,0);"
       id="path3713" />
    <path
       d=" M82.48 51.87 L82.54 57.14 L78.64 60.28 L80.12 62.12 L84.92 58.26 L84.84 51.84 L82.48 51.87 Z"
       style="fill:rgb(0,255,0);"
       id="path3715" />
    <path
       d=" M59.35 56.54 L65.87 56.72 L68.53 59.98 L70.36 58.48 L67.02 54.39 L59.41 54.18 L59.35 56.54 Z"
       style="fill:rgb(0,255,0);"
       id="path3717" />
    <path
       d=" M77.39 70.02 A3.29 3.29 0 0 1 70.81 70.02 A3.29 3.29 0 0 1 77.39 70.02 Z"
       style="fill:rgb(0,255,0);"
       id="path3719" />
    <path
       d=" M115 55 L116.2 55 L116.2 56.85 L117.75 55 L119.32 55 L117.06 57.7 L119.32 60.14 L117.68 60.14 L116.2 58.54 L116.2 62.2 L115 62.2 Z"
       style="fill:rgb(0,255,0);"
       id="path3725" />
    <path
       d=" M120.18 55 L121.38 55 L121.38 58.3999998348919 A0.86 0.86 0 0 0 123.1 58.4000001651081 L123.09 58.4 L123.09 55 L124.29 55 L124.29 58.3999998348919 A0.86 0.86 0 0 0 126.01 58.4000001651081 L126.01 55 L127.21 55 L127.21 58.5900001179843 A1.69 1.69 0 0 1 124.065798193238 59.4510441946902 L124.054202347772 59.4510432809881 A1.69 1.69 0 0 1 121.381595787609 59.7611495101942 L121.38 59.77 L121.38 60.14 L120.18 60.14 Z"
       style="fill:rgb(0,255,0);"
       id="path3727" />
  </g>
</svg>
