<?xml version="1.0" encoding="UTF-8"?><!DOCTYPE svg PUBLIC '-//W3C//DTD SVG 1.0//EN' 'http://www.w3.org/TR/2001/REC-SVG-20010904/DTD/svg10.dtd'><svg xmlns:xlink="http://www.w3.org/1999/xlink" xmlns="http://www.w3.org/2000/svg"><!--Gegenereerd door de SIMaD (http://www.dlw.be).-->
<g style="stroke:none;fill-rule:evenodd;" transform="matrix(1,0,0,-1,0,500.000000000078)">
<path d=" M2935 500 L65.0000045378561 500 A65 65 0 0 1 1.56319401867222E-13 434.999995462144 L1.56319401867222E-13 65.0000045378561 A65 65 0 0 1 65.0000045378561 1.56319401867222E-13 L2934.99999546214 1.56319401867222E-13 A65 65 0 0 1 3000 65.0000045378561 L3000 434.999987520896 A65 65 0 0 1 2935.00000453786 500 Z" style="fill:rgb(255,255,255);stroke:rgb(0,0,0);" />
<path d=" M3000 250 L2750 500 L2500 500 L2750 250 L2500 0 L2750 0 Z" style="fill:rgb(255,0,0);" />
<path d=" M2500 250 L2250 500 L2000 500 L2250 250 L2000 0 L2250 0 Z" style="fill:rgb(255,0,0);" />
<path d=" M2000 250 L1750 500 L1500 500 L1750 250 L1500 0 L1750 0 Z" style="fill:rgb(255,0,0);" />
<path d=" M0 250 L250 500 L500 500 L250 250 L500 0 L250 0 Z" style="fill:rgb(255,0,0);" />
<path d=" M500 250 L750 500 L1000 500 L750 250 L1000 0 L750 0 Z" style="fill:rgb(255,0,0);" />
<path d=" M1000 250 L1250 500 L1500 500 L1250 250 L1500 0 L1250 0 Z" style="fill:rgb(255,0,0);" />
</g>
</svg>
