<?xml version="1.0" encoding="UTF-8"?>
<!DOCTYPE svg PUBLIC '-//W3C//DTD SVG 1.0//EN' 'http://www.w3.org/TR/2001/REC-SVG-20010904/DTD/svg10.dtd'>
<svg xmlns:xlink="http://www.w3.org/1999/xlink" xmlns="http://www.w3.org/2000/svg" width="200" height="449.999999999999">
<!--Gegenereerd door de SIMaD-toepassing (http://www.dlw.be).-->
<g style="stroke:none;fill-rule:evenodd;" transform="matrix(1,0,0,-1,0,449.999999999999)">
<path d=" M0 420.75 L7.105427357601E-14 29.2500020420352 A29.25 29.25 0 0 1 29.2500020420352 7.105427357601E-14 L170.749997957965 7.105427357601E-14 A29.25 29.25 0 0 1 200 29.2500020420352 L199.999999999999 420.749994384403 A29.25 29.25 0 0 1 170.750002042035 450 L29.2500020420352 450 A29.25 29.25 0 0 1 7.105427357601E-14 420.749997957965 Z" style="fill:rgb(255,255,255);stroke:rgb(0,0,0);" />
<path d=" M0 216.37 L200 351.37 L200 233.63 L0 98.63 Z" style="fill:rgb(255,0,0);" />
<path d=" M200 115.9 L199.999999999999 29.2500056155969 A29.25 29.25 0 0 0 170.750002042035 7.105427357601E-14 L29.2499994894912 3.5527136788005E-15 A29.25 29.25 0 0 0 20.453856312983 1.35393654586098 L20.45 1.35 Z" style="fill:rgb(255,0,0);" />
<path d=" M0 334.1 L7.105427357601E-14 420.749997957965 A29.25 29.25 0 0 0 29.2500020420352 450 L170.750000510509 450 A29.25 29.25 0 0 0 179.546143687017 448.646063454139 L179.55 448.65 Z" style="fill:rgb(255,0,0);" />
</g>
</svg>
