<?xml version="1.0" encoding="UTF-8"?>
<!DOCTYPE svg PUBLIC '-//W3C//DTD SVG 1.0//EN' 'http://www.w3.org/TR/2001/REC-SVG-20010904/DTD/svg10.dtd'>
<svg xmlns:xlink="http://www.w3.org/1999/xlink" xmlns="http://www.w3.org/2000/svg" width="300" height="1100">
<!--Gegenereerd door de SIMaD-toepassing (http://www.dlw.be).-->
<g style="stroke:none;fill-rule:evenodd;" transform="matrix(1,0,0,-1,0,1100)">
<path d=" M0 65 L1.56319401867222E-13 1034.99999546214 A65 65 0 0 0 65.0000045378561 1100 L234.999995462144 1100 A65 65 0 0 0 300 1034.99999546214 L299.999999999999 65.0000124791042 A65 65 0 0 0 235.000004537856 1.56319401867222E-13 L65.0000045378561 1.56319401867222E-13 A65 65 0 0 0 1.56319401867222E-13 65.0000045378561 Z" style="fill:rgb(255,255,255);stroke:rgb(0,0,0);" />
<path d=" M0 498.99 L300 798.99 L300 996.98 L0 696.98 Z" style="fill:rgb(255,0,0);" />
<path d=" M0 103.02 L300 403.02 L300 601.01 L0 301.01 Z" style="fill:rgb(255,0,0);" />
<path d=" M300 205.03 L94.97 0 L234.999995462144 1.56319401867222E-13 A65 65 0 0 1 300 65.0000045378561 Z" style="fill:rgb(255,0,0);" />
<path d=" M0 1035 L0 894.97 L205.03 1100 L65.0000045378561 1100 A65 65 0 0 1 1.56319401867222E-13 1034.99999546214 Z" style="fill:rgb(255,0,0);" />
</g>
</svg>
