<?xml version="1.0" encoding="UTF-8"?>
<!DOCTYPE svg PUBLIC '-//W3C//DTD SVG 1.0//EN' 'http://www.w3.org/TR/2001/REC-SVG-20010904/DTD/svg10.dtd'>
<svg xmlns:xlink="http://www.w3.org/1999/xlink" xmlns="http://www.w3.org/2000/svg" width="300.000000000002" height="1000">
<!--Gegenereerd door de SIMaD-toepassing (http://www.dlw.be).-->
<g style="stroke:none;fill-rule:evenodd;" transform="matrix(1,0,0,-1,0,1000)">
<path d=" M65.0000045378561 1000 A65 65 0 0 1 1.56319401867222E-13 934.999995462144 L1.56319401867222E-13 65.0000045378561 A65 65 0 0 1 65.0000045378561 1.56319401867222E-13 L234.999995462144 1.56319401867222E-13 A65 65 0 0 1 300 65.0000045378561 L299.999999999999 934.999987520896 A65 65 0 0 1 235.000004537856 1000 Z" style="fill:rgb(255,255,255);stroke:rgb(0,0,0);" />
<path d=" M0 742.44 L1.56319401867222E-13 934.999995462144 A65 65 0 0 0 65.0000045378561 1000 L235.000001134464 1000 A65 65 0 0 0 254.546985971149 996.991252120309 L254.55 996.99 Z" style="fill:rgb(255,0,0);" />
<path d=" M0 480.81 L300 780.81 L300 519.19 L0 219.19 Z" style="fill:rgb(255,0,0);" />
<path d=" M300 257.56 L299.999999999999 65.0000124791042 A65 65 0 0 0 235.000004537856 1.56319401867222E-13 L64.999998865536 1.4210854715202E-14 A65 65 0 0 0 45.4530140288511 3.00874787969107 L45.45 3.01 Z" style="fill:rgb(255,0,0);" />
</g>
</svg>
