<?xml version="1.0" encoding="UTF-8"?>
<!DOCTYPE svg PUBLIC '-//W3C//DTD SVG 1.0//EN' 'http://www.w3.org/TR/2001/REC-SVG-20010904/DTD/svg10.dtd'>
<svg xmlns:xlink="http://www.w3.org/1999/xlink" xmlns="http://www.w3.org/2000/svg" width="500" height="780">
<!--Gegenereerd door de SIMaD-toepassing (http://www.dlw.be).-->
<g style="stroke:none;fill-rule:evenodd;" transform="matrix(1,0,0,-1,0,780)">
<path d=" M267.75 780 L400 30 L100 30 L232.25 780 Z" style="fill:rgb(255,0,0);" />
<path d=" M126.45 180 L100 30 L0 15 L0 0 L500 0 L500 15 L400 30 L373.55 180 Z" style="fill:rgb(255,0,0);" />
<path d=" M347.1 330 L320.65 480 L179.35 480 L152.9 330 Z" style="fill:rgb(255,0,0);" />
<path d=" M294.2 630 L267.75 780 L232.25 780 L205.8 630 Z" style="fill:rgb(255,0,0);" />
<path d=" M184.11 484 L315.89 484 L290.85 626 L209.15 626 Z" style="fill:rgb(255,255,255);" />
<path d=" M131.22 184 L368.78 184 L343.75 326 L156.25 326 Z" style="fill:rgb(255,255,255);" />
</g>
</svg>
