<?xml version="1.0" encoding="UTF-8"?>
<!DOCTYPE svg PUBLIC '-//W3C//DTD SVG 1.0//EN' 'http://www.w3.org/TR/2001/REC-SVG-20010904/DTD/svg10.dtd'>
<svg xmlns:xlink="http://www.w3.org/1999/xlink" xmlns="http://www.w3.org/2000/svg" width="200" height="450">
<!--Gegenereerd door de SIMaD-toepassing (http://www.dlw.be).-->
<g style="stroke:none;fill-rule:evenodd;" transform="matrix(1,0,0,-1,0,450)">
<path d=" M7.105427357601E-14 420.749997957965 A29.25 29.25 0 0 0 29.2500020420352 450 L170.749997957965 450 A29.25 29.25 0 0 0 200 420.749997957965 L199.999999999999 29.2500056155969 A29.25 29.25 0 0 0 170.750002042035 7.105427357601E-14 L29.2500020420352 7.105427357601E-14 A29.25 29.25 0 0 0 7.105427357601E-14 29.2500020420352 Z" style="fill:rgb(255,255,255);stroke:rgb(0,0,0);" />
<path d=" M0 115.9 L7.105427357601E-14 29.2500020420352 A29.25 29.25 0 0 1 29.2500020420352 7.105427357601E-14 L170.750000510509 3.5527136788005E-15 A29.25 29.25 0 0 1 179.546143687017 1.35393654586098 L179.55 1.35 Z" style="fill:rgb(255,0,0);" />
<path d=" M200 334.1 L199.999999999999 420.749994384403 A29.25 29.25 0 0 1 170.750002042035 450 L29.2499994894912 450 A29.25 29.25 0 0 1 20.453856312983 448.646063454139 L20.45 448.65 Z" style="fill:rgb(255,0,0);" />
<path d=" M200 216.37 L0 351.37 L0 233.63 L200 98.63 Z" style="fill:rgb(255,0,0);" />
</g>
</svg>
