<?xml version="1.0" encoding="UTF-8"?>
<!DOCTYPE svg PUBLIC '-//W3C//DTD SVG 1.0//EN' 'http://www.w3.org/TR/2001/REC-SVG-20010904/DTD/svg10.dtd'>
<svg xmlns:xlink="http://www.w3.org/1999/xlink" xmlns="http://www.w3.org/2000/svg" width="300.000000000001" height="1100">
<!--Gegenereerd door de SIMaD-toepassing (http://www.dlw.be).-->
<g style="stroke:none;fill-rule:evenodd;" transform="matrix(1,0,0,-1,0,1100)">
<path d=" M0 1035 L1.56319401867222E-13 65.0000045378561 A65 65 0 0 1 65.0000045378561 1.56319401867222E-13 L234.999995462144 1.56319401867222E-13 A65 65 0 0 1 300 65.0000045378561 L299.999999999999 1034.9999875209 A65 65 0 0 1 235.000004537856 1100 L65.0000045378561 1100 A65 65 0 0 1 1.56319401867222E-13 1034.99999546214 Z" style="fill:rgb(255,255,255);stroke:rgb(0,0,0);" />
<path d=" M300 159 L150 309 L0 159 L0 316 L150 466 L300 316 Z" style="fill:rgb(255,0,0);" />
<path d=" M300 473 L150 623 L0 473 L0 630 L150 780 L300 630 Z" style="fill:rgb(255,0,0);" />
<path d=" M300 787 L150 937 L0 787 L0 944 L150 1094 L300 944 Z" style="fill:rgb(255,0,0);" />
<path d=" M19.0380560141257 19.0380624316233 A65 65 0 0 1 65.0000045378561 1.56319401867222E-13 L234.999995462144 1.56319401867222E-13 A65 65 0 0 1 280.961943985874 19.0380624316233 L280.96 19.04 L150 150 Z" style="fill:rgb(255,0,0);" />
</g>
</svg>
