<?xml version="1.0" encoding="UTF-8"?>
<!DOCTYPE svg PUBLIC '-//W3C//DTD SVG 1.0//EN' 'http://www.w3.org/TR/2001/REC-SVG-20010904/DTD/svg10.dtd'>
<svg xmlns:xlink="http://www.w3.org/1999/xlink" xmlns="http://www.w3.org/2000/svg" width="899.999999999998" height="899.999999999999">
<!--Gegenereerd door de SIMaD-toepassing (http://www.dlw.be).-->
<g style="stroke:none;fill-rule:evenodd;" transform="matrix(1,0,0,-1,0,899.999999999999)">
<path d=" M83.57 0 L816.429994165713 1.98951966012828E-13 A83.57 83.57 0 0 1 900 83.5700058342866 L899.999999999998 816.429983955712 A83.57 83.57 0 0 1 816.430005834287 900 L83.5700058342866 900 A83.57 83.57 0 0 1 1.98951966012828E-13 816.429994165713 L1.98951966012828E-13 83.5700058342866 A83.57 83.57 0 0 1 83.5700058342866 1.98951966012828E-13 Z" style="fill:rgb(255,255,255);stroke:rgb(0,0,0);" />
<path d=" M450 900 L0 450 L450 0 L816.429994165713 1.98951966012828E-13 A83.57 83.57 0 0 1 875.522917829223 24.477090421704 L875.52 24.48 L450 450 L875.522925048784 875.522902358734 A83.57 83.57 0 0 1 816.430005834287 900 Z" style="fill:rgb(255,0,0);" />
</g>
</svg>
