<?xml version="1.0" encoding="UTF-8" standalone="no"?>
<svg
   xmlns:dc="http://purl.org/dc/elements/1.1/"
   xmlns:cc="http://creativecommons.org/ns#"
   xmlns:rdf="http://www.w3.org/1999/02/22-rdf-syntax-ns#"
   xmlns:svg="http://www.w3.org/2000/svg"
   xmlns="http://www.w3.org/2000/svg"
   shape-rendering="crispEdges"
   viewBox="0 0 130 280"
   version="1.1"
   id="svg89"
   width="130"
   height="280">
  <metadata
     id="metadata39">
    <rdf:RDF>
      <cc:Work
         rdf:about="">
        <dc:format>image/svg+xml</dc:format>
        <dc:type
           rdf:resource="http://purl.org/dc/dcmitype/StillImage" />
        <dc:title></dc:title>
      </cc:Work>
    </rdf:RDF>
  </metadata>
  <defs
     id="defs37" />
  <g
     style="fill-rule:evenodd;stroke:none"
     transform="matrix(3.7506757,0,0,-3.7111199,1.8753414,278.14447)"
     id="g80">
    <path
       d="M 34.010183,3.0660829 A 2.6430728,3.4158384 0 0 0 31.367111,-0.34975674 H 2.293309 A 2.6430728,3.4158384 0 0 0 -0.34976428,3.0660829 V 71.382848 A 2.6430728,3.4158384 0 0 0 2.293309,74.798695 h 29.073802 a 2.6430728,3.4158384 0 0 0 2.643072,-3.415847 z"
       style="fill:#ffffff;stroke:#000000;stroke-width:0.30047145"
       id="path6" />
    <path
       d="M 31.382294,4.0254502 A 1.3229167,1.7473163 0 0 0 30.059377,2.2781332 H 3.6010426 A 1.3229167,1.7473163 0 0 0 2.2781256,4.0254488 V 70.423461 a 1.3229167,1.7473163 0 0 0 1.322917,1.747321 H 30.059377 a 1.3229167,1.7473163 0 0 0 1.322917,-1.747321 z"
       style="fill:#ff0000;stroke-width:0.3040759"
       id="path8" />
    <path
       d="m 28.207357,65.079968 a 6.0139955,6.0139791 0 0 1 -12.027991,0 6.0139955,6.0139791 0 0 1 12.027991,0 z"
       style="fill:#ffffff;stroke-width:0.26458365"
       id="path10" />
    <path
       d="m 8.6387226,62.193378 -0.04763,2.05845 0.9948355,1.20915 0.4630229,-0.38101 -0.8546069,-1.03981 0.04498,-1.83355 z"
       style="fill:#ffffff;stroke-width:0.26458365"
       id="path12" />
    <path
       d="m 9.7076414,62.143098 v 2.43417 h 0.6006056 v -2.43417 z"
       style="fill:#ffffff;stroke-width:0.26458365"
       id="path14" />
    <path
       d="M 10.093935,66.000738 H 9.194348 v 2.82838 h 0.899587 z"
       style="fill:#ffffff;stroke-width:0.26458365"
       id="path16" />
    <path
       d="m 11.149624,66.498138 0.01323,1.00542 -0.746126,0.59531 0.283103,0.3519 0.915463,-0.73554 -0.01587,-1.22237 z"
       style="fill:#ffffff;stroke-width:0.26458365"
       id="path18" />
    <path
       d="m 6.7443008,67.389788 1.2408982,0.0317 0.5080023,0.62177 0.3466048,-0.28575 -0.6350026,-0.78052 -1.4499197,-0.0371 z"
       style="fill:#ffffff;stroke-width:0.26458365"
       id="path20" />
    <path
       d="m 10.181247,69.956248 a 0.6270643,0.62706259 0 0 1 -1.2541286,0 0.6270643,0.62706259 0 0 1 1.2541286,0 z"
       style="fill:#ffffff;stroke-width:0.26458365"
       id="path22" />
    <path
       d="m 3.5481256,58.732618 h 0.3333759 v 0.67998 l 0.5371053,-0.67998 h 0.4233351 l -0.7408369,0.93928 0.6932118,0.87841 H 4.3709817 l -0.4894802,-0.61912 v 0.61912 H 3.5481256 Z"
       style="fill:#ffffff;stroke-width:0.26458365"
       id="path32" />
    <path
       d="m 5.1144626,58.732618 h 0.3042718 l -0.0026,0.8599 a 0.21695906,0.21695847 0 0 0 0.4339181,0 v -0.8599 h 0.3042708 v 0.90752 a 0.42862611,0.42862495 0 0 1 -0.7376439,0.29704 l -5.55e-4,-8e-4 0.0026,0.0953 H 5.1144526 Z"
       style="fill:#ffffff;stroke-width:0.26458365"
       id="path34" />
    <path
       d="m 6.4797171,59.547528 v -0.33071 a 0.51858477,0.51858335 0 0 1 1.0371687,0 h 0.0026 l -0.0026,0.33071 a 0.51858477,0.51858335 0 0 1 -1.0371687,0 z m 0.3042708,0.045 -0.0026,-0.42069 a 0.2169589,0.21695831 0 0 1 0.4339171,0 v 0.42069 a 0.2169589,0.21695831 0 0 1 -0.4339171,0 z"
       style="fill:#ffffff;stroke-width:0.26458365"
       id="path36" />
    <path
       d="m 7.8290946,59.547528 v -0.33071 a 0.51858483,0.51858341 0 0 1 1.0371696,0 h 0.0027 l -0.0027,0.33071 a 0.51858483,0.51858341 0 0 1 -1.0371696,0 z m 0.3042717,0.045 -0.0027,-0.42069 a 0.21695906,0.21695847 0 0 1 0.4339181,0 v 0.42069 a 0.21695906,0.21695847 0 0 1 -0.4339181,0 z"
       style="fill:#ffffff;stroke-width:0.26458365"
       id="path38" />
    <path
       d="m 9.2313901,58.214038 h 0.3042718 l -0.0021,0.61314 a 0.42862611,0.42862495 0 0 1 0.7376331,0.29704 v 0.51592 a 0.42862611,0.42862495 0 0 1 -0.7376431,0.29704 l -5.56e-4,-8e-4 0.0027,0.0953 H 9.2314241 Z m 0.7355429,0.95779 v 0.42069 a 0.21695896,0.21695837 0 0 1 -0.4339171,0 h 0.0027 l -0.0027,-0.42069 a 0.21695896,0.21695837 0 0 1 0.4339171,0 z"
       style="fill:#ffffff;stroke-width:0.26458365"
       id="path40" />
    <path
       d="m 10.633685,58.214038 h 0.304272 l -0.0021,0.61314 a 0.42862611,0.42862495 0 0 1 0.737633,0.29704 v 0.51592 a 0.42862611,0.42862495 0 0 1 -0.737644,0.29704 l -5.55e-4,-8e-4 0.0026,0.0953 h -0.304272 z m 0.735544,0.95779 v 0.42069 a 0.21695896,0.21695837 0 0 1 -0.433917,0 h 0.0027 l -0.0027,-0.42069 a 0.21695896,0.21695837 0 0 1 0.433917,0 z"
       style="fill:#ffffff;stroke-width:0.26458365"
       id="path42" />
    <path
       d="m 12.734484,58.732618 h 0.304271 v 1.29911 h -0.304271 v -0.8599 a 0.216959,0.21695841 0 0 0 -0.433918,0 h 0.0027 v 0.8599 h -0.304277 v -0.90751 a 0.42862611,0.42862495 0 0 1 0.737643,-0.29704 l -0.0021,6.9e-4 z"
       style="fill:#ffffff;stroke-width:0.26458365"
       id="path44" />
    <path
       d="m 13.472673,58.732618 h 0.304272 l -0.0027,0.8599 a 0.21695924,0.21695865 0 0 0 0.433918,0 v -0.8599 h 0.304272 v 0.90752 a 0.42862611,0.42862495 0 0 1 -0.737644,0.29704 l -5.56e-4,-8e-4 0.0026,0.0953 h -0.304272 z"
       style="fill:#ffffff;stroke-width:0.26458365"
       id="path46" />
    <path
       d="m 14.80353,59.772438 h 0.150812 v -0.70115 a 0.33866756,0.33866663 0 0 1 0.338669,-0.33867 h 0.26723 v 0.2593 l -0.224897,0.003 a 0.07672937,0.07672916 0 0 0 -0.07674,0.0767 v 0.70115 h 0.301627 v 0.25929 h -0.301627 v 0.51859 l -0.304272,-0.17462 v -0.34436 h -0.150808 z"
       style="fill:#ffffff;stroke-width:0.26458365"
       id="path48" />
    <path
       d="M 3.8656274,39.785818 H 29.79486 V 24.545816 H 3.8656274 Z"
       style="fill:#ffffff;stroke-width:0.26458365"
       id="path50" />
    <path
       d="M 3.8656274,57.459978 H 29.79486 V 41.373308 H 3.8656274 Z"
       style="fill:#ffffff;stroke-width:0.26458365"
       id="path52" />
    <path
       d="m 17.481122,32.165814 a 6.0139962,6.0139798 0 0 1 -12.0279925,0 6.0139962,6.0139798 0 0 1 12.0279925,0 z"
       style="fill:#ff0000;stroke-width:0.26458365"
       id="path54" />
    <path
       d="m 28.207357,49.416648 a 6.0139955,6.0139791 0 0 1 -12.027991,0 6.0139955,6.0139791 0 0 1 12.027991,0 z"
       style="fill:#ff0000;stroke-width:0.26458365"
       id="path56" />
    <path
       d="m 25.696455,28.617753 3.471343,3.471332 -3.471343,3.471333 -0.896942,-0.896938 1.939402,-1.939394 h -6.164807 v -1.270001 h 6.164807 l -1.939402,-1.939394 z"
       style="fill:#ff0000;stroke-width:0.26458365"
       id="path58" />
    <path
       d="m 12.221647,50.250943 -3.4321069,3.505658 -3.4321165,-3.505658 0.8874828,-0.906499 1.9163192,1.957392 v -6.225151 h 1.2566192 v 6.225151 l 1.9163292,-1.957392 z"
       style="fill:#ff0000;stroke-width:0.26458365"
       id="path60" />
    <path
       d="m 27.598814,65.079968 a 5.405452,5.4054372 0 0 1 -10.810904,0 5.405452,5.4054372 0 0 1 10.810904,0 z"
       style="fill:#ff0000;stroke-width:0.26458365"
       id="path62" />
    <path
       d="m 16.872578,32.165814 a 5.4054525,5.4054377 0 0 1 -10.810905,0 5.4054525,5.4054377 0 0 1 10.810905,0 z"
       style="fill:#ffffff;stroke-width:0.26458365"
       id="path64" />
    <path
       d="m 27.598814,49.416648 a 5.405452,5.4054372 0 0 1 -10.810904,0 5.405452,5.4054372 0 0 1 10.810904,0 z"
       style="fill:#ffffff;stroke-width:0.26458365"
       id="path66" />
    <path
       d="M 3.8656129,22.958284 H 29.794845 V 7.7182815 H 3.8656129 Z"
       style="fill:#ffffff;fill-rule:evenodd;stroke:none;stroke-width:0.26458365"
       id="path50-0" />
    <path
       d="m 28.207395,15.33828 a 6.014001,6.0139831 0 0 1 -12.028002,0 6.014001,6.0139829 0 0 1 12.028002,0 z"
       style="fill:#ff0000;fill-rule:evenodd;stroke:none;stroke-width:0.26458365"
       id="path54-7" />
    <path
       d="m 7.9665678,18.732883 -3.4713426,-3.47133 3.4713426,-3.471333 0.8969426,0.896938 -1.9394022,1.939394 h 6.1647978 v 1.269999 H 6.9241082 l 1.9394022,1.939394 z"
       style="fill:#ff0000;fill-rule:evenodd;stroke:none;stroke-width:0.26458365"
       id="path58-0" />
    <path
       d="m 27.598851,15.33828 a 5.4054565,5.4054405 0 0 1 -10.810913,0 5.4054565,5.405441 0 0 1 10.810913,0 z"
       style="fill:#ffffff;fill-rule:evenodd;stroke:none;stroke-width:0.26458365"
       id="path64-6" />
  </g>
</svg>
