<?xml version="1.0" encoding="UTF-8" standalone="no"?>
<svg
   xmlns:dc="http://purl.org/dc/elements/1.1/"
   xmlns:cc="http://creativecommons.org/ns#"
   xmlns:rdf="http://www.w3.org/1999/02/22-rdf-syntax-ns#"
   xmlns:svg="http://www.w3.org/2000/svg"
   xmlns="http://www.w3.org/2000/svg"
   height="217"
   width="130"
   id="svg89"
   version="1.1"
   viewBox="0 0 130 217"
   shape-rendering="crispEdges">
  <defs
     id="defs34" />
  <metadata
     id="metadata95">
    <rdf:RDF>
      <cc:Work
         rdf:about="">
        <dc:format>image/svg+xml</dc:format>
        <dc:type
           rdf:resource="http://purl.org/dc/dcmitype/StillImage" />
        <dc:title></dc:title>
      </cc:Work>
    </rdf:RDF>
  </metadata>
  <g
     id="g80"
     transform="matrix(3.7506758,0,0,-3.71112,1.8753412,215.14447)"
     style="fill-rule:evenodd;stroke:none">
    <path
       id="path6"
       style="fill:#ffffff;stroke:#000000;stroke-width:0.26458332"
       d="M 34.028127,2.2781332 A 2.6458334,2.645833 0 0 0 31.382294,-0.36770081 H 2.2781256 A 2.6458334,2.645833 0 0 0 -0.36770835,2.2781332 V 55.194791 a 2.6458334,2.645833 0 0 0 2.64583395,2.64584 H 31.382294 a 2.6458334,2.645833 0 0 0 2.645833,-2.64584 z" />
    <path
       id="path8"
       style="fill:#ff0000;stroke-width:0.26458332"
       d="M 31.382294,3.6010502 A 1.3229167,1.3229165 0 0 0 30.059377,2.2781332 H 3.6010426 a 1.3229167,1.3229165 0 0 0 -1.322917,1.322916 V 53.871871 a 1.3229167,1.3229165 0 0 0 1.322917,1.32292 H 30.059377 a 1.3229167,1.3229165 0 0 0 1.322917,-1.32292 z" />
    <path
       id="path10"
       style="fill:#ffffff;stroke-width:0.26458332"
       d="m 28.207294,48.103951 a 6.01398,6.013979 0 0 1 -12.02796,0 6.01398,6.013979 0 0 1 12.02796,0 z" />
    <path
       id="path12"
       style="fill:#ffffff;stroke-width:0.26458332"
       d="m 8.6387096,45.217361 -0.04763,2.05845 0.994833,1.20915 0.4630214,-0.38101 -0.8546044,-1.03981 0.04498,-1.83355 z" />
    <path
       id="path14"
       style="fill:#ffffff;stroke-width:0.26458332"
       d="m 9.7076256,45.167081 v 2.43417 H 10.30823 v -2.43417 z" />
    <path
       id="path16"
       style="fill:#ffffff;stroke-width:0.26458332"
       d="M 10.093918,49.024721 H 9.1943336 v 2.82838 h 0.8995844 z" />
    <path
       id="path18"
       style="fill:#ffffff;stroke-width:0.26458332"
       d="m 11.149605,49.522121 0.01323,1.00542 -0.746125,0.59531 0.283103,0.3519 0.91546,-0.73554 -0.01587,-1.22237 z" />
    <path
       id="path20"
       style="fill:#ffffff;stroke-width:0.26458332"
       d="m 6.7442926,50.413771 1.240895,0.0317 0.508001,0.62177 0.346604,-0.28575 -0.635001,-0.78052 -1.449916,-0.0371 z" />
    <path
       id="path22"
       style="fill:#ffffff;stroke-width:0.26458332"
       d="m 10.18123,52.980231 a 0.6270627,0.62706259 0 0 1 -1.2541254,0 0.6270627,0.62706259 0 0 1 1.2541254,0 z" />
    <path
       id="path32"
       style="fill:#ffffff;stroke-width:0.26458332"
       d="m 3.5481256,41.756601 h 0.333375 v 0.67998 l 0.537104,-0.67998 h 0.423334 l -0.740835,0.93928 0.69321,0.87841 h -0.423334 l -0.489479,-0.61912 v 0.61912 h -0.333375 z" />
    <path
       id="path34"
       style="fill:#ffffff;stroke-width:0.26458332"
       d="m 5.1144586,41.756601 h 0.304271 l -0.0026,0.8599 a 0.2169585,0.21695847 0 0 0 0.433917,0 v -0.8599 h 0.30427 v 0.90752 a 0.42862501,0.42862495 0 0 1 -0.737642,0.29704 l -5.55e-4,-8e-4 0.0026,0.0953 h -0.304271 z" />
    <path
       id="path36"
       style="fill:#ffffff;stroke-width:0.26458332"
       d="m 6.4797096,42.571511 v -0.33071 a 0.51858344,0.51858335 0 0 1 1.037166,0 h 0.0026 l -0.0026,0.33071 a 0.51858344,0.51858335 0 0 1 -1.037166,0 z m 0.30427,0.045 -0.0026,-0.42069 a 0.21695834,0.21695831 0 0 1 0.433916,0 v 0.42069 a 0.21695834,0.21695831 0 0 1 -0.433916,0 z" />
    <path
       id="path38"
       style="fill:#ffffff;stroke-width:0.26458332"
       d="m 7.8290836,42.571511 v -0.33071 a 0.5185835,0.51858341 0 0 1 1.037167,0 h 0.0027 l -0.0027,0.33071 a 0.5185835,0.51858341 0 0 1 -1.037167,0 z m 0.304271,0.045 -0.0027,-0.42069 a 0.2169585,0.21695847 0 0 1 0.433917,0 v 0.42069 a 0.2169585,0.21695847 0 0 1 -0.433917,0 z" />
    <path
       id="path40"
       style="fill:#ffffff;stroke-width:0.26458332"
       d="m 9.2313756,41.238021 h 0.304271 l -0.0021,0.61314 a 0.42862501,0.42862495 0 0 1 0.7376314,0.29704 v 0.51592 a 0.42862501,0.42862495 0 0 1 -0.7376414,0.29704 l -5.56e-4,-8e-4 0.0027,0.0953 h -0.304271 z m 0.735541,0.95779 v 0.42069 a 0.2169584,0.21695837 0 0 1 -0.433916,0 h 0.0027 l -0.0027,-0.42069 a 0.2169584,0.21695837 0 0 1 0.433916,0 z" />
    <path
       id="path42"
       style="fill:#ffffff;stroke-width:0.26458332"
       d="m 10.633667,41.238021 h 0.304271 l -0.0021,0.61314 a 0.42862501,0.42862495 0 0 1 0.737631,0.29704 v 0.51592 a 0.42862501,0.42862495 0 0 1 -0.737642,0.29704 l -5.55e-4,-8e-4 0.0026,0.0953 h -0.304271 z m 0.735542,0.95779 v 0.42069 a 0.2169584,0.21695837 0 0 1 -0.433916,0 h 0.0027 l -0.0027,-0.42069 a 0.2169584,0.21695837 0 0 1 0.433916,0 z" />
    <path
       id="path44"
       style="fill:#ffffff;stroke-width:0.26458332"
       d="m 12.73446,41.756601 h 0.304271 v 1.29911 H 12.73446 v -0.8599 a 0.2169584,0.21695837 0 0 0 -0.433916,0 h 0.0027 v 0.8599 h -0.304277 v -0.90751 a 0.42862501,0.42862495 0 0 1 0.737641,-0.29704 l -0.0021,6.9e-4 z" />
    <path
       id="path46"
       style="fill:#ffffff;stroke-width:0.26458332"
       d="m 13.472648,41.756601 h 0.304271 l -0.0027,0.8599 a 0.21695868,0.21695865 0 0 0 0.433917,0 v -0.8599 h 0.304271 v 0.90752 a 0.42862501,0.42862495 0 0 1 -0.737642,0.29704 l -5.56e-4,-8e-4 0.0026,0.0953 h -0.304271 z" />
    <path
       id="path48"
       style="fill:#ffffff;stroke-width:0.26458332"
       d="m 14.803501,42.796421 h 0.150812 v -0.70115 a 0.33866669,0.33866663 0 0 1 0.338668,-0.33867 h 0.267229 v 0.2593 l -0.224896,0.003 a 0.07672917,0.07672916 0 0 0 -0.07674,0.0767 v 0.70115 H 15.5602 v 0.25929 h -0.301626 v 0.51859 l -0.304271,-0.17462 v -0.34436 h -0.150808 z" />
    <path
       id="path50"
       style="fill:#ffffff;stroke-width:0.26458332"
       d="M 3.8656266,22.809801 H 29.794793 V 7.5697992 H 3.8656266 Z" />
    <path
       id="path52"
       style="fill:#ffffff;stroke-width:0.26458332"
       d="M 3.8656266,40.483961 H 29.794793 V 24.397291 H 3.8656266 Z" />
    <path
       id="path54"
       style="fill:#ff0000;stroke-width:0.26458332"
       d="m 17.481086,15.189797 a 6.0139807,6.0139797 0 0 1 -12.0279614,0 6.0139807,6.0139797 0 0 1 12.0279614,0 z" />
    <path
       id="path56"
       style="fill:#ff0000;stroke-width:0.26458332"
       d="m 28.207294,32.440631 a 6.01398,6.013979 0 0 1 -12.02796,0 6.01398,6.013979 0 0 1 12.02796,0 z" />
    <path
       id="path58"
       style="fill:#ff0000;stroke-width:0.26458332"
       d="m 25.696398,11.641736 3.471334,3.471332 -3.471334,3.471333 -0.896939,-0.896938 1.939397,-1.939394 h -6.164792 v -1.270001 h 6.164792 l -1.939397,-1.939394 z" />
    <path
       id="path60"
       style="fill:#ff0000;stroke-width:0.26458332"
       d="M 12.221625,33.274926 8.7895267,36.780584 5.357419,33.274926 6.2448995,32.368427 8.1612138,34.325819 v -6.225151 h 1.256616 v 6.225151 l 1.9163242,-1.957392 z" />
    <path
       id="path62"
       style="fill:#ff0000;stroke-width:0.26458332"
       d="m 27.598752,48.103951 a 5.4054381,5.4054371 0 0 1 -10.810876,0 5.4054381,5.4054371 0 0 1 10.810876,0 z" />
    <path
       id="path64"
       style="fill:#ffffff;stroke-width:0.26458332"
       d="m 16.872544,15.189797 a 5.4054387,5.4054377 0 0 1 -10.8108774,0 5.4054387,5.4054377 0 0 1 10.8108774,0 z" />
    <path
       id="path66"
       style="fill:#ffffff;stroke-width:0.26458332"
       d="m 27.598752,32.440631 a 5.4054381,5.4054371 0 0 1 -10.810876,0 5.4054381,5.4054371 0 0 1 10.810876,0 z" />
  </g>
</svg>
