<?xml version="1.0" encoding="UTF-8" standalone="no"?>
<svg
   xmlns:dc="http://purl.org/dc/elements/1.1/"
   xmlns:cc="http://creativecommons.org/ns#"
   xmlns:rdf="http://www.w3.org/1999/02/22-rdf-syntax-ns#"
   xmlns:svg="http://www.w3.org/2000/svg"
   xmlns="http://www.w3.org/2000/svg"
   shape-rendering="crispEdges"
   viewBox="0 0 130 217"
   version="1.1"
   id="svg89"
   width="130"
   height="217">
  <metadata
     id="metadata34">
    <rdf:RDF>
      <cc:Work
         rdf:about="">
        <dc:format>image/svg+xml</dc:format>
        <dc:type
           rdf:resource="http://purl.org/dc/dcmitype/StillImage" />
        <dc:title></dc:title>
      </cc:Work>
    </rdf:RDF>
  </metadata>
  <defs
     id="defs93" />
  <g
     style="fill-rule:evenodd;stroke:none"
     transform="matrix(3.7506757,0,0,-3.7111197,1.8753437,376.9361)"
     id="g80">
    <path
       d="M 34.028126,45.874577 A 2.6458336,2.6458334 0 0 0 31.382295,43.228744 H 2.2781256 a 2.6458336,2.6458334 0 0 0 -2.64583377,2.645833 V 98.791243 A 2.6458336,2.6458334 0 0 0 2.2781256,101.43708 H 31.382295 a 2.6458336,2.6458334 0 0 0 2.645831,-2.645837 z"
       style="fill:#ffffff;stroke:#000000;stroke-width:0.26458323"
       id="path6" />
    <path
       d="M 31.382295,47.197494 A 1.3229167,1.3229166 0 0 0 30.059376,45.874577 H 3.601042 a 1.3229167,1.3229166 0 0 0 -1.3229166,1.322916 v 50.270833 a 1.3229167,1.3229166 0 0 0 1.3229166,1.322917 h 26.458334 a 1.3229167,1.3229166 0 0 0 1.322919,-1.322917 z"
       style="fill:#ff0000;stroke-width:0.26458323"
       id="path8" />
    <path
       d="m 28.207295,91.700409 a 6.0139802,6.0139797 0 0 1 -12.02796,0 6.0139802,6.0139797 0 0 1 12.02796,0 z"
       style="fill:#ffffff;stroke-width:0.26458323"
       id="path10" />
    <path
       d="M 8.638709,88.813804 8.591084,90.872262 9.5859173,92.08141 10.048939,91.700409 9.194334,90.660596 9.239313,88.827033 Z"
       style="fill:#ffffff;stroke-width:0.26458323"
       id="path12" />
    <path
       d="m 9.7076259,88.763533 v 2.434169 H 10.30823 v -2.434169 z"
       style="fill:#ffffff;stroke-width:0.26458323"
       id="path14" />
    <path
       d="M 10.093918,92.621158 H 9.1943341 v 2.828396 h 0.8995839 z"
       style="fill:#ffffff;stroke-width:0.26458323"
       id="path16" />
    <path
       d="m 11.149606,93.118575 0.01323,1.005416 -0.746124,0.595313 0.283103,0.351897 0.915459,-0.735541 -0.01587,-1.222376 z"
       style="fill:#ffffff;stroke-width:0.26458323"
       id="path18" />
    <path
       d="m 6.7442924,94.010221 1.2408958,0.03175 0.5080002,0.621771 0.3466041,-0.28575 -0.635,-0.780521 -1.4499169,-0.03704 z"
       style="fill:#ffffff;stroke-width:0.26458323"
       id="path20" />
    <path
       d="m 10.18123,96.576679 a 0.62706272,0.62706267 0 0 1 -1.2541251,0 0.62706272,0.62706267 0 0 1 1.2541251,0 z"
       style="fill:#ffffff;stroke-width:0.26458323"
       id="path22" />
    <path
       d="m 3.5481253,85.353054 h 0.333375 v 0.679979 l 0.5371043,-0.679979 h 0.4233335 l -0.7408335,0.939271 0.6932083,0.878418 H 4.3709797 L 3.8815003,86.551617 v 0.619126 h -0.333375 z"
       style="fill:#ffffff;stroke-width:0.26458323"
       id="path32" />
    <path
       d="m 5.1144588,85.353054 h 0.3042708 l -0.00265,0.859897 a 0.21695842,0.2169584 0 0 0 0.4339168,0 v -0.859897 h 0.3042708 v 0.907523 a 0.42862503,0.428625 0 0 1 -0.7376418,0.29703 l -5.557e-4,-7.92e-4 0.00265,0.09525 H 5.114449 Z"
       style="fill:#ffffff;stroke-width:0.26458323"
       id="path34" />
    <path
       d="m 6.4797089,86.167971 v -0.330727 a 0.51858336,0.51858333 0 0 1 1.0371666,0 h 0.00265 l -0.00265,0.330727 a 0.51858336,0.51858333 0 0 1 -1.0371666,0 z m 0.3042709,0.04498 -0.00265,-0.420687 a 0.21695834,0.21695833 0 0 1 0.4339166,0 v 0.420687 a 0.21695834,0.21695833 0 0 1 -0.4339166,0 z"
       style="fill:#ffffff;stroke-width:0.26458323"
       id="path36" />
    <path
       d="m 7.8290839,86.167971 v -0.330727 a 0.51858345,0.51858341 0 0 1 1.0371669,0 H 8.8689 l -0.00265,0.330727 a 0.51858345,0.51858341 0 0 1 -1.0371661,0 z m 0.3042711,0.04498 -0.00265,-0.420687 a 0.2169585,0.21695848 0 0 1 0.433917,0 v 0.420687 a 0.2169585,0.21695848 0 0 1 -0.433917,0 z"
       style="fill:#ffffff;stroke-width:0.26458323"
       id="path38" />
    <path
       d="m 9.2313757,84.834473 h 0.3042709 l -0.0021,0.613135 a 0.42862503,0.428625 0 0 1 0.7376314,0.29703 v 0.515939 a 0.42862503,0.428625 0 0 1 -0.7376411,0.29703 l -5.556e-4,-7.92e-4 0.00265,0.09525 H 9.231366 Z m 0.7355423,0.957791 v 0.420687 a 0.2169586,0.21695859 0 0 1 -0.4339172,0 h 0.00265 l -0.00265,-0.420687 a 0.2169586,0.21695859 0 0 1 0.4339172,0 z"
       style="fill:#ffffff;stroke-width:0.26458323"
       id="path40" />
    <path
       d="m 10.633668,84.834473 h 0.30427 l -0.0021,0.613135 a 0.42862503,0.428625 0 0 1 0.737632,0.29703 v 0.515939 a 0.42862503,0.428625 0 0 1 -0.737642,0.29703 l -5.55e-4,-7.92e-4 0.0026,0.09525 h -0.30427 z m 0.735541,0.957791 v 0.420687 a 0.2169585,0.21695849 0 0 1 -0.433917,0 h 0.0026 l -0.0026,-0.420687 a 0.2169585,0.21695849 0 0 1 0.433917,0 z"
       style="fill:#ffffff;stroke-width:0.26458323"
       id="path42" />
    <path
       d="m 12.73446,85.353054 h 0.30427 v 1.299105 h -0.30427 v -0.859895 a 0.2169585,0.21695848 0 0 0 -0.433917,0 h 0.0026 v 0.859895 H 11.99889 v -0.907521 a 0.42862503,0.428625 0 0 1 0.737642,-0.29703 l -0.0021,7.92e-4 z"
       style="fill:#ffffff;stroke-width:0.26458323"
       id="path44" />
    <path
       d="m 13.472647,85.353054 h 0.304271 l -0.0026,0.859897 a 0.2169585,0.21695848 0 0 0 0.433917,0 v -0.859897 h 0.304271 v 0.907523 a 0.42862503,0.428625 0 0 1 -0.737642,0.29703 l -5.56e-4,-7.92e-4 0.0026,0.09525 h -0.304271 z"
       style="fill:#ffffff;stroke-width:0.26458323"
       id="path46" />
    <path
       d="m 14.803502,86.392867 h 0.150811 v -0.701145 a 0.33866669,0.33866667 0 0 1 0.338668,-0.338668 h 0.267229 v 0.259292 l -0.224896,0.0026 a 0.07672917,0.07672917 0 0 0 -0.07672,0.07673 v 0.701145 h 0.301625 v 0.259292 H 15.25859 v 0.518584 L 14.954318,86.99611 v -0.343959 h -0.150811 z"
       style="fill:#ffffff;stroke-width:0.26458323"
       id="path48" />
    <path
       d="M 3.8656253,66.406242 H 29.794794 V 51.166243 H 3.8656253 Z"
       style="fill:#ffffff;stroke-width:0.26458323"
       id="path50" />
    <path
       d="M 3.8656253,84.080409 H 29.794794 V 67.993742 H 3.8656253 Z"
       style="fill:#ffffff;stroke-width:0.26458323"
       id="path52" />
    <path
       d="m 28.207319,58.786243 a 6.0139846,6.0139819 0 0 1 -12.02796,0 6.0139846,6.0139824 0 0 1 12.02796,0 z"
       style="fill:#ff0000;stroke-width:0.26458323"
       id="path54" />
    <path
       d="m 28.207295,76.037077 a 6.0139802,6.0139797 0 0 1 -12.02796,0 6.0139802,6.0139797 0 0 1 12.02796,0 z"
       style="fill:#ff0000;stroke-width:0.26458323"
       id="path56" />
    <path
       d="M 7.9666946,62.180848 4.495348,58.709514 7.9666946,55.238181 8.8636327,56.135119 6.9242314,58.074514 h 6.1647966 v 1.27 H 6.9242314 l 1.9394013,1.939394 z"
       style="fill:#ff0000;stroke-width:0.26458323"
       id="path58" />
    <path
       d="M 12.221627,76.871375 8.7895217,80.377034 5.3574161,76.871375 6.2448941,75.964876 8.1612186,77.92227 V 71.697118 H 9.4178249 V 77.92227 L 11.334149,75.964876 Z"
       style="fill:#ff0000;stroke-width:0.26458323"
       id="path60" />
    <path
       d="m 27.598751,91.700409 a 5.4054379,5.4054374 0 0 1 -10.810875,0 5.4054379,5.4054374 0 0 1 10.810875,0 z"
       style="fill:#ff0000;stroke-width:0.26458323"
       id="path62" />
    <path
       d="m 27.598772,58.786243 a 5.4054415,5.4054398 0 0 1 -10.810872,0 5.4054415,5.4054398 0 0 1 10.810872,0 z"
       style="fill:#ffffff;stroke-width:0.26458323"
       id="path64" />
    <path
       d="m 27.598751,76.037077 a 5.4054379,5.4054374 0 0 1 -10.810875,0 5.4054379,5.4054374 0 0 1 10.810875,0 z"
       style="fill:#ffffff;stroke-width:0.26458323"
       id="path66" />
  </g>
</svg>
