<?xml version="1.0" encoding="UTF-8" standalone="no"?>
<svg
   xmlns:dc="http://purl.org/dc/elements/1.1/"
   xmlns:cc="http://creativecommons.org/ns#"
   xmlns:rdf="http://www.w3.org/1999/02/22-rdf-syntax-ns#"
   xmlns:svg="http://www.w3.org/2000/svg"
   xmlns="http://www.w3.org/2000/svg"
   shape-rendering="crispEdges"
   height="217"
   width="130"
   id="svg98"
   version="1.1"
   viewBox="0 0 130 217">
  <metadata
     id="metadata104">
    <rdf:RDF>
      <cc:Work
         rdf:about="">
        <dc:format>image/svg+xml</dc:format>
        <dc:type
           rdf:resource="http://purl.org/dc/dcmitype/StillImage" />
        <dc:title></dc:title>
      </cc:Work>
    </rdf:RDF>
  </metadata>
  <defs
     id="defs102" />
  <!--Gegenereerd door de SIMaD (http://www.dlw.be).-->
  <g
     id="g96"
     transform="matrix(3.750676,0,0,-3.7453237,1.8753506,215.1273)"
     style="fill-rule:evenodd;stroke:none">
    <path
       id="path2"
       style="fill:#ffffff;stroke:#000000;stroke-width:0.2633743"
       d="M 34.028732,2.2533033 A 2.6459265,2.6216157 0 0 0 31.382805,-0.36831285 H 2.2776139 A 2.6459265,2.6216157 0 0 0 -0.36831285,2.253303 V 54.685615 A 2.6459265,2.6216157 0 0 0 2.2776139,57.30723 H 31.382805 a 2.6459265,2.6216157 0 0 0 2.645927,-2.621615 z" />
    <path
       id="path4"
       style="fill:#ff0000;stroke-width:0.2633743"
       d="M 31.382805,3.5641108 A 1.3229632,1.3108078 0 0 0 30.059841,2.2533027 H 3.6005769 A 1.3229632,1.3108078 0 0 0 2.2776136,3.5641105 V 53.374806 a 1.3229632,1.3108078 0 0 0 1.3229633,1.310809 H 30.059841 a 1.3229632,1.3108078 0 0 0 1.322964,-1.310809 z" />
    <path
       id="path6"
       style="fill:#ffffff;stroke-width:0.2633743"
       d="M 3.8651695,40.109432 H 29.795249 V 24.170009 H 3.8651695 Z" />
    <path
       id="path8"
       style="fill:#ffffff;stroke-width:0.2633743"
       d="M 3.8651695,22.59704 H 29.795249 V 7.4965339 H 3.8651695 Z" />
    <path
       id="path10"
       style="fill:#ffffff;stroke-width:0.2633743"
       d="m 28.207694,47.659684 a 6.014191,5.9589322 0 0 1 -12.028382,0 6.014191,5.9589322 0 0 1 12.028382,0 z" />
    <path
       id="path12"
       style="fill:#ffffff;stroke-width:0.2633743"
       d="m 8.6384208,44.799501 -0.047627,2.039617 0.9948684,1.19808 0.4630378,-0.377514 -0.8546349,-1.030295 0.044981,-1.81678 z" />
    <path
       id="path14"
       style="fill:#ffffff;stroke-width:0.2633743"
       d="m 9.7073752,44.74969 v 2.411889 H 10.308001 V 44.74969 Z" />
    <path
       id="path16"
       style="fill:#ffffff;stroke-width:0.2633743"
       d="M 10.093681,48.572006 H 9.1940655 v 2.802507 h 0.8996155 z" />
    <path
       id="path18"
       style="fill:#ffffff;stroke-width:0.2633743"
       d="m 11.149405,49.064869 0.01323,0.996214 -0.746152,0.589864 0.283114,0.348676 0.915491,-0.728811 -0.01587,-1.211185 z" />
    <path
       id="path20"
       style="fill:#ffffff;stroke-width:0.2633743"
       d="m 6.7439375,49.948354 1.2409396,0.03146 0.5080178,0.616079 L 8.8395113,50.31276 8.204489,49.539383 6.7545212,49.50268 Z" />
    <path
       id="path22"
       style="fill:#ffffff;stroke-width:0.2633743"
       d="m 10.180996,52.491322 a 0.6270846,0.62132291 0 0 1 -1.2541692,0 0.6270846,0.62132291 0 0 1 1.2541692,0 z" />
    <path
       id="path52"
       style="fill:#ffffff;stroke-width:0.2633743"
       d="m 3.5211991,41.367806 h 0.3333868 v 0.678998 L 4.3943548,41.367806 H 4.820349 l -0.7435053,0.933296 0.6958786,0.875619 H 4.3467281 L 3.8545859,42.55802 v 0.618701 H 3.5211991 Z" />
    <path
       id="path54"
       style="fill:#ffffff;stroke-width:0.2633743"
       d="m 5.0955253,41.367806 h 0.3042816 v 0.854648 a 0.216966,0.21497251 0 0 0 0.433932,0 v -0.854648 h 0.3042815 v 0.901838 a 0.42864009,0.42470173 0 0 1 -0.7376676,0.294312 l -5.459e-4,0.0018 v 0.09438 H 5.0955253 Z" />
    <path
       id="path56"
       style="fill:#ffffff;stroke-width:0.2633743"
       d="m 6.4661152,42.180507 v -0.332945 a 0.52124755,0.51645831 0 0 1 1.0424951,0 v 0.332945 a 0.52124755,0.51645831 0 0 1 -1.0424951,0 z m 0.3042816,0.04195 V 41.80562 a 0.21696598,0.21497249 0 0 1 0.4339319,0 v 0.416837 a 0.21696598,0.21497249 0 0 1 -0.4339319,0 z" />
    <path
       id="path58"
       style="fill:#ffffff;stroke-width:0.2633743"
       d="m 7.8208296,42.180507 v -0.332945 a 0.52124753,0.51645829 0 0 1 1.042495,0 v 0.332945 a 0.52124753,0.51645829 0 0 1 -1.042495,0 z m 0.3042815,0.04195 V 41.80562 a 0.216966,0.21497251 0 0 1 0.433932,0 v 0.416837 a 0.216966,0.21497251 0 0 1 -0.433932,0 z" />
    <path
       id="path60"
       style="fill:#ffffff;stroke-width:0.2633743"
       d="M 9.2284625,40.851348 H 9.532744 l 5.557e-4,0.610144 a 0.42864009,0.42470173 0 0 1 0.7376583,0.294315 v 0.513837 a 0.42864009,0.42470173 0 0 1 -0.7376681,0.294312 l -5.459e-4,0.0018 v 0.09438 H 9.2284625 Z m 0.7382132,0.954269 v 0.416837 a 0.21696597,0.21497248 0 0 1 -0.4339317,0 v -0.416837 a 0.21696597,0.21497248 0 0 1 0.4339317,0 z" />
    <path
       id="path62"
       style="fill:#ffffff;stroke-width:0.2633743"
       d="m 10.636095,40.851348 h 0.304282 l 5.55e-4,0.610144 a 0.42864009,0.42470173 0 0 1 0.737658,0.294315 v 0.513837 a 0.42864009,0.42470173 0 0 1 -0.737668,0.294312 l -5.45e-4,0.0018 v 0.09438 h -0.304282 z m 0.738214,0.954269 v 0.416837 a 0.216966,0.21497251 0 0 1 -0.433932,0 v -0.416837 a 0.216966,0.21497251 0 0 1 0.433932,0 z" />
    <path
       id="path64"
       style="fill:#ffffff;stroke-width:0.2633743"
       d="m 12.747545,41.367806 h 0.304282 v 1.292457 h -0.304282 v -0.854646 a 0.2169665,0.21497301 0 0 0 -0.433933,0 v 0.854646 h -0.30428 v -0.904456 a 0.42864009,0.42470173 0 0 1 0.737667,-0.294315 l 5.56e-4,7.85e-4 z" />
    <path
       id="path66"
       style="fill:#ffffff;stroke-width:0.2633743"
       d="m 13.49105,41.367806 h 0.304282 v 0.854648 a 0.21696597,0.21497248 0 0 0 0.433931,0 v -0.854648 h 0.304282 v 0.901838 a 0.42864009,0.42470173 0 0 1 -0.737668,0.294312 l -5.45e-4,0.0018 v 0.09438 H 13.49105 Z" />
    <path
       id="path68"
       style="fill:#ffffff;stroke-width:0.2633743"
       d="m 14.824597,42.400723 h 0.150818 l 0.0026,-0.697348 a 0.33867859,0.3355668 0 0 1 0.338679,-0.335569 h 0.269884 v 0.25954 l -0.22755,-0.0026 a 0.0793778,0.07864847 0 0 0 -0.07938,0.07865 l 0.0026,0.697348 h 0.304282 v 0.25954 h -0.30424 v 0.516458 L 14.975415,43.00371 v -0.343431 h -0.150818 z" />
    <path
       id="path70"
       style="fill:#ff0000;stroke-width:0.2633743"
       d="m 28.207694,15.046787 a 6.014191,5.9589322 0 0 1 -12.028382,0 6.014191,5.9589322 0 0 1 12.028382,0 z" />
    <path
       id="path72"
       style="fill:#ff0000;stroke-width:0.2633743"
       d="m 7.9637096,18.486346 -3.4714555,-3.439559 3.4714555,-3.43956 0.8969691,0.888728 -1.9394641,1.921644 h 6.1650084 v 1.258376 H 6.9212146 l 1.9394641,1.921644 z" />
    <path
       id="path74"
       style="fill:#ff0000;stroke-width:0.2633743"
       d="m 27.59913,47.659684 a 5.4056278,5.3559606 0 0 1 -10.811255,0 5.4056278,5.3559606 0 0 1 10.811255,0 z" />
    <path
       id="path76"
       style="fill:#ff0000;stroke-width:0.2633743"
       d="m 17.481107,32.139721 a 6.0141909,5.9589321 0 0 1 -12.0283816,0 6.0141909,5.9589321 0 0 1 12.0283816,0 z" />
    <path
       id="path78"
       style="fill:#ff0000;stroke-width:0.2633743"
       d="m 25.696709,28.624135 3.471455,3.439557 -3.471455,3.439561 -0.89697,-0.888727 1.939465,-1.921644 h -6.165008 v -1.258377 h 6.165008 l -1.939465,-1.921643 z" />
    <path
       id="path80"
       style="fill:#ffffff;stroke-width:0.2633743"
       d="m 27.59913,15.046787 a 5.4056278,5.3559606 0 0 1 -10.811255,0 5.4056278,5.3559606 0 0 1 10.811255,0 z" />
    <path
       id="path86"
       style="fill:#ffffff;stroke-width:0.2633743"
       d="m 16.872544,32.139721 a 5.4056279,5.3559606 0 0 1 -10.8112555,0 5.4056279,5.3559606 0 0 1 10.8112555,0 z" />
  </g>
</svg>
