<?xml version="1.0" encoding="UTF-8" standalone="no"?>
<svg
   xmlns:dc="http://purl.org/dc/elements/1.1/"
   xmlns:cc="http://creativecommons.org/ns#"
   xmlns:rdf="http://www.w3.org/1999/02/22-rdf-syntax-ns#"
   xmlns:svg="http://www.w3.org/2000/svg"
   xmlns="http://www.w3.org/2000/svg"
   shape-rendering="crispEdges"
   id="svg79"
   version="1.1"
   viewBox="0 0 130 170">
  <metadata
     id="metadata85">
    <rdf:RDF>
      <cc:Work
         rdf:about="">
        <dc:format>image/svg+xml</dc:format>
        <dc:type
           rdf:resource="http://purl.org/dc/dcmitype/StillImage" />
        <dc:title></dc:title>
      </cc:Work>
    </rdf:RDF>
  </metadata>
  <defs
     id="defs83" />
  <g
     id="g70"
     transform="matrix(0.97744375,0,0,-1.0059171,-9.5992849e-6,168.99022)"
     style="fill-rule:evenodd;stroke:none">
    <path
       id="path6"
       style="fill:#ffffff;stroke:#000000"
       d="M 15.500001,167.49618 A 15,15 0 0 1 0.5,152.49618 V 14.496182 a 15,15 0 0 1 15,-15.00000042 h 102 a 15,15 0 0 1 15,15.00000142 V 152.49618 a 15,15 0 0 1 -15,15 z" />
    <path
       id="path8"
       style="fill:#ff0000"
       d="M 15.000001,162 A 9,9 0 0 1 6,153 V 15 a 9,9 0 0 1 9,-9 h 102 a 9,9 0 0 1 9,9 v 138 a 9,9 0 0 1 -9,9 H 15 Z" />
    <path
       id="path40"
       style="fill:#ff0000"
       d="m 123,33 v 120 a 6,6 0 0 1 -6,6 H 15 A 6,6 0 0 1 9,153 V 33 A 15,15 0 0 1 24.000001,18 H 108 a 15,15 0 0 1 15,15 z" />
    <path
       id="path42"
       style="fill:#ffffff"
       d="m 123,33 v 120 a 6,6 0 0 1 -6,6 H 15 A 6,6 0 0 1 9,153 V 33 A 15,15 0 0 1 24.000001,18 H 108 a 15,15 0 0 1 15,15 z" />
    <path
       id="path44"
       style="fill:#ff0000"
       d="m 94.23,88.92 a 28.23,28.23 0 0 1 -56.46,0 28.23,28.23 0 0 1 56.46,0 z" />
    <path
       id="path46"
       style="fill:#ff0000"
       d="m 69.195596,124.15538 13.47132,12.70976 -13.47132,12.71948 -3.478461,-3.28433 7.522945,-7.10308 H 49.323084 v -4.65442 H 73.24008 l -7.522945,-7.10308 z" />
    <path
       id="path48"
       style="fill:#ff0000"
       d="m 68.41,53.2 a 2.41,2.41 0 0 1 -4.82,0 2.41,2.41 0 0 1 4.82,0 z" />
    <path
       id="path50"
       style="fill:#ff0000"
       d="m 62.48,23.33 2.31,0.05 -0.18,7.06 3.29,3.99 -1.77,1.47 -3.84,-4.65 z" />
    <path
       id="path52"
       style="fill:#ff0000"
       d="m 68.9,23.13 v 9.38 h -2.31 v -9.38 z" />
    <path
       id="path54"
       style="fill:#ff0000"
       d="M 68.08,37.98 V 48.86 H 64.61 V 37.98 Z" />
    <path
       id="path56"
       style="fill:#ff0000"
       d="m 73.87,39.87 0.06,4.71 -3.52,2.83 -1.09,-1.35 2.87,-2.3 -0.05,-3.87 z" />
    <path
       id="path58"
       style="fill:#ff0000"
       d="m 55.23,41.59 5.57,0.15 2.45,3 -1.34,1.1 -1.95,-2.39 -4.78,-0.13 z" />
    <path
       id="path60"
       style="fill:#ff0000"
       d="m 91.26,88.92 a 25.26,25.26 0 0 1 -50.52,0 25.26,25.26 0 0 1 50.52,0 z" />
    <path
       id="path62"
       style="fill:#ffffff"
       d="m 91.26,88.92 a 25.26,25.26 0 0 1 -50.52,0 25.26,25.26 0 0 1 50.52,0 z" />
  </g>
</svg>
