<?xml version="1.0" encoding="utf-8"?>
<!-- Generator: Adobe Illustrator 16.0.3, SVG Export Plug-In . SVG Version: 6.00 Build 0)  -->
<!DOCTYPE svg PUBLIC "-//W3C//DTD SVG 1.1//EN" "http://www.w3.org/Graphics/SVG/1.1/DTD/svg11.dtd">
<svg version="1.1"
	 id="Laag_1" xmlns:dc="http://purl.org/dc/elements/1.1/" xmlns:cc="http://creativecommons.org/ns#" xmlns:rdf="http://www.w3.org/1999/02/22-rdf-syntax-ns#" xmlns:svg="http://www.w3.org/2000/svg" xmlns:sodipodi="http://sodipodi.sourceforge.net/DTD/sodipodi-0.dtd" xmlns:inkscape="http://www.inkscape.org/namespaces/inkscape" inkscape:version="0.92.1 r15371" sodipodi:docname="baden toegelaten.svg"
	 xmlns="http://www.w3.org/2000/svg" xmlns:xlink="http://www.w3.org/1999/xlink" x="0px" y="0px" width="302px" height="302.01px"
	 viewBox="0 0 302 302.01" enable-background="new 0 0 302 302.01" xml:space="preserve">
<sodipodi:namedview  inkscape:cy="144.66809" inkscape:cx="156.93561" inkscape:zoom="0.3964554" showgrid="false" guidetolerance="10" gridtolerance="10" objecttolerance="10" borderopacity="1" pagecolor="#ffffff" bordercolor="#666666" id="namedview442" inkscape:current-layer="Laag_1" inkscape:window-maximized="1" inkscape:window-y="-8" inkscape:window-x="-8" inkscape:window-height="1018" inkscape:window-width="1920" inkscape:pageshadow="2" inkscape:pageopacity="0">
	</sodipodi:namedview>
<path id="path235" inkscape:connector-curvature="0" fill="#004996" d="M6.557,188.521c0,0,17.68,14.026,33.823,0.307
	c0,0,16.468,15.541,31.989,0.297l15.547-0.297c0,0,12.786,12.797,26.824,0c0,0,15.832,15.541,35.646,0c0,0,17.675,16.75,36.873,0
	c0,0,17.056,16.449,35.954,0.297c0,0,16.756,16.453,37.179-0.297c0,0,15.837,17.681,35.638,0.297c0,0,2.012,14.351-26.125,53.201
	c0,0-40.158,71.639-152.649,56.234C117.255,298.56,33.121,284.726,6.557,188.521z"/>
<path id="path237" inkscape:connector-curvature="0" fill="#FFFFFF" stroke="#004996" stroke-width="2.1152" d="M300.942,151.019
	c0,82.811-67.128,149.934-149.943,149.934c-82.806,0-149.942-67.123-149.942-149.934C1.058,68.209,68.194,1.058,151,1.058
	C233.814,1.058,300.942,68.209,300.942,151.019z"/>
<path id="path239" inkscape:connector-curvature="0" fill="#FFFFFF" stroke="#004996" stroke-width="2.1152" d="M51.935,134.422
	c-0.688,4.703-1.047,9.509-1.047,14.396c0,54.819,44.595,99.422,99.411,99.422s99.422-44.604,99.422-99.422
	c0-54.822-44.605-99.406-99.422-99.406C100.375,49.411,58.924,86.411,51.935,134.422z M84.539,148.818
	c0-36.266,29.496-65.766,65.76-65.766c36.264,0,65.775,29.5,65.775,65.766s-29.512,65.764-65.775,65.764
	C114.035,214.581,84.539,185.083,84.539,148.818z"/>
<path id="path241" inkscape:connector-curvature="0" fill="#FFFFFF" stroke="#004996" stroke-width="2.1152" d="M75.783,42.377
	c-18.541,0-33.615,15.039-33.615,33.537v149.047c0,18.494,15.075,33.535,33.615,33.535h149.495
	c18.535,0,33.631-15.041,33.631-33.535V75.914c0-18.498-15.096-33.537-33.631-33.537H75.783z M49.617,224.962V75.914
	c0-14.381,11.75-26.086,26.166-26.086h149.495c14.438,0,26.172,11.705,26.172,26.086v149.047c0,14.382-11.734,26.074-26.172,26.074
	H75.783C61.368,251.036,49.617,239.344,49.617,224.962L49.617,224.962z"/>
<path id="path243" inkscape:connector-curvature="0" fill="#004996" d="M185.313,171.839l-8.112-5.479
	c0.229-0.594,0.367-1.236,0.367-1.914c0-2.977-2.531-5.4-5.642-5.4c-1.411,0-2.71,0.505-3.699,1.328l-0.687-0.465
	c1.981-5.377-2.531-7.859-2.531-7.859l-18.125-12.711l-7.032,1.561l-21.513-14.771l-1.821-3.077
	c-0.161-0.544-0.385-1.093-0.702-1.63l-6.229-10.618c-1.546-2.623-4.396-3.805-6.361-2.652c-1.97,1.166-2.33,4.225-0.787,6.85
	l6.241,10.621c0.118,0.216,0.263,0.413,0.388,0.609l3.357,5.67h-0.005l0.013,0.016l0.022,0.043l0.025-0.006l57.27,39.297
	c0.229,0.201,0.457,0.381,0.715,0.55l10.195,6.92c2.524,1.688,5.596,1.536,6.883-0.354
	C188.83,176.471,187.83,173.551,185.313,171.839z"/>
<line id="line245" fill="none" stroke="#FFFFFF" stroke-width="2.0843" x1="127.709" y1="143.531" x2="148.728" y2="138.656"/>
<path id="path247" inkscape:connector-curvature="0" fill="#004996" d="M118.289,32.068h40.721
	c20.525,0,25.779,13.143,25.779,21.988c0,12.303-6.765,15.771-10.271,17.559c10.271,3.941,12.959,12.312,12.959,20.785
	c0,6.811-2.021,14.194-7.227,17.682c-9.432,6.355-9.021,6.355-26.176,6.355l-34.926,0.556L118.289,32.068z M135.085,103.045h21.479
	c8.516,0,13.41-3.836,13.41-12.555c0-7.531-6.307-10.387-12.605-10.387h-22.284V103.045z M135.085,65.648h20.542
	c6.89,0,12.365-2.754,12.365-9.57c0-7.039-4.896-9.197-12.832-9.197h-20.075V65.648z"/>
<path id="path249" inkscape:connector-curvature="0" fill="none" stroke="#004996" stroke-width="1.3492" d="M60.506,46.398
	c0,0,0.087,1.555,3.78,2.07c0,0,2.9,1.446,2.9,2.475"/>
<path id="path251" inkscape:connector-curvature="0" fill="none" stroke="#004996" stroke-width="1.3492" d="M49.866,55.752
	c0,0,1.381,2.74,5.405,0.927c0,0,2.226-0.759,2.917-0.334"/>
<path id="path253" inkscape:connector-curvature="0" fill="none" stroke="#004996" stroke-width="1.3492" d="M43.438,69.812
	c0,0,1.544,0.858,3.601-1.209c0,0,1.799-4.547,4.549-4.103"/>
<path id="path255" inkscape:connector-curvature="0" fill="none" stroke="#004996" stroke-width="1.3492" d="M71.217,43.146
	c0,0-0.501,2.406,3.517,3.686c0,0,3.089,1.449,2.49,2.326"/>
<path id="path257" inkscape:connector-curvature="0" fill="none" stroke="#004996" stroke-width="1.3492" d="M82.932,43.109
	c0,0-0.52,2.391,3.516,3.684c0,0,3.07,1.455,2.479,2.31"/>
<path id="path259" inkscape:connector-curvature="0" fill="none" stroke="#004996" stroke-width="1.3492" d="M92.355,42.754
	c0,0-0.52,2.408,3.519,3.683c0,0,3.087,1.47,2.485,2.324"/>
<path id="path261" inkscape:connector-curvature="0" fill="none" stroke="#004996" stroke-width="1.3492" d="M103.841,43.015
	c0,0-0.503,2.399,3.518,3.682c0,0,3.092,1.475,2.488,2.322"/>
<path id="path263" inkscape:connector-curvature="0" fill="none" stroke="#004996" stroke-width="1.3492" d="M136.085,43.698
	c0,0-0.519,2.402,3.511,3.695c0,0,3.091,1.463,2.489,2.313"/>
<path id="path265" inkscape:connector-curvature="0" fill="none" stroke="#004996" stroke-width="1.3492" d="M144.058,43.109
	c0,0-0.509,2.391,3.529,3.684c0,0,3.077,1.455,2.475,2.31"/>
<path id="path267" inkscape:connector-curvature="0" fill="none" stroke="#004996" stroke-width="1.3492" d="M159.326,45.498
	c0,0-0.509,2.407,3.512,3.687c0,0,3.086,1.457,2.484,2.326"/>
<path id="path269" inkscape:connector-curvature="0" fill="none" stroke="#004996" stroke-width="1.3492" d="M184.869,42.845
	c0,0-0.504,2.399,3.516,3.684c0,0,3.098,1.461,2.49,2.328"/>
<path id="path271" inkscape:connector-curvature="0" fill="none" stroke="#004996" stroke-width="1.3492" d="M196.02,43.015
	c0,0-0.521,2.399,3.514,3.682c0,0,3.082,1.475,2.485,2.322"/>
<path id="path273" inkscape:connector-curvature="0" fill="none" stroke="#004996" stroke-width="1.3492" d="M206.146,42.933
	c0,0-0.521,2.399,3.508,3.688c0,0,3.092,1.463,2.484,2.312"/>
<path id="path275" inkscape:connector-curvature="0" fill="none" stroke="#004996" stroke-width="1.3492" d="M216.168,42.845
	c0,0-0.504,2.399,3.514,3.684c0,0,3.087,1.461,2.488,2.328"/>
<path id="path277" inkscape:connector-curvature="0" fill="none" stroke="#004996" stroke-width="1.3492" d="M228.629,42.103
	c0,0-1.494,1.949,1.598,4.844c0,0,2.18,2.635,1.271,3.148"/>
<path id="path279" inkscape:connector-curvature="0" fill="none" stroke="#004996" stroke-width="1.3492" d="M241.861,46.661
	c0,0-2.027,1.39,0.026,5.101c0,0,1.239,3.174,0.215,3.387"/>
<path id="path281" inkscape:connector-curvature="0" fill="none" stroke="#004996" stroke-width="1.3928" d="M250.404,54.251
	c0,0-2.314,1.214-0.839,5.208c0,0,0.746,3.365-0.342,3.479"/>
<path id="path283" inkscape:connector-curvature="0" fill="none" stroke="#004996" stroke-width="1.3492" d="M250.761,73.06
	c0,0,2.274,0.924,4.249-2.826c0,0,1.967-2.785,2.711-2.039"/>
<path id="path285" inkscape:connector-curvature="0" fill="none" stroke="#004996" stroke-width="1.3492" d="M251.115,83.771
	c0,0,2.282,0.924,4.254-2.816c0,0,1.963-2.791,2.703-2.037"/>
<path id="path287" inkscape:connector-curvature="0" fill="none" stroke="#004996" stroke-width="1.3492" d="M251.469,94.486
	c0,0,2.277,0.916,4.234-2.814c0,0,1.971-2.78,2.717-2.039"/>
<path id="path289" inkscape:connector-curvature="0" fill="none" stroke="#004996" stroke-width="1.3492" d="M251.375,105.72
	c0,0,2.272,0.916,4.248-2.828c0,0,1.973-2.779,2.715-2.043"/>
<path id="path291" inkscape:connector-curvature="0" fill="none" stroke="#004996" stroke-width="1.3492" d="M259.459,144.377
	c0,0-2.273-0.936-4.239,2.812c0,0-1.972,2.791-2.724,2.043"/>
<path id="path293" inkscape:connector-curvature="0" fill="none" stroke="#004996" stroke-width="1.3492" d="M259.103,133.653
	c0,0-2.272-0.921-4.243,2.819c0,0-1.979,2.78-2.722,2.043"/>
<path id="path295" inkscape:connector-curvature="0" fill="none" stroke="#004996" stroke-width="1.3492" d="M258.754,122.936
	c0,0-2.27-0.926-4.246,2.827c0,0-1.971,2.782-2.711,2.032"/>
<path id="path297" inkscape:connector-curvature="0" fill="none" stroke="#004996" stroke-width="1.3492" d="M258.836,111.715
	c0,0-2.266-0.94-4.237,2.81c0,0-1.976,2.778-2.703,2.047"/>
<path id="path299" inkscape:connector-curvature="0" fill="none" stroke="#004996" stroke-width="1.3492" d="M258.912,185.365
	c0,0-2.277-0.924-4.248,2.826c0,0-1.961,2.779-2.707,2.029"/>
<path id="path301" inkscape:connector-curvature="0" fill="none" stroke="#004996" stroke-width="1.3492" d="M258.545,174.65
	c0,0-2.27-0.912-4.229,2.813c0,0-1.977,2.793-2.723,2.064"/>
<path id="path303" inkscape:connector-curvature="0" fill="none" stroke="#004996" stroke-width="1.3492" d="M258.213,163.932
	c0,0-2.277-0.916-4.254,2.817c0,0-1.967,2.791-2.707,2.045"/>
<path id="path305" inkscape:connector-curvature="0" fill="none" stroke="#004996" stroke-width="1.3492" d="M258.301,152.701
	c0,0-2.277-0.917-4.254,2.827c0,0-1.961,2.775-2.713,2.041"/>
<path id="path307" inkscape:connector-curvature="0" fill="none" stroke="#004996" stroke-width="1.3492" d="M41.929,81.245
	c0,0,1.54,0.871,3.612-1.201c0,0,1.799-4.534,4.533-4.106"/>
<path id="path309" inkscape:connector-curvature="0" fill="none" stroke="#004996" stroke-width="1.3492" d="M41.843,94.019
	c0,0,1.538,0.854,3.608-1.205c0,0,1.802-4.537,4.531-4.115"/>
<path id="path311" inkscape:connector-curvature="0" fill="none" stroke="#004996" stroke-width="1.3492" d="M42.554,114.062
	c0,0,1.539,0.867,3.597-1.191c0,0,1.802-4.552,4.546-4.119"/>
<path id="path313" inkscape:connector-curvature="0" fill="none" stroke="#004996" stroke-width="1.3492" d="M41.769,124.865
	c0,0,1.54,0.857,3.611-1.187c0,0,1.782-4.543,4.526-4.125"/>
<path id="path315" inkscape:connector-curvature="0" fill="none" stroke="#004996" stroke-width="1.3492" d="M42.137,134.822
	c0,0,1.525,0.871,3.591-1.191c0,0,1.804-4.54,4.548-4.12"/>
<path id="path317" inkscape:connector-curvature="0" fill="none" stroke="#004996" stroke-width="1.3492" d="M41.752,104.162
	c0,0,1.541,0.86,3.6-1.209c0,0,1.792-4.537,4.536-4.104"/>
<path id="path319" inkscape:connector-curvature="0" fill="none" stroke="#004996" stroke-width="1.3492" d="M42.588,146.297
	c0,0,1.549,0.869,3.61-1.197c0,0,1.789-4.541,4.539-4.114"/>
<path id="path321" inkscape:connector-curvature="0" fill="none" stroke="#004996" stroke-width="1.3492" d="M41.999,157.646
	c0,0,1.539,0.865,3.595-1.197c0,0,1.793-4.537,4.542-4.108"/>
<path id="path323" inkscape:connector-curvature="0" fill="none" stroke="#004996" stroke-width="1.3492" d="M42.351,168.249
	c0,0,1.545,0.857,3.608-1.198c0,0,1.802-4.543,4.54-4.119"/>
<path id="path325" inkscape:connector-curvature="0" fill="none" stroke="#004996" stroke-width="1.3492" d="M42.237,178.725
	c0,0,1.539,0.867,3.589-1.199c0,0,1.81-4.547,4.56-4.119"/>
<path id="path327" inkscape:connector-curvature="0" fill="none" stroke="#004996" stroke-width="1.3492" d="M42.255,190.348
	c0,0,1.553,0.86,3.606-1.191c0,0,1.801-4.557,4.554-4.113"/>
<path id="path329" inkscape:connector-curvature="0" fill="none" d="M224.908,109.87c-22.758-41.077-74.5-55.891-115.566-33.131
	c-41.061,22.762-55.903,74.505-33.13,115.577c22.759,41.056,74.502,55.891,115.578,33.117
	C232.842,202.673,247.682,150.944,224.908,109.87z"/>
<text id="text331" transform="matrix(0.7171 0.697 -0.697 0.7171 88.8936 209.7385)" fill="#004996" font-family="'Helvetica-Bold'" font-size="12.1471">v</text>
<text id="text333" transform="matrix(0.7707 0.6372 -0.6372 0.7707 93.7524 214.4602)" fill="#004996" font-family="'Helvetica-Bold'" font-size="12.1468">a</text>
<text id="text335" transform="matrix(0.8213 0.5705 -0.5705 0.8213 98.9443 218.7708)" fill="#004996" font-family="'Helvetica-Bold'" font-size="12.1468">n</text>
<text id="text337" transform="matrix(0.8559 0.5171 -0.5171 0.8559 105.0776 222.9534)" fill="#004996" font-family="'Helvetica-Bold'" font-size="12.1476"> </text>
<text id="text339" transform="matrix(0.8852 0.4652 -0.4652 0.8852 107.9399 224.7415)" fill="#004996" font-family="'Helvetica-Bold'" font-size="12.1467">1</text>
<text id="text341" transform="matrix(0.9193 0.3935 -0.3935 0.9193 113.9395 227.8938)" fill="#004996" font-family="'Helvetica-Bold'" font-size="12.1465">0</text>
<text id="text343" transform="matrix(0.9409 0.3386 -0.3386 0.9409 120.1465 230.4963)" fill="#004996" font-family="'Helvetica-Bold'" font-size="12.1476">.</text>
<text id="text345" transform="matrix(0.9593 0.2823 -0.2823 0.9593 123.3101 231.6868)" fill="#004996" font-family="'Helvetica-Bold'" font-size="12.1477">3</text>
<text id="text347" transform="matrix(0.9786 0.2057 -0.2057 0.9786 129.7964 233.5959)" fill="#004996" font-family="'Helvetica-Bold'" font-size="12.1466">0</text>
<text id="text349" transform="matrix(0.9891 0.1473 -0.1473 0.9891 136.4253 234.9377)" fill="#004996" font-family="'Helvetica-Bold'" font-size="12.1469"> </text>
<text id="text351" transform="matrix(0.9964 0.0844 -0.0844 0.9964 139.7607 235.5002)" fill="#004996" font-family="'Helvetica-Bold'" font-size="12.1476">u</text>
<text id="text353" transform="matrix(0.9998 0.0208 -0.0208 0.9998 147.1753 236.0618)" fill="#004996" font-family="'Helvetica-Bold'" font-size="12.147"> </text>
<text id="text355" transform="matrix(0.9997 -0.0227 0.0227 0.9997 150.5342 236.1399)" fill="#004996" font-family="'Helvetica-Bold'" font-size="12.1475">t</text>
<text id="text357" transform="matrix(0.9959 -0.0904 0.0904 0.9959 154.5879 236.1047)" fill="#004996" font-family="'Helvetica-Bold'" font-size="12.1467">o</text>
<text id="text359" transform="matrix(0.9875 -0.1577 0.1577 0.9875 161.9766 235.3762)" fill="#004996" font-family="'Helvetica-Bold'" font-size="12.147">t</text>
<text id="text361" transform="matrix(0.9796 -0.2011 0.2011 0.9796 165.9746 234.7297)" fill="#004996" font-family="'Helvetica-Bold'" font-size="12.1471"> </text>
<text id="text363" transform="matrix(0.9658 -0.2593 0.2593 0.9658 169.2793 234.1047)" fill="#004996" font-family="'Helvetica-Bold'" font-size="12.1468">1</text>
<text id="text365" transform="matrix(0.942 -0.3355 0.3355 0.942 175.8027 232.3528)" fill="#004996" font-family="'Helvetica-Bold'" font-size="12.1475">8</text>
<text id="text367" transform="matrix(0.9203 -0.3912 0.3912 0.9203 182.1719 230.0305)" fill="#004996" font-family="'Helvetica-Bold'" font-size="12.1467">.</text>
<text id="text369" transform="matrix(0.8957 -0.4447 0.4447 0.8957 185.2793 228.7629)" fill="#004996" font-family="'Helvetica-Bold'" font-size="12.147">3</text>
<text id="text371" transform="matrix(0.8583 -0.5132 0.5132 0.8583 191.3379 225.7561)" fill="#004996" font-family="'Helvetica-Bold'" font-size="12.1471">0</text>
<text id="text373" transform="matrix(0.8265 -0.563 0.563 0.8265 197.1152 222.2424)" fill="#004996" font-family="'Helvetica-Bold'" font-size="12.1472"> </text>
<text id="text375" transform="matrix(0.7892 -0.6142 0.6142 0.7892 199.9434 220.3938)" fill="#004996" font-family="'Helvetica-Bold'" font-size="12.1473">u</text>
<text id="text377" transform="matrix(0.7484 -0.6633 0.6633 0.7484 205.7656 215.7805)" fill="#004996" font-family="'Helvetica-Bold'" font-size="12.1472"> </text>
<line id="line379" fill="none" stroke="#004996" stroke-width="2.1152" x1="85.765" y1="134.407" x2="52.278" y2="134.407"/>
<line id="line381" fill="none" stroke="#004996" stroke-width="2.1152" x1="52.533" y1="164.484" x2="86.021" y2="164.484"/>
<line id="line383" fill="none" stroke="#004996" stroke-width="2.1152" x1="247.826" y1="134.656" x2="214.338" y2="134.656"/>
<line id="line385" fill="none" stroke="#004996" stroke-width="2.1152" x1="214.597" y1="164.753" x2="248.08" y2="164.753"/>
<path id="path387" inkscape:connector-curvature="0" fill="none" stroke="#004996" stroke-width="1.3492" d="M41.357,202.633
	c0,0,1.556,0.842,3.606-1.212c0,0,1.799-4.543,4.545-4.112"/>
<path id="path389" inkscape:connector-curvature="0" fill="none" stroke="#004996" stroke-width="1.3492" d="M41.241,213.103
	c0,0,1.539,0.863,3.597-1.197c0,0,1.802-4.547,4.542-4.119"/>
<path id="path391" inkscape:connector-curvature="0" fill="none" stroke="#004996" stroke-width="1.3492" d="M41.265,224.721
	c0,0,1.561,0.86,3.606-1.193c0,0,1.81-4.545,4.543-4.125"/>
<path id="path393" inkscape:connector-curvature="0" fill="none" stroke="#004996" stroke-width="1.483" d="M68.033,250.137
	c0,0-0.514,2.909,3.521,4.45c0,0,3.078,1.767,2.479,2.802"/>
<path id="path395" inkscape:connector-curvature="0" fill="none" stroke="#004996" stroke-width="1.4172" d="M79.736,251.394
	c0,0-0.514,2.631,3.515,4.055c0,0,3.076,1.609,2.48,2.543"/>
<path id="path397" inkscape:connector-curvature="0" fill="none" stroke="#004996" stroke-width="1.4459" d="M89.166,251.036
	c0,0-0.519,2.765,3.512,4.246c0,0,3.086,1.666,2.491,2.646"/>
<path id="path399" inkscape:connector-curvature="0" fill="none" stroke="#004996" stroke-width="1.4459" d="M100.656,251.305
	c0,0-0.509,2.756,3.507,4.225c0,0,3.098,1.684,2.486,2.658"/>
<path id="path401" inkscape:connector-curvature="0" fill="none" stroke="#004996" stroke-width="1.4459" d="M44.626,238.298
	c0,0,2.79-0.397,2.927-4.682c0,0,0.606-3.455,1.733-3.188"/>
<path id="path403" inkscape:connector-curvature="0" fill="none" stroke="#004996" stroke-width="1.4459" d="M51.397,248.467
	c0,0,2.707-0.753,2.283-5.021c0,0,0.161-3.51,1.306-3.385"/>
<path id="path405" inkscape:connector-curvature="0" fill="none" stroke="#004996" stroke-width="1.4459" d="M61.276,255.228
	c0,0,1.958-2.025-0.585-5.476c0,0-1.653-3.104-0.606-3.596"/>
<path id="path407" inkscape:connector-curvature="0" fill="none" stroke="#004996" stroke-width="1.483" d="M113.012,250.876
	c0,0-0.514,2.912,3.522,4.461c0,0,3.077,1.765,2.484,2.798"/>
<path id="path409" inkscape:connector-curvature="0" fill="none" stroke="#004996" stroke-width="1.4172" d="M124.717,252.135
	c0,0-0.514,2.643,3.521,4.061c0,0,3.076,1.604,2.48,2.541"/>
<path id="path411" inkscape:connector-curvature="0" fill="none" stroke="#004996" stroke-width="1.4459" d="M134.157,251.782
	c0,0-0.524,2.771,3.502,4.248c0,0,3.098,1.67,2.485,2.652"/>
<path id="path413" inkscape:connector-curvature="0" fill="none" stroke="#004996" stroke-width="1.4459" d="M145.636,252.04
	c0,0-0.504,2.771,3.517,4.244c0,0,3.089,1.664,2.483,2.65"/>
<path id="path415" inkscape:connector-curvature="0" fill="none" stroke="#004996" stroke-width="1.483" d="M157.629,250.562
	c0,0-0.51,2.904,3.521,4.457c0,0,3.091,1.752,2.486,2.795"/>
<path id="path417" inkscape:connector-curvature="0" fill="none" stroke="#004996" stroke-width="1.4172" d="M169.338,251.816
	c0,0-0.51,2.637,3.505,4.053c0,0,3.104,1.604,2.495,2.549"/>
<path id="path419" inkscape:connector-curvature="0" fill="none" stroke="#004996" stroke-width="1.4459" d="M178.762,251.478
	c0,0-0.508,2.758,3.514,4.219c0,0,3.098,1.676,2.496,2.664"/>
<path id="path421" inkscape:connector-curvature="0" fill="none" stroke="#004996" stroke-width="1.4459" d="M190.258,251.712
	c0,0-0.518,2.771,3.514,4.246c0,0,3.098,1.675,2.492,2.656"/>
<path id="path423" inkscape:connector-curvature="0" fill="none" stroke="#004996" stroke-width="1.483" d="M204.19,250.562
	c0,0-0.495,2.904,3.527,4.457c0,0,3.092,1.752,2.485,2.795"/>
<path id="path425" inkscape:connector-curvature="0" fill="none" stroke="#004996" stroke-width="1.4172" d="M215.914,251.798
	c0,0-0.52,2.654,3.508,4.062c0,0,3.098,1.613,2.484,2.559"/>
<path id="path427" inkscape:connector-curvature="0" fill="none" stroke="#004996" stroke-width="1.4459" d="M226.642,250.814
	c0,0-0.515,2.756,3.513,4.223c0,0,3.098,1.688,2.493,2.67"/>
<path id="path429" inkscape:connector-curvature="0" fill="none" stroke="#004996" stroke-width="1.4459" d="M235.67,248.385
	c0,0,0.678,2.729,4.959,2.399c0,0,3.5,0.236,3.359,1.387"/>
<path id="path431" inkscape:connector-curvature="0" fill="none" stroke="#004996" stroke-width="1.3492" d="M258.213,231.266
	c0,0-1.893-1.566-4.896,1.412c0,0-2.703,2.071-3.201,1.141"/>
<path id="path433" inkscape:connector-curvature="0" fill="none" stroke="#004996" stroke-width="1.3492" d="M258.254,218.096
	c0,0-2.262-0.918-4.242,2.815c0,0-1.973,2.791-2.707,2.051"/>
<path id="path435" inkscape:connector-curvature="0" fill="none" stroke="#004996" stroke-width="1.3492" d="M257.924,207.374
	c0,0-2.277-0.926-4.256,2.816c0,0-1.971,2.785-2.711,2.049"/>
<path id="path437" inkscape:connector-curvature="0" fill="none" stroke="#004996" stroke-width="1.3492" d="M257.998,196.13
	c0,0-2.271-0.909-4.23,2.837c0,0-1.971,2.778-2.717,2.038"/>
<path id="path439" inkscape:connector-curvature="0" fill="none" stroke="#004996" stroke-width="1.1877" d="M252.877,243.482
	c0,0-0.463-2.029-4.266-1.385c0,0-3.082,0.133-2.91-0.759"/>
</svg>
