<?xml version="1.0" encoding="utf-8"?>
<!-- Generator: Adobe Illustrator 16.0.3, SVG Export Plug-In . SVG Version: 6.00 Build 0)  -->
<!DOCTYPE svg PUBLIC "-//W3C//DTD SVG 1.1//EN" "http://www.w3.org/Graphics/SVG/1.1/DTD/svg11.dtd">
<svg version="1.1"
	 id="Laag_1" xmlns:dc="http://purl.org/dc/elements/1.1/" xmlns:cc="http://creativecommons.org/ns#" xmlns:rdf="http://www.w3.org/1999/02/22-rdf-syntax-ns#" xmlns:svg="http://www.w3.org/2000/svg" xmlns:sodipodi="http://sodipodi.sourceforge.net/DTD/sodipodi-0.dtd" xmlns:inkscape="http://www.inkscape.org/namespaces/inkscape" inkscape:version="0.92.1 r15371" sodipodi:docname="baden verboden.svg"
	 xmlns="http://www.w3.org/2000/svg" xmlns:xlink="http://www.w3.org/1999/xlink" x="0px" y="0px" width="304.291px"
	 height="304.293px" viewBox="0 0 304.291 304.293" enable-background="new 0 0 304.291 304.293" xml:space="preserve">
<circle fill="#FFFFFF" cx="151.774" cy="155.225" r="121.89"/>
<sodipodi:namedview  inkscape:cy="154.27419" inkscape:cx="151.06971" inkscape:zoom="0.3964554" showgrid="false" guidetolerance="10" gridtolerance="10" objecttolerance="10" borderopacity="1" pagecolor="#ffffff" bordercolor="#666666" id="namedview244" inkscape:current-layer="Laag_1" inkscape:window-maximized="1" inkscape:window-y="-8" inkscape:window-x="-8" inkscape:window-height="1018" inkscape:window-width="1920" inkscape:pageshadow="2" inkscape:pageopacity="0">
	</sodipodi:namedview>
<path id="path235" inkscape:connector-curvature="0" fill="#004996" d="M141.538,208.744c0,6.729-5.445,12.203-12.179,12.203
	c-6.728,0-12.185-5.476-12.185-12.203c0-6.729,5.457-12.18,12.185-12.18C136.093,196.566,141.538,202.017,141.538,208.744z"/>
<path id="path237" inkscape:connector-curvature="0" fill="#004996" d="M223.073,235.205l-1.214-1.017l-5.943-4.299l-2.053,1.836
	c-17.801,10.659-33.771-2.446-33.771-2.446c-20.075,15.756-38.283-0.207-38.283-0.207c-2.729,2.33-5.236,3.717-7.485,4.49
	l-16.859-17.348l0.242-0.238l-16.963-16.693v-24.752c0-2.553-2.156-4.619-4.811-4.619c-2.669,0-4.82,2.066-4.82,4.619v27.08
	c0,0.861,0.254,1.657,0.672,2.34l-0.041,0.031l0.161,0.16c0.33,0.499,0.773,0.914,1.276,1.252l9.941,9.805l-0.595,2.592
	l-16.003,15.541l0.438,0.451l-0.229-0.009c-7.371,1.431-17.803-2.257-17.803-2.257c83.104,76.578,153.733,11.676,153.733,11.676
	l1.645-4.289L223.073,235.205z"/>
<path id="path241" inkscape:connector-curvature="0" fill="none" stroke="#E40520" stroke-width="39.7754" d="M284.404,152.146
	c0,73.049-59.224,132.26-132.258,132.26c-73.043,0-132.258-59.211-132.258-132.26c0-73.037,59.215-132.258,132.258-132.258
	C225.181,19.888,284.404,79.109,284.404,152.146z"/>
<path id="path239" inkscape:connector-curvature="0" fill="#E40520" d="M255.352,230.391l-58.157-57.878
	c0.747-0.646,1.484-1.301,2.203-1.992c6.542-6.193,10.673-15.258,10.673-24.812c0-11.901-3.958-23.635-19.09-29.161
	c5.156-2.521,15.132-7.382,15.132-24.644c0-12.403-7.739-30.838-38.009-30.838h-60.039v22.777L71.716,47.678l-0.39,0.378
	L50.196,69.313l57.869,57.569v54.531h52.292c0.873,0,1.661-0.015,2.49-0.015l70.979,70.614L255.352,230.391z M132.828,81.859h29.594
	c11.692,0,18.92,3.008,18.92,12.889c0,9.56-8.088,13.406-18.239,13.406h-30.274V81.859z M165.692,128.448
	c9.283,0,18.576,4.019,18.576,14.582c0,5.486-1.526,9.521-4.271,12.381L152.9,128.448H165.692z M132.828,160.621v-9.092l9.15,9.092
	H132.828z"/>
</svg>
