<?xml version="1.0" encoding="UTF-8" standalone="no"?>
<svg
   xmlns:dc="http://purl.org/dc/elements/1.1/"
   xmlns:cc="http://creativecommons.org/ns#"
   xmlns:rdf="http://www.w3.org/1999/02/22-rdf-syntax-ns#"
   xmlns:svg="http://www.w3.org/2000/svg"
   xmlns="http://www.w3.org/2000/svg"
   xmlns:sodipodi="http://sodipodi.sourceforge.net/DTD/sodipodi-0.dtd"
   xmlns:inkscape="http://www.inkscape.org/namespaces/inkscape"
   id="svg10"
   version="1.1"
   height="200"
   width="600"
   sodipodi:docname="XX-Straatnaambord.svg"
   shape-rendering="crispEdges"
   inkscape:version="0.92.4 (5da689c313, 2019-01-14)">
  <sodipodi:namedview
     pagecolor="#ffffff"
     bordercolor="#666666"
     borderopacity="1"
     objecttolerance="10"
     gridtolerance="10"
     guidetolerance="10"
     inkscape:pageopacity="0"
     inkscape:pageshadow="2"
     inkscape:window-width="1920"
     inkscape:window-height="1137"
     id="namedview9"
     showgrid="false"
     inkscape:showpageshadow="false"
     inkscape:zoom="0.64666667"
     inkscape:cx="84.278351"
     inkscape:cy="285.56701"
     inkscape:window-x="1912"
     inkscape:window-y="-8"
     inkscape:window-maximized="1"
     inkscape:current-layer="svg10" />
  <metadata
     id="metadata16">
    <rdf:RDF>
      <cc:Work
         rdf:about="">
        <dc:format>image/svg+xml</dc:format>
        <dc:type
           rdf:resource="http://purl.org/dc/dcmitype/StillImage" />
        <dc:title></dc:title>
      </cc:Work>
    </rdf:RDF>
  </metadata>
  <defs
     id="defs14" />
  <!--Gegenereerd door de SIMaD-toepassing (http://www.dlw.be).-->
  <g
     id="g8"
     transform="matrix(0.99833609,0,0,-0.99502491,0.49917222,199.50249)"
     style="fill-rule:evenodd;stroke:none">
    <path
       id="path2"
       style="fill:#ffffff;stroke:#000000"
       d="m 15,0 h 570 a 15,15 0 0 1 15,15 v 170 a 15,15 0 0 1 -15,15 H 15 A 15,15 0 0 1 0,185 V 15 A 15,15 0 0 1 15,0 Z" />
    <path
       id="path4"
       style="fill:#000000"
       d="m 18,3 h 564 a 15,15 0 0 1 15,15 v 164 a 15,15 0 0 1 -15,15 H 18 A 15,15 0 0 1 3,182 V 18 A 15,15 0 0 1 18,3 Z" />
    <path
       id="path6"
       style="fill:#ffffff"
       d="m 18,8 h 564 a 10,10 0 0 1 10,10 v 164 a 10,10 0 0 1 -10,10 H 18 A 10,10 0 0 1 8,182 V 18 A 10,10 0 0 1 18,8 Z" />
  </g>
</svg>
