<?xml version="1.0" encoding="utf-8"?>
<!-- Generator: Adobe Illustrator 16.0.3, SVG Export Plug-In . SVG Version: 6.00 Build 0)  -->
<!DOCTYPE svg PUBLIC "-//W3C//DTD SVG 1.1//EN" "http://www.w3.org/Graphics/SVG/1.1/DTD/svg11.dtd">
<svg version="1.1"
	 id="Laag_1" xmlns:dc="http://purl.org/dc/elements/1.1/" xmlns:cc="http://creativecommons.org/ns#" xmlns:rdf="http://www.w3.org/1999/02/22-rdf-syntax-ns#" xmlns:svg="http://www.w3.org/2000/svg" xmlns:sodipodi="http://sodipodi.sourceforge.net/DTD/sodipodi-0.dtd" xmlns:inkscape="http://www.inkscape.org/namespaces/inkscape" inkscape:version="0.92.1 r15371" sodipodi:docname="surfen toegelaten.svg"
	 xmlns="http://www.w3.org/2000/svg" xmlns:xlink="http://www.w3.org/1999/xlink" x="0px" y="0px" width="300.08px"
	 height="300.088px" viewBox="0 0 300.08 300.088" enable-background="new 0 0 300.08 300.088" xml:space="preserve">
<ellipse fill="#FFFFFF" cx="149.04" cy="150.044" rx="116.167" ry="117.833"/>
<sodipodi:namedview  inkscape:cy="131.44849" inkscape:cx="161.10501" inkscape:zoom="0.3964554" showgrid="false" guidetolerance="10" gridtolerance="10" objecttolerance="10" borderopacity="1" pagecolor="#ffffff" bordercolor="#666666" id="namedview4991" inkscape:current-layer="Laag_1" inkscape:window-maximized="1" inkscape:window-y="-8" inkscape:window-x="-8" inkscape:window-height="1018" inkscape:window-width="1920" inkscape:pageshadow="2" inkscape:pageopacity="0">
	</sodipodi:namedview>
<path id="path4958" inkscape:connector-curvature="0" fill="#004996" d="M0,150.028c0,82.741,67.313,150.06,150.042,150.06
	c82.73,0,150.038-67.318,150.038-150.06C300.08,67.299,232.772,0,150.042,0C67.313,0,0,67.299,0,150.028z M40.732,150.028
	c0-60.258,49.041-109.292,109.31-109.292c60.271,0,109.309,49.034,109.309,109.292c0,60.299-49.037,109.327-109.309,109.327
	C89.773,259.355,40.732,210.327,40.732,150.028L40.732,150.028z"/>
<path id="path4960" inkscape:connector-curvature="0" fill="#004996" d="M150.705,96.059c0,0-42.049,60.526-53.03,92.139
	c0,0,36.952,18.203,83.277,25.691c0,0,12.076-35.062,12.844-70.942c0,0,4.574-58.768-7.264-93.113L150.705,96.059z"/>
<path id="path4962" inkscape:connector-curvature="0" fill="#004996" d="M95.611,241.04l-4.461-4.463
	c0,0,17.953-11.912,86.649-19.271c0,0,14.705-1.916,23.997-1.347c0,0,3.684,1.939,1.736,3.681
	C203.532,219.64,157.787,241.339,95.611,241.04z"/>
<path id="path4964" inkscape:connector-curvature="0" fill="#FFFFFF" d="M137.928,184.997c0,0,18.396-29.614,43.167-22.833
	c0,0,1.155,14.342-7.753,38.715C173.342,200.88,147.996,194.099,137.928,184.997z"/>
<path id="path4966" inkscape:connector-curvature="0" fill="#004996" d="M143.268,174.569c0.272,0.16,27.693,16.809,33.344,21.436
	l3.324-4.036c-5.953-4.869-32.827-21.181-33.969-21.875L143.268,174.569z"/>
<path id="path4968" inkscape:connector-curvature="0" fill="#FFFFFF" d="M150.136,94.042c0,0,2.692,19.156,20.507,30.58
	c0,0,7.682,3.879,10.596,5.486c0,0,2.697,0.375,10.304,10.012c0,0,5.024-41.24-5.81-87.873l-2.709-1.936L150.136,94.042z"/>
<path id="path4970" inkscape:connector-curvature="0" fill="#004996" d="M181.44,96.723c0,4.342-3.527,7.868-7.862,7.868
	c-4.345,0-7.854-3.526-7.854-7.868c0-4.332,3.51-7.849,7.854-7.849C177.913,88.876,181.44,92.391,181.44,96.723z"/>
<path id="path4972" inkscape:connector-curvature="0" fill="#FFFFFF" d="M142.764,105.655c0,0,0.394,6.963,9.299,14.898
	c0,0,6.578,5.047,14.701,6.977c0,0,19.94,4.064,24.385,18.184l-0.186,2.127c0,0-5.23-16.063-24.391-18.575
	c0,0-21.289-3.082-26.902-18.582C134.055,95.209,142.764,105.655,142.764,105.655L142.764,105.655z"/>
<path id="path4974" inkscape:connector-curvature="0" fill="#FFFFFF" d="M153.401,133.911c0,0-12.178,1.365-25.338-13.736
	c-13.156-15.094,5.229,0.183,5.229,0.183s5.866,8.539,21.663,11.983c0,0,31.159-5.207,35.621,24.992l-1.358,3.873
	c0,0-1.744-21.688-17.414-26.313c0,0-7.841-1.599-18.386-0.98c-0.331,0.025-0.628,0.033-0.907,0.043"/>
<path id="path4976" inkscape:connector-curvature="0" fill="#FFFFFF" stroke="#004996" stroke-width="1.5404" d="M197.013,220.382
	c-13.699,7.236-36.602,11.959-36.826,12.074c-1.211,0.603-1,0.295-0.957,0.572c0.037,0.258,0.871-0.26,1.143-0.318
	c0.23-0.018,22.74-5.071,37.107-11.463c0.244-0.094,0.33-0.42,0.203-0.658C197.554,220.347,197.267,220.26,197.013,220.382
	L197.013,220.382z"/>
<path id="path4978" inkscape:connector-curvature="0" fill="#FFFFFF" d="M178.099,217.464c0,0-1,4.507-0.664,4.855
	c0,0,0.68,1.293,1.738-0.264c0,0,1.276-4.273,1.328-4.627c0.057-0.345,0.077-0.648,0.077-0.648l-1.878,0.195l-0.446,0.076
	L178.099,217.464z"/>
<path id="path4980" inkscape:connector-curvature="0" fill="#004996" d="M88.524,190.106l-0.489,0.19v2.144l0.665,0.074
	c0.295,0.021,29.842,3.034,57.503-2.521c1.325-0.217,33.243-5.215,48.702-17.771l1.263-1.017l-1.597-0.291
	C194.213,170.856,157.396,164.799,88.524,190.106z M192.504,172.155c-15.657,11.508-46.24,16.322-46.552,16.373
	c-24.441,4.924-50.299,3.098-55.917,2.625C149.35,169.501,184.438,171.315,192.504,172.155z"/>
<path id="path4982" inkscape:connector-curvature="0" fill="#004996" d="M190.53,175.344c1.564-0.986,3.027-2.023,4.375-3.121
	l1.263-1.017l-1.597-0.291c-0.063-0.012-1.168-0.184-3.295-0.377l-0.282,1.478c0.583,0.051,1.08,0.092,1.51,0.141
	c-0.511,0.381-1.053,0.756-1.606,1.115L190.53,175.344z"/>
<path id="path4984" inkscape:connector-curvature="0" fill="#FFFFFF" d="M162.497,186.444c0,0,6.583-1.707,6.689-1.857l-1.682-1.114
	c0,0-6.811,1.813-6.824,1.854C160.66,185.345,162.497,186.444,162.497,186.444L162.497,186.444z"/>
<path id="path4986" inkscape:connector-curvature="0" fill="#FFFFFF" d="M191.493,170.594c-2.268-0.197-5.727-0.375-10.452-0.308
	c0,0-0.196,1.348-0.196,1.457c4.672-0.063,8.149,0.125,10.395,0.313L191.493,170.594z M162.237,186.585
	c2.142-0.569,4.418-1.219,6.732-1.936 M150.933,173.122c-14.316,2.342-31.948,6.498-52.984,13.676l-0.21,1.644
	c22.008-7.578,40.45-11.791,55.089-14.129L150.933,173.122z M108.838,193.36c0,0,23.043-0.596,36.113-3.107
	c-0.314-0.131-1.913-1.153-1.913-1.153c-13.872,2.475-27.524,2.922-37.82,2.762l3.666,1.51 M167.267,183.562
	c-2.387,0.729-4.723,1.358-6.906,1.914 M179.371,180.972c4.028-1.656,7.966-3.605,11.381-5.773l0.33-2.041
	c-3.358,2.266-7.282,4.25-11.375,5.988L179.371,180.972z"/>
<polygon id="polygon4988" fill="#004996" points="178.25,217.058 178.847,213.507 181.174,213.507 181.099,214.155 180.558,216.78 
	"/>
</svg>
