<?xml version="1.0"?>
<!DOCTYPE svg PUBLIC "-//W3C//DTD SVG 1.0//EN" "http://www.w3.org/TR/2001/REC-SVG-20010904/DTD/svg10.dtd">
<svg xmlns="http://www.w3.org/2000/svg" xmlns:xlink="http://www.w3.org/1999/xlink" style="fill-opacity:1; color-rendering:auto; color-interpolation:auto; stroke:black; text-rendering:auto; stroke-linecap:square; stroke-miterlimit:10; stroke-opacity:1; shape-rendering:auto; fill:black; stroke-dasharray:none; font-weight:normal; stroke-width:1; font-family:'Dialog'; font-style:normal; stroke-linejoin:miter; font-size:12; stroke-dashoffset:0; image-rendering:auto;" viewBox="0.0 0.0 600.0 900.0">
  <!--Gegenereerd door de MOW Symbolenbibliotheek.-->
  <defs id="genericDefs" />
  <g>
    <g style="fill:rgb(252,255,255); stroke:rgb(252,255,255);" transform="matrix(1,0,0,-1,0,900)">
      <path d="M600 65 L600 835 C600 852.2391 593.1518 868.7721 580.9619 880.9619 C568.7721 893.1518 552.2391 900 535 900 L65 900 C47.7609 900 31.2279 893.1518 19.0381 880.9619 C6.8482 868.7721 -0 852.2391 0 835 L0 835 L0 65 L0 65 C-0 47.7609 6.8482 31.2279 19.0381 19.0381 C31.2279 6.8482 47.7609 -0 65 0 L65 0 L535 0 L535 0 C552.2391 -0 568.7721 6.8482 580.9619 19.0381 C593.1518 31.2279 600 47.7609 600 65 Z" style="stroke:none;" />
    </g>
    <g style="fill:rgb(20,23,28); stroke:rgb(20,23,28);" transform="matrix(1,0,0,-1,0,900)">
      <path d="M65 15 L535 15 C548.2608 15 560.9785 20.2678 570.3553 29.6447 C579.7322 39.0215 585 51.7392 585 65 L585 835 C585 848.2608 579.7322 860.9785 570.3553 870.3553 C560.9785 879.7322 548.2608 885 535 885 L65 885 C51.7392 885 39.0215 879.7322 29.6447 870.3553 C20.2678 860.9785 15 848.2608 15 835 L15 65 C15 51.7392 20.2678 39.0215 29.6447 29.6447 C39.0215 20.2678 51.7392 15 65 15 Z" style="stroke:none;" />
      <path d="M570 65 L570 835 C570 844.2826 566.3125 853.1849 559.7487 859.7487 C553.1849 866.3125 544.2826 870 535 870 L65 870 C55.7174 870 46.815 866.3125 40.2513 859.7487 C33.6875 853.1849 30 844.2826 30 835 L30 65 C30 55.7174 33.6875 46.815 40.2513 40.2513 C46.815 33.6875 55.7174 30 65 30 L535 30 C544.2826 30 553.1849 33.6875 559.7487 40.2513 C566.3125 46.815 570 55.7174 570 65 Z" style="fill:rgb(252,255,255); stroke:none;" />
      <path d="M536 426 C536 556.3392 430.3392 662 300 662 C169.6608 662 64 556.3392 64 426 C64 295.6608 169.6608 190 300 190 C430.3392 190 536 295.6608 536 426 Z" style="fill:rgb(199,23,18); stroke:none;" />
      <path d="M468.57 426 C468.57 519.0986 393.0986 594.57 300 594.57 C206.9014 594.57 131.43 519.0986 131.43 426 C131.43 332.9014 206.9014 257.43 300 257.43 C393.0986 257.43 468.57 332.9014 468.57 426 Z" style="fill:rgb(252,255,255); stroke:none;" />
    </g>
    <g transform="matrix(1,0,0,1,0,900)" style="fill:rgb(20,23,28); font-size:147; font-family:'Snv Becker'; stroke:rgb(20,23,28);">
      <path d="M159.7656 -731.5938 L204.8438 -731.5938 L204.8438 -715.2969 L137.6562 -715.2969 L137.6562 -731.5938 L180.7969 -796.9844 L139.6719 -796.9844 L139.6719 -813.2656 L202.6094 -813.2656 L202.6094 -796.9844 L159.7656 -731.5938 ZM218.3281 -747.5312 L218.3281 -781.1875 Q218.3281 -789.0156 220.7656 -794.5469 Q225.3594 -805.0938 234.9688 -810.8281 Q242.4375 -815.2188 251.8438 -815.2188 Q268.7031 -815.2188 278.6875 -801.8594 Q285.5 -792.6719 285.5 -781.1875 L285.5 -747.5312 Q285.5 -735.1094 277.9688 -725.7812 Q268.1406 -713.3594 251.9219 -713.3594 Q240.4375 -713.3594 231.5938 -719.6719 Q218.3281 -729.2188 218.3281 -747.5312 ZM267.5625 -745.0156 L267.5625 -783.5625 Q267.5625 -788.7188 264.4688 -792.75 Q259.7344 -798.9219 252.0625 -798.9219 Q246.3906 -798.9219 241.7969 -795.0469 Q236.2656 -790.2969 236.2656 -783.5625 L236.2656 -745.0156 Q236.2656 -738.4844 240.8594 -734.0312 Q245.4531 -729.6562 252.0625 -729.6562 Q258.2344 -729.6562 262.4688 -733.4531 Q267.5625 -737.9844 267.5625 -745.0156 ZM305.1875 -715.2969 L305.1875 -813.2656 L326.0781 -813.2656 L356.0781 -747.375 L356.0781 -813.2656 L372.375 -813.2656 L372.375 -715.2969 L351.125 -715.2969 L321.4844 -779.6094 L321.4844 -715.2969 L305.1875 -715.2969 ZM394.1875 -715.2969 L394.1875 -813.2656 L454.4062 -813.2656 L454.4062 -796.9844 L412.1406 -796.9844 L412.1406 -774.4375 L440.3438 -774.4375 L440.3438 -758.1406 L412.1406 -758.1406 L412.1406 -731.5938 L454.4062 -731.5938 L454.4062 -715.2969 L394.1875 -715.2969 Z" style="stroke:none;" />
    </g>
  </g>
</svg>
