<?xml version="1.0" encoding="utf-8"?>
<!-- Generator: Adobe Illustrator 16.0.3, SVG Export Plug-In . SVG Version: 6.00 Build 0)  -->
<!DOCTYPE svg PUBLIC "-//W3C//DTD SVG 1.1//EN" "http://www.w3.org/Graphics/SVG/1.1/DTD/svg11.dtd">
<svg version="1.1" id="Laag_1" xmlns="http://www.w3.org/2000/svg" xmlns:xlink="http://www.w3.org/1999/xlink" x="0px" y="0px"
	 width="113.46px" height="170.161px" viewBox="0 0 113.46 170.161" enable-background="new 0 0 113.46 170.161"
	 xml:space="preserve">
<path fill-rule="evenodd" clip-rule="evenodd" fill="none" d="M12.81,170.13h87.841l1.26-0.061l1.26-0.18
	c5.432-1.092,9.725-5.713,10.2-11.28l0.06-1.26V12.81c0.014-6.136-4.311-11.218-10.26-12.54l-1.26-0.18l-1.26-0.06H12.81l-1.26,0.06
	C5.938,0.693,1.419,4.759,0.271,10.29L0.09,11.55l-0.06,1.26v144.54c-0.004,2.101,0.505,4.207,1.5,6.06l0.66,1.08l0.72,0.96
	c1.134,1.505,3.231,3.025,4.979,3.721l1.2,0.42l1.2,0.3l1.26,0.18L12.81,170.13z"/>
<path fill-rule="evenodd" clip-rule="evenodd" fill="#FFFFFF" d="M14.91,155.07V46.65l0.18-1.86l0.54-1.8
	c1.335-3.075,3.732-5.023,7.02-5.7l1.86-0.18h65.88c3.846,0.022,7.443,2.223,8.82,5.88l0.54,1.8l0.24,1.86v108.42l-0.24,1.86
	c-0.572,3.081-2.721,5.875-5.7,6.96l-1.8,0.6l-1.86,0.181H24.51l-1.86-0.181l-1.799-0.6l-1.681-0.84l-1.44-1.2l-1.199-1.44
	l-0.9-1.68l-0.54-1.8L14.91,155.07z"/>
<path fill="none" stroke="#B2B2B2" stroke-width="0.25" stroke-miterlimit="10" d="M14.91,155.07V46.65l0.18-1.86l0.54-1.8
	c1.335-3.075,3.732-5.023,7.02-5.7l1.86-0.18h65.88c3.846,0.022,7.443,2.223,8.82,5.88l0.54,1.8l0.24,1.86v108.42l-0.24,1.86
	c-0.572,3.081-2.721,5.875-5.7,6.96l-1.8,0.6l-1.86,0.181H24.51l-1.86-0.181l-1.799-0.6l-1.681-0.84l-1.44-1.2l-1.199-1.44
	l-0.9-1.68l-0.54-1.8L14.91,155.07z"/>
<path fill="#FFFFFF" stroke="#000000" stroke-width="0.06" stroke-linecap="round" stroke-linejoin="round" stroke-miterlimit="10" d="
	M12.81,170.13h87.841l1.26-0.061l1.26-0.18c5.432-1.092,9.725-5.713,10.2-11.28l0.06-1.26V12.81
	c0.014-6.136-4.311-11.218-10.26-12.54l-1.26-0.18l-1.26-0.06H12.81l-1.26,0.06C5.938,0.693,1.419,4.759,0.271,10.29L0.09,11.55
	l-0.06,1.26v144.54c-0.004,2.101,0.505,4.207,1.5,6.06l0.66,1.08l0.72,0.96c1.134,1.505,3.231,3.025,4.979,3.721l1.2,0.42l1.2,0.3
	l1.26,0.18L12.81,170.13z"/>
<g>
	<path fill="#B2B2B2" d="M17.959,155.392V46.388l0.483-2.412l1.327-2.17l2.049-1.327l2.531-0.482h66.2l2.412,0.482l2.17,1.327
		l1.326,2.17l0.483,2.412v109.004l-0.483,2.412l-1.326,2.051l-2.17,1.445l-2.412,0.484h-66.2l-2.531-0.484l-2.049-1.445
		l-1.327-2.051L17.959,155.392z M21.336,156.599l0.723,0.965l1.086,0.723l1.205,0.242h66.2l1.207-0.242l1.084-0.723l0.724-0.965
		l0.241-1.207V46.388l-0.241-1.206l-0.724-1.085l-1.084-0.724l-1.207-0.241h-66.2l-1.205,0.241l-1.086,0.724l-0.723,1.085
		l-0.24,1.206v109.004L21.336,156.599z"/>
</g>
<polygon fill="#B2B2B2" points="56.044,93.125 74.492,93.125 81.485,108.318 82.571,110.609 83.415,112.056 85.465,113.985 
	85.586,114.347 85.705,122.908 85.465,125.441 83.294,132.072 81.847,132.072 81.847,141.236 75.698,141.236 75.698,132.072 
	36.388,132.072 36.388,141.236 30.118,141.236 30.118,132.072 28.792,132.072 26.621,125.441 26.38,122.908 26.5,114.347 
	26.621,113.985 28.671,112.056 29.515,110.609 30.6,108.318 37.595,93.125 "/>
<rect x="35.183" y="123.27" fill="none" stroke="#FFFFFF" stroke-width="0.1206" stroke-linecap="round" stroke-linejoin="round" stroke-miterlimit="10" width="41.601" height="1.567"/>
<rect x="41.814" y="127.49" fill="none" stroke="#FFFFFF" stroke-width="0.1206" stroke-linecap="round" stroke-linejoin="round" stroke-miterlimit="10" width="28.337" height="1.568"/>
<rect x="41.814" y="119.169" fill="none" stroke="#FFFFFF" stroke-width="0.1206" stroke-linecap="round" stroke-linejoin="round" stroke-miterlimit="10" width="28.94" height="1.568"/>
<g>
	<rect x="35.183" y="123.27" fill-rule="evenodd" clip-rule="evenodd" fill="#FFFFFF" width="41.601" height="1.567"/>
	<polyline fill-rule="evenodd" clip-rule="evenodd" fill="#FFFFFF" points="81.968,118.447 81.728,117.242 81.003,116.276 
		80.038,115.552 78.833,115.312 77.627,115.552 76.543,116.276 75.938,117.242 75.698,118.447 75.938,119.653 76.543,120.617 
		77.627,121.339 78.833,121.582 80.038,121.339 81.003,120.617 81.728,119.653 81.968,118.447 	"/>
	
		<polygon fill="none" stroke="#FFFFFF" stroke-width="0.1206" stroke-linecap="round" stroke-linejoin="round" stroke-miterlimit="10" points="
		81.968,118.447 81.728,117.242 81.003,116.276 80.038,115.552 78.833,115.312 77.627,115.552 76.543,116.276 75.938,117.242 
		75.698,118.447 75.938,119.653 76.543,120.617 77.627,121.339 78.833,121.582 80.038,121.339 81.003,120.617 81.728,119.653 	"/>
	<polygon fill="#FFFFFF" points="36.388,118.326 36.146,117.121 35.425,116.156 34.458,115.431 33.253,115.191 32.047,115.431 
		31.083,116.156 30.359,117.121 30.118,118.326 30.359,119.531 31.083,120.617 32.047,121.22 33.253,121.46 34.458,121.22 
		35.425,120.617 36.146,119.531 	"/>
	<polyline fill-rule="evenodd" clip-rule="evenodd" fill="#FFFFFF" points="56.767,95.536 40.609,95.536 32.892,112.296 
		44.587,111.332 56.404,110.849 57.127,110.849 68.944,111.332 80.641,112.296 72.924,95.536 56.767,95.536 	"/>
	<rect x="41.814" y="127.49" fill-rule="evenodd" clip-rule="evenodd" fill="#FFFFFF" width="28.337" height="1.568"/>
	<rect x="41.814" y="119.169" fill-rule="evenodd" clip-rule="evenodd" fill="#FFFFFF" width="28.94" height="1.568"/>
	<polyline fill-rule="evenodd" clip-rule="evenodd" fill="#FFFFFF" points="61.711,138.221 61.711,104.942 61.951,104.338 
		62.675,103.977 64.122,103.977 64.845,104.338 65.086,104.942 65.086,138.221 67.858,138.221 67.858,140.513 61.711,140.513 
		61.711,138.221 	"/>
	<polygon fill="#B2B2B2" points="61.711,138.221 61.711,104.942 61.951,104.338 62.675,103.977 64.122,103.977 64.845,104.338 
		65.086,104.942 65.086,138.221 67.858,138.221 67.858,140.513 61.711,140.513 	"/>
	<polyline fill-rule="evenodd" clip-rule="evenodd" fill="#FFFFFF" points="54.354,122.788 54.354,104.942 54.113,104.338 
		53.391,103.977 51.942,103.977 51.22,104.338 50.979,104.942 50.979,122.788 48.085,122.788 48.085,125.199 54.354,125.199 
		54.354,122.788 	"/>
	<polygon fill="#B2B2B2" points="54.354,122.788 54.354,104.942 54.113,104.338 53.391,103.977 51.942,103.977 51.22,104.338 
		50.979,104.942 50.979,122.788 48.085,122.788 48.085,125.199 54.354,125.199 	"/>
	<path fill-rule="evenodd" clip-rule="evenodd" fill="#FFFFFF" d="M57.972,100.238h6.392l-0.723-2.894l1.688-10.249l4.461,15.796
		h-2.05v0.242l-5.668-2.05h-8.079l-5.666,2.05v-0.242h-2.051l4.463-15.796l1.566,10.249l-0.603,2.894H57.972 M55.561,83.236
		l-1.447,0.362l-2.894,0.724l-0.481,0.241l-0.242,0.12l-2.051,1.447l-0.36,0.482l-4.462,15.676v0.603h-2.896v2.051h7.599v-0.241
		l6.149-2.291h3.135h-0.12l-0.363,2.291v12.541h-0.239v3.135l-0.604,1.084v27.373l0.362,0.844l0.964,0.362h0.845l0.965-0.362
		l0.361-0.844V121.46l-0.604-1.084v-3.135h-0.24v-12.541l-0.361-2.291h-0.12h3.135l6.149,2.291v0.241h7.597v-2.051h-2.894v-0.603
		l-4.461-15.676l-0.361-0.482l-2.052-1.447l-0.36-0.12l-0.363-0.241l-2.894-0.724l-1.446-0.362l1.446-1.085l1.206-1.567l0.483-1.809
		l-0.122-1.929l-0.723-1.689L61.59,73.71l-1.688-0.964l-1.93-0.242l-1.809,0.242l-1.688,0.964l-1.206,1.447l-0.724,1.689
		l-0.12,1.929l0.483,1.809l1.083,1.567L55.561,83.236z"/>
	<path fill="#B2B2B2" d="M57.972,100.238h6.392l-0.723-2.894l1.688-10.249l4.461,15.796h-2.05v0.242l-5.668-2.05h-8.079l-5.666,2.05
		v-0.242h-2.051l4.463-15.796l1.566,10.249l-0.603,2.894H57.972z M55.561,83.236l-1.447,0.362l-2.894,0.724l-0.481,0.241
		l-0.242,0.12l-2.051,1.447l-0.36,0.482l-4.462,15.676v0.603h-2.896v2.051h7.599v-0.241l6.149-2.291h3.135h-0.12l-0.363,2.291
		v12.541h-0.239v3.135l-0.604,1.084v27.373l0.362,0.844l0.964,0.362h0.845l0.965-0.362l0.361-0.844V121.46l-0.604-1.084v-3.135
		h-0.24v-12.541l-0.361-2.291h-0.12h3.135l6.149,2.291v0.241h7.597v-2.051h-2.894v-0.603l-4.461-15.676l-0.361-0.482l-2.052-1.447
		l-0.36-0.12l-0.363-0.241l-2.894-0.724l-1.446-0.362l1.446-1.085l1.206-1.567l0.483-1.809l-0.122-1.929l-0.723-1.689L61.59,73.71
		l-1.688-0.964l-1.93-0.242l-1.809,0.242l-1.688,0.964l-1.206,1.447l-0.724,1.689l-0.12,1.929l0.483,1.809l1.083,1.567
		L55.561,83.236z"/>
</g>
<g>
	<polygon fill-rule="evenodd" clip-rule="evenodd" fill="#B2B2B2" points="86.156,56.896 86.934,56.896 86.934,56.896 
		86.934,60.515 86.934,60.515 86.967,60.859 87.069,61.18 87.229,61.489 87.446,61.752 87.708,61.97 88.007,62.13 88.326,62.222 
		88.669,62.257 90.049,62.257 90.049,62.257 90.049,60.917 90.049,60.917 88.896,60.917 88.896,60.917 88.737,60.894 88.61,60.802 
		88.52,60.676 88.485,60.515 88.485,56.896 88.485,56.896 90.049,56.896 90.049,56.896 90.049,55.555 90.049,55.555 88.485,55.555 
		88.485,55.555 88.485,52.875 88.485,52.875 86.934,53.78 86.934,53.78 86.934,55.555 86.934,55.555 86.156,55.555 86.156,55.555 
		86.156,56.896 86.156,56.896 	"/>
	<path fill-rule="evenodd" clip-rule="evenodd" fill="#B2B2B2" d="M81.055,62.257h0.934l0,0l0.31-0.023l0.297-0.092l0.273-0.149
		l0.229-0.206v0.47l0,0h1.563l0,0v-4.204l0,0l-0.044-0.493l-0.138-0.48l-0.219-0.436l-0.295-0.401l-0.366-0.332l-0.422-0.264
		l-0.458-0.171l-0.49-0.092h-0.49l-0.491,0.092l-0.457,0.183l-0.422,0.263l-0.364,0.333l-0.286,0.39l-0.229,0.447l-0.124,0.481
		h1.541l0,0l0.113-0.298l0.193-0.241l0.253-0.195l0.298-0.103l0.306-0.023l0.31,0.069l0.271,0.149l0.219,0.218l0.115,0.194
		l0.044,0.207l-0.01,0.218l-0.069,0.206l-0.114,0.183l-0.171,0.138l-0.194,0.08l-0.216,0.034h-1.198l0,0l-0.378,0.034l-0.365,0.115
		l-0.331,0.172l-0.285,0.241l-0.239,0.298l-0.184,0.332l-0.104,0.355l-0.032,0.378l0.032,0.378l0.104,0.355l0.184,0.333l0.239,0.298
		l0.285,0.24l0.331,0.172l0.365,0.114L81.055,62.257L81.055,62.257z M81.271,60.917h1.049l0,0l0.298-0.058l0.251-0.171l0.171-0.253
		l0.058-0.297v-0.985l0,0l-0.204,0.24l-0.275,0.194l-0.309,0.115l-0.32,0.046h-0.718l0,0l-0.216,0.045l-0.196,0.125l-0.124,0.184
		l-0.047,0.229l0.047,0.229l0.124,0.183l0.196,0.126L81.271,60.917L81.271,60.917z"/>
	<path fill-rule="evenodd" clip-rule="evenodd" fill="#B2B2B2" d="M73.837,62.257h0.938l0,0l0.308-0.023l0.297-0.092l0.273-0.149
		l0.24-0.206v0.47l0,0h1.553l0,0v-4.204l0,0L77.4,57.56l-0.137-0.48l-0.218-0.436l-0.296-0.401l-0.366-0.332l-0.423-0.264
		l-0.456-0.171l-0.491-0.092h-0.49l-0.479,0.092l-0.469,0.183l-0.41,0.263L72.8,56.254l-0.297,0.39l-0.218,0.447l-0.137,0.481h1.541
		l0,0l0.115-0.298l0.193-0.241l0.251-0.195l0.297-0.103l0.309-0.023l0.309,0.069l0.273,0.149l0.228,0.218l0.103,0.194l0.047,0.207
		v0.218l-0.068,0.206l-0.126,0.183l-0.17,0.138l-0.195,0.08l-0.218,0.034h-1.199l0,0l-0.375,0.034l-0.354,0.115l-0.332,0.172
		l-0.297,0.241l-0.24,0.298l-0.17,0.332l-0.115,0.355l-0.034,0.378l0.034,0.378l0.115,0.355l0.17,0.333l0.24,0.298l0.297,0.24
		l0.332,0.172l0.354,0.114L73.837,62.257L73.837,62.257z M74.066,60.917h1.05l0,0l0.298-0.058l0.25-0.171l0.171-0.253l0.059-0.297
		v-0.985l0,0l-0.218,0.24l-0.262,0.194l-0.309,0.115l-0.33,0.046h-0.709l0,0l-0.229,0.045l-0.193,0.125l-0.125,0.184l-0.045,0.229
		l0.045,0.229l0.125,0.183l0.193,0.126L74.066,60.917L74.066,60.917z"/>
	<polygon fill-rule="evenodd" clip-rule="evenodd" fill="#B2B2B2" points="67.001,62.257 68.554,62.257 68.554,62.257 
		68.554,58.465 68.554,58.465 68.586,58.155 68.678,57.87 68.814,57.594 69.009,57.354 69.25,57.159 69.512,57.021 69.809,56.93 
		70.116,56.896 70.894,56.896 70.894,56.896 70.894,55.555 70.894,55.555 70.116,55.555 70.116,55.555 69.683,55.601 69.272,55.728 
		68.884,55.933 68.554,56.22 68.554,55.555 68.554,55.555 67.001,55.555 67.001,55.555 67.001,62.257 67.001,62.257 	"/>
	<polygon fill-rule="evenodd" clip-rule="evenodd" fill="#B2B2B2" points="61.612,56.896 62.387,56.896 62.387,56.896 
		62.387,60.515 62.387,60.515 62.421,60.859 62.513,61.18 62.673,61.489 62.891,61.752 63.152,61.97 63.461,62.13 63.78,62.222 
		64.123,62.257 65.504,62.257 65.504,62.257 65.504,60.917 65.504,60.917 64.341,60.917 64.341,60.917 64.191,60.894 64.065,60.802 
		63.974,60.676 63.94,60.515 63.94,56.896 63.94,56.896 65.504,56.896 65.504,56.896 65.504,55.555 65.504,55.555 63.94,55.555 
		63.94,55.555 63.94,52.875 63.94,52.875 62.387,53.78 62.387,53.78 62.387,55.555 62.387,55.555 61.612,55.555 61.612,55.555 
		61.612,56.896 61.612,56.896 	"/>
	<polygon fill-rule="evenodd" clip-rule="evenodd" fill="#B2B2B2" points="56.234,60.321 54.682,60.321 54.682,60.321 54.75,60.848 
		54.957,61.328 55.287,61.741 55.721,62.051 56.109,62.222 56.509,62.348 56.931,62.417 57.342,62.451 57.765,62.417 58.187,62.348 
		58.587,62.222 58.975,62.051 59.442,61.707 59.784,61.237 59.979,60.688 60.002,60.115 59.853,59.553 59.545,59.061 59.11,58.671 
		58.587,58.442 56.748,57.927 56.748,57.927 56.611,57.87 56.509,57.767 56.44,57.64 56.406,57.491 56.429,57.342 56.485,57.216 
		56.589,57.102 56.726,57.033 57.032,56.964 57.342,56.93 57.661,56.964 57.97,57.033 58.096,57.102 58.198,57.206 58.266,57.331 
		58.289,57.48 59.842,57.48 59.842,57.48 59.819,57.159 59.751,56.85 59.625,56.563 59.465,56.289 59.26,56.048 59.021,55.842 
		58.759,55.681 58.46,55.555 57.912,55.418 57.342,55.372 56.782,55.418 56.234,55.555 55.938,55.681 55.663,55.854 55.424,56.071 
		55.219,56.312 55.048,56.598 54.933,56.896 54.864,57.216 54.854,57.537 54.888,57.858 54.968,58.179 55.104,58.465 55.287,58.74 
		55.504,58.98 55.768,59.175 56.04,59.335 56.349,59.438 58.175,59.954 58.175,59.954 58.369,60.068 58.46,60.275 58.415,60.504 
		58.255,60.665 57.81,60.825 57.342,60.882 56.885,60.825 56.44,60.665 56.291,60.515 56.234,60.321 	"/>
	<polygon fill-rule="evenodd" clip-rule="evenodd" fill="#B2B2B2" points="49.306,60.321 47.74,60.321 47.74,60.321 47.82,60.848 
		48.026,61.328 48.357,61.741 48.791,62.051 49.179,62.222 49.578,62.348 49.989,62.417 50.412,62.451 50.835,62.417 51.257,62.348 
		51.657,62.222 52.045,62.051 52.514,61.707 52.854,61.237 53.05,60.688 53.073,60.115 52.924,59.553 52.616,59.061 52.181,58.671 
		51.657,58.442 49.818,57.927 49.818,57.927 49.681,57.87 49.578,57.767 49.51,57.64 49.477,57.491 49.499,57.342 49.557,57.216 
		49.658,57.102 49.796,57.033 50.104,56.964 50.412,56.93 50.731,56.964 51.04,57.033 51.166,57.102 51.268,57.206 51.337,57.331 
		51.359,57.48 52.911,57.48 52.911,57.48 52.889,57.159 52.82,56.85 52.695,56.563 52.536,56.289 52.33,56.048 52.09,55.842 
		51.828,55.681 51.53,55.555 50.982,55.418 50.412,55.372 49.853,55.418 49.306,55.555 49.008,55.681 48.733,55.854 48.494,56.071 
		48.288,56.312 48.117,56.598 48.005,56.896 47.936,57.216 47.924,57.537 47.957,57.858 48.037,58.179 48.176,58.465 48.357,58.74 
		48.575,58.98 48.826,59.175 49.11,59.335 49.419,59.438 51.246,59.954 51.246,59.954 51.439,60.068 51.53,60.275 51.486,60.504 
		51.325,60.665 50.88,60.825 50.412,60.882 49.956,60.825 49.51,60.665 49.361,60.515 49.306,60.321 	"/>
	<polygon fill-rule="evenodd" clip-rule="evenodd" fill="#B2B2B2" points="42.455,56.896 43.231,56.896 43.231,56.896 
		43.231,60.515 43.231,60.515 43.266,60.859 43.356,61.18 43.517,61.489 43.734,61.752 43.997,61.97 44.305,62.13 44.625,62.222 
		44.967,62.257 46.347,62.257 46.347,62.257 46.347,60.917 46.347,60.917 45.184,60.917 45.184,60.917 45.035,60.894 44.909,60.802 
		44.818,60.676 44.784,60.515 44.784,56.896 44.784,56.896 46.347,56.896 46.347,56.896 46.347,55.555 46.347,55.555 44.784,55.555 
		44.784,55.555 44.784,52.875 44.784,52.875 43.231,53.78 43.231,53.78 43.231,55.555 43.231,55.555 42.455,55.555 42.455,55.555 
		42.455,56.896 42.455,56.896 	"/>
	<path fill-rule="evenodd" clip-rule="evenodd" fill="#B2B2B2" d="M35.525,58.11v1.662l0,0l0.034,0.469l0.126,0.458l0.204,0.436
		l0.286,0.389l0.343,0.333l0.388,0.263l0.446,0.195l0.456,0.104l0.479,0.022l0.467-0.057l0.459-0.138l0.422-0.229l0.376-0.287
		l0.32-0.355l0.252-0.413l0.17-0.447h-1.587l0,0l-0.217,0.298l-0.308,0.195L38.288,61.1l-0.365-0.023l-0.343-0.149l-0.263-0.251
		l-0.183-0.321l-0.058-0.367V59.45l0,0h3.779l0,0v-1.34l0,0l-0.046-0.526l-0.147-0.504l-0.25-0.458l-0.333-0.413l-0.41-0.332
		l-0.456-0.241l-0.504-0.16l-0.525-0.046l-0.513,0.046l-0.502,0.16l-0.468,0.241l-0.399,0.332l-0.333,0.413l-0.25,0.458
		l-0.148,0.504L35.525,58.11L35.525,58.11z M37.077,57.824v0.286l0,0h2.228l0,0v-0.286l0,0l-0.08-0.424l-0.251-0.355l-0.354-0.251
		l-0.435-0.081l-0.421,0.081l-0.356,0.251l-0.25,0.355L37.077,57.824L37.077,57.824z"/>
	<polygon fill-rule="evenodd" clip-rule="evenodd" fill="#B2B2B2" points="32.203,53.15 32.203,54.49 32.203,54.49 33.539,54.49 
		33.539,54.49 33.539,53.15 33.539,53.15 32.203,53.15 32.203,53.15 	"/>
	<polygon fill-rule="evenodd" clip-rule="evenodd" fill="#B2B2B2" points="32.09,62.257 33.653,62.257 33.653,62.257 33.653,55.555 
		33.653,55.555 32.09,55.555 32.09,55.555 32.09,62.257 32.09,62.257 	"/>
	<polygon fill-rule="evenodd" clip-rule="evenodd" fill="#B2B2B2" points="24.852,62.257 26.576,62.257 26.576,62.257 26.576,58.19 
		26.576,58.19 29.258,58.19 29.258,58.19 29.258,56.632 29.258,56.632 26.576,56.632 26.576,56.632 26.576,54.444 26.576,54.444 
		30.593,54.444 30.593,54.444 30.593,52.875 30.593,52.875 24.852,52.875 24.852,52.875 24.852,62.257 24.852,62.257 	"/>
</g>
<g>
	<polygon fill-rule="evenodd" clip-rule="evenodd" fill="#B2B2B2" points="21.051,33.669 35.999,33.669 35.999,30.044 
		25.604,30.044 35.56,15.503 35.56,11.868 21.48,11.868 21.48,15.503 31.007,15.503 21.051,30.044 21.051,33.669 	"/>
	<path fill-rule="evenodd" clip-rule="evenodd" fill="#B2B2B2" d="M40.143,18.909v7.73v0.18l0.011,0.18l0.01,0.19l0.01,0.18
		l0.021,0.18l0.029,0.18l0.03,0.18l0.03,0.19l0.04,0.18l0.039,0.17l0.05,0.18l0.051,0.18l0.06,0.17l0.06,0.18l0.061,0.17l0.069,0.17
		l0.07,0.169l0.08,0.17l0.079,0.16l0.08,0.16l0.09,0.16l0.09,0.16l0.1,0.16l0.101,0.15l0.1,0.16l0.11,0.14l0.109,0.149l0.12,0.14
		l0.109,0.14l0.13,0.14l0.12,0.14l0.13,0.13l0.129,0.129l0.141,0.12l0.13,0.12l0.14,0.12l0.149,0.12l0.14,0.11l0.15,0.11l0.149,0.1
		l0.16,0.1l0.149,0.1l0.16,0.09l0.159,0.09l0.17,0.08l0.16,0.08l0.169,0.08l0.17,0.07l0.17,0.07l0.17,0.06l0.18,0.06l0.17,0.06
		l0.18,0.05l0.17,0.05l0.18,0.04l0.18,0.04l0.18,0.03l0.18,0.03l0.189,0.02l0.18,0.02l0.18,0.02l0.19,0.01l0.18,0.01h0.18h0.189
		l0.18-0.01l0.18-0.01l0.189-0.02l0.18-0.02l0.181-0.02l0.18-0.03l0.18-0.03l0.18-0.04l0.18-0.04l0.18-0.05l0.18-0.05l0.17-0.06
		l0.18-0.06l0.17-0.06l0.169-0.07l0.17-0.07l0.16-0.08l0.169-0.08l0.16-0.08l0.16-0.09l0.159-0.09l0.16-0.1l0.149-0.1l0.15-0.1
		l0.149-0.11l0.149-0.11l0.141-0.12l0.14-0.12l0.14-0.12l0.13-0.12l0.14-0.129l0.12-0.13l0.13-0.14l0.119-0.14l0.12-0.14l0.11-0.14
		l0.119-0.149l0.101-0.14l0.109-0.16l0.1-0.15l0.09-0.16l0.1-0.16l0.08-0.16l0.09-0.16l0.08-0.16l0.08-0.17l0.069-0.169l0.07-0.17
		l0.06-0.17l0.061-0.18l0.06-0.17l0.05-0.18l0.04-0.18l0.05-0.17l0.04-0.18l0.03-0.19l0.029-0.18l0.021-0.18l0.02-0.18l0.021-0.18
		l0.01-0.19l0.01-0.18v-0.18v-7.73v-0.18l-0.01-0.189l-0.01-0.18l-0.021-0.18l-0.02-0.189l-0.021-0.18l-0.029-0.18l-0.03-0.18
		l-0.04-0.18l-0.05-0.18l-0.04-0.18l-0.05-0.17l-0.06-0.18l-0.061-0.17l-0.06-0.169l-0.07-0.17l-0.069-0.17l-0.08-0.17l-0.08-0.169
		l-0.09-0.16l-0.08-0.16l-0.1-0.16l-0.09-0.16l-0.1-0.15l-0.109-0.15l-0.101-0.15l-0.119-0.149l-0.11-0.14l-0.12-0.14l-0.119-0.14
		l-0.13-0.13l-0.12-0.13l-0.14-0.13l-0.13-0.13l-0.14-0.12l-0.14-0.12l-0.141-0.11l-0.149-0.11l-0.149-0.11l-0.15-0.1l-0.149-0.1
		l-0.16-0.1l-0.159-0.09l-0.16-0.09l-0.16-0.09l-0.169-0.08l-0.16-0.07l-0.17-0.08l-0.169-0.06l-0.17-0.07l-0.18-0.06l-0.17-0.05
		l-0.18-0.05l-0.18-0.05l-0.18-0.04l-0.18-0.04l-0.18-0.04l-0.18-0.02l-0.181-0.03l-0.18-0.02l-0.189-0.02l-0.18-0.01h-0.18
		l-0.189-0.01l-0.18,0.01h-0.18l-0.19,0.01l-0.18,0.02l-0.18,0.02l-0.189,0.03l-0.18,0.02l-0.18,0.04l-0.18,0.04l-0.18,0.04
		l-0.17,0.05l-0.18,0.05l-0.17,0.05l-0.18,0.06l-0.17,0.07l-0.17,0.06l-0.17,0.08l-0.169,0.07l-0.16,0.08l-0.17,0.09l-0.159,0.09
		l-0.16,0.09l-0.149,0.1l-0.16,0.1l-0.149,0.1l-0.15,0.11l-0.14,0.11l-0.149,0.11l-0.14,0.12l-0.13,0.12l-0.141,0.13l-0.129,0.13
		l-0.13,0.13l-0.12,0.13l-0.13,0.14l-0.109,0.14l-0.12,0.14l-0.109,0.149l-0.11,0.15l-0.1,0.15l-0.101,0.15l-0.1,0.16l-0.09,0.16
		l-0.09,0.16l-0.08,0.16l-0.079,0.169l-0.08,0.17l-0.07,0.17l-0.069,0.17l-0.061,0.169l-0.06,0.17l-0.06,0.18l-0.051,0.17
		l-0.05,0.18l-0.039,0.18l-0.04,0.18l-0.03,0.18l-0.03,0.18l-0.029,0.18l-0.021,0.189l-0.01,0.18l-0.01,0.18l-0.011,0.189V18.909
		L40.143,18.909z M44.137,18.549v8.449v0.08v0.09l0.011,0.09l0.01,0.08l0.01,0.09l0.01,0.08l0.011,0.08l0.02,0.09l0.01,0.08
		l0.021,0.09l0.03,0.08l0.02,0.08l0.03,0.08l0.02,0.08l0.03,0.08l0.04,0.08l0.029,0.08l0.03,0.08l0.04,0.07l0.04,0.08l0.039,0.08
		l0.051,0.07l0.04,0.07l0.05,0.07l0.05,0.07l0.05,0.07l0.05,0.07l0.05,0.07l0.061,0.06l0.05,0.07l0.06,0.06l0.061,0.06l0.06,0.06
		l0.06,0.06l0.07,0.06l0.06,0.05l0.069,0.05l0.07,0.06l0.07,0.05l0.069,0.04l0.07,0.05l0.069,0.05l0.08,0.04l0.07,0.04l0.08,0.04
		l0.069,0.04l0.08,0.03l0.08,0.04l0.08,0.03l0.079,0.03l0.08,0.03l0.08,0.02l0.08,0.03l0.09,0.02l0.08,0.02l0.08,0.01l0.09,0.02
		l0.079,0.01l0.09,0.02l0.08,0.01h0.09l0.08,0.01h0.09h0.08h0.09h0.08l0.09-0.01h0.079l0.09-0.01l0.08-0.02l0.09-0.01l0.08-0.02
		l0.09-0.01l0.08-0.02l0.08-0.02l0.08-0.03l0.09-0.02l0.079-0.03l0.08-0.03l0.08-0.03l0.069-0.04l0.08-0.03l0.08-0.04l0.07-0.04
		l0.08-0.04l0.069-0.04l0.08-0.05l0.069-0.05l0.07-0.04l0.07-0.05l0.069-0.06l0.06-0.05l0.07-0.05l0.061-0.06l0.06-0.06l0.069-0.06
		l0.061-0.06l0.05-0.06l0.06-0.07l0.061-0.06l0.05-0.07l0.05-0.07l0.05-0.07l0.05-0.07l0.05-0.07l0.04-0.07l0.04-0.07l0.04-0.08
		l0.04-0.08l0.04-0.07l0.04-0.08l0.029-0.08l0.03-0.08l0.029-0.08l0.03-0.08l0.03-0.08l0.02-0.08l0.021-0.08l0.02-0.09l0.021-0.08
		l0.01-0.09l0.02-0.08l0.011-0.08l0.01-0.09l0.01-0.08v-0.09l0.01-0.09v-0.08v-8.449v-0.09l-0.01-0.08v-0.09l-0.01-0.09l-0.01-0.08
		l-0.011-0.09l-0.02-0.08l-0.01-0.08l-0.021-0.09l-0.02-0.08l-0.021-0.08l-0.02-0.09l-0.03-0.08l-0.03-0.08l-0.029-0.08l-0.03-0.08
		l-0.029-0.08l-0.04-0.07l-0.04-0.08l-0.04-0.08l-0.04-0.07l-0.04-0.07l-0.04-0.08l-0.05-0.07l-0.05-0.07l-0.05-0.07l-0.05-0.07
		l-0.05-0.06l-0.061-0.07l-0.06-0.06l-0.05-0.07l-0.061-0.06l-0.069-0.06l-0.06-0.05l-0.061-0.06l-0.07-0.06l-0.06-0.05l-0.069-0.05
		l-0.07-0.05l-0.07-0.05l-0.069-0.05l-0.08-0.04l-0.069-0.04l-0.08-0.05l-0.07-0.04l-0.08-0.03l-0.08-0.04l-0.069-0.03l-0.08-0.03
		l-0.08-0.03l-0.079-0.03l-0.09-0.03l-0.08-0.02l-0.08-0.02l-0.08-0.02l-0.09-0.02l-0.08-0.02l-0.09-0.01l-0.08-0.01l-0.09-0.01
		l-0.079-0.01h-0.09l-0.08-0.01h-0.09h-0.08l-0.09,0.01h-0.08l-0.09,0.01l-0.08,0.01l-0.09,0.01l-0.079,0.01l-0.09,0.02l-0.08,0.02
		l-0.08,0.02l-0.09,0.02l-0.08,0.02l-0.08,0.03l-0.08,0.03l-0.079,0.03l-0.08,0.03l-0.08,0.03l-0.08,0.04l-0.069,0.03l-0.08,0.04
		l-0.07,0.05l-0.08,0.04l-0.069,0.04l-0.07,0.05l-0.069,0.05l-0.07,0.05l-0.07,0.05l-0.069,0.05l-0.06,0.06l-0.07,0.06l-0.06,0.05
		l-0.06,0.06l-0.061,0.06l-0.06,0.07l-0.05,0.06l-0.061,0.07l-0.05,0.06l-0.05,0.07l-0.05,0.07l-0.05,0.07l-0.05,0.07l-0.04,0.08
		l-0.051,0.07l-0.039,0.07l-0.04,0.08l-0.04,0.08l-0.03,0.07l-0.029,0.08l-0.04,0.08l-0.03,0.08l-0.02,0.08l-0.03,0.08l-0.02,0.09
		l-0.03,0.08l-0.021,0.08l-0.01,0.09l-0.02,0.08l-0.011,0.08l-0.01,0.09l-0.01,0.08l-0.01,0.09l-0.011,0.09v0.08V18.549
		L44.137,18.549z"/>
	<polygon fill-rule="evenodd" clip-rule="evenodd" fill="#B2B2B2" points="59.884,33.669 63.519,33.669 63.519,19.188 
		70.169,33.669 74.832,33.669 74.832,11.868 71.197,11.868 71.197,26.349 64.558,11.868 59.884,11.868 59.884,33.669 	"/>
	<polygon fill-rule="evenodd" clip-rule="evenodd" fill="#B2B2B2" points="80.284,33.669 93.674,33.669 93.674,30.044 
		84.278,30.044 84.278,24.222 90.559,24.222 90.559,20.587 84.278,20.587 84.278,15.503 93.674,15.503 93.674,11.868 80.284,11.868 
		80.284,33.669 	"/>
</g>
<polygon fill-rule="evenodd" clip-rule="evenodd" fill="#FFFFFF" points="81.27,118.291 81.03,117.089 80.31,116.07 79.35,115.41 
	78.15,115.169 76.95,115.41 75.93,116.07 75.27,117.089 75.03,118.291 75.27,119.49 75.93,120.51 76.95,121.169 78.15,121.41 
	79.35,121.169 80.31,120.51 81.03,119.49 "/>
<polygon fill-rule="evenodd" clip-rule="evenodd" fill="#FFFFFF" points="35.91,118.169 35.67,116.97 35.01,116.01 33.989,115.291 
	32.79,115.05 31.59,115.291 30.569,116.01 29.91,116.97 29.67,118.169 29.91,119.371 30.569,120.39 31.59,121.11 32.79,121.291 
	33.989,121.11 35.01,120.39 35.67,119.371 "/>
<polygon fill="none" stroke="#FFFFFF" stroke-width="0.06" stroke-linecap="round" stroke-linejoin="round" stroke-miterlimit="10" points="
	35.91,118.169 35.67,116.97 35.01,116.01 33.989,115.291 32.79,115.05 31.59,115.291 30.569,116.01 29.91,116.97 29.67,118.169 
	29.91,119.371 30.569,120.39 31.59,121.11 32.79,121.291 33.989,121.11 35.01,120.39 35.67,119.371 "/>
<path fill-rule="evenodd" clip-rule="evenodd" d="M0.03,154.77v2.58c0.08,5.73,3.781,10.695,9.3,12.3l1.08,0.24l103.02-154.5v-2.58
	c-0.081-5.731-3.782-10.695-9.3-12.3l-1.08-0.24L0.03,154.77z"/>
<path fill="none" stroke="#000000" stroke-width="0.06" stroke-linecap="round" stroke-linejoin="round" stroke-miterlimit="10" d="
	M0.03,154.77v2.58c0.08,5.73,3.781,10.695,9.3,12.3l1.08,0.24l103.02-154.5v-2.58c-0.081-5.731-3.782-10.695-9.3-12.3l-1.08-0.24
	L0.03,154.77z"/>
</svg>
